<svg xmlns="http://www.w3.org/2000/svg" viewBox="5740 360 20 20"><defs><style>.cls-1{fill:rgba(255,255,255,0)}.cls-2{fill:url(#linear-gradient)}.cls-3{opacity:.2}.cls-4{fill:#fff}.cls-5{fill:url(#radial-gradient)}.cls-6{fill:#6f9fbf}.cls-7{fill:#4a8cba}.cls-8{clip-path:url(#clip-path)}.cls-9{fill:#b7d1e3}.cls-10{opacity:.4}.cls-11{fill:#2786a8}.cls-12{fill:#2887a8}.cls-13{fill:#2987a9}.cls-14{fill:#2a88a9}.cls-15{fill:#2b88aa}.cls-16{fill:#2c89aa}.cls-17{fill:#2d89aa}.cls-18{fill:#2e8aab}.cls-19{fill:#2f8aab}.cls-20{fill:#308bac}.cls-21{fill:#318cac}.cls-22{fill:#328cac}.cls-23{fill:#338dad}.cls-24{fill:#348dad}.cls-25{fill:#358eae}.cls-26{fill:#368eae}.cls-27{fill:#378fae}.cls-28{fill:#3890af}.cls-29{fill:#3990af}.cls-30{fill:#3a91b0}.cls-31{fill:#3b91b0}.cls-32{fill:#3c92b0}.cls-33{fill:#3d92b1}.cls-34{fill:#3e93b1}.cls-35{fill:#3f93b2}.cls-36{fill:#4094b2}.cls-37{fill:#4195b2}.cls-38{fill:#4295b3}.cls-39{fill:#4396b3}.cls-40{fill:#4496b4}.cls-41{fill:#4597b4}.cls-42{fill:#4697b4}.cls-43{fill:#4798b5}.cls-44{fill:#4898b5}.cls-45{fill:#4999b6}.cls-46{fill:#4a9ab6}.cls-47{fill:#4b9ab7}.cls-48{fill:#4c9bb7}.cls-49{fill:#4d9bb7}.cls-50{fill:#4e9cb8}.cls-51{fill:#4f9cb8}.cls-52{fill:#509db9}.cls-53{fill:#519eb9}.cls-54{fill:#529eb9}.cls-55{fill:#539fba}.cls-56{fill:#549fba}.cls-57{fill:#55a0bb}.cls-58{fill:#56a0bb}.cls-59{fill:#57a1bb}.cls-60{fill:#58a1bc}.cls-61{fill:#59a2bc}.cls-62{fill:#5aa3bd}.cls-63{fill:#5ba3bd}.cls-64{fill:#5ca4bd}.cls-65{fill:#5da4be}.cls-66{fill:#5ea5be}.cls-67{fill:#5fa5bf}.cls-68{fill:#60a6bf}.cls-69{fill:#61a6bf}.cls-70{fill:#62a7c0}.cls-71{fill:#63a8c0}.cls-72{fill:#64a8c1}.cls-73{fill:#65a9c1}.cls-74{fill:#66a9c1}.cls-75{fill:#67aac2}.cls-76{fill:#68aac2}.cls-77{fill:#69abc3}.cls-78{fill:#6aacc3}.cls-79{fill:#6bacc3}.cls-80{fill:#6cadc4}.cls-81{fill:#6dadc4}.cls-82{fill:#6eaec5}.cls-83{fill:#6faec5}.cls-84{fill:#70afc5}.cls-85{fill:#71afc6}.cls-86{fill:#72b0c6}.cls-87{fill:#73b1c7}.cls-88{fill:#74b1c7}.cls-89{fill:#75b2c7}.cls-90{fill:#76b2c8}.cls-91{fill:#77b3c8}.cls-92{fill:#78b3c9}.cls-93{fill:#79b4c9}.cls-94{fill:#7ab4c9}.cls-95{fill:#7bb5ca}.cls-96{fill:#7cb6ca}.cls-97{fill:#7db6cb}.cls-98{fill:#7eb7cb}.cls-99{fill:#7fb7cb}.cls-100{fill:#80b8cc}.cls-101{fill:#81b8cc}.cls-102{fill:#82b9cd}.cls-103{fill:#83bacd}.cls-104{fill:#84bacd}.cls-105{fill:#85bbce}.cls-106{fill:#86bbce}.cls-107{fill:#87bccf}.cls-108{fill:#88bccf}.cls-109{fill:#89bdcf}.cls-110{fill:#8abdd0}.cls-111{fill:#8bbed0}.cls-112{fill:#8cbfd1}.cls-113{fill:#8dbfd1}.cls-114{fill:#8ec0d1}.cls-115{fill:#8fc0d2}.cls-116{fill:#90c1d2}.cls-117{fill:#91c1d3}.cls-118{fill:#92c2d3}.cls-119{fill:#93c3d4}.cls-120{fill:#94c3d4}.cls-121{fill:#95c4d4}.cls-122{fill:#96c4d5}.cls-123{fill:#97c5d5}.cls-124{fill:#98c5d6}.cls-125{fill:#99c6d6}.cls-126{fill:#9ac6d6}.cls-127{fill:#9bc7d7}.cls-128{fill:#9cc8d7}.cls-129{fill:#9dc8d8}.cls-130{fill:#9ec9d8}.cls-131{fill:#9fc9d8}.cls-132{fill:#a0cad9}.cls-133{fill:#a1cad9}.cls-134{fill:#a2cbda}.cls-135{fill:#a3cbda}.cls-136{fill:#a4ccda}.cls-137{fill:#a5cddb}.cls-138{fill:#a6cddb}.cls-139{fill:#a7cedc}.cls-140{fill:#a8cedc}.cls-141{fill:#a9cfdc}.cls-142{fill:#aacfdd}.cls-143{fill:#abd0dd}.cls-144{fill:#acd1de}.cls-145{fill:#add1de}.cls-146{fill:#aed2de}.cls-147{fill:#afd2df}.cls-148{fill:#b0d3df}.cls-149{fill:#b1d3e0}.cls-150{fill:#b2d4e0}.cls-151{fill:#b3d4e0}.cls-152{fill:#b4d5e1}.cls-153{fill:#b5d6e1}.cls-154{fill:#b6d6e2}.cls-155{fill:#b7d7e2}.cls-156{fill:#b8d7e2}.cls-157{fill:#b9d8e3}.cls-158{fill:#bad8e3}.cls-159{fill:#bbd9e4}.cls-160{fill:#bcd9e4}.cls-161{fill:#bddae4}.cls-162{fill:#bedbe5}.cls-163{fill:#bfdbe5}.cls-164{fill:#c0dce6}.cls-165{fill:#c1dce6}.cls-166{fill:#c2dde6}.cls-167{fill:#c3dde7}.cls-168{fill:#c4dee7}.cls-169{fill:#c5dfe8}.cls-170{fill:#c6dfe8}.cls-171{fill:#c7e0e8}.cls-172{fill:#c8e0e9}.cls-173{fill:#c9e1e9}.cls-174{fill:#cae1ea}.cls-175{fill:#cbe2ea}.cls-176{fill:#cce2ea}.cls-177{fill:#cde3eb}.cls-178{fill:#cee4eb}.cls-179{fill:#cfe4ec}.cls-180{fill:#d0e5ec}.cls-181{fill:#d1e5ec}.cls-182{fill:#d2e6ed}.cls-183{fill:#d3e6ed}.cls-184{fill:#d4e7ee}.cls-185{fill:#d5e7ee}.cls-186{fill:#d6e8ee}.cls-187{fill:#d7e9ef}.cls-188{fill:#d8e9ef}.cls-189{fill:#d9eaf0}.cls-190{fill:#daeaf0}.cls-191{fill:#dbebf0}.cls-192{fill:#dcebf1}.cls-193{fill:#ddecf1}.cls-194{fill:#deedf2}.cls-195{fill:#dfedf2}.cls-196{fill:#e0eef3}.cls-197{fill:#e1eef3}.cls-198{fill:#e2eff3}.cls-199{fill:#e3eff4}.cls-200{fill:#e4f0f4}.cls-201{fill:#e5f0f5}.cls-202{fill:#e6f1f5}.cls-203{fill:#e7f2f5}.cls-204{fill:#e8f2f6}.cls-205{fill:#e9f3f6}.cls-206{fill:#eaf3f7}.cls-207{fill:#ebf4f7}.cls-208{fill:#ecf4f7}.cls-209{fill:#edf5f8}.cls-210{fill:#eef5f8}.cls-211{fill:#eff6f9}.cls-212{fill:#f0f7f9}.cls-213{fill:#f1f7f9}.cls-214{fill:#f2f8fa}.cls-215{fill:#f3f8fa}.cls-216{fill:#f4f9fb}.cls-217{fill:#f5f9fb}.cls-218{fill:#f6fafb}.cls-219{fill:#f7fbfc}.cls-220{fill:#f8fbfc}.cls-221{fill:#f9fcfd}.cls-222{fill:#fafcfd}.cls-223{fill:#fbfdfd}.cls-224{fill:#fcfdfe}.cls-225{fill:#fdfefe}.cls-226{fill:#fefeff}</style><linearGradient id="linear-gradient" x1=".5" x2=".5" y2="1" gradientUnits="objectBoundingBox"><stop offset="0" stop-color="#329ed9"/><stop offset=".314" stop-color="#6ab8e6"/><stop offset=".627" stop-color="#9acff1"/><stop offset=".866" stop-color="#b9def8"/><stop offset="1" stop-color="#c4e3fb"/></linearGradient><radialGradient id="radial-gradient" cx="3.667" cy="-2308.592" r="3.667" gradientUnits="userSpaceOnUse"><stop offset=".621" stop-color="#3fa9f5"/><stop offset=".674" stop-color="#61b8f7"/><stop offset=".789" stop-color="#a4d6fa"/><stop offset=".886" stop-color="#d5ecfd"/><stop offset=".959" stop-color="#f4fafe"/><stop offset="1" stop-color="#fff"/></radialGradient><clipPath id="clip-path"><path id="Path_2281" data-name="Path 2281" d="M45.833 109.733h-6.666a1.667 1.667 0 0 1-1.667-1.667 1.667 1.667 0 0 1 1.667-1.667h6.667a1.667 1.667 0 0 1 1.667 1.667 1.676 1.676 0 0 1-1.668 1.667z" transform="translate(-37.5 -106.4)"/></clipPath></defs><g id="afraid" transform="translate(5470 -180)"><path id="Rectangle_816" data-name="Rectangle 816" class="cls-1" transform="translate(270 540)" d="M0 0H20V20H0z"/><g id="XMLID_1_" transform="translate(270 540)"><ellipse id="XMLID_502_" class="cls-2" cx="10" cy="10" rx="10" ry="10"/><g id="XMLID_499_" class="cls-3" transform="translate(2.173 11.813)"><ellipse id="XMLID_501_" class="cls-4" cx="2.427" cy="2.427" rx="2.427" ry="2.427"/><ellipse id="XMLID_500_" class="cls-4" cx="2.427" cy="2.427" rx="2.427" ry="2.427" transform="translate(10.8)"/></g><g id="XMLID_486_" transform="translate(2.333 6.333)"><g id="XMLID_493_"><ellipse id="XMLID_498_" class="cls-5" cx="3.667" cy="3.667" rx="3.667" ry="3.667"/><g id="XMLID_494_" transform="translate(.48 .48)"><ellipse id="XMLID_497_" class="cls-4" cx="3.187" cy="3.187" rx="3.187" ry="3.187"/><ellipse id="XMLID_496_" cx="1.6" cy="1.6" rx="1.6" ry="1.6" transform="translate(1.587 1.587)"/><path id="XMLID_495_" class="cls-4" d="M37.135 66.295a.594.594 0 1 0-.84.84z" transform="translate(-34.122 -64.122)"/></g></g><g id="XMLID_487_" transform="translate(8)"><ellipse id="XMLID_492_" class="cls-5" cx="3.667" cy="3.667" rx="3.667" ry="3.667"/><g id="XMLID_488_" transform="translate(.48 .48)"><ellipse id="XMLID_491_" class="cls-4" cx="3.187" cy="3.187" rx="3.187" ry="3.187"/><ellipse id="XMLID_490_" cx="1.6" cy="1.6" rx="1.6" ry="1.6" transform="translate(1.587 1.587)"/><path id="XMLID_489_" class="cls-4" d="M97.135 66.295a.594.594 0 1 0-.84.84z" transform="translate(-94.122 -64.122)"/></g></g></g><path id="XMLID_485_" class="cls-6" d="M45.833 109.733h-6.666a1.667 1.667 0 0 1-1.667-1.667 1.667 1.667 0 0 1 1.667-1.667h6.667a1.667 1.667 0 0 1 1.667 1.667 1.676 1.676 0 0 1-1.668 1.667z" transform="translate(-32.5 -92.213)"/><g id="XMLID_480_" transform="translate(3.696 3.733)"><g id="XMLID_483_" transform="translate(8.797)"><path id="XMLID_484_" class="cls-7" d="M96.843 30.917a.369.369 0 0 1-.12-.013 4.49 4.49 0 0 1-2.907-1.853.67.67 0 1 1 1.093-.773 3.144 3.144 0 0 0 2.04 1.307.685.685 0 0 1 .547.773.658.658 0 0 1-.653.559z" transform="translate(-93.696 -27.996)"/></g><g id="XMLID_481_" transform="translate(0 .01)"><path id="XMLID_482_" class="cls-7" d="M28.381 30.979a.664.664 0 0 1-.107-1.32 3.144 3.144 0 0 0 2.04-1.307.67.67 0 0 1 1.093.773 4.49 4.49 0 0 1-2.907 1.854z" transform="translate(-27.717 -28.068)"/></g></g><g id="XMLID_454_" transform="translate(5 14.187)"><g id="Group_2627" data-name="Group 2627" class="cls-8"><path id="XMLID_479_" class="cls-4" transform="translate(-.613 -.2)" d="M0 0H11.227V1.333H0z"/></g><g id="Group_2628" data-name="Group 2628" class="cls-8"><path id="XMLID_478_" class="cls-4" transform="translate(-.613 2.2)" d="M0 0H11.227V1.333H0z"/></g><g id="XMLID_467_" class="cls-8"><g id="XMLID_476_" transform="translate(1.467 -.173)"><path id="XMLID_477_" class="cls-9" d="M0 0H0.4V1.307H0z"/></g><g id="XMLID_474_" transform="translate(3.133 -.173)"><path id="XMLID_475_" class="cls-9" d="M0 0H0.4V1.307H0z"/></g><g id="XMLID_472_" transform="translate(4.8 -.173)"><path id="XMLID_473_" class="cls-9" d="M0 0H0.4V1.307H0z"/></g><g id="XMLID_470_" transform="translate(6.467 -.173)"><path id="XMLID_471_" class="cls-9" d="M0 0H0.4V1.307H0z"/></g><g id="XMLID_468_" transform="translate(8.133 -.173)"><path id="XMLID_469_" class="cls-9" d="M0 0H0.4V1.307H0z"/></g></g><g id="XMLID_456_" class="cls-8"><g id="XMLID_465_" transform="translate(1.467 2.2)"><path id="XMLID_466_" class="cls-9" d="M0 0H0.4V1.307H0z"/></g><g id="XMLID_463_" transform="translate(3.133 2.2)"><path id="XMLID_464_" class="cls-9" d="M0 0H0.4V1.307H0z"/></g><g id="XMLID_461_" transform="translate(4.8 2.2)"><path id="XMLID_462_" class="cls-9" d="M0 0H0.4V1.307H0z"/></g><g id="XMLID_459_" transform="translate(6.467 2.2)"><path id="XMLID_460_" class="cls-9" d="M0 0H0.4V1.307H0z"/></g><g id="XMLID_457_" transform="translate(8.133 2.2)"><path id="XMLID_458_" class="cls-9" d="M0 0H0.4V1.307H0z"/></g></g></g><g id="XMLID_2_" class="cls-10" transform="translate(5 14.187)"><path id="XMLID_453_" class="cls-11" d="M45.833 109.733h-6.666a1.667 1.667 0 0 1-1.667-1.667 1.667 1.667 0 0 1 1.667-1.667h6.667a1.667 1.667 0 0 1 1.667 1.667 1.676 1.676 0 0 1-1.668 1.667z" transform="translate(-37.5 -106.4)"/><path id="XMLID_452_" class="cls-12" d="M39.167 106.4h6.667a1.667 1.667 0 0 1 1.667 1.667 1.667 1.667 0 0 1-1.667 1.667h-6.667a1.667 1.667 0 1 1 0-3.333z" transform="translate(-37.5 -106.4)"/><path id="XMLID_451_" class="cls-13" d="M39.167 106.4h6.667a1.667 1.667 0 0 1 1.667 1.667 1.667 1.667 0 0 1-1.667 1.667h-6.667a1.667 1.667 0 1 1 0-3.333z" transform="translate(-37.5 -106.4)"/><path id="XMLID_450_" class="cls-14" d="M39.167 106.4h6.667a1.667 1.667 0 0 1 1.667 1.667 1.667 1.667 0 0 1-1.667 1.667h-6.667a1.667 1.667 0 1 1 0-3.333z" transform="translate(-37.5 -106.4)"/><path id="XMLID_449_" class="cls-15" d="M39.167 106.4h6.667a1.676 1.676 0 0 1 1.667 1.667 1.676 1.676 0 0 1-1.667 1.667h-6.667a1.667 1.667 0 1 1 0-3.333z" transform="translate(-37.5 -106.4)"/><path id="XMLID_448_" class="cls-16" d="M39.253 106.4h6.667a1.662 1.662 0 0 1 1.653 1.653 1.662 1.662 0 0 1-1.653 1.653h-6.667a1.653 1.653 0 1 1 0-3.307z" transform="translate(-37.587 -106.4)"/><path id="XMLID_447_" class="cls-17" d="M39.253 106.4h6.667a1.662 1.662 0 0 1 1.653 1.653 1.662 1.662 0 0 1-1.653 1.653h-6.667a1.653 1.653 0 1 1 0-3.307z" transform="translate(-37.587 -106.4)"/><path id="XMLID_446_" class="cls-18" d="M39.253 106.4h6.667a1.662 1.662 0 0 1 1.653 1.653 1.662 1.662 0 0 1-1.653 1.653h-6.667a1.653 1.653 0 1 1 0-3.307z" transform="translate(-37.587 -106.4)"/><path id="XMLID_445_" class="cls-19" d="M39.253 106.5h6.667a1.662 1.662 0 0 1 1.653 1.653 1.662 1.662 0 0 1-1.653 1.653h-6.667a1.653 1.653 0 0 1 0-3.307z" transform="translate(-37.587 -106.487)"/><path id="XMLID_444_" class="cls-20" d="M39.253 106.5h6.667a1.662 1.662 0 0 1 1.653 1.653 1.662 1.662 0 0 1-1.653 1.653h-6.667a1.653 1.653 0 0 1 0-3.307z" transform="translate(-37.587 -106.487)"/><path id="XMLID_443_" class="cls-21" d="M39.253 106.5h6.667a1.662 1.662 0 0 1 1.653 1.653 1.662 1.662 0 0 1-1.653 1.653h-6.667a1.653 1.653 0 0 1 0-3.307z" transform="translate(-37.587 -106.487)"/><path id="XMLID_442_" class="cls-22" d="M39.253 106.5h6.667a1.662 1.662 0 0 1 1.653 1.653 1.662 1.662 0 0 1-1.653 1.653h-6.667a1.653 1.653 0 0 1 0-3.307z" transform="translate(-37.587 -106.487)"/><path id="XMLID_441_" class="cls-23" d="M39.253 106.5h6.667a1.662 1.662 0 0 1 1.653 1.653 1.662 1.662 0 0 1-1.653 1.653h-6.667a1.653 1.653 0 0 1 0-3.307z" transform="translate(-37.587 -106.487)"/><path id="XMLID_440_" class="cls-24" d="M39.34 106.5h6.667a1.647 1.647 0 0 1 1.64 1.64 1.647 1.647 0 0 1-1.64 1.64H39.34a1.64 1.64 0 1 1 0-3.28z" transform="translate(-37.673 -106.487)"/><path id="XMLID_439_" class="cls-25" d="M39.34 106.5h6.667a1.647 1.647 0 0 1 1.64 1.64 1.647 1.647 0 0 1-1.64 1.64H39.34a1.64 1.64 0 1 1 0-3.28z" transform="translate(-37.673 -106.487)"/><path id="XMLID_438_" class="cls-26" d="M39.34 106.5h6.667a1.639 1.639 0 0 1 1.64 1.64 1.639 1.639 0 0 1-1.64 1.64H39.34a1.64 1.64 0 1 1 0-3.28z" transform="translate(-37.673 -106.487)"/><path id="XMLID_437_" class="cls-27" d="M39.34 106.6h6.667a1.639 1.639 0 0 1 1.64 1.64 1.639 1.639 0 0 1-1.64 1.64H39.34a1.64 1.64 0 1 1 0-3.28z" transform="translate(-37.673 -106.573)"/><path id="XMLID_436_" class="cls-28" d="M39.34 106.6h6.667a1.639 1.639 0 0 1 1.64 1.64 1.639 1.639 0 0 1-1.64 1.64H39.34a1.64 1.64 0 1 1 0-3.28z" transform="translate(-37.673 -106.573)"/><path id="XMLID_435_" class="cls-29" d="M39.34 106.6h6.667a1.639 1.639 0 0 1 1.64 1.64 1.639 1.639 0 0 1-1.64 1.64H39.34a1.64 1.64 0 1 1 0-3.28z" transform="translate(-37.673 -106.573)"/><path id="XMLID_434_" class="cls-30" d="M39.34 106.6h6.667a1.639 1.639 0 0 1 1.64 1.64 1.639 1.639 0 0 1-1.64 1.64H39.34a1.64 1.64 0 1 1 0-3.28z" transform="translate(-37.673 -106.573)"/><path id="XMLID_433_" class="cls-31" d="M39.34 106.6h6.667a1.647 1.647 0 0 1 1.64 1.64 1.647 1.647 0 0 1-1.64 1.64H39.34a1.64 1.64 0 1 1 0-3.28z" transform="translate(-37.673 -106.573)"/><path id="XMLID_432_" class="cls-32" d="M39.34 106.6h6.667a1.647 1.647 0 0 1 1.64 1.64 1.647 1.647 0 0 1-1.64 1.64H39.34a1.64 1.64 0 1 1 0-3.28z" transform="translate(-37.673 -106.573)"/><path id="XMLID_431_" class="cls-33" d="M39.427 106.6h6.667a1.633 1.633 0 0 1 1.627 1.627 1.633 1.633 0 0 1-1.627 1.627h-6.667a1.627 1.627 0 0 1 0-3.253z" transform="translate(-37.76 -106.573)"/><path id="XMLID_430_" class="cls-34" d="M39.427 106.6h6.667a1.633 1.633 0 0 1 1.627 1.627 1.633 1.633 0 0 1-1.627 1.627h-6.667a1.627 1.627 0 0 1 0-3.253z" transform="translate(-37.76 -106.573)"/><path id="XMLID_429_" class="cls-35" d="M39.427 106.6h6.667a1.633 1.633 0 0 1 1.627 1.627 1.633 1.633 0 0 1-1.627 1.627h-6.667a1.627 1.627 0 0 1 0-3.253z" transform="translate(-37.76 -106.573)"/><path id="XMLID_428_" class="cls-36" d="M39.427 106.7h6.667a1.633 1.633 0 0 1 1.627 1.627 1.633 1.633 0 0 1-1.627 1.627h-6.667a1.627 1.627 0 0 1 0-3.253z" transform="translate(-37.76 -106.66)"/><path id="XMLID_427_" class="cls-37" d="M39.427 106.7h6.667a1.633 1.633 0 0 1 1.627 1.627 1.633 1.633 0 0 1-1.627 1.627h-6.667a1.627 1.627 0 0 1 0-3.253z" transform="translate(-37.76 -106.66)"/><path id="XMLID_426_" class="cls-38" d="M39.427 106.7h6.667a1.633 1.633 0 0 1 1.627 1.627 1.633 1.633 0 0 1-1.627 1.627h-6.667a1.627 1.627 0 0 1 0-3.253z" transform="translate(-37.76 -106.66)"/><path id="XMLID_425_" class="cls-39" d="M39.427 106.7h6.667a1.633 1.633 0 0 1 1.627 1.627 1.633 1.633 0 0 1-1.627 1.627h-6.667a1.627 1.627 0 0 1 0-3.253z" transform="translate(-37.76 -106.66)"/><path id="XMLID_424_" class="cls-40" d="M39.427 106.7h6.667a1.633 1.633 0 0 1 1.627 1.627 1.633 1.633 0 0 1-1.627 1.627h-6.667a1.627 1.627 0 0 1 0-3.253z" transform="translate(-37.76 -106.66)"/><path id="XMLID_423_" class="cls-41" d="M39.427 106.7h6.667a1.633 1.633 0 0 1 1.627 1.627 1.633 1.633 0 0 1-1.627 1.627h-6.667a1.627 1.627 0 0 1 0-3.253z" transform="translate(-37.76 -106.66)"/><path id="XMLID_422_" class="cls-42" d="M39.513 106.7h6.667a1.619 1.619 0 0 1 1.613 1.613 1.619 1.619 0 0 1-1.613 1.613h-6.667a1.613 1.613 0 0 1 0-3.227z" transform="translate(-37.847 -106.66)"/><path id="XMLID_421_" class="cls-43" d="M39.513 106.7h6.667a1.619 1.619 0 0 1 1.613 1.613 1.619 1.619 0 0 1-1.613 1.613h-6.667a1.613 1.613 0 0 1 0-3.227z" transform="translate(-37.847 -106.66)"/><path id="XMLID_420_" class="cls-44" d="M39.513 106.7h6.667a1.619 1.619 0 0 1 1.613 1.613 1.619 1.619 0 0 1-1.613 1.613h-6.667a1.613 1.613 0 0 1 0-3.227z" transform="translate(-37.847 -106.66)"/><path id="XMLID_419_" class="cls-45" d="M39.513 106.8h6.667a1.61 1.61 0 0 1 1.613 1.613 1.61 1.61 0 0 1-1.613 1.613h-6.667a1.613 1.613 0 0 1 0-3.227z" transform="translate(-37.847 -106.747)"/><path id="XMLID_418_" class="cls-46" d="M39.513 106.8h6.667a1.61 1.61 0 0 1 1.613 1.613 1.61 1.61 0 0 1-1.613 1.613h-6.667a1.613 1.613 0 0 1 0-3.227z" transform="translate(-37.847 -106.747)"/><path id="XMLID_417_" class="cls-47" d="M39.513 106.8h6.667a1.619 1.619 0 0 1 1.613 1.613 1.619 1.619 0 0 1-1.613 1.613h-6.667a1.613 1.613 0 0 1 0-3.227z" transform="translate(-37.847 -106.747)"/><path id="XMLID_416_" class="cls-48" d="M39.513 106.8h6.667a1.619 1.619 0 0 1 1.613 1.613 1.619 1.619 0 0 1-1.613 1.613h-6.667a1.613 1.613 0 0 1 0-3.227z" transform="translate(-37.847 -106.747)"/><path id="XMLID_415_" class="cls-49" d="M39.513 106.8h6.667a1.619 1.619 0 0 1 1.613 1.613 1.619 1.619 0 0 1-1.613 1.613h-6.667a1.613 1.613 0 0 1 0-3.227z" transform="translate(-37.847 -106.747)"/><path id="XMLID_414_" class="cls-50" d="M39.6 106.8h6.667a1.6 1.6 0 0 1 1.6 1.6 1.6 1.6 0 0 1-1.6 1.6H39.6a1.6 1.6 0 1 1 0-3.2z" transform="translate(-37.933 -106.747)"/><path id="XMLID_413_" class="cls-51" d="M39.6 106.8h6.667a1.6 1.6 0 0 1 1.6 1.6 1.6 1.6 0 0 1-1.6 1.6H39.6a1.6 1.6 0 1 1 0-3.2z" transform="translate(-37.933 -106.747)"/><path id="XMLID_412_" class="cls-52" d="M39.6 106.8h6.667a1.6 1.6 0 0 1 1.6 1.6 1.6 1.6 0 0 1-1.6 1.6H39.6a1.6 1.6 0 1 1 0-3.2z" transform="translate(-37.933 -106.747)"/><path id="XMLID_411_" class="cls-53" d="M39.6 106.9h6.667a1.6 1.6 0 0 1 1.6 1.6 1.6 1.6 0 0 1-1.6 1.6H39.6a1.6 1.6 0 1 1 0-3.2z" transform="translate(-37.933 -106.833)"/><path id="XMLID_410_" class="cls-54" d="M39.6 106.9h6.667a1.6 1.6 0 0 1 1.6 1.6 1.6 1.6 0 0 1-1.6 1.6H39.6a1.6 1.6 0 1 1 0-3.2z" transform="translate(-37.933 -106.833)"/><path id="XMLID_409_" class="cls-55" d="M39.6 106.9h6.667a1.6 1.6 0 0 1 1.6 1.6 1.6 1.6 0 0 1-1.6 1.6H39.6a1.6 1.6 0 1 1 0-3.2z" transform="translate(-37.933 -106.833)"/><path id="XMLID_408_" class="cls-56" d="M39.6 106.9h6.667a1.6 1.6 0 0 1 1.6 1.6 1.6 1.6 0 0 1-1.6 1.6H39.6a1.6 1.6 0 1 1 0-3.2z" transform="translate(-37.933 -106.833)"/><path id="XMLID_407_" class="cls-57" d="M39.6 106.9h6.667a1.6 1.6 0 0 1 1.6 1.6 1.6 1.6 0 0 1-1.6 1.6H39.6a1.6 1.6 0 1 1 0-3.2z" transform="translate(-37.933 -106.833)"/><path id="XMLID_406_" class="cls-58" d="M39.6 106.9h6.667a1.6 1.6 0 0 1 1.6 1.6 1.6 1.6 0 0 1-1.6 1.6H39.6a1.6 1.6 0 1 1 0-3.2z" transform="translate(-37.933 -106.833)"/><path id="XMLID_405_" class="cls-59" d="M39.687 106.9h6.667a1.59 1.59 0 0 1 1.587 1.587 1.59 1.59 0 0 1-1.587 1.587h-6.667a1.587 1.587 0 1 1 0-3.173z" transform="translate(-38.02 -106.833)"/><path id="XMLID_404_" class="cls-60" d="M39.687 106.9h6.667a1.59 1.59 0 0 1 1.587 1.587 1.59 1.59 0 0 1-1.587 1.587h-6.667a1.587 1.587 0 1 1 0-3.173z" transform="translate(-38.02 -106.833)"/><path id="XMLID_403_" class="cls-61" d="M39.687 106.9h6.667a1.59 1.59 0 0 1 1.587 1.587 1.59 1.59 0 0 1-1.587 1.587h-6.667a1.587 1.587 0 1 1 0-3.173z" transform="translate(-38.02 -106.833)"/><path id="XMLID_402_" class="cls-62" d="M39.687 107h6.667a1.59 1.59 0 0 1 1.587 1.587 1.59 1.59 0 0 1-1.587 1.587h-6.667a1.587 1.587 0 1 1 0-3.173z" transform="translate(-38.02 -106.92)"/><path id="XMLID_401_" class="cls-63" d="M39.687 107h6.667a1.6 1.6 0 0 1 1.587 1.587 1.6 1.6 0 0 1-1.587 1.587h-6.667a1.587 1.587 0 1 1 0-3.173z" transform="translate(-38.02 -106.92)"/><path id="XMLID_400_" class="cls-64" d="M39.687 107h6.667a1.59 1.59 0 0 1 1.587 1.587 1.59 1.59 0 0 1-1.587 1.587h-6.667a1.587 1.587 0 1 1 0-3.173z" transform="translate(-38.02 -106.92)"/><path id="XMLID_399_" class="cls-65" d="M39.687 107h6.667a1.59 1.59 0 0 1 1.587 1.587 1.59 1.59 0 0 1-1.587 1.587h-6.667a1.587 1.587 0 1 1 0-3.173z" transform="translate(-38.02 -106.92)"/><path id="XMLID_398_" class="cls-66" d="M39.687 107h6.667a1.59 1.59 0 0 1 1.587 1.587 1.59 1.59 0 0 1-1.587 1.587h-6.667a1.587 1.587 0 1 1 0-3.173z" transform="translate(-38.02 -106.92)"/><path id="XMLID_397_" class="cls-67" d="M39.687 107h6.667a1.59 1.59 0 0 1 1.587 1.587 1.59 1.59 0 0 1-1.587 1.587h-6.667a1.587 1.587 0 1 1 0-3.173z" transform="translate(-38.02 -106.92)"/><path id="XMLID_396_" class="cls-68" d="M39.773 107h6.667a1.576 1.576 0 0 1 1.573 1.573 1.576 1.576 0 0 1-1.573 1.573h-6.667a1.573 1.573 0 1 1 0-3.147z" transform="translate(-38.107 -106.92)"/><path id="XMLID_395_" class="cls-69" d="M39.773 107h6.667a1.576 1.576 0 0 1 1.573 1.573 1.576 1.576 0 0 1-1.573 1.573h-6.667a1.573 1.573 0 1 1 0-3.147z" transform="translate(-38.107 -106.92)"/><path id="XMLID_394_" class="cls-70" d="M39.773 107h6.667a1.576 1.576 0 0 1 1.573 1.573 1.576 1.576 0 0 1-1.573 1.573h-6.667a1.573 1.573 0 1 1 0-3.147z" transform="translate(-38.107 -106.92)"/><path id="XMLID_393_" class="cls-71" d="M39.773 107.1h6.667a1.576 1.576 0 0 1 1.573 1.573 1.576 1.576 0 0 1-1.573 1.573h-6.667a1.573 1.573 0 1 1 0-3.147z" transform="translate(-38.107 -107.007)"/><path id="XMLID_392_" class="cls-72" d="M39.773 107.1h6.667a1.576 1.576 0 0 1 1.573 1.573 1.576 1.576 0 0 1-1.573 1.573h-6.667a1.573 1.573 0 1 1 0-3.147z" transform="translate(-38.107 -107.007)"/><path id="XMLID_391_" class="cls-73" d="M39.773 107.1h6.667a1.576 1.576 0 0 1 1.573 1.573 1.576 1.576 0 0 1-1.573 1.573h-6.667a1.573 1.573 0 1 1 0-3.147z" transform="translate(-38.107 -107.007)"/><path id="XMLID_390_" class="cls-74" d="M39.773 107.1h6.667a1.576 1.576 0 0 1 1.573 1.573 1.576 1.576 0 0 1-1.573 1.573h-6.667a1.573 1.573 0 1 1 0-3.147z" transform="translate(-38.107 -107.007)"/><path id="XMLID_389_" class="cls-75" d="M39.773 107.1h6.667a1.576 1.576 0 0 1 1.573 1.573 1.576 1.576 0 0 1-1.573 1.573h-6.667a1.573 1.573 0 1 1 0-3.147z" transform="translate(-38.107 -107.007)"/><path id="XMLID_388_" class="cls-76" d="M39.86 107.1h6.667a1.562 1.562 0 0 1 1.56 1.56 1.562 1.562 0 0 1-1.56 1.56H39.86a1.56 1.56 0 1 1 0-3.12z" transform="translate(-38.193 -107.007)"/><path id="XMLID_387_" class="cls-77" d="M39.86 107.1h6.667a1.562 1.562 0 0 1 1.56 1.56 1.562 1.562 0 0 1-1.56 1.56H39.86a1.56 1.56 0 1 1 0-3.12z" transform="translate(-38.193 -107.007)"/><path id="XMLID_386_" class="cls-78" d="M39.86 107.1h6.667a1.562 1.562 0 0 1 1.56 1.56 1.562 1.562 0 0 1-1.56 1.56H39.86a1.56 1.56 0 1 1 0-3.12z" transform="translate(-38.193 -107.007)"/><path id="XMLID_385_" class="cls-79" d="M39.86 107.2h6.667a1.571 1.571 0 0 1 1.56 1.56 1.571 1.571 0 0 1-1.56 1.56H39.86a1.56 1.56 0 0 1 0-3.12z" transform="translate(-38.193 -107.093)"/><path id="XMLID_384_" class="cls-80" d="M39.86 107.2h6.667a1.571 1.571 0 0 1 1.56 1.56 1.571 1.571 0 0 1-1.56 1.56H39.86a1.56 1.56 0 0 1 0-3.12z" transform="translate(-38.193 -107.093)"/><path id="XMLID_383_" class="cls-81" d="M39.86 107.2h6.667a1.571 1.571 0 0 1 1.56 1.56 1.571 1.571 0 0 1-1.56 1.56H39.86a1.56 1.56 0 0 1 0-3.12z" transform="translate(-38.193 -107.093)"/><path id="XMLID_382_" class="cls-82" d="M39.86 107.2h6.667a1.571 1.571 0 0 1 1.56 1.56 1.571 1.571 0 0 1-1.56 1.56H39.86a1.56 1.56 0 0 1 0-3.12z" transform="translate(-38.193 -107.093)"/><path id="XMLID_381_" class="cls-83" d="M39.86 107.2h6.667a1.562 1.562 0 0 1 1.56 1.56 1.562 1.562 0 0 1-1.56 1.56H39.86a1.56 1.56 0 0 1 0-3.12z" transform="translate(-38.193 -107.093)"/><path id="XMLID_380_" class="cls-84" d="M39.86 107.2h6.667a1.562 1.562 0 0 1 1.56 1.56 1.562 1.562 0 0 1-1.56 1.56H39.86a1.56 1.56 0 0 1 0-3.12z" transform="translate(-38.193 -107.093)"/><path id="XMLID_379_" class="cls-85" d="M39.947 107.2h6.667a1.548 1.548 0 0 1 1.547 1.547 1.548 1.548 0 0 1-1.547 1.547h-6.667a1.547 1.547 0 0 1 0-3.093z" transform="translate(-38.28 -107.093)"/><path id="XMLID_378_" class="cls-86" d="M39.947 107.2h6.667a1.548 1.548 0 0 1 1.547 1.547 1.548 1.548 0 0 1-1.547 1.547h-6.667a1.547 1.547 0 0 1 0-3.093z" transform="translate(-38.28 -107.093)"/><path id="XMLID_377_" class="cls-87" d="M39.947 107.2h6.667a1.548 1.548 0 0 1 1.547 1.547 1.548 1.548 0 0 1-1.547 1.547h-6.667a1.547 1.547 0 0 1 0-3.093z" transform="translate(-38.28 -107.093)"/><path id="XMLID_376_" class="cls-88" d="M39.947 107.3h6.667a1.548 1.548 0 0 1 1.547 1.547 1.548 1.548 0 0 1-1.547 1.547h-6.667a1.547 1.547 0 1 1 0-3.093z" transform="translate(-38.28 -107.18)"/><path id="XMLID_375_" class="cls-89" d="M39.947 107.3h6.667a1.548 1.548 0 0 1 1.547 1.547 1.548 1.548 0 0 1-1.547 1.547h-6.667a1.547 1.547 0 1 1 0-3.093z" transform="translate(-38.28 -107.18)"/><path id="XMLID_374_" class="cls-90" d="M39.947 107.3h6.667a1.548 1.548 0 0 1 1.547 1.547 1.548 1.548 0 0 1-1.547 1.547h-6.667a1.547 1.547 0 1 1 0-3.093z" transform="translate(-38.28 -107.18)"/><path id="XMLID_373_" class="cls-91" d="M39.947 107.3h6.667a1.548 1.548 0 0 1 1.547 1.547 1.548 1.548 0 0 1-1.547 1.547h-6.667a1.547 1.547 0 1 1 0-3.093z" transform="translate(-38.28 -107.18)"/><path id="XMLID_372_" class="cls-92" d="M39.947 107.3h6.667a1.548 1.548 0 0 1 1.547 1.547 1.548 1.548 0 0 1-1.547 1.547h-6.667a1.547 1.547 0 1 1 0-3.093z" transform="translate(-38.28 -107.18)"/><path id="XMLID_371_" class="cls-93" d="M39.947 107.3h6.667a1.548 1.548 0 0 1 1.547 1.547 1.548 1.548 0 0 1-1.547 1.547h-6.667a1.547 1.547 0 1 1 0-3.093z" transform="translate(-38.28 -107.18)"/><path id="XMLID_370_" class="cls-94" d="M40.033 107.3H46.7a1.534 1.534 0 0 1 1.533 1.533 1.534 1.534 0 0 1-1.533 1.533h-6.667a1.533 1.533 0 1 1 0-3.067z" transform="translate(-38.367 -107.18)"/><path id="XMLID_369_" class="cls-95" d="M40.033 107.3H46.7a1.542 1.542 0 0 1 1.533 1.533 1.542 1.542 0 0 1-1.533 1.533h-6.667a1.533 1.533 0 1 1 0-3.067z" transform="translate(-38.367 -107.18)"/><path id="XMLID_368_" class="cls-96" d="M40.033 107.3H46.7a1.542 1.542 0 0 1 1.533 1.533 1.542 1.542 0 0 1-1.533 1.533h-6.667a1.533 1.533 0 1 1 0-3.067z" transform="translate(-38.367 -107.18)"/><path id="XMLID_367_" class="cls-97" d="M40.033 107.4H46.7a1.542 1.542 0 0 1 1.533 1.533 1.542 1.542 0 0 1-1.533 1.533h-6.667a1.533 1.533 0 1 1 0-3.067z" transform="translate(-38.367 -107.267)"/><path id="XMLID_366_" class="cls-98" d="M40.033 107.4H46.7a1.542 1.542 0 0 1 1.533 1.533 1.542 1.542 0 0 1-1.533 1.533h-6.667a1.533 1.533 0 1 1 0-3.067z" transform="translate(-38.367 -107.267)"/><path id="XMLID_365_" class="cls-99" d="M40.033 107.4H46.7a1.542 1.542 0 0 1 1.533 1.533 1.542 1.542 0 0 1-1.533 1.533h-6.667a1.533 1.533 0 1 1 0-3.067z" transform="translate(-38.367 -107.267)"/><path id="XMLID_364_" class="cls-100" d="M40.033 107.4H46.7a1.542 1.542 0 0 1 1.533 1.533 1.542 1.542 0 0 1-1.533 1.533h-6.667a1.533 1.533 0 1 1 0-3.067z" transform="translate(-38.367 -107.267)"/><path id="XMLID_363_" class="cls-101" d="M40.033 107.4H46.7a1.542 1.542 0 0 1 1.533 1.533 1.542 1.542 0 0 1-1.533 1.533h-6.667a1.533 1.533 0 1 1 0-3.067z" transform="translate(-38.367 -107.267)"/><path id="XMLID_362_" class="cls-102" d="M40.12 107.4h6.667a1.519 1.519 0 0 1 1.52 1.52 1.519 1.519 0 0 1-1.52 1.52H40.12a1.52 1.52 0 0 1 0-3.04z" transform="translate(-38.453 -107.267)"/><path id="XMLID_361_" class="cls-103" d="M40.12 107.4h6.667a1.519 1.519 0 0 1 1.52 1.52 1.519 1.519 0 0 1-1.52 1.52H40.12a1.52 1.52 0 0 1 0-3.04z" transform="translate(-38.453 -107.267)"/><path id="XMLID_348_" class="cls-104" d="M40.12 107.4h6.667a1.519 1.519 0 0 1 1.52 1.52 1.519 1.519 0 0 1-1.52 1.52H40.12a1.52 1.52 0 0 1 0-3.04z" transform="translate(-38.453 -107.267)"/><path id="XMLID_347_" class="cls-105" d="M40.12 107.5h6.667a1.519 1.519 0 0 1 1.52 1.52 1.519 1.519 0 0 1-1.52 1.52H40.12a1.52 1.52 0 0 1 0-3.04z" transform="translate(-38.453 -107.353)"/><path id="XMLID_346_" class="cls-106" d="M40.12 107.5h6.667a1.519 1.519 0 0 1 1.52 1.52 1.519 1.519 0 0 1-1.52 1.52H40.12a1.52 1.52 0 0 1 0-3.04z" transform="translate(-38.453 -107.353)"/><path id="XMLID_345_" class="cls-107" d="M40.12 107.5h6.667a1.519 1.519 0 0 1 1.52 1.52 1.519 1.519 0 0 1-1.52 1.52H40.12a1.52 1.52 0 0 1 0-3.04z" transform="translate(-38.453 -107.353)"/><path id="XMLID_344_" class="cls-108" d="M40.12 107.5h6.667a1.519 1.519 0 0 1 1.52 1.52 1.519 1.519 0 0 1-1.52 1.52H40.12a1.52 1.52 0 0 1 0-3.04z" transform="translate(-38.453 -107.353)"/><path id="XMLID_343_" class="cls-109" d="M40.12 107.5h6.667a1.519 1.519 0 0 1 1.52 1.52 1.519 1.519 0 0 1-1.52 1.52H40.12a1.52 1.52 0 0 1 0-3.04z" transform="translate(-38.453 -107.353)"/><path id="XMLID_342_" class="cls-110" d="M40.12 107.5h6.667a1.519 1.519 0 0 1 1.52 1.52 1.519 1.519 0 0 1-1.52 1.52H40.12a1.52 1.52 0 0 1 0-3.04z" transform="translate(-38.453 -107.353)"/><path id="XMLID_341_" class="cls-111" d="M40.207 107.5h6.667a1.514 1.514 0 0 1 1.507 1.507 1.514 1.514 0 0 1-1.507 1.507h-6.667a1.507 1.507 0 1 1 0-3.013z" transform="translate(-38.54 -107.353)"/><path id="XMLID_340_" class="cls-112" d="M40.207 107.5h6.667a1.514 1.514 0 0 1 1.507 1.507 1.514 1.514 0 0 1-1.507 1.507h-6.667a1.507 1.507 0 1 1 0-3.013z" transform="translate(-38.54 -107.353)"/><path id="XMLID_339_" class="cls-113" d="M40.207 107.5h6.667a1.514 1.514 0 0 1 1.507 1.507 1.514 1.514 0 0 1-1.507 1.507h-6.667a1.507 1.507 0 1 1 0-3.013z" transform="translate(-38.54 -107.353)"/><path id="XMLID_338_" class="cls-114" d="M40.207 107.6h6.667a1.514 1.514 0 0 1 1.507 1.507 1.514 1.514 0 0 1-1.507 1.507h-6.667a1.507 1.507 0 1 1 0-3.013z" transform="translate(-38.54 -107.44)"/><path id="XMLID_337_" class="cls-115" d="M40.207 107.6h6.667a1.514 1.514 0 0 1 1.507 1.507 1.514 1.514 0 0 1-1.507 1.507h-6.667a1.507 1.507 0 1 1 0-3.013z" transform="translate(-38.54 -107.44)"/><path id="XMLID_336_" class="cls-116" d="M40.207 107.6h6.667a1.514 1.514 0 0 1 1.507 1.507 1.514 1.514 0 0 1-1.507 1.507h-6.667a1.507 1.507 0 1 1 0-3.013z" transform="translate(-38.54 -107.44)"/><path id="XMLID_335_" class="cls-117" d="M40.207 107.6h6.667a1.514 1.514 0 0 1 1.507 1.507 1.514 1.514 0 0 1-1.507 1.507h-6.667a1.507 1.507 0 1 1 0-3.013z" transform="translate(-38.54 -107.44)"/><path id="XMLID_334_" class="cls-118" d="M40.207 107.6h6.667a1.514 1.514 0 0 1 1.507 1.507 1.514 1.514 0 0 1-1.507 1.507h-6.667a1.507 1.507 0 1 1 0-3.013z" transform="translate(-38.54 -107.44)"/><path id="XMLID_333_" class="cls-119" d="M40.293 107.6h6.667a1.5 1.5 0 0 1 1.493 1.493 1.5 1.5 0 0 1-1.493 1.493h-6.667a1.493 1.493 0 1 1 0-2.987z" transform="translate(-38.627 -107.44)"/><path id="XMLID_332_" class="cls-120" d="M40.293 107.6h6.667a1.5 1.5 0 0 1 1.493 1.493 1.5 1.5 0 0 1-1.493 1.493h-6.667a1.493 1.493 0 1 1 0-2.987z" transform="translate(-38.627 -107.44)"/><path id="XMLID_331_" class="cls-121" d="M40.293 107.6h6.667a1.491 1.491 0 0 1 1.493 1.493 1.491 1.491 0 0 1-1.493 1.493h-6.667a1.493 1.493 0 1 1 0-2.987z" transform="translate(-38.627 -107.44)"/><path id="XMLID_330_" class="cls-122" d="M40.293 107.7h6.667a1.491 1.491 0 0 1 1.493 1.493 1.491 1.491 0 0 1-1.493 1.493h-6.667a1.493 1.493 0 0 1 0-2.987z" transform="translate(-38.627 -107.527)"/><path id="XMLID_329_" class="cls-123" d="M40.293 107.7h6.667a1.491 1.491 0 0 1 1.493 1.493 1.491 1.491 0 0 1-1.493 1.493h-6.667a1.493 1.493 0 0 1 0-2.987z" transform="translate(-38.627 -107.527)"/><path id="XMLID_328_" class="cls-124" d="M40.293 107.7h6.667a1.491 1.491 0 0 1 1.493 1.493 1.491 1.491 0 0 1-1.493 1.493h-6.667a1.493 1.493 0 0 1 0-2.987z" transform="translate(-38.627 -107.527)"/><path id="XMLID_327_" class="cls-125" d="M40.293 107.7h6.667a1.491 1.491 0 0 1 1.493 1.493 1.491 1.491 0 0 1-1.493 1.493h-6.667a1.493 1.493 0 0 1 0-2.987z" transform="translate(-38.627 -107.527)"/><path id="XMLID_326_" class="cls-126" d="M40.293 107.7h6.667a1.491 1.491 0 0 1 1.493 1.493 1.491 1.491 0 0 1-1.493 1.493h-6.667a1.493 1.493 0 0 1 0-2.987z" transform="translate(-38.627 -107.527)"/><path id="XMLID_325_" class="cls-127" d="M40.293 107.7h6.667a1.5 1.5 0 0 1 1.493 1.493 1.5 1.5 0 0 1-1.493 1.493h-6.667a1.493 1.493 0 0 1 0-2.987z" transform="translate(-38.627 -107.527)"/><path id="XMLID_324_" class="cls-128" d="M40.38 107.7h6.667a1.485 1.485 0 0 1 1.48 1.48 1.485 1.485 0 0 1-1.48 1.48H40.38a1.48 1.48 0 1 1 0-2.96z" transform="translate(-38.713 -107.527)"/><path id="XMLID_323_" class="cls-129" d="M40.38 107.7h6.667a1.485 1.485 0 0 1 1.48 1.48 1.485 1.485 0 0 1-1.48 1.48H40.38a1.48 1.48 0 1 1 0-2.96z" transform="translate(-38.713 -107.527)"/><path id="XMLID_322_" class="cls-130" d="M40.38 107.7h6.667a1.485 1.485 0 0 1 1.48 1.48 1.485 1.485 0 0 1-1.48 1.48H40.38a1.48 1.48 0 1 1 0-2.96z" transform="translate(-38.713 -107.527)"/><path id="XMLID_321_" class="cls-131" d="M40.38 107.8h6.667a1.485 1.485 0 0 1 1.48 1.48 1.485 1.485 0 0 1-1.48 1.48H40.38a1.48 1.48 0 1 1 0-2.96z" transform="translate(-38.713 -107.613)"/><path id="XMLID_320_" class="cls-132" d="M40.38 107.8h6.667a1.485 1.485 0 0 1 1.48 1.48 1.485 1.485 0 0 1-1.48 1.48H40.38a1.48 1.48 0 1 1 0-2.96z" transform="translate(-38.713 -107.613)"/><path id="XMLID_319_" class="cls-133" d="M40.38 107.8h6.667a1.485 1.485 0 0 1 1.48 1.48 1.485 1.485 0 0 1-1.48 1.48H40.38a1.48 1.48 0 1 1 0-2.96z" transform="translate(-38.713 -107.613)"/><path id="XMLID_318_" class="cls-134" d="M40.38 107.8h6.667a1.485 1.485 0 0 1 1.48 1.48 1.485 1.485 0 0 1-1.48 1.48H40.38a1.48 1.48 0 1 1 0-2.96z" transform="translate(-38.713 -107.613)"/><path id="XMLID_317_" class="cls-135" d="M40.38 107.8h6.667a1.485 1.485 0 0 1 1.48 1.48 1.485 1.485 0 0 1-1.48 1.48H40.38a1.48 1.48 0 1 1 0-2.96z" transform="translate(-38.713 -107.613)"/><path id="XMLID_316_" class="cls-136" d="M40.38 107.8h6.667a1.485 1.485 0 0 1 1.48 1.48 1.485 1.485 0 0 1-1.48 1.48H40.38a1.48 1.48 0 1 1 0-2.96z" transform="translate(-38.713 -107.613)"/><path id="XMLID_315_" class="cls-137" d="M40.467 107.8h6.667a1.471 1.471 0 0 1 1.467 1.467 1.471 1.471 0 0 1-1.467 1.467h-6.667a1.467 1.467 0 1 1 0-2.933z" transform="translate(-38.8 -107.613)"/><path id="XMLID_314_" class="cls-138" d="M40.467 107.8h6.667a1.471 1.471 0 0 1 1.467 1.467 1.471 1.471 0 0 1-1.467 1.467h-6.667a1.467 1.467 0 1 1 0-2.933z" transform="translate(-38.8 -107.613)"/><path id="XMLID_313_" class="cls-139" d="M40.467 107.8h6.667a1.462 1.462 0 0 1 1.467 1.467 1.462 1.462 0 0 1-1.467 1.467h-6.667a1.467 1.467 0 1 1 0-2.933z" transform="translate(-38.8 -107.613)"/><path id="XMLID_312_" class="cls-140" d="M40.467 107.9h6.667a1.462 1.462 0 0 1 1.467 1.467 1.462 1.462 0 0 1-1.467 1.467h-6.667a1.467 1.467 0 1 1 0-2.933z" transform="translate(-38.8 -107.7)"/><path id="XMLID_311_" class="cls-141" d="M40.467 107.9h6.667a1.462 1.462 0 0 1 1.467 1.467 1.462 1.462 0 0 1-1.467 1.467h-6.667a1.467 1.467 0 1 1 0-2.933z" transform="translate(-38.8 -107.7)"/><path id="XMLID_310_" class="cls-142" d="M40.467 107.9h6.667a1.471 1.471 0 0 1 1.467 1.467 1.471 1.471 0 0 1-1.467 1.467h-6.667a1.467 1.467 0 1 1 0-2.933z" transform="translate(-38.8 -107.7)"/><path id="XMLID_309_" class="cls-143" d="M40.467 107.9h6.667a1.471 1.471 0 0 1 1.467 1.467 1.471 1.471 0 0 1-1.467 1.467h-6.667a1.467 1.467 0 1 1 0-2.933z" transform="translate(-38.8 -107.7)"/><path id="XMLID_308_" class="cls-144" d="M40.467 107.9h6.667a1.471 1.471 0 0 1 1.467 1.467 1.471 1.471 0 0 1-1.467 1.467h-6.667a1.467 1.467 0 1 1 0-2.933z" transform="translate(-38.8 -107.7)"/><path id="XMLID_307_" class="cls-145" d="M40.553 107.9h6.667a1.457 1.457 0 0 1 1.453 1.453 1.457 1.457 0 0 1-1.453 1.453h-6.667a1.453 1.453 0 0 1 0-2.907z" transform="translate(-38.887 -107.7)"/><path id="XMLID_306_" class="cls-146" d="M40.553 107.9h6.667a1.457 1.457 0 0 1 1.453 1.453 1.457 1.457 0 0 1-1.453 1.453h-6.667a1.453 1.453 0 0 1 0-2.907z" transform="translate(-38.887 -107.7)"/><path id="XMLID_305_" class="cls-147" d="M40.553 107.9h6.667a1.457 1.457 0 0 1 1.453 1.453 1.457 1.457 0 0 1-1.453 1.453h-6.667a1.453 1.453 0 0 1 0-2.907z" transform="translate(-38.887 -107.7)"/><path id="XMLID_304_" class="cls-148" d="M40.553 108h6.667a1.457 1.457 0 0 1 1.453 1.453 1.457 1.457 0 0 1-1.453 1.453h-6.667a1.453 1.453 0 0 1 0-2.907z" transform="translate(-38.887 -107.787)"/><path id="XMLID_303_" class="cls-149" d="M40.553 108h6.667a1.457 1.457 0 0 1 1.453 1.453 1.457 1.457 0 0 1-1.453 1.453h-6.667a1.453 1.453 0 0 1 0-2.907z" transform="translate(-38.887 -107.787)"/><path id="XMLID_302_" class="cls-150" d="M40.553 108h6.667a1.457 1.457 0 0 1 1.453 1.453 1.457 1.457 0 0 1-1.453 1.453h-6.667a1.453 1.453 0 0 1 0-2.907z" transform="translate(-38.887 -107.787)"/><path id="XMLID_301_" class="cls-151" d="M40.553 108h6.667a1.457 1.457 0 0 1 1.453 1.453 1.457 1.457 0 0 1-1.453 1.453h-6.667a1.453 1.453 0 0 1 0-2.907z" transform="translate(-38.887 -107.787)"/><path id="XMLID_300_" class="cls-152" d="M40.553 108h6.667a1.457 1.457 0 0 1 1.453 1.453 1.457 1.457 0 0 1-1.453 1.453h-6.667a1.453 1.453 0 0 1 0-2.907z" transform="translate(-38.887 -107.787)"/><path id="XMLID_299_" class="cls-153" d="M40.553 108h6.667a1.457 1.457 0 0 1 1.453 1.453 1.457 1.457 0 0 1-1.453 1.453h-6.667a1.453 1.453 0 0 1 0-2.907z" transform="translate(-38.887 -107.787)"/><path id="XMLID_298_" class="cls-154" d="M40.64 108h6.667a1.443 1.443 0 0 1 1.44 1.44 1.443 1.443 0 0 1-1.44 1.44H40.64a1.44 1.44 0 1 1 0-2.88z" transform="translate(-38.973 -107.787)"/><path id="XMLID_297_" class="cls-155" d="M40.64 108h6.667a1.443 1.443 0 0 1 1.44 1.44 1.443 1.443 0 0 1-1.44 1.44H40.64a1.44 1.44 0 1 1 0-2.88z" transform="translate(-38.973 -107.787)"/><path id="XMLID_296_" class="cls-156" d="M40.64 108h6.667a1.443 1.443 0 0 1 1.44 1.44 1.443 1.443 0 0 1-1.44 1.44H40.64a1.44 1.44 0 1 1 0-2.88z" transform="translate(-38.973 -107.787)"/><path id="XMLID_295_" class="cls-157" d="M40.64 108.1h6.667a1.442 1.442 0 0 1 1.44 1.44 1.442 1.442 0 0 1-1.44 1.44H40.64a1.44 1.44 0 1 1 0-2.88z" transform="translate(-38.973 -107.873)"/><path id="XMLID_294_" class="cls-158" d="M40.64 108.1h6.667a1.442 1.442 0 0 1 1.44 1.44 1.442 1.442 0 0 1-1.44 1.44H40.64a1.44 1.44 0 1 1 0-2.88z" transform="translate(-38.973 -107.873)"/><path id="XMLID_293_" class="cls-159" d="M40.64 108.1h6.667a1.442 1.442 0 0 1 1.44 1.44 1.442 1.442 0 0 1-1.44 1.44H40.64a1.44 1.44 0 1 1 0-2.88z" transform="translate(-38.973 -107.873)"/><path id="XMLID_292_" class="cls-160" d="M40.64 108.1h6.667a1.442 1.442 0 0 1 1.44 1.44 1.442 1.442 0 0 1-1.44 1.44H40.64a1.44 1.44 0 1 1 0-2.88z" transform="translate(-38.973 -107.873)"/><path id="XMLID_291_" class="cls-161" d="M40.64 108.1h6.667a1.442 1.442 0 0 1 1.44 1.44 1.442 1.442 0 0 1-1.44 1.44H40.64a1.44 1.44 0 1 1 0-2.88z" transform="translate(-38.973 -107.873)"/><path id="XMLID_290_" class="cls-162" d="M40.64 108.1h6.667a1.442 1.442 0 0 1 1.44 1.44 1.442 1.442 0 0 1-1.44 1.44H40.64a1.44 1.44 0 1 1 0-2.88z" transform="translate(-38.973 -107.873)"/><path id="XMLID_289_" class="cls-163" d="M40.727 108.1h6.667a1.428 1.428 0 0 1 1.427 1.427 1.428 1.428 0 0 1-1.427 1.427h-6.667a1.427 1.427 0 1 1 0-2.853z" transform="translate(-39.06 -107.873)"/><path id="XMLID_288_" class="cls-164" d="M40.727 108.1h6.667a1.428 1.428 0 0 1 1.427 1.427 1.428 1.428 0 0 1-1.427 1.427h-6.667a1.427 1.427 0 1 1 0-2.853z" transform="translate(-39.06 -107.873)"/><path id="XMLID_287_" class="cls-165" d="M40.727 108.1h6.667a1.428 1.428 0 0 1 1.427 1.427 1.428 1.428 0 0 1-1.427 1.427h-6.667a1.427 1.427 0 1 1 0-2.853z" transform="translate(-39.06 -107.873)"/><path id="XMLID_286_" class="cls-166" d="M40.727 108.2h6.667a1.428 1.428 0 0 1 1.427 1.427 1.428 1.428 0 0 1-1.427 1.427h-6.667a1.427 1.427 0 1 1 0-2.853z" transform="translate(-39.06 -107.96)"/><path id="XMLID_285_" class="cls-167" d="M40.727 108.2h6.667a1.428 1.428 0 0 1 1.427 1.427 1.428 1.428 0 0 1-1.427 1.427h-6.667a1.427 1.427 0 1 1 0-2.853z" transform="translate(-39.06 -107.96)"/><path id="XMLID_284_" class="cls-168" d="M40.727 108.2h6.667a1.428 1.428 0 0 1 1.427 1.427 1.428 1.428 0 0 1-1.427 1.427h-6.667a1.427 1.427 0 1 1 0-2.853z" transform="translate(-39.06 -107.96)"/><path id="XMLID_283_" class="cls-169" d="M40.727 108.2h6.667a1.428 1.428 0 0 1 1.427 1.427 1.428 1.428 0 0 1-1.427 1.427h-6.667a1.427 1.427 0 1 1 0-2.853z" transform="translate(-39.06 -107.96)"/><path id="XMLID_282_" class="cls-170" d="M40.727 108.2h6.667a1.428 1.428 0 0 1 1.427 1.427 1.428 1.428 0 0 1-1.427 1.427h-6.667a1.427 1.427 0 1 1 0-2.853z" transform="translate(-39.06 -107.96)"/><path id="XMLID_281_" class="cls-171" d="M40.813 108.2h6.667a1.414 1.414 0 0 1 1.413 1.413 1.414 1.414 0 0 1-1.413 1.413h-6.667a1.413 1.413 0 0 1 0-2.827z" transform="translate(-39.147 -107.96)"/><path id="XMLID_280_" class="cls-172" d="M40.813 108.2h6.667a1.414 1.414 0 0 1 1.413 1.413 1.414 1.414 0 0 1-1.413 1.413h-6.667a1.413 1.413 0 0 1 0-2.827z" transform="translate(-39.147 -107.96)"/><path id="XMLID_279_" class="cls-173" d="M40.813 108.2h6.667a1.414 1.414 0 0 1 1.413 1.413 1.414 1.414 0 0 1-1.413 1.413h-6.667a1.413 1.413 0 0 1 0-2.827z" transform="translate(-39.147 -107.96)"/><path id="XMLID_278_" class="cls-174" d="M40.813 108.3h6.667a1.423 1.423 0 0 1 1.413 1.413 1.423 1.423 0 0 1-1.413 1.413h-6.667a1.413 1.413 0 0 1 0-2.827z" transform="translate(-39.147 -108.047)"/><path id="XMLID_277_" class="cls-175" d="M40.813 108.3h6.667a1.423 1.423 0 0 1 1.413 1.413 1.423 1.423 0 0 1-1.413 1.413h-6.667a1.413 1.413 0 0 1 0-2.827z" transform="translate(-39.147 -108.047)"/><path id="XMLID_276_" class="cls-176" d="M40.813 108.3h6.667a1.423 1.423 0 0 1 1.413 1.413 1.423 1.423 0 0 1-1.413 1.413h-6.667a1.413 1.413 0 0 1 0-2.827z" transform="translate(-39.147 -108.047)"/><path id="XMLID_275_" class="cls-177" d="M40.813 108.3h6.667a1.414 1.414 0 0 1 1.413 1.413 1.414 1.414 0 0 1-1.413 1.413h-6.667a1.413 1.413 0 0 1 0-2.827z" transform="translate(-39.147 -108.047)"/><path id="XMLID_274_" class="cls-178" d="M40.813 108.3h6.667a1.414 1.414 0 0 1 1.413 1.413 1.414 1.414 0 0 1-1.413 1.413h-6.667a1.413 1.413 0 0 1 0-2.827z" transform="translate(-39.147 -108.047)"/><path id="XMLID_273_" class="cls-179" d="M40.813 108.3h6.667a1.414 1.414 0 0 1 1.413 1.413 1.414 1.414 0 0 1-1.413 1.413h-6.667a1.413 1.413 0 0 1 0-2.827z" transform="translate(-39.147 -108.047)"/><path id="XMLID_272_" class="cls-180" d="M40.9 108.3h6.667a1.4 1.4 0 0 1 1.4 1.4 1.4 1.4 0 0 1-1.4 1.4H40.9a1.4 1.4 0 1 1 0-2.8z" transform="translate(-39.233 -108.047)"/><path id="XMLID_271_" class="cls-181" d="M40.9 108.3h6.667a1.4 1.4 0 0 1 1.4 1.4 1.4 1.4 0 0 1-1.4 1.4H40.9a1.4 1.4 0 1 1 0-2.8z" transform="translate(-39.233 -108.047)"/><path id="XMLID_270_" class="cls-182" d="M40.9 108.3h6.667a1.4 1.4 0 0 1 1.4 1.4 1.4 1.4 0 0 1-1.4 1.4H40.9a1.4 1.4 0 1 1 0-2.8z" transform="translate(-39.233 -108.047)"/><path id="XMLID_269_" class="cls-183" d="M40.9 108.4h6.667a1.4 1.4 0 0 1 1.4 1.4 1.4 1.4 0 0 1-1.4 1.4H40.9a1.4 1.4 0 1 1 0-2.8z" transform="translate(-39.233 -108.133)"/><path id="XMLID_268_" class="cls-184" d="M40.9 108.4h6.667a1.4 1.4 0 0 1 1.4 1.4 1.4 1.4 0 0 1-1.4 1.4H40.9a1.4 1.4 0 1 1 0-2.8z" transform="translate(-39.233 -108.133)"/><path id="XMLID_267_" class="cls-185" d="M40.9 108.4h6.667a1.4 1.4 0 0 1 1.4 1.4 1.4 1.4 0 0 1-1.4 1.4H40.9a1.4 1.4 0 1 1 0-2.8z" transform="translate(-39.233 -108.133)"/><path id="XMLID_266_" class="cls-186" d="M40.9 108.4h6.667a1.4 1.4 0 0 1 1.4 1.4 1.4 1.4 0 0 1-1.4 1.4H40.9a1.4 1.4 0 1 1 0-2.8z" transform="translate(-39.233 -108.133)"/><path id="XMLID_265_" class="cls-187" d="M40.9 108.4h6.667a1.4 1.4 0 0 1 1.4 1.4 1.4 1.4 0 0 1-1.4 1.4H40.9a1.4 1.4 0 1 1 0-2.8z" transform="translate(-39.233 -108.133)"/><path id="XMLID_264_" class="cls-188" d="M40.9 108.4h6.667a1.4 1.4 0 0 1 1.4 1.4 1.4 1.4 0 0 1-1.4 1.4H40.9a1.4 1.4 0 1 1 0-2.8z" transform="translate(-39.233 -108.133)"/><path id="XMLID_263_" class="cls-189" d="M40.987 108.4h6.667a1.386 1.386 0 0 1 1.387 1.387 1.386 1.386 0 0 1-1.387 1.387h-6.667a1.387 1.387 0 1 1 0-2.773z" transform="translate(-39.32 -108.133)"/><path id="XMLID_262_" class="cls-190" d="M40.987 108.4h6.667a1.394 1.394 0 0 1 1.387 1.387 1.394 1.394 0 0 1-1.387 1.387h-6.667a1.387 1.387 0 1 1 0-2.773z" transform="translate(-39.32 -108.133)"/><path id="XMLID_60_" class="cls-191" d="M40.987 108.4h6.667a1.394 1.394 0 0 1 1.387 1.387 1.394 1.394 0 0 1-1.387 1.387h-6.667a1.387 1.387 0 1 1 0-2.773z" transform="translate(-39.32 -108.133)"/><path id="XMLID_59_" class="cls-192" d="M40.987 108.5h6.667a1.394 1.394 0 0 1 1.387 1.387 1.394 1.394 0 0 1-1.387 1.387h-6.667a1.387 1.387 0 1 1 0-2.773z" transform="translate(-39.32 -108.22)"/><path id="XMLID_58_" class="cls-193" d="M40.987 108.5h6.667a1.394 1.394 0 0 1 1.387 1.387 1.394 1.394 0 0 1-1.387 1.387h-6.667a1.387 1.387 0 1 1 0-2.773z" transform="translate(-39.32 -108.22)"/><path id="XMLID_57_" class="cls-194" d="M40.987 108.5h6.667a1.394 1.394 0 0 1 1.387 1.387 1.394 1.394 0 0 1-1.387 1.387h-6.667a1.387 1.387 0 1 1 0-2.773z" transform="translate(-39.32 -108.22)"/><path id="XMLID_56_" class="cls-195" d="M40.987 108.5h6.667a1.394 1.394 0 0 1 1.387 1.387 1.394 1.394 0 0 1-1.387 1.387h-6.667a1.387 1.387 0 1 1 0-2.773z" transform="translate(-39.32 -108.22)"/><path id="XMLID_55_" class="cls-196" d="M40.987 108.5h6.667a1.386 1.386 0 0 1 1.387 1.387 1.386 1.386 0 0 1-1.387 1.387h-6.667a1.387 1.387 0 1 1 0-2.773z" transform="translate(-39.32 -108.22)"/><path id="XMLID_54_" class="cls-197" d="M41.073 108.5h6.667a1.371 1.371 0 0 1 1.373 1.373 1.371 1.371 0 0 1-1.373 1.373h-6.667a1.373 1.373 0 0 1 0-2.747z" transform="translate(-39.407 -108.22)"/><path id="XMLID_52_" class="cls-198" d="M41.073 108.5h6.667a1.371 1.371 0 0 1 1.373 1.373 1.371 1.371 0 0 1-1.373 1.373h-6.667a1.373 1.373 0 0 1 0-2.747z" transform="translate(-39.407 -108.22)"/><path id="XMLID_51_" class="cls-199" d="M41.073 108.5h6.667a1.371 1.371 0 0 1 1.373 1.373 1.371 1.371 0 0 1-1.373 1.373h-6.667a1.373 1.373 0 0 1 0-2.747z" transform="translate(-39.407 -108.22)"/><path id="XMLID_50_" class="cls-200" d="M41.073 108.6h6.667a1.371 1.371 0 0 1 1.373 1.373 1.371 1.371 0 0 1-1.373 1.373h-6.667a1.373 1.373 0 0 1 0-2.747z" transform="translate(-39.407 -108.307)"/><path id="XMLID_49_" class="cls-201" d="M41.073 108.6h6.667a1.371 1.371 0 0 1 1.373 1.373 1.371 1.371 0 0 1-1.373 1.373h-6.667a1.373 1.373 0 0 1 0-2.747z" transform="translate(-39.407 -108.307)"/><path id="XMLID_48_" class="cls-202" d="M41.073 108.6h6.667a1.371 1.371 0 0 1 1.373 1.373 1.371 1.371 0 0 1-1.373 1.373h-6.667a1.373 1.373 0 0 1 0-2.747z" transform="translate(-39.407 -108.307)"/><path id="XMLID_47_" class="cls-203" d="M41.073 108.6h6.667a1.371 1.371 0 0 1 1.373 1.373 1.371 1.371 0 0 1-1.373 1.373h-6.667a1.373 1.373 0 0 1 0-2.747z" transform="translate(-39.407 -108.307)"/><path id="XMLID_46_" class="cls-204" d="M41.073 108.6h6.667a1.371 1.371 0 0 1 1.373 1.373 1.371 1.371 0 0 1-1.373 1.373h-6.667a1.373 1.373 0 0 1 0-2.747z" transform="translate(-39.407 -108.307)"/><path id="XMLID_45_" class="cls-205" d="M41.073 108.6h6.667a1.371 1.371 0 0 1 1.373 1.373 1.371 1.371 0 0 1-1.373 1.373h-6.667a1.373 1.373 0 0 1 0-2.747z" transform="translate(-39.407 -108.307)"/><path id="XMLID_44_" class="cls-206" d="M41.16 108.6h6.667a1.366 1.366 0 0 1 1.36 1.36 1.366 1.366 0 0 1-1.36 1.36H41.16a1.36 1.36 0 1 1 0-2.72z" transform="translate(-39.493 -108.307)"/><path id="XMLID_43_" class="cls-207" d="M41.16 108.6h6.667a1.366 1.366 0 0 1 1.36 1.36 1.366 1.366 0 0 1-1.36 1.36H41.16a1.36 1.36 0 1 1 0-2.72z" transform="translate(-39.493 -108.307)"/><path id="XMLID_42_" class="cls-208" d="M41.16 108.6h6.667a1.366 1.366 0 0 1 1.36 1.36 1.366 1.366 0 0 1-1.36 1.36H41.16a1.36 1.36 0 1 1 0-2.72z" transform="translate(-39.493 -108.307)"/><path id="XMLID_41_" class="cls-209" d="M41.16 108.7h6.667a1.366 1.366 0 0 1 1.36 1.36 1.366 1.366 0 0 1-1.36 1.36H41.16a1.36 1.36 0 1 1 0-2.72z" transform="translate(-39.493 -108.393)"/><path id="XMLID_40_" class="cls-210" d="M41.16 108.7h6.667a1.366 1.366 0 0 1 1.36 1.36 1.366 1.366 0 0 1-1.36 1.36H41.16a1.36 1.36 0 1 1 0-2.72z" transform="translate(-39.493 -108.393)"/><path id="XMLID_39_" class="cls-211" d="M41.16 108.7h6.667a1.366 1.366 0 0 1 1.36 1.36 1.366 1.366 0 0 1-1.36 1.36H41.16a1.36 1.36 0 1 1 0-2.72z" transform="translate(-39.493 -108.393)"/><path id="XMLID_38_" class="cls-212" d="M41.16 108.7h6.667a1.366 1.366 0 0 1 1.36 1.36 1.366 1.366 0 0 1-1.36 1.36H41.16a1.36 1.36 0 1 1 0-2.72z" transform="translate(-39.493 -108.393)"/><path id="XMLID_37_" class="cls-213" d="M41.16 108.7h6.667a1.366 1.366 0 0 1 1.36 1.36 1.366 1.366 0 0 1-1.36 1.36H41.16a1.36 1.36 0 1 1 0-2.72z" transform="translate(-39.493 -108.393)"/><path id="XMLID_36_" class="cls-214" d="M41.16 108.7h6.667a1.366 1.366 0 0 1 1.36 1.36 1.366 1.366 0 0 1-1.36 1.36H41.16a1.36 1.36 0 1 1 0-2.72z" transform="translate(-39.493 -108.393)"/><path id="XMLID_35_" class="cls-215" d="M41.247 108.7h6.667a1.343 1.343 0 0 1 1.347 1.347 1.343 1.343 0 0 1-1.347 1.347h-6.667a1.347 1.347 0 0 1 0-2.693z" transform="translate(-39.58 -108.393)"/><path id="XMLID_34_" class="cls-216" d="M41.247 108.7h6.667a1.343 1.343 0 0 1 1.347 1.347 1.343 1.343 0 0 1-1.347 1.347h-6.667a1.347 1.347 0 0 1 0-2.693z" transform="translate(-39.58 -108.393)"/><path id="XMLID_33_" class="cls-217" d="M41.247 108.7h6.667a1.343 1.343 0 0 1 1.347 1.347 1.343 1.343 0 0 1-1.347 1.347h-6.667a1.347 1.347 0 0 1 0-2.693z" transform="translate(-39.58 -108.393)"/><path id="XMLID_32_" class="cls-218" d="M41.247 108.8h6.667a1.343 1.343 0 0 1 1.347 1.347 1.343 1.343 0 0 1-1.347 1.347h-6.667a1.347 1.347 0 1 1 0-2.693z" transform="translate(-39.58 -108.48)"/><path id="XMLID_31_" class="cls-219" d="M41.247 108.8h6.667a1.343 1.343 0 0 1 1.347 1.347 1.343 1.343 0 0 1-1.347 1.347h-6.667a1.347 1.347 0 1 1 0-2.693z" transform="translate(-39.58 -108.48)"/><path id="XMLID_29_" class="cls-220" d="M41.247 108.8h6.667a1.343 1.343 0 0 1 1.347 1.347 1.343 1.343 0 0 1-1.347 1.347h-6.667a1.347 1.347 0 1 1 0-2.693z" transform="translate(-39.58 -108.48)"/><path id="XMLID_28_" class="cls-221" d="M41.247 108.8h6.667a1.343 1.343 0 0 1 1.347 1.347 1.343 1.343 0 0 1-1.347 1.347h-6.667a1.347 1.347 0 1 1 0-2.693z" transform="translate(-39.58 -108.48)"/><path id="XMLID_27_" class="cls-222" d="M41.247 108.8h6.667a1.351 1.351 0 0 1 1.347 1.347 1.351 1.351 0 0 1-1.347 1.347h-6.667a1.347 1.347 0 1 1 0-2.693z" transform="translate(-39.58 -108.48)"/><path id="XMLID_13_" class="cls-223" d="M41.333 108.8H48a1.337 1.337 0 0 1 1.333 1.333A1.337 1.337 0 0 1 48 111.467h-6.667a1.333 1.333 0 1 1 0-2.667z" transform="translate(-39.667 -108.48)"/><path id="XMLID_11_" class="cls-224" d="M41.333 108.8H48a1.337 1.337 0 0 1 1.333 1.333A1.337 1.337 0 0 1 48 111.467h-6.667a1.333 1.333 0 1 1 0-2.667z" transform="translate(-39.667 -108.48)"/><path id="XMLID_9_" class="cls-225" d="M41.333 108.8H48a1.337 1.337 0 0 1 1.333 1.333A1.337 1.337 0 0 1 48 111.467h-6.667a1.333 1.333 0 1 1 0-2.667z" transform="translate(-39.667 -108.48)"/><path id="XMLID_8_" class="cls-226" d="M41.333 108.9H48a1.337 1.337 0 0 1 1.333 1.333A1.337 1.337 0 0 1 48 111.567h-6.667a1.333 1.333 0 1 1 0-2.667z" transform="translate(-39.667 -108.567)"/><path id="XMLID_7_" class="cls-4" d="M41.333 111.567a1.333 1.333 0 1 1 0-2.667H48a1.333 1.333 0 0 1 0 2.667z" transform="translate(-39.667 -108.567)"/></g></g></g></svg>