<svg xmlns="http://www.w3.org/2000/svg" viewBox="5550 360 20 20"><defs><style>.cls-1{fill:rgba(255,255,255,0)}.cls-2{fill:url(#linear-gradient)}.cls-3{opacity:.1}.cls-4{fill:#ed1e79}.cls-5{fill:#4d3e2f}.cls-6{fill:#e0346a}.cls-7{fill:#fff;opacity:.5}</style><linearGradient id="linear-gradient" x1=".5" x2=".5" y2="1" gradientUnits="objectBoundingBox"><stop offset="0" stop-color="#fb953b"/><stop offset=".076" stop-color="#fba036"/><stop offset=".272" stop-color="#fcb82d"/><stop offset=".481" stop-color="#fcc926"/><stop offset=".709" stop-color="#fcd322"/><stop offset=".994" stop-color="#fcd621"/></linearGradient></defs><g id="blowing_kisses" transform="translate(5320 -140)"><path id="Rectangle_819" data-name="Rectangle 819" class="cls-1" transform="translate(230 500)" d="M0 0H20V20H0z"/><g id="XMLID_1_" transform="translate(231.673 500)"><ellipse id="XMLID_20_" class="cls-2" cx="8.163" cy="8.163" rx="8.163" ry="8.163"/><g id="XMLID_17_" class="cls-3" transform="translate(1.774 9.644)"><ellipse id="XMLID_19_" class="cls-4" cx="1.981" cy="1.981" rx="1.981" ry="1.981"/><ellipse id="XMLID_18_" class="cls-4" cx="1.981" cy="1.981" rx="1.981" ry="1.981" transform="translate(8.816)"/></g><g id="XMLID_15_" transform="translate(7.336 11.396)"><path id="XMLID_16_" class="cls-5" d="M68.761 107.421a1.361 1.361 0 0 1 0-2.721.544.544 0 0 1 0 1.088.272.272 0 0 0 0 .544.544.544 0 0 1 0 1.088z" transform="translate(-67.4 -104.7)"/></g><g id="XMLID_10_" transform="translate(2.449 7.728)"><g id="XMLID_13_" transform="translate(7.619)"><path id="XMLID_14_" class="cls-5" d="M94.4 73.449a1.914 1.914 0 0 1-1.9-1.9.544.544 0 0 1 1.088 0 .816.816 0 1 0 1.633 0 .544.544 0 0 1 1.088 0 1.9 1.9 0 0 1-1.909 1.9z" transform="translate(-92.5 -71)"/></g><g id="XMLID_11_"><path id="XMLID_12_" class="cls-5" d="M24.4 73.449a1.914 1.914 0 0 1-1.9-1.9.544.544 0 1 1 1.088 0 .816.816 0 1 0 1.633 0 .544.544 0 1 1 1.088 0 1.907 1.907 0 0 1-1.909 1.9z" transform="translate(-22.5 -71)"/></g></g><g id="XMLID_6_" transform="translate(9.777 13.926)"><g id="XMLID_8_"><path id="XMLID_9_" class="cls-6" d="M92.706 127.959a1.282 1.282 0 0 0-.816.512 1.282 1.282 0 0 0-.936-.207 1.456 1.456 0 0 0-1.121 1.393c.152.86 1.48 1.121 2.438.947s2.122-.86 1.97-1.731a1.475 1.475 0 0 0-1.535-.914z" transform="translate(-89.824 -127.942)"/></g><path id="XMLID_7_" class="cls-7" d="M99.471 139.422a2.3 2.3 0 0 0 1.273-.522l-2.645.468a2.435 2.435 0 0 0 1.372.054z" transform="translate(-97.199 -137.707)"/></g><g id="XMLID_2_" transform="translate(3.477 16.688)"><g id="XMLID_4_"><path id="XMLID_5_" class="cls-6" d="M35.959 153.712a1.572 1.572 0 0 0-1.143.25 1.51 1.51 0 0 0-.99-.62 1.784 1.784 0 0 0-1.861 1.132c-.185 1.045 1.219 1.894 2.395 2.1s2.786-.109 2.971-1.154a1.818 1.818 0 0 0-1.372-1.708z" transform="translate(-31.948 -153.323)"/></g><path id="XMLID_3_" class="cls-7" d="M43.425 167.142a2.739 2.739 0 0 0 1.676-.076l-3.211-.566c-.032.12.643.49 1.535.642z" transform="translate(-40.807 -165.066)"/></g></g></g></svg>