<svg xmlns="http://www.w3.org/2000/svg" xmlns:xlink="http://www.w3.org/1999/xlink" viewBox="5550 320 20 20"><defs><style>.cls-1{fill:rgba(255,255,255,0)}.cls-2{fill:url(#linear-gradient)}.cls-3{fill:url(#linear-gradient-2)}.cls-4{clip-path:url(#clip-path)}.cls-5{fill:url(#radial-gradient)}.cls-6{fill:#fff}.cls-7{fill:#4d3e2f}</style><linearGradient id="linear-gradient" x1=".5" x2=".5" y2="1" gradientUnits="objectBoundingBox"><stop offset="0" stop-color="#fb953b"/><stop offset=".076" stop-color="#fba036"/><stop offset=".272" stop-color="#fcb82d"/><stop offset=".481" stop-color="#fcc926"/><stop offset=".709" stop-color="#fcd322"/><stop offset=".994" stop-color="#fcd621"/></linearGradient><linearGradient id="linear-gradient-2" y1="412.908" y2="407.814" xlink:href="#linear-gradient"/><clipPath id="clip-path"><path id="Rectangle_789" data-name="Rectangle 789" d="M0 0H15.066V3.853H0z"/></clipPath><radialGradient id="radial-gradient" cx="3.067" cy="-2183.294" r="3.067" gradientUnits="userSpaceOnUse"><stop offset=".763" stop-color="#fcc062"/><stop offset="1" stop-color="#fff"/></radialGradient></defs><g id="bothered" transform="translate(5320 -140)"><path id="Rectangle_810" data-name="Rectangle 810" class="cls-1" transform="translate(230 460)" d="M0 0H20V20H0z"/><g id="XMLID_1_" transform="translate(230 460)"><ellipse id="XMLID_18_" class="cls-2" cx="10" cy="10" rx="10" ry="10"/><path id="XMLID_17_" class="cls-3" transform="translate(8.187 10.56)" d="M0 0H3.627V0.667H0z"/><g id="XMLID_4_" transform="translate(2.467 10.56)"><g id="XMLID_6_" class="cls-4"><ellipse id="XMLID_16_" class="cls-5" cx="3.067" cy="3.067" rx="3.067" ry="3.067" transform="translate(.733 -3.067)"/><ellipse id="XMLID_15_" class="cls-5" cx="3.067" cy="3.067" rx="3.067" ry="3.067" transform="translate(8.2 -3.067)"/><g id="XMLID_11_" transform="translate(1.04 -2.76)"><ellipse id="XMLID_14_" class="cls-6" cx="2.76" cy="2.76" rx="2.76" ry="2.76"/><ellipse id="XMLID_13_" cx="1.187" cy="1.187" rx="1.187" ry="1.187" transform="translate(1.573 1.573)"/><path id="XMLID_12_" class="cls-6" d="M41.168 72.755a.434.434 0 0 0-.613.613z" transform="translate(-38.542 -70.742)"/></g><g id="XMLID_7_" transform="translate(8.507 -2.76)"><ellipse id="XMLID_10_" class="cls-6" cx="2.76" cy="2.76" rx="2.76" ry="2.76"/><ellipse id="XMLID_9_" cx="1.187" cy="1.187" rx="1.187" ry="1.187" transform="translate(1.573 1.573)"/><path id="XMLID_8_" class="cls-6" d="M97.168 72.755a.434.434 0 0 0-.613.613z" transform="translate(-94.542 -70.742)"/></g></g></g><g id="XMLID_2_" transform="translate(7.337 14.946)"><path id="XMLID_3_" class="cls-7" d="M55.69 114.527a.656.656 0 0 1-.4-.133.676.676 0 0 1-.133-.933 3.039 3.039 0 0 1 5.067 0 .667.667 0 1 1-1.067.8 1.872 1.872 0 0 0-1.467-.84 1.836 1.836 0 0 0-1.467.84.639.639 0 0 1-.533.266z" transform="translate(-55.027 -112.1)"/></g></g></g></svg>