<svg xmlns="http://www.w3.org/2000/svg" xmlns:xlink="http://www.w3.org/1999/xlink" viewBox="5740 200 20 20"><defs><style>.cls-1{fill:rgba(255,255,255,0)}.cls-2{fill:url(#linear-gradient)}.cls-3{opacity:.1}.cls-4{fill:#ed1e79}.cls-5{fill:#4d3e2f}.cls-6{fill:url(#radial-gradient)}.cls-7{fill:#fff}.cls-8{fill:url(#radial-gradient-2)}</style><linearGradient id="linear-gradient" x1=".351" y1=".926" x2="1.109" y2=".11" gradientUnits="objectBoundingBox"><stop offset="0" stop-color="#fb953b"/><stop offset=".076" stop-color="#fba036"/><stop offset=".272" stop-color="#fcb82d"/><stop offset=".481" stop-color="#fcc926"/><stop offset=".709" stop-color="#fcd322"/><stop offset=".994" stop-color="#fcd621"/><stop offset="1" stop-color="#fcd621"/></linearGradient><radialGradient id="radial-gradient" cx="3.667" cy="-2178.686" r="3.667" gradientUnits="userSpaceOnUse"><stop offset=".65" stop-color="#fcc062"/><stop offset="1" stop-color="#fff"/></radialGradient><radialGradient id="radial-gradient-2" cx="4.333" cy="-2177.486" r="4.333" xlink:href="#radial-gradient"/></defs><g id="confused" transform="translate(5470 -180)"><path id="Rectangle_801" data-name="Rectangle 801" class="cls-1" transform="translate(270 380)" d="M0 0H20V20H0z"/><g id="XMLID_1_" transform="translate(270 380)"><ellipse id="XMLID_24_" class="cls-2" cx="10" cy="10" rx="10" ry="10"/><g id="XMLID_21_" class="cls-3" transform="translate(1.4 11.307)"><ellipse id="XMLID_23_" class="cls-4" cx="2" cy="2" rx="2" ry="2" transform="translate(0 .533)"/><ellipse id="XMLID_22_" class="cls-4" cx="2" cy="2" rx="2" ry="2" transform="translate(10.6)"/></g><g id="XMLID_16_" transform="translate(1.147 2.24)"><g id="XMLID_19_" transform="translate(11)"><path id="XMLID_20_" class="cls-5" d="M94.473 19.267a.625.625 0 0 1-.467-.2 3.136 3.136 0 0 0-2.24-.933.667.667 0 1 1 0-1.333 4.478 4.478 0 0 1 3.187 1.32.66.66 0 0 1 0 .947.677.677 0 0 1-.48.199z" transform="translate(-91.1 -16.8)"/></g><g id="XMLID_17_"><path id="XMLID_18_" class="cls-5" d="M9.267 19.267a.625.625 0 0 1-.467-.2.66.66 0 0 1 0-.947 4.456 4.456 0 0 1 3.187-1.32.667.667 0 1 1 0 1.333 3.159 3.159 0 0 0-2.24.933.725.725 0 0 1-.48.201z" transform="translate(-8.6 -16.8)"/></g></g><g id="XMLID_10_" transform="translate(.133 5.373)"><ellipse id="XMLID_15_" class="cls-6" cx="3.667" cy="3.667" rx="3.667" ry="3.667"/><g id="XMLID_11_" transform="translate(.48 .48)"><ellipse id="XMLID_14_" class="cls-7" cx="3.187" cy="3.187" rx="3.187" ry="3.187"/><ellipse id="XMLID_13_" cx="1.6" cy="1.6" rx="1.6" ry="1.6" transform="translate(2.387 1.587)"/><path id="XMLID_12_" class="cls-7" d="M26.635 59.195a.594.594 0 0 0-.84.84z" transform="translate(-22.822 -57.008)"/></g></g><g id="XMLID_4_" transform="translate(7.333 4.44)"><ellipse id="XMLID_9_" class="cls-8" cx="4.333" cy="4.333" rx="4.333" ry="4.333"/><g id="XMLID_5_" transform="translate(.56 .56)"><ellipse id="XMLID_8_" class="cls-7" cx="3.773" cy="3.773" rx="3.773" ry="3.773"/><ellipse id="XMLID_7_" cx="1.88" cy="1.88" rx="1.88" ry="1.88" transform="translate(1.893 1.893)"/><path id="XMLID_6_" class="cls-7" d="M78.287 55.6a.7.7 0 0 0-.987.987z" transform="translate(-74.713 -53.013)"/></g></g><g id="XMLID_2_" transform="translate(5.762 13.829)"><path id="XMLID_3_" class="cls-5" d="M43.881 106.048a.666.666 0 0 1-.12-1.32l5.333-1a.664.664 0 0 1 .24 1.307l-5.333 1c-.04-.001-.08.013-.12.013z" transform="translate(-43.217 -103.717)"/></g></g></g></svg>