<svg xmlns="http://www.w3.org/2000/svg" viewBox="5930 200 20 20"><defs><style>.cls-1{fill:rgba(255,255,255,0)}.cls-10,.cls-2{fill:#429aff}.cls-3{fill:url(#linear-gradient)}.cls-4{opacity:.1}.cls-5{fill:#ed1e79}.cls-6{fill:url(#radial-gradient)}.cls-7{fill:#fff}.cls-8{fill:#4d3e2f}.cls-9{clip-path:url(#clip-path)}.cls-10{opacity:.9}</style><linearGradient id="linear-gradient" x1=".5" x2=".5" y2="1" gradientUnits="objectBoundingBox"><stop offset="0" stop-color="#fb953b"/><stop offset=".076" stop-color="#fba036"/><stop offset=".272" stop-color="#fcb82d"/><stop offset=".481" stop-color="#fcc926"/><stop offset=".709" stop-color="#fcd322"/><stop offset=".994" stop-color="#fcd621"/></linearGradient><radialGradient id="radial-gradient" cx="4.058" cy="-1949.292" r="4.058" gradientUnits="userSpaceOnUse"><stop offset=".763" stop-color="#fcc062"/><stop offset="1" stop-color="#fff"/></radialGradient><clipPath id="clip-path"><ellipse id="Ellipse_427" data-name="Ellipse 427" cx="8.696" cy="8.696" rx="8.696" ry="8.696"/></clipPath></defs><g id="crying" transform="translate(5620 -260)"><path id="Rectangle_812" data-name="Rectangle 812" class="cls-1" transform="translate(310 460)" d="M0 0H20V20H0z"/><g id="XMLID_1_" transform="translate(311 460)"><ellipse id="XMLID_27_" class="cls-2" cx="8.696" cy="2.609" rx="8.696" ry="2.609" transform="translate(0 14.783)"/><ellipse id="XMLID_26_" class="cls-3" cx="8.696" cy="8.696" rx="8.696" ry="8.696"/><g id="XMLID_23_" class="cls-4" transform="translate(1.89 10.272)"><ellipse id="XMLID_25_" class="cls-5" cx="2.11" cy="2.11" rx="2.11" ry="2.11"/><ellipse id="XMLID_24_" class="cls-5" cx="2.11" cy="2.11" rx="2.11" ry="2.11" transform="translate(9.391)"/></g><ellipse id="XMLID_22_" class="cls-6" cx="4.058" cy="4.058" rx="4.058" ry="4.058" transform="translate(.58 3.803)"/><ellipse id="XMLID_21_" class="cls-6" cx="4.058" cy="4.058" rx="4.058" ry="4.058" transform="translate(8.696 3.803)"/><ellipse id="XMLID_20_" class="cls-7" cx="3.652" cy="3.652" rx="3.652" ry="3.652" transform="translate(.986 4.209)"/><ellipse id="XMLID_19_" class="cls-7" cx="3.652" cy="3.652" rx="3.652" ry="3.652" transform="translate(9.101 4.209)"/><g id="XMLID_14_" transform="translate(.707 1.484)"><g id="XMLID_17_" transform="translate(12.464)"><path id="XMLID_18_" class="cls-8" d="M116.533 14.945a.544.544 0 0 1-.406-.174 2.727 2.727 0 0 0-1.948-.812.58.58 0 1 1 0-1.159 3.894 3.894 0 0 1 2.771 1.148.574.574 0 0 1 0 .823.588.588 0 0 1-.417.174z" transform="translate(-113.6 -12.8)"/></g><g id="XMLID_15_"><path id="XMLID_16_" class="cls-8" d="M6.68 14.945a.544.544 0 0 1-.406-.174.574.574 0 0 1 0-.823A3.894 3.894 0 0 1 9.045 12.8a.58.58 0 0 1 0 1.159 2.747 2.747 0 0 0-1.948.812.63.63 0 0 1-.417.174z" transform="translate(-6.1 -12.8)"/></g></g><g id="XMLID_12_" transform="translate(6.667 11.977)"><path id="XMLID_13_" class="cls-8" d="M60.978 105.909a.574.574 0 0 1-.58-.58.87.87 0 0 0-1.739 0 .58.58 0 1 1-1.159 0 2.029 2.029 0 0 1 4.058 0 .581.581 0 0 1-.58.58z" transform="translate(-57.5 -103.3)"/></g><g id="XMLID_8_"><g id="Group_2625" data-name="Group 2625" class="cls-9"><path id="XMLID_11_" class="cls-10" transform="translate(3.072 7.861)" d="M0 0H3.13V10.817H0z"/></g><g id="Group_2626" data-name="Group 2626" class="cls-9"><path id="XMLID_10_" class="cls-10" transform="translate(11.188 7.861)" d="M0 0H3.13V10.817H0z"/></g></g><g id="XMLID_5_" transform="translate(3.072 6.296)"><ellipse id="XMLID_7_" cx="1.565" cy="1.565" rx="1.565" ry="1.565"/><path id="XMLID_6_" class="cls-7" d="M30.9 57.974a.582.582 0 1 0-.823.823z" transform="translate(-29.506 -57.394)"/></g><g id="XMLID_2_" transform="translate(11.188 6.296)"><ellipse id="XMLID_4_" cx="1.565" cy="1.565" rx="1.565" ry="1.565"/><path id="XMLID_3_" class="cls-7" d="M100.9 57.974a.582.582 0 0 0-.823.823z" transform="translate(-99.506 -57.394)"/></g></g></g></svg>