<svg xmlns="http://www.w3.org/2000/svg" viewBox="5550 400 20 20"><defs><style>.cls-1{fill:rgba(255,255,255,0)}.cls-2{fill:url(#linear-gradient)}.cls-3{opacity:.1}.cls-4{fill:#2e3192}.cls-5{fill:#4d3e2f}.cls-6{fill:#705d73}</style><linearGradient id="linear-gradient" x1=".5" x2=".5" y2="1" gradientUnits="objectBoundingBox"><stop offset="0" stop-color="#fb953b"/><stop offset=".076" stop-color="#fba036"/><stop offset=".272" stop-color="#fcb82d"/><stop offset=".481" stop-color="#fcc926"/><stop offset=".709" stop-color="#fcd322"/><stop offset=".994" stop-color="#fcd621"/></linearGradient></defs><g id="dead" transform="translate(5320 -140)"><path id="Rectangle_815" data-name="Rectangle 815" class="cls-1" transform="translate(230 540)" d="M0 0H20V20H0z"/><g id="XMLID_1_" transform="translate(230 540)"><ellipse id="XMLID_19_" class="cls-2" cx="10" cy="10" rx="10" ry="10"/><g id="XMLID_16_" class="cls-3" transform="translate(2.173 11.813)"><ellipse id="XMLID_18_" class="cls-4" cx="2.427" cy="2.427" rx="2.427" ry="2.427"/><ellipse id="XMLID_17_" class="cls-4" cx="2.427" cy="2.427" rx="2.427" ry="2.427" transform="translate(10.8)"/></g><g id="XMLID_5_" transform="translate(4.253 8.16)"><g id="XMLID_11_"><g id="XMLID_14_"><path id="XMLID_15_" class="cls-5" d="M34.913 64.88a.625.625 0 0 1-.467-.2L32.1 62.347a.669.669 0 0 1 .947-.947l2.333 2.333a.66.66 0 0 1 0 .947.67.67 0 0 1-.467.2z" transform="translate(-31.9 -61.2)"/></g><g id="XMLID_12_" transform="translate(.013)"><path id="XMLID_13_" class="cls-5" d="M32.667 64.88a.625.625 0 0 1-.467-.2.66.66 0 0 1 0-.947l2.333-2.333a.669.669 0 0 1 .947.947l-2.347 2.333a.67.67 0 0 1-.466.2z" transform="translate(-32 -61.2)"/></g></g><g id="XMLID_6_" transform="translate(7.813)"><g id="XMLID_9_"><path id="XMLID_10_" class="cls-5" d="M93.5 64.88a.625.625 0 0 1-.467-.2L90.7 62.347a.669.669 0 0 1 .947-.947l2.333 2.333a.66.66 0 0 1 0 .947.677.677 0 0 1-.48.2z" transform="translate(-90.5 -61.2)"/></g><g id="XMLID_7_"><path id="XMLID_8_" class="cls-5" d="M91.167 64.88a.625.625 0 0 1-.467-.2.66.66 0 0 1 0-.947l2.333-2.333a.669.669 0 0 1 .947.947l-2.333 2.333a.677.677 0 0 1-.48.2z" transform="translate(-90.5 -61.2)"/></g></g></g><path id="XMLID_4_" class="cls-6" d="M71.1 102.3v3.133a1.667 1.667 0 0 0 1.667 1.667 1.667 1.667 0 0 0 1.667-1.667v-1.907A5.068 5.068 0 0 0 71.1 102.3z" transform="translate(-61.62 -88.658)"/><g id="XMLID_2_" transform="translate(5.333 13.107)"><path id="XMLID_3_" class="cls-5" d="M40.667 101.62a.718.718 0 0 1-.427-.147.672.672 0 0 1-.093-.933 5.858 5.858 0 0 1 4.52-2.24 5.879 5.879 0 0 1 4.52 2.24.663.663 0 0 1-1.027.84 4.513 4.513 0 0 0-3.48-1.76 4.559 4.559 0 0 0-3.493 1.76.683.683 0 0 1-.52.24z" transform="translate(-40 -98.3)"/></g></g></g></svg>