<svg xmlns="http://www.w3.org/2000/svg" viewBox="5930 160 20 20"><defs><style>.cls-1{fill:rgba(255,255,255,0)}.cls-2{fill:url(#linear-gradient)}.cls-3{opacity:.1}.cls-4{fill:#ed1e79}.cls-5{fill:#4d3e2f}.cls-6{clip-path:url(#clip-path)}.cls-7{fill:url(#radial-gradient)}.cls-8{fill:#fff}</style><linearGradient id="linear-gradient" x1=".5" x2=".5" y2="1" gradientUnits="objectBoundingBox"><stop offset="0" stop-color="#fb953b"/><stop offset=".076" stop-color="#fba036"/><stop offset=".272" stop-color="#fcb82d"/><stop offset=".481" stop-color="#fcc926"/><stop offset=".709" stop-color="#fcd322"/><stop offset=".994" stop-color="#fcd621"/></linearGradient><clipPath id="clip-path"><path id="Path_2279" data-name="Path 2279" d="M33.567 67.433H18.5v-3.866l7.533-1.067 7.533 1.067z" transform="translate(-18.5 -62.5)"/></clipPath><radialGradient id="radial-gradient" cx="3.067" cy="-2245.953" r="3.067" gradientUnits="userSpaceOnUse"><stop offset=".65" stop-color="#fcc062"/><stop offset="1" stop-color="#fff"/></radialGradient></defs><g id="disappointed" transform="translate(5620 -260)"><path id="Rectangle_807" data-name="Rectangle 807" class="cls-1" transform="translate(310 420)" d="M0 0H20V20H0z"/><g id="XMLID_1_" transform="translate(310 420)"><ellipse id="XMLID_26_" class="cls-2" cx="10" cy="10" rx="10" ry="10"/><g id="XMLID_23_" class="cls-3" transform="translate(2.173 11.147)"><ellipse id="XMLID_25_" class="cls-4" cx="2.427" cy="2.427" rx="2.427" ry="2.427"/><ellipse id="XMLID_24_" class="cls-4" cx="2.427" cy="2.427" rx="2.427" ry="2.427" transform="translate(10.8)"/></g><g id="XMLID_18_" transform="translate(3.029 5.479)"><g id="XMLID_21_" transform="translate(10.131)"><path id="XMLID_22_" class="cls-5" d="M101.843 44.017a.369.369 0 0 1-.12-.013 4.49 4.49 0 0 1-2.907-1.853.67.67 0 1 1 1.093-.773 3.144 3.144 0 0 0 2.04 1.307.685.685 0 0 1 .547.773.658.658 0 0 1-.653.559z" transform="translate(-98.696 -41.096)"/></g><g id="XMLID_19_" transform="translate(0 .01)"><path id="XMLID_20_" class="cls-5" d="M23.381 44.079a.664.664 0 0 1-.107-1.32 3.144 3.144 0 0 0 2.04-1.307.67.67 0 0 1 1.093.773 4.49 4.49 0 0 1-2.907 1.854.362.362 0 0 0-.119 0z" transform="translate(-22.717 -41.168)"/></g></g><g id="XMLID_16_" transform="translate(7 14.92)"><path id="XMLID_17_" class="cls-5" d="M57.833 113.233h-4.666a.667.667 0 0 1 0-1.333h4.667a.66.66 0 0 1 .667.667.669.669 0 0 1-.668.666z" transform="translate(-52.5 -111.9)"/></g><g id="XMLID_2_" transform="translate(2.467 8.333)"><g id="XMLID_10_" class="cls-6"><ellipse id="XMLID_15_" class="cls-7" cx="3.067" cy="3.067" rx="3.067" ry="3.067" transform="translate(.467 -1.027)"/><g id="XMLID_11_" transform="translate(.867 -.627)"><ellipse id="XMLID_14_" class="cls-8" cx="2.667" cy="2.667" rx="2.667" ry="2.667"/><ellipse id="XMLID_13_" cx="1.333" cy="1.333" rx="1.333" ry="1.333" transform="translate(2.333 2)"/><path id="XMLID_12_" class="cls-8" d="M45.983 75.59a.49.49 0 0 0-.693.693z" transform="translate(-42.463 -73.097)"/></g></g><g id="XMLID_4_" class="cls-6"><ellipse id="XMLID_9_" class="cls-7" cx="3.067" cy="3.067" rx="3.067" ry="3.067" transform="translate(8.467 -1.027)"/><g id="XMLID_5_" transform="translate(8.867 -.627)"><ellipse id="XMLID_8_" class="cls-8" cx="2.667" cy="2.667" rx="2.667" ry="2.667"/><ellipse id="XMLID_7_" cx="1.333" cy="1.333" rx="1.333" ry="1.333" transform="translate(2.333 2)"/><path id="XMLID_6_" class="cls-8" d="M105.983 75.59a.49.49 0 0 0-.693.693z" transform="translate(-102.463 -73.097)"/></g></g></g></g></g></svg>