<svg xmlns="http://www.w3.org/2000/svg" viewBox="5930 240 20 20"><defs><style>.cls-1{fill:rgba(255,255,255,0)}.cls-2{fill:#e0346a}.cls-3{fill:#fff;opacity:.5}</style></defs><g id="heart" transform="translate(5620 -260)"><path id="Rectangle_821" data-name="Rectangle 821" class="cls-1" transform="translate(310 500)" d="M0 0H20V20H0z"/><g id="XMLID_1_" transform="translate(310 501)"><path id="XMLID_3_" class="cls-2" d="M13.96 0A5.785 5.785 0 0 0 10 1.613 5.785 5.785 0 0 0 6.04 0 6.3 6.3 0 0 0 0 6.52c0 4.747 5.64 10.627 10 10.627s10-5.88 10-10.627A6.3 6.3 0 0 0 13.96 0z"/><path id="XMLID_2_" class="cls-3" d="M14.61 14.41a2.929 2.929 0 0 0 0 4.147l4.147-4.147a2.929 2.929 0 0 0-4.147 0z" transform="translate(-11.917 -11.743)"/></g></g></svg>