<svg xmlns="http://www.w3.org/2000/svg" viewBox="5930 440 20 20"><defs><style>.cls-1{fill:rgba(255,255,255,0)}.cls-2{fill:url(#linear-gradient)}.cls-3{opacity:.1}.cls-4{fill:#ed1e79}.cls-5{fill:#4d3e2f}</style><linearGradient id="linear-gradient" x2="0" y2="1" gradientUnits="objectBoundingBox"><stop offset="0" stop-color="#fb953b"/><stop offset=".076" stop-color="#fba036"/><stop offset=".272" stop-color="#fcb82d"/><stop offset=".481" stop-color="#fcc926"/><stop offset=".709" stop-color="#fcd322"/><stop offset=".994" stop-color="#fcd621"/></linearGradient></defs><g id="indifferent" transform="translate(5580 20)"><path id="Rectangle_808" data-name="Rectangle 808" class="cls-1" transform="translate(350 420)" d="M0 0H20V20H0z"/><g id="XMLID_1_" transform="translate(350 420)"><ellipse id="XMLID_11_" class="cls-2" cx="10" cy="10" rx="10" ry="10"/><g id="XMLID_8_" class="cls-3" transform="translate(2.173 11.813)"><ellipse id="XMLID_10_" class="cls-4" cx="2.427" cy="2.427" rx="2.427" ry="2.427"/><ellipse id="XMLID_9_" class="cls-4" cx="2.427" cy="2.427" rx="2.427" ry="2.427" transform="translate(10.8)"/></g><g id="XMLID_6_" transform="translate(7.333 14.44)"><path id="XMLID_7_" class="cls-5" d="M59.667 109.633h-4a.667.667 0 1 1 0-1.333h4a.667.667 0 0 1 0 1.333z" transform="translate(-55 -108.3)"/></g><g id="XMLID_4_" transform="translate(12.307 9.827)"><path id="XMLID_5_" class="cls-5" d="M94.633 76.7a2.345 2.345 0 0 1-2.333-2.333.667.667 0 1 1 1.333 0 1 1 0 1 0 2 0 .667.667 0 1 1 1.333 0 2.336 2.336 0 0 1-2.333 2.333z" transform="translate(-92.3 -73.7)"/></g><g id="XMLID_2_" transform="translate(2.96 9.827)"><path id="XMLID_3_" class="cls-5" d="M24.533 76.7a2.345 2.345 0 0 1-2.333-2.333.667.667 0 1 1 1.333 0 1 1 0 0 0 2 0 .667.667 0 1 1 1.333 0 2.336 2.336 0 0 1-2.333 2.333z" transform="translate(-22.2 -73.7)"/></g></g></g></svg>