<svg xmlns="http://www.w3.org/2000/svg" viewBox="5740 558 20 20"><defs><style>.cls-1{fill:rgba(255,255,255,0)}.cls-2{fill:url(#linear-gradient)}.cls-3{fill:#4d3e2f}.cls-4{clip-path:url(#clip-path)}.cls-5{fill:#fff}.cls-6{fill:#b3b3b3}.cls-7{fill:silver}.cls-8{fill:#ccc}.cls-9{fill:#d9d9d9}.cls-10{fill:#e6e6e6}.cls-11{fill:#f2f2f2}</style><linearGradient id="linear-gradient" x1=".5" x2=".5" y2="1" gradientUnits="objectBoundingBox"><stop offset="0" stop-color="#ff793b"/><stop offset=".076" stop-color="#fb6e3a"/><stop offset=".272" stop-color="#f35639"/><stop offset=".481" stop-color="#ed4539"/><stop offset=".709" stop-color="#e93b38"/><stop offset=".994" stop-color="#e83838"/></linearGradient><clipPath id="clip-path"><path id="Path_2287" data-name="Path 2287" d="M41.833 101.6a3.143 3.143 0 0 0-1.253.4 6.307 6.307 0 0 1-4.827 0 3.143 3.143 0 0 0-1.253-.4 2.04 2.04 0 0 0 0 4.08 3.143 3.143 0 0 0 1.253-.4 6.307 6.307 0 0 1 4.827 0 3.143 3.143 0 0 0 1.253.4 2.04 2.04 0 0 0 0-4.08z" transform="translate(-32.5 -101.6)"/></clipPath></defs><g id="rage" transform="translate(5390 18)"><path id="Rectangle_818" data-name="Rectangle 818" class="cls-1" transform="translate(350 540)" d="M0 0H20V20H0z"/><g id="XMLID_1_" transform="translate(350 540)"><ellipse id="XMLID_41_" class="cls-2" cx="10" cy="10" rx="10" ry="10"/><g id="XMLID_39_" transform="translate(3.977 8.644)"><path id="XMLID_40_" class="cls-3" d="M30.505 68.826a.671.671 0 0 1-.307-1.267l1.48-.733-1.48-.733a.665.665 0 0 1 .6-1.187l2.667 1.333a.667.667 0 0 1 .373.6.682.682 0 0 1-.373.6L30.8 68.772a.959.959 0 0 1-.295.054z" transform="translate(-29.829 -64.829)"/></g><g id="XMLID_36_" transform="translate(12 8.639)"><path id="XMLID_37_" class="cls-3" d="M93.333 68.793a.727.727 0 0 1-.293-.067l-2.667-1.333a.667.667 0 0 1-.373-.6.682.682 0 0 1 .373-.6l2.667-1.333a.665.665 0 0 1 .6 1.187l-1.48.733 1.48.733a.651.651 0 0 1 .293.893.686.686 0 0 1-.6.387z" transform="translate(-90 -64.792)"/></g><g id="XMLID_10_" transform="translate(4.333 13.547)"><path id="Path_2286" data-name="Path 2286" class="cls-3" d="M41.833 101.6a3.143 3.143 0 0 0-1.253.4 6.307 6.307 0 0 1-4.827 0 3.143 3.143 0 0 0-1.253-.4 2.04 2.04 0 0 0 0 4.08 3.143 3.143 0 0 0 1.253-.4 6.307 6.307 0 0 1 4.827 0 3.143 3.143 0 0 0 1.253.4 2.04 2.04 0 0 0 0-4.08z" transform="translate(-32.5 -101.6)"/><g id="Group_2629" data-name="Group 2629" class="cls-4"><path id="XMLID_35_" class="cls-5" transform="translate(0 -.053)" d="M0 0H11.333V1.613H0z"/></g><g id="XMLID_24_" class="cls-4"><g id="XMLID_33_" transform="translate(1.467 -.053)"><path id="XMLID_34_" class="cls-6" d="M0 0H0.4V1.613H0z"/></g><g id="XMLID_31_" transform="translate(3.467 -.053)"><path id="XMLID_32_" class="cls-6" d="M0 0H0.4V1.613H0z"/></g><g id="XMLID_29_" transform="translate(5.467 -.053)"><path id="XMLID_30_" class="cls-6" d="M0 0H0.4V1.613H0z"/></g><g id="XMLID_27_" transform="translate(7.467 -.053)"><path id="XMLID_28_" class="cls-6" d="M0 0H0.4V1.613H0z"/></g><g id="XMLID_25_" transform="translate(9.467 -.053)"><path id="XMLID_26_" class="cls-6" d="M0 0H0.4V1.613H0z"/></g></g><g id="Group_2630" data-name="Group 2630" class="cls-4"><path id="XMLID_23_" class="cls-5" transform="translate(0 2.493)" d="M0 0H11.333V1.613H0z"/></g><g id="XMLID_12_" class="cls-4"><g id="XMLID_21_" transform="translate(1.467 2.493)"><path id="XMLID_22_" class="cls-6" d="M0 0H0.4V1.613H0z"/></g><g id="XMLID_19_" transform="translate(3.467 2.493)"><path id="XMLID_20_" class="cls-6" d="M0 0H0.4V1.613H0z"/></g><g id="XMLID_17_" transform="translate(5.467 2.493)"><path id="XMLID_18_" class="cls-6" d="M0 0H0.4V1.613H0z"/></g><g id="XMLID_15_" transform="translate(7.467 2.493)"><path id="XMLID_16_" class="cls-6" d="M0 0H0.4V1.613H0z"/></g><g id="XMLID_13_" transform="translate(9.467 2.493)"><path id="XMLID_14_" class="cls-6" d="M0 0H0.4V1.613H0z"/></g></g></g><g id="XMLID_2_" transform="translate(4.333 13.547)"><path id="XMLID_9_" class="cls-6" d="M41.833 101.6a3.143 3.143 0 0 0-1.253.4 6.307 6.307 0 0 1-4.827 0 3.143 3.143 0 0 0-1.253-.4 2.04 2.04 0 0 0 0 4.08 3.143 3.143 0 0 0 1.253-.4 6.307 6.307 0 0 1 4.827 0 3.143 3.143 0 0 0 1.253.4 2.04 2.04 0 0 0 0-4.08z" transform="translate(-32.5 -101.6)"/><path id="XMLID_8_" class="cls-7" d="M34.847 102a2.769 2.769 0 0 1 1.133.36c.04.013.08.04.12.053a6.307 6.307 0 0 0 4.827 0 .474.474 0 0 0 .12-.053 2.474 2.474 0 0 1 1.133-.36 1.974 1.974 0 0 1 0 3.947 2.583 2.583 0 0 1-1.133-.36c-.04-.013-.08-.04-.12-.053a6.307 6.307 0 0 0-4.827 0 .474.474 0 0 0-.12.053 2.643 2.643 0 0 1-1.133.36 1.972 1.972 0 0 1-1.947-1.977 1.946 1.946 0 0 1 1.947-1.97z" transform="translate(-32.847 -101.943)"/><path id="XMLID_7_" class="cls-8" d="M35.193 102.4a3.066 3.066 0 0 1 1.133.36c.04.013.08.04.12.053a6.368 6.368 0 0 0 2.413.467 6.635 6.635 0 0 0 2.413-.467.474.474 0 0 0 .12-.053 2.643 2.643 0 0 1 1.133-.36 1.932 1.932 0 0 1 1.893 1.92 1.906 1.906 0 0 1-1.893 1.92 2.838 2.838 0 0 1-1.133-.36c-.04-.013-.08-.04-.12-.053a6.368 6.368 0 0 0-2.413-.467 6.635 6.635 0 0 0-2.413.467.473.473 0 0 0-.12.053 2.838 2.838 0 0 1-1.133.36 1.92 1.92 0 0 1 0-3.84z" transform="translate(-33.193 -102.29)"/><path id="XMLID_6_" class="cls-9" d="M35.54 102.8a3.06 3.06 0 0 1 1.133.373c.04.013.08.04.12.053a6.474 6.474 0 0 0 4.827 0 .474.474 0 0 0 .12-.053 2.643 2.643 0 0 1 1.133-.373 1.867 1.867 0 0 1 0 3.733 2.643 2.643 0 0 1-1.133-.373c-.04-.013-.08-.04-.12-.053a6.474 6.474 0 0 0-4.827 0 .474.474 0 0 0-.12.053 3.06 3.06 0 0 1-1.133.373 1.867 1.867 0 0 1 0-3.733z" transform="translate(-33.54 -102.637)"/><path id="XMLID_5_" class="cls-10" d="M35.887 103.3a3.06 3.06 0 0 1 1.133.373c.04.013.08.04.12.053a6.474 6.474 0 0 0 4.827 0 .474.474 0 0 0 .12-.053 2.643 2.643 0 0 1 1.133-.373 1.814 1.814 0 0 1 0 3.627 2.836 2.836 0 0 1-1.133-.373c-.04-.013-.08-.04-.12-.053a6.474 6.474 0 0 0-4.827 0 .474.474 0 0 0-.12.053 2.836 2.836 0 0 1-1.133.373 1.814 1.814 0 0 1 0-3.627z" transform="translate(-33.887 -103.069)"/><path id="XMLID_4_" class="cls-11" d="M36.233 103.7a3.428 3.428 0 0 1 1.133.373.473.473 0 0 1 .12.053 6.619 6.619 0 0 0 2.413.453 6.909 6.909 0 0 0 2.413-.453.474.474 0 0 0 .12-.053 2.643 2.643 0 0 1 1.133-.373 1.779 1.779 0 0 1 1.733 1.76 1.761 1.761 0 0 1-1.733 1.76 3.147 3.147 0 0 1-1.133-.373.474.474 0 0 1-.12-.053 6.618 6.618 0 0 0-2.413-.453 6.909 6.909 0 0 0-2.413.453.474.474 0 0 0-.12.053 2.836 2.836 0 0 1-1.133.373 1.76 1.76 0 0 1 0-3.52z" transform="translate(-34.233 -103.416)"/><path id="XMLID_3_" class="cls-5" d="M36.667 107.413A1.7 1.7 0 0 1 35 105.707 1.72 1.72 0 0 1 36.667 104a2.842 2.842 0 0 1 1.12.387 6.761 6.761 0 0 0 2.533.507 6.659 6.659 0 0 0 2.533-.507 3.07 3.07 0 0 1 1.12-.387 1.7 1.7 0 0 1 1.667 1.707 1.72 1.72 0 0 1-1.667 1.707 2.842 2.842 0 0 1-1.12-.387 6.587 6.587 0 0 0-5.067 0 2.7 2.7 0 0 1-1.119.386z" transform="translate(-34.667 -103.68)"/></g></g></g></svg>