<svg xmlns="http://www.w3.org/2000/svg" viewBox="5930 320 20 20"><defs><style>.cls-1{fill:rgba(255,255,255,0)}.cls-2{fill:url(#linear-gradient)}.cls-3{opacity:.1}.cls-4{fill:#ed1e79}.cls-5{fill:#4d3e2f}.cls-6{fill:#e0346a}.cls-7{fill:#fff}</style><linearGradient id="linear-gradient" x1=".154" y1=".156" x2=".5" y2="1" gradientUnits="objectBoundingBox"><stop offset="0" stop-color="#fb953b"/><stop offset=".076" stop-color="#fba036"/><stop offset=".272" stop-color="#fcb82d"/><stop offset=".481" stop-color="#fcc926"/><stop offset=".709" stop-color="#fcd322"/><stop offset="1" stop-color="#fcd621"/></linearGradient></defs><g id="rofl" transform="translate(5580 20)"><path id="Rectangle_793" data-name="Rectangle 793" class="cls-1" transform="translate(350 300)" d="M0 0H20V20H0z"/><g id="XMLID_1_" transform="translate(350 300)"><ellipse id="XMLID_15_" class="cls-2" cx="10" cy="10" rx="10" ry="10"/><g id="XMLID_12_" class="cls-3" transform="translate(4.81 4.807)"><circle id="XMLID_14_" class="cls-4" cx="2.427" cy="2.427" r="2.427" transform="rotate(-45 13.366 5.537)"/><circle id="XMLID_13_" class="cls-4" cx="2.427" cy="2.427" r="2.427" transform="rotate(-45 7.961 -7.503)"/></g><g id="XMLID_7_" transform="translate(7.4 7.413)"><g id="XMLID_10_"><path id="XMLID_11_" class="cls-5" d="M55.5 64.027a5.995 5.995 0 0 0 8.427-8.427z" transform="translate(-55.5 -55.6)"/></g><path id="XMLID_9_" class="cls-6" d="M100.287 100.3a2.106 2.106 0 0 0-.24 2.693 6.063 6.063 0 0 0 1.72-1.2 5.732 5.732 0 0 0 1.2-1.72 2.072 2.072 0 0 0-2.68.227z" transform="translate(-93.781 -93.809)"/><path id="XMLID_8_" class="cls-7" d="M55.5 64.027a5.866 5.866 0 0 0 1.16.733l8-8a6.28 6.28 0 0 0-.733-1.16z" transform="translate(-55.5 -55.6)"/></g><g id="XMLID_2_" transform="translate(3.937 3.943)"><g id="XMLID_5_" transform="translate(0 7.543)"><path id="XMLID_6_" class="cls-5" d="M32.084 90.315a.6.6 0 0 1-.213-.04.679.679 0 0 1-.427-.84l.52-1.56-1.56.52a.666.666 0 1 1-.413-1.267l2.827-.947a.664.664 0 0 1 .84.84l-.933 2.84a.673.673 0 0 1-.641.454z" transform="translate(-29.528 -86.148)"/></g><g id="XMLID_3_" transform="translate(7.563)"><path id="XMLID_4_" class="cls-5" d="M86.908 33.739a.625.625 0 0 1-.467-.2.67.67 0 0 1-.16-.68l.933-2.827a.666.666 0 1 1 1.267.413l-.52 1.56 1.56-.52a.666.666 0 1 1 .413 1.267l-2.827.947a.535.535 0 0 1-.199.04z" transform="translate(-86.248 -29.575)"/></g></g></g></g></svg>