<svg xmlns="http://www.w3.org/2000/svg" viewBox="5740 280 20 20"><defs><style>.cls-1{fill:rgba(255,255,255,0)}.cls-2{fill:url(#linear-gradient)}.cls-3{fill:#4d3e2f}.cls-4{opacity:.1}.cls-5{fill:#ed1e79}.cls-6{fill:#429aff}.cls-7{fill:#1e91e6}</style><linearGradient id="linear-gradient" x1=".5" x2=".5" y2="1" gradientUnits="objectBoundingBox"><stop offset="0" stop-color="#fb953b"/><stop offset=".076" stop-color="#fba036"/><stop offset=".272" stop-color="#fcb82d"/><stop offset=".481" stop-color="#fcc926"/><stop offset=".709" stop-color="#fcd322"/><stop offset=".994" stop-color="#fcd621"/></linearGradient></defs><g id="sad" transform="translate(5470 -180)"><path id="Rectangle_811" data-name="Rectangle 811" class="cls-1" transform="translate(270 460)" d="M0 0H20V20H0z"/><g id="XMLID_1_" transform="translate(270 460)"><ellipse id="XMLID_19_" class="cls-2" cx="10" cy="10" rx="10" ry="10"/><g id="XMLID_17_" transform="translate(4.67 12.587)"><path id="XMLID_18_" class="cls-3" d="M35.69 98.307a.656.656 0 0 1-.4-.133.676.676 0 0 1-.133-.933 6.188 6.188 0 0 1 10.4-.013.667.667 0 0 1-1.067.8 5.246 5.246 0 0 0-4.133-2.307 5.209 5.209 0 0 0-4.133 2.307.652.652 0 0 1-.534.279z" transform="translate(-35.027 -94.4)"/></g><g id="XMLID_14_" class="cls-4" transform="translate(1.933 10.907)"><ellipse id="XMLID_16_" class="cls-5" cx="2" cy="2" rx="2" ry="2"/><ellipse id="XMLID_15_" class="cls-5" cx="2" cy="2" rx="2" ry="2" transform="translate(12.133)"/></g><g id="XMLID_7_" transform="translate(1.8 10.853)"><g id="XMLID_11_" transform="translate(12.4 2.667)"><path id="XMLID_13_" class="cls-6" d="M106.5 105.4c0-1.107 2-4 2-4s2 2.893 2 4a2 2 0 1 1-4 0z" transform="translate(-106.5 -101.4)"/><path id="XMLID_12_" class="cls-7" d="M113.8 130.8a1.4 1.4 0 0 1-1.4 1.4 1.4 1.4 0 0 1-1.4-1.4z" transform="translate(-110.4 -126.88)"/></g><g id="XMLID_8_"><path id="XMLID_10_" class="cls-6" d="M13.5 85.4c0-1.107 2-4 2-4s2 2.893 2 4a2 2 0 0 1-4 0z" transform="translate(-13.5 -81.4)"/><path id="XMLID_9_" class="cls-7" d="M20.8 110.8a1.4 1.4 0 0 1-1.4 1.4 1.4 1.4 0 0 1-1.4-1.4z" transform="translate(-17.4 -106.88)"/></g></g><g id="XMLID_2_" transform="translate(3.667 8.88)"><g id="XMLID_5_" transform="translate(8)"><path id="XMLID_6_" class="cls-3" d="M89.833 69.6a2.345 2.345 0 0 1-2.333-2.333.667.667 0 0 1 1.333 0 1 1 0 0 0 2 0 .667.667 0 0 1 1.333 0 2.336 2.336 0 0 1-2.333 2.333z" transform="translate(-87.5 -66.6)"/></g><g id="XMLID_3_"><path id="XMLID_4_" class="cls-3" d="M29.833 69.6a2.345 2.345 0 0 1-2.333-2.333.667.667 0 0 1 1.333 0 1 1 0 0 0 2 0 .667.667 0 0 1 1.333 0 2.345 2.345 0 0 1-2.333 2.333z" transform="translate(-27.5 -66.6)"/></g></g></g></g></svg>