<svg xmlns="http://www.w3.org/2000/svg" viewBox="5550 160 20 20"><defs><style>.cls-1{fill:rgba(255,255,255,0)}.cls-2{fill:url(#linear-gradient)}.cls-3{opacity:.1}.cls-4{fill:#ed1e79}.cls-5{fill:#4d3e2f}.cls-6{fill:#e0346a}.cls-7{fill:#fff}</style><linearGradient id="linear-gradient" x1=".5" x2=".5" y2="1" gradientUnits="objectBoundingBox"><stop offset="0" stop-color="#fb953b"/><stop offset=".076" stop-color="#fba036"/><stop offset=".272" stop-color="#fcb82d"/><stop offset=".481" stop-color="#fcc926"/><stop offset=".709" stop-color="#fcd322"/><stop offset=".994" stop-color="#fcd621"/></linearGradient></defs><g id="smile" transform="translate(5320 -140)"><path id="Rectangle_790" data-name="Rectangle 790" class="cls-1" transform="translate(230 300)" d="M0 0H20V20H0z"/><g id="XMLID_1_" transform="translate(230 300)"><ellipse id="XMLID_14_" class="cls-2" cx="10" cy="10" rx="10" ry="10"/><g id="XMLID_11_" class="cls-3" transform="translate(2.173 10.48)"><ellipse id="XMLID_13_" class="cls-4" cx="2.427" cy="2.427" rx="2.427" ry="2.427"/><ellipse id="XMLID_12_" class="cls-4" cx="2.427" cy="2.427" rx="2.427" ry="2.427" transform="translate(10.8)"/></g><g id="XMLID_9_" transform="translate(2.987 7.547)"><path id="XMLID_10_" class="cls-5" d="M26.4 59.6a.66.66 0 0 1-.667-.667 1 1 0 1 0-2 0 .667.667 0 0 1-1.333 0 2.333 2.333 0 0 1 4.667 0 .66.66 0 0 1-.667.667z" transform="translate(-22.4 -56.6)"/></g><g id="XMLID_7_" transform="translate(12.333 7.547)"><path id="XMLID_8_" class="cls-5" d="M96.5 59.6a.66.66 0 0 1-.667-.667 1 1 0 1 0-2 0 .667.667 0 0 1-1.333 0 2.333 2.333 0 1 1 4.667 0 .66.66 0 0 1-.667.667z" transform="translate(-92.5 -56.6)"/></g><g id="XMLID_2_" transform="translate(4.04 12.293)"><g id="XMLID_5_"><path id="XMLID_6_" class="cls-5" d="M30.3 92.2a6 6 0 0 0 11.92 0z" transform="translate(-30.3 -92.2)"/></g><path id="XMLID_4_" class="cls-6" d="M61.567 116.4a2.093 2.093 0 0 0-2.067 1.733 5.907 5.907 0 0 0 4.133 0 2.093 2.093 0 0 0-2.066-1.733z" transform="translate(-55.607 -113.173)"/><path id="XMLID_3_" class="cls-7" d="M30.3 92.2a6.262 6.262 0 0 0 .307 1.333h11.32a6.262 6.262 0 0 0 .307-1.333z" transform="translate(-30.3 -92.2)"/></g></g></g></svg>