<svg xmlns="http://www.w3.org/2000/svg" viewBox="5740 400 20 20"><defs><style>.cls-1{fill:rgba(255,255,255,0)}.cls-2{fill:url(#linear-gradient)}.cls-3{opacity:.1}.cls-4{fill:#ed1e79}.cls-5{fill:#4d3e2f}.cls-6{fill:url(#radial-gradient)}.cls-7{fill:#fff}</style><linearGradient id="linear-gradient" x1=".5" x2=".5" y2="1" gradientUnits="objectBoundingBox"><stop offset="0" stop-color="#fb953b"/><stop offset=".076" stop-color="#fba036"/><stop offset=".272" stop-color="#fcb82d"/><stop offset=".481" stop-color="#fcc926"/><stop offset=".709" stop-color="#fcd322"/><stop offset=".994" stop-color="#fcd621"/></linearGradient><radialGradient id="radial-gradient" cx="4.667" cy="-2049.686" r="4.667" gradientUnits="userSpaceOnUse"><stop offset=".763" stop-color="#fcc062"/><stop offset="1" stop-color="#fff"/></radialGradient></defs><g id="very_happy" transform="translate(5430 100)"><path id="Rectangle_792" data-name="Rectangle 792" class="cls-1" transform="translate(310 300)" d="M0 0H20V20H0z"/><g id="XMLID_1_" transform="translate(310 300)"><ellipse id="XMLID_19_" class="cls-2" cx="10" cy="10" rx="10" ry="10"/><g id="XMLID_16_" class="cls-3" transform="translate(2.173 11.813)"><ellipse id="XMLID_18_" class="cls-4" cx="2.427" cy="2.427" rx="2.427" ry="2.427"/><ellipse id="XMLID_17_" class="cls-4" cx="2.427" cy="2.427" rx="2.427" ry="2.427" transform="translate(10.8)"/></g><g id="XMLID_13_" transform="translate(6.387 14.627)"><g id="XMLID_14_"><path id="XMLID_15_" class="cls-5" d="M47.9 109.7a3.625 3.625 0 0 0 7.227 0z" transform="translate(-47.9 -109.7)"/></g></g><g id="XMLID_2_" transform="translate(.667 4.373)"><ellipse id="XMLID_12_" class="cls-6" cx="4.667" cy="4.667" rx="4.667" ry="4.667"/><ellipse id="XMLID_11_" class="cls-6" cx="4.667" cy="4.667" rx="4.667" ry="4.667" transform="translate(9.333)"/><g id="XMLID_7_" transform="translate(.467 .467)"><ellipse id="XMLID_10_" class="cls-7" cx="4.2" cy="4.2" rx="4.2" ry="4.2"/><ellipse id="XMLID_9_" cx="1.8" cy="1.8" rx="1.8" ry="1.8" transform="translate(2.4 2.4)"/><path id="XMLID_8_" class="cls-7" d="M31.047 58a.669.669 0 0 0-.947.947z" transform="translate(-27.047 -54.933)"/></g><g id="XMLID_3_" transform="translate(9.8 .467)"><ellipse id="XMLID_6_" class="cls-7" cx="4.2" cy="4.2" rx="4.2" ry="4.2"/><ellipse id="XMLID_5_" cx="1.8" cy="1.8" rx="1.8" ry="1.8" transform="translate(2.4 2.4)"/><path id="XMLID_4_" class="cls-7" d="M101.047 58a.669.669 0 1 0-.947.947z" transform="translate(-97.047 -54.933)"/></g></g></g></g></svg>