<svg id="Grupo_10059" data-name="Grupo 10059" xmlns="http://www.w3.org/2000/svg" xmlns:xlink="http://www.w3.org/1999/xlink" width="343.068" height="132.033" viewBox="0 0 343.068 132.033">
  <defs>
    <clipPath id="clip-path">
      <rect id="Retângulo_3200" data-name="Retângulo 3200" width="343.068" height="132.033" fill="none"/>
    </clipPath>
  </defs>
  <g id="Grupo_10058" data-name="Grupo 10058" clip-path="url(#clip-path)">
    <path id="Caminho_4391" data-name="Caminho 4391" d="M274.285,7.4c0-.407.313-.576.745-.576s.873.135.873.539a1.042,1.042,0,0,1-.873.941c-.431,0-.745-.5-.745-.9" transform="translate(-113.317 -2.819)" fill="#fff"/>
    <path id="Caminho_4392" data-name="Caminho 4392" d="M262.85,11.266s-1.335-.053-1.42,1.074c-.075.971,1,1.161,1,1.161s.262.016.244.248-1.037,1.623.374,2.212c1.359.554,2.918-.653,3.275-.92.377-.275,1.192-1.377,1.786-1.411.565-.031,1.038-.051,1.057.215.025.386-.979.459-1.308,1.143a4.766,4.766,0,0,0-.113,1.555s-.294.269-.315.4c-.008.31.315.106.335.39s-1.065,1.273-1.173,1.519a6.842,6.842,0,0,0-.182.988c-.046-.2.377,1.742,1.019,1.781a8.322,8.322,0,0,0,3.2-1.221,2.185,2.185,0,0,0,.137-1.661c-.208-.67-.4-.871-.383-1.057a1.651,1.651,0,0,1,1.127-1.068c.252-.08.14-.426-.024-.453-.746-.118-1.5-.1-1.529-.389s1.186-.2,1.167-.515-.956-.614-.956-1.161c0-.21.752-.666.752-.731,0-.036-.608-.241-.646-.454-.106-.655-.128-2.571-.257-2.7s-.752-.33-.8.025-.147,2.291-.536,2.563-1.833.553-2.325.867a5.34,5.34,0,0,1-1.992.925c-.508-.019-.985-.1-.985-.675s3.416-.75,3.416-1-3.794-.366-3.981-.923a.957.957,0,0,1,.04-.722m5.819,6.43s.112.671.133,1.01-.133,1.022.484.9.32-.983.255-1.155a1.3,1.3,0,0,0-.873-.755" transform="translate(-108.004 -4.145)" fill="#fff" fill-rule="evenodd"/>
    <path id="Caminho_4393" data-name="Caminho 4393" d="M244.633,28.661h14.631a.788.788,0,0,1,.4.769c-.3.02-15.127,0-15.127,0s-.426-.133-.407-.428c.005-.34.5-.342.5-.342" transform="translate(-100.861 -11.841)" fill="#fff"/>
    <path id="Caminho_4394" data-name="Caminho 4394" d="M251.4,42.189c-.077-1,1.734-2.049,1.734-2.049s1.767-1.315,2.15-1.242c.156.036-.29.471-.29.471s-2.007,1.991-2.074,2.193-.178.468-.1.548.613-.2.964-.045a.888.888,0,0,1,.256.128.833.833,0,0,1,.354.352c.157.276.605,1.3,1.472,1.278a1.225,1.225,0,0,0,1.1-.954c.045-.044.217-.321.447-.676.5-.779,1.261-1.95,1.261-1.95a.245.245,0,0,0-.214-.351c-.32-.073-2.117.363-2.336.2s-.116-1.4-.133-1.629-.2-.319-.521-.337c-.249-.006-.917-.13-3.082.891-.079.038-.157.073-.234.112a.217.217,0,0,0-.011.039h-.076c-1.882.9-2.106,1.15-2.62,1.171-.545.015-.928.113-1-.051a3.067,3.067,0,0,1,.2-1.826c.316-.484.941-1.441,1.651-1.123.292.133.078.4.078.4s-.713,1.506-.272,1.506c.378,0,1.642-.067,1.957-.081.029-.013.059-.025.087-.04a4.017,4.017,0,0,1,.674-1.349,2.227,2.227,0,0,1,2.08-.827c1.345.1,1.654.456,1.662.593s-.175,2.068.021,2.1a15.8,15.8,0,0,0,2.449-.279.965.965,0,0,0,.273-.511c-.023-.163-.023-.348-.416-.413a9.073,9.073,0,0,0-1.132-.067V36.423a1.57,1.57,0,0,0-.159-.734,20.151,20.151,0,0,0-1.211-1.7.641.641,0,0,0-.688.014.389.389,0,0,0-.016.547c.1.082.607.947.674,1s-.033.217-.133.217a10.1,10.1,0,0,0-3.4.344c-1.161.484-1.207.551-1.478.551a8.762,8.762,0,0,0-1.626-.369,15.347,15.347,0,0,0-1.691.271,8.377,8.377,0,0,0-2.391.375,6.705,6.705,0,0,0-2.011,1.435,25.52,25.52,0,0,0-1.325,2.312,8.252,8.252,0,0,1-1.4,1.5,1,1,0,0,1-.245.137c-.042.029,1.082.116,1.034.491a3.864,3.864,0,0,1-.48,1.783,5.735,5.735,0,0,1-1.2,1.846c-.359.3.643.1.781.034s.433-.371.662-.265,0,1.037-.116,1.254c-.131.217-.465.782-.465.782a2.367,2.367,0,0,0,1.179.232c.8-.058,1.194-.857,1.359-1.349a25.1,25.1,0,0,0,.355-2.867,10.016,10.016,0,0,0,2.018.333c.751-.012,1.346-.413,1.6-.06s-.387,1.721-.476,2.041-1.659,4.178-1.767,4.42a2.453,2.453,0,0,0-.077.769h2.845a19.949,19.949,0,0,1,1.977-4.15c.948-1.208,2.026-2.2,2.338-2.168.293.035-.355.525-.355.525a21.766,21.766,0,0,0-1.568,2.7,7.324,7.324,0,0,0-.792,3.166c0,.031,1.379-.014,1.379-.014a21.577,21.577,0,0,1,.753-3.324,12.4,12.4,0,0,1,1.49-2.951c.169-.146-.06-.531-.147-.5s.253-.229.336-.268,1.239-.313,1.174-.968-1.054-.706-1.215-.722-1.746.116-1.868-.889c0-.007-.014-.019-.014-.019Zm-2.565,0a1.977,1.977,0,0,1,.349.907c.065.521-1.091.667-1.2.643a6.7,6.7,0,0,1,.2-1.55c.049-.316.112-.562.112-.562a2.924,2.924,0,0,1,.531.562m.109,2.637a4.558,4.558,0,0,1,1.276-.384c.334-.1.744-.042.809.074s-.117.31-.258.473-3.593,4.909-3.935,5.544c-.319.634-.448.422-.361.274s2.3-5.8,2.47-5.98m-3.636-2.58a1.868,1.868,0,0,1-.643,1.056c-.28.235-.663.278-.863-.089a2.053,2.053,0,0,1,.066-1.023c.145-.737.444-1.692.623-2.281.305-.945,1.607-1.5,1.771-1.586.109.071-.018.321-.187.641a13.062,13.062,0,0,0-.59,1.752,4.926,4.926,0,0,0-.176,1.474Z" transform="translate(-99.127 -14.005)" fill="#fff" fill-rule="evenodd"/>
    <path id="Caminho_4395" data-name="Caminho 4395" d="M272.028,44.745s-.107-.312-.262-.333-.38.4-.38.4L270.139,46.7s-.114.356.039.421a5.6,5.6,0,0,0,1.4.013c.286-.046.879-.094.954-.281a15,15,0,0,0-.5-2.113" transform="translate(-111.587 -18.348)" fill="#fff"/>
    <path id="Caminho_4396" data-name="Caminho 4396" d="M273.309,49.665a.526.526,0,1,1,.526.548.533.533,0,0,1-.526-.548" transform="translate(-112.914 -20.292)" fill="#fff"/>
    <path id="Caminho_4397" data-name="Caminho 4397" d="M285.769,34.685a2.392,2.392,0,0,1,.784-.409,11.007,11.007,0,0,1,1.5-.094l.366-.771a.376.376,0,0,1,.29-.2c.2,0,.285.639.269.87s.386.327.549.288.306-.069.346-.35a6.029,6.029,0,0,1,.141-.691s.222-.067.285.08c.046.156,0,.909.326.891s.779.316,1.137-.008.04-2.337.04-2.337a.479.479,0,0,0-.167-.293c-.141-.125-.854-.065-.854-.065l-.526-.676a2.407,2.407,0,0,0-.383-.106l-1.656-.012s-.339.062-.4.167a.457.457,0,0,0,.035.4c.074.048.461.482.721.723a.532.532,0,0,1,0,.431,3.827,3.827,0,0,1-.784.435c-.121-.015-.191-.124-.23-.417s-.229-1.337-.229-1.337,0-.172-.1-.234c-.074-.071-2.984-.167-2.984-.167a3,3,0,0,0-1.019.28c-.343.211-.48.4-.457.521s.542.427.617.462c.37.185,2.992,1.394,3.3,1.44s.519.344.391.324-.61-.008-.7,0a30.2,30.2,0,0,1-3.315-1.5,9.353,9.353,0,0,0-.842-.516c-.156-.055-.255-.141-.592.128-.211.173-.467.315-.422.414.072.146.217.531,1.716,1.638A6.144,6.144,0,0,0,284.88,35.2a.476.476,0,0,0,.378-.005Z" transform="translate(-116.177 -12.727)" fill="#fff"/>
    <path id="Caminho_4398" data-name="Caminho 4398" d="M270.378,33.311c.184-.218.285-.61.453-.812.415-.528.831-.479.831-.46a5.823,5.823,0,0,0-.879,1.272.589.589,0,0,0-.063.319c.089.458,1.236,1.614,1.339,2.177.136.8,1.464,5.746,1.464,5.746a.392.392,0,0,0,.3.168,6.058,6.058,0,0,0,1.006-.616l.116-.778s.635.406.775.336a29.96,29.96,0,0,1,2.714-1.369,8.665,8.665,0,0,1,2.347-.788c.674-.046,1.2-.033,1.242.133s-.222.679-1.389,1.209-2.157.784-2.258.885a2.446,2.446,0,0,0-.535,1c-.077.454-.114,1.26-.114,1.26a15.745,15.745,0,0,0,4.3-1.639,21.672,21.672,0,0,0,2.83-2.191s1.391-1.307.151-2.045a10.085,10.085,0,0,0-2.259-1.01s-.333-.089-.293-.266c.046-.235.41-1.463.383-1.583s-.083-.288-.4-.288a1.646,1.646,0,0,0-.934.288,5.726,5.726,0,0,1-.923.843.943.943,0,0,1-.521-.015,15.481,15.481,0,0,1-2.022-1.268c-.238-.187-.449-.348-.624-.506a8.761,8.761,0,0,1-.965-.933.48.48,0,0,0-.343-.2c-.075,0-.173.089-.214.3-.014.07-.072.407-.138.833-.12.852-.285,1.937-.309,2.028a.294.294,0,0,1-.28.154,10.777,10.777,0,0,1-1.011-.677.594.594,0,0,0-.44-.1c-.185.027-.685.379-.734.283s.226-.467.476-.55.319-.051.343-.152c.005-.028-.075-.441-.19-1H273.6c-.249-1.258-.675-3.275-.675-3.275s-.089-.371-.248-.435a5.374,5.374,0,0,0-1.583.367c-.147.09-.157.567-.157.567l-.409.112s-.449,1.432-.514,1.8a2.478,2.478,0,0,0-.147.876.213.213,0,0,0,.2.161.294.294,0,0,0,.316-.161Zm6.278,6.3s-.376-.063-.674-.143c-.205-.058-.777.119-1.128-.164-.378-.279-.575-2.441-.734-2.724a1.449,1.449,0,0,0-.674-.468s.375-.134.492-.185.342-.254.459-.266a.357.357,0,0,1,.309.2c.055.1.344,2.328.421,2.7s.161.468.289.5.507-.3.62-.335.232.07.426.234c.229.167.194.657.194.657m5.721-1.729a1.264,1.264,0,0,1-.661,0,17.617,17.617,0,0,0-2.308-.268,15.829,15.829,0,0,0-2.346.251c-.218.1-.406-.1-.208-.266a3.364,3.364,0,0,1,2.386-.773,7.55,7.55,0,0,1,2.86.659c.152.077.35.369.277.4" transform="translate(-111.484 -12.224)" fill="#fff" fill-rule="evenodd"/>
    <path id="Caminho_4399" data-name="Caminho 4399" d="M278.745,32.275a.813.813,0,0,0-.818-.052c-.421.22-.646,2.723-.5,3.12a.832.832,0,0,0,.6.583c.174.019.3.009.463-1.163s.255-2.488.255-2.488" transform="translate(-114.596 -13.275)" fill="#fff"/>
    <path id="Caminho_4400" data-name="Caminho 4400" d="M279.189,26.5l-.387.018s-.077.63-.075.758c.005.19-.168.239-.315.261l-2.016.312a.451.451,0,0,0-.32.139,1.148,1.148,0,0,0-.07.88c.1.505.256.782.444.744s1.673-.535,1.843-.592c.294-.092.414-.032.434.039s.075.613.075.613l.387.02s.948-1.028,1.553-1.058c.6-.011,19.606-.042,19.606-.042l.14-.195h.212s.256.44.621.44c.417,0,1.724-.3,1.724-.633,0-.319-1.292-.707-1.724-.707-.332,0-.621.441-.621.441h-.212l-.14-.192L280.8,27.733c-.611,0-1.612-1.233-1.612-1.233" transform="translate(-114.01 -10.948)" fill="#fff"/>
    <path id="Caminho_4401" data-name="Caminho 4401" d="M293.267,20.119a9.329,9.329,0,0,1-.214,1.991c-.177.329-.84.7-1.218.3s-.257-.429-.373-.452-.217-.054-.31.078-.2.295-.316.295c-.135,0-.5.016-.5.016v.262s.4.5.593.567.15.324.15.324-.471.167-.484.425.08.5-.079.6a8.545,8.545,0,0,1-1.56.187,15.559,15.559,0,0,1-1.979-.1c-.1-.056-.109-.883-.167-.967s-.28-.183-.411-.069-.91,1.144-1.224,1.131-.9.146-1.029-.266.253-1.036.846-1.558c.569-.518,2.261-1.852,3.562-1.852s3.471.048,3.471.048a9.115,9.115,0,0,1,1.009-.975.575.575,0,0,1,.234.012m-4.081,2.394s-.129-.165-.809.078-.918.371-.818.477a1.957,1.957,0,0,0,.779.359,1,1,0,0,0,.67-.393,1.412,1.412,0,0,0,.179-.522" transform="translate(-117.38 -8.304)" fill="#fff" fill-rule="evenodd"/>
    <path id="Caminho_4402" data-name="Caminho 4402" d="M298.388,26.806c.009-.151.035-.867-.11-1a.465.465,0,0,0-.721.092c-.32.334-.413.945-.333.981a1.864,1.864,0,0,0,.574.1c.193,0,.557-.018.59-.167" transform="translate(-122.783 -10.606)" fill="#fff"/>
    <path id="Caminho_4403" data-name="Caminho 4403" d="M305.83,19.434c.11-.033.491-.123,1.126.323.614.438.633.577.538.7a7.377,7.377,0,0,0-.881,1.068c0,.155-.132.415,0,.46s2.091.937,2.278.937a7.226,7.226,0,0,0,1.089.024c.179-.06.617-.246.635-.336s-.036-1.377-.036-1.377a1.506,1.506,0,0,0-.557-.867c-.488-.374-5-3.991-5-3.991a.822.822,0,0,0-.765-.261c-.577.054-1.272.188-1.272.188s-.15,1.056-.047,1.092c.083.039.181.244.409.312s1.109.117,1.109.406-.16.437-.435.616-.491.13-.507.393a.531.531,0,0,0,.5.516c.178-.016.206-.124.472-.167s.487-.146.579,0a.831.831,0,0,1-.122.8c-.184.319-.457.36-.409.521.066.171-.074.2.106.393a2.113,2.113,0,0,1,.525.73c.079.269.292.906.315.977a4.847,4.847,0,0,0,1.559-.033c.134-.077.169-.258.055-.322s-1.614-.682-1.689-.964.014-.445.136-.745a2.4,2.4,0,0,0,.29-1.392" transform="translate(-125.141 -6.657)" fill="#fff"/>
    <path id="Caminho_4404" data-name="Caminho 4404" d="M302.561,11.093V11.8l7.7,6.384a2.627,2.627,0,0,1,.55.852c.018.278.039,1.335.083,1.412a.4.4,0,0,0,.327.148,2.911,2.911,0,0,0,1.709-.909,3.455,3.455,0,0,0,.831-1.5c.018-.168.018-.467-.056-.519-.09-.054-1.486.052-1.791-.042a4.966,4.966,0,0,1-.636-.206c-.12-.056-8.27-6.227-8.27-6.227Z" transform="translate(-124.999 -4.583)" fill="#fff"/>
    <path id="Caminho_4405" data-name="Caminho 4405" d="M314.211,15.428a1.041,1.041,0,0,1-1.121,1.333c-1.432.018-1.279-1.135-1.279-1.135Z" transform="translate(-128.818 -6.374)" fill="#fff"/>
    <path id="Caminho_4406" data-name="Caminho 4406" d="M320.294,14.835v.336a4.121,4.121,0,0,1-.535.556c-.239.155-.9.474-.9.474a5.029,5.029,0,0,1,.363,1.154c0,.316.051,1.242.051,1.242s-.076.295-.82.309-.971-.235-.992-.33-.1-1.072-.1-1.072a2.553,2.553,0,0,0-.323-.652,1.408,1.408,0,0,1-.327-.508,4.179,4.179,0,0,1,.408-1.089,2.508,2.508,0,0,1,.21-.222Z" transform="translate(-130.843 -6.129)" fill="#fff"/>
    <path id="Caminho_4407" data-name="Caminho 4407" d="M297.736,7.88V7.161l-5.77-4.606-.584.019s-.08.375,0,.411,5.823,4.839,5.938,4.882a2.117,2.117,0,0,0,.415.013" transform="translate(-120.366 -1.056)" fill="#fff"/>
    <path id="Caminho_4408" data-name="Caminho 4408" d="M288.721,0a1.664,1.664,0,0,0,.241.929.716.716,0,0,0,.984.164c.352-.276.1-.612-.127-.831s-1.1-.262-1.1-.262" transform="translate(-119.281)" fill="#fff"/>
    <path id="Caminho_4409" data-name="Caminho 4409" d="M332.164,12.708a1.779,1.779,0,0,0,1.035-1.119,2.371,2.371,0,0,0-.494-2.872,2.182,2.182,0,0,0-2.237-.448c-.217.06-.874.363-.928.562s-.062.416.234.387a1.943,1.943,0,0,1,1.915.636,2.092,2.092,0,0,1,.529,1.424,3.746,3.746,0,0,1-.089,1.227c-.086.2.035.2.035.2" transform="translate(-136.132 -3.361)" fill="#fff"/>
    <path id="Caminho_4410" data-name="Caminho 4410" d="M319.239,14.769s-.08-.25,0-.332c.1-.085,1.214-.839.94-1.891-.254-1.059-.712-1.74-1.814-1.775a1.678,1.678,0,0,0-1.745,1.406,1.123,1.123,0,0,0,1.094,1.058c.683,0,.495-.356,1.015-.328a.552.552,0,0,1,.568.613c-.019.149-.313.832-.688.866s-1.193.089-1.193.089a2.888,2.888,0,0,0-.849.362c-.346.246-.765.575-.765.575l.039.254s1.31.275,1.293.448-.086.22-.308.288-1.085.085-1.114.323a5.176,5.176,0,0,0,.058.9,4.577,4.577,0,0,0,.881.021,2.394,2.394,0,0,1,1.311.227c.207.164.359.33.239.475a3.278,3.278,0,0,1-1.423.079,6.756,6.756,0,0,1-1.884-.864.267.267,0,0,0-.455-.022c-.112.137-1.534,2.279-1.71,2.479s-.179.454-.009.515c.243.085.514-.1.695.036s-.125.514.465.679c.573.167.67.194.809.055a17.1,17.1,0,0,0,.9-1.456c.058-.1.038-.211-.148-.332s-.877-.567-.877-.567a.643.643,0,0,1,.415-.055,6.437,6.437,0,0,1,1.207.536c.078.065.046.355.026.418-.035.064-.871,1.539-1.053,1.721a7.3,7.3,0,0,1-.854.875,1.452,1.452,0,0,1-.63.315,4.809,4.809,0,0,1-1.007.092c-.117,0-.324-.031-.526-.053a2.75,2.75,0,0,1-.525-.1,2.215,2.215,0,0,0-.556-.192c-2.153,0-6.556.04-6.556.04a.877.877,0,0,0-.407.17,3.126,3.126,0,0,0-.223.869c-.035.13-.351.288-.5.317a3.461,3.461,0,0,0-.858.258c-.236.146-.607.084-.721.782a7.919,7.919,0,0,0,.06,1.507,17.824,17.824,0,0,0,.521,2.831c.364,1.206.6,2.582.918,2.712a.714.714,0,0,0,.626-.013,10.643,10.643,0,0,0,.945-.607.359.359,0,0,0,.133-.406c-.058-.177-.515-1.268-.679-1.752a6.386,6.386,0,0,1-.352-1.653c.062-.185.137-.34.3-.34s.683.482.815.6c.106.116.939.991,1.1.991.188,0,.349-.016.349-.016l-.039-2.2s-.153-.266-1.006-.615a10.219,10.219,0,0,0-2.135-.536s-.106-.273,0-.306a6.144,6.144,0,0,1,2.572.089c.762.332.691.352.781.472s.119.969.171,1.085c.076.147.053.33.39.285s.31-.221.668-.237c.342-.015.952-.073,1.1-.058a1.289,1.289,0,0,1,.464.106c.083.06.224.214.3.165a.725.725,0,0,0-.116-.666,1.165,1.165,0,0,1-.415-.455,4.474,4.474,0,0,1-.11-.795,1.251,1.251,0,0,0,.427.467c.308.212.581.262.741.485s.183.3.119.416a3.982,3.982,0,0,0-.344.57c-.04.165-.163.352-.086.454s1.137,1.352,1.137,1.352a.5.5,0,0,0,.317.065c.141-.029,1-1.4,1.769-1.843a4.471,4.471,0,0,1,2.52-1.013,13.751,13.751,0,0,1,2.554-.134s.2-.074.093-.154A4.078,4.078,0,0,0,316,25.223a7.99,7.99,0,0,0-2.137.522,2.739,2.739,0,0,1-1.259-.438,3.757,3.757,0,0,1-1-1.241c-.032-.28,0-.3,0-.3a.378.378,0,0,1,.283.024c.134.067.293.265.39.265.081,0,.936.015,1.066-.016a2.349,2.349,0,0,0,1.085-.471,7.21,7.21,0,0,0,1.059-1.121h.005a13.225,13.225,0,0,0,1.471-2.245c.671-1.342,1.089-1.321,1.089-1.321s-.233,1.157-.385,1.59a3.425,3.425,0,0,0-.332,1.006,1.3,1.3,0,0,0,.741.9.76.76,0,0,0,.1.074c.444.246.62.2.639.117a.852.852,0,0,0,.028-.117c.065-.414.278-1.708.313-2.114a4.272,4.272,0,0,0-.043-1.306c-.087-.268-.28-.449-.3-.664s-.06-.472.019-.573a1.918,1.918,0,0,0,.936-1.654c-.019-1.061-.533-1.363-.533-1.363m-9.18,8.993a2.1,2.1,0,0,0-.728.554L308.2,24.4a3.237,3.237,0,0,1,1.041-.837,2.921,2.921,0,0,1,1.773-.3,6.732,6.732,0,0,1-.954.5m2.562,2.482a.249.249,0,0,1-.07.222c-.093.081-.589.532-.788.546s-.464-.285-.443-.431.07-.355.07-.355Z" transform="translate(-124.677 -4.45)" fill="#fff" fill-rule="evenodd"/>
    <path id="Caminho_4411" data-name="Caminho 4411" d="M325.044,33.736a1.016,1.016,0,0,0,0-.335c-.028-.07-1.322-1.207-1.6-1.4-.256-.206-.349-.223-.589-.089a11.343,11.343,0,0,1-1.217.824,4.865,4.865,0,0,1-1.647.207c-.625-.052-.5.277-.339.393s.485.494.883.468,1.491.032,1.58,0a10.675,10.675,0,0,1,1.651-.3,11.474,11.474,0,0,1,1.272.238" transform="translate(-132.008 -13.146)" fill="#fff"/>
    <path id="Caminho_4412" data-name="Caminho 4412" d="M327.183,30.378l12.03,9.647s.319.231.129.519a.366.366,0,0,1-.5.079l-12.31-9.6s-.3-.393-.033-.615a.753.753,0,0,1,.687-.029" transform="translate(-134.842 -12.52)" fill="#fff"/>
    <path id="Caminho_4413" data-name="Caminho 4413" d="M328.834,49.883a4.584,4.584,0,0,1-3.627-1.592c-.356-.447-.625-.793-.82-1.081h-.006a3.585,3.585,0,0,1-.6-1.042,5.434,5.434,0,0,1-.3-1.178,5.383,5.383,0,0,0,.7-2.507,4.487,4.487,0,0,0-.282-1.31v-.005a8.4,8.4,0,0,0-1.4-2.306,5.442,5.442,0,0,0-3.326-1.555,3.69,3.69,0,0,0-2.4.721c-.062.085-.241.234-.171.331s.134.205.239.184,1.541-.025,1.974.624a2.954,2.954,0,0,1,.572,1.443c-.035.194-.069.33-.194.363a2.311,2.311,0,0,0-.371.181l.035,0h-.035a3.242,3.242,0,0,0-1.236,1.124,13.721,13.721,0,0,0-.621,1.627c-.053.109-.076.387-.255.347-.2-.027-.679-1.168-.762-1.644a9.36,9.36,0,0,1-.211-1.437,4.53,4.53,0,0,1,.054-.7c.157-.873.535-1.224.44-1.376s-.065-.283-.313-.26-.755.894-.827,1.032-.371.92-.4,1.042-.092.18-.195.144a11.088,11.088,0,0,1-.934-.936l-.251-.033v.367s.124.3.293.724a20.367,20.367,0,0,1,.708,2.012c.222.819.577,2.21.577,2.271s.032.273.153.305a7.433,7.433,0,0,1,2.188.888c.271.2.537.387.767.577h.012a4.748,4.748,0,0,1,.779.661c.194.248.212.449-.086.553a12.243,12.243,0,0,0-1.386.336c-.305.146-.428.183-.542.131s-1.194-1.147-1.722-1.7h-.008c-.08-.1-.155-.175-.195-.219a5.3,5.3,0,0,1-.948-1.775c-.16-.573-.442-2.5-.612-2.917a9.262,9.262,0,0,0-.545-1.135,2.116,2.116,0,0,0-.277-.413,7.489,7.489,0,0,0-1.322-.882V38.611s.141-.029.065-.129a1.613,1.613,0,0,0-.725-.41,4.088,4.088,0,0,0-1.438.15c-.342.127-.561.172-.57.306-.038.133.155,2.06.128,2.146s0,.254-.165.254c-.145,0-1.448-.34-1.522-.319s-.133.179,0,.3c.027.023.106.125.225.262h.011c.332.41.886,1.1.886,1.1a.248.248,0,0,0,.225.03c.123-.048.18-.383.276-.342a2.106,2.106,0,0,1,.384.832c.058.237.042.6.146.65a5.243,5.243,0,0,0,.845.052,1.315,1.315,0,0,0,.219.653c.195.2.643.367.886.17a.755.755,0,0,0,.054-.928,1.44,1.44,0,0,0-.673-.262s.235-.808.269-1.092c.024-.184.076-.59.106-.866a1.27,1.27,0,0,1,.045-.256s.023-.039.136-.022c.073,0,.2.113.349.265v.013a1.312,1.312,0,0,1,.375.66,9.259,9.259,0,0,1,.462,2.944,4.592,4.592,0,0,1-.254,1.508,2.9,2.9,0,0,1-.89.931l-.042.031a19.819,19.819,0,0,0-3.079,2.1,11.831,11.831,0,0,0-2.691,3.285c-.206.551-.109.5-.109.5a2.054,2.054,0,0,0,.436.123l2.582.015s.2-.072.235-.154a4.694,4.694,0,0,1,2.666-2.423,8.642,8.642,0,0,1,3.055-.823c.438.013.468-.055.57.013s.674,1.615,1.162,1.659.736.213,1.165-.066c.45-.286.945-1.175,1.457-1.543s.977-.853,1.493-.853.39.167.473.285a4.141,4.141,0,0,0,.6.984,7.718,7.718,0,0,0,1.015.694h1.478V50.7a3.833,3.833,0,0,1-1.213-1.412,5.229,5.229,0,0,1-.521-2.084c0-.038-.006-.067-.006-.1a8.822,8.822,0,0,0-.164-1.957,2.952,2.952,0,0,0-.791-1.16c-.234-.137-.574-.288-.574-.288s-.114-.185.212-.381a1.816,1.816,0,0,1,1.222-.1,1.674,1.674,0,0,1,.731.73,4.5,4.5,0,0,1,.082,1.609,5.971,5.971,0,0,0-.233,1.65v.009a2.547,2.547,0,0,0,.7,1.839,6.592,6.592,0,0,0,2.89,1.611,6.474,6.474,0,0,0,2.141-.019,5.422,5.422,0,0,0,.925-.5Zm-16.1-1.275a8.935,8.935,0,0,0-3.014,1.48,22.993,22.993,0,0,0-1.794,1.921h-1.016l.039-.4a10.215,10.215,0,0,1,2.892-2.55,20.009,20.009,0,0,1,2.531-1.218s.808-.333.957.139-.118.5-.6.63m8.975-7.133-.069.022.011-.026c-.306-.021-1.775-.071-1.958.827-.237,1.151-.171,1.4-.106,1.583s.526.441.607.761.06,2.5.06,2.5v.08l-.093,1.288s-.2.185-.371.087a1.673,1.673,0,0,1-.6-1.212,1.6,1.6,0,0,1-.031-.163,19.917,19.917,0,0,1-.4-3.565c.09-.805.37-2.057.827-2.357.074-.054.136-.1.187-.131h.015a1.591,1.591,0,0,1,.894-.278,2.929,2.929,0,0,1,.805.283h.005c.147.07.244.126.244.126l-.086.173a.483.483,0,0,0,.058,0" transform="translate(-126.025 -15.412)" fill="#fff"/>
    <path id="Caminho_4414" data-name="Caminho 4414" d="M12.889,122.113c-2.343-.1-4.749-.154-7.091-.154-1.934,0-3.8.052-5.676.154v-1.372c1.285-.059,2.628-.059,3.919-.165.472-5.225.413-10.512.472-15.847,0-4.248.06-8.44.06-12.744,0-2.871-.06-5.8-.3-8.728C2.872,83.086,1.407,82.914,0,82.8l.058-1.208c5.093.234,10.081.116,15.107.116,3.34,0,6.565.058,9.9-.058-.055,2.009-.113,4.016-.055,5.967h-1.3a6.059,6.059,0,0,0-.222-2.009,1.461,1.461,0,0,0-.829-1.2,9.251,9.251,0,0,0-1.585-.573,48.676,48.676,0,0,0-9.128-.863c-1.057,0-2.172,0-3.281.056-.182,2.756-.3,5.5-.412,8.265C8.2,94.514,8.2,97.781,8.2,101a44.045,44.045,0,0,0,9.574-.632,2.063,2.063,0,0,0,1.113-.464c.409-.458.409-1.951.521-3.5l1.3.059c-.059,2.006-.117,4.073-.117,6.14,0,1.6.058,3.155.117,4.821l-1.408-.058c0-1.721.049-3.212-.588-3.789a3.161,3.161,0,0,0-1.052-.452,41.726,41.726,0,0,0-8.048-.866,11.847,11.847,0,0,0-1.408.056c.06,3.273.06,6.548.06,9.815.058,2.813.114,5.683.295,8.5,1.462,0,2.925.055,4.392.114Z" transform="translate(0 -33.709)" fill="#fff"/>
    <path id="Caminho_4415" data-name="Caminho 4415" d="M45.372,130.277c-2.089,0-3.881-.1-5.97-.05-1.369,0-2.687.05-4.059.05v-1.142c1.073-.055,2.144-.113,3.16-.23.779-1.261,1.552-2.461,2.274-3.786.834-1.548,1.673-3.212,2.442-4.823.9-1.66,1.8-3.326,2.628-5.05.721-1.436,1.371-2.927,2.032-4.362,1.015-2.183,2.09-4.3,3.05-6.484.409-1.038.829-2.072,1.189-3.046h2.444c1.255,4.076,2.749,8.093,4.3,12.057,1.191,3.214,2.451,6.428,3.762,9.589.9,2.008,1.793,4.014,2.749,5.965l2.868.171-.062,1.142c-2.094-.05-4.12-.1-6.208-.1-1.558.052-2.87.1-4.484.1l.058-1.142c1.073-.113,1.917-.171,3.051-.23-.6-1.6-1.134-3.266-1.671-4.873l-1.614-4.307c-2.2-.119-4.413-.059-6.627-.059-1.611,0-3.224,0-4.837.112-1.193,2.994-2.449,6.035-3.455,9.128,1.068.117,1.9.175,2.98.23Zm11.4-11.928c-.719-2.069-1.486-4.076-2.271-6.146-.833-2.181-1.607-4.477-2.567-6.546-1.131,2.41-2.152,4.883-3.224,7.292-.835,1.776-1.673,3.561-2.325,5.4Z" transform="translate(-14.601 -41.873)" fill="#fff"/>
    <path id="Caminho_4416" data-name="Caminho 4416" d="M96.688,129.5c1.19-.055,2.38-.113,3.568-.23a62.455,62.455,0,0,0,.319-7.744c0-2.644.059-5.23.059-7.806,0-3.332.06-6.607-.251-9.994-1.251-.06-2.5-.116-3.754-.231v-1.144c2.439.113,4.873.17,7.316.058,1.564-.058,3.127-.174,4.757-.174,4.631,0,6.754,1.431,7.882,3.212a6.893,6.893,0,0,1,.941,3.563,5.215,5.215,0,0,1-1.691,4.076,11.614,11.614,0,0,1-6.444,2.867c3.38.343,7.01.691,8.885,3.737a6.091,6.091,0,0,1,.88,3.21,6.937,6.937,0,0,1-2.131,4.94,6.7,6.7,0,0,1-2.127,1.372,15.491,15.491,0,0,1-7.255,1.553c-1.068,0-2.194-.06-3.259-.122s-2.126-.05-3.252-.05c-1.5,0-3,.05-4.5.05Zm7.616-13.89c2.625.229,5.588-.054,7.4-2.066a6.654,6.654,0,0,0,1.508-4.365c0-.687-.2-3.847-2.942-5.165a6.88,6.88,0,0,0-3.067-.577,14.446,14.446,0,0,0-2.691.288c-.251,2.819-.251,5.687-.251,8.5Zm.018,8.5c.061,1.781.061,3.559.248,5.279a11.205,11.205,0,0,0,2.379.171c2.254,0,4.317-.113,5.879-1.778,1.752-1.72,1.881-4.7,1.881-5.164a5.8,5.8,0,0,0-1.252-3.676c-.941-1.152-3.127-2.239-6.7-2.239-.813,0-1.624.055-2.44.117-.062,2.406,0,4.877,0,7.288" transform="translate(-39.921 -42.236)" fill="#fff"/>
    <path id="Caminho_4417" data-name="Caminho 4417" d="M164.6,125.463c-.056,1.833-.056,3.377-.116,5.259-3.471-.217-7.3-.1-10.831-.1-1.707,0-3.413-.053-5.117,0-1.825,0-3.587.052-5.419.1V129.58c1.343-.055,2.685-.113,4.079-.113a72.252,72.252,0,0,0,.308-7.349c.063-2.579.123-5.162.123-7.806,0-3.5-.059-7-.366-10.507-1.1-.116-2.254-.174-3.41-.231l.066-1.144c2.124.058,4.258.113,6.389.113h7c2.132,0,4.209-.055,6.331-.113-.058,1.775-.058,3.264-.058,5.044h-1.158a8.807,8.807,0,0,0-.183-2.286,1.733,1.733,0,0,0-1.218-.691,39.662,39.662,0,0,0-7.609-.752,14.921,14.921,0,0,0-1.643.06c-.183,2.524-.183,5.055-.183,7.63l-.183,4.485a59.166,59.166,0,0,0,6.149-.283c.729-.058,1.46-.175,1.583-.4a18.9,18.9,0,0,0,.3-2.418h1.16c-.125,2.647-.125,5.171-.062,7.809l-1.222-.054a16.911,16.911,0,0,1-.116-1.721c-.063-.518,0-.746-.308-.921-1.276-.574-6.269-.916-7.487-.859-.12,2.352-.06,4.708,0,7.119,0,.916,0,1.9.059,2.813.059.8.124,1.546.247,2.291a61.112,61.112,0,0,0,10.762-.852c.431-.114.674-.228.735-.693.062-.917.125-1.428.184-2.345Z" transform="translate(-59.128 -42.318)" fill="#fff"/>
    <path id="Caminho_4418" data-name="Caminho 4418" d="M484.707,125.463c-.068,1.833-.068,3.377-.125,5.259-3.463-.217-7.3-.1-10.826-.1-1.707,0-3.414-.053-5.113,0-1.826,0-3.592.052-5.425.1V129.58c1.34-.055,2.676-.113,4.083-.113.3-2.467.239-4.883.3-7.349.062-2.579.121-5.162.121-7.806,0-3.5-.059-7-.362-10.507-1.095-.116-2.248-.174-3.409-.231l.065-1.144c2.126.058,4.258.113,6.387.113h7c2.133,0,4.2-.055,6.331-.113-.053,1.775-.053,3.264-.053,5.044h-1.156a8.829,8.829,0,0,0-.187-2.286,1.755,1.755,0,0,0-1.215-.691,39.787,39.787,0,0,0-7.613-.752,15.1,15.1,0,0,0-1.648.06c-.183,2.524-.183,5.055-.183,7.63l-.178,4.485a59.006,59.006,0,0,0,6.144-.283c.739-.058,1.467-.175,1.589-.4a21.542,21.542,0,0,0,.3-2.418H480.7c-.125,2.647-.125,5.171-.063,7.809l-1.215-.054a16.593,16.593,0,0,1-.124-1.721c-.058-.518,0-.746-.305-.921-1.282-.574-6.269-.916-7.486-.859-.124,2.352-.065,4.708,0,7.119,0,.916,0,1.9.057,2.813.066.8.121,1.546.242,2.291a61.238,61.238,0,0,0,10.774-.852c.424-.114.667-.228.725-.693.06-.917.123-1.428.185-2.345Z" transform="translate(-191.372 -42.318)" fill="#fff"/>
    <path id="Caminho_4419" data-name="Caminho 4419" d="M215.987,130.641q-3.653-.075-7.317,0c-.6-.793-1.214-1.6-1.885-2.341-1.342-1.669-2.866-3.217-4.265-4.883-1.643-1.779-3.226-3.674-4.872-5.4-.491-.573-1.038-1.09-1.526-1.612l-.424.059c.058,4.3,0,8.671.483,12.917,1.221,0,2.439.058,3.6.113v1.142c-3.956-.1-7.852-.05-11.76,0V129.5l3.656-.171a42.615,42.615,0,0,0,.428-7.4V118.25c.065-3.214.065-6.428.065-9.7,0-1.55-.065-3.156-.185-4.763-1.278-.121-2.5-.176-3.718-.292v-1.144c3.047.17,6.095.058,9.139-.059.913,0,1.832-.056,2.745-.056,4.754,0,7.064.863,8.523,2.758A5.517,5.517,0,0,1,209.9,108.6a6.854,6.854,0,0,1-2.75,5.4,11.005,11.005,0,0,1-6.638,2.177c1.4,1.491,2.739,3.042,4.142,4.591,1.523,1.608,3.046,3.219,4.633,4.822a45.728,45.728,0,0,0,3.893,3.732c.916.058,1.9.116,2.807.171Zm-20.165-15.26a13.745,13.745,0,0,0,6.151-.86,7.219,7.219,0,0,0,1.826-1.1,6.364,6.364,0,0,0,1.767-4.529,5.553,5.553,0,0,0-.361-2.122,4.615,4.615,0,0,0-3.232-2.93,8.815,8.815,0,0,0-2.679-.292,22.78,22.78,0,0,0-2.8.173c-.488,3.849-.548,7.809-.667,11.656" transform="translate(-77.677 -42.236)" fill="#fff"/>
    <path id="Caminho_4420" data-name="Caminho 4420" d="M230.286,124.73c2.7.062,5.444.027,8.188,0h5.071l-.036,1.665c-4.333,0-8.778-.093-13.223,0Z" transform="translate(-95.139 -51.53)" fill="#fff"/>
    <path id="Caminho_4421" data-name="Caminho 4421" d="M291.347,117.613a24.484,24.484,0,0,1-13.08,3.808,18.081,18.081,0,0,1-12-4.046c-7.057-5.738-7.357-14.716-7.357-17.116a23.422,23.422,0,0,1,4.042-13.586c2.35-3.219,7.2-7.966,17.145-7.966a39.111,39.111,0,0,1,5.68.358,35.706,35.706,0,0,0,5.538.523h.957c0,1.758-.052,3.45-.052,5.154,0,.822.052,1.638.052,2.462h-1.141l-.3-3.632a15.388,15.388,0,0,0-1.744-1.056,29.028,29.028,0,0,0-10.494-2.283,13.493,13.493,0,0,0-9.909,4.214c-2.594,2.757-5.067,7.321-5.067,15.582a36.343,36.343,0,0,0,.3,4.9c.726,5.153,2.535,9.64,7.176,12.569a15.807,15.807,0,0,0,8.137,2.283,24.647,24.647,0,0,0,9.709-2.4c.836-.467,1.681-.933,2.531-1.469Z" transform="translate(-106.966 -32.517)" fill="#fff"/>
    <path id="Caminho_4422" data-name="Caminho 4422" d="M326.469,130.277c-2.109,0-3.921-.1-6.036-.05-1.387,0-2.71.05-4.1.05v-1.142c1.082-.055,2.171-.113,3.2-.23.773-1.261,1.569-2.461,2.282-3.786.851-1.548,1.693-3.212,2.482-4.823.9-1.66,1.8-3.326,2.649-5.05.721-1.436,1.386-2.927,2.046-4.362,1.029-2.183,2.112-4.3,3.073-6.484.427-1.038.847-2.072,1.208-3.046h2.474c1.261,4.076,2.772,8.093,4.341,12.057,1.2,3.214,2.464,6.428,3.793,9.589.9,2.008,1.806,4.014,2.771,5.965l2.9.171-.059,1.142c-2.107-.05-4.161-.1-6.275-.1-1.566.052-2.9.1-4.521.1l.053-1.142c1.092-.113,1.938-.171,3.082-.23-.6-1.6-1.144-3.266-1.68-4.873l-1.63-4.307c-2.234-.119-4.461-.059-6.7-.059-1.622,0-3.247,0-4.873.112-1.208,2.994-2.477,6.035-3.5,9.128,1.081.117,1.939.175,3.019.23Zm11.505-11.928c-.718-2.069-1.506-4.076-2.285-6.146-.849-2.181-1.629-4.477-2.6-6.546-1.147,2.41-2.17,4.883-3.252,7.292-.847,1.776-1.692,3.561-2.353,5.4Z" transform="translate(-130.689 -41.873)" fill="#fff"/>
    <path id="Caminho_4423" data-name="Caminho 4423" d="M392.62,106.635c-.058-.858-.12-1.779-.244-2.7a12.823,12.823,0,0,0-5.1-1.089,8.618,8.618,0,0,0-2.524.342c-1.411.573-3.194,2.124-3.194,5.344a4.717,4.717,0,0,0,.557,2.411c.676,1.319,1.6,2.008,4.3,2.867,2.2.745,4.609,1.207,6.625,2.353a6.972,6.972,0,0,1,3.822,6.2,7.177,7.177,0,0,1-1.294,4.253c-1.659,2.178-5.1,4.308-11.367,4.308a30.331,30.331,0,0,1-6.452-.693c.067-1.778.067-3.564.067-5.277h1.226c.12.917.3,1.893.491,2.873a4.967,4.967,0,0,0,1.166.742,12.548,12.548,0,0,0,5.1,1.032c2.643,0,5.77-.971,6.946-3.5a5.651,5.651,0,0,0,.487-2.525,5.279,5.279,0,0,0-2.146-4.419c-1.658-1.154-4.178-1.728-6.082-2.3a16.745,16.745,0,0,1-3.751-1.549,6.733,6.733,0,0,1-3.5-5.968c0-3.449,2.7-7.981,10.934-7.981a23.05,23.05,0,0,1,5.291.69c-.065,1.55-.065,3.1-.065,4.647Z" transform="translate(-156.063 -41.873)" fill="#fff"/>
    <path id="Caminho_4424" data-name="Caminho 4424" d="M438.517,107.765c-.054-1.084-.117-2.177-.239-3.268-.606-.117-1.148-.234-1.749-.292-.548-.054-4.037-.339-6.628-.339a33.248,33.248,0,0,0-.362,4.249c-.062.975-.062,1.888-.062,2.87-.058,1.376-.058,2.751-.058,4.132-.063,3.159-.13,6.311-.13,9.411a44.682,44.682,0,0,0,.25,4.939c1.2,0,2.467,0,3.668.113v1.142c-4.034-.1-7.948-.1-11.93,0V129.58l3.862-.171c.177-3.044.364-6.08.424-9.126.06-2.238,0-4.536.06-6.778,0-2.009.116-4.012.116-6.077,0-1.153-.06-2.3-.176-3.5a61.149,61.149,0,0,0-6.7.339c-.6.117-1.2.234-1.8.4a25.593,25.593,0,0,0-.359,3.1h-1.2c0-1.834.06-3.559.119-5.335,4.044.113,8.012.286,11.991.286,4.1,0,8.2-.173,12.243-.286,0,1.775,0,3.559-.063,5.335Z" transform="translate(-171.656 -42.318)" fill="#fff"/>
    <path id="Caminho_4425" data-name="Caminho 4425" d="M527.981,125.463c0,1.2-.065,2-.065,3.2,0,.688.065,1.38.065,2.06-4.282-.05-8.5,0-12.72,0-2.592,0-5.126-.05-7.718,0l.065-1.142c1.259-.055,2.585-.113,3.853-.171.6-2.754.421-3.846.481-8.555.062-2.522.123-5.048.123-7.627,0-3.107,0-6.261-.3-9.3l-3.977-.35V102.43c2.649.113,5.241.113,7.9.058,1.385,0,2.543,0,3.921-.058v1.144c-1.205.116-2.171.231-3.439.35-.185,1.549-.3,3.042-.362,4.588-.121,2.24-.121,4.48-.121,6.721,0,3.268-.062,6.544.059,9.814.062,1.494.177,2.929.3,4.42a50.319,50.319,0,0,0,7.353-.457,13.977,13.977,0,0,0,3.14-.63c.116-1.092.177-1.835.243-2.918Z" transform="translate(-209.684 -42.318)" fill="#fff"/>
    <path id="Caminho_4426" data-name="Caminho 4426" d="M570.191,125.463c0,1.2-.058,2-.058,3.2,0,.688.058,1.38.058,2.06-4.282-.05-8.5,0-12.717,0-2.594,0-5.122-.05-7.72,0l.065-1.142c1.268-.055,2.592-.113,3.857-.171.609-2.754.421-3.846.487-8.555.057-2.522.122-5.048.122-7.627a91.975,91.975,0,0,0-.312-9.3l-3.968-.35V102.43c2.65.113,5.238.113,7.889.058,1.386,0,2.54,0,3.927-.058v1.144c-1.2.116-2.178.231-3.441.35-.181,1.549-.3,3.042-.363,4.588-.122,2.24-.122,4.48-.122,6.721,0,3.268-.062,6.544.063,9.814.059,1.494.185,2.929.3,4.42a50.5,50.5,0,0,0,7.357-.457,13.953,13.953,0,0,0,3.132-.63c.12-1.092.177-1.835.238-2.918Z" transform="translate(-227.123 -42.318)" fill="#fff"/>
    <path id="Caminho_4427" data-name="Caminho 4427" d="M242.618,176.938c-.022.184.2.319.495.319a1.2,1.2,0,0,0,1.212-1.061c0-.471-.13-.827-.766-1.954a3.971,3.971,0,0,1-.736-1.874,2.533,2.533,0,0,1,2.548-2.15c.67,0,1.082.285,1.082.723a.7.7,0,0,1-.718.653c-.434,0-.545-.119-.6-.653-.02-.1-.153-.172-.3-.172a.99.99,0,0,0-.909.894,5.108,5.108,0,0,0,.776,1.945c.655,1.123.749,1.361.749,1.889a2.572,2.572,0,0,1-2.629,2.309c-.877,0-1.519-.464-1.519-1.045a.65.65,0,0,1,.737-.67c.333,0,.614.233.6.49Z" transform="translate(-99.691 -70.323)" fill="#fff"/>
    <path id="Caminho_4428" data-name="Caminho 4428" d="M254.782,173.03A5.238,5.238,0,0,1,252,174.816a.7.7,0,0,1-.7-.651c0-.249-.035-.161.441-1.394.239-.624.278-.722.762-1.785a13.281,13.281,0,0,0,.978-2.624.14.14,0,0,0-.15-.159c-.22,0-.547.249-1.312.935l-.318-.3a4.926,4.926,0,0,1,2.792-1.627.457.457,0,0,1,.506.462,3.269,3.269,0,0,1-.389,1.181c-.087.212.167-.386-.8,1.846a15.607,15.607,0,0,0-1.108,2.943c0,.163.078.274.183.255a4.017,4.017,0,0,0,1.59-1.144Zm1.238-9.467a.938.938,0,0,1-.941.95.664.664,0,0,1-.706-.706.948.948,0,0,1,.967-.866.638.638,0,0,1,.68.623" transform="translate(-103.823 -67.317)" fill="#fff"/>
    <path id="Caminho_4429" data-name="Caminho 4429" d="M258.633,177.75c.36-.775.454-1.006.991-2.329a24.313,24.313,0,0,0,1.132-3,4.056,4.056,0,0,0,.222-.89c0-.16-.073-.263-.205-.263-.225,0-.557.279-1.278,1.049a.608.608,0,0,0-.129.148l-.353-.281c.95-1.24,1.928-1.963,2.668-1.963a.6.6,0,0,1,.593.649,5.391,5.391,0,0,1-.37,1.626c-.077.215-.152.372-.515,1.3a12.006,12.006,0,0,1,2.144-2.446,4.051,4.051,0,0,1,2.325-1.113.709.709,0,0,1,.749.754c0,.516-.244,1.116-1.353,3.308-.37.738-.63,1.265-.822,1.756a1.693,1.693,0,0,0-.21.593c0,.132.06.2.17.2a3.946,3.946,0,0,0,1.661-1.247l.31.291a5.211,5.211,0,0,1-2.923,1.912.615.615,0,0,1-.6-.6,3.125,3.125,0,0,1,.324-1.134c.857-1.758.635-1.377,1.343-2.728a7.155,7.155,0,0,0,.789-1.955.218.218,0,0,0-.222-.247c-.549,0-1.854,1.089-2.872,2.467a17.537,17.537,0,0,0-2.274,4.016Z" transform="translate(-106.851 -70.323)" fill="#fff"/>
    <path id="Caminho_4430" data-name="Caminho 4430" d="M278.64,175.878a5.6,5.6,0,0,1-3.394,1.927c-.867,0-1.442-.7-1.442-1.8a6.966,6.966,0,0,1,1.315-3.541,4.592,4.592,0,0,1,3.485-2.245c.577,0,1,.285,1,.633a.982.982,0,0,1-.982.867.57.57,0,0,1-.559-.528c-.013-.23-.066-.305-.25-.305-.452,0-1.154.644-1.593,1.414a7.673,7.673,0,0,0-.994,3.5c0,.742.3,1.16.867,1.16.53,0,1.2-.407,2.232-1.372Z" transform="translate(-113.118 -70.323)" fill="#fff"/>
    <path id="Caminho_4431" data-name="Caminho 4431" d="M288.112,175.893a5.472,5.472,0,0,1-3.347,1.912c-.8,0-1.268-.651-1.268-1.749a6.7,6.7,0,0,1,1.666-4.143,4.663,4.663,0,0,1,2.89-1.7c.538,0,.911.447.911,1.1,0,1-.968,1.761-3.948,3.114a5.337,5.337,0,0,0-.128,1.333c0,.744.276,1.144.759,1.144.528,0,1.144-.367,2.146-1.3Zm-.351-4.435c0-.356-.148-.574-.391-.574-.413,0-1.123.672-1.611,1.483a6.075,6.075,0,0,0-.6,1.486c1.928-.864,2.6-1.486,2.6-2.395" transform="translate(-117.123 -70.323)" fill="#fff"/>
    <path id="Caminho_4432" data-name="Caminho 4432" d="M302.02,164.678l-.2-.507,1.756-.772c.693-.3,1.057-.487,1.583-.753l.275.266c-.614,1.712-.762,2.091-1.077,3.188l-1.094,3.7a22.366,22.366,0,0,0-.568,2.177,5.008,5.008,0,0,0-.241,1.3c0,.551.278.7,1.4.737l-.167.536a18.327,18.327,0,0,0-2.262-.112,19.889,19.889,0,0,0-2.318.112l.164-.536c1.529-.074,1.412.1,2.726-4.356l1.689-5.7Z" transform="translate(-123.573 -67.195)" fill="#fff"/>
    <path id="Caminho_4433" data-name="Caminho 4433" d="M318.455,164.454h-2.2c-2.46,0-2.737.125-3.247,1.417l-.5-.151.873-2.431a12.572,12.572,0,0,0,1.8.055h2.554a17.363,17.363,0,0,0,2-.055l.167.18c-.219.371.332-.631-1.776,3.005l-3.537,6.055c-.547.9-.813,1.407-1.222,2.231h-1.411Z" transform="translate(-128.879 -67.461)" fill="#fff"/>
    <path id="Caminho_4434" data-name="Caminho 4434" d="M331.605,163.516a8.9,8.9,0,0,0-5.873,5.447,4.824,4.824,0,0,1,2.424-.776,2.5,2.5,0,0,1,2.563,2.629,3.919,3.919,0,0,1-3.854,4.01c-1.839,0-2.985-1.258-2.985-3.292,0-3.9,2.946-7.236,7.541-8.528Zm-6.431,8.29c0,1.529.675,2.411,1.822,2.411,1.311,0,2.329-1.283,2.329-2.947,0-1.372-.717-2.251-1.832-2.251a3.069,3.069,0,0,0-1.412.391c-.1.056-.212.128-.382.236-.174.127-.239.2-.239.215a7,7,0,0,0-.286,1.943" transform="translate(-133.807 -67.344)" fill="#fff"/>
    <path id="Caminho_4435" data-name="Caminho 4435" d="M339.041,164.678l-.206-.507,1.757-.772c.688-.3,1.056-.487,1.58-.753l.279.266c-.619,1.712-.76,2.091-1.085,3.188l-1.087,3.7c-.241.84-.241.741-.572,2.177a4.916,4.916,0,0,0-.239,1.3c0,.551.273.7,1.41.737l-.17.536a18.49,18.49,0,0,0-2.266-.112,19.649,19.649,0,0,0-2.306.112l.164-.536c1.521-.074,1.407.1,2.72-4.356l1.688-5.7Z" transform="translate(-138.869 -67.195)" fill="#fff"/>
    <path id="Caminho_4436" data-name="Caminho 4436" d="M518.131,190.226h-4.069v10.106a5.744,5.744,0,0,1-.516,2.422,6.409,6.409,0,0,1-1.406,1.98,6.507,6.507,0,0,1-2.074,1.335,6.83,6.83,0,0,1-5.034,0,6.5,6.5,0,0,1-2.073-1.335,6.4,6.4,0,0,1-1.407-1.98,5.747,5.747,0,0,1-.52-2.422V194.3H496.96v6.034a9.78,9.78,0,0,0,.836,4,10.171,10.171,0,0,0,2.274,3.275,10.941,10.941,0,0,0,3.369,2.2,10.781,10.781,0,0,0,8.219,0,11.026,11.026,0,0,0,3.369-2.2,10.237,10.237,0,0,0,2.275-3.275,9.785,9.785,0,0,0,.832-4" transform="translate(-205.312 -78.589)" fill="#cb8617"/>
    <path id="Caminho_4437" data-name="Caminho 4437" d="M500.219,183.286h.815v4.072h-4.072v-4.072Z" transform="translate(-205.313 -75.722)" fill="#cb8617"/>
    <path id="Caminho_4438" data-name="Caminho 4438" d="M522.415,183.286h.815v4.072h-4.072v-4.072Z" transform="translate(-214.483 -75.722)" fill="#cb8617"/>
    <rect id="Retângulo_3195" data-name="Retângulo 3195" width="17.435" height="4.072" transform="translate(242.558 107.563)" fill="#cb8617"/>
    <path id="Caminho_4439" data-name="Caminho 4439" d="M417.384,204.7h11.328v-4.072h-15.4v13.881h17.435v-4.072H417.384Z" transform="translate(-170.754 -82.888)" fill="#cb8617"/>
    <path id="Caminho_4440" data-name="Caminho 4440" d="M473.758,190.653a12.527,12.527,0,0,0-2.647-3.832,12.168,12.168,0,0,0-3.925-2.59,12.357,12.357,0,0,0-4.811-.944H457.23v4.072h5.145a8.28,8.28,0,0,1,3.24.627,8.446,8.446,0,0,1,2.63,1.722,8.111,8.111,0,0,1,1.776,2.536,7.433,7.433,0,0,1,.646,3.071,7.519,7.519,0,0,1-.646,3.11,7.9,7.9,0,0,1-1.776,2.515,8.6,8.6,0,0,1-2.63,1.7,8.28,8.28,0,0,1-3.24.627H457.23v4.072h5.145a12.294,12.294,0,0,0,4.811-.944,12.168,12.168,0,0,0,3.925-2.59,12.527,12.527,0,0,0,2.647-3.832,11.593,11.593,0,0,0,0-9.328m-20.6,12.621h4.072V187.359h-4.072Z" transform="translate(-187.216 -75.722)" fill="#cb8617"/>
    <rect id="Retângulo_3196" data-name="Retângulo 3196" width="4.072" height="13.014" transform="translate(330.75 122.476) rotate(-44.965)" fill="#cb8617"/>
    <rect id="Retângulo_3197" data-name="Retângulo 3197" width="4.072" height="13.014" transform="translate(318.68 110.382) rotate(-44.965)" fill="#cb8617"/>
    <rect id="Retângulo_3198" data-name="Retângulo 3198" width="13.014" height="4.072" transform="translate(318.68 128.807) rotate(-45.035)" fill="#cb8617"/>
    <rect id="Retângulo_3199" data-name="Retângulo 3199" width="13.014" height="4.072" transform="translate(330.749 116.712) rotate(-45.035)" fill="#cb8617"/>
  </g>
</svg>
