<svg id="Grupo_10205" data-name="Grupo 10205" xmlns="http://www.w3.org/2000/svg" xmlns:xlink="http://www.w3.org/1999/xlink" width="25.293" height="36.761" viewBox="0 0 25.293 36.761">
  <defs>
    <clipPath id="clip-path">
      <rect id="Retângulo_3240" data-name="Retângulo 3240" width="25.293" height="36.761" fill="none"/>
    </clipPath>
  </defs>
  <g id="Grupo_10204" data-name="Grupo 10204" clip-path="url(#clip-path)">
    <path id="Caminho_4518" data-name="Caminho 4518" d="M13.466,4.744c-.041-.016-.073-.03-.1-.042-.618-.212-1.235-.421-1.853-.634a14.133,14.133,0,0,1-1.322-.547,8.931,8.931,0,0,1-1.124-.674.367.367,0,0,0-.3-.072c-.679.126-1.36.237-2.039.355-.055.009-.109.025-.152.036a7.225,7.225,0,0,1,.1.82A2.878,2.878,0,0,1,4.3,6.855a3.2,3.2,0,0,1-1.835-.2A3.254,3.254,0,0,1,.8,5.106c-.014-.027-.03-.053-.051-.089A.469.469,0,0,1,.2,5.025a.215.215,0,0,1-.067-.352L.3,4.45a.639.639,0,0,1-.267-.738.651.651,0,0,0,.02-.229c0-.039-.031-.078-.031-.117,0-.244-.009-.489.012-.732C.038,2.571.128,2.5.2,2.462c.277-.135.563-.252.84-.386a.921.921,0,0,0,.256-.192A2.88,2.88,0,0,1,3.626.94a6.982,6.982,0,0,1,1.009.208.274.274,0,0,0,.172,0A6.026,6.026,0,0,1,6.755.477a7.107,7.107,0,0,1,2-.109c.077.007.155-.015.231-.007a3.872,3.872,0,0,1,.5.074c.26.063.512.163.773.214a10.9,10.9,0,0,1,2.2.665.552.552,0,0,0,.18.041,1.977,1.977,0,0,1,.968.294,1.277,1.277,0,0,0,.719.192,2.815,2.815,0,0,1,1.186.174,1.95,1.95,0,0,1,.508.29,2.266,2.266,0,0,0,1.352.548,6.427,6.427,0,0,1,1.582.288c.1.033.161.02.205-.084.081-.19.164-.378.26-.56a.983.983,0,0,1,.2-.272c.319-.285.645-.56.969-.839.039-.034.092-.057.117-.1a4.018,4.018,0,0,1,.871-.846A1.878,1.878,0,0,1,22.9,0a2.819,2.819,0,0,1,.73.091,2.06,2.06,0,0,1,1.013.646,2.91,2.91,0,0,1,.647,1.8A1.53,1.53,0,0,1,24.808,3.7a9.122,9.122,0,0,1-.688.639,4.378,4.378,0,0,1-.434.292c.041.28.016.348-.239.491a4.808,4.808,0,0,1-.678.339,1.431,1.431,0,0,1-.431.018.181.181,0,0,0-.094.015c-.154.112-.3.229-.466.354.141.172.278.337.412.505.273.343.554.681.812,1.035a3.516,3.516,0,0,1,.243.5.78.78,0,0,0,.173.279,1.59,1.59,0,0,1,.5.659q.153.346.294.7a2.672,2.672,0,0,1,.132,1.313,5.268,5.268,0,0,0,.1,1.917,6.387,6.387,0,0,1,.1,1.774q-.026.859-.065,1.717a3.3,3.3,0,0,1-.584,1.9c-.215.289-.405.6-.608.9a10.281,10.281,0,0,1-1.416,1.675,16.666,16.666,0,0,1-1.419,1.192,2.027,2.027,0,0,0-.577.77,2.569,2.569,0,0,1-1.33,1.293,4.182,4.182,0,0,0-.509.285.364.364,0,0,0-.119.2,2.626,2.626,0,0,0-.111.524,2.427,2.427,0,0,0,.023.66,1.156,1.156,0,0,1-.521,1.247,1.055,1.055,0,0,0-.426.618,19.455,19.455,0,0,1-1.11,3.08A8.423,8.423,0,0,0,15,33.331a1.365,1.365,0,0,0,.491,1.2,7.662,7.662,0,0,0,1.007.687c.335.2.688.377,1.035.56a2.049,2.049,0,0,0,1.032.206.385.385,0,0,1,.343.527.3.3,0,0,1-.206.132c-.608.045-1.216.1-1.824.105-1.3.015-2.6.007-3.906,0a1.342,1.342,0,0,1-.452-.092.572.572,0,0,1-.278-.724,18.463,18.463,0,0,0,.614-2.834c.114-.859.231-1.718.328-2.58a8.091,8.091,0,0,0,0-.875c-.122.064-.238.123-.352.184-.547.3-1.1.583-1.638.9a14.079,14.079,0,0,0-1.876,1.343c-.315.312-.74.642-1.026.979a11.751,11.751,0,0,0-.749,1.022,2.238,2.238,0,0,1-.686.649,1.332,1.332,0,0,0-.618.7.6.6,0,0,0,.475.729.956.956,0,0,1,.137.025c.11.017.245.042.222.176-.017.1-.1.251-.183.272A1.465,1.465,0,0,1,5.8,36.491,2.345,2.345,0,0,1,5.144,35,4.155,4.155,0,0,1,5.5,33.6a2.445,2.445,0,0,0,.265-1.116c-.013-.319.008-.64.024-.96a1.448,1.448,0,0,1,.067-.347.583.583,0,0,1,.7-.451c.266.028.535.036.8.056a.547.547,0,0,0,.382-.128,33.711,33.711,0,0,0,2.727-2.236c.485-.449.963-.936,1.416-1.416A6.863,6.863,0,0,1,13.26,25.94a5.176,5.176,0,0,0,.8-.516c.166-.147.157-.239.029-.426a2.3,2.3,0,0,0-.146-.18c-.532-.624-1.069-1.244-1.595-1.873a10.747,10.747,0,0,1-.747-.966,5,5,0,0,1-.463-.908,6.208,6.208,0,0,0-1.559-2.209,4.644,4.644,0,0,1-1.143-1.743A3.267,3.267,0,0,1,8.3,15.233a3.5,3.5,0,0,1,.876-1.648,8.773,8.773,0,0,1,1.072-1.028,1.347,1.347,0,0,0,.361-.508c.265-.592.512-1.194.75-1.8a6.165,6.165,0,0,0,.209-.728,14.1,14.1,0,0,1,.715-1.846c.36-.873.708-1.75,1.06-2.625.04-.1.077-.2.12-.308m3.4,16.6a4.28,4.28,0,0,0,.421-.173.845.845,0,0,1,.438-.119c.294.01.589,0,.883,0a.675.675,0,0,0,.495-.182c.249-.245.488-.5.725-.756.127-.136.243-.281.365-.421a4.138,4.138,0,0,0,.925-1.411,1.294,1.294,0,0,1,.177-.325c.245-.351.5-.7.745-1.047.074-.1.191-.207.2-.319a1.6,1.6,0,0,0-.045-.638,6.563,6.563,0,0,1-.315-1.774,9.876,9.876,0,0,0-.072-1.1,9.2,9.2,0,0,1-.013-1.436,2.586,2.586,0,0,0-.065-.561.29.29,0,0,0-.351-.2,1.251,1.251,0,0,0-.346.123,4.231,4.231,0,0,1-1.56.523.664.664,0,0,0-.464.3,2,2,0,0,1-.194.259c-.312.322-.621.648-.947.956a3.318,3.318,0,0,1-.487.346c-.246.159-.5.31-.746.467-.029.018-.044.055-.067.083-.109.137-.209.281-.326.411q-.841.938-1.691,1.87a.268.268,0,0,0-.07.282,1.713,1.713,0,0,0,.113.286c.149.282.31.559.459.841.1.191.18.394.283.584.285.525.6,1.036.86,1.571.245.5.44,1.022.666,1.556" transform="translate(0 0.001)" fill="#fff" fill-rule="evenodd"/>
  </g>
</svg>
