<svg id="Grupo_10220" data-name="Grupo 10220" xmlns="http://www.w3.org/2000/svg" xmlns:xlink="http://www.w3.org/1999/xlink" width="488.349" height="169.479" viewBox="0 0 488.349 169.479">
  <defs>
    <clipPath id="clip-path">
      <rect id="Retângulo_3242" data-name="Retângulo 3242" width="488.349" height="169.479" fill="#fff"/>
    </clipPath>
  </defs>
  <g id="Grupo_10220-2" data-name="Grupo 10220" clip-path="url(#clip-path)">
    <path id="Caminho_4525" data-name="Caminho 4525" d="M225.417,46.063A14.765,14.765,0,0,0,217.6,44.18c-8.395,0-11.763,5.924-11.763,11.85,0,5.568,3.547,8.171,8.575,8.171a17.566,17.566,0,0,0,7.948-1.752l-.9,6.735a30.341,30.341,0,0,1-8.35,1.212c-10.1,0-15.892-5.971-15.892-14.591,0-10.415,7.315-17.823,19.08-17.823a30.994,30.994,0,0,1,11.089,1.66Z" transform="translate(33.878 6.524)" fill="#fff"/>
    <path id="Caminho_4526" data-name="Caminho 4526" d="M233.68,69.231c-8.665,0-12.165-4.8-12.165-10.683,0-8.216,5.927-13.782,15.084-13.782,7.946,0,12.167,4.577,12.167,10.459,0,9.742-6.331,14.006-15.085,14.006m2.513-18.811c-3.906,0-6.33,4.221-6.33,7.946,0,3.143,1.663,5.253,4.4,5.21,3.771,0,6.151-3.143,6.151-8.44,0-2.424-1.079-4.715-4.222-4.715" transform="translate(38.051 7.69)" fill="#fff"/>
    <path id="Caminho_4527" data-name="Caminho 4527" d="M249.747,51.408c.405-2.021.762-4,.989-6.106h7.184l-.9,4.264.089-.043a10.009,10.009,0,0,1,8.26-4.759,6,6,0,0,1,6.153,4.759,10.037,10.037,0,0,1,8.349-4.759c3.593,0,7.273,1.751,7.273,6.958a26.971,26.971,0,0,1-.539,5.252l-2.422,11.718H276.1l2.337-11.358a17.081,17.081,0,0,0,.448-3.412c0-1.527-.718-2.424-2.6-2.424-3.366,0-4.263,3.907-4.8,6.42l-2.291,10.774H261.1l2.337-11.358a17.1,17.1,0,0,0,.45-3.412c0-1.527-.718-2.424-2.6-2.424-3.365,0-4.265,3.907-4.8,6.42l-2.291,10.774h-8.079Z" transform="translate(42.276 7.689)" fill="#fff"/>
    <path id="Caminho_4528" data-name="Caminho 4528" d="M286.414,48.8a25.6,25.6,0,0,0,.494-3.5h7.406l-.628,3.726h.091a10.729,10.729,0,0,1,8.393-4.264c5.748,0,8.709,4.4,8.709,9.652,0,7.675-3.859,14.814-12.3,14.814a8.056,8.056,0,0,1-7.543-4.445l-2.962,13.334h-8.17Zm10.012,14.231c3.814,0,6.1-3.637,6.1-7.271,0-2.874-1.3-4.807-3.861-4.807-3.815,0-6.1,4.223-6.1,7.319,0,2.381,1.167,4.759,3.861,4.759" transform="translate(48.081 7.689)" fill="#fff"/>
    <path id="Caminho_4529" data-name="Caminho 4529" d="M323.938,65.415l-.09-.089v.089c-1.706,2.694-4.712,3.815-7.857,3.815-5.028,0-7.811-2.245-7.811-6.779,0-5.748,5.746-8.574,12.884-8.574,1.617,0,3.233.132,4.354.224a3.267,3.267,0,0,0,.093-.942c0-1.662-1.663-3.01-4.312-3.01a14.7,14.7,0,0,0-7.587,1.843l.809-5.882a25.263,25.263,0,0,1,8.575-1.345c5.566,0,10.144,2.2,10.144,7.946,0,3.681-2.062,8.932-2.961,15.982h-6.6Zm-5.388-1.573c3.456,0,5.523-2.378,6.106-5.52a12.592,12.592,0,0,0-2.157-.135c-3.859-.135-6.685,1.256-6.685,3.321a2.572,2.572,0,0,0,2.736,2.334" transform="translate(52.938 7.69)" fill="#fff"/>
    <path id="Caminho_4530" data-name="Caminho 4530" d="M334.88,51.408c.4-2.021.762-4,.988-6.106h7.5l-.629,3.815h.09c2.335-2.6,4.76-4.353,9.024-4.353,4.714,0,7.273,3.5,7.273,8.079a21.58,21.58,0,0,1-.628,4.938l-2.155,10.91h-8.349l2.242-10.954a18.665,18.665,0,0,0,.541-3.547c0-1.392-.9-2.783-3.143-2.694-3.413,0-5.434,2.963-6.017,6.42l-2.288,10.774h-8.082Z" transform="translate(56.9 7.689)" fill="#fff"/>
    <path id="Caminho_4531" data-name="Caminho 4531" d="M363.893,36.45h8.17l-2.872,13.693h.09a9.874,9.874,0,0,1,8.125-3.951c4.715,0,7.273,3.5,7.273,8.079a21.539,21.539,0,0,1-.629,4.939L381.9,70.12h-8.35l2.245-10.953a18.751,18.751,0,0,0,.538-3.548c0-1.391-.9-2.783-3.142-2.693-3.413,0-5.432,2.963-6.016,6.419L364.883,70.12H356.8Z" transform="translate(61.289 6.261)" fill="#fff"/>
    <path id="Caminho_4532" data-name="Caminho 4532" d="M387.932,46.651h8.173l-4.852,23.39h-8.171ZM390,36.909h8.171l-1.258,5.926h-8.168Z" transform="translate(65.804 6.34)" fill="#fff"/>
    <path id="Caminho_4533" data-name="Caminho 4533" d="M411.216,65.415l-.09-.089v.089c-1.707,2.694-4.714,3.815-7.857,3.815-5.028,0-7.812-2.245-7.812-6.779,0-5.748,5.75-8.574,12.886-8.574,1.616,0,3.232.132,4.354.224a3.392,3.392,0,0,0,.089-.942c0-1.662-1.66-3.01-4.307-3.01a14.693,14.693,0,0,0-7.588,1.843l.809-5.882a25.246,25.246,0,0,1,8.574-1.345c5.567,0,10.146,2.2,10.146,7.946,0,3.681-2.066,8.932-2.964,15.982h-6.6Zm-5.389-1.573c3.458,0,5.523-2.378,6.106-5.52a12.547,12.547,0,0,0-2.154-.135c-3.861-.135-6.69,1.256-6.69,3.321a2.576,2.576,0,0,0,2.737,2.334" transform="translate(67.93 7.69)" fill="#fff"/>
    <path id="Caminho_4534" data-name="Caminho 4534" d="M199.963,85.145h10.506l5.118,31.337h-8.439l-.853-6.69H194.127l-3.725,6.69h-9.068Zm4.176,6.466h-.089l-6.644,12.256h8.083Z" transform="translate(31.149 14.626)" fill="#fff"/>
    <path id="Caminho_4535" data-name="Caminho 4535" d="M213.62,93h4.624l1.123-5.028,8.529-2.288L226.281,93h5.566l-.988,5.657h-5.881l-1.392,6.509a22,22,0,0,0-.671,4.041,2.462,2.462,0,0,0,2.646,2.6,8.01,8.01,0,0,0,2.6-.673l-.9,5.341a32.5,32.5,0,0,1-5.029.449c-4.128,0-7.4-2.019-7.4-6.913a22.121,22.121,0,0,1,.716-4.8l1.394-6.555h-4.31Z" transform="translate(36.525 14.718)" fill="#fff"/>
    <path id="Caminho_4536" data-name="Caminho 4536" d="M235.051,83.153h8.171l-2.873,13.693h.089a9.881,9.881,0,0,1,8.124-3.951c4.716,0,7.274,3.5,7.274,8.082a21.52,21.52,0,0,1-.628,4.937l-2.156,10.909H244.7l2.244-10.953a18.658,18.658,0,0,0,.539-3.548c0-1.391-.9-2.783-3.142-2.693-3.412,0-5.432,2.961-6.017,6.419l-2.29,10.774h-8.081Z" transform="translate(39.158 14.284)" fill="#fff"/>
    <path id="Caminho_4537" data-name="Caminho 4537" d="M261.244,83.153h8.172l-7,33.67h-8.17Z" transform="translate(43.673 14.284)" fill="#fff"/>
    <path id="Caminho_4538" data-name="Caminho 4538" d="M287.43,114.634a29.973,29.973,0,0,1-8.171,1.3c-7.812,0-12.031-4.8-12.031-10.683,0-5.434,3.591-13.782,14.006-13.782,6.151,0,10.776,3.1,10.776,10.189a26.016,26.016,0,0,1-.584,4.4H274.861c.09,2.513,1.346,4.49,6.287,4.49a18.3,18.3,0,0,0,7.318-1.618Zm-2.155-13.156c0-2.513-.987-4.623-3.951-4.623a5.97,5.97,0,0,0-5.97,4.623Z" transform="translate(45.904 15.712)" fill="#fff"/>
    <path id="Caminho_4539" data-name="Caminho 4539" d="M292.355,93h4.624l1.123-5.028,8.528-2.288L305.016,93h5.565l-.987,5.657h-5.879l-1.394,6.509a22,22,0,0,0-.671,4.041,2.461,2.461,0,0,0,2.646,2.6,8.008,8.008,0,0,0,2.606-.673l-.9,5.341a32.462,32.462,0,0,1-5.029.449c-4.128,0-7.406-2.019-7.406-6.913a22.146,22.146,0,0,1,.717-4.8l1.394-6.555h-4.31Z" transform="translate(50.05 14.718)" fill="#fff"/>
    <path id="Caminho_4540" data-name="Caminho 4540" d="M312.268,93.355h8.172l-4.851,23.389H307.42Zm2.066-9.741h8.172l-1.26,5.926h-8.168Z" transform="translate(52.807 14.363)" fill="#fff"/>
    <path id="Caminho_4541" data-name="Caminho 4541" d="M338.364,115.036a21.72,21.72,0,0,1-6.912.9c-6.824,0-11.044-4.8-11.044-10.684,0-7.677,6.1-13.781,15.084-13.781a21.545,21.545,0,0,1,7.362,1.57L341.1,98.65a12.508,12.508,0,0,0-5.206-1.257c-4.176,0-7.141,2.694-7.141,7.544,0,2.783,2.157,5.071,5.568,5.071a12.535,12.535,0,0,0,5.206-1.032Z" transform="translate(55.038 15.712)" fill="#fff"/>
    <path id="Caminho_4542" data-name="Caminho 4542" d="M354.71,112.118l-.091-.089v.089c-1.706,2.694-4.713,3.815-7.858,3.815-5.026,0-7.81-2.243-7.81-6.779,0-5.748,5.748-8.576,12.885-8.576,1.616,0,3.232.137,4.356.227a3.4,3.4,0,0,0,.089-.943c0-1.662-1.662-3.008-4.309-3.008a14.721,14.721,0,0,0-7.588,1.841l.811-5.882a25.229,25.229,0,0,1,8.573-1.345c5.567,0,10.145,2.2,10.145,7.946,0,3.681-2.065,8.932-2.962,15.982h-6.6Zm-5.388-1.57c3.457,0,5.523-2.38,6.1-5.523a12.545,12.545,0,0,0-2.154-.135c-3.861-.135-6.689,1.256-6.689,3.323a2.577,2.577,0,0,0,2.738,2.334" transform="translate(58.224 15.712)" fill="#fff"/>
    <path id="Caminho_4543" data-name="Caminho 4543" d="M118.794,50.107a1.268,1.268,0,0,0-1.524-.879,5.4,5.4,0,0,0-1.5.533A18.338,18.338,0,0,1,109,52.03a2.9,2.9,0,0,0-2.012,1.283,8.463,8.463,0,0,1-.846,1.124c-1.351,1.4-2.7,2.816-4.108,4.152a14.911,14.911,0,0,1-2.115,1.5c-1.064.693-2.161,1.348-3.235,2.032a1.468,1.468,0,0,0-.286.355c-.472.6-.912,1.222-1.418,1.789q-3.649,4.071-7.338,8.113a1.169,1.169,0,0,0-.3,1.229,7.991,7.991,0,0,0,.489,1.237c.649,1.232,1.346,2.427,2,3.657.441.825.78,1.707,1.223,2.532,1.241,2.27,2.591,4.488,3.734,6.813,1.065,2.163,1.909,4.433,2.893,6.754a17.9,17.9,0,0,0,1.827-.758,3.686,3.686,0,0,1,1.9-.51c1.276.036,2.552.007,3.833.013a2.945,2.945,0,0,0,2.147-.785c1.076-1.066,2.117-2.174,3.144-3.283.553-.591,1.056-1.22,1.583-1.827a17.924,17.924,0,0,0,4.018-6.12,5.719,5.719,0,0,1,.764-1.41c1.062-1.523,2.16-3.028,3.234-4.543.316-.448.831-.894.884-1.382a7.078,7.078,0,0,0-.2-2.776,28.477,28.477,0,0,1-1.369-7.693,41.929,41.929,0,0,0-.312-4.755,40.209,40.209,0,0,1-.055-6.228,11.323,11.323,0,0,0-.279-2.437" transform="translate(14.991 8.45)" fill="#fff"/>
    <path id="Caminho_4544" data-name="Caminho 4544" d="M61.819,159.014a18.106,18.106,0,0,1,1.546-6.083,10.587,10.587,0,0,0,1.157-4.845c-.06-1.385.032-2.776.105-4.163a6.107,6.107,0,0,1,.287-1.5,2.533,2.533,0,0,1,3.057-1.964c1.158.122,2.321.154,3.48.247a2.351,2.351,0,0,0,1.656-.559,145.7,145.7,0,0,0,11.836-9.7c2.1-1.955,4.174-4.067,6.141-6.145a29.74,29.74,0,0,1,5.954-4.61,22.324,22.324,0,0,0,3.467-2.245c.723-.641.683-1.028.128-1.842a9.807,9.807,0,0,0-.633-.792c-2.311-2.7-4.641-5.391-6.921-8.115a47.5,47.5,0,0,1-3.241-4.2,22.138,22.138,0,0,1-2.015-3.936,26.915,26.915,0,0,0-6.758-9.585A20.123,20.123,0,0,1,76.1,81.427a14.159,14.159,0,0,1-.58-8.186,15.182,15.182,0,0,1,3.8-7.157,38.563,38.563,0,0,1,4.651-4.46,5.829,5.829,0,0,0,1.571-2.2c1.147-2.571,2.225-5.179,3.255-7.8a27.294,27.294,0,0,0,.9-3.159,61.6,61.6,0,0,1,3.1-8.008c1.565-3.782,3.075-7.591,4.605-11.39.173-.434.339-.866.514-1.339-.173-.067-.315-.132-.452-.176-2.676-.922-5.355-1.831-8.036-2.754A61.748,61.748,0,0,1,83.7,22.42a39.439,39.439,0,0,1-4.87-2.925,1.6,1.6,0,0,0-1.285-.312c-2.944.545-5.9,1.028-8.846,1.537-.237.042-.476.112-.659.158a32.756,32.756,0,0,1,.449,3.561A12.484,12.484,0,0,1,58.14,36.88a13.891,13.891,0,0,1-7.959-.852A14.113,14.113,0,0,1,42.989,29.3c-.061-.117-.13-.228-.225-.389a2.021,2.021,0,0,1-2.381.034.927.927,0,0,1-.282-1.522c.23-.318.462-.643.7-.97a2.038,2.038,0,0,1-.554-.414C6.916,52.193-8.579,90.729,4.793,122.78c9.623,23.068,32.151,37.869,59.691,42.388-1.31-1.868-2.863-3.64-2.665-6.154" transform="translate(0 3.29)" fill="#fff"/>
    <path id="Caminho_4545" data-name="Caminho 4545" d="M192,43.861C174.87,2.805,116.866-12.075,62.447,10.618q-2.535,1.056-5,2.2c.5-.118.992-.225,1.492-.326a30.851,30.851,0,0,1,8.69-.466c.334.027.675-.069,1.007-.032a16.373,16.373,0,0,1,2.154.321c1.127.271,2.219.708,3.358.92a48.114,48.114,0,0,1,9.529,2.892,2.57,2.57,0,0,0,.777.18,8.555,8.555,0,0,1,4.2,1.273,5.523,5.523,0,0,0,3.116.837,12.148,12.148,0,0,1,5.15.757,8.462,8.462,0,0,1,2.2,1.251,9.789,9.789,0,0,0,5.869,2.378,27.935,27.935,0,0,1,6.861,1.248c.435.144.7.087.891-.369.348-.817.711-1.636,1.126-2.426a4.233,4.233,0,0,1,.875-1.181c1.38-1.236,2.8-2.43,4.207-3.643a2.337,2.337,0,0,0,.509-.43c.95-1.548,2.453-2.509,3.773-3.669a8.118,8.118,0,0,1,5.76-1.9,12.051,12.051,0,0,1,3.171.389,8.945,8.945,0,0,1,4.4,2.8,12.683,12.683,0,0,1,2.811,7.813,6.646,6.646,0,0,1-2.1,5.052,39.4,39.4,0,0,1-2.99,2.774,16.963,16.963,0,0,1-1.881,1.268c.184,1.212.069,1.5-1.035,2.13a21.063,21.063,0,0,1-2.945,1.474,6.45,6.45,0,0,1-1.867.074.768.768,0,0,0-.409.063c-.664.487-1.317,1-2.024,1.536.612.746,1.207,1.469,1.79,2.195,1.186,1.487,2.4,2.951,3.519,4.493a15.073,15.073,0,0,1,1.053,2.147,3.361,3.361,0,0,0,.755,1.213,6.857,6.857,0,0,1,2.157,2.859c.442,1,.871,2,1.28,3.023a11.6,11.6,0,0,1,.573,5.694,22.8,22.8,0,0,0,.429,8.315,27.5,27.5,0,0,1,.439,7.7c-.075,2.484-.173,4.966-.28,7.448a14.292,14.292,0,0,1-2.538,8.263c-.933,1.25-1.754,2.584-2.631,3.884a45.016,45.016,0,0,1-6.14,7.266,72.025,72.025,0,0,1-6.161,5.17,8.762,8.762,0,0,0-2.505,3.344,11.149,11.149,0,0,1-5.772,5.609,18.452,18.452,0,0,0-2.206,1.235,1.53,1.53,0,0,0-.514.854,11.329,11.329,0,0,0-.489,2.272,10.579,10.579,0,0,0,.105,2.864,5.032,5.032,0,0,1-2.26,5.412,4.572,4.572,0,0,0-1.85,2.682,84.336,84.336,0,0,1-4.817,13.363,36.47,36.47,0,0,0-3.331,11.933,5.92,5.92,0,0,0,2.129,5.22,33.378,33.378,0,0,0,4.368,2.98c1.438.867,2.951,1.616,4.435,2.4a141.131,141.131,0,0,0,18.809-6.343c54.421-22.7,84.647-74.384,67.527-115.445" transform="translate(9.868 0)" fill="#fff"/>
    <path id="Caminho_4546" data-name="Caminho 4546" d="M82.5,145.582a80.258,80.258,0,0,0,2.66-12.3c.5-3.724,1-7.458,1.431-11.194A35.679,35.679,0,0,0,86.6,118.3c-.53.272-1.031.528-1.524.793-2.375,1.294-4.779,2.53-7.108,3.9a60.813,60.813,0,0,0-8.138,5.831c-1.365,1.353-3.209,2.778-4.453,4.243a51.552,51.552,0,0,0-3.254,4.436,9.729,9.729,0,0,1-2.976,2.815,5.824,5.824,0,0,0-2.686,3.035c-.37,1.155.591,3.149,2.063,3.165a4.9,4.9,0,0,1,.6.105c.475.073,1.062.185.962.764a2.013,2.013,0,0,1-.528,1.023,119.02,119.02,0,0,0,24.033.266,2.516,2.516,0,0,1-1.093-3.095" transform="translate(9.686 20.321)" fill="#fff"/>
    <path id="Caminho_4547" data-name="Caminho 4547" d="M170.9,133.219h4.715v7.617a8.675,8.675,0,0,1-3.944.751c-4.673,0-7.156-3.172-7.156-7.491S167,126.6,171.674,126.6a9.5,9.5,0,0,1,3.548.626l-.146,2.4a6.5,6.5,0,0,0-3.359-.9c-2.837,0-4.36,2.337-4.36,5.362,0,3.275,1.481,5.362,4.215,5.362a4.267,4.267,0,0,0,1.544-.272v-3.923H170.9Z" transform="translate(28.26 21.748)" fill="#fff"/>
    <path id="Caminho_4548" data-name="Caminho 4548" d="M184.16,140.29a8.017,8.017,0,0,1-3.213.689c-3.464,0-4.967-2.484-4.967-5.383,0-3.215,1.692-5.7,4.425-5.7,2.315,0,4.3,1.357,4.3,5.739v.5h-6.219c0,1.837.73,2.942,2.734,2.942a4.274,4.274,0,0,0,2.817-.834Zm-1.962-5.782c0-1.9-.626-2.858-1.794-2.858-1.356,0-1.921,1.439-1.921,2.858Z" transform="translate(30.229 22.313)" fill="#fff"/>
    <path id="Caminho_4549" data-name="Caminho 4549" d="M185.142,131.838a15.022,15.022,0,0,0-.083-1.774h2.42c.022.543.083,1.106.083,1.651h.043a3.129,3.129,0,0,1,2.858-1.817c2.44,0,3.17,1.817,3.17,3.986v6.928h-2.586v-6.449c0-1.648-.416-2.337-1.482-2.337-1.356,0-1.836,1.15-1.836,2.524v6.262h-2.586Z" transform="translate(31.789 22.313)" fill="#fff"/>
    <path id="Caminho_4550" data-name="Caminho 4550" d="M195.438,128.269l2.587-.794v3.006h2.149v1.9h-2.149v5.571c0,1.148.417,1.482,1.168,1.482a2.019,2.019,0,0,0,.981-.231v1.837a3.978,3.978,0,0,1-1.732.355c-1.919,0-3-.876-3-3.131V132.38h-1.712v-1.9h1.712Z" transform="translate(33.277 21.897)" fill="#fff"/>
    <path id="Caminho_4551" data-name="Caminho 4551" d="M208.564,140.29a8.022,8.022,0,0,1-3.213.689c-3.465,0-4.967-2.484-4.967-5.383,0-3.215,1.691-5.7,4.425-5.7,2.315,0,4.3,1.357,4.3,5.739v.5h-6.219c0,1.837.73,2.942,2.733,2.942a4.274,4.274,0,0,0,2.817-.834Zm-1.962-5.782c0-1.9-.627-2.858-1.794-2.858-1.357,0-1.921,1.439-1.921,2.858Z" transform="translate(34.421 22.313)" fill="#fff"/>
    <path id="Caminho_4552" data-name="Caminho 4552" d="M221.507,140.539a7.387,7.387,0,0,1-2.546.439c-3.547,0-5.049-2.483-5.049-5.53,0-3.069,1.585-5.552,5.194-5.552a7.076,7.076,0,0,1,2.254.439l-.146,2.044a4.15,4.15,0,0,0-1.815-.521c-1.962,0-2.817,1.316-2.817,3.611,0,2,.96,3.547,2.944,3.547a4.165,4.165,0,0,0,1.835-.521Z" transform="translate(36.745 22.313)" fill="#fff"/>
    <path id="Caminho_4553" data-name="Caminho 4553" d="M230.237,139.013a14.82,14.82,0,0,0,.082,1.774H227.9c-.022-.543-.086-1.108-.086-1.651l-.061-.02.02.02a3.128,3.128,0,0,1-2.858,1.817c-2.442,0-3.172-1.817-3.172-3.986V130.04h2.587v6.447c0,1.65.458,2.339,1.543,2.339,1.378,0,1.774-1.253,1.774-2.629V130.04h2.588Z" transform="translate(38.09 22.338)" fill="#fff"/>
    <path id="Caminho_4554" data-name="Caminho 4554" d="M231.16,126.141h2.67v2.545h-2.67Zm.042,4.569h2.587v10.748H231.2Z" transform="translate(39.708 21.668)" fill="#fff"/>
    <path id="Caminho_4555" data-name="Caminho 4555" d="M244.479,125.856v13.812a13.98,13.98,0,0,0,.083,1.839h-2.42a14.634,14.634,0,0,1-.083-1.671H242a2.894,2.894,0,0,1-2.858,1.837c-2.672,0-3.777-2.547-3.777-5.53,0-3.506,1.4-5.552,3.715-5.552a2.886,2.886,0,0,1,2.774,1.712h.042v-6.447Zm-4.632,13.917c1.525,0,2.045-1.648,2.045-3.674,0-2.085-.585-3.609-2-3.609-1.439,0-1.939,1.4-1.939,3.547,0,2.484.4,3.736,1.9,3.736" transform="translate(40.429 21.619)" fill="#fff"/>
    <path id="Caminho_4556" data-name="Caminho 4556" d="M245.772,130.691a7.471,7.471,0,0,1,3.4-.794c3.338,0,4.111,1.626,4.111,4.32v4.694a13.558,13.558,0,0,0,.145,1.9h-2.337a5.387,5.387,0,0,1-.146-1.462h-.041a3.456,3.456,0,0,1-3,1.63,3.084,3.084,0,0,1-3.213-3.152c0-2.922,2.379-3.652,5.655-3.652h.521v-.4a1.847,1.847,0,0,0-2-2.044,4.946,4.946,0,0,0-2.942,1.044Zm5.093,4.861h-.23c-2.212,0-3.526.46-3.526,2.024a1.556,1.556,0,0,0,1.648,1.65c1.546,0,2.108-1.15,2.108-3.069Z" transform="translate(42.032 22.313)" fill="#fff"/>
    <path id="Caminho_4557" data-name="Caminho 4557" d="M254.08,131.838a15.048,15.048,0,0,0-.082-1.774h2.42c.021.543.083,1.106.083,1.651h.042A3.132,3.132,0,0,1,259.4,129.9c2.442,0,3.172,1.817,3.172,3.986v6.928h-2.587v-6.449c0-1.648-.417-2.337-1.482-2.337-1.356,0-1.835,1.15-1.835,2.524v6.262H254.08Z" transform="translate(43.631 22.313)" fill="#fff"/>
    <path id="Caminho_4558" data-name="Caminho 4558" d="M272.176,125.856v13.812a14.236,14.236,0,0,0,.082,1.839h-2.42a14.358,14.358,0,0,1-.083-1.671h-.062a2.9,2.9,0,0,1-2.858,1.837c-2.672,0-3.778-2.547-3.778-5.53,0-3.506,1.4-5.552,3.713-5.552a2.888,2.888,0,0,1,2.776,1.712h.041v-6.447Zm-4.633,13.917c1.523,0,2.045-1.648,2.045-3.674,0-2.085-.584-3.609-2-3.609-1.439,0-1.94,1.4-1.94,3.547,0,2.484.4,3.736,1.9,3.736" transform="translate(45.187 21.619)" fill="#fff"/>
    <path id="Caminho_4559" data-name="Caminho 4559" d="M277.352,129.9c2.19,0,4.715,1.15,4.715,5.53,0,4.509-2.525,5.552-4.715,5.552s-4.736-1.043-4.736-5.552c0-4.38,2.546-5.53,4.736-5.53m0,9.244c1.67,0,2.045-1.921,2.045-3.715s-.375-3.691-2.045-3.691-2.066,1.9-2.066,3.691.4,3.715,2.066,3.715" transform="translate(46.829 22.313)" fill="#fff"/>
    <path id="Caminho_4560" data-name="Caminho 4560" d="M295.92,125.856v13.812a14.188,14.188,0,0,0,.083,1.839h-2.419a13.974,13.974,0,0,1-.086-1.671h-.061a2.9,2.9,0,0,1-2.859,1.837c-2.672,0-3.777-2.547-3.777-5.53,0-3.506,1.4-5.552,3.713-5.552a2.889,2.889,0,0,1,2.776,1.712h.04v-6.447Zm-4.632,13.917c1.523,0,2.044-1.648,2.044-3.674,0-2.085-.584-3.609-2-3.609-1.438,0-1.94,1.4-1.94,3.547,0,2.484.4,3.736,1.9,3.736" transform="translate(49.266 21.619)" fill="#fff"/>
    <path id="Caminho_4561" data-name="Caminho 4561" d="M304.54,140.29a8.022,8.022,0,0,1-3.213.689c-3.465,0-4.966-2.484-4.966-5.383,0-3.215,1.69-5.7,4.423-5.7,2.315,0,4.3,1.357,4.3,5.739v.5h-6.219c0,1.837.73,2.942,2.733,2.942a4.276,4.276,0,0,0,2.817-.834Zm-1.962-5.782c0-1.9-.626-2.858-1.794-2.858-1.357,0-1.919,1.439-1.919,2.858Z" transform="translate(50.908 22.313)" fill="#fff"/>
    <path id="Caminho_4562" data-name="Caminho 4562" d="M316.344,133.219h4.716v7.617a8.679,8.679,0,0,1-3.944.751c-4.674,0-7.156-3.172-7.156-7.491s2.482-7.491,7.156-7.491a9.5,9.5,0,0,1,3.547.626l-.144,2.4a6.518,6.518,0,0,0-3.361-.9c-2.838,0-4.361,2.337-4.361,5.362,0,3.275,1.482,5.362,4.215,5.362a4.274,4.274,0,0,0,1.546-.272v-3.923h-2.214Z" transform="translate(53.244 21.748)" fill="#fff"/>
    <path id="Caminho_4563" data-name="Caminho 4563" d="M329.6,140.29a8.017,8.017,0,0,1-3.213.689c-3.463,0-4.966-2.484-4.966-5.383,0-3.215,1.691-5.7,4.425-5.7,2.314,0,4.3,1.357,4.3,5.739v.5h-6.219c0,1.837.73,2.942,2.734,2.942a4.276,4.276,0,0,0,2.817-.834Zm-1.962-5.782c0-1.9-.625-2.858-1.793-2.858-1.357,0-1.921,1.439-1.921,2.858Z" transform="translate(55.213 22.313)" fill="#fff"/>
    <path id="Caminho_4564" data-name="Caminho 4564" d="M330.586,131.838a14.253,14.253,0,0,0-.086-1.774h2.421c.021.543.084,1.106.084,1.651h.042a3.132,3.132,0,0,1,2.858-1.817c2.441,0,3.171,1.817,3.171,3.986v6.928h-2.587v-6.449c0-1.648-.416-2.337-1.481-2.337-1.357,0-1.837,1.15-1.837,2.524v6.262h-2.585Z" transform="translate(56.772 22.313)" fill="#fff"/>
    <path id="Caminho_4565" data-name="Caminho 4565" d="M340.88,128.269l2.588-.794v3.006h2.149v1.9h-2.149v5.571c0,1.148.416,1.482,1.167,1.482a2.021,2.021,0,0,0,.982-.231v1.837a3.979,3.979,0,0,1-1.733.355c-1.919,0-3-.876-3-3.131V132.38h-1.711v-1.9h1.711Z" transform="translate(58.261 21.897)" fill="#fff"/>
    <path id="Caminho_4566" data-name="Caminho 4566" d="M354.006,140.29a8.017,8.017,0,0,1-3.213.689c-3.464,0-4.967-2.484-4.967-5.383,0-3.215,1.692-5.7,4.425-5.7,2.315,0,4.3,1.357,4.3,5.739v.5h-6.22c0,1.837.731,2.942,2.735,2.942a4.27,4.27,0,0,0,2.816-.834Zm-1.962-5.782c0-1.9-.626-2.858-1.794-2.858-1.357,0-1.922,1.439-1.922,2.858Z" transform="translate(59.405 22.313)" fill="#fff"/>
  </g>
</svg>
