<svg viewBox="371.73693693693696 367.20000000000005 334.99549549549545 334.8" xml:space="preserve" version="1.1" xmlns:xlink="http://www.w3.org/1999/xlink" xmlns="http://www.w3.org/2000/svg" style="max-height: 500px" width="334.99549549549545" height="334.8">
<desc>Created with Fabric.js 5.2.4</desc>
<defs>
</defs>
<rect fill="transparent" height="100%" width="100%" y="0" x="0"/>
<g id="7deb4d8a-7e1e-45a9-8300-ab108e06ded4" transform="matrix(1 0 0 1 540 540)">
</g>
<g id="2f834312-1d10-4559-a83f-8f54cc8756eb" transform="matrix(1 0 0 1 540 540)">
<rect height="1080" width="1080" ry="0" rx="0" y="-540" x="-540" style="stroke: none; stroke-width: 1; stroke-dasharray: none; stroke-linecap: butt; stroke-dashoffset: 0; stroke-linejoin: miter; stroke-miterlimit: 4; fill: rgb(255,255,255); fill-rule: nonzero; opacity: 1; visibility: hidden;"/>
</g>
<g clip-path="url(#CLIPPATH_31)" transform="matrix(1 0 0 1 432.97 602.82)">
<clipPath id="CLIPPATH_31">
	<rect height="276.82" width="805" ry="0" rx="0" y="-138.41" x="-402.5" clip-path="url(#undefined)" id="Retângulo_1" transform="matrix(1 0 0 1 362.4 -62.82)"/>
</clipPath>
<path stroke-linecap="round" d="M 0 57.107 C 0.7419059099856938 67.11130091058742 2.5050800320880935 77.01349050700894 5.2620000000000005 86.65899999999999 C 13.91124131298049 90.96168957006682 21.802158718815015 96.64404176951727 28.625000000000014 103.48300000000006 C 44.06123486591224 118.77918278636747 53.31214001307443 139.23222514283145 54.605999999999995 160.92499999999995 C 62.54360892053406 167.32695158817296 71.12267322451031 172.88993859778256 80.2059999999999 177.52499999999998 L 80.206 166.311 C 80.20247828375086 116.2952738715235 47.723777966840196 72.07409354326985 -1.4210854715202004e-14 57.107" transform="translate(-40.1, -117.32)" style="stroke: none; stroke-width: 1; stroke-dasharray: none; stroke-linecap: butt; stroke-dashoffset: 0; stroke-linejoin: miter; stroke-miterlimit: 4; fill: rgb(255,255,255); fill-rule: nonzero; opacity: 1;"/>
</g>
<g clip-path="url(#CLIPPATH_32)" transform="matrix(1 0 0 1 459.85 583.75)">
<clipPath id="CLIPPATH_32">
	<rect height="276.82" width="805" ry="0" rx="0" y="-138.41" x="-402.5" clip-path="url(#undefined)" id="Retângulo_1" transform="matrix(1 0 0 1 335.52 -43.75)"/>
</clipPath>
<path stroke-linecap="round" d="M 5.421 35.432 C 2.9716841410444266 43.608248734576165 1.2407808387831558 51.9827022139874 0.24799999999997002 60.46000000000002 C 7.230579883781676 62.220804098995366 14.067936509491156 64.5141869687571 20.699999999999914 67.31999999999996 C 37.57362717154612 74.45026437184326 52.902533118400115 84.78851379421528 65.83600000000001 97.76100000000002 C 78.80768738112002 110.69627713618779 89.14579770769599 126.02599567471522 96.27699999999999 142.9 C 103.6720630967328 160.38297737349362 107.4633868250788 179.17837887633112 107.42399999999999 198.16099999999997 L 107.424 220.085 C 115.78766426786983 222.39137812682372 124.3390141973637 223.95313558635837 132.97799999999992 224.752 L 132.978 198.161 C 132.97009469252578 121.02835767593368 80.31982308000143 53.86053427749633 5.420999999999864 35.43199999999996" transform="translate(-66.61, -130.09)" style="stroke: none; stroke-width: 1; stroke-dasharray: none; stroke-linecap: butt; stroke-dashoffset: 0; stroke-linejoin: miter; stroke-miterlimit: 4; fill: rgb(255,255,255); fill-rule: nonzero; opacity: 1;"/>
</g>
<g clip-path="url(#CLIPPATH_33)" transform="matrix(1 0 0 1 495.88 559.62)">
<clipPath id="CLIPPATH_33">
	<rect height="276.82" width="805" ry="0" rx="0" y="-138.41" x="-402.5" clip-path="url(#undefined)" id="Retângulo_1" transform="matrix(1 0 0 1 301.12 -19.62)"/>
</clipPath>
<path stroke-linecap="round" d="M 159.441 140.964 C 148.36740755119024 114.74475449953339 132.30978067203165 90.92423190522302 112.15899999999993 70.82399999999993 C 92.05810332134027 50.674024972058895 68.23774805328651 34.61651088902329 42.019000000000105 23.542000000000044 C 35.159225425943866 20.640216907701472 28.156928184427464 18.08761589230027 21.039000000000158 15.894000000000062 C 15.557383349324027 22.92543816415911 10.722072675539817 30.437623951733467 6.591999999999988 38.33900000000004 C 89.892 60.586 151.24 136.564 151.24 226.871 L 151.24 253.46200000000002 C 159.87898651470672 252.66314077340968 168.4303368995245 251.10138323071797 176.794 248.79500000000002 L 176.794 226.871 C 176.84867910421363 197.35944592827622 170.94650961234044 168.14042474817197 159.44099999999995 140.96399999999994" transform="translate(-91.69, -134.68)" style="stroke: none; stroke-width: 1; stroke-dasharray: none; stroke-linecap: butt; stroke-dashoffset: 0; stroke-linejoin: miter; stroke-miterlimit: 4; fill: rgb(255,255,255); fill-rule: nonzero; opacity: 1;"/>
</g>
<g clip-path="url(#CLIPPATH_34)" transform="matrix(1 0 0 1 538.57 532.31)">
<clipPath id="CLIPPATH_34">
	<rect height="276.82" width="805" ry="0" rx="0" y="-138.41" x="-402.5" clip-path="url(#undefined)" id="Retângulo_1" transform="matrix(1 0 0 1 256.8 7.69)"/>
</clipPath>
<path stroke-linecap="round" d="M 128.572 56.607 C 104.86008723851893 32.83649860917967 76.96494167179011 13.64612739368436 46.287999999999926 0 C 37.27908689854688 4.868046320594224 28.80024853093157 10.658791306919387 20.987999999999957 17.279000000000096 C 115.7 52.271 183.219 143.361 183.219 250.227 L 183.219 261.443 C 192.26432872196548 256.82645147068905 200.80951773971552 251.28950409263868 208.71900000000005 244.91999999999996 C 208.1143059485054 210.09488839215624 200.82416368096906 175.71029449138564 187.24499999999995 143.6359999999999 C 173.5038075387326 111.10315523591183 153.57791437948305 81.54713822842655 128.573 56.60799999999989" transform="translate(-114.85, -130.72)" style="stroke: none; stroke-width: 1; stroke-dasharray: none; stroke-linecap: butt; stroke-dashoffset: 0; stroke-linejoin: miter; stroke-miterlimit: 4; fill: rgb(255,255,255); fill-rule: nonzero; opacity: 1;"/>
</g>
<g clip-path="url(#CLIPPATH_35)" transform="matrix(1 0 0 1 647.03 602.82)">
<clipPath id="CLIPPATH_35">
	<rect height="276.82" width="805" ry="0" rx="0" y="-138.41" x="-402.5" clip-path="url(#undefined)" id="Retângulo_1" transform="matrix(1 0 0 1 148.33 -62.82)"/>
</clipPath>
<path stroke-linecap="round" d="M 138.264 103.483 C 145.0868297061298 96.64402817507491 152.97774946355707 90.96167428221202 161.62699999999998 86.65900000000005 C 164.38331154095422 77.01343538564106 166.14581654742565 67.11123995764807 166.887 57.10700000000008 C 119.16602328161623 72.07441316248769 86.68984270677088 116.29385105242676 86.68700000000001 166.30700000000007 L 86.687 177.52300000000002 C 95.8189171817458 172.86099078776328 104.44100083124643 167.26151266688422 112.41400000000006 160.815 C 113.6907427791896 139.17482717045436 122.89437483648695 118.76329088309122 138.267 103.47900000000004" transform="translate(-126.79, -117.32)" style="stroke: none; stroke-width: 1; stroke-dasharray: none; stroke-linecap: butt; stroke-dashoffset: 0; stroke-linejoin: miter; stroke-miterlimit: 4; fill: rgb(255,255,255); fill-rule: nonzero; opacity: 1;"/>
</g>
<g clip-path="url(#CLIPPATH_36)" transform="matrix(1 0 0 1 620.16 583.75)">
<clipPath id="CLIPPATH_36">
	<rect height="276.82" width="805" ry="0" rx="0" y="-138.41" x="-402.5" clip-path="url(#undefined)" id="Retângulo_1" transform="matrix(1 0 0 1 175.21 -43.75)"/>
</clipPath>
<path stroke-linecap="round" d="M 90.721 198.161 C 90.69926451077629 133.13286486140026 134.85608298178352 76.40124709788157 197.9 60.46000000000001 C 196.90770734962675 51.98262333797717 195.17679531498956 43.60812760959914 192.727 35.432 C 117.82698543173287 53.85936314830424 65.1752451009578 121.02748052276867 65.16699999999997 198.161 L 65.167 224.75 C 73.8061526505917 223.95235130158227 82.35760938094427 222.3905743367018 90.72099999999993 220.08300000000003 Z" transform="translate(-131.53, -130.09)" style="stroke: none; stroke-width: 1; stroke-dasharray: none; stroke-linecap: butt; stroke-dashoffset: 0; stroke-linejoin: miter; stroke-miterlimit: 4; fill: rgb(255,255,255); fill-rule: nonzero; opacity: 1;"/>
</g>
<g clip-path="url(#CLIPPATH_37)" transform="matrix(1 0 0 1 585.76 558)">
<clipPath id="CLIPPATH_37">
	<rect height="276.82" width="805" ry="0" rx="0" y="-138.41" x="-402.5" clip-path="url(#undefined)" id="Retângulo_1" transform="matrix(1 0 0 1 209.61 -19.62)"/>
</clipPath>
<path stroke-linecap="round" d="M 69.2 226.871 C 69.2 136.563 130.551 60.58600000000001 213.84500000000003 38.339 C 209.71736101370684 30.436655971574492 204.88261971007574 22.924314776697415 199.40000000000003 15.894000000000048 C 106.7726712832556 44.367764115153626 43.5808732244754 129.96603301260708 43.64900000000003 226.8709999999999 L 43.649 248.79500000000002 C 52.01169106405083 251.10077363587862 60.562050404189584 252.6618642515785 69.19999999999993 253.46 Z" transform="translate(-128.75, -134.68)" style="stroke: none; stroke-width: 1; stroke-dasharray: none; stroke-linecap: butt; stroke-dashoffset: 0; stroke-linejoin: miter; stroke-miterlimit: 4; fill: rgb(255,255,255); fill-rule: nonzero; opacity: 1;"/>
</g>
<g clip-path="url(#CLIPPATH_38)" transform="matrix(1 0 0 1 541.4 532.31)">
<clipPath id="CLIPPATH_38">
	<rect height="276.82" width="805" ry="0" rx="0" y="-138.41" x="-402.5" clip-path="url(#undefined)" id="Retângulo_1" transform="matrix(1 0 0 1 253.98 7.69)"/>
</clipPath>
<path stroke-linecap="round" d="M 47.705 250.227 C 47.705 143.36200000000002 115.227 52.271000000000015 209.933 17.278999999999996 C 202.12140811372808 10.658400452862487 193.6428590400068 4.867624159537447 184.63399999999996 -2.842170943040401e-14 C 87.56956931185434 43.20127906686162 24.23257477101376 138.62475131490788 22.11700000000002 244.84800000000004 C 30.0509391931954 251.2476724008427 38.62596033080598 256.808969719064 47.704999999999984 261.443 Z" transform="translate(-116.03, -130.72)" style="stroke: none; stroke-width: 1; stroke-dasharray: none; stroke-linecap: butt; stroke-dashoffset: 0; stroke-linejoin: miter; stroke-miterlimit: 4; fill: rgb(255,255,255); fill-rule: nonzero; opacity: 1;"/>
</g>
</svg>