<svg xmlns="http://www.w3.org/2000/svg" width="182" height="182" viewBox="0 0 182 182">
  <g id="Grupo_95597" data-name="Grupo 95597" transform="translate(-106 -178)">
    <circle id="Elipse_801" data-name="Elipse 801" cx="91" cy="91" r="91" transform="translate(106 178)" fill="#434343"/>
    <g id="Grupo_95358" data-name="Grupo 95358" transform="translate(111.5 193)">
      <path id="Caminho_42372" data-name="Caminho 42372" d="M164.815,134.155c-73.9-30.046-118.159-38.009-143.5-25.819C10.932,113.33,3.839,121.991.229,134.08a.121.121,0,0,1-.02.042.114.114,0,0,1-.035.031.119.119,0,0,1-.045.015.124.124,0,0,1-.047,0,.128.128,0,0,1-.042-.022.13.13,0,0,1-.029-.037A.12.12,0,0,1,0,134.012c3.63-12.154,10.766-20.864,21.209-25.887,13.819-6.648,33.409-7.209,59.888-1.713,22.123,4.59,49.535,13.594,83.8,27.526a.1.1,0,0,1,.04.025.118.118,0,0,1,.027.038.14.14,0,0,1,.01.045.118.118,0,0,1-.009.046.12.12,0,0,1-.065.065.1.1,0,0,1-.045.008.1.1,0,0,1-.046-.01Z" fill="#c6c6c6"/>
      <path id="Caminho_42373" data-name="Caminho 42373" d="M102.239,17.69a32.99,32.99,0,0,0,.9,3.344l9.641-.817s.757-7.57-.6-8.035c-.943-.323-1.418,1.966-1.418,1.966-.206-1.265-.52-2.264-.972-2.418-.942-.323-1.406,1.965-1.406,1.965s-.248-9.987-2.037-9.654c-1.486.276-.687,9.719-.687,9.719s-2.066-8.694-3.737-8.2c-1.06.313.9,9.056.9,9.056" fill="#fff"/>
      <path id="Caminho_42374" data-name="Caminho 42374" d="M103.138,21.152a.116.116,0,0,1-.068-.022.118.118,0,0,1-.043-.058,33.025,33.025,0,0,1-.9-3.358.115.115,0,0,1,.016-.088.118.118,0,0,1,.163-.034.115.115,0,0,1,.05.074,33.01,33.01,0,0,0,.868,3.243l9.452-.8c.293-3.006.39-7.5-.531-7.815a.412.412,0,0,0-.358.036c-.488.279-.82,1.425-.907,1.843a.116.116,0,0,1-.118.093.117.117,0,0,1-.074-.029.119.119,0,0,1-.039-.07c-.3-1.862-.69-2.257-.894-2.328a.41.41,0,0,0-.357.036c-.486.279-.813,1.423-.9,1.841a.1.1,0,0,1-.015.041.111.111,0,0,1-.028.032.115.115,0,0,1-.039.019.111.111,0,0,1-.043,0,.115.115,0,0,1-.075-.037.118.118,0,0,1-.032-.077c0-.083-.222-8.344-1.576-9.444a.386.386,0,0,0-.323-.1c-1,.187-.9,5.984-.591,9.593a.118.118,0,0,1-.1.125.117.117,0,0,1-.133-.088c-.017-.071-1.72-7.176-3.228-8.052a.449.449,0,0,0-.174-.071.444.444,0,0,0-.188.008c-.6.176.03,4.673.981,8.918a.118.118,0,0,1,0,.046.112.112,0,0,1-.017.043.12.12,0,0,1-.031.033.122.122,0,0,1-.042.019.116.116,0,0,1-.14-.089c-.331-1.478-1.928-8.868-.818-9.2a.679.679,0,0,1,.546.085c1.2.7,2.438,4.8,3.014,6.931-.167-2.681-.368-8.3.877-8.537a.613.613,0,0,1,.513.146c1.2.974,1.547,6.757,1.636,8.866a2.4,2.4,0,0,1,.806-1.262.636.636,0,0,1,.268-.089.644.644,0,0,1,.281.035c.4.138.717.791.956,1.99a2.744,2.744,0,0,1,.884-1.483.644.644,0,0,1,.55-.054c1.4.482.757,7.374.679,8.158a.117.117,0,0,1-.035.072.115.115,0,0,1-.072.033l-9.641.817Z" fill="#123352"/>
      <path id="Caminho_42375" data-name="Caminho 42375" d="M102.24,17.69c-.324-1.559-.5-3.227-.026-3.952.743-1.127,4.856-1.379,5.373-.411.454.853-1.206,2.122-2.439,2.916,0,0,1.867.386,1.634,2.082" fill="#fff"/>
      <path id="Caminho_42376" data-name="Caminho 42376" d="M106.766,18.444a.115.115,0,0,1-.043-.015.12.12,0,0,1-.035-.031.126.126,0,0,1-.02-.041.1.1,0,0,1,0-.046c.215-1.57-1.47-1.937-1.541-1.952a.116.116,0,0,1-.06-.033.127.127,0,0,1-.032-.061.122.122,0,0,1,.008-.068.113.113,0,0,1,.044-.052c1.832-1.178,2.706-2.185,2.4-2.762-.156-.292-.762-.49-1.623-.53-1.368-.067-3.122.3-3.551.951-.377.571-.362,1.908.043,3.862a.118.118,0,0,1,0,.046.11.11,0,0,1-.017.042.108.108,0,0,1-.032.033.12.12,0,0,1-.042.018.119.119,0,0,1-.046,0,.117.117,0,0,1-.042-.017.122.122,0,0,1-.033-.032.11.11,0,0,1-.018-.042c-.424-2.046-.427-3.406-.008-4.04.493-.748,2.3-1.121,3.755-1.056.563.027,1.549.147,1.819.654.46.863-.928,2.045-2.266,2.931a1.969,1.969,0,0,1,1.474,2.139.12.12,0,0,1-.044.078A.118.118,0,0,1,106.766,18.444Z" fill="#123352"/>
      <path id="Caminho_42377" data-name="Caminho 42377" d="M108.383,13.693s.036,1.92.841,2.062c1.28.225,1.519-1.723,1.519-1.723" fill="#fff"/>
      <path id="Caminho_42378" data-name="Caminho 42378" d="M109.2,15.871c-.875-.154-.934-1.969-.937-2.175a.1.1,0,0,1,.008-.045.117.117,0,0,1,.024-.039.123.123,0,0,1,.038-.026.114.114,0,0,1,.045-.01h0a.117.117,0,0,1,.117.115c.01.507.162,1.847.745,1.948.833.148,1.28-.8,1.382-1.622a.112.112,0,0,1,.015-.043.111.111,0,0,1,.03-.034.116.116,0,0,1,.163.022.117.117,0,0,1,.024.086C110.738,15.017,110.2,16.044,109.2,15.871Z" fill="#123352"/>
      <path id="Caminho_42379" data-name="Caminho 42379" d="M110.742,14.085s.034,1.92.772,2.062c1.175.225,1.394-1.723,1.394-1.723" fill="#fff"/>
      <path id="Caminho_42380" data-name="Caminho 42380" d="M111.494,16.262c-.809-.155-.863-1.969-.867-2.175a.116.116,0,0,1,.008-.045.12.12,0,0,1,.062-.064.122.122,0,0,1,.164.106c.009.508.148,1.847.677,1.948.779.148,1.162-.843,1.256-1.62a.1.1,0,0,1,.013-.044.111.111,0,0,1,.029-.035.113.113,0,0,1,.041-.021.114.114,0,0,1,.046,0,.119.119,0,0,1,.044.014.131.131,0,0,1,.035.03.107.107,0,0,1,.021.041.118.118,0,0,1,0,.046C112.92,15.366,112.432,16.442,111.494,16.262Z" fill="#123352"/>
      <path id="Caminho_42381" data-name="Caminho 42381" d="M134.822,147.423l-1.222.264c-.057.014-.113.024-.175.034a8.565,8.565,0,0,1-8.864-3.81l-.433-.67-2.624-4.116-4.336-.061V118.355l4.717-1.335,5.962-1.645a.7.7,0,0,1,.291-.02.721.721,0,0,1,.489.295.728.728,0,0,1,.118.267c.931,4.277,5.6,25.721,6.632,30.653a.734.734,0,0,1-.1.54A.726.726,0,0,1,134.822,147.423Z" fill="#2ed153"/>
      <path id="Caminho_42382" data-name="Caminho 42382" d="M127.848,115.373a.722.722,0,0,1,.9.544c.931,4.275,5.6,25.724,6.632,30.652a.723.723,0,0,1-.552.853l-1.223.265c-.06.013-.115.025-.175.034L127.2,121.452c-5.039.973-5.277-4.3-5.277-4.3l-.038-.131Z" fill="#25b546"/>
      <path id="Caminho_42383" data-name="Caminho 42383" d="M125.722,142.541a4.327,4.327,0,0,1,5.1,5.286,8.59,8.59,0,0,1-6.264-3.915l-.428-.669A4.262,4.262,0,0,1,125.722,142.541Z" fill="#25b546"/>
      <path id="Caminho_42384" data-name="Caminho 42384" d="M54.659,151.176a.748.748,0,0,1-.2.557.732.732,0,0,1-.248.174.753.753,0,0,1-.3.061c-4.528.01-27.245.054-32.456.02a.751.751,0,0,1-.742-.748v-1.3c0-.063,0-.122.005-.185a8.9,8.9,0,0,1,5.8-8.179l.77-.289,4.743-1.766H54.015l.288,5.235Z" fill="#2ed153"/>
      <path id="Caminho_42385" data-name="Caminho 42385" d="M54.659,151.176a.753.753,0,0,1-.044.3.744.744,0,0,1-.159.257.744.744,0,0,1-.544.235c-4.528.01-27.245.054-32.456.02a.751.751,0,0,1-.742-.748v-1.3c0-.063,0-.122.005-.185l27.934-.568c.122-5.337,5.509-4.422,5.509-4.422l.141-.01Z" fill="#25b546"/>
      <path id="Caminho_42386" data-name="Caminho 42386" d="M27.648,143.055a4.479,4.479,0,0,1-6.464,4.026,8.93,8.93,0,0,1,5.333-5.508l.77-.288A4.448,4.448,0,0,1,27.648,143.055Z" fill="#25b546"/>
      <path id="Caminho_42387" data-name="Caminho 42387" d="M95.4,94.878s-3.135,8.6-15.235-1,10.646-8.135,13.506-5.535S95.4,94.878,95.4,94.878Z" fill="#25b546"/>
      <path id="Caminho_42388" data-name="Caminho 42388" d="M85.235,106.643c-8.966,3.768-14.731,4.349-18.606,4.033a38.579,38.579,0,0,1-6.206-1.262c-1.413-.269-2.258.037-3.222,2.119-2.824,6.1-3.343,27.987-3.343,27.987H32.033s-1.112-38.482,8.595-46.3,43.429-2.949,43.429-2.949Z" fill="#fff"/>
      <path id="Caminho_42389" data-name="Caminho 42389" d="M53.857,139.639H32.032a.119.119,0,0,1-.082-.033.12.12,0,0,1-.035-.082c-.011-.385-1-38.629,8.639-46.391s43.181-3.022,43.519-2.973a.117.117,0,0,1,.1.108l1.179,16.368a.117.117,0,0,1-.071.118c-7.46,3.134-13.565,4.456-18.661,4.041a24.392,24.392,0,0,1-4.79-.911c-.542-.148-1.011-.276-1.428-.353-1.335-.254-2.138-.011-3.095,2.053-2.78,6-3.327,27.722-3.332,27.94a.117.117,0,0,1-.01.045.122.122,0,0,1-.026.038.126.126,0,0,1-.083.033Zm-21.71-.235h21.6c.047-1.725.655-22.1,3.349-27.92,1.016-2.193,1.927-2.455,3.35-2.185.426.078.9.208,1.446.357a24.2,24.2,0,0,0,4.748.9c5.041.41,11.084-.895,18.473-3.992L83.943,90.379C81.967,90.1,50.008,85.821,40.7,93.315c-9.289,7.48-8.607,43.76-8.552,46.089Z" fill="#123352"/>
      <path id="Caminho_42390" data-name="Caminho 42390" d="M66.628,110.677a38.665,38.665,0,0,1-6.207-1.263A33.688,33.688,0,0,1,63.8,97.878Z" fill="#123352"/>
      <path id="Caminho_42391" data-name="Caminho 42391" d="M65.554,88.778s-9.113,35.463,5.4,46.674c8.3,6.415,46.214,3.611,46.214,3.611l.085-20.568s-23,.412-26.283-.421c-12.369-3.136,4.414-10.027-2.757-29.3" fill="#fff"/>
      <path id="Caminho_42392" data-name="Caminho 42392" d="M99.424,139.775c-11.1,0-24.095-.8-28.54-4.23-7.536-5.823-8.614-18.245-8.189-27.64a106.486,106.486,0,0,1,2.747-19.157.117.117,0,0,1,.02-.042.116.116,0,0,1,.123-.043.118.118,0,0,1,.084.143,106.241,106.241,0,0,0-2.739,19.112c-.421,9.339.641,21.68,8.1,27.44,7.956,6.145,43.775,3.752,46.025,3.593l.084-20.339c-1.989.033-23.019.379-26.193-.427-2.479-.628-3.9-1.441-4.475-2.557-.763-1.483-.036-3.354.969-5.944,1.715-4.417,4.306-11.093.67-20.868a.118.118,0,0,1,.069-.151.119.119,0,0,1,.151.069c3.669,9.858,1.058,16.585-.67,21.036-.983,2.532-1.694,4.361-.979,5.751.541,1.051,1.915,1.826,4.324,2.437,3.231.819,26.021.42,26.252.416a.088.088,0,0,1,.085.034.13.13,0,0,1,.025.039.112.112,0,0,1,.008.045l-.085,20.569a.116.116,0,0,1-.108.117C117,139.194,108.908,139.775,99.424,139.775Z" fill="#123352"/>
      <path id="Caminho_42393" data-name="Caminho 42393" d="M120.165,37.944a31.608,31.608,0,0,1-7.958,21.533,51.011,51.011,0,0,0-10,16.825L95.4,94.879a6.526,6.526,0,0,0-6.056-2.415c-7.365,1.269-13.492,3.167-22.729-1.521-4.843-2.458-17.263-1.122-17.263-1.122.79-7.841,2.907-14.628,7.265-24.062q-1.814-.816-3.493-1.776a41.73,41.73,0,0,1-19.464-25.56,3.255,3.255,0,0,1,1.524-3.7l9.576-5.393a1.892,1.892,0,0,1,2.659.9C61.865,63.275,88.312,53.563,96.632,48.311c6.936-4.379,5.952-16.764,3.2-27.568l15.927-1.615A41.839,41.839,0,0,1,120.165,37.944Z" fill="#2ed153"/>
      <path id="Caminho_42394" data-name="Caminho 42394" d="M76.755,33.008c-2.124.011-6.771,2.559-4.884,10.02s8.056-8.5,8.056-8.5A5.292,5.292,0,0,0,76.755,33.008Z" fill="#009d24"/>
      <path id="Caminho_42395" data-name="Caminho 42395" d="M71.523,41.81c.2-5.689,4.522-6.041,7.9-4.681A7.751,7.751,0,0,1,83.893,46a6.106,6.106,0,0,1-.9,2l-1.084,5.523L76.951,57.69l-1.613-4,1.011-3.648.024.007c0-.005-.014-.006-.024-.011-3.869-.512-4.719-3.428-4.828-5.417C71.485,43.919,71.523,41.81,71.523,41.81Z" fill="#fff"/>
      <path id="Caminho_42396" data-name="Caminho 42396" d="M76.843,57.732l-1.613-4a.117.117,0,0,1,0-.076l.976-3.523c-3.941-.587-4.7-3.694-4.8-5.507-.038-.7,0-2.733,0-2.821v0c.079-2.261.8-3.852,2.142-4.727,1.47-.959,3.628-.981,5.92-.058a7.875,7.875,0,0,1,4.538,9.013,6.237,6.237,0,0,1-.9,2.018l-1.079,5.5a.118.118,0,0,1-.04.067l-4.957,4.164a.117.117,0,0,1-.183-.049Zm-1.381-4.049L77,57.494l4.8-4.032c1.147-5.828,1.067-5.486,1.095-5.527a6.006,6.006,0,0,0,.884-1.962,7.635,7.635,0,0,0-4.4-8.736c-2.22-.894-4.3-.881-5.7.037-1.273.832-1.959,2.358-2.035,4.538,0,.055-.037,2.118,0,2.8.1,1.761.837,4.792,4.725,5.306a.114.114,0,0,1,.044.015.118.118,0,0,1,.034.208Z" fill="#123352"/>
      <path id="Caminho_42397" data-name="Caminho 42397" d="M83.15,47.476c5.967.709,5.4-11.754-1.868-14.589-6.533-2.548-6.165,3.688-6.165,3.688C85.1,41.5,78.18,43.921,83.15,47.476Z" fill="#009d24"/>
      <path id="Caminho_42398" data-name="Caminho 42398" d="M80.4,45.242A1.906,1.906,0,1,1,81.515,47.7" fill="#fff"/>
      <path id="Caminho_42399" data-name="Caminho 42399" d="M81.473,47.81a.117.117,0,0,1,.084-.218,1.794,1.794,0,1,0-1.046-2.308.118.118,0,0,1-.024.04.117.117,0,0,1-.082.039.118.118,0,0,1-.046-.007.115.115,0,0,1-.039-.024.117.117,0,0,1-.027-.038.118.118,0,0,1,0-.091,2.024,2.024,0,1,1,1.183,2.61Z" fill="#123352"/>
      <path id="Caminho_42400" data-name="Caminho 42400" d="M73.451,42.191a.507.507,0,1,1-.006-.384A.5.5,0,0,1,73.451,42.191Z" fill="#123352"/>
      <path id="Caminho_42401" data-name="Caminho 42401" d="M71.934,40.867a1.482,1.482,0,0,1,2.1.034" fill="#fff"/>
      <path id="Caminho_42402" data-name="Caminho 42402" d="M73.949,40.983a1.355,1.355,0,0,0-.96-.417h-.023a1.356,1.356,0,0,0-.951.386.117.117,0,0,1-.163-.168,1.566,1.566,0,0,1,1.139-.451,1.588,1.588,0,0,1,1.125.489.119.119,0,0,1,.029.039.118.118,0,0,1-.065.161.117.117,0,0,1-.094-.006.118.118,0,0,1-.037-.031Z" fill="#123352"/>
      <path id="Caminho_42403" data-name="Caminho 42403" d="M77.909,42.19a.507.507,0,1,1-.006-.384A.5.5,0,0,1,77.909,42.19Z" fill="#123352"/>
      <path id="Caminho_42404" data-name="Caminho 42404" d="M78.408,40.983a1.366,1.366,0,0,0-1.933-.032.117.117,0,0,1-.163-.168,1.6,1.6,0,0,1,2.265.037.118.118,0,0,1,.005.173.117.117,0,0,1-.041.026.116.116,0,0,1-.048.007.117.117,0,0,1-.084-.043Z" fill="#123352"/>
      <path id="Caminho_42405" data-name="Caminho 42405" d="M76.349,50.042a4.707,4.707,0,0,0,2.483-.189,6.855,6.855,0,0,1-2.867,1.541Z" fill="#123352"/>
      <path id="Caminho_42406" data-name="Caminho 42406" d="M75.852,51.363l.384-1.352a.118.118,0,0,1,.02-.041.116.116,0,0,1,.123-.041,4.643,4.643,0,0,0,2.416-.188.117.117,0,0,1,.139.053.118.118,0,0,1-.024.147A7.015,7.015,0,0,1,76,51.509a.117.117,0,0,1-.114-.031.117.117,0,0,1-.029-.115Zm.579-1.181-.3,1.045a6.7,6.7,0,0,0,2.192-1.111A4.8,4.8,0,0,1,76.431,50.182Z" fill="#123352"/>
      <path id="Caminho_42407" data-name="Caminho 42407" d="M74.658,43.813a.678.678,0,0,1-.545-.211c-.148-.237.142-.422.335-.544.569-.364.779-.851.569-1.284a.118.118,0,0,1-.007-.091.118.118,0,0,1,.023-.04.117.117,0,0,1,.037-.028.118.118,0,0,1,.045-.012.117.117,0,0,1,.113.067,1.232,1.232,0,0,1-.632,1.572c-.1.063-.28.179-.284.231a.5.5,0,0,0,.353.1,2.716,2.716,0,0,0,.518-.07.118.118,0,0,1,.091.014.119.119,0,0,1,.034.032.118.118,0,0,1-.032.167.115.115,0,0,1-.044.017A2.509,2.509,0,0,1,74.658,43.813Z" fill="#123352"/>
      <path id="Caminho_42408" data-name="Caminho 42408" d="M83.223,34.422a3.162,3.162,0,0,0,1.818-1.491,14.629,14.629,0,0,0,2.5-7.214,5.546,5.546,0,0,1,.579-2.748,2.675,2.675,0,0,1,1.828-1.113,3.761,3.761,0,0,1,2.14.358,6.365,6.365,0,0,1,2.7,2.674,19.026,19.026,0,0,1,1.444,3.579l1.46,4.468a13.235,13.235,0,0,1,.747,3.125,4.453,4.453,0,0,1-.786,3.049,2.7,2.7,0,0,1-2.843,1.013,3.838,3.838,0,0,1-2.006-2.052,8.545,8.545,0,0,0-1.554-2.485,4.381,4.381,0,0,0-3.844-.845,12.963,12.963,0,0,0-3.724,1.648" fill="#009d24"/>
      <path id="Caminho_42409" data-name="Caminho 42409" d="M86.656,35.273a2.737,2.737,0,1,1-.8-1.937A2.745,2.745,0,0,1,86.656,35.273Z" fill="#009d24"/>
      <path id="Caminho_42410" data-name="Caminho 42410" d="M76.9,45.281a2.861,2.861,0,0,1-.293,1.487,1.445,1.445,0,0,1-1.478.685,1.516,1.516,0,0,1-.966-.421,2.708,2.708,0,0,1-.722-1.438.279.279,0,0,1,.385-.313,2.592,2.592,0,0,0,2.62-.211.282.282,0,0,1,.453.211Z" fill="#123352"/>
      <path id="Caminho_42411" data-name="Caminho 42411" d="M75.964,46.593a.85.85,0,0,1-.871.4.892.892,0,0,1-.569-.248.851.851,0,0,1,.871-.4A.893.893,0,0,1,75.964,46.593Z" fill="#fff"/>
      <path id="Caminho_42412" data-name="Caminho 42412" d="M69.391,29.855l-8.5,26.41a2.2,2.2,0,0,1-2.78,1.424l-1.231-.4a2.207,2.207,0,0,0,2.78-1.424l8.5-26.411a2.218,2.218,0,0,0-1.424-2.79l1.231.4a2.219,2.219,0,0,1,1.425,2.79Z" fill="#25b546"/>
      <path id="Caminho_42413" data-name="Caminho 42413" d="M58.071,57.8l-1.23-.4a.117.117,0,0,1,.072-.224h0a2.089,2.089,0,0,0,2.631-1.349l8.5-26.41A2.1,2.1,0,0,0,66.7,26.777a.118.118,0,0,1,.072-.224l1.231.4a2.338,2.338,0,0,1,1.5,2.938L61,56.3a2.321,2.321,0,0,1-2.929,1.5Zm-.186-.307.257.083a2.091,2.091,0,0,0,2.633-1.348l8.5-26.41a2.1,2.1,0,0,0-1.349-2.642l-.26-.084a2.338,2.338,0,0,1,.6,2.4L59.77,55.9a2.324,2.324,0,0,1-1.883,1.592Z" fill="#25b546"/>
      <path id="Caminho_42414" data-name="Caminho 42414" d="M68.159,29.455l-8.5,26.407a2.209,2.209,0,0,1-2.78,1.428L41.55,52.329a2.218,2.218,0,0,1-1.424-2.787l8.5-26.406a2.209,2.209,0,0,1,2.78-1.428l15.33,4.96a2.218,2.218,0,0,1,1.424,2.787Z" fill="#fff"/>
      <path id="Caminho_42415" data-name="Caminho 42415" d="M57.558,57.518a2.329,2.329,0,0,1-.718-.114l-15.329-4.96a2.336,2.336,0,0,1-1.5-2.936l8.5-26.407a2.323,2.323,0,0,1,2.929-1.5l15.329,4.96a2.337,2.337,0,0,1,1.5,2.937L59.77,55.9a2.329,2.329,0,0,1-2.212,1.617ZM48.736,23.172l-8.5,26.407a2.1,2.1,0,0,0,1.348,2.641l15.329,4.96a2.092,2.092,0,0,0,2.634-1.352l8.5-26.406A2.1,2.1,0,0,0,66.7,26.781L51.371,21.82a2.092,2.092,0,0,0-2.635,1.352Z" fill="#123352"/>
      <path id="Caminho_42416" data-name="Caminho 42416" d="M65.361,31.968a1.162,1.162,0,1,1,.054-.451A1.161,1.161,0,0,1,65.361,31.968Z" fill="#484848"/>
      <path id="Caminho_42417" data-name="Caminho 42417" d="M63.652,28.885a.822.822,0,1,1,.038-.319A.82.82,0,0,1,63.652,28.885Z" fill="#484848"/>
      <path id="Caminho_42418" data-name="Caminho 42418" d="M62.177,33.467a.822.822,0,1,1,.038-.319A.82.82,0,0,1,62.177,33.467Z" fill="#484848"/>
      <path id="Caminho_42419" data-name="Caminho 42419" d="M46.6,29.153s-.76-.123-3.579,1.589c-3.626,2.2-7.5,3.9-7.6,6.273-.119,2.892,8.666,8.92,10.412,5.007,0,0,1.746.8,1.981-1.679,0,0,2.487.015,1.734-1.85a1.579,1.579,0,0,0,1.373-1.057c.742-2.432-6.364-1.261-5.624-3.689C45.874,31.88,46.6,29.153,46.6,29.153Z" fill="#fff"/>
      <path id="Caminho_42420" data-name="Caminho 42420" d="M43.695,43.424a5.117,5.117,0,0,1-1.169-.149c-3.251-.766-7.3-4.278-7.215-6.264.1-2.455,3.975-4.133,7.653-6.369,2.826-1.715,3.628-1.609,3.658-1.6a.118.118,0,0,1,.094.147c-.007.027-.737,2.75-1.3,4.6a.787.787,0,0,0,.049.663c.34.569,1.526.8,2.673,1.031,1.424.282,3.326.6,2.9,2a1.659,1.659,0,0,1-1.324,1.119,1.265,1.265,0,0,1-.081,1.157,2.3,2.3,0,0,1-1.708.711A2.036,2.036,0,0,1,47.1,42.1a1.489,1.489,0,0,1-1.2.074A2.266,2.266,0,0,1,43.695,43.424ZM46.449,29.28a10.338,10.338,0,0,0-3.362,1.563c-3.62,2.2-7.446,3.873-7.541,6.178-.078,1.9,3.866,5.279,7.034,6.025,1.105.259,2.548.286,3.153-1.071a.117.117,0,0,1,.111-.069.116.116,0,0,1,.045.01,1.331,1.331,0,0,0,1.1-.023,1.9,1.9,0,0,0,.72-1.562.117.117,0,0,1,.117-.106c-.006,0,1.206,0,1.618-.612a1.119,1.119,0,0,0,.006-1.077.118.118,0,0,1,.009-.106.117.117,0,0,1,.091-.055,1.448,1.448,0,0,0,1.267-.974.79.79,0,0,0-.049-.665c-.341-.571-1.527-.806-2.674-1.032-1.252-.247-2.435-.482-2.828-1.142a1.024,1.024,0,0,1-.072-.852c.487-1.587,1.095-3.825,1.257-4.431Z" fill="#123352"/>
      <path id="Caminho_42421" data-name="Caminho 42421" d="M46.332,37.375a6.288,6.288,0,0,0,3.222,1.118Z" fill="#fff"/>
      <path id="Caminho_42422" data-name="Caminho 42422" d="M49.555,38.61a5.956,5.956,0,0,1-3.286-1.136.118.118,0,0,1-.039-.165.12.12,0,0,1,.033-.034.117.117,0,0,1,.133,0,6.211,6.211,0,0,0,3.161,1.1.117.117,0,0,1,0,.235Z" fill="#123352"/>
      <path id="Caminho_42423" data-name="Caminho 42423" d="M45,38.942s1.827,1.578,2.827,1.4Z" fill="#fff"/>
      <path id="Caminho_42424" data-name="Caminho 42424" d="M44.919,39.032a.117.117,0,0,1,.153-.178c.018.015,1.795,1.542,2.729,1.373a.117.117,0,0,1,.089.018.118.118,0,0,1,.048.123.119.119,0,0,1-.019.042.118.118,0,0,1-.077.048C46.988,40.609,45.56,39.587,44.919,39.032Z" fill="#123352"/>
      <path id="Caminho_42425" data-name="Caminho 42425" d="M43.34,40.094s1.5,1.9,2.512,1.909Z" fill="#fff"/>
      <path id="Caminho_42426" data-name="Caminho 42426" d="M45.853,42.12c-1.059-.012-2.541-1.874-2.6-1.953A.117.117,0,0,1,43.267,40a.117.117,0,0,1,.132-.009.118.118,0,0,1,.035.031c.015.018,1.474,1.853,2.422,1.864a.118.118,0,0,1,0,.235Z" fill="#123352"/>
      <path id="Caminho_42427" data-name="Caminho 42427" d="M65.064,58.073a16.758,16.758,0,0,0-8.447,7.687q-1.814-.816-3.493-1.777C57.038,57.3,65.064,58.073,65.064,58.073Z" fill="#25b546"/>
      <path id="Caminho_42428" data-name="Caminho 42428" d="M116.6,27.638,102.67,25l.043-.231,13.926,2.635Z" fill="#123352"/>
      <path id="Caminho_42429" data-name="Caminho 42429" d="M113.739,24.32a1.249,1.249,0,0,1-1.154-.773,1.253,1.253,0,0,1,.91-1.708,1.252,1.252,0,1,1,.244,2.48Zm0-2.27a1.018,1.018,0,1,0,.717.3,1.013,1.013,0,0,0-.717-.3Z" fill="#123352"/>
      <path id="Caminho_42430" data-name="Caminho 42430" d="M106.019,68.3l-.217-.087c3.444-8.672-3.468-12.821-3.538-12.862l.118-.2C102.452,55.185,109.537,59.438,106.019,68.3Z" fill="#123352"/>
      <path id="Caminho_42431" data-name="Caminho 42431" d="M111.131,118.561l-1.576,20.892.233.017,1.576-20.892Z" fill="#123352"/>
      <path id="Caminho_42432" data-name="Caminho 42432" d="M32.007,132.569l-.029.234,22.015,2.72.029-.234Z" fill="#123352"/>
      <path id="Caminho_42433" data-name="Caminho 42433" d="M99.783,130.813c-12.773,0-21.192-2.989-25.091-8.931-5.977-9.1,1.1-22.083,1.172-22.213l.2.114c-.071.129-7.08,12.985-1.181,21.97,4.842,7.374,16.777,10.146,35.479,8.241l.023.236A105.548,105.548,0,0,1,99.783,130.813Z" fill="#123352"/>
      <path id="Caminho_42434" data-name="Caminho 42434" d="M41.8,129.943c-1.281-14.581,1.007-24.6,6.8-29.789A14.727,14.727,0,0,1,60.445,96.66l-.047.23a14.487,14.487,0,0,0-11.642,3.442c-5.735,5.134-8,15.09-6.722,29.591Z" fill="#123352"/>
      <path id="Caminho_42435" data-name="Caminho 42435" d="M121.72,94.334a.119.119,0,0,1-.025-.164,2.182,2.182,0,0,0,.4-1.62,2.173,2.173,0,0,0-.861-1.429,2.171,2.171,0,0,0-3.04.468.117.117,0,0,1-.162.022.118.118,0,0,1-.027-.161,2.407,2.407,0,0,1,4.32,1.066,2.418,2.418,0,0,1-.44,1.794.118.118,0,0,1-.165.025Z" fill="#b2b2b2"/>
      <path id="Caminho_42436" data-name="Caminho 42436" d="M154.316,129.955c-.057-.078-5.669-7.937-.008-18.263,5.6-10.224,1.554-33.922,1.512-34.16a.119.119,0,0,1,.02-.088.117.117,0,0,1,.076-.048.115.115,0,0,1,.046,0,.117.117,0,0,1,.042.018.119.119,0,0,1,.031.033.111.111,0,0,1,.016.043c.042.239,4.107,24.019-1.538,34.315-5.589,10.195-.064,17.933-.008,18.01a.117.117,0,0,1-.112.183A.117.117,0,0,1,154.316,129.955Z" fill="#c6c6c6"/>
      <path id="Caminho_42437" data-name="Caminho 42437" d="M156.948,123.751c-1.765-1.959-3.538-9.517-3.694-10.193a24.72,24.72,0,0,1-5.06-5.42,8.519,8.519,0,0,1-1.09-7.225c1.247-3.4,5.049-4.93-.057-16.9a28.4,28.4,0,0,1-2.571-8.269c-.565-5.855,2.921-9.634,8.783-9.042,4.741.479,9.282,3.694,12.145,8.6,2.766,4.74,3.684,10.355,4.178,14.716.66,5.839.971,13.345-2.494,19.618-1.282,2.318-3.067,4.424-3.924,6.914-.582,1.689-.739,3.555-1.6,5.148C160.65,123.375,158.21,125.152,156.948,123.751Zm-4.8-56.872c-5.278,0-7.928,3.725-7.434,8.841a28.236,28.236,0,0,0,2.553,8.2c5.156,12.09,1.3,13.706.062,17.075a8.283,8.283,0,0,0,1.069,7.019,24.625,24.625,0,0,0,5.044,5.391.117.117,0,0,1,.037.063c.019.081,1.881,8.162,3.648,10.125,1.135,1.259,3.42-.512,4.232-2.007.843-1.553,1-3.419,1.587-5.112.873-2.533,2.658-4.629,3.941-6.951,3.435-6.215,3.122-13.674,2.467-19.478-.49-4.339-1.4-9.921-4.148-14.624-2.825-4.843-7.3-8.015-11.966-8.487A10.848,10.848,0,0,0,152.143,66.879Z" fill="#b2b2b2"/>
      <path id="Caminho_42438" data-name="Caminho 42438" d="M142.792,116.609A13.623,13.623,0,0,1,140,113.626a4.623,4.623,0,0,1-.6-3.921c.233-.633.647-1.183.93-1.8.882-1.91.393-4.169-.371-6.129s-1.8-3.867-2-5.962a4.716,4.716,0,0,1,1.2-3.906,4.536,4.536,0,0,1,3.562-1,9.123,9.123,0,0,1,6.637,4.7,20.429,20.429,0,0,1,2.292,8.077c.413,3.653.412,7.546-1.366,10.762a25.494,25.494,0,0,0-2.165,3.817,18.041,18.041,0,0,1-.878,2.824c-.471.868-1.775,1.851-2.434,1.117C143.82,121.107,142.792,116.609,142.792,116.609Z" fill="#e3e3e3"/>
      <path id="Caminho_42439" data-name="Caminho 42439" d="M143.277,125.7a9.682,9.682,0,0,1-.008-10.111c3.073-5.606-.9-18.859-.942-18.993a.114.114,0,0,1,.012-.087.117.117,0,0,1,.212.019c.168.548,4.043,13.482.923,19.175a9.449,9.449,0,0,0-.008,9.859.111.111,0,0,1,.021.042.119.119,0,0,1,0,.046.121.121,0,0,1-.016.045.112.112,0,0,1-.031.034.116.116,0,0,1-.042.02.124.124,0,0,1-.047,0,.1.1,0,0,1-.044-.017.112.112,0,0,1-.033-.032Z" fill="#c6c6c6"/>
      <path id="Caminho_42440" data-name="Caminho 42440" d="M14.106,130.048a.114.114,0,0,1-.075-.049.116.116,0,0,1-.019-.087,2.971,2.971,0,0,1,1.486-1.974c1.114-.571,2.642-.406,4.54.494,3.422,1.622,7.144-2.055,7.181-2.092a.114.114,0,0,1,.083-.035.118.118,0,0,1,.118.117.12.12,0,0,1-.034.084c-.038.039-3.875,3.831-7.447,2.138-1.829-.866-3.285-1.035-4.33-.5a2.793,2.793,0,0,0-1.365,1.81.115.115,0,0,1-.017.042.109.109,0,0,1-.032.033.112.112,0,0,1-.042.018A.12.12,0,0,1,14.106,130.048Z" fill="#c6c6c6"/>
      <path id="Caminho_42441" data-name="Caminho 42441" d="M72.811,145.129a.118.118,0,0,1-.074-.051.12.12,0,0,1-.016-.089,1.876,1.876,0,0,1,.974-1.165c.894-.459,2.177-.335,3.82.365a4.6,4.6,0,0,0,5.665-1.145.125.125,0,0,1,.033-.034.132.132,0,0,1,.044-.017.107.107,0,0,1,.047,0,.113.113,0,0,1,.043.019.119.119,0,0,1,.032.034.121.121,0,0,1,.016.045.118.118,0,0,1,0,.047.124.124,0,0,1-.021.042,4.838,4.838,0,0,1-5.948,1.225c-1.551-.664-2.8-.794-3.621-.372a1.659,1.659,0,0,0-.853,1.007.12.12,0,0,1-.052.073A.117.117,0,0,1,72.811,145.129Z" fill="#c6c6c6"/>
      <path id="Caminho_42442" data-name="Caminho 42442" d="M143.378,135.028a.117.117,0,0,1-.073-.052.118.118,0,0,1-.015-.088,1.3,1.3,0,0,1,.253-.477,1.322,1.322,0,0,1,.423-.334,3.149,3.149,0,0,1,2.607.245,3.059,3.059,0,0,0,3.771-.759.122.122,0,0,1,.034-.034.133.133,0,0,1,.043-.017.106.106,0,0,1,.047,0,.118.118,0,0,1,.043.019.115.115,0,0,1,.032.034.143.143,0,0,1,.016.045.126.126,0,0,1,0,.047.138.138,0,0,1-.021.042,3.3,3.3,0,0,1-4.053.839,2.986,2.986,0,0,0-2.4-.254,1.055,1.055,0,0,0-.349.269,1.079,1.079,0,0,0-.211.386.122.122,0,0,1-.053.074A.12.12,0,0,1,143.378,135.028Z" fill="#b2b2b2"/>
      <path id="Caminho_42443" data-name="Caminho 42443" d="M71.095,16.227l2.037,1-3.594,3.737a.33.33,0,0,0,.388.524l6.431-3.3a.331.331,0,0,0,.061-.549L73.685,15.36l4.639-2.818A.331.331,0,0,0,78.356,12l-2.234-1.746a.329.329,0,0,0-.452.044l-4.68,5.416a.331.331,0,0,0,.105.514Z"/>
      <path id="Caminho_42444" data-name="Caminho 42444" d="M77.169,22.235l.626,1.494-3.678.316a.235.235,0,0,0-.037.463l5,1.253a.234.234,0,0,0,.279-.151.236.236,0,0,0,.01-.115l-.4-2.507,3.809.67a.235.235,0,0,0,.208-.067.236.236,0,0,0,.063-.21l-.383-1.988A.234.234,0,0,0,82.4,21.2l-5.047.705a.235.235,0,0,0-.183.325Z"/>
      <path id="Caminho_42445" data-name="Caminho 42445" d="M63.612,17.471l1.507-.651.355,3.739a.238.238,0,0,0,.469.034l1.22-5.1a.239.239,0,0,0-.272-.292l-2.533.432L65,11.755a.239.239,0,0,0-.283-.273l-2.008.409a.239.239,0,0,0-.189.269l.763,5.127a.238.238,0,0,0,.329.185Z"/>
      <path id="Caminho_42446" data-name="Caminho 42446" d="M40.018,11.708h-.934a.117.117,0,0,1-.112-.084,3.786,3.786,0,0,0-5.163-2.392.117.117,0,0,1-.165-.1A7.074,7.074,0,0,0,24,2.775a.119.119,0,0,1-.126-.027A8.407,8.407,0,0,0,9.517,9.418a.118.118,0,0,1-.134.127,3.553,3.553,0,0,0-.524-.038,3.758,3.758,0,0,0-2.628,1.065.118.118,0,0,1-.081.034H4.887a.117.117,0,0,1,0-.235H6.1A4.013,4.013,0,0,1,9.272,9.3,8.634,8.634,0,0,1,23.986,2.53,7.319,7.319,0,0,1,33.87,8.953a4.028,4.028,0,0,1,5.3,2.522h.847a.118.118,0,0,1,0,.235Z" fill="#b2b2b2"/>
      <path id="Caminho_42447" data-name="Caminho 42447" d="M11.81,10.93A3.765,3.765,0,0,0,9.383,9.544a.118.118,0,0,1-.1-.133.119.119,0,0,1,.132-.1,4,4,0,0,1,2.579,1.472.118.118,0,0,1-.018.165.119.119,0,0,1-.041.021.117.117,0,0,1-.124-.039Z" fill="#b2b2b2"/>
      <path id="Caminho_42448" data-name="Caminho 42448" d="M32.452,10.073a.116.116,0,0,1-.026-.037.117.117,0,0,1,0-.09.116.116,0,0,1,.025-.039,4,4,0,0,1,1.263-.889.118.118,0,0,1,.1.215,3.778,3.778,0,0,0-1.19.838.116.116,0,0,1-.165,0Z" fill="#b2b2b2"/>
      <path id="Caminho_42449" data-name="Caminho 42449" d="M22.257,3.609a.118.118,0,0,1-.021-.087.12.12,0,0,1,.016-.043.119.119,0,0,1,.031-.034,7.287,7.287,0,0,1,1.547-.859.117.117,0,0,1,.159.062.118.118,0,0,1,0,.093.117.117,0,0,1-.069.062,7.083,7.083,0,0,0-1.5.831.117.117,0,0,1-.163-.026Z" fill="#b2b2b2"/>
      <path id="Caminho_42450" data-name="Caminho 42450" d="M12.652,102.673a2.409,2.409,0,1,1,4.227-2.313.119.119,0,0,1,.01.09.118.118,0,0,1-.056.07.116.116,0,0,1-.159-.047,2.175,2.175,0,0,0-3.815,2.088.114.114,0,0,1,.014.043.118.118,0,0,1,0,.046.116.116,0,0,1-.021.041.111.111,0,0,1-.035.029.114.114,0,0,1-.044.014.117.117,0,0,1-.046,0,.123.123,0,0,1-.041-.021A.119.119,0,0,1,12.652,102.673Z" fill="#b2b2b2"/>
      <path id="Caminho_42451" data-name="Caminho 42451" d="M21.027,66.4a2.409,2.409,0,1,1,4.227-2.313.118.118,0,0,1-.047.16.118.118,0,0,1-.044.014.118.118,0,0,1-.116-.061,2.175,2.175,0,0,0-3.815,2.087.117.117,0,1,1-.206.113Z" fill="#b2b2b2"/>
      <path id="Caminho_42452" data-name="Caminho 42452" d="M120.166,37.944A34.425,34.425,0,0,1,118.159,49.6a6.068,6.068,0,0,1,2.007-11.653Z" fill="#25b546"/>
    </g>
  </g>
</svg>
