<svg width="128" height="66" viewBox="0 0 128 66" fill="none" xmlns="http://www.w3.org/2000/svg">
<mask id="mask0_3135_38" style="mask-type:luminance" maskUnits="userSpaceOnUse" x="0" y="0" width="128" height="66">
<path d="M127.461 0H0V65.03H127.461V0Z" fill="white"/>
</mask>
<g mask="url(#mask0_3135_38)">
<path d="M13.6875 15.8862C13.7711 17.0132 13.9698 18.1287 14.2805 19.2152C15.8581 20.0014 17.2017 21.1878 18.1772 22.6559C19.1527 24.1239 19.7259 25.8223 19.8395 27.5812C20.7337 28.3024 21.7002 28.9291 22.7235 29.4512V28.1882C22.7232 25.4428 21.8467 22.7692 20.2214 20.5565C18.5962 18.3438 16.3071 16.7077 13.6875 15.8862Z" fill="white"/>
<path d="M14.3389 9.85693C14.063 10.7779 13.8679 11.7211 13.7559 12.6759C17.2089 13.5469 20.2721 15.5461 22.4595 18.3563C24.6469 21.1665 25.8331 24.6268 25.8299 28.1879V30.6579C26.7721 30.9179 27.7356 31.0939 28.7089 31.1839V28.1839C28.7073 23.9624 27.2909 19.8631 24.6861 16.541C22.0812 13.2189 18.4382 10.8655 14.3389 9.85693Z" fill="white"/>
<path d="M32.7356 18.5109C31.3215 15.1676 29.1933 12.174 26.5 9.74018C23.8067 7.30635 20.6136 5.49116 17.1446 4.42188C16.5269 5.21398 15.9824 6.06045 15.5176 6.95088C20.192 8.20464 24.3223 10.9654 27.2682 14.8051C30.2141 18.6449 31.8111 23.3492 31.8116 28.1889V31.1889C32.7849 31.0988 33.7483 30.9228 34.6906 30.6629V28.1929C34.6971 24.8669 34.0322 21.5738 32.7356 18.5109Z" fill="white"/>
<path d="M31.6463 6.377C28.9754 3.69909 25.8331 1.5372 22.3773 0C21.3624 0.54808 20.4073 1.20026 19.5273 1.946C24.8899 3.92883 29.5162 7.50697 32.7836 12.1987C36.0509 16.8905 37.8024 22.4706 37.8024 28.188V29.451C38.8215 28.9311 39.7842 28.3075 40.6753 27.59C40.5311 19.6154 37.294 12.0089 31.6473 6.37601L31.6463 6.377Z" fill="white"/>
<path d="M43.6147 21.1099C44.383 20.3378 45.272 19.696 46.2467 19.2099C46.5573 18.1233 46.756 17.0078 46.8397 15.8809C44.2206 16.7024 41.932 18.3383 40.3069 20.5506C38.6819 22.7628 37.8053 25.4359 37.8047 28.1809V29.4479C38.834 28.9228 39.8059 28.2921 40.7047 27.5659C40.8488 25.1295 41.8846 22.8314 43.6147 21.1099Z" fill="white"/>
<path d="M34.6954 28.1889C34.6939 24.6282 35.8808 21.1688 38.0679 18.3589C40.255 15.5491 43.3172 13.5494 46.7694 12.6769C46.6574 11.7221 46.4623 10.7788 46.1864 9.85791C42.0863 10.8667 38.4426 13.2208 35.8377 16.5439C33.2327 19.8671 31.8169 23.9675 31.8164 28.1899V31.1899C32.7897 31.0998 33.7531 30.9238 34.6954 30.6639V28.1889Z" fill="white"/>
<path d="M28.7091 28.1889C28.7096 23.3491 30.3068 18.6447 33.2529 14.8049C36.199 10.9651 40.3295 8.20446 45.0041 6.95088C44.539 6.06043 43.994 5.21395 43.3761 4.42188C38.2931 5.98425 33.8455 9.13625 30.6871 13.4144C27.5288 17.6926 25.8263 22.8712 25.8301 28.1889V30.6589C26.7724 30.9188 27.7358 31.0948 28.7091 31.1849V28.1889Z" fill="white"/>
<path d="M22.7238 28.188C22.7237 22.4706 24.4752 16.8905 27.7425 12.1987C31.0099 7.50697 35.6362 3.92883 40.9987 1.946C40.1187 1.20033 39.1636 0.548155 38.1487 0C32.793 2.38425 28.2271 6.24457 24.9854 11.1292C21.7437 16.0138 19.9602 21.7207 19.8438 27.582C20.7377 28.3027 21.7039 28.9291 22.7267 29.451L22.7238 28.188Z" fill="white"/>
<path d="M110.419 16.5249C111.104 16.1291 111.675 15.5625 112.077 14.8802C112.478 14.198 112.696 13.4233 112.709 12.6319C112.709 10.3319 110.909 8.77588 108.427 8.77588H102.932V22.4179C103.882 22.4785 104.835 22.4785 105.786 22.4179V18.2959C106.499 18.147 107.202 17.9564 107.893 17.7249C108.809 19.2362 109.63 20.8036 110.35 22.4179C111.422 22.4784 112.498 22.4784 113.571 22.4179C112.644 20.3896 111.591 18.4215 110.419 16.5249ZM105.786 11.6359H107.94C109.308 11.6359 109.882 12.0269 109.778 13.0029C109.631 14.3769 107.427 15.1649 105.79 15.5489L105.786 11.6359Z" fill="white"/>
<path d="M96.7866 8.71976C95.7917 8.64161 94.7921 8.64429 93.7976 8.72776L88.6836 22.4138C89.7108 22.484 90.7418 22.4813 91.7686 22.4057L92.5376 20.3058C94.371 19.8333 96.2942 19.8333 98.1276 20.3058L98.9116 22.4248C99.9333 22.4806 100.957 22.4769 101.979 22.4138L96.7866 8.71976ZM93.5976 17.4068L95.3186 12.7018L97.0576 17.4018C95.9083 17.2637 94.7466 17.265 93.5976 17.4057V17.4068Z" fill="white"/>
<path d="M87.8361 22.4175L87.7971 8.74656C86.8336 8.68544 85.8672 8.68811 84.9041 8.75455L84.9251 16.2736C83.2796 13.5212 81.2543 11.0145 78.9091 8.82755V8.77355C77.9533 8.71108 76.9944 8.71375 76.0391 8.78155L76.0781 22.4526C77.0328 22.5407 77.9938 22.538 78.9481 22.4446L78.9211 12.9006C81.5052 15.6714 83.5468 18.9022 84.9401 22.4255C85.9047 22.4796 86.8717 22.4769 87.8361 22.4175Z" fill="white"/>
<path d="M64.918 22.4109V8.77393H73.997C74.094 9.72579 74.094 10.6851 73.997 11.6369H67.778V13.9009H73.034C73.1068 14.7884 73.1068 15.6804 73.034 16.5679H67.778V19.5479H74.413C74.5102 20.4998 74.5102 21.4591 74.413 22.4109H64.918Z" fill="white"/>
<path d="M58.6664 22.5958C61.1274 22.5958 63.4264 21.3828 63.4264 18.6498C63.4264 16.0438 61.6894 15.3198 59.7704 14.3608C58.8294 13.8898 56.1704 12.8948 56.1704 12.0808C56.1704 11.4108 56.9484 11.2488 57.9264 11.2488C59.114 11.2609 60.2902 11.4816 61.4014 11.9008C61.8839 11.1913 62.2336 10.4002 62.4334 9.56579C60.8163 8.87535 59.0691 8.54209 57.3114 8.58878C54.8684 8.58878 53.1664 9.78377 53.1664 12.1888C53.1664 14.8488 56.3334 15.9348 57.6914 16.5508C59.2304 17.2568 60.4784 17.6508 60.4784 18.7948C60.4784 19.7718 59.0664 19.7538 58.3974 19.7538C56.7084 19.7184 55.0432 19.3493 53.4974 18.6678C53.0173 19.4187 52.6342 20.2275 52.3574 21.0748C54.2875 22.1343 56.4655 22.6594 58.6664 22.5958Z" fill="white"/>
<path d="M127.461 41.0742H0V41.8182H127.461V41.0742Z" fill="white"/>
<path d="M0.3125 61.7958V51.6548H7.1575V53.5718H2.59351V55.5618H6.64351V57.4348H2.59351V59.8788H7.4935V61.7958H0.3125Z" fill="white"/>
<path d="M14.807 61.5469C14.6123 61.6055 14.388 61.6615 14.134 61.7149C13.88 61.7682 13.6133 61.8145 13.334 61.8539C13.056 61.8925 12.7733 61.9259 12.486 61.9539C12.1986 61.9819 11.9233 61.9942 11.6599 61.9908C11.0812 62.0005 10.5055 61.9064 9.95995 61.7129C9.48676 61.5422 9.05717 61.269 8.70196 60.9129C8.35313 60.5547 8.086 60.1251 7.91895 59.6539C7.73201 59.1204 7.64062 58.5581 7.64896 57.9929C7.64157 57.421 7.72045 56.8512 7.88296 56.3029C8.0202 55.8355 8.24897 55.4 8.55596 55.0219C8.84638 54.6743 9.21469 54.4003 9.63096 54.2219C10.0914 54.0293 10.5869 53.9347 11.086 53.9438C11.3592 53.9406 11.6318 53.9702 11.898 54.0319C12.1461 54.0937 12.3883 54.177 12.622 54.2809V50.7939L14.801 50.4429L14.807 61.5469ZM9.87795 57.8878C9.84973 58.4639 10.0086 59.0336 10.331 59.5119C10.4872 59.7175 10.6918 59.8812 10.9267 59.9885C11.1615 60.0958 11.4193 60.1433 11.677 60.1269C11.8716 60.1269 12.052 60.1195 12.218 60.1049C12.384 60.0899 12.518 60.0739 12.628 60.0539V56.0879C12.4622 55.9879 12.2821 55.914 12.094 55.8689C11.8771 55.8104 11.6535 55.7808 11.429 55.7809C10.395 55.7815 9.87795 56.4842 9.87795 57.8889V57.8878Z" fill="white"/>
<path d="M22.5856 61.5321C22.1143 61.6606 21.6358 61.7608 21.1526 61.8321C20.5428 61.9265 19.9266 61.973 19.3096 61.9711C18.7541 61.9877 18.2006 61.8984 17.6786 61.7081C17.2765 61.5555 16.9212 61.3008 16.6476 60.9691C16.3859 60.6355 16.2012 60.2483 16.1066 59.8351C15.9952 59.3602 15.9411 58.8738 15.9456 58.3861V54.1021H18.1246V58.1261C18.0878 58.6487 18.1835 59.1722 18.4026 59.6481C18.5165 59.8135 18.6736 59.9446 18.8567 60.0271C19.0399 60.1096 19.2422 60.1404 19.4416 60.1161C19.5969 60.1161 19.7636 60.1087 19.9416 60.0941C20.1196 60.0794 20.2756 60.0624 20.4096 60.0431V54.1021H22.5886L22.5856 61.5321Z" fill="white"/>
<path d="M23.434 57.9482C23.4307 57.4119 23.5224 56.8794 23.7049 56.3752C23.8749 55.8948 24.1426 55.455 24.4914 55.0835C24.8401 54.712 25.2622 54.417 25.7309 54.2172C26.2581 53.9947 26.8259 53.885 27.3979 53.8952C27.7761 53.8922 28.1535 53.9291 28.5239 54.0052C28.8648 54.0786 29.1979 54.184 29.5189 54.3202L29.0649 56.0622C28.8451 55.9813 28.6203 55.9145 28.3919 55.8622C28.1233 55.8008 27.8484 55.7713 27.5729 55.7742C27.3025 55.754 27.0311 55.7978 26.7808 55.9021C26.5304 56.0063 26.3082 56.1681 26.1319 56.3742C25.7971 56.8312 25.6294 57.3893 25.6569 57.9552C25.6213 58.5266 25.7783 59.0935 26.1029 59.5652C26.301 59.774 26.5448 59.9342 26.815 60.0333C27.0853 60.1323 27.3748 60.1675 27.6609 60.1362C27.9451 60.1346 28.2287 60.1102 28.5089 60.0632C28.7953 60.019 29.0754 59.9405 29.3429 59.8292L29.6499 61.6142C29.3427 61.7374 29.0242 61.8305 28.6989 61.8922C28.2846 61.9734 27.8631 62.0126 27.4409 62.0092C26.8215 62.0242 26.2052 61.9176 25.6269 61.6952C25.1511 61.507 24.7236 61.2145 24.3759 60.8392C24.0449 60.4706 23.8 60.0331 23.6589 59.5582C23.5035 59.0358 23.4277 58.4931 23.434 57.9482Z" fill="white"/>
<path d="M32.6786 53.8938C33.2233 53.8797 33.7667 53.954 34.2876 54.1138C34.6775 54.236 35.0315 54.452 35.3186 54.7428C35.5817 55.0253 35.77 55.369 35.8666 55.7428C35.9781 56.167 36.0323 56.6042 36.0276 57.0428V61.5798C35.7156 61.6464 35.2823 61.7271 34.7276 61.8218C34.0598 61.9225 33.3849 61.9689 32.7096 61.9608C32.2552 61.965 31.8016 61.9207 31.3566 61.8288C30.9832 61.7541 30.6279 61.6074 30.3106 61.3968C30.0207 61.2002 29.7884 60.9299 29.6376 60.6138C29.4711 60.2415 29.3911 59.8364 29.4036 59.4288C29.3911 59.0308 29.4846 58.6367 29.6746 58.2868C29.849 57.9809 30.0981 57.7243 30.3986 57.5408C30.7192 57.349 31.0703 57.2137 31.4366 57.1408C31.8358 57.0567 32.2427 57.0148 32.6506 57.0158C32.9021 57.0144 33.1535 57.0267 33.4036 57.0528C33.584 57.0717 33.7626 57.1051 33.9376 57.1528V56.9528C33.9451 56.7891 33.9191 56.6255 33.8614 56.4722C33.8036 56.3188 33.7152 56.1788 33.6016 56.0608C33.27 55.8011 32.8505 55.6803 32.4316 55.7238C32.0635 55.7233 31.6958 55.75 31.3316 55.8038C31.0127 55.8473 30.6991 55.9234 30.3956 56.0308L30.1176 54.2748C30.2446 54.2358 30.4026 54.1938 30.5926 54.1508C30.7826 54.1078 30.9926 54.0677 31.2146 54.0337C31.4366 53.9997 31.6756 53.9698 31.9236 53.9458C32.1716 53.9218 32.4246 53.8938 32.6786 53.8938ZM32.8536 60.2748C33.0683 60.2748 33.2729 60.2698 33.4676 60.2598C33.6243 60.2539 33.7805 60.2392 33.9356 60.2158V58.5618C33.8476 58.5428 33.7166 58.5228 33.5406 58.5028C33.3802 58.4844 33.219 58.4747 33.0576 58.4738C32.8643 58.4728 32.6712 58.4849 32.4796 58.5098C32.3147 58.5295 32.1541 58.5765 32.0046 58.6488C31.8745 58.7112 31.7634 58.8072 31.6826 58.9268C31.6006 59.0581 31.5598 59.211 31.5656 59.3657C31.551 59.5044 31.5754 59.6444 31.6362 59.7699C31.697 59.8954 31.7917 60.0013 31.9096 60.0758C32.2024 60.2228 32.5284 60.2914 32.8556 60.2748H32.8536Z" fill="white"/>
<path d="M40.9409 62.3819C41.2074 62.4971 41.4322 62.6911 41.585 62.9379C41.6983 63.1392 41.7585 63.3659 41.7599 63.5969C41.7698 63.8083 41.7235 64.0185 41.6258 64.2062C41.5282 64.394 41.3826 64.5526 41.2039 64.6659C40.7629 64.9283 40.2546 65.0555 39.7419 65.0319C39.5266 65.0319 39.3116 65.0149 39.0989 64.9809C38.8819 64.9461 38.667 64.8997 38.4549 64.8419L38.7179 63.5689C38.7846 63.5889 38.9089 63.6222 39.0909 63.6689C39.2657 63.7121 39.4449 63.7342 39.6249 63.7349C39.749 63.7378 39.8719 63.7103 39.9829 63.6549C40.0341 63.627 40.0768 63.5858 40.1063 63.5356C40.1359 63.4854 40.1513 63.4282 40.1509 63.3699C40.1545 63.3091 40.1438 63.2483 40.1197 63.1924C40.0955 63.1365 40.0587 63.087 40.012 63.0479C39.8713 62.932 39.702 62.856 39.5219 62.8279L39.3459 62.7839C39.3921 62.6372 39.4458 62.493 39.507 62.3519C39.5736 62.1912 39.6403 62.0426 39.7069 61.9059C39.2422 61.8262 38.7975 61.6564 38.3979 61.4059C38.041 61.1755 37.7329 60.8771 37.491 60.5279C37.2468 60.1698 37.0686 59.7708 36.965 59.3499C36.8509 58.8954 36.7945 58.4284 36.797 57.9599C36.7937 57.4237 36.8854 56.8911 37.068 56.3869C37.2378 55.9065 37.5056 55.4666 37.8543 55.0952C38.2031 54.7237 38.6252 54.4287 39.094 54.2289C39.6211 54.0064 40.1889 53.8967 40.7609 53.9069C41.1391 53.9039 41.5165 53.9408 41.887 54.0169C42.2278 54.0903 42.561 54.1957 42.882 54.3319L42.4279 56.0739C42.2081 55.993 41.9833 55.9262 41.7549 55.8739C41.4863 55.8126 41.2114 55.783 40.9359 55.7859C40.6655 55.7657 40.3941 55.8096 40.1438 55.9138C39.8934 56.018 39.6712 56.1798 39.495 56.3859C39.1601 56.8429 38.9924 57.401 39.02 57.9669C38.9842 58.5384 39.1412 59.1053 39.4659 59.5769C39.6639 59.7856 39.9075 59.9457 40.1776 60.0448C40.4477 60.1438 40.737 60.1791 41.0229 60.1479C41.3071 60.1463 41.5907 60.1219 41.8709 60.0749C42.1573 60.0307 42.4374 59.9522 42.7049 59.8409L43.012 61.6259C42.7457 61.7364 42.4689 61.8198 42.1859 61.8749C41.8315 61.9466 41.4722 61.9907 41.111 62.0069C41.072 62.0849 41.0379 62.1579 41.0109 62.2269C40.9839 62.2959 40.9599 62.3329 40.9409 62.3819Z" fill="white"/>
<path d="M46.0458 53.8942C46.5905 53.8801 47.1339 53.9544 47.6548 54.1142C48.0447 54.2364 48.3987 54.4524 48.6858 54.7432C48.9489 55.0257 49.1372 55.3694 49.2338 55.7432C49.3453 56.1673 49.3995 56.6046 49.3948 57.0432V61.5802C49.0828 61.6468 48.6495 61.7275 48.0948 61.8222C47.427 61.9228 46.7521 61.9693 46.0768 61.9612C45.6224 61.9654 45.1688 61.9212 44.7238 61.8292C44.3505 61.7548 43.9951 61.6084 43.6778 61.3982C43.388 61.2015 43.1557 60.9313 43.0048 60.6152C42.8383 60.2429 42.7583 59.8378 42.7708 59.4302C42.7585 59.0326 42.8521 58.6388 43.0418 58.2892C43.2162 57.9834 43.4653 57.7267 43.7658 57.5432C44.0864 57.3514 44.4374 57.2161 44.8038 57.1432C45.203 57.0591 45.6098 57.0172 46.0178 57.0182C46.2693 57.0168 46.5207 57.0291 46.7708 57.0552C46.9512 57.0741 47.1298 57.1075 47.3048 57.1552V56.9552C47.3123 56.7915 47.2863 56.628 47.2286 56.4746C47.1708 56.3213 47.0824 56.1813 46.9688 56.0632C46.6371 55.8036 46.2177 55.6828 45.7988 55.7262C45.4306 55.7257 45.063 55.7525 44.6988 55.8062C44.3799 55.8498 44.0663 55.9259 43.7628 56.0332L43.4848 54.2772C43.6115 54.2379 43.7698 54.1965 43.9598 54.1532C44.1498 54.1098 44.3571 54.0708 44.5818 54.0362C44.8058 54.0022 45.0421 53.9728 45.2908 53.9482C45.5395 53.9235 45.7911 53.9055 46.0458 53.8942ZM48.8978 51.4212C48.8293 51.5878 48.7488 51.7493 48.6568 51.9042C48.5527 52.0819 48.4274 52.2465 48.2838 52.3942C48.1382 52.5445 47.9694 52.6704 47.7838 52.7672C47.5942 52.8655 47.3833 52.9157 47.1698 52.9132C47.003 52.9146 46.8373 52.8872 46.6798 52.8322C46.5285 52.7789 46.3798 52.7202 46.2338 52.6562C46.0878 52.5922 45.9415 52.5335 45.7948 52.4802C45.6497 52.4271 45.4963 52.4 45.3418 52.4002C45.2526 52.3972 45.1637 52.4125 45.0806 52.4452C44.9976 52.4779 44.9221 52.5272 44.8588 52.5902C44.7316 52.7175 44.6277 52.8661 44.5518 53.0292L43.4838 52.3292C43.5522 52.1625 43.6328 52.0011 43.7248 51.8462C43.829 51.6685 43.9543 51.504 44.0978 51.3562C44.2435 51.2059 44.4123 51.08 44.5978 50.9832C44.7874 50.8848 44.9982 50.8347 45.2118 50.8372C45.3785 50.836 45.5443 50.8634 45.7018 50.9182C45.8531 50.9722 46.0018 51.0308 46.1478 51.0942C46.2938 51.1575 46.4374 51.2162 46.5788 51.2702C46.7263 51.3248 46.8825 51.352 47.0398 51.3502C47.129 51.353 47.2178 51.3377 47.3009 51.305C47.3839 51.2723 47.4594 51.223 47.5228 51.1602C47.6497 51.0327 47.7536 50.8842 47.8298 50.7212L48.8978 51.4212ZM46.2208 60.2752C46.4354 60.2752 46.6401 60.2702 46.8348 60.2602C46.9915 60.2543 47.1477 60.2396 47.3028 60.2162V58.5622C47.2148 58.5428 47.0831 58.5232 46.9078 58.5032C46.7474 58.4847 46.5862 58.475 46.4248 58.4742C46.2315 58.4733 46.0384 58.4853 45.8468 58.5102C45.6819 58.5301 45.5214 58.577 45.3718 58.6492C45.2417 58.7117 45.1306 58.8076 45.0498 58.9272C44.9678 59.0585 44.927 59.2114 44.9328 59.3662C44.9182 59.5048 44.9426 59.6448 45.0034 59.7703C45.0642 59.8958 45.1589 60.0017 45.2768 60.0762C45.5691 60.2225 45.8943 60.2917 46.2208 60.2752Z" fill="white"/>
<path d="M57.7323 57.9328C57.7389 58.4974 57.6499 59.059 57.4693 59.5939C57.3083 60.0716 57.0491 60.5103 56.7083 60.8819C56.3745 61.2394 55.9681 61.5214 55.5163 61.7089C55.0218 61.9097 54.492 62.009 53.9583 62.0008C53.4296 62.0081 52.9048 61.9088 52.4153 61.7089C51.9634 61.5215 51.557 61.2395 51.2233 60.8819C50.8814 60.5087 50.6178 60.0707 50.4483 59.5939C50.2577 59.0611 50.1635 58.4986 50.1703 57.9328C50.1631 57.3687 50.2597 56.808 50.4553 56.2789C50.6304 55.8057 50.8991 55.3728 51.2453 55.0058C51.5845 54.6527 51.993 54.3735 52.4453 54.1858C52.9251 53.9873 53.4401 53.8876 53.9593 53.8928C54.4835 53.8868 55.0035 53.9864 55.4883 54.1858C55.9387 54.3726 56.3449 54.652 56.6803 55.0058C57.0217 55.3737 57.2853 55.8067 57.4553 56.2789C57.6458 56.8092 57.7396 57.3694 57.7323 57.9328ZM55.5093 57.9328C55.5407 57.3751 55.4012 56.8211 55.1093 56.3448C54.9834 56.1583 54.8117 56.0072 54.6107 55.906C54.4097 55.8048 54.1861 55.7569 53.9613 55.7668C53.7356 55.7574 53.5112 55.8055 53.3091 55.9066C53.1071 56.0077 52.9341 56.1585 52.8063 56.3448C52.5087 56.819 52.3657 57.3739 52.3973 57.9328C52.3682 58.4953 52.5109 59.0533 52.8063 59.5329C52.9316 59.7226 53.1038 59.8769 53.3061 59.9808C53.5084 60.0846 53.7341 60.1346 53.9613 60.1258C54.1877 60.1352 54.4126 60.0854 54.6138 59.9814C54.8151 59.8774 54.9859 59.7228 55.1093 59.5329C55.3989 59.0512 55.5388 58.494 55.5093 57.9328Z" fill="white"/>
<path d="M64.0214 53.8938C64.5661 53.8798 65.1094 53.9541 65.6304 54.1138C66.0203 54.236 66.3743 54.452 66.6614 54.7428C66.9245 55.0253 67.1128 55.369 67.2094 55.7428C67.3208 56.167 67.375 56.6042 67.3704 57.0427V61.5798C67.0584 61.6464 66.6251 61.7271 66.0704 61.8218C65.4022 61.9225 64.7271 61.969 64.0514 61.9607C63.597 61.965 63.1434 61.9207 62.6984 61.8288C62.325 61.7541 61.9697 61.6074 61.6524 61.3967C61.3625 61.2002 61.1302 60.9299 60.9794 60.6138C60.8129 60.2415 60.7329 59.8364 60.7454 59.4288C60.7329 59.0308 60.8264 58.6367 61.0164 58.2868C61.1908 57.9809 61.4399 57.7243 61.7404 57.5408C62.061 57.349 62.4121 57.2138 62.7784 57.1408C63.1776 57.0567 63.5845 57.0148 63.9924 57.0158C64.2439 57.0144 64.4953 57.0267 64.7454 57.0528C64.9258 57.0717 65.1044 57.1051 65.2794 57.1528V56.9527C65.2868 56.789 65.2607 56.6254 65.2027 56.4721C65.1448 56.3187 65.0562 56.1788 64.9424 56.0607C64.6108 55.801 64.1914 55.6802 63.7724 55.7237C63.4043 55.7233 63.0366 55.7501 62.6724 55.8038C62.3535 55.8473 62.0399 55.9234 61.7364 56.0307L61.4584 54.2748C61.5854 54.2358 61.7434 54.1937 61.9334 54.1507C62.1234 54.1077 62.3334 54.0677 62.5554 54.0337C62.7774 53.9997 63.0164 53.9698 63.2644 53.9458C63.5124 53.9218 63.7674 53.8938 64.0214 53.8938ZM64.1974 60.2748C64.4121 60.2748 64.6167 60.2698 64.8114 60.2598C64.9681 60.2539 65.1243 60.2392 65.2794 60.2157V58.5618C65.1914 58.5428 65.0604 58.5228 64.8844 58.5028C64.7241 58.4844 64.5628 58.4747 64.4014 58.4737C64.2085 58.4729 64.0157 58.4849 63.8244 58.5098C63.6594 58.5295 63.499 58.5764 63.3494 58.6488C63.2193 58.7112 63.1081 58.8071 63.0274 58.9267C62.9455 59.0581 62.9047 59.211 62.9104 59.3657C62.8958 59.5044 62.9202 59.6444 62.981 59.7699C63.0418 59.8954 63.1365 60.0013 63.2544 60.0758C63.546 60.2222 63.8715 60.2907 64.1974 60.2748Z" fill="white"/>
<path d="M80.211 56.7177C80.2283 57.504 80.0889 58.2859 79.801 59.0177C79.5478 59.6437 79.1492 60.2004 78.638 60.6417C78.101 61.0896 77.4753 61.4188 76.802 61.6077C76.0125 61.8316 75.1947 61.9401 74.374 61.9298C73.9647 61.9298 73.487 61.9127 72.941 61.8787C72.4004 61.8455 71.8628 61.7747 71.332 61.6668V51.7857C71.8757 51.6853 72.4251 51.6184 72.977 51.5857C73.547 51.5517 74.037 51.5347 74.447 51.5347C75.2439 51.5258 76.0384 51.6244 76.809 51.8277C77.4746 52.0022 78.0955 52.3165 78.63 52.7497C79.1463 53.1822 79.5482 53.7351 79.8 54.3597C80.0914 55.1109 80.2311 55.9123 80.211 56.7177ZM73.611 59.9377C73.7184 59.9477 73.8427 59.9551 73.984 59.9598C74.1254 59.9644 74.292 59.9667 74.484 59.9667C74.9436 60.0045 75.4061 59.9474 75.8427 59.799C76.2793 59.6505 76.6807 59.4139 77.022 59.1037C77.6016 58.449 77.8985 57.5916 77.848 56.7188C77.9124 56.2741 77.8712 55.8204 77.7277 55.3947C77.5842 54.9689 77.3423 54.5829 77.0219 54.2679C76.7014 53.953 76.3112 53.718 75.883 53.5819C75.4548 53.4459 75.0005 53.4126 74.557 53.4847C74.401 53.4847 74.2404 53.4871 74.075 53.4917C73.9185 53.4958 73.7623 53.5078 73.607 53.5277L73.611 59.9377Z" fill="white"/>
<path d="M83.5154 51.8742C83.5241 52.0504 83.4939 52.2263 83.4268 52.3895C83.3597 52.5526 83.2575 52.699 83.1274 52.8182C82.8746 53.04 82.5498 53.1622 82.2134 53.1622C81.8771 53.1622 81.5523 53.04 81.2994 52.8182C81.0513 52.5667 80.9121 52.2275 80.9121 51.8742C80.9121 51.5208 81.0513 51.1817 81.2994 50.9302C81.5524 50.7086 81.8772 50.5864 82.2134 50.5864C82.5497 50.5864 82.8745 50.7086 83.1274 50.9302C83.2575 51.0493 83.3597 51.1957 83.4268 51.3589C83.4939 51.522 83.5241 51.698 83.5154 51.8742ZM83.3154 61.7962H81.1364V54.0962H83.3154V61.7962Z" fill="white"/>
<path d="M86.7343 60.2309C87.0219 60.2484 87.3102 60.2086 87.5823 60.1139C87.665 60.0725 87.7331 60.0069 87.7775 59.9258C87.8218 59.8446 87.8402 59.7518 87.8303 59.6599C87.8225 59.5614 87.7887 59.4669 87.7323 59.3858C87.6759 59.3048 87.5989 59.2403 87.5093 59.1989C87.1963 59.0219 86.8684 58.8726 86.5293 58.7529C86.213 58.6355 85.903 58.5019 85.6003 58.3528C85.3394 58.2283 85.1001 58.0629 84.8913 57.8629C84.6945 57.6703 84.5401 57.4387 84.4383 57.1829C84.3238 56.8792 84.2692 56.5563 84.2773 56.2319C84.2641 55.9033 84.3299 55.5764 84.4691 55.2786C84.6083 54.9807 84.8168 54.7205 85.0773 54.5199C85.7216 54.0679 86.4995 53.8463 87.2853 53.8909C87.7369 53.8896 88.1876 53.9314 88.6313 54.0159C88.9796 54.0773 89.3222 54.1679 89.6553 54.2869L89.2753 55.9868C89.0044 55.8941 88.7286 55.816 88.4493 55.7529C88.1208 55.6823 87.7853 55.6488 87.4493 55.6529C86.7666 55.6529 86.4253 55.8432 86.4253 56.2238C86.4238 56.304 86.4388 56.3837 86.4693 56.4579C86.5085 56.5391 86.569 56.6082 86.6443 56.6579C86.7577 56.7363 86.8775 56.8052 87.0023 56.8639C87.1536 56.9379 87.3463 57.0189 87.5803 57.1069C87.9871 57.2527 88.3828 57.4278 88.7643 57.6309C89.0396 57.775 89.2893 57.9635 89.5033 58.1889C89.6782 58.3789 89.8081 58.6058 89.8833 58.8528C89.9609 59.1283 89.9979 59.4137 89.9933 59.6999C90.0117 60.0364 89.9426 60.372 89.7928 60.674C89.6429 60.9759 89.4175 61.2339 89.1383 61.4229C88.4074 61.854 87.5644 62.0573 86.7173 62.0069C85.8127 62.0276 84.913 61.8685 84.0703 61.5388L84.4363 59.7679C84.8064 59.9142 85.188 60.0293 85.5773 60.1118C85.9577 60.192 86.3455 60.232 86.7343 60.2309Z" fill="white"/>
<path d="M90.7122 52.1791L92.8913 51.8281V54.0961H95.5092V55.9111H92.8913V58.6181C92.8725 58.9997 92.9557 59.3794 93.1322 59.7181C93.2427 59.8675 93.3913 59.9844 93.5625 60.0565C93.7337 60.1287 93.9212 60.1534 94.1053 60.1281C94.3481 60.1273 94.5903 60.1052 94.8293 60.0621C95.0611 60.0225 95.2888 59.9613 95.5092 59.8792L95.8163 61.5791C95.5309 61.6935 95.2374 61.7865 94.9383 61.8571C94.5492 61.9422 94.1515 61.9815 93.7533 61.9742C93.2499 61.9898 92.7483 61.9076 92.2762 61.7321C91.9125 61.5903 91.5905 61.3588 91.3402 61.0591C91.0978 60.7533 90.93 60.3952 90.8502 60.0132C90.7536 59.566 90.7069 59.1095 90.7112 58.6521L90.7122 52.1791Z" fill="white"/>
<path d="M98.9159 53.8929C99.4606 53.8785 100.004 53.9525 100.525 54.1119C100.915 54.2342 101.269 54.4502 101.556 54.7409C101.819 55.0234 102.008 55.3671 102.104 55.7409C102.216 56.1651 102.27 56.6024 102.265 57.041V61.5779C101.953 61.6446 101.52 61.7253 100.965 61.8199C100.297 61.9206 99.6216 61.9671 98.946 61.959C98.4916 61.9632 98.038 61.9189 97.5929 61.8269C97.2195 61.7522 96.8643 61.6055 96.547 61.3949C96.2571 61.1983 96.0248 60.9281 95.8739 60.6119C95.7075 60.2397 95.6274 59.8345 95.6399 59.4269C95.6275 59.0293 95.721 58.6355 95.9109 58.2859C96.0853 57.9801 96.3344 57.7234 96.6349 57.5399C96.9555 57.3483 97.3066 57.213 97.673 57.14C98.0721 57.0559 98.479 57.014 98.8869 57.015C99.1384 57.0135 99.3898 57.0259 99.6399 57.0519C99.8202 57.0691 99.9988 57.1009 100.174 57.1469V56.9469C100.181 56.7832 100.156 56.6197 100.098 56.4664C100.04 56.313 99.9516 56.173 99.8379 56.0549C99.5062 55.7955 99.0869 55.6747 98.668 55.718C98.2998 55.7175 97.9322 55.7442 97.568 55.7979C97.2491 55.8415 96.9354 55.9176 96.6319 56.0249L96.354 54.269C96.4807 54.2303 96.639 54.1886 96.829 54.144C97.019 54.0993 97.2263 54.0603 97.451 54.0269C97.675 53.9929 97.9113 53.9636 98.16 53.9389C98.4086 53.9143 98.6606 53.8989 98.9159 53.8929ZM101.227 52.356L100.42 53.3219L98.953 52.1949L97.4859 53.3219L96.6499 52.356L98.9499 50.356L101.227 52.356ZM99.092 60.2729C99.306 60.2729 99.5106 60.2679 99.706 60.2579C99.8627 60.2521 100.019 60.2374 100.174 60.2139V58.5599C100.086 58.5409 99.955 58.521 99.779 58.502C99.6186 58.4835 99.4574 58.4738 99.2959 58.4729C99.1027 58.4724 98.9096 58.4847 98.7179 58.5099C98.553 58.5298 98.3926 58.5767 98.243 58.649C98.1129 58.7114 98.0017 58.8073 97.9209 58.9269C97.8389 59.0583 97.7981 59.2112 97.8039 59.3659C97.7893 59.5046 97.8138 59.6446 97.8746 59.7701C97.9354 59.8955 98.03 60.0015 98.1479 60.0759C98.4403 60.222 98.7655 60.2903 99.092 60.274V60.2729Z" fill="white"/>
<path d="M103.406 54.3618C103.877 54.2332 104.356 54.133 104.839 54.0618C105.449 53.9673 106.065 53.9208 106.682 53.9228C107.237 53.9067 107.79 53.9934 108.313 54.1788C108.714 54.3266 109.069 54.5766 109.344 54.9038C109.604 55.23 109.789 55.6097 109.885 56.0158C109.997 56.4854 110.051 56.967 110.046 57.4498V61.7958H107.867V57.7128C107.907 57.1997 107.811 56.6852 107.589 56.2208C107.469 56.0632 107.311 55.9398 107.128 55.8628C106.946 55.7858 106.747 55.7578 106.55 55.7818C106.394 55.7818 106.228 55.7891 106.05 55.8038C105.873 55.8184 105.717 55.8354 105.582 55.8548V61.7968H103.406V54.3618Z" fill="white"/>
<path d="M110.825 57.9482C110.821 57.4119 110.913 56.8793 111.096 56.3752C111.265 55.8947 111.533 55.4548 111.882 55.0833C112.231 54.7119 112.653 54.4169 113.122 54.2172C113.649 53.9947 114.217 53.885 114.789 53.8952C115.167 53.8922 115.544 53.9291 115.915 54.0052C116.255 54.0786 116.589 54.1841 116.91 54.3202L116.457 56.0622C116.237 55.9813 116.012 55.9145 115.784 55.8622C115.515 55.8008 115.24 55.7713 114.965 55.7742C114.694 55.7541 114.423 55.798 114.173 55.9022C113.923 56.0064 113.701 56.1681 113.525 56.3742C113.189 56.831 113.021 57.3892 113.049 57.9552C113.013 58.5266 113.17 59.0935 113.495 59.5652C113.693 59.7739 113.936 59.934 114.206 60.033C114.476 60.1321 114.766 60.1674 115.052 60.1362C115.336 60.1346 115.619 60.1102 115.9 60.0632C116.186 60.0189 116.465 59.9404 116.733 59.8292L117.04 61.6142C116.732 61.7375 116.414 61.8306 116.089 61.8922C115.674 61.9734 115.253 62.0126 114.831 62.0092C114.212 62.0241 113.596 61.9174 113.018 61.6952C112.542 61.5072 112.114 61.2146 111.767 60.8392C111.435 60.4708 111.19 60.0332 111.05 59.5582C110.894 59.0358 110.818 58.4931 110.825 57.9482Z" fill="white"/>
<path d="M120.049 51.8742C120.057 52.0504 120.027 52.2263 119.96 52.3895C119.893 52.5526 119.791 52.699 119.661 52.8182C119.408 53.04 119.083 53.1622 118.747 53.1622C118.41 53.1622 118.085 53.04 117.833 52.8182C117.584 52.5667 117.445 52.2275 117.445 51.8742C117.445 51.5208 117.584 51.1817 117.833 50.9302C118.086 50.7086 118.41 50.5864 118.747 50.5864C119.083 50.5864 119.408 50.7086 119.661 50.9302C119.791 51.0493 119.893 51.1957 119.96 51.3589C120.027 51.522 120.057 51.698 120.049 51.8742ZM119.849 61.7962H117.67V54.0962H119.849V61.7962Z" fill="white"/>
<path d="M123.823 53.8938C124.368 53.8797 124.911 53.954 125.432 54.1138C125.822 54.236 126.176 54.452 126.463 54.7428C126.726 55.0252 126.915 55.369 127.011 55.7428C127.122 56.167 127.177 56.6042 127.172 57.0428V61.5798C126.86 61.6464 126.427 61.7271 125.872 61.8218C125.204 61.9225 124.529 61.9689 123.854 61.9608C123.4 61.965 122.946 61.9207 122.501 61.8288C122.128 61.7542 121.772 61.6074 121.455 61.3968C121.165 61.2002 120.933 60.9299 120.782 60.6138C120.616 60.2415 120.536 59.8364 120.548 59.4288C120.536 59.0308 120.629 58.6367 120.819 58.2868C120.994 57.981 121.243 57.7243 121.543 57.5408C121.864 57.3491 122.215 57.2138 122.581 57.1408C122.98 57.0567 123.387 57.0148 123.795 57.0158C124.047 57.0144 124.298 57.0267 124.548 57.0528C124.729 57.0716 124.907 57.1051 125.082 57.1528V56.9528C125.09 56.789 125.064 56.6255 125.006 56.4722C124.948 56.3188 124.86 56.1788 124.746 56.0608C124.415 55.8011 123.995 55.6803 123.576 55.7238C123.208 55.7233 122.84 55.7501 122.476 55.8038C122.157 55.8474 121.844 55.9234 121.54 56.0308L121.262 54.2748C121.389 54.2358 121.547 54.1938 121.737 54.1508C121.927 54.1078 122.137 54.0677 122.358 54.0337C122.579 53.9997 122.819 53.9698 123.068 53.9458C123.317 53.9218 123.569 53.8938 123.823 53.8938ZM123.999 60.2748C124.213 60.2748 124.418 60.2698 124.613 60.2598C124.77 60.2539 124.926 60.2392 125.081 60.2158V58.5618C124.993 58.5428 124.861 58.5228 124.686 58.5028C124.526 58.4844 124.365 58.4747 124.203 58.4738C124.01 58.4728 123.817 58.4849 123.625 58.5098C123.46 58.5296 123.3 58.5766 123.15 58.6488C123.02 58.7113 122.909 58.8072 122.828 58.9268C122.746 59.0581 122.705 59.211 122.711 59.3657C122.697 59.5044 122.721 59.6443 122.782 59.7698C122.843 59.8953 122.937 60.0012 123.055 60.0758C123.347 60.2222 123.673 60.2908 123.999 60.2748Z" fill="white"/>
</g>
</svg>
