<svg xmlns="http://www.w3.org/2000/svg" width="73.981" height="66.354" viewBox="0 0 73.981 66.354">
  <g id="Grupo_8641" data-name="Grupo 8641" transform="translate(-34.593 -34.683)">
    <g id="Grupo_8637" data-name="Grupo 8637" transform="translate(34.593 92.789)">
      <path id="Caminho_3219" data-name="Caminho 3219" d="M35.967,212.755c0,.858.668,1.193,1.427,1.193.5,0,1.256-.145,1.256-.8,0-.7-.967-.813-1.915-1.066s-1.924-.623-1.924-1.834a2.154,2.154,0,0,1,2.412-1.951c1.346,0,2.584.587,2.584,2.078H38.434c-.046-.777-.6-.976-1.274-.976-.451,0-.976.189-.976.732,0,.5.307.56,1.924.976.47.117,1.915.416,1.915,1.879,0,1.183-.93,2.069-2.683,2.069-1.427,0-2.765-.7-2.747-2.295Z" transform="translate(-34.593 -208.292)" fill="#fff"/>
      <path id="Caminho_3220" data-name="Caminho 3220" d="M53.05,216.463c.036.813.433,1.183,1.147,1.183a1.056,1.056,0,0,0,1.012-.6h1.13a2.1,2.1,0,0,1-2.187,1.572,2.281,2.281,0,0,1-2.385-2.457,2.347,2.347,0,1,1,4.653.307Zm2.087-.813c-.118-.651-.4-.994-1.021-.994a1.011,1.011,0,0,0-1.066.994Z" transform="translate(-46.019 -211.883)" fill="#fff"/>
      <path id="Caminho_3221" data-name="Caminho 3221" d="M75.082,213.016c.036.813.433,1.183,1.147,1.183a1.057,1.057,0,0,0,1.012-.6H78.37a2.1,2.1,0,0,1-2.186,1.572,2.281,2.281,0,0,1-2.385-2.457,2.347,2.347,0,1,1,4.652.307Zm2.087-.813c-.118-.651-.4-.994-1.021-.994a1.01,1.01,0,0,0-1.066.994Zm-.822-2.412h-.894l.867-1.283h1.418Z" transform="translate(-60.677 -208.436)" fill="#fff"/>
      <path id="Caminho_3222" data-name="Caminho 3222" d="M96.909,208.751h3.035c1.229,0,2.06.4,2.06,1.6a1.415,1.415,0,0,1-.877,1.346,1.575,1.575,0,0,1,1.184,1.635c0,1.31-1.112,1.87-2.277,1.87H96.909Zm1.418,2.611h1.437c.5,0,.867-.226.867-.768,0-.614-.47-.741-.976-.741H98.327Zm0,2.737h1.518c.56,0,1.048-.181,1.048-.849s-.416-.922-1.021-.922H98.327Z" transform="translate(-76.052 -208.597)" fill="#fff"/>
      <path id="Caminho_3223" data-name="Caminho 3223" d="M114.578,215.253c.072-1.2,1.147-1.563,2.2-1.563.93,0,2.051.208,2.051,1.328v2.43a2.392,2.392,0,0,0,.163,1.039h-1.3a1.886,1.886,0,0,1-.09-.451,2.144,2.144,0,0,1-1.572.578c-.885,0-1.59-.442-1.59-1.4,0-1.057.795-1.31,1.59-1.419s1.518-.09,1.518-.614c0-.551-.379-.632-.831-.632-.488,0-.8.2-.849.7Zm2.963.949a2.552,2.552,0,0,1-1.066.271c-.4.081-.759.217-.759.686s.371.6.786.6a.953.953,0,0,0,1.039-1.075Z" transform="translate(-87.711 -211.883)" fill="#fff"/>
      <path id="Caminho_3224" data-name="Caminho 3224" d="M131.265,219.326a1.466,1.466,0,0,1-1.608,1.057,7.645,7.645,0,0,1-.786-.045v-1.057a6.825,6.825,0,0,0,.75.046.6.6,0,0,0,.443-.876l-1.644-4.382h1.373l1.057,3.2h.018l1.021-3.2h1.328Z" transform="translate(-97.016 -212.135)" fill="#fff"/>
      <path id="Caminho_3225" data-name="Caminho 3225" d="M144.173,216.463c.036.813.433,1.183,1.147,1.183a1.057,1.057,0,0,0,1.012-.6h1.129a2.1,2.1,0,0,1-2.187,1.572,2.281,2.281,0,0,1-2.385-2.457,2.347,2.347,0,1,1,4.653.307Zm2.087-.813c-.118-.651-.4-.994-1.021-.994a1.011,1.011,0,0,0-1.066.994Z" transform="translate(-106.644 -211.883)" fill="#fff"/>
      <path id="Caminho_3226" data-name="Caminho 3226" d="M158.577,213.817H159.8v.867h.018a1.652,1.652,0,0,1,1.491-.994.957.957,0,0,1,.28.045v1.193a2.34,2.34,0,0,0-.461-.045c-.939,0-1.264.677-1.264,1.5v2.1h-1.283Z" transform="translate(-117.08 -211.883)" fill="#fff"/>
      <path id="Caminho_3227" data-name="Caminho 3227" d="M166.3,223.866h1.418v1.391a1.536,1.536,0,0,1-1.409,1.5v-.651a.824.824,0,0,0,.641-.849h-.65Z" transform="translate(-122.218 -218.653)" fill="#fff"/>
      <path id="Caminho_3228" data-name="Caminho 3228" d="M180.758,213.016c.036.813.433,1.183,1.147,1.183a1.056,1.056,0,0,0,1.012-.6h1.13a2.1,2.1,0,0,1-2.187,1.572,2.281,2.281,0,0,1-2.385-2.457,2.347,2.347,0,1,1,4.653.307Zm2.087-.813c-.118-.651-.4-.994-1.021-.994a1.011,1.011,0,0,0-1.066.994Zm-.822-2.412h-.894l.867-1.283h1.418Z" transform="translate(-130.984 -208.436)" fill="#fff"/>
      <path id="Caminho_3229" data-name="Caminho 3229" d="M202.182,208.751h1.283V211.1h.018a1.724,1.724,0,0,1,1.472-.7c.931,0,1.934.75,1.934,2.457s-1,2.466-1.934,2.466a1.618,1.618,0,0,1-1.536-.723H203.4v.6h-1.22Zm2.331,2.62c-.759,0-1.093.714-1.093,1.5s.334,1.49,1.093,1.49,1.093-.713,1.093-1.49S205.272,211.371,204.513,211.371Z" transform="translate(-146.091 -208.597)" fill="#fff"/>
      <path id="Caminho_3230" data-name="Caminho 3230" d="M220.172,213.69a2.462,2.462,0,1,1-2.412,2.466A2.293,2.293,0,0,1,220.172,213.69Zm0,3.957c.877,0,1.138-.75,1.138-1.49s-.262-1.5-1.138-1.5-1.13.75-1.13,1.5S219.305,217.647,220.172,217.647Z" transform="translate(-156.455 -211.883)" fill="#fff"/>
      <path id="Caminho_3231" data-name="Caminho 3231" d="M234.311,213.817h1.211v.633h.018a1.687,1.687,0,0,1,1.428-.759,1.382,1.382,0,0,1,1.364.777,1.7,1.7,0,0,1,1.409-.777,1.51,1.51,0,0,1,1.707,1.671v3.126h-1.283V215.84c0-.623-.054-1.138-.786-1.138s-.858.6-.858,1.183v2.6h-1.283v-2.62c0-.542.036-1.165-.777-1.165-.253,0-.868.162-.868,1.075v2.71h-1.283Z" transform="translate(-167.467 -211.883)" fill="#fff"/>
    </g>
    <g id="Grupo_8638" data-name="Grupo 8638" transform="translate(48.366 34.683)">
      <path id="Caminho_3232" data-name="Caminho 3232" d="M137.865,50.445h2.7a.54.54,0,1,0,0-1.081h-2.7Zm0,2.624h2.78a.618.618,0,0,0,0-1.235h-2.78Zm4.342-1.988a1.968,1.968,0,0,1-1.37,3.378h-4.515V47.974h4.441a1.891,1.891,0,0,1,1.445,3.106Z" transform="translate(-116.046 -43.526)" fill="#fff"/>
      <path id="Caminho_3233" data-name="Caminho 3233" d="M141.137,77.532H139.48l-.522-1.081h-3.627l-.522,1.081h-1.656l3.241-6.481h1.5Zm-3.992-4.823-1.139,2.355h2.276Z" transform="translate(-113.937 -58.879)" fill="#fff"/>
      <path id="Caminho_3234" data-name="Caminho 3234" d="M139.215,94.568h1.857l-3.287,4.22v2.261h-1.544V98.789l-3.286-4.22h1.857l2.2,2.952Z" transform="translate(-113.806 -74.525)" fill="#fff"/>
      <path id="Caminho_3235" data-name="Caminho 3235" d="M165.818,94.568v1.389H161.5v1.08h4.167v1.389H161.5v1.235h4.321v1.389h-5.865V94.568Z" transform="translate(-131.768 -74.525)" fill="#fff"/>
      <path id="Caminho_3236" data-name="Caminho 3236" d="M186.633,98.581h-1.158v2.469h-1.543V94.568h3.942a2.008,2.008,0,0,1,.561,3.934l1.9,2.547h-1.852Zm1.083-2.623h-2.241v1.235h2.241a.617.617,0,0,0,0-1.235Z" transform="translate(-147.721 -74.525)" fill="#fff"/>
      <path id="Caminho_3237" data-name="Caminho 3237" d="M119.235,101.049h-1.657l-.521-1.08h-3.627l-.522,1.08H111.25l3.241-6.481h1.5Zm-3.993-4.823L114.1,98.581h2.277Z" transform="translate(-99.366 -74.525)" fill="#fff"/>
      <path id="Caminho_3238" data-name="Caminho 3238" d="M90.863,97.048h2.7a.54.54,0,1,0,0-1.08h-2.7Zm0,2.624h2.78a.618.618,0,0,0,0-1.235h-2.78ZM95.2,97.684a1.968,1.968,0,0,1-1.37,3.378H89.319V94.578H93.76A1.891,1.891,0,0,1,95.2,97.684Z" transform="translate(-84.775 -74.532)" fill="#fff"/>
      <path id="Caminho_3239" data-name="Caminho 3239" d="M142.186,118.084v1.389h-4.322v1.081h4.167v1.388h-4.167v1.235h4.322v1.389h-5.865v-6.482Z" transform="translate(-116.046 -90.17)" fill="#fff"/>
      <path id="Caminho_3240" data-name="Caminho 3240" d="M141.1,144.07a.618.618,0,0,0-.612-.618h-2.626v1.234h2.626A.617.617,0,0,0,141.1,144.07Zm-4.781,4.474v-6.482h4.329a2.01,2.01,0,0,1,.746,3.87l1.947,2.611h-1.853l-1.853-2.468h-1.774v2.468Z" transform="translate(-116.046 -106.123)" fill="#fff"/>
      <path id="Caminho_3241" data-name="Caminho 3241" d="M77.893,57.9A21.067,21.067,0,1,1,98.961,78.968,21.067,21.067,0,0,1,77.893,57.9Zm44.286,0A23.219,23.219,0,1,1,98.961,34.683,23.219,23.219,0,0,1,122.179,57.9Z" transform="translate(-75.742 -34.683)" fill="#fff" fill-rule="evenodd"/>
    </g>
  </g>
</svg>
