<svg xmlns="http://www.w3.org/2000/svg" width="37.042" height="37.041" viewBox="0 0 37.042 37.041">
  <g id="Grupo_8640" data-name="Grupo 8640" transform="translate(-48.366 -34.683)">
    <g id="Grupo_8638" data-name="Grupo 8638" transform="translate(48.366 34.683)">
      <path id="Caminho_3232" data-name="Caminho 3232" d="M137.553,49.945h2.154a.431.431,0,1,0,0-.862h-2.154Zm0,2.093h2.217a.493.493,0,0,0,0-.985h-2.217Zm3.463-1.586a1.57,1.57,0,0,1-1.093,2.695h-3.6V47.974h3.542a1.508,1.508,0,0,1,1.152,2.478Z" transform="translate(-120.148 -44.426)" fill="#fff"/>
      <path id="Caminho_3233" data-name="Caminho 3233" d="M139.521,76.221H138.2l-.416-.862H134.89l-.417.862h-1.321l2.585-5.17h1.2Zm-3.184-3.847-.908,1.878h1.816Z" transform="translate(-117.825 -61.342)" fill="#fff"/>
      <path id="Caminho_3234" data-name="Caminho 3234" d="M137.948,94.568h1.482l-2.622,3.366v1.8h-1.231v-1.8l-2.622-3.366h1.481l1.756,2.354Z" transform="translate(-117.68 -78.58)" fill="#fff"/>
      <path id="Caminho_3235" data-name="Caminho 3235" d="M164.632,94.568v1.108h-3.447v.862h3.324v1.108h-3.324v.985h3.447v1.108h-4.678v-5.17Z" transform="translate(-137.471 -78.58)" fill="#fff"/>
      <path id="Caminho_3236" data-name="Caminho 3236" d="M186.087,97.769h-.924v1.969h-1.231v-5.17h3.144a1.6,1.6,0,0,1,.447,3.138l1.517,2.032h-1.477Zm.864-2.093h-1.788v.985h1.788a.492.492,0,0,0,0-.985Z" transform="translate(-155.048 -78.58)" fill="#fff"/>
      <path id="Caminho_3237" data-name="Caminho 3237" d="M117.619,99.738H116.3l-.416-.862h-2.893l-.417.862H111.25l2.585-5.17h1.2Zm-3.185-3.847-.908,1.878h1.816Z" transform="translate(-101.77 -78.58)" fill="#fff"/>
      <path id="Caminho_3238" data-name="Caminho 3238" d="M90.551,96.549H92.7a.431.431,0,1,0,0-.862H90.551Zm0,2.093h2.217a.493.493,0,0,0,0-.985H90.551Zm3.463-1.586a1.57,1.57,0,0,1-1.093,2.695h-3.6V94.578h3.542a1.508,1.508,0,0,1,1.152,2.477Z" transform="translate(-85.694 -78.588)" fill="#fff"/>
      <path id="Caminho_3239" data-name="Caminho 3239" d="M141,118.084v1.108h-3.447v.862h3.324v1.108h-3.324v.985H141v1.108h-4.678v-5.17Z" transform="translate(-120.148 -95.818)" fill="#fff"/>
      <path id="Caminho_3240" data-name="Caminho 3240" d="M140.135,143.664a.493.493,0,0,0-.488-.493h-2.095v.984h2.095A.492.492,0,0,0,140.135,143.664Zm-3.814,3.569v-5.17h3.453a1.6,1.6,0,0,1,.6,3.087l1.553,2.083h-1.478l-1.478-1.969h-1.415v1.969Z" transform="translate(-120.148 -113.394)" fill="#fff"/>
      <path id="Caminho_3241" data-name="Caminho 3241" d="M77.458,53.2a16.8,16.8,0,1,1,16.805,16.8A16.8,16.8,0,0,1,77.458,53.2Zm35.326,0a18.521,18.521,0,1,1-18.521-18.52A18.521,18.521,0,0,1,112.784,53.2Z" transform="translate(-75.742 -34.683)" fill="#fff" fill-rule="evenodd"/>
    </g>
  </g>
</svg>
