<svg xmlns="http://www.w3.org/2000/svg" width="23.602" height="23.602" viewBox="0 0 23.602 23.602">
  <g transform="translate(20428 15784)">
    <path d="M11.8,0A11.8,11.8,0,1,1,0,11.8,11.8,11.8,0,0,1,11.8,0Z"
      transform="translate(-20428 -15784)" />
    <path
      d="M61.733-966.886l-.384-.838-.842-.391.841-.388.384-.841.391.842.839.387-.839.391Zm-1.995-2.835-.583-1.249-1.252-.587,1.252-.587.583-1.249.591,1.249,1.249.587-1.248.588Zm-6.412,10.532a1.244,1.244,0,0,1-.925-.388,1.311,1.311,0,0,1-.379-.952h2.616a1.305,1.305,0,0,1-.382.952,1.255,1.255,0,0,1-.93.388Zm-2.569-2.336v-.987H55.9v.987Zm.079-1.968a5.324,5.324,0,0,1-1.688-1.727,4.442,4.442,0,0,1-.625-2.34,4.621,4.621,0,0,1,1.425-3.379,4.615,4.615,0,0,1,3.38-1.426,4.619,4.619,0,0,1,3.381,1.426,4.619,4.619,0,0,1,1.426,3.379,4.486,4.486,0,0,1-.617,2.34,5.193,5.193,0,0,1-1.7,1.728Zm.387-1.07h4.229a3.641,3.641,0,0,0,1.178-1.289,3.489,3.489,0,0,0,.434-1.708,3.591,3.591,0,0,0-1.1-2.637,3.6,3.6,0,0,0-2.64-1.1,3.59,3.59,0,0,0-2.636,1.1,3.6,3.6,0,0,0-1.094,2.637,3.5,3.5,0,0,0,.432,1.708A3.559,3.559,0,0,0,51.223-964.562ZM53.328-964.562Z"
      transform="translate(-20469.582 -14805.909)" fill="#fff" />
  </g>
</svg>