<svg id="Grupo_10055" data-name="Grupo 10055" xmlns="http://www.w3.org/2000/svg" xmlns:xlink="http://www.w3.org/1999/xlink" width="359.845" height="140.095" viewBox="0 0 359.845 140.095">
  <defs>
    <clipPath id="clip-path">
      <rect id="Retângulo_3192" data-name="Retângulo 3192" width="359.845" height="140.095" fill="#141414"/>
    </clipPath>
  </defs>
  <g id="Grupo_10055-2" data-name="Grupo 10055" clip-path="url(#clip-path)">
    <path id="Caminho_4341" data-name="Caminho 4341" d="M623.883,159.882c-4.164,0-4.107,5.828-5.83,5.828a2.662,2.662,0,0,0-2.915,2.915,5.952,5.952,0,0,0,5.83,5.83c4.655,0,8.745-2.5,8.745-8.745a6.073,6.073,0,0,0-5.83-5.828" transform="translate(-438.798 -114.049)" fill="#141414"/>
    <path id="Caminho_4342" data-name="Caminho 4342" d="M181.552,111.067c-.167.108-3.714,2.923-11.691,2.923-13.037,0-11.409-16.495-8.1-26.366.368-1.1,2.672-7.106,0-8.745-1.821-1.117-4.131-2.915-5.83-2.915-4.273,0-4.7,3.611-5.83,5.83,0,0-16.222,34.981-20.406,34.981-7.231,0-12.451-23.468-9.526-26.236,17.155-16.231,55.534-66,55.534-78.848C175.688,6.991,175.908,0,161.1,0c-22.16,0-39.038,25.932-44.422,35.219-12.451,21.482-14.4,47.821-14.042,55.32.085,1.791-34.559,40.811-40.92,40.811-2.894,0,2.954-34.974,14.614-64.125,1.056-2.639.984-5.837-5.846-5.837-5.846,0-6.31,5.309-7.833,8.745-2.732,6.164-25.44,49.7-47.7,49.7-12.721,0,16.25-52.617,32.151-52.617,1.986,0,5.2,2.453,5.846,2.915,1.259.9,2.923-.431,2.923-2.915,0-3.18-5.861-5.83-11.691-5.83-19.081,0-32.7,15.678-39.829,29.151-6.349,12-8.581,34.138,13.524,35.142,15.63.71,28.448-10.093,35.074-17.652-.959.115-7.132,32.066,8.768,32.066,8.274,0,18.283-8.073,23.981-13.221,7.973-7.2,19.816-21.922,19.861-21.76,2.6,9.23,12.082,20.406,21.225,20.406,9.938,0,13.913-10.2,20.406-23.321,0,6.9,3.921,20.559,19.749,20.559,9.195,0,16.868-7.919,17.537-8.768,2.253-2.862-.3-4.628-2.923-2.923M166.938,8.769c7.719,0-31.567,52.916-46.765,64.574.193-9.648,20.329-64.574,46.765-64.574" transform="translate(0)" fill="#141414"/>
    <path id="Caminho_4343" data-name="Caminho 4343" d="M830.457,238.944c-14.563,5.961-37.98,11.806-46.714,11.806-20.46,0-26.305-5.846-32.151-14.614-.123-.185,32.29-13.9,32.29-38,0-9.8-4.644-14.607-14.719-14.607-27.5,0-37.989,32.205-35.074,52.611-7.8,5.118-33.687,17.1-46.765,17.537s-4.861-30.42,8.768-43.842c8.868-8.734,14-8.769,17.537-8.769,4.827,0,7.588-7.54,3.039-8.429a45.81,45.81,0,0,0-8.885-.339c-29.424.977-43.4,27.857-43.842,40.92S667,259.518,693.17,259.518c20.616,0,43.727-14.775,43.842-14.614,5.972,8.334,11.529,14.445,37.962,14.445,23.348,0,46.7-11.522,55.483-14.575,3.778-1.314,4.148-7.009,0-5.83-.038.011.036-.015,0,0m-52.4-40.811c0,18.846-29.151,32.066-29.151,32.066,0-.193-2.915-37.9,23.321-37.9a5.8,5.8,0,0,1,5.83,5.83" transform="translate(-473.587 -130.914)" fill="#141414"/>
  </g>
</svg>
