<svg width="46" height="62" viewBox="0 0 46 62" fill="none" xmlns="http://www.w3.org/2000/svg">
<g id="Exp-1.-O">
<path id="Vector" d="M17.514 45.024H16.514V50.56H17.514V45.024Z" fill="#898E97"/>
<path id="Vector_2" d="M25.514 45.024H24.514V50.56H25.514V45.024Z" fill="#898E97"/>
<path id="Vector_3" fill-rule="evenodd" clip-rule="evenodd" d="M13.293 54.702V58.919C13.293 60.298 14.414 61.419 15.793 61.419H26.235C27.615 61.419 28.735 60.298 28.735 58.919V52.317C28.735 50.937 27.615 49.817 26.235 49.817H15.793C14.414 49.817 13.293 50.937 13.293 52.317C13.293 52.593 13.517 52.817 13.793 52.817C14.069 52.817 14.293 52.593 14.293 52.317C14.293 51.489 14.966 50.817 15.793 50.817H26.235C27.063 50.817 27.735 51.489 27.735 52.317V58.919C27.735 59.746 27.063 60.419 26.235 60.419H15.793C14.966 60.419 14.293 59.746 14.293 58.919V54.702C14.293 54.426 14.069 54.202 13.793 54.202C13.517 54.202 13.293 54.426 13.293 54.702Z" fill="#898E97"/>
<path id="Vector_4" fill-rule="evenodd" clip-rule="evenodd" d="M20.431 1.17702C17.624 2.12402 15.43 9.99603 13.43 19.555C12.351 24.712 14.093 29.552 15.155 32.916L15.298 33.352C16.205 36.203 18.588 39.829 19.201 43.794H16.543C15.635 39.813 13.947 36.212 11.648 33.352L11.288 32.916C8.604 29.552 6.93 24.808 6.93 19.555C6.93 9.35903 13.235 1.08102 21 1.08102C20.807 1.08502 20.617 1.11502 20.431 1.17702Z" fill="#139BA8" class="--fill-change-color"/>
<path id="Vector_5" fill-rule="evenodd" clip-rule="evenodd" d="M19.258 26.074L21.914 26.877C21.808 27.325 21.729 27.808 21.683 28.334C21.343 32.239 25.329 39.101 25.385 43.794H22.238C21.22 40.782 18.85 33.425 18.835 30.177C18.828 28.789 19.01 27.442 19.258 26.074Z" fill="#139BA8" class="--fill-change-color"/>
<path id="Vector_6" fill-rule="evenodd" clip-rule="evenodd" d="M22.438 1.17701C29.529 2.12401 26.07 7.22501 26.07 16.784C26.07 18.268 25.722 19.574 25.262 20.568L24.615 20.593L25.032 20.953C24.626 21.686 24.131 22.393 23.673 23.095L21 23.174L22.906 24.348C22.739 24.651 22.581 24.967 22.436 25.301L19.297 25.863C19.811 23.098 20.57 20.238 20.57 16.784C20.57 7.40501 23.535 1.99401 21.618 1.18701L21.167 1.08701L22.438 1.17701Z" fill="#139BA8" class="--fill-change-color"/>
<path id="Vector_7" fill-rule="evenodd" clip-rule="evenodd" d="M6.863 33.293C6.863 33.293 7.367 33.726 7.626 33.934C10.89 36.762 13.222 40.396 14.338 44.412L14.552 45.184C14.621 45.432 14.853 45.62 15.131 45.62H26.783C27.192 45.62 27.538 45.349 27.637 44.982L27.673 44.851C28.028 43.537 27.825 41.617 27.415 39.473C26.83 36.414 25.841 32.874 25.716 30.072C25.704 29.797 25.47 29.583 25.194 29.595C24.919 29.607 24.705 29.841 24.717 30.117C24.844 32.96 25.839 36.556 26.433 39.661C26.809 41.627 27.033 43.385 26.708 44.59L26.699 44.62H15.433L15.301 44.144C14.133 39.939 11.693 36.133 8.271 33.169C8.266 33.164 7.525 32.544 7.525 32.544C3.816 29.273 1.5 24.664 1.5 19.558C1.5 15.847 2.723 12.398 4.815 9.53603C4.978 9.31303 4.929 9.00003 4.706 8.83703C4.483 8.67403 4.17 8.72303 4.007 8.94603C1.793 11.977 0.5 15.629 0.5 19.558C0.5 24.957 2.941 29.834 6.863 33.293Z" fill="#898E97"/>
<path id="Vector_8" fill-rule="evenodd" clip-rule="evenodd" d="M6.55 7.49402C10.122 3.86302 15.275 1.58402 21 1.58402C26.007 1.58402 29.173 3.10201 30.907 5.36801C33.496 8.75002 32.867 13.722 30.574 17.448C29.976 18.42 29.566 19.226 29.265 19.916L24.596 20.093C24.391 20.101 24.212 20.234 24.144 20.427C24.076 20.621 24.133 20.837 24.289 20.971L26.085 22.523L20.985 22.675C20.764 22.681 20.574 22.832 20.517 23.045C20.46 23.259 20.55 23.484 20.738 23.6L22.622 24.76L18.746 25.453C18.519 25.494 18.349 25.685 18.335 25.916C18.322 26.147 18.468 26.357 18.69 26.424L25.2 28.392C25.464 28.472 25.743 28.323 25.823 28.058C25.903 27.794 25.753 27.515 25.489 27.435L20.976 26.071L24.088 25.514C24.292 25.478 24.453 25.319 24.491 25.115C24.53 24.911 24.439 24.705 24.262 24.596L22.685 23.625L27.399 23.485C27.606 23.479 27.787 23.347 27.856 23.152C27.925 22.958 27.867 22.741 27.711 22.607L25.903 21.044L29.62 20.903C29.815 20.896 29.988 20.775 30.063 20.594C30.358 19.88 30.775 19.03 31.426 17.972C33.933 13.897 34.532 8.45801 31.702 4.76002C29.823 2.30602 26.424 0.584015 21 0.584015C14.992 0.584015 9.586 2.98201 5.837 6.79302C5.644 6.99002 5.646 7.30701 5.843 7.50001C6.04 7.69401 6.357 7.69102 6.55 7.49402Z" fill="#898E97"/>
<path id="Vector_9" fill-rule="evenodd" clip-rule="evenodd" d="M35.5 18.094C35.5 17.594 35.958 17.209 36.5 17.209C37.042 17.209 37.5 17.594 37.5 18.094C37.5 18.111 37.501 18.129 37.503 18.146C37.503 18.146 37.664 20.755 30.863 22.694C30.598 22.769 30.444 23.046 30.519 23.312C30.595 23.577 30.872 23.731 31.137 23.655C38.629 21.52 38.522 18.327 38.499 18.061C38.486 17.051 37.606 16.209 36.5 16.209C35.386 16.209 34.5 17.065 34.5 18.094C34.5 18.37 34.724 18.594 35 18.594C35.276 18.594 35.5 18.37 35.5 18.094Z" fill="#898E97"/>
<path id="Vector_10" fill-rule="evenodd" clip-rule="evenodd" d="M29.965 25.718C29.965 25.718 35.443 26.469 40.349 21.685C40.547 21.492 40.551 21.176 40.358 20.978C40.165 20.78 39.849 20.776 39.651 20.969C35.129 25.378 30.097 24.727 30.097 24.727C29.824 24.69 29.572 24.883 29.535 25.156C29.499 25.43 29.691 25.681 29.965 25.718Z" fill="#898E97"/>
<path id="Vector_11" fill-rule="evenodd" clip-rule="evenodd" d="M28.803 27.329C32.963 29.116 35.252 28.295 37.59 27.422C39.022 26.886 40.473 26.321 42.469 26.445C42.479 26.445 42.49 26.445 42.5 26.445C43.593 26.445 44.5 27.245 44.5 28.255C44.5 29.265 43.593 30.064 42.5 30.064C41.973 30.064 41.492 29.879 41.132 29.573C40.922 29.395 40.606 29.42 40.427 29.631C40.249 29.841 40.274 30.157 40.485 30.335C41.015 30.786 41.723 31.064 42.5 31.064C44.166 31.064 45.5 29.794 45.5 28.255C45.5 26.719 44.172 25.451 42.51 25.446C40.361 25.316 38.789 25.906 37.24 26.485C35.1 27.285 33.005 28.045 29.197 26.41C28.944 26.301 28.649 26.418 28.541 26.672C28.432 26.925 28.549 27.22 28.803 27.329Z" fill="#898E97"/>
<path id="Vector_12" fill-rule="evenodd" clip-rule="evenodd" d="M28.743 29.607C31.251 31.109 34.269 32.266 38.449 32.008C38.724 31.991 38.934 31.754 38.917 31.478C38.9 31.203 38.663 30.993 38.387 31.01C34.455 31.252 31.616 30.162 29.257 28.749C29.02 28.608 28.713 28.685 28.571 28.922C28.429 29.158 28.506 29.466 28.743 29.607Z" fill="#898E97"/>
</g>
</svg>
