<svg width="62" height="50" viewBox="0 0 62 50" fill="none" xmlns="http://www.w3.org/2000/svg">
<g id="Exp-1.-O">
<path id="Vector" fill-rule="evenodd" clip-rule="evenodd" d="M49.71 16.023V22.65C49.71 22.926 49.934 23.15 50.21 23.15C50.486 23.15 50.71 22.926 50.71 22.65V16.023C50.71 15.747 50.486 15.523 50.21 15.523C49.934 15.523 49.71 15.747 49.71 16.023Z" fill="#898E97"/>
<path id="Vector_2" fill-rule="evenodd" clip-rule="evenodd" d="M46.855 47.031C46.619 47.57 46.363 48.079 46.085 48.548C45.995 48.698 45.833 48.789 45.658 48.789C41.823 48.79 19.112 48.79 12.762 48.79C12.587 48.79 12.424 48.698 12.334 48.548C12.243 48.397 12.239 48.21 12.321 48.055C12.326 48.047 12.33 48.038 12.334 48.03C15.471 41.219 15.71 29.365 15.71 29.365V23.633C15.71 23.357 15.486 23.133 15.21 23.133C14.934 23.133 14.71 23.357 14.71 23.633V29.35C14.705 29.606 14.461 41.004 11.433 47.595C11.191 48.063 11.208 48.616 11.476 49.062C11.747 49.513 12.235 49.79 12.761 49.79C19.111 49.79 41.824 49.79 45.658 49.789C46.184 49.789 46.671 49.514 46.942 49.064L46.944 49.06C47.242 48.557 47.518 48.011 47.771 47.433C47.882 47.18 47.767 46.885 47.514 46.774C47.261 46.663 46.966 46.778 46.855 47.031Z" fill="#898E97"/>
<path id="Vector_3" fill-rule="evenodd" clip-rule="evenodd" d="M15.71 3.94899V1.70999C15.71 1.43399 15.934 1.20999 16.21 1.20999H36.272C36.548 1.20999 36.772 0.985991 36.772 0.709991C36.772 0.433991 36.548 0.209991 36.272 0.209991C36.272 0.209991 20.393 0.209991 16.21 0.209991C15.382 0.209991 14.71 0.880991 14.71 1.70999V3.94899C14.71 4.22499 14.934 4.44899 15.21 4.44899C15.486 4.44899 15.71 4.22499 15.71 3.94899Z" fill="#898E97"/>
<path id="Vector_4" fill-rule="evenodd" clip-rule="evenodd" d="M38.772 0.209991H38.763C38.67 0.209991 38.576 0.235991 38.494 0.288991C38.32 0.399991 38.232 0.608991 38.275 0.811991C39.012 4.33299 39.374 7.89599 39.017 11.539C38.968 11.998 39.137 12.458 39.474 12.778C39.754 13.044 40.122 13.19 40.502 13.191H40.523C40.595 13.19 40.667 13.184 40.739 13.173C41.991 12.979 43.232 12.865 44.455 12.867H44.528C46.41 12.877 48.25 13.166 50.026 13.867C50.085 13.89 50.146 13.901 50.207 13.902H50.216C50.356 13.9 50.492 13.839 50.588 13.729C50.727 13.569 50.749 13.338 50.644 13.154C47.823 8.22199 43.958 3.94299 39.062 0.307992C38.976 0.243992 38.874 0.210991 38.772 0.209991Z" fill="#139BA8" class="--fill-change-color"/>
<path id="Vector_5" fill-rule="evenodd" clip-rule="evenodd" d="M50.662 24.5C44.866 24.5 40.162 29.205 40.162 35C40.162 40.795 44.866 45.5 50.662 45.5C56.457 45.5 61.162 40.795 61.162 35C61.162 29.205 56.457 24.5 50.662 24.5ZM50.662 25.5C55.905 25.5 60.162 29.757 60.162 35C60.162 40.243 55.905 44.5 50.662 44.5C45.418 44.5 41.162 40.243 41.162 35C41.162 29.757 45.418 25.5 50.662 25.5Z" fill="#898E97"/>
<path id="Vector_6" fill-rule="evenodd" clip-rule="evenodd" d="M49.662 30V40C49.662 40.552 50.11 41 50.662 41C51.214 41 51.662 40.552 51.662 40V30C51.662 29.448 51.214 29 50.662 29C50.11 29 49.662 29.448 49.662 30Z" fill="#139BA8" class="--fill-change-color"/>
<path id="Vector_7" fill-rule="evenodd" clip-rule="evenodd" d="M55.662 34H45.662C45.11 34 44.662 34.448 44.662 35C44.662 35.552 45.11 36 45.662 36H55.662C56.214 36 56.662 35.552 56.662 35C56.662 34.448 56.214 34 55.662 34Z" fill="#139BA8" class="--fill-change-color"/>
<path id="Vector_8" fill-rule="evenodd" clip-rule="evenodd" d="M20.638 15.815L22.688 14.986C23.255 14.757 23.626 14.207 23.626 13.595C23.626 12.984 23.254 12.434 22.688 12.205C22.058 11.95 21.352 11.665 20.64 11.377C17.749 10.209 15.456 7.91698 14.287 5.02598L13.457 2.97398C13.228 2.40698 12.678 2.03598 12.066 2.03598C11.455 2.03598 10.905 2.40698 10.676 2.97398L9.849 5.01998C8.681 7.91098 6.389 10.204 3.498 11.373C2.783 11.663 2.074 11.949 1.443 12.205C0.876005 12.434 0.505005 12.984 0.505005 13.595C0.505005 14.207 0.876005 14.757 1.443 14.986C2.075 15.241 2.784 15.528 3.499 15.818C6.39001 16.987 8.682 19.28 9.85001 22.171L10.676 24.216C10.905 24.783 11.455 25.154 12.066 25.154C12.678 25.154 13.228 24.783 13.457 24.216C13.712 23.587 13.998 22.88 14.286 22.167C15.454 19.276 17.747 16.983 20.638 15.815ZM22.313 14.059L20.263 14.888C17.121 16.158 14.629 18.65 13.359 21.792C13.07 22.505 12.785 23.212 12.53 23.842C12.454 24.03 12.27 24.154 12.067 24.154C11.863 24.154 11.679 24.03 11.603 23.841L10.777 21.797C9.50701 18.654 7.016 16.162 3.874 14.891L1.818 14.059C1.629 13.982 1.505 13.799 1.505 13.595C1.505 13.392 1.629 13.208 1.818 13.132L3.873 12.301C7.01501 11.03 9.507 8.53698 10.776 5.39498L11.603 3.34898C11.679 3.15998 11.863 3.03598 12.067 3.03598C12.27 3.03598 12.454 3.15898 12.53 3.34798L13.36 5.40098C14.631 8.54298 17.123 11.035 20.265 12.304L22.313 13.132C22.502 13.208 22.626 13.392 22.626 13.595C22.626 13.799 22.502 13.983 22.313 14.059Z" fill="#898E97"/>
<path id="Vector_9" fill-rule="evenodd" clip-rule="evenodd" d="M32.601 31.782C33.085 31.587 33.401 31.117 33.401 30.595C33.401 30.074 33.084 29.604 32.601 29.409L32.599 29.408C30.009 28.361 27.954 26.307 26.906 23.716L26.904 23.712C26.709 23.228 26.239 22.911 25.718 22.911C25.196 22.912 24.726 23.228 24.531 23.712C23.484 26.303 21.43 28.358 18.839 29.406L18.835 29.408C18.351 29.603 18.034 30.073 18.034 30.595C18.034 31.117 18.351 31.587 18.835 31.783C18.837 31.784 18.839 31.784 18.841 31.785C21.431 32.833 23.484 34.887 24.531 37.478L24.532 37.48C24.727 37.964 25.196 38.28 25.718 38.28C26.239 38.28 26.708 37.964 26.904 37.481C26.904 37.479 26.905 37.477 26.905 37.477C27.953 34.885 30.007 32.83 32.599 31.783L32.601 31.782ZM32.226 30.855L32.224 30.856C29.381 32.005 27.127 34.259 25.978 37.102L25.976 37.106C25.934 37.211 25.831 37.28 25.718 37.28C25.604 37.28 25.502 37.211 25.459 37.106L25.458 37.103C24.31 34.262 22.057 32.008 19.216 30.858L19.21 30.856C19.104 30.813 19.034 30.71 19.034 30.595C19.034 30.481 19.104 30.378 19.21 30.335L19.214 30.333C22.056 29.184 24.31 26.929 25.458 24.087C25.501 23.981 25.604 23.911 25.718 23.911C25.832 23.911 25.935 23.981 25.977 24.086L25.979 24.091C27.128 26.933 29.383 29.187 32.225 30.335L32.226 30.336C32.332 30.379 32.401 30.481 32.401 30.595C32.401 30.71 32.332 30.812 32.226 30.855Z" fill="#898E97"/>
</g>
</svg>
