<svg width="160" height="160" viewBox="0 0 248 248" fill="none" xmlns="http://www.w3.org/2000/svg">
  <path fill-rule="evenodd" clip-rule="evenodd" d="M200.376 89.2139V114.893C200.376 115.963 201.244 116.831 202.314 116.831C203.383 116.831 204.251 115.963 204.251 114.893V89.2139C204.251 88.1444 203.383 87.2764 202.314 87.2764C201.244 87.2764 200.376 88.1444 200.376 89.2139Z" fill="#898E97"/>
  <path fill-rule="evenodd" clip-rule="evenodd" d="M189.313 209.369C188.399 211.458 187.407 213.43 186.329 215.248C185.981 215.829 185.353 216.182 184.675 216.182C169.814 216.186 81.8091 216.186 57.2028 216.186C56.5247 216.186 55.893 215.829 55.5443 215.248C55.1917 214.663 55.1762 213.938 55.4939 213.337C55.5133 213.306 55.5288 213.272 55.5443 213.241C67.7002 186.848 68.6263 140.914 68.6263 140.914V118.702C68.6263 117.633 67.7583 116.765 66.6888 116.765C65.6193 116.765 64.7513 117.633 64.7513 118.702V140.856C64.7319 141.848 63.7864 186.015 52.0529 211.555C51.1152 213.368 51.181 215.511 52.2195 217.24C53.2697 218.987 55.1607 220.061 57.1989 220.061C81.8052 220.061 169.818 220.061 184.675 220.057C186.713 220.057 188.6 218.991 189.65 217.247L189.658 217.232C190.813 215.283 191.882 213.167 192.863 210.927C193.293 209.947 192.847 208.804 191.867 208.374C190.886 207.943 189.743 208.389 189.313 209.369Z" fill="#898E97"/>
  <path fill-rule="evenodd" clip-rule="evenodd" d="M68.6262 42.4271V33.751C68.6262 32.6815 69.4942 31.8135 70.5637 31.8135H148.304C149.373 31.8135 150.241 30.9455 150.241 29.876C150.241 28.8065 149.373 27.9385 148.304 27.9385C148.304 27.9385 86.7728 27.9385 70.5637 27.9385C67.3552 27.9385 64.7512 30.5386 64.7512 33.751V42.4271C64.7512 43.4966 65.6192 44.3646 66.6887 44.3646C67.7582 44.3646 68.6262 43.4966 68.6262 42.4271Z" fill="#898E97"/>
  <path fill-rule="evenodd" clip-rule="evenodd" d="M157.991 27.9385H157.957C157.596 27.9385 157.232 28.0392 156.914 28.2446C156.24 28.6747 155.899 29.4846 156.066 30.2712C158.922 43.9151 160.324 57.7217 158.941 71.8384C158.751 73.617 159.406 75.3995 160.712 76.6395C161.797 77.6702 163.223 78.236 164.695 78.2399H164.777C165.056 78.236 165.335 78.2127 165.614 78.1701C170.465 77.4184 175.274 76.9766 180.013 76.9844H180.296C187.589 77.0231 194.719 78.143 201.601 80.8594C201.829 80.9485 202.066 80.9911 202.302 80.995H202.337C202.88 80.9872 203.407 80.7509 203.779 80.3246C204.317 79.7046 204.402 78.8095 203.996 78.0965C193.064 58.985 178.087 42.4039 159.115 28.3182C158.782 28.0702 158.387 27.9424 157.991 27.9385Z" fill="#139BA8"/>
  <path fill-rule="evenodd" clip-rule="evenodd" d="M204.065 122.062C181.606 122.062 163.378 140.294 163.378 162.75C163.378 185.206 181.606 203.438 204.065 203.438C226.521 203.438 244.753 185.206 244.753 162.75C244.753 140.294 226.521 122.062 204.065 122.062ZM204.065 125.938C224.382 125.938 240.878 142.433 240.878 162.75C240.878 183.067 224.382 199.562 204.065 199.562C183.745 199.562 167.253 183.067 167.253 162.75C167.253 142.433 183.745 125.938 204.065 125.938Z" fill="#898E97"/>
  <path fill-rule="evenodd" clip-rule="evenodd" d="M200.19 143.375V182.125C200.19 184.264 201.926 186 204.065 186C206.204 186 207.94 184.264 207.94 182.125V143.375C207.94 141.236 206.204 139.5 204.065 139.5C201.926 139.5 200.19 141.236 200.19 143.375Z" fill="#139BA8"/>
  <path fill-rule="evenodd" clip-rule="evenodd" d="M223.44 158.875H184.69C182.551 158.875 180.815 160.611 180.815 162.75C180.815 164.889 182.551 166.625 184.69 166.625H223.44C225.579 166.625 227.315 164.889 227.315 162.75C227.315 160.611 225.579 158.875 223.44 158.875Z" fill="#139BA8"/>
  <path fill-rule="evenodd" clip-rule="evenodd" d="M87.7223 88.4083L95.666 85.1959C97.8632 84.3085 99.3008 82.1773 99.3008 79.8058C99.3008 77.4381 97.8593 75.3069 95.666 74.4195C93.2248 73.4314 90.489 72.327 87.73 71.211C76.5274 66.685 67.642 57.8035 63.1122 46.6009L59.8959 38.6494C59.0085 36.4523 56.8773 35.0146 54.5058 35.0146C52.1382 35.0146 50.0069 36.4523 49.1195 38.6494L45.9149 46.5776C41.3889 57.7803 32.5074 66.6656 21.3048 71.1955C18.5342 72.3193 15.7868 73.4275 13.3417 74.4195C11.1445 75.3069 9.70691 77.4381 9.70691 79.8058C9.70691 82.1773 11.1445 84.3085 13.3417 85.1959C15.7907 86.184 18.538 87.2961 21.3087 88.4199C32.5113 92.9498 41.3928 101.835 45.9188 113.038L49.1195 120.962C50.0069 123.159 52.1382 124.597 54.5058 124.597C56.8773 124.597 59.0085 123.159 59.8959 120.962C60.884 118.525 61.9923 115.785 63.1083 113.022C67.6343 101.82 76.5197 92.9343 87.7223 88.4083ZM94.2129 81.6038L86.2691 84.8161C74.0939 89.7374 64.4374 99.3939 59.5162 111.569C58.3963 114.332 57.2919 117.072 56.3038 119.513C56.0093 120.241 55.2963 120.722 54.5097 120.722C53.7192 120.722 53.0062 120.241 52.7117 119.509L49.5109 111.589C44.5897 99.4094 34.937 89.7529 22.7618 84.8278L14.7948 81.6038C14.0624 81.3054 13.5819 80.5963 13.5819 79.8058C13.5819 79.0191 14.0624 78.3061 14.7948 78.0116L22.7579 74.7915C34.9332 69.8664 44.5897 60.206 49.507 48.0308L52.7117 40.1025C53.0062 39.3701 53.7192 38.8896 54.5097 38.8896C55.2963 38.8896 56.0093 39.3663 56.3038 40.0986L59.52 48.054C64.4452 60.2293 74.1016 69.8858 86.2769 74.8032L94.2129 78.0116C94.9453 78.3061 95.4258 79.0191 95.4258 79.8058C95.4258 80.5963 94.9453 81.3093 94.2129 81.6038Z" fill="#898E97"/>
  <path fill-rule="evenodd" clip-rule="evenodd" d="M134.079 150.28C135.954 149.525 137.179 147.704 137.179 145.681C137.179 143.662 135.951 141.841 134.079 141.085L134.071 141.081C124.035 137.024 116.072 129.065 112.011 119.025L112.003 119.009C111.247 117.134 109.426 115.905 107.407 115.905C105.385 115.909 103.563 117.134 102.808 119.009C98.7506 129.049 90.7913 137.012 80.7512 141.073L80.7357 141.081C78.8602 141.837 77.6318 143.658 77.6318 145.681C77.6318 147.704 78.8602 149.525 80.7357 150.284C80.7435 150.288 80.7512 150.288 80.759 150.292C90.7952 154.353 98.7506 162.312 102.808 172.352L102.812 172.36C103.567 174.236 105.385 175.46 107.407 175.46C109.426 175.46 111.244 174.236 112.003 172.364C112.003 172.356 112.007 172.349 112.007 172.349C116.068 162.305 124.027 154.341 134.071 150.284L134.079 150.28ZM132.626 146.688L132.618 146.692C121.601 151.145 112.867 159.879 108.415 170.895L108.407 170.911C108.244 171.318 107.845 171.585 107.407 171.585C106.966 171.585 106.57 171.318 106.404 170.911L106.4 170.899C101.951 159.89 93.221 151.156 82.2121 146.7L82.1888 146.692C81.7781 146.526 81.5068 146.126 81.5068 145.681C81.5068 145.239 81.7781 144.84 82.1888 144.673L82.2043 144.666C93.2171 140.213 101.951 131.475 106.4 120.462C106.566 120.052 106.966 119.78 107.407 119.78C107.849 119.78 108.248 120.052 108.411 120.458L108.419 120.478C112.871 131.491 121.609 140.225 132.622 144.673L132.626 144.677C133.037 144.844 133.304 145.239 133.304 145.681C133.304 146.126 133.037 146.522 132.626 146.688Z" fill="#898E97"/>
</svg>