<svg width="62" height="52" viewBox="0 0 62 52" fill="none" xmlns="http://www.w3.org/2000/svg">
<g id="Exp-1.-O">
<path id="Vector" fill-rule="evenodd" clip-rule="evenodd" d="M60.5 18.153V31.324C60.5 31.324 60.556 44.314 56.87 50.526C56.777 50.669 56.62 50.755 56.451 50.755C52.624 50.758 29.905 50.758 23.553 50.758C23.378 50.758 23.216 50.667 23.125 50.517C23.035 50.368 23.029 50.182 23.11 50.027C23.114 50.02 23.117 50.012 23.12 50.005C25.379 45.111 26.141 37.607 26.386 33.77C26.404 33.494 26.194 33.257 25.919 33.239C25.644 33.221 25.406 33.431 25.388 33.706C25.149 37.453 24.423 44.78 22.221 49.567C21.981 50.04 22.001 50.591 22.27 51.035C22.542 51.484 23.028 51.758 23.552 51.758C29.905 51.758 52.625 51.758 56.451 51.755C56.964 51.755 57.441 51.492 57.716 51.058C57.718 51.055 57.721 51.051 57.723 51.047C61.516 44.671 61.5 31.321 61.5 31.321C61.5 31.323 61.5 18.153 61.5 18.153C61.5 17.877 61.276 17.653 61 17.653C60.724 17.653 60.5 17.877 60.5 18.153Z" fill="#898E97"/>
<path id="Vector_2" fill-rule="evenodd" clip-rule="evenodd" d="M25.5 3.677V4.346C25.5 4.382 25.504 4.417 25.511 4.451C25.523 4.51 25.544 4.559 25.571 4.602L25.578 4.615C25.667 4.754 25.823 4.846 26 4.846C26 4.846 26.5 4.805 26.5 4.337V3.677C26.5 3.401 26.724 3.177 27 3.177H46.607C46.883 3.177 47.107 2.953 47.107 2.677C47.107 2.401 46.883 2.177 46.607 2.177C46.607 2.177 31.125 2.177 27 2.177C26.172 2.177 25.5 2.849 25.5 3.677Z" fill="#898E97"/>
<path id="Vector_3" fill-rule="evenodd" clip-rule="evenodd" d="M60.816 15.835C61.014 15.913 61.239 15.857 61.378 15.697C61.517 15.536 61.539 15.306 61.434 15.121C58.613 10.19 54.748 5.911 49.852 2.276C49.685 2.152 49.459 2.144 49.284 2.256C49.11 2.368 49.022 2.577 49.065 2.78C49.802 6.301 50.164 9.864 49.807 13.507C49.758 13.966 49.927 14.425 50.264 14.746C50.602 15.067 51.069 15.213 51.529 15.14C54.736 14.645 57.864 14.669 60.816 15.835Z" fill="#139BA8" class="--fill-change-color"/>
<path id="Vector_4" fill-rule="evenodd" clip-rule="evenodd" d="M19.744 7.884C23.76 6.522 28.382 7.441 31.581 10.64C35.34 14.399 35.951 20.122 33.413 24.519C33.343 24.641 33.327 24.786 33.369 24.92L34.944 29.913C34.965 29.981 34.947 30.054 34.897 30.104L34.763 30.238C34.724 30.276 34.667 30.29 34.615 30.274L29.597 28.691C29.463 28.649 29.318 28.665 29.197 28.735C24.8 31.273 19.077 30.663 15.318 26.904C10.83 22.416 10.83 15.128 15.318 10.64C15.513 10.445 15.513 10.128 15.318 9.933C15.122 9.738 14.806 9.738 14.61 9.933C9.73201 14.811 9.73201 22.732 14.61 27.611C18.642 31.642 24.751 32.342 29.504 29.71L34.314 31.228C34.722 31.356 35.168 31.247 35.47 30.945L35.604 30.811C35.918 30.497 36.031 30.035 35.897 29.613L34.388 24.826C37.019 20.074 36.319 13.964 32.288 9.933C28.811 6.456 23.788 5.45701 19.423 6.93701C19.162 7.02501 19.021 7.31001 19.11 7.57101C19.199 7.83201 19.483 7.973 19.744 7.884Z" fill="#898E97"/>
<path id="Vector_5" fill-rule="evenodd" clip-rule="evenodd" d="M21.333 15.335C21.311 14.382 21.668 13.686 22.221 13.278C23.089 12.638 24.385 12.665 25.089 13.458C25.392 13.799 25.567 14.281 25.572 14.891C25.584 16.354 24.897 17.209 24.226 18.094C23.322 19.287 22.419 20.513 22.307 22.561C22.277 23.112 22.7 23.583 23.251 23.613C23.802 23.643 24.274 23.22 24.304 22.669C24.389 21.114 25.133 20.208 25.82 19.302C26.74 18.089 27.588 16.879 27.572 14.875C27.562 13.697 27.169 12.788 26.585 12.13C25.22 10.594 22.715 10.428 21.034 11.668C20.026 12.412 19.293 13.644 19.334 15.382C19.347 15.934 19.805 16.372 20.357 16.358C20.909 16.345 21.346 15.887 21.333 15.335Z" fill="#139BA8" class="--fill-change-color"/>
<path id="Vector_6" d="M23.212 27.327C23.8913 27.327 24.442 26.7763 24.442 26.097C24.442 25.4177 23.8913 24.867 23.212 24.867C22.5327 24.867 21.982 25.4177 21.982 26.097C21.982 26.7763 22.5327 27.327 23.212 27.327Z" fill="#139BA8" class="--fill-change-color"/>
<path id="Vector_7" fill-rule="evenodd" clip-rule="evenodd" d="M11.217 2.36401L15.217 7.39601C15.561 7.82801 16.19 7.90001 16.622 7.55701C17.054 7.21401 17.126 6.58401 16.783 6.15201L12.783 1.12001C12.439 0.688009 11.81 0.616009 11.378 0.959009C10.946 1.30301 10.874 1.93201 11.217 2.36401Z" fill="#139BA8" class="--fill-change-color"/>
<path id="Vector_8" fill-rule="evenodd" clip-rule="evenodd" d="M0.502005 4.867L10.954 10.867C11.432 11.142 12.044 10.977 12.319 10.498C12.594 10.019 12.428 9.40801 11.949 9.13301L1.498 3.133C1.019 2.858 0.408005 3.023 0.133005 3.502C-0.141995 3.981 0.0230048 4.592 0.502005 4.867Z" fill="#139BA8" class="--fill-change-color"/>
<path id="Vector_9" fill-rule="evenodd" clip-rule="evenodd" d="M2 16H9C9.552 16 10 15.552 10 15C10 14.448 9.552 14 9 14H2C1.448 14 1 14.448 1 15C1 15.552 1.448 16 2 16Z" fill="#139BA8" class="--fill-change-color"/>
</g>
</svg>
