<svg width="61" height="56" viewBox="0 0 61 56" fill="none" xmlns="http://www.w3.org/2000/svg">
  <g id="Exp-1.-O">
    <path id="Vector" fill-rule="evenodd" clip-rule="evenodd"
      d="M4.79601 17.823C4.79601 17.823 4.14401 17.998 3.37001 18.205C1.70501 18.651 0.718006 20.362 1.16301 22.026C2.86901 28.391 7.20201 44.561 7.20201 44.561C7.27301 44.828 7.54801 44.986 7.81401 44.915C8.08101 44.843 8.23901 44.569 8.16801 44.302C8.16801 44.302 3.83501 28.132 2.12901 21.767C1.82601 20.636 2.49801 19.474 3.62801 19.171C4.40301 18.963 5.05501 18.789 5.05501 18.789C5.32101 18.717 5.48001 18.443 5.40801 18.176C5.33701 17.91 5.06201 17.751 4.79601 17.823Z"
      fill="#898E97" />
    <path id="Vector_2" fill-rule="evenodd" clip-rule="evenodd"
      d="M8.80397 50.542C8.80397 50.542 9.23897 52.163 9.64197 53.67C9.85697 54.469 10.38 55.151 11.096 55.564C11.813 55.978 12.664 56.09 13.464 55.876C20.722 53.931 41.095 48.472 41.095 48.472C41.361 48.401 41.52 48.127 41.448 47.86C41.377 47.593 41.103 47.435 40.836 47.506C40.836 47.506 20.463 52.965 13.205 54.91C12.662 55.056 12.083 54.98 11.596 54.698C11.109 54.417 10.754 53.954 10.608 53.411L9.76997 50.283C9.69897 50.016 9.42397 49.858 9.15797 49.929C8.89097 50.001 8.73297 50.275 8.80397 50.542Z"
      fill="#898E97" />
    <path id="Vector_3" fill-rule="evenodd" clip-rule="evenodd"
      d="M52.773 9.85998C52.773 9.85998 52.581 9.14198 52.358 8.30898C52.143 7.50998 51.621 6.82798 50.904 6.41398C50.187 6.00098 49.336 5.88798 48.536 6.10298C44.205 7.26298 35.833 9.50598 35.833 9.50598C35.567 9.57798 35.408 9.85198 35.48 10.119C35.551 10.385 35.826 10.544 36.092 10.472C36.092 10.472 44.464 8.22898 48.795 7.06898C49.338 6.92298 49.917 6.99898 50.404 7.27998C50.891 7.56098 51.246 8.02398 51.392 8.56798L51.807 10.119C51.879 10.385 52.153 10.544 52.42 10.472C52.686 10.401 52.845 10.127 52.773 9.85998Z"
      fill="#898E97" />
    <path id="Vector_4" fill-rule="evenodd" clip-rule="evenodd"
      d="M60.185 27.044V12.609C60.185 11.782 59.856 10.988 59.271 10.403C58.686 9.81798 57.892 9.48898 57.065 9.48898C48.298 9.48898 20.535 9.48898 20.535 9.48898C20.259 9.48898 20.035 9.71298 20.035 9.98898C20.035 10.265 20.259 10.489 20.535 10.489C20.535 10.489 48.298 10.489 57.065 10.489C57.627 10.489 58.166 10.713 58.564 11.11C58.961 11.508 59.185 12.047 59.185 12.609V27.044C59.185 27.32 59.409 27.544 59.685 27.544C59.961 27.544 60.185 27.32 60.185 27.044Z"
      fill="#898E97" />
    <path id="Vector_5" fill-rule="evenodd" clip-rule="evenodd"
      d="M17.345 9.48898H10.305C8.581 9.48898 7.185 10.886 7.185 12.609V45.369C7.185 47.093 8.582 48.489 10.305 48.489C19.198 48.489 48.171 48.489 57.065 48.489C58.788 48.489 60.185 47.093 60.185 45.369C60.185 40.6 60.185 30.985 60.185 30.985C60.185 30.709 59.961 30.485 59.685 30.485C59.409 30.485 59.185 30.709 59.185 30.985V45.369C59.185 46.54 58.236 47.489 57.065 47.489H10.305C9.134 47.489 8.185 46.54 8.185 45.37V12.609C8.185 11.438 9.134 10.489 10.305 10.489H17.345C17.621 10.489 17.845 10.265 17.845 9.98898C17.845 9.71298 17.621 9.48898 17.345 9.48898Z"
      fill="#898E97" />
    <path id="Vector_6" fill-rule="evenodd" clip-rule="evenodd"
      d="M43.671 43.489H52.685C53.348 43.489 53.984 43.226 54.452 42.757C54.921 42.288 55.185 41.652 55.185 40.989C55.185 35.835 55.185 22.144 55.185 16.989C55.185 15.609 54.065 14.489 52.685 14.489C45.603 14.489 21.766 14.489 14.685 14.489C13.304 14.489 12.185 15.609 12.185 16.989V40.989C12.185 41.652 12.448 42.288 12.917 42.757C13.386 43.226 14.022 43.489 14.685 43.489C20.974 43.489 39.936 43.489 39.936 43.489C40.212 43.489 40.436 43.265 40.436 42.989C40.436 42.713 40.212 42.489 39.936 42.489C39.936 42.489 20.974 42.489 14.685 42.489C14.287 42.489 13.905 42.331 13.624 42.05C13.343 41.769 13.185 41.387 13.185 40.989V16.989C13.185 16.161 13.856 15.489 14.685 15.489H52.685C53.513 15.489 54.185 16.161 54.185 16.989C54.185 22.144 54.185 35.835 54.185 40.989C54.185 41.387 54.027 41.769 53.745 42.05C53.464 42.331 53.082 42.489 52.685 42.489H43.671C43.395 42.489 43.171 42.713 43.171 42.989C43.171 43.265 43.395 43.489 43.671 43.489Z"
      fill="#898E97" />
    <path id="Vector_7" fill-rule="evenodd" clip-rule="evenodd"
      d="M15.414 37.216C22.462 32.564 31.555 28.455 40.422 33.915C40.722 34.1 41.0929 34.129 41.5379 33.992C41.9849 33.853 42.545 33.527 43.208 33.145C44.585 32.352 46.4739 31.3 48.8639 31.679C50.4699 31.934 52.29 32.835 54.334 34.846C54.5309 35.039 54.8479 35.037 55.041 34.84C55.235 34.643 55.2319 34.326 55.035 34.133C52.7949 31.929 50.782 30.971 49.021 30.692C46.3589 30.269 44.243 31.395 42.709 32.278C42.212 32.565 41.7819 32.823 41.4189 32.972C41.3059 33.019 41.201 33.054 41.1049 33.07C41.045 33.08 40.9909 33.091 40.9469 33.064C31.7039 27.372 22.209 31.532 14.863 36.381C14.633 36.533 14.57 36.844 14.722 37.074C14.874 37.304 15.184 37.368 15.414 37.216Z"
      fill="#898E97" />
    <path id="Vector_8" fill-rule="evenodd" clip-rule="evenodd"
      d="M16.757 27.212C16.413 27.207 16.095 27.025 15.916 26.731C15.738 26.436 15.723 26.07 15.879 25.762C16.466 24.591 17.546 23.412 19.12 23.539C19.084 18.717 26.645 18.242 27.595 21.859C31.637 22.007 30.478 24.281 35.155 26.61C35.32 26.725 35.39 26.934 35.328 27.125C35.266 27.316 35.087 27.444 34.886 27.441C30.273 27.415 20.378 27.267 16.757 27.212Z"
      fill="#139BA8" class="--fill-change-color" />
    <path id="Vector_9"
      d="M42.185 27.489C44.118 27.489 45.685 25.922 45.685 23.989C45.685 22.056 44.118 20.489 42.185 20.489C40.252 20.489 38.685 22.056 38.685 23.989C38.685 25.922 40.252 27.489 42.185 27.489Z"
      fill="#139BA8" class="--fill-change-color" />
    <path id="Vector_10" fill-rule="evenodd" clip-rule="evenodd"
      d="M12.33 2.799L13.107 5.697C13.25 6.23 13.799 6.547 14.332 6.404C14.865 6.261 15.182 5.713 15.039 5.179L14.262 2.282C14.12 1.749 13.571 1.432 13.038 1.575C12.504 1.717 12.188 2.266 12.33 2.799Z"
      fill="#139BA8" class="--fill-change-color" />
    <path id="Vector_11" fill-rule="evenodd" clip-rule="evenodd"
      d="M1.91695 2.63599L7.03795 7.75699C7.42795 8.14699 8.06195 8.14699 8.45195 7.75699C8.84295 7.36699 8.84295 6.73299 8.45195 6.34299L3.33095 1.22199C2.94095 0.830991 2.30695 0.830991 1.91695 1.22199C1.52695 1.61199 1.52695 2.24599 1.91695 2.63599Z"
      fill="#139BA8" class="--fill-change-color" />
    <path id="Vector_12" fill-rule="evenodd" clip-rule="evenodd"
      d="M0.976976 12.567L3.87498 13.344C4.40798 13.486 4.95698 13.17 5.09898 12.636C5.24198 12.103 4.92498 11.555 4.39198 11.412L1.49498 10.635C0.960976 10.492 0.412976 10.809 0.269976 11.342C0.126976 11.875 0.443976 12.424 0.976976 12.567Z"
      fill="#139BA8" class="--fill-change-color" />
  </g>
</svg>