<svg width="46" height="61" viewBox="0 0 46 61" fill="none" xmlns="http://www.w3.org/2000/svg">
<g id="Exp-1.-O">
<path id="Vector" fill-rule="evenodd" clip-rule="evenodd" d="M42.791 25.617V22.696C42.791 21.901 42.475 21.138 41.912 20.575C41.349 20.013 40.586 19.696 39.791 19.696C36.21 19.696 30.311 19.696 27.153 19.696C25.866 19.696 24.723 20.517 24.311 21.736L24.026 22.617H5.791C4.995 22.617 4.232 22.933 3.669 23.496C3.107 24.058 2.791 24.821 2.791 25.617H42.791Z" fill="#139BA8" class="--fill-change-color"/>
<path id="Vector_2" fill-rule="evenodd" clip-rule="evenodd" d="M2.65 47.817C2.65 47.817 3.429 52.801 3.977 56.312C4.32 58.502 6.206 60.117 8.424 60.117C15.297 60.117 30.703 60.117 37.576 60.117C39.794 60.117 41.68 58.502 42.023 56.312C42.923 50.55 44.755 38.823 45.773 32.312C45.975 31.013 45.6 29.69 44.745 28.691C43.89 27.692 42.641 27.117 41.326 27.117C32.505 27.117 13.495 27.117 4.674 27.117C3.359 27.117 2.11 27.692 1.255 28.691C0.400002 29.69 0.0250016 31.013 0.227002 32.312C1.046 37.553 2.27 45.385 2.27 45.385C2.313 45.657 2.569 45.844 2.841 45.802C3.114 45.759 3.301 45.503 3.258 45.23L1.215 32.157C1.058 31.147 1.35 30.118 2.014 29.341C2.679 28.564 3.651 28.117 4.674 28.117C13.495 28.117 32.505 28.117 41.326 28.117C42.349 28.117 43.321 28.564 43.986 29.341C44.65 30.118 44.942 31.147 44.785 32.157C43.767 38.668 41.935 50.395 41.035 56.157C40.768 57.861 39.301 59.117 37.576 59.117C30.703 59.117 15.297 59.117 8.424 59.117C6.699 59.117 5.232 57.861 4.965 56.157C4.417 52.647 3.638 47.663 3.638 47.663C3.596 47.39 3.34 47.203 3.067 47.246C2.794 47.289 2.608 47.545 2.65 47.817Z" fill="#898E97"/>
<path id="Vector_3" fill-rule="evenodd" clip-rule="evenodd" d="M8.215 52.441V53.464C8.215 54.845 9.335 55.964 10.715 55.964H18.715C20.096 55.964 21.215 54.845 21.215 53.464V51.464C21.215 50.084 20.096 48.964 18.715 48.964H10.715C10.027 48.964 9.403 49.243 8.95 49.694C8.755 49.889 8.755 50.205 8.949 50.401C9.144 50.596 9.461 50.597 9.656 50.402C9.928 50.131 10.302 49.964 10.715 49.964H18.715C19.544 49.964 20.215 50.636 20.215 51.464V53.464C20.215 54.293 19.544 54.964 18.716 54.964H10.715C9.887 54.964 9.216 54.293 9.215 53.464V52.441C9.215 52.166 8.991 51.941 8.715 51.941C8.44 51.941 8.215 52.166 8.215 52.441Z" fill="#898E97"/>
<path id="Vector_4" fill-rule="evenodd" clip-rule="evenodd" d="M14.579 20.392C14.898 19.837 15.328 19.333 15.858 18.895C16.071 18.719 16.1 18.403 15.925 18.191C15.749 17.978 15.433 17.948 15.221 18.124C14.595 18.641 14.09 19.238 13.712 19.893C13.574 20.132 13.657 20.438 13.896 20.576C14.135 20.713 14.441 20.631 14.579 20.392Z" fill="#898E97"/>
<path id="Vector_5" fill-rule="evenodd" clip-rule="evenodd" d="M17.782 17.776C18.584 17.456 19.498 17.237 20.513 17.135C20.787 17.108 20.988 16.863 20.96 16.588C20.933 16.314 20.688 16.113 20.413 16.14C19.298 16.252 18.294 16.496 17.412 16.846C17.156 16.948 17.03 17.239 17.132 17.496C17.234 17.752 17.525 17.878 17.782 17.776Z" fill="#898E97"/>
<path id="Vector_6" fill-rule="evenodd" clip-rule="evenodd" d="M22.962 17.116C24.145 17.205 25.227 17.224 26.215 17.182C26.491 17.171 26.705 16.938 26.694 16.662C26.682 16.386 26.449 16.172 26.173 16.183C25.22 16.223 24.177 16.204 23.038 16.118C22.762 16.098 22.522 16.304 22.501 16.579C22.481 16.855 22.687 17.095 22.962 17.116Z" fill="#898E97"/>
<path id="Vector_7" fill-rule="evenodd" clip-rule="evenodd" d="M28.914 16.886C30.081 16.667 31.069 16.343 31.9 15.944C32.149 15.824 32.254 15.525 32.135 15.277C32.015 15.028 31.716 14.923 31.467 15.042C30.706 15.408 29.799 15.703 28.73 15.904C28.458 15.955 28.28 16.216 28.331 16.487C28.382 16.759 28.643 16.937 28.914 16.886Z" fill="#898E97"/>
<path id="Vector_8" fill-rule="evenodd" clip-rule="evenodd" d="M33.938 14.555C34.834 13.69 35.36 12.694 35.597 11.681C35.66 11.412 35.493 11.143 35.224 11.08C34.956 11.017 34.686 11.184 34.624 11.453C34.427 12.294 33.987 13.118 33.244 13.835C33.045 14.027 33.04 14.344 33.231 14.542C33.423 14.741 33.74 14.747 33.938 14.555Z" fill="#898E97"/>
<path id="Vector_9" fill-rule="evenodd" clip-rule="evenodd" d="M35.359 8.238C34.963 7.184 34.289 6.289 33.47 5.723C33.243 5.567 32.931 5.624 32.774 5.851C32.618 6.078 32.675 6.39 32.902 6.546C33.566 7.004 34.102 7.736 34.423 8.59C34.52 8.848 34.809 8.979 35.067 8.882C35.325 8.785 35.456 8.496 35.359 8.238Z" fill="#898E97"/>
<path id="Vector_10" fill-rule="evenodd" clip-rule="evenodd" d="M22.331 5.721C22.881 3.145 25.069 1.892 26.647 1.883C27.164 1.88 27.613 2.002 27.847 2.314C27.984 2.499 28.026 2.747 27.974 3.051C27.927 3.323 28.109 3.582 28.381 3.629C28.653 3.676 28.912 3.493 28.959 3.221C29.067 2.596 28.931 2.095 28.648 1.716C28.25 1.183 27.523 0.877995 26.641 0.882995C24.721 0.893995 22.022 2.377 21.353 5.513C21.295 5.783 21.468 6.048 21.738 6.106C22.008 6.164 22.273 5.991 22.331 5.721Z" fill="#898E97"/>
<path id="Vector_11" fill-rule="evenodd" clip-rule="evenodd" d="M21.358 5.723C22.034 8.843 24.724 10.319 26.639 10.331C27.588 10.336 28.357 9.983 28.734 9.372C28.96 9.004 29.059 8.535 28.954 7.962C28.823 7.257 28.359 6.354 27.388 5.281C27.203 5.077 26.887 5.061 26.682 5.246C26.478 5.431 26.462 5.748 26.647 5.953C27.324 6.7 27.725 7.337 27.9 7.872C28.034 8.28 28.03 8.607 27.882 8.848C27.749 9.064 27.508 9.196 27.22 9.268C26.857 9.358 26.421 9.351 25.963 9.254C24.495 8.944 22.813 7.717 22.335 5.511C22.277 5.241 22.01 5.07 21.74 5.128C21.471 5.187 21.299 5.453 21.358 5.723Z" fill="#898E97"/>
<path id="Vector_12" fill-rule="evenodd" clip-rule="evenodd" d="M21.711 6.617H28.406C28.958 6.617 29.406 6.169 29.406 5.617C29.406 5.065 28.958 4.617 28.406 4.617H21.711C21.159 4.617 20.711 5.065 20.711 5.617C20.711 6.169 21.159 6.617 21.711 6.617Z" fill="#139BA8" class="--fill-change-color"/>
</g>
</svg>
