<svg width="56" height="50" viewBox="0 0 56 50" fill="none" xmlns="http://www.w3.org/2000/svg">
<g id="Exp-1.-O">
<path id="Vector" fill-rule="evenodd" clip-rule="evenodd" d="M44.887 16.278V29.356C44.887 29.356 44.89 30.56 44.791 32.411C44.776 32.687 44.988 32.923 45.264 32.937C45.539 32.952 45.775 32.741 45.79 32.465C45.891 30.58 45.887 29.353 45.887 29.353C45.887 29.355 45.887 16.278 45.887 16.278C45.887 16.002 45.663 15.778 45.387 15.778C45.111 15.778 44.887 16.002 44.887 16.278Z" fill="#898E97"/>
<path id="Vector_2" fill-rule="evenodd" clip-rule="evenodd" d="M42.333 30.833L39.83 29.925C38.988 29.62 38.047 29.788 37.363 30.366L34.331 32.929C33.949 33.252 33.431 33.364 32.95 33.226L26.976 31.519C26.742 31.452 26.494 31.564 26.389 31.783C26.283 32.002 26.35 32.265 26.548 32.407C26.548 32.407 30.309 35.093 32.318 36.528C33.228 37.178 34.459 37.144 35.332 36.446L38.264 34.1C38.677 33.77 39.233 33.682 39.728 33.867L44.546 35.674C44.137 39.863 43.248 45.203 41.257 48.558C41.164 48.702 41.007 48.787 40.838 48.787C37.011 48.79 14.291 48.79 7.93899 48.79C7.76399 48.79 7.60099 48.698 7.51099 48.548C7.42099 48.397 7.41599 48.21 7.49799 48.055C7.50299 48.047 7.50699 48.038 7.51099 48.03C10.648 41.219 10.887 29.365 10.887 29.365V28.044C10.887 27.768 10.663 27.544 10.387 27.544C10.111 27.544 9.88699 27.768 9.88699 28.044V29.35C9.88199 29.606 9.63799 41.004 6.60999 47.595C6.36899 48.063 6.38599 48.616 6.65399 49.062C6.92399 49.513 7.41199 49.79 7.93799 49.79H7.93899C14.29 49.79 37.012 49.79 40.839 49.787C41.351 49.787 41.829 49.524 42.103 49.091C42.106 49.087 42.108 49.083 42.11 49.079C44.233 45.512 45.173 39.768 45.577 35.386C45.598 35.162 45.466 34.951 45.255 34.872L40.079 32.931C39.254 32.622 38.327 32.769 37.639 33.32C36.823 33.973 35.606 34.946 34.708 35.665C34.184 36.084 33.445 36.104 32.899 35.714L29.486 33.276L32.676 34.188C33.477 34.417 34.34 34.231 34.976 33.693L38.009 31.13C38.419 30.783 38.984 30.682 39.489 30.865L41.991 31.773C42.251 31.867 42.538 31.733 42.632 31.474C42.726 31.214 42.592 30.927 42.333 30.833Z" fill="#898E97"/>
<path id="Vector_3" fill-rule="evenodd" clip-rule="evenodd" d="M13.298 27.487L14.95 26.867C15.445 26.682 16.001 26.77 16.414 27.1L19.345 29.446C20.219 30.144 21.45 30.178 22.36 29.528C24.369 28.093 28.13 25.407 28.13 25.407C28.328 25.265 28.395 25.002 28.289 24.783C28.184 24.564 27.936 24.452 27.702 24.519C27.702 24.519 23.672 25.671 21.727 26.226C21.247 26.364 20.729 26.252 20.347 25.929L17.315 23.366C16.631 22.788 15.69 22.62 14.848 22.925L10.887 24.362V1.70999C10.887 1.57699 10.94 1.44999 11.034 1.35599C11.128 1.26199 11.255 1.20999 11.387 1.20999C14.852 1.20999 26.41 1.20999 31.5 1.20999C31.776 1.20999 32 0.985991 32 0.709991C32 0.433991 31.776 0.209991 31.5 0.209991C26.41 0.209991 14.852 0.209991 11.387 0.209991C10.989 0.209991 10.608 0.367992 10.327 0.648992C10.045 0.929992 9.88699 1.31199 9.88699 1.70999V25.075C9.88699 25.238 9.96699 25.391 10.1 25.485C10.234 25.578 10.405 25.601 10.558 25.545L15.189 23.865C15.694 23.682 16.259 23.783 16.669 24.13L19.701 26.693C20.338 27.231 21.201 27.417 22.002 27.188L25.192 26.276L21.779 28.714C21.233 29.104 20.494 29.084 19.97 28.665C19.072 27.946 17.855 26.973 17.039 26.32C16.351 25.769 15.424 25.622 14.599 25.931L12.947 26.551C12.688 26.647 12.557 26.936 12.654 27.194C12.751 27.453 13.039 27.584 13.298 27.487Z" fill="#898E97"/>
<path id="Vector_4" fill-rule="evenodd" clip-rule="evenodd" d="M45.204 13.867C45.401 13.945 45.626 13.89 45.765 13.729C45.904 13.569 45.927 13.338 45.821 13.154C43 8.22198 39.135 3.94299 34.239 0.307985C34.073 0.183985 33.847 0.176985 33.672 0.288985C33.497 0.399985 33.409 0.608985 33.452 0.811985C34.189 4.33298 34.551 7.89599 34.194 11.539C34.146 11.998 34.314 12.458 34.652 12.778C34.989 13.099 35.456 13.245 35.916 13.173C39.123 12.677 42.251 12.701 45.204 13.867Z" fill="#139BA8" class="--fill-change-color"/>
<path id="Vector_5" fill-rule="evenodd" clip-rule="evenodd" d="M2.07799 16.778L7.07799 22.648C7.43599 23.069 8.06699 23.119 8.48699 22.761C8.90699 22.403 8.95799 21.772 8.59999 21.352L3.59999 15.482C3.24199 15.061 2.61099 15.011 2.18999 15.369C1.76999 15.727 1.71999 16.358 2.07799 16.778Z" fill="#139BA8" class="--fill-change-color"/>
<path id="Vector_6" fill-rule="evenodd" clip-rule="evenodd" d="M2.132 25.504L5.681 26.455C6.214 26.598 6.763 26.281 6.906 25.748C7.04901 25.215 6.73201 24.666 6.19901 24.523L2.65 23.572C2.116 23.429 1.568 23.746 1.425 24.279C1.282 24.812 1.599 25.361 2.132 25.504Z" fill="#139BA8" class="--fill-change-color"/>
<path id="Vector_7" fill-rule="evenodd" clip-rule="evenodd" d="M1.661 33.729L8.339 29.873C8.817 29.597 8.981 28.985 8.705 28.507C8.429 28.029 7.817 27.865 7.339 28.141L0.661001 31.997C0.183001 32.273 0.0190012 32.885 0.295001 33.363C0.571001 33.841 1.183 34.005 1.661 33.729Z" fill="#139BA8" class="--fill-change-color"/>
<path id="Vector_8" fill-rule="evenodd" clip-rule="evenodd" d="M53.922 44.214L48.922 38.344C48.564 37.924 47.933 37.874 47.513 38.231C47.093 38.589 47.042 39.221 47.4 39.641L52.4 45.511C52.758 45.931 53.389 45.982 53.81 45.624C54.23 45.266 54.28 44.634 53.922 44.214Z" fill="#139BA8" class="--fill-change-color"/>
<path id="Vector_9" fill-rule="evenodd" clip-rule="evenodd" d="M53.868 35.489L50.319 34.538C49.786 34.395 49.237 34.712 49.094 35.245C48.951 35.778 49.268 36.327 49.801 36.47L53.35 37.421C53.884 37.563 54.432 37.247 54.575 36.713C54.718 36.18 54.401 35.632 53.868 35.489Z" fill="#139BA8" class="--fill-change-color"/>
<path id="Vector_10" fill-rule="evenodd" clip-rule="evenodd" d="M54.339 27.264L47.661 31.119C47.183 31.395 47.019 32.007 47.295 32.485C47.571 32.963 48.183 33.127 48.661 32.851L55.339 28.996C55.817 28.72 55.981 28.108 55.705 27.63C55.429 27.152 54.817 26.988 54.339 27.264Z" fill="#139BA8" class="--fill-change-color"/>
<path id="Vector_11" fill-rule="evenodd" clip-rule="evenodd" d="M16.218 9.546L19.753 13.082C19.948 13.277 20.265 13.277 20.46 13.082C20.655 12.887 20.655 12.57 20.46 12.375L16.925 8.839C16.73 8.644 16.413 8.644 16.218 8.839C16.022 9.035 16.022 9.351 16.218 9.546Z" fill="#898E97"/>
<path id="Vector_12" fill-rule="evenodd" clip-rule="evenodd" d="M19.753 8.839L16.218 12.375C16.022 12.57 16.022 12.887 16.218 13.082C16.413 13.277 16.73 13.277 16.925 13.082L20.46 9.546C20.655 9.351 20.655 9.035 20.46 8.839C20.265 8.644 19.948 8.644 19.753 8.839Z" fill="#898E97"/>
<path id="Vector_13" fill-rule="evenodd" clip-rule="evenodd" d="M27.218 9.546L30.753 13.082C30.948 13.277 31.265 13.277 31.46 13.082C31.655 12.887 31.655 12.57 31.46 12.375L27.925 8.839C27.73 8.644 27.413 8.644 27.218 8.839C27.022 9.035 27.022 9.351 27.218 9.546Z" fill="#898E97"/>
<path id="Vector_14" fill-rule="evenodd" clip-rule="evenodd" d="M30.753 8.839L27.218 12.375C27.022 12.57 27.022 12.887 27.218 13.082C27.413 13.277 27.73 13.277 27.925 13.082L31.46 9.546C31.655 9.351 31.655 9.035 31.46 8.839C31.265 8.644 30.948 8.644 30.753 8.839Z" fill="#898E97"/>
<path id="Vector_15" fill-rule="evenodd" clip-rule="evenodd" d="M18.139 19.009L19.842 17.733L21.539 19.008C21.716 19.142 21.961 19.142 22.139 19.008L23.839 17.733L25.539 19.008C25.717 19.142 25.961 19.142 26.139 19.008L27.839 17.733L29.539 19.008C29.76 19.174 30.073 19.129 30.239 18.908C30.404 18.688 30.36 18.374 30.139 18.208L28.139 16.708C27.962 16.575 27.717 16.575 27.539 16.708L25.839 17.983L24.139 16.708C23.962 16.575 23.717 16.575 23.539 16.708L21.839 17.983L20.143 16.709C19.965 16.575 19.721 16.575 19.543 16.708L17.539 18.208C17.318 18.373 17.273 18.687 17.439 18.908C17.604 19.129 17.918 19.174 18.139 19.009Z" fill="#898E97"/>
</g>
</svg>
