<svg width="55" height="46" viewBox="0 0 55 46" fill="none" xmlns="http://www.w3.org/2000/svg">
<g id="Exp-1.-O">
<path id="Vector" fill-rule="evenodd" clip-rule="evenodd" d="M30.358 4.00399H7C5.343 4.00399 4 5.34699 4 7.00399H50V2.77499C50 1.56799 49.022 0.588989 47.815 0.588989C44.734 0.588989 36.786 0.588989 34 0.588989C32.954 0.588989 31.989 1.14999 31.47 2.05699L30.358 4.00399Z" fill="#139BA8" class="--fill-change-color"/>
<path id="Vector_2" fill-rule="evenodd" clip-rule="evenodd" d="M50.967 34.83C51.93 27.896 53.14 19.189 53.863 13.979C54.042 12.69 53.654 11.387 52.8 10.405C51.945 9.42399 50.708 8.85999 49.406 8.85999C39.21 8.85999 14.79 8.85999 4.59403 8.85999C3.29203 8.85999 2.05503 9.42399 1.20003 10.405C0.346026 11.387 -0.0419736 12.69 0.137026 13.979C0.491026 16.53 1.14703 21.253 1.64803 24.861C1.68603 25.135 1.93903 25.326 2.21203 25.288C2.48503 25.25 2.67703 24.997 2.63903 24.724L1.12703 13.842C0.988026 12.839 1.29003 11.825 1.95403 11.062C2.61903 10.299 3.58203 9.85999 4.59403 9.85999H49.406C50.418 9.85999 51.381 10.299 52.046 11.062C52.71 11.825 53.012 12.839 52.873 13.842L49.977 34.692C49.939 34.966 50.13 35.218 50.403 35.256C50.677 35.294 50.929 35.103 50.967 34.83Z" fill="#898E97"/>
<path id="Vector_3" fill-rule="evenodd" clip-rule="evenodd" d="M2.10004 28.118C2.84004 33.441 3.56804 38.683 4.02604 41.979C4.33504 44.204 6.23704 45.86 8.48304 45.86C16.713 45.86 37.287 45.86 45.517 45.86C47.24 45.86 48.761 44.886 49.515 43.428C49.642 43.183 49.546 42.881 49.301 42.754C49.055 42.627 48.753 42.723 48.627 42.968C48.04 44.102 46.857 44.86 45.517 44.86C37.287 44.86 16.713 44.86 8.48304 44.86C6.73604 44.86 5.25604 43.572 5.01604 41.842C4.55804 38.545 3.83004 33.303 3.09104 27.981C3.05304 27.707 2.80004 27.516 2.52704 27.554C2.25404 27.592 2.06304 27.845 2.10004 28.118Z" fill="#898E97"/>
<path id="Vector_4" fill-rule="evenodd" clip-rule="evenodd" d="M10.001 37.386C10.001 38.767 11.121 39.886 12.501 39.886H20.501C21.882 39.886 23.001 38.767 23.001 37.386V35.386C23.001 34.006 21.882 32.886 20.501 32.886H12.501C11.55 32.886 10.722 33.418 10.3 34.201C10.169 34.444 10.26 34.747 10.503 34.878C10.745 35.009 11.049 34.918 11.18 34.676C11.433 34.206 11.93 33.886 12.501 33.886H20.501C21.33 33.886 22.001 34.558 22.001 35.386V37.386C22.001 38.215 21.33 38.886 20.501 38.886H12.501C11.673 38.886 11.001 38.215 11.001 37.386C11.001 37.11 10.777 36.886 10.501 36.886C10.225 36.886 10.001 37.11 10.001 37.386Z" fill="#898E97"/>
<path id="Vector_5" fill-rule="evenodd" clip-rule="evenodd" d="M37.5 17.1C31.981 17.1 27.5 21.581 27.5 27.1C27.5 32.619 31.981 37.1 37.5 37.1C43.019 37.1 47.5 32.619 47.5 27.1C47.5 21.581 43.019 17.1 37.5 17.1ZM37.5 19.1C41.915 19.1 45.5 22.685 45.5 27.1C45.5 31.515 41.915 35.1 37.5 35.1C33.085 35.1 29.5 31.515 29.5 27.1C29.5 22.685 33.085 19.1 37.5 19.1Z" fill="#139BA8" class="--fill-change-color"/>
<path id="Vector_6" fill-rule="evenodd" clip-rule="evenodd" d="M43.323 33.998L52.651 43.326C53.041 43.716 53.675 43.716 54.065 43.326C54.455 42.936 54.455 42.302 54.065 41.912L44.737 32.584C44.347 32.193 43.713 32.193 43.323 32.584C42.933 32.974 42.933 33.608 43.323 33.998Z" fill="#139BA8" class="--fill-change-color"/>
</g>
</svg>
