<svg width="59" height="62" viewBox="0 0 59 62" fill="none" xmlns="http://www.w3.org/2000/svg">
<g id="Exp-1.-O">
<path id="Vector" fill-rule="evenodd" clip-rule="evenodd" d="M3.06098 33.389C8.16998 31.167 8.93798 28.327 8.82798 26.466C8.81298 24.291 7.02598 22.515 4.82898 22.515C2.83798 22.515 1.18498 23.973 0.878982 25.878C0.791982 26.423 1.16298 26.937 1.70798 27.024C2.25298 27.112 2.76698 26.74 2.85398 26.195C3.00698 25.243 3.83398 24.515 4.82898 24.515C5.93298 24.515 6.82898 25.411 6.82898 26.515C6.82898 26.535 6.82998 26.556 6.83098 26.576C6.91598 27.97 6.09998 29.886 2.26398 31.555C1.75698 31.775 1.52498 32.365 1.74498 32.871C1.96598 33.377 2.55498 33.609 3.06098 33.389Z" fill="#139BA8" class="--fill-change-color"/>
<path id="Vector_2" fill-rule="evenodd" clip-rule="evenodd" d="M3.02296 33.404C10.62 30.465 15.147 27.587 23.676 27.472C24.228 27.464 24.67 27.01 24.662 26.458C24.655 25.907 24.201 25.465 23.649 25.472C14.84 25.591 10.147 28.503 2.30196 31.539C1.78696 31.738 1.53096 32.318 1.72996 32.833C1.92896 33.347 2.50896 33.604 3.02296 33.404Z" fill="#139BA8" class="--fill-change-color"/>
<path id="Vector_3" fill-rule="evenodd" clip-rule="evenodd" d="M3.22895 39.296C11.439 33.658 16.083 31.664 32.674 31.472C50.585 31.264 53.279 22.214 53.127 18.492C53.116 14.919 50.208 12.018 46.628 12.018C43.04 12.018 40.128 14.931 40.128 18.518C40.128 20.98 41.499 23.125 43.52 24.227C44.004 24.492 44.612 24.313 44.877 23.828C45.141 23.344 44.962 22.736 44.478 22.472C43.079 21.708 42.128 20.223 42.128 18.518C42.128 16.034 44.144 14.018 46.628 14.018C49.111 14.018 51.128 16.034 51.128 18.518C51.128 18.532 51.128 18.547 51.129 18.561C51.271 21.848 48.536 29.288 32.651 29.472C15.427 29.672 10.62 31.794 2.09595 37.648C1.64095 37.96 1.52595 38.583 1.83795 39.038C2.15095 39.493 2.77395 39.609 3.22895 39.296Z" fill="#139BA8" class="--fill-change-color"/>
<path id="Vector_4" fill-rule="evenodd" clip-rule="evenodd" d="M21.265 39.27C24.002 37.204 29.484 36.787 33.422 38.195C35.824 39.054 37.678 40.612 37.669 43.078C37.669 43.08 37.669 43.082 37.669 43.082C37.669 44.738 36.324 46.082 34.669 46.082C33.013 46.082 31.669 44.738 31.669 43.082C31.669 42.782 31.713 42.492 31.795 42.219C31.954 41.69 31.653 41.132 31.125 40.973C30.596 40.814 30.038 41.114 29.879 41.643C29.742 42.099 29.669 42.582 29.669 43.082C29.669 45.842 31.909 48.082 34.669 48.082C37.428 48.082 39.668 45.843 39.669 43.084C39.681 39.742 37.351 37.476 34.095 36.312C29.545 34.685 23.222 35.286 20.06 37.674C19.619 38.006 19.532 38.634 19.864 39.074C20.197 39.515 20.825 39.602 21.265 39.27Z" fill="#139BA8" class="--fill-change-color"/>
<path id="Vector_5" fill-rule="evenodd" clip-rule="evenodd" d="M41.714 34.471C46.085 34.243 50.981 35.888 52.801 38.979C53.081 39.455 53.694 39.614 54.17 39.334C54.645 39.054 54.804 38.44 54.524 37.965C52.391 34.34 46.735 32.206 41.61 32.473C41.059 32.502 40.635 32.973 40.664 33.524C40.693 34.075 41.163 34.499 41.714 34.471Z" fill="#139BA8" class="--fill-change-color"/>
<path id="Vector_6" fill-rule="evenodd" clip-rule="evenodd" d="M16.119 18.943C14.558 19.436 12.854 19.746 11.475 19.673C11.199 19.658 10.987 19.423 11.002 19.147C11.016 18.872 11.252 18.66 11.527 18.674C13.29 18.767 15.632 18.197 17.391 17.416C17.53 17.354 17.634 17.233 17.672 17.086C17.711 16.939 17.681 16.783 17.59 16.661C15.183 13.421 17.202 8.24101 23.372 5.97201C27.314 4.52201 29.454 3.05101 30.536 1.83001C30.558 1.80601 30.577 1.78001 30.593 1.75301C30.68 1.60601 30.841 1.51901 31.011 1.52701C31.176 1.53501 31.323 1.63101 31.398 1.77801C33.502 6.78701 31.182 13.58 27.397 17.05C24.963 19.282 21.895 20.121 19.019 18.027C18.796 17.865 18.483 17.914 18.321 18.137C18.158 18.36 18.207 18.673 18.431 18.836C21.738 21.243 25.274 20.354 28.073 17.787C32.136 14.062 34.581 6.75401 32.319 1.38701C32.317 1.38101 32.314 1.37601 32.312 1.37001C32.083 0.879008 31.601 0.555008 31.06 0.528008C30.536 0.503008 30.04 0.760008 29.759 1.20001C28.732 2.34001 26.703 3.68101 23.027 5.03301C16.384 7.47701 14.265 13.045 16.438 16.73C14.899 17.332 13.028 17.752 11.58 17.676C10.753 17.632 10.047 18.268 10.003 19.095C9.95998 19.922 10.595 20.628 11.422 20.672C12.906 20.75 14.741 20.427 16.421 19.896C16.684 19.813 16.83 19.532 16.747 19.269C16.664 19.006 16.382 18.859 16.119 18.943Z" fill="#898E97"/>
<path id="Vector_7" fill-rule="evenodd" clip-rule="evenodd" d="M6.13697 48.629C4.43897 49.462 2.73397 50.619 1.65497 51.817C1.10097 52.433 1.15097 53.382 1.76597 53.936C2.38197 54.49 3.33097 54.44 3.88497 53.824C4.85497 52.746 6.47497 51.72 7.98797 51.058C9.05797 55.199 14.494 57.639 20.918 54.67C24.472 53.028 26.854 52.54 28.388 52.62C28.899 52.732 29.432 52.564 29.784 52.175C30.148 51.774 30.26 51.203 30.074 50.694C30.072 50.689 30.07 50.683 30.067 50.677C27.872 45.283 20.976 41.844 15.468 42.083C11.674 42.247 8.54497 44.119 7.90897 48.16C7.86597 48.432 8.05197 48.689 8.32497 48.731C8.59697 48.774 8.85397 48.588 8.89697 48.315C9.44997 44.801 12.212 43.225 15.512 43.082C20.64 42.859 27.081 46.02 29.135 51.038C29.192 51.202 29.156 51.378 29.043 51.503C28.929 51.629 28.754 51.682 28.588 51.639C28.557 51.631 28.526 51.626 28.494 51.624C26.865 51.527 24.312 52 20.499 53.762C14.531 56.52 9.44097 54.285 8.85197 50.292C8.82997 50.142 8.74097 50.01 8.60997 49.933C8.47897 49.857 8.31997 49.844 8.17797 49.899C6.38097 50.591 4.32197 51.844 3.14197 53.155C2.95697 53.36 2.64097 53.377 2.43497 53.192C2.22997 53.008 2.21397 52.691 2.39797 52.486C3.40297 51.37 4.99697 50.303 6.57797 49.527C6.82497 49.406 6.92797 49.106 6.80597 48.858C6.68497 48.61 6.38497 48.508 6.13697 48.629Z" fill="#898E97"/>
<path id="Vector_8" fill-rule="evenodd" clip-rule="evenodd" d="M41.411 47.032C42.547 47.17 43.884 47.662 45.092 48.285C43.738 51.18 45.3 55.36 50.195 57.562C52.868 58.764 54.402 59.877 55.218 60.813C55.488 61.254 55.972 61.52 56.491 61.508C57.027 61.497 57.514 61.191 57.756 60.712C57.759 60.707 57.762 60.701 57.765 60.695C59.752 56.361 58.049 50.274 54.872 47.142C52.734 45.035 49.96 44.234 47.187 46.013C45.484 45.045 43.448 44.258 41.774 44.054C41.5 44.02 41.251 44.216 41.217 44.49C41.184 44.764 41.379 45.013 41.653 45.046C43.299 45.247 45.315 46.063 46.952 47.033C47.121 47.133 47.333 47.124 47.494 47.011C49.898 45.323 52.316 46.027 54.17 47.854C57.08 50.723 58.675 56.289 56.863 60.263C56.784 60.412 56.634 60.505 56.469 60.509C56.302 60.512 56.146 60.423 56.063 60.277C56.047 60.249 56.029 60.222 56.007 60.198C55.141 59.186 53.507 57.955 50.605 56.65C46.141 54.642 44.67 50.842 46.196 48.34C46.267 48.224 46.287 48.084 46.252 47.952C46.218 47.821 46.131 47.709 46.012 47.643C44.581 46.849 42.917 46.208 41.532 46.039C41.258 46.006 41.009 46.201 40.976 46.475C40.942 46.749 41.138 46.998 41.411 47.032Z" fill="#898E97"/>
<path id="Vector_9" fill-rule="evenodd" clip-rule="evenodd" d="M19.789 16.765C22.913 15.602 27.713 11.175 29.384 7.543C29.5 7.292 29.39 6.995 29.139 6.879C28.888 6.764 28.591 6.874 28.476 7.125C26.901 10.549 22.385 14.732 19.44 15.828C19.182 15.924 19.05 16.212 19.146 16.471C19.242 16.729 19.53 16.861 19.789 16.765Z" fill="#898E97"/>
<path id="Vector_10" fill-rule="evenodd" clip-rule="evenodd" d="M11.31 49.474C12.44 48.909 14.197 48.728 16.189 48.774C19.283 48.847 22.929 49.493 25.771 50.288C26.037 50.362 26.313 50.206 26.388 49.941C26.462 49.675 26.306 49.399 26.041 49.325C23.125 48.51 19.386 47.849 16.213 47.775C14.027 47.723 12.103 47.959 10.862 48.579C10.616 48.703 10.515 49.003 10.639 49.25C10.762 49.497 11.063 49.597 11.31 49.474Z" fill="#898E97"/>
<path id="Vector_11" fill-rule="evenodd" clip-rule="evenodd" d="M48.145 48.725C50.873 49.939 54.194 53.911 55.49 58.344C55.567 58.609 55.845 58.762 56.11 58.684C56.375 58.607 56.527 58.329 56.449 58.064C55.064 53.323 51.469 49.109 48.551 47.811C48.299 47.699 48.003 47.812 47.891 48.064C47.779 48.317 47.892 48.612 48.145 48.725Z" fill="#898E97"/>
</g>
</svg>
