<svg width="58" height="62" viewBox="0 0 58 62" fill="none" xmlns="http://www.w3.org/2000/svg">
<g id="Exp-1.-O">
<path id="Vector" fill-rule="evenodd" clip-rule="evenodd" d="M29.576 29.098C28.976 30.953 28.167 32.736 27.161 34.412L26.669 35.232C26.514 35.491 26.52 35.816 26.685 36.07C26.85 36.323 27.145 36.46 27.444 36.422H27.446C30.551 36.034 33.422 34.718 35.716 32.703C37.315 33.22 39.021 33.5 40.791 33.5C49.898 33.5 57.291 26.107 57.291 17C57.291 7.893 49.898 0.5 40.791 0.5C31.685 0.5 24.291 7.893 24.291 17C24.291 21.778 26.327 26.085 29.576 29.098ZM27.753 35.369L28.018 34.927C29.12 33.091 29.995 31.131 30.627 29.091C30.685 28.904 30.628 28.701 30.482 28.57C27.298 25.731 25.291 21.598 25.291 17C25.291 8.445 32.237 1.5 40.791 1.5C49.346 1.5 56.291 8.445 56.291 17C56.291 25.555 49.346 32.5 40.791 32.5C39.031 32.5 37.338 32.206 35.761 31.664C35.588 31.605 35.397 31.645 35.262 31.768C33.188 33.661 30.584 34.929 27.753 35.369Z" fill="#898E97"/>
<path id="Vector_2" fill-rule="evenodd" clip-rule="evenodd" d="M28.853 60.741L16.29 18.856C16.227 18.645 16.032 18.5 15.812 18.5H13.81C13.589 18.5 13.394 18.645 13.331 18.856L0.729994 60.856C0.649994 61.121 0.800994 61.4 1.06499 61.479C1.32899 61.558 1.60799 61.408 1.68799 61.144L14.182 19.5H15.439L27.895 61.028C27.974 61.292 28.253 61.442 28.518 61.363C28.782 61.284 28.932 61.005 28.853 60.741Z" fill="#898E97"/>
<path id="Vector_3" fill-rule="evenodd" clip-rule="evenodd" d="M4.897 58.749L26.129 53.485C26.349 53.431 26.505 53.236 26.509 53.01C26.514 52.784 26.366 52.583 26.149 52.52L5.549 46.52C5.284 46.443 5.006 46.595 4.929 46.86C4.852 47.125 5.004 47.403 5.269 47.48L24.088 52.961L4.656 57.779C4.388 57.845 4.225 58.117 4.291 58.385C4.358 58.652 4.629 58.816 4.897 58.749Z" fill="#898E97"/>
<path id="Vector_4" fill-rule="evenodd" clip-rule="evenodd" d="M8.79199 46.543L22.849 42.48C23.058 42.42 23.204 42.231 23.21 42.014C23.216 41.796 23.08 41.6 22.875 41.528L8.57399 36.528C8.31399 36.437 8.02899 36.574 7.93699 36.835C7.84599 37.095 7.98399 37.381 8.24399 37.472L21.066 41.955L8.51399 45.582C8.24899 45.659 8.09599 45.936 8.17299 46.201C8.24899 46.466 8.52699 46.619 8.79199 46.543Z" fill="#898E97"/>
<path id="Vector_5" fill-rule="evenodd" clip-rule="evenodd" d="M11.814 36.355L20.174 33.473C20.368 33.405 20.502 33.226 20.51 33.02C20.518 32.813 20.399 32.624 20.21 32.541L11.009 28.541C10.756 28.431 10.461 28.548 10.351 28.801C10.241 29.054 10.357 29.349 10.61 29.459L18.633 32.946L11.488 35.41C11.227 35.5 11.088 35.784 11.178 36.045C11.268 36.306 11.553 36.445 11.814 36.355Z" fill="#898E97"/>
<path id="Vector_6" fill-rule="evenodd" clip-rule="evenodd" d="M13.344 28.089L17.865 25.431C18.014 25.343 18.107 25.184 18.111 25.01C18.115 24.837 18.028 24.674 17.882 24.58L13.19 21.551C12.958 21.401 12.648 21.468 12.499 21.7C12.349 21.931 12.416 22.241 12.647 22.391L16.659 24.98L12.838 27.227C12.6 27.367 12.52 27.674 12.66 27.912C12.8 28.15 13.107 28.229 13.344 28.089Z" fill="#898E97"/>
<path id="Vector_7" d="M14.791 19.745C16.724 19.745 18.291 18.178 18.291 16.245C18.291 14.312 16.724 12.745 14.791 12.745C12.858 12.745 11.291 14.312 11.291 16.245C11.291 18.178 12.858 19.745 14.791 19.745Z" fill="#139BA8" class="--fill-change-color"/>
<path id="Vector_8" fill-rule="evenodd" clip-rule="evenodd" d="M32.306 14.953C35.611 11.649 40.37 10.676 44.531 12.035C45.055 12.206 45.62 11.919 45.792 11.395C45.963 10.87 45.676 10.305 45.151 10.134C40.298 8.54899 34.747 9.68399 30.892 13.539C30.502 13.929 30.502 14.563 30.892 14.953C31.282 15.344 31.916 15.344 32.306 14.953Z" fill="#139BA8" class="--fill-change-color"/>
<path id="Vector_9" fill-rule="evenodd" clip-rule="evenodd" d="M47.342 13.382C48.027 13.829 48.676 14.352 49.277 14.953C49.667 15.344 50.301 15.344 50.691 14.953C51.081 14.563 51.081 13.929 50.691 13.539C49.99 12.838 49.233 12.228 48.435 11.707C47.972 11.405 47.352 11.536 47.051 11.998C46.749 12.46 46.88 13.08 47.342 13.382Z" fill="#139BA8" class="--fill-change-color"/>
<path id="Vector_10" fill-rule="evenodd" clip-rule="evenodd" d="M35.649 18.296C37.397 16.547 39.818 15.877 42.083 16.282C42.626 16.38 43.146 16.018 43.243 15.474C43.341 14.931 42.979 14.411 42.435 14.314C39.549 13.796 36.463 14.653 34.234 16.882C33.844 17.272 33.844 17.906 34.234 18.296C34.625 18.686 35.258 18.686 35.649 18.296Z" fill="#139BA8" class="--fill-change-color"/>
<path id="Vector_11" fill-rule="evenodd" clip-rule="evenodd" d="M44.895 17.433C45.261 17.684 45.609 17.971 45.934 18.296C46.324 18.686 46.958 18.686 47.348 18.296C47.738 17.906 47.738 17.272 47.348 16.882C46.934 16.468 46.491 16.102 46.025 15.783C45.57 15.471 44.947 15.588 44.635 16.043C44.323 16.498 44.44 17.121 44.895 17.433Z" fill="#139BA8" class="--fill-change-color"/>
<path id="Vector_12" fill-rule="evenodd" clip-rule="evenodd" d="M38.991 21.639C39.193 21.437 39.42 21.277 39.662 21.157C40.156 20.912 40.359 20.312 40.114 19.817C39.87 19.322 39.269 19.12 38.775 19.364C38.342 19.578 37.937 19.865 37.577 20.225C37.187 20.615 37.187 21.248 37.577 21.639C37.967 22.029 38.601 22.029 38.991 21.639Z" fill="#139BA8" class="--fill-change-color"/>
<path id="Vector_13" fill-rule="evenodd" clip-rule="evenodd" d="M42.265 21.363C42.38 21.444 42.489 21.536 42.591 21.639C42.981 22.029 43.615 22.029 44.005 21.639C44.396 21.248 44.396 20.615 44.005 20.225C43.823 20.042 43.629 19.878 43.425 19.733C42.976 19.413 42.351 19.519 42.031 19.968C41.71 20.418 41.816 21.043 42.265 21.363Z" fill="#139BA8" class="--fill-change-color"/>
<path id="Vector_14" d="M40.791 25.853C41.6194 25.853 42.291 25.1814 42.291 24.353C42.291 23.5246 41.6194 22.853 40.791 22.853C39.9626 22.853 39.291 23.5246 39.291 24.353C39.291 25.1814 39.9626 25.853 40.791 25.853Z" fill="#139BA8" class="--fill-change-color"/>
<path id="Vector_15" fill-rule="evenodd" clip-rule="evenodd" d="M45.788 7.62501L34.939 25.33C34.65 25.801 34.798 26.417 35.269 26.706C35.739 26.994 36.356 26.846 36.644 26.375L47.494 8.67001C47.782 8.19901 47.634 7.58301 47.163 7.29401C46.693 7.00601 46.077 7.15401 45.788 7.62501Z" fill="#139BA8" class="--fill-change-color"/>
</g>
</svg>
