<svg width="52" height="57" viewBox="0 0 52 57" fill="none" xmlns="http://www.w3.org/2000/svg">
<g id="Exp-1.-O">
<path id="Vector" fill-rule="evenodd" clip-rule="evenodd" d="M49.672 46.143C51.331 47.792 51.746 50.412 50.522 52.532C49.298 54.653 46.821 55.604 44.564 54.991C47.274 52.752 49.088 49.609 49.672 46.143Z" fill="#139BA8" class="--fill-change-color"/>
<path id="Vector_2" fill-rule="evenodd" clip-rule="evenodd" d="M34.151 53.925C35.796 54.122 37.389 54.663 38.824 55.521C38.921 55.579 39.015 55.635 39.107 55.69C40.126 56.299 41.404 56.271 42.395 55.617C42.396 55.616 42.396 55.616 42.396 55.616C46.371 52.992 48.8769 48.65 49.1629 43.896C49.2339 42.711 48.62 41.589 47.583 41.011C47.489 40.958 47.3919 40.905 47.294 40.85C45.229 39.699 43.554 37.957 42.485 35.847C41.938 34.767 41.393 33.692 41.081 33.076C40.957 32.829 40.655 32.731 40.409 32.855C40.163 32.98 40.064 33.281 40.189 33.527C40.501 34.144 41.046 35.219 41.593 36.299C42.752 38.586 44.568 40.475 46.808 41.724C46.9059 41.778 47.002 41.832 47.096 41.884C47.797 42.275 48.213 43.033 48.165 43.835C47.898 48.275 45.557 52.331 41.845 54.781C41.845 54.782 41.845 54.782 41.844 54.782C41.174 55.225 40.31 55.244 39.62 54.832C39.528 54.777 39.434 54.72 39.337 54.663C37.781 53.732 36.054 53.146 34.27 52.932C33.996 52.899 33.747 53.094 33.714 53.368C33.681 53.642 33.877 53.892 34.151 53.925Z" fill="#898E97"/>
<path id="Vector_3" fill-rule="evenodd" clip-rule="evenodd" d="M33.231 20.322C40.389 26.281 42.44 36.712 37.626 45.049C32.245 54.369 20.309 57.568 10.989 52.186C1.66898 46.805 -1.53002 34.869 3.85198 25.549C5.51798 22.662 7.81398 20.362 10.467 18.723L13.71 19.996C13.774 20.021 13.843 20.033 13.912 20.03L16.493 19.934L15.66 22.26L15.168 23.807C15.127 23.936 15.14 24.077 15.205 24.197L16.372 26.342C16.465 26.513 16.649 26.614 16.843 26.602L20.441 26.37C20.693 26.353 20.893 26.152 20.908 25.901L21.023 23.977L25.337 22.134C25.511 22.06 25.629 21.894 25.64 21.704C25.651 21.515 25.555 21.336 25.391 21.242L21.373 18.922L21.674 17.449L24.34 16.131C26.449 16.526 28.527 17.279 30.489 18.411C30.728 18.549 31.034 18.467 31.172 18.228C31.31 17.989 31.228 17.683 30.989 17.545C28.873 16.324 26.63 15.523 24.355 15.117C24.25 15.098 24.142 15.113 24.046 15.161L21.012 16.661C20.874 16.729 20.775 16.858 20.744 17.009L20.321 19.074C20.278 19.285 20.374 19.5 20.561 19.608L24.025 21.608L20.346 23.179C20.172 23.253 20.055 23.42 20.044 23.609L19.936 25.4L17.097 25.583L16.185 23.907L16.61 22.572L17.683 19.575C17.739 19.419 17.714 19.245 17.616 19.111C17.518 18.977 17.36 18.901 17.194 18.907L13.978 19.027L10.602 17.701C10.457 17.644 10.294 17.658 10.161 17.738C7.27898 19.469 4.78398 21.934 2.98498 25.049C-2.67202 34.847 0.690978 47.395 10.489 53.052C20.287 58.71 32.835 55.347 38.493 45.549C43.553 36.784 41.396 25.819 33.871 19.554C33.659 19.377 33.343 19.406 33.167 19.618C32.99 19.83 33.019 20.146 33.231 20.322Z" fill="#898E97"/>
<path id="Vector_4" fill-rule="evenodd" clip-rule="evenodd" d="M20.443 24.128L23.338 24.721L24.456 26.414C24.608 26.644 24.918 26.708 25.148 26.556C25.379 26.404 25.442 26.093 25.29 25.863L24.058 23.997C23.985 23.886 23.871 23.809 23.741 23.783L20.643 23.149C20.373 23.093 20.108 23.268 20.053 23.538C19.998 23.809 20.172 24.073 20.443 24.128Z" fill="#898E97"/>
<path id="Vector_5" fill-rule="evenodd" clip-rule="evenodd" d="M15.474 23.488L12.895 24.42L9.63301 22.536C9.39401 22.398 9.08801 22.48 8.95001 22.719C8.81201 22.958 8.89401 23.264 9.13301 23.402L12.597 25.402C12.724 25.475 12.878 25.489 13.017 25.439L15.814 24.428C16.074 24.335 16.208 24.048 16.115 23.788C16.021 23.529 15.734 23.394 15.474 23.488Z" fill="#898E97"/>
<path id="Vector_6" fill-rule="evenodd" clip-rule="evenodd" d="M16.312 26.073L16.19 28.098L13.979 30.059C13.773 30.242 13.754 30.558 13.937 30.765C14.12 30.971 14.436 30.99 14.643 30.807L17.009 28.709C17.108 28.621 17.168 28.497 17.176 28.365L17.31 26.133C17.326 25.857 17.116 25.62 16.841 25.604C16.565 25.587 16.328 25.797 16.312 26.073Z" fill="#898E97"/>
<path id="Vector_7" fill-rule="evenodd" clip-rule="evenodd" d="M19.926 26L20.658 28.732C20.692 28.86 20.776 28.969 20.891 29.036L24.355 31.036C24.594 31.174 24.9 31.092 25.038 30.853C25.176 30.614 25.094 30.308 24.855 30.17L21.57 28.273L20.892 25.741C20.82 25.475 20.546 25.316 20.279 25.388C20.013 25.459 19.854 25.734 19.926 26Z" fill="#898E97"/>
<path id="Vector_8" fill-rule="evenodd" clip-rule="evenodd" d="M24.767 22.006L26.865 24.372C26.991 24.514 27.185 24.573 27.368 24.524L31.466 23.425C31.733 23.354 31.891 23.08 31.82 22.813C31.749 22.547 31.474 22.388 31.208 22.46L27.408 23.478L25.515 21.343C25.332 21.136 25.016 21.117 24.809 21.3C24.603 21.484 24.584 21.8 24.767 22.006Z" fill="#898E97"/>
<path id="Vector_9" fill-rule="evenodd" clip-rule="evenodd" d="M3.993 7.93102L11.064 15.002C11.454 15.392 12.088 15.392 12.478 15.002C12.869 14.612 12.869 13.978 12.478 13.588L5.407 6.51702C5.017 6.12702 4.383 6.12702 3.993 6.51702C3.603 6.90702 3.603 7.54102 3.993 7.93102Z" fill="#139BA8" class="--fill-change-color"/>
<path id="Vector_10" fill-rule="evenodd" clip-rule="evenodd" d="M14.151 6.64799L15.698 12.42C15.841 12.953 16.39 13.27 16.923 13.127C17.456 12.985 17.773 12.436 17.63 11.903L16.083 6.12999C15.94 5.59699 15.391 5.27999 14.858 5.42299C14.325 5.56599 14.008 6.11499 14.151 6.64799Z" fill="#139BA8" class="--fill-change-color"/>
<path id="Vector_11" fill-rule="evenodd" clip-rule="evenodd" d="M23.59 1.64501L21.002 11.304C20.859 11.837 21.176 12.386 21.709 12.529C22.242 12.672 22.791 12.355 22.934 11.822L25.522 2.16201C25.665 1.62901 25.348 1.08101 24.815 0.938005C24.282 0.795005 23.733 1.11201 23.59 1.64501Z" fill="#139BA8" class="--fill-change-color"/>
</g>
</svg>
