<?xml version="1.0" encoding="UTF-8" standalone="no"?>
<!-- Created with Inkscape (http://www.inkscape.org/) -->

<svg
   width="104.24583mm"
   height="58.338608mm"
   viewBox="0 0 104.24583 58.338608"
   version="1.1"
   id="svg1"
   xml:space="preserve"
   xmlns:inkscape="http://www.inkscape.org/namespaces/inkscape"
   xmlns:sodipodi="http://sodipodi.sourceforge.net/DTD/sodipodi-0.dtd"
   xmlns="http://www.w3.org/2000/svg"
   xmlns:svg="http://www.w3.org/2000/svg"><sodipodi:namedview
     id="namedview1"
     pagecolor="#ffffff"
     bordercolor="#000000"
     borderopacity="0.25"
     inkscape:showpageshadow="2"
     inkscape:pageopacity="0.0"
     inkscape:pagecheckerboard="0"
     inkscape:deskcolor="#d1d1d1"
     inkscape:document-units="mm" /><defs
     id="defs1"><clipPath
       id="clip-path"><rect
         id="Retângulo_3202"
         data-name="Retângulo 3202"
         width="393.923"
         height="109.979"
         fill="#2747e2"
         x="0"
         y="0" /></clipPath><clipPath
       id="clip-path-5"><rect
         id="Retângulo_3230"
         data-name="Retângulo 3230"
         width="211.323"
         height="48.945"
         fill="none"
         x="0"
         y="0" /></clipPath></defs><g
     inkscape:label="Camada 1"
     inkscape:groupmode="layer"
     id="layer1"
     transform="translate(-51.232591,-129.25462)"><g
       id="Grupo_10134"
       data-name="Grupo 10134"
       clip-path="url(#clip-path)"
       transform="matrix(0.26465173,0,0,0.26465173,51.22602,129.2467)"><path
         id="Caminho_4368"
         data-name="Caminho 4368"
         d="m 122.757,51.8 c 0,6.568 -2.644,12.453 -9.383,12.453 -6.654,0 -9.383,-5.885 -9.383,-12.453 V 27.75 H 91.879 v 26.442 c 0,13.051 9.553,20.813 21.5,20.813 12.026,0 21.58,-7.934 21.58,-20.9 V 27.75 h -12.2 z"
         transform="translate(-21.61,-6.527)"
         fill="#2747e2" /><path
         id="Caminho_4369"
         data-name="Caminho 4369"
         d="m 191.944,33.464 h -0.255 c -3.156,-4.777 -8.189,-7.165 -14.331,-7.165 -12.2,0 -21.921,9.468 -21.921,24.14 0,14.585 10.064,24.224 21.921,24.224 6.569,0 11,-2.559 14.5,-8.018 h 0.256 v 6.909 H 204.14 V 27.409 h -12.2 z M 179.747,64 c -6.995,0 -12.2,-5.715 -12.2,-13.562 0,-7.933 5.2,-13.477 12.2,-13.477 7,0 12.2,5.544 12.2,13.477 0,7.848 -5.2,13.562 -12.2,13.562"
         transform="translate(-36.559,-6.186)"
         fill="#2747e2" /><rect
         id="Retângulo_3199"
         data-name="Retângulo 3199"
         width="12.112"
         height="61.415001"
         transform="translate(175.453,5.954)"
         fill="#2747e2"
         x="0"
         y="0" /><rect
         id="Retângulo_3200"
         data-name="Retângulo 3200"
         width="12.112"
         height="46.146"
         transform="translate(195.688,21.223)"
         fill="#2747e2"
         x="0"
         y="0" /><path
         id="Caminho_4370"
         data-name="Caminho 4370"
         d="m 261.714,6.336 a 6.824,6.824 0 1 0 6.74,6.823 6.825,6.825 0 0 0 -6.74,-6.823"
         transform="translate(-59.971,-1.49)"
         fill="#2747e2" /><path
         id="Caminho_4371"
         data-name="Caminho 4371"
         d="m 288.095,21.689 v 1.025 h -5.971 v 9.553 h 5.971 v 36.592 h 12.2 V 32.266 h 11.258 V 22.713 H 300.294 V 21.86 c 0,-4.777 2.132,-6.569 6.141,-6.569 a 18.987,18.987 0 0 1 5.117,0.683 V 7.1 a 31.8,31.8 0 0 0 -7.763,-0.767 c -10.235,0 -15.694,6.056 -15.694,15.353"
         transform="translate(-66.356,-1.49)"
         fill="#2747e2" /><path
         id="Caminho_4372"
         data-name="Caminho 4372"
         d="m 335.281,6.336 a 6.824,6.824 0 1 0 6.739,6.823 6.825,6.825 0 0 0 -6.739,-6.823"
         transform="translate(-77.274,-1.49)"
         fill="#2747e2" /><rect
         id="Retângulo_3201"
         data-name="Retângulo 3201"
         width="12.112"
         height="46.146"
         transform="translate(251.951,21.223)"
         fill="#2747e2"
         x="0"
         y="0" /><path
         id="Caminho_4373"
         data-name="Caminho 4373"
         d="m 364.349,50.268 c 0,-7.848 4.861,-13.307 13.051,-13.307 a 16.685,16.685 0 0 1 9.468,2.56 V 28.346 a 21.91,21.91 0 0 0 -9.555,-2.047 c -15.181,0 -25.076,10.235 -25.076,24.054 0,14.16 10.235,24.311 25.247,24.311 a 24.17,24.17 0 0 0 9.553,-1.877 V 61.953 A 22.19,22.19 0 0 1 378,64 c -8.188,0 -13.647,-5.546 -13.647,-13.733"
         transform="translate(-82.847,-6.186)"
         fill="#2747e2" /><path
         id="Caminho_4374"
         data-name="Caminho 4374"
         d="M 483.577,45.558 V 27.743 h -8.843 V 46.4 h -17.815 v 8.843 h 17.815 v 18.671 h 8.843 V 55.242 h 17.814 V 46.4 h -17.814 z"
         transform="translate(-107.468,-6.525)"
         fill="#2f355b" /><path
         id="Caminho_4375"
         data-name="Caminho 4375"
         d="m 429,64 c -6.994,0 -12.2,-5.715 -12.2,-13.562 0,-7.933 5.2,-13.477 12.2,-13.477 a 11.608,11.608 0 0 1 10.042,5.516 h 14.354 V 27.409 h -12.2 v 6.056 h -0.256 c -3.156,-4.777 -8.189,-7.165 -14.331,-7.165 -12.2,0 -21.921,9.468 -21.921,24.14 0,14.585 10.064,24.224 21.921,24.224 6.569,0 11,-2.559 14.5,-8.018 h 0.256 v 6.909 h 12.027 V 58.37 H 439.051 A 11.629,11.629 0 0 1 429,64"
         transform="translate(-95.183,-6.186)"
         fill="#2747e2" /><path
         id="Caminho_4376"
         data-name="Caminho 4376"
         d="m 63.09,42.577 a 32.356,32.356 0 1 0 -16.5,18.878 c 0.807,-0.4 1.59,-0.831 2.357,-1.289 l 6.348,7.224 13.3,-0.011 -12.21,-13.323 a 32.346,32.346 0 0 0 6.7,-11.479 M 21.352,50.926 10.334,31.842 21.352,12.758 h 22.037 l 11.018,19.084 -7.1,12.3 a 24.985,24.985 0 0 1 -4.64,-12.316 v 0 c 0,-0.071 0.005,-0.141 0,-0.209 a 8.043,8.043 0 0 0 -3.68,-7.334 c -1.966,-1.358 -7.76,-2.173 -9.735,-2.268 v 0 c -1.271,-0.167 -1.52,0.278 -1.834,0.84 L 27.4,22.9 a 0.844,0.844 0 0 0 0.011,1.063 0.876,0.876 0 0 0 0.182,0.15 c 0.21,0.129 4.848,2.928 5.679,3.395 a 1.692,1.692 0 0 1 0.979,1.64 c 0.055,0.474 0.1,2.222 -1.574,4.828 v 0 c -1.486,2.356 -2.912,3.12 -3.629,3.367 A 1.752,1.752 0 0 1 27.12,37.192 c -0.8,-0.536 -5.378,-3.416 -5.586,-3.543 -0.208,-0.127 -0.7,-0.324 -1.2,0.358 l -0.028,0.039 c -0.38,0.522 -0.679,0.936 0.028,1.988 v 0 a 36.941,36.941 0 0 0 4.194,5.776 9.254,9.254 0 0 0 2.124,1.842 9.336,9.336 0 0 0 3.585,1.1 v 0 c 3.49,0.55 7.682,3.522 10.6,6.175 z"
         fill="#2747e2" /><path
         id="Caminho_4377"
         data-name="Caminho 4377"
         d="M 2.878,136.212 V 128.7 a 1.583,1.583 0 0 1 0.5,-1.221 l 1.959,-2.119 a 0.893,0.893 0 0 1 0.659,-0.305 0.864,0.864 0 0 1 0.674,0.321 l 1.927,2.087 a 1.655,1.655 0 0 1 0.514,1.237 v 7.515 c 0,0.128 -0.081,0.193 -0.21,0.193 H 7.936 a 0.17,0.17 0 0 1 -0.193,-0.193 v -2.874 c 0,-0.08 -0.048,-0.112 -0.128,-0.112 H 4.356 c -0.08,0 -0.128,0.032 -0.128,0.112 v 2.874 a 0.17,0.17 0 0 1 -0.193,0.193 H 3.071 a 0.17,0.17 0 0 1 -0.193,-0.193 m 1.478,-4.239 h 3.26 a 0.114,0.114 0 0 0 0.128,-0.112 v -3.184 a 0.532,0.532 0 0 0 -0.161,-0.4 l -1.478,-1.654 a 0.207,0.207 0 0 0 -0.112,-0.064 c -0.032,0 -0.064,0.016 -0.113,0.064 l -1.493,1.654 a 0.532,0.532 0 0 0 -0.161,0.4 v 3.181 a 0.114,0.114 0 0 0 0.128,0.112"
         transform="translate(-0.677,-29.412)"
         fill="#2747e2" /><path
         id="Caminho_4378"
         data-name="Caminho 4378"
         d="m 14.868,140.141 v -8.189 c 0,-1.847 0.867,-2.891 2.954,-2.891 2.152,-0.016 2.971,0.964 2.971,4.095 0,3.227 -0.964,4.32 -2.89,4.32 a 3.368,3.368 0 0 1 -1.686,-0.433 c -0.048,0 -0.064,0.031 -0.064,0.08 v 3.019 a 0.177,0.177 0 0 1 -0.193,0.193 h -0.9 a 0.177,0.177 0 0 1 -0.193,-0.193 m 2.746,-3.839 c 1.285,0 1.863,-0.45 1.863,-3.147 0,-2.505 -0.45,-2.922 -1.67,-2.922 -1.237,0 -1.654,0.594 -1.654,1.927 v 3.067 c 0,0.787 0.594,1.075 1.462,1.075"
         transform="translate(-3.497,-30.355)"
         fill="#2747e2" /><path
         id="Caminho_4379"
         data-name="Caminho 4379"
         d="m 25.684,137.187 v -6.006 c 0,-1.541 0.514,-2.119 2.007,-2.119 a 5.8,5.8 0 0 1 1.445,0.161 c 0.273,0.08 0.305,0.177 0.273,0.45 l -0.048,0.465 a 0.19,0.19 0 0 1 -0.209,0.193 c -0.1,0 -0.771,-0.1 -1.172,-0.1 -0.722,0 -1.011,0.209 -1.011,1.043 v 5.91 a 0.166,0.166 0 0 1 -0.177,0.161 H 25.86 a 0.165,0.165 0 0 1 -0.176,-0.161"
         transform="translate(-6.041,-30.356)"
         fill="#2747e2" /><path
         id="Caminho_4380"
         data-name="Caminho 4380"
         d="m 32.613,133.253 c 0,-3.4 1,-4.192 3,-4.192 1.911,0 2.746,0.932 2.746,3.581 v 0.418 c 0,0.5 -0.225,0.707 -0.723,0.707 h -3.643 c -0.063,0 -0.1,0.031 -0.1,0.08 v 0.128 c 0,1.959 0.578,2.361 2.023,2.361 a 9.866,9.866 0 0 0 1.864,-0.29 c 0.112,0 0.175,0.064 0.207,0.193 l 0.1,0.45 a 0.374,0.374 0 0 1 -0.224,0.45 5.562,5.562 0 0 1 -2.055,0.321 c -2.265,0 -3.2,-0.85 -3.2,-4.206 m 1.4,-0.483 h 3.1 c 0.063,0 0.08,-0.031 0.08,-0.1 0,-2.1 -0.53,-2.489 -1.558,-2.489 -1.156,0 -1.734,0.418 -1.734,2.473 0,0.08 0.032,0.112 0.112,0.112"
         transform="translate(-7.671,-30.355)"
         fill="#2747e2" /><path
         id="Caminho_4381"
         data-name="Caminho 4381"
         d="m 43.029,137.187 v -5.2 c 0,-1.991 0.514,-2.922 2.938,-2.922 2.424,0 2.922,0.932 2.922,2.922 v 5.2 a 0.151,0.151 0 0 1 -0.161,0.161 h -0.947 a 0.157,0.157 0 0 1 -0.177,-0.161 v -5.154 c 0,-1.51 -0.449,-1.8 -1.637,-1.8 -1.172,0 -1.653,0.288 -1.653,1.8 v 5.154 a 0.152,0.152 0 0 1 -0.161,0.161 H 43.19 a 0.152,0.152 0 0 1 -0.161,-0.161"
         transform="translate(-10.121,-30.356)"
         fill="#2747e2" /><path
         id="Caminho_4382"
         data-name="Caminho 4382"
         d="m 53.76,132.327 c 0,-3.516 1.027,-4.175 2.714,-4.175 a 2.525,2.525 0 0 1 1.927,0.61 c 0.032,0 0.049,-0.032 0.049,-0.064 v -3.372 c 0,-0.1 0.047,-0.128 0.128,-0.128 H 59.6 c 0.08,0 0.128,0.032 0.128,0.128 v 7.981 c 0,2.408 -0.594,3.26 -2.938,3.26 -2.039,0 -3.035,-0.932 -3.035,-4.239 m 3.083,3.067 c 1.253,0 1.621,-0.481 1.621,-1.8 v -2.681 c 0,-1.06 -0.482,-1.574 -1.67,-1.574 -1.188,0 -1.718,0.482 -1.718,2.987 0,2.57 0.5,3.067 1.767,3.067"
         transform="translate(-12.644,-29.447)"
         fill="#2747e2" /><path
         id="Caminho_4383"
         data-name="Caminho 4383"
         d="m 64.638,133.253 c 0,-3.4 1,-4.192 3,-4.192 1.911,0 2.746,0.932 2.746,3.581 v 0.418 c 0,0.5 -0.225,0.707 -0.723,0.707 h -3.643 c -0.063,0 -0.1,0.031 -0.1,0.08 v 0.128 c 0,1.959 0.577,2.361 2.023,2.361 a 9.841,9.841 0 0 0 1.863,-0.29 c 0.112,0 0.176,0.064 0.208,0.193 l 0.1,0.45 a 0.374,0.374 0 0 1 -0.225,0.45 5.556,5.556 0 0 1 -2.055,0.321 c -2.264,0 -3.2,-0.85 -3.2,-4.206 m 1.4,-0.483 h 3.1 c 0.064,0 0.08,-0.031 0.08,-0.1 0,-2.1 -0.529,-2.489 -1.557,-2.489 -1.156,0 -1.734,0.418 -1.734,2.473 0,0.08 0.032,0.112 0.112,0.112"
         transform="translate(-15.203,-30.355)"
         fill="#2747e2" /><path
         id="Caminho_4384"
         data-name="Caminho 4384"
         d="m 75.053,137.187 v -5.2 c 0,-1.991 0.514,-2.922 2.939,-2.922 2.425,0 2.922,0.932 2.922,2.922 v 5.2 a 0.152,0.152 0 0 1 -0.161,0.161 h -0.948 a 0.157,0.157 0 0 1 -0.177,-0.161 v -5.154 c 0,-1.51 -0.45,-1.8 -1.637,-1.8 -1.172,0 -1.654,0.288 -1.654,1.8 v 5.154 a 0.152,0.152 0 0 1 -0.161,0.161 h -0.964 a 0.152,0.152 0 0 1 -0.161,-0.161"
         transform="translate(-17.653,-30.356)"
         fill="#2747e2" /><path
         id="Caminho_4385"
         data-name="Caminho 4385"
         d="m 85.784,132.327 c 0,-3.516 1.027,-4.175 2.714,-4.175 a 2.525,2.525 0 0 1 1.927,0.61 c 0.032,0 0.049,-0.032 0.049,-0.064 v -3.372 c 0,-0.1 0.047,-0.128 0.128,-0.128 h 1.027 c 0.08,0 0.128,0.032 0.128,0.128 v 7.981 c 0,2.408 -0.594,3.26 -2.938,3.26 -2.039,0 -3.035,-0.932 -3.035,-4.239 m 3.083,3.067 c 1.253,0 1.621,-0.481 1.621,-1.8 v -2.681 c 0,-1.06 -0.482,-1.574 -1.67,-1.574 -1.188,0 -1.719,0.482 -1.719,2.987 0,2.57 0.5,3.067 1.767,3.067"
         transform="translate(-20.177,-29.447)"
         fill="#2747e2" /><path
         id="Caminho_4386"
         data-name="Caminho 4386"
         d="m 96.662,133.236 c 0,-3.147 0.691,-4.175 3,-4.175 2.309,0 3,1.028 3,4.175 0,3.2 -0.691,4.239 -3,4.239 -2.309,0 -3,-1.044 -3,-4.239 m 3,3.067 c 1.3,0 1.686,-0.61 1.686,-3.067 0,-2.424 -0.385,-3 -1.686,-3 -1.285,0 -1.686,0.562 -1.686,3 0,2.457 0.385,3.067 1.686,3.067"
         transform="translate(-22.735,-30.355)"
         fill="#2747e2" /><path
         id="Caminho_4387"
         data-name="Caminho 4387"
         d="m 112.853,136.294 v -10.629 a 0.411,0.411 0 0 1 0.449,-0.467 h 0.466 a 0.323,0.323 0 0 1 0.32,0.177 l 4.032,7.741 c 0.032,0.08 0.111,0.064 0.111,-0.033 v -7.739 a 0.144,0.144 0 0 1 0.146,-0.145 h 1.075 a 0.156,0.156 0 0 1 0.145,0.145 v 10.629 a 0.416,0.416 0 0 1 -0.466,0.466 h -0.418 a 0.256,0.256 0 0 1 -0.257,-0.145 l -4.143,-7.9 c -0.032,-0.08 -0.112,-0.064 -0.112,0.033 v 7.867 a 0.144,0.144 0 0 1 -0.146,0.145 H 113 a 0.134,0.134 0 0 1 -0.144,-0.145"
         transform="translate(-26.543,-29.447)"
         fill="#2747e2" /><path
         id="Caminho_4388"
         data-name="Caminho 4388"
         d="m 125.094,133.236 c 0,-3.147 0.691,-4.175 3,-4.175 2.309,0 3,1.028 3,4.175 0,3.2 -0.691,4.239 -3,4.239 -2.309,0 -3,-1.044 -3,-4.239 m 3,3.067 c 1.3,0 1.686,-0.61 1.686,-3.067 0,-2.424 -0.385,-3 -1.686,-3 -1.285,0 -1.686,0.562 -1.686,3 0,2.457 0.386,3.067 1.686,3.067"
         transform="translate(-29.422,-30.355)"
         fill="#2747e2" /><path
         id="Caminho_4389"
         data-name="Caminho 4389"
         d="m 138.05,137.113 -1.542,-1.766 a 1.662,1.662 0 0 1 -0.514,-1.317 v -4.64 c 0,-0.112 0.048,-0.161 0.161,-0.161 h 0.964 a 0.144,0.144 0 0 1 0.161,0.161 v 4.625 a 0.785,0.785 0 0 0 0.225,0.61 l 1.14,1.445 c 0.064,0.08 0.113,0.112 0.161,0.112 a 0.251,0.251 0 0 0 0.177,-0.112 l 1.14,-1.445 a 0.835,0.835 0 0 0 0.209,-0.61 v -4.625 a 0.144,0.144 0 0 1 0.161,-0.161 h 0.964 c 0.112,0 0.161,0.048 0.161,0.161 v 4.641 a 1.709,1.709 0 0 1 -0.53,1.317 l -1.525,1.766 a 1.012,1.012 0 0 1 -0.756,0.4 0.961,0.961 0 0 1 -0.754,-0.4"
         transform="translate(-31.986,-30.395)"
         fill="#2747e2" /><path
         id="Caminho_4390"
         data-name="Caminho 4390"
         d="m 146.389,134.825 c 0,-1.718 0.8,-2.408 2.553,-2.408 h 1.51 c 0.161,0 0.225,-0.08 0.225,-0.241 0,-1.606 -0.434,-1.975 -1.719,-1.975 a 13.018,13.018 0 0 0 -1.863,0.241 c -0.128,0 -0.176,-0.08 -0.193,-0.209 l -0.08,-0.5 c -0.016,-0.208 0.016,-0.305 0.225,-0.385 a 6.219,6.219 0 0 1 2.023,-0.289 c 2.007,0 2.891,0.642 2.891,3.148 v 4.977 a 0.165,0.165 0 0 1 -0.177,0.161 h -0.61 c -0.128,0 -0.208,-0.047 -0.224,-0.145 l -0.064,-0.723 c 0,-0.1 -0.032,-0.112 -0.064,-0.112 -0.064,0 -0.08,0.033 -0.193,0.193 a 2.39,2.39 0 0 1 -2.007,0.915 c -1.606,0 -2.232,-0.771 -2.232,-2.65 m 2.537,1.575 a 1.648,1.648 0 0 0 1.767,-1.832 v -0.93 c 0,-0.145 -0.064,-0.193 -0.177,-0.193 h -1.285 c -1.172,0 -1.605,0.337 -1.605,1.38 0,1.254 0.418,1.575 1.3,1.575"
         transform="translate(-34.431,-30.355)"
         fill="#2747e2" /><path
         id="Caminho_4391"
         data-name="Caminho 4391"
         d="m 157.052,137.331 a 0.269,0.269 0 0 1 -0.24,-0.336 l 0.064,-0.594 a 0.144,0.144 0 0 1 0.16,-0.161 c 0.193,0 0.883,0.128 1.815,0.128 1.252,0 1.637,-0.481 1.637,-1.2 0,-0.69 -0.3,-0.883 -1.2,-1.332 l -1.06,-0.531 a 2.153,2.153 0 0 1 -1.526,-2.248 c 0,-1.494 0.915,-1.992 2.65,-1.992 a 8.339,8.339 0 0 1 1.975,0.177 c 0.161,0.048 0.209,0.145 0.193,0.321 l -0.08,0.53 c -0.016,0.128 -0.048,0.193 -0.193,0.193 -0.224,0 -1.044,-0.112 -1.783,-0.112 -0.883,0 -1.493,0.176 -1.493,0.947 0,0.723 0.418,0.947 1.253,1.349 l 0.915,0.433 c 1.14,0.547 1.622,0.98 1.622,2.153 0,1.557 -0.738,2.424 -2.842,2.424 a 11.09,11.09 0 0 1 -1.863,-0.145"
         transform="translate(-36.856,-30.355)"
         fill="#2747e2" /><path
         id="Caminho_4392"
         data-name="Caminho 4392"
         d="m 171.42,136.294 v -10.919 c 0,-0.1 0.048,-0.177 0.145,-0.177 h 1.06 a 0.177,0.177 0 0 1 0.145,0.177 v 4.689 c 0,0.08 0.048,0.112 0.128,0.112 h 3.774 c 0.08,0 0.128,-0.032 0.128,-0.112 v -4.689 c 0,-0.1 0.048,-0.177 0.145,-0.177 h 1.044 a 0.178,0.178 0 0 1 0.176,0.177 v 10.919 a 0.147,0.147 0 0 1 -0.161,0.145 h -1.059 a 0.127,0.127 0 0 1 -0.145,-0.145 v -4.672 c 0,-0.081 -0.048,-0.112 -0.128,-0.112 H 172.9 c -0.08,0 -0.128,0.031 -0.128,0.112 v 4.672 a 0.143,0.143 0 0 1 -0.145,0.145 h -1.06 a 0.127,0.127 0 0 1 -0.145,-0.145"
         transform="translate(-40.318,-29.447)"
         fill="#2747e2" /><path
         id="Caminho_4393"
         data-name="Caminho 4393"
         d="m 183.642,134.825 c 0,-1.718 0.8,-2.408 2.553,-2.408 h 1.51 c 0.161,0 0.225,-0.08 0.225,-0.241 0,-1.606 -0.434,-1.975 -1.718,-1.975 a 13.018,13.018 0 0 0 -1.863,0.241 c -0.128,0 -0.176,-0.08 -0.193,-0.209 l -0.08,-0.5 c -0.016,-0.208 0.016,-0.305 0.225,-0.385 a 6.219,6.219 0 0 1 2.023,-0.289 c 2.007,0 2.891,0.642 2.891,3.148 v 4.977 a 0.165,0.165 0 0 1 -0.177,0.161 h -0.61 c -0.128,0 -0.208,-0.047 -0.224,-0.145 l -0.064,-0.723 c 0,-0.1 -0.032,-0.112 -0.064,-0.112 -0.064,0 -0.08,0.033 -0.193,0.193 a 2.389,2.389 0 0 1 -2.007,0.915 c -1.606,0 -2.232,-0.771 -2.232,-2.65 m 2.537,1.575 a 1.648,1.648 0 0 0 1.767,-1.832 v -0.93 c 0,-0.145 -0.064,-0.193 -0.177,-0.193 h -1.285 c -1.172,0 -1.605,0.337 -1.605,1.38 0,1.254 0.418,1.575 1.3,1.575"
         transform="translate(-43.193,-30.355)"
         fill="#2747e2" /><path
         id="Caminho_4394"
         data-name="Caminho 4394"
         d="m 194.415,133.467 v -8.141 c 0,-0.1 0.047,-0.128 0.128,-0.128 h 1.027 c 0.08,0 0.128,0.032 0.128,0.128 v 3.4 c 0,0.048 0.016,0.048 0.032,0.048 0.032,0 0.064,-0.064 0.209,-0.177 a 2.616,2.616 0 0 1 1.734,-0.45 c 1.687,0 2.714,0.642 2.714,4.095 0,3.373 -1,4.32 -3.035,4.32 -2.3,0 -2.938,-0.851 -2.938,-3.1 m 2.89,1.927 c 1.268,0 1.767,-0.5 1.767,-3.147 0,-2.441 -0.531,-2.906 -1.719,-2.906 -1.14,0 -1.67,0.529 -1.67,1.478 v 2.954 c 0,1.156 0.418,1.621 1.622,1.621"
         transform="translate(-45.727,-29.447)"
         fill="#2747e2" /><path
         id="Caminho_4395"
         data-name="Caminho 4395"
         d="m 205.292,125.392 a 0.17,0.17 0 0 1 0.193,-0.193 h 0.964 a 0.177,0.177 0 0 1 0.193,0.193 v 1.525 c 0,0.128 -0.064,0.209 -0.193,0.209 h -0.964 c -0.128,0 -0.193,-0.08 -0.193,-0.209 z m 0.032,10.855 v -7.772 a 0.17,0.17 0 0 1 0.193,-0.193 h 0.9 a 0.177,0.177 0 0 1 0.193,0.193 v 7.772 a 0.17,0.17 0 0 1 -0.193,0.193 h -0.932 c -0.1,0 -0.161,-0.064 -0.161,-0.193"
         transform="translate(-48.285,-29.447)"
         fill="#2747e2" /><path
         id="Caminho_4396"
         data-name="Caminho 4396"
         d="m 210.542,136.247 v -10.855 a 0.17,0.17 0 0 1 0.193,-0.193 h 0.9 a 0.17,0.17 0 0 1 0.193,0.193 v 10.855 a 0.17,0.17 0 0 1 -0.193,0.193 h -0.9 a 0.17,0.17 0 0 1 -0.193,-0.193"
         transform="translate(-49.52,-29.447)"
         fill="#2747e2" /><path
         id="Caminho_4397"
         data-name="Caminho 4397"
         d="m 215.708,125.392 a 0.17,0.17 0 0 1 0.193,-0.193 h 0.964 a 0.177,0.177 0 0 1 0.193,0.193 v 1.525 c 0,0.128 -0.064,0.209 -0.193,0.209 H 215.9 c -0.128,0 -0.193,-0.08 -0.193,-0.209 z m 0.032,10.855 v -7.772 a 0.17,0.17 0 0 1 0.193,-0.193 h 0.9 a 0.177,0.177 0 0 1 0.193,0.193 v 7.772 a 0.17,0.17 0 0 1 -0.193,0.193 H 215.9 c -0.1,0 -0.161,-0.064 -0.161,-0.193"
         transform="translate(-50.735,-29.447)"
         fill="#2747e2" /><path
         id="Caminho_4398"
         data-name="Caminho 4398"
         d="m 220.538,132.327 c 0,-3.516 1.027,-4.175 2.714,-4.175 a 2.525,2.525 0 0 1 1.927,0.61 c 0.032,0 0.048,-0.032 0.048,-0.064 v -3.372 c 0,-0.1 0.048,-0.128 0.128,-0.128 h 1.027 c 0.081,0 0.128,0.032 0.128,0.128 v 7.981 c 0,2.408 -0.593,3.26 -2.938,3.26 -2.04,0 -3.035,-0.932 -3.035,-4.239 m 3.083,3.067 c 1.253,0 1.622,-0.481 1.622,-1.8 v -2.681 c 0,-1.06 -0.482,-1.574 -1.67,-1.574 -1.188,0 -1.719,0.482 -1.719,2.987 0,2.57 0.5,3.067 1.767,3.067"
         transform="translate(-51.871,-29.447)"
         fill="#2747e2" /><path
         id="Caminho_4399"
         data-name="Caminho 4399"
         d="m 231.4,134.825 c 0,-1.718 0.8,-2.408 2.553,-2.408 h 1.51 c 0.161,0 0.225,-0.08 0.225,-0.241 0,-1.606 -0.434,-1.975 -1.719,-1.975 a 13.019,13.019 0 0 0 -1.863,0.241 c -0.128,0 -0.176,-0.08 -0.193,-0.209 l -0.08,-0.5 c -0.016,-0.208 0.016,-0.305 0.225,-0.385 a 6.219,6.219 0 0 1 2.023,-0.289 c 2.007,0 2.891,0.642 2.891,3.148 v 4.977 a 0.165,0.165 0 0 1 -0.177,0.161 h -0.61 c -0.128,0 -0.208,-0.047 -0.224,-0.145 l -0.064,-0.723 c 0,-0.1 -0.032,-0.112 -0.064,-0.112 -0.064,0 -0.08,0.033 -0.193,0.193 a 2.39,2.39 0 0 1 -2.007,0.915 c -1.606,0 -2.232,-0.771 -2.232,-2.65 m 2.537,1.575 a 1.648,1.648 0 0 0 1.767,-1.832 v -0.93 c 0,-0.145 -0.064,-0.193 -0.177,-0.193 h -1.285 c -1.172,0 -1.605,0.337 -1.605,1.38 0,1.254 0.418,1.575 1.3,1.575"
         transform="translate(-54.425,-30.355)"
         fill="#2747e2" /><path
         id="Caminho_4400"
         data-name="Caminho 4400"
         d="m 241.748,132.327 c 0,-3.516 1.027,-4.175 2.714,-4.175 a 2.525,2.525 0 0 1 1.927,0.61 c 0.032,0 0.049,-0.032 0.049,-0.064 v -3.372 c 0,-0.1 0.047,-0.128 0.128,-0.128 h 1.027 c 0.08,0 0.128,0.032 0.128,0.128 v 7.981 c 0,2.408 -0.594,3.26 -2.938,3.26 -2.039,0 -3.035,-0.932 -3.035,-4.239 m 3.083,3.067 c 1.253,0 1.621,-0.481 1.621,-1.8 v -2.681 c 0,-1.06 -0.482,-1.574 -1.67,-1.574 -1.188,0 -1.719,0.482 -1.719,2.987 0,2.57 0.5,3.067 1.767,3.067"
         transform="translate(-56.86,-29.447)"
         fill="#2747e2" /><path
         id="Caminho_4401"
         data-name="Caminho 4401"
         d="m 252.625,133.253 c 0,-3.4 1,-4.192 3,-4.192 1.91,0 2.745,0.932 2.745,3.581 v 0.418 c 0,0.5 -0.224,0.707 -0.722,0.707 h -3.645 c -0.064,0 -0.1,0.031 -0.1,0.08 v 0.128 c 0,1.959 0.577,2.361 2.023,2.361 a 9.828,9.828 0 0 0 1.863,-0.29 c 0.112,0 0.177,0.064 0.209,0.193 l 0.1,0.45 a 0.374,0.374 0 0 1 -0.225,0.45 5.559,5.559 0 0 1 -2.055,0.321 c -2.265,0 -3.2,-0.85 -3.2,-4.206 m 1.4,-0.483 h 3.1 c 0.064,0 0.08,-0.031 0.08,-0.1 0,-2.1 -0.53,-2.489 -1.558,-2.489 -1.156,0 -1.734,0.418 -1.734,2.473 0,0.08 0.032,0.112 0.112,0.112"
         transform="translate(-59.418,-30.355)"
         fill="#2747e2" /><path
         id="Caminho_4402"
         data-name="Caminho 4402"
         d="m 262.932,137.331 a 0.269,0.269 0 0 1 -0.24,-0.336 l 0.064,-0.594 a 0.144,0.144 0 0 1 0.16,-0.161 c 0.193,0 0.883,0.128 1.815,0.128 1.252,0 1.637,-0.481 1.637,-1.2 0,-0.69 -0.3,-0.883 -1.2,-1.332 l -1.06,-0.531 a 2.153,2.153 0 0 1 -1.526,-2.248 c 0,-1.494 0.915,-1.992 2.65,-1.992 a 8.339,8.339 0 0 1 1.975,0.177 c 0.161,0.048 0.209,0.145 0.193,0.321 l -0.08,0.53 c -0.016,0.128 -0.048,0.193 -0.193,0.193 -0.224,0 -1.044,-0.112 -1.783,-0.112 -0.883,0 -1.493,0.176 -1.493,0.947 0,0.723 0.418,0.947 1.253,1.349 l 0.915,0.433 c 1.14,0.547 1.622,0.98 1.622,2.153 0,1.557 -0.738,2.424 -2.842,2.424 a 11.091,11.091 0 0 1 -1.863,-0.145"
         transform="translate(-61.759,-30.355)"
         fill="#2747e2" /><path
         id="Caminho_4403"
         data-name="Caminho 4403"
         d="m 271.419,140.669 a 6.425,6.425 0 0 0 0.385,-1.927 v -1.493 a 0.19,0.19 0 0 1 0.193,-0.209 h 0.835 c 0.128,0 0.193,0.08 0.193,0.209 v 1.509 a 3.315,3.315 0 0 1 -0.819,2.024 0.3,0.3 0 0 1 -0.353,0.112 l -0.257,-0.048 c -0.112,-0.033 -0.193,-0.064 -0.177,-0.177"
         transform="translate(-63.838,-32.232)"
         fill="#2747e2" /><path
         id="Caminho_4404"
         data-name="Caminho 4404"
         d="m 280.029,136.239 v -8.318 c 0,-1.862 0.627,-2.89 3.084,-2.89 2.2,0 3.292,0.851 3.292,3.357 0,1.829 -0.642,2.6 -1.719,3.05 -0.128,0.064 -0.144,0.1 -0.08,0.226 l 2.376,4.576 c 0.064,0.1 0,0.161 -0.08,0.161 h -1.076 a 0.3,0.3 0 0 1 -0.288,-0.161 l -2.265,-4.255 c -0.048,-0.1 -0.112,-0.145 -0.273,-0.145 h -1.462 a 0.144,0.144 0 0 0 -0.161,0.161 v 4.239 c 0,0.113 -0.047,0.161 -0.144,0.161 h -1.06 c -0.1,0 -0.145,-0.047 -0.145,-0.161 m 1.51,-5.637 h 1.478 c 1.558,0 2.008,-0.818 2.008,-2.151 0,-1.654 -0.578,-2.184 -1.927,-2.184 -1.269,0 -1.719,0.4 -1.719,1.782 v 2.393 a 0.152,0.152 0 0 0 0.161,0.16"
         transform="translate(-65.863,-29.408)"
         fill="#2747e2" /><path
         id="Caminho_4405"
         data-name="Caminho 4405"
         d="m 291.391,133.253 c 0,-3.4 1,-4.192 3,-4.192 1.911,0 2.746,0.932 2.746,3.581 v 0.418 c 0,0.5 -0.225,0.707 -0.723,0.707 h -3.645 c -0.064,0 -0.1,0.031 -0.1,0.08 v 0.128 c 0,1.959 0.577,2.361 2.023,2.361 a 9.841,9.841 0 0 0 1.863,-0.29 c 0.112,0 0.176,0.064 0.208,0.193 l 0.1,0.45 a 0.374,0.374 0 0 1 -0.225,0.45 5.556,5.556 0 0 1 -2.055,0.321 c -2.264,0 -3.2,-0.85 -3.2,-4.206 m 1.4,-0.483 h 3.1 c 0.064,0 0.08,-0.031 0.08,-0.1 0,-2.1 -0.529,-2.489 -1.557,-2.489 -1.156,0 -1.734,0.418 -1.734,2.473 0,0.08 0.032,0.112 0.112,0.112"
         transform="translate(-68.536,-30.355)"
         fill="#2747e2" /><path
         id="Caminho_4406"
         data-name="Caminho 4406"
         d="m 301.387,133.237 c 0,-3.083 0.707,-4.175 2.826,-4.175 a 6.014,6.014 0 0 1 1.75,0.225 0.321,0.321 0 0 1 0.257,0.4 l -0.08,0.578 c -0.017,0.113 -0.064,0.177 -0.161,0.177 a 9.336,9.336 0 0 0 -1.494,-0.209 c -1.4,0 -1.782,0.674 -1.782,3.019 0,2.345 0.4,3.051 1.878,3.051 0.562,0 1.252,-0.112 1.4,-0.112 0.112,0 0.144,0.048 0.161,0.161 l 0.08,0.546 c 0.017,0.241 -0.032,0.338 -0.257,0.418 a 8.187,8.187 0 0 1 -1.637,0.161 c -2.216,0 -2.938,-1.156 -2.938,-4.239"
         transform="translate(-70.887,-30.356)"
         fill="#2747e2" /><path
         id="Caminho_4407"
         data-name="Caminho 4407"
         d="m 310.626,125.392 a 0.17,0.17 0 0 1 0.193,-0.193 h 0.964 a 0.177,0.177 0 0 1 0.193,0.193 v 1.525 a 0.182,0.182 0 0 1 -0.193,0.209 h -0.964 c -0.128,0 -0.193,-0.08 -0.193,-0.209 z m 0.032,10.855 v -7.772 a 0.17,0.17 0 0 1 0.193,-0.193 h 0.9 a 0.177,0.177 0 0 1 0.193,0.193 v 7.772 a 0.17,0.17 0 0 1 -0.193,0.193 h -0.932 c -0.1,0 -0.161,-0.064 -0.161,-0.193"
         transform="translate(-73.06,-29.447)"
         fill="#2747e2" /><path
         id="Caminho_4408"
         data-name="Caminho 4408"
         d="m 315.456,133.237 c 0,-3.083 0.707,-4.175 2.826,-4.175 a 6.02,6.02 0 0 1 1.751,0.225 0.321,0.321 0 0 1 0.257,0.4 l -0.08,0.578 c -0.016,0.113 -0.064,0.177 -0.161,0.177 a 9.321,9.321 0 0 0 -1.493,-0.209 c -1.4,0 -1.783,0.674 -1.783,3.019 0,2.345 0.4,3.051 1.879,3.051 0.561,0 1.252,-0.112 1.4,-0.112 0.112,0 0.145,0.048 0.161,0.161 l 0.08,0.546 c 0.016,0.241 -0.032,0.338 -0.257,0.418 a 8.194,8.194 0 0 1 -1.637,0.161 c -2.216,0 -2.939,-1.156 -2.939,-4.239"
         transform="translate(-74.196,-30.356)"
         fill="#2747e2" /><path
         id="Caminho_4409"
         data-name="Caminho 4409"
         d="m 324.7,136.247 v -10.855 a 0.17,0.17 0 0 1 0.193,-0.193 h 0.9 a 0.17,0.17 0 0 1 0.193,0.193 v 10.855 a 0.17,0.17 0 0 1 -0.193,0.193 h -0.9 a 0.17,0.17 0 0 1 -0.193,-0.193"
         transform="translate(-76.369,-29.447)"
         fill="#2747e2" /><path
         id="Caminho_4410"
         data-name="Caminho 4410"
         d="m 329.463,134.825 c 0,-1.718 0.8,-2.408 2.553,-2.408 h 1.51 c 0.161,0 0.225,-0.08 0.225,-0.241 0,-1.606 -0.434,-1.975 -1.719,-1.975 a 13.02,13.02 0 0 0 -1.863,0.241 c -0.128,0 -0.176,-0.08 -0.193,-0.209 l -0.08,-0.5 c -0.016,-0.208 0.016,-0.305 0.225,-0.385 a 6.219,6.219 0 0 1 2.023,-0.289 c 2.007,0 2.891,0.642 2.891,3.148 v 4.977 a 0.165,0.165 0 0 1 -0.177,0.161 h -0.61 c -0.129,0 -0.208,-0.047 -0.224,-0.145 l -0.064,-0.723 c 0,-0.1 -0.032,-0.112 -0.064,-0.112 -0.064,0 -0.08,0.033 -0.193,0.193 a 2.39,2.39 0 0 1 -2.007,0.915 c -1.606,0 -2.232,-0.771 -2.232,-2.65 M 332,136.4 a 1.648,1.648 0 0 0 1.767,-1.832 v -0.93 c 0,-0.145 -0.064,-0.193 -0.177,-0.193 h -1.29 c -1.172,0 -1.605,0.337 -1.605,1.38 0,1.254 0.418,1.575 1.3,1.575"
         transform="translate(-77.49,-30.355)"
         fill="#2747e2" /><path
         id="Caminho_4411"
         data-name="Caminho 4411"
         d="m 340.235,137.187 v -5.2 c 0,-1.991 0.514,-2.922 2.939,-2.922 2.425,0 2.922,0.932 2.922,2.922 v 5.2 a 0.152,0.152 0 0 1 -0.161,0.161 h -0.948 a 0.157,0.157 0 0 1 -0.177,-0.161 v -5.154 c 0,-1.51 -0.45,-1.8 -1.637,-1.8 -1.172,0 -1.654,0.288 -1.654,1.8 v 5.154 a 0.152,0.152 0 0 1 -0.161,0.161 H 340.4 a 0.152,0.152 0 0 1 -0.161,-0.161"
         transform="translate(-80.024,-30.356)"
         fill="#2747e2" /><path
         id="Caminho_4412"
         data-name="Caminho 4412"
         d="m 350.967,132.327 c 0,-3.516 1.027,-4.175 2.714,-4.175 a 2.525,2.525 0 0 1 1.927,0.61 c 0.032,0 0.049,-0.032 0.049,-0.064 v -3.372 c 0,-0.1 0.047,-0.128 0.128,-0.128 h 1.027 c 0.08,0 0.128,0.032 0.128,0.128 v 7.981 c 0,2.408 -0.594,3.26 -2.938,3.26 -2.039,0 -3.035,-0.932 -3.035,-4.239 m 3.083,3.067 c 1.253,0 1.621,-0.481 1.621,-1.8 v -2.681 c 0,-1.06 -0.482,-1.574 -1.67,-1.574 -1.188,0 -1.719,0.482 -1.719,2.987 0,2.57 0.5,3.067 1.767,3.067"
         transform="translate(-82.548,-29.447)"
         fill="#2747e2" /><path
         id="Caminho_4413"
         data-name="Caminho 4413"
         d="m 361.844,133.236 c 0,-3.147 0.691,-4.175 3,-4.175 2.309,0 3,1.028 3,4.175 0,3.2 -0.691,4.239 -3,4.239 -2.309,0 -3,-1.044 -3,-4.239 m 3,3.067 c 1.3,0 1.686,-0.61 1.686,-3.067 0,-2.424 -0.385,-3 -1.686,-3 -1.285,0 -1.686,0.562 -1.686,3 0,2.457 0.385,3.067 1.686,3.067"
         transform="translate(-85.106,-30.355)"
         fill="#2747e2" /><path
         id="Caminho_4414"
         data-name="Caminho 4414"
         d="m 377.614,130.747 c 0,-4.3 0.819,-5.717 3.742,-5.717 a 11.412,11.412 0 0 1 2.039,0.145 0.265,0.265 0 0 1 0.241,0.321 l -0.08,0.786 a 0.148,0.148 0 0 1 -0.161,0.145 c -0.161,0 -1.012,-0.145 -1.782,-0.145 -1.927,-0.032 -2.586,0.529 -2.586,4.464 0,3.95 0.578,4.56 2.569,4.56 a 15.948,15.948 0 0 0 1.863,-0.161 c 0.1,0 0.145,0.064 0.161,0.161 l 0.064,0.561 a 0.382,0.382 0 0 1 -0.257,0.434 6.673,6.673 0 0 1 -2.088,0.225 c -2.954,0.032 -3.725,-1.542 -3.725,-5.781"
         transform="translate(-88.816,-29.407)"
         fill="#2747e2" /><path
         id="Caminho_4415"
         data-name="Caminho 4415"
         d="m 388.135,133.236 c 0,-3.147 0.691,-4.175 3,-4.175 2.309,0 3,1.028 3,4.175 0,3.2 -0.691,4.239 -3,4.239 -2.309,0 -3,-1.044 -3,-4.239 m 3,3.067 c 1.3,0 1.686,-0.61 1.686,-3.067 0,-2.424 -0.385,-3 -1.686,-3 -1.284,0 -1.686,0.562 -1.686,3 0,2.457 0.385,3.067 1.686,3.067"
         transform="translate(-91.29,-30.355)"
         fill="#2747e2" /><path
         id="Caminho_4416"
         data-name="Caminho 4416"
         d="m 399.034,137.187 v -5.2 c 0,-1.991 0.514,-2.922 2.938,-2.922 2.424,0 2.922,0.932 2.922,2.922 v 5.2 a 0.151,0.151 0 0 1 -0.161,0.161 h -0.947 a 0.157,0.157 0 0 1 -0.177,-0.161 v -5.154 c 0,-1.51 -0.449,-1.8 -1.637,-1.8 -1.172,0 -1.654,0.288 -1.654,1.8 v 5.154 a 0.152,0.152 0 0 1 -0.161,0.161 h -0.964 a 0.152,0.152 0 0 1 -0.161,-0.161"
         transform="translate(-93.854,-30.356)"
         fill="#2747e2" /><path
         id="Caminho_4417"
         data-name="Caminho 4417"
         d="M 410.185,136.279 V 125.36 a 0.165,0.165 0 0 1 0.177,-0.161 h 0.915 a 0.165,0.165 0 0 1 0.177,0.161 v 3.612 c 0,0.017 0,0.033 0.016,0.033 0.032,0 0.048,0 0.064,-0.033 a 2.229,2.229 0 0 1 2.04,-0.818 c 1.959,0 2.457,0.947 2.457,2.874 v 5.251 c 0,0.112 -0.048,0.161 -0.145,0.161 h -0.98 a 0.144,0.144 0 0 1 -0.161,-0.161 v -5.154 c 0,-1.382 -0.385,-1.8 -1.493,-1.8 -1.237,0 -1.783,0.514 -1.783,1.8 v 5.154 a 0.144,0.144 0 0 1 -0.161,0.161 h -0.964 c -0.112,0 -0.161,-0.048 -0.161,-0.161"
         transform="translate(-96.476,-29.447)"
         fill="#2747e2" /><path
         id="Caminho_4418"
         data-name="Caminho 4418"
         d="m 420.895,133.253 c 0,-3.4 1,-4.192 3,-4.192 1.91,0 2.745,0.932 2.745,3.581 v 0.418 c 0,0.5 -0.224,0.707 -0.722,0.707 h -3.645 c -0.064,0 -0.1,0.031 -0.1,0.08 v 0.128 c 0,1.959 0.577,2.361 2.023,2.361 a 9.829,9.829 0 0 0 1.863,-0.29 c 0.112,0 0.177,0.064 0.209,0.193 l 0.1,0.45 a 0.374,0.374 0 0 1 -0.225,0.45 5.559,5.559 0 0 1 -2.055,0.321 c -2.265,0 -3.2,-0.85 -3.2,-4.206 m 1.4,-0.483 h 3.1 c 0.064,0 0.08,-0.031 0.08,-0.1 0,-2.1 -0.53,-2.489 -1.558,-2.489 -1.156,0 -1.734,0.418 -1.734,2.473 0,0.08 0.032,0.112 0.112,0.112"
         transform="translate(-98.995,-30.355)"
         fill="#2747e2" /><path
         id="Caminho_4419"
         data-name="Caminho 4419"
         d="m 430.891,133.237 c 0,-3.083 0.707,-4.175 2.826,-4.175 a 6.02,6.02 0 0 1 1.751,0.225 0.321,0.321 0 0 1 0.257,0.4 l -0.08,0.578 c -0.016,0.113 -0.064,0.177 -0.161,0.177 a 9.321,9.321 0 0 0 -1.493,-0.209 c -1.4,0 -1.783,0.674 -1.783,3.019 0,2.345 0.4,3.051 1.879,3.051 0.561,0 1.252,-0.112 1.4,-0.112 0.112,0 0.145,0.048 0.161,0.161 l 0.08,0.546 c 0.016,0.241 -0.032,0.338 -0.257,0.418 a 8.194,8.194 0 0 1 -1.637,0.161 c -2.216,0 -2.939,-1.156 -2.939,-4.239"
         transform="translate(-101.346,-30.356)"
         fill="#2747e2" /><path
         id="Caminho_4420"
         data-name="Caminho 4420"
         d="m 440.131,125.392 a 0.17,0.17 0 0 1 0.193,-0.193 h 0.964 a 0.178,0.178 0 0 1 0.193,0.193 v 1.525 c 0,0.128 -0.064,0.209 -0.193,0.209 h -0.964 c -0.128,0 -0.193,-0.08 -0.193,-0.209 z m 0.032,10.855 v -7.772 a 0.17,0.17 0 0 1 0.193,-0.193 h 0.9 a 0.178,0.178 0 0 1 0.193,0.193 v 7.772 a 0.17,0.17 0 0 1 -0.193,0.193 h -0.932 c -0.1,0 -0.161,-0.064 -0.161,-0.193"
         transform="translate(-103.52,-29.447)"
         fill="#2747e2" /><path
         id="Caminho_4421"
         data-name="Caminho 4421"
         d="m 445.381,137.155 v -5.443 c 0,-1.751 0.626,-2.65 2.44,-2.65 a 2.18,2.18 0 0 1 2.232,1.108 c 0.049,0.08 0.1,0.08 0.129,0.016 0.306,-0.756 1.06,-1.124 2.232,-1.124 1.846,0 2.457,0.932 2.457,2.65 v 5.443 a 0.17,0.17 0 0 1 -0.193,0.193 h -0.9 a 0.17,0.17 0 0 1 -0.192,-0.193 v -5.347 c 0,-1.14 -0.369,-1.557 -1.413,-1.557 -0.947,0 -1.413,0.5 -1.413,1.7 v 5.2 c 0,0.128 -0.064,0.193 -0.176,0.193 h -0.916 a 0.17,0.17 0 0 1 -0.192,-0.193 v -5.2 c 0,-1.2 -0.418,-1.7 -1.4,-1.7 -1.027,0 -1.413,0.45 -1.413,1.557 v 5.347 a 0.17,0.17 0 0 1 -0.193,0.193 h -0.9 a 0.17,0.17 0 0 1 -0.193,-0.193"
         transform="translate(-104.754,-30.356)"
         fill="#2747e2" /><path
         id="Caminho_4422"
         data-name="Caminho 4422"
         d="m 460.858,133.253 c 0,-3.4 1,-4.192 3,-4.192 1.91,0 2.745,0.932 2.745,3.581 v 0.418 c 0,0.5 -0.224,0.707 -0.722,0.707 h -3.645 c -0.064,0 -0.1,0.031 -0.1,0.08 v 0.128 c 0,1.959 0.577,2.361 2.023,2.361 a 9.829,9.829 0 0 0 1.863,-0.29 c 0.112,0 0.177,0.064 0.209,0.193 l 0.1,0.45 a 0.374,0.374 0 0 1 -0.225,0.45 5.559,5.559 0 0 1 -2.055,0.321 c -2.265,0 -3.2,-0.85 -3.2,-4.206 m 1.4,-0.483 h 3.1 c 0.064,0 0.08,-0.031 0.08,-0.1 0,-2.1 -0.53,-2.489 -1.558,-2.489 -1.156,0 -1.734,0.418 -1.734,2.473 0,0.08 0.032,0.112 0.112,0.112"
         transform="translate(-108.395,-30.355)"
         fill="#2747e2" /><path
         id="Caminho_4423"
         data-name="Caminho 4423"
         d="m 471.273,137.187 v -5.2 c 0,-1.991 0.514,-2.922 2.938,-2.922 2.424,0 2.922,0.932 2.922,2.922 v 5.2 a 0.151,0.151 0 0 1 -0.161,0.161 h -0.947 a 0.157,0.157 0 0 1 -0.177,-0.161 v -5.154 c 0,-1.51 -0.449,-1.8 -1.637,-1.8 -1.172,0 -1.653,0.288 -1.653,1.8 v 5.154 a 0.152,0.152 0 0 1 -0.161,0.161 h -0.964 a 0.152,0.152 0 0 1 -0.161,-0.161"
         transform="translate(-110.844,-30.356)"
         fill="#2747e2" /><path
         id="Caminho_4424"
         data-name="Caminho 4424"
         d="m 482.424,134.835 v -7.612 a 0.169,0.169 0 0 1 0.177,-0.177 h 0.707 c 0.177,0 0.241,0.1 0.273,0.257 l 0.08,1.221 c 0.016,0.145 0.1,0.193 0.241,0.193 h 1.686 a 0.178,0.178 0 0 1 0.193,0.193 v 0.754 a 0.177,0.177 0 0 1 -0.193,0.193 h -1.751 a 0.119,0.119 0 0 0 -0.128,0.128 v 4.77 c 0,0.754 0.225,1.044 1.123,1.044 a 8.23,8.23 0 0 0 0.948,-0.1 0.157,0.157 0 0 1 0.161,0.177 l 0.08,0.642 c 0.032,0.177 -0.047,0.257 -0.24,0.321 A 3.629,3.629 0 0 1 484.672,137 c -1.8,0 -2.248,-0.675 -2.248,-2.167"
         transform="translate(-113.467,-29.881)"
         fill="#2747e2" /><path
         id="Caminho_4425"
         data-name="Caminho 4425"
         d="m 489.249,133.236 c 0,-3.147 0.691,-4.175 3,-4.175 2.309,0 3,1.028 3,4.175 0,3.2 -0.691,4.239 -3,4.239 -2.309,0 -3,-1.044 -3,-4.239 m 3,3.067 c 1.3,0 1.686,-0.61 1.686,-3.067 0,-2.424 -0.385,-3 -1.686,-3 -1.285,0 -1.686,0.562 -1.686,3 0,2.457 0.385,3.067 1.686,3.067"
         transform="translate(-115.072,-30.355)"
         fill="#2747e2" /><path
         id="Caminho_4426"
         data-name="Caminho 4426"
         d="m 500.127,138.929 v -2.216 a 0.169,0.169 0 0 1 0.176,-0.177 h 0.932 a 0.169,0.169 0 0 1 0.177,0.177 v 2.216 a 0.169,0.169 0 0 1 -0.177,0.176 H 500.3 a 0.168,0.168 0 0 1 -0.176,-0.176"
         transform="translate(-117.631,-32.114)"
         fill="#2747e2" /></g><g
       id="Grupo_10138"
       data-name="Grupo 10138"
       clip-path="url(#clip-path-5)"
       transform="matrix(0.26458333,0,0,0.26458333,74.504453,174.6432)"><path
         id="Caminho_4437"
         data-name="Caminho 4437"
         d="M 131.42,35.519 C 118.457,42.893 96.668,47.732 71.968,47.732 32.222,47.731 0,35.2 0,19.746 0,13.106 5.947,7.009 15.88,2.209 a 15.311,15.311 0 0 0 -0.939,5.28 C 8.516,11.045 4.8,15.244 4.8,19.746 c 0,12.806 30.075,23.189 67.17,23.189 21.3,0 40.29,-3.424 52.592,-8.767 a 18.658,18.658 0 0 0 6.859,1.351"
         transform="translate(0,1.213)"
         fill="#0070b8"
         fill-rule="evenodd" /><path
         id="Caminho_4438"
         data-name="Caminho 4438"
         d="m 27.192,8.375 h 5.68 C 32.339,2.082 28.58,0 22.9,0 16.445,0 12.85,3.065 12.85,8.946 c 0,6.5 3.759,8.252 7.313,8.7 3.35,0.449 7.761,0.449 7.761,4.166 0,3.554 -1.553,4.983 -4.944,4.983 -3.595,0 -4.656,-1.308 -4.778,-3.717 h -5.674 c 0,5.067 2.491,8.866 10.335,8.866 7.557,0 10.7,-3.065 10.7,-10.336 0,-6.291 -3.472,-7.761 -7.11,-8.334 -4.78,-0.734 -7.924,-0.408 -7.924,-4.369 0,-2.983 1.266,-3.963 4.371,-3.963 2.738,0 4.126,0.778 4.289,3.432"
         transform="translate(6.883)"
         fill="#0070b8"
         fill-rule="evenodd" /><path
         id="Caminho_4439"
         data-name="Caminho 4439"
         d="m 44.782,22.086 c 0,3.1 -1.023,4.82 -5.107,4.82 -4.084,0 -4.861,-1.717 -4.861,-4.7 V 9.761 c 0,-2.981 0.775,-4.7 4.861,-4.7 4.371,0 5.107,1.717 5.107,4.78 h 5.637 c 0,-6.986 -3.145,-9.765 -10.744,-9.765 -7.599,0 -10.5,2.738 -10.5,9.4 v 13.019 c 0,6.5 3.026,9.4 10.5,9.4 7.474,0 10.744,-2.9 10.744,-9.8 z"
         transform="translate(16.03,0.043)"
         fill="#0070b8"
         fill-rule="evenodd" /><path
         id="Caminho_4440"
         data-name="Caminho 4440"
         d="M 66.892,0.185 H 61.3 V 13.543 H 51.5 V 0.185 h -5.687 v 31.5 h 5.679 V 18.69 h 9.8 v 12.95 h 5.6 z"
         transform="translate(25.172,0.101)"
         fill="#0070b8"
         fill-rule="evenodd" /><path
         id="Caminho_4441"
         data-name="Caminho 4441"
         d="m 77.88,22 c 0,2.983 -1.594,4.9 -4.941,4.9 -3.347,0 -4.659,-1.92 -4.659,-4.9 V 0.185 h -5.639 v 22.1 c 0,6.494 3.678,9.6 10.3,9.6 6.622,0 10.58,-3.105 10.58,-9.6 V 0.185 H 77.88 Z"
         transform="translate(34.417,0.101)"
         fill="#0070b8"
         fill-rule="evenodd" /><path
         id="Caminho_4442"
         data-name="Caminho 4442"
         d="m 93.3,8.375 h 5.68 C 98.442,2.082 94.684,0 89.007,0 c -6.458,0 -10.05,3.065 -10.05,8.946 0,6.5 3.757,8.252 7.315,8.7 3.348,0.449 7.758,0.449 7.758,4.166 0,3.554 -1.551,4.983 -4.94,4.983 -3.6,0 -4.661,-1.308 -4.782,-3.717 h -5.676 c 0,5.067 2.49,8.866 10.333,8.866 7.558,0 10.7,-3.065 10.7,-10.336 0,-6.291 -3.471,-7.761 -7.106,-8.334 -4.778,-0.734 -7.927,-0.408 -7.927,-4.369 0,-2.983 1.269,-3.963 4.373,-3.963 2.733,0 4.125,0.778 4.289,3.432"
         transform="translate(43.203)"
         fill="#0070b8"
         fill-rule="evenodd" /><path
         id="Caminho_4443"
         data-name="Caminho 4443"
         d="M 111.947,0.185 H 93.318 v 5.023 h 6.536 V 31.64 h 5.6 V 5.208 h 6.5 z"
         transform="translate(51.272,0.101)"
         fill="#0070b8"
         fill-rule="evenodd" /><path
         id="Caminho_4444"
         data-name="Caminho 4444"
         d="M 108.076,0.185 V 31.64 h 18.669 v -5.149 h -13.031 v -8.252 h 10.62 v -5.065 h -10.62 V 5.087 h 12.457 V 0.185 Z"
         transform="translate(59.381,0.101)"
         fill="#0070b8"
         fill-rule="evenodd" /><path
         id="Caminho_4445"
         data-name="Caminho 4445"
         d="m 143.672,31.64 -6.9,-11.969 c 3.8,-1.227 5.434,-3.759 5.434,-8.417 V 9.62 c 0,-6.658 -3.558,-9.435 -11.154,-9.435 H 123.13 V 31.64 h 5.634 V 20.568 h 2.084 L 137.1,31.64 Z M 128.723,15.38 V 5.373 h 2.411 c 4.369,0 5.146,1.553 5.146,4.535 v 1.061 c 0,2.981 -1.142,4.411 -5.229,4.411 z"
         transform="translate(67.651,0.101)"
         fill="#0070b8"
         fill-rule="evenodd" /></g></g></svg>
