<svg id="Grupo_10135" data-name="Grupo 10135" xmlns="http://www.w3.org/2000/svg" xmlns:xlink="http://www.w3.org/1999/xlink" width="393.923" height="109.979" viewBox="0 0 393.923 109.979">
  <defs>
    <clipPath id="clip-path">
      <rect id="Retângulo_3202" data-name="Retângulo 3202" width="393.923" height="109.979" fill="none"/>
    </clipPath>
  </defs>
  <g id="Grupo_10134" data-name="Grupo 10134" clip-path="url(#clip-path)">
    <path id="Caminho_4368" data-name="Caminho 4368" d="M122.757,51.8c0,6.568-2.644,12.453-9.383,12.453-6.654,0-9.383-5.885-9.383-12.453V27.75H91.879V54.192c0,13.051,9.553,20.813,21.5,20.813,12.026,0,21.58-7.934,21.58-20.9V27.75h-12.2Z" transform="translate(-21.61 -6.527)" fill="#f0f9ff"/>
    <path id="Caminho_4369" data-name="Caminho 4369" d="M191.944,33.464h-.255c-3.156-4.777-8.189-7.165-14.331-7.165-12.2,0-21.921,9.468-21.921,24.14,0,14.585,10.064,24.224,21.921,24.224,6.569,0,11-2.559,14.5-8.018h.256v6.909h12.026V27.409h-12.2ZM179.747,64c-6.995,0-12.2-5.715-12.2-13.562,0-7.933,5.2-13.477,12.2-13.477s12.2,5.544,12.2,13.477c0,7.848-5.2,13.562-12.2,13.562" transform="translate(-36.559 -6.186)" fill="#f0f9ff"/>
    <rect id="Retângulo_3199" data-name="Retângulo 3199" width="12.112" height="61.415" transform="translate(175.453 5.954)" fill="#f0f9ff"/>
    <rect id="Retângulo_3200" data-name="Retângulo 3200" width="12.112" height="46.146" transform="translate(195.688 21.223)" fill="#f0f9ff"/>
    <path id="Caminho_4370" data-name="Caminho 4370" d="M261.714,6.336a6.824,6.824,0,1,0,6.74,6.823,6.825,6.825,0,0,0-6.74-6.823" transform="translate(-59.971 -1.49)" fill="#f0f9ff"/>
    <path id="Caminho_4371" data-name="Caminho 4371" d="M288.095,21.689v1.025h-5.971v9.553h5.971V68.859h12.2V32.266h11.258V22.713H300.294V21.86c0-4.777,2.132-6.569,6.141-6.569a18.987,18.987,0,0,1,5.117.683V7.1a31.8,31.8,0,0,0-7.763-.767c-10.235,0-15.694,6.056-15.694,15.353" transform="translate(-66.356 -1.49)" fill="#f0f9ff"/>
    <path id="Caminho_4372" data-name="Caminho 4372" d="M335.281,6.336a6.824,6.824,0,1,0,6.739,6.823,6.825,6.825,0,0,0-6.739-6.823" transform="translate(-77.274 -1.49)" fill="#f0f9ff"/>
    <rect id="Retângulo_3201" data-name="Retângulo 3201" width="12.112" height="46.146" transform="translate(251.951 21.223)" fill="#f0f9ff"/>
    <path id="Caminho_4373" data-name="Caminho 4373" d="M364.349,50.268c0-7.848,4.861-13.307,13.051-13.307a16.685,16.685,0,0,1,9.468,2.56V28.346a21.91,21.91,0,0,0-9.555-2.047c-15.181,0-25.076,10.235-25.076,24.054,0,14.16,10.235,24.311,25.247,24.311a24.17,24.17,0,0,0,9.553-1.877V61.953A22.19,22.19,0,0,1,378,64c-8.188,0-13.647-5.546-13.647-13.733" transform="translate(-82.847 -6.186)" fill="#f0f9ff"/>
    <path id="Caminho_4374" data-name="Caminho 4374" d="M483.577,45.558V27.743h-8.843V46.4H456.919v8.843h17.815V73.914h8.843V55.242h17.814V46.4H483.577Z" transform="translate(-107.468 -6.525)" fill="#2f355b"/>
    <path id="Caminho_4375" data-name="Caminho 4375" d="M429,64c-6.994,0-12.2-5.715-12.2-13.562,0-7.933,5.2-13.477,12.2-13.477a11.608,11.608,0,0,1,10.042,5.516h14.354V27.409h-12.2v6.056h-.256c-3.156-4.777-8.189-7.165-14.331-7.165-12.2,0-21.921,9.468-21.921,24.14,0,14.585,10.064,24.224,21.921,24.224,6.569,0,11-2.559,14.5-8.018h.256v6.909h12.027V58.37H439.051A11.629,11.629,0,0,1,429,64" transform="translate(-95.183 -6.186)" fill="#f0f9ff"/>
    <path id="Caminho_4376" data-name="Caminho 4376" d="M63.09,42.577a32.356,32.356,0,1,0-16.5,18.878c.807-.4,1.59-.831,2.357-1.289l6.348,7.224,13.3-.011L56.385,54.056a32.346,32.346,0,0,0,6.7-11.479M21.352,50.926,10.334,31.842,21.352,12.758H43.389L54.407,31.842l-7.1,12.3a24.985,24.985,0,0,1-4.64-12.316h0c0-.071.005-.141,0-.209a8.043,8.043,0,0,0-3.68-7.334c-1.966-1.358-7.76-2.173-9.735-2.268h0c-1.271-.167-1.52.278-1.834.84L27.4,22.9a.844.844,0,0,0,.011,1.063.876.876,0,0,0,.182.15c.21.129,4.848,2.928,5.679,3.395a1.692,1.692,0,0,1,.979,1.64c.055.474.1,2.222-1.574,4.828h0c-1.486,2.356-2.912,3.12-3.629,3.367a1.752,1.752,0,0,1-1.928-.151c-.8-.536-5.378-3.416-5.586-3.543s-.7-.324-1.2.358l-.028.039c-.38.522-.679.936.028,1.988h0a36.941,36.941,0,0,0,4.194,5.776,9.254,9.254,0,0,0,2.124,1.842,9.336,9.336,0,0,0,3.585,1.1v0c3.49.55,7.682,3.522,10.6,6.175Z" fill="#f0f9ff"/>
    <path id="Caminho_4377" data-name="Caminho 4377" d="M2.878,136.212V128.7a1.583,1.583,0,0,1,.5-1.221l1.959-2.119a.893.893,0,0,1,.659-.305.864.864,0,0,1,.674.321l1.927,2.087a1.655,1.655,0,0,1,.514,1.237v7.515c0,.128-.081.193-.21.193H7.936a.17.17,0,0,1-.193-.193v-2.874c0-.08-.048-.112-.128-.112H4.356c-.08,0-.128.032-.128.112v2.874a.17.17,0,0,1-.193.193H3.071a.17.17,0,0,1-.193-.193m1.478-4.239h3.26a.114.114,0,0,0,.128-.112V128.68a.532.532,0,0,0-.161-.4l-1.478-1.654a.207.207,0,0,0-.112-.064c-.032,0-.064.016-.113.064l-1.493,1.654a.532.532,0,0,0-.161.4v3.181a.114.114,0,0,0,.128.112" transform="translate(-0.677 -29.412)" fill="#f0f9ff"/>
    <path id="Caminho_4378" data-name="Caminho 4378" d="M14.868,140.141v-8.189c0-1.847.867-2.891,2.954-2.891,2.152-.016,2.971.964,2.971,4.095,0,3.227-.964,4.32-2.89,4.32a3.368,3.368,0,0,1-1.686-.433c-.048,0-.064.031-.064.08v3.019a.177.177,0,0,1-.193.193h-.9a.177.177,0,0,1-.193-.193m2.746-3.839c1.285,0,1.863-.45,1.863-3.147,0-2.505-.45-2.922-1.67-2.922-1.237,0-1.654.594-1.654,1.927v3.067c0,.787.594,1.075,1.462,1.075" transform="translate(-3.497 -30.355)" fill="#f0f9ff"/>
    <path id="Caminho_4379" data-name="Caminho 4379" d="M25.684,137.187v-6.006c0-1.541.514-2.119,2.007-2.119a5.8,5.8,0,0,1,1.445.161c.273.08.305.177.273.45l-.048.465a.19.19,0,0,1-.209.193c-.1,0-.771-.1-1.172-.1-.722,0-1.011.209-1.011,1.043v5.91a.166.166,0,0,1-.177.161H25.86a.165.165,0,0,1-.176-.161" transform="translate(-6.041 -30.356)" fill="#f0f9ff"/>
    <path id="Caminho_4380" data-name="Caminho 4380" d="M32.613,133.253c0-3.4,1-4.192,3-4.192,1.911,0,2.746.932,2.746,3.581v.418c0,.5-.225.707-.723.707H33.993c-.063,0-.1.031-.1.08v.128c0,1.959.578,2.361,2.023,2.361a9.866,9.866,0,0,0,1.864-.29c.112,0,.175.064.207.193l.1.45a.374.374,0,0,1-.224.45,5.562,5.562,0,0,1-2.055.321c-2.265,0-3.2-.85-3.2-4.206m1.4-.483h3.1c.063,0,.08-.031.08-.1,0-2.1-.53-2.489-1.558-2.489-1.156,0-1.734.418-1.734,2.473,0,.08.032.112.112.112" transform="translate(-7.671 -30.355)" fill="#f0f9ff"/>
    <path id="Caminho_4381" data-name="Caminho 4381" d="M43.029,137.187v-5.2c0-1.991.514-2.922,2.938-2.922s2.922.932,2.922,2.922v5.2a.151.151,0,0,1-.161.161h-.947a.157.157,0,0,1-.177-.161v-5.154c0-1.51-.449-1.8-1.637-1.8-1.172,0-1.653.288-1.653,1.8v5.154a.152.152,0,0,1-.161.161H43.19a.152.152,0,0,1-.161-.161" transform="translate(-10.121 -30.356)" fill="#f0f9ff"/>
    <path id="Caminho_4382" data-name="Caminho 4382" d="M53.76,132.327c0-3.516,1.027-4.175,2.714-4.175a2.525,2.525,0,0,1,1.927.61c.032,0,.049-.032.049-.064v-3.372c0-.1.047-.128.128-.128H59.6c.08,0,.128.032.128.128v7.981c0,2.408-.594,3.26-2.938,3.26-2.039,0-3.035-.932-3.035-4.239m3.083,3.067c1.253,0,1.621-.481,1.621-1.8v-2.681c0-1.06-.482-1.574-1.67-1.574s-1.718.482-1.718,2.987c0,2.57.5,3.067,1.767,3.067" transform="translate(-12.644 -29.447)" fill="#f0f9ff"/>
    <path id="Caminho_4383" data-name="Caminho 4383" d="M64.638,133.253c0-3.4,1-4.192,3-4.192,1.911,0,2.746.932,2.746,3.581v.418c0,.5-.225.707-.723.707H66.018c-.063,0-.1.031-.1.08v.128c0,1.959.577,2.361,2.023,2.361a9.841,9.841,0,0,0,1.863-.29c.112,0,.176.064.208.193l.1.45a.374.374,0,0,1-.225.45,5.556,5.556,0,0,1-2.055.321c-2.264,0-3.2-.85-3.2-4.206m1.4-.483h3.1c.064,0,.08-.031.08-.1,0-2.1-.529-2.489-1.557-2.489-1.156,0-1.734.418-1.734,2.473,0,.08.032.112.112.112" transform="translate(-15.203 -30.355)" fill="#f0f9ff"/>
    <path id="Caminho_4384" data-name="Caminho 4384" d="M75.053,137.187v-5.2c0-1.991.514-2.922,2.939-2.922s2.922.932,2.922,2.922v5.2a.152.152,0,0,1-.161.161h-.948a.157.157,0,0,1-.177-.161v-5.154c0-1.51-.45-1.8-1.637-1.8-1.172,0-1.654.288-1.654,1.8v5.154a.152.152,0,0,1-.161.161h-.964a.152.152,0,0,1-.161-.161" transform="translate(-17.653 -30.356)" fill="#f0f9ff"/>
    <path id="Caminho_4385" data-name="Caminho 4385" d="M85.784,132.327c0-3.516,1.027-4.175,2.714-4.175a2.525,2.525,0,0,1,1.927.61c.032,0,.049-.032.049-.064v-3.372c0-.1.047-.128.128-.128h1.027c.08,0,.128.032.128.128v7.981c0,2.408-.594,3.26-2.938,3.26-2.039,0-3.035-.932-3.035-4.239m3.083,3.067c1.253,0,1.621-.481,1.621-1.8v-2.681c0-1.06-.482-1.574-1.67-1.574s-1.719.482-1.719,2.987c0,2.57.5,3.067,1.767,3.067" transform="translate(-20.177 -29.447)" fill="#f0f9ff"/>
    <path id="Caminho_4386" data-name="Caminho 4386" d="M96.662,133.236c0-3.147.691-4.175,3-4.175s3,1.028,3,4.175c0,3.2-.691,4.239-3,4.239s-3-1.044-3-4.239m3,3.067c1.3,0,1.686-.61,1.686-3.067,0-2.424-.385-3-1.686-3-1.285,0-1.686.562-1.686,3,0,2.457.385,3.067,1.686,3.067" transform="translate(-22.735 -30.355)" fill="#f0f9ff"/>
    <path id="Caminho_4387" data-name="Caminho 4387" d="M112.853,136.294V125.665a.411.411,0,0,1,.449-.467h.466a.323.323,0,0,1,.32.177l4.032,7.741c.032.08.111.064.111-.033v-7.739a.144.144,0,0,1,.146-.145h1.075a.156.156,0,0,1,.145.145v10.629a.416.416,0,0,1-.466.466h-.418a.256.256,0,0,1-.257-.145l-4.143-7.9c-.032-.08-.112-.064-.112.033v7.867a.144.144,0,0,1-.146.145H113a.134.134,0,0,1-.144-.145" transform="translate(-26.543 -29.447)" fill="#f0f9ff"/>
    <path id="Caminho_4388" data-name="Caminho 4388" d="M125.094,133.236c0-3.147.691-4.175,3-4.175s3,1.028,3,4.175c0,3.2-.691,4.239-3,4.239s-3-1.044-3-4.239m3,3.067c1.3,0,1.686-.61,1.686-3.067,0-2.424-.385-3-1.686-3-1.285,0-1.686.562-1.686,3,0,2.457.386,3.067,1.686,3.067" transform="translate(-29.422 -30.355)" fill="#f0f9ff"/>
    <path id="Caminho_4389" data-name="Caminho 4389" d="M138.05,137.113l-1.542-1.766a1.662,1.662,0,0,1-.514-1.317V129.39c0-.112.048-.161.161-.161h.964a.144.144,0,0,1,.161.161v4.625a.785.785,0,0,0,.225.61l1.14,1.445c.064.08.113.112.161.112a.251.251,0,0,0,.177-.112l1.14-1.445a.835.835,0,0,0,.209-.61V129.39a.144.144,0,0,1,.161-.161h.964c.112,0,.161.048.161.161v4.641a1.709,1.709,0,0,1-.53,1.317l-1.525,1.766a1.012,1.012,0,0,1-.756.4.961.961,0,0,1-.754-.4" transform="translate(-31.986 -30.395)" fill="#f0f9ff"/>
    <path id="Caminho_4390" data-name="Caminho 4390" d="M146.389,134.825c0-1.718.8-2.408,2.553-2.408h1.51c.161,0,.225-.08.225-.241,0-1.606-.434-1.975-1.719-1.975a13.018,13.018,0,0,0-1.863.241c-.128,0-.176-.08-.193-.209l-.08-.5c-.016-.208.016-.305.225-.385a6.219,6.219,0,0,1,2.023-.289c2.007,0,2.891.642,2.891,3.148v4.977a.165.165,0,0,1-.177.161h-.61c-.128,0-.208-.047-.224-.145l-.064-.723c0-.1-.032-.112-.064-.112-.064,0-.08.033-.193.193a2.39,2.39,0,0,1-2.007.915c-1.606,0-2.232-.771-2.232-2.65m2.537,1.575a1.648,1.648,0,0,0,1.767-1.832v-.93c0-.145-.064-.193-.177-.193h-1.285c-1.172,0-1.605.337-1.605,1.38,0,1.254.418,1.575,1.3,1.575" transform="translate(-34.431 -30.355)" fill="#f0f9ff"/>
    <path id="Caminho_4391" data-name="Caminho 4391" d="M157.052,137.331a.269.269,0,0,1-.24-.336l.064-.594a.144.144,0,0,1,.16-.161c.193,0,.883.128,1.815.128,1.252,0,1.637-.481,1.637-1.2,0-.69-.3-.883-1.2-1.332l-1.06-.531a2.153,2.153,0,0,1-1.526-2.248c0-1.494.915-1.992,2.65-1.992a8.339,8.339,0,0,1,1.975.177c.161.048.209.145.193.321l-.08.53c-.016.128-.048.193-.193.193-.224,0-1.044-.112-1.783-.112-.883,0-1.493.176-1.493.947,0,.723.418.947,1.253,1.349l.915.433c1.14.547,1.622.98,1.622,2.153,0,1.557-.738,2.424-2.842,2.424a11.09,11.09,0,0,1-1.863-.145" transform="translate(-36.856 -30.355)" fill="#f0f9ff"/>
    <path id="Caminho_4392" data-name="Caminho 4392" d="M171.42,136.294V125.375c0-.1.048-.177.145-.177h1.06a.177.177,0,0,1,.145.177v4.689c0,.08.048.112.128.112h3.774c.08,0,.128-.032.128-.112v-4.689c0-.1.048-.177.145-.177h1.044a.178.178,0,0,1,.176.177v10.919a.147.147,0,0,1-.161.145h-1.059a.127.127,0,0,1-.145-.145v-4.672c0-.081-.048-.112-.128-.112H172.9c-.08,0-.128.031-.128.112v4.672a.143.143,0,0,1-.145.145h-1.06a.127.127,0,0,1-.145-.145" transform="translate(-40.318 -29.447)" fill="#f0f9ff"/>
    <path id="Caminho_4393" data-name="Caminho 4393" d="M183.642,134.825c0-1.718.8-2.408,2.553-2.408h1.51c.161,0,.225-.08.225-.241,0-1.606-.434-1.975-1.718-1.975a13.018,13.018,0,0,0-1.863.241c-.128,0-.176-.08-.193-.209l-.08-.5c-.016-.208.016-.305.225-.385a6.219,6.219,0,0,1,2.023-.289c2.007,0,2.891.642,2.891,3.148v4.977a.165.165,0,0,1-.177.161h-.61c-.128,0-.208-.047-.224-.145l-.064-.723c0-.1-.032-.112-.064-.112-.064,0-.08.033-.193.193a2.389,2.389,0,0,1-2.007.915c-1.606,0-2.232-.771-2.232-2.65m2.537,1.575a1.648,1.648,0,0,0,1.767-1.832v-.93c0-.145-.064-.193-.177-.193h-1.285c-1.172,0-1.605.337-1.605,1.38,0,1.254.418,1.575,1.3,1.575" transform="translate(-43.193 -30.355)" fill="#f0f9ff"/>
    <path id="Caminho_4394" data-name="Caminho 4394" d="M194.415,133.467v-8.141c0-.1.047-.128.128-.128h1.027c.08,0,.128.032.128.128v3.4c0,.048.016.048.032.048.032,0,.064-.064.209-.177a2.616,2.616,0,0,1,1.734-.45c1.687,0,2.714.642,2.714,4.095,0,3.373-1,4.32-3.035,4.32-2.3,0-2.938-.851-2.938-3.1m2.89,1.927c1.268,0,1.767-.5,1.767-3.147,0-2.441-.531-2.906-1.719-2.906-1.14,0-1.67.529-1.67,1.478v2.954c0,1.156.418,1.621,1.622,1.621" transform="translate(-45.727 -29.447)" fill="#f0f9ff"/>
    <path id="Caminho_4395" data-name="Caminho 4395" d="M205.292,125.392a.17.17,0,0,1,.193-.193h.964a.177.177,0,0,1,.193.193v1.525c0,.128-.064.209-.193.209h-.964c-.128,0-.193-.08-.193-.209Zm.032,10.855v-7.772a.17.17,0,0,1,.193-.193h.9a.177.177,0,0,1,.193.193v7.772a.17.17,0,0,1-.193.193h-.932c-.1,0-.161-.064-.161-.193" transform="translate(-48.285 -29.447)" fill="#f0f9ff"/>
    <path id="Caminho_4396" data-name="Caminho 4396" d="M210.542,136.247V125.392a.17.17,0,0,1,.193-.193h.9a.17.17,0,0,1,.193.193v10.855a.17.17,0,0,1-.193.193h-.9a.17.17,0,0,1-.193-.193" transform="translate(-49.52 -29.447)" fill="#f0f9ff"/>
    <path id="Caminho_4397" data-name="Caminho 4397" d="M215.708,125.392a.17.17,0,0,1,.193-.193h.964a.177.177,0,0,1,.193.193v1.525c0,.128-.064.209-.193.209H215.9c-.128,0-.193-.08-.193-.209Zm.032,10.855v-7.772a.17.17,0,0,1,.193-.193h.9a.177.177,0,0,1,.193.193v7.772a.17.17,0,0,1-.193.193H215.9c-.1,0-.161-.064-.161-.193" transform="translate(-50.735 -29.447)" fill="#f0f9ff"/>
    <path id="Caminho_4398" data-name="Caminho 4398" d="M220.538,132.327c0-3.516,1.027-4.175,2.714-4.175a2.525,2.525,0,0,1,1.927.61c.032,0,.048-.032.048-.064v-3.372c0-.1.048-.128.128-.128h1.027c.081,0,.128.032.128.128v7.981c0,2.408-.593,3.26-2.938,3.26-2.04,0-3.035-.932-3.035-4.239m3.083,3.067c1.253,0,1.622-.481,1.622-1.8v-2.681c0-1.06-.482-1.574-1.67-1.574s-1.719.482-1.719,2.987c0,2.57.5,3.067,1.767,3.067" transform="translate(-51.871 -29.447)" fill="#f0f9ff"/>
    <path id="Caminho_4399" data-name="Caminho 4399" d="M231.4,134.825c0-1.718.8-2.408,2.553-2.408h1.51c.161,0,.225-.08.225-.241,0-1.606-.434-1.975-1.719-1.975a13.019,13.019,0,0,0-1.863.241c-.128,0-.176-.08-.193-.209l-.08-.5c-.016-.208.016-.305.225-.385a6.219,6.219,0,0,1,2.023-.289c2.007,0,2.891.642,2.891,3.148v4.977a.165.165,0,0,1-.177.161h-.61c-.128,0-.208-.047-.224-.145l-.064-.723c0-.1-.032-.112-.064-.112-.064,0-.08.033-.193.193a2.39,2.39,0,0,1-2.007.915c-1.606,0-2.232-.771-2.232-2.65m2.537,1.575a1.648,1.648,0,0,0,1.767-1.832v-.93c0-.145-.064-.193-.177-.193h-1.285c-1.172,0-1.605.337-1.605,1.38,0,1.254.418,1.575,1.3,1.575" transform="translate(-54.425 -30.355)" fill="#f0f9ff"/>
    <path id="Caminho_4400" data-name="Caminho 4400" d="M241.748,132.327c0-3.516,1.027-4.175,2.714-4.175a2.525,2.525,0,0,1,1.927.61c.032,0,.049-.032.049-.064v-3.372c0-.1.047-.128.128-.128h1.027c.08,0,.128.032.128.128v7.981c0,2.408-.594,3.26-2.938,3.26-2.039,0-3.035-.932-3.035-4.239m3.083,3.067c1.253,0,1.621-.481,1.621-1.8v-2.681c0-1.06-.482-1.574-1.67-1.574s-1.719.482-1.719,2.987c0,2.57.5,3.067,1.767,3.067" transform="translate(-56.86 -29.447)" fill="#f0f9ff"/>
    <path id="Caminho_4401" data-name="Caminho 4401" d="M252.625,133.253c0-3.4,1-4.192,3-4.192,1.91,0,2.745.932,2.745,3.581v.418c0,.5-.224.707-.722.707h-3.645c-.064,0-.1.031-.1.08v.128c0,1.959.577,2.361,2.023,2.361a9.828,9.828,0,0,0,1.863-.29c.112,0,.177.064.209.193l.1.45a.374.374,0,0,1-.225.45,5.559,5.559,0,0,1-2.055.321c-2.265,0-3.2-.85-3.2-4.206m1.4-.483h3.1c.064,0,.08-.031.08-.1,0-2.1-.53-2.489-1.558-2.489-1.156,0-1.734.418-1.734,2.473,0,.08.032.112.112.112" transform="translate(-59.418 -30.355)" fill="#f0f9ff"/>
    <path id="Caminho_4402" data-name="Caminho 4402" d="M262.932,137.331a.269.269,0,0,1-.24-.336l.064-.594a.144.144,0,0,1,.16-.161c.193,0,.883.128,1.815.128,1.252,0,1.637-.481,1.637-1.2,0-.69-.3-.883-1.2-1.332l-1.06-.531a2.153,2.153,0,0,1-1.526-2.248c0-1.494.915-1.992,2.65-1.992a8.339,8.339,0,0,1,1.975.177c.161.048.209.145.193.321l-.08.53c-.016.128-.048.193-.193.193-.224,0-1.044-.112-1.783-.112-.883,0-1.493.176-1.493.947,0,.723.418.947,1.253,1.349l.915.433c1.14.547,1.622.98,1.622,2.153,0,1.557-.738,2.424-2.842,2.424a11.091,11.091,0,0,1-1.863-.145" transform="translate(-61.759 -30.355)" fill="#f0f9ff"/>
    <path id="Caminho_4403" data-name="Caminho 4403" d="M271.419,140.669a6.425,6.425,0,0,0,.385-1.927v-1.493a.19.19,0,0,1,.193-.209h.835c.128,0,.193.08.193.209v1.509a3.315,3.315,0,0,1-.819,2.024.3.3,0,0,1-.353.112l-.257-.048c-.112-.033-.193-.064-.177-.177" transform="translate(-63.838 -32.232)" fill="#f0f9ff"/>
    <path id="Caminho_4404" data-name="Caminho 4404" d="M280.029,136.239v-8.318c0-1.862.627-2.89,3.084-2.89,2.2,0,3.292.851,3.292,3.357,0,1.829-.642,2.6-1.719,3.05-.128.064-.144.1-.08.226l2.376,4.576c.064.1,0,.161-.08.161h-1.076a.3.3,0,0,1-.288-.161l-2.265-4.255c-.048-.1-.112-.145-.273-.145h-1.462a.144.144,0,0,0-.161.161v4.239c0,.113-.047.161-.144.161h-1.06c-.1,0-.145-.047-.145-.161m1.51-5.637h1.478c1.558,0,2.008-.818,2.008-2.151,0-1.654-.578-2.184-1.927-2.184-1.269,0-1.719.4-1.719,1.782v2.393a.152.152,0,0,0,.161.16" transform="translate(-65.863 -29.408)" fill="#f0f9ff"/>
    <path id="Caminho_4405" data-name="Caminho 4405" d="M291.391,133.253c0-3.4,1-4.192,3-4.192,1.911,0,2.746.932,2.746,3.581v.418c0,.5-.225.707-.723.707h-3.645c-.064,0-.1.031-.1.08v.128c0,1.959.577,2.361,2.023,2.361a9.841,9.841,0,0,0,1.863-.29c.112,0,.176.064.208.193l.1.45a.374.374,0,0,1-.225.45,5.556,5.556,0,0,1-2.055.321c-2.264,0-3.2-.85-3.2-4.206m1.4-.483h3.1c.064,0,.08-.031.08-.1,0-2.1-.529-2.489-1.557-2.489-1.156,0-1.734.418-1.734,2.473,0,.08.032.112.112.112" transform="translate(-68.536 -30.355)" fill="#f0f9ff"/>
    <path id="Caminho_4406" data-name="Caminho 4406" d="M301.387,133.237c0-3.083.707-4.175,2.826-4.175a6.014,6.014,0,0,1,1.75.225.321.321,0,0,1,.257.4l-.08.578c-.017.113-.064.177-.161.177a9.336,9.336,0,0,0-1.494-.209c-1.4,0-1.782.674-1.782,3.019s.4,3.051,1.878,3.051c.562,0,1.252-.112,1.4-.112.112,0,.144.048.161.161l.08.546c.017.241-.032.338-.257.418a8.187,8.187,0,0,1-1.637.161c-2.216,0-2.938-1.156-2.938-4.239" transform="translate(-70.887 -30.356)" fill="#f0f9ff"/>
    <path id="Caminho_4407" data-name="Caminho 4407" d="M310.626,125.392a.17.17,0,0,1,.193-.193h.964a.177.177,0,0,1,.193.193v1.525a.182.182,0,0,1-.193.209h-.964c-.128,0-.193-.08-.193-.209Zm.032,10.855v-7.772a.17.17,0,0,1,.193-.193h.9a.177.177,0,0,1,.193.193v7.772a.17.17,0,0,1-.193.193h-.932c-.1,0-.161-.064-.161-.193" transform="translate(-73.06 -29.447)" fill="#f0f9ff"/>
    <path id="Caminho_4408" data-name="Caminho 4408" d="M315.456,133.237c0-3.083.707-4.175,2.826-4.175a6.02,6.02,0,0,1,1.751.225.321.321,0,0,1,.257.4l-.08.578c-.016.113-.064.177-.161.177a9.321,9.321,0,0,0-1.493-.209c-1.4,0-1.783.674-1.783,3.019s.4,3.051,1.879,3.051c.561,0,1.252-.112,1.4-.112.112,0,.145.048.161.161l.08.546c.016.241-.032.338-.257.418a8.194,8.194,0,0,1-1.637.161c-2.216,0-2.939-1.156-2.939-4.239" transform="translate(-74.196 -30.356)" fill="#f0f9ff"/>
    <path id="Caminho_4409" data-name="Caminho 4409" d="M324.7,136.247V125.392a.17.17,0,0,1,.193-.193h.9a.17.17,0,0,1,.193.193v10.855a.17.17,0,0,1-.193.193h-.9a.17.17,0,0,1-.193-.193" transform="translate(-76.369 -29.447)" fill="#f0f9ff"/>
    <path id="Caminho_4410" data-name="Caminho 4410" d="M329.463,134.825c0-1.718.8-2.408,2.553-2.408h1.51c.161,0,.225-.08.225-.241,0-1.606-.434-1.975-1.719-1.975a13.02,13.02,0,0,0-1.863.241c-.128,0-.176-.08-.193-.209l-.08-.5c-.016-.208.016-.305.225-.385a6.219,6.219,0,0,1,2.023-.289c2.007,0,2.891.642,2.891,3.148v4.977a.165.165,0,0,1-.177.161h-.61c-.129,0-.208-.047-.224-.145l-.064-.723c0-.1-.032-.112-.064-.112-.064,0-.08.033-.193.193a2.39,2.39,0,0,1-2.007.915c-1.606,0-2.232-.771-2.232-2.65M332,136.4a1.648,1.648,0,0,0,1.767-1.832v-.93c0-.145-.064-.193-.177-.193H332.3c-1.172,0-1.605.337-1.605,1.38,0,1.254.418,1.575,1.3,1.575" transform="translate(-77.49 -30.355)" fill="#f0f9ff"/>
    <path id="Caminho_4411" data-name="Caminho 4411" d="M340.235,137.187v-5.2c0-1.991.514-2.922,2.939-2.922s2.922.932,2.922,2.922v5.2a.152.152,0,0,1-.161.161h-.948a.157.157,0,0,1-.177-.161v-5.154c0-1.51-.45-1.8-1.637-1.8-1.172,0-1.654.288-1.654,1.8v5.154a.152.152,0,0,1-.161.161H340.4a.152.152,0,0,1-.161-.161" transform="translate(-80.024 -30.356)" fill="#f0f9ff"/>
    <path id="Caminho_4412" data-name="Caminho 4412" d="M350.967,132.327c0-3.516,1.027-4.175,2.714-4.175a2.525,2.525,0,0,1,1.927.61c.032,0,.049-.032.049-.064v-3.372c0-.1.047-.128.128-.128h1.027c.08,0,.128.032.128.128v7.981c0,2.408-.594,3.26-2.938,3.26-2.039,0-3.035-.932-3.035-4.239m3.083,3.067c1.253,0,1.621-.481,1.621-1.8v-2.681c0-1.06-.482-1.574-1.67-1.574s-1.719.482-1.719,2.987c0,2.57.5,3.067,1.767,3.067" transform="translate(-82.548 -29.447)" fill="#f0f9ff"/>
    <path id="Caminho_4413" data-name="Caminho 4413" d="M361.844,133.236c0-3.147.691-4.175,3-4.175s3,1.028,3,4.175c0,3.2-.691,4.239-3,4.239s-3-1.044-3-4.239m3,3.067c1.3,0,1.686-.61,1.686-3.067,0-2.424-.385-3-1.686-3-1.285,0-1.686.562-1.686,3,0,2.457.385,3.067,1.686,3.067" transform="translate(-85.106 -30.355)" fill="#f0f9ff"/>
    <path id="Caminho_4414" data-name="Caminho 4414" d="M377.614,130.747c0-4.3.819-5.717,3.742-5.717a11.412,11.412,0,0,1,2.039.145.265.265,0,0,1,.241.321l-.08.786a.148.148,0,0,1-.161.145c-.161,0-1.012-.145-1.782-.145-1.927-.032-2.586.529-2.586,4.464,0,3.95.578,4.56,2.569,4.56a15.948,15.948,0,0,0,1.863-.161c.1,0,.145.064.161.161l.064.561a.382.382,0,0,1-.257.434,6.673,6.673,0,0,1-2.088.225c-2.954.032-3.725-1.542-3.725-5.781" transform="translate(-88.816 -29.407)" fill="#f0f9ff"/>
    <path id="Caminho_4415" data-name="Caminho 4415" d="M388.135,133.236c0-3.147.691-4.175,3-4.175s3,1.028,3,4.175c0,3.2-.691,4.239-3,4.239s-3-1.044-3-4.239m3,3.067c1.3,0,1.686-.61,1.686-3.067,0-2.424-.385-3-1.686-3-1.284,0-1.686.562-1.686,3,0,2.457.385,3.067,1.686,3.067" transform="translate(-91.29 -30.355)" fill="#f0f9ff"/>
    <path id="Caminho_4416" data-name="Caminho 4416" d="M399.034,137.187v-5.2c0-1.991.514-2.922,2.938-2.922s2.922.932,2.922,2.922v5.2a.151.151,0,0,1-.161.161h-.947a.157.157,0,0,1-.177-.161v-5.154c0-1.51-.449-1.8-1.637-1.8-1.172,0-1.654.288-1.654,1.8v5.154a.152.152,0,0,1-.161.161h-.964a.152.152,0,0,1-.161-.161" transform="translate(-93.854 -30.356)" fill="#f0f9ff"/>
    <path id="Caminho_4417" data-name="Caminho 4417" d="M410.185,136.279V125.36a.165.165,0,0,1,.177-.161h.915a.165.165,0,0,1,.177.161v3.612c0,.017,0,.033.016.033.032,0,.048,0,.064-.033a2.229,2.229,0,0,1,2.04-.818c1.959,0,2.457.947,2.457,2.874v5.251c0,.112-.048.161-.145.161h-.98a.144.144,0,0,1-.161-.161v-5.154c0-1.382-.385-1.8-1.493-1.8-1.237,0-1.783.514-1.783,1.8v5.154a.144.144,0,0,1-.161.161h-.964c-.112,0-.161-.048-.161-.161" transform="translate(-96.476 -29.447)" fill="#f0f9ff"/>
    <path id="Caminho_4418" data-name="Caminho 4418" d="M420.895,133.253c0-3.4,1-4.192,3-4.192,1.91,0,2.745.932,2.745,3.581v.418c0,.5-.224.707-.722.707h-3.645c-.064,0-.1.031-.1.08v.128c0,1.959.577,2.361,2.023,2.361a9.829,9.829,0,0,0,1.863-.29c.112,0,.177.064.209.193l.1.45a.374.374,0,0,1-.225.45,5.559,5.559,0,0,1-2.055.321c-2.265,0-3.2-.85-3.2-4.206m1.4-.483h3.1c.064,0,.08-.031.08-.1,0-2.1-.53-2.489-1.558-2.489-1.156,0-1.734.418-1.734,2.473,0,.08.032.112.112.112" transform="translate(-98.995 -30.355)" fill="#f0f9ff"/>
    <path id="Caminho_4419" data-name="Caminho 4419" d="M430.891,133.237c0-3.083.707-4.175,2.826-4.175a6.02,6.02,0,0,1,1.751.225.321.321,0,0,1,.257.4l-.08.578c-.016.113-.064.177-.161.177a9.321,9.321,0,0,0-1.493-.209c-1.4,0-1.783.674-1.783,3.019s.4,3.051,1.879,3.051c.561,0,1.252-.112,1.4-.112.112,0,.145.048.161.161l.08.546c.016.241-.032.338-.257.418a8.194,8.194,0,0,1-1.637.161c-2.216,0-2.939-1.156-2.939-4.239" transform="translate(-101.346 -30.356)" fill="#f0f9ff"/>
    <path id="Caminho_4420" data-name="Caminho 4420" d="M440.131,125.392a.17.17,0,0,1,.193-.193h.964a.178.178,0,0,1,.193.193v1.525c0,.128-.064.209-.193.209h-.964c-.128,0-.193-.08-.193-.209Zm.032,10.855v-7.772a.17.17,0,0,1,.193-.193h.9a.178.178,0,0,1,.193.193v7.772a.17.17,0,0,1-.193.193h-.932c-.1,0-.161-.064-.161-.193" transform="translate(-103.52 -29.447)" fill="#f0f9ff"/>
    <path id="Caminho_4421" data-name="Caminho 4421" d="M445.381,137.155v-5.443c0-1.751.626-2.65,2.44-2.65a2.18,2.18,0,0,1,2.232,1.108c.049.08.1.08.129.016.306-.756,1.06-1.124,2.232-1.124,1.846,0,2.457.932,2.457,2.65v5.443a.17.17,0,0,1-.193.193h-.9a.17.17,0,0,1-.192-.193v-5.347c0-1.14-.369-1.557-1.413-1.557-.947,0-1.413.5-1.413,1.7v5.2c0,.128-.064.193-.176.193h-.916a.17.17,0,0,1-.192-.193v-5.2c0-1.2-.418-1.7-1.4-1.7-1.027,0-1.413.45-1.413,1.557v5.347a.17.17,0,0,1-.193.193h-.9a.17.17,0,0,1-.193-.193" transform="translate(-104.754 -30.356)" fill="#f0f9ff"/>
    <path id="Caminho_4422" data-name="Caminho 4422" d="M460.858,133.253c0-3.4,1-4.192,3-4.192,1.91,0,2.745.932,2.745,3.581v.418c0,.5-.224.707-.722.707h-3.645c-.064,0-.1.031-.1.08v.128c0,1.959.577,2.361,2.023,2.361a9.829,9.829,0,0,0,1.863-.29c.112,0,.177.064.209.193l.1.45a.374.374,0,0,1-.225.45,5.559,5.559,0,0,1-2.055.321c-2.265,0-3.2-.85-3.2-4.206m1.4-.483h3.1c.064,0,.08-.031.08-.1,0-2.1-.53-2.489-1.558-2.489-1.156,0-1.734.418-1.734,2.473,0,.08.032.112.112.112" transform="translate(-108.395 -30.355)" fill="#f0f9ff"/>
    <path id="Caminho_4423" data-name="Caminho 4423" d="M471.273,137.187v-5.2c0-1.991.514-2.922,2.938-2.922s2.922.932,2.922,2.922v5.2a.151.151,0,0,1-.161.161h-.947a.157.157,0,0,1-.177-.161v-5.154c0-1.51-.449-1.8-1.637-1.8-1.172,0-1.653.288-1.653,1.8v5.154a.152.152,0,0,1-.161.161h-.964a.152.152,0,0,1-.161-.161" transform="translate(-110.844 -30.356)" fill="#f0f9ff"/>
    <path id="Caminho_4424" data-name="Caminho 4424" d="M482.424,134.835v-7.612a.169.169,0,0,1,.177-.177h.707c.177,0,.241.1.273.257l.08,1.221c.016.145.1.193.241.193h1.686a.178.178,0,0,1,.193.193v.754a.177.177,0,0,1-.193.193h-1.751a.119.119,0,0,0-.128.128v4.77c0,.754.225,1.044,1.123,1.044a8.23,8.23,0,0,0,.948-.1.157.157,0,0,1,.161.177l.08.642c.032.177-.047.257-.24.321a3.629,3.629,0,0,1-1.109.161c-1.8,0-2.248-.675-2.248-2.167" transform="translate(-113.467 -29.881)" fill="#f0f9ff"/>
    <path id="Caminho_4425" data-name="Caminho 4425" d="M489.249,133.236c0-3.147.691-4.175,3-4.175s3,1.028,3,4.175c0,3.2-.691,4.239-3,4.239s-3-1.044-3-4.239m3,3.067c1.3,0,1.686-.61,1.686-3.067,0-2.424-.385-3-1.686-3-1.285,0-1.686.562-1.686,3,0,2.457.385,3.067,1.686,3.067" transform="translate(-115.072 -30.355)" fill="#f0f9ff"/>
    <path id="Caminho_4426" data-name="Caminho 4426" d="M500.127,138.929v-2.216a.169.169,0,0,1,.176-.177h.932a.169.169,0,0,1,.177.177v2.216a.169.169,0,0,1-.177.176H500.3a.168.168,0,0,1-.176-.176" transform="translate(-117.631 -32.114)" fill="#f0f9ff"/>
  </g>
</svg>
