<svg xmlns="http://www.w3.org/2000/svg" xmlns:xlink="http://www.w3.org/1999/xlink" width="211.323" height="48.945" viewBox="0 0 211.323 48.945">
  <defs>
    <clipPath id="clip-path">
      <rect id="Retângulo_3230" data-name="Retângulo 3230" width="211.323" height="48.945" fill="none"/>
    </clipPath>
  </defs>
  <g id="Grupo_10136" data-name="Grupo 10136" transform="translate(0 0)">
    <g id="Grupo_10138" data-name="Grupo 10138" transform="translate(0 0)" clip-path="url(#clip-path)">
      <path id="Caminho_4437" data-name="Caminho 4437" d="M131.42,35.519c-12.963,7.374-34.752,12.213-59.452,12.213C32.222,47.731,0,35.2,0,19.746,0,13.106,5.947,7.009,15.88,2.209a15.311,15.311,0,0,0-.939,5.28C8.516,11.045,4.8,15.244,4.8,19.746c0,12.806,30.075,23.189,67.17,23.189,21.3,0,40.29-3.424,52.592-8.767a18.658,18.658,0,0,0,6.859,1.351" transform="translate(0 1.213)" fill="#0070b8" fill-rule="evenodd"/>
      <path id="Caminho_4438" data-name="Caminho 4438" d="M27.192,8.375h5.68C32.339,2.082,28.58,0,22.9,0c-6.455,0-10.05,3.065-10.05,8.946,0,6.5,3.759,8.252,7.313,8.7,3.35.449,7.761.449,7.761,4.166,0,3.554-1.553,4.983-4.944,4.983-3.595,0-4.656-1.308-4.778-3.717H12.528c0,5.067,2.491,8.866,10.335,8.866,7.557,0,10.7-3.065,10.7-10.336,0-6.291-3.472-7.761-7.11-8.334-4.78-.734-7.924-.408-7.924-4.369,0-2.983,1.266-3.963,4.371-3.963,2.738,0,4.126.778,4.289,3.432" transform="translate(6.883 0)" fill="#0070b8" fill-rule="evenodd"/>
      <path id="Caminho_4439" data-name="Caminho 4439" d="M44.782,22.086c0,3.1-1.023,4.82-5.107,4.82s-4.861-1.717-4.861-4.7V9.761c0-2.981.775-4.7,4.861-4.7,4.371,0,5.107,1.717,5.107,4.78h5.637c0-6.986-3.145-9.765-10.744-9.765s-10.5,2.738-10.5,9.4V22.495c0,6.5,3.026,9.4,10.5,9.4s10.744-2.9,10.744-9.8Z" transform="translate(16.03 0.043)" fill="#0070b8" fill-rule="evenodd"/>
      <path id="Caminho_4440" data-name="Caminho 4440" d="M66.892.185H61.3V13.543h-9.8V.185H45.813v31.5h5.679V18.69h9.8V31.64h5.6Z" transform="translate(25.172 0.101)" fill="#0070b8" fill-rule="evenodd"/>
      <path id="Caminho_4441" data-name="Caminho 4441" d="M77.88,22c0,2.983-1.594,4.9-4.941,4.9s-4.659-1.92-4.659-4.9V.185H62.641v22.1c0,6.494,3.678,9.6,10.3,9.6s10.58-3.105,10.58-9.6V.185H77.88Z" transform="translate(34.417 0.101)" fill="#0070b8" fill-rule="evenodd"/>
      <path id="Caminho_4442" data-name="Caminho 4442" d="M93.3,8.375h5.68C98.442,2.082,94.684,0,89.007,0c-6.458,0-10.05,3.065-10.05,8.946,0,6.5,3.757,8.252,7.315,8.7,3.348.449,7.758.449,7.758,4.166,0,3.554-1.551,4.983-4.94,4.983-3.6,0-4.661-1.308-4.782-3.717H78.632c0,5.067,2.49,8.866,10.333,8.866,7.558,0,10.7-3.065,10.7-10.336,0-6.291-3.471-7.761-7.106-8.334-4.778-.734-7.927-.408-7.927-4.369,0-2.983,1.269-3.963,4.373-3.963,2.733,0,4.125.778,4.289,3.432" transform="translate(43.203 0)" fill="#0070b8" fill-rule="evenodd"/>
      <path id="Caminho_4443" data-name="Caminho 4443" d="M111.947.185H93.318V5.208h6.536V31.64h5.6V5.208h6.5Z" transform="translate(51.272 0.101)" fill="#0070b8" fill-rule="evenodd"/>
      <path id="Caminho_4444" data-name="Caminho 4444" d="M108.076.185V31.64h18.669V26.491H113.714V18.239h10.62V13.174h-10.62V5.087h12.457V.185Z" transform="translate(59.381 0.101)" fill="#0070b8" fill-rule="evenodd"/>
      <path id="Caminho_4445" data-name="Caminho 4445" d="M143.672,31.64l-6.9-11.969c3.8-1.227,5.434-3.759,5.434-8.417V9.62c0-6.658-3.558-9.435-11.154-9.435h-7.922V31.64h5.634V20.568h2.084L137.1,31.64ZM128.723,15.38V5.373h2.411c4.369,0,5.146,1.553,5.146,4.535v1.061c0,2.981-1.142,4.411-5.229,4.411Z" transform="translate(67.651 0.101)" fill="#0070b8" fill-rule="evenodd"/>
    </g>
  </g>
</svg>
