<svg xmlns="http://www.w3.org/2000/svg" xmlns:xlink="http://www.w3.org/1999/xlink" width="158.056" height="27.476" viewBox="0 0 158.056 27.476">
  <defs>
    <clipPath id="clip-path">
      <rect id="Retângulo_3193" data-name="Retângulo 3193" width="158.056" height="27.476" fill="none"/>
    </clipPath>
  </defs>
  <g id="Grupo_10123" data-name="Grupo 10123" transform="translate(0 -0.001)">
    <g id="Grupo_10123-2" data-name="Grupo 10123" transform="translate(0 0.001)" clip-path="url(#clip-path)">
      <path id="Caminho_4343" data-name="Caminho 4343" d="M104.268,37.4c0,2.635-1.061,5-3.765,5-2.67,0-3.765-2.361-3.765-5V27.75h-4.86V38.36c0,5.236,3.833,8.351,8.625,8.351,4.825,0,8.659-3.183,8.659-8.385V27.75h-4.894Z" transform="translate(-63.685 -19.235)" fill="#2747e2"/>
      <path id="Caminho_4344" data-name="Caminho 4344" d="M170.085,29.174h-.1a6.541,6.541,0,0,0-5.75-2.875c-4.894,0-8.8,3.8-8.8,9.686,0,5.852,4.038,9.72,8.8,9.72a6.334,6.334,0,0,0,5.818-3.217h.1V45.26h4.825V26.744h-4.894Zm-4.894,12.252c-2.807,0-4.895-2.293-4.895-5.442,0-3.183,2.088-5.408,4.895-5.408s4.894,2.224,4.894,5.408c0,3.149-2.088,5.442-4.894,5.442" transform="translate(-107.739 -18.229)" fill="#2747e2"/>
      <rect id="Retângulo_3190" data-name="Retângulo 3190" width="4.86" height="24.642" transform="translate(70.398 2.389)" fill="#2747e2"/>
      <rect id="Retângulo_3191" data-name="Retângulo 3191" width="4.86" height="18.515" transform="translate(78.517 8.515)" fill="#2747e2"/>
      <path id="Caminho_4345" data-name="Caminho 4345" d="M257.68,6.336a2.738,2.738,0,1,0,2.7,2.738,2.738,2.738,0,0,0-2.7-2.738" transform="translate(-176.734 -4.392)" fill="#2747e2"/>
      <path id="Caminho_4346" data-name="Caminho 4346" d="M284.52,12.5v.411h-2.4V16.74h2.4V31.422h4.895V16.74h4.517V12.907h-4.517v-.342c0-1.917.855-2.636,2.464-2.636a7.618,7.618,0,0,1,2.053.274V6.644a12.758,12.758,0,0,0-3.115-.308c-4.107,0-6.3,2.43-6.3,6.16" transform="translate(-195.55 -4.392)" fill="#2747e2"/>
      <path id="Caminho_4347" data-name="Caminho 4347" d="M331.246,6.336a2.738,2.738,0,1,0,2.7,2.738,2.738,2.738,0,0,0-2.7-2.738" transform="translate(-227.725 -4.392)" fill="#2747e2"/>
      <rect id="Retângulo_3192" data-name="Retângulo 3192" width="4.86" height="18.515" transform="translate(101.092 8.515)" fill="#2747e2"/>
      <path id="Caminho_4348" data-name="Caminho 4348" d="M357.1,35.917c0-3.149,1.95-5.339,5.236-5.339a6.7,6.7,0,0,1,3.8,1.027V27.121A8.791,8.791,0,0,0,362.3,26.3c-6.091,0-10.061,4.107-10.061,9.651,0,5.682,4.107,9.754,10.13,9.754a9.7,9.7,0,0,0,3.833-.753V40.606a8.9,8.9,0,0,1-3.628.822,5.2,5.2,0,0,1-5.476-5.51" transform="translate(-244.148 -18.23)" fill="#2747e2"/>
      <path id="Caminho_4349" data-name="Caminho 4349" d="M467.615,34.891V27.743h-3.548v7.486h-7.148v3.548h7.148v7.492h3.548V38.777h7.148V35.229h-7.148Z" transform="translate(-316.707 -19.23)" fill="#2f355b"/>
      <path id="Caminho_4350" data-name="Caminho 4350" d="M414.44,41.426c-2.806,0-4.894-2.293-4.894-5.442,0-3.183,2.088-5.408,4.894-5.408a4.658,4.658,0,0,1,4.029,2.213h5.759V26.744h-4.894v2.43h-.1a6.541,6.541,0,0,0-5.75-2.875c-4.894,0-8.8,3.8-8.8,9.686,0,5.852,4.038,9.72,8.8,9.72a6.333,6.333,0,0,0,5.818-3.217h.1V45.26h4.826V39.167h-5.753a4.666,4.666,0,0,1-4.035,2.259" transform="translate(-280.502 -18.229)" fill="#2747e2"/>
      <path id="Caminho_4351" data-name="Caminho 4351" d="M25.314,17.083a12.983,12.983,0,1,0-6.62,7.574c.324-.159.638-.333.946-.517l2.547,2.9,5.335,0-4.9-5.346a12.978,12.978,0,0,0,2.69-4.606M8.567,20.433,4.146,12.776,8.567,5.119h8.842l4.421,7.657-2.85,4.936a10.025,10.025,0,0,1-1.862-4.942h0c0-.029,0-.057,0-.084a3.227,3.227,0,0,0-1.477-2.943,10.943,10.943,0,0,0-3.906-.91h0c-.51-.067-.61.111-.736.337l-.01.017a.338.338,0,0,0,0,.427.351.351,0,0,0,.073.06c.084.052,1.945,1.175,2.279,1.362a.679.679,0,0,1,.393.658,3.092,3.092,0,0,1-.632,1.937h0a3,3,0,0,1-1.456,1.351.7.7,0,0,1-.774-.06c-.32-.215-2.158-1.37-2.241-1.422s-.281-.13-.48.144l-.011.016c-.153.21-.272.376.011.8h0a14.822,14.822,0,0,0,1.683,2.317,3.713,3.713,0,0,0,.852.739,3.746,3.746,0,0,0,1.438.441h0a9.692,9.692,0,0,1,4.251,2.478Z" transform="translate(0 0)" fill="#2747e2"/>
    </g>
  </g>
</svg>
