<svg xmlns="http://www.w3.org/2000/svg" xmlns:xlink="http://www.w3.org/1999/xlink" width="211.323" height="48.945" viewBox="0 0 211.323 48.945">
  <defs>
    <clipPath id="clip-path">
      <rect id="Retângulo_3203" data-name="Retângulo 3203" width="211.323" height="48.945" fill="none"/>
    </clipPath>
  </defs>
  <g id="Grupo_10137" data-name="Grupo 10137" transform="translate(0 0)">
    <g id="Grupo_10136" data-name="Grupo 10136" transform="translate(0 0)" clip-path="url(#clip-path)">
      <path id="Caminho_4427" data-name="Caminho 4427" d="M131.419,35.183C118.458,42.556,96.668,47.4,71.967,47.4,32.221,47.4,0,34.865,0,19.41,0,12.769,5.948,6.672,15.88,1.875a15.244,15.244,0,0,0-.939,5.277C8.516,10.709,4.8,14.909,4.8,19.41,4.8,32.215,34.87,42.6,71.967,42.6c21.3,0,40.29-3.427,52.595-8.768a18.7,18.7,0,0,0,6.857,1.352" transform="translate(0 1.549)" fill="#fff" fill-rule="evenodd"/>
      <path id="Caminho_4428" data-name="Caminho 4428" d="M25.291,8.375h5.677C30.437,2.083,26.679,0,21,0,14.546,0,10.949,3.064,10.949,8.946c0,6.5,3.761,8.251,7.314,8.7,3.35.449,7.762.449,7.762,4.167,0,3.555-1.553,4.983-4.943,4.983-3.593,0-4.656-1.306-4.779-3.717H10.626c0,5.067,2.49,8.865,10.332,8.865,7.561,0,10.7-3.063,10.7-10.336,0-6.291-3.471-7.76-7.108-8.332-4.779-.736-7.926-.409-7.926-4.371,0-2.983,1.268-3.962,4.373-3.962,2.736,0,4.125.775,4.289,3.431" transform="translate(8.785 0)" fill="#fff" fill-rule="evenodd"/>
      <path id="Caminho_4429" data-name="Caminho 4429" d="M40.353,22.073c0,3.105-1.023,4.821-5.106,4.821s-4.863-1.715-4.863-4.7V9.749c0-2.981.776-4.7,4.863-4.7,4.371,0,5.106,1.715,5.106,4.779H45.99c0-6.985-3.146-9.764-10.743-9.764s-10.5,2.738-10.5,9.395V22.483c0,6.5,3.023,9.395,10.5,9.395s10.743-2.9,10.743-9.8Z" transform="translate(20.459 0.055)" fill="#fff" fill-rule="evenodd"/>
      <path id="Caminho_4430" data-name="Caminho 4430" d="M59.938.156h-5.6V13.515h-9.8V.156H38.859v31.5h5.677V18.663h9.8v12.95h5.6Z" transform="translate(32.125 0.128)" fill="#fff" fill-rule="evenodd"/>
      <path id="Caminho_4431" data-name="Caminho 4431" d="M68.371,21.972c0,2.981-1.595,4.9-4.943,4.9s-4.658-1.922-4.658-4.9V.157H53.133v22.1c0,6.5,3.677,9.6,10.3,9.6s10.58-3.1,10.58-9.6V.157H68.371Z" transform="translate(43.925 0.129)" fill="#fff" fill-rule="evenodd"/>
      <path id="Caminho_4432" data-name="Caminho 4432" d="M81.36,8.375h5.677C86.508,2.083,82.75,0,77.071,0,70.617,0,67.022,3.064,67.022,8.946c0,6.5,3.758,8.251,7.312,8.7,3.35.449,7.762.449,7.762,4.167,0,3.555-1.553,4.983-4.943,4.983-3.595,0-4.656-1.306-4.779-3.717H66.7c0,5.067,2.49,8.865,10.334,8.865,7.557,0,10.7-3.063,10.7-10.336,0-6.291-3.473-7.76-7.108-8.332-4.781-.736-7.926-.409-7.926-4.371,0-2.983,1.268-3.962,4.371-3.962,2.738,0,4.127.775,4.289,3.431" transform="translate(55.139 0)" fill="#fff" fill-rule="evenodd"/>
      <path id="Caminho_4433" data-name="Caminho 4433" d="M97.781.156H79.154V5.182h6.534V31.612h5.6V5.182h6.5Z" transform="translate(65.437 0.128)" fill="#fff" fill-rule="evenodd"/>
      <path id="Caminho_4434" data-name="Caminho 4434" d="M91.671.156V31.612H110.34V26.465H97.306V18.213h10.62V13.148H97.306V5.059h12.462V.156Z" transform="translate(75.785 0.128)" fill="#fff" fill-rule="evenodd"/>
      <path id="Caminho_4435" data-name="Caminho 4435" d="M124.984,31.612l-6.9-11.969c3.8-1.226,5.429-3.759,5.429-8.416V9.593c0-6.658-3.551-9.437-11.148-9.437h-7.926V31.612h5.637V20.54h2.084l6.247,11.072Zm-14.95-16.26V5.344h2.409c4.371,0,5.148,1.553,5.148,4.536v1.061c0,2.983-1.144,4.412-5.228,4.412Z" transform="translate(86.339 0.128)" fill="#fff" fill-rule="evenodd"/>
    </g>
  </g>
</svg>
