<svg id="Grupo_10167" data-name="Grupo 10167" xmlns="http://www.w3.org/2000/svg" xmlns:xlink="http://www.w3.org/1999/xlink" width="271.084" height="202.725" viewBox="0 0 271.084 202.725">
  <defs>
    <clipPath id="clip-path">
      <rect id="Retângulo_3231" data-name="Retângulo 3231" width="271.084" height="202.724" fill="#00a283"/>
    </clipPath>
  </defs>
  <g id="Grupo_10154" data-name="Grupo 10154" transform="translate(0 0)" clip-path="url(#clip-path)">
    <path id="Caminho_4439" data-name="Caminho 4439" d="M37.3,30.809a5.02,5.02,0,0,1,4.934,4.967V158.138c0,7.655-2.843,11.807-5.984,11.68-3.154-.268-5.1-2.283-7.49-8.319-2.994-7.382-7.937-9.524-14.057-9.787-5.1-.259-13.177,3.761-14.387,10.583-1.191,6.831.6,14.481,11.991,18.774,15.244,5.635,28.736-3.747,28.736-3.747l33.067-22.258s8.074-4.557,11.524-9.792c4.336-6.3,4.2-14.194,4.2-14.194v-95.3a4.919,4.919,0,0,1,4.92-4.967h4.185c5.71,0,7.8-3.879,8.238-5.494.758-2.547,2.255-4.152,6.591-4.152H127.68c4.209,0,7.655,1.747,7.655,7.65V146.637s.146,3.733,2.373,5.339c3.013,2.142,6.454.81,7.951-.264,1.8-1.205,31.579-20.507,31.579-20.507,4.035-2.683,4.035-7.641,4.035-7.641V27.2a6.21,6.21,0,0,1,6.44-6.035H216a2.854,2.854,0,0,0,.753-.141l.3-.532V6.022l-.3-.551-.588-.118H111.824a9.039,9.039,0,0,0-8.516,5.88c-.758,2.561-2.848,4.43-6.445,4.43H30.4a7.573,7.573,0,1,0,0,15.145Z" transform="translate(0.003 19.851)" fill="#00a283"/>
    <path id="Caminho_4440" data-name="Caminho 4440" d="M89.533,0a7.341,7.341,0,0,1,7.189,7.631,7.3,7.3,0,0,1-7.189,7.5H54.216a7.323,7.323,0,0,1-7.189-7.627A7.3,7.3,0,0,1,54.216,0Z" transform="translate(174.363 0)" fill="#00a283"/>
    <path id="Caminho_4441" data-name="Caminho 4441" d="M47.44,5.354V119.671s.287,3.625,2.4,5.226c2.985,2.288,6.435.814,7.947-.108,1.77-1.224,31.561-20.521,31.561-20.521,4.044-2.679,4.044-7.645,4.044-7.645V5.354Z" transform="translate(175.894 19.851)" fill="#00a283"/>
  </g>
</svg>
