<svg id="Grupo_10166" data-name="Grupo 10166" xmlns="http://www.w3.org/2000/svg" xmlns:xlink="http://www.w3.org/1999/xlink" width="413.012" height="308.861" viewBox="0 0 413.012 308.861">
  <defs>
    <clipPath id="clip-path">
      <rect id="Retângulo_3231" data-name="Retângulo 3231" width="413.012" height="308.861" fill="#fff"/>
    </clipPath>
  </defs>
  <g id="Grupo_10154" data-name="Grupo 10154" transform="translate(0 0)" clip-path="url(#clip-path)">
    <path id="Caminho_4439" data-name="Caminho 4439" d="M56.83,44.136A7.648,7.648,0,0,1,64.347,51.7V238.129c0,11.662-4.332,17.989-9.116,17.795-4.806-.409-7.775-3.479-11.411-12.674C39.257,232,31.726,228.741,22.4,228.339c-7.768-.394-20.076,5.731-21.919,16.124-1.815,10.407.911,22.063,18.268,28.6,23.224,8.585,43.781-5.709,43.781-5.709l50.379-33.911s12.3-6.943,17.558-14.919c6.606-9.6,6.4-21.625,6.4-21.625V51.7a7.494,7.494,0,0,1,7.5-7.567h6.376c8.7,0,11.878-5.91,12.552-8.37,1.155-3.88,3.436-6.326,10.041-6.326h21.195c6.412,0,11.662,2.661,11.662,11.655V220.607s.222,5.688,3.615,8.134c4.59,3.263,9.833,1.234,12.114-.4,2.747-1.836,48.113-31.243,48.113-31.243,6.147-4.088,6.147-11.641,6.147-11.641V38.634c0-5.336,4.569-9.2,9.812-9.2h43.092a4.348,4.348,0,0,0,1.148-.215l.452-.81V6.372l-.452-.839-.9-.179H170.37A13.772,13.772,0,0,0,157.4,14.312c-1.155,3.9-4.339,6.749-9.819,6.749H46.322a11.537,11.537,0,1,0,0,23.074Z" transform="translate(0.005 33.047)" fill="#fff"/>
    <path id="Caminho_4440" data-name="Caminho 4440" d="M111.787,0c6.147,0,10.952,5.114,10.952,11.627a11.117,11.117,0,0,1-10.952,11.433H57.979c-6.161,0-10.952-5.085-10.952-11.619A11.127,11.127,0,0,1,57.979,0Z" transform="translate(290.273 0)" fill="#fff"/>
    <path id="Caminho_4441" data-name="Caminho 4441" d="M47.44,5.354V179.523s.438,5.523,3.658,7.961c4.547,3.486,9.8,1.241,12.107-.165,2.7-1.865,48.084-31.265,48.084-31.265,6.161-4.081,6.161-11.648,6.161-11.648V5.354Z" transform="translate(292.822 33.047)" fill="#fff"/>
  </g>
</svg>
