<svg id="Camada_1-2" xmlns="http://www.w3.org/2000/svg" width="34.381" height="34.321" viewBox="0 0 34.381 34.321">
  <path id="Caminho_4343" data-name="Caminho 4343" d="M102.649,25.251l3.992-3.953a15.518,15.518,0,0,0-4.26-2.846l.008-.017a15.345,15.345,0,0,0-2.419-.815l-1.23,5.5a8.465,8.465,0,0,1,3.911,2.132" transform="translate(-79.586 -14.202)" fill="#005293" fill-rule="evenodd"/>
  <path id="Caminho_4344" data-name="Caminho 4344" d="M27.524,37.71c-.171.178-.336.359-.493.541l-.014-.012a15.251,15.251,0,0,0-1.478,2.081l4.912,3.016a8.466,8.466,0,0,1,1.1-1.5l-4.031-4.13Z" transform="translate(-20.586 -30.395)" fill="#008bca" fill-rule="evenodd"/>
  <path id="Caminho_4345" data-name="Caminho 4345" d="M54.666,126.59l-2.956,4.925a15.486,15.486,0,0,0,4.83,1.707l0,.017a15.154,15.154,0,0,0,2.545.192l-.169-5.73h-.045a8.449,8.449,0,0,1-4.2-1.112" transform="translate(-41.679 -102.034)" fill="#163a67" fill-rule="evenodd"/>
  <path id="Caminho_4346" data-name="Caminho 4346" d="M124.52,96.323l4.5,3.1a13.51,13.51,0,0,0,2.6-6.77l-5.6-.487a8.448,8.448,0,0,1-1.5,4.155" transform="translate(-100.365 -74.291)" fill="#dbdadc" fill-rule="evenodd"/>
  <path id="Caminho_4347" data-name="Caminho 4347" d="M98.712,129.069l2.223,8.44a15.94,15.94,0,0,0,2.338-.859l-3.183-8.05a8.364,8.364,0,0,1-1.379.469" transform="translate(-79.562 -103.654)" fill="#dbdadc" fill-rule="evenodd"/>
  <path id="Caminho_4348" data-name="Caminho 4348" d="M137.337,95.04l3.936.425a14.34,14.34,0,0,1-1.329,4.529l-3.534-1.73a10.253,10.253,0,0,0,.927-3.224" transform="translate(-109.949 -76.604)" fill="#1da9e2" fill-rule="evenodd"/>
  <path id="Caminho_4349" data-name="Caminho 4349" d="M117.03,30.283l2.149-3.323a14.365,14.365,0,0,1,3.639,3.478l-3.152,2.355a10.264,10.264,0,0,0-2.636-2.51" transform="translate(-94.328 -21.73)" fill="#1da9e2" fill-rule="evenodd"/>
  <path id="Caminho_4350" data-name="Caminho 4350" d="M86.7,15.047V15.03a14.288,14.288,0,0,1,4.958.869l-1.311,3.709A10.266,10.266,0,0,0,87.4,19l.142-3.949c-.279-.01-.561-.012-.842,0" transform="translate(-69.882 -12.114)" fill="#0072b2" fill-rule="evenodd"/>
  <path id="Caminho_4351" data-name="Caminho 4351" d="M30.95,118.33l-2.417,3.02a14.14,14.14,0,0,1-3.253-3.8L28.6,115.56a10.35,10.35,0,0,0,2.353,2.77" transform="translate(-20.376 -93.143)" fill="#1da9e2" fill-rule="evenodd"/>
  <path id="Caminho_4352" data-name="Caminho 4352" d="M131.951,78.586l8.654.912a17.581,17.581,0,0,0,.114-1.982,17.359,17.359,0,0,0-.2-2.656l-8.586,1.422a8.631,8.631,0,0,1,.089,1.234,8.435,8.435,0,0,1-.068,1.069" transform="translate(-106.338 -60.338)" fill="#163a67" fill-rule="evenodd"/>
  <path id="Caminho_4353" data-name="Caminho 4353" d="M130.777,69.831l5.666-.954a14.452,14.452,0,0,0-.473-2.047l-5.47,1.75a8.6,8.6,0,0,1,.277,1.251" transform="translate(-105.185 -53.866)" fill="#005293" fill-rule="evenodd"/>
  <path id="Caminho_4354" data-name="Caminho 4354" d="M127.433,56.432l5.639-1.775a14.445,14.445,0,0,0-1.255-2.877L126.7,54.732a8.427,8.427,0,0,1,.731,1.7" transform="translate(-102.122 -41.736)" fill="#007fc4" fill-rule="evenodd"/>
  <path id="Caminho_4355" data-name="Caminho 4355" d="M119.123,30.268l7.016-5.142A17.343,17.343,0,0,0,123.67,22.4l-5.75,6.528a8.6,8.6,0,0,1,1.2,1.342" transform="translate(-95.046 -18.055)" fill="#c5c5c7" fill-rule="evenodd"/>
  <path id="Caminho_4356" data-name="Caminho 4356" d="M37.274,122.21l-5.624,6.638a17.223,17.223,0,0,0,3.009,2.029l4.072-7.689a8.5,8.5,0,0,1-1.457-.978" transform="translate(-25.51 -98.503)" fill="#dbdadc" fill-rule="evenodd"/>
  <path id="Caminho_4357" data-name="Caminho 4357" d="M109.574,13.324l3.8-5.806A17.129,17.129,0,0,0,110.22,5.9l-2.5,6.471a10.408,10.408,0,0,1,1.856.952" transform="translate(-86.824 -4.756)" fill="#008bca" fill-rule="evenodd"/>
  <path id="Caminho_4358" data-name="Caminho 4358" d="M49.946,135.88l-3.276,5.967a17.047,17.047,0,0,0,3.261,1.34l1.971-6.52a10.209,10.209,0,0,1-1.953-.788" transform="translate(-37.617 -109.522)" fill="#0072b2" fill-rule="evenodd"/>
  <path id="Caminho_4359" data-name="Caminho 4359" d="M98.54,22.62l2.083-5.35a15.039,15.039,0,0,0-2.405-.7L97.11,22.205a8.413,8.413,0,0,1,1.43.415" transform="translate(-78.272 -13.356)" fill="#1e2c5d" fill-rule="evenodd"/>
  <path id="Caminho_4360" data-name="Caminho 4360" d="M83.528,132.119l-.438,5.86a14.815,14.815,0,0,0,2.506-.025l-.572-5.854a8.413,8.413,0,0,1-.859.043q-.32,0-.634-.023" transform="translate(-66.972 -106.475)" fill="#008bca" fill-rule="evenodd"/>
  <path id="Caminho_4361" data-name="Caminho 4361" d="M99.53,128.87l1.463,5.7a15.66,15.66,0,0,0,2.431-.877l-2.485-5.319a8.365,8.365,0,0,1-1.408.5" transform="translate(-80.223 -103.468)" fill="#163a67" fill-rule="evenodd"/>
  <path id="Caminho_4362" data-name="Caminho 4362" d="M106.32,125.3l2.555,5.284a14.9,14.9,0,0,0,2.18-1.236l-3.331-4.84a8.443,8.443,0,0,1-1.4.79" transform="translate(-85.696 -100.357)" fill="#163a67" fill-rule="evenodd"/>
  <path id="Caminho_4363" data-name="Caminho 4363" d="M79.649,20.862l.208-5.757a14.177,14.177,0,0,0-2.7.165l.836,5.7a8.615,8.615,0,0,1,1.387-.113c.089,0,.178,0,.266,0" transform="translate(-62.192 -12.168)" fill="#163a67" fill-rule="evenodd"/>
  <path id="Caminho_4364" data-name="Caminho 4364" d="M60.1,11.607,57.82,3.21a16.676,16.676,0,0,0-1.66.557L59.3,11.885c.262-.1.532-.2.805-.277" transform="translate(-45.266 -2.587)" fill="#008bca" fill-rule="evenodd"/>
  <path id="Caminho_4365" data-name="Caminho 4365" d="M65.487,139.95l-1.967,6.522a17.114,17.114,0,0,0,3.587.652l.508-6.8a10.264,10.264,0,0,1-2.128-.374" transform="translate(-51.198 -112.802)" fill="#dbdadc" fill-rule="evenodd"/>
  <path id="Caminho_4366" data-name="Caminho 4366" d="M43.551,16.638,39.832,8.77a17.157,17.157,0,0,0-2.452,1.451l4.954,7.154a8.493,8.493,0,0,1,1.216-.737" transform="translate(-30.129 -7.069)" fill="#dbdadc" fill-rule="evenodd"/>
  <path id="Caminho_4367" data-name="Caminho 4367" d="M40.373,33.341,37.1,28.59a14.2,14.2,0,0,0-2.171,1.891l4.165,4a8.479,8.479,0,0,1,1.278-1.137" transform="translate(-28.154 -23.044)" fill="#1e2c5d" fill-rule="evenodd"/>
  <path id="Caminho_4368" data-name="Caminho 4368" d="M14.28,45.982,7,41.21A17.148,17.148,0,0,0,5.39,44.475l8.143,3.075a8.424,8.424,0,0,1,.747-1.567" transform="translate(-4.344 -33.216)" fill="#b0b0b2" fill-rule="evenodd"/>
  <path id="Caminho_4369" data-name="Caminho 4369" d="M20.112,79.474l-5.907-.834a14.381,14.381,0,0,0,.178,4.935l-.017,0a15.511,15.511,0,0,0,.766,2.434l5.558-2.19a8.472,8.472,0,0,1-.648-3.259,8.383,8.383,0,0,1,.07-1.088" transform="translate(-11.342 -63.385)" fill="#b0b0b2" fill-rule="evenodd"/>
  <path id="Caminho_4370" data-name="Caminho 4370" d="M10.894,104.214l-5.534,2.178A15.582,15.582,0,0,1,4.6,103.95l-2.677.586a17.121,17.121,0,0,0,2.017,5.175l7.525-4.368a8.549,8.549,0,0,1-.57-1.129" transform="translate(-1.548 -83.786)" fill="#163a67" fill-rule="evenodd"/>
  <path id="Caminho_4371" data-name="Caminho 4371" d="M141.168,119.2l1.327.925a17.363,17.363,0,0,1-1.775,2.039l1.961,1.959a17.262,17.262,0,0,0,3.406-4.747l-3.93-1.88a13.036,13.036,0,0,1-.987,1.705" transform="translate(-113.423 -94.707)" fill="#005293" fill-rule="evenodd"/>
  <path id="Caminho_4372" data-name="Caminho 4372" d="M105.544,5.292l1.063-2.8a17.17,17.17,0,0,0-2.817-.822L103.23,4.6a13.378,13.378,0,0,1,2.314.687" transform="translate(-83.205 -1.346)" fill="#005191" fill-rule="evenodd"/>
  <path id="Caminho_4373" data-name="Caminho 4373" d="M93.367,3.208,93.939.322A17.009,17.009,0,0,0,91.144,0L91.02,2.935a13.794,13.794,0,0,1,2.347.274" transform="translate(-73.364)" fill="#183e74" fill-rule="evenodd"/>
  <path id="Caminho_4374" data-name="Caminho 4374" d="M130.96,142.977l1.641,2.266a17.449,17.449,0,0,0,2.217-1.849l-1.981-1.984a14.509,14.509,0,0,1-1.878,1.569" transform="translate(-105.556 -113.979)" fill="#1e2c5d" fill-rule="evenodd"/>
  <path id="Caminho_4375" data-name="Caminho 4375" d="M.378,67.44,3.1,66.864a14.368,14.368,0,0,1-.233-4.879l1.534.206a12.653,12.653,0,0,1,.687-2.768L1.059,57.89A17.143,17.143,0,0,0,0,63.841a17.318,17.318,0,0,0,.378,3.6" transform="translate(0 -46.66)" fill="#005293" fill-rule="evenodd"/>
  <path id="Caminho_4376" data-name="Caminho 4376" d="M37.583,117.12l-4.3,3.843a14.336,14.336,0,0,0,1.662,1.614l3.662-4.454a8.431,8.431,0,0,1-1.02-1" transform="translate(-26.824 -94.401)" fill="#163a67" fill-rule="evenodd"/>
  <path id="Caminho_4377" data-name="Caminho 4377" d="M152.23,46l2.578-1.509a17.138,17.138,0,0,1,1.5,3.441l-2.819.9A14.029,14.029,0,0,0,152.232,46" transform="translate(-122.7 -35.86)" fill="#dbdadc" fill-rule="evenodd"/>
  <path id="Caminho_4378" data-name="Caminho 4378" d="M132.714,122.647,127.1,118.67a10.422,10.422,0,0,1-1.276,1.536c1.591,1.589,3.746,3.736,4.859,4.855a17.2,17.2,0,0,0,2.035-2.415" transform="translate(-101.413 -95.65)" fill="#0072b2" fill-rule="evenodd"/>
  <path id="Caminho_4379" data-name="Caminho 4379" d="M92.77,131.05l.952,8.677a16.319,16.319,0,0,0,2.454-.46L94.2,130.79a8.509,8.509,0,0,1-1.432.26" transform="translate(-74.774 -105.419)" fill="#005293" fill-rule="evenodd"/>
</svg>
