<svg id="Camada_1-2" xmlns="http://www.w3.org/2000/svg" width="671.39" height="176.93" viewBox="0 0 671.39 176.93">
  <path id="Caminho_4343" data-name="Caminho 4343" d="M118.89,56.96l20.58-20.38a80,80,0,0,0-21.96-14.67l.04-.09a79.106,79.106,0,0,0-12.47-4.2L98.74,45.98A43.639,43.639,0,0,1,118.9,56.97" fill="#005293" fill-rule="evenodd"/>
  <path id="Caminho_4344" data-name="Caminho 4344" d="M35.77,37.71c-.88.92-1.73,1.85-2.54,2.79l-.07-.06a78.622,78.622,0,0,0-7.62,10.73L50.86,66.72a43.642,43.642,0,0,1,5.69-7.71L35.77,37.72Z" fill="#008bca" fill-rule="evenodd"/>
  <path id="Caminho_4345" data-name="Caminho 4345" d="M66.95,126.59,51.71,151.98a79.833,79.833,0,0,0,24.9,8.8l-.02.09a78.119,78.119,0,0,0,13.12.99l-.87-29.54h-.23a43.557,43.557,0,0,1-21.67-5.73" fill="#163a67" fill-rule="evenodd"/>
  <path id="Caminho_4346" data-name="Caminho 4346" d="M124.52,113.58l23.18,16c7.45-11.02,12.45-21.8,13.4-34.9l-28.87-2.51a43.548,43.548,0,0,1-7.71,21.42" fill="#dbdadc" fill-rule="evenodd"/>
  <path id="Caminho_4347" data-name="Caminho 4347" d="M98.72,131.02l11.46,43.51a82.167,82.167,0,0,0,12.05-4.43l-16.41-41.5a43.12,43.12,0,0,1-7.11,2.42" fill="#dbdadc" fill-rule="evenodd"/>
  <path id="Caminho_4348" data-name="Caminho 4348" d="M141.19,95.04l20.29,2.19a73.922,73.922,0,0,1-6.85,23.35l-18.22-8.92a52.855,52.855,0,0,0,4.78-16.62" fill="#1da9e2" fill-rule="evenodd"/>
  <path id="Caminho_4349" data-name="Caminho 4349" d="M117.03,44.09l11.08-17.13a74.053,74.053,0,0,1,18.76,17.93L130.62,57.03a52.912,52.912,0,0,0-13.59-12.94" fill="#1da9e2" fill-rule="evenodd"/>
  <path id="Caminho_4350" data-name="Caminho 4350" d="M86.71,15.12v-.09a73.659,73.659,0,0,1,25.56,4.48l-6.76,19.12a52.922,52.922,0,0,0-15.2-3.12l.73-20.36c-1.44-.05-2.89-.06-4.34-.02" fill="#0072b2" fill-rule="evenodd"/>
  <path id="Caminho_4351" data-name="Caminho 4351" d="M54.51,129.84,42.05,145.41a72.894,72.894,0,0,1-16.77-19.58l17.1-10.27a53.355,53.355,0,0,0,12.13,14.28" fill="#1da9e2" fill-rule="evenodd"/>
  <path id="Caminho_4352" data-name="Caminho 4352" d="M132.04,94.07l44.61,4.7a90.634,90.634,0,0,0,.59-10.22,89.479,89.479,0,0,0-1.05-13.69l-44.26,7.33a44.5,44.5,0,0,1,.46,6.36,43.467,43.467,0,0,1-.35,5.51" fill="#163a67" fill-rule="evenodd"/>
  <path id="Caminho_4353" data-name="Caminho 4353" d="M131.93,82.3l29.21-4.92a74.491,74.491,0,0,0-2.44-10.55l-28.2,9.02a44.331,44.331,0,0,1,1.43,6.45" fill="#005293" fill-rule="evenodd"/>
  <path id="Caminho_4354" data-name="Caminho 4354" d="M130.48,75.76l29.07-9.15a74.468,74.468,0,0,0-6.47-14.83L126.7,67a43.443,43.443,0,0,1,3.77,8.76" fill="#007fc4" fill-rule="evenodd"/>
  <path id="Caminho_4355" data-name="Caminho 4355" d="M124.12,62.96l36.17-26.51A89.405,89.405,0,0,0,147.56,22.4L117.92,56.05a44.316,44.316,0,0,1,6.2,6.92" fill="#c5c5c7" fill-rule="evenodd"/>
  <path id="Caminho_4356" data-name="Caminho 4356" d="M60.64,122.21,31.65,156.43a88.782,88.782,0,0,0,15.51,10.46l20.99-39.64a43.808,43.808,0,0,1-7.51-5.04" fill="#dbdadc" fill-rule="evenodd"/>
  <path id="Caminho_4357" data-name="Caminho 4357" d="M117.28,44.17l19.61-29.93A88.3,88.3,0,0,0,120.61,5.9L107.72,39.26a53.656,53.656,0,0,1,9.57,4.91" fill="#008bca" fill-rule="evenodd"/>
  <path id="Caminho_4358" data-name="Caminho 4358" d="M63.56,135.88,46.67,166.64a87.871,87.871,0,0,0,16.81,6.91l10.16-33.61a52.637,52.637,0,0,1-10.07-4.06" fill="#0072b2" fill-rule="evenodd"/>
  <path id="Caminho_4359" data-name="Caminho 4359" d="M104.48,47.76l10.74-27.58a77.525,77.525,0,0,0-12.4-3.61L97.11,45.62a43.371,43.371,0,0,1,7.37,2.14" fill="#1e2c5d" fill-rule="evenodd"/>
  <path id="Caminho_4360" data-name="Caminho 4360" d="M85.35,132.2l-2.26,30.21a76.369,76.369,0,0,0,12.92-.13L93.06,132.1a43.371,43.371,0,0,1-4.43.22q-1.65,0-3.27-.12" fill="#008bca" fill-rule="evenodd"/>
  <path id="Caminho_4361" data-name="Caminho 4361" d="M99.53,130.95l7.54,29.36a80.726,80.726,0,0,0,12.53-4.52l-12.81-27.42a43.13,43.13,0,0,1-7.26,2.57" fill="#163a67" fill-rule="evenodd"/>
  <path id="Caminho_4362" data-name="Caminho 4362" d="M106.32,128.59l13.17,27.24a76.816,76.816,0,0,0,11.24-6.37l-17.17-24.95a43.528,43.528,0,0,1-7.24,4.07" fill="#163a67" fill-rule="evenodd"/>
  <path id="Caminho_4363" data-name="Caminho 4363" d="M89.99,44.82l1.07-29.68a73.085,73.085,0,0,0-13.9.85l4.31,29.39a44.411,44.411,0,0,1,7.15-.58c.46,0,.92,0,1.37.02" fill="#163a67" fill-rule="evenodd"/>
  <path id="Caminho_4364" data-name="Caminho 4364" d="M76.48,46.5,64.72,3.21a85.964,85.964,0,0,0-8.56,2.87L72.33,47.93c1.35-.54,2.74-1.02,4.15-1.43" fill="#008bca" fill-rule="evenodd"/>
  <path id="Caminho_4365" data-name="Caminho 4365" d="M73.66,139.95,63.52,173.57a88.227,88.227,0,0,0,18.49,3.36l2.62-35.05a52.912,52.912,0,0,1-10.97-1.93" fill="#dbdadc" fill-rule="evenodd"/>
  <path id="Caminho_4366" data-name="Caminho 4366" d="M69.19,49.33,50.02,8.77a88.448,88.448,0,0,0-12.64,7.48L62.92,53.13a43.781,43.781,0,0,1,6.27-3.8" fill="#dbdadc" fill-rule="evenodd"/>
  <path id="Caminho_4367" data-name="Caminho 4367" d="M62.99,53.08,46.12,28.59a73.219,73.219,0,0,0-11.19,9.75L56.4,58.94a43.708,43.708,0,0,1,6.59-5.86" fill="#1e2c5d" fill-rule="evenodd"/>
  <path id="Caminho_4368" data-name="Caminho 4368" d="M51.22,65.81,13.7,41.21A88.4,88.4,0,0,0,5.39,58.04L47.37,73.89a43.427,43.427,0,0,1,3.85-8.08" fill="#b0b0b2" fill-rule="evenodd"/>
  <path id="Caminho_4369" data-name="Caminho 4369" d="M45.21,82.94l-30.45-4.3a74.134,74.134,0,0,0,.92,25.44l-.09.02a79.962,79.962,0,0,0,3.95,12.55l28.65-11.29a43.672,43.672,0,0,1-3.34-16.8,43.217,43.217,0,0,1,.36-5.61" fill="#b0b0b2" fill-rule="evenodd"/>
  <path id="Caminho_4370" data-name="Caminho 4370" d="M48.18,105.31,19.65,116.54a80.327,80.327,0,0,1-3.93-12.59l-13.8,3.02a88.261,88.261,0,0,0,10.4,26.68l38.79-22.52a44.064,44.064,0,0,1-2.94-5.82" fill="#163a67" fill-rule="evenodd"/>
  <path id="Caminho_4371" data-name="Caminho 4371" d="M143.03,126.28l6.84,4.77a89.518,89.518,0,0,1-9.15,10.51l10.11,10.1a88.989,88.989,0,0,0,17.56-24.47l-20.26-9.69a67.209,67.209,0,0,1-5.09,8.79" fill="#005293" fill-rule="evenodd"/>
  <path id="Caminho_4372" data-name="Caminho 4372" d="M115.16,20.34l5.48-14.43a88.513,88.513,0,0,0-14.52-4.24l-2.89,15.12a68.966,68.966,0,0,1,11.93,3.54" fill="#005191" fill-rule="evenodd"/>
  <path id="Caminho_4373" data-name="Caminho 4373" d="M103.12,16.54l2.95-14.88A87.683,87.683,0,0,0,91.66,0l-.64,15.13a71.107,71.107,0,0,1,12.1,1.41" fill="#183e74" fill-rule="evenodd"/>
  <path id="Caminho_4374" data-name="Caminho 4374" d="M130.96,149.49l8.46,11.68a89.961,89.961,0,0,0,11.43-9.53l-10.21-10.23a74.789,74.789,0,0,1-9.68,8.09" fill="#1e2c5d" fill-rule="evenodd"/>
  <path id="Caminho_4375" data-name="Caminho 4375" d="M1.95,107.12l14.01-2.97A74.068,74.068,0,0,1,14.76,79l7.91,1.06a65.229,65.229,0,0,1,3.54-14.27L5.46,57.89A88.374,88.374,0,0,0,0,88.57a89.276,89.276,0,0,0,1.95,18.56" fill="#005293" fill-rule="evenodd"/>
  <path id="Caminho_4376" data-name="Caminho 4376" d="M55.46,117.12,33.28,136.93a73.9,73.9,0,0,0,8.57,8.32l18.88-22.96a43.468,43.468,0,0,1-5.26-5.16" fill="#163a67" fill-rule="evenodd"/>
  <path id="Caminho_4377" data-name="Caminho 4377" d="M152.23,52.27l13.29-7.78a88.349,88.349,0,0,1,7.74,17.74l-14.53,4.63a72.32,72.32,0,0,0-6.49-14.59" fill="#dbdadc" fill-rule="evenodd"/>
  <path id="Caminho_4378" data-name="Caminho 4378" d="M161.36,139.17l-28.96-20.5a53.721,53.721,0,0,1-6.58,7.92c8.2,8.19,19.31,19.26,25.05,25.03a88.639,88.639,0,0,0,10.49-12.45" fill="#0072b2" fill-rule="evenodd"/>
  <path id="Caminho_4379" data-name="Caminho 4379" d="M92.77,132.13l4.91,44.73a84.124,84.124,0,0,0,12.65-2.37l-10.18-43.7a43.852,43.852,0,0,1-7.38,1.34" fill="#005293" fill-rule="evenodd"/>
  <path id="Caminho_4380" data-name="Caminho 4380" d="M500.19,160.7a.438.438,0,0,1-.13.32.908.908,0,0,1-.42.23,4.089,4.089,0,0,1-.78.14c-.33.03-.75.04-1.25.04s-.92-.01-1.25-.04a3.944,3.944,0,0,1-.78-.14.908.908,0,0,1-.42-.23.482.482,0,0,1-.13-.32V136.52a.46.46,0,0,1,.13-.33.911.911,0,0,1,.42-.24,3.917,3.917,0,0,1,.78-.16,13.051,13.051,0,0,1,2.5,0,3.767,3.767,0,0,1,.78.16.911.911,0,0,1,.42.24.528.528,0,0,1,.13.33V160.7ZM481,153.72h-1.96a12.641,12.641,0,0,0-2.12.16,4.338,4.338,0,0,0-1.43.5,1.982,1.982,0,0,0-.8.8,2.2,2.2,0,0,0-.26,1.07,1.952,1.952,0,0,0,.73,1.62,3.049,3.049,0,0,0,2.01.59,4,4,0,0,0,1.99-.5,8.025,8.025,0,0,0,1.85-1.46v-2.79Zm5.07,7.04a.479.479,0,0,1-.2.4,1.5,1.5,0,0,1-.65.21,10.49,10.49,0,0,1-1.31.06,10.6,10.6,0,0,1-1.34-.06,1.141,1.141,0,0,1-.59-.21.482.482,0,0,1-.17-.4v-1.3a8.088,8.088,0,0,1-5.77,2.28,9.757,9.757,0,0,1-2.67-.34,6.213,6.213,0,0,1-2.1-1.01,4.608,4.608,0,0,1-1.38-1.66,5.162,5.162,0,0,1-.49-2.31,4.524,4.524,0,0,1,2.49-4.24,9.876,9.876,0,0,1,3.07-1.02,24.377,24.377,0,0,1,4.27-.33h1.78v-.99a5.054,5.054,0,0,0-.17-1.36,2.254,2.254,0,0,0-.57-.97,2.4,2.4,0,0,0-1.06-.57,6.358,6.358,0,0,0-1.64-.18,9.394,9.394,0,0,0-2.3.26,13.548,13.548,0,0,0-1.79.57c-.52.21-.95.4-1.3.57a2.094,2.094,0,0,1-.85.26.62.62,0,0,1-.4-.13.907.907,0,0,1-.29-.37,2.175,2.175,0,0,1-.17-.59,4.541,4.541,0,0,1-.06-.77,3.1,3.1,0,0,1,.1-.9,1.452,1.452,0,0,1,.38-.6,3.73,3.73,0,0,1,1.01-.58,13.316,13.316,0,0,1,1.68-.6,16.74,16.74,0,0,1,4.45-.63,15.65,15.65,0,0,1,3.68.38,6.44,6.44,0,0,1,2.5,1.16,4.448,4.448,0,0,1,1.44,2.01,8.493,8.493,0,0,1,.45,2.92v11.03Zm-24.42-.06a.438.438,0,0,1-.13.32.921.921,0,0,1-.41.23,3.945,3.945,0,0,1-.78.14c-.33.03-.75.04-1.25.04s-.95-.01-1.28-.04a4.065,4.065,0,0,1-.79-.14.818.818,0,0,1-.41-.23.463.463,0,0,1-.11-.32v-9.72a6.459,6.459,0,0,0-.17-1.51,3.148,3.148,0,0,0-.53-1.17,2.5,2.5,0,0,0-.89-.76,2.857,2.857,0,0,0-1.29-.26,3.184,3.184,0,0,0-1.86.65,11.553,11.553,0,0,0-2.04,1.87v10.9a.438.438,0,0,1-.13.32.908.908,0,0,1-.42.23,4.065,4.065,0,0,1-.79.14c-.33.03-.74.04-1.23.04s-.93-.01-1.26-.04a4.065,4.065,0,0,1-.79-.14.908.908,0,0,1-.42-.23.482.482,0,0,1-.13-.32v-9.72a6.459,6.459,0,0,0-.17-1.51,3.306,3.306,0,0,0-.52-1.17,2.337,2.337,0,0,0-.89-.76,2.915,2.915,0,0,0-1.29-.26,3.241,3.241,0,0,0-1.88.65,11.2,11.2,0,0,0-2.03,1.87v10.9a.438.438,0,0,1-.13.32.908.908,0,0,1-.42.23,4.089,4.089,0,0,1-.78.14c-.33.03-.75.04-1.25.04s-.92-.01-1.25-.04a3.944,3.944,0,0,1-.78-.14.908.908,0,0,1-.42-.23.482.482,0,0,1-.13-.32V144.29a.509.509,0,0,1,.1-.32.723.723,0,0,1,.36-.23,3.363,3.363,0,0,1,.68-.14,10.543,10.543,0,0,1,1.06-.04,10.72,10.72,0,0,1,1.08.04,2.753,2.753,0,0,1,.67.14.813.813,0,0,1,.34.23.509.509,0,0,1,.1.32v1.89a11.958,11.958,0,0,1,3.02-2.2,7.1,7.1,0,0,1,3.15-.73,8.982,8.982,0,0,1,2.03.21,6.4,6.4,0,0,1,1.61.6,5.213,5.213,0,0,1,1.22.94,5.546,5.546,0,0,1,.86,1.23,13.4,13.4,0,0,1,1.61-1.35,10,10,0,0,1,1.56-.93,7.6,7.6,0,0,1,1.54-.53,6.811,6.811,0,0,1,1.57-.18,7.56,7.56,0,0,1,3.07.55,5.214,5.214,0,0,1,2.01,1.5,5.676,5.676,0,0,1,1.1,2.21,10.637,10.637,0,0,1,.33,2.68v10.49Zm-37.59-21.98a2.408,2.408,0,0,1-.64,1.93,3.791,3.791,0,0,1-2.36.53,3.857,3.857,0,0,1-2.35-.51,2.349,2.349,0,0,1-.61-1.86,2.467,2.467,0,0,1,.63-1.94,5.451,5.451,0,0,1,4.71-.01,2.349,2.349,0,0,1,.61,1.86Zm-.42,21.98a.438.438,0,0,1-.13.32.908.908,0,0,1-.42.23,4.089,4.089,0,0,1-.78.14c-.33.03-.75.04-1.25.04s-.92-.01-1.25-.04a3.944,3.944,0,0,1-.78-.14.908.908,0,0,1-.42-.23.482.482,0,0,1-.13-.32V144.33a.438.438,0,0,1,.13-.32.911.911,0,0,1,.42-.24,3.917,3.917,0,0,1,.78-.16,13.051,13.051,0,0,1,2.5,0,3.767,3.767,0,0,1,.78.16.832.832,0,0,1,.42.24.482.482,0,0,1,.13.32Zm-14.03,0a.438.438,0,0,1-.13.32.921.921,0,0,1-.41.23,4.045,4.045,0,0,1-.8.14c-.34.03-.75.04-1.24.04s-.93-.01-1.26-.04a4.044,4.044,0,0,1-.8-.14.921.921,0,0,1-.41-.23.482.482,0,0,1-.13-.32v-9.35a6.723,6.723,0,0,0-.2-1.88,3.35,3.35,0,0,0-.56-1.17,2.449,2.449,0,0,0-.95-.76,3.206,3.206,0,0,0-1.36-.26,3.612,3.612,0,0,0-1.99.65,10.412,10.412,0,0,0-2.08,1.87v10.9a.438.438,0,0,1-.13.32.908.908,0,0,1-.42.23,4.089,4.089,0,0,1-.78.14c-.33.03-.75.04-1.25.04s-.92-.01-1.25-.04a3.944,3.944,0,0,1-.78-.14.908.908,0,0,1-.42-.23.482.482,0,0,1-.13-.32V144.29a.578.578,0,0,1,.1-.32.723.723,0,0,1,.36-.23,3.363,3.363,0,0,1,.68-.14,10.543,10.543,0,0,1,1.06-.04,10.72,10.72,0,0,1,1.08.04,2.753,2.753,0,0,1,.67.14.813.813,0,0,1,.34.23.509.509,0,0,1,.1.32v1.89a11.368,11.368,0,0,1,3.08-2.2,7.566,7.566,0,0,1,3.26-.73,7.883,7.883,0,0,1,3.14.55,5.432,5.432,0,0,1,2.07,1.5,5.87,5.87,0,0,1,1.13,2.21,11.737,11.737,0,0,1,.35,3.05v10.13Zm-36.83-18.64h-.02l-3.69,10.12h7.43Zm12.16,17.46a6.119,6.119,0,0,1,.31,1.05.591.591,0,0,1-.16.58,1.426,1.426,0,0,1-.8.24c-.38.03-.91.04-1.57.04-.7,0-1.24,0-1.63-.03a5.07,5.07,0,0,1-.89-.11.913.913,0,0,1-.43-.23,1.134,1.134,0,0,1-.2-.38l-1.74-4.78h-9.99l-1.67,4.65a1.331,1.331,0,0,1-.22.43.829.829,0,0,1-.43.28,3.623,3.623,0,0,1-.84.14c-.36.03-.84.04-1.43.04a13.771,13.771,0,0,1-1.47-.06,1.228,1.228,0,0,1-.73-.26.66.66,0,0,1-.15-.6,5.753,5.753,0,0,1,.31-1.03l8.16-21.11a1.4,1.4,0,0,1,.29-.5.927.927,0,0,1,.52-.29,4.506,4.506,0,0,1,1-.13c.42-.02.98-.02,1.68-.02.8,0,1.45,0,1.92.02a5.645,5.645,0,0,1,1.12.13,1.132,1.132,0,0,1,.57.3,1.672,1.672,0,0,1,.29.55l8.19,21.09Zm-54-8.81a4.4,4.4,0,0,0-.87-3.06,3.52,3.52,0,0,0-2.88-1.12,4.075,4.075,0,0,0-1.71.33,3.441,3.441,0,0,0-1.22.89,3.865,3.865,0,0,0-.73,1.32,6.115,6.115,0,0,0-.3,1.63h7.71Zm4.99,1.32a1.671,1.671,0,0,1-.42,1.25,1.593,1.593,0,0,1-1.16.41H323.22a5.908,5.908,0,0,0,.28,1.89,3.574,3.574,0,0,0,.87,1.44,3.8,3.8,0,0,0,1.56.9,7.308,7.308,0,0,0,2.28.31,14.069,14.069,0,0,0,2.38-.18,16.03,16.03,0,0,0,1.77-.39c.5-.14.91-.27,1.24-.39a2.445,2.445,0,0,1,.8-.18.684.684,0,0,1,.31.06.529.529,0,0,1,.21.23,1.474,1.474,0,0,1,.11.46c.02.2.03.46.03.76,0,.27,0,.5-.02.69a2.842,2.842,0,0,1-.06.48.967.967,0,0,1-.12.34,1.741,1.741,0,0,1-.22.27,2.843,2.843,0,0,1-.73.35,13.522,13.522,0,0,1-1.52.44c-.61.14-1.31.27-2.1.38a18.506,18.506,0,0,1-2.54.16,14.755,14.755,0,0,1-4.27-.55,7.677,7.677,0,0,1-3.06-1.67,6.81,6.81,0,0,1-1.83-2.83,12.131,12.131,0,0,1-.6-4.01,11.074,11.074,0,0,1,.64-3.94,7.843,7.843,0,0,1,4.78-4.83,12.48,12.48,0,0,1,7.83-.04,7.176,7.176,0,0,1,2.68,1.68,6.766,6.766,0,0,1,1.54,2.55,9.942,9.942,0,0,1,.49,3.2V152Zm-30.97-2.28a10.853,10.853,0,0,0-2.12-1.91,3.832,3.832,0,0,0-2.12-.66,3.256,3.256,0,0,0-1.73.45,3.448,3.448,0,0,0-1.17,1.2,6.2,6.2,0,0,0-.66,1.68,8.028,8.028,0,0,0-.22,1.9,10.941,10.941,0,0,0,.18,2,6.061,6.061,0,0,0,.61,1.74,3.3,3.3,0,0,0,1.12,1.22,3.092,3.092,0,0,0,1.76.46,3.557,3.557,0,0,0,1.03-.14,3.931,3.931,0,0,0,1.02-.45,6.7,6.7,0,0,0,1.08-.82,16.128,16.128,0,0,0,1.21-1.24v-5.44Zm5.11,10.96a.568.568,0,0,1-.1.34.7.7,0,0,1-.34.23,3.052,3.052,0,0,1-.67.13,10.031,10.031,0,0,1-1.03.04,10.38,10.38,0,0,1-1.07-.04,3.07,3.07,0,0,1-.66-.13.773.773,0,0,1-.36-.23.513.513,0,0,1-.12-.35v-1.83a11.467,11.467,0,0,1-2.96,2.11,8.55,8.55,0,0,1-6.96.02,6.556,6.556,0,0,1-2.36-1.96,7.963,7.963,0,0,1-1.32-2.87,14.446,14.446,0,0,1-.41-3.46,13.6,13.6,0,0,1,.52-3.93,8.51,8.51,0,0,1,1.52-2.97,6.614,6.614,0,0,1,2.5-1.89,8.411,8.411,0,0,1,3.44-.66,6.767,6.767,0,0,1,2.78.56,10.038,10.038,0,0,1,2.48,1.64V136.6a.488.488,0,0,1,.11-.33.87.87,0,0,1,.41-.24,3.917,3.917,0,0,1,.78-.16,13.051,13.051,0,0,1,2.5,0,3.767,3.767,0,0,1,.78.16.83.83,0,0,1,.4.24.528.528,0,0,1,.13.33v24.11Zm-34-24.46a1.659,1.659,0,0,1,.35-.35,1.412,1.412,0,0,1,.51-.23,4.293,4.293,0,0,1,.78-.12c.31-.02.69-.04,1.15-.04a10.989,10.989,0,0,1,1.47.08,2.349,2.349,0,0,1,.78.21.353.353,0,0,1,.21.33.674.674,0,0,1-.2.38l-3.96,4.27a1.876,1.876,0,0,1-.33.31,1.175,1.175,0,0,1-.42.19,5.55,5.55,0,0,1-.64.11,9.009,9.009,0,0,1-.98.04,8.31,8.31,0,0,1-1.13-.06,1.323,1.323,0,0,1-.59-.18.306.306,0,0,1-.13-.3.974.974,0,0,1,.22-.43l2.92-4.22Zm7.69,24.46a.578.578,0,0,1-.1.32.679.679,0,0,1-.36.23,2.966,2.966,0,0,1-.68.14,10.329,10.329,0,0,1-1.05.04c-.45,0-.82-.01-1.1-.04a2.765,2.765,0,0,1-.66-.14.736.736,0,0,1-.35-.23.509.509,0,0,1-.1-.32v-1.89a11.59,11.59,0,0,1-3.08,2.2,7.587,7.587,0,0,1-3.25.73,7.971,7.971,0,0,1-3.17-.55,5.35,5.35,0,0,1-2.07-1.51,5.945,5.945,0,0,1-1.13-2.21,12.6,12.6,0,0,1-.34-3.14V144.3a.463.463,0,0,1,.11-.32.921.921,0,0,1,.41-.23,4.187,4.187,0,0,1,.8-.14c.34-.03.75-.04,1.24-.04s.92.01,1.25.04a4.065,4.065,0,0,1,.79.14.908.908,0,0,1,.42.23.482.482,0,0,1,.13.32v9.27a8.068,8.068,0,0,0,.18,1.96,3.2,3.2,0,0,0,.57,1.17,2.482,2.482,0,0,0,.96.76,3.175,3.175,0,0,0,1.36.26,3.622,3.622,0,0,0,1.98-.64,11.394,11.394,0,0,0,2.12-1.87V144.3a.463.463,0,0,1,.11-.32.867.867,0,0,1,.41-.23,4.089,4.089,0,0,1,.78-.14c.33-.03.75-.04,1.25-.04s.92.01,1.25.04a3.944,3.944,0,0,1,.78.14.826.826,0,0,1,.4.23.482.482,0,0,1,.13.32v16.41Zm-31.35-6.98h-1.96a12.641,12.641,0,0,0-2.12.16,4.338,4.338,0,0,0-1.43.5,1.983,1.983,0,0,0-.8.8,2.2,2.2,0,0,0-.26,1.07,1.952,1.952,0,0,0,.73,1.62,3.049,3.049,0,0,0,2.01.59,4,4,0,0,0,1.99-.5,8.025,8.025,0,0,0,1.85-1.46v-2.79Zm5.07,7.04a.479.479,0,0,1-.2.4,1.5,1.5,0,0,1-.65.21,10.49,10.49,0,0,1-1.31.06,10.6,10.6,0,0,1-1.34-.06,1.141,1.141,0,0,1-.59-.21.482.482,0,0,1-.17-.4v-1.3a8.088,8.088,0,0,1-5.77,2.28,9.808,9.808,0,0,1-2.67-.34,6.213,6.213,0,0,1-2.1-1.01,4.608,4.608,0,0,1-1.38-1.66,5.162,5.162,0,0,1-.49-2.31,4.524,4.524,0,0,1,2.49-4.24,9.787,9.787,0,0,1,3.07-1.02,24.377,24.377,0,0,1,4.27-.33h1.78v-.99a5.055,5.055,0,0,0-.17-1.36,2.254,2.254,0,0,0-.57-.97,2.4,2.4,0,0,0-1.06-.57,6.358,6.358,0,0,0-1.64-.18,9.394,9.394,0,0,0-2.3.26,13.546,13.546,0,0,0-1.79.57c-.52.21-.95.4-1.3.57a2.094,2.094,0,0,1-.85.26.62.62,0,0,1-.4-.13.907.907,0,0,1-.29-.37,2.174,2.174,0,0,1-.17-.59,4.543,4.543,0,0,1-.06-.77,3.1,3.1,0,0,1,.1-.9,1.451,1.451,0,0,1,.38-.6,3.731,3.731,0,0,1,1.01-.58,13.316,13.316,0,0,1,1.68-.6,16.74,16.74,0,0,1,4.45-.63,15.65,15.65,0,0,1,3.68.38,6.44,6.44,0,0,1,2.5,1.16,4.448,4.448,0,0,1,1.44,2.01,8.493,8.493,0,0,1,.45,2.92v11.03Zm-23.17-6.57a6.7,6.7,0,0,1-.78,3.29,7.11,7.11,0,0,1-2.11,2.36,9.7,9.7,0,0,1-3.12,1.42,15.5,15.5,0,0,1-6.37.27,15.53,15.53,0,0,1-2.08-.5,9.871,9.871,0,0,1-1.51-.6,4.538,4.538,0,0,1-.87-.56,1.469,1.469,0,0,1-.38-.7,5.391,5.391,0,0,1-.11-1.29,8.423,8.423,0,0,1,.04-.95,2.882,2.882,0,0,1,.13-.63.762.762,0,0,1,.24-.34.609.609,0,0,1,.36-.1,1.765,1.765,0,0,1,.81.31c.35.2.8.43,1.34.67a13.478,13.478,0,0,0,1.96.67,9.886,9.886,0,0,0,2.63.31,6.741,6.741,0,0,0,1.76-.21,4.172,4.172,0,0,0,1.33-.6,2.6,2.6,0,0,0,.83-.95,2.781,2.781,0,0,0,.29-1.26,2.072,2.072,0,0,0-.49-1.39,4.682,4.682,0,0,0-1.29-1.03,14.473,14.473,0,0,0-1.8-.85c-.66-.26-1.36-.54-2.07-.83a21.921,21.921,0,0,1-2.07-1,8.269,8.269,0,0,1-1.8-1.34,6.267,6.267,0,0,1-1.29-1.85,6.012,6.012,0,0,1-.49-2.55,6.159,6.159,0,0,1,.71-3,6.423,6.423,0,0,1,1.9-2.15,8.48,8.48,0,0,1,2.82-1.28,13.76,13.76,0,0,1,3.45-.42,13.3,13.3,0,0,1,1.88.13,12.453,12.453,0,0,1,1.76.35,10.182,10.182,0,0,1,1.45.5,4,4,0,0,1,.84.46,1.623,1.623,0,0,1,.27.31,1.524,1.524,0,0,1,.13.35,2.351,2.351,0,0,1,.07.53c.01.21.02.48.02.8a8.065,8.065,0,0,1-.03.9,3.87,3.87,0,0,1-.1.61.68.68,0,0,1-.2.34.518.518,0,0,1-.36.11,1.871,1.871,0,0,1-.71-.26c-.33-.17-.73-.36-1.21-.56a13.444,13.444,0,0,0-1.66-.55,7.883,7.883,0,0,0-2.07-.25,5.45,5.45,0,0,0-1.54.19,3.461,3.461,0,0,0-1.09.53,2.163,2.163,0,0,0-.66.82,2.357,2.357,0,0,0-.22,1.01,2.063,2.063,0,0,0,.48,1.37,4.592,4.592,0,0,0,1.29,1.04,15.207,15.207,0,0,0,1.84.84c.68.26,1.38.55,2.09.83a21.037,21.037,0,0,1,2.09,1,8.544,8.544,0,0,1,1.83,1.34,6.219,6.219,0,0,1,1.29,1.84,5.777,5.777,0,0,1,.49,2.48Z" fill="#9c9b9b"/>
  <path id="Caminho_4381" data-name="Caminho 4381" d="M671.39,74.43c0-22.05-16.51-29.31-31.29-29.31s-24.24,6.1-28.71,12.19h-.52l-1.03-10.64H592.47c.34,6.1.69,12.19.69,20.1v51.36H613.1V75.07c0-11.41,10.49-17.51,20.29-17.51,13.58,0,18.05,8.56,18.05,18.68v41.89h19.95V74.42ZM569.01,46.68l-15.3,40.21c-1.72,4.8-3.61,10.12-4.99,14.27h-.52c-1.38-4.15-3.27-9.6-5.16-14.27L525.85,46.68H504.01l32.5,65.88a5.729,5.729,0,0,1,1.03,3.11c0,1.95-7.39,16.47-28.03,22.05l5.16,12.71a57.033,57.033,0,0,0,22.01-9.21c11.35-8.3,19.26-21.53,30.43-45l22.87-49.54H569ZM500.68,21.91c-5.67-2.2-15.13-4.54-27.68-4.54-26.14,0-42.81,11.8-42.81,27.5,0,13.49,13.24,22.44,32.84,28.4,15.65,4.93,22.35,10.12,22.35,18.55,0,8.95-8.77,15.04-24.42,15.04a72.069,72.069,0,0,1-28.54-5.84l-4.47,12.58c6.36,3.24,19.43,5.97,31.81,5.97,29.57,0,45.91-12.45,45.91-29.05,0-13.62-10.14-22.31-31.29-29.31-16.68-5.45-24.07-9.6-24.07-18.03,0-6.35,6.53-13.23,22.18-13.23a61.171,61.171,0,0,1,23.38,4.41l4.81-12.45Zm-96.7,60.31c0,14.27-8.94,26.07-23.38,26.07s-23.38-11.8-23.38-25.81c0-12.32,6.53-26.07,23.56-26.07s23.21,14.01,23.21,25.81ZM381.46,45.13c-25.1,0-44.7,13.62-44.7,37.74s18.74,36.7,43.33,36.7c21.32,0,44.36-11.02,44.36-37.74,0-21.92-17.02-36.7-42.99-36.7Zm-53.38,1.56H308.13v71.46h19.95V46.68Zm1.72-19.71c0-5.06-4.64-8.82-11.52-8.82s-11.69,3.76-11.69,8.82c0,4.8,4.64,8.69,11.52,8.69C325.33,35.67,329.8,31.78,329.8,26.98ZM236.36,71.47h11.52c15.3,0,30.26,4.8,30.26,17.9s-13.76,18.16-29.75,18.16a97.847,97.847,0,0,1-12.04-.52V71.47Zm0-11.15V30.36a82.386,82.386,0,0,1,12.9-.78c12.38,0,25.1,2.98,25.1,14.92,0,9.21-9.97,15.82-25.79,15.82H236.36Zm36.28,4.28c13.76-3.89,21.66-12.19,21.66-21.66,0-9.99-6.88-24.77-46.94-24.77a217.485,217.485,0,0,0-30.78,2.07V117.9c5.67.52,14.44,1.17,26.13,1.17,21.66,0,36.11-2.98,44.88-9.34,4.81-3.37,11.35-9.47,11.35-19.97,0-13.88-12.55-22.18-26.31-24.77V64.6Z" fill="#1e2c5d"/>
</svg>
