<svg id="Camada_1-2" xmlns="http://www.w3.org/2000/svg" width="934.895" height="246.371" viewBox="0 0 934.895 246.371">
  <path id="Caminho_4343" data-name="Caminho 4343" d="M126.8,72.4l28.657-28.379a111.391,111.391,0,0,0-30.579-20.428l.056-.125a110.154,110.154,0,0,0-17.364-5.848L98.74,57.111a60.767,60.767,0,0,1,28.072,15.3" transform="translate(38.753 6.915)" fill="#005293" fill-rule="evenodd"/>
  <path id="Caminho_4344" data-name="Caminho 4344" d="M39.785,37.71c-1.225,1.281-2.409,2.576-3.537,3.885l-.1-.084A109.479,109.479,0,0,0,25.54,56.453L60.8,78.106A60.77,60.77,0,0,1,68.721,67.37L39.785,37.724Z" transform="translate(10.024 14.8)" fill="#008bca" fill-rule="evenodd"/>
  <path id="Caminho_4345" data-name="Caminho 4345" d="M72.931,126.59,51.71,161.945A111.166,111.166,0,0,0,86.383,174.2l-.028.125a108.78,108.78,0,0,0,18.269,1.379l-1.211-41.134h-.32a60.653,60.653,0,0,1-30.175-7.979" transform="translate(20.295 49.684)" fill="#163a67" fill-rule="evenodd"/>
  <path id="Caminho_4346" data-name="Caminho 4346" d="M124.52,121.983l32.278,22.28c10.374-15.345,17.336-30.356,18.659-48.6l-40.2-3.5A60.64,60.64,0,0,1,124.52,122" transform="translate(48.871 36.175)" fill="#dbdadc" fill-rule="evenodd"/>
  <path id="Caminho_4347" data-name="Caminho 4347" d="M98.724,131.97l15.958,60.587c5.486-1.351,11.571-3.927,16.779-6.169L108.611,128.6a60.043,60.043,0,0,1-9.9,3.37" transform="translate(38.741 50.472)" fill="#dbdadc" fill-rule="evenodd"/>
  <path id="Caminho_4348" data-name="Caminho 4348" d="M143.066,95.04l28.253,3.05a102.935,102.935,0,0,1-9.538,32.514L136.41,118.183a73.6,73.6,0,0,0,6.656-23.143" transform="translate(53.538 37.301)" fill="#1da9e2" fill-rule="evenodd"/>
  <path id="Caminho_4349" data-name="Caminho 4349" d="M117.03,50.813,132.459,26.96a103.117,103.117,0,0,1,26.123,24.967l-22.628,16.9A73.679,73.679,0,0,0,117.03,50.813" transform="translate(45.931 10.581)" fill="#1da9e2" fill-rule="evenodd"/>
  <path id="Caminho_4350" data-name="Caminho 4350" d="M86.714,15.155V15.03a102.568,102.568,0,0,1,35.592,6.238l-9.413,26.624a73.692,73.692,0,0,0-21.166-4.345L92.743,15.2c-2.005-.07-4.024-.084-6.043-.028" transform="translate(34.028 5.899)" fill="#0072b2" fill-rule="evenodd"/>
  <path id="Caminho_4351" data-name="Caminho 4351" d="M65.982,135.445l-17.35,21.681A101.5,101.5,0,0,1,25.28,129.861l23.811-14.3a74.3,74.3,0,0,0,16.891,19.885" transform="translate(9.922 45.355)" fill="#1da9e2" fill-rule="evenodd"/>
  <path id="Caminho_4352" data-name="Caminho 4352" d="M132.083,101.609l62.118,6.545a126.206,126.206,0,0,0,.822-14.231,124.6,124.6,0,0,0-1.462-19.063L131.93,85.067a61.956,61.956,0,0,1,.641,8.856,60.527,60.527,0,0,1-.487,7.673" transform="translate(51.779 29.381)" fill="#163a67" fill-rule="evenodd"/>
  <path id="Caminho_4353" data-name="Caminho 4353" d="M132.491,88.372l40.674-6.851a103.727,103.727,0,0,0-3.4-14.691L130.5,79.39a61.73,61.73,0,0,1,1.991,8.981" transform="translate(51.218 26.229)" fill="#005293" fill-rule="evenodd"/>
  <path id="Caminho_4354" data-name="Caminho 4354" d="M131.964,85.172,172.443,72.43a103.7,103.7,0,0,0-9.009-20.65L126.7,72.973a60.494,60.494,0,0,1,5.25,12.2" transform="translate(49.727 20.322)" fill="#007fc4" fill-rule="evenodd"/>
  <path id="Caminho_4355" data-name="Caminho 4355" d="M126.553,78.879l50.366-36.915A124.493,124.493,0,0,0,159.193,22.4L117.92,69.257a61.71,61.71,0,0,1,8.633,9.636" transform="translate(46.281 8.791)" fill="#c5c5c7" fill-rule="evenodd"/>
  <path id="Caminho_4356" data-name="Caminho 4356" d="M72.018,122.21,31.65,169.861a123.629,123.629,0,0,0,21.6,14.565l29.228-55.2a61,61,0,0,1-10.457-7.018" transform="translate(12.422 47.965)" fill="#dbdadc" fill-rule="evenodd"/>
  <path id="Caminho_4357" data-name="Caminho 4357" d="M121.032,59.19l27.306-41.677A122.957,122.957,0,0,0,125.669,5.9L107.72,52.353a74.715,74.715,0,0,1,13.326,6.837" transform="translate(42.278 2.316)" fill="#008bca" fill-rule="evenodd"/>
  <path id="Caminho_4358" data-name="Caminho 4358" d="M70.189,135.88,46.67,178.713a122.358,122.358,0,0,0,23.408,9.622l14.148-46.8A73.3,73.3,0,0,1,70.2,135.88" transform="translate(18.317 53.33)" fill="#0072b2" fill-rule="evenodd"/>
  <path id="Caminho_4359" data-name="Caminho 4359" d="M107.373,60l14.955-38.4a107.953,107.953,0,0,0-17.267-5.027L97.11,57.021A60.393,60.393,0,0,1,107.373,60" transform="translate(38.113 6.503)" fill="#1e2c5d" fill-rule="evenodd"/>
  <path id="Caminho_4360" data-name="Caminho 4360" d="M86.237,132.239,83.09,174.306a106.344,106.344,0,0,0,17.991-.181L96.973,132.1a60.393,60.393,0,0,1-6.169.306q-2.3,0-4.553-.167" transform="translate(32.611 51.846)" fill="#008bca" fill-rule="evenodd"/>
  <path id="Caminho_4361" data-name="Caminho 4361" d="M99.53,131.963l10.5,40.883a112.411,112.411,0,0,0,17.448-6.294L109.639,128.37a60.058,60.058,0,0,1-10.109,3.579" transform="translate(39.063 50.382)" fill="#163a67" fill-rule="evenodd"/>
  <path id="Caminho_4362" data-name="Caminho 4362" d="M106.32,130.191l18.339,37.931a106.964,106.964,0,0,0,15.651-8.87L116.4,124.51a60.611,60.611,0,0,1-10.082,5.667" transform="translate(41.728 48.867)" fill="#163a67" fill-rule="evenodd"/>
  <path id="Caminho_4363" data-name="Caminho 4363" d="M95.025,56.486l1.49-41.329A101.769,101.769,0,0,0,77.16,16.341l6,40.925a61.842,61.842,0,0,1,9.956-.808c.641,0,1.281,0,1.908.028" transform="translate(30.283 5.925)" fill="#163a67" fill-rule="evenodd"/>
  <path id="Caminho_4364" data-name="Caminho 4364" d="M84.455,63.49,68.08,3.21a119.7,119.7,0,0,0-11.92,4L78.676,65.482c1.88-.752,3.815-1.42,5.779-1.991" transform="translate(22.041 1.26)" fill="#008bca" fill-rule="evenodd"/>
  <path id="Caminho_4365" data-name="Caminho 4365" d="M77.64,139.95,63.52,186.765a122.853,122.853,0,0,0,25.747,4.679l3.648-48.806A73.682,73.682,0,0,1,77.64,139.95" transform="translate(24.93 54.927)" fill="#dbdadc" fill-rule="evenodd"/>
  <path id="Caminho_4366" data-name="Caminho 4366" d="M81.675,65.249,54.981,8.77a123.161,123.161,0,0,0-17.6,10.416L72.944,70.54a60.964,60.964,0,0,1,8.731-5.291" transform="translate(14.671 3.442)" fill="#dbdadc" fill-rule="evenodd"/>
  <path id="Caminho_4367" data-name="Caminho 4367" d="M74,62.692,50.512,28.59A101.955,101.955,0,0,0,34.93,42.167l29.9,28.685A60.862,60.862,0,0,1,74,62.692" transform="translate(13.709 11.221)" fill="#1e2c5d" fill-rule="evenodd"/>
  <path id="Caminho_4368" data-name="Caminho 4368" d="M69.207,75.465,16.961,41.21A123.094,123.094,0,0,0,5.39,64.645L63.846,86.716a60.47,60.47,0,0,1,5.361-11.251" transform="translate(2.115 16.174)" fill="#b0b0b2" fill-rule="evenodd"/>
  <path id="Caminho_4369" data-name="Caminho 4369" d="M57.431,84.628,15.03,78.64a103.229,103.229,0,0,0,1.281,35.425l-.125.028a111.346,111.346,0,0,0,5.5,17.476l39.894-15.721A60.812,60.812,0,0,1,56.93,92.453a60.178,60.178,0,0,1,.5-7.812" transform="translate(5.523 30.864)" fill="#b0b0b2" fill-rule="evenodd"/>
  <path id="Caminho_4370" data-name="Caminho 4370" d="M66.336,105.844,26.609,121.481a111.854,111.854,0,0,1-5.472-17.531L1.92,108.155A122.9,122.9,0,0,0,16.4,145.307l54.014-31.359a61.357,61.357,0,0,1-4.094-8.1" transform="translate(0.754 40.798)" fill="#163a67" fill-rule="evenodd"/>
  <path id="Caminho_4371" data-name="Caminho 4371" d="M143.937,129.726l9.525,6.642c-3.384,4.943-8.675,10.444-12.741,14.635L154.8,165.067a123.916,123.916,0,0,0,24.452-34.074L151.038,117.5a93.585,93.585,0,0,1-7.088,12.24" transform="translate(55.229 46.116)" fill="#005293" fill-rule="evenodd"/>
  <path id="Caminho_4372" data-name="Caminho 4372" d="M119.842,27.668l7.631-20.093a123.252,123.252,0,0,0-20.219-5.9L103.23,22.724a96.034,96.034,0,0,1,16.612,4.929" transform="translate(40.515 0.655)" fill="#005191" fill-rule="evenodd"/>
  <path id="Caminho_4373" data-name="Caminho 4373" d="M107.869,23.032l4.108-20.72A122.1,122.1,0,0,0,91.911,0L91.02,21.068a99.014,99.014,0,0,1,16.849,1.963" transform="translate(35.723)" fill="#183e74" fill-rule="evenodd"/>
  <path id="Caminho_4374" data-name="Caminho 4374" d="M130.96,152.661l11.78,16.264a125.269,125.269,0,0,0,15.916-13.27L144.439,141.41a104.143,104.143,0,0,1-13.479,11.265" transform="translate(51.399 55.5)" fill="#1e2c5d" fill-rule="evenodd"/>
  <path id="Caminho_4375" data-name="Caminho 4375" d="M2.715,126.442l19.509-4.136a103.138,103.138,0,0,1-1.671-35.021l11.014,1.476A90.829,90.829,0,0,1,36.5,68.891L7.6,57.89A123.059,123.059,0,0,0,0,100.611a124.315,124.315,0,0,0,2.715,25.844" transform="translate(0 22.72)" fill="#005293" fill-rule="evenodd"/>
  <path id="Caminho_4376" data-name="Caminho 4376" d="M64.165,117.12,33.28,144.7A102.906,102.906,0,0,0,45.214,156.29L71.5,124.319a60.528,60.528,0,0,1-7.324-7.185" transform="translate(13.062 45.967)" fill="#163a67" fill-rule="evenodd"/>
  <path id="Caminho_4377" data-name="Caminho 4377" d="M152.23,55.323,170.736,44.49a123.023,123.023,0,0,1,10.778,24.7L161.281,75.64a100.7,100.7,0,0,0-9.037-20.316" transform="translate(59.747 17.461)" fill="#dbdadc" fill-rule="evenodd"/>
  <path id="Caminho_4378" data-name="Caminho 4378" d="M175.309,147.216,134.982,118.67A74.807,74.807,0,0,1,125.82,129.7c11.418,11.4,26.889,26.819,34.882,34.854a123.427,123.427,0,0,0,14.607-17.336" transform="translate(49.381 46.575)" fill="#0072b2" fill-rule="evenodd"/>
  <path id="Caminho_4379" data-name="Caminho 4379" d="M92.77,132.656l6.837,62.285a117.138,117.138,0,0,0,17.615-3.3L103.046,130.79a61.063,61.063,0,0,1-10.276,1.866" transform="translate(36.41 51.332)" fill="#005293" fill-rule="evenodd"/>
  <path id="Caminho_4380" data-name="Caminho 4380" d="M611.343,170.586a.61.61,0,0,1-.181.446,1.265,1.265,0,0,1-.585.32,5.7,5.7,0,0,1-1.086.195c-.459.042-1.044.056-1.741.056s-1.281-.014-1.741-.056a5.493,5.493,0,0,1-1.086-.195,1.265,1.265,0,0,1-.585-.32.671.671,0,0,1-.181-.446v-33.67a.641.641,0,0,1,.181-.46,1.268,1.268,0,0,1,.585-.334,5.456,5.456,0,0,1,1.086-.223,18.174,18.174,0,0,1,3.481,0,5.246,5.246,0,0,1,1.086.223,1.268,1.268,0,0,1,.585.334.735.735,0,0,1,.181.46v33.67Zm-26.722-9.719h-2.729a17.6,17.6,0,0,0-2.952.223,6.041,6.041,0,0,0-1.991.7,2.761,2.761,0,0,0-1.114,1.114,3.064,3.064,0,0,0-.362,1.49,2.718,2.718,0,0,0,1.017,2.256,4.246,4.246,0,0,0,2.8.822,5.573,5.573,0,0,0,2.771-.7,11.174,11.174,0,0,0,2.576-2.033v-3.885Zm7.06,9.8a.667.667,0,0,1-.279.557,2.087,2.087,0,0,1-.905.292,14.605,14.605,0,0,1-1.824.084,14.765,14.765,0,0,1-1.866-.084,1.589,1.589,0,0,1-.822-.292.672.672,0,0,1-.237-.557v-1.81a11.263,11.263,0,0,1-8.035,3.175,13.587,13.587,0,0,1-3.718-.473,8.652,8.652,0,0,1-2.924-1.406,6.416,6.416,0,0,1-1.922-2.312,7.188,7.188,0,0,1-.682-3.217,6.3,6.3,0,0,1,3.467-5.9,13.752,13.752,0,0,1,4.275-1.42,33.946,33.946,0,0,1,5.946-.46h2.479v-1.379a7.038,7.038,0,0,0-.237-1.894,3.138,3.138,0,0,0-.794-1.351,3.344,3.344,0,0,0-1.476-.794,8.854,8.854,0,0,0-2.284-.251,13.08,13.08,0,0,0-3.2.362,18.865,18.865,0,0,0-2.493.794c-.724.292-1.323.557-1.81.794a2.915,2.915,0,0,1-1.184.362.863.863,0,0,1-.557-.181,1.263,1.263,0,0,1-.4-.515,3.029,3.029,0,0,1-.237-.822,6.322,6.322,0,0,1-.084-1.072,4.315,4.315,0,0,1,.139-1.253,2.021,2.021,0,0,1,.529-.835A5.194,5.194,0,0,1,571.95,148a18.543,18.543,0,0,1,2.339-.835,23.309,23.309,0,0,1,6.2-.877,21.792,21.792,0,0,1,5.124.529,8.967,8.967,0,0,1,3.481,1.615,6.193,6.193,0,0,1,2.005,2.8,11.827,11.827,0,0,1,.627,4.066v15.359Zm-34-.084a.609.609,0,0,1-.181.446,1.282,1.282,0,0,1-.571.32,5.494,5.494,0,0,1-1.086.195c-.459.042-1.044.056-1.741.056s-1.323-.014-1.782-.056a5.661,5.661,0,0,1-1.1-.195,1.139,1.139,0,0,1-.571-.32.645.645,0,0,1-.153-.446V157.052a8.994,8.994,0,0,0-.237-2.1,4.385,4.385,0,0,0-.738-1.629,3.475,3.475,0,0,0-1.239-1.058,3.978,3.978,0,0,0-1.8-.362,4.434,4.434,0,0,0-2.59.905,16.086,16.086,0,0,0-2.841,2.6v15.178a.61.61,0,0,1-.181.446,1.265,1.265,0,0,1-.585.32,5.66,5.66,0,0,1-1.1.195c-.46.042-1.03.056-1.713.056s-1.295-.014-1.755-.056a5.661,5.661,0,0,1-1.1-.195,1.265,1.265,0,0,1-.585-.32.671.671,0,0,1-.181-.446V157.052a8.994,8.994,0,0,0-.237-2.1,4.6,4.6,0,0,0-.724-1.629,3.255,3.255,0,0,0-1.239-1.058,4.059,4.059,0,0,0-1.8-.362,4.513,4.513,0,0,0-2.618.905,15.587,15.587,0,0,0-2.827,2.6v15.178a.61.61,0,0,1-.181.446,1.265,1.265,0,0,1-.585.32,5.7,5.7,0,0,1-1.086.195c-.46.042-1.044.056-1.741.056s-1.281-.014-1.741-.056a5.492,5.492,0,0,1-1.086-.195,1.265,1.265,0,0,1-.585-.32.671.671,0,0,1-.181-.446V147.736a.708.708,0,0,1,.139-.446,1.007,1.007,0,0,1,.5-.32,4.683,4.683,0,0,1,.947-.195,14.684,14.684,0,0,1,1.476-.056,14.931,14.931,0,0,1,1.5.056,3.833,3.833,0,0,1,.933.195,1.132,1.132,0,0,1,.473.32.708.708,0,0,1,.139.446v2.632a16.653,16.653,0,0,1,4.205-3.063,9.881,9.881,0,0,1,4.386-1.016,12.507,12.507,0,0,1,2.827.292,8.909,8.909,0,0,1,2.242.835,7.26,7.26,0,0,1,1.7,1.309,7.722,7.722,0,0,1,1.2,1.713,18.666,18.666,0,0,1,2.242-1.88,13.925,13.925,0,0,1,2.172-1.295,10.577,10.577,0,0,1,2.144-.738,9.485,9.485,0,0,1,2.186-.251,10.527,10.527,0,0,1,4.275.766,7.261,7.261,0,0,1,2.8,2.089,7.9,7.9,0,0,1,1.532,3.077,14.812,14.812,0,0,1,.46,3.732v14.607ZM505.334,139.98a3.353,3.353,0,0,1-.891,2.687,5.278,5.278,0,0,1-3.286.738,5.37,5.37,0,0,1-3.272-.71,3.27,3.27,0,0,1-.849-2.59,3.435,3.435,0,0,1,.877-2.7,7.59,7.59,0,0,1,6.559-.014,3.27,3.27,0,0,1,.849,2.59Zm-.585,30.607a.61.61,0,0,1-.181.446,1.265,1.265,0,0,1-.585.32,5.7,5.7,0,0,1-1.086.195c-.459.042-1.044.056-1.741.056s-1.281-.014-1.741-.056a5.493,5.493,0,0,1-1.086-.195,1.265,1.265,0,0,1-.585-.32.671.671,0,0,1-.181-.446V147.792a.61.61,0,0,1,.181-.446,1.268,1.268,0,0,1,.585-.334,5.454,5.454,0,0,1,1.086-.223,18.175,18.175,0,0,1,3.481,0,5.244,5.244,0,0,1,1.086.223,1.158,1.158,0,0,1,.585.334.671.671,0,0,1,.181.446Zm-19.536,0a.61.61,0,0,1-.181.446,1.283,1.283,0,0,1-.571.32,5.633,5.633,0,0,1-1.114.195c-.473.042-1.044.056-1.727.056s-1.295-.014-1.755-.056a5.633,5.633,0,0,1-1.114-.195,1.283,1.283,0,0,1-.571-.32.671.671,0,0,1-.181-.446v-13.02a9.36,9.36,0,0,0-.279-2.618,4.665,4.665,0,0,0-.78-1.629,3.411,3.411,0,0,0-1.323-1.058,4.464,4.464,0,0,0-1.894-.362,5.03,5.03,0,0,0-2.771.905,14.5,14.5,0,0,0-2.9,2.6v15.178a.61.61,0,0,1-.181.446,1.265,1.265,0,0,1-.585.32,5.694,5.694,0,0,1-1.086.195c-.459.042-1.044.056-1.741.056s-1.281-.014-1.741-.056a5.492,5.492,0,0,1-1.086-.195,1.265,1.265,0,0,1-.585-.32.671.671,0,0,1-.181-.446V147.736a.805.805,0,0,1,.139-.446,1.007,1.007,0,0,1,.5-.32,4.682,4.682,0,0,1,.947-.195,14.678,14.678,0,0,1,1.476-.056,14.926,14.926,0,0,1,1.5.056,3.832,3.832,0,0,1,.933.195,1.132,1.132,0,0,1,.473.32.708.708,0,0,1,.139.446v2.632a15.83,15.83,0,0,1,4.289-3.063,10.535,10.535,0,0,1,4.539-1.016,10.977,10.977,0,0,1,4.372.766,7.563,7.563,0,0,1,2.882,2.089,8.173,8.173,0,0,1,1.574,3.077,16.345,16.345,0,0,1,.487,4.247v14.106Zm-51.285-25.956H433.9l-5.138,14.092h10.346Zm16.932,24.313a8.523,8.523,0,0,1,.432,1.462.823.823,0,0,1-.223.808,1.986,1.986,0,0,1-1.114.334c-.529.042-1.267.056-2.186.056-.975,0-1.727,0-2.27-.042a7.061,7.061,0,0,1-1.239-.153,1.272,1.272,0,0,1-.6-.32,1.579,1.579,0,0,1-.279-.529L440.96,163.9H427.049l-2.326,6.475a1.853,1.853,0,0,1-.306.6,1.154,1.154,0,0,1-.6.39,5.044,5.044,0,0,1-1.17.195c-.5.042-1.17.056-1.991.056a19.178,19.178,0,0,1-2.047-.084,1.71,1.71,0,0,1-1.017-.362.919.919,0,0,1-.209-.835,8.014,8.014,0,0,1,.432-1.434l11.363-29.4a1.953,1.953,0,0,1,.4-.7,1.291,1.291,0,0,1,.724-.4,6.275,6.275,0,0,1,1.392-.181c.585-.028,1.365-.028,2.339-.028,1.114,0,2.019,0,2.674.028a7.862,7.862,0,0,1,1.56.181,1.576,1.576,0,0,1,.794.418,2.327,2.327,0,0,1,.4.766l11.4,29.367Zm-75.194-12.268a6.128,6.128,0,0,0-1.211-4.261,4.9,4.9,0,0,0-4.01-1.56,5.675,5.675,0,0,0-2.381.46,4.792,4.792,0,0,0-1.7,1.239,5.383,5.383,0,0,0-1.016,1.838,8.513,8.513,0,0,0-.418,2.27h10.736Zm6.948,1.838a2.326,2.326,0,0,1-.585,1.741,2.218,2.218,0,0,1-1.615.571h-15.5a8.227,8.227,0,0,0,.39,2.632,4.977,4.977,0,0,0,1.211,2.005,5.291,5.291,0,0,0,2.172,1.253,10.177,10.177,0,0,0,3.175.432,19.592,19.592,0,0,0,3.314-.251,22.322,22.322,0,0,0,2.465-.543c.7-.195,1.267-.376,1.727-.543a3.4,3.4,0,0,1,1.114-.251.953.953,0,0,1,.432.084.737.737,0,0,1,.292.32,2.053,2.053,0,0,1,.153.641c.028.278.042.641.042,1.058,0,.376,0,.7-.028.961a3.964,3.964,0,0,1-.084.668,1.347,1.347,0,0,1-.167.473,2.425,2.425,0,0,1-.306.376,3.958,3.958,0,0,1-1.017.487,18.824,18.824,0,0,1-2.117.613c-.849.195-1.824.376-2.924.529a25.771,25.771,0,0,1-3.537.223,20.546,20.546,0,0,1-5.946-.766,10.691,10.691,0,0,1-4.261-2.325,9.483,9.483,0,0,1-2.548-3.941,16.893,16.893,0,0,1-.835-5.584,15.419,15.419,0,0,1,.891-5.486,10.921,10.921,0,0,1,6.656-6.726,17.377,17.377,0,0,1,10.9-.056,9.992,9.992,0,0,1,3.732,2.339A9.422,9.422,0,0,1,381.961,153a13.845,13.845,0,0,1,.682,4.456v1.017Zm-43.125-3.175a15.111,15.111,0,0,0-2.952-2.66,5.336,5.336,0,0,0-2.952-.919,4.533,4.533,0,0,0-2.409.627,4.8,4.8,0,0,0-1.629,1.671,8.628,8.628,0,0,0-.919,2.339,11.178,11.178,0,0,0-.306,2.646,15.238,15.238,0,0,0,.251,2.785,8.44,8.44,0,0,0,.849,2.423,4.588,4.588,0,0,0,1.56,1.7,4.306,4.306,0,0,0,2.451.641,4.953,4.953,0,0,0,1.434-.195,5.473,5.473,0,0,0,1.42-.627,9.331,9.331,0,0,0,1.5-1.142,22.45,22.45,0,0,0,1.685-1.727v-7.575Zm7.116,15.262a.79.79,0,0,1-.139.473.975.975,0,0,1-.473.32,4.249,4.249,0,0,1-.933.181,13.967,13.967,0,0,1-1.434.056,14.452,14.452,0,0,1-1.49-.056,4.275,4.275,0,0,1-.919-.181,1.076,1.076,0,0,1-.5-.32.715.715,0,0,1-.167-.487v-2.548a15.969,15.969,0,0,1-4.122,2.938,11.906,11.906,0,0,1-9.692.028,9.128,9.128,0,0,1-3.286-2.729,11.088,11.088,0,0,1-1.838-4,20.118,20.118,0,0,1-.571-4.818,18.94,18.94,0,0,1,.724-5.472,11.85,11.85,0,0,1,2.117-4.136,9.21,9.21,0,0,1,3.481-2.632,11.712,11.712,0,0,1,4.79-.919,9.423,9.423,0,0,1,3.871.78,13.978,13.978,0,0,1,3.453,2.284V137.028a.68.68,0,0,1,.153-.46,1.211,1.211,0,0,1,.571-.334,5.454,5.454,0,0,1,1.086-.223,18.175,18.175,0,0,1,3.481,0,5.244,5.244,0,0,1,1.086.223,1.156,1.156,0,0,1,.557.334.735.735,0,0,1,.181.46V170.6Zm-47.344-34.06a2.311,2.311,0,0,1,.487-.487,1.967,1.967,0,0,1,.71-.32,5.978,5.978,0,0,1,1.086-.167c.432-.028.961-.056,1.6-.056a15.3,15.3,0,0,1,2.047.111,3.27,3.27,0,0,1,1.086.292.491.491,0,0,1,.292.46.938.938,0,0,1-.279.529l-5.514,5.946a2.614,2.614,0,0,1-.46.432,1.635,1.635,0,0,1-.585.265,7.73,7.73,0,0,1-.891.153,12.543,12.543,0,0,1-1.365.056,11.573,11.573,0,0,1-1.573-.084,1.842,1.842,0,0,1-.822-.251A.427.427,0,0,1,294.9,143a1.356,1.356,0,0,1,.306-.6l4.066-5.876Zm10.708,34.06a.8.8,0,0,1-.139.446.946.946,0,0,1-.5.32,4.13,4.13,0,0,1-.947.195,14.385,14.385,0,0,1-1.462.056c-.627,0-1.142-.014-1.532-.056a3.851,3.851,0,0,1-.919-.195,1.024,1.024,0,0,1-.487-.32.708.708,0,0,1-.139-.446v-2.632a16.139,16.139,0,0,1-4.289,3.063,10.565,10.565,0,0,1-4.526,1.017,11.1,11.1,0,0,1-4.414-.766,7.45,7.45,0,0,1-2.882-2.1,8.279,8.279,0,0,1-1.573-3.077,17.538,17.538,0,0,1-.473-4.372V147.75a.645.645,0,0,1,.153-.446,1.282,1.282,0,0,1,.571-.32,5.831,5.831,0,0,1,1.114-.195c.473-.042,1.044-.056,1.727-.056s1.281.014,1.741.056a5.661,5.661,0,0,1,1.1.195,1.265,1.265,0,0,1,.585.32.671.671,0,0,1,.181.446v12.908a11.237,11.237,0,0,0,.251,2.729,4.452,4.452,0,0,0,.794,1.629,3.456,3.456,0,0,0,1.337,1.058,4.422,4.422,0,0,0,1.894.362,5.043,5.043,0,0,0,2.757-.891,15.864,15.864,0,0,0,2.952-2.6V147.75a.645.645,0,0,1,.153-.446,1.206,1.206,0,0,1,.571-.32,5.7,5.7,0,0,1,1.086-.195c.459-.042,1.044-.056,1.741-.056s1.281.014,1.741.056a5.493,5.493,0,0,1,1.086.195,1.151,1.151,0,0,1,.557.32.671.671,0,0,1,.181.446V170.6Zm-43.654-9.719h-2.729a17.6,17.6,0,0,0-2.952.223,6.04,6.04,0,0,0-1.991.7,2.761,2.761,0,0,0-1.114,1.114,3.064,3.064,0,0,0-.362,1.49,2.718,2.718,0,0,0,1.016,2.256,4.246,4.246,0,0,0,2.8.822,5.574,5.574,0,0,0,2.771-.7,11.175,11.175,0,0,0,2.576-2.033v-3.885Zm7.06,9.8a.667.667,0,0,1-.279.557,2.087,2.087,0,0,1-.905.292,14.605,14.605,0,0,1-1.824.084,14.764,14.764,0,0,1-1.866-.084,1.59,1.59,0,0,1-.822-.292.672.672,0,0,1-.237-.557v-1.81a11.263,11.263,0,0,1-8.035,3.175,13.657,13.657,0,0,1-3.718-.473,8.651,8.651,0,0,1-2.924-1.406,6.416,6.416,0,0,1-1.922-2.312,7.188,7.188,0,0,1-.682-3.217,6.3,6.3,0,0,1,3.467-5.9,13.628,13.628,0,0,1,4.275-1.42,33.946,33.946,0,0,1,5.946-.46h2.479v-1.379a7.04,7.04,0,0,0-.237-1.894,3.139,3.139,0,0,0-.794-1.351,3.343,3.343,0,0,0-1.476-.794,8.853,8.853,0,0,0-2.284-.251,13.08,13.08,0,0,0-3.2.362,18.858,18.858,0,0,0-2.493.794c-.724.292-1.323.557-1.81.794a2.915,2.915,0,0,1-1.184.362.863.863,0,0,1-.557-.181,1.262,1.262,0,0,1-.4-.515,3.027,3.027,0,0,1-.237-.822,6.326,6.326,0,0,1-.084-1.072,4.318,4.318,0,0,1,.139-1.253,2.021,2.021,0,0,1,.529-.835,5.2,5.2,0,0,1,1.406-.808,18.543,18.543,0,0,1,2.339-.835,23.309,23.309,0,0,1,6.2-.877,21.792,21.792,0,0,1,5.124.529,8.967,8.967,0,0,1,3.481,1.615,6.193,6.193,0,0,1,2.005,2.8,11.825,11.825,0,0,1,.627,4.066V170.67Zm-32.264-9.149a9.325,9.325,0,0,1-1.086,4.581,9.9,9.9,0,0,1-2.938,3.286,13.512,13.512,0,0,1-4.345,1.977,21.581,21.581,0,0,1-8.87.376,21.625,21.625,0,0,1-2.9-.7,13.744,13.744,0,0,1-2.1-.835,6.318,6.318,0,0,1-1.211-.78,2.045,2.045,0,0,1-.529-.975,7.506,7.506,0,0,1-.153-1.8,11.735,11.735,0,0,1,.056-1.323,4.015,4.015,0,0,1,.181-.877,1.062,1.062,0,0,1,.334-.473.848.848,0,0,1,.5-.139,2.457,2.457,0,0,1,1.128.432c.487.278,1.114.6,1.866.933a18.768,18.768,0,0,0,2.729.933,13.766,13.766,0,0,0,3.662.432,9.387,9.387,0,0,0,2.451-.292,5.809,5.809,0,0,0,1.852-.835,3.622,3.622,0,0,0,1.156-1.323,3.872,3.872,0,0,0,.4-1.755,2.886,2.886,0,0,0-.682-1.936,6.519,6.519,0,0,0-1.8-1.434,20.155,20.155,0,0,0-2.506-1.184c-.919-.362-1.894-.752-2.882-1.156a30.525,30.525,0,0,1-2.882-1.392,11.514,11.514,0,0,1-2.506-1.866,8.726,8.726,0,0,1-1.8-2.576,8.371,8.371,0,0,1-.682-3.551,8.577,8.577,0,0,1,.989-4.177,8.944,8.944,0,0,1,2.646-2.994,11.808,11.808,0,0,1,3.927-1.782,19.161,19.161,0,0,1,4.8-.585,18.522,18.522,0,0,1,2.618.181,17.34,17.34,0,0,1,2.451.487,14.178,14.178,0,0,1,2.019.7,5.566,5.566,0,0,1,1.17.641,2.261,2.261,0,0,1,.376.432,2.122,2.122,0,0,1,.181.487,3.272,3.272,0,0,1,.1.738c.014.292.028.668.028,1.114a11.229,11.229,0,0,1-.042,1.253,5.385,5.385,0,0,1-.139.849.947.947,0,0,1-.278.473.721.721,0,0,1-.5.153,2.605,2.605,0,0,1-.989-.362c-.46-.237-1.017-.5-1.685-.78a18.724,18.724,0,0,0-2.312-.766,10.977,10.977,0,0,0-2.882-.348,7.589,7.589,0,0,0-2.144.265,4.82,4.82,0,0,0-1.518.738,3.012,3.012,0,0,0-.919,1.142,3.283,3.283,0,0,0-.306,1.406,2.873,2.873,0,0,0,.668,1.908,6.394,6.394,0,0,0,1.8,1.448,21.174,21.174,0,0,0,2.562,1.17c.947.362,1.922.766,2.91,1.156a29.3,29.3,0,0,1,2.91,1.392,11.9,11.9,0,0,1,2.548,1.866,8.66,8.66,0,0,1,1.8,2.562,8.044,8.044,0,0,1,.682,3.453Z" transform="translate(85.159 53.184)" fill="#fff"/>
  <path id="Caminho_4381" data-name="Caminho 4381" d="M849.892,96.825c0-30.7-22.99-40.813-43.571-40.813s-33.754,8.494-39.978,16.974h-.724L764.185,58.17H740c.474,8.494.961,16.974.961,27.989v71.518h27.766V97.716c0-15.888,14.607-24.382,28.253-24.382,18.91,0,25.134,11.92,25.134,26.011v58.331h27.78V96.811ZM707.33,58.183l-21.3,55.991c-2.4,6.684-5.027,14.092-6.948,19.871h-.724c-1.922-5.779-4.553-13.368-7.185-19.871L647.231,58.183H616.819l45.255,91.736a7.978,7.978,0,0,1,1.434,4.331c0,2.715-10.29,22.934-39.031,30.7l7.185,17.7a79.416,79.416,0,0,0,30.648-12.825c15.8-11.558,26.819-29.98,42.373-62.661l31.846-68.983H707.317ZM612.182,23.692c-7.9-3.063-21.068-6.322-38.544-6.322-36.4,0-59.612,16.431-59.612,38.293,0,18.785,18.436,31.247,45.729,39.546,21.792,6.865,31.122,14.092,31.122,25.83,0,12.463-12.212,20.943-34,20.943-15.08,0-29.924-3.607-39.741-8.132l-6.224,17.517c8.856,4.512,27.056,8.313,44.295,8.313,41.176,0,63.929-17.336,63.929-40.451,0-18.966-14.12-31.066-43.571-40.813-23.226-7.589-33.517-13.368-33.517-25.106,0-8.842,9.093-18.422,30.885-18.422a85.179,85.179,0,0,1,32.556,6.141l6.7-17.336ZM477.53,107.672c0,19.871-12.449,36.3-32.556,36.3s-32.556-16.431-32.556-35.94c0-17.155,9.093-36.3,32.807-36.3s32.319,19.509,32.319,35.94ZM446.171,56.025c-34.951,0-62.244,18.966-62.244,52.552s26.1,51.1,60.336,51.1c29.688,0,61.77-15.345,61.77-52.552C506.034,76.606,482.334,56.025,446.171,56.025ZM371.841,58.2h-27.78V157.7h27.78V58.183Zm2.4-27.446c0-7.046-6.461-12.282-16.041-12.282s-16.278,5.236-16.278,12.282c0,6.684,6.461,12.1,16.041,12.1C368.012,42.852,374.236,37.436,374.236,30.752ZM244.123,92.7h16.041c21.3,0,42.136,6.684,42.136,24.925s-19.16,25.287-41.426,25.287a136.248,136.248,0,0,1-16.765-.724V92.7Zm0-15.526V35.458a114.721,114.721,0,0,1,17.963-1.086c17.239,0,34.951,4.15,34.951,20.776,0,12.825-13.883,22.029-35.912,22.029h-17Zm50.519,5.96C313.8,77.72,324.8,66.162,324.8,52.976c0-13.911-9.58-34.492-65.363-34.492a302.844,302.844,0,0,0-42.86,2.882V157.356c7.9.724,20.107,1.629,36.385,1.629,30.161,0,50.282-4.15,62.494-13.006,6.7-4.693,15.8-13.187,15.8-27.808,0-19.328-17.476-30.885-36.636-34.492v-.543Z" transform="translate(85.002 6.817)" fill="#fff"/>
</svg>
