<svg xmlns="http://www.w3.org/2000/svg" xmlns:xlink="http://www.w3.org/1999/xlink" width="428.543" height="195.492" viewBox="0 0 428.543 195.492">
  <defs>
    <clipPath id="clip-path">
      <rect id="Ret창ngulo_3198" data-name="Ret창ngulo 3198" width="428.543" height="195.492" transform="translate(716.94 288)" fill="none"/>
    </clipPath>
    <clipPath id="clip-path-2">
      <rect id="Ret창ngulo_3197" data-name="Ret창ngulo 3197" width="428.75" height="195.5" transform="translate(716.75 288)" fill="none"/>
    </clipPath>
  </defs>
  <g id="Grupo_10132" data-name="Grupo 10132" transform="translate(-716.94 -288)">
    <g id="Grupo_10131" data-name="Grupo 10131" clip-path="url(#clip-path)">
      <g id="Grupo_10130" data-name="Grupo 10130" style="isolation: isolate">
        <g id="Grupo_10129" data-name="Grupo 10129">
          <g id="Grupo_10128" data-name="Grupo 10128" clip-path="url(#clip-path-2)">
            <path id="Caminho_4359" data-name="Caminho 4359" d="M929.373,404.691a31.985,31.985,0,0,0,10.137,23.654,33.116,33.116,0,0,0,24.1,9.912,32.666,32.666,0,0,0,23.654-9.687,32.216,32.216,0,0,0,9.912-23.653,32.893,32.893,0,0,0-9.912-24.1,32.444,32.444,0,0,0-23.879-9.912,33.116,33.116,0,0,0-24.1,9.912,32.67,32.67,0,0,0-10.138,24.1m-45.054-.451a79.178,79.178,0,0,1,79.3-79.3,76.587,76.587,0,0,1,43.477,13.066,80.194,80.194,0,0,1,29.286,35.368,76.15,76.15,0,0,1,6.082,31.087,77.49,77.49,0,0,1-10.588,39.423,78.392,78.392,0,0,1-28.609,28.835,77.273,77.273,0,0,1-39.873,10.588,78.086,78.086,0,0,1-79.071-79.071" fill="#353535"/>
            <path id="Caminho_4360" data-name="Caminho 4360" d="M816.06,427.894a32.659,32.659,0,0,1-23.878,9.912,33.114,33.114,0,0,1-24.1-9.912,31.989,31.989,0,0,1-10.137-23.653,32.665,32.665,0,0,1,10.137-23.879,33.114,33.114,0,0,1,24.1-9.912,32.437,32.437,0,0,1,23.878,9.912,32.883,32.883,0,0,1,9.912,24.1,32.209,32.209,0,0,1-9.912,23.428M830.027,288v45.28h-.676l-5.406-2.028-4.956-1.577-6.984-2.027-6.758-1.126-10.137-.451a78.652,78.652,0,0,0-22.3,3.379h-.451l-2.477.9A81.325,81.325,0,0,0,728.2,364.593a85.242,85.242,0,0,0-4.956,9.912,77.5,77.5,0,0,0-6.308,30.412v.9a23,23,0,0,1,.226,4.054,77.041,77.041,0,0,0,22.076,49.56,83.1,83.1,0,0,0,10.588,9.462l6.758,4.28a77.953,77.953,0,0,0,25.006,9.011l5.857.676h13.967A76.827,76.827,0,0,0,836.11,472.5a78.172,78.172,0,0,0,28.384-28.159,77.254,77.254,0,0,0,6.983-15.994,78.18,78.18,0,0,0,3.38-23.2V288Z" fill="#353535"/>
            <path id="Caminho_4361" data-name="Caminho 4361" d="M1100.354,460.559a19.374,19.374,0,0,0,6.083,14.192,20.049,20.049,0,0,0,14.643,6.082,19.821,19.821,0,0,0,14.417-5.857,19.6,19.6,0,0,0,6.082-14.417,19.821,19.821,0,0,0-6.082-14.418,19.6,19.6,0,0,0-14.417-6.082,20.049,20.049,0,0,0-14.643,6.082,19.825,19.825,0,0,0-6.083,14.418" fill="#88c125"/>
            <path id="Caminho_4362" data-name="Caminho 4362" d="M1104.184,477.454a22.75,22.75,0,0,1-6.984-16.67,23.846,23.846,0,0,1,23.654-23.879,32.662,32.662,0,0,1-13.066-6.758l-1.352-1.126-.676-.676-.45-.451-.676-.675h-.225a31.989,31.989,0,0,1-9.011-22.978,34.242,34.242,0,0,1,27.934-33.341V326.3h-2.253l-6.758,1.127-6.984,1.8-4.956,1.577-5.406,2.027h-.676V288h-45.054V404.917a78.147,78.147,0,0,0,3.379,23.2c.675,2.027,1.351,3.829,2.027,5.631a79.582,79.582,0,0,0,5.181,10.588,78.4,78.4,0,0,0,28.61,28.835,76.606,76.606,0,0,0,18.7,7.885,25.013,25.013,0,0,1-5.182-3.83" fill="#353535"/>
          </g>
        </g>
      </g>
    </g>
  </g>
</svg>
