<svg xmlns="http://www.w3.org/2000/svg" xmlns:xlink="http://www.w3.org/1999/xlink" width="184.647" height="231.168" viewBox="0 0 184.647 231.168">
  <defs>
    <clipPath id="clip-path">
      <rect id="Ret창ngulo_3200" data-name="Ret창ngulo 3200" width="184.648" height="231.168" transform="translate(716.29 424.416)" fill="none"/>
    </clipPath>
    <clipPath id="clip-path-2">
      <rect id="Ret창ngulo_3199" data-name="Ret창ngulo 3199" width="184.75" height="231.5" transform="translate(716.25 424.25)" fill="none"/>
    </clipPath>
  </defs>
  <g id="Grupo_10137" data-name="Grupo 10137" transform="translate(-716.29 -424.416)">
    <g id="Grupo_10136" data-name="Grupo 10136" clip-path="url(#clip-path)">
      <g id="Grupo_10135" data-name="Grupo 10135" style="isolation: isolate">
        <g id="Grupo_10134" data-name="Grupo 10134">
          <g id="Grupo_10133" data-name="Grupo 10133" clip-path="url(#clip-path-2)">
            <path id="Caminho_4363" data-name="Caminho 4363" d="M832.127,587.809a37.992,37.992,0,0,1-27.9,11.424,38.79,38.79,0,0,1-28.163-11.69,37.462,37.462,0,0,1-11.955-27.365,39.912,39.912,0,0,1,39.852-39.852,37.727,37.727,0,0,1,27.9,11.69,38.522,38.522,0,0,1,11.69,28.162,37.723,37.723,0,0,1-11.69,27.631m15.941,44.1a27.524,27.524,0,0,1,40.383-24.177l.532-.8a89.807,89.807,0,0,0,12.221-45.963V424.416h-52.6v52.87h-.8l-6.376-2.657-5.845-1.594-7.97-2.125-7.971-1.329-11.69-.531a91.944,91.944,0,0,0-26.036,3.985h-.532l-2.922,1.063a94.852,94.852,0,0,0-48.885,39.852,98.842,98.842,0,0,0-5.845,11.424,90.336,90.336,0,0,0-7.174,35.6v1.063a26.847,26.847,0,0,1,.266,4.782,90.066,90.066,0,0,0,25.771,57.653,96.756,96.756,0,0,0,12.221,10.893l7.971,5.048a90.877,90.877,0,0,0,29.225,10.627l6.907.8h16.472a89.537,89.537,0,0,0,35.336-9.565,26.021,26.021,0,0,1-2.391-11.158" fill="#353535"/>
            <path id="Caminho_4364" data-name="Caminho 4364" d="M850.99,631.912a22.584,22.584,0,0,0,7.173,16.738,23.377,23.377,0,0,0,17,6.907,23.114,23.114,0,0,0,16.738-6.907,22.85,22.85,0,0,0,6.907-16.738,23.379,23.379,0,0,0-6.907-17,22.848,22.848,0,0,0-16.738-7.173,23.381,23.381,0,0,0-17,7.173,23.119,23.119,0,0,0-7.173,17" fill="#88c125"/>
          </g>
        </g>
      </g>
    </g>
  </g>
</svg>
