<svg xmlns="http://www.w3.org/2000/svg" width="148.094" height="58.262" viewBox="0 0 148.094 58.262">
  <g id="logo_Step1-01_1_" data-name="logo Step1-01 (1)" transform="translate(-5.2 -1.3)">
    <g id="Grupo_10055" data-name="Grupo 10055" transform="translate(5.2 2.104)">
      <path id="Caminho_4341" data-name="Caminho 4341" d="M20.038,17.446c-6.8-1.148-8.065-2.612-8.065-4.994,0-2.87,2.64-4.334,6.917-4.334,6.257,0,7.491,2.64,8.122,4.621h5.195C31.863,9.467,29.337,4.1,19,4.1c-6.917,0-12.341,3.186-12.341,8.868,0,4.248,2.21,7.319,11.968,8.955,7.72,1.32,9.356,3.042,9.356,5.912,0,2.7-2.124,4.85-7.979,4.85-5.912,0-8.467-2.382-9.529-5.826H5.2C6.176,32.6,10.6,36.7,19.579,36.7c9.672,0,13.719-4.334,13.719-9.385C33.326,22.956,31.461,19.426,20.038,17.446Z" transform="translate(-5.2 -4.1)" fill="#2eca79"/>
      <path id="Caminho_4342" data-name="Caminho 4342" d="M100.5,10.776h11.71V37.783h5.166V10.776h11.71V6.5H100.5Z" transform="translate(-73.149 -5.811)" fill="#2eca79"/>
      <path id="Caminho_4343" data-name="Caminho 4343" d="M316.239,6.5H301.2V37.783h5.195V25.557h9.93c7.118,0,11.423-3.473,11.423-9.7C327.748,10.432,323.9,6.5,316.239,6.5Zm-.545,14.809h-9.3V10.719h9.3c4.621,0,6.8,1.894,6.8,5.195C322.5,20.133,319.769,21.309,315.694,21.309Z" transform="translate(-216.247 -5.811)" fill="#2eca79"/>
    </g>
    <g id="Grupo_10058" data-name="Grupo 10058" transform="translate(90.784 47.106)">
      <g id="Grupo_10056" data-name="Grupo 10056" transform="translate(0 0.258)">
        <path id="Caminho_4344" data-name="Caminho 4344" d="M304.261,170.381V171.5H303.4v-9.7h.861v3.9a3,3,0,0,1,2.411-1.234,3.565,3.565,0,0,1,0,7.118A2.613,2.613,0,0,1,304.261,170.381Zm2.382.43a2.772,2.772,0,1,0-2.468-2.755A2.466,2.466,0,0,0,306.643,170.812Z" transform="translate(-303.4 -161.8)" fill="#ffffff"/>
        <path id="Caminho_4345" data-name="Caminho 4345" d="M334.285,171.5l-3.616,9.414h-.89l.947-2.5L328,171.5h.918l2.239,5.74,2.21-5.74Z" transform="translate(-320.94 -168.716)" fill="#ffffff"/>
      </g>
      <g id="Grupo_10057" data-name="Grupo 10057" transform="translate(17.565 0)">
        <path id="Caminho_4346" data-name="Caminho 4346" d="M370.857,163.493h-4.449v2.44h3.9V167.6h-3.9v3.932H364.6V161.8h6.257Z" transform="translate(-364.6 -161.542)" fill="#ffffff"/>
        <path id="Caminho_4347" data-name="Caminho 4347" d="M394.418,175.33v3.329H392.81l-.115-1a2.441,2.441,0,0,1-2.181,1.148,3.284,3.284,0,0,1-3.214-3.5,3.44,3.44,0,0,1,3.559-3.5A3.366,3.366,0,0,1,394.418,175.33Zm-1.779-.029a1.769,1.769,0,0,0-1.751-1.923,1.929,1.929,0,0,0,0,3.846A1.751,1.751,0,0,0,392.638,175.3Z" transform="translate(-380.785 -168.672)" fill="#ffffff"/>
        <path id="Caminho_4348" data-name="Caminho 4348" d="M416.2,171.529V161.8h1.808v9.729Z" transform="translate(-401.391 -161.542)" fill="#ffffff"/>
        <path id="Caminho_4349" data-name="Caminho 4349" d="M425.8,175.3a3.416,3.416,0,0,1,3.53-3.5,3.154,3.154,0,0,1,3.3,2.583H430.88a1.529,1.529,0,0,0-1.492-1,1.927,1.927,0,0,0,0,3.846,1.492,1.492,0,0,0,1.492-1h1.751a3.156,3.156,0,0,1-3.3,2.612A3.457,3.457,0,0,1,425.8,175.3Z" transform="translate(-408.235 -168.672)" fill="#ffffff"/>
        <path id="Caminho_4350" data-name="Caminho 4350" d="M452.5,175.3a3.589,3.589,0,1,1,3.588,3.5A3.448,3.448,0,0,1,452.5,175.3Zm5.367,0a1.812,1.812,0,1,0-1.808,1.923A1.8,1.8,0,0,0,457.867,175.3Z" transform="translate(-427.272 -168.672)" fill="#ffffff"/>
        <path id="Caminho_4351" data-name="Caminho 4351" d="M480.7,178.659v-3.817a3.13,3.13,0,0,1,6.257,0v3.817h-1.808v-3.674c0-.976-.431-1.607-1.32-1.607s-1.32.6-1.32,1.607v3.674Z" transform="translate(-447.379 -168.672)" fill="#ffffff"/>
        <path id="Caminho_4352" data-name="Caminho 4352" d="M505.6,162.019a1.146,1.146,0,0,1,1.148-1.119,1.105,1.105,0,1,1,0,2.21A1.1,1.1,0,0,1,505.6,162.019Zm.23,8.868v-6.716h1.808v6.716Z" transform="translate(-465.133 -160.9)" fill="#ffffff"/>
      </g>
    </g>
    <path id="Caminho_4353" data-name="Caminho 4353" d="M453.168,28.651V5.777h-5.654V1.3H438.1V5.863h9.385V28.651H438.1v5.424h23.85V28.651Z" transform="translate(-308.656)" fill="#2eca79"/>
    <g id="Grupo_10059" data-name="Grupo 10059" transform="translate(63.117 2.792)">
      <path id="Caminho_4354" data-name="Caminho 4354" d="M212.195,23.519h16.847V19.243H212.195V10.776h13.948V6.5H207V37.783h24.912l.029-4.276H212.195Z" transform="translate(-207 -6.5)" fill="#2eca79"/>
    </g>
  </g>
</svg>
