<svg id="Camada_1" data-name="Camada 1" xmlns="http://www.w3.org/2000/svg" xmlns:xlink="http://www.w3.org/1999/xlink" viewBox="0 0 309.95 114.19"><defs><style>.cls-1{fill:#01afaa;}.cls-2{fill:#fff;}.cls-3{fill:url(#Gradiente_sem_nome_118);}.cls-4{isolation:isolate;}</style><linearGradient id="Gradiente_sem_nome_118" x1="-18.98" y1="211.49" x2="-0.42" y2="211.49" gradientTransform="matrix(0.71, 0.71, 0.71, -0.71, -103.37, 191.88)" gradientUnits="userSpaceOnUse"><stop offset="0" stop-color="#fff"/><stop offset="0.09" stop-color="#f7fdfc"/><stop offset="0.22" stop-color="#e3f6f5"/><stop offset="0.38" stop-color="#c0ebea"/><stop offset="0.56" stop-color="#91dcda"/><stop offset="0.76" stop-color="#54c9c6"/><stop offset="0.97" stop-color="#0bb2ad"/><stop offset="1" stop-color="#01afaa"/></linearGradient></defs><rect class="cls-1" width="61.66" height="61.66" rx="11.09"/><path class="cls-2" d="M229.44,18.21a3.08,3.08,0,0,0-3.07,3.07v31a3.07,3.07,0,1,0,6.14,0v-31A3.08,3.08,0,0,0,229.44,18.21Z"/><circle class="cls-2" cx="229.44" cy="9.05" r="3.07"/><path class="cls-2" d="M129,40.13v1c0,2.53,0,5.15,1,7.51a12.46,12.46,0,0,0,4.55,5.3,8.94,8.94,0,0,0,2.61,1.11,7.55,7.55,0,0,0,1.93.28,3,3,0,0,0,2.16-.72,2.87,2.87,0,0,0,.82-2.23,3.12,3.12,0,0,0-.57-1.79,3,3,0,0,0-1.64-1.09l-.42-.13a6.82,6.82,0,0,1-1.46-.55,5.63,5.63,0,0,1-2.68-3.51,15.77,15.77,0,0,1-.21-4.3c0-.57,0-1.1,0-1.62V24.62H139a3.13,3.13,0,0,0,0-6.25h-3.81v-9a3.08,3.08,0,1,0-6.16,0v9h-2.17a3.13,3.13,0,1,0,0,6.25H129V40.13Z"/><path class="cls-1" d="M256.42,18.21A18.57,18.57,0,0,0,256,55.34h.45a18.57,18.57,0,0,0,0-37.13Zm12.39,19.16A12.48,12.48,0,0,1,257,49.16l-.61,0a12.4,12.4,0,1,1,12.4-11.81Z"/><path class="cls-2" d="M213.82,52.27a3.07,3.07,0,0,0,6.14,0V37.83h0c0-.37,0-.71,0-1s0-.69,0-1.05h0V9.05a3.07,3.07,0,0,0-6.14,0V23l-.67-.55A18.55,18.55,0,1,0,201,55.34h.46a18.31,18.31,0,0,0,11.72-4.17l.67-.55v1.65Zm0-14.9A12.48,12.48,0,0,1,202,49.16l-.61,0a12.4,12.4,0,1,1,12.4-11.81Z"/><path class="cls-2" d="M309.94,34.22v-.79a15.61,15.61,0,0,0-15.6-15.22A15.49,15.49,0,0,0,285.46,21l-.53.37-.11-.64a3.11,3.11,0,0,0-6.18.53v30.9a3.11,3.11,0,0,0,6.22,0V35c0-.2,0-.4,0-.62v0c0-.19,0-.37,0-.53a9.49,9.49,0,0,1,9.48-9.48,9.28,9.28,0,0,1,4.38,1.08,9.5,9.5,0,0,1,3.86,3.73h0a12.24,12.24,0,0,1,1.13,5.45v17.6a3.11,3.11,0,0,0,6.22,0v-18Z"/><path class="cls-2" d="M178.91,40.05V21.25a3.32,3.32,0,1,0-6.63,0V38.84a12.16,12.16,0,0,1-1.11,5.37,9.31,9.31,0,0,1-3.78,3.66,9.27,9.27,0,0,1-8.57,0A9.35,9.35,0,0,1,155,44.22a12.1,12.1,0,0,1-1.11-5.38V21.25a3.32,3.32,0,1,0-6.63,0v18.8a15.81,15.81,0,0,0,31.61,0Z"/><path class="cls-2" d="M91.43,51.49a23.24,23.24,0,0,0,11.45,3c.47,0,1,0,1.56-.06h.17c6,0,11.28-2.3,14.07-6.14a12.05,12.05,0,0,0,2.26-7.21v-.18a9.56,9.56,0,0,0-2-6c-2.72-3.46-7.61-5.14-12.81-6.7-6.2-1.89-11.55-3.52-11.55-7.91V20.1c0-2.38,1.33-4.08,3.85-4.91h.07a16.71,16.71,0,0,1,4.39-.59,16.48,16.48,0,0,1,10.36,3.62l.48.39a3.35,3.35,0,0,0,2.17.82,3.22,3.22,0,0,0,2.29-1,3.27,3.27,0,0,0,1-2.44A3.21,3.21,0,0,0,118,13.68l-.12-.1c-.48-.41-1-.8-1.47-1.16a23.12,23.12,0,0,0-13.32-4.36c-8.85.14-15,5.37-15,12.73V21a10.44,10.44,0,0,0,.31,2.59c1.54,6.25,9.13,8.41,14.68,10,6.43,1.8,11.35,3.53,11.35,8.08v.17a6.17,6.17,0,0,1-.24,1.75c-.61,2.05-2.7,4.48-9.24,4.48-.57,0-1.16,0-1.82,0a31.33,31.33,0,0,1-4.25-.49l-.3-.07a16,16,0,0,1-3.91-1.61,3.36,3.36,0,0,0-1.61-.42,3.26,3.26,0,0,0-1.62,6.1Z"/><path class="cls-2" d="M30.83,49.39A18.56,18.56,0,1,1,44,44h0A18.47,18.47,0,0,1,30.83,49.39Zm0-30.95a12.39,12.39,0,1,0,8.77,3.63A12.31,12.31,0,0,0,30.83,18.44Z"/><path class="cls-3" d="M30.83,49.39V43.23A12.4,12.4,0,0,0,39.6,22.07L44,17.71A18.56,18.56,0,0,1,30.83,49.39Z"/><path class="cls-2" d="M50,49.39a3.08,3.08,0,0,1-3.08-3.08V36.6a2.42,2.42,0,0,0-4.83,0v1.52A11.28,11.28,0,0,1,30.83,49.39a3.08,3.08,0,0,1,0-6.16,5.12,5.12,0,0,0,5.11-5.11V36.6a8.59,8.59,0,0,1,17.17,0v9.71A3.08,3.08,0,0,1,50,49.39Z"/><path class="cls-1" d="M44.52,28a8.59,8.59,0,0,1,8.59,8.58v9.71a3.09,3.09,0,0,1-6.17,0V36.6a2.42,2.42,0,0,0-4.83,0v1.52A11.28,11.28,0,0,1,30.83,49.39v1a12.29,12.29,0,0,0,12.3-12.3V36.6a1.4,1.4,0,0,1,1.39-1.39,1.43,1.43,0,0,1,1,.41,1.38,1.38,0,0,1,.4,1v9.71a4.11,4.11,0,1,0,8.22,0V36.6A9.61,9.61,0,0,0,44.52,27h0a9.63,9.63,0,0,0-9.61,9.61v1.52A4.06,4.06,0,0,1,33.72,41l.72.72a5,5,0,0,0,1.5-3.61V36.6A8.57,8.57,0,0,1,44.52,28"/><g id="Group_6888" data-name="Group 6888"><g id="Onboarding" class="cls-4"><g class="cls-4"><path class="cls-2" d="M104.78,109.19a9.34,9.34,0,0,1-3.4,3.65,9.51,9.51,0,0,1-9.77,0,9.25,9.25,0,0,1-3.39-3.65,11.19,11.19,0,0,1,0-10.16,9.34,9.34,0,0,1,3.39-3.66,9.57,9.57,0,0,1,9.77,0,9.44,9.44,0,0,1,3.4,3.66,11.11,11.11,0,0,1,0,10.16Zm-3.16-8.48a6.12,6.12,0,0,0-2.1-2.42,5.6,5.6,0,0,0-6.06,0,6,6,0,0,0-2.08,2.42,8.27,8.27,0,0,0,0,6.84A6,6,0,0,0,93.46,110a5.6,5.6,0,0,0,6.06,0,6.12,6.12,0,0,0,2.1-2.42,8.08,8.08,0,0,0,0-6.8Z"/><path class="cls-2" d="M129.39,94.76a1.57,1.57,0,0,1,.42,1.12V112.2a1.64,1.64,0,0,1-.49,1.22,1.62,1.62,0,0,1-1.21.49,2.22,2.22,0,0,1-.77-.13,1,1,0,0,1-.55-.35l-10.28-13.05v12a1.54,1.54,0,0,1-.43,1.12,1.51,1.51,0,0,1-1.13.45,1.44,1.44,0,0,1-1.1-.45,1.57,1.57,0,0,1-.42-1.12V96a1.68,1.68,0,0,1,.49-1.22,1.66,1.66,0,0,1,1.22-.49,2.2,2.2,0,0,1,.83.17,1.34,1.34,0,0,1,.6.44l10.19,13v-12a1.55,1.55,0,0,1,.44-1.12,1.45,1.45,0,0,1,1.1-.45A1.42,1.42,0,0,1,129.39,94.76Z"/><path class="cls-2" d="M152.4,104.84a4.94,4.94,0,0,1,.93,3.11q0,3.33-1.9,4.64a7.76,7.76,0,0,1-4.54,1.32h-7a1.66,1.66,0,0,1-1.22-.49,1.68,1.68,0,0,1-.49-1.22V96a1.68,1.68,0,0,1,.49-1.22,1.66,1.66,0,0,1,1.22-.49H147c3.54,0,5.32,1.66,5.32,5a4.14,4.14,0,0,1-.6,2.23,4.31,4.31,0,0,1-1.73,1.53A5.69,5.69,0,0,1,152.4,104.84Zm-4.32-6.65a2.15,2.15,0,0,0-1.61-.58h-4.62V102h4.71a2.11,2.11,0,0,0,1.47-.56,1.92,1.92,0,0,0,.63-1.51A2.29,2.29,0,0,0,148.08,98.19ZM149,110a2.66,2.66,0,0,0,.74-2,2.31,2.31,0,0,0-.86-2.16,4.15,4.15,0,0,0-2.13-.5h-4.85v5.4h5A2.86,2.86,0,0,0,149,110Z"/><path class="cls-2" d="M177.55,109.19a9.34,9.34,0,0,1-3.4,3.65,9.51,9.51,0,0,1-9.77,0,9.25,9.25,0,0,1-3.39-3.65A11.19,11.19,0,0,1,161,99a9.34,9.34,0,0,1,3.39-3.66,9.57,9.57,0,0,1,9.77,0,9.44,9.44,0,0,1,3.4,3.66,11.11,11.11,0,0,1,0,10.16Zm-3.16-8.48a6,6,0,0,0-2.1-2.42,5.6,5.6,0,0,0-6.06,0,5.9,5.9,0,0,0-2.07,2.42,8.17,8.17,0,0,0,0,6.84,5.9,5.9,0,0,0,2.07,2.42,5.6,5.6,0,0,0,6.06,0,6,6,0,0,0,2.1-2.42,8,8,0,0,0,0-6.8Z"/><path class="cls-2" d="M201.58,112.4a1.59,1.59,0,0,1-.48,1.19,1.51,1.51,0,0,1-1.09.46,1.43,1.43,0,0,1-.91-.31,2,2,0,0,1-.63-.84L197,109.51h-8.34l-1.46,3.42a1.7,1.7,0,0,1-.6.82,1.44,1.44,0,0,1-.88.3,1.33,1.33,0,0,1-1.48-1.46,1.71,1.71,0,0,1,.08-.53l7-16.74a1.85,1.85,0,0,1,.67-.87,1.44,1.44,0,0,1,1-.25,1.68,1.68,0,0,1,.94.29,1.66,1.66,0,0,1,.63.83l6.89,16.41A1.92,1.92,0,0,1,201.58,112.4ZM190,106.29h5.6l-2.83-6.55Z"/><path class="cls-2" d="M224.1,111.75a1.53,1.53,0,0,1,.21.76,1.46,1.46,0,0,1-.33.92,1.57,1.57,0,0,1-1.29.51,2.44,2.44,0,0,1-1.23-.31c-1.35-.77-2-2.32-2-4.68a2,2,0,0,0-.66-1.59,2.71,2.71,0,0,0-1.89-.59h-5.23v5.43a1.81,1.81,0,0,1-.41,1.23,1.34,1.34,0,0,1-1.08.48,2.14,2.14,0,0,1-1.41-.49,1.51,1.51,0,0,1-.6-1.22V96a1.64,1.64,0,0,1,.49-1.22,1.62,1.62,0,0,1,1.21-.49h8.07a5.2,5.2,0,0,1,2.74.78,5.86,5.86,0,0,1,2.06,2.16,6.2,6.2,0,0,1,.77,3.08,5.51,5.51,0,0,1-.75,2.73,6,6,0,0,1-2,2.11,4.34,4.34,0,0,1,1.94,3.31,5.29,5.29,0,0,1,.08.86,10.93,10.93,0,0,0,.22,1.25,1,1,0,0,0,.51.58A1.59,1.59,0,0,1,224.1,111.75Zm-5.33-8.34a3.48,3.48,0,0,0,.78-1.28,4.61,4.61,0,0,0,.31-1.72,3.3,3.3,0,0,0-.31-1.44,2.83,2.83,0,0,0-.78-1,1.55,1.55,0,0,0-1-.39h-6.13v6.35h6.13A1.39,1.39,0,0,0,218.77,103.41Z"/><path class="cls-2" d="M244.52,95.61a8.37,8.37,0,0,1,2.88,3.53,13,13,0,0,1,0,9.94,8.37,8.37,0,0,1-2.88,3.53,7.77,7.77,0,0,1-4.53,1.3H233.3a1.66,1.66,0,0,1-1.22-.49,1.68,1.68,0,0,1-.49-1.22V96a1.68,1.68,0,0,1,.49-1.22,1.66,1.66,0,0,1,1.22-.49H240A7.77,7.77,0,0,1,244.52,95.61Zm-1,13.22a9.44,9.44,0,0,0,0-9.44,4.28,4.28,0,0,0-3.77-1.86h-4.62v13.16h4.62A4.26,4.26,0,0,0,243.49,108.83Z"/><path class="cls-2" d="M258.78,113.42a1.73,1.73,0,0,1-1.23.49,1.68,1.68,0,0,1-1.74-1.71V96a1.62,1.62,0,0,1,.51-1.22,1.73,1.73,0,0,1,1.28-.49,1.67,1.67,0,0,1,1.21.49,1.65,1.65,0,0,1,.5,1.22V112.2A1.57,1.57,0,0,1,258.78,113.42Z"/><path class="cls-2" d="M283.67,94.76a1.57,1.57,0,0,1,.42,1.12V112.2a1.67,1.67,0,0,1-1.71,1.71,2.31,2.31,0,0,1-.77-.13,1,1,0,0,1-.54-.35l-10.28-13.05v12a1.54,1.54,0,0,1-.43,1.12,1.51,1.51,0,0,1-1.14.45,1.43,1.43,0,0,1-1.09-.45,1.57,1.57,0,0,1-.42-1.12V96a1.68,1.68,0,0,1,.49-1.22,1.64,1.64,0,0,1,1.22-.49,2.2,2.2,0,0,1,.83.17,1.34,1.34,0,0,1,.6.44l10.19,13v-12a1.54,1.54,0,0,1,.43-1.12,1.48,1.48,0,0,1,1.11-.45A1.42,1.42,0,0,1,283.67,94.76Z"/><path class="cls-2" d="M308.14,103.82a1.65,1.65,0,0,1,.48,1.21V111a1.67,1.67,0,0,1-.87,1.51,11.15,11.15,0,0,1-6,1.71,10,10,0,0,1-5.12-1.36,10.18,10.18,0,0,1-3.73-3.67,10,10,0,0,1,0-10.1,10.18,10.18,0,0,1,3.73-3.67A10,10,0,0,1,301.73,94a9.86,9.86,0,0,1,4.82,1.12,1.57,1.57,0,0,1,.63.59,1.52,1.52,0,0,1,.21.78,1.81,1.81,0,0,1-.46,1.22,1.46,1.46,0,0,1-1.14.52,2.26,2.26,0,0,1-.92-.23,7.94,7.94,0,0,0-3.14-.64,6.26,6.26,0,0,0-3.3.91,6.77,6.77,0,0,0,0,11.62,6.26,6.26,0,0,0,3.3.91,11.3,11.3,0,0,0,1.68-.14,10.49,10.49,0,0,0,1.57-.36v-3.64h-2.63a1.67,1.67,0,0,1-1.22-.48,1.73,1.73,0,0,1,0-2.41,1.67,1.67,0,0,1,1.22-.47h4.59A1.57,1.57,0,0,1,308.14,103.82Z"/></g></g><g id="Line_336" data-name="Line 336"><path class="cls-1" d="M308.38,81.91H2.38a1.5,1.5,0,1,1,0-3h306a1.5,1.5,0,0,1,0,3Z"/></g></g></svg>