<?xml version="1.0" encoding="utf-8"?>
<!-- Generator: Adobe Illustrator 25.0.0, SVG Export Plug-In . SVG Version: 6.00 Build 0)  -->
<svg version="1.1" id="Camada_1" xmlns="http://www.w3.org/2000/svg" xmlns:xlink="http://www.w3.org/1999/xlink" x="0px" y="0px"
	 viewBox="0 0 1569.1 300" style="enable-background:new 0 0 1569.1 300;" xml:space="preserve">
<style type="text/css">
	.st0{fill:#01AFAA;}
	.st1{fill:#FFFFFF;}
	.st2{fill:url(#SVGID_1_);}
	.st3{enable-background:new    ;}
</style>
<path class="st0" d="M53.9,0h192.1C275.9,0,300,24.1,300,53.9v192.1c0,29.8-24.1,53.9-53.9,53.9H53.9C24.1,300,0,275.9,0,246.1V53.9
	C0,24.1,24.1,0,53.9,0z"/>
<path class="st1" d="M150,240.3c-49.9,0-90.3-40.4-90.3-90.3c0-49.9,40.4-90.3,90.3-90.3c49.9,0,90.3,40.4,90.3,90.3
	c0,24-9.5,46.9-26.5,63.9l0,0C197,230.9,174,240.4,150,240.3z M150,89.7c-33.3,0-60.3,27-60.3,60.3s27,60.3,60.3,60.3
	c33.3,0,60.3-27,60.3-60.3c0-16-6.4-31.3-17.7-42.6C181.4,96,166,89.6,150,89.7z"/>
<linearGradient id="SVGID_1_" gradientUnits="userSpaceOnUse" x1="3475.6833" y1="8080.0249" x2="3565.9934" y2="8080.0249" gradientTransform="matrix(0.71 0.71 -0.71 0.71 3437.9399 -8054.4199)">
	<stop  offset="0" style="stop-color:#FFFFFF"/>
	<stop  offset="9.000000e-02" style="stop-color:#F7FDFC"/>
	<stop  offset="0.22" style="stop-color:#E3F6F5"/>
	<stop  offset="0.38" style="stop-color:#C0EBEA"/>
	<stop  offset="0.56" style="stop-color:#91DCDA"/>
	<stop  offset="0.76" style="stop-color:#54C9C6"/>
	<stop  offset="0.97" style="stop-color:#0BB2AD"/>
	<stop  offset="1" style="stop-color:#01AFAA"/>
</linearGradient>
<path class="st2" d="M150,240.3v-30c33.3,0,60.3-27,60.3-60.3c0-16-6.4-31.4-17.7-42.7l21.2-21.2c35.3,35.2,35.3,92.4,0.1,127.7
	C197,230.8,174,240.3,150,240.3z"/>
<path class="st1" d="M243.4,240.3c-8.3,0-15-6.7-15-15l0,0v-47.2c0-6.5-5.3-11.8-11.8-11.8c-6.5,0-11.8,5.3-11.8,11.8v7.4
	c0,30.3-24.6,54.8-54.8,54.8c-8.3,0-15-6.7-15-15s6.7-15,15-15c13.7,0,24.8-11.1,24.9-24.9v-7.4c0-23.1,18.7-41.8,41.7-41.8
	s41.8,18.7,41.8,41.7c0,0,0,0,0,0v47.2C258.4,233.6,251.7,240.3,243.4,240.3L243.4,240.3z"/>
<path class="st0" d="M216.6,136.3c23.1,0,41.8,18.7,41.8,41.8v47.2c0,8.3-6.7,15-15,15s-15-6.7-15-15v-47.2
	c0-6.5-5.3-11.8-11.8-11.8c-6.5,0-11.8,5.3-11.8,11.8v7.4c0,30.3-24.6,54.8-54.8,54.8v5c33.1,0,59.9-26.8,59.9-59.8v0v-7.4
	c0-3.7,3-6.8,6.8-6.8c3.7,0,6.8,3,6.8,6.8v47.2c0,11,9,20,20,20c11,0,20-9,20-20v-47.2c0-25.8-20.9-46.8-46.8-46.8l0,0
	c-25.8,0-46.8,20.9-46.8,46.8v7.4c0,5.3-2.1,10.3-5.8,14l3.5,3.5c4.7-4.6,7.3-11,7.3-17.6V178C174.8,155,193.5,136.3,216.6,136.3"/>
<g class="st3">
	<path class="st1" d="M514.8,187.8c-6.1,11.5-14.6,20.6-25.4,27.3c-10.8,6.7-23,10-36.5,10c-13.5,0-25.7-3.3-36.5-10
		c-10.8-6.7-19.2-15.8-25.3-27.3c-6.1-11.5-9.1-24.2-9.1-38c0-13.8,3-26.5,9.1-38c6.1-11.5,14.5-20.6,25.3-27.3
		c10.8-6.7,23-10,36.5-10c13.5,0,25.7,3.3,36.5,10c10.8,6.7,19.3,15.8,25.4,27.3c6.1,11.5,9.2,24.2,9.2,38
		C524,163.7,520.9,176.3,514.8,187.8z M491.1,124.5c-3.8-7.6-9-13.6-15.7-18.1c-6.7-4.5-14.2-6.7-22.6-6.7c-8.5,0-16.1,2.2-22.7,6.6
		c-6.6,4.4-11.8,10.4-15.5,18.1c-3.7,7.7-5.5,16.2-5.5,25.5c0,9.3,1.8,17.9,5.5,25.5c3.7,7.7,8.9,13.7,15.5,18.1
		c6.6,4.4,14.2,6.6,22.7,6.6c8.4,0,15.9-2.2,22.6-6.7c6.7-4.5,11.9-10.5,15.7-18.1c3.8-7.6,5.6-16.1,5.6-25.4
		C496.8,140.5,494.9,132.1,491.1,124.5z"/>
	<path class="st1" d="M635.3,121.7c5.4,8.4,8.2,20.1,8.2,35v53.6c0,3.6-1.2,6.7-3.6,9.1c-2.4,2.4-5.4,3.7-9,3.7
		c-3.6,0-6.6-1.2-9-3.7c-2.4-2.4-3.6-5.5-3.6-9.1v-53.6c0-7.7-1.6-13.7-4.8-18.1c-3.2-4.4-8.7-6.6-16.5-6.6c-8.1,0-14.4,2.3-19,7
		c-4.6,4.7-6.9,10.6-6.9,17.7v53.6c0,3.6-1.2,6.7-3.6,9.1c-2.4,2.4-5.4,3.7-9,3.7c-3.6,0-6.6-1.2-9-3.7c-2.4-2.4-3.6-5.5-3.6-9.1
		v-86.4c0-3.6,1.2-6.7,3.6-9.1c2.4-2.4,5.4-3.7,9-3.7c3.6,0,6.6,1.2,9,3.7c2.4,2.4,3.6,5.5,3.6,9.1v3.6c3.8-5,8.7-9.3,14.7-13
		c6.1-3.6,12.7-5.4,20-5.4C620,109.1,629.8,113.3,635.3,121.7z"/>
	<path class="st1" d="M754.7,116.5c7.8,5,14,11.8,18.5,20.6c4.5,8.8,6.8,18.8,6.8,29.9c0,11.2-2.2,21.2-6.7,30
		c-4.5,8.9-10.6,15.8-18.3,20.7c-7.7,5-16.3,7.4-25.6,7.4c-6.7,0-13-1.4-18.9-4.1c-5.9-2.7-10.8-6-14.7-9.9v1.3
		c0,3.6-1.2,6.7-3.6,9.1c-2.4,2.4-5.4,3.7-9,3.7c-3.6,0-6.6-1.2-9-3.6c-2.4-2.4-3.6-5.4-3.6-9.2V81c0-3.6,1.2-6.7,3.6-9.1
		c2.4-2.4,5.4-3.7,9-3.7c3.6,0,6.6,1.2,9,3.7c2.4,2.4,3.6,5.5,3.6,9.1v43.7c3.3-4.2,8-7.8,14-11c6-3.1,12.3-4.7,18.8-4.7
		C738.2,109.1,746.9,111.6,754.7,116.5z M747.4,192.1c5.7-6.7,8.6-15.1,8.6-25.1s-2.8-18.4-8.5-25c-5.6-6.6-13-9.9-22.1-9.9
		c-9.1,0-16.5,3.3-22.2,9.9c-5.7,6.6-8.6,15-8.6,25s2.9,18.4,8.6,25.1c5.7,6.7,13.1,10,22.2,10C734.4,202.2,741.7,198.8,747.4,192.1
		z"/>
	<path class="st1" d="M901,197.3c-5,8.9-11.9,15.7-20.6,20.6c-8.7,4.9-18.3,7.3-28.8,7.3c-10.6,0-20.2-2.4-28.9-7.3
		c-8.6-4.9-15.5-11.7-20.5-20.6c-5-8.9-7.5-18.9-7.5-30c0-11.2,2.5-21.2,7.5-30c5-8.9,11.9-15.8,20.5-20.7
		c8.6-4.9,18.3-7.4,28.9-7.4c10.5,0,20,2.5,28.8,7.4c8.7,5,15.6,11.9,20.6,20.7c5,8.9,7.5,18.9,7.5,30
		C908.5,178.4,906,188.4,901,197.3z M879.1,148.9c-2.9-5.4-6.7-9.5-11.5-12.4c-4.8-2.9-10.1-4.4-16-4.4c-5.9,0-11.2,1.5-16,4.4
		c-4.8,2.9-8.7,7.1-11.5,12.4c-2.9,5.4-4.3,11.5-4.3,18.3c0,6.8,1.4,12.9,4.3,18.2c2.9,5.3,6.7,9.4,11.5,12.3
		c4.8,2.9,10.1,4.4,16,4.4c5.9,0,11.2-1.5,16-4.4s8.6-7,11.5-12.3c2.9-5.3,4.3-11.4,4.3-18.2C883.4,160.4,882,154.3,879.1,148.9z"/>
	<path class="st1" d="M1029,112.6c2.4,2.4,3.6,5.4,3.6,9.2v88.5c0,3.6-1.2,6.7-3.6,9.1c-2.4,2.4-5.4,3.7-9,3.7
		c-3.6,0-6.6-1.2-8.9-3.6c-2.3-2.4-3.5-5.4-3.7-9c-3.5,4-8.2,7.5-14.1,10.4c-5.9,2.9-12.2,4.3-18.7,4.3c-9.6,0-18.3-2.5-26.2-7.4
		c-7.8-4.9-14-11.8-18.5-20.6c-4.5-8.8-6.8-18.8-6.8-29.9c0-11.2,2.2-21.2,6.7-30c4.5-8.9,10.6-15.8,18.3-20.7
		c7.7-4.9,16.3-7.4,25.6-7.4c6.7,0,13,1.2,18.8,3.7c5.9,2.4,10.8,5.5,14.9,9.3v-0.2c0-3.6,1.2-6.7,3.6-9.1c2.4-2.4,5.4-3.7,9-3.7
		C1023.6,109.1,1026.6,110.3,1029,112.6z M999.9,192.2c5.7-6.6,8.6-15,8.6-25s-2.9-18.4-8.6-25.1c-5.7-6.7-13.1-10-22.2-10
		c-8.9,0-16.2,3.3-22,10c-5.7,6.7-8.6,15.1-8.6,25.1s2.8,18.4,8.5,25c5.6,6.6,13,9.9,22.1,9.9C986.8,202.2,994.2,198.9,999.9,192.2z
		"/>
</g>
<g class="st3">
	<path class="st1" d="M1128.5,112.6c2.9,2.4,4.3,5.2,4.3,8.4c0,4.3-1.1,7.6-3.3,9.7c-2.2,2.2-4.9,3.2-8,3.2c-2.1,0-4.5-0.5-7.1-1.5
		c-0.4-0.1-1.4-0.4-2.8-0.8c-1.5-0.4-3-0.6-4.7-0.6c-3.6,0-7.1,1.1-10.5,3.3c-3.3,2.2-6.1,5.6-8.3,10.1c-2.2,4.5-3.2,9.9-3.2,16.2
		v49.6c0,3.6-1.2,6.7-3.6,9.1c-2.4,2.4-5.4,3.7-9,3.7c-3.6,0-6.6-1.2-9-3.7c-2.4-2.4-3.6-5.5-3.6-9.1v-86.4c0-3.6,1.2-6.7,3.6-9.1
		c2.4-2.4,5.4-3.7,9-3.7c3.6,0,6.6,1.2,9,3.7c2.4,2.4,3.6,5.5,3.6,9.1v2.7c3.2-5.7,7.8-10.1,13.8-13.1c6-3,12.4-4.5,19.2-4.5
		C1122.1,109.1,1125.6,110.3,1128.5,112.6z"/>
</g>
<g class="st3">
	<path class="st1" d="M1245.5,71.8c2.4,2.4,3.6,5.4,3.6,9.2v129.3c0,3.6-1.2,6.7-3.6,9.1c-2.4,2.4-5.4,3.7-9,3.7
		c-3.6,0-6.6-1.2-8.9-3.6c-2.3-2.4-3.5-5.4-3.7-9c-3.5,4-8.2,7.5-14.1,10.4c-5.9,2.9-12.2,4.3-18.7,4.3c-9.6,0-18.3-2.5-26.2-7.4
		c-7.8-4.9-14-11.8-18.5-20.6c-4.5-8.8-6.8-18.8-6.8-29.9c0-11.2,2.2-21.2,6.7-30c4.5-8.9,10.6-15.8,18.3-20.7
		c7.7-4.9,16.3-7.4,25.6-7.4c6.7,0,13,1.2,18.8,3.7c5.9,2.4,10.8,5.5,14.9,9.3V81c0-3.6,1.2-6.7,3.6-9.1c2.4-2.4,5.4-3.7,9-3.7
		C1240.1,68.3,1243.1,69.5,1245.5,71.8z M1216.4,192.2c5.7-6.6,8.6-15,8.6-25s-2.9-18.4-8.6-25.1c-5.7-6.7-13.1-10-22.2-10
		c-8.9,0-16.2,3.3-22,10c-5.7,6.7-8.6,15.1-8.6,25.1s2.8,18.4,8.5,25c5.6,6.6,13,9.9,22.1,9.9
		C1203.3,202.2,1210.7,198.9,1216.4,192.2z"/>
	<path class="st1" d="M1277.1,95.3c-2-1.5-2.9-4.3-2.9-8.2v-4c0-3.9,1-6.6,3.1-8.2c2.1-1.5,5.4-2.3,10-2.3c4.9,0,8.3,0.8,10.3,2.3
		c2,1.5,2.9,4.3,2.9,8.2v4c0,4-1,6.8-3,8.3c-2,1.5-5.5,2.2-10.4,2.2C1282.4,97.6,1279.1,96.8,1277.1,95.3z M1296.3,219.4
		c-2.4,2.4-5.4,3.7-9,3.7c-3.6,0-6.6-1.2-9-3.7c-2.4-2.4-3.6-5.5-3.6-9.1v-86.4c0-3.6,1.2-6.7,3.6-9.1c2.4-2.4,5.4-3.7,9-3.7
		c3.6,0,6.6,1.2,9,3.7c2.4,2.4,3.6,5.5,3.6,9.1v86.4C1299.9,214,1298.7,217,1296.3,219.4z"/>
	<path class="st1" d="M1415,121.7c5.4,8.4,8.2,20.1,8.2,35v53.6c0,3.6-1.2,6.7-3.6,9.1c-2.4,2.4-5.4,3.7-9,3.7c-3.6,0-6.6-1.2-9-3.7
		c-2.4-2.4-3.6-5.5-3.6-9.1v-53.6c0-7.7-1.6-13.7-4.8-18.1c-3.2-4.4-8.7-6.6-16.5-6.6c-8.1,0-14.4,2.3-19,7
		c-4.6,4.7-6.9,10.6-6.9,17.7v53.6c0,3.6-1.2,6.7-3.6,9.1c-2.4,2.4-5.4,3.7-9,3.7c-3.6,0-6.6-1.2-9-3.7c-2.4-2.4-3.6-5.5-3.6-9.1
		v-86.4c0-3.6,1.2-6.7,3.6-9.1c2.4-2.4,5.4-3.7,9-3.7c3.6,0,6.6,1.2,9,3.7c2.4,2.4,3.6,5.5,3.6,9.1v3.6c3.8-5,8.7-9.3,14.8-13
		c6.1-3.6,12.7-5.4,20-5.4C1399.7,109.1,1409.5,113.3,1415,121.7z"/>
	<path class="st1" d="M1552,112.6c2.4,2.4,3.6,5.4,3.6,9.2v93.1c0,17-5.3,29.6-15.8,37.8c-10.5,8.2-23.9,12.2-40.1,12.2
		c-4.2,0-9.9-0.7-17.3-2.1c-7.3-1.4-12.5-2.8-15.6-4.2c-6.8-2.9-10.3-7-10.3-12.1c0-1,0.2-2.1,0.6-3.3c0.8-3.1,2.3-5.4,4.3-7
		c2-1.6,4.2-2.4,6.6-2.4c1.4,0,2.7,0.2,4,0.6c0.6,0.1,4,1.4,10.4,3.9c6.3,2.4,12.1,3.7,17.3,3.7c10.3,0,18-2.1,23.1-6.2
		c5.1-4.1,7.6-9.9,7.6-17.5v-10c-3.1,4.3-7.7,8.2-13.9,11.7c-6.2,3.5-12.9,5.2-20,5.2c-9.8,0-18.7-2.5-26.7-7.4
		c-8-4.9-14.3-11.8-18.9-20.6c-4.6-8.8-6.9-18.8-6.9-29.9c0-11.2,2.3-21.2,6.8-30c4.5-8.9,10.7-15.8,18.6-20.7
		c7.9-4.9,16.6-7.4,26.3-7.4c7.1,0,13.7,1.5,19.9,4.4c6.1,2.9,11.1,6.5,14.9,10.7v-2.3c0-3.6,1.2-6.7,3.6-9.1c2.4-2.4,5.4-3.7,9-3.7
		C1546.6,109.1,1549.6,110.3,1552,112.6z M1522.6,192.2c5.9-6.6,8.9-15,8.9-25s-3-18.4-8.9-25.1c-5.9-6.7-13.6-10-22.9-10
		c-9.3,0-16.9,3.3-22.8,10c-5.9,6.7-8.8,15.1-8.8,25.1s2.9,18.4,8.8,25c5.9,6.6,13.5,9.9,22.8,9.9
		C1509,202.2,1516.7,198.9,1522.6,192.2z"/>
</g>
</svg>
