<svg xmlns="http://www.w3.org/2000/svg" width="161.079" height="64.644" viewBox="0 0 161.079 64.644">
  <g id="sabia_horizontal_cor_vetor" data-name="sabia horizontal cor vetor" transform="translate(-30.69 -26.86)">
    <g id="Grupo_8638" data-name="Grupo 8638" transform="translate(30.69 26.86)">
      <path id="Caminho_3196" data-name="Caminho 3196" d="M235.448,26.86a40.632,40.632,0,0,0-8.895,11.294c-3.841,7.2-7.023,14.19-5.474,23.738C222.734,72.1,232.318,78.568,241.414,77.1c10.251-1.651,19.136-12.562,14.641-23.656-6.18-15.254-17.639-9.49-20.1-16.64C233.817,30.6,235.448,26.86,235.448,26.86Z" transform="translate(-190.869 -26.86)" fill="#d26114"/>
      <g id="Grupo_8631" data-name="Grupo 8631" transform="translate(11.173 14.588)">
        <path id="Caminho_3197" data-name="Caminho 3197" d="M122.052,169.889a40.447,40.447,0,0,0,9.072-11.057c3.97-7.087,7.28-13.983,5.954-23.532-1.417-10.207-10.222-16.567-19.279-15.309-10.207,1.417-18.712,11.057-15.027,22.4,4.935,15.18,16.712,10.4,18.995,17.578C123.753,166.2,122.052,169.889,122.052,169.889Z" transform="translate(-101.897 -119.833)" fill="#f8c236"/>
      </g>
      <g id="Grupo_8634" data-name="Grupo 8634" transform="translate(10.964 18.13)">
        <g id="u3b088.tif_1_" transform="translate(4.091 11.962)">
          <g id="Grupo_8632" data-name="Grupo 8632">
            <path id="Caminho_3198" data-name="Caminho 3198" d="M147.954,238.4a34.414,34.414,0,0,1-8.285.562,17.626,17.626,0,0,1-8.8-2.9c-.249-.158-.482-.345-.736-.493a4.4,4.4,0,0,1-1.691-1.9,15.155,15.155,0,0,1-1.793-6.775,7.873,7.873,0,0,1,.444-2.827,17.227,17.227,0,0,1,1.092-2.335,4.226,4.226,0,0,1,3.265-2.54c.711-.207,1.44-.35,2.215-.533-.039.108.235.444.213.482a6.65,6.65,0,0,0-.741,2.964c-.056.7.493,1.272.494,1.975,0,2.553,1.149,3.83,2.7,5.9a14.621,14.621,0,0,0,3.722,3.485c.874.57,1.556.99,2.474,1.486a17.685,17.685,0,0,0,1.729.494c.783.286,1.181,1.232,1.975,1.483a13.118,13.118,0,0,1,2.03.965.1.1,0,0,1-.027.173A.387.387,0,0,0,147.954,238.4Z" transform="translate(-126.644 -218.65)" fill="#d26114"/>
          </g>
        </g>
        <path id="Caminho_3199" data-name="Caminho 3199" d="M106.506,168.792a17.681,17.681,0,0,1-2.153-13.37,11.4,11.4,0,0,1,10.853-9.262c1.975,0,6.916.246,6.916,4.693s-1.975,5.681-5.434,5.681-6.6.168-8.611,4.406A15.666,15.666,0,0,0,106.506,168.792Z" transform="translate(-103.39 -145.572)" fill="#fff"/>
        <g id="YARtC9.tif_1_">
          <g id="Grupo_8633" data-name="Grupo 8633">
            <path id="Caminho_3200" data-name="Caminho 3200" d="M114.974,153.949a1.679,1.679,0,0,1,.188-.064,5.138,5.138,0,0,0,3.262-1.658,10.239,10.239,0,0,0,1.178-1.465,1.942,1.942,0,0,1,1.166-.982c.047-.016,3.337-1.759,4.6-2.446.053-.028.1-.067.228-.152h-.373q-2.544,0-5.09,0c-.168,0-.286,0-.339-.223a5.448,5.448,0,0,0-3.678-3.993,10.435,10.435,0,0,0-7.119.157c-2.994,1.02-6.568,4.825-7.365,7.764a27.842,27.842,0,0,0-.91,3.72c-.053.419-.1.838-.152,1.257v1.657c.019.1.042.19.056.287.133.876.229,1.757.4,2.623a20.473,20.473,0,0,0,2.084,5.217,13.6,13.6,0,0,0,2.887,3.83c.329.3.675.592,1.012.887l.058-.047a2.239,2.239,0,0,0-.1-.224,16.094,16.094,0,0,1-2.046-5.441,10.2,10.2,0,0,1,.587-5.867,9.114,9.114,0,0,1,1.5-2.317,3.9,3.9,0,0,1,1.856-1.357c.573-.171,1.145-.347,1.723-.5.347-.093.7-.146,1.109-.229-.08.157-.14.257-.184.364a7.36,7.36,0,0,0-.5,1.318c-.169.882-.248,1.781-.37,2.672a9.757,9.757,0,0,0,.154,3.224,11.058,11.058,0,0,0,1.884,4.472,18.054,18.054,0,0,0,4.149,4.214c.609.43,1.287.763,1.919,1.163a8.744,8.744,0,0,0,2.266,1.056,6.636,6.636,0,0,1,.843.26,10.353,10.353,0,0,0,3.774,1,.321.321,0,0,1,.237.155,6.751,6.751,0,0,0,1.859,2.343,10.585,10.585,0,0,0,2.782,1.877,11.228,11.228,0,0,0,4.555.733,1.861,1.861,0,0,0,.651-.144,2.387,2.387,0,0,0,.455-.345Q125.613,166.389,114.974,153.949Zm-.821-1.684a27.149,27.149,0,0,0-4.174.344,7.542,7.542,0,0,0-5.958,5.476,13.464,13.464,0,0,0-.438,5.291c.016.185.025.37.041.615a2.71,2.71,0,0,1-.151-.229,15.446,15.446,0,0,1-1.652-5.5,14.388,14.388,0,0,1,2.04-9.132,10.988,10.988,0,0,1,3.982-4.036,9.268,9.268,0,0,1,3.577-1.2,10.591,10.591,0,0,1,3.537.2c.333.078.668.144,1,.22a3.56,3.56,0,0,1,2.5,2.225,4.632,4.632,0,0,1,.154,2.608,3.243,3.243,0,0,1-2.167,2.616A6.365,6.365,0,0,1,114.153,152.265Z" transform="translate(-100.57 -142.41)" fill="#593c18"/>
            <path id="Caminho_3201" data-name="Caminho 3201" d="M168.848,172.768a2.369,2.369,0,0,1-2.134-1.318,1.726,1.726,0,0,1,.035-1.535.229.229,0,0,1,.2-.1c.105.041.265.127.273.207a1.767,1.767,0,0,0,.668,1.036,1.128,1.128,0,0,0,1.332.176,3.146,3.146,0,0,0,.441-.238.934.934,0,0,0,.384-.788c.013-.195.071-.361.292-.378s.347.1.413.325a2.055,2.055,0,0,1-1.334,2.484C169.229,172.693,169.038,172.726,168.848,172.768Z" transform="translate(-156.195 -165.51)" fill="#593c18"/>
          </g>
        </g>
      </g>
      <g id="Grupo_8636" data-name="Grupo 8636" transform="translate(0 4.162)">
        <g id="eBde01.tif_4_">
          <g id="Grupo_8635" data-name="Grupo 8635">
            <path id="Caminho_3202" data-name="Caminho 3202" d="M41.562,67.9a.973.973,0,0,0,.945-1.017,1.629,1.629,0,0,0-.653-1.158c-.723-.5-1.481-.941-2.242-1.378a14.351,14.351,0,0,0-1.39-.672c-.65-.284-1.3-.566-1.966-.808a1,1,0,0,0-1.09.508,1.035,1.035,0,0,0,.27,1.1,11.578,11.578,0,0,0,1.654,1.277c1.247.7,2.54,1.315,3.822,1.95A3.563,3.563,0,0,0,41.562,67.9ZM38.275,87.8a.826.826,0,0,0-.019-.262c-.053-.11-.138-.206-.2-.312a1.235,1.235,0,0,0-1.834-.359c-.915.687-1.845,1.359-2.722,2.092a3.485,3.485,0,0,0-1.467,2.112c-.039.267-.1.56.13.783a.667.667,0,0,0,.8.071A14.084,14.084,0,0,0,34.795,91c.988-.661,1.924-1.4,2.884-2.1A1.749,1.749,0,0,0,38.275,87.8Zm4.506-29.663-.082.024a5.192,5.192,0,0,0,.377.869c.774,1.161,1.567,2.308,2.365,3.452a7.625,7.625,0,0,0,.8,1.029.887.887,0,0,0,1.527-.251,1.418,1.418,0,0,0-.147-1.125,12.072,12.072,0,0,0-2.156-3.406c-.433-.457-.835-.945-1.274-1.395a.876.876,0,0,0-1.216-.243.258.258,0,0,0-.14.165C42.8,57.554,42.8,57.849,42.781,58.142ZM34.07,71.583c-.992,0-1.053.022-1.668.617a.9.9,0,0,1-.176.1.522.522,0,0,0-.188.832,1.807,1.807,0,0,0,.839.543c1.682.361,3.373.684,5.068.982a1.05,1.05,0,0,0,1.1-1,.953.953,0,0,0-.329-.852,5.609,5.609,0,0,0-1.123-.571A14.848,14.848,0,0,0,34.07,71.583Zm28.7-16.514a7.868,7.868,0,0,0-.2-1.136.855.855,0,0,0-.42-.507.609.609,0,0,0-.759.369,10.526,10.526,0,0,0-1.012,2.793c-.143.715-.267,1.437-.355,2.162a2.268,2.268,0,0,0,.049,1.1,3.133,3.133,0,0,0,.753.835.342.342,0,0,0,.228.063.884.884,0,0,0,.993-.775,15.025,15.025,0,0,0,.372-1.9C62.559,57.052,62.658,56.033,62.767,55.068Zm-7.539,4.294c-.014-.132-.02-.328-.058-.518-.116-.581-.209-1.169-.378-1.734-.262-.872-.554-1.738-.891-2.584a.979.979,0,0,0-.6-.535c-.224-.044-.681-.13-.686.388,0,.028-.063.061-.1.083a.607.607,0,0,0-.328.628,18.414,18.414,0,0,0,.759,4.153,3.775,3.775,0,0,0,1.036,1.591.422.422,0,0,0,.609.06A1.706,1.706,0,0,0,55.228,59.363ZM30.69,81.477c.158.14.317.373.529.446a3.232,3.232,0,0,0,1.073.166c.717-.011,1.436-.058,2.15-.132.769-.08,1.535-.2,2.3-.315a.829.829,0,0,0,.766-.781c.067-.464-.166-1-.48-1.062a6.218,6.218,0,0,0-1.585-.212,26.044,26.044,0,0,0-2.906.446A2.02,2.02,0,0,0,30.69,81.477ZM51.456,102.45a.39.39,0,0,1-.045-.017c-.024-.18-.042-.362-.074-.543-.086-.5-.479-.7-.941-.814a1.43,1.43,0,0,0-.97.613,17.385,17.385,0,0,0-1.29,3.938,1.662,1.662,0,0,0,.427,1.735c.093.077.308.141.377.091a2.87,2.87,0,0,0,.854-.763,21.745,21.745,0,0,0,1.2-2.5A13.477,13.477,0,0,0,51.456,102.45Zm-9.692.422a1.559,1.559,0,0,0,.485,1.145c.074.088.323.152.391.1a4.121,4.121,0,0,0,.839-.794c.359-.5.606-1.078.976-1.566a7.457,7.457,0,0,0,1.1-2.493.992.992,0,0,0-.894-1.2,1.658,1.658,0,0,0-1.4.952c-.251.574-.543,1.133-.828,1.693A4.561,4.561,0,0,0,41.764,102.872Zm-1.058-8.686c-.014-.662-.287-1.023-.675-1.122a1.359,1.359,0,0,0-1,.228,14.008,14.008,0,0,0-1.384,1.282,6.785,6.785,0,0,0-1.411,2.448.868.868,0,0,0,.238.948c.229.238.538.086.764-.047a6.384,6.384,0,0,0,1.972-1.458c.34-.444.739-.846,1.047-1.31A5.446,5.446,0,0,0,40.707,94.186Z" transform="translate(-30.69 -53.389)" fill="#d26114"/>
            <path id="Caminho_3203" data-name="Caminho 3203" d="M189.931,377.451a1.011,1.011,0,0,1-.62-.973c0-.4-.162-.8-.132-1.185.061-.8.188-1.586.312-2.376.077-.485.18-.967.3-1.442a.894.894,0,0,1,1.058-.761c.319.024.753.518.872.908a4.656,4.656,0,0,1-.08,2.06c-.083.607-.242,1.205-.344,1.811a3.333,3.333,0,0,1-1.166,1.957Z" transform="translate(-164.309 -320.92)" fill="#d26114"/>
            <path id="Caminho_3204" data-name="Caminho 3204" d="M65.369,118.638a3.42,3.42,0,0,1-.65-.2c-1.282-.634-2.576-1.251-3.822-1.95a11.465,11.465,0,0,1-1.654-1.277,1.04,1.04,0,0,1-.27-1.1,1,1,0,0,1,1.09-.508c.665.243,1.318.524,1.966.808a14.165,14.165,0,0,1,1.39.672c.761.436,1.52.882,2.242,1.378a1.629,1.629,0,0,1,.653,1.158A.976.976,0,0,1,65.369,118.638Z" transform="translate(-54.497 -104.13)" fill="#d26114"/>
            <path id="Caminho_3205" data-name="Caminho 3205" d="M45.286,266.315a1.752,1.752,0,0,1-.6,1.094c-.96.7-1.9,1.444-2.884,2.1a14.09,14.09,0,0,1-1.829.927.67.67,0,0,1-.8-.071c-.232-.223-.169-.516-.13-.783a3.5,3.5,0,0,1,1.467-2.112c.877-.733,1.808-1.4,2.722-2.092a1.235,1.235,0,0,1,1.834.359c.061.107.146.2.2.312A.8.8,0,0,1,45.286,266.315Z" transform="translate(-37.701 -231.899)" fill="#d26114"/>
            <path id="Caminho_3206" data-name="Caminho 3206" d="M107.312,77.29c.016-.293.024-.588.053-.88a.258.258,0,0,1,.14-.165.876.876,0,0,1,1.216.243c.439.45.841.938,1.274,1.395a12.072,12.072,0,0,1,2.156,3.406,1.424,1.424,0,0,1,.147,1.125.887.887,0,0,1-1.527.251,7.886,7.886,0,0,1-.8-1.029c-.8-1.145-1.591-2.291-2.365-3.452a5.066,5.066,0,0,1-.377-.869Z" transform="translate(-95.221 -72.536)" fill="#d26114"/>
            <path id="Caminho_3207" data-name="Caminho 3207" d="M40.554,169.339a14.749,14.749,0,0,1,3.521.65,5.568,5.568,0,0,1,1.123.571.949.949,0,0,1,.329.852,1.049,1.049,0,0,1-1.1,1q-2.542-.447-5.068-.982a1.807,1.807,0,0,1-.839-.543.522.522,0,0,1,.188-.832.86.86,0,0,0,.176-.1C39.5,169.361,39.562,169.336,40.554,169.339Z" transform="translate(-37.174 -151.145)" fill="#d26114"/>
            <path id="Caminho_3208" data-name="Caminho 3208" d="M220.149,55.063c-.111.963-.21,1.982-.351,3a15.6,15.6,0,0,1-.372,1.9.884.884,0,0,1-.993.775.342.342,0,0,1-.228-.063,3.133,3.133,0,0,1-.753-.835,2.268,2.268,0,0,1-.049-1.1c.088-.725.212-1.447.355-2.162a10.433,10.433,0,0,1,1.012-2.793.611.611,0,0,1,.759-.369.85.85,0,0,1,.421.507A7.744,7.744,0,0,1,220.149,55.063Z" transform="translate(-188.072 -53.383)" fill="#d26114"/>
            <path id="Caminho_3209" data-name="Caminho 3209" d="M170.695,62.418a1.7,1.7,0,0,1-.643,1.531.421.421,0,0,1-.609-.06,3.785,3.785,0,0,1-1.036-1.591,18.485,18.485,0,0,1-.759-4.153.606.606,0,0,1,.328-.628c.039-.02.1-.055.1-.083,0-.518.461-.431.686-.388a.975.975,0,0,1,.6.535c.337.846.629,1.712.891,2.584.169.565.262,1.153.378,1.734A4.912,4.912,0,0,1,170.695,62.418Z" transform="translate(-146.156 -56.443)" fill="#d26114"/>
            <path id="Caminho_3210" data-name="Caminho 3210" d="M30.69,222.211a2.013,2.013,0,0,1,1.848-1.444,26.1,26.1,0,0,1,2.906-.446,6.15,6.15,0,0,1,1.585.212c.314.058.548.6.48,1.062a.829.829,0,0,1-.766.781c-.766.111-1.531.235-2.3.315-.714.074-1.433.121-2.15.132a3.272,3.272,0,0,1-1.073-.166C31.007,222.584,30.85,222.352,30.69,222.211Z" transform="translate(-30.69 -194.122)" fill="#d26114"/>
            <path id="Caminho_3211" data-name="Caminho 3211" d="M144.87,358.658a13.733,13.733,0,0,1-.463,1.742,21.757,21.757,0,0,1-1.2,2.5,2.853,2.853,0,0,1-.854.763c-.069.05-.284-.014-.377-.091a1.662,1.662,0,0,1-.427-1.735,17.307,17.307,0,0,1,1.29-3.938,1.43,1.43,0,0,1,.97-.613c.463.115.855.312.941.814.031.18.049.362.074.543Z" transform="translate(-124.104 -309.596)" fill="#d26114"/>
            <path id="Caminho_3212" data-name="Caminho 3212" d="M101.233,342.885a4.551,4.551,0,0,1,.665-2.165c.286-.56.577-1.117.828-1.693a1.658,1.658,0,0,1,1.4-.952.992.992,0,0,1,.894,1.2,7.488,7.488,0,0,1-1.1,2.493c-.37.488-.618,1.067-.976,1.566a4.165,4.165,0,0,1-.839.794.422.422,0,0,1-.391-.1A1.546,1.546,0,0,1,101.233,342.885Z" transform="translate(-90.159 -293.402)" fill="#d26114"/>
            <path id="Caminho_3213" data-name="Caminho 3213" d="M70.209,307.254a5.718,5.718,0,0,1-.446.97c-.308.463-.706.866-1.047,1.31a6.384,6.384,0,0,1-1.972,1.458c-.226.133-.535.287-.764.047a.868.868,0,0,1-.238-.948,6.74,6.74,0,0,1,1.411-2.448,14.01,14.01,0,0,1,1.384-1.282,1.359,1.359,0,0,1,1-.228C69.921,306.231,70.195,306.591,70.209,307.254Z" transform="translate(-60.192 -266.456)" fill="#d26114"/>
          </g>
        </g>
      </g>
      <g id="Grupo_8637" data-name="Grupo 8637" transform="translate(49.401 4.325)">
        <path id="Caminho_3214" data-name="Caminho 3214" d="M466.23,162.423a4.649,4.649,0,0,1-.541,0,.959.959,0,0,1-.626-1.354,2.293,2.293,0,0,1,1.578-1.134c.882-.215,1.779-.362,2.677-.505.852-.137,1.71-.248,2.569-.339a.989.989,0,0,1,1.175.708c.124.29-.177.871-.568,1.1a8.676,8.676,0,0,1-2.733.943C468.566,162.062,467.361,162.236,466.23,162.423Z" transform="translate(-446.226 -142.656)" fill="#f8c236"/>
        <path id="Caminho_3215" data-name="Caminho 3215" d="M452.118,302.505a.993.993,0,0,1,.653-.908,1.383,1.383,0,0,1,1.626.4c.667.908,1.365,1.8,1.968,2.746a9.8,9.8,0,0,1,.852,1.888,1.514,1.514,0,0,1-.223,1.221c-.124.234-.587.256-.872.009a14.593,14.593,0,0,1-1.649-1.569c-.717-.852-1.37-1.76-2.005-2.675a5.146,5.146,0,0,1-.436-1.073C452.06,302.529,452.088,302.518,452.118,302.505Z" transform="translate(-435.321 -262.712)" fill="#f8c236"/>
        <path id="Caminho_3216" data-name="Caminho 3216" d="M441.005,115.509a3.92,3.92,0,0,1-.471-.045.886.886,0,0,1-.4-1.274,8,8,0,0,1,2.181-2.322c.854-.637,1.784-1.175,2.689-1.742a2.821,2.821,0,0,1,.662-.259,1.245,1.245,0,0,1,.819.4c.009.02.027.047.02.063-.213.535-.129,1.186-.651,1.605-.505.406-.979.854-1.489,1.255q-1.285,1.012-2.6,1.985a5.519,5.519,0,0,1-.737.394C441.026,115.549,441.016,115.529,441.005,115.509Z" transform="translate(-425.194 -101.162)" fill="#f8c236"/>
        <path id="Caminho_3217" data-name="Caminho 3217" d="M479.128,216.289c-1.246-.151-2.539-.3-3.83-.463a8.05,8.05,0,0,1-.968-.166,1.171,1.171,0,0,1-.565-1.368,1.328,1.328,0,0,1,.982-.7,10.763,10.763,0,0,1,4.476.293,2.438,2.438,0,0,1,.763.292,1.527,1.527,0,0,1,.417.422c.126.168.212.364.328.54a.633.633,0,0,1-.433.995A10.1,10.1,0,0,1,479.128,216.289Z" transform="translate(-453.592 -188.494)" fill="#f8c236"/>
        <path id="Caminho_3218" data-name="Caminho 3218" d="M362.157,57.437c-.168,1.051-.34,2.242-.563,3.422a1,1,0,0,1-.446.563,1.8,1.8,0,0,1-.913.337.858.858,0,0,1-.8-.954,10.962,10.962,0,0,1,.094-1.555,20.888,20.888,0,0,1,.38-2.139c.177-.725.435-1.429.657-2.143a.183.183,0,0,1,.044-.091c.2-.16.4-.43.62-.45.356-.031.613.267.664.654C361.992,55.815,362.059,56.551,362.157,57.437Z" transform="translate(-357.256 -54.426)" fill="#f8c236"/>
        <path id="Caminho_3219" data-name="Caminho 3219" d="M401.04,79.227a3.825,3.825,0,0,1,.59-1.77,16.594,16.594,0,0,1,2.024-3.063,2.676,2.676,0,0,1,.725-.548c.276-.151.764.2.761.51,0,.044,0,.1.022.129.464.452.19.932,0,1.353-.4.871-.866,1.718-1.32,2.565a4.33,4.33,0,0,1-1.87,1.836c-.336.173-.661,0-.813-.461A4.086,4.086,0,0,1,401.04,79.227Z" transform="translate(-392.332 -70.769)" fill="#f8c236"/>
        <path id="Caminho_3220" data-name="Caminho 3220" d="M476.41,263.807a1.542,1.542,0,0,1-1.795.221c-.51-.18-1.031-.337-1.528-.549-.855-.362-1.713-.725-2.537-1.15a1.037,1.037,0,0,1-.127-1.759.553.553,0,0,1,.344-.133,5.831,5.831,0,0,1,2.4.526c.7.372,1.422.72,2.095,1.141a3.491,3.491,0,0,1,.932.883A2.344,2.344,0,0,1,476.41,263.807Z" transform="translate(-450.468 -228.112)" fill="#f8c236"/>
        <path id="Caminho_3221" data-name="Caminho 3221" d="M348.021,368.619c-.046.508-.088,1.166-.168,1.819a1.537,1.537,0,0,1-.868,1.265.342.342,0,0,1-.472-.091,2.6,2.6,0,0,1-.662-1.285,11.677,11.677,0,0,1-.284-3.344,3.025,3.025,0,0,1,.323-1.36.981.981,0,0,1,1.538-.218c.51.4.392.938.466,1.431C347.974,367.371,347.975,367.922,348.021,368.619Z" transform="translate(-345.54 -316.38)" fill="#f8c236"/>
        <path id="Caminho_3222" data-name="Caminho 3222" d="M390.326,361.6a2.161,2.161,0,0,1-.872,2.024c-.317.217-.413.177-.626-.126a5.659,5.659,0,0,1-.872-2.41c-.08-.48-.268-.943-.333-1.423a8.711,8.711,0,0,1-.064-1.553.977.977,0,0,1,1.467-.722,1.827,1.827,0,0,1,.883,1.546c.063.744.245,1.478.37,2.217C390.306,361.332,390.317,361.514,390.326,361.6Z" transform="translate(-380.957 -309.739)" fill="#f8c236"/>
        <path id="Caminho_3223" data-name="Caminho 3223" d="M426,336.485a1.14,1.14,0,0,1,.934-1.2.842.842,0,0,1,.929.4,15.856,15.856,0,0,1,1.32,2.493,8.559,8.559,0,0,1,.366,1.935.927.927,0,0,1-.453.869c-.267.2-.543.03-.733-.165a6.2,6.2,0,0,1-1.538-2.019c-.195-.508-.422-1-.61-1.514A7.656,7.656,0,0,1,426,336.485Z" transform="translate(-413.376 -291.195)" fill="#f8c236"/>
      </g>
    </g>
    <g id="Grupo_8641" data-name="Grupo 8641" transform="translate(114.442 37.878)">
      <g id="_x32_zVlfO.tif_3_" transform="translate(0 0)">
        <g id="Grupo_8639" data-name="Grupo 8639">
          <path id="Caminho_3224" data-name="Caminho 3224" d="M564.472,154.411a2.286,2.286,0,0,0,.295-.421c.165-.4.243-.858.863-.808l-.019-.091-.417-.169a12.267,12.267,0,0,1,1.065-.72,6.666,6.666,0,0,1,2.732-.651,11.581,11.581,0,0,1,4.307.518,3.457,3.457,0,0,1,.46.19.347.347,0,0,1,.2.494.5.5,0,0,0,.229.654,1.539,1.539,0,0,1,.406,1.415,1.09,1.09,0,0,1-1.169.493c-.086-.022-.168-.055-.265-.088-.22.325-.541.182-.83.149a2.2,2.2,0,0,1-.568-.18,2.332,2.332,0,0,0-1.748.119.662.662,0,0,0-.251.585,4.51,4.51,0,0,0,.507,1.313c.844,1.36,1.767,2.672,2.6,4.04a10.991,10.991,0,0,1,1.3,2.616,4.187,4.187,0,0,1-2.231,5.184,4.555,4.555,0,0,1-2.463.582,29.6,29.6,0,0,1-3.228-.75c-.256-.072-.468-.3-.786-.29-.074,0-.162-.231-.229-.362-.05-.1-.045-.24-.116-.309-.231-.224-.1-.472-.063-.706.008-.055.158-.091.265-.146-.075-.171-.147-.366-.242-.548-.127-.246-.016-.388.2-.464.176-.061.367-.08.551-.124.217-.052.485.058.635-.218.022-.041.166-.016.254-.02a9.641,9.641,0,0,0,1.13-.071A1.325,1.325,0,0,0,569,163.855a7.333,7.333,0,0,0-1.15-2.495c-.37-.568-.766-1.12-1.158-1.674a12.225,12.225,0,0,1-2.22-4.205C564.472,155.124,564.472,154.767,564.472,154.411Z" transform="translate(-564.47 -142.98)" fill="#d26114"/>
          <path id="Caminho_3225" data-name="Caminho 3225" d="M976.009,97.08a8.5,8.5,0,0,1,1.148.494,1.911,1.911,0,0,1,.973,2.234,2.23,2.23,0,0,1-.6.927c-.67.651-1.4,1.236-2.079,1.884a14.5,14.5,0,0,0-1.271,1.415,2.564,2.564,0,0,1-2.457.786.867.867,0,0,1-.67-.595,3.475,3.475,0,0,1-.1-2.316,11.333,11.333,0,0,1,.4-1.2,2.959,2.959,0,0,1,.924-1.111c.717-.665,1.409-1.359,2.134-2.016a5.36,5.36,0,0,1,.8-.507C975.474,97.08,975.742,97.08,976.009,97.08Z" transform="translate(-907.05 -97.08)" fill="#d26114"/>
          <path id="Caminho_3226" data-name="Caminho 3226" d="M659.724,173.376a2.083,2.083,0,0,1,.264-.2c.2-.105.4-.195.6-.29l-.044-.077-.808-.1v-.089l.543-.366c-.071-.036-.111-.053-.149-.077a4.226,4.226,0,0,1-1.842-3.033,16.353,16.353,0,0,1-.146-3.425,14.137,14.137,0,0,0-.271-4.043c-.158-.587-.124-1.307-.769-1.691-.02-.013-.019-.061-.024-.094a1.155,1.155,0,0,0-1-.938c-.469-.116-.956-.163-1.436-.24.154-.4.089-.493-.35-.581-.356-.071-.709-.163-1.059-.264a7.664,7.664,0,0,0-2.969-.2,5.749,5.749,0,0,0-5.118,3.687,28.62,28.62,0,0,0-1.017,3.566,6.148,6.148,0,0,0-.264,1.657,20.907,20.907,0,0,0,.267,2.779,8.23,8.23,0,0,0,1.211,3.419,5.389,5.389,0,0,0,1.2,1.229,1.655,1.655,0,0,0,1.6.3,1.9,1.9,0,0,1,1.17.078,1.862,1.862,0,0,0,1.139.016,20.494,20.494,0,0,0,2.161-1.235c.289-.176.549-.4.827-.606.6,1.123.6,1.123,1.031,1.331-.053.337,1.081,1.064,1.691,1.07-.017-.115-.034-.226-.063-.4.38.086.722.168,1.064.24a4.936,4.936,0,0,0,.748.137.946.946,0,0,0,.971-.637c-.265-.127-.53-.256-.8-.383.017-.038.034-.075.05-.113a7.02,7.02,0,0,1,.714.3.993.993,0,0,0,.952.067,5.566,5.566,0,0,0,.555-.344c-.149-.085-.273-.141-.383-.22A2.747,2.747,0,0,1,659.724,173.376Zm-7.7-7.7c-.107.279-.162.606-.522.714-.049.014-.094.157-.082.229a2.549,2.549,0,0,1-.678,2.03,5.411,5.411,0,0,0-.56.887,3.2,3.2,0,0,1-.308.347c-.122-.111-.322-.206-.355-.339a15.549,15.549,0,0,1-.37-1.853,9.308,9.308,0,0,1,.6-4.7,9.014,9.014,0,0,1,.855-1.5,1.659,1.659,0,0,1,1.327-.725.356.356,0,0,1,.287.173c.135.565.24,1.136.355,1.706A13.014,13.014,0,0,1,652.022,165.68Z" transform="translate(-631.406 -148.112)" fill="#d26114"/>
          <path id="Caminho_3227" data-name="Caminho 3227" d="M888.483,173.587v.827c-.193-.231-.331-.394-.466-.554-.02,0-.038,0-.041.006-.268.653-.827.554-1.354.508a.461.461,0,0,1-.27-.185c-.071-.093-.077-.3-.141-.317a3.659,3.659,0,0,0-.708-.033c-.045,0-.089.052-.116.067a1.742,1.742,0,0,1-.794-1.637c.038-.967.006-1.938-.047-2.9-.022-.4-.218-.781-.273-1.18-.113-.824-.2-1.652-.27-2.481a21.033,21.033,0,0,0-.764-4.982,4.836,4.836,0,0,1-.047-1.194c-.02-.326-.1-.65-.1-.974a.66.66,0,0,1,.215-.419,3.416,3.416,0,0,1,1.544-.739,5.2,5.2,0,0,1,2.333-.19c.67.132.857.35.97,1.01a7.233,7.233,0,0,0,.32.976,27.006,27.006,0,0,1,1.084,5.022,49.21,49.21,0,0,1,.2,7.93c-.016.366-.036.731-.067,1.1-.013.147-.027.389-.1.417a1.822,1.822,0,0,1-.679.078A1.449,1.449,0,0,1,888.483,173.587Z" transform="translate(-833.097 -147.718)" fill="#d26114"/>
          <path id="Caminho_3228" data-name="Caminho 3228" d="M885.72,114.3a4.5,4.5,0,0,1-3.26-1.048,1.088,1.088,0,0,1-.468-1.39,1.317,1.317,0,0,1,.513-.507,3.727,3.727,0,0,1,3.184-.483,2.9,2.9,0,0,0,.554.105,1.139,1.139,0,0,1,.819.46c.665.825.664.828.543,1.913a.624.624,0,0,1-.086.2c-.014.028-.053.042-.072.069A1.5,1.5,0,0,1,885.72,114.3Z" transform="translate(-832.092 -108.572)" fill="#d26114"/>
          <path id="Caminho_3229" data-name="Caminho 3229" d="M780.149,121.181a1.844,1.844,0,0,0-.342-1.288,6.867,6.867,0,0,0-3.152-2.478,11.073,11.073,0,0,0-3.672-.719,5.764,5.764,0,0,0-2.338.237,3.32,3.32,0,0,1-.657.093c-.245.038-.333-.067-.348-.308-.05-.709-.162-1.417-.173-2.126a20.309,20.309,0,0,1,.08-2.965,8.467,8.467,0,0,0-.212-3.646,1.147,1.147,0,0,0-.872-.869,9.124,9.124,0,0,0-2.324-.173,1.472,1.472,0,0,0-.532.179c-.149.06-.315.217-.433.184a.485.485,0,0,0-.646.314,5.4,5.4,0,0,0-.413,1.556q-.1,2.97-.077,5.945a14.517,14.517,0,0,0,.392,4.327.652.652,0,0,1,.008.166c.019,1.169.025,2.338.061,3.507.055,1.757.115,3.516.21,5.272a3.7,3.7,0,0,0,.585,1.853.845.845,0,0,0,.709.425.642.642,0,0,1,.362.176c.147.133.243.328.4.444a.645.645,0,0,0,.468.144.536.536,0,0,1,.629.152,1.85,1.85,0,0,1,.516-.05,5.407,5.407,0,0,1,1.2.38.615.615,0,0,0,.708.031,4.61,4.61,0,0,1,.618-.355,3.37,3.37,0,0,0,.559-.278,11.2,11.2,0,0,0,2.255-1.817,4.625,4.625,0,0,1,.821-.726,1.051,1.051,0,0,1,.271-.113l.439-.176a.9.9,0,0,0,.4-.126q1.535-1.363,3.047-2.752a3.791,3.791,0,0,0,.408-.485,5.57,5.57,0,0,0,1.166-3.369C780.27,121.561,780.132,121.364,780.149,121.181Zm-4.993.475a3.544,3.544,0,0,1-1.064,1.627c-.593.568-1.235,1.086-1.877,1.6-.573.458-1.171.885-1.762,1.321-.138.1-.289.19-.474.309-.008-.157-.017-.254-.017-.35,0-1.313-.008-2.628.008-3.941a.786.786,0,0,1,.206-.485c.275-.29.59-.54.885-.81.625-.574,1.453-.508,2.2-.686a3,3,0,0,1,1.122,0C775.089,120.354,775.361,120.891,775.157,121.656Z" transform="translate(-732.721 -105.392)" fill="#d26114"/>
          <path id="Caminho_3230" data-name="Caminho 3230" d="M962.718,173.369a1.634,1.634,0,0,1,.253-.2c.2-.105.406-.191.61-.286-.013-.027-.023-.055-.036-.082l-.814-.1c0-.028,0-.055,0-.083l.518-.367a3.827,3.827,0,0,1-1.422-1.476,6.16,6.16,0,0,1-.667-2.655c-.033-1.224-.011-2.448-.011-3.672a10.734,10.734,0,0,0-.694-4.139,1.182,1.182,0,0,0-.171-.268c-.077-.1-.169-.184-.248-.281a3.169,3.169,0,0,0-.508-.617,1.925,1.925,0,0,0-.739-.273c-.383-.077-.777-.105-1.177-.157.18-.394.1-.518-.284-.592-.367-.071-.733-.162-1.094-.265a7.689,7.689,0,0,0-3-.2,5.871,5.871,0,0,0-4.985,3.4,15.411,15.411,0,0,0-1.067,3.518,8.983,8.983,0,0,0-.337,1.685,14.488,14.488,0,0,0,.7,4.786,5.29,5.29,0,0,0,1.757,2.8,1.923,1.923,0,0,0,1.82.449,1.978,1.978,0,0,1,1.2.088,1.806,1.806,0,0,0,1.111.014,20.107,20.107,0,0,0,2.134-1.214c.3-.184.571-.417.858-.632.314.491.408,1.114,1.031,1.315-.056.356,1.161,1.123,1.7,1.069-.019-.107-.039-.212-.071-.38.328.069.626.133.926.195a7.392,7.392,0,0,0,.877.171.968.968,0,0,0,.992-.634l-.8-.375c.008-.035.014-.069.022-.1a2,2,0,0,1,.582.191c.6.439,1.108.234,1.648-.2-.138-.077-.254-.13-.359-.2C962.879,173.527,962.8,173.444,962.718,173.369Zm-7.724-7.652c-.1.256-.157.56-.5.656-.052.014-.105.179-.086.256a2.5,2.5,0,0,1-.557,1.884,2.269,2.269,0,0,0-.7,1.031.517.517,0,0,1-.319.308c-.093.013-.282-.16-.311-.281a16.461,16.461,0,0,1-.386-1.881,9.354,9.354,0,0,1,.613-4.767,8.162,8.162,0,0,1,.874-1.486,1.651,1.651,0,0,1,1.315-.684.327.327,0,0,1,.262.165c.133.565.242,1.136.358,1.7A12.574,12.574,0,0,1,954.993,165.717Z" transform="translate(-886.841 -148.095)" fill="#d26114"/>
        </g>
      </g>
      <g id="Grupo_8640" data-name="Grupo 8640" transform="translate(0.089 31.706)">
        <path id="Caminho_3231" data-name="Caminho 3231" d="M565.04,311.755V300.91h4.472v1.624h-2.849v2.879H569.3v1.5h-2.638v3.2h2.991v1.64Z" transform="translate(-565.04 -300.634)" fill="#593c18"/>
        <path id="Caminho_3232" data-name="Caminho 3232" d="M612.089,306.348a6.866,6.866,0,0,1-.995,3.99,3.35,3.35,0,0,1-2.928,1.417h-2.5V300.91h2.51a3.322,3.322,0,0,1,2.914,1.433A6.948,6.948,0,0,1,612.089,306.348Zm-1.691,0a7.831,7.831,0,0,0-.162-1.685,3.833,3.833,0,0,0-.458-1.194,2.068,2.068,0,0,0-.7-.712,1.739,1.739,0,0,0-.888-.237h-.8v7.629h.8a1.731,1.731,0,0,0,.888-.237,2.041,2.041,0,0,0,.7-.712,3.855,3.855,0,0,0,.458-1.188A7.649,7.649,0,0,0,610.4,306.348Z" transform="translate(-599.295 -300.634)" fill="#593c18"/>
        <path id="Caminho_3233" data-name="Caminho 3233" d="M663.4,309.528a3.783,3.783,0,0,1-.551,1.31,2.728,2.728,0,0,1-.981.88,3.066,3.066,0,0,1-1.459.322,3,3,0,0,1-1.453-.322,2.7,2.7,0,0,1-.966-.88,3.765,3.765,0,0,1-.537-1.31,7.6,7.6,0,0,1-.162-1.608v-7h1.693v6.832a7.2,7.2,0,0,0,.064.973,2.859,2.859,0,0,0,.226.819,1.4,1.4,0,0,0,.444.559,1.35,1.35,0,0,0,1.437,0,1.411,1.411,0,0,0,.444-.559,2.89,2.89,0,0,0,.226-.819,7.2,7.2,0,0,0,.064-.973V300.92h1.679v7A7.489,7.489,0,0,1,663.4,309.528Z" transform="translate(-642.816 -300.642)" fill="#593c18"/>
        <path id="Caminho_3234" data-name="Caminho 3234" d="M713.136,310.149a2.788,2.788,0,0,1-1.544.4,2.828,2.828,0,0,1-1.531-.428,3.646,3.646,0,0,1-1.156-1.188,6.242,6.242,0,0,1-.734-1.8,10.161,10.161,0,0,1,0-4.572,6.116,6.116,0,0,1,.741-1.808,3.625,3.625,0,0,1,1.164-1.18,2.839,2.839,0,0,1,1.517-.422,3.161,3.161,0,0,1,1.509.345,2.788,2.788,0,0,1,1.057.988l-.973,1.287a1.726,1.726,0,0,0-1.5-.9,1.356,1.356,0,0,0-.888.314,2.415,2.415,0,0,0-.635.85,4.929,4.929,0,0,0-.381,1.263,9.044,9.044,0,0,0-.127,1.555,8.938,8.938,0,0,0,.127,1.539,4.942,4.942,0,0,0,.381,1.265,2.386,2.386,0,0,0,.642.85,1.406,1.406,0,0,0,.91.314,1.364,1.364,0,0,0,.854-.276,2.381,2.381,0,0,0,.6-.675l.973,1.241A3.252,3.252,0,0,1,713.136,310.149Z" transform="translate(-685.493 -299.15)" fill="#593c18"/>
        <path id="Caminho_3235" data-name="Caminho 3235" d="M754.669,311.755l-.494-2.3h-2.623l-.508,2.3H749.35l2.484-10.845h2.159l2.44,10.845Zm-1.764-9.113h-.056l-1.086,5.377h2.2Z" transform="translate(-720.431 -300.634)" fill="#593c18"/>
        <path id="Caminho_3236" data-name="Caminho 3236" d="M804.495,310.149a2.787,2.787,0,0,1-1.544.4,2.819,2.819,0,0,1-1.53-.428,3.63,3.63,0,0,1-1.156-1.188,6.244,6.244,0,0,1-.734-1.8,10.164,10.164,0,0,1,0-4.572,6.115,6.115,0,0,1,.741-1.808,3.64,3.64,0,0,1,1.164-1.18,2.839,2.839,0,0,1,1.517-.422,3.165,3.165,0,0,1,1.509.345,2.777,2.777,0,0,1,1.058.988l-.973,1.287a1.726,1.726,0,0,0-1.5-.9,1.361,1.361,0,0,0-.89.314,2.393,2.393,0,0,0-.634.85,4.929,4.929,0,0,0-.381,1.263,9.044,9.044,0,0,0-.127,1.555,8.938,8.938,0,0,0,.127,1.539,4.942,4.942,0,0,0,.381,1.265,2.386,2.386,0,0,0,.642.85,1.406,1.406,0,0,0,.91.314,1.364,1.364,0,0,0,.854-.276,2.381,2.381,0,0,0,.6-.675l.973,1.241A3.274,3.274,0,0,1,804.495,310.149Z" transform="translate(-762.518 -299.15)" fill="#593c18"/>
        <path id="Caminho_3237" data-name="Caminho 3237" d="M848.08,311.755V300.91h1.693v10.845Z" transform="translate(-803.67 -300.634)" fill="#593c18"/>
        <path id="Caminho_3238" data-name="Caminho 3238" d="M877.664,304.843a10.209,10.209,0,0,1-.246,2.336,6,6,0,0,1-.712,1.8,3.511,3.511,0,0,1-1.136,1.164,2.946,2.946,0,0,1-3.013,0,3.536,3.536,0,0,1-1.128-1.164,6,6,0,0,1-.712-1.8,10.209,10.209,0,0,1-.246-2.336,10.393,10.393,0,0,1,.24-2.328,5.874,5.874,0,0,1,.706-1.792,3.426,3.426,0,0,1,1.136-1.156,2.877,2.877,0,0,1,1.516-.406,2.838,2.838,0,0,1,1.5.406,3.427,3.427,0,0,1,1.136,1.156,6.015,6.015,0,0,1,.712,1.792A10.279,10.279,0,0,1,877.664,304.843Zm-1.749,0a9.746,9.746,0,0,0-.119-1.555,5.253,5.253,0,0,0-.353-1.257,2.377,2.377,0,0,0-.579-.835,1.167,1.167,0,0,0-.8-.306,1.185,1.185,0,0,0-.811.306,2.377,2.377,0,0,0-.579.835,4.988,4.988,0,0,0-.345,1.257,10.757,10.757,0,0,0,0,3.11,5.252,5.252,0,0,0,.345,1.265,2.355,2.355,0,0,0,.579.843,1.228,1.228,0,0,0,1.622,0,2.355,2.355,0,0,0,.579-.843,5.16,5.16,0,0,0,.345-1.265A10.162,10.162,0,0,0,875.915,304.843Z" transform="translate(-822.547 -299.158)" fill="#593c18"/>
        <path id="Caminho_3239" data-name="Caminho 3239" d="M932.2,311.755l-2.835-7.658h-.042l.028,7.658H927.83V300.91h1.933l2.807,7.7h.042l-.014-7.7h1.467v10.845Z" transform="translate(-870.907 -300.634)" fill="#593c18"/>
        <path id="Caminho_3240" data-name="Caminho 3240" d="M980.979,311.755l-.494-2.3h-2.623l-.508,2.3H975.66l2.484-10.845H980.3l2.44,10.845Zm-1.764-9.113h-.056l-1.086,5.377h2.2Z" transform="translate(-911.232 -300.634)" fill="#593c18"/>
        <path id="Caminho_3241" data-name="Caminho 3241" d="M1028.89,311.755V300.91h1.707v9.144h2.75v1.7Z" transform="translate(-956.11 -300.634)" fill="#593c18"/>
      </g>
    </g>
  </g>
</svg>
