<svg xmlns="http://www.w3.org/2000/svg" width="40.944" height="34.754" viewBox="0 0 40.944 34.754">
  <g id="icone_sabiá_laranja" data-name="icone sabiá laranja" transform="translate(-47.73 -45.44)">
    <path id="Caminho_3242" data-name="Caminho 3242" d="M520.044,692.56c-.189-.175-.463-.451-.638-.64H519.4A7.86,7.86,0,0,0,520.044,692.56Z" transform="translate(-451.725 -619.143)" fill="none"/>
    <path id="Caminho_3243" data-name="Caminho 3243" d="M469.15,800.088l.027-.024q.07-.377.1-.764S469.161,800.067,469.15,800.088Z" transform="translate(-403.6 -721.983)" fill="none"/>
    <path id="Caminho_3244" data-name="Caminho 3244" d="M545.863,619.335l.006-.008q-.614-.725-1.229-1.447C545.225,618.569,545.839,619.3,545.863,619.335Z" transform="translate(-475.898 -548.234)" fill="none"/>
    <path id="Caminho_3245" data-name="Caminho 3245" d="M609.678,549.62c-.05.3-.112.6-.178.894C609.571,550.224,609.633,549.926,609.678,549.62Z" transform="translate(-538.015 -482.861)" fill="none"/>
    <path id="Caminho_3246" data-name="Caminho 3246" d="M510.68,718.615a11.33,11.33,0,0,0,1.491-2.355c-.075.132-.151.264-.223.4C511.559,717.32,511.129,717.968,510.68,718.615Z" transform="translate(-443.374 -642.454)" fill="none"/>
    <path id="Caminho_3247" data-name="Caminho 3247" d="M589.2,587.82q-.32.838-.682,1.661A11.661,11.661,0,0,0,589.2,587.82Z" transform="translate(-517.922 -519.445)" fill="none"/>
    <path id="Caminho_3248" data-name="Caminho 3248" d="M638.091,417.172h0q.017.565,0,1.131c.017-.24.032-.48.042-.721a9.744,9.744,0,0,0-.233-2.532,13.867,13.867,0,0,1,.189,1.96C638.091,417.064,638.09,417.118,638.091,417.172Z" transform="translate(-565.214 -353.981)" fill="none"/>
    <path id="Caminho_3249" data-name="Caminho 3249" d="M209.569,296.032a6.043,6.043,0,0,1,2.043-.38,12.256,12.256,0,0,0,1.735-.156A1.945,1.945,0,0,0,215,293.063a1.924,1.924,0,0,0-1.307-1.6,5.826,5.826,0,0,0-2.541-.269,4.814,4.814,0,0,0-1.923.671,5.9,5.9,0,0,0-2.013,2.067,7.847,7.847,0,0,0-.309,7.647c0-.114.007-.228,0-.342a7.018,7.018,0,0,1,.194-2.256A4.173,4.173,0,0,1,209.569,296.032Zm1.372-3.042a.829.829,0,0,1,.047-.2c.1-.214.257-.062.282.016a1.08,1.08,0,0,0,.28.531.785.785,0,0,0,.7.145c.23-.079.367-.145.543-.68.059-.181.222-.112.289-.053a.434.434,0,0,1,.065.151,1.391,1.391,0,0,1-.4,1.181,1.031,1.031,0,0,1-.763.184,1.176,1.176,0,0,1-.905-.564,1.381,1.381,0,0,1-.118-.26A1.731,1.731,0,0,1,210.941,292.99Z" transform="translate(-151.633 -235.33)" fill="none"/>
    <path id="Caminho_3250" data-name="Caminho 3250" d="M440.235,691.95a12.949,12.949,0,0,1-3.495.151,5.874,5.874,0,0,1,.422.534c.085.114.16.234.239.351s.142.244.21.366a5.5,5.5,0,0,1,.539,1.554,6.546,6.546,0,0,1,.09,1.583q-.033.388-.1.764a11.675,11.675,0,0,0,1.555-1.675c.058-.082.117-.163.173-.245.449-.647.879-1.295,1.268-1.956.071-.135.148-.267.223-.4a2.48,2.48,0,0,1-.477-.389A8,8,0,0,1,440.235,691.95Z" transform="translate(-372.56 -619.172)" fill="none"/>
    <path id="Caminho_3251" data-name="Caminho 3251" d="M321.767,259.367a9.88,9.88,0,0,0-.47-1.723,8.066,8.066,0,0,0-.787-1.562,7.361,7.361,0,0,0-.514-.7l-.136-.168-.145-.161c-.094-.11-.2-.211-.3-.312a8.025,8.025,0,0,0-2.964-1.816,10.571,10.571,0,0,0-1.731-.463c-.3-.055-.6-.091-.9-.122a8.707,8.707,0,0,0-.886-.032c-.148,0-.3.006-.445.018s-.3.025-.445.04c-.3.028-.593.078-.888.135a8.944,8.944,0,0,0-1.721.542c-.2.084-.389.178-.579.277a5.489,5.489,0,0,1,3.245.1,2.921,2.921,0,0,1,2.064,2.252.444.444,0,0,0,.03.067h2.971l.01.035c-.056.029-.114.056-.169.086-.726.392-1.443.8-2.184,1.167a1.988,1.988,0,0,0-.923.774,3.9,3.9,0,0,1-.945,1.026,2.863,2.863,0,0,1-1.294.5l-.136.027.583.681q.687.778,1.375,1.562l1.174,1.335,1.17,1.348c.783.9,1.557,1.808,2.337,2.714.188.217.422.492.662.774q.615.722,1.229,1.447a7.861,7.861,0,0,0,.626-1.057q.36-.825.682-1.661c.075-.232.144-.473.205-.721.066-.3.127-.6.178-.894s.1-.616.129-.925.069-.617.09-.926a14.965,14.965,0,0,0,.016-1.853A13.557,13.557,0,0,0,321.767,259.367Z" transform="translate(-250.088 -198.122)" fill="none"/>
    <path id="Caminho_3252" data-name="Caminho 3252" d="M321.449,328.148a1.176,1.176,0,0,0,.905.564,1.03,1.03,0,0,0,.763-.184,1.393,1.393,0,0,0,.4-1.181.426.426,0,0,0-.065-.151c-.067-.059-.23-.127-.289.053-.176.535-.312.6-.543.68a.784.784,0,0,1-.7-.145,1.078,1.078,0,0,1-.279-.531c-.025-.079-.177-.231-.282-.016a.8.8,0,0,0-.047.2,1.711,1.711,0,0,0,.015.452A1.4,1.4,0,0,0,321.449,328.148Z" transform="translate(-262.009 -269.776)" fill="#bb601c"/>
    <path id="Caminho_3253" data-name="Caminho 3253" d="M198.523,256.136l.057-.126.006-.013a7.575,7.575,0,0,0,.45-1.136,4.992,4.992,0,0,0,.135-1.174,6.205,6.205,0,0,0-.348-2.329,4.75,4.75,0,0,0-1.3-1.939,4.923,4.923,0,0,0-.452-.358,5.3,5.3,0,0,0-.58-.323,8.306,8.306,0,0,0-.956-.372c-.127-.044-.258-.088-.389-.136a12.931,12.931,0,0,1-1.346-.584,12.338,12.338,0,0,1-1.582-.961l-.054-.036c-.067-.045-.136-.093-.2-.141a9.9,9.9,0,0,1-2.693-2.859,8.882,8.882,0,0,1-1.244-3.725c0-.024,0-.049-.006-.073s0-.037,0-.056a8.776,8.776,0,0,1-.049-1.684,9.375,9.375,0,0,1,.5-2.487,9.093,9.093,0,0,1,4.815-5.513,9.8,9.8,0,0,1,3.821-.953,10.038,10.038,0,0,1,1.975.119,11.623,11.623,0,0,1,1.255.265l.049.013-.041.085a9.087,9.087,0,0,1,3.115,1.546,8.878,8.878,0,0,1,2.109,2.208,10.387,10.387,0,0,1,1.29,2.958c.057.2.11.413.162.649a13.963,13.963,0,0,1,.19,1.968c0,.032,0,.064,0,.1,0,.011,0,.022,0,.033l0,.034c.011.368.009.749,0,1.133v0a21.6,21.6,0,0,1-.479,3.314c-.076.334-.162.674-.254,1.011a26.608,26.608,0,0,1-1.343,3.511l2,2.341-.114.081-.167.117-.015.011a.256.256,0,0,1-.095.049l-.024,0a1.479,1.479,0,0,1-.271.037c-.106,0-.212,0-.318.007a6.476,6.476,0,0,1-.9-.017,3.452,3.452,0,0,1-.951-.269c-.09-.038-.186-.082-.293-.134-.075.126-.154.258-.236.386a20.46,20.46,0,0,1-1.466,1.964c-.334.4-.7.779-1.051,1.148-.2.211-.409.428-.609.646a11.386,11.386,0,0,1-1.98,1.591Zm-1.033-26.9q-.2,0-.387.009a9.714,9.714,0,0,0-3.788.945,9.569,9.569,0,0,0-5.265,7.929,8.66,8.66,0,0,0,.049,1.669c0,.021,0,.04,0,.059s0,.047.005.07a8.8,8.8,0,0,0,1.232,3.69,9.808,9.808,0,0,0,2.67,2.834c.066.047.135.094.2.139l.055.037a12.3,12.3,0,0,0,1.572.954,12.951,12.951,0,0,0,1.337.58c.129.047.26.092.387.135a8.386,8.386,0,0,1,.965.375,5.361,5.361,0,0,1,.591.329,5.019,5.019,0,0,1,.461.364,4.832,4.832,0,0,1,1.324,1.973,6.286,6.286,0,0,1,.353,2.36,5.039,5.039,0,0,1-.138,1.194,7.233,7.233,0,0,1-.4,1.027,10.826,10.826,0,0,0,1.838-1.5c.2-.219.408-.437.61-.647.351-.368.714-.748,1.047-1.144a20.408,20.408,0,0,0,1.46-1.956c.089-.138.174-.282.255-.417l.02-.033.035.017c.12.058.225.107.324.149a3.36,3.36,0,0,0,.928.263,6.363,6.363,0,0,0,.889.017c.107,0,.213-.006.32-.007a1.385,1.385,0,0,0,.255-.035l.024,0a.189.189,0,0,0,.062-.035l.016-.011c.054-.037.107-.075.165-.116l.038-.027-1.976-2.312.011-.025a26.627,26.627,0,0,0,1.35-3.523c.092-.335.178-.674.253-1.006a21.534,21.534,0,0,0,.477-3.3c.013-.367.014-.732.005-1.085h0l0-.042c0-.022,0-.045,0-.068s0-.063,0-.094a13.862,13.862,0,0,0-.189-1.954c-.051-.232-.1-.442-.161-.642a10.28,10.28,0,0,0-1.279-2.934,8.786,8.786,0,0,0-2.089-2.187,9,9,0,0,0-3.12-1.541l-.031-.008v-.079l.008-.016a11.456,11.456,0,0,0-1.2-.25A10.511,10.511,0,0,0,197.49,229.234Zm2.111,25.654.069-.23c.049-.165.092-.336.129-.522l-.1.087.1-.191c.014-.054.105-.633.128-.779a6.5,6.5,0,0,0-.09-1.569,5.448,5.448,0,0,0-.535-1.543c-.068-.123-.138-.246-.209-.364l-.069-.1c-.054-.081-.109-.164-.168-.244a5.294,5.294,0,0,0-.565-.627c-.03-.028-.062-.056-.093-.083l-.054-.047-.089-.079.119.005c.464.02.938.022,1.409.005.52-.015,1.064-.051,1.664-.112.137-.014.276-.03.41-.046l.138-.016.014.021a2.785,2.785,0,0,0,.172.224l.019.014c.172.187.445.461.636.638a4.911,4.911,0,0,0,.474.386l.028.02-.014.032A8.774,8.774,0,0,1,202,251.613c-.111.15-.236.32-.375.513l-.117.166-.057.08c-.394.556-.811,1.116-1.239,1.688Zm.327-.977-.022.12c-.028.152-.059.295-.094.431l.335-.452c.428-.572.845-1.131,1.238-1.687l.057-.08.117-.165h0c.14-.194.265-.364.376-.515a8.613,8.613,0,0,0,1.1-1.8,4.92,4.92,0,0,1-.453-.372c-.186-.173-.45-.438-.625-.625h0l-.022-.017c-.066-.077-.124-.151-.176-.226l-.087.011c-.135.016-.274.033-.412.046-.6.06-1.148.1-1.67.112-.432.015-.866.015-1.294,0l.058.053a5.364,5.364,0,0,1,.574.637c.06.081.116.165.17.247l.07.1c.072.121.143.244.212.369a5.532,5.532,0,0,1,.544,1.568,6.577,6.577,0,0,1,.091,1.593s-.068.444-.108.673Zm-.226-5.924a10.719,10.719,0,0,1-1.749-.147c-.759-.125-4.647-.888-6.656-3.646l-.005-.008a4.341,4.341,0,0,1-.78-2.66,4.79,4.79,0,0,1,.993-2.917l.087-.105a2.686,2.686,0,0,1,.663-.644,4.955,4.955,0,0,1,1-.4l.239-.078a2.716,2.716,0,0,1,.445-.094c.075-.012.153-.024.234-.039l.088-.017-.042.078a7.655,7.655,0,0,0-.451,3.886,5.217,5.217,0,0,0,.811,2.2,10.709,10.709,0,0,0,1.724,2,9.166,9.166,0,0,0,1.668,1.128l.307.177a9.3,9.3,0,0,0,3.127,1.052l.016.083A9.451,9.451,0,0,1,199.7,247.987Zm-5.6-10.642-.152.024a2.656,2.656,0,0,0-.431.09l-.24.078a4.872,4.872,0,0,0-.986.4,2.634,2.634,0,0,0-.641.625l-.088.106a4.652,4.652,0,0,0-.789,1.564,4.576,4.576,0,0,0-.184,1.3,4.252,4.252,0,0,0,.764,2.606l.006.008c1.99,2.731,5.849,3.488,6.6,3.612a10.123,10.123,0,0,0,3.04.057,12.319,12.319,0,0,1-2.771-1.043l-.306-.176a9.217,9.217,0,0,1-1.683-1.139,10.776,10.776,0,0,1-1.738-2.018,5.291,5.291,0,0,1-.824-2.228m10.681,6.02-.111-.131,0,0-.029-.027.007-.008,0,0,0,0-.011.007c-.025-.037-.622-.748-1.221-1.452l-.107-.125c-.185-.217-.369-.433-.555-.649l-.76-.885c-.516-.6-1.049-1.224-1.577-1.829l-1.17-1.348L197.44,239.2l-1.162-1.319-.63-.737.133-.027.075-.015a2.876,2.876,0,0,0,1.275-.488,3.854,3.854,0,0,0,.934-1.015,2.037,2.037,0,0,1,.94-.79c.521-.255,1.038-.539,1.538-.814.211-.116.429-.236.644-.352l.079-.041h-2.9l-.011-.025-.014-.03a.2.2,0,0,1-.019-.046,2.867,2.867,0,0,0-2.036-2.221,5.454,5.454,0,0,0-3.22-.1l-.4.114.372-.192c.219-.113.4-.2.582-.278a8.986,8.986,0,0,1,1.729-.544c.358-.069.633-.111.892-.136l.095-.01c.115-.012.234-.025.353-.03.151-.013.3-.016.447-.019a8.793,8.793,0,0,1,.89.033c.267.028.582.064.9.123a10.6,10.6,0,0,1,1.738.464,8,8,0,0,1,2.979,1.825l.015.015c.1.1.2.194.287.3l.144.16.137.17a7.344,7.344,0,0,1,.516.7,8.1,8.1,0,0,1,.791,1.57,9.958,9.958,0,0,1,.472,1.73,13.515,13.515,0,0,1,.218,1.817,15.065,15.065,0,0,1-.016,1.857h0c-.023.334-.053.638-.09.928-.036.338-.088.673-.129.926-.042.286-.1.58-.178.9l-.014.063c-.029.132-.06.27-.093.4v0c-.019.049-.038.1-.057.148s-.028.071-.041.106a11.865,11.865,0,0,1-.684,1.666c-.183.418-.355.8-.527,1.172Zm-.111-.262.09.107c.162-.351.326-.715.5-1.112a11.8,11.8,0,0,0,.681-1.658l.042-.109q.029-.072.056-.145c.033-.133.063-.268.092-.4l.014-.063c.078-.316.136-.607.177-.891.041-.253.093-.586.129-.924.037-.289.066-.592.09-.924h0a14.99,14.99,0,0,0,.016-1.847,13.483,13.483,0,0,0-.217-1.806,9.868,9.868,0,0,0-.468-1.716,8.014,8.014,0,0,0-.783-1.554,7.218,7.218,0,0,0-.511-.693l-.136-.169-.143-.159c-.089-.1-.187-.2-.282-.3l-.015-.015a7.921,7.921,0,0,0-2.949-1.806,10.512,10.512,0,0,0-1.724-.461c-.317-.058-.63-.094-.895-.122s-.565-.039-.881-.032c-.142,0-.293.005-.443.018-.118.005-.235.018-.349.03l-.1.01a8.742,8.742,0,0,0-2.6.674c-.077.033-.154.068-.235.106a5.6,5.6,0,0,1,2.9.191,2.947,2.947,0,0,1,2.093,2.283.137.137,0,0,0,.011.026l0,.008H201.4l.028.1-.085.043c-.038.019-.077.038-.114.058-.215.116-.433.236-.644.351-.5.275-1.019.56-1.541.816a1.935,1.935,0,0,0-.905.758,3.941,3.941,0,0,1-.955,1.038,2.956,2.956,0,0,1-1.313.5l-.064.013.536.627,1.161,1.318,1.387,1.578,1.17,1.348c.528.606,1.061,1.228,1.577,1.829l.76.885q.279.323.556.649l.107.125c.465.547,1.039,1.229,1.19,1.414Zm-14.655-4.59-.08-.16a7.909,7.909,0,0,1-.8-2.7,7.83,7.83,0,0,1,1.115-4.988,5.968,5.968,0,0,1,2.028-2.081,4.883,4.883,0,0,1,1.94-.677,5.874,5.874,0,0,1,2.56.271,1.974,1.974,0,0,1,1.336,1.628,1.986,1.986,0,0,1-1.685,2.481,8.471,8.471,0,0,1-1.33.135c-.135.007-.275.014-.412.022a5.973,5.973,0,0,0-2.029.377,4.144,4.144,0,0,0-2.446,2.927,7,7,0,0,0-.193,2.242h0c.005.079,0,.16,0,.237,0,.036,0,.071,0,.107v.18Zm4.875-10.562a5.775,5.775,0,0,0-.666.039,4.791,4.791,0,0,0-1.907.666,5.887,5.887,0,0,0-2,2.053,7.8,7.8,0,0,0-.385,7.447c0-.054,0-.108,0-.16h0a7.1,7.1,0,0,1,.2-2.269,4.224,4.224,0,0,1,2.494-2.984,6.047,6.047,0,0,1,2.057-.384c.137-.009.277-.016.413-.022a8.412,8.412,0,0,0,1.316-.134,1.9,1.9,0,0,0,1.62-2.384,1.869,1.869,0,0,0-1.279-1.562A5.832,5.832,0,0,0,194.476,231.815Z" transform="translate(-134.287 -175.942)" fill="#bb601c"/>
    <g id="Grupo_8642" data-name="Grupo 8642" transform="translate(65.314 76.382)">
      <path id="Caminho_3254" data-name="Caminho 3254" d="M466.323,779.425a6.306,6.306,0,0,1-.153.647l.47-.634c.423-.565.84-1.124,1.238-1.688A11.685,11.685,0,0,1,466.323,779.425Z" transform="translate(-466.06 -777.726)" fill="#bb601c"/>
      <path id="Caminho_3255" data-name="Caminho 3255" d="M463.58,779.735l.069-.23a6.114,6.114,0,0,0,.153-.642l0-.014.011-.01a11.629,11.629,0,0,0,1.549-1.669l.069.049c-.394.557-.811,1.116-1.239,1.688Zm.3-.843c-.027.147-.058.285-.091.417l.335-.452q.278-.372.55-.738C464.306,778.512,463.988,778.8,463.882,778.892Z" transform="translate(-463.58 -777.17)" fill="#bb601c"/>
    </g>
    <g id="Grupo_8643" data-name="Grupo 8643" transform="translate(68.29 73.386)">
      <path id="Caminho_3256" data-name="Caminho 3256" d="M535.117,707.459a5.02,5.02,0,0,1-.477-.389A2.475,2.475,0,0,0,535.117,707.459Z" transform="translate(-534.611 -707.038)" fill="#bb601c"/>
      <path id="Caminho_3257" data-name="Caminho 3257" d="M534.445,706.777a2.057,2.057,0,0,1-.412-.326l-.073-.068.057-.062a4.926,4.926,0,0,0,.474.386Z" transform="translate(-533.96 -706.32)" fill="#bb601c"/>
    </g>
    <g id="Grupo_8644" data-name="Grupo 8644" transform="translate(63.766 72.49)">
      <path id="Caminho_3258" data-name="Caminho 3258" d="M433.54,686.443a2.922,2.922,0,0,1-.188-.243c-.174.021-.348.042-.523.06-.553.055-1.109.1-1.667.112-.47.017-.94.016-1.412-.005.049.044.1.085.148.131a5.339,5.339,0,0,1,.57.632,5.864,5.864,0,0,0-.422-.534A12.951,12.951,0,0,0,433.54,686.443Z" transform="translate(-429.632 -686.155)" fill="#bb601c"/>
      <path id="Caminho_3259" data-name="Caminho 3259" d="M427.772,686.129a5.262,5.262,0,0,0-.565-.627c-.03-.028-.062-.056-.093-.083l-.054-.047-.089-.079.119.005c.464.02.938.022,1.408.005.52-.015,1.064-.051,1.664-.112.137-.014.276-.03.41-.046l.138-.016.014.021a2.78,2.78,0,0,0,.186.24l.049.057-.178.029a12.785,12.785,0,0,1-3.294.143c.091.105.182.228.264.34l.087.118h0Zm-.422-.605.037,0a12.759,12.759,0,0,0,3.381-.134l.03-.005c-.047-.057-.089-.112-.128-.168l-.087.01c-.135.016-.274.033-.412.047-.6.06-1.148.1-1.67.112-.432.015-.866.015-1.294,0l.058.053Z" transform="translate(-426.97 -685.13)" fill="#bb601c"/>
    </g>
    <g id="Grupo_8645" data-name="Grupo 8645" transform="translate(68.048 68.844)">
      <path id="Caminho_3260" data-name="Caminho 3260" d="M529.652,600.344c-.239-.282-.474-.557-.662-.774C529.212,599.827,529.432,600.086,529.652,600.344Z" transform="translate(-528.958 -599.542)" fill="#bb601c"/>
      <path id="Caminho_3261" data-name="Caminho 3261" d="M528.892,599.749l-.107-.125c-.185-.216-.369-.433-.555-.649l.064-.055c.172.2.4.467.662.774Z" transform="translate(-528.23 -598.92)" fill="#bb601c"/>
    </g>
    <g id="Grupo_8646" data-name="Grupo 8646" transform="translate(69.918 70.017)">
      <path id="Caminho_3262" data-name="Caminho 3262" d="M573.818,628.273q.272-.585.528-1.173a7.815,7.815,0,0,1-.626,1.057Z" transform="translate(-573.666 -627.081)" fill="#bb601c"/>
      <path id="Caminho_3263" data-name="Caminho 3263" d="M572.6,627.92l-.163-.192.02-.027a8.007,8.007,0,0,0,.622-1.051l.077.036c-.184.42-.356.8-.528,1.174Zm-.055-.2.034.041.132-.287C572.643,627.59,572.586,627.671,572.548,627.724Z" transform="translate(-572.44 -626.65)" fill="#bb601c"/>
    </g>
    <g id="Grupo_8647" data-name="Grupo 8647" transform="translate(71.239 67.643)">
      <path id="Caminho_3264" data-name="Caminho 3264" d="M604.749,571.237c.039-.155.072-.311.107-.467-.061.248-.13.489-.205.721C604.683,571.406,604.717,571.322,604.749,571.237Z" transform="translate(-604.61 -570.759)" fill="#bb601c"/>
      <path id="Caminho_3265" data-name="Caminho 3265" d="M603.78,571.266l-.08-.028c.076-.237.145-.479.2-.718l.082.019-.014.063c-.029.132-.06.27-.093.4v0q-.028.074-.057.148C603.807,571.2,603.793,571.231,603.78,571.266Z" transform="translate(-603.7 -570.52)" fill="#bb601c"/>
    </g>
    <g id="Grupo_8648" data-name="Grupo 8648" transform="translate(71.62 65.83)">
      <path id="Caminho_3266" data-name="Caminho 3266" d="M613.829,527.74c-.033.309-.084.617-.129.925C613.75,528.357,613.8,528.049,613.829,527.74Z" transform="translate(-613.658 -527.735)" fill="#bb601c"/>
      <path id="Caminho_3267" data-name="Caminho 3267" d="M612.794,528.567l-.084-.013.034-.231c.034-.227.069-.461.094-.693l.084.009C612.887,527.978,612.835,528.313,612.794,528.567Z" transform="translate(-612.71 -527.63)" fill="#bb601c"/>
    </g>
    <path id="Caminho_3268" data-name="Caminho 3268" d="M218.484,62.484a8.606,8.606,0,0,0-.4-2.375,8.75,8.75,0,0,0-1.251-2.575,17.488,17.488,0,0,0-1.116-1.361,9.275,9.275,0,0,0-1.874-1.587,9.019,9.019,0,0,0-2.833-1.244,8.6,8.6,0,0,1-1.429-.378,3.959,3.959,0,0,1-1.483-1.108,5.7,5.7,0,0,1-1.12-2.538c-.1-.466-.124-.946-.191-1.419a6.789,6.789,0,0,1,.15-2.071c.01-.058.042-.111.057-.168s.018-.11.034-.222c-.341.343-.647.647-.949.956-.211.216-.428.43-.621.661-.5.6-1.014,1.184-1.472,1.813-.49.673-.948,1.373-1.369,2.09-.377.641-.687,1.322-1.023,1.987-.116.229-.223.463-.334.694a11.487,11.487,0,0,0-1.25-.264,10.067,10.067,0,0,0-1.967-.118,9.712,9.712,0,0,0-3.8.949,9.613,9.613,0,0,0-5.289,7.964A8.645,8.645,0,0,0,189,63.851c0,.043.005.086.01.129a8.829,8.829,0,0,0,1.238,3.708,9.9,9.9,0,0,0,2.681,2.847c.085.061.171.118.257.177a12.288,12.288,0,0,0,1.576.957,12.813,12.813,0,0,0,1.342.581,13.8,13.8,0,0,1,1.348.509,5.366,5.366,0,0,1,.587.326,4.915,4.915,0,0,1,.455.361,4.8,4.8,0,0,1,1.312,1.956,6.28,6.28,0,0,1,.351,2.345,4.983,4.983,0,0,1-.137,1.184,7.777,7.777,0,0,1-.458,1.155,11.283,11.283,0,0,0,1.971-1.584c.55-.6,1.134-1.169,1.658-1.792a20.3,20.3,0,0,0,1.463-1.96c.088-.137.172-.278.255-.418.107.052.216.1.326.15a3.414,3.414,0,0,0,.94.266,9.85,9.85,0,0,0,1.214.01,1.577,1.577,0,0,0,.287-.041.29.29,0,0,0,.094-.052c.077-.052.153-.107.242-.17l-1.989-2.327c.052-.114.1-.228.155-.343a.2.2,0,0,1,.03.109c.38.086.747.182,1.118.25.3.055.605.077.908.115.02,0,.037.022.056.034h1.535c.15-.024.3-.045.45-.074a11.925,11.925,0,0,0,1.364-.277,13.56,13.56,0,0,0,1.742-.683,8.617,8.617,0,0,0,1.894-1.282,9.294,9.294,0,0,0,2.4-3.218,8.061,8.061,0,0,0,.7-2.384c.048-.4.074-.8.113-1.2a.255.255,0,0,1,.035-.074v-.511A.686.686,0,0,1,218.484,62.484Zm-17.223-8.843c.055.015.033.041-.025.074v-.021ZM190.5,65.914c.008.113,0,.228,0,.342a7.847,7.847,0,0,1,.309-7.647,5.9,5.9,0,0,1,2.013-2.067,4.817,4.817,0,0,1,1.923-.671,5.826,5.826,0,0,1,2.541.269,1.924,1.924,0,0,1,1.307,1.6,1.944,1.944,0,0,1-1.653,2.432,12.193,12.193,0,0,1-1.735.156,6.025,6.025,0,0,0-2.043.38,4.176,4.176,0,0,0-2.47,2.955A7.051,7.051,0,0,0,190.5,65.914Zm1.774,2.314a4.262,4.262,0,0,1-.778-2.641,4.75,4.75,0,0,1,.983-2.891,3.155,3.155,0,0,1,.739-.74,6.393,6.393,0,0,1,1.234-.478,5.358,5.358,0,0,1,.673-.132,7.706,7.706,0,0,0-.455,3.915,5.226,5.226,0,0,0,.817,2.21,10.785,10.785,0,0,0,1.731,2.01,11.061,11.061,0,0,0,1.982,1.31,9.213,9.213,0,0,0,3.156,1.057,9.9,9.9,0,0,1-3.453.008C197.314,71.6,194.031,70.639,192.274,68.228Zm10.261,7.933c-.057.082-.116.164-.173.245-.4.563-.815,1.122-1.238,1.688l-.47.634a6.188,6.188,0,0,0,.154-.647l-.027.024c.011-.021.13-.788.13-.788a6.526,6.526,0,0,0-.09-1.583,5.493,5.493,0,0,0-.539-1.554q-.1-.184-.21-.366c-.079-.117-.155-.237-.239-.351a5.377,5.377,0,0,0-.57-.632c-.048-.045-.1-.087-.148-.131.472.021.942.022,1.412.005.558-.016,1.113-.056,1.667-.112.175-.017.349-.039.524-.06a2.906,2.906,0,0,0,.188.243h.007c.174.189.449.465.638.64a5.03,5.03,0,0,0,.477.389A11.32,11.32,0,0,1,202.535,76.161Zm2.659-5.059h0Zm.1.107-.1-.116-.006.008c-.025-.036-.638-.767-1.223-1.455-.22-.258-.44-.518-.662-.774-.78-.906-1.554-1.817-2.337-2.714L199.8,64.81l-1.174-1.335q-.689-.783-1.375-1.562l-.583-.681.136-.027a2.86,2.86,0,0,0,1.294-.5,3.909,3.909,0,0,0,.945-1.026,1.988,1.988,0,0,1,.923-.774c.741-.363,1.457-.775,2.184-1.167.056-.03.113-.058.169-.086l-.01-.035H199.34a.444.444,0,0,1-.03-.067,2.921,2.921,0,0,0-2.064-2.252A5.493,5.493,0,0,0,194,55.2c.19-.1.383-.192.579-.277a8.924,8.924,0,0,1,1.721-.542c.295-.057.59-.107.888-.135.148-.015.3-.033.445-.04s.3-.016.445-.018a8.821,8.821,0,0,1,.886.032c.3.031.6.068.9.122a10.558,10.558,0,0,1,1.731.463,8.025,8.025,0,0,1,2.964,1.816c.1.1.206.2.3.312L205,57.1l.136.168a7.386,7.386,0,0,1,.514.7,8.017,8.017,0,0,1,.786,1.562,9.881,9.881,0,0,1,.47,1.723,13.482,13.482,0,0,1,.218,1.812,14.782,14.782,0,0,1-.015,1.851c-.022.309-.05.618-.09.926s-.079.617-.129.925-.106.6-.178.894c-.035.156-.069.312-.107.467-.032.085-.066.169-.1.254a11.745,11.745,0,0,1-.682,1.661Q205.57,70.624,205.3,71.21Z" transform="translate(-135.229)" fill="#bb601c"/>
    <path id="Caminho_3269" data-name="Caminho 3269" d="M625.744,493.29c.051-.435.082-.872.1-1.31a21.722,21.722,0,0,1-.477,3.308q-.115.508-.254,1.009c.06-.2.117-.4.17-.606A17.633,17.633,0,0,0,625.744,493.29Z" transform="translate(-552.965 -427.658)" fill="#bb601c"/>
    <path id="Caminho_3270" data-name="Caminho 3270" d="M360.4,725.512a.474.474,0,0,0-.561.4c-.066.252-.121.507-.162.764-.066.418-.134.838-.166,1.26-.016.206.067.419.07.628a.536.536,0,0,0,.329.516h.11a1.766,1.766,0,0,0,.618-1.037c.054-.321.138-.638.182-.96a2.472,2.472,0,0,0,.042-1.092C360.8,725.787,360.573,725.524,360.4,725.512Z" transform="translate(-298.599 -651.312)" fill="#bb601c"/>
    <path id="Caminho_3271" data-name="Caminho 3271" d="M908.611,305.974a.512.512,0,0,0,.334.722,2.459,2.459,0,0,0,.289,0c.6-.1,1.245-.192,1.882-.314a4.645,4.645,0,0,0,1.458-.5c.208-.12.369-.43.3-.584a.527.527,0,0,0-.626-.378c-.458.048-.915.107-1.37.181-.478.077-.957.156-1.427.27A1.224,1.224,0,0,0,908.611,305.974Z" transform="translate(-824.428 -248.501)" fill="#bb601c"/>
    <path id="Caminho_3272" data-name="Caminho 3272" d="M107.174,221.821a.864.864,0,0,0-.345-.614c-.383-.263-.786-.5-1.189-.73a7.626,7.626,0,0,0-.737-.356c-.344-.151-.69-.3-1.043-.429a.531.531,0,0,0-.578.27.549.549,0,0,0,.143.584,6.114,6.114,0,0,0,.877.677c.661.371,1.347.7,2.027,1.034a1.825,1.825,0,0,0,.345.1A.516.516,0,0,0,107.174,221.821Z" transform="translate(-53.179 -166.868)" fill="#bb601c"/>
    <path id="Caminho_3273" data-name="Caminho 3273" d="M885.3,588.428c-.322-.506-.694-.98-1.049-1.464a.737.737,0,0,0-.867-.214.531.531,0,0,0-.348.485l-.047.019a2.751,2.751,0,0,0,.233.573c.339.488.687.973,1.069,1.427a7.776,7.776,0,0,0,.88.837c.152.132.4.119.465-.005a.809.809,0,0,0,.119-.651A5.3,5.3,0,0,0,885.3,588.428Z" transform="translate(-799.941 -518.358)" fill="#bb601c"/>
    <path id="Caminho_3274" data-name="Caminho 3274" d="M67.4,518.4a.448.448,0,0,0-.01-.139c-.028-.058-.073-.109-.106-.165a.655.655,0,0,0-.973-.19c-.485.365-.978.721-1.444,1.109a1.851,1.851,0,0,0-.778,1.12c-.021.141-.054.3.069.415a.355.355,0,0,0,.425.038,7.436,7.436,0,0,0,.97-.492c.524-.35,1.02-.743,1.529-1.116A.928.928,0,0,0,67.4,518.4Z" transform="translate(-15.649 -452.356)" fill="#bb601c"/>
    <path id="Caminho_3275" data-name="Caminho 3275" d="M859.5,210.519a2.058,2.058,0,0,0,.251.025l.016.032a2.917,2.917,0,0,0,.394-.21q.7-.519,1.386-1.058c.271-.214.524-.452.794-.669s.233-.57.348-.856c0-.008-.006-.023-.011-.034a.663.663,0,0,0-.436-.214,1.517,1.517,0,0,0-.353.138c-.483.3-.979.588-1.434.929a4.271,4.271,0,0,0-1.163,1.239A.472.472,0,0,0,859.5,210.519Z" transform="translate(-777.177 -155.237)" fill="#bb601c"/>
    <path id="Caminho_3276" data-name="Caminho 3276" d="M929.6,413.39c-.062-.094-.108-.2-.175-.288a.811.811,0,0,0-.222-.225,1.321,1.321,0,0,0-.407-.156,5.736,5.736,0,0,0-2.387-.156.709.709,0,0,0-.523.373.625.625,0,0,0,.3.73,4.236,4.236,0,0,0,.516.089c.689.086,1.378.167,2.043.247a5.359,5.359,0,0,0,.623-.083A.338.338,0,0,0,929.6,413.39Z" transform="translate(-840.99 -351.525)" fill="#bb601c"/>
    <path id="Caminho_3277" data-name="Caminho 3277" d="M199.763,148.842a4.015,4.015,0,0,0,.424.546.47.47,0,0,0,.809-.133.755.755,0,0,0-.078-.6,6.4,6.4,0,0,0-1.143-1.806c-.23-.242-.443-.5-.676-.74a.464.464,0,0,0-.645-.129.137.137,0,0,0-.074.088c-.015.155-.02.311-.028.467l-.043.012a2.691,2.691,0,0,0,.2.461C198.92,147.627,199.341,148.235,199.763,148.842Z" transform="translate(-144.213 -96.219)" fill="#bb601c"/>
    <path id="Caminho_3278" data-name="Caminho 3278" d="M63.392,330.465c.892.191,1.789.363,2.687.521a.557.557,0,0,0,.584-.53.5.5,0,0,0-.175-.452,2.958,2.958,0,0,0-.6-.3,7.862,7.862,0,0,0-1.867-.345c-.526,0-.558.012-.884.327a.485.485,0,0,1-.093.052.277.277,0,0,0-.1.441A.954.954,0,0,0,63.392,330.465Z" transform="translate(-14.503 -271.912)" fill="#bb601c"/>
    <path id="Caminho_3279" data-name="Caminho 3279" d="M700.206,101.744a.95.95,0,0,0,.487-.18.532.532,0,0,0,.238-.3c.118-.63.211-1.264.3-1.825-.051-.473-.088-.865-.139-1.255-.027-.207-.164-.366-.354-.349-.116.01-.222.154-.331.24a.1.1,0,0,0-.023.049c-.119.381-.256.756-.35,1.143a10.894,10.894,0,0,0-.2,1.14,5.785,5.785,0,0,0-.05.829A.456.456,0,0,0,700.206,101.744Z" transform="translate(-624.479 -50.177)" fill="#bb601c"/>
    <path id="Caminho_3280" data-name="Caminho 3280" d="M782.565,139.608a2.308,2.308,0,0,0,1-.979c.242-.452.488-.9.7-1.368.1-.225.251-.48,0-.721-.014-.013-.012-.045-.012-.068,0-.165-.259-.352-.406-.272a1.429,1.429,0,0,0-.386.292,8.87,8.87,0,0,0-1.079,1.633,2.046,2.046,0,0,0-.315.944,2.16,2.16,0,0,0,.061.293C782.212,139.607,782.385,139.7,782.565,139.608Z" transform="translate(-703.288 -86.902)" fill="#bb601c"/>
    <path id="Caminho_3281" data-name="Caminho 3281" d="M415.416,105.112a.178.178,0,0,0,.12.033.469.469,0,0,0,.527-.411,8.075,8.075,0,0,0,.2-1.008c.074-.537.127-1.077.186-1.588a4.253,4.253,0,0,0-.1-.6.454.454,0,0,0-.223-.269.323.323,0,0,0-.4.195,5.553,5.553,0,0,0-.536,1.481c-.076.38-.141.762-.188,1.146a1.2,1.2,0,0,0,.026.581A1.662,1.662,0,0,0,415.416,105.112Z" transform="translate(-351.71 -53.448)" fill="#bb601c"/>
    <path id="Caminho_3282" data-name="Caminho 3282" d="M318.133,112.03a.224.224,0,0,0,.323.031.9.9,0,0,0,.341-.812,2.737,2.737,0,0,0-.031-.274c-.062-.307-.111-.619-.2-.919-.139-.463-.293-.922-.472-1.37a.518.518,0,0,0-.319-.284c-.119-.023-.361-.069-.364.206,0,.015-.033.033-.055.044a.322.322,0,0,0-.173.333,9.768,9.768,0,0,0,.4,2.2A2,2,0,0,0,318.133,112.03Z" transform="translate(-258.056 -60.282)" fill="#bb601c"/>
    <path id="Caminho_3283" data-name="Caminho 3283" d="M921.313,506.372c-.359-.224-.742-.41-1.117-.608a3.093,3.093,0,0,0-1.28-.28.3.3,0,0,0-.184.071.553.553,0,0,0,.068.938c.44.227.9.42,1.353.613.266.112.543.2.815.293a.823.823,0,0,0,.957-.118,1.257,1.257,0,0,0-.117-.438A1.853,1.853,0,0,0,921.313,506.372Z" transform="translate(-833.955 -440.59)" fill="#bb601c"/>
    <path id="Caminho_3284" data-name="Caminho 3284" d="M673.259,712.778a.523.523,0,0,0-.82.116,1.617,1.617,0,0,0-.173.726,6.224,6.224,0,0,0,.151,1.784,1.385,1.385,0,0,0,.353.685.182.182,0,0,0,.252.048.821.821,0,0,0,.463-.674c.043-.348.066-.7.09-.97-.025-.372-.025-.665-.069-.952C673.468,713.278,673.53,712.992,673.259,712.778Z" transform="translate(-598.114 -638.98)" fill="#bb601c"/>
    <path id="Caminho_3285" data-name="Caminho 3285" d="M49.72,430.911c.408-.042.814-.108,1.22-.167a.439.439,0,0,0,.406-.414c.036-.246-.088-.532-.254-.563a3.293,3.293,0,0,0-.84-.112,13.692,13.692,0,0,0-1.541.237,1.067,1.067,0,0,0-.98.765c.084.074.168.2.281.236a1.719,1.719,0,0,0,.569.088C48.96,430.975,49.341,430.95,49.72,430.911Z" transform="translate(0 -367.965)" fill="#bb601c"/>
    <path id="Caminho_3286" data-name="Caminho 3286" d="M756.618,697.973a.974.974,0,0,0-.471-.824.521.521,0,0,0-.782.385,4.6,4.6,0,0,0,.035.829c.035.256.135.5.178.759a3.014,3.014,0,0,0,.466,1.285c.114.161.165.183.334.067a1.154,1.154,0,0,0,.465-1.08c-.005-.046-.011-.143-.027-.238C756.748,698.761,756.652,698.369,756.618,697.973Z" transform="translate(-677.707 -624.082)" fill="#bb601c"/>
    <path id="Caminho_3287" data-name="Caminho 3287" d="M267.412,699.523c-.046-.266-.254-.371-.5-.432a.757.757,0,0,0-.514.326,9.205,9.205,0,0,0-.684,2.088.881.881,0,0,0,.227.92c.049.041.163.075.2.048a1.525,1.525,0,0,0,.452-.4,11.534,11.534,0,0,0,.636-1.326,7.323,7.323,0,0,0,.246-.924l-.025-.009C267.438,699.715,267.428,699.618,267.412,699.523Z" transform="translate(-208.736 -626.008)" fill="#bb601c"/>
    <path id="Caminho_3288" data-name="Caminho 3288" d="M188.021,661.323a.879.879,0,0,0-.742.5c-.133.3-.288.6-.439.9a2.418,2.418,0,0,0-.353,1.148.827.827,0,0,0,.257.607c.039.047.171.08.208.052a2.2,2.2,0,0,0,.445-.421c.19-.264.321-.571.518-.83a3.966,3.966,0,0,0,.581-1.322A.526.526,0,0,0,188.021,661.323Z" transform="translate(-132.886 -589.838)" fill="#bb601c"/>
    <path id="Caminho_3289" data-name="Caminho 3289" d="M833.176,655.089a8.45,8.45,0,0,0-.7-1.329.448.448,0,0,0-.5-.215.608.608,0,0,0-.5.639,4.325,4.325,0,0,0,.113.43c.1.272.222.537.326.807a3.312,3.312,0,0,0,.82,1.077c.1.1.248.195.391.088a.5.5,0,0,0,.242-.463A4.619,4.619,0,0,0,833.176,655.089Z" transform="translate(-750.609 -582.375)" fill="#bb601c"/>
    <path id="Caminho_3290" data-name="Caminho 3290" d="M118.6,598.434a.72.72,0,0,0-.53.121,7.493,7.493,0,0,0-.733.68,3.583,3.583,0,0,0-.748,1.3.46.46,0,0,0,.126.5c.122.127.285.046.406-.025a3.369,3.369,0,0,0,1.046-.773c.181-.235.392-.449.555-.694a3.019,3.019,0,0,0,.236-.514C118.952,598.678,118.807,598.486,118.6,598.434Z" transform="translate(-65.919 -529.599)" fill="#bb601c"/>
  </g>
</svg>
