<svg xmlns="http://www.w3.org/2000/svg" xmlns:xlink="http://www.w3.org/1999/xlink" width="1070" height="300" viewBox="0 0 1070 300">
  <defs>
    <clipPath id="clip-path">
      <rect id="Retângulo_3320" data-name="Retângulo 3320" width="1070" height="300" transform="translate(210)" fill="#fff"/>
    </clipPath>
    <clipPath id="clip-path-2">
      <rect id="Retângulo_3317" data-name="Retângulo 3317" width="206.897" height="84.65" fill="none"/>
    </clipPath>
    <clipPath id="clip-path-3">
      <rect id="Retângulo_3318" data-name="Retângulo 3318" width="970.598" height="281.672" fill="none"/>
    </clipPath>
    <clipPath id="clip-path-4">
      <rect id="Retângulo_3319" data-name="Retângulo 3319" width="206.94" height="84.669" fill="none"/>
    </clipPath>
  </defs>
  <g id="Grupo_de_máscara_8679" data-name="Grupo de máscara 8679" transform="translate(-210)" clip-path="url(#clip-path)">
    <g id="Grupo_10267" data-name="Grupo 10267" transform="translate(403 9.244)" opacity="0.3">
      <g id="Grupo_10383" data-name="Grupo 10383" transform="translate(676.937 71.411)">
        <g id="Grupo_10382" data-name="Grupo 10382" clip-path="url(#clip-path-2)">
          <path id="Caminho_4726" data-name="Caminho 4726" d="M1184.7,111.478H962.177a21.36,21.36,0,0,1,0-42.72H1184.7a21.36,21.36,0,0,1,0,42.72Z" transform="translate(-915.487 -51.845)" fill="none" stroke="#d9d8d1" stroke-width="2.566"/>
        </g>
      </g>
      <g id="Grupo_10385" data-name="Grupo 10385">
        <g id="Grupo_10384" data-name="Grupo 10384" clip-path="url(#clip-path-3)">
          <path id="Caminho_4727" data-name="Caminho 4727" d="M648.549,210.643H495.813a21.364,21.364,0,0,1,0-42.729H648.549a21.364,21.364,0,0,1,0,42.729Z" transform="translate(-120.3 -42.576)" fill="none" stroke="#dddcd5" stroke-width="2.568"/>
          <path id="Caminho_4728" data-name="Caminho 4728" d="M22.306,285.994h0a21.6,21.6,0,1,1,21.6-21.6A21.6,21.6,0,0,1,22.306,285.994Z" transform="translate(-0.18 -191.563)" fill="none" stroke="#dddcd5" stroke-width="1.417"/>
          <path id="Caminho_4729" data-name="Caminho 4729" d="M51.374,285.994h0a21.6,21.6,0,1,1,21.6-21.6A21.6,21.6,0,0,1,51.374,285.994Z" transform="translate(-7.55 -191.563)" fill="none" stroke="#d9d7d0" stroke-width="1.417"/>
          <path id="Caminho_4730" data-name="Caminho 4730" d="M80.441,285.994h0a21.6,21.6,0,1,1,21.6-21.6A21.6,21.6,0,0,1,80.441,285.994Z" transform="translate(-14.92 -191.563)" fill="none" stroke="#d4d2cb" stroke-width="1.417"/>
          <path id="Caminho_4731" data-name="Caminho 4731" d="M109.509,285.994h0a21.6,21.6,0,1,1,21.6-21.6A21.6,21.6,0,0,1,109.509,285.994Z" transform="translate(-22.29 -191.563)" fill="none" stroke="#d0cec7" stroke-width="1.417"/>
          <path id="Caminho_4732" data-name="Caminho 4732" d="M138.576,285.994h0a21.6,21.6,0,1,1,21.6-21.6A21.6,21.6,0,0,1,138.576,285.994Z" transform="translate(-29.661 -191.563)" fill="none" stroke="#ccc9c2" stroke-width="1.417"/>
          <path id="Caminho_4733" data-name="Caminho 4733" d="M167.644,285.994h0a21.6,21.6,0,1,1,21.6-21.6A21.6,21.6,0,0,1,167.644,285.994Z" transform="translate(-37.031 -191.563)" fill="none" stroke="#c8c4bd" stroke-width="1.417"/>
          <path id="Caminho_4734" data-name="Caminho 4734" d="M196.711,285.994h0a21.6,21.6,0,1,1,21.6-21.6A21.6,21.6,0,0,1,196.711,285.994Z" transform="translate(-44.401 -191.563)" fill="none" stroke="#c3bfb8" stroke-width="1.417"/>
          <path id="Caminho_4735" data-name="Caminho 4735" d="M225.778,285.994h0a21.6,21.6,0,1,1,21.6-21.6A21.6,21.6,0,0,1,225.778,285.994Z" transform="translate(-51.771 -191.563)" fill="none" stroke="#bfbbb3" stroke-width="1.417"/>
          <path id="Caminho_4736" data-name="Caminho 4736" d="M254.846,285.994h0a21.6,21.6,0,1,1,21.6-21.6A21.6,21.6,0,0,1,254.846,285.994Z" transform="translate(-59.142 -191.563)" fill="none" stroke="#bbb6ae" stroke-width="1.417"/>
          <path id="Caminho_4737" data-name="Caminho 4737" d="M283.913,285.994h0a21.6,21.6,0,1,1,21.6-21.6A21.6,21.6,0,0,1,283.913,285.994Z" transform="translate(-66.512 -191.563)" fill="none" stroke="#b6b1aa" stroke-width="1.417"/>
          <path id="Caminho_4738" data-name="Caminho 4738" d="M312.981,285.994h0a21.6,21.6,0,1,1,21.6-21.6A21.6,21.6,0,0,1,312.981,285.994Z" transform="translate(-73.882 -191.563)" fill="none" stroke="#b2aca5" stroke-width="1.417"/>
          <path id="Caminho_4739" data-name="Caminho 4739" d="M342.048,285.994h0a21.6,21.6,0,1,1,21.6-21.6A21.6,21.6,0,0,1,342.048,285.994Z" transform="translate(-81.252 -191.563)" fill="none" stroke="#aea8a0" stroke-width="1.417"/>
          <path id="Caminho_4740" data-name="Caminho 4740" d="M371.116,285.994h0a21.6,21.6,0,1,1,21.6-21.6A21.6,21.6,0,0,1,371.116,285.994Z" transform="translate(-88.623 -191.563)" fill="none" stroke="#a9a39b" stroke-width="1.417"/>
          <path id="Caminho_4741" data-name="Caminho 4741" d="M400.183,285.994h0a21.6,21.6,0,1,1,21.6-21.6A21.6,21.6,0,0,1,400.183,285.994Z" transform="translate(-95.993 -191.563)" fill="none" stroke="#a59e96" stroke-width="1.417"/>
          <path id="Caminho_4742" data-name="Caminho 4742" d="M429.251,285.994h0a21.6,21.6,0,1,1,21.6-21.6A21.6,21.6,0,0,1,429.251,285.994Z" transform="translate(-103.363 -191.563)" fill="none" stroke="#a19991" stroke-width="1.417"/>
          <path id="Caminho_4743" data-name="Caminho 4743" d="M458.318,285.994h0a21.6,21.6,0,1,1,21.6-21.6A21.6,21.6,0,0,1,458.318,285.994Z" transform="translate(-110.733 -191.563)" fill="none" stroke="#9d958d" stroke-width="1.417"/>
          <path id="Caminho_4744" data-name="Caminho 4744" d="M487.386,285.994h0a21.6,21.6,0,1,1,21.6-21.6A21.6,21.6,0,0,1,487.386,285.994Z" transform="translate(-118.104 -191.563)" fill="none" stroke="#989088" stroke-width="1.417"/>
          <path id="Caminho_4745" data-name="Caminho 4745" d="M516.453,285.994h0a21.6,21.6,0,1,1,21.6-21.6A21.6,21.6,0,0,1,516.453,285.994Z" transform="translate(-125.474 -191.563)" fill="none" stroke="#948b83" stroke-width="1.417"/>
          <path id="Caminho_4746" data-name="Caminho 4746" d="M810.654,44.1h-95.92a21.364,21.364,0,1,1,0-42.729h95.92a21.364,21.364,0,0,1,0,42.729Z" transform="translate(-175.808 -0.347)" fill="none" stroke="#dddcd5" stroke-width="2.568"/>
          <path id="Caminho_4747" data-name="Caminho 4747" d="M672.805,22.47A21.185,21.185,0,1,1,651.621,1.285,21.185,21.185,0,0,1,672.805,22.47Z" transform="translate(-159.851 -0.326)" fill="none" stroke="#dddcd5" stroke-width="2.568"/>
          <path id="Caminho_4748" data-name="Caminho 4748" d="M906.167,264.536a21.185,21.185,0,1,1-21.185-21.185A21.185,21.185,0,0,1,906.167,264.536Z" transform="translate(-219.021 -61.703)" fill="none" stroke="#dddcd5" stroke-width="2.568"/>
          <path id="Caminho_4749" data-name="Caminho 4749" d="M871.553,264.536a21.185,21.185,0,1,1-21.185-21.185A21.185,21.185,0,0,1,871.553,264.536Z" transform="translate(-210.245 -61.703)" fill="none" stroke="#dddcd5" stroke-width="2.568"/>
          <path id="Caminho_4750" data-name="Caminho 4750" d="M831.357,264.536a21.185,21.185,0,1,1-21.185-21.185A21.185,21.185,0,0,1,831.357,264.536Z" transform="translate(-200.053 -61.703)" fill="none" stroke="#dddcd5" stroke-width="2.568"/>
          <path id="Caminho_4751" data-name="Caminho 4751" d="M884.941,361.554H732.2a21.364,21.364,0,0,1,0-42.729H884.941a21.364,21.364,0,0,1,0,42.729Z" transform="translate(-180.238 -80.84)" fill="none" stroke="#dddcd5" stroke-width="2.568"/>
        </g>
      </g>
      <g id="Grupo_10387" data-name="Grupo 10387" transform="translate(679.01 90.807)">
        <g id="Grupo_10386" data-name="Grupo 10386" clip-path="url(#clip-path-4)">
          <path id="Caminho_4752" data-name="Caminho 4752" d="M1187.532,137.477H964.964a21.364,21.364,0,0,1,0-42.729h222.568a21.364,21.364,0,0,1,0,42.729Z" transform="translate(-918.266 -77.831)" fill="none" stroke="#dddcd5" stroke-width="2.567"/>
        </g>
      </g>
    </g>
  </g>
</svg>
