<svg id="Grupo_10149" data-name="Grupo 10149" xmlns="http://www.w3.org/2000/svg" xmlns:xlink="http://www.w3.org/1999/xlink" width="145.389" height="58.838" viewBox="0 0 145.389 58.838">
  <defs>
    <clipPath id="clip-path">
      <rect id="Retângulo_3233" data-name="Retângulo 3233" width="145.389" height="58.838" fill="#fff"/>
    </clipPath>
  </defs>
  <g id="Grupo_10149-2" data-name="Grupo 10149" clip-path="url(#clip-path)">
    <path id="Caminho_4439" data-name="Caminho 4439" d="M637.358,10.536a7.588,7.588,0,0,1,3.478-.858v5.354h-6.707a6.443,6.443,0,0,1,3.229-4.5" transform="translate(-544.521 -8.309)"/>
    <path id="Caminho_4440" data-name="Caminho 4440" d="M760.624,269.747a4.565,4.565,0,0,0-1.756-1.187,5.947,5.947,0,0,0-2.081-.366,5.079,5.079,0,0,0-2.538.571,5.521,5.521,0,0,0-1.476,1.128,1.516,1.516,0,0,0-.856-1.084,3.614,3.614,0,0,0-1.653-.322,15.591,15.591,0,0,0-1.8.206s.4,4.581.4,8.77c0,3.564-.129,10.45-.129,10.45s1.4-.565,2.133-.879a4.956,4.956,0,0,0,1.686-1.1,3.321,3.321,0,0,0,.428-2.184l-.038-2.218a2.424,2.424,0,0,0,.271.289,2.861,2.861,0,0,0,.678.469,6.03,6.03,0,0,0,1.077.425,5.223,5.223,0,0,0,1.491.19,6.435,6.435,0,0,0,2.051-.352,4.715,4.715,0,0,0,1.889-1.216,6.418,6.418,0,0,0,1.373-2.344,11.292,11.292,0,0,0,.531-3.764,10.4,10.4,0,0,0-.458-3.31,5.918,5.918,0,0,0-1.225-2.168m-3.217,8.847a2.4,2.4,0,0,1-2.214,1.172,2.935,2.935,0,0,1-1.4-.322,4.4,4.4,0,0,1-.872-.59c-.046-2.1.082-5.375.109-5.8a2.176,2.176,0,0,1,.453-1.342,2.337,2.337,0,0,1,1.682-.532,2.943,2.943,0,0,1,1.4.307,2.357,2.357,0,0,1,.915.864,3.985,3.985,0,0,1,.487,1.318,8.678,8.678,0,0,1,.147,1.641,6.363,6.363,0,0,1-.708,3.281" transform="translate(-642.698 -230.296)" fill="#fff"/>
    <path id="Caminho_4441" data-name="Caminho 4441" d="M30.062,266.845c-1.4-1.062-3.173-1.593-6.226-1.593-.79,0-1.533.026-2.509.077s-2.638.129-3.572.232a20.6,20.6,0,0,1,.273,2.8c.073,1.873.149,4.531.149,7.5,0,3.072-.082,5.814-.157,7.695a17.369,17.369,0,0,1-.256,2.547h5.417a17.36,17.36,0,0,1-.256-2.547c-.051-1.26-.1-2.91-.134-4.784v0h1.326a13.923,13.923,0,0,0,3.26-.371A6.65,6.65,0,0,0,29.9,277.2a6.093,6.093,0,0,0,1.857-2.271,7.651,7.651,0,0,0,.685-3.4,5.723,5.723,0,0,0-2.384-4.685m-3.479,7.874a5.215,5.215,0,0,1-2.95.847h-.866c0-2.813.076-5.329.147-7.135.268-.026.917-.083,1.412-.083a3.893,3.893,0,0,1,2.332.772,3.3,3.3,0,0,1,1.269,2.688,3.4,3.4,0,0,1-1.344,2.912" transform="translate(-15.246 -227.77)" fill="#fff"/>
    <path id="Caminho_4442" data-name="Caminho 4442" d="M138.339,309.618c0-.283-.014-1.152-1.331-1.432a2.639,2.639,0,0,0-2.306.592,4.7,4.7,0,0,0-1.052,1.212,1.87,1.87,0,0,0-.9-1.26,3.241,3.241,0,0,0-1.695-.286,12.762,12.762,0,0,0-1.943.32s.084.55.2,2.276c.086,1.326.1,4.946.1,4.946s.034,2.579-.088,4.558c-.125,2.028-.19,2.36-.19,2.36h4.959s-.137-.751-.247-2.326-.081-2.655-.078-4.591-.017-2.938.594-3.654a1.7,1.7,0,0,1,2.115-.453,2.411,2.411,0,0,1,.793.525,7.783,7.783,0,0,0,.629-1.132,5.009,5.009,0,0,0,.45-1.657" transform="translate(-110.867 -264.583)" fill="#fff"/>
    <path id="Caminho_4443" data-name="Caminho 4443" d="M206.449,310.328a6.95,6.95,0,0,0-5.318-2.076,8.89,8.89,0,0,0-2.686.425,6.635,6.635,0,0,0-2.35,1.334,6.961,6.961,0,0,0-1.808,2.289,8.066,8.066,0,0,0-.666,3.318,9.085,9.085,0,0,0,.746,3.836,6.873,6.873,0,0,0,1.984,2.44,6.673,6.673,0,0,0,2.59,1.273,12.153,12.153,0,0,0,2.958.364,10.7,10.7,0,0,0,2.894-.348,6.137,6.137,0,0,0,1.9-.834,1.511,1.511,0,0,0,.8-1.212,2.5,2.5,0,0,0-.416-1.167,8.376,8.376,0,0,0-.8-1.167q-.288.243-.639.53a4.536,4.536,0,0,1-.831.531,5.8,5.8,0,0,1-1.087.409,5.331,5.331,0,0,1-1.407.167,3.813,3.813,0,0,1-3.038-1.106,4,4,0,0,1-1.087-2.542l9.546-.231a12.88,12.88,0,0,0,.189-1.86,5.7,5.7,0,0,0-1.475-4.371m-8.292,4.189a3.9,3.9,0,0,1,.748-2.55,2.785,2.785,0,0,1,2.13-.955,2.637,2.637,0,0,1,2.249,1.02,3.885,3.885,0,0,1,.552,2.254Z" transform="translate(-166.261 -264.693)" fill="#fff"/>
    <path id="Caminho_4444" data-name="Caminho 4444" d="M529.195,310.328a6.95,6.95,0,0,0-5.318-2.076,8.889,8.889,0,0,0-2.686.425,6.635,6.635,0,0,0-2.35,1.334,6.959,6.959,0,0,0-1.808,2.289,8.064,8.064,0,0,0-.666,3.318,9.085,9.085,0,0,0,.746,3.836,6.872,6.872,0,0,0,1.984,2.44,6.674,6.674,0,0,0,2.59,1.273,12.155,12.155,0,0,0,2.958.364,10.7,10.7,0,0,0,2.894-.348,6.136,6.136,0,0,0,1.9-.834,1.511,1.511,0,0,0,.8-1.212,2.5,2.5,0,0,0-.416-1.167,8.368,8.368,0,0,0-.8-1.167q-.288.243-.64.53a4.535,4.535,0,0,1-.831.531,5.8,5.8,0,0,1-1.087.409,5.329,5.329,0,0,1-1.407.167,3.813,3.813,0,0,1-3.038-1.106,4,4,0,0,1-1.087-2.542l9.546-.231a12.88,12.88,0,0,0,.189-1.86,5.7,5.7,0,0,0-1.475-4.371m-8.292,4.189a3.9,3.9,0,0,1,.748-2.55,2.785,2.785,0,0,1,2.13-.955,2.637,2.637,0,0,1,2.249,1.02,3.885,3.885,0,0,1,.552,2.254Z" transform="translate(-443.4 -264.693)" fill="#fff"/>
    <path id="Caminho_4445" data-name="Caminho 4445" d="M326.7,316.568s.021-3.16.021-3.707a4.654,4.654,0,0,0-1.336-3.616,5.41,5.41,0,0,0-3.349-.993,5.067,5.067,0,0,0-4.254,1.967,3.3,3.3,0,0,0-1.237-1.361,4.635,4.635,0,0,0-2.55-.606,4.226,4.226,0,0,0-2.408.553,4.7,4.7,0,0,0-1.539,1.3c-.351-1.25-1.169-1.589-2.591-1.546a10.341,10.341,0,0,0-1.948.32s.111,1.156.2,2.3c.1,1.254.122,3.557.095,5.315s-.062,3.158-.087,4.18-.191,2.348-.191,2.348h4.954a22.909,22.909,0,0,1-.247-2.33c-.037-1.022-.083-4.121-.083-4.121s.01-1.122.044-2.432.765-2.3,1.894-2.3c1.3,0,2.044.591,2.044,1.487l.03,3.249s-.011,2.836-.086,4.1-.192,2.348-.192,2.348h4.988s-.227-1.427-.268-2.387c-.059-1.38-.053-3.978-.053-3.978l.008-2.024c.032-1.576.536-2.806,1.914-2.806.99,0,1.826.492,1.826,1.5,0,0,.038,1.673.038,3.245s-.044,2.929-.074,4.092a21.519,21.519,0,0,1-.2,2.36h4.988s-.185-1.089-.263-2.358c-.051-.83-.081-3.207-.081-4.091" transform="translate(-262.335 -264.694)" fill="#fff"/>
    <path id="Caminho_4446" data-name="Caminho 4446" d="M474.925,318.32c0-1.328.265-5.6.265-5.6a2.7,2.7,0,0,0-.211-1.228,2.748,2.748,0,0,0-2.651-1.194,14.514,14.514,0,0,0-2.023.321,21.264,21.264,0,0,1,.2,2.323c.037,1.246.095,2.306.095,5.372,0,1.892-.105,4.084-.105,4.084-.087,1.257.216,1.837.715,2.171a4.322,4.322,0,0,0,2.176.407c.326,0,1.8-.081,1.883-.121,0,0-.166-1.123-.264-2.365-.093-1.182-.081-1.969-.081-4.173" transform="translate(-403.847 -266.446)" fill="#fff"/>
    <path id="Caminho_4447" data-name="Caminho 4447" d="M967.765,255.167a10.026,10.026,0,0,0-.679-1.113q-.088.088-.295.264a2.769,2.769,0,0,1-.516.337,5.446,5.446,0,0,1-.679.293,2.315,2.315,0,0,1-.782.132c-1.121,0-1.57-.656-1.682-2.051,0,0-.1-1.236-.1-3.367a23.979,23.979,0,0,1,.1-2.843s1.7.037,2.532-.059c1.042-.122,1.147-2.988,1.147-2.988h-3.679v-2.051a2.577,2.577,0,0,0-.236-1.187,1.939,1.939,0,0,0-.62-.718,2.209,2.209,0,0,0-.856-.351,6.309,6.309,0,0,0-1.048-.088q-.237,0-.473.015c-.158.01-.3.025-.442.044l-.834.066a30.464,30.464,0,0,1,.3,4.27s-.942-.029-.942.13a12.564,12.564,0,0,0,.581,2.824c.048.124.361.1.361.1s.093,1.232.093,2.841v3.425q0,.645.059,1.289a5.041,5.041,0,0,0,.265,1.231,3.769,3.769,0,0,0,1.417,1.845,4.949,4.949,0,0,0,2.863.7,7.5,7.5,0,0,0,1.741-.191,5.484,5.484,0,0,0,1.358-.5,3.644,3.644,0,0,0,.97-.674,1.152,1.152,0,0,0,.31-.747,1.966,1.966,0,0,0-.236-.879" transform="translate(-822.611 -205.551)" fill="#fff"/>
    <path id="Caminho_4448" data-name="Caminho 4448" d="M470.755,276.716a2.917,2.917,0,0,0,1.9.145,2.8,2.8,0,0,0,1.59-.956,1.911,1.911,0,0,0,.44-1.762,1.882,1.882,0,0,0-1.133-1.374,3.027,3.027,0,0,0-1.91-.129,2.92,2.92,0,0,0-1.626.991,2.019,2.019,0,0,0,.741,3.085" transform="translate(-403.217 -234.032)" fill="#fff"/>
    <path id="Caminho_4449" data-name="Caminho 4449" d="M1000.928,238.52a1.819,1.819,0,0,1-.367-.608,2.114,2.114,0,0,1-.128-.738,2.044,2.044,0,0,1,.131-.736,1.759,1.759,0,0,1,.971-1.012,2.154,2.154,0,0,1,1.591,0,1.773,1.773,0,0,1,.593.41,1.811,1.811,0,0,1,.373.6,2.05,2.05,0,0,1,.131.736,2.072,2.072,0,0,1-.131.738,1.812,1.812,0,0,1-.376.608,1.772,1.772,0,0,1-.6.412,2.162,2.162,0,0,1-1.593,0,1.767,1.767,0,0,1-.6-.412m.741.125a1.6,1.6,0,0,0,.661.13,1.55,1.55,0,0,0,.658-.133,1.464,1.464,0,0,0,.484-.353,1.5,1.5,0,0,0,.3-.51,1.807,1.807,0,0,0,.1-.605,1.783,1.783,0,0,0-.1-.6,1.516,1.516,0,0,0-.3-.507,1.438,1.438,0,0,0-.484-.35,1.581,1.581,0,0,0-.658-.13,1.561,1.561,0,0,0-.655.13,1.444,1.444,0,0,0-.482.35,1.523,1.523,0,0,0-.3.507,1.781,1.781,0,0,0-.1.6,1.713,1.713,0,0,0,.225.876,1.471,1.471,0,0,0,.652.595m-.046-2.627c.106-.011.221-.019.345-.024s.223-.008.3-.008a1.085,1.085,0,0,1,.721.193.619.619,0,0,1,.22.486.7.7,0,0,1-.046.258.677.677,0,0,1-.119.2.684.684,0,0,1-.174.141.7.7,0,0,1-.2.079h.011l.587.928a.389.389,0,0,1-.106.038.524.524,0,0,1-.1.011.383.383,0,0,1-.162-.035.316.316,0,0,1-.134-.127l-.484-.765h-.3v.9h-.359Zm.718,1.053q.49,0,.49-.4a.314.314,0,0,0-.128-.271.733.733,0,0,0-.419-.092c-.068,0-.127,0-.177,0a1.086,1.086,0,0,0-.137.013h.012v.749Z" transform="translate(-859.063 -202.028)" fill="#fff"/>
    <path id="Caminho_4450" data-name="Caminho 4450" d="M868.508,270.074a6.716,6.716,0,0,0-5.139-2.006,8.594,8.594,0,0,0-2.6.41,6.414,6.414,0,0,0-2.271,1.289,6.727,6.727,0,0,0-1.747,2.212,7.794,7.794,0,0,0-.643,3.207,8.782,8.782,0,0,0,.721,3.707,6.642,6.642,0,0,0,1.917,2.358,6.448,6.448,0,0,0,2.5,1.231,11.737,11.737,0,0,0,2.858.351,10.343,10.343,0,0,0,2.8-.337,5.934,5.934,0,0,0,1.838-.806,1.461,1.461,0,0,0,.773-1.172,2.415,2.415,0,0,0-.4-1.128,8.06,8.06,0,0,0-.773-1.128q-.278.235-.618.513a4.37,4.37,0,0,1-.8.513,5.6,5.6,0,0,1-1.051.4,5.147,5.147,0,0,1-1.359.161,3.684,3.684,0,0,1-2.935-1.069,3.864,3.864,0,0,1-1.051-2.457l9.225-.224a12.448,12.448,0,0,0,.182-1.8,5.5,5.5,0,0,0-1.426-4.224m-8.013,4.048a3.764,3.764,0,0,1,.723-2.464,2.692,2.692,0,0,1,2.058-.923,2.548,2.548,0,0,1,2.174.986,3.753,3.753,0,0,1,.533,2.178Z" transform="translate(-735.135 -230.188)" fill="#fff"/>
    <path id="Caminho_4451" data-name="Caminho 4451" d="M642.911,285.3c-.646-.772-1.551-1.881-2.306-2.867s-1.826-2.73-1.826-2.73l-1.107-1.789a7.571,7.571,0,0,0,1.162-.712,6.093,6.093,0,0,0,1.857-2.271,7.65,7.65,0,0,0,.685-3.4,5.723,5.723,0,0,0-2.384-4.685c-1.4-1.062-3.173-1.593-6.226-1.593-.79,0-1.533.026-2.509.077s-2.638.129-3.572.232a20.575,20.575,0,0,1,.273,2.8c.073,1.873.15,4.531.15,7.5,0,3.072-.082,5.814-.157,7.695a17.362,17.362,0,0,1-.256,2.547h5.417a17.363,17.363,0,0,1-.256-2.547c-.051-1.26-.1-2.91-.134-4.784v0h1.326l.1,0,3.3,5.57a4.528,4.528,0,0,0,1.4,1.576,3.464,3.464,0,0,0,1.893.485,11.834,11.834,0,0,0,3.538-.664s-.243-.282-.367-.431M631.7,275.565c0-2.813.076-5.329.146-7.135.268-.026.917-.083,1.412-.083a3.893,3.893,0,0,1,2.331.772,3.3,3.3,0,0,1,1.269,2.688,3.4,3.4,0,0,1-1.344,2.912,5.215,5.215,0,0,1-2.95.847Z" transform="translate(-538.129 -227.77)" fill="#fff"/>
    <path id="Caminho_4452" data-name="Caminho 4452" d="M437.883,6.86h6.469V21.969l6.423-6.648H458.1l-7.547,7.771,8.58,13.3h-7.5l-5.39-8.894-1.886,1.932v6.963h-6.469Z" transform="translate(-376.006 -5.891)"/>
    <rect id="Retângulo_3230" data-name="Retângulo 3230" width="6.469" height="21.067" transform="translate(89.849 9.43)"/>
    <rect id="Retângulo_3231" data-name="Retângulo 3231" width="6.469" height="21.067" transform="translate(46.615 9.43)"/>
    <rect id="Retângulo_3232" data-name="Retângulo 3232" width="6.469" height="5.361" transform="translate(46.615 0.969)"/>
    <path id="Caminho_4453" data-name="Caminho 4453" d="M0,6.86H7.277l4.4,21.263L16.935,7.668h6.154l5.3,20.454L32.747,6.86h7.007L32.118,36.388H24.975L19.855,16.8,14.644,36.388H7.5Z" transform="translate(0 -5.89)"/>
    <path id="Caminho_4454" data-name="Caminho 4454" d="M643.8,2.071a7.034,7.034,0,1,0-6.5,11.84v8.509a1.529,1.529,0,0,0,1.529,1.528h.031a1.527,1.527,0,0,0,1.527-1.528V13.914A7.031,7.031,0,0,0,643.8,2.071m-1.1,7.846a4.807,4.807,0,1,1-1.02-6.721,4.79,4.79,0,0,1,1.02,6.721" transform="translate(-542.51 0.001)" fill="#a59c94"/>
  </g>
</svg>
