<svg xmlns="http://www.w3.org/2000/svg" xmlns:xlink="http://www.w3.org/1999/xlink" width="781.252" height="236.209" viewBox="0 0 781.252 236.209">
  <defs>
    <clipPath id="clip-path">
      <rect id="Retângulo_3203" data-name="Retângulo 3203" width="781.252" height="236.209" fill="none"/>
    </clipPath>
  </defs>
  <g id="Grupo_10147" data-name="Grupo 10147" transform="translate(0 0)">
    <g id="Grupo_10135" data-name="Grupo 10135" transform="translate(0 0)" clip-path="url(#clip-path)">
      <path id="Caminho_4346" data-name="Caminho 4346" d="M0,26.153A125.163,125.163,0,0,0,4.491,51.367a76.068,76.068,0,0,1,19.937,14.36A75.3,75.3,0,0,1,46.6,114.739a126.036,126.036,0,0,0,21.842,14.167v-9.57A97.667,97.667,0,0,0,0,26.153" transform="translate(0 94.183)" fill="#fff"/>
      <path id="Caminho_4347" data-name="Caminho 4347" d="M4.53,16.227A125,125,0,0,0,.113,37.586a119.792,119.792,0,0,1,17.452,5.853A120.768,120.768,0,0,1,56.081,69.412a120.769,120.769,0,0,1,25.973,38.516,120.394,120.394,0,0,1,9.515,47.157v18.7a125.292,125.292,0,0,0,21.8,3.985V155.085A143.018,143.018,0,0,0,4.53,16.227" transform="translate(0.407 58.438)" fill="#fff"/>
      <path id="Caminho_4348" data-name="Caminho 4348" d="M133.443,114A187.683,187.683,0,0,0,93.1,54.152,187.608,187.608,0,0,0,33.249,13.8a187.408,187.408,0,0,0-17.9-6.524A126.007,126.007,0,0,0,3.019,26.43,166.575,166.575,0,0,1,126.445,187.3v22.688a125.287,125.287,0,0,0,21.8-3.985V187.3A187.19,187.19,0,0,0,133.443,114" transform="translate(10.872 26.218)" fill="#fff"/>
      <path id="Caminho_4349" data-name="Caminho 4349" d="M101.41,48.3A232.8,232.8,0,0,0,31.2,0,126.066,126.066,0,0,0,9.613,14.747C90.423,44.6,148.038,122.331,148.038,213.516v9.57a126.171,126.171,0,0,0,21.759-14.1,232.017,232.017,0,0,0-18.322-86.423A232.836,232.836,0,0,0,101.41,48.3" transform="translate(34.618 0.002)" fill="#fff"/>
      <path id="Caminho_4350" data-name="Caminho 4350" d="M83.709,65.727a75.87,75.87,0,0,1,19.937-14.356,125.589,125.589,0,0,0,4.491-25.219A97.662,97.662,0,0,0,39.7,119.34v9.57a126.257,126.257,0,0,0,21.952-14.259A75.245,75.245,0,0,1,83.709,65.727" transform="translate(142.962 94.183)" fill="#62b55a"/>
      <path id="Caminho_4351" data-name="Caminho 4351" d="M51.649,155.084A121.145,121.145,0,0,1,143.1,37.584a125.617,125.617,0,0,0-4.412-21.358A143.016,143.016,0,0,0,29.844,155.084v22.688a125.716,125.716,0,0,0,21.8-3.98Z" transform="translate(107.473 58.434)" fill="#62b55a"/>
      <path id="Caminho_4352" data-name="Caminho 4352" d="M41.795,187.3A166.575,166.575,0,0,1,165.221,26.429a126.236,126.236,0,0,0-12.326-19.15A188.193,188.193,0,0,0,19.99,187.3v18.708a125.713,125.713,0,0,0,21.8,3.98Z" transform="translate(71.987 26.215)" fill="#62b55a"/>
      <path id="Caminho_4353" data-name="Caminho 4353" d="M31.961,213.516c0-91.185,57.616-168.913,138.425-198.774A126.307,126.307,0,0,0,148.8,0,233.752,233.752,0,0,0,10.129,208.924a125.67,125.67,0,0,0,21.832,14.162Z" transform="translate(36.476 0.002)" fill="#62b55a"/>
      <path id="Caminho_4354" data-name="Caminho 4354" d="M152.847,33.2h14.112c8.982,0,12.75,2.572,12.064,8.977-.962,9.018-15.432,14.19-26.176,16.711ZM183.26,65.288c8.954-5.991,15.027-14.236,15.027-25.559,0-15.092-11.839-25.311-28.108-25.311H134.111v89.557a148.279,148.279,0,0,0,18.736,0V76.915a121.706,121.706,0,0,0,13.831-3.75A277.163,277.163,0,0,1,182.8,103.975a188.371,188.371,0,0,0,21.142,0A350.533,350.533,0,0,0,183.26,65.288" transform="translate(482.953 21.114)" fill="#fff"/>
      <path id="Caminho_4355" data-name="Caminho 4355" d="M146.042,71.653l11.3-30.883,11.411,30.874a94.467,94.467,0,0,0-22.711.009m20.935-57.022a121.057,121.057,0,0,0-19.624.051l-33.57,89.842a142.882,142.882,0,0,0,20.254-.055l5.043-13.794c10.739-3.11,25.78-3.12,36.7-.028l5.144,13.909a172.611,172.611,0,0,0,20.13-.069Z" transform="translate(409.749 20.534)" fill="#fff"/>
      <path id="Caminho_4356" data-name="Caminho 4356" d="M173.176,104.343,172.918,14.6a143.882,143.882,0,0,0-18.989.051l.143,49.361C142.587,44.947,127.79,26.971,114.58,15.136v-.359a139.15,139.15,0,0,0-18.837.055L96,104.578a99.878,99.878,0,0,0,18.837-.055l-.18-62.649c16.587,18.013,31.927,41.461,39.51,62.525h.018a161.919,161.919,0,0,0,18.989-.055" transform="translate(344.784 20.736)" fill="#fff"/>
      <path id="Caminho_4357" data-name="Caminho 4357" d="M79.876,103.93V14.415h59.6a92.532,92.532,0,0,1,0,18.8H98.649V48.072h34.5a106.849,106.849,0,0,1,0,17.5h-34.5V85.139H142.2a92.159,92.159,0,0,1,0,18.791Z" transform="translate(287.645 21.104)" fill="#fff"/>
      <path id="Caminho_4358" data-name="Caminho 4358" d="M103.408,106.1c16.159,0,31.246-7.96,31.246-25.9,0-17.107-11.406-21.86-24-28.154-6.179-3.087-23.641-9.626-23.641-14.968,0-4.4,5.107-5.466,11.521-5.466a66.613,66.613,0,0,1,22.813,4.274,46.563,46.563,0,0,0,6.773-15.326c-8.2-3.92-19.96-6.414-33.625-6.414-16.035,0-27.2,7.84-27.2,23.641,0,17.466,20.788,24.593,29.7,28.633,10.095,4.633,18.294,7.247,18.294,14.733,0,6.414-9.267,6.294-13.661,6.294a84.131,84.131,0,0,1-32.2-7.127,69.4,69.4,0,0,0-7.481,15.8c11.047,7.127,27.561,9.98,41.461,9.98" transform="translate(223.08 20.149)" fill="#fff"/>
      <path id="Caminho_4367" data-name="Caminho 4367" d="M45.81-20.94V20.45H40.9V-9.964q0-.607.043-1.3t.1-1.415L26.834,13.2a2.15,2.15,0,0,1-2.022,1.3H24a2.15,2.15,0,0,1-2.022-1.3L7.482-12.795a25.286,25.286,0,0,1,.173,2.831V20.45H2.745V-20.94h4.13a3.591,3.591,0,0,1,1.155.144,1.662,1.662,0,0,1,.78.809l14.3,25.475q.347.693.679,1.444t.621,1.531q.289-.78.607-1.545a15.685,15.685,0,0,1,.693-1.459L39.744-19.987a1.533,1.533,0,0,1,.765-.809,3.732,3.732,0,0,1,1.17-.144ZM70.158,7.279a42.854,42.854,0,0,0-6.051.563,17.207,17.207,0,0,0-4.073,1.17,5.622,5.622,0,0,0-2.282,1.7,3.666,3.666,0,0,0-.708,2.2,4.844,4.844,0,0,0,.375,1.993,3.7,3.7,0,0,0,1.025,1.372,4.117,4.117,0,0,0,1.531.78,7.022,7.022,0,0,0,1.892.246,10.5,10.5,0,0,0,2.484-.274,9.358,9.358,0,0,0,2.123-.794,11.97,11.97,0,0,0,1.906-1.242,16.516,16.516,0,0,0,1.776-1.646ZM53.55-4.678a16.708,16.708,0,0,1,5.228-3.495,16.142,16.142,0,0,1,6.21-1.155,11.08,11.08,0,0,1,4.361.809,8.944,8.944,0,0,1,3.206,2.253A9.541,9.541,0,0,1,74.52-2.772a14.556,14.556,0,0,1,.664,4.506V20.45H72.9a2.241,2.241,0,0,1-1.155-.246,1.673,1.673,0,0,1-.635-.968l-.578-2.773a28.671,28.671,0,0,1-2.253,1.892,12.894,12.894,0,0,1-2.311,1.386,12.551,12.551,0,0,1-2.585.866,14.144,14.144,0,0,1-3.047.3,10.541,10.541,0,0,1-3.206-.477,7.406,7.406,0,0,1-2.614-1.43,6.725,6.725,0,0,1-1.762-2.412,8.428,8.428,0,0,1-.65-3.452,6.438,6.438,0,0,1,.953-3.336,8.352,8.352,0,0,1,3.09-2.845,20.27,20.27,0,0,1,5.574-2.036,42.508,42.508,0,0,1,8.434-.91V1.734a7.822,7.822,0,0,0-1.473-5.156,5.312,5.312,0,0,0-4.3-1.747,9.253,9.253,0,0,0-3.192.477,11.971,11.971,0,0,0-2.224,1.069q-.939.592-1.617,1.069a2.333,2.333,0,0,1-1.343.477,1.476,1.476,0,0,1-.9-.274,2.518,2.518,0,0,1-.635-.679Zm38.068,25.59a7.053,7.053,0,0,1-5.329-1.935A7.723,7.723,0,0,1,84.427,13.4V-4.505H80.9a1.152,1.152,0,0,1-.78-.274,1.066,1.066,0,0,1-.318-.852V-7.682L84.6-8.289l1.184-9.04a1.258,1.258,0,0,1,.39-.708,1.138,1.138,0,0,1,.794-.274h2.6v10.08h8.463v3.726H89.568V13.056a3.735,3.735,0,0,0,.9,2.744,3.127,3.127,0,0,0,2.311.9,4.079,4.079,0,0,0,1.4-.217A6.011,6.011,0,0,0,95.2,16q.433-.26.737-.477a.964.964,0,0,1,.534-.217.885.885,0,0,1,.722.491l1.5,2.455a9.578,9.578,0,0,1-3.206,1.95A10.887,10.887,0,0,1,91.618,20.912ZM115.534-9.271A14.92,14.92,0,0,1,121.31-8.2a12.38,12.38,0,0,1,4.39,3.033,13.312,13.312,0,0,1,2.787,4.751,18.892,18.892,0,0,1,.968,6.224,18.858,18.858,0,0,1-.968,6.239,13.332,13.332,0,0,1-2.787,4.737,12.222,12.222,0,0,1-4.39,3.018,15.1,15.1,0,0,1-5.777,1.054,15.291,15.291,0,0,1-5.82-1.054,12.2,12.2,0,0,1-4.4-3.018,13.332,13.332,0,0,1-2.787-4.737,18.858,18.858,0,0,1-.968-6.239,18.892,18.892,0,0,1,.968-6.224,13.312,13.312,0,0,1,2.787-4.751,12.351,12.351,0,0,1,4.4-3.033A15.108,15.108,0,0,1,115.534-9.271Zm0,26.11a7.511,7.511,0,0,0,6.47-2.9q2.137-2.9,2.137-8.1,0-5.228-2.137-8.145a7.5,7.5,0,0,0-6.47-2.917,9.078,9.078,0,0,0-3.827.751,7.109,7.109,0,0,0-2.715,2.166,9.622,9.622,0,0,0-1.617,3.48,18.656,18.656,0,0,0-.534,4.665q0,5.2,2.152,8.1T115.534,16.839ZM185.575.549V16.435a23.2,23.2,0,0,1-6.658,3.365,25.759,25.759,0,0,1-7.755,1.112,24.922,24.922,0,0,1-9.012-1.545,19.855,19.855,0,0,1-6.86-4.332,18.9,18.9,0,0,1-4.376-6.686A23.28,23.28,0,0,1,149.385-.23a24.054,24.054,0,0,1,1.487-8.636,19.1,19.1,0,0,1,4.231-6.686,18.8,18.8,0,0,1,6.672-4.318,24.007,24.007,0,0,1,8.781-1.531,27.074,27.074,0,0,1,4.564.361,20.972,20.972,0,0,1,3.9,1.04,18.406,18.406,0,0,1,3.322,1.646,20.384,20.384,0,0,1,2.859,2.181l-1.589,2.542a1.648,1.648,0,0,1-.968.737,1.686,1.686,0,0,1-1.314-.274q-.693-.4-1.589-.982a13.851,13.851,0,0,0-2.181-1.112,17.556,17.556,0,0,0-3.033-.91,19.964,19.964,0,0,0-4.145-.375,16.784,16.784,0,0,0-6.325,1.141,13.379,13.379,0,0,0-4.823,3.264A14.444,14.444,0,0,0,156.172-7,20.2,20.2,0,0,0,155.1-.23a20.431,20.431,0,0,0,1.112,6.975,14.608,14.608,0,0,0,3.177,5.228,13.542,13.542,0,0,0,5.011,3.278,18.4,18.4,0,0,0,6.614,1.126,18.418,18.418,0,0,0,5.127-.65,22.209,22.209,0,0,0,4.376-1.805v-9.1H174.08a1.221,1.221,0,0,1-.881-.318,1.037,1.037,0,0,1-.332-.78V.549ZM197.36-2.945a13.194,13.194,0,0,1,3.408-4.694,7.445,7.445,0,0,1,4.939-1.69,7.669,7.669,0,0,1,1.776.2A4.764,4.764,0,0,1,209-8.491l-.375,3.841a.827.827,0,0,1-.866.722,5.964,5.964,0,0,1-1.184-.173,8.153,8.153,0,0,0-1.762-.173,7.029,7.029,0,0,0-2.47.4,5.774,5.774,0,0,0-1.935,1.2,8.471,8.471,0,0,0-1.531,1.964,16.834,16.834,0,0,0-1.228,2.672V20.45h-5.17V-8.809h2.946a1.626,1.626,0,0,1,1.155.318,1.949,1.949,0,0,1,.433,1.1Zm27.295-6.325A14.92,14.92,0,0,1,230.431-8.2a12.38,12.38,0,0,1,4.39,3.033,13.312,13.312,0,0,1,2.787,4.751,18.891,18.891,0,0,1,.968,6.224,18.857,18.857,0,0,1-.968,6.239,13.332,13.332,0,0,1-2.787,4.737,12.223,12.223,0,0,1-4.39,3.018,15.1,15.1,0,0,1-5.777,1.054,15.291,15.291,0,0,1-5.82-1.054,12.2,12.2,0,0,1-4.4-3.018,13.332,13.332,0,0,1-2.787-4.737,18.859,18.859,0,0,1-.968-6.239,18.893,18.893,0,0,1,.968-6.224,13.312,13.312,0,0,1,2.787-4.751,12.351,12.351,0,0,1,4.4-3.033A15.108,15.108,0,0,1,224.654-9.271Zm0,26.11a7.511,7.511,0,0,0,6.47-2.9q2.137-2.9,2.137-8.1,0-5.228-2.137-8.145a7.5,7.5,0,0,0-6.47-2.917,9.078,9.078,0,0,0-3.827.751,7.109,7.109,0,0,0-2.715,2.166,9.621,9.621,0,0,0-1.617,3.48,18.656,18.656,0,0,0-.534,4.665q0,5.2,2.152,8.1T224.654,16.839ZM262.116-3.985a1.14,1.14,0,0,1-1.069.635,2.011,2.011,0,0,1-.982-.318q-.549-.318-1.343-.708A12.614,12.614,0,0,0,256.83-5.1a9.024,9.024,0,0,0-2.6-.332,7.671,7.671,0,0,0-2.34.332,5.618,5.618,0,0,0-1.776.91,4.024,4.024,0,0,0-1.126,1.343,3.606,3.606,0,0,0-.39,1.661,2.767,2.767,0,0,0,.65,1.877,5.647,5.647,0,0,0,1.719,1.3,14.98,14.98,0,0,0,2.426.968q1.357.419,2.787.9t2.787,1.054a10.116,10.116,0,0,1,2.426,1.444,6.606,6.606,0,0,1,1.719,2.123,6.5,6.5,0,0,1,.65,3.018,9.558,9.558,0,0,1-.722,3.74,8.162,8.162,0,0,1-2.137,2.975,10.307,10.307,0,0,1-3.466,1.978,14.239,14.239,0,0,1-4.737.722,14.775,14.775,0,0,1-5.546-1,14.052,14.052,0,0,1-4.217-2.556L244.15,15.4a1.762,1.762,0,0,1,.549-.578,1.481,1.481,0,0,1,.809-.2,1.936,1.936,0,0,1,1.1.4q.578.4,1.4.9a10.659,10.659,0,0,0,2.007.9,9.218,9.218,0,0,0,2.946.4,8.036,8.036,0,0,0,2.628-.39,5.52,5.52,0,0,0,1.877-1.054,4.175,4.175,0,0,0,1.112-1.531,4.758,4.758,0,0,0,.361-1.849,3.066,3.066,0,0,0-.65-2.007,5.484,5.484,0,0,0-1.719-1.357,14,14,0,0,0-2.441-.982q-1.372-.419-2.8-.881t-2.8-1.054a9.849,9.849,0,0,1-2.441-1.487,6.739,6.739,0,0,1-1.719-2.21,7.145,7.145,0,0,1-.65-3.192A7.784,7.784,0,0,1,244.41-4a7.9,7.9,0,0,1,2.022-2.715A9.957,9.957,0,0,1,249.7-8.578a13.061,13.061,0,0,1,4.419-.693,13.977,13.977,0,0,1,5.185.91,12.269,12.269,0,0,1,3.971,2.5Zm25.013,0a1.139,1.139,0,0,1-1.069.635,2.011,2.011,0,0,1-.982-.318q-.549-.318-1.343-.708a12.615,12.615,0,0,0-1.892-.722,9.025,9.025,0,0,0-2.6-.332,7.672,7.672,0,0,0-2.34.332,5.618,5.618,0,0,0-1.776.91A4.025,4.025,0,0,0,274-2.844a3.606,3.606,0,0,0-.39,1.661,2.767,2.767,0,0,0,.65,1.877,5.647,5.647,0,0,0,1.719,1.3,14.981,14.981,0,0,0,2.426.968q1.358.419,2.787.9t2.787,1.054a10.113,10.113,0,0,1,2.426,1.444,6.6,6.6,0,0,1,1.719,2.123,6.5,6.5,0,0,1,.65,3.018,9.559,9.559,0,0,1-.722,3.74,8.163,8.163,0,0,1-2.137,2.975,10.307,10.307,0,0,1-3.466,1.978,14.24,14.24,0,0,1-4.737.722,14.776,14.776,0,0,1-5.546-1,14.052,14.052,0,0,1-4.217-2.556l1.213-1.964a1.762,1.762,0,0,1,.549-.578,1.481,1.481,0,0,1,.809-.2,1.936,1.936,0,0,1,1.1.4q.578.4,1.4.9a10.66,10.66,0,0,0,2.007.9,9.218,9.218,0,0,0,2.946.4,8.036,8.036,0,0,0,2.628-.39,5.521,5.521,0,0,0,1.877-1.054,4.174,4.174,0,0,0,1.112-1.531,4.757,4.757,0,0,0,.361-1.849,3.066,3.066,0,0,0-.65-2.007,5.484,5.484,0,0,0-1.719-1.357,14.006,14.006,0,0,0-2.441-.982q-1.372-.419-2.8-.881t-2.8-1.054A9.85,9.85,0,0,1,271.1,4.622a6.739,6.739,0,0,1-1.719-2.21,7.146,7.146,0,0,1-.65-3.192A7.784,7.784,0,0,1,269.423-4a7.9,7.9,0,0,1,2.022-2.715,9.957,9.957,0,0,1,3.264-1.863,13.061,13.061,0,0,1,4.419-.693,13.977,13.977,0,0,1,5.185.91,12.269,12.269,0,0,1,3.971,2.5Zm20.3-5.286A14.92,14.92,0,0,1,313.21-8.2a12.38,12.38,0,0,1,4.39,3.033,13.313,13.313,0,0,1,2.787,4.751,18.892,18.892,0,0,1,.968,6.224,18.858,18.858,0,0,1-.968,6.239,13.333,13.333,0,0,1-2.787,4.737,12.222,12.222,0,0,1-4.39,3.018,15.1,15.1,0,0,1-5.777,1.054,15.291,15.291,0,0,1-5.82-1.054,12.2,12.2,0,0,1-4.4-3.018,13.333,13.333,0,0,1-2.787-4.737,18.858,18.858,0,0,1-.968-6.239,18.891,18.891,0,0,1,.968-6.224,13.312,13.312,0,0,1,2.787-4.751,12.351,12.351,0,0,1,4.4-3.033A15.109,15.109,0,0,1,307.433-9.271Zm0,26.11a7.511,7.511,0,0,0,6.47-2.9q2.137-2.9,2.137-8.1,0-5.228-2.137-8.145a7.5,7.5,0,0,0-6.47-2.917,9.078,9.078,0,0,0-3.827.751,7.109,7.109,0,0,0-2.715,2.166,9.622,9.622,0,0,0-1.617,3.48,18.659,18.659,0,0,0-.534,4.665q0,5.2,2.152,8.1T307.433,16.839ZM361.7-1.848a8.308,8.308,0,0,0-3.119-2.7,8.933,8.933,0,0,0-3.755-.765A7.375,7.375,0,0,0,348.563-2.4q-2.2,2.917-2.2,8.318a21.151,21.151,0,0,0,.491,4.9,9.42,9.42,0,0,0,1.444,3.35,5.676,5.676,0,0,0,2.34,1.921,7.782,7.782,0,0,0,3.148.607,8.337,8.337,0,0,0,4.434-1.155,12.7,12.7,0,0,0,3.48-3.264ZM366.846-22.1V20.45h-3.062a1.311,1.311,0,0,1-1.386-1.069l-.462-3.553a15.931,15.931,0,0,1-4.275,3.639,10.877,10.877,0,0,1-5.546,1.386,10.561,10.561,0,0,1-4.564-.968,9.463,9.463,0,0,1-3.495-2.845,13.552,13.552,0,0,1-2.224-4.679,24.089,24.089,0,0,1-.78-6.441A20.188,20.188,0,0,1,341.92-.1,14.836,14.836,0,0,1,344.4-4.938a11.529,11.529,0,0,1,3.971-3.22,11.748,11.748,0,0,1,5.3-1.17,10.683,10.683,0,0,1,4.607.91A11.166,11.166,0,0,1,361.7-5.892V-22.1ZM387.324-9.271A14.92,14.92,0,0,1,393.1-8.2a12.38,12.38,0,0,1,4.39,3.033,13.311,13.311,0,0,1,2.787,4.751,18.891,18.891,0,0,1,.968,6.224,18.858,18.858,0,0,1-.968,6.239,13.332,13.332,0,0,1-2.787,4.737A12.222,12.222,0,0,1,393.1,19.8a15.1,15.1,0,0,1-5.777,1.054A15.291,15.291,0,0,1,381.5,19.8a12.2,12.2,0,0,1-4.4-3.018,13.331,13.331,0,0,1-2.787-4.737,18.858,18.858,0,0,1-.968-6.239,18.891,18.891,0,0,1,.968-6.224A13.311,13.311,0,0,1,377.1-5.169,12.351,12.351,0,0,1,381.5-8.2,15.108,15.108,0,0,1,387.324-9.271Zm0,26.11a7.511,7.511,0,0,0,6.47-2.9q2.137-2.9,2.137-8.1,0-5.228-2.137-8.145a7.5,7.5,0,0,0-6.47-2.917,9.078,9.078,0,0,0-3.827.751,7.109,7.109,0,0,0-2.715,2.166,9.621,9.621,0,0,0-1.617,3.48,18.658,18.658,0,0,0-.534,4.665q0,5.2,2.152,8.1T387.324,16.839ZM444.917-14.47a2.127,2.127,0,0,1-.563.65,1.234,1.234,0,0,1-.737.217,2.061,2.061,0,0,1-1.155-.491q-.664-.491-1.661-1.083a13.358,13.358,0,0,0-2.4-1.083,10.315,10.315,0,0,0-3.394-.491,9.907,9.907,0,0,0-3.307.505,7.084,7.084,0,0,0-2.4,1.372,5.632,5.632,0,0,0-1.459,2.036,6.463,6.463,0,0,0-.491,2.527,4.67,4.67,0,0,0,.852,2.874,7.342,7.342,0,0,0,2.253,1.95,17.26,17.26,0,0,0,3.177,1.4q1.776.592,3.639,1.228t3.639,1.43A12.8,12.8,0,0,1,444.094.578a9.151,9.151,0,0,1,2.253,2.975,9.9,9.9,0,0,1,.852,4.332,13.973,13.973,0,0,1-.924,5.1,11.752,11.752,0,0,1-2.7,4.145,12.634,12.634,0,0,1-4.361,2.773,16.042,16.042,0,0,1-5.878,1.011A17.92,17.92,0,0,1,426,19.453a17.214,17.214,0,0,1-5.632-3.943l1.617-2.657a2.127,2.127,0,0,1,.563-.534,1.32,1.32,0,0,1,.737-.217,1.637,1.637,0,0,1,.852.3q.477.3,1.083.765t1.386,1.011a11.453,11.453,0,0,0,1.776,1.011,12.024,12.024,0,0,0,2.267.765,12.35,12.35,0,0,0,2.859.3,10.671,10.671,0,0,0,3.553-.549,7.546,7.546,0,0,0,2.643-1.545,6.694,6.694,0,0,0,1.661-2.383,7.963,7.963,0,0,0,.578-3.09,5.185,5.185,0,0,0-.852-3.076,7.063,7.063,0,0,0-2.238-2.007,15.554,15.554,0,0,0-3.177-1.372q-1.791-.563-3.639-1.155A38.614,38.614,0,0,1,428.4-.288a11.756,11.756,0,0,1-3.177-2.022,9.29,9.29,0,0,1-2.238-3.1,11.059,11.059,0,0,1-.852-4.607,10.964,10.964,0,0,1,.852-4.246,10.843,10.843,0,0,1,2.484-3.639,12.134,12.134,0,0,1,4.015-2.542,14.653,14.653,0,0,1,5.473-.953,17.4,17.4,0,0,1,6.311,1.1,14.906,14.906,0,0,1,5.011,3.177Zm32.436,5.661V20.45h-3.062a1.311,1.311,0,0,1-1.386-1.069l-.4-3.148a16.1,16.1,0,0,1-4.275,3.394,11.2,11.2,0,0,1-5.43,1.285,10.565,10.565,0,0,1-4.231-.794,8.389,8.389,0,0,1-3.076-2.238,9.507,9.507,0,0,1-1.863-3.495A15.6,15.6,0,0,1,453,9.85V-8.809h5.141V9.85a7.815,7.815,0,0,0,1.516,5.141,5.691,5.691,0,0,0,4.636,1.82,8.733,8.733,0,0,0,4.26-1.083,13.532,13.532,0,0,0,3.654-2.989V-8.809ZM490.812-22.1V20.45h-5.141V-22.1Z" transform="translate(287.567 180.143)" fill="#fff"/>
    </g>
  </g>
</svg>
