<svg xmlns="http://www.w3.org/2000/svg" width="34.404" height="32.365" viewBox="0 0 34.404 32.365">
  <g id="Grupo_10141" data-name="Grupo 10141" transform="translate(6621 22584.334)">
    <path id="Caminho_4359" data-name="Caminho 4359" d="M0,26.153a17.149,17.149,0,0,0,.615,3.455,10.422,10.422,0,0,1,2.732,1.968A10.317,10.317,0,0,1,6.384,38.29a17.269,17.269,0,0,0,2.993,1.941V38.92A13.382,13.382,0,0,0,0,26.153" transform="translate(-6621 -22594)" fill="#fff"/>
    <path id="Caminho_4360" data-name="Caminho 4360" d="M.718,16.227a17.126,17.126,0,0,0-.605,2.926,16.413,16.413,0,0,1,2.391.8,16.547,16.547,0,0,1,5.277,3.559,16.547,16.547,0,0,1,3.559,5.277,16.5,16.5,0,0,1,1.3,6.461v2.563a17.166,17.166,0,0,0,2.988.546V35.252A19.6,19.6,0,0,0,.718,16.227" transform="translate(-6621.042 -22590.33)" fill="#fff"/>
    <path id="Caminho_4361" data-name="Caminho 4361" d="M20.889,21.9a25.715,25.715,0,0,0-5.528-8.2,25.7,25.7,0,0,0-8.2-5.528A25.677,25.677,0,0,0,4.708,7.28,17.265,17.265,0,0,0,3.019,9.9,22.823,22.823,0,0,1,19.93,31.946v3.109a17.166,17.166,0,0,0,2.988-.546V31.946A25.648,25.648,0,0,0,20.889,21.9" transform="translate(-6622.116 -22587.023)" fill="#fff"/>
    <path id="Caminho_4362" data-name="Caminho 4362" d="M22.19,6.618A31.9,31.9,0,0,0,12.57,0,17.273,17.273,0,0,0,9.613,2.02,29.036,29.036,0,0,1,28.579,29.255v1.311a17.287,17.287,0,0,0,2.981-1.932,31.789,31.789,0,0,0-2.51-11.841A31.9,31.9,0,0,0,22.19,6.618" transform="translate(-6624.553 -22584.334)" fill="#fff"/>
    <path id="Caminho_4363" data-name="Caminho 4363" d="M45.729,31.575a10.4,10.4,0,0,1,2.732-1.967,17.207,17.207,0,0,0,.615-3.455A13.381,13.381,0,0,0,39.7,38.921v1.311a17.3,17.3,0,0,0,3.008-1.954,10.31,10.31,0,0,1,3.022-6.7" transform="translate(-6635.672 -22594)" fill="#62b55a"/>
    <path id="Caminho_4364" data-name="Caminho 4364" d="M32.832,35.251a16.6,16.6,0,0,1,12.53-16.1,17.212,17.212,0,0,0-.6-2.926A19.6,19.6,0,0,0,29.844,35.251V38.36a17.224,17.224,0,0,0,2.988-.545Z" transform="translate(-6632.03 -22590.33)" fill="#62b55a"/>
    <path id="Caminho_4365" data-name="Caminho 4365" d="M22.978,31.945A22.823,22.823,0,0,1,39.889,9.9,17.3,17.3,0,0,0,38.2,7.279,25.785,25.785,0,0,0,19.99,31.945v2.563a17.225,17.225,0,0,0,2.988.545Z" transform="translate(-6628.388 -22587.023)" fill="#62b55a"/>
    <path id="Caminho_4366" data-name="Caminho 4366" d="M13.12,29.255A29.037,29.037,0,0,1,32.086,2.02,17.305,17.305,0,0,0,29.129,0a32.027,32.027,0,0,0-19,28.625,17.218,17.218,0,0,0,2.991,1.94Z" transform="translate(-6624.744 -22584.334)" fill="#62b55a"/>
  </g>
</svg>
