<svg xmlns="http://www.w3.org/2000/svg" width="859.996" height="104.191" viewBox="0 0 859.996 104.191">
  <g id="Grupo_10123" data-name="Grupo 10123" transform="translate(-18.263 -17.123)">
    <path id="Caminho_4343" data-name="Caminho 4343" d="M105.674,93.03q-4.606,13.563-18.559,20.925t-35.03,7.359q-20.845,0-28.571-6.927T19.429,90l37.484-4.473q-2.809,15.008,2.459,15.009,4.585,0,6.3-5.051a10.2,10.2,0,0,0-.8-9.091Q62.342,82.35,53.8,77.155,41.1,69.363,36.81,62.436q-4.324-7.5-.942-17.46,9.463-27.852,52.3-27.852,19.93,0,27.6,7.074t4.738,21.789L84.4,50.459Q86.606,37.9,81.337,37.906a5.374,5.374,0,0,0-5.5,4.039,6.076,6.076,0,0,0,1.1,6.2q2.129,3.174,10.672,8.371,14.19,8.8,17.923,16.018,4.405,7.935.139,20.491Zm69.234,26.7H102.979L137.295,18.713h71.7l-7.6,22.367H170.93l-4.853,14.287h24.739l-7.5,22.078H158.575l-6.764,19.913h30.695l-7.6,22.369Zm100.5-26.7q-4.609,13.563-18.561,20.925t-35.028,7.359q-20.847,0-28.571-6.927T189.165,90l37.484-4.473q-2.809,15.008,2.461,15.009,4.583,0,6.3-5.051a10.189,10.189,0,0,0-.8-9.091q-2.521-4.042-11.066-9.237-12.7-7.791-16.99-14.719-4.321-7.5-.941-17.46,9.461-27.852,52.3-27.852,19.93,0,27.6,7.074t4.74,21.789l-36.108,4.473q2.2-12.554-3.066-12.553a5.372,5.372,0,0,0-5.5,4.039,6.068,6.068,0,0,0,1.1,6.2q2.127,3.174,10.672,8.371,14.187,8.8,17.923,16.018,4.4,7.935.139,20.491ZM376.4,41.079H357.618L330.9,119.725H289.669l26.718-78.646H297.6l7.6-22.367H384l-7.6,22.367Z" transform="translate(0)" fill="#002a5e" fill-rule="evenodd"/>
    <path id="Caminho_4344" data-name="Caminho 4344" d="M337.093,93.03q-4.609,13.563-18.561,20.925T283.5,121.314q-20.847,0-28.573-6.927T250.847,90l37.484-4.473q-2.809,15.008,2.46,15.009,4.585,0,6.3-5.051a10.2,10.2,0,0,0-.8-9.091q-2.524-4.042-11.066-9.237-12.7-7.791-16.99-14.719-4.324-7.5-.941-17.46,9.461-27.852,52.3-27.852,19.928,0,27.6,7.074t4.74,21.789L315.82,50.459q2.2-12.554-3.066-12.553a5.374,5.374,0,0,0-5.5,4.039,6.076,6.076,0,0,0,1.1,6.2q2.129,3.174,10.674,8.371,14.187,8.8,17.922,16.018,4.405,7.935.141,20.491Zm69.233,26.7H334.4L368.713,18.713h71.7l-7.6,22.367H402.348l-4.853,14.287h24.739l-7.5,22.078H389.993l-6.763,19.913h30.7l-7.6,22.369Zm95.52,0H469.09l-2.839-18.617a175.762,175.762,0,0,1-2.367-25.4q-2.108,8.228-7.5,24.1l-6.765,19.916H412.51L446.824,18.713h34.819l1.97,12.411q2.887,18.47,3.006,27.561a261.722,261.722,0,0,1,7.824-26.408l4.609-13.564h37.11L501.846,119.725Zm103.994,0H565.3l2.675-15.3H551.94l-7.716,15.3h-39.17L562.962,18.713h53.6L605.841,119.725ZM571.4,84.228l1.075-5.2q1.552-7.94,8.117-35.356-6.717,15.731-15.9,35.356l-2.451,5.2ZM698.987,41.079H680.205l-26.718,78.646H612.254l26.718-78.646H620.188l7.6-22.367h78.8l-7.6,22.367Z" transform="translate(171.674)" fill="#002a5e" fill-rule="evenodd"/>
  </g>
</svg>
