<svg xmlns="http://www.w3.org/2000/svg" width="42.799" height="21.634" viewBox="0 0 42.799 21.634">
  <g id="Grupo_10127" data-name="Grupo 10127" transform="translate(-18.263 -17.124)">
    <path id="Caminho_4343" data-name="Caminho 4343" d="M36.413,32.885a7.6,7.6,0,0,1-3.854,4.345,15.487,15.487,0,0,1-7.274,1.528q-4.328,0-5.933-1.438T18.5,32.255l7.783-.929q-.583,3.116.511,3.117a1.326,1.326,0,0,0,1.308-1.049,2.117,2.117,0,0,0-.167-1.888,7.092,7.092,0,0,0-2.3-1.918,10.681,10.681,0,0,1-3.528-3.056,4.247,4.247,0,0,1-.2-3.625q1.965-5.783,10.859-5.783,4.138,0,5.732,1.469t.984,4.524l-7.5.929q.458-2.607-.636-2.607a1.116,1.116,0,0,0-1.141.839,1.262,1.262,0,0,0,.228,1.288A7.7,7.7,0,0,0,32.662,25.3a10.179,10.179,0,0,1,3.722,3.326,5.178,5.178,0,0,1,.029,4.255Z" transform="translate(0)" fill="#fff" fill-rule="evenodd"/>
    <path id="Caminho_4344" data-name="Caminho 4344" d="M267.831,32.885a7.6,7.6,0,0,1-3.854,4.345,15.486,15.486,0,0,1-7.273,1.528q-4.329,0-5.933-1.438t-.848-5.064l7.783-.929q-.583,3.116.511,3.117a1.326,1.326,0,0,0,1.308-1.049,2.117,2.117,0,0,0-.167-1.888,7.092,7.092,0,0,0-2.3-1.918,10.684,10.684,0,0,1-3.528-3.056,4.245,4.245,0,0,1-.2-3.625q1.964-5.783,10.859-5.783,4.138,0,5.732,1.469t.984,4.524l-7.5.929q.457-2.607-.637-2.607a1.116,1.116,0,0,0-1.141.839,1.262,1.262,0,0,0,.228,1.288A7.7,7.7,0,0,0,264.08,25.3,10.18,10.18,0,0,1,267.8,28.63a5.179,5.179,0,0,1,.029,4.255Z" transform="translate(-210.019)" fill="#fff" fill-rule="evenodd"/>
  </g>
</svg>
