<svg xmlns="http://www.w3.org/2000/svg" width="720.456" height="87.284" viewBox="0 0 720.456 87.284">
  <g id="Grupo_10128" data-name="Grupo 10128" transform="translate(-18.263 -17.124)">
    <path id="Caminho_4343" data-name="Caminho 4343" d="M91.491,80.713Q87.632,92.076,75.943,98.243T46.6,104.408q-17.462,0-23.935-5.8T19.239,78.173l31.4-3.747Q48.289,87,52.7,87q3.841,0,5.276-4.232a8.541,8.541,0,0,0-.674-7.616q-2.114-3.386-9.27-7.738Q37.394,60.887,33.8,55.084q-3.622-6.286-.789-14.627,7.928-23.333,43.813-23.333,16.7,0,23.126,5.926T103.919,41.3L73.669,45.05Q75.517,34.533,71.1,34.534A4.5,4.5,0,0,0,66.5,37.918a5.09,5.09,0,0,0,.921,5.2q1.784,2.659,8.941,7.013Q88.246,57.5,91.374,63.547q3.69,6.647.117,17.166Zm58,22.364H89.233l28.748-84.622h60.065L171.68,37.193H146.159l-4.065,11.968h20.725l-6.283,18.5H135.808l-5.666,16.682h25.714l-6.365,18.739Zm84.2-22.364q-3.861,11.362-15.549,17.529t-29.345,6.165q-17.465,0-23.935-5.8t-3.423-20.432l31.4-3.747Q190.484,87,194.9,87q3.839,0,5.275-4.232a8.536,8.536,0,0,0-.674-7.616q-2.112-3.386-9.27-7.738Q179.592,60.887,176,55.084q-3.62-6.286-.788-14.627,7.926-23.333,43.811-23.333,16.7,0,23.126,5.926t3.97,18.253L215.866,45.05q1.845-10.517-2.568-10.517a4.5,4.5,0,0,0-4.6,3.384,5.084,5.084,0,0,0,.921,5.2q1.782,2.659,8.941,7.013,11.885,7.374,15.015,13.419,3.688,6.647.117,17.166Zm84.6-43.521H302.555l-22.381,65.885H245.631l22.383-65.885H252.277l6.367-18.738h66.013l-6.365,18.738Z" transform="translate(0)" fill="#fff" fill-rule="evenodd"/>
    <path id="Caminho_4344" data-name="Caminho 4344" d="M322.91,80.713q-3.861,11.362-15.549,17.529t-29.345,6.165q-17.465,0-23.937-5.8t-3.422-20.432l31.4-3.747Q279.707,87,284.12,87q3.841,0,5.277-4.232a8.541,8.541,0,0,0-.674-7.616q-2.114-3.386-9.27-7.738-10.64-6.527-14.233-12.33-3.622-6.286-.788-14.627,7.926-23.333,43.811-23.333,16.694,0,23.126,5.926t3.97,18.253L305.089,45.05q1.845-10.517-2.568-10.517a4.5,4.5,0,0,0-4.605,3.384,5.09,5.09,0,0,0,.921,5.2q1.784,2.659,8.942,7.013,11.885,7.374,15.014,13.419,3.69,6.647.118,17.166Zm58,22.364H320.651L349.4,18.455h60.065L403.1,37.193H377.577l-4.065,11.968h20.725l-6.283,18.5H367.226L361.56,84.338h25.716l-6.367,18.739Zm80.022,0H433.489l-2.378-15.6a147.236,147.236,0,0,1-1.983-21.275q-1.766,6.893-6.282,20.187l-5.668,16.685H386.09l28.746-84.622h29.17l1.65,10.4q2.419,15.473,2.519,23.089a219.245,219.245,0,0,1,6.555-22.123l3.861-11.363h31.089l-28.748,84.622Zm87.121,0H514.087l2.241-12.813H502.9l-6.464,12.813H463.617L512.13,18.455h44.906l-8.984,84.622ZM519.2,73.34l.9-4.353q1.3-6.652,6.8-29.619-5.627,13.179-13.324,29.619l-2.053,4.353ZM626.084,37.193H610.35l-22.383,65.885H553.424l22.383-65.885H560.071l6.365-18.738h66.013l-6.365,18.738Z" transform="translate(106.269)" fill="#fff" fill-rule="evenodd"/>
  </g>
</svg>
