<svg xmlns="http://www.w3.org/2000/svg" xmlns:xlink="http://www.w3.org/1999/xlink" width="128.643" height="28.043" viewBox="0 0 128.643 28.043"><defs><style>.a{fill:url(#a);}.b{fill:url(#b);}.c{fill:url(#c);}.d{fill:#312783;}</style><linearGradient id="a" y1="0.5" x2="1" y2="0.5" gradientUnits="objectBoundingBox"><stop offset="0.39" stop-color="#312783"/><stop offset="0.566" stop-color="#284699"/><stop offset="0.768" stop-color="#2065af"/><stop offset="0.881" stop-color="#1d71b8"/></linearGradient><linearGradient id="b" y1="0.5" x2="1" y2="0.5" gradientUnits="objectBoundingBox"><stop offset="0.124" stop-color="#95c11f"/><stop offset="0.199" stop-color="#86b820"/><stop offset="0.343" stop-color="#5fa026"/><stop offset="0.539" stop-color="#217a2e"/><stop offset="0.638" stop-color="#063"/></linearGradient><linearGradient id="c" y1="0.5" x2="1" y2="0.5" gradientUnits="objectBoundingBox"><stop offset="0.231" stop-color="#95c11f"/><stop offset="0.363" stop-color="#81b521"/><stop offset="0.632" stop-color="#4e9628"/><stop offset="1" stop-color="#063"/></linearGradient></defs><g transform="translate(-42.786 -206.5)"><path class="a" d="M47.678,254.322l12.673-2.81v-5.474l-15.558,4.588a2.8,2.8,0,0,0-2.007,2.684v11.3a2.249,2.249,0,0,0,2.249,2.249H60.4V260.87l-12.72.855Z" transform="translate(0 -32.478)"/><path class="b" d="M153.9,249.031v4.476l-12.742-1.995v-5.474Z" transform="translate(-80.806 -32.478)"/><path class="c" d="M159.887,330.323v4.767H141.155V329.1Z" transform="translate(-80.805 -100.713)"/><path class="c" d="M155.709,215.4l-14.552-3.714V206.5l16.95,4.953a2.88,2.88,0,0,1,2.072,2.765v10.6a2.88,2.88,0,0,1-3.092,2.873l-15.931-1.373V221.04l14.552,1.9Z" transform="translate(-80.806)"/><path class="a" d="M79.91,290.063v4.33l10.937-1.187v-5.273Z" transform="translate(-30.495 -66.893)"/><g transform="translate(82.404 207.756)"><path class="d" d="M265.567,220.182v.59h1.014v.778h-1.014v.609h1.069v.778h-1.967V219.4h1.967v.778Z" transform="translate(-264.668 -218.356)"/><path class="d" d="M282.624,218.459l2.6,2.779v-2.61h.431v3.679l-2.6-2.779v2.634h-.431Z" transform="translate(-279.418 -217.579)"/><path class="d" d="M308.949,220.812v.141a1.625,1.625,0,0,1-1.637,1.715,1.842,1.842,0,1,1,1.454-3l-.3.3a1.373,1.373,0,0,0-1.087-.576,1.4,1.4,0,0,0-1.38,1.434,1.43,1.43,0,0,0,1.344,1.443,1.171,1.171,0,0,0,1.133-1.05h-.894v-.4Z" transform="translate(-298.262 -218.011)"/><path class="d" d="M330.765,219.4h1.857v.4H331.2v.989h1.385v.4H331.2v1.336h1.426v.4h-1.857Z" transform="translate(-318.963 -218.356)"/><path class="d" d="M347.772,218.459l2.6,2.779v-2.61h.431v3.679l-2.6-2.779v2.634h-.431Z" transform="translate(-332.933 -217.579)"/><path class="d" d="M373.894,220.829V219.4h.431v3.533h-.431v-1.7h-1.646v1.7h-.431V219.4h.431v1.425Z" transform="translate(-352.684 -218.356)"/><path class="d" d="M392.017,221.362l-.394.886h-.463l1.651-3.683,1.651,3.683H394l-.394-.886Zm.794-1.832-.615,1.429h1.229Z" transform="translate(-368.574 -217.666)"/><path class="d" d="M417.277,222.937h-.523l-1.018-1.495h-.179v1.495h-.431V219.4h.523a1.793,1.793,0,0,1,.913.164.983.983,0,0,1,.454.843.956.956,0,0,1-.83.989Zm-1.72-1.861h.138c.44,0,.917-.084.917-.647s-.514-.633-.94-.633h-.115Z" transform="translate(-388.261 -218.356)"/><path class="d" d="M433.282,222.937h-.431V219.4h.431Z" transform="translate(-402.821 -218.356)"/><path class="d" d="M441.546,221.362l-.394.886h-.463l1.651-3.683,1.651,3.683h-.463l-.394-.886Zm.793-1.832-.614,1.429h1.229Z" transform="translate(-409.259 -217.666)"/><path class="d" d="M471.324,220.239v.59h1.013v.777h-1.013v.609h1.068v.777h-1.967v-3.532h1.967v.778Z" transform="translate(-433.687 -218.403)"/><path class="d" d="M484.8,219.461h.715a1.774,1.774,0,1,1-.014,3.532h-.7Zm.431,3.129h.151c.88,0,1.641-.337,1.641-1.363s-.761-1.363-1.641-1.363h-.151Z" transform="translate(-445.494 -218.403)"/><path class="d" d="M502.425,219.461v2.084c0,.576.17,1.11.834,1.11s.834-.534.834-1.11v-2.084h.431V221.7a1.269,1.269,0,1,1-2.53,0v-2.234Z" transform="translate(-459.618 -218.403)"/><path class="d" d="M521.384,219.791a1.378,1.378,0,0,0-.912-.347,1.44,1.44,0,0,0-.009,2.876,1.367,1.367,0,0,0,.922-.365v.52a1.84,1.84,0,0,1-.908.248,1.809,1.809,0,0,1-1.8-1.822,1.836,1.836,0,0,1,1.838-1.86,1.641,1.641,0,0,1,.871.239Z" transform="translate(-473.321 -218.058)"/><path class="d" d="M535.779,221.418l-.394.885h-.463l1.65-3.682,1.65,3.682h-.463l-.394-.885Zm.793-1.831-.614,1.429h1.229Z" transform="translate(-486.667 -217.713)"/><path class="d" d="M556.905,219.791a1.379,1.379,0,0,0-.912-.347,1.44,1.44,0,0,0-.009,2.876,1.367,1.367,0,0,0,.921-.365v.52a1.84,1.84,0,0,1-.908.248,1.808,1.808,0,0,1-1.8-1.822,1.836,1.836,0,0,1,1.838-1.86,1.641,1.641,0,0,1,.871.239Zm-1.449,3.7-.243-.126.4-.642.326.136Z" transform="translate(-502.5 -218.058)"/><path class="d" d="M571.3,217.238l-.394.885h-.463l1.65-3.682,1.65,3.682h-.463l-.394-.885Zm-.083-3.326.014-.023c.124-.183.252-.356.495-.356a.839.839,0,0,1,.408.122.764.764,0,0,0,.33.127.381.381,0,0,0,.293-.225l.216.183a.6.6,0,0,1-.541.384.906.906,0,0,1-.38-.122.893.893,0,0,0-.358-.117c-.115,0-.216.117-.261.216Zm.876,1.494-.614,1.429h1.229Z" transform="translate(-515.845 -213.533)"/><path class="d" d="M593.054,220.882a1.811,1.811,0,1,1-3.622,0,1.811,1.811,0,1,1,3.622,0Zm-.431,0a1.381,1.381,0,1,0-2.76,0,1.381,1.381,0,1,0,2.76,0Z" transform="translate(-531.444 -218.058)"/><path class="d" d="M619.769,219.461h1.274a1.766,1.766,0,0,1,0,3.532h-1.274Zm.9,2.754h.2a.988.988,0,1,0,.009-1.977h-.211Z" transform="translate(-556.364 -218.403)"/><path class="d" d="M639.884,222.993h-.431v-3.532h.431Z" transform="translate(-572.534 -218.403)"/><path class="d" d="M647.815,220.868v.141a1.624,1.624,0,0,1-1.637,1.714,1.841,1.841,0,1,1,1.453-3l-.3.295a1.373,1.373,0,0,0-1.087-.576,1.4,1.4,0,0,0-1.38,1.433,1.429,1.429,0,0,0,1.343,1.443,1.171,1.171,0,0,0,1.132-1.049h-.894v-.4Z" transform="translate(-576.624 -218.058)"/><path class="d" d="M666.37,222.993h-.431v-3.532h.431Z" transform="translate(-594.291 -218.403)"/><path class="d" d="M671.682,222.993h-.431v-3.129h-.821v-.4H672.5v.4h-.821Z" transform="translate(-597.98 -218.403)"/><path class="d" d="M680.94,221.418l-.394.885h-.463l1.65-3.682,1.65,3.682h-.463l-.394-.885Zm.793-1.831-.614,1.429h1.229Z" transform="translate(-605.909 -217.713)"/><path class="d" d="M700.866,222.59h1.05v.4h-1.481v-3.532h.431Z" transform="translate(-622.627 -218.403)"/><path class="d" d="M719.739,221.559v.7h-.417v.731h-.834v-.731H716.81v-.585l1.334-2.216h1.178v2.1Zm-1.252-1.358h-.009l-.807,1.358h.816Z" transform="translate(-636.078 -218.403)"/><path class="d" d="M736.746,234.175a.536.536,0,1,1-.536-.548A.543.543,0,0,1,736.746,234.175Z" transform="translate(-651.573 -230.039)"/><path class="d" d="M746.845,220.58c0,.918-.436,1.906-1.467,1.906s-1.467-.988-1.467-1.906.44-1.906,1.467-1.906S746.845,219.662,746.845,220.58Zm-2.04,0c0,.342.11,1.1.573,1.1s.573-.759.573-1.1-.11-1.091-.573-1.091S744.8,220.234,744.8,220.576Z" transform="translate(-658.34 -217.756)"/></g><g transform="translate(82.3 214.578)"><path class="d" d="M264.087,272.733V257.185a1.769,1.769,0,0,1,1.769-1.769h10.33v2.452h-9.439v5.947h8.4l0,2.572h-8.4v5.59h9.38v2.4h-10.4A1.641,1.641,0,0,1,264.087,272.733Z" transform="translate(-264.087 -254.76)"/><path class="d" d="M398,274.24V255.253h7.406c4.531,0,6.782,2.777,6.782,6.636v6.505c0,4.531-2.835,5.846-6.2,5.846ZM409.53,261.6c0-2.66-1.637-3.712-3.83-3.712h-5.038v13.93h4.863c1.783,0,4-.263,4-3.128Z" transform="translate(-374.091 -254.626)"/><path class="d" d="M527.624,270.135a3.962,3.962,0,0,0,3.42,1.959,3.408,3.408,0,0,0,3.566-3.6c0-2.192-1.812-3.625-4.356-3.625h-3.566l.908-7.346a2.407,2.407,0,0,1,2.389-2.112h5.648v2.66h-5.32l-.585,4.225h1.236a6.212,6.212,0,1,1-5.095,9.647Z" transform="translate(-479.128 -254.76)"/><path class="d" d="M617.714,265.95c0,4.3-3.216,5.729-6.11,5.729s-6.168-1.432-6.168-5.729v-8.1c0-4.122,2.455-6.109,6.2-6.109,3.917,0,6.08,2.368,6.08,6.139Zm-2.66-7.482c0-2.456-.877-3.917-3.479-3.917-2.572,0-3.479,1.4-3.479,3.888v7.132a3.175,3.175,0,0,0,3.479,3.45,3.224,3.224,0,0,0,3.479-3.479Z" transform="translate(-544.487 -251.744)"/><path class="d" d="M706.776,265.95c0,4.3-3.216,5.729-6.11,5.729s-6.168-1.432-6.168-5.729v-8.1c0-4.122,2.455-6.109,6.2-6.109,3.917,0,6.08,2.368,6.08,6.139Zm-2.66-7.482c0-2.456-.877-3.917-3.479-3.917-2.572,0-3.479,1.4-3.479,3.888v7.132a3.175,3.175,0,0,0,3.479,3.45,3.224,3.224,0,0,0,3.479-3.479Z" transform="translate(-617.646 -251.744)"/><g transform="translate(14.817 0.459)"><path class="d" d="M353.972,265.212h-6.9V261.84a2.673,2.673,0,0,1,.708-1.878,2.175,2.175,0,0,1,1.647-.77h2.232a.731.731,0,0,0,.493-.264.774.774,0,0,0,.262-.543v-1.551a1.043,1.043,0,0,0-.216-.682.716.716,0,0,0-.585-.264h-4.541v-1.575h4.446a2.432,2.432,0,0,1,1.775.664,2.128,2.128,0,0,1,.679,1.575v1.837a2.462,2.462,0,0,1-2.3,2.377H349.6a.832.832,0,0,0-.942.942v1.93h5.31Z" transform="translate(-347.072 -254.314)"/></g></g></g></svg>