<svg xmlns="http://www.w3.org/2000/svg" xmlns:xlink="http://www.w3.org/1999/xlink" width="325.55" height="70.967" viewBox="0 0 325.55 70.967"><defs><style>.a{fill:url(#a);}.b{fill:url(#b);}.c{fill:url(#c);}.d{fill:#fff;}</style><linearGradient id="a" y1="0.5" x2="1" y2="0.5" gradientUnits="objectBoundingBox"><stop offset="0.39" stop-color="#312783"/><stop offset="0.566" stop-color="#284699"/><stop offset="0.768" stop-color="#2065af"/><stop offset="0.881" stop-color="#1d71b8"/></linearGradient><linearGradient id="b" y1="0.5" x2="1" y2="0.5" gradientUnits="objectBoundingBox"><stop offset="0.124" stop-color="#95c11f"/><stop offset="0.199" stop-color="#86b820"/><stop offset="0.343" stop-color="#5fa026"/><stop offset="0.539" stop-color="#217a2e"/><stop offset="0.638" stop-color="#063"/></linearGradient><linearGradient id="c" y1="0.5" x2="1" y2="0.5" gradientUnits="objectBoundingBox"><stop offset="0.231" stop-color="#95c11f"/><stop offset="0.363" stop-color="#81b521"/><stop offset="0.632" stop-color="#4e9628"/><stop offset="1" stop-color="#063"/></linearGradient></defs><g transform="translate(-1155.55 -206.5)"><path class="a" d="M1167.931,267,1200,259.89V246.038l-39.372,11.61a7.081,7.081,0,0,0-5.079,6.792v28.59a5.692,5.692,0,0,0,5.692,5.692h38.878V283.572l-32.189,2.164Z" transform="translate(0 -21.672)"/><path class="b" d="M1286.167,253.612v11.326l-32.246-5.048V246.038Z" transform="translate(-53.922 -21.672)"/><path class="c" d="M1301.324,332.189v12.064h-47.4V329.1Z" transform="translate(-53.921 -67.205)"/><path class="c" d="M1290.748,229.013l-36.827-9.4V206.5l42.9,12.535a7.289,7.289,0,0,1,5.245,7v26.814a7.289,7.289,0,0,1-7.824,7.269l-40.316-3.476V243.3l36.827,4.819Z" transform="translate(-53.921)"/><path class="a" d="M1192.674,293.323v10.957l27.677-3V287.933Z" transform="translate(-20.349 -44.637)"/><g transform="translate(1255.809 209.678)"><path class="d" d="M1379.708,221.373v1.494h2.565v1.968h-2.565v1.542h2.7v1.969h-4.979V219.4h4.979v1.969Z" transform="translate(-1377.433 -216.751)"/><path class="d" d="M1395.389,218.459l6.569,7.032v-6.605h1.091V228.2l-6.569-7.032v6.665h-1.091Z" transform="translate(-1387.276 -216.233)"/><path class="d" d="M1426.894,223.609v.356a4.112,4.112,0,0,1-4.143,4.341,4.661,4.661,0,1,1,3.679-7.59l-.766.747a3.475,3.475,0,0,0-2.751-1.459,3.543,3.543,0,0,0-3.493,3.629,3.618,3.618,0,0,0,3.4,3.653,2.963,2.963,0,0,0,2.866-2.656h-2.263v-1.02Z" transform="translate(-1399.85 -216.521)"/><path class="d" d="M1443.53,219.4h4.7v1.02h-3.61v2.5h3.505v1.02h-3.505v3.38h3.61v1.02h-4.7Z" transform="translate(-1413.664 -216.751)"/><path class="d" d="M1460.536,218.459l6.569,7.032v-6.605h1.091V228.2l-6.569-7.032v6.665h-1.091Z" transform="translate(-1422.985 -216.233)"/><path class="d" d="M1489.837,223.009V219.4h1.091v8.942h-1.091v-4.293h-4.166v4.293h-1.091V219.4h1.091v3.605Z" transform="translate(-1436.165 -216.751)"/><path class="d" d="M1506.094,225.644l-1,2.242h-1.173l4.178-9.321,4.178,9.321h-1.172l-1-2.242Zm2.008-4.636-1.555,3.617h3.11Z" transform="translate(-1446.767 -216.291)"/><path class="d" d="M1533.333,228.346h-1.323l-2.577-3.783h-.453v3.783h-1.091V219.4h1.323a4.537,4.537,0,0,1,2.31.415,2.488,2.488,0,0,1,1.149,2.135,2.418,2.418,0,0,1-2.1,2.5Zm-4.352-4.708h.348c1.114,0,2.322-.213,2.322-1.636,0-1.4-1.3-1.6-2.38-1.6h-.29Z" transform="translate(-1459.905 -216.751)"/><path class="d" d="M1546.707,228.346h-1.091V219.4h1.091Z" transform="translate(-1469.621 -216.751)"/><path class="d" d="M1555.623,225.644l-1,2.242h-1.172l4.178-9.321,4.178,9.321h-1.172l-1-2.242Zm2.008-4.636-1.555,3.617h3.11Z" transform="translate(-1473.917 -216.291)"/><path class="d" d="M1585.464,221.429v1.494h2.564v1.967h-2.564v1.541h2.7V228.4h-4.977v-8.938h4.977v1.968Z" transform="translate(-1490.218 -216.782)"/><path class="d" d="M1597.563,219.461h1.81c2.679,0,4.907,1.446,4.907,4.421,0,3.046-2.181,4.516-4.942,4.516h-1.775Zm1.091,7.918h.383c2.227,0,4.153-.853,4.153-3.449s-1.926-3.449-4.153-3.449h-.383Z" transform="translate(-1498.096 -216.782)"/><path class="d" d="M1615.848,219.461v5.275c0,1.458.43,2.809,2.112,2.809s2.111-1.352,2.111-2.809v-5.275h1.09v5.655a3.212,3.212,0,1,1-6.4,0v-5.655Z" transform="translate(-1507.521 -216.782)"/><path class="d" d="M1638.3,220.938a3.488,3.488,0,0,0-2.308-.877,3.644,3.644,0,0,0-.024,7.278,3.46,3.46,0,0,0,2.332-.924v1.316a4.658,4.658,0,0,1-2.3.628,4.576,4.576,0,0,1-4.559-4.611,4.647,4.647,0,0,1,4.652-4.706,4.154,4.154,0,0,1,2.2.6Z" transform="translate(-1516.665 -216.552)"/><path class="d" d="M1649.855,225.7l-1,2.24h-1.172l4.177-9.317,4.176,9.317h-1.172l-1-2.24Zm2.007-4.635-1.555,3.615h3.109Z" transform="translate(-1525.57 -216.322)"/><path class="d" d="M1673.816,220.938a3.488,3.488,0,0,0-2.308-.877,3.644,3.644,0,0,0-.023,7.278,3.458,3.458,0,0,0,2.332-.924v1.316a4.656,4.656,0,0,1-2.3.628,4.577,4.577,0,0,1-4.559-4.611,4.647,4.647,0,0,1,4.652-4.706,4.152,4.152,0,0,1,2.2.6Zm-3.666,9.376-.615-.32,1.009-1.624.824.343Z" transform="translate(-1536.135 -216.552)"/><path class="d" d="M1685.375,222.909l-1,2.24h-1.172l4.176-9.317,4.177,9.317h-1.172l-1-2.24Zm-.208-8.416.035-.059c.313-.462.638-.9,1.253-.9a2.123,2.123,0,0,1,1.032.308,1.936,1.936,0,0,0,.836.32.966.966,0,0,0,.742-.569l.545.462a1.529,1.529,0,0,1-1.369.972,2.292,2.292,0,0,1-.963-.308,2.257,2.257,0,0,0-.9-.3c-.29,0-.545.3-.661.545Zm2.215,3.782-1.554,3.615h3.109Z" transform="translate(-1545.04 -213.533)"/><path class="d" d="M1711.362,223.7a4.583,4.583,0,1,1-9.165,0,4.583,4.583,0,1,1,9.165,0Zm-1.091,0a3.494,3.494,0,1,0-6.983,0,3.494,3.494,0,1,0,6.983,0Z" transform="translate(-1555.45 -216.552)"/><path class="d" d="M1732.533,219.461h3.225a4.469,4.469,0,0,1,0,8.938h-3.225Zm2.274,6.97h.511a2.5,2.5,0,1,0,.023-5h-.534Z" transform="translate(-1572.079 -216.782)"/><path class="d" d="M1753.308,228.4h-1.09v-8.938h1.09Z" transform="translate(-1582.869 -216.782)"/><path class="d" d="M1765.757,223.664v.356a4.11,4.11,0,0,1-4.141,4.338,4.659,4.659,0,1,1,3.678-7.586l-.766.746a3.473,3.473,0,0,0-2.75-1.458,3.541,3.541,0,0,0-3.492,3.627,3.617,3.617,0,0,0,3.4,3.651,2.962,2.962,0,0,0,2.865-2.655h-2.262v-1.02Z" transform="translate(-1585.598 -216.552)"/><path class="d" d="M1779.794,228.4h-1.09v-8.938h1.09Z" transform="translate(-1597.387 -216.782)"/><path class="d" d="M1786.361,228.4h-1.09V220.48h-2.077v-1.019h5.244v1.019h-2.077Z" transform="translate(-1599.848 -216.782)"/><path class="d" d="M1795.017,225.7l-1,2.24h-1.172l4.176-9.317,4.176,9.317h-1.172l-1-2.24Zm2.007-4.635-1.555,3.615h3.109Z" transform="translate(-1605.14 -216.322)"/><path class="d" d="M1814.29,227.379h2.656V228.4H1813.2v-8.938h1.09Z" transform="translate(-1616.296 -216.782)"/><path class="d" d="M1836.987,224.771v1.779h-1.056V228.4h-2.111V226.55h-4.246v-1.482l3.375-5.607h2.981v5.31Zm-3.167-3.437h-.023l-2.042,3.437h2.065Z" transform="translate(-1625.271 -216.782)"/><path class="d" d="M1851.152,235.014a1.358,1.358,0,1,1-1.358-1.387A1.374,1.374,0,0,1,1851.152,235.014Z" transform="translate(-1635.611 -224.547)"/><path class="d" d="M1864.1,223.5c0,2.323-1.1,4.824-3.712,4.824s-3.712-2.5-3.712-4.824,1.114-4.824,3.712-4.824S1864.1,221.175,1864.1,223.5Zm-5.162-.012c0,.865.278,2.786,1.45,2.786s1.45-1.92,1.45-2.786-.279-2.762-1.45-2.762S1858.937,222.621,1858.937,223.487Z" transform="translate(-1640.126 -216.351)"/></g><g transform="translate(1255.547 226.944)"><path class="d" d="M1376.852,299.24V259.893a4.477,4.477,0,0,1,4.477-4.477h26.14v6.206h-23.886v15.049h21.257l.012,6.51h-21.268v14.145h23.738v6.066H1381A4.152,4.152,0,0,1,1376.852,299.24Z" transform="translate(-1376.852 -253.757)"/><path class="d" d="M1510.766,303.3v-48.05h18.743c11.467,0,17.163,7.028,17.163,16.792v16.462c0,11.466-7.175,14.795-15.683,14.795Zm29.174-32c0-6.732-4.143-9.4-9.691-9.4H1517.5v35.252H1529.8c4.513,0,10.135-.666,10.135-7.915Z" transform="translate(-1450.256 -253.667)"/><path class="d" d="M1643.073,292.665c2.219,3.107,4.734,4.957,8.655,4.957,5.992,0,9.025-4.365,9.025-9.1,0-5.548-4.586-9.173-11.023-9.173h-9.024l2.3-18.59a6.091,6.091,0,0,1,6.045-5.344h14.293v6.732h-13.464L1648.4,272.84h3.128a15.721,15.721,0,1,1-12.893,24.412Z" transform="translate(-1520.346 -253.757)"/><path class="d" d="M1749.27,287.694c0,10.874-8.137,14.5-15.461,14.5s-15.609-3.625-15.609-14.5V267.2c0-10.43,6.214-15.461,15.683-15.461,9.913,0,15.387,5.992,15.387,15.535Zm-6.732-18.935c0-6.214-2.219-9.912-8.8-9.912-6.51,0-8.8,3.55-8.8,9.838v18.048c0,5.475,3.255,8.73,8.8,8.73,5.252,0,8.8-3.181,8.8-8.8Z" transform="translate(-1563.96 -251.744)"/><path class="d" d="M1838.332,287.694c0,10.874-8.137,14.5-15.461,14.5s-15.609-3.625-15.609-14.5V267.2c0-10.43,6.214-15.461,15.683-15.461,9.913,0,15.387,5.992,15.387,15.535Zm-6.732-18.935c0-6.214-2.219-9.912-8.8-9.912-6.509,0-8.8,3.55-8.8,9.838v18.048c0,5.475,3.255,8.73,8.8,8.73,5.252,0,8.8-3.181,8.8-8.8Z" transform="translate(-1612.778 -251.744)"/><g transform="translate(37.497 1.161)"><path class="d" d="M1477.3,281.894h-17.462V273.36a6.764,6.764,0,0,1,1.792-4.753,5.506,5.506,0,0,1,4.168-1.949h5.648a1.85,1.85,0,0,0,1.246-.667,1.959,1.959,0,0,0,.663-1.374v-3.925a2.641,2.641,0,0,0-.546-1.727,1.812,1.812,0,0,0-1.479-.667h-11.491v-3.984h11.251a6.154,6.154,0,0,1,4.492,1.68,5.385,5.385,0,0,1,1.719,3.984v4.649a6.23,6.23,0,0,1-5.821,6.016h-5.235a2.106,2.106,0,0,0-2.383,2.383v4.883H1477.3Z" transform="translate(-1459.836 -254.314)"/></g></g></g></svg>