<svg xmlns="http://www.w3.org/2000/svg" xmlns:xlink="http://www.w3.org/1999/xlink" width="32.329" height="24.632" viewBox="0 0 32.329 24.632"><defs><style>.a{fill:url(#a);}.b{fill:url(#b);}.c{fill:url(#c);}</style><linearGradient id="a" y1="0.5" x2="1" y2="0.5" gradientUnits="objectBoundingBox"><stop offset="0.39" stop-color="#312783"/><stop offset="0.566" stop-color="#284699"/><stop offset="0.768" stop-color="#2065af"/><stop offset="0.881" stop-color="#1d71b8"/></linearGradient><linearGradient id="b" y1="0.5" x2="1" y2="0.5" gradientUnits="objectBoundingBox"><stop offset="0.124" stop-color="#95c11f"/><stop offset="0.199" stop-color="#86b820"/><stop offset="0.343" stop-color="#5fa026"/><stop offset="0.539" stop-color="#217a2e"/><stop offset="0.638" stop-color="#063"/></linearGradient><linearGradient id="c" y1="0.5" x2="1" y2="0.5" gradientUnits="objectBoundingBox"><stop offset="0.231" stop-color="#95c11f"/><stop offset="0.363" stop-color="#81b521"/><stop offset="0.632" stop-color="#4e9628"/><stop offset="1" stop-color="#063"/></linearGradient></defs><g transform="translate(-370.357 -384)"><path class="a" d="M47.109,253.358l11.2-2.483v-4.836l-13.748,4.054a2.473,2.473,0,0,0-1.773,2.372v9.983a1.987,1.987,0,0,0,1.987,1.987H58.348v-5.29l-11.239.755Z" transform="translate(327.571 144.199)"/><path class="b" d="M152.416,248.682v3.955l-11.259-1.763v-4.837Z" transform="translate(244.72 144.199)"/><path class="c" d="M157.708,330.181v4.212H141.155V329.1Z" transform="translate(244.722 74.238)"/><path class="c" d="M154.016,214.361l-12.859-3.282V206.5l14.978,4.377a2.545,2.545,0,0,1,1.831,2.443v9.362a2.545,2.545,0,0,1-2.732,2.538l-14.077-1.214v-4.659l12.859,1.683Z" transform="translate(244.72 177.5)"/><path class="a" d="M79.91,289.815v3.826l9.664-1.049v-4.659Z" transform="translate(296.304 108.914)"/></g></svg>