<svg xmlns="http://www.w3.org/2000/svg" width="128" height="30.874" viewBox="0 0 128 30.874">
  <g id="Group_6427" data-name="Group 6427" transform="translate(-14.045 -14.255)">
    <g id="Group_6424" data-name="Group 6424" transform="translate(50.842 21.907)">
      <g id="Group_6418" data-name="Group 6418" transform="translate(0)">
        <path id="Path_2828" data-name="Path 2828"
              d="M66.5,39.116a8.3,8.3,0,0,1-4.049-.971,6.886,6.886,0,0,1-2.753-2.754,8.951,8.951,0,0,1,0-8.108,6.875,6.875,0,0,1,2.754-2.766,8.3,8.3,0,0,1,4.049-.971,8.187,8.187,0,0,1,4.016.972,6.828,6.828,0,0,1,2.731,2.755,8.42,8.42,0,0,1,.96,4.069,8.078,8.078,0,0,1-1.216,4.481l.3.31a1.62,1.62,0,0,1-1.116,2.758,1.608,1.608,0,0,1-1.209-.529l-.293-.306A7.992,7.992,0,0,1,66.5,39.116Zm0-12.488a4.389,4.389,0,0,0-2.274.586,3.924,3.924,0,0,0-1.515,1.639,5.469,5.469,0,0,0-.543,2.489,5.4,5.4,0,0,0,.542,2.477,3.93,3.93,0,0,0,1.515,1.629,4.381,4.381,0,0,0,2.274.586,4.5,4.5,0,0,0,1.878-.385l-.58-.609a1.73,1.73,0,0,1-.476-1.11,1.435,1.435,0,0,1,.474-1.086,1.606,1.606,0,0,1,1.135-.432,1.846,1.846,0,0,1,1.305.535l.012.012.249.257a5.986,5.986,0,0,0,.29-1.874,5.484,5.484,0,0,0-.543-2.489,3.978,3.978,0,0,0-1.5-1.641A4.268,4.268,0,0,0,66.5,26.628Z"
              transform="translate(-58.722 -23.546)" fill="#fff"/>
      </g>
      <g id="Group_6419" data-name="Group 6419" transform="translate(17.313 0.225)">
        <path id="Path_2829" data-name="Path 2829"
              d="M86.909,39.164a7.824,7.824,0,0,1-3.741-.868,6.269,6.269,0,0,1-2.53-2.459,7.222,7.222,0,0,1-.9-3.615V25.338a1.384,1.384,0,0,1,.537-1.146,1.865,1.865,0,0,1,1.161-.373,1.952,1.952,0,0,1,1.191.37,1.4,1.4,0,0,1,.553,1.171v6.862A3.752,3.752,0,0,0,84.2,34.975a3.545,3.545,0,0,0,2.688,1.039,3.647,3.647,0,0,0,2.735-1.042,3.7,3.7,0,0,0,1.034-2.75V25.405A1.461,1.461,0,0,1,91.2,24.22a1.94,1.94,0,0,1,2.346-.012,1.441,1.441,0,0,1,.531,1.174v6.84a7.222,7.222,0,0,1-.9,3.615A6.27,6.27,0,0,1,90.65,38.3,7.824,7.824,0,0,1,86.909,39.164Z"
              transform="translate(-79.743 -23.819)" fill="#fff"/>
      </g>
      <g id="Group_6420" data-name="Group 6420" transform="translate(31.939)">
        <path id="Path_2830" data-name="Path 2830"
              d="M111.934,39.116a1.828,1.828,0,0,1-.845-.213,1.471,1.471,0,0,1-.655-.658l-1.465-2.91h-6.76l-1.466,2.912a1.4,1.4,0,0,1-.633.667,1.809,1.809,0,0,1-.844.2,1.878,1.878,0,0,1-1.189-.423,1.4,1.4,0,0,1-.577-1.118,1.6,1.6,0,0,1,.142-.6l.013-.028L104.063,24.4a1.3,1.3,0,0,1,.623-.68,2.06,2.06,0,0,1,.9-.174,1.544,1.544,0,0,1,1.5.847l6.36,12.473a1.534,1.534,0,0,1,.23.8,1.3,1.3,0,0,1-.568,1.085A1.969,1.969,0,0,1,111.934,39.116Zm-8.228-6.75h3.765l-1.882-3.748Z"
              transform="translate(-97.5 -23.546)" fill="#fff"/>
      </g>
      <g id="Group_6421" data-name="Group 6421" transform="translate(49.429 0.225)">
        <path id="Path_2831" data-name="Path 2831"
              d="M129.953,39.151a2.085,2.085,0,0,1-.926-.222,2.03,2.03,0,0,1-.736-.6l-6.09-7.95v7.16a1.468,1.468,0,0,1-.547,1.217,1.86,1.86,0,0,1-1.174.391,1.894,1.894,0,0,1-1.2-.391,1.469,1.469,0,0,1-.547-1.217V25.61a1.7,1.7,0,0,1,.537-1.324,1.781,1.781,0,0,1,1.229-.466,1.875,1.875,0,0,1,.906.218,2.321,2.321,0,0,1,.707.616l6.289,8.286-.015-.256V25.336a1.354,1.354,0,0,1,.584-1.148,2,2,0,0,1,1.183-.369,1.888,1.888,0,0,1,1.155.362,1.377,1.377,0,0,1,.544,1.155V37.383a1.63,1.63,0,0,1-.6,1.315A2.018,2.018,0,0,1,129.953,39.151Z"
              transform="translate(-118.736 -23.819)" fill="#fff"/>
      </g>
      <g id="Group_6422" data-name="Group 6422" transform="translate(63.5 0.225)">
        <path id="Path_2832" data-name="Path 2832"
              d="M142.942,39.164a1.81,1.81,0,0,1-1.158-.4,1.462,1.462,0,0,1-.541-1.185V26.923h-3.769a1.621,1.621,0,0,1-1.217-.457,1.512,1.512,0,0,1-.437-1.084,1.552,1.552,0,0,1,.432-1.09,1.6,1.6,0,0,1,1.221-.474h10.958a1.716,1.716,0,0,1,1.241.46,1.492,1.492,0,0,1,.48,1.1,1.468,1.468,0,0,1-.479,1.081,1.72,1.72,0,0,1-1.242.46h-3.79l.021,10.654a1.435,1.435,0,0,1-.572,1.193A1.867,1.867,0,0,1,142.942,39.164Z"
              transform="translate(-135.82 -23.819)" fill="#fff"/>
      </g>
      <g id="Group_6423" data-name="Group 6423" transform="translate(75.025)">
        <path id="Path_2833" data-name="Path 2833"
              d="M164.247,39.116a1.828,1.828,0,0,1-.845-.213,1.471,1.471,0,0,1-.655-.658l-1.465-2.91h-6.761l-1.466,2.912a1.4,1.4,0,0,1-.632.667,1.811,1.811,0,0,1-.844.2,1.877,1.877,0,0,1-1.189-.423,1.4,1.4,0,0,1-.577-1.118,1.579,1.579,0,0,1,.142-.6l.012-.028L156.376,24.4a1.306,1.306,0,0,1,.624-.68,2.06,2.06,0,0,1,.9-.174,1.545,1.545,0,0,1,1.5.847l6.36,12.473a1.534,1.534,0,0,1,.23.8,1.3,1.3,0,0,1-.568,1.085A1.969,1.969,0,0,1,164.247,39.116Zm-8.228-6.75h3.765L157.9,28.619Z"
              transform="translate(-149.813 -23.546)" fill="#fff"/>
      </g>
    </g>
    <g id="Group_6426" data-name="Group 6426" transform="translate(14.045 14.255)">
      <g id="Group_6425" data-name="Group 6425">
        <path id="Path_2834" data-name="Path 2834"
              d="M42.169,39.4a3.78,3.78,0,0,0-6.466-2.66,7.788,7.788,0,1,1-5.7-13.3,11.569,11.569,0,0,0,.2,23.136v0h0a15.3,15.3,0,0,0,10.855-4.5l0,0A3.77,3.77,0,0,0,42.169,39.4Z"
              transform="translate(-14.855 -15.874)" fill="#00a5cb"/>
        <path id="Path_2835" data-name="Path 2835" d="M32.743,42.347h0Z" transform="translate(-17.332 -19.21)"
              fill="#276eb5"/>
        <path id="Path_2836" data-name="Path 2836"
              d="M17.825,34.192A11.569,11.569,0,0,1,29.193,22.625h.2a7.789,7.789,0,0,1,7.786,7.588,11.568,11.568,0,0,0-23.135.2h0A15.35,15.35,0,0,0,29.394,45.764v0A11.569,11.569,0,0,1,17.825,34.192Z"
              transform="translate(-14.045 -15.065)" fill="#145c84"/>
        <path id="Path_2837" data-name="Path 2837"
              d="M43.8,38.673l-1.221-1.2a15.35,15.35,0,1,0-28.533-7.876A11.568,11.568,0,0,1,37.18,29.4c0,.068,0,.134,0,.2h0a7.76,7.76,0,0,1-2.261,5.485h0a3.78,3.78,0,0,1,5.326,5.364l0,0a15.41,15.41,0,0,1-3.026,2.351l1.227,1.212A3.782,3.782,0,0,0,43.8,38.673Z"
              transform="translate(-14.045 -14.255)" fill="#bed630"/>
      </g>
    </g>
  </g>
</svg>
