<svg xmlns="http://www.w3.org/2000/svg" width="377.275" height="91.001" viewBox="0 0 377.275 91.001">
  <g id="Group_6443" data-name="Group 6443" transform="translate(-14.045 -14.255)">
    <g id="Group_6433" data-name="Group 6433" transform="translate(124.659 91.86)">
      <path id="Path_2844" data-name="Path 2844"
            d="M60.712,54.176V56.64a.552.552,0,0,1-1.1.015V47.839a.539.539,0,0,1,.566-.536H63.5a3.528,3.528,0,0,1,3.887,3.52c0,1.838-1.255,3.353-3.933,3.353Zm0-1h2.741c2.034,0,2.877-1.194,2.845-2.357A2.613,2.613,0,0,0,63.514,48.3h-2.8Z"
            transform="translate(-59.61 -44.681)" fill="#fff"/>
      <path id="Path_2845" data-name="Path 2845"
            d="M65.766,53.639v2.969a.56.56,0,0,1-1.117.017V47.839a.522.522,0,0,1,.566-.536h3.627c2.649,0,4,1.5,4,3.289a2.865,2.865,0,0,1-2.724,2.986l2.479,2.678a.533.533,0,1,1-.765.736l-3.093-3.353Zm0-.964h3.093c2.005,0,2.877-.935,2.848-2.083-.017-1.255-1.073-2.265-2.848-2.265H65.766Z"
            transform="translate(-52.416 -44.681)" fill="#fff"/>
      <path id="Path_2846" data-name="Path 2846"
            d="M71.029,56.034h6.047a.505.505,0,1,1,0,1.01H70.631a.668.668,0,0,1-.7-.672v-8.4a.666.666,0,0,1,.7-.658h6.46a.49.49,0,0,1-.015.981H71.029v3.442h5.756a.491.491,0,0,1,0,.981H71.029Z"
            transform="translate(-44.881 -44.672)" fill="#fff"/>
      <path id="Path_2847" data-name="Path 2847"
            d="M74.692,48.006c-.289-.658.767-1.085,1.073-.427L79.7,55.415l3.843-7.807a.566.566,0,0,1,1.056.4l-4.409,8.924a.55.55,0,0,1-1.024-.046Z"
            transform="translate(-38.149 -44.757)" fill="#fff"/>
      <path id="Path_2848" data-name="Path 2848" d="M80.5,47.725a.574.574,0,0,1,1.148,0V56.88a.575.575,0,0,1-1.148,0Z"
            transform="translate(-29.791 -44.889)" fill="#fff"/>
      <path id="Path_2849" data-name="Path 2849"
            d="M83.666,57.044a.7.7,0,0,1-.7-.658V47.952a.683.683,0,0,1,.7-.643H87c3.047,0,4.561,2.435,4.561,4.867S90.051,57.044,87,57.044Zm.4-1H87c2.3,0,3.445-1.942,3.445-3.872S89.3,48.29,87,48.29h-2.94Z"
            transform="translate(-26.272 -44.672)" fill="#fff"/>
      <path id="Path_2850" data-name="Path 2850"
            d="M89.576,57.585h6.047a.505.505,0,1,1,0,1.01H89.178a.668.668,0,0,1-.7-.672v-8.4a.666.666,0,0,1,.7-.658h6.46a.49.49,0,0,1-.015.981H89.576v3.442h5.756a.491.491,0,0,1,0,.981H89.576Zm3-10.361.981.765c.473.367,1.177-.153.672-.583L93.006,46.4a.638.638,0,0,0-.874,0l-1.209,1.01c-.473.444.153.964.629.6Z"
            transform="translate(-18.403 -46.223)" fill="#fff"/>
      <path id="Path_2851" data-name="Path 2851"
            d="M100.587,47.757c0-.641,1.163-.672,1.163,0v8.788c0,.765-1.056.84-1.379.306l-5.724-7.669.124,2.112v5.4a.582.582,0,0,1-1.163,0V47.927a.654.654,0,0,1,1.238-.323l5.894,7.885-.153-2.311Z"
            transform="translate(-11.074 -44.754)" fill="#fff"/>
      <path id="Path_2852" data-name="Path 2852"
            d="M106.169,56.782a5.754,5.754,0,0,1-2.294.551A5.052,5.052,0,0,1,98.9,52.157a4.88,4.88,0,0,1,4.149-4.867,5.022,5.022,0,0,1,4.561,1.471c.459.52-.367,1.148-.8.687a3.9,3.9,0,0,0-3.6-1.117A3.617,3.617,0,0,0,100,52.174a3.993,3.993,0,0,0,3.9,4.1,4.085,4.085,0,0,0,1.777-.442,3.907,3.907,0,0,0,1.255-1.027c.352-.52,1.284.046.886.612A4.345,4.345,0,0,1,106.169,56.782Z"
            transform="translate(-3.522 -44.791)" fill="#fff"/>
      <path id="Path_2853" data-name="Path 2853"
            d="M104.429,47.725a.574.574,0,0,1,1.148,0V56.88a.575.575,0,0,1-1.148,0Z"
            transform="translate(4.374 -44.889)" fill="#fff"/>
      <path id="Path_2854" data-name="Path 2854"
            d="M108.807,54.626l-1.241,2.418c-.274.566-1.284.17-1.01-.444l4.622-9.106a.548.548,0,0,1,.507-.291.536.536,0,0,1,.488.291l4.608,9.06c.4.66-.736,1.041-1.024.444l-1.194-2.372Zm2.879-5.785-2.42,4.821h4.821Z"
            transform="translate(7.345 -44.825)" fill="#fff"/>
      <path id="Path_2855" data-name="Path 2855"
            d="M122.421,56.782a5.765,5.765,0,0,1-2.3.551,5.05,5.05,0,0,1-4.974-5.176A4.88,4.88,0,0,1,119.3,47.29a5.024,5.024,0,0,1,4.561,1.471c.459.52-.369,1.148-.8.687a3.91,3.91,0,0,0-3.6-1.117,3.617,3.617,0,0,0-3.214,3.843,4,4,0,0,0,3.9,4.1,4.075,4.075,0,0,0,1.775-.442,3.856,3.856,0,0,0,1.255-1.027c.352-.52,1.287.046.888.612A4.363,4.363,0,0,1,122.421,56.782Z"
            transform="translate(19.68 -44.791)" fill="#fff"/>
      <path id="Path_2856" data-name="Path 2856"
            d="M120.479,52.12a4.794,4.794,0,0,1,4.057-4.838,6.472,6.472,0,0,1,1.622,0,4.875,4.875,0,0,1,4.178,4.838,4.931,4.931,0,0,1-4.9,5.2A4.857,4.857,0,0,1,120.479,52.12Zm1.148.046a3.79,3.79,0,1,0,4.392-3.857,4.882,4.882,0,0,0-1.33,0A3.629,3.629,0,0,0,121.627,52.166Z"
            transform="translate(27.287 -44.783)" fill="#fff"/>
      <path id="Path_2857" data-name="Path 2857"
            d="M126.312,52.12a4.8,4.8,0,0,1,4.057-4.838,6.472,6.472,0,0,1,1.622,0,4.877,4.877,0,0,1,4.18,4.838,4.933,4.933,0,0,1-4.9,5.2A4.857,4.857,0,0,1,126.312,52.12Zm1.148.046a3.79,3.79,0,1,0,4.394-3.857,4.9,4.9,0,0,0-1.333,0A3.629,3.629,0,0,0,127.46,52.166Z"
            transform="translate(35.615 -44.783)" fill="#fff"/>
      <path id="Path_2858" data-name="Path 2858"
            d="M133.493,54.176V56.64a.552.552,0,0,1-1.1.015V47.839a.541.541,0,0,1,.568-.536h3.321a3.529,3.529,0,0,1,3.889,3.52c0,1.838-1.258,3.353-3.935,3.353Zm0-1h2.741c2.037,0,2.877-1.194,2.848-2.357a2.613,2.613,0,0,0-2.787-2.525h-2.8Z"
            transform="translate(44.293 -44.681)" fill="#fff"/>
      <path id="Path_2859" data-name="Path 2859"
            d="M138.665,56.034h6.045a.505.505,0,1,1,0,1.01h-6.443a.667.667,0,0,1-.7-.672v-8.4a.664.664,0,0,1,.7-.658h6.457a.49.49,0,0,1-.015.981h-6.045v3.442h5.753a.491.491,0,0,1,0,.981h-5.753Z"
            transform="translate(51.677 -44.672)" fill="#fff"/>
      <path id="Path_2860" data-name="Path 2860"
            d="M143.845,53.639v2.969a.56.56,0,0,1-1.117.017V47.839a.522.522,0,0,1,.566-.536h3.627c2.649,0,4,1.5,4,3.289a2.865,2.865,0,0,1-2.724,2.986l2.479,2.678a.533.533,0,1,1-.765.736l-3.093-3.353Zm0-.964h3.093c2.005,0,2.877-.935,2.845-2.083-.015-1.255-1.071-2.265-2.845-2.265h-3.093Z"
            transform="translate(59.05 -44.681)" fill="#fff"/>
      <path id="Path_2861" data-name="Path 2861"
            d="M149.817,54.626l-1.238,2.418c-.277.566-1.287.17-1.012-.444l4.625-9.106a.542.542,0,0,1,.5-.291.534.534,0,0,1,.488.291l4.608,9.06c.4.66-.733,1.041-1.024.444l-1.194-2.372Zm2.879-5.785-2.418,4.821H155.1Z"
            transform="translate(65.891 -44.825)" fill="#fff"/>
      <path id="Path_2862" data-name="Path 2862"
            d="M160.924,47.3a.529.529,0,1,1,0,1.056h-3.413c0,2.755.015,5.557.015,8.312a.565.565,0,0,1-.58.566.542.542,0,0,1-.551-.566V48.359H153a.528.528,0,1,1,0-1.056Z"
            transform="translate(72.94 -44.681)" fill="#fff"/>
      <path id="Path_2863" data-name="Path 2863"
            d="M157.812,47.725a.574.574,0,0,1,1.148,0V56.88a.575.575,0,0,1-1.148,0Z"
            transform="translate(80.584 -44.889)" fill="#fff"/>
      <path id="Path_2864" data-name="Path 2864"
            d="M159.979,48.006c-.291-.658.767-1.085,1.073-.427l3.933,7.836,3.843-7.807a.566.566,0,0,1,1.056.4l-4.409,8.924a.552.552,0,0,1-1.027-.046Z"
            transform="translate(83.607 -44.757)" fill="#fff"/>
      <path id="Path_2865" data-name="Path 2865"
            d="M167.179,54.626l-1.241,2.418c-.277.566-1.287.17-1.01-.444l4.622-9.106a.544.544,0,0,1,.5-.291.537.537,0,0,1,.49.291l4.608,9.06c.4.66-.736,1.041-1.027.444l-1.194-2.372Zm2.877-5.785-2.418,4.821h4.821Z"
            transform="translate(90.677 -44.825)" fill="#fff"/>
    </g>
    <g id="Group_6440" data-name="Group 6440" transform="translate(122.503 36.81)">
      <g id="Group_6434" data-name="Group 6434">
        <path id="Path_2866" data-name="Path 2866"
              d="M81.634,69.438A24.464,24.464,0,0,1,69.7,66.575a20.3,20.3,0,0,1-8.115-8.118,24.43,24.43,0,0,1-2.862-11.934,24.651,24.651,0,0,1,2.86-11.963A20.264,20.264,0,0,1,69.7,26.408a24.471,24.471,0,0,1,11.934-2.862,24.131,24.131,0,0,1,11.837,2.865,20.126,20.126,0,0,1,8.05,8.12,24.817,24.817,0,0,1,2.828,11.992,23.81,23.81,0,0,1-3.586,13.209l.874.913a4.775,4.775,0,0,1-3.289,8.13,4.74,4.74,0,0,1-3.564-1.559l-.864-.9A23.555,23.555,0,0,1,81.634,69.438Zm0-36.807a12.936,12.936,0,0,0-6.7,1.726,11.566,11.566,0,0,0-4.464,4.831,16.119,16.119,0,0,0-1.6,7.336,15.923,15.923,0,0,0,1.6,7.3,11.582,11.582,0,0,0,4.467,4.8,12.914,12.914,0,0,0,6.7,1.728,13.269,13.269,0,0,0,5.535-1.136L85.46,57.423a5.1,5.1,0,0,1-1.4-3.272,4.23,4.23,0,0,1,1.4-3.2A4.734,4.734,0,0,1,88.8,49.677a5.441,5.441,0,0,1,3.848,1.578l.036.034.733.757a17.642,17.642,0,0,0,.855-5.523,16.165,16.165,0,0,0-1.6-7.336,11.725,11.725,0,0,0-4.409-4.836A12.579,12.579,0,0,0,81.634,32.63Z"
              transform="translate(-58.722 -23.546)" fill="#fff"/>
      </g>
      <g id="Group_6435" data-name="Group 6435" transform="translate(51.031 0.663)">
        <path id="Path_2867" data-name="Path 2867"
              d="M100.866,69.048a23.061,23.061,0,0,1-11.026-2.559,18.479,18.479,0,0,1-7.458-7.246,21.287,21.287,0,0,1-2.639-10.655V28.3a4.079,4.079,0,0,1,1.583-3.377,5.5,5.5,0,0,1,3.423-1.1,5.753,5.753,0,0,1,3.51,1.09,4.114,4.114,0,0,1,1.629,3.452V48.588A11.058,11.058,0,0,0,92.876,56.7a10.448,10.448,0,0,0,7.924,3.064,10.748,10.748,0,0,0,8.062-3.071,10.92,10.92,0,0,0,3.047-8.106V28.495a4.306,4.306,0,0,1,1.6-3.493,5.719,5.719,0,0,1,6.916-.036,4.249,4.249,0,0,1,1.566,3.462V48.588a21.288,21.288,0,0,1-2.639,10.655,18.479,18.479,0,0,1-7.458,7.246A23.061,23.061,0,0,1,100.866,69.048Z"
              transform="translate(-79.743 -23.819)" fill="#fff"/>
      </g>
      <g id="Group_6436" data-name="Group 6436" transform="translate(94.138)">
        <path id="Path_2868" data-name="Path 2868"
              d="M140.044,69.438a5.389,5.389,0,0,1-2.491-.626,4.336,4.336,0,0,1-1.93-1.94L131.3,58.295H111.379l-4.321,8.582a4.123,4.123,0,0,1-1.864,1.966,5.33,5.33,0,0,1-2.488.595A5.536,5.536,0,0,1,99.2,68.192a4.129,4.129,0,0,1-1.7-3.3,4.7,4.7,0,0,1,.42-1.772l.039-.083,18.887-36.977a3.837,3.837,0,0,1,1.838-2.005,6.071,6.071,0,0,1,2.658-.512,4.551,4.551,0,0,1,4.418,2.5l18.746,36.764a4.52,4.52,0,0,1,.677,2.355,3.825,3.825,0,0,1-1.675,3.2A5.8,5.8,0,0,1,140.044,69.438ZM115.792,49.543h11.1L121.342,38.5Z"
              transform="translate(-97.5 -23.546)" fill="#fff"/>
      </g>
      <g id="Group_6437" data-name="Group 6437" transform="translate(145.691 0.663)">
        <path id="Path_2869" data-name="Path 2869"
              d="M151.8,69.009a6.146,6.146,0,0,1-2.729-.655A5.983,5.983,0,0,1,146.9,66.6l-17.95-23.434v21.1a4.328,4.328,0,0,1-1.612,3.588,5.483,5.483,0,0,1-3.462,1.153,5.581,5.581,0,0,1-3.527-1.153,4.331,4.331,0,0,1-1.612-3.588V29.1a5.017,5.017,0,0,1,1.583-3.9,5.249,5.249,0,0,1,3.622-1.374,5.527,5.527,0,0,1,2.67.643,6.841,6.841,0,0,1,2.083,1.816L147.231,50.7l-.044-.755V28.291a3.99,3.99,0,0,1,1.721-3.384,5.9,5.9,0,0,1,3.486-1.088,5.564,5.564,0,0,1,3.4,1.068,4.059,4.059,0,0,1,1.6,3.4V63.8a4.806,4.806,0,0,1-1.762,3.877A5.946,5.946,0,0,1,151.8,69.009Z"
              transform="translate(-118.736 -23.819)" fill="#fff"/>
      </g>
      <g id="Group_6438" data-name="Group 6438" transform="translate(187.164 0.663)">
        <path id="Path_2870" data-name="Path 2870"
              d="M156.812,69.048a5.333,5.333,0,0,1-3.413-1.182,4.308,4.308,0,0,1-1.595-3.493v-31.4H140.695a4.777,4.777,0,0,1-3.586-1.347,4.458,4.458,0,0,1-1.289-3.195,4.575,4.575,0,0,1,1.274-3.212,4.71,4.71,0,0,1,3.6-1.4h32.3a5.059,5.059,0,0,1,3.658,1.355,4.4,4.4,0,0,1,1.415,3.253,4.326,4.326,0,0,1-1.413,3.187,5.068,5.068,0,0,1-3.661,1.355H161.82l.063,31.4a4.231,4.231,0,0,1-1.687,3.515A5.5,5.5,0,0,1,156.812,69.048Z"
              transform="translate(-135.82 -23.819)" fill="#fff"/>
      </g>
      <g id="Group_6439" data-name="Group 6439" transform="translate(221.134)">
        <path id="Path_2871" data-name="Path 2871"
              d="M192.357,69.438a5.389,5.389,0,0,1-2.491-.626,4.336,4.336,0,0,1-1.93-1.94l-4.319-8.577H163.689l-4.321,8.582a4.129,4.129,0,0,1-1.862,1.966,5.338,5.338,0,0,1-2.488.595,5.531,5.531,0,0,1-3.505-1.245,4.129,4.129,0,0,1-1.7-3.3,4.655,4.655,0,0,1,.42-1.772l.036-.083,18.887-36.977A3.85,3.85,0,0,1,171,24.058a6.071,6.071,0,0,1,2.658-.512,4.554,4.554,0,0,1,4.418,2.5l18.746,36.764a4.52,4.52,0,0,1,.677,2.355,3.825,3.825,0,0,1-1.675,3.2A5.8,5.8,0,0,1,192.357,69.438ZM168.105,49.543h11.1L173.655,38.5Z"
              transform="translate(-149.813 -23.546)" fill="#fff"/>
      </g>
    </g>
    <g id="Group_6442" data-name="Group 6442" transform="translate(14.045 14.255)">
      <g id="Group_6441" data-name="Group 6441">
        <path id="Path_2872" data-name="Path 2872"
              d="M88,70.477a11.142,11.142,0,0,0-19.059-7.841,22.955,22.955,0,1,1-16.8-39.2,34.1,34.1,0,0,0,.592,68.192v.007h0A45.1,45.1,0,0,0,84.727,78.382l-.007-.007A11.113,11.113,0,0,0,88,70.477Z"
              transform="translate(-7.492 -1.15)" fill="#00a5cb"/>
        <path id="Path_2873" data-name="Path 2873" d="M32.863,42.347l-.182,0h.182Z" transform="translate(12.56 25.849)"
              fill="#276eb5"/>
        <path id="Path_2874" data-name="Path 2874"
              d="M25.188,64.081A34.1,34.1,0,0,1,58.694,29.988h.592A22.956,22.956,0,0,1,82.234,52.353a34.1,34.1,0,0,0-68.189.592h0A45.242,45.242,0,0,0,59.286,98.187v-.007A34.1,34.1,0,0,1,25.188,64.081Z"
              transform="translate(-14.045 -7.702)" fill="#145c84"/>
        <path id="Path_2875" data-name="Path 2875"
              d="M101.742,86.226l-3.6-3.552a45.243,45.243,0,1,0-84.1-23.213A34.1,34.1,0,0,1,82.234,58.9c.007.2.01.4.01.595h-.01A22.872,22.872,0,0,1,75.57,75.666l0,0a11.141,11.141,0,0,1,15.7,15.811l.007.007a45.418,45.418,0,0,1-8.919,6.931l3.617,3.573a11.147,11.147,0,0,0,15.765-15.765Z"
              transform="translate(-14.045 -14.255)" fill="#bed630"/>
      </g>
    </g>
  </g>
</svg>
