<svg xmlns="http://www.w3.org/2000/svg" viewBox="0 0 140 32">
  <title>studion</title>
  <path fill="#fff" d="M0 26.724q0-0.838 0.879-1.424c0.261-0.183 0.585-0.293 0.935-0.293 0.010 0 0.019 0 0.029 0l-0.001-0c0.548 0.012 1.038 0.251 1.381 0.627l0.001 0.002c0.745 0.871 1.641 1.587 2.652 2.113l0.049 0.023q1.445 0.713 3.456 0.713c1.031-0.007 1.997-0.278 2.836-0.748l-0.030 0.015q1.215-0.691 1.215-2.242c0.001-0.022 0.001-0.047 0.001-0.073 0-0.9-0.494-1.685-1.225-2.098l-0.012-0.006q-1.23-0.758-3.62-1.384c-1.524-0.391-2.82-0.843-4.068-1.387l0.172 0.067c-1.047-0.47-1.925-1.153-2.608-1.998l-0.010-0.013q-1.068-1.32-1.068-3.456c-0.001-0.028-0.001-0.061-0.001-0.095 0-1.211 0.402-2.329 1.079-3.227l-0.010 0.014c0.739-0.962 1.699-1.719 2.805-2.203l0.046-0.018c1.114-0.504 2.416-0.797 3.786-0.797 0.031 0 0.062 0 0.094 0l-0.005-0c1.44 0.006 2.814 0.282 4.075 0.78l-0.076-0.026c1.305 0.484 2.401 1.277 3.235 2.291l0.010 0.013c0.299 0.318 0.488 0.743 0.502 1.212l0 0.003q0 0.67-0.67 1.299c-0.264 0.234-0.615 0.378-0.998 0.378-0.017 0-0.034-0-0.051-0.001l0.002 0c-0.020 0.001-0.043 0.001-0.066 0.001-0.454 0-0.862-0.193-1.148-0.502l-0.001-0.001c-0.581-0.661-1.298-1.187-2.11-1.536l-0.038-0.015c-0.808-0.344-1.748-0.544-2.734-0.544-0.034 0-0.068 0-0.102 0.001l0.005-0c-0.048-0.002-0.104-0.002-0.16-0.002-0.932 0-1.808 0.242-2.568 0.666l0.027-0.014q-1.117 0.648-1.117 2.197c-0 0.011-0 0.024-0 0.037 0 0.921 0.512 1.723 1.267 2.136l0.013 0.006q1.234 0.713 3.79 1.383c1.432 0.362 2.66 0.793 3.836 1.317l-0.149-0.059c0.997 0.464 1.827 1.14 2.459 1.974l0.012 0.016q1.006 1.32 1.006 3.456c0.001 0.030 0.001 0.066 0.001 0.102 0 1.25-0.427 2.4-1.142 3.313l0.009-0.012c-0.77 0.97-1.764 1.73-2.905 2.208l-0.048 0.018c-1.131 0.494-2.449 0.781-3.834 0.781-0.014 0-0.028-0-0.042-0h0.002c-0.038 0-0.083 0.001-0.128 0.001-1.713 0-3.347-0.339-4.839-0.953l0.085 0.031c-1.538-0.645-2.816-1.647-3.774-2.907l-0.016-0.022c-0.224-0.318-0.362-0.711-0.375-1.135l-0-0.003z"></path>
  <path fill="#fff" d="M27.677 12.599v13.265q0 2.095 1.884 2.095c0.289-0.014 0.561-0.067 0.818-0.153l-0.021 0.006c0.235-0.080 0.507-0.132 0.79-0.146l0.007-0c0.376 0 0.709 0.18 0.92 0.458l0.002 0.003c0.236 0.301 0.378 0.684 0.378 1.101 0 0.025-0.001 0.049-0.002 0.074l0-0.003q0 0.879-1.006 1.508c-0.628 0.397-1.392 0.633-2.211 0.633-0.018 0-0.035-0-0.053-0l0.003 0c-0.031 0-0.067 0.001-0.103 0.001-0.864 0-1.704-0.107-2.506-0.308l0.071 0.015q-1.152-0.293-2.052-1.486t-0.9-3.622v-13.439h-2.425c-0.016 0.001-0.035 0.001-0.054 0.001-0.989 0-1.791-0.802-1.791-1.791 0-0.019 0-0.038 0.001-0.056l-0 0.003c-0.001-0.019-0.001-0.041-0.001-0.063 0-0.485 0.201-0.923 0.524-1.235l0-0c0.327-0.311 0.771-0.503 1.259-0.503 0.021 0 0.043 0 0.064 0.001l-0.003-0h2.429v-2.734c-0-0.011-0-0.025-0-0.038 0-0.54 0.216-1.029 0.567-1.385l-0 0c0.35-0.362 0.84-0.587 1.382-0.587 0.022 0 0.044 0 0.066 0.001l-0.003-0c0.012-0 0.027-0 0.042-0 0.535 0 1.018 0.225 1.359 0.585l0.001 0.001c0.35 0.356 0.567 0.846 0.567 1.385 0 0.013-0 0.027-0 0.040l0-0.002v2.734h3.476c0.017-0.001 0.037-0.001 0.057-0.001 0.989 0 1.791 0.802 1.791 1.791 0 0.019-0 0.038-0.001 0.056l0-0.003c0.001 0.020 0.001 0.043 0.001 0.066 0 0.488-0.203 0.929-0.53 1.242l-0.001 0.001c-0.327 0.311-0.771 0.503-1.26 0.503-0.021 0-0.042-0-0.063-0.001l0.003 0z"></path>
  <path fill="#fff" d="M54.842 9.926c0.35 0.356 0.567 0.845 0.567 1.385 0 0.014-0 0.027-0 0.040l0-0.002v11.142q0 4.357-2.408 6.764t-6.807 2.408q-4.357 0-6.743-2.408t-2.388-6.764v-11.141c-0-0.011-0-0.025-0-0.038 0-0.54 0.216-1.029 0.567-1.385l-0 0c0.342-0.361 0.825-0.586 1.36-0.586 0.015 0 0.031 0 0.046 0.001l-0.002-0c0.019-0.001 0.041-0.001 0.063-0.001 0.542 0 1.032 0.225 1.382 0.586l0.001 0.001c0.35 0.356 0.567 0.845 0.567 1.385 0 0.014-0 0.027-0 0.040l0-0.002v11.142q0 5.487 5.151 5.487 2.554 0 3.896-1.383t1.34-4.101v-11.146c-0-0.011-0-0.025-0-0.038 0-0.54 0.216-1.029 0.567-1.385l-0 0c0.342-0.361 0.825-0.586 1.36-0.586 0.015 0 0.031 0 0.046 0.001l-0.002-0c0.018-0.001 0.039-0.001 0.061-0.001 0.541 0 1.031 0.224 1.38 0.584l0 0.001z"></path>
  <path fill="#fff" d="M79.897 0.859c0.351 0.353 0.567 0.839 0.567 1.376 0 0.024-0 0.048-0.001 0.072l0-0.003v26.974c0 0.012 0 0.025 0 0.039 0 0.539-0.216 1.028-0.567 1.385l0-0c-0.35 0.362-0.839 0.587-1.382 0.587-0.022 0-0.045-0-0.067-0.001l0.003 0c-0.022 0.001-0.048 0.001-0.075 0.001-0.528 0-1.006-0.217-1.349-0.567l-0-0c-0.338-0.357-0.546-0.84-0.546-1.372 0-0.026 0-0.051 0.001-0.076l-0 0.004v-1.172c-0.774 1.064-1.763 1.925-2.907 2.532l-0.046 0.022c-1.168 0.659-2.563 1.047-4.050 1.047-0.012 0-0.023-0-0.035-0h0.002c-0.033 0-0.072 0.001-0.112 0.001-1.87 0-3.613-0.547-5.077-1.49l0.037 0.022c-1.558-1.011-2.798-2.388-3.619-4.013l-0.027-0.059c-0.846-1.656-1.341-3.612-1.341-5.684 0-0.071 0.001-0.141 0.002-0.212l-0 0.011c-0.001-0.060-0.002-0.13-0.002-0.201 0-2.070 0.488-4.026 1.355-5.76l-0.034 0.074c0.83-1.693 2.062-3.079 3.576-4.069l0.039-0.024c1.44-0.919 3.196-1.464 5.079-1.464 1.49 0 2.9 0.341 4.156 0.95l-0.057-0.025c1.216 0.579 2.237 1.383 3.048 2.367l0.012 0.015v-9.842c-0.001-0.022-0.001-0.047-0.001-0.073 0-0.532 0.208-1.015 0.547-1.373l-0.001 0.001c0.343-0.35 0.82-0.568 1.349-0.568 0.026 0 0.052 0.001 0.078 0.002l-0.004-0c0.020-0.001 0.045-0.001 0.069-0.001 0.537 0 1.023 0.217 1.376 0.568l-0-0zM73.405 27.026c1.029-0.69 1.843-1.625 2.371-2.724l0.018-0.041c0.543-1.122 0.86-2.439 0.86-3.831 0-0.052-0-0.104-0.001-0.156l0 0.008c0.001-0.035 0.001-0.077 0.001-0.119 0-1.395-0.317-2.715-0.883-3.893l0.023 0.054c-0.54-1.152-1.355-2.098-2.364-2.779l-0.024-0.015c-0.992-0.631-2.201-1.005-3.497-1.005s-2.505 0.374-3.524 1.021l0.027-0.016c-1.032 0.694-1.847 1.636-2.371 2.743l-0.017 0.041c-0.543 1.123-0.86 2.442-0.86 3.836 0 0.043 0 0.086 0.001 0.129l-0-0.006c-0.001 0.045-0.001 0.098-0.001 0.151 0 1.391 0.317 2.708 0.884 3.883l-0.023-0.054c0.545 1.14 1.359 2.076 2.364 2.75l0.024 0.015c0.992 0.631 2.201 1.005 3.497 1.005s2.505-0.374 3.524-1.021l-0.027 0.016z"></path>
  <path fill="#fff" d="M89.185 30.701c-0.349 0.362-0.839 0.587-1.381 0.587-0.023 0-0.045-0-0.068-0.001l0.003 0c-0.013 0-0.029 0.001-0.045 0.001-0.535 0-1.018-0.225-1.359-0.585l-0.001-0.001c-0.35-0.356-0.567-0.845-0.567-1.384 0-0.014 0-0.028 0-0.041l-0 0.002v-18.137c-0-0.011-0-0.025-0-0.038 0-0.54 0.216-1.029 0.567-1.385l-0 0c0.342-0.361 0.825-0.586 1.36-0.586 0.015 0 0.031 0 0.046 0.001l-0.002-0c0.019-0.001 0.041-0.001 0.063-0.001 0.542 0 1.032 0.225 1.382 0.586l0.001 0.001c0.35 0.356 0.567 0.845 0.567 1.385 0 0.014-0 0.027-0 0.040l0-0.002v18.137c0 0.012 0 0.025 0 0.039 0 0.539-0.216 1.028-0.567 1.385l0-0z"></path>
  <path fill="#fff" d="M89.751 2.283c0 1.099-0.891 1.99-1.99 1.99s-1.99-0.891-1.99-1.99c0-1.099 0.891-1.99 1.99-1.99s1.99 0.891 1.99 1.99z"></path>
  <path fill="#78B72B" d="M129.492 8.848c-0.004 0-0.009 0-0.014 0-3.020 0-5.754 1.226-7.731 3.208l-0 0c-4.114 4.114-1.894 7.298-6.382 11.785-2.148 2.148-5.038 2.398-6.139 2.398-0.045 0.001-0.098 0.001-0.151 0.001-1.732 0-3.347-0.501-4.708-1.366l0.036 0.021c-1.411-0.911-2.532-2.161-3.265-3.638l-0.024-0.053c-0.74-1.471-1.173-3.207-1.173-5.043 0-0.057 0-0.113 0.001-0.169l-0 0.009c-0.001-0.047-0.001-0.104-0.001-0.16 0-1.837 0.433-3.573 1.203-5.111l-0.030 0.066c0.757-1.53 1.877-2.779 3.253-3.669l0.036-0.022c1.366-0.844 3.022-1.344 4.794-1.344 1.787 0 3.455 0.508 4.868 1.388l-0.039-0.023c1.42 0.917 2.553 2.164 3.311 3.636l0.025 0.053c0.389 0.738 0.706 1.594 0.908 2.494l0.013 0.070c0.594-1.033 1.284-1.923 2.080-2.707l0.002-0.002c0.713-0.714 1.509-1.345 2.371-1.878l0.056-0.032c-0.129-0.279-0.264-0.557-0.41-0.83-1.277-2.408-3.111-4.37-5.337-5.763l-0.063-0.037q-3.445-2.132-7.754-2.132t-7.756 2.132c-2.285 1.426-4.113 3.389-5.339 5.719l-0.039 0.081c-1.219 2.287-1.934 5.001-1.934 7.882 0 0.065 0 0.13 0.001 0.194l-0-0.010c-0.001 0.055-0.001 0.12-0.001 0.185 0 2.881 0.716 5.596 1.979 7.975l-0.045-0.092c1.264 2.411 3.092 4.374 5.316 5.763l0.062 0.036q3.445 2.134 7.756 2.134c2.5 0 6.798-0.621 10.199-4.023 3.636-3.636 4.048-6.682 4.847-9.078l0.066-0.195c0.336-0.965 0.752-1.822 1.494-2.564 0.934-0.936 2.226-1.515 3.652-1.515 0.002 0 0.005 0 0.007 0h-0c2.858 0 5.175 2.317 5.175 5.175v0 8.53c0 1.595 1.293 2.888 2.888 2.888s2.888-1.293 2.888-2.888v0-8.53c0-6.048-4.903-10.951-10.951-10.951-0.001 0-0.001 0-0.002 0h0z"></path>
</svg>
