<svg xmlns="http://www.w3.org/2000/svg" viewBox="0 0 40 17.16">
  <title>sebrae-logo</title>
  <path d="M15.25,0H27.67l-.34,1.63H14.91Zm-.62,2.71H27.05l-.34,1.65H14.29ZM12.36,12.8H24.78l-.34,1.63H12Zm-.62,2.73H24.16l-.34,1.63H11.4ZM.06,9.75H1.92a1.36,1.36,0,0,0,0,.29c0,.47.31.67.94.67s1-.23,1.14-.7c0-.06,0-.12,0-.18s-.16-.35-.47-.43L2,9C1.15,8.76.72,8.32.72,7.68a1.93,1.93,0,0,1,0-.41,2.37,2.37,0,0,1,1-1.36A3.87,3.87,0,0,1,4,5.32c1.55,0,2.33.47,2.33,1.43a5.42,5.42,0,0,1-.06.58H4.38a1.36,1.36,0,0,0,0-.29c0-.38-.25-.58-.71-.58A1.29,1.29,0,0,0,3,6.63a.78.78,0,0,0-.34.47c0,.06,0,.09,0,.15,0,.23.19.4.53.49L4.35,8a3.64,3.64,0,0,1,1.05.41,1.08,1.08,0,0,1,.53,1,3.32,3.32,0,0,1-.06.44,2.23,2.23,0,0,1-1.18,1.51,4.69,4.69,0,0,1-2.2.49c-1.15,0-1.9-.23-2.24-.72A1.44,1.44,0,0,1,0,10.27a4.6,4.6,0,0,1,.06-.52m6.46,2,1.4-6.2h5l-.28,1.16H9.47L9.19,8h3l-.28,1.19h-3L8.63,10.5h3.23l-.28,1.2H6.52Zm6.06,0h2.95a5.11,5.11,0,0,0,1.86-.26,2,2,0,0,0,.93-.73,1.69,1.69,0,0,0,.35-1.08c0-.61-.44-1-1.3-1.16v0c1-.24,1.58-.7,1.73-1.43a1.12,1.12,0,0,0,0-.32A1.05,1.05,0,0,0,18.82,6a1.52,1.52,0,0,0-1-.43c-.4,0-.81-.06-1.21-.06H14Zm2.95-5.1h1a.91.91,0,0,1,.56.15.48.48,0,0,1,.12.55.79.79,0,0,1-.46.61,1.45,1.45,0,0,1-.65.09h-.87ZM15,9.11h1c.59,0,.87.17.87.55a.34.34,0,0,1,0,.2c-.12.5-.5.73-1.12.73h-1Zm4.28,2.62,1.4-6.23h3.08a9.45,9.45,0,0,1,1.06,0,1.5,1.5,0,0,1,.9.41,1.1,1.1,0,0,1,.24.72,1.84,1.84,0,0,1-.06.47A1.64,1.64,0,0,1,25,8.29a3.19,3.19,0,0,1-1.09.32v0a1.39,1.39,0,0,1,1,.26.94.94,0,0,1,.21.7,5.25,5.25,0,0,1,0,.56,9.9,9.9,0,0,0,0,1.54H23c0-.23,0-.7.1-1.4a4.07,4.07,0,0,0,0-.5A.55.55,0,0,0,23,9.4a1,1,0,0,0-.59-.12h-.77l-.53,2.45Zm3-5.1-.35,1.52h.69a3.29,3.29,0,0,0,.77-.06.88.88,0,0,0,.66-.7.64.64,0,0,0,0-.2.51.51,0,0,0-.38-.5A2.61,2.61,0,0,0,23,6.64h-.68Zm3.1,5.1H27.2L28,10.48h2.67l.18,1.25h2.08L31.68,5.5H29.44Zm3.26-2.39,1.53-2.62h0l.28,2.62Zm5,2.39L35,5.53h5l-.28,1.19H36.55L36.24,8h3l-.28,1.2H36l-.31,1.34h3.23l-.28,1.19Z" transform="translate(0 0)" fill="#0063c0"/>
</svg>
