<?xml version="1.0" standalone="no"?>
<!DOCTYPE svg PUBLIC "-//W3C//DTD SVG 20010904//EN"
 "http://www.w3.org/TR/2001/REC-SVG-20010904/DTD/svg10.dtd">
<svg version="1.0" xmlns="http://www.w3.org/2000/svg"
 width="224.000000pt" height="224.000000pt" viewBox="0 0 224.000000 224.000000"
 preserveAspectRatio="xMidYMid meet">
<metadata>
Created by potrace 1.11, written by Peter Selinger 2001-2013
</metadata>
<g transform="translate(0.000000,224.000000) scale(0.100000,-0.100000)"
fill="#000000" stroke="none">
<path d="M625 1884 c-290 -42 -521 -256 -601 -559 -25 -97 -25 -321 0 -420 59
-225 201 -403 398 -498 214 -102 506 -83 700 47 72 47 137 112 192 189 54 75
81 135 126 272 48 150 80 199 153 236 124 64 276 14 339 -111 l27 -54 1 -242
c0 -132 3 -252 5 -265 3 -13 20 -39 39 -58 64 -64 175 -49 218 30 16 30 18 61
18 289 0 271 -7 323 -52 420 -64 136 -213 257 -358 289 -78 18 -236 7 -305
-21 -176 -72 -278 -189 -335 -388 -30 -105 -57 -167 -98 -225 -97 -136 -219
-197 -386 -191 -246 9 -421 208 -424 482 -1 102 12 161 53 251 72 158 217 250
393 251 127 0 225 -41 316 -135 45 -46 116 -172 116 -207 0 -27 13 -17 57 44
24 33 70 81 103 106 33 26 60 53 60 59 0 23 -97 162 -146 209 -76 73 -179 137
-273 169 -70 23 -107 29 -196 32 -60 2 -123 1 -140 -1z"/>
</g>
</svg>
