<svg xmlns="http://www.w3.org/2000/svg" xmlns:xlink="http://www.w3.org/1999/xlink" width="549.883" height="286.152" viewBox="0 0 549.883 286.152">
  <defs>
    <clipPath id="clip-path">
      <rect id="Retângulo_39674" data-name="Retângulo 39674" width="549.883" height="286.152" fill="#fff"/>
    </clipPath>
  </defs>
  <g id="Grupo_94555" data-name="Grupo 94555" clip-path="url(#clip-path)">
    <line id="Linha_177" data-name="Linha 177" x2="549.883" transform="translate(0 188.143)" fill="none" stroke="#fff" stroke-width="0.85"/>
    <path id="Caminho_41777" data-name="Caminho 41777" d="M9.375,73.757V107.6h8.1V89.33h15.47V82.1H17.436V74.833a1.917,1.917,0,0,1,1.918-1.855h19.18V65.671H17.479a8.144,8.144,0,0,0-8.1,8.086m30.07,18.154A14.85,14.85,0,0,0,52.708,108.2h.011a15.547,15.547,0,0,0,1.767.067A16.525,16.525,0,0,0,56.269,75.64a15.075,15.075,0,0,0-1.784-.081A14.849,14.849,0,0,0,39.378,90.145v0a15.357,15.357,0,0,0,.067,1.756Zm7.846,0c0-5.864,2.878-9.578,7.127-9.578s7.127,3.713,7.127,9.578-2.814,9.578-7.127,9.578-7.127-3.713-7.127-9.585ZM93.956,75.559a22.538,22.538,0,0,0-10.223,2.715V76.24H76.367v31.389h7.6V84.308a11.224,11.224,0,0,1,8.985-1.559h1.019Zm36.185,32.052h7.6V87.3A10.8,10.8,0,0,0,128,75.549l-.014,0c-.3,0-.617-.042-.9-.049a12.224,12.224,0,0,0-7.906,3.65,9.616,9.616,0,0,0-7.846-3.593,9.319,9.319,0,0,0-6.051,2.761v-2.1H97.853V107.6h7.607V85.2a8.918,8.918,0,0,1,5.272-2.511c3.174,0,3.414,3.3,3.414,5.692v19.233h7.487V85.744a7.744,7.744,0,0,1,4.912-3.057c3.3-.123,3.6,3.23,3.6,5.692Zm22.224-10a3.9,3.9,0,0,1,3.657-3.957c2.638-.543,5.272-.779,7.846-1.234v7.07a13.456,13.456,0,0,1-6.771,2.158c-2.518,0-4.74-1.076-4.74-4.013Zm11.8,10h7.307V86.163c-.24-7.889-7.257-10.6-14.441-10.6a34.158,34.158,0,0,0-9.282,1.559v6.951h.836a20.637,20.637,0,0,1,8.329-1.858c2.1,0,6.887,1.076,7.127,4.133l-10.3,1.506a10.062,10.062,0,0,0-9.049,10.184,10.439,10.439,0,0,0,10.555,10.318h.462a11.792,11.792,0,0,0,8.446-3.593Zm39.055-23.186V77.658a24.516,24.516,0,0,0-9.645-2.1,14.493,14.493,0,0,0-11.2,4.8,17.191,17.191,0,0,0-4.017,11.56,16.786,16.786,0,0,0,2.941,9.9,15.369,15.369,0,0,0,12.515,6.464,20.856,20.856,0,0,0,9.468-2.095V99.715h-.906a18.715,18.715,0,0,1-8.446,1.795,6.986,6.986,0,0,1-6.408-3.837,11.741,11.741,0,0,1-1.319-5.692A11.873,11.873,0,0,1,188,85a7.092,7.092,0,0,1,6.051-2.638,14.469,14.469,0,0,1,8.2,2.1Zm-10.364,20.481-1.329,7.427c2.215-.243,6.651.659,6.651,2.994,0,1.739-1.319,2.278-2.994,2.278a8.034,8.034,0,0,1-4.33-1.492l-2.638,3.533a13.006,13.006,0,0,0,7.127,2.338,6.886,6.886,0,0,0,7.525-6.185v-.621c-.24-3.773-3.093-5.335-6.464-5.864l.659-3.657ZM215.2,97.6a3.894,3.894,0,0,1,3.657-3.953c2.634-.54,5.272-.779,7.846-1.238v7.07a13.463,13.463,0,0,1-6.771,2.155c-2.511,0-4.725-1.076-4.725-4.01Zm11.8,10H234.3V86.163c-.24-7.906-7.247-10.6-14.434-10.6a34.113,34.113,0,0,0-9.282,1.559v6.951h.836a20.576,20.576,0,0,1,8.326-1.858c2.1,0,6.887,1.076,7.13,4.133l-10.3,1.509a10.061,10.061,0,0,0-9.045,10.184,10.442,10.442,0,0,0,10.555,10.322h.458a11.741,11.741,0,0,0,8.446-3.6ZM214.955,72.565c.783-1.2,1.382-2.155,2.941-2.155a6.724,6.724,0,0,1,3.534,1.555,10.213,10.213,0,0,0,4.33,1.076,7.539,7.539,0,0,0,7.011-4.732l-3.893-2.1c-.659,1.238-1.238,2.271-2.814,2.271a5.453,5.453,0,0,1-3.3-1.5,9.67,9.67,0,0,0-4.616-1.238,8.2,8.2,0,0,0-7.074,4.732Zm26.237,19.346A14.85,14.85,0,0,0,254.451,108.2h.007a15.615,15.615,0,0,0,1.77.071,16.527,16.527,0,0,0,1.781-32.627,15.048,15.048,0,0,0-1.781-.081,14.847,14.847,0,0,0-15.1,14.592v0a14.715,14.715,0,0,0,.074,1.763Zm7.846,0c0-5.864,2.878-9.581,7.127-9.581s7.127,3.71,7.127,9.581-2.814,9.578-7.127,9.578-7.123-3.71-7.123-9.578Zm54.332-18.9V107.66h8.086V73.01h11.62V65.685H291.933V73.01Zm37.2,9.144c3.83.064,5.812,2.514,6.189,6.468H333.979a6.548,6.548,0,0,1,6.584-6.475Zm-6.651,12.759h20.548a27.049,27.049,0,0,0-1.559-11.44,12.679,12.679,0,0,0-12.455-7.906,13.768,13.768,0,0,0-11.207,5.4,20.1,20.1,0,0,0-3.47,11.136,15.621,15.621,0,0,0,4.789,11.979,18.376,18.376,0,0,0,12.455,4.189,32.029,32.029,0,0,0,9.825-1.319V99.839h-.959a16.95,16.95,0,0,1-8.266,1.978,8.744,8.744,0,0,1-9.7-6.915Zm13.612-29.946h-6.185l-5.163,9.01h4.556Zm37.26,19.466V77.665a24.5,24.5,0,0,0-9.645-2.1,14.481,14.481,0,0,0-11.2,4.8,17.182,17.182,0,0,0-4.017,11.556,16.8,16.8,0,0,0,2.941,9.9,15.388,15.388,0,0,0,12.515,6.464,20.859,20.859,0,0,0,9.468-2.1V99.722h-.9a18.735,18.735,0,0,1-8.446,1.795,7,7,0,0,1-6.411-3.837,11.781,11.781,0,0,1-1.319-5.692A11.925,11.925,0,0,1,369.568,85a7.082,7.082,0,0,1,6.051-2.638,14.473,14.473,0,0,1,8.206,2.1Zm23.179-8.865a21.342,21.342,0,0,0-9.165,2.7V76.229h-7.367v31.389h7.6V85.151a15.272,15.272,0,0,1,7.783-2.557c3.354,0,4.789,2.476,4.736,5.452v19.589h7.6V87.253a10.883,10.883,0,0,0-10.043-11.662h0a8.435,8.435,0,0,0-1.157-.039Zm28.1.663h-7.614v31.389h7.606Zm.053-10.519h-7.666V73.2h7.666ZM468.17,84.457V77.682a24.534,24.534,0,0,0-9.641-2.1,14.486,14.486,0,0,0-11.2,4.8,17.179,17.179,0,0,0-4.017,11.56,16.783,16.783,0,0,0,2.938,9.9,15.393,15.393,0,0,0,12.519,6.467,20.881,20.881,0,0,0,9.465-2.1V99.74H467.3a18.669,18.669,0,0,1-8.446,1.795,7,7,0,0,1-6.408-3.837,13.827,13.827,0,0,1,.476-12.67,7.079,7.079,0,0,1,6.051-2.634,14.467,14.467,0,0,1,8.2,2.095Zm11.979,13.182a3.9,3.9,0,0,1,3.657-3.957c2.634-.543,5.272-.779,7.846-1.234v7.07a13.5,13.5,0,0,1-6.771,2.155c-2.511,0-4.725-1.086-4.725-4.024Zm11.8,10h7.307V86.192c-.24-7.91-7.243-10.608-14.434-10.608a34.116,34.116,0,0,0-9.281,1.559v6.951h.836a20.635,20.635,0,0,1,8.326-1.858c2.1,0,6.887,1.079,7.13,4.133l-10.3,1.516a10.061,10.061,0,0,0-9.045,10.184,10.442,10.442,0,0,0,10.555,10.322h.458a11.741,11.741,0,0,0,8.446-3.6Z" transform="translate(23.685 164.133)" fill="#ffffff"/>
    <path id="Caminho_41778" data-name="Caminho 41778" d="M42.753,46.3A61.055,61.055,0,0,0,9.844,21.333a79.8,79.8,0,0,0,2.8,15.738A47.685,47.685,0,0,1,38.958,76.656a78.606,78.606,0,0,0,13.63,8.837V79.53A60.728,60.728,0,0,0,42.753,46.3" transform="translate(24.87 53.898)" fill="#fff"/>
    <path id="Caminho_41779" data-name="Caminho 41779" d="M72.851,63.37a88.432,88.432,0,0,0-9.507-16.278A89.756,89.756,0,0,0,53.534,35.86,88.944,88.944,0,0,0,12.687,13.245,78.916,78.916,0,0,0,9.94,26.578,75.76,75.76,0,0,1,44.9,46.46c.98.98,1.922,1.968,2.828,3A75.267,75.267,0,0,1,67.054,99.974v11.687a77.776,77.776,0,0,0,13.63,2.493V99.984A88.918,88.918,0,0,0,72.851,63.37" transform="translate(25.113 33.464)" fill="#fff"/>
    <path id="Caminho_41780" data-name="Caminho 41780" d="M97.2,81.805c-1-3.1-2.155-6.171-3.438-9.2-1.2-2.828-2.5-5.611-3.911-8.315a115.769,115.769,0,0,0-7.808-12.96,117.6,117.6,0,0,0-9.518-11.955c-1.284-1.414-2.617-2.8-3.971-4.158-1.887-1.883-3.83-3.71-5.833-5.445A117.43,117.43,0,0,0,20.012,5.952a77.667,77.667,0,0,0-7.705,11.979A104.464,104.464,0,0,1,64.713,51.147,104.956,104.956,0,0,1,74.231,64.3a103.6,103.6,0,0,1,15.16,54.1v14.169a77.678,77.678,0,0,0,13.616-2.493V118.392A116.89,116.89,0,0,0,97.2,81.805" transform="translate(31.093 15.039)" fill="#fff"/>
    <path id="Caminho_41781" data-name="Caminho 41781" d="M114,100.048a139.892,139.892,0,0,0-5.194-17.28c-.748-2.084-1.576-4.158-2.451-6.217q-1.571-3.729-3.354-7.353a139,139,0,0,0-7.353-13.224,147.055,147.055,0,0,0-17.347-22.46c-1.037-1.132-2.123-2.246-3.216-3.336-2.13-2.144-4.334-4.2-6.584-6.182A144.217,144.217,0,0,0,31.228,0a77.918,77.918,0,0,0-13.52,9.2,131.96,131.96,0,0,1,41,24.3,125.99,125.99,0,0,1,9.8,9.461A130.33,130.33,0,0,1,85.835,66.054,132.142,132.142,0,0,1,98.992,96.441a131.3,131.3,0,0,1,5.184,33.476v.025c.035,1.128.049,2.271.049,3.414v5.974a78.743,78.743,0,0,0,13.556-8.834h.021v-.307a144.634,144.634,0,0,0-3.8-30.14" transform="translate(44.738 0.001)" fill="#fff"/>
    <path id="Caminho_41782" data-name="Caminho 41782" d="M52.137,46.154A60.431,60.431,0,0,0,42.3,76.022v.025c-.071,1.153-.106,2.32-.106,3.491v5.974l.152-.071a78.638,78.638,0,0,0,13.559-8.834,2.4,2.4,0,0,1,.021-.317,47.455,47.455,0,0,1,26.2-39.21,79.8,79.8,0,0,0,2.8-15.749,61.138,61.138,0,0,0-32.8,24.823" transform="translate(106.605 53.893)" fill="#ffffff"/>
    <path id="Caminho_41783" data-name="Caminho 41783" d="M102.142,13.243A89.2,89.2,0,0,0,34.167,99.968v14.169a77.556,77.556,0,0,0,13.616-2.493V99.958a75.213,75.213,0,0,1,5.939-29.446,78.627,78.627,0,0,1,3.685-7.529,75.043,75.043,0,0,1,9.825-13.675c.882-.977,1.777-1.918,2.708-2.849a75.469,75.469,0,0,1,34.947-19.871,76.541,76.541,0,0,0-2.744-13.344" transform="translate(86.32 33.459)" fill="#ffffff"/>
    <path id="Caminho_41784" data-name="Caminho 41784" d="M109.136,5.952a117.472,117.472,0,0,0-42.6,23.722c-2.038,1.767-4.027,3.629-5.946,5.547-1.319,1.322-2.617,2.673-3.851,4.055a113.146,113.146,0,0,0-9.624,12.06,111.735,111.735,0,0,0-7.808,12.956c-1.414,2.712-2.722,5.491-3.925,8.315q-1.91,4.539-3.438,9.186a117.154,117.154,0,0,0-5.808,36.594v11.687a77.771,77.771,0,0,0,13.63,2.493V118.4A104.06,104.06,0,0,1,116.841,17.928a77.373,77.373,0,0,0-7.705-11.976" transform="translate(66.026 15.039)" fill="#ffffff"/>
    <path id="Caminho_41785" data-name="Caminho 41785" d="M104.717.02a144.577,144.577,0,0,0-37.2,23.923c-2.275,2-4.489,4.087-6.654,6.238-1.072,1.072-2.133,2.155-3.142,3.262A138.206,138.206,0,0,0,48.1,44.763a134.582,134.582,0,0,0-7.825,11.27,141.017,141.017,0,0,0-7.346,13.228c-1.178,2.405-2.289,4.831-3.332,7.3q-1.333,3.126-2.5,6.288a144.869,144.869,0,0,0-9,47.642,78.472,78.472,0,0,0,13.63,8.837v-5.974a132.04,132.04,0,0,1,5.18-36.784,127.09,127.09,0,0,1,5.822-16.088A128.673,128.673,0,0,1,50.078,66.1,129.708,129.708,0,0,1,67.509,42.887a127.715,127.715,0,0,1,9.8-9.444,132.2,132.2,0,0,1,40.878-24.23A77.555,77.555,0,0,0,104.717.02" transform="translate(45.721 0.052)" fill="#ffffff"/>
    <path id="Caminho_41786" data-name="Caminho 41786" d="M165.469,47.248c6.489-4.33,10.872-10.3,10.872-18.489,0-10.921-8.566-18.309-20.333-18.309H129.916V75.234a107.267,107.267,0,0,0,13.552,0V55.659a88.42,88.42,0,0,0,10-2.715,200.138,200.138,0,0,1,11.665,22.291,136.587,136.587,0,0,0,15.294,0,253.849,253.849,0,0,0-14.963-27.986m-22-23.207h10.209c6.489,0,9.236,1.858,8.735,6.489-.695,6.524-11.165,10.265-18.937,12.092Z" transform="translate(328.223 26.403)" fill="#fff"/>
    <path id="Caminho_41787" data-name="Caminho 41787" d="M149.207,10.566a87.9,87.9,0,0,0-14.194.039L110.727,75.6a103.616,103.616,0,0,0,14.649-.042l3.653-9.98a53.157,53.157,0,0,1,26.543-.025l3.72,10.064a124.637,124.637,0,0,0,14.564-.049ZM134.061,51.818l8.174-22.343,8.259,22.336a68.107,68.107,0,0,0-16.43.007Z" transform="translate(279.744 26.019)" fill="#fff"/>
    <path id="Caminho_41788" data-name="Caminho 41788" d="M149.71,75.479l-.187-64.922A104.239,104.239,0,0,0,135.8,10.6l.1,35.705a162.114,162.114,0,0,0-28.568-35.363v-.247a99.888,99.888,0,0,0-13.63.039l.187,64.922a72.127,72.127,0,0,0,13.63-.042l-.13-45.322a143.888,143.888,0,0,1,28.582,45.23,117.484,117.484,0,0,0,13.739-.042" transform="translate(236.734 26.154)" fill="#fff"/>
    <path id="Caminho_41789" data-name="Caminho 41789" d="M78.724,75.2V10.447h43.114a66.878,66.878,0,0,1,0,13.6H92.294V34.793h24.953a77.472,77.472,0,0,1,0,12.663H92.294V61.608h31.5a66.853,66.853,0,0,1,0,13.594Z" transform="translate(198.89 26.395)" fill="#fff"/>
    <path id="Caminho_41790" data-name="Caminho 41790" d="M91.8,76.733c11.687,0,22.6-5.759,22.6-18.736,0-12.378-8.248-15.812-17.357-20.369-4.472-2.246-17.1-6.961-17.1-10.83,0-3.177,3.7-3.953,8.336-3.953a48.144,48.144,0,0,1,16.5,3.093,33.593,33.593,0,0,0,4.9-11.087A58.1,58.1,0,0,0,85.353,10.21c-11.6,0-19.681,5.674-19.681,17.1,0,12.632,15.044,17.787,21.487,20.714,7.307,3.35,13.228,5.24,13.228,10.653,0,4.644-6.7,4.556-9.881,4.556a60.856,60.856,0,0,1-23.289-5.156A50.082,50.082,0,0,0,61.8,69.514c7.994,5.156,19.945,7.219,30,7.219" transform="translate(156.133 25.747)" fill="#fff"/>
  </g>
</svg>
