<svg xmlns="http://www.w3.org/2000/svg" width="26.375" height="29.325" viewBox="0 0 26.375 29.325">
  <g id="Grupo_10129" data-name="Grupo 10129" transform="translate(-130.378 -13.933)">
    <g id="Grupo_10130" data-name="Grupo 10130">
      <path id="Caminho_4343" data-name="Caminho 4343" d="M586.216,101.567a1.567,1.567,0,0,0,1.535.027l.016-.01c.023-.017,9.162-5.283,9.162-5.283a1.586,1.586,0,0,0,.088-2.75l-.011,0c-.013-.012-9.157-5.287-9.157-5.287a1.569,1.569,0,0,0-2.412,1.29v10.586a1.544,1.544,0,0,0,.78,1.432" transform="translate(-441.017 -66.303)" fill="#fff"/>
      <path id="Caminho_4349" data-name="Caminho 4349" d="M540.112,62.016l-.007-.008-9.152-5.28a1.579,1.579,0,0,0-2.43,1.288v6.267l0,4.321a1.578,1.578,0,0,0,2.329,1.452l.01-.007,9.152-5.289a1.575,1.575,0,0,0,.095-2.745" transform="translate(-398.145 -42.547)" fill="#fff"/>
      <path id="Caminho_4350" data-name="Caminho 4350" d="M540.112,125.086h-.007c-.016-.013-9.152-5.287-9.152-5.287a1.576,1.576,0,0,0-1.637-.031,1.553,1.553,0,0,0-.793,1.321v6.263l0,4.322a1.586,1.586,0,0,0,2.329,1.457l.01-.007c.013-.015,9.152-5.286,9.152-5.286a1.581,1.581,0,0,0,.095-2.752" transform="translate(-398.145 -90.062)" fill="#fff"/>
    </g>
  </g>
</svg>
