<svg xmlns="http://www.w3.org/2000/svg" width="26.275" height="29.33" viewBox="0 0 26.275 29.33">
  <g id="Grupo_10132" data-name="Grupo 10132" transform="translate(-101.202 -10.86)">
    <g id="Grupo_10133" data-name="Grupo 10133" transform="translate(101.202 10.86)">
      <path id="Caminho_4362" data-name="Caminho 4362" d="M960.656,146.546a1.562,1.562,0,0,1,2.4-1.289s9.113,5.276,9.125,5.287l.013,0a1.591,1.591,0,0,1-.088,2.751s-9.1,5.268-9.13,5.286l-.014.009a1.566,1.566,0,0,1-2.306-1.459Z" transform="translate(-946.667 -137.232)" fill="#fc0"/>
      <path id="Caminho_4363" data-name="Caminho 4363" d="M867.259,94.6a1.575,1.575,0,0,1,2.422-1.288l9.117,5.282.006.009a1.578,1.578,0,0,1-.094,2.746s-9.1,5.281-9.118,5.29l-.01,0a1.564,1.564,0,0,1-1.535-.019,1.582,1.582,0,0,1-.786-1.434l0-4.322Z" transform="translate(-867.259 -93.063)" fill="#009fe3"/>
      <path id="Caminho_4364" data-name="Caminho 4364" d="M867.259,198.517a1.55,1.55,0,0,1,.79-1.322,1.571,1.571,0,0,1,1.633.031s9.1,5.276,9.117,5.288h.006a1.584,1.584,0,0,1-.094,2.752s-9.1,5.273-9.118,5.288l-.01.006a1.58,1.58,0,0,1-2.321-1.457l0-4.323Z" transform="translate(-867.259 -181.418)" fill="#009641"/>
    </g>
  </g>
</svg>
