<svg id="Grupo_10131" data-name="Grupo 10131" xmlns="http://www.w3.org/2000/svg" xmlns:xlink="http://www.w3.org/1999/xlink" width="122.262" height="48.003" viewBox="0 0 122.262 48.003">
  <defs>
    <clipPath id="clip-path">
      <rect id="Ret창ngulo_3193" data-name="Ret창ngulo 3193" width="122.262" height="48.003" fill="none"/>
    </clipPath>
  </defs>
  <g id="Grupo_10125" data-name="Grupo 10125" clip-path="url(#clip-path)">
    <path id="Caminho_4357" data-name="Caminho 4357" d="M16.193,49.332H9.023L11.87,39.316a26.342,26.342,0,0,0,.8-3.71h.088a22.97,22.97,0,0,0,.713,3.71Zm3.773,10.726H24.8a1.231,1.231,0,0,0,1.214-1.232,1.18,1.18,0,0,0-.069-.4l-9.125-28.27a1.214,1.214,0,0,0-1.161-.847H10.4a1.232,1.232,0,0,0-1.178.892L.07,58.429a.056.056,0,0,0-.011.034A1.294,1.294,0,0,0,0,58.825a1.226,1.226,0,0,0,1.227,1.232H5.081a1.218,1.218,0,0,0,1.177-.891l1.7-5.679h9.21l1.611,5.66a.089.089,0,0,1,.008.034,1.24,1.24,0,0,0,1.174.876Z" transform="translate(0 -25.89)" fill="#0064a3"/>
    <path id="Caminho_4358" data-name="Caminho 4358" d="M229.347,3.389a1.239,1.239,0,0,1,.7-1.113L233.94.233a1.7,1.7,0,0,1,.8-.233,1.228,1.228,0,0,1,1.226,1.232v25.7a2.866,2.866,0,0,0,2.89,2.745,1.227,1.227,0,0,1,1.218,1.232v2a1.225,1.225,0,0,1-1.218,1.23h-1.345a8.182,8.182,0,0,1-8.165-8.192V3.389Z" transform="translate(-202.584)" fill="#0064a3"/>
    <path id="Caminho_4359" data-name="Caminho 4359" d="M340.141,89.235a1.256,1.256,0,0,1,.714,1.13v21.167c0,6.691-4.16,9.935-10.268,10.171a16.412,16.412,0,0,1-7.494-1.479l-.016,0a1.25,1.25,0,0,1-.774-1.152,1.27,1.27,0,0,1,.079-.434l.66-1.7a1.241,1.241,0,0,1,1.179-.868,1.256,1.256,0,0,1,.471.1.166.166,0,0,1,.024.005,13,13,0,0,0,4.635.866c3.567,0,4.878-1.708,4.878-4.421V111.3a8.789,8.789,0,0,1-4.094.743c-5.622,0-9.675-4.328-9.675-11.375,0-7.87,4.008-12.813,12.067-12.813a19.035,19.035,0,0,1,7.571,1.357c.018,0,.027.015.042.019m-5.911,18.351V92.191A5.188,5.188,0,0,0,332,91.8c-3.491,0-4.92,2.84-4.92,8.484,0,5.336,1.385,7.874,4.785,7.874a4.717,4.717,0,0,0,2.364-.569" transform="translate(-283.066 -77.607)" fill="#0064a3"/>
    <path id="Caminho_4360" data-name="Caminho 4360" d="M528.834,108.414V99.434c-3.854-.3-7.04,1.122-7.04,4.853,0,2.731,1.629,4.354,4.457,4.354a10.167,10.167,0,0,0,2.582-.228m6.638-7.96v9.136a1.252,1.252,0,0,1-.745,1.124.146.146,0,0,0-.039.016,25.111,25.111,0,0,1-8.806,1.375c-7.088,0-10.829-2.573-10.829-7.426,0-6.023,4.95-8.812,13.772-8.369-.209-2.327-1.58-3.763-4.85-3.763a12.982,12.982,0,0,0-4.64.865.067.067,0,0,0-.018,0,1.107,1.107,0,0,1-.474.1,1.244,1.244,0,0,1-1.18-.869L517,90.95a1.329,1.329,0,0,1-.076-.433,1.261,1.261,0,0,1,.771-1.161h.013a16.441,16.441,0,0,1,7.5-1.478c6.111.241,10.262,3.475,10.262,10.169Z" transform="translate(-454.952 -77.611)" fill="#0064a3"/>
    <path id="Caminho_4361" data-name="Caminho 4361" d="M718.4,90.339a2.181,2.181,0,0,1,1.551-2.022c2.256-.779,5.222-1.164,9.658-1.043h.036a1.231,1.231,0,0,1,1.227,1.222v1.661a1.226,1.226,0,0,1-1.227,1.232c-.045,0-.1,0-.142,0a10.613,10.613,0,0,0-4.493.6v18.055a1.221,1.221,0,0,1-1.224,1.195h-4.154a1.228,1.228,0,0,1-1.232-1.231.374.374,0,0,1,0-.075l0-19.572Z" transform="translate(-634.571 -77.07)" fill="#0064a3"/>
    <path id="Caminho_4362" data-name="Caminho 4362" d="M960.655,146.207a1.217,1.217,0,0,1,1.87-1s7.1,4.111,7.11,4.12l.01,0a1.24,1.24,0,0,1-.069,2.143s-7.094,4.105-7.114,4.118l-.011.007a1.22,1.22,0,0,1-1.8-1.136Z" transform="translate(-848.554 -128.091)" fill="#fc0"/>
    <path id="Caminho_4363" data-name="Caminho 4363" d="M867.259,94.259a1.228,1.228,0,0,1,1.888-1l7.1,4.116.005.007a1.23,1.23,0,0,1-.074,2.139s-7.094,4.115-7.1,4.122l-.007,0a1.219,1.219,0,0,1-1.2-.014,1.232,1.232,0,0,1-.613-1.117l0-3.367Z" transform="translate(-766.057 -82.203)" fill="#009fe3"/>
    <path id="Caminho_4364" data-name="Caminho 4364" d="M867.259,198.177a1.208,1.208,0,0,1,.615-1.03,1.224,1.224,0,0,1,1.272.024s7.09,4.111,7.1,4.12h.005a1.234,1.234,0,0,1-.074,2.144s-7.094,4.109-7.1,4.12l-.007,0a1.231,1.231,0,0,1-1.808-1.136l0-3.368Z" transform="translate(-766.057 -173.995)" fill="#009641"/>
    <path id="Caminho_4365" data-name="Caminho 4365" d="M644.75,328.956v-1.531h-5.683v1.531h1.7v8.126h2.3v-8.126Z" transform="translate(-564.493 -289.217)" fill="gray"/>
    <path id="Caminho_4366" data-name="Caminho 4366" d="M691.466,347.377l-2.653.392c-.068-1.554.493-2.327,1.4-2.327.811,0,1.258.59,1.258,1.935m2.051.813c.1-2.551-1.015-4.036-3.219-4.036-2.188,0-3.433,1.527-3.433,3.9,0,2.418,1.34,3.944,3.673,3.944a6.042,6.042,0,0,0,2.729-.547l-.5-1.362a4.379,4.379,0,0,1-1.978.4,1.663,1.663,0,0,1-1.838-1.651Z" transform="translate(-606.714 -303.994)" fill="gray"/>
    <path id="Caminho_4367" data-name="Caminho 4367" d="M966.372,351.863v-5.308c0-1.337-.934-2.4-2.74-2.4a3.732,3.732,0,0,0-2.513.755,3.327,3.327,0,0,0-2.421-.755,7.063,7.063,0,0,0-3.075.563v7.142h2.2v-6.191a2.372,2.372,0,0,1,.893-.137c.759,0,1.191.392,1.191.994v5.333h2.2V345.9a1.286,1.286,0,0,1,.961-.363.97.97,0,0,1,1.1,1.02v5.308Z" transform="translate(-844.11 -303.998)" fill="gray"/>
    <path id="Caminho_4368" data-name="Caminho 4368" d="M785.4,347.377l-2.653.392c-.068-1.554.494-2.327,1.391-2.327.818,0,1.262.59,1.262,1.935m2.059.813c.091-2.551-1.022-4.036-3.23-4.036-2.184,0-3.432,1.527-3.432,3.9,0,2.418,1.342,3.944,3.676,3.944a6,6,0,0,0,2.722-.547l-.493-1.362a4.321,4.321,0,0,1-1.971.4,1.66,1.66,0,0,1-1.839-1.651Z" transform="translate(-689.687 -303.994)" fill="gray"/>
    <path id="Caminho_4369" data-name="Caminho 4369" d="M849.165,351.454l-.469-1.316a1.3,1.3,0,0,1-.916.307c-.88,0-1.4-.883-1.4-2.411,0-1.548.45-2.417,1.413-2.417a1.363,1.363,0,0,1,.9.295l.455-1.208a2.871,2.871,0,0,0-1.866-.544c-1.7,0-3.124,1.343-3.124,3.9S845.492,352,847.3,352a2.625,2.625,0,0,0,1.863-.548" transform="translate(-745.654 -303.999)" fill="gray"/>
    <path id="Caminho_4370" data-name="Caminho 4370" d="M893.837,348.045c0,1.363-.2,2.469-1.173,2.469s-1.175-1.106-1.175-2.469.2-2.524,1.175-2.524,1.173,1.173,1.173,2.524m2.193.03c0-2.261-1.167-3.916-3.383-3.916-2.192,0-3.347,1.656-3.347,3.916S890.456,352,892.664,352s3.366-1.668,3.366-3.926" transform="translate(-785.526 -303.998)" fill="gray"/>
    <rect id="Ret창ngulo_3192" data-name="Ret창ngulo 3192" width="2.208" height="11.016" transform="translate(87.857 36.849)" fill="gray"/>
  </g>
</svg>
