<svg id="Grupo_10127" data-name="Grupo 10127" xmlns="http://www.w3.org/2000/svg" xmlns:xlink="http://www.w3.org/1999/xlink" width="557.365" height="217.954" viewBox="0 0 557.365 217.954">
  <defs>
    <clipPath id="clip-path">
      <rect id="Ret창ngulo_3191" data-name="Ret창ngulo 3191" width="557.365" height="217.954" fill="none"/>
    </clipPath>
  </defs>
  <g id="Grupo_10123" data-name="Grupo 10123" clip-path="url(#clip-path)">
    <path id="Caminho_4343" data-name="Caminho 4343" d="M588.2,135.972a5.545,5.545,0,0,0,5.432.1l.054-.036c.082-.059,32.422-18.7,32.422-18.7a5.612,5.612,0,0,0,.313-9.731l-.041-.017c-.045-.041-32.4-18.708-32.4-18.708a5.553,5.553,0,0,0-8.536,4.564V130.9a5.462,5.462,0,0,0,2.76,5.068" transform="translate(-74.396 -11.185)" fill="#fff"/>
    <path id="Caminho_4344" data-name="Caminho 4344" d="M41.135,108.693,54.108,63.221A119.523,119.523,0,0,0,57.78,46.37h.4a104.353,104.353,0,0,0,3.253,16.851l12.4,45.472ZM76.681,21.632a5.526,5.526,0,0,0-5.292-3.847H47.4a5.607,5.607,0,0,0-5.363,4.055L.32,150a.267.267,0,0,0-.053.159A5.733,5.733,0,0,0,0,151.8a5.574,5.574,0,0,0,5.594,5.587H23.166a5.546,5.546,0,0,0,5.363-4.042l7.751-25.779H78.269l7.343,25.7a.426.426,0,0,1,.036.152A5.645,5.645,0,0,0,91,157.389h22.063a5.592,5.592,0,0,0,5.54-5.587,5.366,5.366,0,0,0-.318-1.81Z" transform="translate(0 -2.26)" fill="#fff"/>
    <path id="Caminho_4345" data-name="Caminho 4345" d="M183.119,134.762c-6.961,0-13.114-5.525-13.173-12.46V5.587A5.588,5.588,0,0,0,164.357,0,7.86,7.86,0,0,0,160.7,1.054l-17.746,9.277a5.632,5.632,0,0,0-3.189,5.053V117.808A37.224,37.224,0,0,0,176.989,155h6.13a5.58,5.58,0,0,0,5.558-5.588v-9.059a5.586,5.586,0,0,0-5.558-5.591" transform="translate(-17.762 0)" fill="#fff"/>
    <path id="Caminho_4346" data-name="Caminho 4346" d="M258.055,142.892a21.537,21.537,0,0,1-10.774,2.583c-15.5,0-21.814-11.524-21.814-35.749,0-25.628,6.516-38.524,22.427-38.524,4.181,0,7.793.6,10.162,1.792Zm26.959-83.319c-.069-.024-.118-.082-.2-.087-7.91-3.637-20.288-6.158-34.51-6.158-36.736,0-55.016,22.443-55.016,58.173,0,31.991,18.48,51.648,44.113,51.648,8.918,0,15.081-1.385,18.653-3.376v5.945c0,12.324-5.975,20.075-22.232,20.075a59.365,59.365,0,0,1-21.129-3.933c-.036-.01-.054-.01-.113-.023a5.606,5.606,0,0,0-7.52,3.5l-3.014,7.715a5.752,5.752,0,0,0-.359,1.97,5.659,5.659,0,0,0,3.524,5.227l.077.023A75.121,75.121,0,0,0,241.45,207c27.851-1.077,46.819-15.808,46.819-46.185V64.7a5.709,5.709,0,0,0-3.255-5.129" transform="translate(-24.817 -6.777)" fill="#fff"/>
    <path id="Caminho_4347" data-name="Caminho 4347" d="M376.7,146.635s-3.459,1.031-11.77,1.031c-12.9,0-20.324-7.367-20.324-19.767,0-16.941,14.523-23.417,32.094-22.032Zm26.869,10.438a5.683,5.683,0,0,0,3.391-5.1v-52.4c0-30.392-18.921-45.082-46.788-46.171A75.212,75.212,0,0,0,326,60.1h-.065a5.729,5.729,0,0,0-3.514,5.271,5.951,5.951,0,0,0,.349,1.968l3.011,7.7a5.666,5.666,0,0,0,5.376,3.945,5.136,5.136,0,0,0,2.165-.454.206.206,0,0,1,.081-.012,59.4,59.4,0,0,1,21.153-3.925c14.907,0,21.16,6.517,22.1,17.092-40.209-2.016-62.784,10.644-62.784,37.993,0,22.032,17.059,33.712,49.367,33.712,16.677,0,30.756-2.557,40.146-6.241a.809.809,0,0,1,.182-.077" transform="translate(-39.887 -6.777)" fill="#fff"/>
    <path id="Caminho_4348" data-name="Caminho 4348" d="M488.42,71.727c.2.013.443.013.649.013a5.572,5.572,0,0,0,5.587-5.589V58.6a5.594,5.594,0,0,0-5.587-5.547h-.163c-20.224-.554-33.751,1.2-44.028,4.74a9.9,9.9,0,0,0-7.074,9.177v.086l.024,88.872a1.538,1.538,0,0,0-.024.34,5.586,5.586,0,0,0,5.617,5.587h18.936a5.545,5.545,0,0,0,5.575-5.423V74.456c3.968-1.826,13-3.375,20.488-2.729" transform="translate(-55.636 -6.729)" fill="#fff"/>
    <path id="Caminho_4349" data-name="Caminho 4349" d="M569.532,76.071l-.024-.028c-.058-.036-32.385-18.685-32.385-18.685a5.588,5.588,0,0,0-8.6,4.558V84.094l.01,15.289a5.583,5.583,0,0,0,8.24,5.14l.036-.024c.046-.025,32.386-18.715,32.386-18.715a5.573,5.573,0,0,0,.336-9.713" transform="translate(-67.164 -7.177)" fill="#fff"/>
    <path id="Caminho_4350" data-name="Caminho 4350" d="M569.532,139.13h-.024c-.058-.046-32.385-18.708-32.385-18.708a5.579,5.579,0,0,0-5.794-.111,5.5,5.5,0,0,0-2.806,4.674v22.163l.01,15.294a5.611,5.611,0,0,0,8.24,5.157l.036-.025c.046-.051,32.386-18.706,32.386-18.706a5.595,5.595,0,0,0,.336-9.738" transform="translate(-67.164 -15.193)" fill="#fff"/>
    <path id="Caminho_4351" data-name="Caminho 4351" d="M427.469,225.3c-.313-7.049,2.244-10.562,6.358-10.562,3.7,0,5.734,2.676,5.734,8.783Zm6.771-16.415c-9.978,0-15.653,6.938-15.653,17.7,0,10.987,6.1,17.912,16.738,17.912a27.752,27.752,0,0,0,12.45-2.483l-2.265-6.189a19.987,19.987,0,0,1-9.017,1.834c-5.081,0-7.662-2.457-8.375-7.492l20.793-2.957c.455-11.582-4.632-18.325-14.67-18.325" transform="translate(-53.194 -26.545)" fill="#fff"/>
    <path id="Caminho_4352" data-name="Caminho 4352" d="M415.367,198.726h-25.91v6.961H397.2v36.89h10.485v-36.89h7.679Z" transform="translate(-49.492 -25.254)" fill="#fff"/>
    <rect id="Ret창ngulo_3190" data-name="Ret창ngulo 3190" width="10.067" height="50.022" transform="translate(400.521 167.311)" fill="#fff"/>
    <path id="Caminho_4353" data-name="Caminho 4353" d="M484.72,225.3c-.308-7.049,2.256-10.562,6.348-10.562,3.724,0,5.745,2.676,5.745,8.783Zm6.753-16.415c-9.949,0-15.644,6.938-15.644,17.7,0,10.987,6.12,17.912,16.764,17.912A27.526,27.526,0,0,0,505,242.017l-2.252-6.189a19.747,19.747,0,0,1-8.987,1.834c-5.1,0-7.675-2.457-8.382-7.492l20.823-2.957c.418-11.582-4.658-18.325-14.73-18.325" transform="translate(-60.468 -26.545)" fill="#fff"/>
    <path id="Caminho_4354" data-name="Caminho 4354" d="M530.942,237.431c-4.009,0-6.373-4.006-6.373-10.949,0-7.025,2.057-10.975,6.443-10.975a6.246,6.246,0,0,1,4.108,1.339l2.068-5.484c-1.544-1.277-4.242-2.475-8.5-2.475-7.745,0-14.252,6.1-14.252,17.7,0,11.547,6.078,17.913,14.334,17.913,4.374,0,6.99-1.08,8.488-2.489l-2.14-5.98a5.927,5.927,0,0,1-4.178,1.4" transform="translate(-65.374 -26.545)" fill="#fff"/>
    <path id="Caminho_4355" data-name="Caminho 4355" d="M557.287,237.744c-4.391,0-5.357-5.022-5.357-11.2,0-6.143.912-11.465,5.357-11.465,4.428,0,5.346,5.322,5.346,11.465,0,6.181-.918,11.2-5.346,11.2m-.077-28.857c-10,0-15.266,7.515-15.266,17.782s5.271,17.83,15.342,17.83c10.026,0,15.344-7.573,15.344-17.83s-5.317-17.782-15.42-17.782" transform="translate(-68.87 -26.545)" fill="#fff"/>
    <path id="Caminho_4356" data-name="Caminho 4356" d="M618.883,208.887c-5.743,0-9.277,1.575-11.465,3.431-2-1.906-5.286-3.431-11.039-3.431-6.035,0-10.149.821-14.016,2.552v32.439h10.031V215.766a10.812,10.812,0,0,1,4.068-.625c3.455,0,5.43,1.787,5.43,4.521v24.217h10.032V216.792a5.862,5.862,0,0,1,4.378-1.652c3.465,0,5,2.028,5,4.634v24.1h10.072v-24.1c0-6.071-4.26-10.888-12.488-10.888" transform="translate(-74.006 -26.545)" fill="#fff"/>
  </g>
</svg>
