<svg id="Layer_1" data-name="Layer 1" xmlns="http://www.w3.org/2000/svg" xmlns:xlink="http://www.w3.org/1999/xlink" viewBox="0 0 255.31 82.16"><defs><style>.cls-1{fill:none;clip-rule:evenodd;}.cls-2{fill:#fff;}.cls-3{clip-path:url(#clip-path);}.cls-4{fill:url(#linear-gradient);}</style><clipPath id="clip-path"><path class="cls-1" d="M82.14,65.44,67.47,59.16,66.5,56a11.32,11.32,0,0,1,15.64,9.44m-13-1,12.56,5.37a11.25,11.25,0,0,1-3.22,5,11.36,11.36,0,0,1-5.32,2.68ZM61,61l3,1.3,4.69,15.25A11.32,11.32,0,0,1,61,61ZM4.46,65.44l14.67-6.28,1-3.16A11.32,11.32,0,0,0,4.46,65.44Zm13-1L4.94,69.83a11.34,11.34,0,0,0,8.55,7.69ZM25.64,61l-3,1.3L17.91,77.53A11.3,11.3,0,0,0,25.64,61Zm11.62-48.9L43.3,0l6,12.08-6,12.09Zm0,52.38,6-12.09,6,12.09-6,12.08ZM69.49,44.31l-12.09-6,12.09-6,12.08,6Zm-52.37,0L5,38.27l12.09-6,12.08,6ZM81.27,78A15.55,15.55,0,0,0,62.15,53.56l-1-1.15,3.21-2.89-2.83-3.14-3.21,2.88L57.16,48l1.57-1.41L55.9,43.45l-1.57,1.42-8.18-9.1,13.76-15.3L62,22.38l-2.2,2.4,1.85,1.69,2.2-2.4,2.18,2-2.21,2.4,1.85,1.69,5.25-5.73-7.22-2.54,1.79-1.95L71.42,22l-2.61-5.74,1.78-1.94,3.17,7,5.66-6.18-1.85-1.69-2.2,2.4-2.17-2,2.2-2.41L73.55,9.75l-2.2,2.41-2.18-2,3-3.31L69,4,43.3,32.6,17.6,4,14.45,6.85l3,3.31-2.19,2L13,9.75l-1.85,1.69,2.21,2.41-2.18,2L9,13.44,7.17,15.13l5.67,6.18,3.16-7,1.78,1.94L15.17,22l6-2.1,1.78,1.95-7.21,2.54,5.25,5.73,1.84-1.69-2.2-2.4,2.17-2L25,26.47l1.84-1.69-2.2-2.4,2.09-1.92L40.46,35.77l-8.18,9.1L30.7,43.45,27.87,46.6,29.45,48l-1.13,1.25-3.21-2.88-2.83,3.14,3.21,2.89-1,1.15a15.57,15.57,0,1,0,3.14,2.83l1-1.15,3.21,2.89L34.68,55l-3.21-2.89,1.12-1.25,1.57,1.42L37,49.11,35.42,47.7l7.88-8.77,7.88,8.77-1.57,1.41,2.83,3.15L54,50.84l1.13,1.25L51.92,55l2.83,3.15L58,55.24l1,1.15A15.55,15.55,0,0,0,81.27,78Z"/></clipPath><linearGradient id="linear-gradient" x1="11.5" y1="107.54" x2="107.9" y2="-93.87" gradientUnits="userSpaceOnUse"><stop offset="0" stop-color="#946f2a"/><stop offset="0.66" stop-color="#faed7b"/><stop offset="0.76" stop-color="#faed7b"/><stop offset="0.78" stop-color="#946f2a"/><stop offset="1" stop-color="#946f2a"/></linearGradient></defs><path class="cls-2" d="M240.11,53.66a21.73,21.73,0,0,1-8.76-1.56,2,2,0,0,1-1.14-2q0-3.24.3-7.86c.08-1.05.32-1.57.72-1.57s.6.34.6,1a11,11,0,0,0,.54,3.06q1.8,6.06,8.59,6.06A8.32,8.32,0,0,0,247,48.56a6.33,6.33,0,0,0,2-4.62q0-5-5.88-9.61l-2.77-2.16q-8.88-7-8.88-14.23a10.12,10.12,0,0,1,3.84-8.17,15.22,15.22,0,0,1,10-3.18,33,33,0,0,1,8,1q.84.24.84.72,0-.12-.12,2.13t-.12,5.07c0,1.21-.22,1.81-.67,1.81s-.6-.36-.6-1.08a6.4,6.4,0,0,0-1.56-4,7.89,7.89,0,0,0-6.54-2.94,7.61,7.61,0,0,0-5.23,1.71,5.7,5.7,0,0,0-1.92,4.47,6.76,6.76,0,0,0,1.35,4,24.55,24.55,0,0,0,5,4.65l1.68,1.26A31.84,31.84,0,0,1,253.08,33a14,14,0,0,1,2.23,7.77,11.72,11.72,0,0,1-5.65,10.45,17.17,17.17,0,0,1-9.55,2.46M181,33.61V24.84q0-10.74-.12-12.73-.18-2.88-2.58-3.42a11.82,11.82,0,0,0-2.35-.18q-1,0-1-.54t1.32-.54c1.17,0,2.8,0,4.9.09s3.39.09,3.87.09,1.59,0,3.45-.09,3.18-.09,3.94-.09,1.32.18,1.32.54-.32.54-1,.54a10.26,10.26,0,0,0-1.74.18c-1.36.24-2.11,1.38-2.23,3.43q-.12,2-.12,12.74v8.43q0,10.93,4.69,14.79a11.44,11.44,0,0,0,7.5,2.46,11.22,11.22,0,0,0,8.29-3.24,11.92,11.92,0,0,0,3-6.38,54.87,54.87,0,0,0,.48-8.54V24.86q0-10.75-.12-12.74-.18-2.89-2.58-3.43a10.62,10.62,0,0,0-2.16-.18q-1,0-1-.54T208,7.43q2.64,0,6.9.18l2.83-.09q2.64-.09,4-.09T223,8q0,.54-1.08.54a10.26,10.26,0,0,0-1.74.18q-2,.36-2.22,3.42-.12,2-.12,12.73v6.43a41.49,41.49,0,0,1-1,9.9,15.38,15.38,0,0,1-4.75,8.17,18.52,18.52,0,0,1-12.49,4.32q-8.76,0-13.33-4.14Q181,44.72,181,33.61Zm-26.3-8.77V35.41c0,4.52.06,7.51.18,9q.24,3.24,1.08,4,1.5,1.32,7.26,1.32,5.48,0,7-1.68a6.18,6.18,0,0,0,1.56-3.6q.12-.9.66-.9t.48,1a26.11,26.11,0,0,1-.9,6.9,1.91,1.91,0,0,1-1.44,1.5,12.57,12.57,0,0,1-2.34.12c-3.2,0-6.59-.06-10.15-.18s-6-.18-7.33-.18l-3.39.09q-2.85.09-4.17.09t-1.2-.6q0-.42,1.32-.54.9-.12,1.8-.18,1.38-.3,1.74-3.3.3-2.34.3-12.79V24.84q0-10.74-.12-12.73a3.57,3.57,0,0,0-1.32-3,6.44,6.44,0,0,0-3.24-.6q-1,0-1-.54t1.32-.54q1.56,0,4.56.09c2,.06,3.22.09,3.67.09l3.75-.09q3.15-.09,4.41-.09t1.26.54q0,.54-1.08.54a13.58,13.58,0,0,0-2.34.18q-2,.36-2.22,3.42Q154.67,14.09,154.67,24.84ZM107.83,35.41V24.84q0-10.74-.12-12.73-.18-2.88-2.58-3.42a11.77,11.77,0,0,0-2.34-.18q-1,0-1-.54t1.32-.54q1.8,0,4.89.09t3.75.09c.8,0,2.22,0,4.24-.09s3.51-.09,4.47-.09q7.57,0,11.17,3.42a9.38,9.38,0,0,1,3,7.15,14,14,0,0,1-4.17,10.44,14.51,14.51,0,0,1-10.6,4.09,8.14,8.14,0,0,1-1.26-.06q-.72-.12-.72-.54,0-.66,1.68-.66a7.17,7.17,0,0,0,5.28-2.65,10.3,10.3,0,0,0,2.77-7.26q0-5.82-3.55-9A8.65,8.65,0,0,0,118,10a7.75,7.75,0,0,0-2.25.21q-.57.21-.57,1.17v24q0,10.22.3,12.85.36,2.94,2.34,3.24a22.73,22.73,0,0,0,3.06.24q1,0,1,.48t-1.14.6q-2.28,0-5.55-.09l-3.76-.09-3.39.09q-2.85.09-4.17.09t-1.2-.6q0-.42,1.32-.54.9-.12,1.8-.18,1.38-.3,1.74-3.3Q107.83,45.86,107.83,35.41Z"/><path class="cls-2" d="M249.54,66.27v3.35c0,1.43,0,2.37.05,2.82a2.09,2.09,0,0,0,.34,1.26,4,4,0,0,0,2.3.41,3.15,3.15,0,0,0,2.22-.53,1.93,1.93,0,0,0,.5-1.14c0-.19.09-.28.21-.28s.15.11.15.32a8.33,8.33,0,0,1-.29,2.19.6.6,0,0,1-.45.47,3.55,3.55,0,0,1-.74,0q-1.53,0-3.21-.06c-1.13,0-1.9-.06-2.32-.06l-1.07,0-1.32,0c-.25,0-.38-.06-.38-.19s.14-.14.42-.17.38,0,.57-.06.47-.41.55-1,.09-1.84.09-4V66.27c0-2.26,0-3.6,0-4a1.11,1.11,0,0,0-.41-1,2,2,0,0,0-1-.19c-.21,0-.32-.06-.32-.17s.14-.17.42-.17l1.44,0,1.16,0,1.18,0,1.4,0c.26,0,.4.06.4.17s-.12.17-.34.17a4,4,0,0,0-.74.06c-.43.07-.67.43-.71,1.08q0,.63,0,4m-25.69,3h3.5q.14,0,.09-.12l-1.71-4.69c0-.11,0-.17-.09-.17s-.09.06-.12.17l-1.74,4.67C223.75,69.17,223.78,69.22,223.85,69.22Zm3.86,1h-4.24c-.07,0-.13,0-.17.15l-1,2.71a3.69,3.69,0,0,0-.29,1.16c0,.39.26.59.76.59H223c.19,0,.28,0,.28.15s-.11.19-.32.19l-1,0-1,0-.83,0-1.41,0c-.24,0-.36-.06-.36-.19s.07-.15.22-.15a3.73,3.73,0,0,0,.59,0,1.48,1.48,0,0,0,1-.53,4.55,4.55,0,0,0,.63-1.18l4.76-11.92c.2-.51.38-.76.53-.76s.3.2.48.61c1.16,2.93,2.73,6.83,4.71,11.67.53,1.26,1.08,2,1.67,2.07a3.63,3.63,0,0,0,.79.08c.17,0,.25,0,.25.15s-.06.13-.19.15a3.54,3.54,0,0,1-.68,0c-1.57,0-2.77,0-3.59,0q-.57,0-.57-.15c0-.1.09-.16.27-.17s.25-.21.17-.44l-1.52-4A.19.19,0,0,0,227.71,70.17Zm-27.13-.55V61.83l-2.83.08c-1,0-1.61.21-1.84.55a2.2,2.2,0,0,0-.32.66c0,.15-.11.23-.21.23s-.17-.1-.17-.3a12.05,12.05,0,0,1,.4-2.19c.06-.24.14-.36.23-.36a1.44,1.44,0,0,1,.3.11,1.52,1.52,0,0,0,.51.12c.69.06,1.32.1,1.9.1h7.52a7,7,0,0,0,.93-.09,6.7,6.7,0,0,1,.89-.09c.1,0,.15.14.15.4s0,.48,0,1.06,0,1-.05,1.15-.07.28-.15.28-.19-.13-.21-.38l0-.21c-.07-.67-.81-1-2.24-1.06L203,61.83v7.79c0,2.15,0,3.5.09,4.06s.32,1,.74,1a7.41,7.41,0,0,0,1,.08q.3,0,.3.15c0,.13-.12.19-.36.19l-1.76,0-1.22,0-1.07,0-1.32,0c-.25,0-.38-.06-.38-.19s.14-.14.42-.17.38,0,.57-.06.47-.41.55-1S200.58,71.75,200.58,69.62Zm-22.3,0V66.27c0-2.26,0-3.6,0-4,0-.61-.25-1-.64-1.06a3,3,0,0,0-.66-.08c-.22,0-.33-.06-.33-.19s.15-.15.46-.15l1.3,0,1.16,0,1.07,0,1.25,0c.27,0,.4,0,.4.15s-.09.19-.27.19a3.38,3.38,0,0,0-.6.06q-.63.11-.69,1.08c0,.42,0,1.76,0,4v3.35c0,2.26,0,3.65.08,4.15s.3.87.75.93a7.41,7.41,0,0,0,1,.08q.3,0,.3.15c0,.13-.12.19-.36.19l-1.75,0-1.21,0-1.07,0-1.32,0c-.26,0-.38-.06-.38-.19s.14-.14.42-.17l.56-.06c.31-.06.49-.37.56-.94S178.28,71.82,178.28,69.62Zm-23.61,0V66.27c0-2.26,0-3.6,0-4a1,1,0,0,0-.82-1.08,3.47,3.47,0,0,0-.74-.06c-.21,0-.32-.06-.32-.17s.14-.17.42-.17l1.55,0,1.18,0,1.34,0,1.41,0a5,5,0,0,1,3.54,1.08,3,3,0,0,1,.95,2.26,4.41,4.41,0,0,1-1.32,3.3,4.61,4.61,0,0,1-3.36,1.29,1.75,1.75,0,0,1-.39,0c-.16,0-.23-.08-.23-.17s.18-.2.53-.2a2.28,2.28,0,0,0,1.67-.84,3.28,3.28,0,0,0,.87-2.3,3.65,3.65,0,0,0-1.12-2.85,2.73,2.73,0,0,0-1.89-.74,2.62,2.62,0,0,0-.72.07c-.12.05-.18.17-.18.37v7.6c0,2.15,0,3.5.1,4.06s.32,1,.74,1a7.41,7.41,0,0,0,1,.08q.3,0,.3.15c0,.13-.12.19-.36.19l-1.76,0-1.18,0-1.08,0-1.32,0c-.25,0-.38-.06-.38-.19s.14-.14.42-.17.38,0,.57-.06.48-.41.55-1S154.67,71.82,154.67,69.62Zm-23.31-.4h3.49c.09,0,.12,0,.1-.12l-1.71-4.69c0-.11-.06-.17-.1-.17s-.08.06-.11.17l-1.75,4.67C131.26,69.17,131.28,69.22,131.36,69.22Zm3.85,1H131c-.08,0-.13,0-.17.15l-1,2.71a3.61,3.61,0,0,0-.28,1.16c0,.39.25.59.76.59h.28c.19,0,.29,0,.29.15s-.11.19-.32.19l-1,0-1,0-.82,0-1.42,0c-.24,0-.36-.06-.36-.19s.08-.15.23-.15a3.81,3.81,0,0,0,.59,0,1.48,1.48,0,0,0,1-.53,4,4,0,0,0,.63-1.18l4.77-11.92c.2-.51.38-.76.53-.76s.3.2.47.61c1.17,2.93,2.74,6.83,4.71,11.67.53,1.26,1.09,2,1.67,2.07a3.8,3.8,0,0,0,.8.08c.16,0,.25,0,.25.15s-.07.13-.19.15a3.67,3.67,0,0,1-.69,0c-1.57,0-2.76,0-3.59,0-.38,0-.56-.06-.56-.15s.08-.16.26-.17.26-.21.17-.44l-1.52-4A.18.18,0,0,0,135.21,70.17Zm-24.58,5.22a9.58,9.58,0,0,1-6.5-2.06,7.06,7.06,0,0,1-2.36-5.61,6.74,6.74,0,0,1,2.21-5.2,8.65,8.65,0,0,1,6-2,22.34,22.34,0,0,1,2.76.19c.44.09,1.08.2,1.91.32.19,0,.28.09.28.23a1.79,1.79,0,0,1,0,.33c0,.22,0,.46-.07.72,0,.55,0,1.24-.07,2.05,0,.29-.1.43-.23.43s-.19-.14-.19-.41a2.54,2.54,0,0,0-.74-1.75,3.65,3.65,0,0,0-1.5-.84,8,8,0,0,0-2.35-.34,5.08,5.08,0,0,0-3.57,1.18,6.36,6.36,0,0,0-1.75,4.92,6.7,6.7,0,0,0,2,5.07,5.62,5.62,0,0,0,4,1.69,8.9,8.9,0,0,0,1.88-.16,2.84,2.84,0,0,0,1.6-.91,2.63,2.63,0,0,0,.64-1.25c0-.25.14-.38.25-.38s.17.09.17.28a10.47,10.47,0,0,1-.13,1.11,12.37,12.37,0,0,1-.28,1.4.82.82,0,0,1-.5.57A9.82,9.82,0,0,1,110.63,75.39Z"/><g class="cls-3"><rect class="cls-4" width="86.61" height="82.16"/></g></svg>