<svg xmlns="http://www.w3.org/2000/svg" width="211.599" height="40.289" viewBox="0 0 211.599 40.289">
  <g id="Group_6428" data-name="Group 6428" transform="translate(-373.745 -392.856)">
    <path id="Path_2859" data-name="Path 2859" d="M394.062,393.5a.454.454,0,0,1,.422-.647c.275.006.566.016.755.028a20.152,20.152,0,0,1,14.818,32.146.665.665,0,0,1-1.133-.12Zm-5.217.712a.841.841,0,0,0-1.014-.441,20.146,20.146,0,0,0-9.307,32.241.621.621,0,0,0,1.032-.139l10-21a.364.364,0,0,1,.658,0l2.185,4.629a1.3,1.3,0,0,1,0,1.117l-8.836,18.507a1.083,1.083,0,0,0,.437,1.409,20.133,20.133,0,0,0,20.863-.65.9.9,0,0,0,.326-1.142Z" fill="#0065b1"/>
    <path id="Path_2860" data-name="Path 2860" d="M819.488,457.963c0,3.666-2.327,5.685-6.553,5.685s-6.553-2.019-6.553-5.685v-12.8a1.089,1.089,0,0,0-1.09-1.089h-1.535a1.089,1.089,0,0,0-1.089,1.089v12.8c0,5.9,3.838,9.428,10.266,9.428s10.265-3.525,10.265-9.428v-12.8a1.088,1.088,0,0,0-1.088-1.089h-1.535a1.089,1.089,0,0,0-1.089,1.089Z" transform="translate(-355.165 -42.412)" fill="#0d0c0d"/>
    <path id="Path_2861" data-name="Path 2861" d="M1238.779,457.919a8.563,8.563,0,0,1-6.176,2.559,8.368,8.368,0,0,1-8.588-8.109,8.177,8.177,0,0,1,8.557-8.349,8.874,8.874,0,0,1,5.647,1.971c.092.076.176.148.251.214a.885.885,0,0,0,1.254-.1l1.226-1.436a.928.928,0,0,0-.089-1.3c-.142-.126-.305-.267-.489-.416a12.256,12.256,0,0,0-7.77-2.713c-7.092,0-12.8,5.782-12.232,12.674a12.26,12.26,0,0,0,12.773,11.287,12.491,12.491,0,0,0,7.93-3.288c.08-.074.191-.185.31-.306a1.073,1.073,0,0,0,.095-1.384l-1.1-1.505a.872.872,0,0,0-1.344-.075c-.1.108-.188.2-.25.268" transform="translate(-701.006 -39.242)" fill="#0d0c0d"/>
    <path id="Path_2862" data-name="Path 2862" d="M1504.8,450.157c-.907-.177-3.384-.3-4.864-.373-.489-.024-.876-.043-.979-.053-2.111-.218-3.137-.96-3.137-2.269,0-1.833,2.041-3.441,4.368-3.441a9.008,9.008,0,0,1,6.112,2.049c.093.07.259.2.422.329a.583.583,0,0,0,.806-.08l1.607-1.892a.582.582,0,0,0-.048-.8c-.156-.144-.318-.293-.412-.374a12.38,12.38,0,0,0-8.488-3c-5.232,0-8.47,3.76-8.47,7.244,0,3.442,2.3,5.494,6.648,5.931.763.077,1.75.1,2.7.122a23.241,23.241,0,0,1,2.591.139c2.006.338,2.9,1.262,2.9,2.995,0,2.413-2.7,3.276-3.865,3.536a11.542,11.542,0,0,1-5.475-.307,8.758,8.758,0,0,1-3.193-2.265c-.07-.075-.2-.22-.319-.363a.519.519,0,0,0-.747-.04l-1.858,1.738a.631.631,0,0,0-.057.858c.125.154.254.309.333.4a11.57,11.57,0,0,0,5.168,3.349,13.9,13.9,0,0,0,4.035.531,15.612,15.612,0,0,0,3.034-.261c4.245-.974,6.779-3.655,6.779-7.171,0-3.806-1.673-5.757-5.594-6.522" transform="translate(-925.052 -39.242)" fill="#0d0c0d"/>
    <path id="Path_2863" data-name="Path 2863" d="M957.459,444.076H946.9a.773.773,0,0,0-.708,1.081l.818,1.875a1.361,1.361,0,0,0,1.247.816h9.232c4.79,0,6.972,4.033,6.972,7.78,0,4.282-2.971,7.511-6.913,7.511h-2.157a.76.76,0,0,0-.761.76v2.222a.761.761,0,0,0,.761.76h2.157a8.993,8.993,0,0,0,7.3-3.038,12.614,12.614,0,0,0,3.387-8.455c0-6.344-4.733-11.314-10.774-11.314" transform="translate(-473.953 -42.412)" fill="#0d0c0d"/>
    <path id="Path_2864" data-name="Path 2864" d="M963.12,478.012v15.354a.884.884,0,0,0,.884.884h1.915a.885.885,0,0,0,.885-.884V478.012a.884.884,0,0,0-.884-.884H964a.884.884,0,0,0-.884.884" transform="translate(-488.025 -69.78)" fill="#0d0c0d"/>
    <path id="Path_2865" data-name="Path 2865" d="M1404.682,503.771h9.326a.548.548,0,0,0,.545-.608l-.278-2.533a.709.709,0,0,0-.705-.632h-8.984a.685.685,0,0,0-.685.685v2.307a.781.781,0,0,0,.781.781" transform="translate(-853.009 -88.718)" fill="#0d0c0d"/>
    <path id="Path_2866" data-name="Path 2866" d="M1374.779,462.529V448.552a.7.7,0,0,1,.7-.7h10.2a.6.6,0,0,0,.6-.667l-.263-2.405a.787.787,0,0,0-.781-.7H1371.9a.863.863,0,0,0-.863.863v21.077a.867.867,0,0,0,.867.867h15.752a.7.7,0,0,0,.7-.777l-.254-2.311a.735.735,0,0,0-.731-.655h-11.979a.611.611,0,0,1-.61-.61" transform="translate(-825.795 -42.412)" fill="#0d0c0d"/>
    <path id="Path_2867" data-name="Path 2867" d="M702.55,442.545l10.19,21.6a1.207,1.207,0,0,0,1.092.692h2.385a.653.653,0,0,0,.59-.932l-10.2-21.627a1.154,1.154,0,0,0-1.044-.662H703.14a.653.653,0,0,0-.59.932" transform="translate(-272.211 -40.373)" fill="#0d0c0d"/>
    <path id="Path_2868" data-name="Path 2868" d="M654.727,491.676h2.5a.935.935,0,0,0,.846-.536l5.975-12.646a1.459,1.459,0,0,0,0-1.247l-1.4-2.965a.439.439,0,0,0-.794,0L654.1,490.692a.689.689,0,0,0,.623.984" transform="translate(-232.093 -67.215)" fill="#0d0c0d"/>
    <path id="Path_2869" data-name="Path 2869" d="M1130.259,442.545l10.191,21.6a1.207,1.207,0,0,0,1.091.692h2.385a.653.653,0,0,0,.591-.932l-10.206-21.627a1.154,1.154,0,0,0-1.044-.662h-2.418a.653.653,0,0,0-.59.932" transform="translate(-626.37 -40.373)" fill="#0d0c0d"/>
    <path id="Path_2870" data-name="Path 2870" d="M1082.437,491.676h2.5a.935.935,0,0,0,.846-.536l5.976-12.646a1.46,1.46,0,0,0,0-1.247l-1.4-2.965a.438.438,0,0,0-.793,0l-7.753,16.411a.69.69,0,0,0,.624.984" transform="translate(-586.252 -67.215)" fill="#0d0c0d"/>
  </g>
</svg>
