<svg xmlns="http://www.w3.org/2000/svg" width="416" height="35.49" viewBox="0 0 416 35.49">
  <path id="Caminho_2846" data-name="Caminho 2846" d="M759.182,175.853l-1.646-.56C755.362,174.557,754,173.961,754,172c0-1.716,1.365-2.591,4.062-2.591a14.928,14.928,0,0,1,5.115.875,9.585,9.585,0,0,0,.351-2.067,15.318,15.318,0,0,0-5.536-.911c-3.956,0-6.338,1.647-6.338,4.764,0,2.8,1.716,4.38,4.834,5.324l1.61.49c1.683.527,3.608,1.262,3.608,3.363,0,2-1.647,2.839-4.344,2.839a12.221,12.221,0,0,1-5.709-1.368,6.977,6.977,0,0,0-.351,2.137,12.1,12.1,0,0,0,6.13,1.368c4.2,0,6.656-1.858,6.656-5.046,0-3.048-2.137-4.377-4.9-5.324m-18.531-7.567V185.8H743.1v-15.94a17.451,17.451,0,0,1,3.432-.384,21.154,21.154,0,0,1,2.7.139,8.678,8.678,0,0,0,.245-2.1,24.271,24.271,0,0,0-3.012-.142,20.279,20.279,0,0,0-5.815.911m-6.308,7.113H723.695c.281-3.644,2-5.957,5.5-5.957,3.469,0,5.149,2.349,5.149,5.815Zm-5.043-8.094c-5.745,0-8.094,4.135-8.094,9.353,0,6.026,3.084,9.565,8.932,9.565a10.656,10.656,0,0,0,5.572-1.332c.173-.772.315-1.716.385-2.346a11.9,11.9,0,0,1-5.884,1.5c-4,0-6.2-2.24-6.517-6.444h12.961a14.689,14.689,0,0,0,.139-2.173c0-4.519-2.24-8.127-7.495-8.127m-30.584,18.5h2.452V167.726h-2.452Zm13.418-2.382-5.675-15.694H703.8l6.762,18.077h3.048l6.69-18.077h-2.627Zm-12.192-21.788a1.6,1.6,0,0,0-1.647,1.644,1.575,1.575,0,0,0,1.647,1.613,1.546,1.546,0,0,0,1.613-1.613,1.573,1.573,0,0,0-1.613-1.644m157.469,14.221-1.647-.56c-2.173-.736-3.538-1.332-3.538-3.293,0-1.716,1.365-2.591,4.062-2.591a14.939,14.939,0,0,1,5.115.875,9.586,9.586,0,0,0,.351-2.067,15.328,15.328,0,0,0-5.536-.911c-3.959,0-6.339,1.647-6.339,4.764,0,2.8,1.716,4.38,4.834,5.324l1.61.49c1.68.527,3.608,1.262,3.608,3.363,0,2-1.647,2.839-4.344,2.839a12.214,12.214,0,0,1-5.709-1.368,6.982,6.982,0,0,0-.351,2.137,12.1,12.1,0,0,0,6.13,1.368c4.2,0,6.656-1.858,6.656-5.046,0-3.048-2.137-4.377-4.9-5.324M767.66,185.8h2.452V167.726H767.66ZM844.1,175.4H833.45c.279-3.644,1.995-5.957,5.5-5.957,3.466,0,5.149,2.349,5.149,5.815Zm-5.046-8.094c-5.745,0-8.091,4.135-8.091,9.353,0,6.026,3.082,9.565,8.932,9.565a10.645,10.645,0,0,0,5.569-1.332,23.048,23.048,0,0,0,.385-2.346,11.887,11.887,0,0,1-5.884,1.5c-3.993,0-6.2-2.24-6.514-6.444h12.961a15.08,15.08,0,0,0,.139-2.173c0-4.519-2.243-8.127-7.5-8.127m-152.807,0a26.159,26.159,0,0,0-6.587.981V185.8h2.452V169.969a18.419,18.419,0,0,1,4.065-.49c4.307,0,5.533,1.68,5.533,4.94V185.8h2.452V173.961c0-4.238-1.995-6.656-7.916-6.656M824.83,182.3a6.532,6.532,0,0,1-4.622,1.892c-3.784,0-5.712-2.767-5.712-7.286,0-4.8,2.137-7.425,6.55-7.425a14.506,14.506,0,0,1,3.784.56Zm0-14.5a13.941,13.941,0,0,0-3.678-.49c-6.093,0-9.141,3.363-9.141,9.6,0,5.99,3.118,9.32,7.564,9.32a7.189,7.189,0,0,0,5.324-1.892l.106,1.471h2.276V161.351a8.143,8.143,0,0,0-2.452.351Zm-55.943-6.163a1.6,1.6,0,0,0-1.647,1.644,1.573,1.573,0,0,0,1.647,1.613,1.546,1.546,0,0,0,1.61-1.613,1.572,1.572,0,0,0-1.61-1.644M786.751,182.3a6.538,6.538,0,0,1-4.625,1.892c-3.784,0-5.709-2.767-5.709-7.286,0-4.8,2.137-7.425,6.55-7.425a14.522,14.522,0,0,1,3.783.56Zm0-14.5a13.94,13.94,0,0,0-3.678-.49c-6.1,0-9.144,3.363-9.144,9.6,0,5.99,3.118,9.32,7.567,9.32a7.194,7.194,0,0,0,5.324-1.892l.106,1.471H789.2V161.351a8.144,8.144,0,0,0-2.452.351ZM805.739,182.4a6.176,6.176,0,0,1-4.449,1.786c-3.817,0-5.781-2.767-5.781-7.286,0-4.692,2.137-7.425,6.832-7.425a12.847,12.847,0,0,1,3.4.421Zm-12.716-5.5c0,5.99,3.081,9.32,8.057,9.32a7.089,7.089,0,0,0,4.761-1.786l.072,1.365h2.276V168.286a15.945,15.945,0,0,0-5.851-.981c-6.269,0-9.317,3.435-9.317,9.6m-234.186-5.712a29.376,29.376,0,0,0,.351-3.293h-6.1v-6.62a13.243,13.243,0,0,0-3.853.56V180.23c0,4.274,2.382,5.99,6.13,5.99a8.755,8.755,0,0,0,3.26-.56c.209-1.014.348-2.207.454-3.257a8.746,8.746,0,0,1-3.012.524c-1.858,0-2.978-.875-2.978-3.151v-8.584Zm113.255,6.238c0,3.887-2.312,6.55-6.514,6.55-4.135,0-6.553-2.664-6.553-6.656V161.351a10.576,10.576,0,0,0-2.452.384v15.94c0,4.87,3.118,8.618,9,8.618,5.848,0,8.966-3.747,8.966-8.618V161.351a10.555,10.555,0,0,0-2.452.384ZM587.953,167.3a32.944,32.944,0,0,0-7.007.981V185.8H584.8V170.877a19.289,19.289,0,0,1,3.048-.281c3.853,0,4.764,1.332,4.764,4.1V185.8h3.853V174.031c0-4.241-2.064-6.729-8.512-6.729m-87.413,4.976-1.892-.805c-2.454-1.053-3.82-2.1-3.82-3.926,0-1.856,1.4-3.048,4.45-3.048a17.8,17.8,0,0,1,5.745,1.017,13.452,13.452,0,0,0,.7-3.5A19.185,19.185,0,0,0,499.313,161c-5.676,0-8.445,2.558-8.445,6.55,0,3.714,2.243,5.572,5.536,7.007l1.786.772c3.293,1.435,4.625,2.382,4.625,4.413,0,2.067-1.822,3.118-5.079,3.118a16.355,16.355,0,0,1-6.411-1.365,11.692,11.692,0,0,0-.666,3.538,16.849,16.849,0,0,0,7.183,1.332c5.954,0,9-2.769,9-6.8,0-3.4-1.856-5.394-6.305-7.286m72.348,9.529a6.035,6.035,0,0,1-3.75,1.262c-3.433,0-4.87-2.521-4.87-6.1,0-3.923,1.858-6.378,5.851-6.378a16,16,0,0,1,2.769.212Zm-12.543-4.834c0,5.884,3.084,9.247,7.709,9.247a5.372,5.372,0,0,0,4.937-2.521l.212,2.1h3.539V168.283a19.664,19.664,0,0,0-6.623-.981c-6.481,0-9.774,3.5-9.774,9.671m-87.293-9.214a8.1,8.1,0,0,0-1.078-3.694l-5.84-10.117a8.029,8.029,0,0,1-.922-2.446l-.245.424a8.087,8.087,0,0,0,0,8.091l4.672,8.094a8.088,8.088,0,0,1,0,8.091l-.245.423a8.055,8.055,0,0,0-.922-2.446l-4.277-7.408-2.733-4.728a8.13,8.13,0,0,1-.922-2.446l-.245.424a8.1,8.1,0,0,0-.014,8.066l4.686,8.116a8.093,8.093,0,0,1,0,8.094l-.245.423a8.028,8.028,0,0,0-.922-2.446l-5.84-10.117a8.079,8.079,0,0,1-1.075-4.4c-6.252,1.633-10.568,5.1-10.568,9.116,0,5.589,8.35,10.117,18.651,10.117s18.651-4.528,18.651-10.117c0-4.015-4.313-7.484-10.565-9.116m149.971,7.322c.315-2.978,1.752-4.555,4.486-4.555,2.661,0,4.2,1.683,4.2,4.555Zm4.695-7.779c-6.13,0-8.548,4.135-8.548,9.356,0,5.99,3.118,9.562,9.565,9.562a13.264,13.264,0,0,0,5.676-1.12c.245-1.156.454-2.488.6-3.5a15.041,15.041,0,0,1-6.166,1.329c-3.435,0-5.257-1.5-5.748-4.622h12.3a20.7,20.7,0,0,0,.209-2.978c0-4.416-2.382-8.024-7.882-8.024m11.212.981V185.8h3.856v-15a19.405,19.405,0,0,1,2.836-.212,24.7,24.7,0,0,1,2.909.142,14.434,14.434,0,0,0,.348-3.293,31.13,31.13,0,0,0-3.363-.142,23.486,23.486,0,0,0-6.586.981M612.2,181.737a6.185,6.185,0,0,1-3.853,1.332c-3.435,0-4.87-2.521-4.87-6.1,0-4,1.822-6.378,5.639-6.378a15.51,15.51,0,0,1,3.084.351Zm0-14.154a15.064,15.064,0,0,0-2.875-.281c-6.481,0-9.774,3.5-9.774,9.671,0,5.884,3.084,9.247,7.709,9.247a5.31,5.31,0,0,0,5.01-2.661l.209,2.243h3.538V161.279a11.677,11.677,0,0,0-3.817.524Zm-75.327-.281a32.943,32.943,0,0,0-7.007.981V185.8h3.853V170.877a19.287,19.287,0,0,1,3.048-.281c3.853,0,4.764,1.332,4.764,4.1V185.8h3.853V174.031c0-4.241-2.067-6.729-8.512-6.729m-15.065,14.5a6.035,6.035,0,0,1-3.75,1.262c-3.432,0-4.87-2.521-4.87-6.1,0-3.923,1.858-6.378,5.851-6.378a16,16,0,0,1,2.77.212Zm-12.543-4.834c0,5.884,3.084,9.247,7.707,9.247a5.377,5.377,0,0,0,4.94-2.521l.212,2.1h3.538V168.283a19.675,19.675,0,0,0-6.623-.981c-6.481,0-9.774,3.5-9.774,9.671" transform="translate(-446.315 -151.502)" fill="#fff"/>
</svg>
