<svg xmlns="http://www.w3.org/2000/svg" width="166.475" height="14.202" viewBox="0 0 166.475 14.202">
  <path id="Caminho_2844" data-name="Caminho 2844" d="M576.658,139.645,576,139.42c-.87-.294-1.416-.532-1.416-1.317,0-.687.546-1.037,1.626-1.037a5.966,5.966,0,0,1,2.047.35,3.844,3.844,0,0,0,.14-.827,6.125,6.125,0,0,0-2.215-.365c-1.583,0-2.537.659-2.537,1.906,0,1.122.687,1.753,1.935,2.131l.644.2c.674.211,1.444.506,1.444,1.346,0,.8-.659,1.136-1.738,1.136a4.893,4.893,0,0,1-2.285-.547,2.791,2.791,0,0,0-.14.855,4.845,4.845,0,0,0,2.453.548c1.682,0,2.663-.744,2.663-2.02,0-1.219-.855-1.751-1.962-2.13m-7.416-3.029v7.01h.982v-6.379a6.976,6.976,0,0,1,1.373-.153,8.554,8.554,0,0,1,1.08.055,3.5,3.5,0,0,0,.1-.84,9.6,9.6,0,0,0-1.206-.057,8.139,8.139,0,0,0-2.327.364m-2.524,2.847h-4.261c.112-1.458.8-2.384,2.2-2.384s2.06.94,2.06,2.327Zm-2.018-3.239c-2.3,0-3.239,1.655-3.239,3.743,0,2.412,1.234,3.828,3.575,3.828a4.266,4.266,0,0,0,2.23-.533,9.312,9.312,0,0,0,.153-.939,4.765,4.765,0,0,1-2.354.6,2.427,2.427,0,0,1-2.608-2.579h5.187a5.927,5.927,0,0,0,.055-.87c0-1.808-.9-3.252-3-3.252m-12.239,7.4h.981v-7.234h-.981Zm5.37-.953-2.271-6.281h-1.066l2.706,7.234h1.219l2.677-7.234h-1.051Zm-4.879-8.719a.641.641,0,0,0-.659.658.63.63,0,0,0,.659.645.618.618,0,0,0,.645-.645.629.629,0,0,0-.645-.658m63.015,5.691-.659-.225c-.869-.294-1.416-.532-1.416-1.317,0-.687.547-1.037,1.626-1.037a5.97,5.97,0,0,1,2.047.35,3.788,3.788,0,0,0,.14-.827,6.129,6.129,0,0,0-2.215-.365c-1.584,0-2.537.659-2.537,1.906,0,1.122.687,1.753,1.935,2.131l.644.2c.673.211,1.444.506,1.444,1.346,0,.8-.659,1.136-1.738,1.136a4.89,4.89,0,0,1-2.285-.547,2.79,2.79,0,0,0-.14.855,4.845,4.845,0,0,0,2.453.548c1.682,0,2.664-.744,2.664-2.02,0-1.219-.856-1.751-1.963-2.13m-35.916,3.981h.981v-7.234h-.981Zm30.589-4.163h-4.261c.111-1.458.8-2.384,2.2-2.384s2.061.94,2.061,2.327Zm-2.019-3.239c-2.3,0-3.238,1.655-3.238,3.743,0,2.412,1.233,3.828,3.574,3.828a4.258,4.258,0,0,0,2.229-.533,9.353,9.353,0,0,0,.154-.939,4.766,4.766,0,0,1-2.355.6,2.426,2.426,0,0,1-2.606-2.579h5.186a5.926,5.926,0,0,0,.056-.87c0-1.808-.9-3.252-3-3.252m-61.151,0a10.465,10.465,0,0,0-2.635.392v7.01h.981V137.29a7.374,7.374,0,0,1,1.627-.2c1.723,0,2.214.672,2.214,1.976v4.556h.981v-4.738c0-1.7-.8-2.664-3.168-2.664m55.459,6a2.617,2.617,0,0,1-1.85.757c-1.514,0-2.286-1.108-2.286-2.916,0-1.92.856-2.971,2.622-2.971a5.784,5.784,0,0,1,1.514.224Zm0-5.8a5.586,5.586,0,0,0-1.472-.2c-2.438,0-3.658,1.346-3.658,3.841,0,2.4,1.248,3.73,3.027,3.73a2.876,2.876,0,0,0,2.131-.758l.042.589h.911v-9.785a3.261,3.261,0,0,0-.981.141Zm-22.388-2.466a.64.64,0,0,0-.659.658.629.629,0,0,0,.659.645.618.618,0,0,0,.645-.645.63.63,0,0,0-.645-.658m7.15,8.27a2.622,2.622,0,0,1-1.851.757c-1.514,0-2.285-1.108-2.285-2.916,0-1.92.855-2.971,2.621-2.971a5.791,5.791,0,0,1,1.515.224Zm0-5.8a5.585,5.585,0,0,0-1.472-.2c-2.44,0-3.66,1.346-3.66,3.841,0,2.4,1.248,3.73,3.029,3.73a2.877,2.877,0,0,0,2.13-.758l.043.589h.911v-9.785a3.257,3.257,0,0,0-.981.141Zm7.6,5.846a2.473,2.473,0,0,1-1.781.715c-1.527,0-2.313-1.108-2.313-2.916,0-1.878.855-2.971,2.734-2.971a5.122,5.122,0,0,1,1.36.168Zm-5.089-2.2c0,2.4,1.234,3.73,3.225,3.73a2.837,2.837,0,0,0,1.905-.715l.029.546h.911v-7.01a6.393,6.393,0,0,0-2.341-.392c-2.509,0-3.729,1.375-3.729,3.841m-93.716-2.286a11.617,11.617,0,0,0,.141-1.318h-2.44v-2.649a5.3,5.3,0,0,0-1.542.224v7.36a2.151,2.151,0,0,0,2.453,2.4,3.494,3.494,0,0,0,1.3-.224c.083-.406.139-.883.181-1.3a3.5,3.5,0,0,1-1.2.21c-.744,0-1.192-.351-1.192-1.262v-3.435Zm45.322,2.5A2.419,2.419,0,0,1,539.2,142.9a2.457,2.457,0,0,1-2.623-2.664v-6.392a4.25,4.25,0,0,0-.981.154v6.379a3.6,3.6,0,0,0,7.192,0v-6.533a4.241,4.241,0,0,0-.982.154Zm-33.67-4.053a13.206,13.206,0,0,0-2.8.392v7.011h1.542v-5.973a7.735,7.735,0,0,1,1.219-.112c1.542,0,1.907.533,1.907,1.641v4.444h1.542v-4.711c0-1.7-.826-2.692-3.406-2.692m-34.981,1.991-.757-.322c-.983-.422-1.529-.842-1.529-1.571s.561-1.22,1.781-1.22a7.122,7.122,0,0,1,2.3.407,5.435,5.435,0,0,0,.281-1.4,7.682,7.682,0,0,0-2.566-.407c-2.271,0-3.379,1.023-3.379,2.621,0,1.486.9,2.23,2.215,2.8l.715.309c1.318.574,1.851.953,1.851,1.766s-.729,1.248-2.033,1.248a6.538,6.538,0,0,1-2.565-.547,4.688,4.688,0,0,0-.267,1.416,6.739,6.739,0,0,0,2.875.533c2.382,0,3.6-1.108,3.6-2.72,0-1.359-.743-2.159-2.523-2.916m28.952,3.813a2.413,2.413,0,0,1-1.5.505c-1.373,0-1.949-1.009-1.949-2.439,0-1.57.744-2.552,2.342-2.552a6.48,6.48,0,0,1,1.108.084Zm-5.019-1.934c0,2.355,1.234,3.7,3.085,3.7a2.147,2.147,0,0,0,1.975-1.009l.085.842h1.416v-7.011a7.865,7.865,0,0,0-2.65-.392c-2.594,0-3.911,1.4-3.911,3.87m-34.933-3.687a3.256,3.256,0,0,0-.432-1.479l-2.337-4.048a3.226,3.226,0,0,1-.369-.979l-.1.169a3.235,3.235,0,0,0,0,3.238l1.87,3.239a3.24,3.24,0,0,1,0,3.238l-.1.169a3.23,3.23,0,0,0-.369-.978l-1.712-2.965-1.094-1.892a3.262,3.262,0,0,1-.369-.979l-.1.169a3.241,3.241,0,0,0-.005,3.228l1.875,3.248a3.237,3.237,0,0,1,0,3.239l-.1.169a3.226,3.226,0,0,0-.369-.979l-2.337-4.048a3.242,3.242,0,0,1-.431-1.759c-2.5.653-4.229,2.041-4.229,3.648,0,2.236,3.342,4.048,7.464,4.048s7.464-1.812,7.464-4.048c0-1.607-1.726-2.995-4.228-3.648m60.015,2.93c.126-1.192.7-1.823,1.8-1.823a1.6,1.6,0,0,1,1.682,1.823Zm1.878-3.113c-2.452,0-3.42,1.654-3.42,3.744,0,2.4,1.247,3.826,3.827,3.826a5.314,5.314,0,0,0,2.272-.448c.1-.463.181-.995.238-1.4a6.019,6.019,0,0,1-2.467.532,2.017,2.017,0,0,1-2.3-1.85h4.921a8.244,8.244,0,0,0,.084-1.192,2.928,2.928,0,0,0-3.155-3.211m4.487.392v7.011h1.543v-6a7.872,7.872,0,0,1,1.135-.084,9.739,9.739,0,0,1,1.164.057,5.762,5.762,0,0,0,.14-1.318,12.3,12.3,0,0,0-1.346-.057,9.4,9.4,0,0,0-2.636.392M517.838,142a2.469,2.469,0,0,1-1.542.533c-1.375,0-1.949-1.009-1.949-2.439,0-1.6.729-2.552,2.257-2.552a6.25,6.25,0,0,1,1.234.14Zm0-5.664a6.048,6.048,0,0,0-1.151-.112c-2.593,0-3.911,1.4-3.911,3.87,0,2.355,1.234,3.7,3.085,3.7a2.124,2.124,0,0,0,2.005-1.064l.084.9h1.416v-9.814a4.659,4.659,0,0,0-1.528.21Zm-30.144-.112a13.206,13.206,0,0,0-2.8.392v7.011h1.542v-5.973a7.735,7.735,0,0,1,1.22-.112c1.542,0,1.906.533,1.906,1.641v4.444H491.1v-4.711c0-1.7-.827-2.692-3.406-2.692m-6.029,5.8a2.412,2.412,0,0,1-1.5.505c-1.374,0-1.949-1.009-1.949-2.439,0-1.57.743-2.552,2.341-2.552a6.48,6.48,0,0,1,1.108.084Zm-5.019-1.934c0,2.355,1.234,3.7,3.084,3.7a2.152,2.152,0,0,0,1.977-1.009l.084.842h1.416v-7.011a7.869,7.869,0,0,0-2.65-.392c-2.593,0-3.911,1.4-3.911,3.87" transform="translate(-451.455 -129.9)" fill="#da000c"/>
</svg>
