<svg xmlns="http://www.w3.org/2000/svg" xmlns:xlink="http://www.w3.org/1999/xlink" width="37.658" height="36.332" viewBox="0 0 37.658 36.332">
  <defs>
    <clipPath id="clip-path">
      <path id="Caminho_4379" data-name="Caminho 4379" d="M169.694,12a12.783,12.783,0,0,0-2.366,4.036,13.063,13.063,0,0,0-.884,4.6,12.764,12.764,0,0,0,13.34,12.845,12.779,12.779,0,0,0,10.09-4.221,12.649,12.649,0,0,0,3.267-8.624A12.661,12.661,0,0,0,189.875,12a14.176,14.176,0,0,0-20.181,0" transform="translate(-166.445 -7.785)" fill="none"/>
    </clipPath>
  </defs>
  <g id="Grupo_10137" data-name="Grupo 10137" transform="translate(5802.329 21444.344)">
    <path id="Caminho_4372" data-name="Caminho 4372" d="M194.37,18.174A16.891,16.891,0,0,1,190,29.692q-4.978,5.642-13.474,5.64-8.473,0-13.454-5.64a16.9,16.9,0,0,1-4.363-11.517,17.442,17.442,0,0,1,1.18-6.147,17.1,17.1,0,0,1,3.161-5.392Q168.032,1,176.53,1T190,6.635A16.915,16.915,0,0,1,194.37,18.174Z" transform="translate(-5960.042 -21444.344)" fill="none" stroke="#fff" stroke-miterlimit="10" stroke-width="2"/>
    <g id="Grupo_10131" data-name="Grupo 10131" transform="translate(-5796.661 -21439.248)">
      <g id="Grupo_10130" data-name="Grupo 10130" clip-path="url(#clip-path)">
        <path id="Caminho_4373" data-name="Caminho 4373" d="M186.048,38.43a26.023,26.023,0,0,0-5.305,5.244,19.636,19.636,0,0,0,2.821.859,23.088,23.088,0,0,1,4.211-3.97,23.451,23.451,0,0,1,16.7-4.169,19.793,19.793,0,0,0,1.52-2.568c-9.425-1.27-15.96,1.671-19.946,4.6" transform="translate(-172.11 -17.983)" fill="#fff"/>
        <path id="Caminho_4374" data-name="Caminho 4374" d="M179.6,32.4a31.173,31.173,0,0,0-6.152,5.993,20.043,20.043,0,0,0,2.355,1.445,28.252,28.252,0,0,1,5.423-5.231c6.217-4.572,13.82-6.4,22.65-5.456a19.548,19.548,0,0,0,.8-2.658C192.654,25.117,184.5,28.8,179.6,32.4" transform="translate(-169.22 -15.082)" fill="#fff"/>
        <path id="Caminho_4375" data-name="Caminho 4375" d="M206.8,40.7a19.736,19.736,0,0,0-17.3,7.044c.641.062,1.292.1,1.95.1.323,0,.643-.01.963-.027v0c.17-.01.335-.025.5-.039.119-.008.24-.013.357-.023l0,0a19.993,19.993,0,0,0,10.782-4.375.15.15,0,0,1,.017-.014c.231-.188.461-.384.685-.583.068-.058.13-.12.2-.181.138-.124.277-.249.413-.378l-.007,0A19.831,19.831,0,0,0,206.8,40.7" transform="translate(-175.581 -20.802)" fill="#fff"/>
        <path id="Caminho_4376" data-name="Caminho 4376" d="M170.135,43.386a31.266,31.266,0,0,1,2.182-2.521A22.8,22.8,0,0,0,167.3,40.7a20.554,20.554,0,0,0,2.739,2.675.781.781,0,0,0,.091.007" transform="translate(-166.786 -20.802)" fill="#fff"/>
        <path id="Caminho_4377" data-name="Caminho 4377" d="M174.63,34.472a29.322,29.322,0,0,0-11.734-.644,19.913,19.913,0,0,0,1.518,2.565,26.839,26.839,0,0,1,7.58.258,33.056,33.056,0,0,1,2.635-2.18" transform="translate(-165.039 -17.984)" fill="#fff"/>
        <path id="Caminho_4378" data-name="Caminho 4378" d="M160.279,26.493a19.924,19.924,0,0,0,.807,2.664,34.876,34.876,0,0,1,14.258,1.2,32.347,32.347,0,0,1,3.124-1.761,37.119,37.119,0,0,0-18.189-2.106" transform="translate(-164.002 -15.081)" fill="#fff"/>
      </g>
    </g>
  </g>
</svg>
