<svg xmlns="http://www.w3.org/2000/svg" xmlns:xlink="http://www.w3.org/1999/xlink" width="43.378" height="41.839" viewBox="0 0 43.378 41.839">
  <defs>
    <clipPath id="clip-path">
      <path id="Caminho_4361" data-name="Caminho 4361" d="M156.574,12.456a14.837,14.837,0,0,0-2.745,4.684,15.152,15.152,0,0,0-1.026,5.34A14.665,14.665,0,0,0,156.6,32.487q4.326,4.9,11.686,4.9,7.383,0,11.709-4.9a14.677,14.677,0,0,0,3.791-10.007,14.691,14.691,0,0,0-3.791-10.023q-4.328-4.891-11.709-4.9t-11.709,4.9" transform="translate(-152.803 -7.56)" fill="none"/>
    </clipPath>
  </defs>
  <g id="Grupo_10135" data-name="Grupo 10135" transform="translate(6071.476 21401.955)">
    <path id="Caminho_4353" data-name="Caminho 4353" d="M185.655,21.673A17.251,17.251,0,0,1,181.2,33.431q-5.086,5.762-13.76,5.759-8.65,0-13.736-5.759a17.251,17.251,0,0,1-4.457-11.759,17.834,17.834,0,0,1,1.206-6.277,17.511,17.511,0,0,1,3.227-5.505q5.086-5.752,13.76-5.755T181.2,9.89a17.275,17.275,0,0,1,4.457,11.782" transform="translate(-6217.019 -21402.697)" fill="#b3b900"/>
    <path id="Caminho_4354" data-name="Caminho 4354" d="M187.082,20.929a19.6,19.6,0,0,1-5.067,13.365q-5.777,6.547-15.635,6.546-9.833,0-15.612-6.546A19.612,19.612,0,0,1,145.7,20.929a20.233,20.233,0,0,1,1.37-7.133,19.823,19.823,0,0,1,3.669-6.257Q156.519,1,166.38,1t15.635,6.539A19.634,19.634,0,0,1,187.082,20.929Z" transform="translate(-6216.18 -21401.955)" fill="none" stroke="#b3b900" stroke-miterlimit="10" stroke-width="2"/>
    <g id="Grupo_10125" data-name="Grupo 10125" transform="translate(-6065.058 -21395.949)" clip-path="url(#clip-path)">
      <path id="Caminho_4355" data-name="Caminho 4355" d="M172.086,36.883a30.178,30.178,0,0,0-6.157,6.085,22.846,22.846,0,0,0,3.274,1,26.755,26.755,0,0,1,4.886-4.608c5.461-3.973,11.959-5.589,19.379-4.837a22.933,22.933,0,0,0,1.764-2.98c-10.937-1.474-18.52,1.939-23.146,5.343" transform="translate(-155.912 -13.156)" fill="#fff"/>
      <path id="Caminho_4356" data-name="Caminho 4356" d="M166.371,31.665a36.229,36.229,0,0,0-7.139,6.955,23.157,23.157,0,0,0,2.732,1.677,32.847,32.847,0,0,1,6.293-6.07c7.214-5.3,16.037-7.425,26.285-6.33a22.742,22.742,0,0,0,.933-3.084c-13.956-1.6-23.419,2.676-29.1,6.853" transform="translate(-154.326 -11.564)" fill="#fff"/>
      <path id="Caminho_4357" data-name="Caminho 4357" d="M194.042,37.8a22.9,22.9,0,0,0-20.071,8.174c.744.072,1.5.112,2.263.112.375,0,.746-.012,1.117-.031v0c.2-.011.388-.028.585-.044.137-.009.278-.015.414-.026l0,0a23.2,23.2,0,0,0,12.511-5.077.083.083,0,0,1,.019-.016c.269-.219.535-.446.8-.677.079-.067.151-.138.228-.209.16-.145.322-.289.479-.438l-.008,0a22.859,22.859,0,0,0,1.665-1.765" transform="translate(-157.816 -14.703)" fill="#fff"/>
      <path id="Caminho_4358" data-name="Caminho 4358" d="M156.878,40.911a36.333,36.333,0,0,1,2.531-2.926,26.47,26.47,0,0,0-5.816-.186,23.777,23.777,0,0,0,3.179,3.1.806.806,0,0,0,.105.008" transform="translate(-152.99 -14.703)" fill="#fff"/>
      <path id="Caminho_4359" data-name="Caminho 4359" d="M163.162,32.291a34.048,34.048,0,0,0-13.617-.747,23.123,23.123,0,0,0,1.762,2.978,31.086,31.086,0,0,1,8.8.3,38.252,38.252,0,0,1,3.058-2.53" transform="translate(-152.031 -13.157)" fill="#fff"/>
      <path id="Caminho_4360" data-name="Caminho 4360" d="M147.142,24.807a23.236,23.236,0,0,0,.936,3.092,40.476,40.476,0,0,1,16.546,1.4,37.712,37.712,0,0,1,3.625-2.044,43.085,43.085,0,0,0-21.107-2.444" transform="translate(-151.462 -11.563)" fill="#fff"/>
    </g>
  </g>
</svg>
