<svg id="Grupo_10134" data-name="Grupo 10134" xmlns="http://www.w3.org/2000/svg" xmlns:xlink="http://www.w3.org/1999/xlink" width="519.302" height="53.329" viewBox="0 0 519.302 53.329">
  <defs>
    <clipPath id="clip-path">
      <rect id="Retângulo_3190" data-name="Retângulo 3190" width="519.302" height="53.329" fill="none"/>
    </clipPath>
    <clipPath id="clip-path-2">
      <path id="Caminho_4361" data-name="Caminho 4361" d="M157.664,13.873a19.129,19.129,0,0,0-3.539,6.038,19.534,19.534,0,0,0-1.322,6.884,18.907,18.907,0,0,0,4.891,12.9q5.577,6.318,15.066,6.316,9.518,0,15.095-6.316a18.922,18.922,0,0,0,4.887-12.9,18.939,18.939,0,0,0-4.887-12.922q-5.58-6.306-15.095-6.313t-15.1,6.313" transform="translate(-152.803 -7.56)" fill="none"/>
    </clipPath>
  </defs>
  <path id="Caminho_4343" data-name="Caminho 4343" d="M24.689,14.006l5.783,17.316H18.712Zm-7.179-10.3L0,49.87H12.183l3.443-9.779H33.4l3.28,9.779H49.833L32.355,3.709Z" transform="translate(0 -0.06)" fill="#b3b900"/>
  <g id="Grupo_10124" data-name="Grupo 10124" transform="translate(0 0)">
    <g id="Grupo_10123" data-name="Grupo 10123" clip-path="url(#clip-path)">
      <path id="Caminho_4344" data-name="Caminho 4344" d="M94.2,4.728l-1.071,9.583a24.5,24.5,0,0,0-5.913-2.388,25.275,25.275,0,0,0-6.334-.8q-7.57,0-11.938,4.191T64.575,26.753q0,6.985,3.9,11.111t10.492,4.124a23.383,23.383,0,0,0,2.567-.13,16.568,16.568,0,0,0,2.209-.39V31.821H76.627V23.115h18.55V48.843A52.658,52.658,0,0,1,87.608,50.4a61.639,61.639,0,0,1-8.057.52q-13.48,0-20.483-6.075t-7-17.737q0-11.662,7.1-18.143T79.1,2.487a51.253,51.253,0,0,1,7.618.569A54.544,54.544,0,0,1,94.2,4.728" transform="translate(-0.839 -0.04)" fill="#b3b900"/>
      <path id="Caminho_4345" data-name="Caminho 4345" d="M104.732,3.708h18.354q9.162,0,13.6,2.972t4.434,9.048a11.355,11.355,0,0,1-2.339,7.374,11.546,11.546,0,0,1-6.757,3.866q3.638,1.333,5.847,7.569v.032l5.523,15.3H130.558L126.5,37.234a7.842,7.842,0,0,0-2.663-4.223,9.374,9.374,0,0,0-5.264-1.17h-1.787V49.87H104.732Zm12.052,8.122V23.654H121.1q4,0,5.994-1.445a5,5,0,0,0,2-4.337,5.086,5.086,0,0,0-2.226-4.58q-2.224-1.463-7.033-1.462Z" transform="translate(-1.687 -0.06)" fill="#b3b900"/>
      <path id="Caminho_4346" data-name="Caminho 4346" d="M216.042,3.674h14.847l17.479,46.164H235.21l-3.281-9.779h-17.77l-3.446,9.779H198.532Zm7.179,10.3-5.977,17.315h11.76Z" transform="translate(-3.199 -0.06)" fill="#1f5b93"/>
      <path id="Caminho_4347" data-name="Caminho 4347" d="M251.958,3.674h16.178a59.408,59.408,0,0,1,10.608.8,20.488,20.488,0,0,1,6.968,2.454,21.258,21.258,0,0,1,7.6,8.138,24.354,24.354,0,0,1,2.567,11.419A25.429,25.429,0,0,1,293.2,38.63a21.048,21.048,0,0,1-8.17,8.22,21.194,21.194,0,0,1-6.985,2.275,72.445,72.445,0,0,1-11.437.713H251.958Zm12.377,8.9v28h5.327q6.5,0,10.041-3.671t3.54-10.429q0-6.691-3.686-10.3t-10.543-3.606Z" transform="translate(-4.06 -0.06)" fill="#1f5b93"/>
      <path id="Caminho_4348" data-name="Caminho 4348" d="M299.573,3.674h12.865l10.3,35.931L332.9,3.674H345.51L329.852,49.838H314.42Z" transform="translate(-4.827 -0.06)" fill="#1f5b93"/>
      <path id="Caminho_4349" data-name="Caminho 4349" d="M360.339,3.674h14.847l17.479,46.164H379.507l-3.282-9.779h-17.77l-3.445,9.779H342.829Zm7.18,10.3-5.977,17.315H373.3Z" transform="translate(-5.524 -0.06)" fill="#1f5b93"/>
      <path id="Caminho_4350" data-name="Caminho 4350" d="M396.255,3.674h15.366l13.386,27.679q.68,1.4,1.591,3.882t2.015,6.091q-.586-3.411-.862-6.27t-.276-5.23V3.674h11.111V49.838h-15.3L409.38,21.153a38.673,38.673,0,0,1-1.788-4.3q-.812-2.323-1.494-5.052.649,4.126.958,7.586t.309,6.092V49.838h-11.11Z" transform="translate(-6.385 -0.06)" fill="#1f5b93"/>
      <path id="Caminho_4351" data-name="Caminho 4351" d="M486.374,5.052,485.3,14.7a21.625,21.625,0,0,0-5.361-2.323,21.247,21.247,0,0,0-5.685-.763q-6.922,0-11.014,4.028T459.15,26.462q0,6.823,4.174,10.866t11.128,4.046a24.351,24.351,0,0,0,5.572-.666,30.1,30.1,0,0,0,5.733-2l.748,10.363a51.511,51.511,0,0,1-6.628,1.365,49.2,49.2,0,0,1-6.692.455q-12.573,0-19.59-6.448t-7.017-17.982q0-11.013,6.92-17.478t18.778-6.466a42.9,42.9,0,0,1,7.522.634,31.045,31.045,0,0,1,6.578,1.9" transform="translate(-7.195 -0.041)" fill="#1f5b93"/>
      <path id="Caminho_4352" data-name="Caminho 4352" d="M494.455,3.674H526.52v8.642H506.769v9.323h18.648v8.771H506.769V40.938h20.5v8.9H494.455Z" transform="translate(-7.966 -0.06)" fill="#1f5b93"/>
      <path id="Caminho_4353" data-name="Caminho 4353" d="M196.185,26.744a22.24,22.24,0,0,1-5.746,15.16q-6.557,7.428-17.74,7.424-11.151,0-17.709-7.424a22.24,22.24,0,0,1-5.746-15.16,22.992,22.992,0,0,1,1.555-8.092,22.575,22.575,0,0,1,4.161-7.1q6.557-7.416,17.74-7.419t17.74,7.419a22.271,22.271,0,0,1,5.746,15.19" transform="translate(-2.405 -0.067)" fill="#b3b900"/>
      <path id="Caminho_4354" data-name="Caminho 4354" d="M199.049,26.693a25.27,25.27,0,0,1-6.533,17.23q-7.447,8.44-20.157,8.439-12.677,0-20.127-8.439a25.284,25.284,0,0,1-6.528-17.23,26.084,26.084,0,0,1,1.766-9.2A25.555,25.555,0,0,1,152.2,9.43Q159.647,1,172.359,1t20.157,8.43A25.312,25.312,0,0,1,199.049,26.693Z" transform="translate(-2.348 -0.016)" fill="none" stroke="#b3b900" stroke-miterlimit="10" stroke-width="2"/>
    </g>
  </g>
  <g id="Grupo_10126" data-name="Grupo 10126" transform="translate(150.341 7.438)">
    <g id="Grupo_10125" data-name="Grupo 10125" clip-path="url(#clip-path-2)">
      <path id="Caminho_4355" data-name="Caminho 4355" d="M173.866,38.531a38.906,38.906,0,0,0-7.937,7.845,29.452,29.452,0,0,0,4.221,1.285,34.494,34.494,0,0,1,6.3-5.941c7.04-5.122,15.418-7.206,24.984-6.236a29.567,29.567,0,0,0,2.274-3.842c-14.1-1.9-23.876,2.5-29.84,6.888" transform="translate(-153.014 -7.941)" fill="#fff"/>
      <path id="Caminho_4356" data-name="Caminho 4356" d="M168.436,33.747a46.706,46.706,0,0,0-9.2,8.966,29.854,29.854,0,0,0,3.522,2.162,42.346,42.346,0,0,1,8.113-7.826c9.3-6.839,20.675-9.572,33.887-8.161a29.317,29.317,0,0,0,1.2-3.976c-17.992-2.067-30.193,3.449-37.521,8.835" transform="translate(-152.907 -7.833)" fill="#fff"/>
      <path id="Caminho_4357" data-name="Caminho 4357" d="M199.847,37.821A29.525,29.525,0,0,0,173.971,48.36c.959.092,1.932.145,2.917.145.483,0,.962-.016,1.44-.04v0c.255-.014.5-.036.755-.057.177-.012.358-.019.533-.033l0,0a29.914,29.914,0,0,0,16.13-6.545.107.107,0,0,1,.025-.021c.346-.282.69-.575,1.025-.873.1-.087.195-.178.294-.27.206-.187.415-.373.617-.565l-.01,0a29.471,29.471,0,0,0,2.146-2.276" transform="translate(-153.144 -8.046)" fill="#fff"/>
      <path id="Caminho_4358" data-name="Caminho 4358" d="M157.828,41.834a46.843,46.843,0,0,1,3.264-3.772,34.125,34.125,0,0,0-7.5-.24,30.655,30.655,0,0,0,4.1,4,1.038,1.038,0,0,0,.136.01" transform="translate(-152.816 -8.046)" fill="#fff"/>
      <path id="Caminho_4359" data-name="Caminho 4359" d="M167.1,32.61a43.9,43.9,0,0,0-17.555-.963,29.809,29.809,0,0,0,2.272,3.839,40.076,40.076,0,0,1,11.34.386A49.317,49.317,0,0,1,167.1,32.61" transform="translate(-152.751 -7.941)" fill="#fff"/>
      <path id="Caminho_4360" data-name="Caminho 4360" d="M147.142,24.907a29.955,29.955,0,0,0,1.206,3.987,52.182,52.182,0,0,1,21.332,1.8,48.616,48.616,0,0,1,4.674-2.635c-6.95-2.762-15.942-4.443-27.211-3.15" transform="translate(-152.712 -7.833)" fill="#fff"/>
    </g>
  </g>
</svg>
