<svg id="Grupo_10139" data-name="Grupo 10139" xmlns="http://www.w3.org/2000/svg" xmlns:xlink="http://www.w3.org/1999/xlink" width="358.697" height="36.725" viewBox="0 0 358.697 36.725">
  <defs>
    <clipPath id="clip-path">
      <rect id="Retângulo_3191" data-name="Retângulo 3191" width="358.697" height="36.725" fill="none"/>
    </clipPath>
    <clipPath id="clip-path-2">
      <path id="Caminho_4379" data-name="Caminho 4379" d="M169.8,12.145a13.21,13.21,0,0,0-2.444,4.171,13.5,13.5,0,0,0-.913,4.755A13.19,13.19,0,0,0,180.23,34.344a13.2,13.2,0,0,0,10.427-4.362,13.07,13.07,0,0,0,3.376-8.912,13.084,13.084,0,0,0-3.376-8.926,14.649,14.649,0,0,0-20.854,0" transform="translate(-166.445 -7.785)" fill="none"/>
    </clipPath>
  </defs>
  <path id="Caminho_4362" data-name="Caminho 4362" d="M17.053,11.065l3.994,11.96H12.925ZM12.094,3.952,0,35.837H8.415l2.378-6.754H23.067l2.266,6.754h9.088L22.349,3.952Z" transform="translate(0 -1.486)" fill="#fff"/>
  <g id="Grupo_10129" data-name="Grupo 10129" transform="translate(0 0)">
    <g id="Grupo_10128" data-name="Grupo 10128" clip-path="url(#clip-path)">
      <path id="Caminho_4363" data-name="Caminho 4363" d="M85.82,4.17l-.74,6.62A16.908,16.908,0,0,0,81,9.14a17.462,17.462,0,0,0-4.375-.55,11.415,11.415,0,0,0-8.246,2.895,10.429,10.429,0,0,0-3.018,7.9,10.717,10.717,0,0,0,2.693,7.675A9.5,9.5,0,0,0,75.3,29.907a15.96,15.96,0,0,0,1.773-.09,11.442,11.442,0,0,0,1.526-.269V22.884H73.681V16.87H86.494V34.641a36.4,36.4,0,0,1-5.228,1.077,42.6,42.6,0,0,1-5.565.359q-9.312,0-14.148-4.2T56.718,19.63q0-8.055,4.9-12.532T75.386,2.622a35.423,35.423,0,0,1,5.262.392A37.694,37.694,0,0,1,85.82,4.17" transform="translate(-21.332 -0.986)" fill="#fff"/>
      <path id="Caminho_4364" data-name="Caminho 4364" d="M114.083,3.951h12.678q6.328,0,9.391,2.053a7.01,7.01,0,0,1,3.063,6.25,7.845,7.845,0,0,1-1.615,5.093,7.976,7.976,0,0,1-4.668,2.67q2.513.92,4.039,5.228v.022l3.814,10.569h-8.864l-2.8-8.728a5.413,5.413,0,0,0-1.84-2.917,6.47,6.47,0,0,0-3.635-.809h-1.234V35.836h-8.324Zm8.324,5.61v8.167h2.985a7.057,7.057,0,0,0,4.14-1,3.458,3.458,0,0,0,1.38-3,3.515,3.515,0,0,0-1.538-3.164,9.07,9.07,0,0,0-4.858-1.009Z" transform="translate(-42.907 -1.486)" fill="#fff"/>
      <path id="Caminho_4365" data-name="Caminho 4365" d="M228.351,3.948h10.255l12.073,31.887h-9.088l-2.267-6.754H227.05l-2.38,6.754h-8.415Zm4.959,7.114-4.129,11.96h8.124Z" transform="translate(-81.334 -1.485)" fill="#fff"/>
      <path id="Caminho_4366" data-name="Caminho 4366" d="M274.452,3.948h11.175a40.979,40.979,0,0,1,7.328.55,14.152,14.152,0,0,1,4.813,1.694,14.681,14.681,0,0,1,5.251,5.621,16.834,16.834,0,0,1,1.772,7.888,17.569,17.569,0,0,1-1.852,8.393,14.534,14.534,0,0,1-5.644,5.677,14.634,14.634,0,0,1-4.824,1.571,49.956,49.956,0,0,1-7.9.493h-10.12ZM283,10.1V29.44h3.68a9.186,9.186,0,0,0,6.935-2.535q2.445-2.536,2.446-7.2,0-4.622-2.546-7.114T286.233,10.1Z" transform="translate(-103.221 -1.485)" fill="#fff"/>
      <path id="Caminho_4367" data-name="Caminho 4367" d="M326.318,3.948H335.2l7.114,24.818,7.023-24.818h8.707L347.232,35.835H336.573Z" transform="translate(-122.728 -1.485)" fill="#fff"/>
      <path id="Caminho_4368" data-name="Caminho 4368" d="M385.531,3.948h10.255l12.073,31.887h-9.088L396.5,29.081H384.23l-2.38,6.754h-8.415Zm4.96,7.114-4.129,11.96h8.123Z" transform="translate(-140.449 -1.485)" fill="#fff"/>
      <path id="Caminho_4369" data-name="Caminho 4369" d="M431.632,3.948h10.614l9.246,19.119q.471.965,1.1,2.681t1.392,4.208q-.4-2.356-.6-4.331t-.191-3.613V3.948h7.674V35.835H450.3l-9.6-19.814a26.647,26.647,0,0,1-1.235-2.973q-.562-1.6-1.032-3.489.448,2.851.662,5.24t.213,4.208v16.83h-7.675Z" transform="translate(-162.337 -1.485)" fill="#fff"/>
      <path id="Caminho_4370" data-name="Caminho 4370" d="M513.936,4.44,513.2,11.1a14.922,14.922,0,0,0-3.7-1.6,14.683,14.683,0,0,0-3.927-.527,10.37,10.37,0,0,0-7.607,2.783,10.005,10.005,0,0,0-2.827,7.472,9.965,9.965,0,0,0,2.883,7.506,10.574,10.574,0,0,0,7.686,2.794,16.8,16.8,0,0,0,3.849-.46,20.764,20.764,0,0,0,3.96-1.379l.517,7.159a35.531,35.531,0,0,1-4.578.942,33.924,33.924,0,0,1-4.623.314q-8.685,0-13.531-4.455t-4.848-12.421q0-7.606,4.78-12.072T504.2,2.689a29.6,29.6,0,0,1,5.2.438,21.464,21.464,0,0,1,4.544,1.313" transform="translate(-182.952 -1.011)" fill="#fff"/>
      <path id="Caminho_4371" data-name="Caminho 4371" d="M538.6,3.948h22.148V9.918H547.1v6.44h12.881v6.059H547.1v7.271h14.16v6.148H538.6Z" transform="translate(-202.567 -1.485)" fill="#fff"/>
      <path id="Caminho_4372" data-name="Caminho 4372" d="M195.56,18.747a17.454,17.454,0,0,1-4.513,11.9q-5.144,5.83-13.923,5.828-8.756,0-13.9-5.828a17.468,17.468,0,0,1-4.509-11.9,18.024,18.024,0,0,1,1.22-6.352A17.666,17.666,0,0,1,163.2,6.823Q168.343,1,177.124,1t13.923,5.823A17.48,17.48,0,0,1,195.56,18.747Z" transform="translate(-59.692 -0.376)" fill="none" stroke="#fff" stroke-miterlimit="10" stroke-width="2"/>
    </g>
  </g>
  <g id="Grupo_10131" data-name="Grupo 10131" transform="translate(103.845 4.857)">
    <g id="Grupo_10130" data-name="Grupo 10130" clip-path="url(#clip-path-2)">
      <path id="Caminho_4373" data-name="Caminho 4373" d="M186.225,38.594a26.891,26.891,0,0,0-5.482,5.419,20.291,20.291,0,0,0,2.915.887,23.858,23.858,0,0,1,4.352-4.1,24.234,24.234,0,0,1,17.256-4.308,20.451,20.451,0,0,0,1.571-2.653c-9.74-1.313-16.492,1.727-20.612,4.758" transform="translate(-171.822 -17.465)" fill="#fff"/>
      <path id="Caminho_4374" data-name="Caminho 4374" d="M179.807,32.611a32.213,32.213,0,0,0-6.358,6.193,20.713,20.713,0,0,0,2.433,1.493,29.2,29.2,0,0,1,5.6-5.405c6.424-4.724,14.281-6.612,23.406-5.637a20.206,20.206,0,0,0,.831-2.746c-12.428-1.427-20.855,2.383-25.916,6.1" transform="translate(-169.079 -14.711)" fill="#fff"/>
      <path id="Caminho_4375" data-name="Caminho 4375" d="M207.376,40.706A20.394,20.394,0,0,0,189.5,47.985c.663.064,1.335.1,2.015.1.334,0,.664-.011,1-.027v0c.175-.01.346-.026.52-.04.123-.008.248-.013.369-.024l0,0a20.66,20.66,0,0,0,11.142-4.521.154.154,0,0,1,.017-.014c.239-.195.476-.4.708-.6.07-.06.135-.124.2-.187.142-.129.286-.257.427-.391l-.007,0a20.489,20.489,0,0,0,1.482-1.572" transform="translate(-175.117 -20.141)" fill="#fff"/>
      <path id="Caminho_4376" data-name="Caminho 4376" d="M170.23,43.478a32.311,32.311,0,0,1,2.255-2.605,23.559,23.559,0,0,0-5.18-.166,21.239,21.239,0,0,0,2.831,2.764.807.807,0,0,0,.094.007" transform="translate(-166.768 -20.14)" fill="#fff"/>
      <path id="Caminho_4377" data-name="Caminho 4377" d="M175.021,34.5a30.3,30.3,0,0,0-12.125-.665,20.575,20.575,0,0,0,1.569,2.651,27.734,27.734,0,0,1,7.833.267,34.164,34.164,0,0,1,2.723-2.253" transform="translate(-165.11 -17.466)" fill="#fff"/>
      <path id="Caminho_4378" data-name="Caminho 4378" d="M160.279,26.5a20.592,20.592,0,0,0,.834,2.753A36.039,36.039,0,0,1,175.846,30.5a33.427,33.427,0,0,1,3.229-1.82,38.357,38.357,0,0,0-18.8-2.176" transform="translate(-164.126 -14.71)" fill="#fff"/>
    </g>
  </g>
</svg>
