<svg xmlns="http://www.w3.org/2000/svg" xmlns:xlink="http://www.w3.org/1999/xlink" viewBox="0 0 422.53 149.03"><defs><style>.cls-1{fill:#7ab543;}.cls-2{fill:#b5b5b6;}.cls-3{fill:url(#linear-gradient);}.cls-4{fill:url(#linear-gradient-2);}.cls-5{fill:#fff;}</style><linearGradient id="linear-gradient" x1="206.62" y1="102.28" x2="276.26" y2="102.28" gradientUnits="userSpaceOnUse"><stop offset="0.73" stop-color="#848584" stop-opacity="0"/><stop offset="0.97" stop-color="#979796"/></linearGradient><linearGradient id="linear-gradient-2" x1="350.86" y1="102.28" x2="281.22" y2="102.28" gradientUnits="userSpaceOnUse"><stop offset="0.73" stop-color="#979796" stop-opacity="0"/><stop offset="0.97" stop-color="#979796"/></linearGradient></defs><g id="Camada_2" data-name="Camada 2"><g id="Camada_1-2" data-name="Camada 1"><path class="cls-1" d="M352,20s0-.08,0-.13a.14.14,0,0,1,0,.06c-.19.52-.33.9-.42,1.13l-2,5.12h5l-2-5C352.32,20.93,352.17,20.55,352,20Z"/><path class="cls-1" d="M382.65,18.71a6.16,6.16,0,0,0-2.14-1.4,7.28,7.28,0,0,0-2.61-.47H373V30.63h4.91a7.28,7.28,0,0,0,2.61-.47,6.94,6.94,0,0,0,2.17-1.32,6.07,6.07,0,0,0,1.48-2.11,7.76,7.76,0,0,0,0-5.79A7.31,7.31,0,0,0,382.65,18.71Z"/><path class="cls-1" d="M412,0h-114a10.16,10.16,0,0,0-10.16,10.17V34.1L277,57,307,47.5H412A10.17,10.17,0,0,0,422.2,37.34V10.17A10.17,10.17,0,0,0,412,0Z"/><path class="cls-2" d="M422.53,86a29.55,29.55,0,0,1-3.68,14.45,28.09,28.09,0,0,1-10.7,10.86q-7,4.14-16.89,4.14H377.51v32.66H355V56.5h36.26q9.84,0,16.87,4.11a28,28,0,0,1,10.7,10.84A29.73,29.73,0,0,1,422.53,86Zm-22.48,0a9.39,9.39,0,0,0-1.17-4.57,8.68,8.68,0,0,0-3.4-3.4,10.2,10.2,0,0,0-5.19-1.29H377.51V95.19h12.78a10.2,10.2,0,0,0,5.19-1.29,8.7,8.7,0,0,0,3.4-3.38A9.17,9.17,0,0,0,400.05,86Z"/><path class="cls-2" d="M62.23,148.06H0V56.5H62.23v20H22.48V91.86h34v20h-34V128H62.23Z"/><path class="cls-2" d="M131.88,120.05a25.68,25.68,0,0,1-4.74,15.51,29.38,29.38,0,0,1-12.81,9.89,45.91,45.91,0,0,1-17.81,3.36,65,65,0,0,1-19.78-2.7,36.19,36.19,0,0,1-14.94-9.36l14.44-14.44a19.87,19.87,0,0,0,8.92,4.93,42.43,42.43,0,0,0,11.49,1.54q13.13,0,13.12-8.23a7.49,7.49,0,0,0-1.82-5.4q-1.82-1.87-6-2.45l-11-1.57q-12.18-1.69-18.4-8.1t-6.28-18.4a27.83,27.83,0,0,1,4-14.91A27.45,27.45,0,0,1,81.86,59.45a39.9,39.9,0,0,1,17.74-3.7,54.56,54.56,0,0,1,17.68,2.6,33.86,33.86,0,0,1,13.21,8.33L116.37,80.8a15.75,15.75,0,0,0-7.6-4.45A44,44,0,0,0,99,75.4q-5.4,0-8.22,2.58a7.78,7.78,0,0,0-2.83,5.9,5.86,5.86,0,0,0,1.82,4.27A10.69,10.69,0,0,0,96,90.85l11,1.51q12.06,1.76,18,7.6a20,20,0,0,1,5.17,8.38A38,38,0,0,1,131.88,120.05Z"/><path class="cls-2" d="M205.42,119a41.3,41.3,0,0,1-4.3,13,30.51,30.51,0,0,1-7.72,9.45A31.46,31.46,0,0,1,183,147a40.8,40.8,0,0,1-12.3,1.82q-15.24,0-25.41-10.3a27.18,27.18,0,0,1-7.65-13.69A95.73,95.73,0,0,1,136,105.36V99.2a96.36,96.36,0,0,1,1.63-19.5A27.22,27.22,0,0,1,145.31,66a34.78,34.78,0,0,1,11.3-7.69,36.76,36.76,0,0,1,14.11-2.54,40.65,40.65,0,0,1,12.55,1.85,31.57,31.57,0,0,1,10.23,5.53,31.18,31.18,0,0,1,7.62,9.35,40.72,40.72,0,0,1,4.3,13.1H182.56a15.51,15.51,0,0,0-3.86-7.13q-2.67-2.67-7.88-2.67a12.11,12.11,0,0,0-5.18,1.07A10.16,10.16,0,0,0,162,79.61a12.25,12.25,0,0,0-1.91,3.61,30,30,0,0,0-1.13,6.41q-.4,4.31-.41,12.65,0,11.11.82,15.61a17.17,17.17,0,0,0,2.63,7q3,3.89,8.86,3.89,5.09,0,7.81-2.67a15.16,15.16,0,0,0,3.93-7.13Z"/><path class="cls-2" d="M276.26,102.28v3.08q0,7.67-.54,13.19a39.47,39.47,0,0,1-2.54,10.67,26.77,26.77,0,0,1-6.15,9.29,35.45,35.45,0,0,1-11.19,7.7,36.7,36.7,0,0,1-14.4,2.6,40.44,40.44,0,0,1-10.07-1.16,31.82,31.82,0,0,1-8.28-3.42,35.63,35.63,0,0,1-7.19-5.72,27.18,27.18,0,0,1-7.65-13.69,95.73,95.73,0,0,1-1.63-19.46V99.2a96.36,96.36,0,0,1,1.63-19.5A27.22,27.22,0,0,1,215.9,66a34.8,34.8,0,0,1,11.26-7.72,41.87,41.87,0,0,1,28.64,0A34.94,34.94,0,0,1,267,66a26.83,26.83,0,0,1,6.15,9.33A39.84,39.84,0,0,1,275.72,86q.54,5.52.54,13.18Zm-22.48,0q0-11.69-.79-16a15,15,0,0,0-2.54-6.53,9.18,9.18,0,0,0-3.68-2.89,12.56,12.56,0,0,0-5.37-1.13,12.09,12.09,0,0,0-5.21,1.1,10.41,10.41,0,0,0-3.76,2.92,12.13,12.13,0,0,0-1.86,3.55,29.31,29.31,0,0,0-1.09,6.46q-.39,4.36-.38,12.47t.38,12.4a28.75,28.75,0,0,0,1.09,6.44,12.34,12.34,0,0,0,1.86,3.52,11.87,11.87,0,0,0,18,0,16.56,16.56,0,0,0,2.54-6.57Q253.79,114,253.78,102.28Z"/><path class="cls-3" d="M276.26,102.28v3.08q0,7.67-.54,13.19a39.47,39.47,0,0,1-2.54,10.67,26.77,26.77,0,0,1-6.15,9.29,35.45,35.45,0,0,1-11.19,7.7,36.7,36.7,0,0,1-14.4,2.6,40.44,40.44,0,0,1-10.07-1.16,31.82,31.82,0,0,1-8.28-3.42,35.63,35.63,0,0,1-7.19-5.72,27.18,27.18,0,0,1-7.65-13.69,95.73,95.73,0,0,1-1.63-19.46V99.2a96.36,96.36,0,0,1,1.63-19.5A27.22,27.22,0,0,1,215.9,66a34.8,34.8,0,0,1,11.26-7.72,41.87,41.87,0,0,1,28.64,0A34.94,34.94,0,0,1,267,66a26.83,26.83,0,0,1,6.15,9.33A39.84,39.84,0,0,1,275.72,86q.54,5.52.54,13.18Zm-22.48,0q0-11.69-.79-16a15,15,0,0,0-2.54-6.53,9.18,9.18,0,0,0-3.68-2.89,12.56,12.56,0,0,0-5.37-1.13,12.09,12.09,0,0,0-5.21,1.1,10.41,10.41,0,0,0-3.76,2.92,12.13,12.13,0,0,0-1.86,3.55,29.31,29.31,0,0,0-1.09,6.46q-.39,4.36-.38,12.47t.38,12.4a28.75,28.75,0,0,0,1.09,6.44,12.34,12.34,0,0,0,1.86,3.52,11.87,11.87,0,0,0,18,0,16.56,16.56,0,0,0,2.54-6.57Q253.79,114,253.78,102.28Z"/><path class="cls-2" d="M350.86,102.28v3.08q0,7.67-.53,13.19a39.47,39.47,0,0,1-2.54,10.67,26.91,26.91,0,0,1-6.15,9.29,35.49,35.49,0,0,1-11.2,7.7,36.61,36.61,0,0,1-14.39,2.6A40.38,40.38,0,0,1,306,147.65a32,32,0,0,1-8.29-3.42,35.86,35.86,0,0,1-7.18-5.72,27.1,27.1,0,0,1-7.65-13.69,95.64,95.64,0,0,1-1.64-19.46V99.2a96.27,96.27,0,0,1,1.64-19.5A27.15,27.15,0,0,1,290.51,66a34.8,34.8,0,0,1,11.26-7.72,41.87,41.87,0,0,1,28.64,0A34.94,34.94,0,0,1,341.64,66a27,27,0,0,1,6.15,9.33A39.84,39.84,0,0,1,350.33,86q.54,5.52.53,13.18Zm-22.47,0q0-11.69-.79-16a15.15,15.15,0,0,0-2.54-6.53,9.18,9.18,0,0,0-3.68-2.89A12.56,12.56,0,0,0,316,75.78a12.09,12.09,0,0,0-5.21,1.1A10.45,10.45,0,0,0,307,79.8a12.12,12.12,0,0,0-1.85,3.55,29.19,29.19,0,0,0-1.1,6.46q-.37,4.36-.37,12.47t.37,12.4a28.64,28.64,0,0,0,1.1,6.44,12.32,12.32,0,0,0,1.85,3.52,11.89,11.89,0,0,0,18,0,16.72,16.72,0,0,0,2.54-6.57Q328.38,114,328.39,102.28Z"/><path class="cls-4" d="M350.86,102.28v3.08q0,7.67-.53,13.19a39.47,39.47,0,0,1-2.54,10.67,26.91,26.91,0,0,1-6.15,9.29,35.49,35.49,0,0,1-11.2,7.7,36.61,36.61,0,0,1-14.39,2.6A40.38,40.38,0,0,1,306,147.65a32,32,0,0,1-8.29-3.42,35.86,35.86,0,0,1-7.18-5.72,27.1,27.1,0,0,1-7.65-13.69,95.64,95.64,0,0,1-1.64-19.46V99.2a96.27,96.27,0,0,1,1.64-19.5A27.15,27.15,0,0,1,290.51,66a34.8,34.8,0,0,1,11.26-7.72,41.87,41.87,0,0,1,28.64,0A34.94,34.94,0,0,1,341.64,66a27,27,0,0,1,6.15,9.33A39.84,39.84,0,0,1,350.33,86q.54,5.52.53,13.18Zm-22.47,0q0-11.69-.79-16a15.15,15.15,0,0,0-2.54-6.53,9.18,9.18,0,0,0-3.68-2.89A12.56,12.56,0,0,0,316,75.78a12.09,12.09,0,0,0-5.21,1.1A10.45,10.45,0,0,0,307,79.8a12.12,12.12,0,0,0-1.85,3.55,29.19,29.19,0,0,0-1.1,6.46q-.37,4.36-.37,12.47t.37,12.4a28.64,28.64,0,0,0,1.1,6.44,12.32,12.32,0,0,0,1.85,3.52,11.89,11.89,0,0,0,18,0,16.72,16.72,0,0,0,2.54-6.57Q328.38,114,328.39,102.28Z"/><path class="cls-2" d="M305.87,57.1c-20.89,4-35.75,42.15-49.53,42.15,8.2,22.4-17.57,49.56-17.57,49.56s32.14,6.54,64.87-51.28c-1.7-14.86,3.43-21.86,3.43-21.86l9.66-19.92S308.55,56.58,305.87,57.1Z"/><path class="cls-5" d="M310.24,11.83c6.55,0,11.05,4.39,11.05,12.21s-4.5,12.22-11.05,12.22-11-4.4-11-12.22S303.7,11.83,310.24,11.83Zm0,19.33c3.36,0,5.61-2.32,5.61-7.08s-2.25-7.15-5.61-7.15-5.6,2.35-5.6,7.08S306.89,31.16,310.24,31.16Z"/><path class="cls-5" d="M329.14,22.1H329s.07,2.92.07,5.84v7.85h-5.3V12.3h5.43L337.87,26H338s-.07-2.89-.07-5.6V12.3h5.31V35.79H337.8Z"/><path class="cls-5" d="M346.6,12.3H352V30.76h9.39v5H346.6Z"/><path class="cls-5" d="M364,12.3h5.37V35.79H364Z"/><path class="cls-5" d="M378,22.1h-.1S378,25,378,27.94v7.85h-5.3V12.3h5.43L386.74,26h.13s-.06-2.89-.06-5.6V12.3h5.3V35.79h-5.44Z"/><path class="cls-5" d="M395.47,12.3H411v5h-10.2v4.2h7.55v4.66h-7.55v4.57h10.33v5h-15.7Z"/></g></g></svg>