<svg xmlns="http://www.w3.org/2000/svg" viewBox="5530 980 80 80">
  <defs>
    <style>
      .cls-1 {
        fill: #96d1cf;
      }

      .cls-2 {
        fill: #01afaa;
      }

      .cls-3 {
        fill: #9d85c1;
      }

      .cls-4 {
        fill: #350756;
      }

      .cls-5 {
        fill: #e64848;
      }
    </style>
  </defs>
  <g id="Group_4678" data-name="Group 4678" transform="translate(5530 980)">
    <g id="Group_878" data-name="Group 878" transform="translate(0 0)">
      <g id="Group_876" data-name="Group 876" transform="translate(0.601 0.601)">
        <circle id="Ellipse_124" data-name="Ellipse 124" class="cls-1" cx="39.399" cy="39.399" r="39.399"/>
      </g>
      <g id="Group_877" data-name="Group 877">
        <path id="Path_1617" data-name="Path 1617" class="cls-2" d="M41.261,80a.6.6,0,0,1-.6-.6.567.567,0,0,1,.6-.6c.781,0,1.622-.06,2.4-.12.3-.06.6.24.661.541s-.24.6-.541.661c-.841,0-1.682.06-2.523.12ZM36.4,79.82h0c-.841-.06-1.682-.18-2.523-.3a.578.578,0,0,1,.18-1.141c.781.12,1.562.24,2.342.3a.573.573,0,0,1,.541.661C37,79.58,36.7,79.82,36.4,79.82ZM48.468,79.1a.585.585,0,0,1-.6-.48.608.608,0,0,1,.48-.721c.781-.18,1.562-.36,2.342-.6a.59.59,0,0,1,.3,1.141c-.781.24-1.562.42-2.4.6C48.529,79.1,48.529,79.1,48.468,79.1Zm-19.219-.6h-.18l-2.342-.721a.608.608,0,1,1,.42-1.141c.721.24,1.5.48,2.282.721a.652.652,0,0,1,.42.721A.723.723,0,0,1,29.249,78.5Zm26.126-1.622a.525.525,0,0,1-.541-.36.6.6,0,0,1,.3-.781c.721-.3,1.441-.661,2.162-1.021a.578.578,0,1,1,.541,1.021c-.721.36-1.5.721-2.222,1.021C55.556,76.877,55.5,76.877,55.375,76.877Zm-32.913-.961a.361.361,0,0,1-.24-.06c-.721-.36-1.441-.781-2.162-1.141a.618.618,0,0,1,.6-1.081c.721.42,1.381.781,2.1,1.141a.6.6,0,0,1,.3.781A.731.731,0,0,1,22.462,75.916ZM61.8,73.453a.741.741,0,0,1-.48-.24.591.591,0,0,1,.18-.841,22.29,22.29,0,0,0,1.922-1.381.6.6,0,1,1,.721.961l-1.982,1.441C62.042,73.393,61.922,73.453,61.8,73.453ZM16.276,72.072a.854.854,0,0,1-.36-.12,24.21,24.21,0,0,1-1.922-1.562.6.6,0,1,1,.781-.9,22.6,22.6,0,0,0,1.862,1.5.646.646,0,0,1,.12.841A.546.546,0,0,1,16.276,72.072Zm51.171-3.183a.545.545,0,0,1-.42-.18.581.581,0,0,1,0-.841c.541-.541,1.141-1.141,1.682-1.742a.6.6,0,1,1,.9.781,23.827,23.827,0,0,1-1.742,1.742A.453.453,0,0,1,67.447,68.889ZM10.931,67.147a.545.545,0,0,1-.42-.18c-.541-.6-1.081-1.261-1.622-1.862a.6.6,0,0,1,.961-.721c.48.6,1.021,1.2,1.562,1.8a.584.584,0,0,1-.06.841A1.528,1.528,0,0,1,10.931,67.147Zm61.261-3.784a.854.854,0,0,1-.36-.12.539.539,0,0,1-.12-.841c.48-.661.9-1.321,1.321-1.982a.608.608,0,1,1,1.021.661,24.307,24.307,0,0,1-1.381,2.042A.546.546,0,0,1,72.192,63.363ZM6.547,61.381a.717.717,0,0,1-.541-.3c-.42-.721-.841-1.441-1.261-2.1a.618.618,0,0,1,1.081-.6,22.77,22.77,0,0,0,1.2,2.042.647.647,0,0,1-.18.841A1.015,1.015,0,0,1,6.547,61.381ZM75.8,57.057a.361.361,0,0,1-.24-.06.6.6,0,0,1-.3-.781c.36-.721.661-1.441.961-2.222a.608.608,0,0,1,1.141.42c-.3.781-.6,1.5-.961,2.282A.661.661,0,0,1,75.8,57.057ZM3.243,54.895a.525.525,0,0,1-.541-.36c-.3-.781-.6-1.562-.841-2.342a.625.625,0,0,1,.36-.781.625.625,0,0,1,.781.36c.24.781.48,1.5.781,2.282a.625.625,0,0,1-.36.781C3.423,54.895,3.363,54.895,3.243,54.895ZM78.258,50.21h-.12a.57.57,0,0,1-.42-.721c.18-.781.36-1.562.48-2.342a.612.612,0,1,1,1.2.24,17.27,17.27,0,0,1-.541,2.4A.723.723,0,0,1,78.258,50.21Zm-77-2.342a.585.585,0,0,1-.6-.48c-.12-.781-.3-1.622-.36-2.462a.6.6,0,0,1,.541-.661A.6.6,0,0,1,1.5,44.8l.36,2.342a.659.659,0,0,1-.48.721ZM79.339,43h0a.617.617,0,0,1-.6-.661c.06-.781.06-1.562.06-2.4v-.12a.6.6,0,1,1,1.2,0v.12c0,.841,0,1.682-.06,2.462A.6.6,0,0,1,79.339,43ZM.6,40.6A.567.567,0,0,1,0,40v-.06c0-.781,0-1.622.06-2.4A.543.543,0,0,1,.721,37a.543.543,0,0,1,.541.661C1.2,38.438,1.2,39.219,1.2,40A.6.6,0,0,1,.6,40.6Zm78.5-4.985a.639.639,0,0,1-.6-.541l-.36-2.342a.612.612,0,0,1,1.2-.24,16.207,16.207,0,0,1,.36,2.462.6.6,0,0,1-.541.661ZM1.261,33.393h-.12a.623.623,0,0,1-.48-.721,17.268,17.268,0,0,1,.541-2.4.57.57,0,0,1,.721-.42.57.57,0,0,1,.42.721c-.18.781-.36,1.562-.48,2.342A.585.585,0,0,1,1.261,33.393Zm76.276-4.865a.723.723,0,0,1-.6-.42c-.24-.781-.541-1.5-.781-2.222a.608.608,0,1,1,1.141-.42c.3.781.6,1.562.841,2.342a.625.625,0,0,1-.36.781A.454.454,0,0,0,77.538,28.529Zm-74.294-2.1a.454.454,0,0,1-.24-.06.625.625,0,0,1-.36-.781c.3-.781.6-1.5.961-2.282a.592.592,0,0,1,1.081.48,14.341,14.341,0,0,0-.9,2.222A.577.577,0,0,1,3.243,26.426Zm71.471-4.565a.631.631,0,0,1-.541-.3,22.77,22.77,0,0,0-1.2-2.042.608.608,0,0,1,1.021-.661c.42.721.841,1.381,1.261,2.1a.608.608,0,0,1-.24.841A2.6,2.6,0,0,0,74.715,21.862ZM6.486,19.88a.45.45,0,0,1-.3-.06.591.591,0,0,1-.18-.841,24.308,24.308,0,0,1,1.381-2.042.539.539,0,0,1,.841-.12.539.539,0,0,1,.12.841c-.48.661-.9,1.321-1.321,1.982A.734.734,0,0,1,6.486,19.88ZM70.631,15.8a.546.546,0,0,1-.48-.24c-.48-.6-1.021-1.2-1.562-1.8a.6.6,0,1,1,.9-.781c.541.6,1.081,1.2,1.622,1.862a.638.638,0,0,1-.06.841A.868.868,0,0,1,70.631,15.8Zm-59.76-1.682a.635.635,0,0,1-.48-1.021,23.827,23.827,0,0,1,1.742-1.742.595.595,0,0,1,.841.841c-.541.541-1.141,1.141-1.682,1.742A1.272,1.272,0,0,1,10.871,14.114Zm54.715-3.483a.644.644,0,0,1-.36-.12,22.6,22.6,0,0,0-1.862-1.5.6.6,0,0,1,.721-.961A24.21,24.21,0,0,1,66.006,9.61a.584.584,0,0,1,.06.841A1.147,1.147,0,0,1,65.586,10.631ZM16.216,9.189a.546.546,0,0,1-.48-.24.646.646,0,0,1,.12-.841l1.982-1.441A.608.608,0,0,1,18.5,7.688a22.292,22.292,0,0,0-1.922,1.381A.854.854,0,0,1,16.216,9.189ZM59.64,6.426a.541.541,0,0,1-.3-.06,23.431,23.431,0,0,0-2.1-1.141.592.592,0,1,1,.48-1.081c.721.36,1.441.781,2.162,1.141a.665.665,0,0,1,.24.841A.535.535,0,0,1,59.64,6.426ZM22.4,5.345a.577.577,0,0,1-.541-.36A.633.633,0,0,1,22.1,4.2c.721-.36,1.5-.721,2.222-1.021a.592.592,0,0,1,.48,1.081c-.721.3-1.441.661-2.162,1.021A.361.361,0,0,1,22.4,5.345ZM53.033,3.363a.221.221,0,0,1-.18-.06c-.721-.24-1.5-.48-2.282-.721a.618.618,0,0,1-.42-.721.618.618,0,0,1,.721-.42l2.342.721a.625.625,0,0,1,.36.781A.514.514,0,0,1,53.033,3.363ZM29.129,2.7a.723.723,0,0,1-.6-.42.57.57,0,0,1,.42-.721c.781-.24,1.562-.42,2.4-.6a.612.612,0,1,1,.24,1.2c-.781.18-1.562.36-2.342.6C29.249,2.7,29.189,2.7,29.129,2.7ZM45.946,1.622h-.12c-.781-.12-1.562-.24-2.342-.3a.543.543,0,0,1-.541-.661A.543.543,0,0,1,43.6.12c.841.06,1.622.18,2.462.3a.6.6,0,0,1,.48.661A.552.552,0,0,1,45.946,1.622Zm-9.67-.24a.639.639,0,0,1-.6-.541c-.06-.3.24-.6.541-.661A17.62,17.62,0,0,1,38.679,0a.6.6,0,0,1,.6.6.567.567,0,0,1-.6.6,17.454,17.454,0,0,0-2.4.18Z" transform="translate(0 0)"/>
      </g>
    </g>
    <g id="icone_studion_novato" transform="translate(7 15)">
      <path id="Path_2360" data-name="Path 2360" class="cls-1" d="M69.568,75l-7.284,9.886L55,75Z" transform="translate(-20.148 -35.978)"/>
      <path id="Path_2361" data-name="Path 2361" class="cls-3" d="M25.406,48.826c0,.572-.1,1.041-.26,1.041H16.041A1.044,1.044,0,0,1,15,48.826V3.041A1.044,1.044,0,0,1,16.041,2h9.105c.156,0,.26.468.26,1.041Z" transform="translate(-0.959 -0.959)"/>
      <path id="Path_2362" data-name="Path 2362" class="cls-3" d="M39.162,48.826a1.044,1.044,0,0,1-1.041,1.041H36.041A1.044,1.044,0,0,1,35,48.826V3.041A1.044,1.044,0,0,1,36.041,2h2.081a1.044,1.044,0,0,1,1.041,1.041Z" transform="translate(-10.554 -0.959)"/>
      <path id="Path_2363" data-name="Path 2363" class="cls-2" d="M69.568,44.7a1.044,1.044,0,0,1-1.041,1.041H67.487a1.858,1.858,0,0,1-1.509-.676.839.839,0,0,0-1.3-.156,3.857,3.857,0,0,1-4.787,0,.8.8,0,0,0-1.3.1,1.858,1.858,0,0,1-1.509.676H56.041A1.044,1.044,0,0,1,55,44.645v-29.6A1.044,1.044,0,0,1,56.041,14H68.528a1.044,1.044,0,0,1,1.041,1.041Z" transform="translate(-20.148 -6.716)"/>
      <g id="Group_4690" data-name="Group 4690" transform="translate(13)">
        <path id="Path_2364" data-name="Path 2364" class="cls-4" d="M27.568,0H24.707a.469.469,0,0,0-.26.052A.469.469,0,0,0,24.186,0H15.081A2.087,2.087,0,0,0,13,2.081V47.867a2.087,2.087,0,0,0,2.081,2.081h9.105a.469.469,0,0,0,.26-.052c.1,0,.156.052.26.052h2.862a2.087,2.087,0,0,0,2.081-2.081V15.609a1.041,1.041,0,1,0-2.081,0V47.867H25.487V2.081h2.081V3.122a1.041,1.041,0,1,0,2.081,0V2.081A2.087,2.087,0,0,0,27.568,0ZM15.081,47.867V43.7h1.041a1.041,1.041,0,1,0,0-2.081H15.081V39.542H18.2a1.041,1.041,0,1,0,0-2.081H15.081V35.38h1.041a1.041,1.041,0,1,0,0-2.081H15.081V31.217H18.2a1.041,1.041,0,1,0,0-2.081H15.081V27.055h1.041a1.041,1.041,0,1,0,0-2.081H15.081V22.893H18.2a1.041,1.041,0,0,0,0-2.081H15.081V18.73h1.041a1.041,1.041,0,1,0,0-2.081H15.081V14.568H18.2a1.041,1.041,0,0,0,0-2.081H15.081V10.406h1.041a1.041,1.041,0,1,0,0-2.081H15.081V6.243H18.2a1.041,1.041,0,0,0,0-2.081H15.081V2.081h8.325V47.867Z" transform="translate(-13)"/>
        <circle id="Ellipse_451" data-name="Ellipse 451" class="cls-4" cx="1.041" cy="1.041" r="1.041" transform="translate(14.568 6.243)"/>
      </g>
      <rect id="Rectangle_2089" data-name="Rectangle 2089" class="cls-1" width="14.568" height="4.162" transform="translate(34.852 7.284)"/>
      <rect id="Rectangle_2090" data-name="Rectangle 2090" class="cls-5" width="14.568" height="6.243" transform="translate(34.852 1.041)"/>
      <g id="Group_4691" data-name="Group 4691" transform="translate(33.812)">
        <circle id="Ellipse_452" data-name="Ellipse 452" class="cls-4" cx="1.041" cy="1.041" r="1.041" transform="translate(14.568 16.649)"/>
        <path id="Path_2365" data-name="Path 2365" class="cls-4" d="M68.609,0H54.041A1.044,1.044,0,0,0,53,1.041V37.981a.66.66,0,0,0,.052.312,1.206,1.206,0,0,0,.156.832l7.284,10.406a1.146,1.146,0,0,0,.832.468.938.938,0,0,0,.832-.468l7.284-10.406a1.206,1.206,0,0,0,.156-.832c0-.1.052-.208.052-.312V26.015a1.041,1.041,0,0,0-2.081,0V37.981H66.528a.912.912,0,0,1-.624-.208,1.584,1.584,0,0,0-.416-.416V17.69a1.041,1.041,0,0,0-2.081,0V37.149a2.886,2.886,0,0,0-.416.312,2.924,2.924,0,0,1-3.33,0,2.886,2.886,0,0,0-.416-.312V12.487h8.325v1.041a1.041,1.041,0,0,0,2.081,0V1.041A1.044,1.044,0,0,0,68.609,0ZM55.081,2.081H67.568V6.243H55.081Zm6.243,45.005L59.66,44.745h3.278Zm0-7.024a4.673,4.673,0,0,0,2.966-.989,2.889,2.889,0,0,0,1.977.989l-1.821,2.6H58.2l-1.821-2.6a2.889,2.889,0,0,0,1.977-.989A4.673,4.673,0,0,0,61.325,40.062ZM57.162,37.3a1.4,1.4,0,0,0-.364.416c0,.052-.208.26-.676.26H55.081V12.487h2.081Zm-2.081-26.9V8.325H67.568v2.081Z" transform="translate(-53)"/>
      </g>
    </g>
  </g>
</svg>
