<svg xmlns="http://www.w3.org/2000/svg" viewBox="5530 1100 80 80">
  <defs>
    <style>
      .cls-1 {
        fill: #96d1cf;
      }

      .cls-2 {
        fill: #01afaa;
      }

      .cls-3 {
        fill: #5c2e91;
      }

      .cls-4 {
        fill: #9d85c1;
      }

      .cls-5 {
        fill: #f3f4f7;
      }

      .cls-6 {
        fill: #350756;
      }
    </style>
  </defs>
  <g id="Group_4693" data-name="Group 4693" transform="translate(5370 930)">
    <g id="Group_4673" data-name="Group 4673" transform="translate(160 170)">
      <g id="Group_878" data-name="Group 878" transform="translate(0 0)">
        <g id="Group_876" data-name="Group 876" transform="translate(0.601 0.601)">
          <circle id="Ellipse_124" data-name="Ellipse 124" class="cls-1" cx="39.399" cy="39.399" r="39.399"/>
        </g>
        <g id="Group_877" data-name="Group 877">
          <path id="Path_1617" data-name="Path 1617" class="cls-2" d="M41.261,80a.6.6,0,0,1-.6-.6.567.567,0,0,1,.6-.6c.781,0,1.622-.06,2.4-.12.3-.06.6.24.661.541s-.24.6-.541.661c-.841,0-1.682.06-2.523.12ZM36.4,79.82h0c-.841-.06-1.682-.18-2.523-.3a.578.578,0,0,1,.18-1.141c.781.12,1.562.24,2.342.3a.573.573,0,0,1,.541.661C37,79.58,36.7,79.82,36.4,79.82ZM48.468,79.1a.585.585,0,0,1-.6-.48.608.608,0,0,1,.48-.721c.781-.18,1.562-.36,2.342-.6a.59.59,0,0,1,.3,1.141c-.781.24-1.562.42-2.4.6C48.529,79.1,48.529,79.1,48.468,79.1Zm-19.219-.6h-.18l-2.342-.721a.608.608,0,1,1,.42-1.141c.721.24,1.5.48,2.282.721a.652.652,0,0,1,.42.721A.723.723,0,0,1,29.249,78.5Zm26.126-1.622a.525.525,0,0,1-.541-.36.6.6,0,0,1,.3-.781c.721-.3,1.441-.661,2.162-1.021a.578.578,0,1,1,.541,1.021c-.721.36-1.5.721-2.222,1.021C55.556,76.877,55.5,76.877,55.375,76.877Zm-32.913-.961a.361.361,0,0,1-.24-.06c-.721-.36-1.441-.781-2.162-1.141a.618.618,0,0,1,.6-1.081c.721.42,1.381.781,2.1,1.141a.6.6,0,0,1,.3.781A.731.731,0,0,1,22.462,75.916ZM61.8,73.453a.741.741,0,0,1-.48-.24.591.591,0,0,1,.18-.841,22.29,22.29,0,0,0,1.922-1.381.6.6,0,1,1,.721.961l-1.982,1.441C62.042,73.393,61.922,73.453,61.8,73.453ZM16.276,72.072a.854.854,0,0,1-.36-.12,24.21,24.21,0,0,1-1.922-1.562.6.6,0,1,1,.781-.9,22.6,22.6,0,0,0,1.862,1.5.646.646,0,0,1,.12.841A.546.546,0,0,1,16.276,72.072Zm51.171-3.183a.545.545,0,0,1-.42-.18.581.581,0,0,1,0-.841c.541-.541,1.141-1.141,1.682-1.742a.6.6,0,1,1,.9.781,23.827,23.827,0,0,1-1.742,1.742A.453.453,0,0,1,67.447,68.889ZM10.931,67.147a.545.545,0,0,1-.42-.18c-.541-.6-1.081-1.261-1.622-1.862a.6.6,0,0,1,.961-.721c.48.6,1.021,1.2,1.562,1.8a.584.584,0,0,1-.06.841A1.528,1.528,0,0,1,10.931,67.147Zm61.261-3.784a.854.854,0,0,1-.36-.12.539.539,0,0,1-.12-.841c.48-.661.9-1.321,1.321-1.982a.608.608,0,1,1,1.021.661,24.307,24.307,0,0,1-1.381,2.042A.546.546,0,0,1,72.192,63.363ZM6.547,61.381a.717.717,0,0,1-.541-.3c-.42-.721-.841-1.441-1.261-2.1a.618.618,0,0,1,1.081-.6,22.77,22.77,0,0,0,1.2,2.042.647.647,0,0,1-.18.841A1.015,1.015,0,0,1,6.547,61.381ZM75.8,57.057a.361.361,0,0,1-.24-.06.6.6,0,0,1-.3-.781c.36-.721.661-1.441.961-2.222a.608.608,0,0,1,1.141.42c-.3.781-.6,1.5-.961,2.282A.661.661,0,0,1,75.8,57.057ZM3.243,54.895a.525.525,0,0,1-.541-.36c-.3-.781-.6-1.562-.841-2.342a.625.625,0,0,1,.36-.781.625.625,0,0,1,.781.36c.24.781.48,1.5.781,2.282a.625.625,0,0,1-.36.781C3.423,54.895,3.363,54.895,3.243,54.895ZM78.258,50.21h-.12a.57.57,0,0,1-.42-.721c.18-.781.36-1.562.48-2.342a.612.612,0,1,1,1.2.24,17.27,17.27,0,0,1-.541,2.4A.723.723,0,0,1,78.258,50.21Zm-77-2.342a.585.585,0,0,1-.6-.48c-.12-.781-.3-1.622-.36-2.462a.6.6,0,0,1,.541-.661A.6.6,0,0,1,1.5,44.8l.36,2.342a.659.659,0,0,1-.48.721ZM79.339,43h0a.617.617,0,0,1-.6-.661c.06-.781.06-1.562.06-2.4v-.12a.6.6,0,1,1,1.2,0v.12c0,.841,0,1.682-.06,2.462A.6.6,0,0,1,79.339,43ZM.6,40.6A.567.567,0,0,1,0,40v-.06c0-.781,0-1.622.06-2.4A.543.543,0,0,1,.721,37a.543.543,0,0,1,.541.661C1.2,38.438,1.2,39.219,1.2,40A.6.6,0,0,1,.6,40.6Zm78.5-4.985a.639.639,0,0,1-.6-.541l-.36-2.342a.612.612,0,0,1,1.2-.24,16.207,16.207,0,0,1,.36,2.462.6.6,0,0,1-.541.661ZM1.261,33.393h-.12a.623.623,0,0,1-.48-.721,17.268,17.268,0,0,1,.541-2.4.57.57,0,0,1,.721-.42.57.57,0,0,1,.42.721c-.18.781-.36,1.562-.48,2.342A.585.585,0,0,1,1.261,33.393Zm76.276-4.865a.723.723,0,0,1-.6-.42c-.24-.781-.541-1.5-.781-2.222a.608.608,0,1,1,1.141-.42c.3.781.6,1.562.841,2.342a.625.625,0,0,1-.36.781A.454.454,0,0,0,77.538,28.529Zm-74.294-2.1a.454.454,0,0,1-.24-.06.625.625,0,0,1-.36-.781c.3-.781.6-1.5.961-2.282a.592.592,0,0,1,1.081.48,14.341,14.341,0,0,0-.9,2.222A.577.577,0,0,1,3.243,26.426Zm71.471-4.565a.631.631,0,0,1-.541-.3,22.77,22.77,0,0,0-1.2-2.042.608.608,0,0,1,1.021-.661c.42.721.841,1.381,1.261,2.1a.608.608,0,0,1-.24.841A2.6,2.6,0,0,0,74.715,21.862ZM6.486,19.88a.45.45,0,0,1-.3-.06.591.591,0,0,1-.18-.841,24.308,24.308,0,0,1,1.381-2.042.539.539,0,0,1,.841-.12.539.539,0,0,1,.12.841c-.48.661-.9,1.321-1.321,1.982A.734.734,0,0,1,6.486,19.88ZM70.631,15.8a.546.546,0,0,1-.48-.24c-.48-.6-1.021-1.2-1.562-1.8a.6.6,0,1,1,.9-.781c.541.6,1.081,1.2,1.622,1.862a.638.638,0,0,1-.06.841A.868.868,0,0,1,70.631,15.8Zm-59.76-1.682a.635.635,0,0,1-.48-1.021,23.827,23.827,0,0,1,1.742-1.742.595.595,0,0,1,.841.841c-.541.541-1.141,1.141-1.682,1.742A1.272,1.272,0,0,1,10.871,14.114Zm54.715-3.483a.644.644,0,0,1-.36-.12,22.6,22.6,0,0,0-1.862-1.5.6.6,0,0,1,.721-.961A24.21,24.21,0,0,1,66.006,9.61a.584.584,0,0,1,.06.841A1.147,1.147,0,0,1,65.586,10.631ZM16.216,9.189a.546.546,0,0,1-.48-.24.646.646,0,0,1,.12-.841l1.982-1.441A.608.608,0,0,1,18.5,7.688a22.292,22.292,0,0,0-1.922,1.381A.854.854,0,0,1,16.216,9.189ZM59.64,6.426a.541.541,0,0,1-.3-.06,23.431,23.431,0,0,0-2.1-1.141.592.592,0,1,1,.48-1.081c.721.36,1.441.781,2.162,1.141a.665.665,0,0,1,.24.841A.535.535,0,0,1,59.64,6.426ZM22.4,5.345a.577.577,0,0,1-.541-.36A.633.633,0,0,1,22.1,4.2c.721-.36,1.5-.721,2.222-1.021a.592.592,0,0,1,.48,1.081c-.721.3-1.441.661-2.162,1.021A.361.361,0,0,1,22.4,5.345ZM53.033,3.363a.221.221,0,0,1-.18-.06c-.721-.24-1.5-.48-2.282-.721a.618.618,0,0,1-.42-.721.618.618,0,0,1,.721-.42l2.342.721a.625.625,0,0,1,.36.781A.514.514,0,0,1,53.033,3.363ZM29.129,2.7a.723.723,0,0,1-.6-.42.57.57,0,0,1,.42-.721c.781-.24,1.562-.42,2.4-.6a.612.612,0,1,1,.24,1.2c-.781.18-1.562.36-2.342.6C29.249,2.7,29.189,2.7,29.129,2.7ZM45.946,1.622h-.12c-.781-.12-1.562-.24-2.342-.3a.543.543,0,0,1-.541-.661A.543.543,0,0,1,43.6.12c.841.06,1.622.18,2.462.3a.6.6,0,0,1,.48.661A.552.552,0,0,1,45.946,1.622Zm-9.67-.24a.639.639,0,0,1-.6-.541c-.06-.3.24-.6.541-.661A17.62,17.62,0,0,1,38.679,0a.6.6,0,0,1,.6.6.567.567,0,0,1-.6.6,17.454,17.454,0,0,0-2.4.18Z" transform="translate(0 0)"/>
        </g>
      </g>
    </g>
    <g id="icone_studion_mediano" transform="translate(172 178.966)">
      <path id="Path_2344" data-name="Path 2344" class="cls-2" d="M36.443,56.675,3.168,45A19.708,19.708,0,0,0,2,51.422a10.047,10.047,0,0,0,1.168,5.254L36.443,68.935" transform="translate(-0.832 -15.386)"/>
      <path id="Path_2345" data-name="Path 2345" class="cls-3" d="M36.443,36.508,3.168,26A14.506,14.506,0,0,0,2,31.838a10.047,10.047,0,0,0,1.168,5.254L36.443,48.767" transform="translate(-0.832 -7.478)"/>
      <path id="Path_2346" data-name="Path 2346" class="cls-4" d="M4,19.34,25.6,10l30.94,9.924L37.275,29.848Z" transform="translate(-1.665 -0.818)"/>
      <path id="Path_2347" data-name="Path 2347" class="cls-5" d="M76.513,50,60.168,58.757A14.166,14.166,0,0,0,59,64.594a15.49,15.49,0,0,0,1.168,6.422L77.506,60.741" transform="translate(-24.557 -17.467)"/>
      <path id="Path_2348" data-name="Path 2348" class="cls-5" d="M78.265,28l-18.1,9.34A14.166,14.166,0,0,0,59,43.178,15.489,15.489,0,0,0,60.168,49.6l16.346-8.757" transform="translate(-24.557 -8.31)"/>
      <g id="Group_4683" data-name="Group 4683" transform="translate(0 8.034)">
        <path id="Path_2349" data-name="Path 2349" class="cls-6" d="M55.867,41.873a1.109,1.109,0,0,0-1.576-.409l-.584.35c-1.226-4.437.467-9.34.525-9.457a1.437,1.437,0,0,0,.058-.7,1.139,1.139,0,0,0-.058-.759c-1.985-4.437-.234-9.457,0-10.158l1.226-.642a1.252,1.252,0,0,0,.642-1.109A1.125,1.125,0,0,0,55.283,18l-14.594-4.67a1.163,1.163,0,1,0-.7,2.218L51.9,19.339l-16.4,8.406-29.831-9.4,18.331-7.939,3.094.992a1.163,1.163,0,0,0,.7-2.218l-3.5-1.109a1.283,1.283,0,0,0-.817.058l-21.6,9.34h0c-.117.058-.175.117-.292.175H1.518a.806.806,0,0,0-.175.234.057.057,0,0,1-.058.058L1.226,18A17.55,17.55,0,0,0,0,24.36a12.54,12.54,0,0,0,1.051,5.371A20.8,20.8,0,0,0,0,36.035a11.258,11.258,0,0,0,1.343,5.9,1.166,1.166,0,0,0,.584.467l33.1,12.2c.058.058.175.058.234.117h.35a1.126,1.126,0,0,0,.584-.175l16.988-9.749a1.082,1.082,0,0,0,.409-.117,1.03,1.03,0,0,0,.525-.467l1.343-.759A1.087,1.087,0,0,0,55.867,41.873ZM5.312,26.462a1.172,1.172,0,0,0,1.109.817.74.74,0,0,0,.35-.058,1.208,1.208,0,0,0,.759-1.459,5.618,5.618,0,0,1,.175-4.32l21.483,6.772a11.916,11.916,0,0,0-.409,6.246,1.187,1.187,0,0,0,1.168.992h.175a1.139,1.139,0,0,0,.934-1.343,9.667,9.667,0,0,1,.35-5.137l2.627.817a16.923,16.923,0,0,0-.759,5.079,18.763,18.763,0,0,0,.525,4.553L3.152,28.68a10.272,10.272,0,0,1-.817-4.32,14.447,14.447,0,0,1,.7-4.378l2.393.759A8.335,8.335,0,0,0,5.312,26.462Zm30.94,25.394a15.852,15.852,0,0,1-.525-2.627L48.453,42.34A1.162,1.162,0,1,0,47.344,40.3L35.61,46.66a13.963,13.963,0,0,1,.876-4.5l14.828-7.939a17.617,17.617,0,0,0,.292,8.815ZM50.963,24.71l-8.29,3.853a1.248,1.248,0,0,0-.584,1.576,1.22,1.22,0,0,0,1.051.7,1.1,1.1,0,0,0,.467-.117l7.356-3.444a15.093,15.093,0,0,0,.876,4.086.83.83,0,0,0-.35.117c-.058,0-.058,0-.117.058L36.194,39.655a21.126,21.126,0,0,1-.584-4.787,14.957,14.957,0,0,1,.876-4.962l14.886-7.647A21.381,21.381,0,0,0,50.963,24.71ZM2.335,36.035a16.932,16.932,0,0,1,.759-4.9l2.8.992a8.017,8.017,0,0,0-.584,6.655,1.2,1.2,0,0,0,1.109.759.74.74,0,0,0,.35-.058,1.208,1.208,0,0,0,.759-1.459,5.6,5.6,0,0,1,.409-4.787l.175-.35L29.247,40.3a12.416,12.416,0,0,0-.525,6.48,1.187,1.187,0,0,0,1.168.992h.175A1.139,1.139,0,0,0,31,46.427a10.136,10.136,0,0,1,.35-5.137c0-.058,0-.058.058-.117l2.627.934a17.051,17.051,0,0,0-.817,5.137,22.127,22.127,0,0,0,.467,4.5L3.152,40.355A10.036,10.036,0,0,1,2.335,36.035Z" transform="translate(0 -8.034)"/>
        <circle id="Ellipse_444" data-name="Ellipse 444" class="cls-6" cx="1.168" cy="1.168" r="1.168" transform="translate(37.945 22.747)"/>
        <circle id="Ellipse_445" data-name="Ellipse 445" class="cls-6" cx="1.168" cy="1.168" r="1.168" transform="translate(30.356 2.315)"/>
      </g>
    </g>
  </g>
</svg>
