<svg xmlns="http://www.w3.org/2000/svg" viewBox="5650 980 80 80">
  <defs>
    <style>
      .cls-1 {
        fill: #96d1cf;
      }

      .cls-2 {
        fill: #01afaa;
      }

      .cls-3 {
        fill: #4dc1ff;
      }

      .cls-4 {
        fill: #fff;
      }

      .cls-5 {
        fill: #ffc14d;
      }

      .cls-6 {
        fill: #350756;
      }
    </style>
  </defs>
  <g id="Group_4692" data-name="Group 4692" transform="translate(5610 930)">
    <g id="Group_4671" data-name="Group 4671" transform="translate(40 50)">
      <g id="Group_878" data-name="Group 878" transform="translate(0 0)">
        <g id="Group_876" data-name="Group 876" transform="translate(0.601 0.601)">
          <circle id="Ellipse_124" data-name="Ellipse 124" class="cls-1" cx="39.399" cy="39.399" r="39.399"/>
        </g>
        <g id="Group_877" data-name="Group 877">
          <path id="Path_1617" data-name="Path 1617" class="cls-2" d="M41.261,80a.6.6,0,0,1-.6-.6.567.567,0,0,1,.6-.6c.781,0,1.622-.06,2.4-.12.3-.06.6.24.661.541s-.24.6-.541.661c-.841,0-1.682.06-2.523.12ZM36.4,79.82h0c-.841-.06-1.682-.18-2.523-.3a.578.578,0,0,1,.18-1.141c.781.12,1.562.24,2.342.3a.573.573,0,0,1,.541.661C37,79.58,36.7,79.82,36.4,79.82ZM48.468,79.1a.585.585,0,0,1-.6-.48.608.608,0,0,1,.48-.721c.781-.18,1.562-.36,2.342-.6a.59.59,0,0,1,.3,1.141c-.781.24-1.562.42-2.4.6C48.529,79.1,48.529,79.1,48.468,79.1Zm-19.219-.6h-.18l-2.342-.721a.608.608,0,1,1,.42-1.141c.721.24,1.5.48,2.282.721a.652.652,0,0,1,.42.721A.723.723,0,0,1,29.249,78.5Zm26.126-1.622a.525.525,0,0,1-.541-.36.6.6,0,0,1,.3-.781c.721-.3,1.441-.661,2.162-1.021a.578.578,0,1,1,.541,1.021c-.721.36-1.5.721-2.222,1.021C55.556,76.877,55.5,76.877,55.375,76.877Zm-32.913-.961a.361.361,0,0,1-.24-.06c-.721-.36-1.441-.781-2.162-1.141a.618.618,0,0,1,.6-1.081c.721.42,1.381.781,2.1,1.141a.6.6,0,0,1,.3.781A.731.731,0,0,1,22.462,75.916ZM61.8,73.453a.741.741,0,0,1-.48-.24.591.591,0,0,1,.18-.841,22.29,22.29,0,0,0,1.922-1.381.6.6,0,1,1,.721.961l-1.982,1.441C62.042,73.393,61.922,73.453,61.8,73.453ZM16.276,72.072a.854.854,0,0,1-.36-.12,24.21,24.21,0,0,1-1.922-1.562.6.6,0,1,1,.781-.9,22.6,22.6,0,0,0,1.862,1.5.646.646,0,0,1,.12.841A.546.546,0,0,1,16.276,72.072Zm51.171-3.183a.545.545,0,0,1-.42-.18.581.581,0,0,1,0-.841c.541-.541,1.141-1.141,1.682-1.742a.6.6,0,1,1,.9.781,23.827,23.827,0,0,1-1.742,1.742A.453.453,0,0,1,67.447,68.889ZM10.931,67.147a.545.545,0,0,1-.42-.18c-.541-.6-1.081-1.261-1.622-1.862a.6.6,0,0,1,.961-.721c.48.6,1.021,1.2,1.562,1.8a.584.584,0,0,1-.06.841A1.528,1.528,0,0,1,10.931,67.147Zm61.261-3.784a.854.854,0,0,1-.36-.12.539.539,0,0,1-.12-.841c.48-.661.9-1.321,1.321-1.982a.608.608,0,1,1,1.021.661,24.307,24.307,0,0,1-1.381,2.042A.546.546,0,0,1,72.192,63.363ZM6.547,61.381a.717.717,0,0,1-.541-.3c-.42-.721-.841-1.441-1.261-2.1a.618.618,0,0,1,1.081-.6,22.77,22.77,0,0,0,1.2,2.042.647.647,0,0,1-.18.841A1.015,1.015,0,0,1,6.547,61.381ZM75.8,57.057a.361.361,0,0,1-.24-.06.6.6,0,0,1-.3-.781c.36-.721.661-1.441.961-2.222a.608.608,0,0,1,1.141.42c-.3.781-.6,1.5-.961,2.282A.661.661,0,0,1,75.8,57.057ZM3.243,54.895a.525.525,0,0,1-.541-.36c-.3-.781-.6-1.562-.841-2.342a.625.625,0,0,1,.36-.781.625.625,0,0,1,.781.36c.24.781.48,1.5.781,2.282a.625.625,0,0,1-.36.781C3.423,54.895,3.363,54.895,3.243,54.895ZM78.258,50.21h-.12a.57.57,0,0,1-.42-.721c.18-.781.36-1.562.48-2.342a.612.612,0,1,1,1.2.24,17.27,17.27,0,0,1-.541,2.4A.723.723,0,0,1,78.258,50.21Zm-77-2.342a.585.585,0,0,1-.6-.48c-.12-.781-.3-1.622-.36-2.462a.6.6,0,0,1,.541-.661A.6.6,0,0,1,1.5,44.8l.36,2.342a.659.659,0,0,1-.48.721ZM79.339,43h0a.617.617,0,0,1-.6-.661c.06-.781.06-1.562.06-2.4v-.12a.6.6,0,1,1,1.2,0v.12c0,.841,0,1.682-.06,2.462A.6.6,0,0,1,79.339,43ZM.6,40.6A.567.567,0,0,1,0,40v-.06c0-.781,0-1.622.06-2.4A.543.543,0,0,1,.721,37a.543.543,0,0,1,.541.661C1.2,38.438,1.2,39.219,1.2,40A.6.6,0,0,1,.6,40.6Zm78.5-4.985a.639.639,0,0,1-.6-.541l-.36-2.342a.612.612,0,0,1,1.2-.24,16.207,16.207,0,0,1,.36,2.462.6.6,0,0,1-.541.661ZM1.261,33.393h-.12a.623.623,0,0,1-.48-.721,17.268,17.268,0,0,1,.541-2.4.57.57,0,0,1,.721-.42.57.57,0,0,1,.42.721c-.18.781-.36,1.562-.48,2.342A.585.585,0,0,1,1.261,33.393Zm76.276-4.865a.723.723,0,0,1-.6-.42c-.24-.781-.541-1.5-.781-2.222a.608.608,0,1,1,1.141-.42c.3.781.6,1.562.841,2.342a.625.625,0,0,1-.36.781A.454.454,0,0,0,77.538,28.529Zm-74.294-2.1a.454.454,0,0,1-.24-.06.625.625,0,0,1-.36-.781c.3-.781.6-1.5.961-2.282a.592.592,0,0,1,1.081.48,14.341,14.341,0,0,0-.9,2.222A.577.577,0,0,1,3.243,26.426Zm71.471-4.565a.631.631,0,0,1-.541-.3,22.77,22.77,0,0,0-1.2-2.042.608.608,0,0,1,1.021-.661c.42.721.841,1.381,1.261,2.1a.608.608,0,0,1-.24.841A2.6,2.6,0,0,0,74.715,21.862ZM6.486,19.88a.45.45,0,0,1-.3-.06.591.591,0,0,1-.18-.841,24.308,24.308,0,0,1,1.381-2.042.539.539,0,0,1,.841-.12.539.539,0,0,1,.12.841c-.48.661-.9,1.321-1.321,1.982A.734.734,0,0,1,6.486,19.88ZM70.631,15.8a.546.546,0,0,1-.48-.24c-.48-.6-1.021-1.2-1.562-1.8a.6.6,0,1,1,.9-.781c.541.6,1.081,1.2,1.622,1.862a.638.638,0,0,1-.06.841A.868.868,0,0,1,70.631,15.8Zm-59.76-1.682a.635.635,0,0,1-.48-1.021,23.827,23.827,0,0,1,1.742-1.742.595.595,0,0,1,.841.841c-.541.541-1.141,1.141-1.682,1.742A1.272,1.272,0,0,1,10.871,14.114Zm54.715-3.483a.644.644,0,0,1-.36-.12,22.6,22.6,0,0,0-1.862-1.5.6.6,0,0,1,.721-.961A24.21,24.21,0,0,1,66.006,9.61a.584.584,0,0,1,.06.841A1.147,1.147,0,0,1,65.586,10.631ZM16.216,9.189a.546.546,0,0,1-.48-.24.646.646,0,0,1,.12-.841l1.982-1.441A.608.608,0,0,1,18.5,7.688a22.292,22.292,0,0,0-1.922,1.381A.854.854,0,0,1,16.216,9.189ZM59.64,6.426a.541.541,0,0,1-.3-.06,23.431,23.431,0,0,0-2.1-1.141.592.592,0,1,1,.48-1.081c.721.36,1.441.781,2.162,1.141a.665.665,0,0,1,.24.841A.535.535,0,0,1,59.64,6.426ZM22.4,5.345a.577.577,0,0,1-.541-.36A.633.633,0,0,1,22.1,4.2c.721-.36,1.5-.721,2.222-1.021a.592.592,0,0,1,.48,1.081c-.721.3-1.441.661-2.162,1.021A.361.361,0,0,1,22.4,5.345ZM53.033,3.363a.221.221,0,0,1-.18-.06c-.721-.24-1.5-.48-2.282-.721a.618.618,0,0,1-.42-.721.618.618,0,0,1,.721-.42l2.342.721a.625.625,0,0,1,.36.781A.514.514,0,0,1,53.033,3.363ZM29.129,2.7a.723.723,0,0,1-.6-.42.57.57,0,0,1,.42-.721c.781-.24,1.562-.42,2.4-.6a.612.612,0,1,1,.24,1.2c-.781.18-1.562.36-2.342.6C29.249,2.7,29.189,2.7,29.129,2.7ZM45.946,1.622h-.12c-.781-.12-1.562-.24-2.342-.3a.543.543,0,0,1-.541-.661A.543.543,0,0,1,43.6.12c.841.06,1.622.18,2.462.3a.6.6,0,0,1,.48.661A.552.552,0,0,1,45.946,1.622Zm-9.67-.24a.639.639,0,0,1-.6-.541c-.06-.3.24-.6.541-.661A17.62,17.62,0,0,1,38.679,0a.6.6,0,0,1,.6.6.567.567,0,0,1-.6.6,17.454,17.454,0,0,0-2.4.18Z" transform="translate(0 0)"/>
        </g>
      </g>
    </g>
    <g id="icone_studion_aprendiz" transform="translate(48 48)">
      <circle id="Ellipse_431" data-name="Ellipse 431" class="cls-3" cx="12" cy="12" r="12" transform="translate(4 30.333)"/>
      <circle id="Ellipse_432" data-name="Ellipse 432" class="cls-3" cx="12" cy="12" r="12" transform="translate(36 30.333)"/>
      <g id="Group_4679" data-name="Group 4679" transform="translate(8.044 34.333)">
        <path id="Path_2327" data-name="Path 2327" class="cls-4" d="M19.889,37a7.991,7.991,0,0,0-7.8,6.333,1.415,1.415,0,0,0,1,1.6,1.415,1.415,0,0,0,1.6-1,5.327,5.327,0,0,1,10.533,1.133,1.333,1.333,0,0,0,2.667,0A8.038,8.038,0,0,0,19.889,37Z" transform="translate(-12.066 -37)"/>
        <path id="Path_2328" data-name="Path 2328" class="cls-4" d="M67.889,37a7.991,7.991,0,0,0-7.8,6.333,1.334,1.334,0,1,0,2.6.6,5.327,5.327,0,0,1,10.533,1.133,1.333,1.333,0,1,0,2.667,0A8.038,8.038,0,0,0,67.889,37Z" transform="translate(-28.066 -37)"/>
        <circle id="Ellipse_433" data-name="Ellipse 433" class="cls-4" cx="1.333" cy="1.333" r="1.333" transform="translate(0.623 10)"/>
        <circle id="Ellipse_434" data-name="Ellipse 434" class="cls-4" cx="1.333" cy="1.333" r="1.333" transform="translate(32.623 10)"/>
      </g>
      <circle id="Ellipse_435" data-name="Ellipse 435" class="cls-5" cx="3.667" cy="3.667" r="3.667" transform="translate(1.333 33)"/>
      <circle id="Ellipse_436" data-name="Ellipse 436" class="cls-5" cx="3.667" cy="3.667" r="3.667" transform="translate(55.333 33)"/>
      <path id="Path_2329" data-name="Path 2329" class="cls-6" d="M64,36.667a5.036,5.036,0,0,0-5-5,4.679,4.679,0,0,0-2.333.6A13.269,13.269,0,0,0,48,29a13.1,13.1,0,0,0-8.867,3.4,9.183,9.183,0,0,0-14.267,0A13.1,13.1,0,0,0,16,29a12.931,12.931,0,0,0-8.667,3.267A5.256,5.256,0,0,0,5,31.667a5.036,5.036,0,0,0-5,5,5.117,5.117,0,0,0,2.733,4.467,7.246,7.246,0,0,0-.067,1.2,13.333,13.333,0,1,0,24.067-7.867c.667-1.4,2.867-2.8,5.333-2.8a6.075,6.075,0,0,1,5.2,2.8,13.323,13.323,0,1,0,24.067,7.867,7.246,7.246,0,0,0-.067-1.2A5.117,5.117,0,0,0,64,36.667ZM5,34.333A2.333,2.333,0,1,1,5,39a2.333,2.333,0,1,1,0-4.667ZM16,53A10.7,10.7,0,0,1,5.333,42.333a2.268,2.268,0,0,1,.067-.667,4.966,4.966,0,0,0,4.6-5,5.1,5.1,0,0,0-.733-2.6A10.909,10.909,0,0,1,16,31.667,10.667,10.667,0,0,1,16,53Zm32,0a10.667,10.667,0,0,1,0-21.333,10.909,10.909,0,0,1,6.733,2.4,4.925,4.925,0,0,0-.733,2.6,5.064,5.064,0,0,0,4.6,5c0,.2.067.467.067.667A10.7,10.7,0,0,1,48,53ZM59,39a2.333,2.333,0,1,1,2.333-2.333A2.362,2.362,0,0,1,59,39Z"/>
    </g>
  </g>
</svg>
