<svg xmlns="http://www.w3.org/2000/svg" viewBox="5589.5 1460 80 80">
  <defs>
    <style>
      .cls-1 {
        fill: #96d1cf;
      }

      .cls-2 {
        fill: #01afaa;
      }

      .cls-3 {
        fill: #5c2e91;
      }

      .cls-4 {
        fill: #9d85c1;
      }

      .cls-5 {
        fill: #350756;
      }
    </style>
  </defs>
  <g id="Group_4694" data-name="Group 4694" transform="translate(5589.5 1460)">
    <g id="Group_878" data-name="Group 878" transform="translate(0 0)">
      <g id="Group_876" data-name="Group 876" transform="translate(0.601 0.601)">
        <circle id="Ellipse_124" data-name="Ellipse 124" class="cls-1" cx="39.399" cy="39.399" r="39.399"/>
      </g>
      <g id="Group_877" data-name="Group 877">
        <path id="Path_1617" data-name="Path 1617" class="cls-2" d="M41.261,80a.6.6,0,0,1-.6-.6.567.567,0,0,1,.6-.6c.781,0,1.622-.06,2.4-.12.3-.06.6.24.661.541s-.24.6-.541.661c-.841,0-1.682.06-2.523.12ZM36.4,79.82h0c-.841-.06-1.682-.18-2.523-.3a.578.578,0,0,1,.18-1.141c.781.12,1.562.24,2.342.3a.573.573,0,0,1,.541.661C37,79.58,36.7,79.82,36.4,79.82ZM48.468,79.1a.585.585,0,0,1-.6-.48.608.608,0,0,1,.48-.721c.781-.18,1.562-.36,2.342-.6a.59.59,0,0,1,.3,1.141c-.781.24-1.562.42-2.4.6C48.529,79.1,48.529,79.1,48.468,79.1Zm-19.219-.6h-.18l-2.342-.721a.608.608,0,1,1,.42-1.141c.721.24,1.5.48,2.282.721a.652.652,0,0,1,.42.721A.723.723,0,0,1,29.249,78.5Zm26.126-1.622a.525.525,0,0,1-.541-.36.6.6,0,0,1,.3-.781c.721-.3,1.441-.661,2.162-1.021a.578.578,0,1,1,.541,1.021c-.721.36-1.5.721-2.222,1.021C55.556,76.877,55.5,76.877,55.375,76.877Zm-32.913-.961a.361.361,0,0,1-.24-.06c-.721-.36-1.441-.781-2.162-1.141a.618.618,0,0,1,.6-1.081c.721.42,1.381.781,2.1,1.141a.6.6,0,0,1,.3.781A.731.731,0,0,1,22.462,75.916ZM61.8,73.453a.741.741,0,0,1-.48-.24.591.591,0,0,1,.18-.841,22.29,22.29,0,0,0,1.922-1.381.6.6,0,1,1,.721.961l-1.982,1.441C62.042,73.393,61.922,73.453,61.8,73.453ZM16.276,72.072a.854.854,0,0,1-.36-.12,24.21,24.21,0,0,1-1.922-1.562.6.6,0,1,1,.781-.9,22.6,22.6,0,0,0,1.862,1.5.646.646,0,0,1,.12.841A.546.546,0,0,1,16.276,72.072Zm51.171-3.183a.545.545,0,0,1-.42-.18.581.581,0,0,1,0-.841c.541-.541,1.141-1.141,1.682-1.742a.6.6,0,1,1,.9.781,23.827,23.827,0,0,1-1.742,1.742A.453.453,0,0,1,67.447,68.889ZM10.931,67.147a.545.545,0,0,1-.42-.18c-.541-.6-1.081-1.261-1.622-1.862a.6.6,0,0,1,.961-.721c.48.6,1.021,1.2,1.562,1.8a.584.584,0,0,1-.06.841A1.528,1.528,0,0,1,10.931,67.147Zm61.261-3.784a.854.854,0,0,1-.36-.12.539.539,0,0,1-.12-.841c.48-.661.9-1.321,1.321-1.982a.608.608,0,1,1,1.021.661,24.307,24.307,0,0,1-1.381,2.042A.546.546,0,0,1,72.192,63.363ZM6.547,61.381a.717.717,0,0,1-.541-.3c-.42-.721-.841-1.441-1.261-2.1a.618.618,0,0,1,1.081-.6,22.77,22.77,0,0,0,1.2,2.042.647.647,0,0,1-.18.841A1.015,1.015,0,0,1,6.547,61.381ZM75.8,57.057a.361.361,0,0,1-.24-.06.6.6,0,0,1-.3-.781c.36-.721.661-1.441.961-2.222a.608.608,0,0,1,1.141.42c-.3.781-.6,1.5-.961,2.282A.661.661,0,0,1,75.8,57.057ZM3.243,54.895a.525.525,0,0,1-.541-.36c-.3-.781-.6-1.562-.841-2.342a.625.625,0,0,1,.36-.781.625.625,0,0,1,.781.36c.24.781.48,1.5.781,2.282a.625.625,0,0,1-.36.781C3.423,54.895,3.363,54.895,3.243,54.895ZM78.258,50.21h-.12a.57.57,0,0,1-.42-.721c.18-.781.36-1.562.48-2.342a.612.612,0,1,1,1.2.24,17.27,17.27,0,0,1-.541,2.4A.723.723,0,0,1,78.258,50.21Zm-77-2.342a.585.585,0,0,1-.6-.48c-.12-.781-.3-1.622-.36-2.462a.6.6,0,0,1,.541-.661A.6.6,0,0,1,1.5,44.8l.36,2.342a.659.659,0,0,1-.48.721ZM79.339,43h0a.617.617,0,0,1-.6-.661c.06-.781.06-1.562.06-2.4v-.12a.6.6,0,1,1,1.2,0v.12c0,.841,0,1.682-.06,2.462A.6.6,0,0,1,79.339,43ZM.6,40.6A.567.567,0,0,1,0,40v-.06c0-.781,0-1.622.06-2.4A.543.543,0,0,1,.721,37a.543.543,0,0,1,.541.661C1.2,38.438,1.2,39.219,1.2,40A.6.6,0,0,1,.6,40.6Zm78.5-4.985a.639.639,0,0,1-.6-.541l-.36-2.342a.612.612,0,0,1,1.2-.24,16.207,16.207,0,0,1,.36,2.462.6.6,0,0,1-.541.661ZM1.261,33.393h-.12a.623.623,0,0,1-.48-.721,17.268,17.268,0,0,1,.541-2.4.57.57,0,0,1,.721-.42.57.57,0,0,1,.42.721c-.18.781-.36,1.562-.48,2.342A.585.585,0,0,1,1.261,33.393Zm76.276-4.865a.723.723,0,0,1-.6-.42c-.24-.781-.541-1.5-.781-2.222a.608.608,0,1,1,1.141-.42c.3.781.6,1.562.841,2.342a.625.625,0,0,1-.36.781A.454.454,0,0,0,77.538,28.529Zm-74.294-2.1a.454.454,0,0,1-.24-.06.625.625,0,0,1-.36-.781c.3-.781.6-1.5.961-2.282a.592.592,0,0,1,1.081.48,14.341,14.341,0,0,0-.9,2.222A.577.577,0,0,1,3.243,26.426Zm71.471-4.565a.631.631,0,0,1-.541-.3,22.77,22.77,0,0,0-1.2-2.042.608.608,0,0,1,1.021-.661c.42.721.841,1.381,1.261,2.1a.608.608,0,0,1-.24.841A2.6,2.6,0,0,0,74.715,21.862ZM6.486,19.88a.45.45,0,0,1-.3-.06.591.591,0,0,1-.18-.841,24.308,24.308,0,0,1,1.381-2.042.539.539,0,0,1,.841-.12.539.539,0,0,1,.12.841c-.48.661-.9,1.321-1.321,1.982A.734.734,0,0,1,6.486,19.88ZM70.631,15.8a.546.546,0,0,1-.48-.24c-.48-.6-1.021-1.2-1.562-1.8a.6.6,0,1,1,.9-.781c.541.6,1.081,1.2,1.622,1.862a.638.638,0,0,1-.06.841A.868.868,0,0,1,70.631,15.8Zm-59.76-1.682a.635.635,0,0,1-.48-1.021,23.827,23.827,0,0,1,1.742-1.742.595.595,0,0,1,.841.841c-.541.541-1.141,1.141-1.682,1.742A1.272,1.272,0,0,1,10.871,14.114Zm54.715-3.483a.644.644,0,0,1-.36-.12,22.6,22.6,0,0,0-1.862-1.5.6.6,0,0,1,.721-.961A24.21,24.21,0,0,1,66.006,9.61a.584.584,0,0,1,.06.841A1.147,1.147,0,0,1,65.586,10.631ZM16.216,9.189a.546.546,0,0,1-.48-.24.646.646,0,0,1,.12-.841l1.982-1.441A.608.608,0,0,1,18.5,7.688a22.292,22.292,0,0,0-1.922,1.381A.854.854,0,0,1,16.216,9.189ZM59.64,6.426a.541.541,0,0,1-.3-.06,23.431,23.431,0,0,0-2.1-1.141.592.592,0,1,1,.48-1.081c.721.36,1.441.781,2.162,1.141a.665.665,0,0,1,.24.841A.535.535,0,0,1,59.64,6.426ZM22.4,5.345a.577.577,0,0,1-.541-.36A.633.633,0,0,1,22.1,4.2c.721-.36,1.5-.721,2.222-1.021a.592.592,0,0,1,.48,1.081c-.721.3-1.441.661-2.162,1.021A.361.361,0,0,1,22.4,5.345ZM53.033,3.363a.221.221,0,0,1-.18-.06c-.721-.24-1.5-.48-2.282-.721a.618.618,0,0,1-.42-.721.618.618,0,0,1,.721-.42l2.342.721a.625.625,0,0,1,.36.781A.514.514,0,0,1,53.033,3.363ZM29.129,2.7a.723.723,0,0,1-.6-.42.57.57,0,0,1,.42-.721c.781-.24,1.562-.42,2.4-.6a.612.612,0,1,1,.24,1.2c-.781.18-1.562.36-2.342.6C29.249,2.7,29.189,2.7,29.129,2.7ZM45.946,1.622h-.12c-.781-.12-1.562-.24-2.342-.3a.543.543,0,0,1-.541-.661A.543.543,0,0,1,43.6.12c.841.06,1.622.18,2.462.3a.6.6,0,0,1,.48.661A.552.552,0,0,1,45.946,1.622Zm-9.67-.24a.639.639,0,0,1-.6-.541c-.06-.3.24-.6.541-.661A17.62,17.62,0,0,1,38.679,0a.6.6,0,0,1,.6.6.567.567,0,0,1-.6.6,17.454,17.454,0,0,0-2.4.18Z" transform="translate(0 0)"/>
      </g>
    </g>
    <g id="Слой_1_1_" transform="translate(14.047 14.807)">
      <g id="Group_4695" data-name="Group 4695" transform="translate(1.26 1.26)">
        <path id="Path_2366" data-name="Path 2366" class="cls-3" d="M21.4,49.867c-1.449,0-4.094-.378-5.165-2.771A1.244,1.244,0,0,0,15.1,46.34,9.086,9.086,0,0,1,6.157,37.27a9.3,9.3,0,0,1,.315-2.2,1.194,1.194,0,0,0-.5-1.323A9.125,9.125,0,0,1,2,26.248a8.871,8.871,0,0,1,3.716-7.306,1.208,1.208,0,0,0,.5-1.2,7.642,7.642,0,0,1-.063-1.134,9.061,9.061,0,0,1,8.566-9.069,1.271,1.271,0,0,0,1.2-1.008A5.494,5.494,0,0,1,21.4,2a5.784,5.784,0,0,1,5.794,5.605V44.828C27.193,48.166,24.3,49.867,21.4,49.867Z" transform="translate(-2 -2)"/>
      </g>
      <g id="Group_4696" data-name="Group 4696" transform="translate(26.453 1.26)">
        <path id="Path_2367" data-name="Path 2367" class="cls-4" d="M47.794,49.867c-2.9,0-5.794-1.7-5.794-5.039V7.605A5.784,5.784,0,0,1,47.794,2a5.593,5.593,0,0,1,5.479,4.535,1.218,1.218,0,0,0,1.2,1.008,9.061,9.061,0,0,1,8.566,9.069,7.233,7.233,0,0,1-.063,1.134,1.319,1.319,0,0,0,.5,1.2,9.129,9.129,0,0,1,3.716,7.306,9.029,9.029,0,0,1-3.9,7.432,1.23,1.23,0,0,0-.5,1.323,9.3,9.3,0,0,1,.315,2.2,9.087,9.087,0,0,1-8.944,9.069,1.244,1.244,0,0,0-1.134.756C51.888,49.489,49.306,49.867,47.794,49.867Z" transform="translate(-42 -2)"/>
      </g>
      <path id="Path_2368" data-name="Path 2368" class="cls-5" d="M52.905,25.508a10.259,10.259,0,0,0-4.22-8.314,9.3,9.3,0,0,0,.063-1.323A10.356,10.356,0,0,0,38.986,5.542,6.89,6.89,0,0,0,32.247,0a7.129,7.129,0,0,0-5.794,3.023A7.218,7.218,0,0,0,20.658,0a6.89,6.89,0,0,0-6.739,5.542A10.311,10.311,0,0,0,4.157,15.872c0,.441.063.882.063,1.323A10.085,10.085,0,0,0,0,25.508a10.328,10.328,0,0,0,4.472,8.5,11.037,11.037,0,0,0-.315,2.519A10.325,10.325,0,0,0,14.234,46.859c.063.063.126.126.189.126,1.071,2.33,3.464,3.4,6.235,3.4A7.3,7.3,0,0,0,26.453,47.8a7.39,7.39,0,0,0,5.794,2.582c2.771,0,5.1-1.071,6.235-3.4.063-.063.126-.063.189-.126A10.284,10.284,0,0,0,48.748,36.53a11.037,11.037,0,0,0-.315-2.519A10.328,10.328,0,0,0,52.905,25.508ZM32.247,2.519A4.375,4.375,0,0,1,36.53,6.046a.9.9,0,0,0,.126.378.679.679,0,0,0-.126.5A7.584,7.584,0,0,1,34.892,11.4a4.375,4.375,0,0,1-3.275,1.2,1.26,1.26,0,0,0,0,2.519,7.833,7.833,0,0,0,3.023-.567,4.111,4.111,0,0,0,3.653,2.519h.5a3.687,3.687,0,0,0,3.779-3.086,1.285,1.285,0,1,0-2.519-.5,1.222,1.222,0,0,1-1.512,1.071,1.8,1.8,0,0,1-1.512-.819,1.27,1.27,0,0,0-.189-.693,9.217,9.217,0,0,0,2.2-4.976,7.8,7.8,0,0,1,7.306,7.81v.063a3.875,3.875,0,0,0-2.015.315,4.782,4.782,0,0,0-2.771,3.9,3.4,3.4,0,0,0,0,1.134A7.254,7.254,0,0,0,37.412,22.3,5.987,5.987,0,0,0,34.7,19.21a6.587,6.587,0,0,0-6.865.378V9.825a6.47,6.47,0,0,0,1.575.441h.5A3.687,3.687,0,0,0,33.7,7.18a1.285,1.285,0,0,0-2.519-.5,1.222,1.222,0,0,1-1.512,1.071,1.8,1.8,0,0,1-1.512-.819,1.21,1.21,0,0,0-.252-.756A4.306,4.306,0,0,1,32.247,2.519ZM13.982,8.062a9.217,9.217,0,0,0,2.2,4.976A1.27,1.27,0,0,0,16,13.73a1.688,1.688,0,0,1-1.512.819,1.222,1.222,0,0,1-1.512-1.071,1.285,1.285,0,0,0-2.519.5,3.634,3.634,0,0,0,3.779,3.086h.5a4.3,4.3,0,0,0,3.653-2.519,7.612,7.612,0,0,0,3.023.567,1.26,1.26,0,1,0,0-2.519c-4.787,0-4.913-5.1-4.913-5.668a1.839,1.839,0,0,0-.126-.567c.063-.126.063-.252.126-.378a4.1,4.1,0,0,1,4.157-3.464A4.537,4.537,0,0,1,25.13,6.172a1.351,1.351,0,0,0-.252.756,1.688,1.688,0,0,1-1.512.819,1.222,1.222,0,0,1-1.512-1.071,1.285,1.285,0,1,0-2.519.5,3.634,3.634,0,0,0,3.779,3.086h.5a4.93,4.93,0,0,0,1.575-.441v9.7a6.382,6.382,0,0,0-6.676-.378,6.524,6.524,0,0,0-2.834,3.212A7.2,7.2,0,0,0,11.4,21.288a4.628,4.628,0,0,0-.882-3.716,4.2,4.2,0,0,0-3.842-1.638v-.063A7.8,7.8,0,0,1,13.982,8.062Zm6.676,39.8c-1.449,0-3.275-.378-3.968-2.015a2.265,2.265,0,0,0-.5-.756,2.7,2.7,0,0,1,.567-2.834,3.814,3.814,0,0,1,2.708-.063,1.189,1.189,0,0,1,.63,1.2,1.26,1.26,0,0,0,2.519,0,3.743,3.743,0,0,0-1.386-3.023l1.826-2.393a1.26,1.26,0,0,0-2.015-1.512l-2.078,2.771a.477.477,0,0,0-.126.252A5.023,5.023,0,0,0,14.99,40.5a5.147,5.147,0,0,0-1.512,3.779,7.819,7.819,0,0,1-6.8-7.747,6.5,6.5,0,0,1,.252-1.889A2.554,2.554,0,0,0,5.92,31.932a7.807,7.807,0,0,1-3.4-6.424,7.648,7.648,0,0,1,3.212-6.3,2.739,2.739,0,0,0,.441-.378c.126-.063.189-.063.315-.126a1.513,1.513,0,0,1,2.078.441c.756.945.693,2.708-1.764,4.724a1.232,1.232,0,0,0,.756,2.2,1.129,1.129,0,0,0,.819-.315,8.551,8.551,0,0,0,1.512-1.512c.063,0,.189-.063.252-.063,2.582-1.26,4.913.819,5.039.882h0A9.434,9.434,0,0,0,15.62,27.9a1.264,1.264,0,0,0,1.2.882.8.8,0,0,0,.378-.063,1.181,1.181,0,0,0,.819-1.575c-.819-2.708-.252-4.85,1.575-5.857a4.347,4.347,0,0,1,5.354,1.386c.063.063.126.126.189.126v9.51a4.494,4.494,0,0,1-1.952-.882,6.5,6.5,0,0,0,.693-2.456,1.266,1.266,0,1,0-2.519-.252,4.7,4.7,0,0,1-9.258.5,1.181,1.181,0,0,0-1.575-.819A1.181,1.181,0,0,0,9.7,29.98a7.954,7.954,0,0,0,2.141,3.59,4.337,4.337,0,0,0-.819.693A5.643,5.643,0,0,0,9.7,38.671a1.25,1.25,0,0,0,1.26,1.2h.063a1.308,1.308,0,0,0,1.2-1.323,3.356,3.356,0,0,1,.63-2.519,2.325,2.325,0,0,1,1.575-.693.568.568,0,0,0,.315-.063,6.5,6.5,0,0,0,1.889.252,2.584,2.584,0,0,0,.693-.063,7.118,7.118,0,0,0,4.346-1.952,7.163,7.163,0,0,0,3.464,1.386v9.2C25.193,46.544,22.926,47.867,20.658,47.867Zm26.39-15.935A2.479,2.479,0,0,0,46.04,34.64a6.793,6.793,0,0,1,.252,1.889,7.819,7.819,0,0,1-6.8,7.747A4.909,4.909,0,0,0,37.978,40.5a5.388,5.388,0,0,0-3.842-1.008c-.063-.063-.063-.189-.126-.252l-2.078-2.771a1.26,1.26,0,0,0-2.015,1.512l1.826,2.393a3.743,3.743,0,0,0-1.386,3.023,1.26,1.26,0,0,0,2.519,0,1.189,1.189,0,0,1,.63-1.2,3.538,3.538,0,0,1,2.708,0,2.476,2.476,0,0,1,.567,2.834,2.265,2.265,0,0,0-.5.756c-.756,1.7-2.582,2.015-3.968,2.015-2.267,0-4.535-1.323-4.535-3.779V34.955a9.13,9.13,0,0,0,3.716-1.2,7.248,7.248,0,0,0,4.031,1.7c.252,0,.441.063.693.063a9.736,9.736,0,0,0,1.952-.252c.126,0,.189.063.315.063a2.535,2.535,0,0,1,1.638.693,3.356,3.356,0,0,1,.63,2.519,1.227,1.227,0,0,0,1.2,1.323h.063a1.294,1.294,0,0,0,1.26-1.2,5.566,5.566,0,0,0-1.323-4.409,3.993,3.993,0,0,0-.819-.693,8.177,8.177,0,0,0,2.141-3.59,1.255,1.255,0,0,0-2.393-.756,4.7,4.7,0,0,1-9.258-.5,1.266,1.266,0,0,0-2.519.252,7.618,7.618,0,0,0,.882,2.708,6.562,6.562,0,0,1-2.078.63V22.863c.063-.063.126-.063.189-.126a4.442,4.442,0,0,1,5.479-1.323c1.764,1.008,2.33,3.149,1.449,5.794a1.2,1.2,0,0,0,.819,1.575.8.8,0,0,0,.378.063,1.264,1.264,0,0,0,1.2-.882A11.072,11.072,0,0,0,37.978,25a4.758,4.758,0,0,1,4.976-.882h.063a6.726,6.726,0,0,0,1.826,1.638,1.79,1.79,0,0,0,.756.252,1.315,1.315,0,0,0,1.008-.5,1.3,1.3,0,0,0-.315-1.764c-1.449-1.071-2.2-2.267-2.078-3.4a2.22,2.22,0,0,1,1.323-1.826,1.177,1.177,0,0,1,1.2.063.481.481,0,0,0,.315.126c.126.126.252.315.441.378a7.817,7.817,0,0,1,3.212,6.3A9.227,9.227,0,0,1,47.048,31.932Z"/>
    </g>
  </g>
</svg>
