<svg id="Group_6383" data-name="Group 6383" xmlns="http://www.w3.org/2000/svg" width="70" height="70" viewBox="0 0 70 70">
  <g id="Group_878" data-name="Group 878" transform="translate(0 0)">
    <g id="Group_876" data-name="Group 876" transform="translate(0.526 0.526)">
      <circle id="Ellipse_124" data-name="Ellipse 124" cx="34.474" cy="34.474" r="34.474" fill="#e8e8e8"/>
    </g>
    <g id="Group_877" data-name="Group 877">
      <path id="Path_1617" data-name="Path 1617" d="M36.1,70a.527.527,0,0,1-.526-.526.5.5,0,0,1,.526-.526c.683,0,1.419-.053,2.1-.105.263-.053.526.21.578.473s-.21.526-.473.578c-.736,0-1.471.053-2.207.105Zm-4.257-.158h0c-.736-.053-1.471-.158-2.207-.263a.505.505,0,0,1,.158-1c.683.105,1.366.21,2.05.263a.5.5,0,0,1,.473.578C32.372,69.632,32.11,69.842,31.847,69.842Zm10.563-.631a.512.512,0,0,1-.526-.42.532.532,0,0,1,.42-.631c.683-.158,1.366-.315,2.05-.526a.516.516,0,0,1,.263,1c-.683.21-1.366.368-2.1.526C42.462,69.212,42.462,69.212,42.41,69.212Zm-16.817-.526h-.158l-2.05-.631a.532.532,0,0,1,.368-1c.631.21,1.314.42,2,.631a.571.571,0,0,1,.368.631A.633.633,0,0,1,25.593,68.686Zm22.86-1.419a.46.46,0,0,1-.473-.315.521.521,0,0,1,.263-.683c.631-.263,1.261-.578,1.892-.893a.505.505,0,1,1,.473.893c-.631.315-1.314.631-1.944.893C48.611,67.267,48.559,67.267,48.453,67.267Zm-28.8-.841a.316.316,0,0,1-.21-.053c-.631-.315-1.261-.683-1.892-1a.541.541,0,1,1,.526-.946c.631.368,1.209.683,1.839,1a.521.521,0,0,1,.263.683A.64.64,0,0,1,19.655,66.426Zm34.422-2.155a.649.649,0,0,1-.42-.21.517.517,0,0,1,.158-.736A19.5,19.5,0,0,0,55.5,62.117a.526.526,0,1,1,.631.841l-1.734,1.261C54.287,64.219,54.182,64.272,54.077,64.272ZM14.242,63.063a.747.747,0,0,1-.315-.105,21.184,21.184,0,0,1-1.682-1.366.522.522,0,1,1,.683-.788,19.77,19.77,0,0,0,1.629,1.314.565.565,0,0,1,.105.736A.478.478,0,0,1,14.242,63.063Zm44.775-2.785a.477.477,0,0,1-.368-.158.508.508,0,0,1,0-.736c.473-.473,1-1,1.471-1.524a.522.522,0,1,1,.788.683,20.849,20.849,0,0,1-1.524,1.524A.4.4,0,0,1,59.017,60.278ZM9.565,58.754A.477.477,0,0,1,9.2,58.6c-.473-.526-.946-1.1-1.419-1.629a.526.526,0,0,1,.841-.631c.42.526.893,1.051,1.366,1.577a.511.511,0,0,1-.053.736A1.337,1.337,0,0,1,9.565,58.754Zm53.6-3.311a.747.747,0,0,1-.315-.105.471.471,0,0,1-.105-.736c.42-.578.788-1.156,1.156-1.734a.532.532,0,1,1,.893.578,21.269,21.269,0,0,1-1.209,1.787A.478.478,0,0,1,63.168,55.443ZM5.728,53.709a.627.627,0,0,1-.473-.263c-.368-.631-.736-1.261-1.1-1.839a.541.541,0,0,1,.946-.526,19.924,19.924,0,0,0,1.051,1.787.566.566,0,0,1-.158.736A.888.888,0,0,1,5.728,53.709Zm60.593-3.784a.316.316,0,0,1-.21-.053.521.521,0,0,1-.263-.683c.315-.631.578-1.261.841-1.944a.532.532,0,0,1,1,.368c-.263.683-.526,1.314-.841,2A.578.578,0,0,1,66.321,49.925ZM2.838,48.033a.46.46,0,0,1-.473-.315c-.263-.683-.526-1.366-.736-2.05a.547.547,0,0,1,.315-.683.547.547,0,0,1,.683.315c.21.683.42,1.314.683,2A.547.547,0,0,1,3,47.98C3,48.033,2.943,48.033,2.838,48.033Zm65.638-4.1h-.105A.5.5,0,0,1,68,43.3c.158-.683.315-1.366.42-2.05a.536.536,0,0,1,1.051.21,15.111,15.111,0,0,1-.473,2.1A.633.633,0,0,1,68.476,43.934ZM1.1,41.884a.512.512,0,0,1-.526-.42c-.105-.683-.263-1.419-.315-2.155a.522.522,0,0,1,.473-.578.522.522,0,0,1,.578.473l.315,2.05a.576.576,0,0,1-.42.631Zm68.318-4.257h0a.54.54,0,0,1-.526-.578c.053-.683.053-1.366.053-2.1v-.105a.526.526,0,1,1,1.051,0v.105c0,.736,0,1.471-.053,2.155A.527.527,0,0,1,69.422,37.628Zm-68.9-2.1A.5.5,0,0,1,0,35v-.053c0-.683,0-1.419.053-2.1a.475.475,0,0,1,.578-.473.475.475,0,0,1,.473.578c-.053.683-.053,1.366-.053,2.05A.527.527,0,0,1,.526,35.526Zm68.686-4.362a.559.559,0,0,1-.526-.473l-.315-2.05a.536.536,0,0,1,1.051-.21,14.181,14.181,0,0,1,.315,2.155.522.522,0,0,1-.473.578ZM1.1,29.219H1a.545.545,0,0,1-.42-.631,15.11,15.11,0,0,1,.473-2.1.5.5,0,0,1,.631-.368.5.5,0,0,1,.368.631c-.158.683-.315,1.366-.42,2.05A.512.512,0,0,1,1.1,29.219Zm66.742-4.257a.633.633,0,0,1-.526-.368c-.21-.683-.473-1.314-.683-1.944a.532.532,0,1,1,1-.368c.263.683.526,1.366.736,2.05a.547.547,0,0,1-.315.683A.4.4,0,0,0,67.845,24.962ZM2.838,23.123a.4.4,0,0,1-.21-.053.547.547,0,0,1-.315-.683c.263-.683.526-1.314.841-2a.518.518,0,1,1,.946.42,12.548,12.548,0,0,0-.788,1.944A.5.5,0,0,1,2.838,23.123Zm62.538-3.994a.552.552,0,0,1-.473-.263,19.924,19.924,0,0,0-1.051-1.787.532.532,0,0,1,.893-.578c.368.631.736,1.209,1.1,1.839a.532.532,0,0,1-.21.736A2.276,2.276,0,0,0,65.375,19.129Zm-59.7-1.734a.394.394,0,0,1-.263-.053.517.517,0,0,1-.158-.736A21.269,21.269,0,0,1,6.464,14.82a.471.471,0,0,1,.736-.105.471.471,0,0,1,.105.736c-.42.578-.788,1.156-1.156,1.734A.642.642,0,0,1,5.676,17.395ZM61.8,13.821a.478.478,0,0,1-.42-.21c-.42-.526-.893-1.051-1.366-1.577a.522.522,0,1,1,.788-.683c.473.526.946,1.051,1.419,1.629a.558.558,0,0,1-.053.736A.76.76,0,0,1,61.8,13.821ZM9.512,12.35a.555.555,0,0,1-.42-.893,20.848,20.848,0,0,1,1.524-1.524.52.52,0,1,1,.736.736c-.473.473-1,1-1.471,1.524A1.113,1.113,0,0,1,9.512,12.35ZM57.387,9.3a.563.563,0,0,1-.315-.105,19.773,19.773,0,0,0-1.629-1.314.526.526,0,0,1,.631-.841,21.184,21.184,0,0,1,1.682,1.366.511.511,0,0,1,.053.736A1,1,0,0,1,57.387,9.3Zm-43.2-1.261a.478.478,0,0,1-.42-.21.565.565,0,0,1,.105-.736l1.734-1.261a.532.532,0,1,1,.578.893A19.506,19.506,0,0,0,14.5,7.935.747.747,0,0,1,14.189,8.041Zm38-2.417a.474.474,0,0,1-.263-.053,20.5,20.5,0,0,0-1.839-1,.518.518,0,1,1,.42-.946c.631.315,1.261.683,1.892,1a.582.582,0,0,1,.21.736A.468.468,0,0,1,52.185,5.623ZM19.6,4.677a.505.505,0,0,1-.473-.315.554.554,0,0,1,.21-.683c.631-.315,1.314-.631,1.944-.893a.518.518,0,1,1,.42.946c-.631.263-1.261.578-1.892.893A.316.316,0,0,1,19.6,4.677ZM46.4,2.943a.193.193,0,0,1-.158-.053c-.631-.21-1.314-.42-2-.631a.54.54,0,0,1-.368-.631.54.54,0,0,1,.631-.368l2.05.631a.547.547,0,0,1,.315.683A.45.45,0,0,1,46.4,2.943ZM25.488,2.365A.633.633,0,0,1,24.962,2a.5.5,0,0,1,.368-.631c.683-.21,1.366-.368,2.1-.526a.536.536,0,1,1,.21,1.051c-.683.158-1.366.315-2.05.526C25.593,2.365,25.541,2.365,25.488,2.365ZM40.2,1.419H40.1c-.683-.105-1.366-.21-2.05-.263a.475.475,0,0,1-.473-.578.475.475,0,0,1,.578-.473c.736.053,1.419.158,2.155.263a.521.521,0,0,1,.42.578A.483.483,0,0,1,40.2,1.419Zm-8.461-.21a.559.559,0,0,1-.526-.473c-.053-.263.21-.526.473-.578A15.418,15.418,0,0,1,33.844,0a.527.527,0,0,1,.526.526.5.5,0,0,1-.526.526,15.272,15.272,0,0,0-2.1.158Z" transform="translate(0 0)" fill="#b7b7b7"/>
    </g>
  </g>
  <g id="Group_890" data-name="Group 890" transform="translate(13.967 9.742)">
    <g id="Group_879" data-name="Group 879" transform="translate(11.574 38.921)">
      <path id="Path_1618" data-name="Path 1618" d="M67.519,92.6v10.511l-9.459-4.2-9.459,4.2V92.6" transform="translate(-48.6 -92.6)" fill="#c9c9c9"/>
    </g>
    <g id="Group_880" data-name="Group 880" transform="translate(10.523 37.818)">
      <path id="Path_1619" data-name="Path 1619" d="M66.57,103.165a.99.99,0,0,1-.42-.105l-9.039-3.994-9.039,3.994a.986.986,0,0,1-1-.105,1.032,1.032,0,0,1-.473-.893V91.551a1.051,1.051,0,0,1,2.1,0v8.881l7.988-3.574a1.161,1.161,0,0,1,.841,0l7.988,3.574V91.6a1.051,1.051,0,1,1,2.1,0v10.511a1.033,1.033,0,0,1-.473.893A1.059,1.059,0,0,1,66.57,103.165Z" transform="translate(-46.6 -90.5)" fill="#8d8d8d"/>
    </g>
    <g id="Group_881" data-name="Group 881" transform="translate(1.064 1.084)">
      <circle id="Ellipse_125" data-name="Ellipse 125" cx="19.97" cy="19.97" r="19.97" fill="#c9c9c9"/>
    </g>
    <g id="Group_882" data-name="Group 882" transform="translate(4.217 4.237)">
      <circle id="Ellipse_126" data-name="Ellipse 126" cx="15.766" cy="15.766" r="15.766" transform="translate(1.051 1.051)" fill="#c9c9c9"/>
      <path id="Path_1620" data-name="Path 1620" d="M51.417,60.234A16.817,16.817,0,1,1,68.234,43.417,16.866,16.866,0,0,1,51.417,60.234Zm0-31.532A14.715,14.715,0,1,0,66.132,43.417,14.758,14.758,0,0,0,51.417,28.7Z" transform="translate(-34.6 -26.6)" fill="#8d8d8d"/>
    </g>
    <g id="Group_883" data-name="Group 883" transform="translate(9.12 9.577)">
      <path id="Path_1621" data-name="Path 1621" d="M44.965,46.925h-.21a1.007,1.007,0,0,1-.788-1.261,12.421,12.421,0,0,1,7.3-8.829,1.049,1.049,0,1,1,.788,1.944,10.23,10.23,0,0,0-6.1,7.3A1.061,1.061,0,0,1,44.965,46.925Z" transform="translate(-43.93 -36.762)" fill="#8d8d8d"/>
    </g>
    <g id="Group_884" data-name="Group 884" transform="translate(8.946 21.579)">
      <path id="Path_1622" data-name="Path 1622" d="M44.651,59.6A1.051,1.051,0,1,0,45.7,60.651,1.054,1.054,0,0,0,44.651,59.6Z" transform="translate(-43.6 -59.6)" fill="#8d8d8d"/>
    </g>
    <g id="Group_885" data-name="Group 885" transform="translate(14.727 39.447)">
      <path id="Path_1623" data-name="Path 1623" d="M55.651,102.534a1.054,1.054,0,0,1-1.051-1.051V94.651a1.051,1.051,0,1,1,2.1,0v6.832A1.054,1.054,0,0,1,55.651,102.534Z" transform="translate(-54.6 -93.6)" fill="#8d8d8d"/>
    </g>
    <g id="Group_886" data-name="Group 886" transform="translate(25.238 39.447)">
      <path id="Path_1624" data-name="Path 1624" d="M75.651,98.33A1.054,1.054,0,0,1,74.6,97.279V94.651a1.051,1.051,0,1,1,2.1,0v2.628A1.054,1.054,0,0,1,75.651,98.33Z" transform="translate(-74.6 -93.6)" fill="#8d8d8d"/>
    </g>
    <g id="Group_888" data-name="Group 888">
      <path id="Path_1627" data-name="Path 1627" d="M47.662,60.613A21.081,21.081,0,0,1,29.9,28.24,1.064,1.064,0,0,1,31.686,29.4,18.937,18.937,0,0,0,55.6,56.776a19.034,19.034,0,0,0,9.827-10.668,18.651,18.651,0,0,0-.631-14.452,18.844,18.844,0,0,0-10.668-9.827,18.651,18.651,0,0,0-14.452.631,1.07,1.07,0,0,1-.893-1.944,21.008,21.008,0,1,1,17.71,38.1A20.561,20.561,0,0,1,47.662,60.613Z" transform="translate(-26.576 -18.538)" fill="#8d8d8d"/>
    </g>
    <g id="Group_889" data-name="Group 889" transform="translate(8.421 4.237)">
      <path id="Path_1628" data-name="Path 1628" d="M43.651,26.6A1.051,1.051,0,1,0,44.7,27.651,1.054,1.054,0,0,0,43.651,26.6Z" transform="translate(-42.6 -26.6)" fill="#8d8d8d"/>
    </g>
  </g>
</svg>
