<svg xmlns="http://www.w3.org/2000/svg" width="114.354" height="48.192" viewBox="0 0 114.354 48.192"><defs><style>.a{fill:#2a3b90;}</style></defs><g transform="translate(-17 -11.749)"><g transform="translate(42.199 40.868)"><path class="a" d="M236.08,298.118h-2.113v-1.223a3.8,3.8,0,0,1-3.021,1.372,3.991,3.991,0,0,1-4.208-4.356v-6.006h2.095V293.6c0,1.872,1.02,2.836,2.558,2.836,1.557,0,2.576-.964,2.576-2.836v-5.691h2.113Z" transform="translate(-226.738 -283.846)"/><path class="a" d="M334.883,291.188c0-1.872-1.019-2.836-2.558-2.836-1.557,0-2.576.964-2.576,2.836V296.9h-2.113V286.684h2.113v1.168a3.929,3.929,0,0,1,3.04-1.335,3.977,3.977,0,0,1,4.189,4.356V296.9h-2.095Z" transform="translate(-315.514 -282.624)"/><path class="a" d="M425.448,255.471a1.344,1.344,0,1,1,1.353,1.353A1.337,1.337,0,0,1,425.448,255.471Zm.278,2.706h2.113v10.213h-2.113Z" transform="translate(-401.574 -254.118)"/><path class="a" d="M460.724,287.905l2.892,8.323,2.892-8.323h2.243l-3.893,10.213h-2.521l-3.874-10.213Z" transform="translate(-430.623 -283.846)"/><path class="a" d="M556.589,297.064a4.955,4.955,0,0,1-5.1-5.283,4.891,4.891,0,0,1,5.1-5.264,4.763,4.763,0,0,1,4.968,5.023,6.513,6.513,0,0,1-.074,1.038h-7.8a2.809,2.809,0,0,0,2.91,2.706,2.473,2.473,0,0,0,2.41-1.427h2.28A4.667,4.667,0,0,1,556.589,297.064Zm-2.891-6.191h5.653A2.652,2.652,0,0,0,556.5,288.3,2.781,2.781,0,0,0,553.7,290.873Z" transform="translate(-512.475 -282.624)"/><path class="a" d="M654.658,296.9h-2.113V286.684h2.113v1.483a3.327,3.327,0,0,1,3.058-1.65V288.7h-.538c-1.557,0-2.521.649-2.521,2.818Z" transform="translate(-601.387 -282.624)"/><path class="a" d="M711.421,297.064c-2.447,0-4.171-1.446-4.263-3.3h2.187a1.863,1.863,0,0,0,2.039,1.52c1.223,0,1.872-.519,1.872-1.223,0-2-5.931-.853-5.931-4.6,0-1.631,1.52-2.947,3.93-2.947,2.317,0,3.837,1.242,3.948,3.281h-2.113a1.689,1.689,0,0,0-1.909-1.5c-1.131,0-1.724.463-1.724,1.149,0,2.057,5.765.908,5.876,4.6C715.332,295.766,713.831,297.064,711.421,297.064Z" transform="translate(-649.439 -282.624)"/><path class="a" d="M791.858,255.471a1.344,1.344,0,1,1,1.353,1.353A1.337,1.337,0,0,1,791.858,255.471Zm.278,2.706h2.113v10.213h-2.113Z" transform="translate(-723.963 -254.118)"/><path class="a" d="M828.855,271.032h-1.2v-1.724h1.2v-2.539h2.132v2.539h2.484v1.724h-2.484v5.654c0,.76.3,1.075,1.186,1.075h1.3v1.761H831.8c-1.816,0-2.947-.76-2.947-2.836Z" transform="translate(-755.455 -265.249)"/><path class="a" d="M890.476,287.905h2.187L886.4,302.919h-2.187l2.076-4.968-4.022-10.046h2.354l2.873,7.785Z" transform="translate(-803.508 -283.846)"/></g><g transform="translate(17 11.749)"><path class="a" d="M233.283,100.469a5.6,5.6,0,0,0-1.952-1.057A8.782,8.782,0,0,0,228.688,99,7.679,7.679,0,0,0,223.4,101a7.815,7.815,0,0,0-1.586,2.318,7.926,7.926,0,0,0-.569,3.008,8.052,8.052,0,0,0,.569,3.09,6.45,6.45,0,0,0,1.545,2.277,6.7,6.7,0,0,0,2.318,1.423,8.194,8.194,0,0,0,2.847.489,12.844,12.844,0,0,0,2.236-.163,14.676,14.676,0,0,0,1.789-.407,10.344,10.344,0,0,0,1.26-.488l.732-.367-1.5-3.049c-.041.041-.163.082-.366.205-.2.081-.448.163-.772.284-.326.082-.651.163-1.1.244a6.883,6.883,0,0,1-1.342.122,6.14,6.14,0,0,1-1.586-.163,3.17,3.17,0,0,1-1.057-.447,4.3,4.3,0,0,1-.61-.61,1.34,1.34,0,0,1-.285-.65h.936a21.642,21.642,0,0,0,3.985-.285,7.634,7.634,0,0,0,2.48-.853,3.044,3.044,0,0,0,1.26-1.342,4.259,4.259,0,0,0,.366-1.789,3.963,3.963,0,0,0-.407-1.789,4.273,4.273,0,0,0-1.26-1.586m-2.643,3.863a1.318,1.318,0,0,1-.61.488,6.212,6.212,0,0,1-1.5.366,25.11,25.11,0,0,1-2.847.122,3.068,3.068,0,0,1,.2-1.057,2.76,2.76,0,0,1,.569-.935,2.427,2.427,0,0,1,.895-.651,3.037,3.037,0,0,1,1.261-.244,2.341,2.341,0,0,1,1.545.407,1.321,1.321,0,0,1,.527.976,1.218,1.218,0,0,1-.041.527" transform="translate(-196.708 -88.521)"/><path class="a" d="M365.964,100.472a6.2,6.2,0,0,0-2.2-1.1,9.715,9.715,0,0,0-2.683-.366,9.305,9.305,0,0,0-2.684.366,6.565,6.565,0,0,0-2.2,1.1,5.069,5.069,0,0,0-1.5,1.83,5.6,5.6,0,0,0-.527,2.521v8.417h4.391v-7.4c0-1.87.853-2.846,2.561-2.846a2.518,2.518,0,0,1,1.871.692,2.93,2.93,0,0,1,.65,2.115v7.442h4.392v-8.417a5.08,5.08,0,0,0-2.074-4.351" transform="translate(-313.662 -88.524)"/><path class="a" d="M497.595,50.6a2.9,2.9,0,0,0-1.667.447,1.694,1.694,0,0,0-.609,1.5V70.647h4.391V51.008c-.122-.041-.366-.122-.773-.244A6.706,6.706,0,0,0,497.6,50.6" transform="translate(-437.851 -45.931)"/><path class="a" d="M561.221,102.035a2.9,2.9,0,0,0-1.667.447,1.7,1.7,0,0,0-.609,1.5V115.9h4.391V102.441c-.122-.04-.366-.122-.773-.244a4.678,4.678,0,0,0-1.342-.163" transform="translate(-493.833 -91.186)"/><path class="a" d="M559.484,50.615a2.329,2.329,0,0,0-1.708.691,2.494,2.494,0,0,0-.691,1.748,2.329,2.329,0,0,0,.691,1.708,2.4,2.4,0,0,0,1.708.691,2.493,2.493,0,0,0,1.749-.691,2.239,2.239,0,0,0,.69-1.708,2.493,2.493,0,0,0-.69-1.748,2.424,2.424,0,0,0-1.749-.691" transform="translate(-492.197 -45.945)"/><path class="a" d="M625.283,111.826c.366-.326.773-.651,1.18-1.017a17.93,17.93,0,0,0,1.342-1.219c.488-.407.895-.813,1.3-1.179s.773-.692,1.057-.976c.326-.285.527-.488.61-.569a4.8,4.8,0,0,0,.976-1.179,2.456,2.456,0,0,0,.285-1.22,1.877,1.877,0,0,0-.61-1.545,2.231,2.231,0,0,0-1.545-.527H619.1a7.974,7.974,0,0,0-.325.813,3.5,3.5,0,0,0-.2,1.3,1.7,1.7,0,0,0,.527,1.422,2.741,2.741,0,0,0,1.749.448h5.082q-.3.3-1.22,1.1c-.569.527-1.26,1.1-1.952,1.748l-2.2,1.951q-1.1.976-1.952,1.708v3.334h13.54v-3.7h-7.683c.163-.163.447-.366.813-.691" transform="translate(-546.297 -91.502)"/><path class="a" d="M759.708,81.89a4.891,4.891,0,0,1-.895.406,3.783,3.783,0,0,1-1.383.245,4.52,4.52,0,0,1-.733-.081,1.342,1.342,0,0,1-.65-.285,1.662,1.662,0,0,1-.487-.569,2.174,2.174,0,0,1-.2-.976v-4.31h4.839a8,8,0,0,0,.325-.813,3.493,3.493,0,0,0,.2-1.3,1.857,1.857,0,0,0-.527-1.465,2.5,2.5,0,0,0-1.748-.488h-3.131v-3.66c-.122-.04-.365-.122-.772-.244a4.676,4.676,0,0,0-1.341-.163,2.9,2.9,0,0,0-1.667.447,1.7,1.7,0,0,0-.61,1.5V81.564a4.8,4.8,0,0,0,1.424,3.618,5.623,5.623,0,0,0,3.985,1.342,7.641,7.641,0,0,0,1.708-.163,12.809,12.809,0,0,0,1.465-.407,4.584,4.584,0,0,0,1.1-.527,2.521,2.521,0,0,0,.692-.489Z" transform="translate(-662.749 -61.403)"/><path class="a" d="M29.607,82.306H18.392A1.374,1.374,0,0,0,17,83.661c0,.012,0,.024,0,.036l3.955,16.736a1.411,1.411,0,0,0,1.385,1.435h3.354a1.374,1.374,0,0,0,1.391-1.355c0-.012,0-.024,0-.036l.522-3.608a.525.525,0,0,0-.13-.435.473.473,0,0,0-.391-.174H24.564V95.088h3.652a.521.521,0,0,0,.522-.478l.7-4.825a.524.524,0,0,0-.13-.435.472.472,0,0,0-.391-.174H24.564V88H30a.522.522,0,0,0,.522-.478l.522-3.825a1.439,1.439,0,0,0-1.436-1.391" transform="translate(-17 -73.829)"/><path class="a" d="M48.519,19.053A3.652,3.652,0,1,0,44.867,15.4h0a3.674,3.674,0,0,0,3.652,3.652" transform="translate(-41.519 -11.749)"/></g></g></svg>