<svg xmlns="http://www.w3.org/2000/svg" width="292.121" height="123.109" viewBox="0 0 292.121 123.109"><defs><style>.a{fill:#fff;}</style></defs><g transform="translate(-17 -11.749)"><g transform="translate(81.371 86.134)"><path class="a" d="M250.6,314h-5.4V310.87a9.712,9.712,0,0,1-7.718,3.5c-6.108,0-10.749-3.835-10.749-11.127V287.905h5.351v14.537c0,4.782,2.6,7.245,6.534,7.245,3.977,0,6.582-2.462,6.582-7.245V287.905h5.4Z" transform="translate(-226.738 -277.536)"/><path class="a" d="M346.15,298.449c0-4.783-2.6-7.245-6.534-7.245-3.978,0-6.582,2.462-6.582,7.245v14.584h-5.4v-26.09h5.4v2.983a10.038,10.038,0,0,1,7.765-3.409c6.108,0,10.7,3.835,10.7,11.127v15.389H346.15Z" transform="translate(-296.67 -276.574)"/><path class="a" d="M425.448,257.574a3.433,3.433,0,1,1,3.457,3.457A3.416,3.416,0,0,1,425.448,257.574Zm.71,6.913h5.4v26.09h-5.4Z" transform="translate(-364.462 -254.118)"/><path class="a" d="M464.24,287.905l7.387,21.26,7.387-21.26h5.729L474.8,314h-6.44l-9.9-26.09Z" transform="translate(-387.345 -277.536)"/><path class="a" d="M564.513,313.459c-7.481,0-13.021-5.3-13.021-13.495s5.3-13.447,13.021-13.447c7.434,0,12.69,5.161,12.69,12.832a16.642,16.642,0,0,1-.19,2.652H557.079a7.177,7.177,0,0,0,7.434,6.913,6.317,6.317,0,0,0,6.156-3.646h5.824C575.026,309.813,570.906,313.459,564.513,313.459Zm-7.386-15.815h14.441c-.094-4.025-3.267-6.582-7.292-6.582C560.631,291.063,557.695,293.525,557.127,297.644Z" transform="translate(-451.822 -276.574)"/><path class="a" d="M657.943,313.033h-5.4v-26.09h5.4v3.788a8.5,8.5,0,0,1,7.813-4.214V292.1h-1.373c-3.977,0-6.439,1.657-6.439,7.2Z" transform="translate(-521.861 -276.574)"/><path class="a" d="M718.049,313.459c-6.251,0-10.654-3.693-10.891-8.428h5.587c.189,2.131,2.226,3.883,5.209,3.883,3.125,0,4.782-1.326,4.782-3.125,0-5.114-15.152-2.178-15.152-11.743,0-4.167,3.883-7.529,10.038-7.529,5.919,0,9.8,3.172,10.086,8.381h-5.4c-.189-2.273-1.941-3.836-4.877-3.836-2.888,0-4.4,1.184-4.4,2.936,0,5.256,14.726,2.32,15.01,11.743C728.039,310.145,724.2,313.459,718.049,313.459Z" transform="translate(-559.713 -276.574)"/><path class="a" d="M791.858,257.574a3.433,3.433,0,1,1,3.457,3.457A3.416,3.416,0,0,1,791.858,257.574Zm.71,6.913h5.4v26.09h-5.4Z" transform="translate(-618.418 -254.118)"/><path class="a" d="M830.728,277.659H827.65v-4.4h3.078v-6.487h5.445v6.487h6.345v4.4h-6.345V292.1c0,1.941.757,2.746,3.03,2.746h3.314v4.5h-4.262c-4.64,0-7.529-1.942-7.529-7.245Z" transform="translate(-643.225 -262.886)"/><path class="a" d="M903.241,287.905h5.587l-16,38.354h-5.587l5.3-12.69-10.275-25.664h6.013l7.339,19.887Z" transform="translate(-681.078 -277.536)"/></g><g transform="translate(17 11.749)"><path class="a" d="M251.993,102.746a14.314,14.314,0,0,0-4.986-2.7,22.434,22.434,0,0,0-6.752-1.04,19.617,19.617,0,0,0-13.5,5.089,19.963,19.963,0,0,0-4.051,5.921,20.247,20.247,0,0,0-1.454,7.684,20.57,20.57,0,0,0,1.454,7.894,16.477,16.477,0,0,0,3.947,5.816,17.116,17.116,0,0,0,5.92,3.636,20.932,20.932,0,0,0,7.272,1.248,32.808,32.808,0,0,0,5.712-.416,37.489,37.489,0,0,0,4.57-1.039,26.422,26.422,0,0,0,3.219-1.246l1.871-.937-3.844-7.79c-.1.106-.415.209-.935.524-.52.207-1.144.416-1.973.726-.832.209-1.663.415-2.8.624a17.581,17.581,0,0,1-3.429.311,15.685,15.685,0,0,1-4.051-.416,8.1,8.1,0,0,1-2.7-1.143,10.98,10.98,0,0,1-1.559-1.558,3.424,3.424,0,0,1-.727-1.661h2.39a55.288,55.288,0,0,0,10.179-.728,19.5,19.5,0,0,0,6.336-2.179,7.775,7.775,0,0,0,3.218-3.427,10.88,10.88,0,0,0,.935-4.57,10.124,10.124,0,0,0-1.039-4.57,10.914,10.914,0,0,0-3.219-4.052m-6.752,9.867a3.367,3.367,0,0,1-1.559,1.247,15.869,15.869,0,0,1-3.842.935,64.141,64.141,0,0,1-7.272.311,7.837,7.837,0,0,1,.519-2.7,7.051,7.051,0,0,1,1.453-2.387,6.2,6.2,0,0,1,2.286-1.663,7.758,7.758,0,0,1,3.222-.624,5.98,5.98,0,0,1,3.947,1.04,3.375,3.375,0,0,1,1.347,2.492,3.112,3.112,0,0,1-.1,1.347" transform="translate(-158.561 -72.224)"/><path class="a" d="M384.3,102.749a15.835,15.835,0,0,0-5.609-2.805,24.817,24.817,0,0,0-6.854-.935,23.772,23.772,0,0,0-6.856.935,16.771,16.771,0,0,0-5.613,2.805,12.949,12.949,0,0,0-3.843,4.674,14.3,14.3,0,0,0-1.347,6.44v21.5h11.217v-18.9c0-4.777,2.18-7.27,6.542-7.27a6.431,6.431,0,0,1,4.78,1.767c1.142,1.141,1.661,3.012,1.661,5.4v19.01H389.6v-21.5a12.978,12.978,0,0,0-5.3-11.114" transform="translate(-250.69 -72.227)"/><path class="a" d="M501.134,50.605a7.394,7.394,0,0,0-4.259,1.142c-1.037.727-1.557,1.973-1.557,3.843v46.221h11.218V51.643c-.312-.1-.935-.312-1.974-.623a17.13,17.13,0,0,0-3.427-.416" transform="translate(-348.518 -38.676)"/><path class="a" d="M564.76,102.038a7.406,7.406,0,0,0-4.259,1.143c-1.037.729-1.557,1.974-1.557,3.844v30.433h11.218V103.077c-.313-.1-.935-.312-1.974-.622a11.951,11.951,0,0,0-3.427-.417" transform="translate(-392.617 -74.324)"/><path class="a" d="M563.214,50.616a5.948,5.948,0,0,0-4.363,1.766,6.371,6.371,0,0,0-1.765,4.466,5.951,5.951,0,0,0,1.765,4.362,6.12,6.12,0,0,0,4.363,1.765,6.369,6.369,0,0,0,4.467-1.765,5.719,5.719,0,0,0,1.764-4.362,6.37,6.37,0,0,0-1.764-4.466,6.193,6.193,0,0,0-4.467-1.766" transform="translate(-391.328 -38.686)"/><path class="a" d="M635.715,126.492c.935-.832,1.974-1.664,3.013-2.6a45.81,45.81,0,0,0,3.427-3.115c1.246-1.039,2.285-2.076,3.322-3.012s1.974-1.767,2.7-2.494c.832-.728,1.347-1.246,1.559-1.453a12.268,12.268,0,0,0,2.492-3.012,6.273,6.273,0,0,0,.728-3.117,4.8,4.8,0,0,0-1.559-3.946,5.7,5.7,0,0,0-3.947-1.347H619.927a20.4,20.4,0,0,0-.831,2.076,8.938,8.938,0,0,0-.519,3.324,4.355,4.355,0,0,0,1.347,3.634,7,7,0,0,0,4.467,1.144h12.982q-.776.779-3.116,2.805c-1.453,1.347-3.218,2.8-4.986,4.466q-2.8,2.492-5.607,4.984t-4.985,4.363v8.518h34.588v-9.453H633.641c.416-.416,1.142-.934,2.077-1.764" transform="translate(-433.944 -74.573)"/><path class="a" d="M773.36,103.2a12.5,12.5,0,0,1-2.285,1.037,9.664,9.664,0,0,1-3.533.625,11.547,11.547,0,0,1-1.871-.207,3.427,3.427,0,0,1-1.662-.728,4.246,4.246,0,0,1-1.245-1.454,5.553,5.553,0,0,1-.52-2.493V88.967H774.6a20.455,20.455,0,0,0,.831-2.076,8.922,8.922,0,0,0,.52-3.325,4.743,4.743,0,0,0-1.347-3.742c-.832-.831-2.39-1.246-4.466-1.246h-8V69.229c-.311-.1-.932-.312-1.973-.624a11.945,11.945,0,0,0-3.426-.416,7.4,7.4,0,0,0-4.26,1.143c-1.039.728-1.559,1.974-1.559,3.844v29.189a12.265,12.265,0,0,0,3.637,9.243c2.492,2.286,5.815,3.428,10.179,3.428a19.521,19.521,0,0,0,4.362-.415,32.717,32.717,0,0,0,3.742-1.04,11.708,11.708,0,0,0,2.8-1.347,6.439,6.439,0,0,0,1.768-1.248Z" transform="translate(-525.677 -50.863)"/><path class="a" d="M49.2,82.306H20.555A3.509,3.509,0,0,0,17,85.769c0,.031,0,.061,0,.091l10.1,42.753a3.6,3.6,0,0,0,3.539,3.667h8.567a3.509,3.509,0,0,0,3.554-3.463c0-.03,0-.061,0-.092l1.332-9.217a1.341,1.341,0,0,0-.332-1.111,1.209,1.209,0,0,0-1-.444H36.322v-3h9.329a1.331,1.331,0,0,0,1.332-1.222l1.776-12.326a1.339,1.339,0,0,0-.332-1.111,1.206,1.206,0,0,0-1-.444H36.322v-3H50.205a1.334,1.334,0,0,0,1.333-1.221l1.332-9.772A3.677,3.677,0,0,0,49.2,82.309" transform="translate(-17 -60.651)"/><path class="a" d="M54.2,30.406a9.329,9.329,0,1,0-9.329-9.328h0A9.386,9.386,0,0,0,54.2,30.406" transform="translate(-36.314 -11.749)"/></g></g></svg>