<?xml version="1.0" standalone="no"?>
<!DOCTYPE svg PUBLIC "-//W3C//DTD SVG 20010904//EN"
 "http://www.w3.org/TR/2001/REC-SVG-20010904/DTD/svg10.dtd">
<svg version="1.0" xmlns="http://www.w3.org/2000/svg"
 width="317.000000pt" height="317.000000pt" viewBox="0 0 317.000000 317.000000"
 preserveAspectRatio="xMidYMid meet">
<metadata>
Created by potrace 1.14, written by Peter Selinger 2001-2017
</metadata>
<g transform="translate(0.000000,317.000000) scale(0.100000,-0.100000)"
fill="#000000" stroke="none">
<path d="M820 2889 c-102 -65 -185 -132 -169 -137 42 -12 256 -112 334 -155
165 -92 415 -274 415 -301 0 -7 -12 -23 -26 -37 -20 -18 -126 -146 -141 -168
-1 -2 -35 24 -75 56 -161 132 -470 305 -647 362 -83 27 -84 27 -113 -11 -34
-44 -108 -166 -108 -177 0 -5 42 -22 93 -39 224 -72 488 -220 650 -365 l48
-42 -65 -115 c-36 -63 -66 -119 -66 -123 0 -4 -35 22 -77 59 -107 91 -237 176
-368 239 -133 64 -310 124 -325 109 -11 -11 -49 -175 -50 -214 0 -24 7 -28 77
-49 94 -27 254 -104 348 -167 73 -49 211 -162 256 -211 l27 -28 -34 -105 c-18
-58 -41 -131 -49 -163 l-16 -57 -44 59 c-125 170 -335 327 -523 392 l-54 19 7
-53 c13 -100 44 -242 55 -245 5 -2 45 -26 87 -54 138 -90 267 -246 331 -399
26 -62 40 -120 68 -274 2 -11 29 -38 61 -60 67 -47 175 -114 184 -115 3 0 9
87 12 193 3 105 13 235 21 287 22 134 67 320 76 315 13 -8 96 -206 118 -280
38 -125 54 -246 59 -440 l6 -191 76 -17 c42 -9 97 -17 122 -17 l47 0 4 248 c4
202 9 267 27 357 25 121 60 252 90 330 l19 50 12 -30 c28 -73 79 -258 94 -340
23 -129 36 -298 36 -467 l0 -148 53 0 c28 1 86 9 127 18 l75 18 1 199 c2 218
19 333 70 477 34 94 95 228 104 228 8 0 43 -148 64 -275 20 -117 36 -306 36
-422 0 -51 4 -93 8 -93 12 0 115 63 188 116 61 43 64 47 64 85 0 23 9 77 21
122 55 222 217 440 407 549 30 17 58 41 62 54 10 25 35 151 45 223 6 43 6 43
-22 37 -50 -12 -215 -96 -281 -143 -91 -65 -195 -165 -255 -246 l-51 -69 -9
33 c-4 19 -27 94 -50 168 l-41 134 77 73 c43 39 117 100 165 134 103 74 300
171 395 196 55 15 67 22 67 39 0 34 -39 208 -48 217 -13 13 -188 -45 -312
-103 -123 -59 -306 -178 -389 -254 l-59 -55 -71 127 -72 127 23 19 c227 183
420 294 653 373 61 20 111 38 113 40 10 7 -122 214 -137 214 -4 0 -39 -11 -77
-24 -216 -75 -495 -231 -652 -364 l-64 -55 -27 34 c-14 19 -54 66 -88 106 -35
39 -63 74 -63 77 0 10 186 154 275 212 97 63 317 178 413 215 34 13 62 27 62
31 0 9 -142 110 -197 140 l-41 22 -54 -24 c-182 -84 -385 -210 -565 -355 l-82
-66 -78 66 c-120 101 -323 234 -480 313 -78 40 -143 72 -145 72 -2 0 -32 -19
-68 -41z m841 -846 c36 -43 75 -91 87 -107 l22 -29 -43 -51 c-24 -28 -63 -77
-86 -108 -24 -32 -46 -58 -50 -58 -3 0 -24 25 -45 55 -22 30 -61 80 -87 112
-44 51 -47 58 -34 76 29 42 157 187 164 187 4 0 37 -35 72 -77z m-313 -462
c105 -140 102 -122 39 -269 -30 -70 -60 -144 -67 -165 l-12 -38 -29 61 c-16
34 -56 103 -89 154 -33 51 -60 98 -60 105 0 13 68 151 108 220 20 35 28 41 36
30 6 -8 39 -52 74 -98z m652 -51 c28 -55 50 -104 50 -109 0 -6 -24 -48 -54
-93 -29 -46 -68 -112 -86 -147 l-32 -64 -42 104 c-24 57 -55 132 -71 167 l-28
62 38 58 c21 31 60 85 88 120 l50 63 18 -31 c11 -17 42 -76 69 -130z"/>
</g>
</svg>
