<svg xmlns="http://www.w3.org/2000/svg" xmlns:xlink="http://www.w3.org/1999/xlink" width="641.767" height="184.533" viewBox="0 0 641.767 184.533">
  <defs>
    <clipPath id="clip-path">
      <rect id="Retângulo_3198" data-name="Retângulo 3198" width="641.767" height="184.533" fill="none"/>
    </clipPath>
  </defs>
  <g id="Grupo_10122" data-name="Grupo 10122" transform="translate(0 0)">
    <g id="Grupo_10122-2" data-name="Grupo 10122" transform="translate(0 0)" clip-path="url(#clip-path)">
      <path id="Caminho_4344" data-name="Caminho 4344" d="M138.234,11.411c88.2-26.6,149.588-1.066,215.72,19.46,42.4,13.144,93.033,23.95,138.7,16.8V184.532c-194.465-3.448-190.336-74.768-354.424-31.569ZM220.683,93.74v15.952c0,3.436.378,5.583,1.143,6.422a5.8,5.8,0,0,0,4.631,1.784h2.112v1.488H205.1V117.9h2.071c2.309,0,3.963-.757,4.942-2.266.544-.847.828-2.82.828-5.94V74.325c0-3.442-.357-5.581-1.087-6.416a5.98,5.98,0,0,0-4.683-1.778H205.1v-1.5h20.079a35.433,35.433,0,0,1,11.574,1.523,15.966,15.966,0,0,1,7.146,5.1,13.06,13.06,0,0,1,2.913,8.519,14.322,14.322,0,0,1-4.442,10.893q-4.4,4.2-12.468,4.214a34.513,34.513,0,0,1-4.293-.3c-1.519-.193-3.181-.461-4.928-.847m0-2.293c1.428.264,2.716.477,3.805.614,1.1.108,2.044.176,2.826.176a9.619,9.619,0,0,0,7.25-3.243,11.806,11.806,0,0,0,3.036-8.405,14.953,14.953,0,0,0-1.444-6.608,10.105,10.105,0,0,0-4.112-4.554,11.917,11.917,0,0,0-6.071-1.517,24.57,24.57,0,0,0-5.289.757Zm59.256,9.6H258.761l-3.716,8.644a13.286,13.286,0,0,0-1.369,4.778,2.762,2.762,0,0,0,1.183,2.179c.8.625,2.5,1.05,5.158,1.249v1.488H242.783V117.9c2.289-.421,3.751-.936,4.44-1.585,1.374-1.28,2.882-3.913,4.544-7.87l19.273-45.052h1.39l19.078,45.523q2.278,5.512,4.166,7.131a8.508,8.508,0,0,0,5.231,1.853v1.488h-21.6V117.9c2.177-.118,3.643-.488,4.413-1.118a2.707,2.707,0,0,0,1.16-2.245,17.031,17.031,0,0,0-1.629-5.621Zm-1.127-2.98-9.277-22.122-9.52,22.122Zm39.975-4.328v15.952c0,3.436.367,5.583,1.137,6.422a5.812,5.812,0,0,0,4.633,1.784h2.106v1.488H303.2V117.9h2.062q3.464,0,4.949-2.266c.554-.847.826-2.82.826-5.94V74.325c0-3.442-.357-5.581-1.089-6.416a5.935,5.935,0,0,0-4.685-1.778H303.2v-1.5h20.076a35.275,35.275,0,0,1,11.565,1.523,15.794,15.794,0,0,1,7.152,5.1,13.149,13.149,0,0,1,2.926,8.519,14.387,14.387,0,0,1-4.43,10.893c-2.948,2.8-7.106,4.214-12.518,4.214a34.307,34.307,0,0,1-4.251-.3c-1.544-.193-3.2-.461-4.934-.847m0-2.293c1.43.264,2.7.477,3.8.614,1.1.108,2.033.176,2.816.176a9.663,9.663,0,0,0,7.266-3.243,11.849,11.849,0,0,0,3.031-8.405,15.154,15.154,0,0,0-1.442-6.608,10.134,10.134,0,0,0-4.127-4.554,11.845,11.845,0,0,0-6.05-1.517,24.518,24.518,0,0,0-5.291.757Zm46.307-23.83V89.258h12.032q4.687,0,6.256-1.409c1.407-1.228,2.172-3.421,2.334-6.542h1.5v19.064h-1.5a20.251,20.251,0,0,0-1.131-5.135,5.036,5.036,0,0,0-2.378-2.216,12.307,12.307,0,0,0-5.081-.813H365.095v18.051a18.047,18.047,0,0,0,.307,4.422,2.694,2.694,0,0,0,1.147,1.249,6.8,6.8,0,0,0,3.069.473H378.9a24.746,24.746,0,0,0,6.739-.652,9.933,9.933,0,0,0,4.042-2.554,30.383,30.383,0,0,0,5.117-7.534h1.633L391.7,119.385H349.5V117.9h1.95a7.892,7.892,0,0,0,3.675-.936,3.332,3.332,0,0,0,1.747-1.93,18.994,18.994,0,0,0,.471-5.3V74.176c0-3.49-.344-5.619-1.054-6.428-.969-1.075-2.577-1.616-4.839-1.616H349.5v-1.5h42.2l.608,11.982h-1.589a18.586,18.586,0,0,0-1.872-5.932,6.394,6.394,0,0,0-3.056-2.448,17.734,17.734,0,0,0-5.681-.62Zm80.6,36.624,1.345.286-4.685,14.858h-42.4V117.9h2.067c2.322,0,3.988-.757,4.971-2.266.56-.867.832-2.878.832-5.978V74.325c0-3.417-.369-5.571-1.131-6.416a5.907,5.907,0,0,0-4.673-1.778h-2.067v-1.5h24.8v1.5c-2.915-.025-4.94.245-6.131.8a4.873,4.873,0,0,0-2.376,2.154c-.43.853-.652,2.919-.652,6.169v34.4a11.248,11.248,0,0,0,.652,4.6,2.748,2.748,0,0,0,1.475,1.241c.681.272,2.764.409,6.3.409h3.984c4.21,0,7.152-.3,8.86-.923a11.633,11.633,0,0,0,4.639-3.295,27.032,27.032,0,0,0,4.183-7.449M141.373,62.521q10.535,0,18.257,8.173,7.737,8.17,7.729,20.406,0,12.592-7.781,20.909a25.662,25.662,0,0,1-37.628.2q-7.606-8.1-7.606-21,0-13.165,8.781-21.473a25.623,25.623,0,0,1,18.249-7.221m-.762,2.977a14.172,14.172,0,0,0-11.65,5.5q-5.49,6.866-5.471,20.058,0,13.551,5.666,20.828a13.891,13.891,0,0,0,11.5,5.55,15.606,15.606,0,0,0,12.6-6.073q4.97-6.075,4.967-19.157,0-14.189-5.469-21.155-4.4-5.54-12.138-5.546" transform="translate(122.905 0.002)" fill="#fff" fill-rule="evenodd"/>
      <path id="Caminho_4345" data-name="Caminho 4345" d="M144.806,74.518l-5.82,19.927a10.97,10.97,0,0,0-.477,2.131.625.625,0,0,0,.145.336.449.449,0,0,0,.3.143.984.984,0,0,0,.523-.212,12.529,12.529,0,0,0,1.915-2.033l.585.34a15.427,15.427,0,0,1-2.453,2.751,3.761,3.761,0,0,1-2.326,1.037,1.247,1.247,0,0,1-.944-.4,1.619,1.619,0,0,1-.369-1.145,9.062,9.062,0,0,1,.506-2.585l.645-2.1a19.6,19.6,0,0,1-4.446,5.227,4.479,4.479,0,0,1-2.654,1,2.839,2.839,0,0,1-2.233-1.143,4.56,4.56,0,0,1-.973-3.092,10.986,10.986,0,0,1,1.625-5.37,13.515,13.515,0,0,1,4.235-4.648,6.876,6.876,0,0,1,3.805-1.436,3.2,3.2,0,0,1,1.573.365,4.284,4.284,0,0,1,1.313,1.237l1.654-5.876c.112-.421.218-.739.3-1a3.831,3.831,0,0,0,.2-1.1.765.765,0,0,0-.259-.6,1.388,1.388,0,0,0-.9-.293,12.547,12.547,0,0,0-1.289.127V75.47Zm-6.262,11.995a2.441,2.441,0,0,0-.631-1.745,2.106,2.106,0,0,0-1.6-.662c-1.417,0-2.884,1.168-4.434,3.523a12.405,12.405,0,0,0-2.3,6.718,2.99,2.99,0,0,0,.564,1.936,1.7,1.7,0,0,0,1.332.666c1.181,0,2.635-1.257,4.413-3.805,1.768-2.521,2.658-4.737,2.658-6.631m8.961,5.662a8.714,8.714,0,0,0-.114,1.4,3.648,3.648,0,0,0,3.648,3.627,5.966,5.966,0,0,0,2.338-.5,20.412,20.412,0,0,0,3.334-2.206l.361.488c-2.67,2.645-5.231,3.959-7.644,3.959A4.538,4.538,0,0,1,145.7,97.4a5.426,5.426,0,0,1-1.241-3.438,9.958,9.958,0,0,1,1.564-5.146,11.765,11.765,0,0,1,3.886-4.114,9.288,9.288,0,0,1,4.851-1.446,4.012,4.012,0,0,1,2.645.726,2.191,2.191,0,0,1,.863,1.706,4.052,4.052,0,0,1-1.122,2.712,10.39,10.39,0,0,1-4.316,2.7,24.63,24.63,0,0,1-5.324,1.081m.12-.834a13.814,13.814,0,0,0,4.069-.99,8.19,8.19,0,0,0,3.121-2.212,4.068,4.068,0,0,0,1.046-2.457,1.523,1.523,0,0,0-.463-1.152,1.739,1.739,0,0,0-1.276-.434,5.5,5.5,0,0,0-3.652,1.824,10.976,10.976,0,0,0-2.845,5.42m23.668-8.09-1.033,5.179h-.616a5.468,5.468,0,0,0-.973-3.295,2.782,2.782,0,0,0-2.168-1.029,2.335,2.335,0,0,0-1.67.581,1.834,1.834,0,0,0-.627,1.382,2.4,2.4,0,0,0,.251,1.069,8,8,0,0,0,1.069,1.419,19.724,19.724,0,0,1,2.836,3.619,4.874,4.874,0,0,1,.645,2.3,4.114,4.114,0,0,1-1.454,3.1,5.17,5.17,0,0,1-3.7,1.365,8.339,8.339,0,0,1-2.805-.569,2.377,2.377,0,0,0-.863-.21,1.226,1.226,0,0,0-1.139.778h-.639l1.033-5.463h.627a5.714,5.714,0,0,0,1.062,3.623,3.371,3.371,0,0,0,2.643,1.062,2.779,2.779,0,0,0,2.029-.718,2.321,2.321,0,0,0,.757-1.751,2.892,2.892,0,0,0-.272-1.255,14.357,14.357,0,0,0-1.994-2.809,15.184,15.184,0,0,1-1.94-2.687,4.111,4.111,0,0,1-.429-1.791,3.637,3.637,0,0,1,1.2-2.755,4.169,4.169,0,0,1,3.065-1.143,4.95,4.95,0,0,1,.959.081c.166.046.544.158,1.118.378a4.3,4.3,0,0,0,1.164.336,1.459,1.459,0,0,0,1.208-.795Zm19.628-8.733-5.812,19.927a10.9,10.9,0,0,0-.486,2.131.568.568,0,0,0,.145.336.465.465,0,0,0,.3.143.982.982,0,0,0,.531-.212,15.659,15.659,0,0,0,1.928-2.033l.573.34a14.989,14.989,0,0,1-2.465,2.751,3.733,3.733,0,0,1-2.318,1.037,1.237,1.237,0,0,1-.948-.4A1.6,1.6,0,0,1,182,97.4a9.242,9.242,0,0,1,.51-2.585l.658-2.1a19.947,19.947,0,0,1-4.463,5.227,4.456,4.456,0,0,1-2.656,1,2.858,2.858,0,0,1-2.235-1.143,4.608,4.608,0,0,1-.952-3.092,11.04,11.04,0,0,1,1.6-5.37,13.667,13.667,0,0,1,4.245-4.648,6.983,6.983,0,0,1,3.822-1.436,3.314,3.314,0,0,1,1.577.365,4.553,4.553,0,0,1,1.3,1.237l1.641-5.876c.141-.421.226-.739.307-1a4.141,4.141,0,0,0,.2-1.1.806.806,0,0,0-.239-.6,1.491,1.491,0,0,0-.917-.293,11.794,11.794,0,0,0-1.284.127V75.47Zm-6.264,11.995a2.39,2.39,0,0,0-.633-1.745,2.076,2.076,0,0,0-1.581-.662c-1.417,0-2.9,1.168-4.428,3.523a12.242,12.242,0,0,0-2.322,6.718,2.966,2.966,0,0,0,.554,1.936,1.771,1.771,0,0,0,1.351.666c1.152,0,2.637-1.257,4.4-3.805,1.76-2.521,2.66-4.737,2.66-6.631m8.963,5.662a12.547,12.547,0,0,0-.131,1.4,3.67,3.67,0,0,0,3.66,3.627,5.928,5.928,0,0,0,2.347-.5,21.322,21.322,0,0,0,3.343-2.206l.349.488c-2.683,2.645-5.208,3.959-7.631,3.959a4.51,4.51,0,0,1-3.727-1.544,5.342,5.342,0,0,1-1.249-3.438,10.1,10.1,0,0,1,1.552-5.146,11.979,11.979,0,0,1,3.911-4.114,9.166,9.166,0,0,1,4.818-1.446,3.987,3.987,0,0,1,2.65.726,2.183,2.183,0,0,1,.867,1.706,4.09,4.09,0,0,1-1.1,2.712,10.528,10.528,0,0,1-4.349,2.7,24.007,24.007,0,0,1-5.312,1.081m.116-.834a13.457,13.457,0,0,0,4.063-.99,8.086,8.086,0,0,0,3.123-2.212,3.924,3.924,0,0,0,1.046-2.457,1.539,1.539,0,0,0-.452-1.152,1.781,1.781,0,0,0-1.278-.434,5.531,5.531,0,0,0-3.658,1.824,11.143,11.143,0,0,0-2.843,5.42m34.225-16.182-5.442,18.929a9.851,9.851,0,0,0-.479,2.415,1.131,1.131,0,0,0,.425.965,4.344,4.344,0,0,0,2.015.446l-.162.627h-8.706l.245-.627a6.29,6.29,0,0,0,1.824-.212,2.305,2.305,0,0,0,1.056-.826,9.836,9.836,0,0,0,1.147-2.789l3.911-13.6c.23-.809.373-1.3.388-1.407a5.523,5.523,0,0,0,.054-.668,1.326,1.326,0,0,0-.332-.932,1.121,1.121,0,0,0-.876-.324,7.6,7.6,0,0,0-1.363.193l-.205-.608,5.673-1.587Zm3.841,23.78v-.523a11.925,11.925,0,0,0,3.031-1.087,17.629,17.629,0,0,0,4.094-3.1,21.346,21.346,0,0,0,3.224-4.262,11.651,11.651,0,0,1-1.591.66,6.088,6.088,0,0,1-1.284.141,4.706,4.706,0,0,1-3.919-1.722,6.581,6.581,0,0,1-1.345-4.073,9.985,9.985,0,0,1,2.621-6.926,7.607,7.607,0,0,1,5.59-2.884,4.774,4.774,0,0,1,4.137,2.017,8.039,8.039,0,0,1,1.425,4.722,15.839,15.839,0,0,1-1.583,6.787,17.757,17.757,0,0,1-4.32,5.752,19.237,19.237,0,0,1-5.7,3.575,15.73,15.73,0,0,1-4.384.927m11.2-10.383a19.9,19.9,0,0,0,2.378-8.64,4.134,4.134,0,0,0-.9-2.849,2.811,2.811,0,0,0-2.114-1.021c-1.313,0-2.521.936-3.652,2.787a12.961,12.961,0,0,0-1.629,6.631,4.516,4.516,0,0,0,.932,3.071,3.083,3.083,0,0,0,2.355,1.029,3.76,3.76,0,0,0,1.191-.187,6.186,6.186,0,0,0,1.436-.822m11.808-12.933h11.4V76.2L253.38,98.939l-1.355-.62,11.233-20h-5.434a8.055,8.055,0,0,0-3.075.4,5.7,5.7,0,0,0-1.892,1.932h-.689Zm27.424,0L277.868,90.7h2.741l-.616,2.087h-2.768l-1.776,6.152h-2.471l1.795-6.152h-8.291l.714-2.359,13.763-14.8ZM278.5,79.985,268.641,90.7h6.781Z" transform="translate(136.221 80.098)" fill="#fff" fill-rule="evenodd"/>
      <path id="Caminho_4346" data-name="Caminho 4346" d="M309.641,22.321a9.114,9.114,0,0,1,4.351,1.141,8.144,8.144,0,0,1,3.3,3.289,8.869,8.869,0,0,1,.017,8.835,8.168,8.168,0,0,1-3.282,3.282,8.87,8.87,0,0,1-4.388,1.168,8.962,8.962,0,0,1-4.426-1.168,8.319,8.319,0,0,1-3.291-3.282,8.989,8.989,0,0,1-1.16-4.4,8.8,8.8,0,0,1,1.185-4.434,8.1,8.1,0,0,1,3.318-3.289,9.11,9.11,0,0,1,4.374-1.141m0,1.452a7.548,7.548,0,0,0-3.656.979,6.823,6.823,0,0,0-2.764,2.72,7.562,7.562,0,0,0-1,3.712,7.37,7.37,0,0,0,.99,3.666,6.942,6.942,0,0,0,2.735,2.733,7.507,7.507,0,0,0,3.693.992,7.36,7.36,0,0,0,3.658-.992,6.818,6.818,0,0,0,2.733-2.733,7.442,7.442,0,0,0,.975-3.666,7.55,7.55,0,0,0-.988-3.712,6.65,6.65,0,0,0-2.764-2.72,7.491,7.491,0,0,0-3.614-.979m-3.9,12.31V26.548H309a7.693,7.693,0,0,1,2.44.264,2.334,2.334,0,0,1,1.208.911,2.557,2.557,0,0,1,.438,1.4,2.5,2.5,0,0,1-.739,1.813,2.9,2.9,0,0,1-1.99.882,2.2,2.2,0,0,1,.811.5,10.35,10.35,0,0,1,1.407,1.892l1.17,1.865h-1.88l-.855-1.517a7.759,7.759,0,0,0-1.593-2.212,2.01,2.01,0,0,0-1.243-.32h-.9v4.048Zm1.544-5.37h1.867a3.121,3.121,0,0,0,1.828-.394,1.3,1.3,0,0,0,.479-1.052,1.328,1.328,0,0,0-.237-.778,1.425,1.425,0,0,0-.647-.492,5,5,0,0,0-1.552-.162h-1.739Z" transform="translate(323.284 23.993)" fill="#fff" fill-rule="evenodd"/>
      <path id="Caminho_4347" data-name="Caminho 4347" d="M85.176,86.011V84.5h2.038c2.291,0,3.911-.737,4.868-2.241.583-.9.88-2.9.88-6.03V40.522c0-3.448-.378-5.608-1.116-6.482a5.814,5.814,0,0,0-4.631-1.791H85.176V30.743h22.037q12.132,0,18.462,2.809a22.171,22.171,0,0,1,10.181,9.381,29.366,29.366,0,0,1,3.849,15.159q0,11.54-6.866,19.284-7.706,8.63-23.475,8.636Zm15.452-3.992a39.916,39.916,0,0,0,8.5,1.147A20,20,0,0,0,124.5,76.525q6.116-6.651,6.11-18.027,0-11.453-6.11-18.06a20.417,20.417,0,0,0-15.68-6.6,32.952,32.952,0,0,0-8.19,1.187Z" transform="translate(91.553 33.046)" fill="#fff"/>
      <path id="Caminho_4348" data-name="Caminho 4348" d="M46.741,11.014l1.245,18.657H46.741q-2.5-8.378-7.135-12.065a17.415,17.415,0,0,0-11.138-3.677A18.085,18.085,0,0,0,18.628,16.7a18.282,18.282,0,0,0-6.918,8.843,39.672,39.672,0,0,0-2.517,15.1,32.307,32.307,0,0,0,2.376,12.922,17.943,17.943,0,0,0,7.165,8.38,20.631,20.631,0,0,0,10.9,2.909,18.814,18.814,0,0,0,9.4-2.289q4.074-2.294,8.953-9.09l1.255.811q-4.108,7.329-9.6,10.729a24.254,24.254,0,0,1-13.024,3.392q-13.591,0-21.05-10.115A28.976,28.976,0,0,1,0,40.558,31.725,31.725,0,0,1,3.658,25.465,26.644,26.644,0,0,1,13.773,14.8a27.183,27.183,0,0,1,14.059-3.782,25.633,25.633,0,0,1,11.684,2.915,6.384,6.384,0,0,0,2.423.888,2.639,2.639,0,0,0,1.888-.768,6.3,6.3,0,0,0,1.494-3.036Z" transform="translate(0 11.839)" fill="#fff"/>
      <path id="Caminho_4349" data-name="Caminho 4349" d="M62.561,48.781H41.4l-3.716,8.661A13.732,13.732,0,0,0,36.31,62.22a2.789,2.789,0,0,0,1.191,2.2c.795.637,2.5,1.054,5.146,1.245v1.488H25.423V65.668q3.417-.619,4.442-1.589c1.361-1.3,2.882-3.917,4.548-7.893L53.65,11.014H55.06L74.1,56.672q2.3,5.5,4.177,7.148a8.55,8.55,0,0,0,5.216,1.849v1.488H61.92V65.668q3.265-.177,4.417-1.1A2.835,2.835,0,0,0,67.485,62.3a17.011,17.011,0,0,0-1.608-5.631ZM61.43,45.787,52.158,23.6,42.647,45.787Z" transform="translate(27.327 11.839)" fill="#fff"/>
      <path id="Caminho_4350" data-name="Caminho 4350" d="M89.049,11.014V29.995H87.561a23.614,23.614,0,0,0-2.6-8.7,13.6,13.6,0,0,0-5.341-5.142,14.752,14.752,0,0,0-7.181-1.9A9.76,9.76,0,0,0,65.5,16.819a7.858,7.858,0,0,0-2.743,5.859,6.969,6.969,0,0,0,1.735,4.563Q67,30.282,76.4,35.34a81.531,81.531,0,0,1,10.455,6.337,15.332,15.332,0,0,1,4.314,5.2,13.724,13.724,0,0,1,1.519,6.281A14.233,14.233,0,0,1,87.862,63.9q-4.821,4.51-12.406,4.5a25.3,25.3,0,0,1-4.469-.365A44.291,44.291,0,0,1,65.8,66.573a22.808,22.808,0,0,0-4.973-1.27,2.086,2.086,0,0,0-1.6.6,4.743,4.743,0,0,0-.867,2.5H56.872V49.588h1.492a26.874,26.874,0,0,0,2.82,8.847,13.565,13.565,0,0,0,5.43,4.876,16.743,16.743,0,0,0,8,1.944,11.349,11.349,0,0,0,7.959-2.67A8.28,8.28,0,0,0,85.5,56.271a8.665,8.665,0,0,0-1.1-4.09,12.25,12.25,0,0,0-3.453-3.847,97.906,97.906,0,0,0-8.6-5.162,81.578,81.578,0,0,1-9.976-6.3,16.851,16.851,0,0,1-4.5-5.177,12.784,12.784,0,0,1-1.533-6.233,13.549,13.549,0,0,1,4.523-10.183,16.052,16.052,0,0,1,11.484-4.268,23.059,23.059,0,0,1,9.239,2.141,9.594,9.594,0,0,0,3.189,1.021,2.431,2.431,0,0,0,1.716-.631,5.074,5.074,0,0,0,1.064-2.531Z" transform="translate(60.564 11.839)" fill="#fff"/>
      <path id="Caminho_4351" data-name="Caminho 4351" d="M113.451,48.781H92.273l-3.7,8.661a13.887,13.887,0,0,0-1.382,4.778,2.765,2.765,0,0,0,1.2,2.2q1.192.955,5.133,1.245v1.488H76.307V65.668q3.433-.619,4.436-1.589c1.374-1.3,2.894-3.917,4.561-7.893l19.232-45.172h1.415l19.035,45.658q2.3,5.5,4.168,7.148a8.626,8.626,0,0,0,5.225,1.849v1.488H112.8V65.668c2.181-.118,3.66-.481,4.426-1.1a2.848,2.848,0,0,0,1.143-2.268,16.806,16.806,0,0,0-1.608-5.631Zm-1.127-2.994L103.044,23.6l-9.52,22.191Z" transform="translate(82.02 11.839)" fill="#fff"/>
    </g>
  </g>
</svg>
