<svg xmlns="http://www.w3.org/2000/svg" xmlns:xlink="http://www.w3.org/1999/xlink" width="174.675" height="58.359" viewBox="0 0 174.675 58.359">
  <defs>
    <clipPath id="clip-path">
      <path id="Caminho_4348" data-name="Caminho 4348" d="M207.336,214.543a6.541,6.541,0,0,0,2.462-3.892.049.049,0,0,1,.1.014,6,6,0,0,1-6.333,5.6A6.065,6.065,0,0,1,201,215.52a.042.042,0,0,1,.036-.076,6.172,6.172,0,0,0,1.434.369,6.722,6.722,0,0,0,.914.063,6.519,6.519,0,0,0,3.95-1.332m-1.518-.372a6.822,6.822,0,0,0,3.078-3.346,5.536,5.536,0,0,0,.378-1.616.049.049,0,0,1,.1,0,5.643,5.643,0,0,1-.21,1.7,6,6,0,0,1-7,4.28,7.133,7.133,0,0,1-1.468-.5.042.042,0,0,1,.029-.079,7.892,7.892,0,0,0,1.913.3c.083,0,.167.005.25.005a6.245,6.245,0,0,0,2.932-.744m-1.416-.514a6.186,6.186,0,0,0,3.769-7.253.049.049,0,0,1,.092-.03,5.623,5.623,0,0,1,.427,2.37,6.006,6.006,0,0,1-7.712,5.41,5.54,5.54,0,0,1-.892-.354.042.042,0,0,1,.032-.078,6.587,6.587,0,0,0,2.081.334,6.1,6.1,0,0,0,2.2-.4m1.5-13.09-2.84-5.123a6.016,6.016,0,0,1,4.529-8.823.056.056,0,0,1,.024.108q-.17.055-.339.12a6.185,6.185,0,0,0-3.531,8l2.223,5.684a.037.037,0,0,1-.021.048l-.013,0a.037.037,0,0,1-.032-.019m-.606.226-3.519-4.83a6.009,6.009,0,0,1,1.166-8.417,6.8,6.8,0,0,1,3.288-1.3.056.056,0,0,1,.024.108,6.568,6.568,0,0,0-3.682,9.354l2.8,5.029a.047.047,0,0,1-.025.067.046.046,0,0,1-.017,0,.047.047,0,0,1-.038-.019m-.627.243-.294-.345L200.386,196a6.015,6.015,0,0,1,.482-8.483,6.752,6.752,0,0,1,3.8-1.584.056.056,0,0,1,.021.109,6.57,6.57,0,0,0-3.363,10.255l3.411,4.684a.045.045,0,0,1-.071.056m-9.237,8.779L179.4,191.9a6.015,6.015,0,0,1,.482-8.484l.627-.559a.06.06,0,0,1,.092.074,6.58,6.58,0,0,0,.5,7.155l14.431,19.643a.068.068,0,0,1-.055.108.065.065,0,0,1-.049-.023m-.445-1.806-13.434-18.256a6.009,6.009,0,0,1,1.165-8.416l.549-.414a.06.06,0,0,1,.088.077,6.616,6.616,0,0,0-.562,1.335,6.526,6.526,0,0,0,.52,5l5.383,9.388,6.4,11.209a.068.068,0,0,1-.06.1.064.064,0,0,1-.053-.028m-.307-1.965L183.8,187.069a6.008,6.008,0,0,1,2.431-8.146l.519-.3a.06.06,0,0,1,.081.083,6.174,6.174,0,0,0-.471,5.43l8.439,21.847a.067.067,0,0,1-.065.092.064.064,0,0,1-.056-.034m-.35-31.739,9.691-5.526a6.218,6.218,0,0,1,4.765-.364,5.123,5.123,0,0,1,1.147.568.055.055,0,0,1-.034.1,6.159,6.159,0,0,0-2.745.4l-12.776,4.926a.059.059,0,0,1-.022,0,.057.057,0,0,1-.027-.107m-5.213,2.2,11.932-9h0a5.964,5.964,0,0,1,3.613-1.219,6.094,6.094,0,0,1,.837.058,6.029,6.029,0,0,1,1.5.409,7.994,7.994,0,0,1,1.4.883.055.055,0,0,1-.045.1,6.654,6.654,0,0,0-4.607.556L189.18,176.6a.059.059,0,0,1-.029.008.057.057,0,0,1-.033-.1m-3.518,1.813,13.322-11.881a5.965,5.965,0,0,1,3.993-1.526q.173,0,.348.01a5.98,5.98,0,0,1,2.7.814.055.055,0,0,1-.035.1l-.353-.049a6.526,6.526,0,0,0-4.863,1.268l-15.042,11.35a.057.057,0,0,1-.072-.088m12.95-12.3L179.512,183a6.575,6.575,0,0,0-.526,9.273L199,214.643a6.526,6.526,0,0,0,4.527,2.184c.128.007.255.01.381.01a6.568,6.568,0,0,0,5.747-9.733c-.073-.133-2.137-3.721-2.821-4.912a1.526,1.526,0,0,1,.686-2.2c1.077-.408,2.333-.87,2.333-.87l1.894-.734a6.185,6.185,0,0,0-.137-11.584c-.139-.05-3.873-1.177-4.432-1.3a8.14,8.14,0,0,0-1.511-.171A7.612,7.612,0,0,0,200.5,187.1a6.573,6.573,0,0,0-.531,9.267l4.168,4.9a8.094,8.094,0,0,1-4.881-15.4l12.374-4.853a6.185,6.185,0,0,0,1.082-10.987c-.864-.5-5.759-4.327-6.239-4.636a6.529,6.529,0,0,0-3.174-1.026q-.2-.012-.4-.012a6.486,6.486,0,0,0-4.343,1.669" transform="translate(-177.321 -164.354)" fill="none"/>
    </clipPath>
    <linearGradient id="linear-gradient" x1="-0.528" y1="1.491" x2="-0.525" y2="1.491" gradientUnits="objectBoundingBox">
      <stop offset="0" stop-color="#00ce6c"/>
      <stop offset="0.45" stop-color="#00c974"/>
      <stop offset="1" stop-color="#00c086"/>
    </linearGradient>
  </defs>
  <g id="Grupo_10062" data-name="Grupo 10062" transform="translate(6394.679 20742.646)">
    <g id="Grupo_10059" data-name="Grupo 10059" transform="translate(-6303.436 -20701.195)">
      <path id="Caminho_4341" data-name="Caminho 4341" d="M926.563,532.3a1.139,1.139,0,1,1,2.278.019v7.87a1.139,1.139,0,0,1-2.278,0v-.621a3.979,3.979,0,0,1-3.389,1.864c-2.335,0-4.613-1.864-4.613-5.159v-.038c0-3.295,2.24-5.159,4.613-5.159a4.066,4.066,0,0,1,3.389,1.751Zm-5.7,3.935v.038a2.958,2.958,0,0,0,2.862,3.182,3,3,0,0,0,2.881-3.182v-.038a2.983,2.983,0,0,0-2.881-3.182,2.914,2.914,0,0,0-2.862,3.182" transform="translate(-918.561 -527.384)" fill="#00d586"/>
      <path id="Caminho_4342" data-name="Caminho 4342" d="M1013.24,536.308v-.038a5.131,5.131,0,0,1,5.178-5.2,5.031,5.031,0,0,1,3.483,1.243,1.08,1.08,0,0,1,.358.791,1.037,1.037,0,0,1-1.054,1.036,1.16,1.16,0,0,1-.678-.226,3.153,3.153,0,0,0-2.128-.847,3,3,0,0,0-2.881,3.163v.038a3.008,3.008,0,0,0,2.975,3.182,3.317,3.317,0,0,0,2.222-.885.961.961,0,0,1,1.6.753.888.888,0,0,1-.32.715,4.866,4.866,0,0,1-3.615,1.412,5.076,5.076,0,0,1-5.14-5.14" transform="translate(-1001.585 -527.384)" fill="#00d586"/>
      <path id="Caminho_4343" data-name="Caminho 4343" d="M1099.711,532.3a1.139,1.139,0,1,1,2.278.019v7.87a1.139,1.139,0,0,1-2.278,0v-.621a3.98,3.98,0,0,1-3.389,1.864c-2.335,0-4.613-1.864-4.613-5.159v-.038c0-3.295,2.241-5.159,4.613-5.159a4.067,4.067,0,0,1,3.389,1.751Zm-5.7,3.935v.038a2.958,2.958,0,0,0,2.862,3.182,3,3,0,0,0,2.88-3.182v-.038a2.983,2.983,0,0,0-2.88-3.182,2.914,2.914,0,0,0-2.862,3.182" transform="translate(-1070.395 -527.384)" fill="#00d586"/>
      <path id="Caminho_4344" data-name="Caminho 4344" d="M1196.975,513.9a1.139,1.139,0,0,1-2.278,0v-.621a3.98,3.98,0,0,1-3.389,1.864c-2.335,0-4.613-1.864-4.613-5.159v-.038c0-3.295,2.24-5.159,4.613-5.159a4.066,4.066,0,0,1,3.389,1.751v-4.312a1.139,1.139,0,0,1,2.278,0Zm-7.983-3.954v.038a2.958,2.958,0,0,0,2.862,3.182,3,3,0,0,0,2.881-3.182v-.038a2.983,2.983,0,0,0-2.881-3.182,2.914,2.914,0,0,0-2.862,3.182" transform="translate(-1153.689 -501.095)" fill="#00d586"/>
      <path id="Caminho_4345" data-name="Caminho 4345" d="M1286.476,541.448a4.96,4.96,0,0,1-5.1-5.159v-.038a4.934,4.934,0,0,1,4.858-5.178,4.7,4.7,0,0,1,4.726,4.9,1.065,1.065,0,0,1-1.073,1.092h-6.232a2.775,2.775,0,0,0,2.862,2.523,3.573,3.573,0,0,0,2.353-.866.848.848,0,0,1,.584-.207.9.9,0,0,1,.9.922.994.994,0,0,1-.3.7,5.1,5.1,0,0,1-3.577,1.318m2.259-5.893a2.581,2.581,0,0,0-2.523-2.617,2.691,2.691,0,0,0-2.58,2.617Z" transform="translate(-1236.713 -527.384)" fill="#00d586"/>
      <path id="Caminho_4346" data-name="Caminho 4346" d="M1370.547,532.317a1.125,1.125,0,0,1,1.13-1.149,1.141,1.141,0,0,1,1.148,1.149v.471a3.564,3.564,0,0,1,3.031-1.713,3.155,3.155,0,0,1,2.975,1.751,4,4,0,0,1,3.351-1.751c2.165,0,3.483,1.374,3.483,3.8v5.309a1.109,1.109,0,0,1-1.13,1.13,1.125,1.125,0,0,1-1.149-1.13v-4.613c0-1.582-.734-2.429-2.015-2.429-1.243,0-2.128.866-2.128,2.466v4.575a1.139,1.139,0,0,1-2.278,0v-4.632c0-1.544-.753-2.41-2.015-2.41a2.171,2.171,0,0,0-2.128,2.466v4.575a1.139,1.139,0,0,1-2.278,0Z" transform="translate(-1314.91 -527.384)" fill="#00d586"/>
      <path id="Caminho_4347" data-name="Caminho 4347" d="M1502.25,544.679a.971.971,0,0,1-.715-.941.916.916,0,0,1,.922-.941,1.167,1.167,0,0,1,.414.075,2.575,2.575,0,0,0,.791.132c.678,0,1.035-.283,1.412-1.054l.075-.207-3.69-8.247a1.537,1.537,0,0,1-.132-.546,1.094,1.094,0,0,1,1.13-1.111,1.143,1.143,0,0,1,1.111.866l2.674,6.609,2.485-6.609a1.169,1.169,0,0,1,1.092-.866,1.077,1.077,0,0,1,1.092,1.073,2.044,2.044,0,0,1-.094.546l-3.634,8.717c-.847,2.034-1.751,2.787-3.351,2.787a4.024,4.024,0,0,1-1.582-.282" transform="translate(-1429.591 -528.054)" fill="#00d586"/>
    </g>
    <g id="Grupo_10060" data-name="Grupo 10060" transform="translate(-6394.679 -20742.646)">
      <g id="Grupo_10057" data-name="Grupo 10057" clip-path="url(#clip-path)">
        <rect id="Retângulo_3188" data-name="Retângulo 3188" width="39.939" height="52.483" transform="translate(-0.747 0)" fill="url(#linear-gradient)"/>
      </g>
    </g>
    <g id="Grupo_10058" data-name="Grupo 10058" transform="translate(-6345.528 -20732.828)">
      <path id="Caminho_4349" data-name="Caminho 4349" d="M588.424,244.486a1.381,1.381,0,0,0-.97-.38,19.52,19.52,0,0,0-2.5.184,11.068,11.068,0,0,0-6.877,4.966h0a10.044,10.044,0,0,0-1.459,5.258l.037,17.283a1.309,1.309,0,0,0,1.307,1.305h2.693a1.309,1.309,0,0,0,1.308-1.315l-.07-13.412h3.54a1.31,1.31,0,0,0,1.263-.971l.71-2.657a1.308,1.308,0,0,0-1.264-1.645h-3.862a5.454,5.454,0,0,1,1.845-2.4,5.706,5.706,0,0,1,1.842-.93,4.359,4.359,0,0,1,1.52-.195,1.329,1.329,0,0,0,1.346-1.335v-2.8a1.324,1.324,0,0,0-.4-.956" transform="translate(-576.613 -244.106)" fill="#00372e"/>
      <path id="Caminho_4350" data-name="Caminho 4350" d="M696.527,250.754a3.226,3.226,0,0,0,3.25-3.25,3.1,3.1,0,0,0-.945-2.266,3.279,3.279,0,0,0-4.609,0,3.1,3.1,0,0,0-.946,2.266,3.228,3.228,0,0,0,3.251,3.25" transform="translate(-678.915 -244.269)" fill="#00372e"/>
      <path id="Caminho_4351" data-name="Caminho 4351" d="M701.028,304.741h-2.779a1.536,1.536,0,0,0-1.534,1.534v18.581a1.536,1.536,0,0,0,1.534,1.534h2.779a1.536,1.536,0,0,0,1.534-1.534V306.275a1.536,1.536,0,0,0-1.534-1.534" transform="translate(-681.931 -297.277)" fill="#00372e"/>
      <path id="Caminho_4352" data-name="Caminho 4352" d="M785.252,309.251a10.005,10.005,0,0,0-3.718-3.3,10.851,10.851,0,0,0-9.773-.021,9.42,9.42,0,0,0-3.745,3.388,9.166,9.166,0,0,0-1.389,4.994v10.627a1.407,1.407,0,0,0,1.405,1.405h2.308a1.407,1.407,0,0,0,1.405-1.405V314.314a3.914,3.914,0,0,1,1.386-3.193,5.283,5.283,0,0,1,3.494-1.188,5.162,5.162,0,0,1,3.458,1.189h0a3.91,3.91,0,0,1,1.386,3.193v10.627a1.407,1.407,0,0,0,1.405,1.405h2.315a1.409,1.409,0,0,0,1.405-1.4l.069-10.637a9.38,9.38,0,0,0-1.413-5.063" transform="translate(-743.237 -297.311)" fill="#00372e"/>
      <path id="Caminho_4353" data-name="Caminho 4353" d="M966.581,309.351a11.042,11.042,0,0,0-4.485-4.085,10.5,10.5,0,0,0-3.955-1.1,10.732,10.732,0,0,0-6.271,1.4,10.957,10.957,0,0,0-3.963,3.963,10.58,10.58,0,0,0-1.456,5.4,10.237,10.237,0,0,0,1.474,5.382,10.746,10.746,0,0,0,14.981,3.82,1.547,1.547,0,0,0,1.544,1.488h2.031a1.549,1.549,0,0,0,1.546-1.54l.034-9.458a10.037,10.037,0,0,0-1.479-5.278m-6.524,10.465a5.484,5.484,0,0,1-5.624-.019,5.715,5.715,0,0,1-2.058-2.06,5.446,5.446,0,0,1-.767-2.8,5.208,5.208,0,0,1,.787-2.822,5.718,5.718,0,0,1,2.059-2.058,5.452,5.452,0,0,1,2.8-.767,5.531,5.531,0,0,1,2.818.747,6,6,0,0,1,2.061,2.1,5.452,5.452,0,0,1,.768,2.8,5.515,5.515,0,0,1-.745,2.815,6.02,6.02,0,0,1-2.1,2.065" transform="translate(-900.925 -296.744)" fill="#00372e"/>
      <path id="Caminho_4354" data-name="Caminho 4354" d="M1161.176,309.253a10.006,10.006,0,0,0-3.718-3.3,10.852,10.852,0,0,0-9.773-.021,9.418,9.418,0,0,0-3.745,3.388,9.165,9.165,0,0,0-1.389,4.994v10.627a1.407,1.407,0,0,0,1.406,1.405h2.308a1.407,1.407,0,0,0,1.405-1.405V314.316a3.913,3.913,0,0,1,1.386-3.193,5.282,5.282,0,0,1,3.494-1.188,5.16,5.16,0,0,1,3.457,1.188,3.911,3.911,0,0,1,1.386,3.193v10.627a1.407,1.407,0,0,0,1.406,1.405h2.314a1.409,1.409,0,0,0,1.406-1.4l.069-10.637a9.38,9.38,0,0,0-1.413-5.063" transform="translate(-1072.886 -297.313)" fill="#00372e"/>
      <path id="Caminho_4355" data-name="Caminho 4355" d="M1422.7,309.808a11.014,11.014,0,0,0-3.981-3.923,10.745,10.745,0,0,0-10.77-.018,10.964,10.964,0,0,0-3.963,3.964,10.587,10.587,0,0,0-1.456,5.4,10.243,10.243,0,0,0,1.477,5.387,10.726,10.726,0,0,0,9.329,5.418,10.429,10.429,0,0,0,5.422-1.474,10.747,10.747,0,0,0,3.928-3.927,10.58,10.58,0,0,0,1.455-5.4,10.793,10.793,0,0,0-1.44-5.427m-4.024,5.427a5.324,5.324,0,0,1-.713,2.672h0a5.224,5.224,0,0,1-1.938,1.957,5.416,5.416,0,0,1-5.361,0,5.231,5.231,0,0,1-1.958-1.938,5.3,5.3,0,0,1-.711-2.69,5.394,5.394,0,0,1,.712-2.71,5.1,5.1,0,0,1,1.936-1.937,5.542,5.542,0,0,1,5.4.018,5.076,5.076,0,0,1,1.935,1.936,5.393,5.393,0,0,1,.7,2.693" transform="translate(-1300.859 -297.003)" fill="#00372e"/>
      <path id="Caminho_4356" data-name="Caminho 4356" d="M1325.887,353.015V364.3a1.448,1.448,0,0,0,1.446,1.447h2.955a1.448,1.448,0,0,0,1.446-1.447v-14.5h-2.627a3.225,3.225,0,0,0-3.221,3.221" transform="translate(-1233.654 -336.784)" fill="#00372e"/>
      <path id="Caminho_4357" data-name="Caminho 4357" d="M1335.725,252.052a1.435,1.435,0,0,0-1.147-.566h-2.844v-4.8a1.448,1.448,0,0,0-1.446-1.446h-2.955a1.448,1.448,0,0,0-1.446,1.446v10.077h8.055a1.449,1.449,0,0,0,1.4-1.073l.635-2.379a1.435,1.435,0,0,0-.25-1.254" transform="translate(-1233.654 -245.096)" fill="#00372e"/>
      <path id="Caminho_4358" data-name="Caminho 4358" d="M1563.479,291.1a2.1,2.1,0,0,1-.838-.168,2.187,2.187,0,0,1-1.149-1.149,2.178,2.178,0,0,1,0-1.676,2.187,2.187,0,0,1,1.149-1.149,2.179,2.179,0,0,1,1.676,0,2.189,2.189,0,0,1,1.149,1.149,2.18,2.18,0,0,1,0,1.676,2.189,2.189,0,0,1-1.149,1.149,2.1,2.1,0,0,1-.838.168m0-.377a1.7,1.7,0,0,0,.682-.138,1.731,1.731,0,0,0,.557-.383,1.84,1.84,0,0,0,.377-.569,1.793,1.793,0,0,0,0-1.377,1.841,1.841,0,0,0-.377-.569,1.776,1.776,0,0,0-.557-.386,1.725,1.725,0,0,0-1.365,0,1.773,1.773,0,0,0-.557.386,1.8,1.8,0,0,0-.374.569,1.829,1.829,0,0,0,0,1.377,1.794,1.794,0,0,0,.374.569,1.729,1.729,0,0,0,.557.383,1.7,1.7,0,0,0,.683.138m-.695-.688a.116.116,0,0,1-.132-.132v-1.928a.116.116,0,0,1,.132-.132h.784a1.279,1.279,0,0,1,.419.066.632.632,0,0,1,.308.221.682.682,0,0,1,.117.419.64.64,0,0,1-.117.4.679.679,0,0,1-.3.227l.383.646a.076.076,0,0,1,.018.033.192.192,0,0,1,.006.051.143.143,0,0,1-.033.09.118.118,0,0,1-.1.042h-.162a.169.169,0,0,1-.1-.03.249.249,0,0,1-.072-.084l-.389-.664h-.455v.646a.116.116,0,0,1-.132.132Zm.311-1.173h.461a.422.422,0,0,0,.323-.1.318.318,0,0,0,.084-.216.326.326,0,0,0-.084-.221.423.423,0,0,0-.323-.1h-.461Z" transform="translate(-1440.11 -281.538)" fill="#00372e"/>
    </g>
  </g>
</svg>
