<svg xmlns="http://www.w3.org/2000/svg" xmlns:xlink="http://www.w3.org/1999/xlink" width="484.892" height="162.003" viewBox="0 0 484.892 162.003">
  <defs>
    <clipPath id="clip-path">
      <path id="Caminho_4348" data-name="Caminho 4348" d="M260.641,303.678a18.159,18.159,0,0,0,6.834-10.8.135.135,0,0,1,.267.038,16.663,16.663,0,0,1-17.581,15.556,16.837,16.837,0,0,1-7.1-2.079.117.117,0,0,1,.1-.211,17.134,17.134,0,0,0,3.981,1.023,18.662,18.662,0,0,0,2.538.176,18.1,18.1,0,0,0,10.964-3.7m-4.213-1.031a18.938,18.938,0,0,0,8.544-9.288,15.366,15.366,0,0,0,1.049-4.485.135.135,0,0,1,.27.007,15.665,15.665,0,0,1-.584,4.71,16.649,16.649,0,0,1-19.43,11.88A19.8,19.8,0,0,1,242.2,304.1a.117.117,0,0,1,.081-.219,21.91,21.91,0,0,0,5.311.822c.23.01.462.015.7.015a17.336,17.336,0,0,0,8.14-2.067m-3.93-1.426a17.172,17.172,0,0,0,10.462-20.133.135.135,0,0,1,.256-.083,15.61,15.61,0,0,1,1.184,6.578A16.673,16.673,0,0,1,242.992,302.6a15.382,15.382,0,0,1-2.476-.983.117.117,0,0,1,.09-.216,18.284,18.284,0,0,0,5.778.928,16.945,16.945,0,0,0,6.115-1.107m4.162-36.337-7.883-14.222a16.7,16.7,0,0,1,12.574-24.492.155.155,0,0,1,.066.3q-.472.152-.94.334a17.168,17.168,0,0,0-9.8,22.213l6.17,15.779a.1.1,0,0,1-.059.133.1.1,0,0,1-.036.007.1.1,0,0,1-.09-.053m-1.681.627L245.212,252.1a16.681,16.681,0,0,1,3.236-23.365,18.887,18.887,0,0,1,9.126-3.6.155.155,0,0,1,.068.3,18.231,18.231,0,0,0-10.222,25.966l7.781,13.962a.132.132,0,0,1-.068.187.129.129,0,0,1-.047.008.131.131,0,0,1-.106-.054m-1.74.674-.817-.958L241.348,252.2a16.7,16.7,0,0,1,1.338-23.55,18.744,18.744,0,0,1,10.56-4.4.155.155,0,0,1,.058.3,18.238,18.238,0,0,0-9.337,28.468l9.47,13a.126.126,0,0,1-.057.192.124.124,0,0,1-.044.008.127.127,0,0,1-.1-.044M227.6,290.553l-44.5-49.727a16.7,16.7,0,0,1,1.337-23.551l1.741-1.553a.166.166,0,0,1,.256.2,18.265,18.265,0,0,0,1.392,19.862l40.061,54.529a.188.188,0,0,1-.153.3.18.18,0,0,1-.136-.065m-1.235-5.013-37.294-50.678A16.68,16.68,0,0,1,192.3,211.5l1.524-1.15a.166.166,0,0,1,.245.214,18.363,18.363,0,0,0-1.561,3.707,18.117,18.117,0,0,0,1.444,13.891L208.9,254.222l17.776,31.115a.188.188,0,0,1-.166.282.177.177,0,0,1-.146-.078m-.852-5.455-30.2-52.676A16.678,16.678,0,0,1,202.06,204.8l1.441-.821a.166.166,0,0,1,.225.229,17.138,17.138,0,0,0-1.307,15.074l23.427,60.648a.187.187,0,0,1-.179.255.177.177,0,0,1-.157-.1m-.971-88.107,26.9-15.339a17.26,17.26,0,0,1,13.227-1.01,14.222,14.222,0,0,1,3.184,1.576.151.151,0,0,1-.095.278,17.1,17.1,0,0,0-7.619,1.105l-35.465,13.675a.163.163,0,0,1-.061.012.159.159,0,0,1-.074-.3m-14.47,6.115L243.191,173.1l0,0a16.556,16.556,0,0,1,10.03-3.383,16.916,16.916,0,0,1,2.323.162,16.737,16.737,0,0,1,4.171,1.136,22.194,22.194,0,0,1,3.894,2.452.152.152,0,0,1-.126.269,18.472,18.472,0,0,0-12.789,1.543l-40.454,23.076a.162.162,0,0,1-.081.023.159.159,0,0,1-.093-.286m-9.766,5.032,36.982-32.981a16.558,16.558,0,0,1,11.085-4.237q.481,0,.967.027a16.6,16.6,0,0,1,7.5,2.261.153.153,0,0,1-.1.283l-.98-.136a18.117,18.117,0,0,0-13.5,3.521L200.5,203.37a.158.158,0,0,1-.2-.244m35.95-34.138L183.4,216.118a18.251,18.251,0,0,0-1.461,25.741l55.564,62.095a18.115,18.115,0,0,0,12.566,6.063c.354.02.707.029,1.058.029a18.233,18.233,0,0,0,15.953-27.017c-.2-.37-5.931-10.329-7.832-13.634-.843-1.655-1.171-4.955,1.9-6.12,2.989-1.133,6.475-2.416,6.475-2.416l5.257-2.038a17.168,17.168,0,0,0-.38-32.157c-.387-.14-10.752-3.268-12.3-3.6a22.6,22.6,0,0,0-4.194-.474,21.13,21.13,0,0,0-14.357,4.9,18.247,18.247,0,0,0-1.475,25.726l11.569,13.6a22.467,22.467,0,0,1-13.55-42.75L272.55,210.6a17.17,17.17,0,0,0,3-30.5c-2.4-1.385-15.986-12.011-17.318-12.868a18.123,18.123,0,0,0-8.81-2.848q-.56-.034-1.117-.034a18.006,18.006,0,0,0-12.056,4.634" transform="translate(-177.321 -164.354)" fill="#fff"/>
    </clipPath>
  </defs>
  <g id="Grupo_10061" data-name="Grupo 10061" transform="translate(6394.679 20742.646)">
    <g id="Grupo_10059" data-name="Grupo 10059" transform="translate(-6141.39 -20627.578)">
      <path id="Caminho_4341" data-name="Caminho 4341" d="M940.774,534.471a3.162,3.162,0,1,1,6.324.052V556.37a3.162,3.162,0,0,1-6.324,0v-1.725c-2.039,2.874-4.913,5.174-9.408,5.174-6.481,0-12.8-5.174-12.8-14.321v-.1c0-9.147,6.219-14.321,12.8-14.321a11.289,11.289,0,0,1,9.408,4.861Zm-15.837,10.923v.1c0,5.331,3.659,8.833,7.945,8.833,4.233,0,8-3.554,8-8.833v-.1c0-5.331-3.763-8.833-8-8.833-4.338,0-7.945,3.345-7.945,8.833" transform="translate(-918.561 -520.83)" fill="#fff"/>
      <path id="Caminho_4342" data-name="Caminho 4342" d="M1013.24,545.6v-.1a14.243,14.243,0,0,1,14.373-14.425,13.968,13.968,0,0,1,9.669,3.45,3,3,0,0,1,.993,2.195,2.878,2.878,0,0,1-2.927,2.875,3.222,3.222,0,0,1-1.881-.627,8.753,8.753,0,0,0-5.906-2.352c-4.6,0-8,3.972-8,8.781v.1c0,4.912,3.4,8.833,8.257,8.833a9.21,9.21,0,0,0,6.167-2.457,2.667,2.667,0,0,1,4.443,2.091,2.465,2.465,0,0,1-.888,1.986,13.508,13.508,0,0,1-10.035,3.92A14.089,14.089,0,0,1,1013.24,545.6" transform="translate(-980.887 -520.83)" fill="#fff"/>
      <path id="Caminho_4343" data-name="Caminho 4343" d="M1113.922,534.471a3.162,3.162,0,1,1,6.324.052V556.37a3.162,3.162,0,0,1-6.324,0v-1.725c-2.039,2.874-4.913,5.174-9.408,5.174-6.481,0-12.805-5.174-12.805-14.321v-.1c0-9.147,6.219-14.321,12.805-14.321a11.289,11.289,0,0,1,9.408,4.861Zm-15.837,10.923v.1c0,5.331,3.659,8.833,7.945,8.833,4.233,0,8-3.554,8-8.833v-.1c0-5.331-3.763-8.833-8-8.833-4.338,0-7.945,3.345-7.945,8.833" transform="translate(-1032.543 -520.83)" fill="#fff"/>
      <path id="Caminho_4344" data-name="Caminho 4344" d="M1215.232,536.636a3.162,3.162,0,0,1-6.324,0v-1.725c-2.039,2.874-4.913,5.174-9.408,5.174-6.481,0-12.8-5.174-12.8-14.321v-.1c0-9.146,6.219-14.321,12.8-14.321a11.289,11.289,0,0,1,9.408,4.861V504.231a3.162,3.162,0,0,1,6.324,0Zm-22.161-10.976v.1c0,5.331,3.659,8.833,7.945,8.833,4.234,0,8-3.554,8-8.833v-.1c0-5.331-3.763-8.833-8-8.833-4.338,0-7.945,3.345-7.945,8.833" transform="translate(-1095.071 -501.095)" fill="#fff"/>
      <path id="Caminho_4345" data-name="Caminho 4345" d="M1295.538,559.872c-8,0-14.164-5.8-14.164-14.321v-.1c0-7.892,5.592-14.373,13.484-14.373,8.78,0,13.118,7.213,13.118,13.589a2.957,2.957,0,0,1-2.979,3.031h-17.3a7.7,7.7,0,0,0,7.944,7,9.918,9.918,0,0,0,6.533-2.4,2.354,2.354,0,0,1,1.62-.575,2.489,2.489,0,0,1,2.509,2.561,2.761,2.761,0,0,1-.836,1.934,14.166,14.166,0,0,1-9.93,3.659m6.272-16.359c-.418-4.077-2.822-7.265-7-7.265-3.868,0-6.585,2.979-7.161,7.265Z" transform="translate(-1157.397 -520.83)" fill="#fff"/>
      <path id="Caminho_4346" data-name="Caminho 4346" d="M1370.547,534.524a3.124,3.124,0,0,1,3.136-3.188,3.168,3.168,0,0,1,3.188,3.188v1.306c1.778-2.456,4.181-4.756,8.415-4.756a8.757,8.757,0,0,1,8.258,4.861,11.1,11.1,0,0,1,9.3-4.861c6.01,0,9.669,3.815,9.669,10.557V556.37a3.08,3.08,0,0,1-3.136,3.135,3.124,3.124,0,0,1-3.188-3.135v-12.8c0-4.391-2.039-6.742-5.592-6.742-3.449,0-5.906,2.4-5.906,6.847v12.7a3.162,3.162,0,0,1-6.324,0V543.513c0-4.286-2.091-6.69-5.592-6.69s-5.906,2.613-5.906,6.847v12.7a3.162,3.162,0,0,1-6.324,0Z" transform="translate(-1216.099 -520.83)" fill="#fff"/>
      <path id="Caminho_4347" data-name="Caminho 4347" d="M1503.888,567.483a2.694,2.694,0,0,1-1.986-2.613,2.544,2.544,0,0,1,2.561-2.613,3.236,3.236,0,0,1,1.15.209,7.143,7.143,0,0,0,2.2.366c1.881,0,2.874-.785,3.92-2.927l.209-.575-10.245-22.892a4.267,4.267,0,0,1-.366-1.515,3.037,3.037,0,0,1,3.136-3.084c1.62,0,2.509.941,3.083,2.4l7.422,18.345,6.9-18.345a3.245,3.245,0,0,1,3.031-2.4,2.989,2.989,0,0,1,3.031,2.979,5.677,5.677,0,0,1-.261,1.516l-10.087,24.2c-2.352,5.645-4.861,7.735-9.3,7.735a11.169,11.169,0,0,1-4.39-.784" transform="translate(-1302.19 -521.333)" fill="#fff"/>
    </g>
    <g id="Grupo_10060" data-name="Grupo 10060" transform="translate(-6394.679 -20742.646)">
      <g id="Grupo_10057" data-name="Grupo 10057" transform="translate(0 0)" clip-path="url(#clip-path)">
        <rect id="Retângulo_3188" data-name="Retângulo 3188" width="110.869" height="145.691" transform="translate(-2.072 0)" fill="#fff"/>
      </g>
    </g>
    <g id="Grupo_10058" data-name="Grupo 10058" transform="translate(-6258.237 -20715.395)">
      <path id="Caminho_4349" data-name="Caminho 4349" d="M609.4,245.16a3.834,3.834,0,0,0-2.691-1.054,54.189,54.189,0,0,0-6.953.51,30.722,30.722,0,0,0-19.09,13.786v0a27.881,27.881,0,0,0-4.051,14.6l.1,47.978a3.635,3.635,0,0,0,3.629,3.624h7.476a3.633,3.633,0,0,0,3.63-3.649l-.194-37.232h9.826a3.635,3.635,0,0,0,3.506-2.694l1.971-7.375a3.63,3.63,0,0,0-3.508-4.566H592.328a15.139,15.139,0,0,1,5.121-6.676,15.838,15.838,0,0,1,5.113-2.583,12.1,12.1,0,0,1,4.22-.541,3.69,3.69,0,0,0,3.735-3.705v-7.766a3.676,3.676,0,0,0-1.119-2.654" transform="translate(-576.613 -244.106)" fill="#fff"/>
      <path id="Caminho_4350" data-name="Caminho 4350" d="M702.3,262.23a8.955,8.955,0,0,0,9.021-9.021,8.609,8.609,0,0,0-2.624-6.289,9.1,9.1,0,0,0-12.795,0,8.617,8.617,0,0,0-2.626,6.289,8.96,8.96,0,0,0,9.024,9.021" transform="translate(-653.411 -244.228)" fill="#fff"/>
      <path id="Caminho_4351" data-name="Caminho 4351" d="M708.687,304.741h-7.713A4.263,4.263,0,0,0,696.715,309v51.58a4.263,4.263,0,0,0,4.258,4.258h7.713a4.263,4.263,0,0,0,4.258-4.258V309a4.263,4.263,0,0,0-4.258-4.258" transform="translate(-655.675 -284.021)" fill="#fff"/>
      <path id="Caminho_4352" data-name="Caminho 4352" d="M818.329,317.191a27.773,27.773,0,0,0-10.32-9.155,30.122,30.122,0,0,0-27.131-.059,26.149,26.149,0,0,0-10.4,9.4,25.444,25.444,0,0,0-3.855,13.864v29.5a3.906,3.906,0,0,0,3.9,3.9h6.408a3.906,3.906,0,0,0,3.9-3.9v-29.5a10.864,10.864,0,0,1,3.849-8.864,14.666,14.666,0,0,1,9.7-3.3,14.329,14.329,0,0,1,9.6,3.3h0a10.855,10.855,0,0,1,3.847,8.864v29.5a3.906,3.906,0,0,0,3.9,3.9h6.427a3.911,3.911,0,0,0,3.9-3.876l.193-29.527a26.039,26.039,0,0,0-3.924-14.056" transform="translate(-701.697 -284.047)" fill="#fff"/>
      <path id="Caminho_4353" data-name="Caminho 4353" d="M1002.333,318.618a30.653,30.653,0,0,0-12.45-11.34,29.16,29.16,0,0,0-10.98-3.058,29.792,29.792,0,0,0-17.408,3.9,30.418,30.418,0,0,0-11,11,29.369,29.369,0,0,0-4.043,15,28.416,28.416,0,0,0,4.093,14.941,29.829,29.829,0,0,0,41.586,10.6,4.3,4.3,0,0,0,4.287,4.131h5.638a4.3,4.3,0,0,0,4.291-4.274l.1-26.254a27.862,27.862,0,0,0-4.107-14.652m-18.11,29.052a15.222,15.222,0,0,1-15.612-.053A15.864,15.864,0,0,1,962.9,341.9a15.115,15.115,0,0,1-2.13-7.776,14.457,14.457,0,0,1,2.184-7.834,15.873,15.873,0,0,1,5.715-5.714,15.135,15.135,0,0,1,7.779-2.13,15.352,15.352,0,0,1,7.823,2.074,16.669,16.669,0,0,1,5.722,5.826,15.131,15.131,0,0,1,2.133,7.779,15.311,15.311,0,0,1-2.069,7.814,16.712,16.712,0,0,1-5.834,5.733" transform="translate(-820.073 -283.621)" fill="#fff"/>
      <path id="Caminho_4354" data-name="Caminho 4354" d="M1194.252,317.193a27.773,27.773,0,0,0-10.32-9.155,30.124,30.124,0,0,0-27.129-.059,26.145,26.145,0,0,0-10.4,9.4,25.444,25.444,0,0,0-3.855,13.864v29.5a3.906,3.906,0,0,0,3.9,3.9h6.408a3.906,3.906,0,0,0,3.9-3.9v-29.5a10.864,10.864,0,0,1,3.849-8.864,14.665,14.665,0,0,1,9.7-3.3,14.323,14.323,0,0,1,9.6,3.3,10.857,10.857,0,0,1,3.849,8.864v29.5a3.906,3.906,0,0,0,3.9,3.9h6.425a3.911,3.911,0,0,0,3.9-3.876l.193-29.527a26.039,26.039,0,0,0-3.923-14.056" transform="translate(-949.164 -284.048)" fill="#fff"/>
      <path id="Caminho_4355" data-name="Caminho 4355" d="M1458.519,319.36a30.575,30.575,0,0,0-11.052-10.889,29.828,29.828,0,0,0-29.9-.051,30.436,30.436,0,0,0-11,11,29.388,29.388,0,0,0-4.042,15,28.435,28.435,0,0,0,4.1,14.955,29.775,29.775,0,0,0,25.9,15.039,28.95,28.95,0,0,0,15.051-4.093,29.835,29.835,0,0,0,10.9-10.9,29.371,29.371,0,0,0,4.04-15,29.958,29.958,0,0,0-4-15.065m-11.172,15.065a14.779,14.779,0,0,1-1.979,7.417l0,0a14.5,14.5,0,0,1-5.381,5.432,15.035,15.035,0,0,1-14.883,0,14.519,14.519,0,0,1-5.433-5.379,14.7,14.7,0,0,1-1.974-7.466,14.973,14.973,0,0,1,1.977-7.524,14.142,14.142,0,0,1,5.375-5.376,15.386,15.386,0,0,1,15,.051,14.094,14.094,0,0,1,5.371,5.374,14.975,14.975,0,0,1,1.929,7.474" transform="translate(-1120.303 -283.816)" fill="#fff"/>
      <path id="Caminho_4356" data-name="Caminho 4356" d="M1325.887,358.735v31.32a4.02,4.02,0,0,0,4.014,4.016h8.2a4.02,4.02,0,0,0,4.015-4.016V349.794h-7.291a8.952,8.952,0,0,0-8.941,8.941" transform="translate(-1069.852 -313.679)" fill="#fff"/>
      <path id="Caminho_4357" data-name="Caminho 4357" d="M1353.2,264.158a3.983,3.983,0,0,0-3.184-1.57h-7.894V249.249a4.02,4.02,0,0,0-4.015-4.014h-8.2a4.02,4.02,0,0,0-4.014,4.014v27.974h22.36a4.022,4.022,0,0,0,3.879-2.978l1.764-6.605a3.984,3.984,0,0,0-.694-3.482" transform="translate(-1069.852 -244.849)" fill="#fff"/>
      <path id="Caminho_4358" data-name="Caminho 4358" d="M1567.307,298.757a5.823,5.823,0,0,1-2.327-.465,6.073,6.073,0,0,1-3.19-3.191,6.046,6.046,0,0,1,0-4.653,6.074,6.074,0,0,1,3.19-3.191,6.048,6.048,0,0,1,4.653,0,6.072,6.072,0,0,1,3.19,3.191,6.046,6.046,0,0,1,0,4.653,6.072,6.072,0,0,1-3.19,3.191,5.822,5.822,0,0,1-2.326.465m0-1.047a4.7,4.7,0,0,0,1.894-.382,4.814,4.814,0,0,0,1.546-1.063,5.112,5.112,0,0,0,1.047-1.579,4.972,4.972,0,0,0,0-3.822,5.115,5.115,0,0,0-1.047-1.578,4.937,4.937,0,0,0-1.546-1.072,4.789,4.789,0,0,0-3.788,0,4.926,4.926,0,0,0-1.545,1.072,4.978,4.978,0,0,0-1.039,1.578,5.071,5.071,0,0,0,0,3.822,4.976,4.976,0,0,0,1.039,1.579,4.8,4.8,0,0,0,1.545,1.063,4.705,4.705,0,0,0,1.895.382m-1.928-1.911a.323.323,0,0,1-.366-.365v-5.351a.323.323,0,0,1,.366-.366h2.177a3.553,3.553,0,0,1,1.163.183,1.755,1.755,0,0,1,.856.615,1.894,1.894,0,0,1,.324,1.163,1.776,1.776,0,0,1-.324,1.1,1.881,1.881,0,0,1-.823.632l1.064,1.795a.211.211,0,0,1,.05.091.542.542,0,0,1,.016.141.394.394,0,0,1-.091.249.328.328,0,0,1-.274.116h-.449a.469.469,0,0,1-.282-.083.691.691,0,0,1-.2-.232l-1.081-1.845h-1.263v1.795a.323.323,0,0,1-.365.365Zm.864-3.257h1.279a1.172,1.172,0,0,0,.9-.266.884.884,0,0,0,.233-.6.905.905,0,0,0-.233-.615,1.173,1.173,0,0,0-.9-.266h-1.279Z" transform="translate(-1224.838 -272.206)" fill="#fff"/>
    </g>
  </g>
</svg>
