<svg xmlns="http://www.w3.org/2000/svg" xmlns:xlink="http://www.w3.org/1999/xlink" width="38.378" height="52.483" viewBox="0 0 38.378 52.483">
  <defs>
    <clipPath id="clip-path">
      <path id="Caminho_4348" data-name="Caminho 4348" d="M207.336,214.543a6.541,6.541,0,0,0,2.462-3.892.049.049,0,0,1,.1.014,6,6,0,0,1-6.333,5.6A6.065,6.065,0,0,1,201,215.52a.042.042,0,0,1,.036-.076,6.172,6.172,0,0,0,1.434.369,6.722,6.722,0,0,0,.914.063,6.519,6.519,0,0,0,3.95-1.332m-1.518-.372a6.822,6.822,0,0,0,3.078-3.346,5.536,5.536,0,0,0,.378-1.616.049.049,0,0,1,.1,0,5.643,5.643,0,0,1-.21,1.7,6,6,0,0,1-7,4.28,7.133,7.133,0,0,1-1.468-.5.042.042,0,0,1,.029-.079,7.892,7.892,0,0,0,1.913.3c.083,0,.167.005.25.005a6.245,6.245,0,0,0,2.932-.744m-1.416-.514a6.186,6.186,0,0,0,3.769-7.253.049.049,0,0,1,.092-.03,5.623,5.623,0,0,1,.427,2.37,6.006,6.006,0,0,1-7.712,5.41,5.54,5.54,0,0,1-.892-.354.042.042,0,0,1,.032-.078,6.587,6.587,0,0,0,2.081.334,6.1,6.1,0,0,0,2.2-.4m1.5-13.09-2.84-5.123a6.016,6.016,0,0,1,4.529-8.823.056.056,0,0,1,.024.108q-.17.055-.339.12a6.185,6.185,0,0,0-3.531,8l2.223,5.684a.037.037,0,0,1-.021.048l-.013,0a.037.037,0,0,1-.032-.019m-.606.226-3.519-4.83a6.009,6.009,0,0,1,1.166-8.417,6.8,6.8,0,0,1,3.288-1.3.056.056,0,0,1,.024.108,6.568,6.568,0,0,0-3.682,9.354l2.8,5.029a.047.047,0,0,1-.025.067.046.046,0,0,1-.017,0,.047.047,0,0,1-.038-.019m-.627.243-.294-.345L200.386,196a6.015,6.015,0,0,1,.482-8.483,6.752,6.752,0,0,1,3.8-1.584.056.056,0,0,1,.021.109,6.57,6.57,0,0,0-3.363,10.255l3.411,4.684a.045.045,0,0,1-.071.056m-9.237,8.779L179.4,191.9a6.015,6.015,0,0,1,.482-8.484l.627-.559a.06.06,0,0,1,.092.074,6.58,6.58,0,0,0,.5,7.155l14.431,19.643a.068.068,0,0,1-.055.108.065.065,0,0,1-.049-.023m-.445-1.806-13.434-18.256a6.009,6.009,0,0,1,1.165-8.416l.549-.414a.06.06,0,0,1,.088.077,6.616,6.616,0,0,0-.562,1.335,6.526,6.526,0,0,0,.52,5l5.383,9.388,6.4,11.209a.068.068,0,0,1-.06.1.064.064,0,0,1-.053-.028m-.307-1.965L183.8,187.069a6.008,6.008,0,0,1,2.431-8.146l.519-.3a.06.06,0,0,1,.081.083,6.174,6.174,0,0,0-.471,5.43l8.439,21.847a.067.067,0,0,1-.065.092.064.064,0,0,1-.056-.034m-.35-31.739,9.691-5.526a6.218,6.218,0,0,1,4.765-.364,5.123,5.123,0,0,1,1.147.568.055.055,0,0,1-.034.1,6.159,6.159,0,0,0-2.745.4l-12.776,4.926a.059.059,0,0,1-.022,0,.057.057,0,0,1-.027-.107m-5.213,2.2,11.932-9h0a5.964,5.964,0,0,1,3.613-1.219,6.094,6.094,0,0,1,.837.058,6.029,6.029,0,0,1,1.5.409,7.994,7.994,0,0,1,1.4.883.055.055,0,0,1-.045.1,6.654,6.654,0,0,0-4.607.556L189.18,176.6a.059.059,0,0,1-.029.008.057.057,0,0,1-.033-.1m-3.518,1.813,13.322-11.881a5.965,5.965,0,0,1,3.993-1.526q.173,0,.348.01a5.98,5.98,0,0,1,2.7.814.055.055,0,0,1-.035.1l-.353-.049a6.526,6.526,0,0,0-4.863,1.268l-15.042,11.35a.057.057,0,0,1-.072-.088m12.95-12.3L179.512,183a6.575,6.575,0,0,0-.526,9.273L199,214.643a6.526,6.526,0,0,0,4.527,2.184c.128.007.255.01.381.01a6.568,6.568,0,0,0,5.747-9.733c-.073-.133-2.137-3.721-2.821-4.912a1.526,1.526,0,0,1,.686-2.2c1.077-.408,2.333-.87,2.333-.87l1.894-.734a6.185,6.185,0,0,0-.137-11.584c-.139-.05-3.873-1.177-4.432-1.3a8.14,8.14,0,0,0-1.511-.171A7.612,7.612,0,0,0,200.5,187.1a6.573,6.573,0,0,0-.531,9.267l4.168,4.9a8.094,8.094,0,0,1-4.881-15.4l12.374-4.853a6.185,6.185,0,0,0,1.082-10.987c-.864-.5-5.759-4.327-6.239-4.636a6.529,6.529,0,0,0-3.174-1.026q-.2-.012-.4-.012a6.486,6.486,0,0,0-4.343,1.669" transform="translate(-177.321 -164.354)" fill="none"/>
    </clipPath>
    <linearGradient id="linear-gradient" x1="-0.528" y1="1.491" x2="-0.525" y2="1.491" gradientUnits="objectBoundingBox">
      <stop offset="0" stop-color="#00ce6c"/>
      <stop offset="0.45" stop-color="#00c974"/>
      <stop offset="1" stop-color="#00c086"/>
    </linearGradient>
  </defs>
  <g id="Grupo_10063" data-name="Grupo 10063" transform="translate(6394.679 20742.646)">
    <g id="Grupo_10060" data-name="Grupo 10060" transform="translate(-6394.679 -20742.646)">
      <g id="Grupo_10057" data-name="Grupo 10057" clip-path="url(#clip-path)">
        <rect id="Retângulo_3188" data-name="Retângulo 3188" width="39.939" height="52.483" transform="translate(-0.747 0)" fill="url(#linear-gradient)"/>
      </g>
    </g>
  </g>
</svg>
