<svg id="logo-login" xmlns="http://www.w3.org/2000/svg" xmlns:xlink="http://www.w3.org/1999/xlink" width="1468.302" height="482.748" viewBox="0 0 1468.302 482.748">
  <defs>
    <clipPath id="clip-path">
      <rect id="Retângulo_3201" data-name="Retângulo 3201" width="1468.302" height="482.749" fill="none"/>
    </clipPath>
    <clipPath id="clip-path-2">
      <path id="Caminho_4432" data-name="Caminho 4432" d="M81.047,121.241l-.011,2.522-.61-.7c-14.2,48.282-4.038,99.209,7.393,128.872-.01.01-.026.031-.036.042.549,1.5.555,1.454,1.109,2.852,6.389,16.066,23.268,39.236,43.9,63.9,24.62,29.565,54.247,60.714,77.1,83.7,8.487,8.6,16.243,16.293,22.8,22.693.538.523,1.056,1.025,1.573,1.533h.264l11.665.041c-68.116-148.314-38.6-350.7-30.072-399.413C121.132,43.1,81.047,121.241,81.047,121.241" transform="translate(-73.478 -27.277)" fill="none"/>
    </clipPath>
    <linearGradient id="linear-gradient" x1="-0.423" y1="1.131" x2="-0.416" y2="1.131" gradientUnits="objectBoundingBox">
      <stop offset="0" stop-color="#fff"/>
      <stop offset="0.714" stop-color="#fdfdfe"/>
      <stop offset="0.971" stop-color="#f6f8fb"/>
      <stop offset="1" stop-color="#f5f7fb"/>
    </linearGradient>
    <clipPath id="clip-path-3">
      <path id="Caminho_4433" data-name="Caminho 4433" d="M245.066,426.69l11.659-.041H257c6.865-6.695,15.2-14.943,24.367-24.226,22.848-22.983,52.475-54.132,77.1-83.7,20.633-24.661,37.512-47.832,43.9-63.9.553-1.4.564-1.356,1.107-2.852-.01-.011-.021-.032-.031-.042,11.428-29.662,21.6-80.59,7.388-128.872l-.61.7,0-2.522S370.121,43.1,275.138,27.277c8.533,48.717,38.04,251.1-30.072,399.413" transform="translate(-245.066 -27.277)" fill="none"/>
    </clipPath>
    <linearGradient id="linear-gradient-2" x1="-1.544" y1="1.131" x2="-1.538" y2="1.131" xlink:href="#linear-gradient"/>
    <clipPath id="clip-path-4">
      <path id="Caminho_4434" data-name="Caminho 4434" d="M348.06,254.436c-29.668,73.978-79.446,150.8-90.013,166.771,21.87-21.28,56.058-55.753,85.814-89.562,4.629-5.3,9.165-10.614,13.545-15.87,19.658-23.5,35.906-45.641,42.922-61.578.166-.393.337-.781.492-1.17.238-.59.378-.916.5-1.221-.087.2-.139.279.1-.353-.01-.015.295-.585.963-2.47,11.437-29.662,21.6-80.59,7.4-128.872l-.621-1.822s-20.731-40.4-67.688-68.981c9.776,35.328,33.768,137.357,6.592,205.128" transform="translate(-258.047 -49.308)" fill="none"/>
    </clipPath>
    <linearGradient id="linear-gradient-3" x1="-1.067" y1="1.105" x2="-1.063" y2="1.105" gradientUnits="objectBoundingBox">
      <stop offset="0" stop-color="#f5f7fb"/>
      <stop offset="0.029" stop-color="#f6f8fb"/>
      <stop offset="0.286" stop-color="#fdfdfe"/>
      <stop offset="1" stop-color="#fff"/>
    </linearGradient>
    <clipPath id="clip-path-5">
      <path id="Caminho_4435" data-name="Caminho 4435" d="M80.691,118.289l-.617,1.822c-14.207,48.282-4.038,99.21,7.395,128.872a.178.178,0,0,0-.032.042c.543,1.5.549,1.454,1.108,2.852,6.389,16.066,23.263,39.236,43.9,63.9,6.57,7.9,13.513,15.911,20.581,23.853,28.029,31.245,58.729,62.127,78.875,81.729-10.339-15.611-60.35-92.695-90.111-166.922-27.183-67.77-3.191-169.8,6.585-205.128-46.956,28.585-67.686,68.981-67.686,68.981" transform="translate(-73.124 -49.308)" fill="none"/>
    </clipPath>
    <linearGradient id="linear-gradient-4" x1="-0.162" y1="1.104" x2="-0.157" y2="1.104" xlink:href="#linear-gradient"/>
  </defs>
  <g id="Grupo_10141" data-name="Grupo 10141">
    <g id="Grupo_10140" data-name="Grupo 10140" clip-path="url(#clip-path)">
      <path id="Caminho_4375" data-name="Caminho 4375" d="M462.934,96.16V58.316h12.882V96.248c0,8.755,4.173,13.088,10.837,13.088s10.836-4.246,10.836-12.824v-38.2h12.795V95.9c0,17.061-9.419,25.283-23.808,25.283-14.3,0-23.542-8.305-23.542-25.019" transform="translate(62.017 7.812)" fill="#fff"/>
      <path id="Caminho_4376" data-name="Caminho 4376" d="M540.023,58.316h11.815l23.807,36.078V58.316h12.618v61.893H577.245l-24.6-37.4v37.4H540.023Z" transform="translate(72.345 7.812)" fill="#fff"/>
      <rect id="Retângulo_3196" data-name="Retângulo 3196" width="12.882" height="61.893" transform="translate(701.914 66.13)" fill="#fff"/>
      <path id="Caminho_4377" data-name="Caminho 4377" d="M662.623,58.316h13.949l13.151,42.617,13.146-42.617h13.586L695.5,120.561h-11.9Z" transform="translate(88.769 7.812)" fill="#fff"/>
      <path id="Caminho_4378" data-name="Caminho 4378" d="M741.979,58.316h40.07V69.9H754.778V83.246h23.983V94.834H754.778v13.792h27.628v11.582H741.979Z" transform="translate(99.4 7.812)" fill="#fff"/>
      <path id="Caminho_4379" data-name="Caminho 4379" d="M811.629,58.318H834.99c7.2,0,12.97,2.034,16.879,5.923,3.382,3.361,5.246,8.222,5.246,14.327v.353c0,9.371-4.707,15.295-11.546,18.3L858.8,120.206h-14.75L832.6,99.873h-8.088v20.333H811.629Zm22.388,30.237c6.576,0,10.127-3.713,10.127-9.284v-.087c0-6.188-3.816-9.284-10.392-9.284h-9.242V88.555Z" transform="translate(108.731 7.813)" fill="#fff"/>
      <path id="Caminho_4380" data-name="Caminho 4380" d="M881.82,111.994l7.642-9.465c4.168,3.63,9.243,6.985,15.456,6.985,4.976,0,7.994-2.475,7.994-6.1v-.087c0-3.1-1.777-5.038-10.661-8.4-11.013-4.246-17.852-8.4-17.852-19.013v-.17c0-10.785,8.346-18.128,20.342-18.128a29.656,29.656,0,0,1,20.075,7.6l-7.192,9.724c-3.91-3.179-8.44-5.747-13.24-5.747-4.442,0-7.191,2.211-7.191,5.4v.083c0,3.537,2.128,5.214,11.816,9.2,10.836,4.246,16.7,8.844,16.7,18.485v.17c0,11.5-8.792,18.573-20.876,18.573a33.475,33.475,0,0,1-23.009-9.108" transform="translate(118.134 7.719)" fill="#fff"/>
      <rect id="Retângulo_3197" data-name="Retângulo 3197" width="12.882" height="61.893" transform="translate(1082.216 66.13)" fill="#fff"/>
      <path id="Caminho_4381" data-name="Caminho 4381" d="M1002.151,58.317h20.083c18.029,0,29.668,12.38,29.668,30.5v.8c0,18.128-11.639,30.59-29.668,30.59h-20.083ZM1015.033,69.9v38.724h7.109c9.77,0,16.439-6.8,16.439-19.09v-.446c0-12.287-6.669-19.188-16.439-19.188Z" transform="translate(134.254 7.812)" fill="#fff"/>
      <path id="Caminho_4382" data-name="Caminho 4382" d="M1095.193,58h12.26l22.3,62.246h-13.332l-4.615-13.436H1090.4l-4.536,13.436h-12.969ZM1107.9,95.5l-6.758-20.162L1094.3,95.5Z" transform="translate(143.731 7.771)" fill="#fff"/>
      <path id="Caminho_4383" data-name="Caminho 4383" d="M1154.919,58.317H1175c18.029,0,29.668,12.38,29.668,30.5v.8c0,18.128-11.639,30.59-29.668,30.59h-20.084ZM1167.8,69.9v38.724h7.1c9.775,0,16.438-6.8,16.438-19.09v-.446c0-12.287-6.663-19.188-16.438-19.188Z" transform="translate(154.72 7.812)" fill="#fff"/>
      <path id="Caminho_4384" data-name="Caminho 4384" d="M1232.783,58.316h40.07V69.9h-27.271V83.246h23.982V94.834h-23.982v13.792h27.628v11.582h-40.427Z" transform="translate(165.151 7.812)" fill="#fff"/>
      <path id="Caminho_4385" data-name="Caminho 4385" d="M460.739,385.193l-3.4-3.039A13.092,13.092,0,0,1,436.27,371.7v-.073a13.061,13.061,0,1,1,26.121-.073v.073a13.69,13.69,0,0,1-3.04,8.564l3.365,2.847Zm-5.448-4.9-4.794-4.1,1.943-2.159,4.79,4.354a10.923,10.923,0,0,0,2.158-6.695v-.073c0-5.815-4.24-10.573-10.1-10.573s-10.024,4.681-10.024,10.5v.073c0,5.815,4.245,10.573,10.1,10.573a9.854,9.854,0,0,0,5.928-1.9" transform="translate(58.445 48.011)" fill="#fff"/>
      <path id="Caminho_4386" data-name="Caminho 4386" d="M464.011,376.415V364.672h2.817v11.049c0,3.511,1.9,5.706,5.229,5.706a5.584,5.584,0,0,0,5.67-5.928V364.672h2.781v18.915h-2.781v-3.293a7.2,7.2,0,0,1-6.477,3.7c-4.567,0-7.238-3.075-7.238-7.575" transform="translate(62.162 48.854)" fill="#fff"/>
      <path id="Caminho_4387" data-name="Caminho 4387" d="M482.881,378.127v-.073c0-3.987,3.293-6.11,8.087-6.11a20.06,20.06,0,0,1,5.815.8v-.658c0-3.4-2.087-5.156-5.634-5.156a13.164,13.164,0,0,0-5.747,1.393l-.839-2.31a15.692,15.692,0,0,1,6.876-1.568c2.672,0,4.722.694,6.11,2.087a7.461,7.461,0,0,1,1.941,5.519v11.562h-2.708v-2.853a8.3,8.3,0,0,1-6.84,3.257c-3.515,0-7.062-2.014-7.062-5.892m13.939-1.465v-1.828a19.71,19.71,0,0,0-5.561-.8c-3.547,0-5.525,1.533-5.525,3.915v.073c0,2.377,2.2,3.765,4.758,3.765,3.474,0,6.328-2.118,6.328-5.121" transform="translate(64.69 48.824)" fill="#fff"/>
      <path id="Caminho_4388" data-name="Caminho 4388" d="M502.817,364.722h2.817v3.293a7.159,7.159,0,0,1,6.471-3.7c4.578,0,7.244,3.075,7.244,7.575v11.738h-2.817V372.587c0-3.511-1.9-5.706-5.229-5.706a5.564,5.564,0,0,0-5.67,5.928v10.822h-2.817Z" transform="translate(67.36 48.806)" fill="#fff"/>
      <path id="Caminho_4389" data-name="Caminho 4389" d="M523.871,379.248V367.837h-2.634v-2.491h2.634v-5.7h2.817v5.7h6v2.491h-6v11.048c0,2.3,1.279,3.143,3.184,3.143a5.825,5.825,0,0,0,2.738-.663v2.419a7.049,7.049,0,0,1-3.4.8c-3.034,0-5.339-1.5-5.339-5.339" transform="translate(69.828 48.18)" fill="#fff"/>
      <path id="Caminho_4390" data-name="Caminho 4390" d="M534.2,374.269V374.2a9.858,9.858,0,0,1,19.716-.073v.073a9.818,9.818,0,0,1-9.91,9.879,9.691,9.691,0,0,1-9.807-9.807m16.827,0V374.2a7.155,7.155,0,0,0-7.02-7.389c-4.1,0-6.919,3.329-6.919,7.316v.073a7.1,7.1,0,0,0,6.99,7.353,6.976,6.976,0,0,0,6.949-7.28" transform="translate(71.565 48.806)" fill="#fff"/>
      <path id="Caminho_4391" data-name="Caminho 4391" d="M565.751,364.722h2.817V367.9c1.243-1.863,2.926-3.582,6.11-3.582a6.435,6.435,0,0,1,6.074,3.764,7.538,7.538,0,0,1,6.657-3.764c4.35,0,7.021,2.926,7.021,7.611v11.7h-2.817V372.587c0-3.66-1.828-5.706-4.9-5.706-2.853,0-5.194,2.117-5.194,5.851v10.9H578.7V372.514c0-3.552-1.863-5.633-4.861-5.633s-5.271,2.486-5.271,5.959v10.791h-2.817Z" transform="translate(75.791 48.806)" fill="#fff"/>
      <path id="Caminho_4392" data-name="Caminho 4392" d="M595.17,378.127v-.073c0-3.987,3.293-6.11,8.088-6.11a20.059,20.059,0,0,1,5.815.8v-.658c0-3.4-2.087-5.156-5.634-5.156a13.164,13.164,0,0,0-5.747,1.393l-.839-2.31a15.694,15.694,0,0,1,6.876-1.568c2.672,0,4.722.694,6.11,2.087a7.461,7.461,0,0,1,1.941,5.519v11.562h-2.708v-2.853a8.3,8.3,0,0,1-6.84,3.257c-3.516,0-7.062-2.014-7.062-5.892m13.939-1.465v-1.828a19.709,19.709,0,0,0-5.561-.8c-3.546,0-5.525,1.533-5.525,3.915v.073c0,2.377,2.2,3.765,4.758,3.765,3.474,0,6.328-2.118,6.328-5.121" transform="translate(79.733 48.824)" fill="#fff"/>
      <path id="Caminho_4393" data-name="Caminho 4393" d="M615.173,358.286h3.22V361.4h-3.22Zm.182,7.244h2.817v18.909h-2.817Z" transform="translate(82.412 47.998)" fill="#fff"/>
      <path id="Caminho_4394" data-name="Caminho 4394" d="M622.2,381.211l1.424-2.014a11.092,11.092,0,0,0,6.549,2.413c2.268,0,3.914-1.166,3.914-3v-.078c0-1.9-2.231-2.625-4.716-3.324-2.966-.839-6.255-1.869-6.255-5.338v-.078c0-3.251,2.708-5.41,6.436-5.41a12.925,12.925,0,0,1,6.8,2.081l-1.278,2.123a10.7,10.7,0,0,0-5.6-1.828c-2.232,0-3.656,1.17-3.656,2.744v.073c0,1.792,2.34,2.486,4.862,3.257,2.925.875,6.073,2.014,6.073,5.416v.068c0,3.588-2.961,5.669-6.73,5.669a13.005,13.005,0,0,1-7.829-2.775" transform="translate(83.354 48.815)" fill="#fff"/>
      <path id="Caminho_4395" data-name="Caminho 4395" d="M647.684,364.674H650.8l6.364,15.688,6.4-15.688H666.6l-8.232,19.058H655.88Z" transform="translate(86.768 48.854)" fill="#fff"/>
      <path id="Caminho_4396" data-name="Caminho 4396" d="M666.267,374.269V374.2a9.858,9.858,0,0,1,19.716-.073v.073a9.819,9.819,0,0,1-9.91,9.879,9.691,9.691,0,0,1-9.806-9.807m16.827,0V374.2a7.155,7.155,0,0,0-7.021-7.389c-4.1,0-6.918,3.329-6.918,7.316v.073a7.1,7.1,0,0,0,6.99,7.353,6.976,6.976,0,0,0,6.949-7.28" transform="translate(89.257 48.806)" fill="#fff"/>
      <path id="Caminho_4397" data-name="Caminho 4397" d="M687.1,374.269V374.2a9.847,9.847,0,0,1,17.267-6.508l-1.863,1.967a7.661,7.661,0,0,0-5.748-2.849c-3.836,0-6.766,3.257-6.766,7.316v.073a7.068,7.068,0,0,0,6.948,7.353,7.814,7.814,0,0,0,5.783-2.817l1.787,1.683a9.779,9.779,0,0,1-17.408-6.146" transform="translate(92.049 48.806)" fill="#fff"/>
      <path id="Caminho_4398" data-name="Caminho 4398" d="M705.036,375.086v-.073c0-5.452,3.842-9.843,9.076-9.843,5.6,0,8.812,4.469,8.812,9.988a7.445,7.445,0,0,1-.036.916H707.893c.4,4.1,3.293,6.4,6.659,6.4a7.829,7.829,0,0,0,5.959-2.667l1.755,1.569a9.754,9.754,0,0,1-7.793,3.552c-5.193,0-9.438-3.992-9.438-9.843m15.035-1.092c-.291-3.438-2.268-6.447-6.037-6.447-3.288,0-5.778,2.75-6.141,6.447Zm-7.238-16.062h2.485l3.877,4.794h-2.412l-2.75-2.454-2.745,2.454H708.95Z" transform="translate(94.451 47.951)" fill="#fff"/>
      <path id="Caminho_4399" data-name="Caminho 4399" d="M733.589,378.127v-.073c0-3.987,3.287-6.11,8.082-6.11a20.061,20.061,0,0,1,5.815.8v-.658c0-3.4-2.082-5.156-5.634-5.156a13.139,13.139,0,0,0-5.741,1.393l-.839-2.31a15.655,15.655,0,0,1,6.875-1.568c2.673,0,4.717.694,6.11,2.087a7.459,7.459,0,0,1,1.937,5.519v11.562h-2.708v-2.853a8.285,8.285,0,0,1-6.84,3.257c-3.51,0-7.057-2.014-7.057-5.892m13.933-1.465v-1.828a19.7,19.7,0,0,0-5.555-.8c-3.553,0-5.531,1.533-5.531,3.915v.073c0,2.377,2.2,3.765,4.758,3.765,3.474,0,6.328-2.118,6.328-5.121" transform="translate(98.276 48.824)" fill="#fff"/>
      <path id="Caminho_4400" data-name="Caminho 4400" d="M753.523,364.721h2.816v3.8c1.539-2.263,3.769-4.2,7.244-4.2,4.536,0,9.035,3.583,9.035,9.807v.073c0,6.182-4.463,9.843-9.035,9.843a8.551,8.551,0,0,1-7.244-4.028v9.47h-2.816Zm16.206,9.512v-.077c0-4.459-3.075-7.316-6.659-7.316a7.052,7.052,0,0,0-6.835,7.285v.073a7.029,7.029,0,0,0,6.835,7.311c3.66,0,6.659-2.7,6.659-7.274" transform="translate(100.947 48.806)" fill="#fff"/>
      <path id="Caminho_4401" data-name="Caminho 4401" d="M774.94,364.713h2.817v4.934c1.388-3.142,4.136-5.41,7.72-5.261v3.029h-.224c-4.13,0-7.5,2.968-7.5,8.673v7.534H774.94Z" transform="translate(103.816 48.815)" fill="#fff"/>
      <path id="Caminho_4402" data-name="Caminho 4402" d="M786.267,374.233v-.078c0-5.446,3.836-9.837,9.072-9.837,5.6,0,8.812,4.463,8.812,9.988a7.308,7.308,0,0,1-.036.912h-15c.409,4.095,3.293,6.4,6.664,6.4a7.826,7.826,0,0,0,5.959-2.672l1.755,1.574a9.759,9.759,0,0,1-7.793,3.546c-5.193,0-9.433-3.986-9.433-9.837m15.031-1.1c-.295-3.438-2.268-6.441-6.037-6.441-3.293,0-5.779,2.744-6.146,6.441Z" transform="translate(105.333 48.806)" fill="#fff"/>
      <path id="Caminho_4403" data-name="Caminho 4403" d="M806.393,364.722h2.817v3.293a7.162,7.162,0,0,1,6.477-3.7c4.572,0,7.238,3.075,7.238,7.575v11.738h-2.817V372.587c0-3.511-1.9-5.706-5.224-5.706a5.567,5.567,0,0,0-5.675,5.928v10.822h-2.817Z" transform="translate(108.029 48.806)" fill="#fff"/>
      <path id="Caminho_4404" data-name="Caminho 4404" d="M825.3,375.106v-.078c0-6.177,4.5-9.837,9.034-9.837a8.527,8.527,0,0,1,7.244,4.023V357.8h2.811v26.7h-2.811v-3.8a8.508,8.508,0,0,1-7.244,4.2c-4.533,0-9.034-3.582-9.034-9.8m16.387-.036v-.077a7.03,7.03,0,0,0-6.839-7.28c-3.656,0-6.653,2.712-6.653,7.28v.077c0,4.458,3.106,7.311,6.653,7.311a7.059,7.059,0,0,0,6.839-7.311" transform="translate(110.562 47.933)" fill="#fff"/>
      <path id="Caminho_4405" data-name="Caminho 4405" d="M846.654,374.233v-.078c0-5.446,3.836-9.837,9.072-9.837,5.6,0,8.812,4.463,8.812,9.988a7.357,7.357,0,0,1-.036.912h-15c.409,4.095,3.293,6.4,6.664,6.4a7.825,7.825,0,0,0,5.959-2.672l1.755,1.574a9.758,9.758,0,0,1-7.793,3.546c-5.193,0-9.433-3.986-9.433-9.837m15.03-1.1c-.295-3.438-2.268-6.441-6.037-6.441-3.293,0-5.779,2.744-6.146,6.441Z" transform="translate(113.423 48.806)" fill="#fff"/>
      <path id="Caminho_4406" data-name="Caminho 4406" d="M865.171,384.984c1.828-.658,2.594-1.61,2.449-3.179H866.3v-3.842h3.365v3.287c0,2.967-1.285,4.4-4.06,5.017Z" transform="translate(115.904 50.634)" fill="#fff"/>
      <path id="Caminho_4407" data-name="Caminho 4407" d="M883.008,374.233v-.078c0-5.446,3.836-9.837,9.072-9.837,5.6,0,8.812,4.463,8.812,9.988a7.357,7.357,0,0,1-.036.912h-15c.409,4.095,3.293,6.4,6.664,6.4a7.825,7.825,0,0,0,5.959-2.672l1.755,1.574a9.758,9.758,0,0,1-7.793,3.546c-5.193,0-9.433-3.986-9.433-9.837m15.031-1.1c-.295-3.438-2.268-6.441-6.037-6.441-3.293,0-5.779,2.744-6.146,6.441Z" transform="translate(118.293 48.806)" fill="#fff"/>
      <path id="Caminho_4408" data-name="Caminho 4408" d="M911.555,378.127v-.073c0-3.987,3.287-6.11,8.082-6.11a20.055,20.055,0,0,1,5.815.8v-.658c0-3.4-2.082-5.156-5.634-5.156a13.14,13.14,0,0,0-5.741,1.393l-.839-2.31a15.654,15.654,0,0,1,6.875-1.568c2.673,0,4.718.694,6.11,2.087a7.46,7.46,0,0,1,1.937,5.519v11.562h-2.708v-2.853a8.284,8.284,0,0,1-6.84,3.257c-3.51,0-7.057-2.014-7.057-5.892m13.933-1.465v-1.828a19.7,19.7,0,0,0-5.555-.8c-3.553,0-5.53,1.533-5.53,3.915v.073c0,2.377,2.2,3.765,4.758,3.765,3.475,0,6.327-2.118,6.327-5.121" transform="translate(122.117 48.824)" fill="#fff"/>
      <path id="Caminho_4409" data-name="Caminho 4409" d="M931.489,364.721H934.3v3.8c1.539-2.263,3.769-4.2,7.244-4.2,4.536,0,9.035,3.583,9.035,9.807v.073c0,6.182-4.463,9.843-9.035,9.843a8.553,8.553,0,0,1-7.244-4.028v9.47h-2.815Zm16.205,9.512v-.077c0-4.459-3.075-7.316-6.658-7.316a7.051,7.051,0,0,0-6.834,7.285v.073a7.029,7.029,0,0,0,6.834,7.311c3.66,0,6.658-2.7,6.658-7.274" transform="translate(124.788 48.806)" fill="#fff"/>
      <rect id="Retângulo_3198" data-name="Retângulo 3198" width="2.817" height="26.701" transform="translate(1080.823 405.735)" fill="#fff"/>
      <path id="Caminho_4410" data-name="Caminho 4410" d="M961.459,358.286h3.216V361.4h-3.216Zm.181,7.244h2.817v18.909H961.64Z" transform="translate(128.803 47.998)" fill="#fff"/>
      <path id="Caminho_4411" data-name="Caminho 4411" d="M968.846,374.269V374.2a9.844,9.844,0,0,1,17.262-6.508l-1.865,1.967a7.635,7.635,0,0,0-5.741-2.849c-3.841,0-6.768,3.257-6.768,7.316v.073a7.065,7.065,0,0,0,6.949,7.353,7.815,7.815,0,0,0,5.783-2.817l1.787,1.683a9.779,9.779,0,0,1-17.407-6.146" transform="translate(129.792 48.806)" fill="#fff"/>
      <path id="Caminho_4412" data-name="Caminho 4412" d="M987.04,378.127v-.073c0-3.987,3.288-6.11,8.082-6.11a20.059,20.059,0,0,1,5.815.8v-.658c0-3.4-2.081-5.156-5.633-5.156a13.139,13.139,0,0,0-5.741,1.393l-.839-2.31a15.655,15.655,0,0,1,6.875-1.568c2.673,0,4.717.694,6.11,2.087a7.457,7.457,0,0,1,1.937,5.519v11.562h-2.708v-2.853a8.285,8.285,0,0,1-6.84,3.257c-3.509,0-7.057-2.014-7.057-5.892m13.933-1.465v-1.828a19.7,19.7,0,0,0-5.555-.8c-3.551,0-5.53,1.533-5.53,3.915v.073c0,2.377,2.2,3.765,4.758,3.765,3.474,0,6.327-2.118,6.327-5.121" transform="translate(132.23 48.824)" fill="#fff"/>
      <path id="Caminho_4413" data-name="Caminho 4413" d="M1005.681,384.984c1.828-.658,2.594-1.61,2.449-3.179h-1.315v-3.842h3.365v3.287c0,2.967-1.285,4.4-4.06,5.017Z" transform="translate(134.727 50.634)" fill="#fff"/>
      <path id="Caminho_4414" data-name="Caminho 4414" d="M1024.551,364.722h2.817V367.9c1.242-1.863,2.925-3.582,6.11-3.582a6.422,6.422,0,0,1,6.068,3.764,7.554,7.554,0,0,1,6.663-3.764c4.35,0,7.022,2.926,7.022,7.611v11.7h-2.816V372.587c0-3.66-1.828-5.706-4.9-5.706-2.853,0-5.194,2.117-5.194,5.851v10.9H1037.5V372.514c0-3.552-1.863-5.633-4.861-5.633s-5.27,2.486-5.27,5.959v10.791h-2.817Z" transform="translate(137.255 48.806)" fill="#fff"/>
      <path id="Caminho_4415" data-name="Caminho 4415" d="M1053.973,378.127v-.073c0-3.987,3.287-6.11,8.081-6.11a20.058,20.058,0,0,1,5.815.8v-.658c0-3.4-2.081-5.156-5.633-5.156a13.142,13.142,0,0,0-5.742,1.393l-.839-2.31a15.654,15.654,0,0,1,6.875-1.568c2.673,0,4.718.694,6.11,2.087a7.458,7.458,0,0,1,1.937,5.519v11.562h-2.708v-2.853a8.285,8.285,0,0,1-6.84,3.257c-3.51,0-7.056-2.014-7.056-5.892m13.933-1.465v-1.828a19.7,19.7,0,0,0-5.555-.8c-3.552,0-5.531,1.533-5.531,3.915v.073c0,2.377,2.2,3.765,4.758,3.765,3.474,0,6.328-2.118,6.328-5.121" transform="translate(141.197 48.824)" fill="#fff"/>
      <path id="Caminho_4416" data-name="Caminho 4416" d="M1073.973,358.286h3.216V361.4h-3.216Zm.182,7.244h2.817v18.909h-2.817Z" transform="translate(143.876 47.998)" fill="#fff"/>
      <path id="Caminho_4417" data-name="Caminho 4417" d="M1081,381.211l1.424-2.014a11.091,11.091,0,0,0,6.549,2.413c2.273,0,3.914-1.166,3.914-3v-.078c0-1.9-2.23-2.625-4.716-3.324-2.967-.839-6.255-1.869-6.255-5.338v-.078c0-3.251,2.7-5.41,6.436-5.41a12.939,12.939,0,0,1,6.8,2.081l-1.278,2.123a10.715,10.715,0,0,0-5.6-1.828c-2.232,0-3.66,1.17-3.66,2.744v.073c0,1.792,2.339,2.486,4.867,3.257,2.924.875,6.072,2.014,6.072,5.416v.068c0,3.588-2.967,5.669-6.73,5.669a13.005,13.005,0,0,1-7.829-2.775" transform="translate(144.817 48.815)" fill="#fff"/>
      <path id="Caminho_4418" data-name="Caminho 4418" d="M1106.484,364.674h3.111l6.364,15.688,6.4-15.688h3.035l-8.228,19.058h-2.485Z" transform="translate(148.231 48.854)" fill="#fff"/>
      <path id="Caminho_4419" data-name="Caminho 4419" d="M1125.069,374.269V374.2a9.858,9.858,0,0,1,19.716-.073v.073a9.822,9.822,0,0,1-9.914,9.879,9.691,9.691,0,0,1-9.8-9.807m16.822,0V374.2a7.155,7.155,0,0,0-7.02-7.389c-4.1,0-6.913,3.329-6.913,7.316v.073a7.092,7.092,0,0,0,6.985,7.353,6.976,6.976,0,0,0,6.948-7.28" transform="translate(150.721 48.806)" fill="#fff"/>
      <path id="Caminho_4420" data-name="Caminho 4420" d="M1145.9,374.269V374.2a9.844,9.844,0,0,1,17.262-6.508l-1.864,1.967a7.639,7.639,0,0,0-5.741-2.849c-3.842,0-6.768,3.257-6.768,7.316v.073a7.065,7.065,0,0,0,6.948,7.353,7.819,7.819,0,0,0,5.784-2.817l1.786,1.683a9.779,9.779,0,0,1-17.408-6.146" transform="translate(153.512 48.806)" fill="#fff"/>
      <path id="Caminho_4421" data-name="Caminho 4421" d="M1163.839,375.086v-.073c0-5.452,3.837-9.843,9.072-9.843,5.6,0,8.812,4.469,8.812,9.988a7.469,7.469,0,0,1-.036.916h-14.995c.4,4.1,3.293,6.4,6.659,6.4a7.829,7.829,0,0,0,5.959-2.667l1.755,1.569a9.753,9.753,0,0,1-7.792,3.552c-5.192,0-9.434-3.992-9.434-9.843m15.03-1.092c-.29-3.438-2.268-6.447-6.037-6.447-3.287,0-5.778,2.75-6.14,6.447Zm-7.238-16.062h2.486l3.877,4.794h-2.411l-2.75-2.454-2.738,2.454h-2.34Z" transform="translate(155.915 47.951)" fill="#fff"/>
      <path id="Caminho_4422" data-name="Caminho 4422" d="M1193.556,386.925l1.279-2.2a12.077,12.077,0,0,0,7.279,2.419c4.168,0,6.876-2.31,6.876-6.737v-2.232a8.969,8.969,0,0,1-7.425,3.993,8.746,8.746,0,0,1-8.889-8.854v-.078a8.953,8.953,0,0,1,16.279-5.115v-3.4h2.811v15.616a9.1,9.1,0,0,1-2.407,6.695,9.957,9.957,0,0,1-7.208,2.527,14.825,14.825,0,0,1-8.594-2.635m15.507-13.643V373.2c0-3.878-3.36-6.4-6.949-6.4a6.253,6.253,0,0,0-6.544,6.368v.067a6.4,6.4,0,0,0,6.544,6.442c3.589,0,6.949-2.6,6.949-6.4" transform="translate(159.778 48.806)" fill="#fff"/>
      <path id="Caminho_4423" data-name="Caminho 4423" d="M1213.808,378.127v-.073c0-3.987,3.287-6.11,8.082-6.11a20.06,20.06,0,0,1,5.815.8v-.658c0-3.4-2.082-5.156-5.634-5.156a13.137,13.137,0,0,0-5.741,1.393l-.839-2.31a15.648,15.648,0,0,1,6.875-1.568c2.672,0,4.717.694,6.11,2.087a7.458,7.458,0,0,1,1.937,5.519v11.562H1227.7v-2.853a8.285,8.285,0,0,1-6.84,3.257c-3.51,0-7.057-2.014-7.057-5.892m13.933-1.465v-1.828a19.7,19.7,0,0,0-5.555-.8c-3.552,0-5.53,1.533-5.53,3.915v.073c0,2.377,2.2,3.765,4.758,3.765,3.475,0,6.327-2.118,6.327-5.121" transform="translate(162.609 48.824)" fill="#fff"/>
      <path id="Caminho_4424" data-name="Caminho 4424" d="M1233.742,364.722h2.817v3.293a7.162,7.162,0,0,1,6.477-3.7c4.571,0,7.238,3.075,7.238,7.575v11.738h-2.817V372.587c0-3.511-1.9-5.706-5.224-5.706a5.568,5.568,0,0,0-5.675,5.928v10.822h-2.817Z" transform="translate(165.28 48.806)" fill="#fff"/>
      <path id="Caminho_4425" data-name="Caminho 4425" d="M1253.611,357.8h2.817v11.086a7.162,7.162,0,0,1,6.477-3.7c4.572,0,7.238,3.075,7.238,7.575V384.5h-2.816V373.455c0-3.5-1.9-5.7-5.224-5.7a5.566,5.566,0,0,0-5.675,5.923V384.5h-2.817Z" transform="translate(167.941 47.933)" fill="#fff"/>
      <path id="Caminho_4426" data-name="Caminho 4426" d="M1272.229,378.127v-.073c0-3.987,3.287-6.11,8.082-6.11a20.056,20.056,0,0,1,5.815.8v-.658c0-3.4-2.082-5.156-5.634-5.156a13.139,13.139,0,0,0-5.741,1.393l-.839-2.31a15.651,15.651,0,0,1,6.875-1.568c2.672,0,4.717.694,6.109,2.087a7.459,7.459,0,0,1,1.937,5.519v11.562h-2.708v-2.853a8.284,8.284,0,0,1-6.84,3.257c-3.51,0-7.056-2.014-7.056-5.892m13.933-1.465v-1.828a19.7,19.7,0,0,0-5.555-.8c-3.552,0-5.531,1.533-5.531,3.915v.073c0,2.377,2.2,3.765,4.759,3.765,3.474,0,6.327-2.118,6.327-5.121" transform="translate(170.435 48.824)" fill="#fff"/>
      <rect id="Retângulo_3199" data-name="Retângulo 3199" width="3.366" height="3.842" transform="translate(1464.937 428.595)" fill="#fff"/>
      <rect id="Retângulo_3200" data-name="Retângulo 3200" width="960.591" height="2.506" transform="translate(501.358 373.349)" fill="#fff"/>
      <path id="Caminho_4427" data-name="Caminho 4427" d="M235.656,436.832a5.888,5.888,0,0,1-4.1-1.657l-20.162-19.831c-7.337-7.327-14.684-14.781-21.829-22.154l-2.988-3.087-2.686-2.785-2.693-2.812-2.708-2.837-2.708-2.852-2.708-2.869-2.733-2.9-2.708-2.894-2.714-2.91L162.2,364.3l-2.682-2.9-2.657-2.905c-.7-.771-2.65-2.91-2.65-2.91-.726-.8-2.558-2.821-2.558-2.821-.761-.845-2.32-2.584-2.361-2.625-35.6-39.687-57.5-69.391-65.1-88.3l-.352-.865c-.27-.657-.393-.963-.823-2.127-.036-.088-.062-.171-.093-.259-.006-.026-.213-.57-.337-.922a4.661,4.661,0,0,1-.176-.559l-.048-.155a231.88,231.88,0,0,1-13.389-58.244c-2.568-26.313-.508-51.093,6.13-73.657.026-.073.046-.15.073-.222,0,0,.357-1.061.367-1.087a154.011,154.011,0,0,1,14.5-33.748c12.607-21.653,26.4-35.368,35.747-43.062,8.786-7.228,17.634-12.369,23.667-13.747a1.529,1.529,0,0,0,.662-.347c21.5-19.6,46.4-22.533,59.326-22.533,2.221,0,4.369.083,6.384.249a1.085,1.085,0,0,0,.119,0,1.481,1.481,0,0,0,.854-.269C229.923,1,248.481,0,255.848,0c.865,0,1.58.016,2.1.032h.083c.523-.016,1.233-.032,2.1-.032,7.369,0,25.93,1,39.04,10.288a1.481,1.481,0,0,0,.854.269,1.094,1.094,0,0,0,.119,0c2.014-.167,4.163-.249,6.384-.249,12.939,0,37.859,2.931,59.367,22.565a1.425,1.425,0,0,0,.652.347c6.224,1.481,14.839,6.477,23.641,13.715,9.346,7.694,23.134,21.4,35.715,43.02a154.408,154.408,0,0,1,14.637,33.893c.058.176.181.632.181.637s.166.5.192.575c.155.538.311,1.087.456,1.631l.331,1.191c.109.4.222.793.327,1.186.212.781.408,1.558.6,2.339l.135.544c.176.7.353,1.393.518,2.086.093.414.186.829.274,1.237l.109.5c.243,1.061.476,2.123.693,3.184.042.212.192.979.192.979.3,1.5.534,2.739.736,3.9l.036.228a191.072,191.072,0,0,1,2.712,27.82l.006.1c.036,1.532.057,2.977.062,4.344a232.4,232.4,0,0,1-14.7,81.3c-.187.507-.331.9-.461,1.237-.424,1.154-.553,1.461-.812,2.1l-.342.845c-.139.352-.279.672-.414,1,0,0-.367.874-.446,1.041-.061.15-.253.574-.321.719-.206.466-.394.875-.59,1.295-.161.336-.306.646-.456.953-.036.083-.5,1.015-.518,1.061-.228.466-.471.937-.714,1.413l-.269.513c-1.222,2.351-2.621,4.847-4.163,7.415l-.032.062c-10.324,17.215-28.1,40.085-52.843,67.982-.02.02-.113.129-.113.129-.922,1.035-1.848,2.076-2.776,3.112l-.087.1c-.9,1.009-1.828,2.045-2.754,3.075l-.083.087c-.938,1.041-1.859,2.066-2.781,3.081l-.109.114c-.932,1.03-1.854,2.045-2.775,3.055l-.155.17c-.886.974-1.813,1.978-2.734,2.988l-.119.124c-.938,1.021-1.854,2.02-2.77,3.008l-.176.192c-.906.984-1.833,1.983-2.754,2.977l-.1.109c-.937,1-1.869,2.015-2.8,3.008,0,0-1.983,2.113-2.915,3.112l-2.987,3.169c-.938.989-2.879,3.044-2.879,3.044-23.542,24.791-44.4,45.258-54.732,55.256a5.884,5.884,0,0,1-4.106,1.662Z" transform="translate(9.097 0)" fill="#fff"/>
      <path id="Caminho_4428" data-name="Caminho 4428" d="M226.28,430.017a3.929,3.929,0,0,1-3.79-2.879l-6.332-22.693a4.04,4.04,0,0,1-3.361-3.977v-2.821a4.03,4.03,0,0,1,4.029-4.029h44.393a4.029,4.029,0,0,1,4.028,4.029v2.821a4.034,4.034,0,0,1-3.453,3.987l-6.327,22.683a3.934,3.934,0,0,1-3.79,2.879Z" transform="translate(28.508 52.731)" fill="#fff"/>
      <path id="Caminho_4429" data-name="Caminho 4429" d="M279.693,426.463a15.308,15.308,0,1,1,15.389-15.336,15.23,15.23,0,0,1-15.389,15.336" transform="translate(35.4 53.03)" fill="#fff"/>
      <path id="Caminho_4430" data-name="Caminho 4430" d="M279.578,397.148a14,14,0,1,1-.057,0Z" transform="translate(35.574 53.204)" fill="#fff"/>
      <path id="Caminho_4431" data-name="Caminho 4431" d="M87.784,252.306c.549,1.5.554,1.455,1.108,2.853,6.389,16.066,23.268,39.236,43.9,63.9,24.62,29.569,54.246,60.714,77.095,83.7,8.5,8.606,16.268,16.305,22.823,22.71l.087.087c.5.482.984.953,1.471,1.419h.259l22.067.083h.032l20.953.078,1.388.006C314.829,392.7,390.458,316.591,418.05,270.914q2.23-3.728,4.029-7.166c.119-.238.248-.476.367-.714.192-.373.378-.74.559-1.114.161-.321.316-.642.472-.958s.3-.621.44-.932c.186-.393.362-.776.533-1.165.109-.238.218-.476.321-.709.269-.621.533-1.238.777-1.849.073-.17.129-.321.186-.455.2-.492.316-.772.446-1.1a7.261,7.261,0,0,0,.388-1.377c11.832-30.1,22.5-82.129,7.565-131.181.026.036-35.849-97.247-176.132-97.247C132.783,20.694,81.043,121.571,81.043,121.571l-.01,2.516-.606-.688c-14.207,48.275-4.039,99.2,7.393,128.865a.383.383,0,0,0-.036.042" transform="translate(9.843 3.324)" fill="#fff"/>
    </g>
  </g>
  <g id="Grupo_10143" data-name="Grupo 10143" transform="translate(83.321 30.931)">
    <g id="Grupo_10142" data-name="Grupo 10142" clip-path="url(#clip-path-2)">
      <rect id="Retângulo_3202" data-name="Retângulo 3202" width="179.968" height="399.413" transform="translate(-7.254 0)" fill="url(#linear-gradient)"/>
    </g>
  </g>
  <g id="Grupo_10145" data-name="Grupo 10145" transform="translate(277.896 30.931)">
    <g id="Grupo_10144" data-name="Grupo 10144" clip-path="url(#clip-path-3)">
      <rect id="Retângulo_3203" data-name="Retângulo 3203" width="179.968" height="399.413" transform="translate(0 0)" fill="url(#linear-gradient-2)"/>
    </g>
  </g>
  <g id="Grupo_10147" data-name="Grupo 10147" transform="translate(292.617 55.914)">
    <g id="Grupo_10146" data-name="Grupo 10146" clip-path="url(#clip-path-4)">
      <rect id="Retângulo_3204" data-name="Retângulo 3204" width="239.628" height="398.271" transform="matrix(0.978, -0.208, 0.208, 0.978, -75.632, 16.076)" fill="url(#linear-gradient-3)"/>
    </g>
  </g>
  <g id="Grupo_10149" data-name="Grupo 10149" transform="translate(82.92 55.914)">
    <g id="Grupo_10148" data-name="Grupo 10148" clip-path="url(#clip-path-5)">
      <rect id="Retângulo_3205" data-name="Retângulo 3205" width="239.762" height="398.44" transform="matrix(0.978, -0.208, 0.208, 0.978, -82.92, 16.083)" fill="url(#linear-gradient-4)"/>
    </g>
  </g>
  <g id="Grupo_10151" data-name="Grupo 10151">
    <g id="Grupo_10150" data-name="Grupo 10150" clip-path="url(#clip-path)">
      <path id="Caminho_4436" data-name="Caminho 4436" d="M256.421,5.243c-4.349-.139-26.738-.3-39.888,10.806,0,0-36.6-5.965-65.606,21.964-6.907-.046-35.058,15.963-57.312,54.215A147.732,147.732,0,0,0,79.61,124.835c4.4-5.814,21.275-28.922,56.991-25.681,2.485-1.936,24.765-26.167,70.98-17.749,6.307-6.606,29.513-13.663,48.841-13.907,19.333.244,42.534,7.3,48.841,13.907,46.215-8.419,68.495,15.813,70.985,17.749,35.71-3.241,52.667,19.847,57.062,25.666a148.021,148.021,0,0,0-14.078-32.594c-22.259-38.252-50.409-54.261-57.316-54.215-29.01-27.928-65.606-21.964-65.606-21.964C283.159,4.942,260.77,5.1,256.421,5.243" transform="translate(10.665 0.698)" fill="#b70026"/>
      <path id="Caminho_4437" data-name="Caminho 4437" d="M216.535,14.831s-36.6-5.965-65.611,21.964c-6.9-.046-35.052,15.963-57.311,54.215a147.946,147.946,0,0,0-14.006,32.608c4.4-5.814,21.28-28.922,57-25.681,2.485-1.937,24.686-26.074,70.731-17.79,4.407-37.1,9.2-65.316,9.2-65.316" transform="translate(10.665 1.915)" fill="#a50f25"/>
      <path id="Caminho_4438" data-name="Caminho 4438" d="M136.6,95.28a.743.743,0,0,0,.067-.057c6.648-34.716,14.26-61.086,14.26-61.086-6.907-.046-35.052,15.963-57.312,54.215a147.727,147.727,0,0,0-14,32.608c4.4-5.82,21.28-28.922,56.99-25.681" transform="translate(10.665 4.573)" fill="#891723"/>
      <path id="Caminho_4439" data-name="Caminho 4439" d="M270.71,14.831s36.6-5.965,65.605,21.964c6.907-.046,35.058,15.963,57.316,54.215A148.026,148.026,0,0,1,407.71,123.6c-4.4-5.821-21.353-28.907-57.068-25.666-2.486-1.937-24.686-26.074-70.731-17.79-4.412-37.1-9.2-65.316-9.2-65.316" transform="translate(36.266 1.915)" fill="#a50f25"/>
      <path id="Caminho_4440" data-name="Caminho 4440" d="M342.893,95.28a.722.722,0,0,1-.067-.057c-6.649-34.716-14.26-61.086-14.26-61.086,6.907-.046,35.052,15.963,57.311,54.215a148.033,148.033,0,0,1,14.078,32.592c-4.4-5.82-21.353-28.906-57.062-25.665" transform="translate(44.017 4.573)" fill="#891723"/>
      <path id="Caminho_4441" data-name="Caminho 4441" d="M238.484,398.812H218.09l.248.652,7.234,25.925h12.912Z" transform="translate(29.217 53.427)" fill="#434142"/>
      <path id="Caminho_4442" data-name="Caminho 4442" d="M235.7,398.812h20.39l-.248.652-7.229,25.925H235.7Z" transform="translate(31.575 53.427)" fill="#666669"/>
      <path id="Caminho_4443" data-name="Caminho 4443" d="M260.152,400.094H216.96a.694.694,0,0,1-.694-.694v-1.615a.69.69,0,0,1,.694-.694h43.192a.69.69,0,0,1,.694.694V399.4a.694.694,0,0,1-.694.694" transform="translate(28.972 53.197)" fill="#666669"/>
      <path id="Caminho_4444" data-name="Caminho 4444" d="M257.835,400.487l.212-.751H218.392l.259.751Z" transform="translate(29.257 53.551)" fill="#434142"/>
      <path id="Caminho_4445" data-name="Caminho 4445" d="M378.175,212.183c-.539,0-23.108-23.6-68.1-19.478-2.48-1.507-19.163-10.329-54.531-12.23-32.556.678-52.05,10.723-54.53,12.23-44.994-4.122-67.563,19.478-68.1,19.478-27.027-.745-45.191,18.215-46.8,20.426.553,1.5.559,1.455,1.118,2.847,16.91,42.089,106.111,132.724,145.983,171.291h44.652c39.872-38.567,129.073-129.2,145.983-171.291.565-1.393.565-1.352,1.118-2.847-1.6-2.211-19.768-21.171-46.8-20.426" transform="translate(11.537 24.178)" fill="#004991"/>
      <path id="Caminho_4446" data-name="Caminho 4446" d="M288.87,191.316c44.989-4.116,67.558,19.478,68.1,19.478,27.027-.741,45.185,18.215,46.8,20.431-.554,1.5-.559,1.45-1.118,2.843-16.915,42.089-106.111,132.724-145.983,171.291H244.4c31.014-66.6,42.249-144.274,44.471-214.043" transform="translate(32.741 25.565)" fill="#004080"/>
      <path id="Caminho_4447" data-name="Caminho 4447" d="M355.519,208.439h0c27.027-.745,45.191,18.215,46.8,20.426-.555,1.5-.559,1.455-1.119,2.847C384.285,273.8,295.091,364.437,255.213,403c0,0,59.03-86.492,92.653-169.463a155.473,155.473,0,0,0,7.653-25.1" transform="translate(34.19 27.921)" fill="#003670"/>
      <path id="Caminho_4448" data-name="Caminho 4448" d="M201.011,191.316c-44.989-4.116-67.558,19.478-68.1,19.478-27.027-.741-45.185,18.215-46.8,20.431.555,1.5.559,1.45,1.118,2.843,16.915,42.089,106.115,132.724,145.983,171.291h12.266c-31.014-66.6-42.249-144.274-44.471-214.043" transform="translate(11.536 25.565)" fill="#004080"/>
      <path id="Caminho_4449" data-name="Caminho 4449" d="M132.913,208.439h0c-27.027-.745-45.191,18.215-46.8,20.426.555,1.5.559,1.455,1.119,2.847C104.147,273.8,193.347,364.437,233.219,403c0,0-59.03-86.492-92.654-169.463a156.146,156.146,0,0,1-7.652-25.1" transform="translate(11.536 27.921)" fill="#003670"/>
      <path id="Caminho_4450" data-name="Caminho 4450" d="M153.115,132.765c-.006-.113-.011-.166-.016-.285-.192-4.867-1.89-8.5-4.913-10.454-3.422-2.21-8.424-2.4-14.415-.4-6.534,2.165-13.047,4.541-19.448,7.094q1.383,25.092,2.76,50.186c4.288-1.7,6.447-2.511,10.775-4.074-.331-6.555-.5-9.833-.829-16.382,2.5-.9,3.749-1.34,6.261-2.2,4.059,5.282,6.084,7.954,10.116,13.354,5.012-1.564,7.534-2.3,12.582-3.681q-5.8-7.8-11.738-15.5c5.576-4.189,9.175-10.541,8.864-17.656m-11.195,3.521v.073c.208,4.562-2.728,8.212-7.8,9.92-3.035,1.021-4.551,1.549-7.569,2.641-.3-5.846-.446-8.771-.74-14.617,2.951-1.066,4.431-1.578,7.393-2.583,5.478-1.848,8.507-.2,8.719,4.566" transform="translate(15.315 16.108)" fill="#004991"/>
      <path id="Caminho_4451" data-name="Caminho 4451" d="M293.453,108.154q-10.245,24.1-20.089,48.359c4.556.5,6.834.776,11.375,1.413,1.611-4.147,2.419-6.219,4.045-10.35,7.093,1.066,10.629,1.683,17.676,3.091,1.423,4.665,2.127,7,3.536,11.68,4.619.974,6.917,1.5,11.515,2.621q-8.42-27.54-17.288-54.925c-4.3-.818-6.451-1.2-10.769-1.889m9.853,32.261c-4.334-.823-6.508-1.207-10.862-1.9,2.335-5.85,3.51-8.766,5.866-14.575,2.014,6.576,3.013,9.873,5,16.475" transform="translate(36.622 14.489)" fill="#004991"/>
      <path id="Caminho_4452" data-name="Caminho 4452" d="M350.219,148.281q7.86-9.653,15.931-19.121c-4.872-1.921-7.321-2.837-12.245-4.587-3.811,5.136-5.716,7.729-9.506,12.965q-3.914-9.367-7.938-18.687c-5.1-1.532-7.658-2.258-12.793-3.608q7.02,14.438,13.782,29-8.294,10.554-16.351,21.29c4.919,1.284,7.367,1.972,12.256,3.427,3.992-5.654,5.99-8.455,10.013-14q4.225,9.973,8.326,20c4.935,1.76,7.393,2.682,12.282,4.613q-6.719-15.712-13.757-31.288" transform="translate(43.017 15.439)" fill="#004991"/>
      <path id="Caminho_4453" data-name="Caminho 4453" d="M172.691,152.291c-.129-4.3-.192-6.457-.321-10.765,6.689-1.4,13.461-2.6,20.224-3.588l-.218-9.811c-6.788.993-13.582,2.2-20.3,3.6-.125-4.158-.181-6.239-.306-10.4,7.72-1.507,15.4-2.838,23.186-4.029-.083-3.925-.125-5.892-.207-9.811-11.619,1.766-23.088,3.941-34.551,6.544q.871,25.257,1.729,50.508c6.928-1.667,13.949-3.128,20.965-4.354,1.941-4.288,2.92-6.421,4.883-10.681-6.048.989-9.066,1.548-15.083,2.785" transform="translate(21.461 14.4)" fill="#004991"/>
      <path id="Caminho_4454" data-name="Caminho 4454" d="M259.551,104.672q-5.933,7.945-11.727,16-5.809-8.309-11.779-16.506h-.13q-5.948,11.16-11.742,22.4.094,14.3.176,28.607c4.411-.181,6.617-.244,11.034-.29q-.031-15.7-.057-31.4,6.09,7.743,12.028,15.616c.02.041.036.061.061.1.192.006.286.006.482.01q6.042-7.727,12.256-15.341-.124,15.766-.254,31.537c4.437.244,6.659.394,11.086.767q.318-25.334.632-50.684c-4.82-.4-7.234-.569-12.064-.823" transform="translate(30.031 13.955)" fill="#004991"/>
      <path id="Caminho_4455" data-name="Caminho 4455" d="M203,157.17q12.909-26.717,26.535-53.061c-5.618.218-8.423.378-14.031.807q-13.468,26.841-26.183,54.035c5.462-.813,8.2-1.17,13.679-1.781" transform="translate(25.362 13.947)" fill="#b70026"/>
      <path id="Caminho_4456" data-name="Caminho 4456" d="M279.58,397.15a14,14,0,1,1-.062,0Zm-.062,2.148a11.314,11.314,0,1,0,.062,0Zm-2.635,19.681h-2.5V403.585a28.193,28.193,0,0,1,4.437-.367,8.443,8.443,0,0,1,4.887,1.165,3.617,3.617,0,0,1,1.445,3.18,3.839,3.839,0,0,1-3.075,3.748v.125c1.388.248,2.32,1.465,2.635,3.743a12.3,12.3,0,0,0,1,3.8h-2.635a11.128,11.128,0,0,1-1.061-3.925c-.383-1.963-1.372-2.7-3.386-2.7h-1.755Zm0-8.523H278.7c2.071,0,3.826-.741,3.826-2.635,0-1.356-1-2.7-3.826-2.7a13.354,13.354,0,0,0-1.818.119Z" transform="translate(35.574 53.205)" fill="#666669"/>
      <path id="Caminho_4457" data-name="Caminho 4457" d="M591.508,204.914v-.942c0-16.034-5.106-29.378-14.768-38.589-10.951-10.438-27.333-15.957-47.38-15.957h-65.6V315.446h37.2v-54.1h21.327l31.827,54.1h42.6l-36.984-61.531c14.672-6.373,31.781-20.027,31.781-49m-37.446.7v.234c0,15.041-10.251,24.024-27.416,24.024H500.955V181.6h24.951c18.419,0,28.156,8.305,28.156,24.018m562.617-57.135-62.432,166.963h37.543l12.577-35.756h58.446l12.829,35.756h38.525l-62.435-166.963Zm34.8,99.742h-35.771l18-50.824ZM1322.8,230.554l49.761-81.129h-41.39L1301.75,202.05l-28.939-52.625h-42.368L1279.7,231.02l-51.492,84.426H1269.6l31.4-55.7,31.158,55.7h42.369ZM668.089,283.272V247.935h66.616V215.761H668.089V181.6h75.743V149.425H631.138V315.446H701.05l16.982-32.174ZM986.9,149.425l-37.579,53.8-38.059-53.8h-.425l-38.211,72.363v93.658h36.212V212.639l39.133,50.948.206.347h1.564l39.588-51.761V315.446h36.456V149.425Z" transform="translate(62.128 19.892)" fill="#fff"/>
      <path id="Caminho_4458" data-name="Caminho 4458" d="M794.3,149.314,706.654,315.334h45.181l87.657-166.021Z" transform="translate(94.668 20.003)" fill="#fff"/>
      <path id="Caminho_4459" data-name="Caminho 4459" d="M1284.2,144.273a12.391,12.391,0,1,1-.052,0Zm-.052,1.9a10.015,10.015,0,1,0,.052,0Zm-2.334,17.422h-2.211V149.969a24.256,24.256,0,0,1,3.93-.327,7.5,7.5,0,0,1,4.328,1.031,3.22,3.22,0,0,1,1.281,2.816,3.4,3.4,0,0,1-2.719,3.315v.113c1.221.218,2.044,1.295,2.324,3.309a11.1,11.1,0,0,0,.891,3.37h-2.331a9.865,9.865,0,0,1-.941-3.479c-.337-1.735-1.212-2.387-3-2.387h-1.553Zm0-7.549h1.61c1.833,0,3.386-.652,3.386-2.33,0-1.2-.89-2.392-3.386-2.392a12.4,12.4,0,0,0-1.61.109Z" transform="translate(170.376 19.328)" fill="#fff"/>
    </g>
  </g>
</svg>
