<svg id="logo-menu-saladeaula" xmlns="http://www.w3.org/2000/svg" xmlns:xlink="http://www.w3.org/1999/xlink" width="558.801" height="159.797" viewBox="0 0 558.801 159.797">
  <defs>
    <clipPath id="clip-path">
      <rect id="Retângulo_3212" data-name="Retângulo 3212" width="558.801" height="159.796" fill="#fff"/>
    </clipPath>
  </defs>
  <g id="Grupo_10152" data-name="Grupo 10152" clip-path="url(#clip-path)">
    <path id="Caminho_4460" data-name="Caminho 4460" d="M25.246,22.381V.66H32.64V22.431c0,5.025,2.395,7.512,6.22,7.512s6.22-2.437,6.22-7.361V.66h7.343V22.229c0,9.792-5.406,14.511-13.664,14.511-8.211,0-13.513-4.767-13.513-14.36" transform="translate(-7.891 -0.206)" fill="#fff"/>
    <path id="Caminho_4461" data-name="Caminho 4461" d="M98.233.66h6.781l13.664,20.707V.66h7.243V36.184H119.6L105.475,14.717V36.184H98.233Z" transform="translate(-30.705 -0.206)" fill="#fff"/>
    <rect id="Retângulo_3207" data-name="Retângulo 3207" width="7.394" height="35.524" transform="translate(118.924 0.454)" fill="#fff"/>
    <path id="Caminho_4462" data-name="Caminho 4462" d="M214.311.66h8.006l7.549,24.461L237.411.66h7.8L233.179,36.386h-6.832Z" transform="translate(-66.988 -0.206)" fill="#fff"/>
    <path id="Caminho_4463" data-name="Caminho 4463" d="M289.445.66h23V7.308H296.79v7.661h13.766V21.62H296.79v7.917h15.858v6.647h-23.2Z" transform="translate(-90.472 -0.206)" fill="#fff"/>
    <path id="Caminho_4464" data-name="Caminho 4464" d="M355.388.662H368.8c4.134,0,7.444,1.168,9.688,3.4a11.208,11.208,0,0,1,3.01,8.223v.2c0,5.379-2.7,8.778-6.627,10.505l7.6,13.192H374l-6.574-11.67h-4.641v11.67h-7.394Zm12.85,17.355c3.774,0,5.813-2.131,5.813-5.328v-.051c0-3.551-2.19-5.328-5.964-5.328h-5.3V18.017Z" transform="translate(-111.085 -0.207)" fill="#fff"/>
    <path id="Caminho_4465" data-name="Caminho 4465" d="M421.845,31.209l4.386-5.432c2.392,2.083,5.3,4.008,8.87,4.008,2.856,0,4.589-1.42,4.589-3.5v-.051c0-1.777-1.019-2.891-6.119-4.82-6.321-2.437-10.247-4.82-10.247-10.912v-.1C423.325,4.214,428.116,0,435,0a17.018,17.018,0,0,1,11.521,4.362l-4.127,5.581c-2.244-1.824-4.844-3.3-7.6-3.3-2.55,0-4.128,1.269-4.128,3.1v.047c0,2.03,1.222,2.992,6.781,5.278,6.22,2.437,9.584,5.075,9.584,10.609v.1c0,6.6-5.047,10.659-11.983,10.659a19.213,19.213,0,0,1-13.206-5.227" transform="translate(-131.857)" fill="#fff"/>
    <rect id="Retângulo_3208" data-name="Retângulo 3208" width="7.394" height="35.524" transform="translate(337.203 0.454)" fill="#fff"/>
    <path id="Caminho_4466" data-name="Caminho 4466" d="M535.773.661H547.3c10.348,0,17.028,7.106,17.028,17.507v.458c0,10.4-6.681,17.557-17.028,17.557H535.773Zm7.394,6.648V29.535h4.08c5.608,0,9.436-3.905,9.436-10.957v-.256c0-7.052-3.828-11.013-9.436-11.013Z" transform="translate(-167.468 -0.207)" fill="#fff"/>
    <path id="Caminho_4467" data-name="Caminho 4467" d="M615.551.366h7.037l12.8,35.726h-7.652l-2.648-7.712H612.8l-2.6,7.712h-7.445Zm7.293,21.518-3.879-11.572L615.04,21.884Z" transform="translate(-188.404 -0.114)" fill="#fff"/>
    <path id="Caminho_4468" data-name="Caminho 4468" d="M680.413.661h11.528c10.348,0,17.028,7.106,17.028,17.507v.458c0,10.4-6.681,17.557-17.028,17.557H680.413Zm7.394,6.648V29.535h4.077c5.611,0,9.436-3.905,9.436-10.957v-.256c0-7.052-3.825-11.013-9.436-11.013Z" transform="translate(-212.678 -0.207)" fill="#fff"/>
    <path id="Caminho_4469" data-name="Caminho 4469" d="M754.135.66h23V7.308H761.481v7.661h13.765V21.62H761.481v7.917h15.858v6.647h-23.2Z" transform="translate(-235.722 -0.206)" fill="#fff"/>
    <path id="Caminho_4512" data-name="Caminho 4512" d="M99.35,118.418v-.541c0-9.2-2.93-16.861-8.476-22.147-6.285-5.992-15.688-9.16-27.194-9.16H26.028v95.289H47.377V150.807H59.618l18.268,31.052h24.451L81.109,146.543c8.422-3.658,18.241-11.5,18.241-28.125m-21.492.4v.133c0,8.634-5.884,13.789-15.736,13.789H47.377V105.037H61.7c10.571,0,16.161,4.766,16.161,13.786m322.92-32.794-35.833,95.83h21.548l7.219-20.523h33.545l7.364,20.523h22.113L420.9,86.029Zm19.973,57.249H400.22l10.333-29.171Zm98.33-10.144L547.643,86.57H523.887L507,116.775l-16.61-30.2H466.074L494.347,133.4l-29.554,48.457H488.55l18.021-31.967,17.884,31.967h24.318ZM143.305,163.392V143.111H181.54V124.644H143.305V105.037h43.474V86.57H122.1v95.289h40.128l9.747-18.467ZM326.289,86.57l-21.569,30.88L282.874,86.57h-.244L260.7,128.1v53.755h20.784V122.852l22.46,29.242.119.2h.9l22.722-29.708v59.274h20.925V86.57Z" transform="translate(-8.136 -26.891)" fill="#fff"/>
    <path id="Caminho_4513" data-name="Caminho 4513" d="M306.3,86.816,256,182.106h25.932l50.312-95.289Z" transform="translate(-80.018 -27.137)" fill="#fff"/>
    <path id="Caminho_4514" data-name="Caminho 4514" d="M798.191,82.043a7.112,7.112,0,1,1-.029,0Zm-.029,1.091a5.748,5.748,0,1,0,.029,0Zm-1.341,10h-1.269V85.312a13.9,13.9,0,0,1,2.256-.188,4.3,4.3,0,0,1,2.484.592,1.847,1.847,0,0,1,.734,1.616,1.948,1.948,0,0,1-1.561,1.9V89.3c.7.125,1.174.743,1.334,1.9a6.352,6.352,0,0,0,.511,1.934h-1.337a5.639,5.639,0,0,1-.541-2,1.487,1.487,0,0,0-1.721-1.37h-.891Zm0-4.333h.924c1.052,0,1.944-.375,1.944-1.337,0-.689-.511-1.374-1.944-1.374a7.092,7.092,0,0,0-.924.063Z" transform="translate(-247.265 -25.645)" fill="#fff"/>
  </g>
</svg>
