<svg id="logo-menu-admin" xmlns="http://www.w3.org/2000/svg" xmlns:xlink="http://www.w3.org/1999/xlink" width="672.577" height="192.332" viewBox="0 0 672.577 192.332">
  <defs>
    <clipPath id="clip-path">
      <rect id="Retângulo_3212" data-name="Retângulo 3212" width="672.577" height="192.332" fill="none"/>
    </clipPath>
  </defs>
  <g id="Grupo_10152" data-name="Grupo 10152" clip-path="url(#clip-path)">
    <path id="Caminho_4460" data-name="Caminho 4460" d="M25.246,26.8V.66h8.9v26.2c0,6.048,2.883,9.042,7.486,9.042s7.486-2.933,7.486-8.86V.66h8.838V26.621c0,11.785-6.507,17.465-16.446,17.465-9.883,0-16.264-5.737-16.264-17.283" transform="translate(-4.358 -0.114)" fill="#1a3f8d"/>
    <path id="Caminho_4461" data-name="Caminho 4461" d="M98.233.66H106.4l16.446,24.923V.66h8.717V43.417h-7.612l-17-25.839V43.417H98.233Z" transform="translate(-16.956 -0.114)" fill="#1a3f8d"/>
    <rect id="Retângulo_3207" data-name="Retângulo 3207" width="8.899" height="42.757" transform="translate(143.138 0.547)" fill="#1a3f8d"/>
    <path id="Caminho_4462" data-name="Caminho 4462" d="M214.311.66h9.636L233.033,30.1,242.114.66H251.5l-14.479,43H228.8Z" transform="translate(-36.992 -0.114)" fill="#1a3f8d"/>
    <path id="Caminho_4463" data-name="Caminho 4463" d="M289.445.66h27.681v8h-18.84v9.22h16.568v8H298.286v9.529h19.086v8H289.445Z" transform="translate(-49.96 -0.114)" fill="#1a3f8d"/>
    <path id="Caminho_4464" data-name="Caminho 4464" d="M355.388.662h16.139c4.975,0,8.96,1.406,11.66,4.091,2.336,2.322,3.623,5.68,3.623,9.9v.243c0,6.474-3.252,10.566-7.976,12.644l9.142,15.878h-10.19l-7.912-14.047h-5.586V43.416h-8.9ZM370.854,21.55c4.542,0,7-2.565,7-6.413v-.061c0-4.274-2.636-6.413-7.178-6.413h-6.385V21.55Z" transform="translate(-61.343 -0.114)" fill="#1a3f8d"/>
    <path id="Caminho_4465" data-name="Caminho 4465" d="M421.845,37.563l5.279-6.538C430,33.532,433.509,35.85,437.8,35.85c3.437,0,5.523-1.709,5.523-4.213v-.061c0-2.139-1.227-3.48-7.365-5.8-7.608-2.933-12.333-5.8-12.333-13.134v-.117C423.626,5.072,429.392,0,437.68,0a20.483,20.483,0,0,1,13.867,5.251l-4.968,6.717c-2.7-2.2-5.831-3.97-9.146-3.97-3.069,0-4.969,1.527-4.969,3.731v.057c0,2.443,1.47,3.6,8.162,6.353,7.486,2.933,11.535,6.109,11.535,12.769v.118c0,7.944-6.074,12.829-14.422,12.829a23.125,23.125,0,0,1-15.895-6.291" transform="translate(-72.814)" fill="#1a3f8d"/>
    <rect id="Retângulo_3208" data-name="Retângulo 3208" width="8.899" height="42.757" transform="translate(405.86 0.547)" fill="#1a3f8d"/>
    <path id="Caminho_4466" data-name="Caminho 4466" d="M535.773.661h13.875c12.455,0,20.5,8.553,20.5,21.071v.551c0,12.523-8.041,21.131-20.5,21.131H535.773Zm8.9,8V35.414h4.911c6.75,0,11.357-4.7,11.357-13.188v-.308c0-8.487-4.607-13.256-11.357-13.256Z" transform="translate(-92.478 -0.114)" fill="#1a3f8d"/>
    <path id="Caminho_4467" data-name="Caminho 4467" d="M618.157.366h8.47l15.405,43h-9.209l-3.187-9.282H614.845l-3.133,9.282h-8.96Zm8.778,25.9-4.668-13.928-4.724,13.928Z" transform="translate(-104.039 -0.063)" fill="#1a3f8d"/>
    <path id="Caminho_4468" data-name="Caminho 4468" d="M680.413.661h13.875c12.455,0,20.5,8.553,20.5,21.071v.551c0,12.523-8.041,21.131-20.5,21.131H680.413Zm8.9,8V35.414h4.907c6.753,0,11.357-4.7,11.357-13.188v-.308c0-8.487-4.6-13.256-11.357-13.256Z" transform="translate(-117.444 -0.114)" fill="#1a3f8d"/>
    <path id="Caminho_4469" data-name="Caminho 4469" d="M754.136.66h27.681v8h-18.84v9.22h16.568v8H762.977v9.529h19.086v8H754.136Z" transform="translate(-130.169 -0.114)" fill="#1a3f8d"/>
    <path id="Caminho_4512" data-name="Caminho 4512" d="M114.279,125.013v-.651c0-11.077-3.527-20.294-10.2-26.657C96.513,90.493,85.2,86.68,71.347,86.68H26.028V201.371h25.7V164H66.457l21.987,37.375h29.43L92.324,158.864c10.136-4.4,21.955-13.836,21.955-33.851m-25.868.487v.161c0,10.392-7.082,16.6-18.94,16.6H51.724v-33.35H68.961c12.723,0,19.451,5.736,19.451,16.592M477.081,86.029,433.952,201.371h25.935l8.688-24.7h40.375l8.863,24.7h26.616L501.3,86.029Zm24.04,68.9H476.408l12.437-35.11Zm118.35-12.209L653.848,86.68H625.255l-20.323,36.355L584.94,86.68H555.671l34.03,56.367L554.13,201.371h28.593l21.69-38.476,21.525,38.476h29.269ZM167.184,179.144V154.733H213.2V132.507h-46.02v-23.6H219.51V86.68H141.656V201.371h48.3l11.732-22.227ZM387.424,86.68l-25.961,37.168L335.17,86.68h-.294l-26.4,49.991v64.7H333.5V130.35l27.033,35.2.143.24h1.081L389.1,130.028v71.343h25.185V86.68Z" transform="translate(-4.493 -14.85)" fill="#b70026"/>
    <path id="Caminho_4513" data-name="Caminho 4513" d="M316.544,86.816,256,201.507h31.212L347.767,86.816Z" transform="translate(-44.187 -14.986)" fill="#004991"/>
    <path id="Caminho_4514" data-name="Caminho 4514" d="M799.642,82.043a8.561,8.561,0,1,1-.035,0Zm-.035,1.313a6.918,6.918,0,1,0,.035,0Zm-1.614,12.036h-1.527V85.978a16.739,16.739,0,0,1,2.715-.226,5.18,5.18,0,0,1,2.99.712,2.224,2.224,0,0,1,.884,1.945,2.345,2.345,0,0,1-1.878,2.289v.079c.845.151,1.414.894,1.606,2.286a7.653,7.653,0,0,0,.615,2.328h-1.609a6.793,6.793,0,0,1-.651-2.4,1.789,1.789,0,0,0-2.071-1.649h-1.073Zm0-5.215h1.112c1.267,0,2.34-.451,2.34-1.609,0-.83-.616-1.653-2.34-1.653a8.55,8.55,0,0,0-1.112.075Z" transform="translate(-136.544 -14.162)" fill="#b70026"/>
  </g>
</svg>
