<svg id="icone" xmlns="http://www.w3.org/2000/svg" xmlns:xlink="http://www.w3.org/1999/xlink" width="149.2" height="189.516" viewBox="0 0 149.2 189.516">
  <defs>
    <linearGradient id="linear-gradient" x1="1" y1="0.5" x2="0" y2="0.5" gradientUnits="objectBoundingBox">
      <stop offset="0" stop-color="#fff"/>
      <stop offset="0.73" stop-color="#fdfefe"/>
      <stop offset="0.992" stop-color="#f6f8fb"/>
      <stop offset="1" stop-color="#f6f8fb"/>
    </linearGradient>
    <linearGradient id="linear-gradient-2" x1="-6.027" y1="-1.805" x2="-7.027" y2="-1.805" xlink:href="#linear-gradient"/>
    <linearGradient id="linear-gradient-3" x1="1.076" y1="0.426" x2="-0.227" y2="0.544" gradientUnits="objectBoundingBox">
      <stop offset="0" stop-color="#f6f8fb"/>
      <stop offset="0.008" stop-color="#f6f8fb"/>
      <stop offset="0.27" stop-color="#fdfefe"/>
      <stop offset="1" stop-color="#fff"/>
    </linearGradient>
    <linearGradient id="linear-gradient-4" x1="0.75" y1="0.499" x2="0.085" y2="0.559" xlink:href="#linear-gradient"/>
  </defs>
  <g id="Grupo_10124" data-name="Grupo 10124" transform="translate(0 0)">
    <path id="Caminho_4343" data-name="Caminho 4343" d="M465.885,409.68a2.322,2.322,0,0,1-1.6-.647l-7.911-7.786c-2.873-2.873-5.759-5.8-8.57-8.695l-1.169-1.206-1.057-1.095-1.057-1.107-1.057-1.107-1.057-1.12-1.07-1.132-1.07-1.144-1.057-1.132-1.07-1.144-1.07-1.157-1.057-1.144-1.045-1.144c-.274-.3-1.045-1.144-1.045-1.144-.286-.311-1.007-1.107-1.007-1.107-.3-.336-.908-1.008-.933-1.032-13.969-15.573-22.576-27.241-25.549-34.654l-.137-.336c-.1-.261-.149-.373-.323-.833-.012-.037-.025-.062-.037-.1,0-.012-.087-.224-.137-.361l-.075-.224c0-.025-.012-.037-.025-.062a90.592,90.592,0,0,1-5.249-22.862,76.1,76.1,0,0,1,2.4-28.908c.012-.025.012-.062.025-.087,0,0,.137-.41.137-.423a60.666,60.666,0,0,1,5.7-13.247,62.711,62.711,0,0,1,14.031-16.9c3.445-2.836,6.916-4.851,9.292-5.4a.658.658,0,0,0,.261-.137,34.556,34.556,0,0,1,23.285-8.844c.871,0,1.717.037,2.5.1h.05a.546.546,0,0,0,.336-.112c5.15-3.645,12.426-4.043,15.325-4.043.336,0,.622,0,.821.012h.037c.211,0,.485-.012.821-.012,2.9,0,10.175.4,15.324,4.043a.546.546,0,0,0,.336.112h.05c.8-.062,1.629-.1,2.5-.1a34.609,34.609,0,0,1,23.3,8.856.661.661,0,0,0,.261.137c2.438.585,5.821,2.537,9.279,5.386a62.387,62.387,0,0,1,14.018,16.892,60.991,60.991,0,0,1,5.747,13.3c.025.075.075.249.075.249a2.358,2.358,0,0,0,.075.224c.062.211.124.423.174.647l.124.473c.05.162.087.311.124.46.087.311.162.609.236.92l.05.211c.075.274.137.547.2.821l.112.485.037.2c.1.423.187.833.274,1.256.013.087.075.386.075.386.112.6.211,1.082.286,1.53l.012.087a76.418,76.418,0,0,1,1.07,10.921v.037c.012.6.025,1.169.025,1.7a91.5,91.5,0,0,1-5.772,31.918c-.075.2-.124.361-.174.485-.174.448-.211.572-.323.821l-.137.336c-.05.137-.112.261-.162.386,0,0-.149.348-.174.411s-.1.224-.124.286c-.087.186-.149.348-.236.51-.062.137-.124.249-.174.373-.013.025-.2.4-.2.423-.087.187-.187.361-.286.547l-.1.2c-.485.921-1.032,1.9-1.63,2.911l-.012.025c-4.055,6.754-11.033,15.735-20.735,26.681l-.05.05c-.361.41-.722.821-1.095,1.219l-.037.037c-.348.4-.721.8-1.082,1.207l-.037.037L515.59,377.5l-.037.05c-.361.4-.721.8-1.094,1.194l-.062.062c-.348.386-.709.771-1.07,1.169l-.05.05c-.373.4-.721.8-1.082,1.182l-.075.075c-.361.386-.721.784-1.082,1.169l-.037.037c-.373.4-.734.784-1.095,1.182,0,0-.771.833-1.144,1.219l-1.169,1.244c-.373.385-1.132,1.194-1.132,1.194-9.242,9.727-17.427,17.762-21.482,21.693a2.3,2.3,0,0,1-1.617.647H465.885Z" transform="translate(-400.025 -238.2)" fill="#fff"/>
    <path id="Caminho_4344" data-name="Caminho 4344" d="M923.8,1661.18a1.545,1.545,0,0,1-1.493-1.132l-2.488-8.906a1.578,1.578,0,0,1-1.318-1.555v-1.107a1.582,1.582,0,0,1,1.58-1.58h17.427a1.582,1.582,0,0,1,1.58,1.58v1.107a1.581,1.581,0,0,1-1.355,1.567l-2.488,8.906a1.545,1.545,0,0,1-1.493,1.132H923.8Z" transform="translate(-854.008 -1471.676)" fill="#fff"/>
    <g id="Grupo_10123" data-name="Grupo 10123" transform="translate(87.391 176.206)">
      <path id="Caminho_4345" data-name="Caminho 4345" d="M1108.67,1666.815a6.008,6.008,0,1,1,6.045-6.021A5.989,5.989,0,0,1,1108.67,1666.815Z" transform="translate(-1102.6 -1654.8)" fill="#fff"/>
      <path id="Caminho_4346" data-name="Caminho 4346" d="M1112.811,1659.4a5.5,5.5,0,1,1-.025,0Z" transform="translate(-1106.716 -1658.828)" fill="#fff"/>
    </g>
  </g>
  <g id="Grupo_10133" data-name="Grupo 10133" transform="translate(2.344 2.336)">
    <g id="Grupo_10131" data-name="Grupo 10131" transform="translate(0)">
      <g id="Grupo_10125" data-name="Grupo 10125" transform="translate(0 8.745)">
        <path id="Caminho_4347" data-name="Caminho 4347" d="M425.768,416.562c.211.585.211.572.435,1.12,2.513,6.306,9.13,15.4,17.228,25.076,9.665,11.605,21.3,23.833,30.263,32.851,3.334,3.383,6.381,6.406,8.956,8.918l.037.037c.2.187.385.373.572.56h.1l8.657.037h.012l8.222.025h.547c14.081-13.521,43.76-43.386,54.594-61.323h0c.585-.97,1.107-1.916,1.58-2.811.05-.087.1-.187.149-.274.075-.149.149-.3.224-.435l.187-.373c.062-.125.112-.249.174-.361.075-.149.137-.311.211-.46.037-.087.087-.187.124-.274.112-.249.212-.485.311-.721.025-.075.05-.125.075-.187h0c.075-.2.124-.3.174-.435a2.774,2.774,0,0,0,.149-.535c4.64-11.817,8.831-32.241,2.973-51.484.012.013-14.068-38.174-69.135-38.174-49.146-1.667-69.458,37.925-69.458,37.925v.983l-.236-.274c-5.573,18.956-1.592,38.945,2.9,50.588C425.781,416.55,425.768,416.55,425.768,416.562Z" transform="translate(-420.005 -327.288)" fill="#fff"/>
        <path id="Caminho_4348" data-name="Caminho 4348" d="M425.769,424.015c.211.585.211.572.435,1.12,2.513,6.307,9.13,15.4,17.228,25.076,9.665,11.605,21.3,23.833,30.263,32.85,3.334,3.371,6.381,6.394,8.956,8.906.212.2.411.4.622.6h.1l4.578.013c-26.731-58.213-15.15-137.646-11.8-156.777-37.279,6.219-53.014,36.881-53.014,36.881v.983l-.236-.274c-5.573,18.957-1.592,38.945,2.9,50.588C425.781,424,425.769,424,425.769,424.015Z" transform="translate(-420.005 -334.741)" fill="url(#linear-gradient)"/>
        <path id="Caminho_4349" data-name="Caminho 4349" d="M1045.817,335.9c37.279,6.219,53.014,36.881,53.014,36.881v.983l.236-.274c5.573,18.957,1.592,38.946-2.9,50.588l.012.012c-.212.585-.212.572-.435,1.12-2.513,6.306-9.13,15.4-17.228,25.076-9.665,11.605-21.295,23.833-30.263,32.851-3.595,3.644-6.866,6.879-9.566,9.5h-.112l-4.578.012C1060.743,434.464,1049.163,355.031,1045.817,335.9Z" transform="translate(-957.485 -334.829)" fill="url(#linear-gradient-2)"/>
        <path id="Caminho_4350" data-name="Caminho 4350" d="M1115.926,495.14c-11.643,29.032-31.184,59.2-35.326,65.452,8.583-8.359,22-21.88,33.684-35.152,1.816-2.077,3.594-4.167,5.324-6.232,7.712-9.217,14.093-17.912,16.842-24.168.062-.149.137-.311.2-.46.087-.236.149-.361.2-.485-.038.075-.05.112.037-.137,0,0,.112-.224.386-.97,4.49-11.643,8.483-31.632,2.9-50.588l-.237-.721a76.421,76.421,0,0,0-26.569-27.079C1117.17,428.482,1126.586,468.534,1115.926,495.14Z" transform="translate(-998.289 -403.74)" fill="url(#linear-gradient-3)"/>
        <path id="Caminho_4351" data-name="Caminho 4351" d="M424.481,493.189c.211.585.211.572.435,1.12,2.513,6.306,9.13,15.4,17.228,25.076,2.587,3.1,5.3,6.244,8.085,9.366,11.008,12.265,23.049,24.392,30.96,32.079-4.055-6.132-23.683-36.383-35.376-65.514-10.672-26.606-1.244-66.646,2.587-80.516a76.447,76.447,0,0,0-26.569,27.067l-.236.721c-5.573,18.957-1.592,38.946,2.9,50.588C424.481,493.176,424.481,493.176,424.481,493.189Z" transform="translate(-418.867 -403.915)" fill="url(#linear-gradient-4)"/>
      </g>
      <g id="Grupo_10126" data-name="Grupo 10126" transform="translate(2.877)">
        <path id="Caminho_4352" data-name="Caminho 4352" d="M511.408,257c-1.7-.05-10.5-.112-15.66,4.242A32.338,32.338,0,0,0,470,269.858c-2.712-.012-13.757,6.269-22.5,21.283a57.532,57.532,0,0,0-5.5,12.8,23.853,23.853,0,0,1,22.365-10.075c.983-.759,9.714-10.274,27.863-6.966,2.475-2.587,11.581-5.361,19.168-5.461,7.588.1,16.693,2.861,19.168,5.461,18.136-3.309,26.88,6.207,27.863,6.966a23.958,23.958,0,0,1,22.4,10.075,58.462,58.462,0,0,0-5.523-12.8c-8.732-15.013-19.79-21.295-22.5-21.283a32.347,32.347,0,0,0-25.748-8.62c-5.162-4.366-13.944-4.3-15.648-4.242" transform="translate(-442 -256.981)" fill="#b8182a"/>
        <path id="Caminho_4353" data-name="Caminho 4353" d="M495.748,289.727A32.339,32.339,0,0,0,470,298.347c-2.712-.013-13.757,6.269-22.5,21.283a57.53,57.53,0,0,0-5.5,12.8,23.853,23.853,0,0,1,22.365-10.075c.97-.759,9.69-10.237,27.763-6.978C493.87,300.8,495.748,289.727,495.748,289.727Z" transform="translate(-442 -285.471)" fill="#a61927"/>
        <path id="Caminho_4354" data-name="Caminho 4354" d="M464.377,384.406c.012,0,.012-.012.025-.025,2.612-13.633,5.6-23.982,5.6-23.982-2.712-.012-13.757,6.269-22.5,21.283a57.525,57.525,0,0,0-5.5,12.8A23.931,23.931,0,0,1,464.377,384.406Z" transform="translate(-442 -347.536)" fill="#8a1724"/>
        <path id="Caminho_4355" data-name="Caminho 4355" d="M1125.8,289.727a32.339,32.339,0,0,1,25.748,8.62c2.712-.013,13.757,6.269,22.5,21.283a57.63,57.63,0,0,1,5.522,12.8,23.957,23.957,0,0,0-22.4-10.075c-.97-.759-9.69-10.237-27.763-6.978C1127.678,300.8,1125.8,289.727,1125.8,289.727Z" transform="translate(-1040.744 -285.471)" fill="#a61927"/>
        <path id="Caminho_4356" data-name="Caminho 4356" d="M1338.522,384.406c-.013,0-.013-.012-.025-.025-2.612-13.633-5.6-23.982-5.6-23.982,2.711-.012,13.757,6.269,22.5,21.283a57.625,57.625,0,0,1,5.522,12.8A23.958,23.958,0,0,0,1338.522,384.406Z" transform="translate(-1222.083 -347.536)" fill="#8a1724"/>
      </g>
      <g id="Grupo_10127" data-name="Grupo 10127" transform="translate(63.703 174.43)">
        <path id="Caminho_4357" data-name="Caminho 4357" d="M945.51,1665.4H937.5l.1.249,2.836,10.175h5.075Z" transform="translate(-936.691 -1664.64)" fill="#434243"/>
        <path id="Caminho_4358" data-name="Caminho 4358" d="M1000.5,1665.4h8.01l-.1.249-2.836,10.175H1000.5Z" transform="translate(-991.855 -1664.64)" fill="#676769"/>
        <path id="Caminho_4359" data-name="Caminho 4359" d="M948.5,1660.469H931V1659.3h17.489l.013,1.169Z" transform="translate(-931 -1659.299)" fill="#676769"/>
        <path id="Caminho_4360" data-name="Caminho 4360" d="M954.086,1669l.074-.3H938.6l.1.3Z" transform="translate(-937.655 -1667.53)" fill="#434243"/>
      </g>
      <g id="Grupo_10128" data-name="Grupo 10128" transform="translate(5.763 78.005)">
        <path id="Caminho_4361" data-name="Caminho 4361" d="M579.848,896.551c-.211,0-9.068-9.267-26.731-7.65-.97-.585-7.525-4.055-21.407-4.8-12.775.261-20.437,4.2-21.407,4.8-17.663-1.617-26.52,7.65-26.731,7.65-10.61-.286-17.738,7.152-18.372,8.023.211.585.224.572.435,1.12,6.642,16.519,41.645,52.093,57.305,67.231h17.514c15.648-15.138,50.663-50.712,57.305-67.231.224-.547.224-.535.435-1.12A24.651,24.651,0,0,0,579.848,896.551Z" transform="translate(-465.2 -884.1)" fill="#004a90"/>
        <path id="Caminho_4362" data-name="Caminho 4362" d="M1049.151,921.366c17.663-1.617,26.52,7.65,26.731,7.65,10.61-.286,17.737,7.152,18.372,8.023-.211.584-.224.572-.436,1.119-6.643,16.519-41.645,52.093-57.305,67.231H1031.7c12.177-26.146,16.581-56.633,17.451-84.023Z" transform="translate(-961.234 -916.565)" fill="#14427c"/>
        <path id="Caminho_4363" data-name="Caminho 4363" d="M1109.768,984.143h0c10.61-.286,17.738,7.152,18.372,8.023-.211.584-.224.572-.435,1.119-6.642,16.519-41.645,52.093-57.305,67.231,0,0,23.173-33.945,36.371-66.522A62.941,62.941,0,0,0,1109.768,984.143Z" transform="translate(-995.121 -971.692)" fill="#1d3a69"/>
        <path id="Caminho_4364" data-name="Caminho 4364" d="M510.4,921.366c-17.663-1.617-26.519,7.65-26.731,7.65-10.61-.286-17.738,7.152-18.372,8.023.211.584.224.572.435,1.119,6.642,16.519,41.645,52.093,57.305,67.231h4.814c-12.177-26.146-16.581-56.633-17.451-84.023Z" transform="translate(-465.288 -916.565)" fill="#14427c"/>
        <path id="Caminho_4365" data-name="Caminho 4365" d="M483.672,984.143h0c-10.61-.286-17.738,7.152-18.372,8.023.211.584.224.572.435,1.119,6.642,16.519,41.645,52.093,57.305,67.231,0,0-23.173-33.945-36.371-66.522A60.333,60.333,0,0,1,483.672,984.143Z" transform="translate(-465.288 -971.692)" fill="#1d3a69"/>
      </g>
      <g id="Grupo_10130" data-name="Grupo 10130" transform="translate(18.326 44.023)">
        <g id="Grupo_10129" data-name="Grupo 10129">
          <path id="Caminho_4366" data-name="Caminho 4366" d="M581.425,673.458v-.112a4.85,4.85,0,0,0-1.928-4.1c-1.343-.871-3.309-.945-5.66-.162-2.562.846-5.125,1.779-7.637,2.786q.541,9.851,1.082,19.7c1.679-.672,2.525-.982,4.229-1.6-.124-2.575-.2-3.856-.323-6.431.983-.348,1.468-.522,2.45-.858,1.592,2.077,2.388,3.122,3.968,5.237,1.965-.609,2.961-.908,4.938-1.443-1.517-2.04-3.06-4.067-4.6-6.083A8.218,8.218,0,0,0,581.425,673.458Zm-4.391,1.38v.025c.075,1.791-1.07,3.222-3.06,3.894-1.194.4-1.791.61-2.973,1.032-.112-2.3-.174-3.445-.286-5.734,1.157-.423,1.741-.622,2.9-1.008C575.765,672.326,576.947,672.973,577.034,674.839Z" transform="translate(-566.2 -661.368)" fill="#004a90"/>
          <path id="Caminho_4367" data-name="Caminho 4367" d="M1143.186,625.3q-4.03,9.46-7.886,18.981c1.792.2,2.687.311,4.465.56.635-1.63.946-2.438,1.593-4.068,2.786.423,4.167.66,6.94,1.219.56,1.828.833,2.749,1.381,4.59,1.816.386,2.712.585,4.515,1.033q-3.3-10.8-6.779-21.556C1145.724,625.723,1144.878,625.573,1143.186,625.3Zm3.869,12.662c-1.7-.323-2.55-.473-4.267-.746.92-2.3,1.38-3.433,2.3-5.722C1145.885,634.082,1146.271,635.375,1147.055,637.962Z" transform="translate(-1064.511 -623.509)" fill="#004a90"/>
          <path id="Caminho_4368" data-name="Caminho 4368" d="M1317.531,663.574q3.078-3.788,6.257-7.5c-1.916-.759-2.874-1.119-4.8-1.8-1.493,2.015-2.239,3.035-3.731,5.087q-1.531-3.676-3.122-7.339c-2-.6-3.01-.883-5.026-1.418q2.762,5.672,5.411,11.381-3.246,4.142-6.418,8.359c1.928.51,2.9.771,4.814,1.344,1.567-2.227,2.351-3.321,3.931-5.5,1.106,2.612,2.189,5.224,3.271,7.849,1.94.684,2.9,1.057,4.826,1.816Q1320.293,669.693,1317.531,663.574Z" transform="translate(-1214.066 -645.662)" fill="#004a90"/>
          <path id="Caminho_4369" data-name="Caminho 4369" d="M735.3,640.488l-.125-4.229c2.625-.547,5.287-1.02,7.936-1.406-.037-1.542-.05-2.313-.087-3.856-2.662.386-5.336.871-7.973,1.418-.05-1.629-.075-2.45-.125-4.08,3.035-.585,6.045-1.12,9.105-1.58-.037-1.542-.05-2.314-.074-3.856-4.565.7-9.068,1.542-13.558,2.575q.336,9.907.684,19.827c2.711-.659,5.473-1.231,8.222-1.7.759-1.679,1.144-2.525,1.916-4.192C738.846,639.792,737.664,640,735.3,640.488Z" transform="translate(-709.976 -621.407)" fill="#004a90"/>
          <path id="Caminho_4370" data-name="Caminho 4370" d="M973.181,611.3c-1.555,2.078-3.084,4.18-4.6,6.282-1.518-2.177-3.06-4.329-4.627-6.481h-.05c-1.555,2.923-3.1,5.846-4.6,8.794q.037,5.616.062,11.232c1.729-.074,2.6-.1,4.329-.112-.012-4.1-.012-8.222-.025-12.326,1.592,2.027,3.172,4.067,4.714,6.132.012.013.012.025.025.037h.187q2.37-3.041,4.814-6.02c-.038,4.13-.062,8.247-.1,12.376,1.741.1,2.612.149,4.353.3q.131-9.944.249-19.889C976.03,611.461,975.085,611.4,973.181,611.3Z" transform="translate(-910.403 -611.075)" fill="#004a90"/>
          <path id="Caminho_4371" data-name="Caminho 4371" d="M839.874,631.722q5.056-10.486,10.411-20.822c-2.2.087-3.309.149-5.51.311q-5.28,10.541-10.274,21.208C836.652,632.1,837.734,631.959,839.874,631.722Z" transform="translate(-801.127 -610.9)" fill="#b8182a"/>
        </g>
      </g>
    </g>
    <g id="Grupo_10132" data-name="Grupo 10132" transform="translate(85.632 174.442)">
      <path id="Caminho_4372" data-name="Caminho 4372" d="M1112.811,1659.4a5.5,5.5,0,1,1-.025,0Zm-.025.846a4.443,4.443,0,1,0,.025,0Zm-1.032,7.724h-.983v-6.045a10.8,10.8,0,0,1,1.741-.149,3.292,3.292,0,0,1,1.915.46,1.412,1.412,0,0,1,.573,1.244,1.5,1.5,0,0,1-1.207,1.468V1665c.547.1.908.572,1.032,1.468a4.719,4.719,0,0,0,.4,1.493h-1.032a4.3,4.3,0,0,1-.423-1.542,1.145,1.145,0,0,0-1.331-1.057h-.684Zm0-3.346h.709c.808,0,1.5-.286,1.5-1.033,0-.535-.4-1.057-1.5-1.057a4.674,4.674,0,0,0-.709.049Z" transform="translate(-1107.3 -1659.4)" fill="#676769"/>
    </g>
  </g>
</svg>
