<svg id="Grupo_10123" data-name="Grupo 10123" xmlns="http://www.w3.org/2000/svg" xmlns:xlink="http://www.w3.org/1999/xlink" width="391.438" height="80.824" viewBox="0 0 391.438 80.824">
  <defs>
    <clipPath id="clip-path">
      <rect id="Retângulo_38748" data-name="Retângulo 38748" width="391.438" height="80.824" fill="none"/>
    </clipPath>
  </defs>
  <g id="Grupo_33165" data-name="Grupo 33165" clip-path="url(#clip-path)">
    <path id="Caminho_23464" data-name="Caminho 23464" d="M416.946,242.055h-1.161V225.783h6.291a5.6,5.6,0,0,1,4.051,1.532,5.155,5.155,0,0,1,1.59,3.877,5.079,5.079,0,0,1-1.59,3.853,5.646,5.646,0,0,1-4.051,1.509h-5.13Zm0-6.593h5.13a4.514,4.514,0,0,0,3.192-1.2,4.033,4.033,0,0,0,1.288-3.1,4.1,4.1,0,0,0-1.265-3.122,4.493,4.493,0,0,0-3.215-1.2h-5.13Z" transform="translate(-296.912 -161.232)" fill="#fff"/>
    <path id="Caminho_23465" data-name="Caminho 23465" d="M515.346,237.308H506.5L504.3,242h-1.23v-.14l7.614-16.156h.534l7.544,16.156V242h-1.207Zm-4.41-9.68-4.039,8.658h8.055Z" transform="translate(-359.24 -161.174)" fill="#fff"/>
    <path id="Caminho_23466" data-name="Caminho 23466" d="M616.171,235.776l5.06,6.152v.186h-1.3l-4.968-6.2h-4.921v6.2h-1.184V225.864H615.1a5.553,5.553,0,0,1,3.923,1.416,4.739,4.739,0,0,1,1.532,3.644,4.573,4.573,0,0,1-1.23,3.273,5.232,5.232,0,0,1-3.157,1.578m-6.151-.882H615.1a4.492,4.492,0,0,0,3.076-1.091,4.01,4.01,0,0,0,.012-5.792,4.456,4.456,0,0,0-3.087-1.1H610.02Z" transform="translate(-434.786 -161.289)" fill="#fff"/>
    <path id="Caminho_23467" data-name="Caminho 23467" d="M709.962,237.308h-8.844L698.912,242h-1.23v-.14L705.3,225.7h.534l7.544,16.156V242h-1.207Zm-4.411-9.68-4.039,8.658h8.055Z" transform="translate(-498.215 -161.174)" fill="#fff"/>
    <path id="Caminho_23468" data-name="Caminho 23468" d="M815.731,242.055l-11.189-13.719.116,5.548v8.171h-1.184V225.783h.464l11.119,13.672-.116-5.9v-7.776h1.184v16.272Z" transform="translate(-573.761 -161.232)" fill="#fff"/>
    <path id="Caminho_23469" data-name="Caminho 23469" d="M910.749,226.234H901.9l-2.205,4.689h-1.23v-.139l7.614-16.156h.534l7.544,16.156v.139h-1.207Zm-4.41-9.68-4.039,8.659h8.055Zm-.72-3.249v-.07l2-3.041.975.464v.116l-1.95,2.531Z" transform="translate(-641.597 -150.1)" fill="#fff"/>
    <path id="Caminho_23470" data-name="Caminho 23470" d="M938.537,77.369a19.576,19.576,0,0,1-19.556-19.556v-.005a19.575,19.575,0,0,1,19.556-19.556h.032a19.387,19.387,0,0,1,11.857,4.024A3.145,3.145,0,0,1,946.6,47.27a13.166,13.166,0,0,0-1.213-.833c-.032-.016-.056-.032-.085-.045a13.208,13.208,0,0,0-6.744-1.851h-.021a13.269,13.269,0,1,0,0,26.538s.005,0,.01,0,.005,0,.011,0a13.287,13.287,0,0,0,6.744-1.851.867.867,0,0,1,.085-.045,14.175,14.175,0,0,0,1.213-.83,3.145,3.145,0,1,1,3.826,4.994,19.4,19.4,0,0,1-11.857,4.021s-.005,0-.011,0h-.021Zm84.039,11.77V76.232a15.248,15.248,0,0,0,5.552,1.137,19.559,19.559,0,1,0-11.889-35.093,3.144,3.144,0,0,0,3.826,4.992,13.274,13.274,0,0,1,21.333,10.54,13.285,13.285,0,0,1-13.269,13.272,12.046,12.046,0,0,1-5.552-1.8V68.15a3.145,3.145,0,0,0-6.289,0V89.139a3.145,3.145,0,1,0,6.289,0M983.3,72.11a19.561,19.561,0,1,0-.01-28.582,19.565,19.565,0,1,0,.01,28.582m-10.358-27.2a13.238,13.238,0,0,1,9.816,9.512,3.144,3.144,0,0,0,6.078-1.61,19.667,19.667,0,0,0-1.684-4.262A13.278,13.278,0,1,1,983.6,60.2a3.145,3.145,0,1,0-6.189,1.121,19.547,19.547,0,0,0,2.02,5.779,13.274,13.274,0,1,1-9.5-22.543,13.078,13.078,0,0,1,3.011.352" transform="translate(-656.244 -27.313)" fill="#fff"/>
    <path id="Caminho_23471" data-name="Caminho 23471" d="M33.025,57.062H29.737a11.142,11.142,0,0,0-4.723-5.248A13.93,13.93,0,0,0,17.982,50,14.986,14.986,0,0,0,7.766,53.878q-4.408,3.884-4.408,10.6,0,6.788,4.3,10.636A14.589,14.589,0,0,0,17.7,78.963,13.89,13.89,0,0,0,25.119,76.9a11.891,11.891,0,0,0,4.9-5.982h3.358A14.7,14.7,0,0,1,27.288,79.1a17.575,17.575,0,0,1-9.8,2.869,17.836,17.836,0,0,1-12.28-4.653Q0,72.666,0,64.479q0-8.255,5.388-12.91a18.292,18.292,0,0,1,12.524-4.583,17.808,17.808,0,0,1,9.341,2.659,13.455,13.455,0,0,1,5.772,7.417" transform="translate(0 -33.552)" fill="#fff"/>
    <path id="Caminho_23472" data-name="Caminho 23472" d="M158.255,50.628v23.02q0,1.75.07,2.449a5.61,5.61,0,0,0,.455,1.609,1.784,1.784,0,0,0,1.294,1.12,7.458,7.458,0,0,0,2.519,0l.14,3.009q-4.059.63-5.7-.875t-1.644-5.353V73.928q-3.779,8.327-13.294,8.327-7.278,0-11.3-5.073a19.571,19.571,0,0,1-4.023-12.559q.139-8.046,5.213-12.595t13.259-4.548a30.277,30.277,0,0,1,13.014,3.148m-3.219,14.2V52.658a22.245,22.245,0,0,0-9.936-2.379A15.073,15.073,0,0,0,134.4,54.127q-4.129,3.849-4.268,10.5a16.015,16.015,0,0,0,3.324,10.32,11.119,11.119,0,0,0,9.2,4.163,11.233,11.233,0,0,0,9.1-3.918q3.288-3.918,3.288-10.356" transform="translate(-90.526 -33.905)" fill="#fff"/>
    <path id="Caminho_23473" data-name="Caminho 23473" d="M262.737,98.174h-3.079V55.142q0-4.128-.735-5.213t-3.6-.8l-.07-2.449q4.057-.63,5.7.875T262.6,52.9v1.679a12.454,12.454,0,0,1,5.178-6.157,15.451,15.451,0,0,1,8.186-2.169q7.206,0,11.265,5.108a19.51,19.51,0,0,1,4.058,12.525A20.209,20.209,0,0,1,287.3,76.658Q283.308,81.8,275.891,81.8q-9.866,0-13.154-8.186Zm25.189-34.285A16.025,16.025,0,0,0,284.6,53.568a11.123,11.123,0,0,0-9.2-4.163,11.269,11.269,0,0,0-9.166,3.953A15.169,15.169,0,0,0,262.947,63.4,18.616,18.616,0,0,0,266.1,74.384a10.5,10.5,0,0,0,9.166,4.478q6.157,0,9.411-4.268a17.144,17.144,0,0,0,3.254-10.706" transform="translate(-182.274 -33.031)" fill="#fff"/>
    <path id="Caminho_23474" data-name="Caminho 23474" d="M425.008,50.628v23.02q0,1.75.07,2.449a5.615,5.615,0,0,0,.455,1.609,1.784,1.784,0,0,0,1.294,1.12,7.458,7.458,0,0,0,2.519,0l.14,3.009q-4.059.63-5.7-.875t-1.644-5.353V73.928q-3.779,8.327-13.294,8.327-7.278,0-11.3-5.073a19.571,19.571,0,0,1-4.023-12.559q.139-8.046,5.213-12.595t13.259-4.548a30.277,30.277,0,0,1,13.015,3.148m-3.219,14.2V52.658a22.244,22.244,0,0,0-9.936-2.379,15.073,15.073,0,0,0-10.705,3.848q-4.129,3.849-4.268,10.5a16.015,16.015,0,0,0,3.324,10.32,11.119,11.119,0,0,0,9.2,4.163,11.233,11.233,0,0,0,9.1-3.918q3.288-3.918,3.288-10.356" transform="translate(-281.014 -33.905)" fill="#fff"/>
    <path id="Caminho_23475" data-name="Caminho 23475" d="M559.19,57.062H555.9a11.141,11.141,0,0,0-4.723-5.248A13.929,13.929,0,0,0,544.147,50a14.986,14.986,0,0,0-10.216,3.883q-4.408,3.884-4.408,10.6,0,6.788,4.3,10.636a14.589,14.589,0,0,0,10.041,3.848,13.89,13.89,0,0,0,7.417-2.064,11.891,11.891,0,0,0,4.9-5.982h3.359a14.7,14.7,0,0,1-6.087,8.186,17.575,17.575,0,0,1-9.8,2.869,17.836,17.836,0,0,1-12.28-4.653q-5.213-4.653-5.213-12.84,0-8.255,5.388-12.91a18.293,18.293,0,0,1,12.524-4.583,17.808,17.808,0,0,1,9.341,2.659,13.455,13.455,0,0,1,5.772,7.417" transform="translate(-375.734 -33.552)" fill="#fff"/>
    <path id="Caminho_23476" data-name="Caminho 23476" d="M659.3,2.379A2.292,2.292,0,0,1,659.961.63,2.3,2.3,0,0,1,661.606,0a2.337,2.337,0,0,1,1.609.63,2.236,2.236,0,0,1,.7,1.749,2.206,2.206,0,0,1-.665,1.679,2.507,2.507,0,0,1-1.574.7A2.174,2.174,0,0,1,660,4.2a2.319,2.319,0,0,1-.7-1.819m3.918,45.55h-3.289V14.414h3.289Z" transform="translate(-470.804 0)" fill="#fff"/>
    <path id="Caminho_23477" data-name="Caminho 23477" d="M698.5,13.705V24.061h13.084v2.8H698.5V45.052q0,7.488,3.638,9.516t10.635-.7l.49,2.939q-18.123,6.156-18.122-11.685V26.86l-7.7-.21V24.061h7.7l.28-10.356Z" transform="translate(-490.901 -9.787)" fill="#fff"/>
    <path id="Caminho_23478" data-name="Caminho 23478" d="M812.412,50.628v23.02q0,1.75.07,2.449a5.611,5.611,0,0,0,.455,1.609,1.784,1.784,0,0,0,1.294,1.12,7.458,7.458,0,0,0,2.519,0l.14,3.009q-4.059.63-5.7-.875t-1.644-5.353V73.928q-3.779,8.327-13.294,8.327-7.278,0-11.3-5.073a19.57,19.57,0,0,1-4.023-12.559q.14-8.046,5.213-12.595T799.4,47.48a30.277,30.277,0,0,1,13.015,3.148m-3.219,14.2V52.658a22.244,22.244,0,0,0-9.935-2.379,15.073,15.073,0,0,0-10.705,3.848q-4.129,3.849-4.268,10.5a16.015,16.015,0,0,0,3.324,10.32,11.119,11.119,0,0,0,9.2,4.163,11.233,11.233,0,0,0,9.1-3.918q3.288-3.918,3.288-10.356" transform="translate(-557.659 -33.905)" fill="#fff"/>
  </g>
</svg>
