<svg xmlns="http://www.w3.org/2000/svg" width="20" height="22.758" viewBox="0 0 20 22.758">
  <path id="Sala_de_aula" data-name="Sala de aula" d="M14.749,7.908A3.362,3.362,0,0,0,18.066,4.2a3.328,3.328,0,1,0-3.317,3.707m0,3.9a14.891,14.891,0,0,0-9.61-3.951.43.43,0,0,0-.439.39V19.664a.385.385,0,0,0,.39.39,14.5,14.5,0,0,1,9.61,3.951,14.891,14.891,0,0,1,9.61-3.951.385.385,0,0,0,.39-.39V8.3a.373.373,0,0,0-.439-.39A14.551,14.551,0,0,0,14.749,11.81Z" transform="translate(-4.7 -1.248)" fill="#73ee48"/>
</svg>
