<svg width="49" height="54" viewBox="0 0 49 54" fill="none" xmlns="http://www.w3.org/2000/svg">
  <g id="Exp-1.-O">
    <path id="Vector" fill-rule="evenodd" clip-rule="evenodd"
      d="M1.60303 25.585V36.468C1.60303 36.744 1.82703 36.968 2.10303 36.968C2.37903 36.968 2.60303 36.744 2.60303 36.468V25.585C2.60303 25.309 2.37903 25.085 2.10303 25.085C1.82703 25.085 1.60303 25.309 1.60303 25.585Z"
      fill="#898E97" />
    <path id="Vector_2" fill-rule="evenodd" clip-rule="evenodd"
      d="M1.60303 39.708V48.739C1.60303 50.05 2.12403 51.308 3.05103 52.236C3.97903 53.164 5.23703 53.685 6.54903 53.685H43.656C44.968 53.685 46.226 53.164 47.154 52.236C48.081 51.308 48.603 50.05 48.603 48.739C48.603 41.163 48.603 26.182 48.603 22.185C48.603 21.356 47.931 20.685 47.103 20.685C43.168 20.685 28.966 20.685 28.966 20.685C28.69 20.685 28.466 20.909 28.466 21.185C28.466 21.461 28.69 21.685 28.966 21.685C28.966 21.685 43.168 21.685 47.103 21.685C47.379 21.685 47.603 21.909 47.603 22.185V48.739C47.603 49.785 47.187 50.789 46.447 51.529C45.707 52.269 44.703 52.685 43.656 52.685H6.54903C5.50203 52.685 4.49803 52.269 3.75803 51.529C3.01803 50.789 2.60303 49.785 2.60303 48.739V39.708C2.60303 39.432 2.37903 39.208 2.10303 39.208C1.82703 39.208 1.60303 39.432 1.60303 39.708Z"
      fill="#898E97" />
    <path id="Vector_3" fill-rule="evenodd" clip-rule="evenodd"
      d="M26.149 20.685H6.638C6.362 20.685 6.138 20.909 6.138 21.185C6.138 21.461 6.362 21.685 6.638 21.685H26.149C26.425 21.685 26.649 21.461 26.649 21.185C26.649 20.909 26.425 20.685 26.149 20.685Z"
      fill="#898E97" />
    <path id="Vector_4" fill-rule="evenodd" clip-rule="evenodd"
      d="M2.10303 27.685H46.321C46.597 27.685 46.821 27.461 46.821 27.185C46.821 26.909 46.597 26.685 46.321 26.685H2.10303C1.82703 26.685 1.60303 26.909 1.60303 27.185C1.60303 27.461 1.82703 27.685 2.10303 27.685Z"
      fill="#898E97" />
    <path id="Vector_5" fill-rule="evenodd" clip-rule="evenodd"
      d="M8.07705 25.692L10.5361 21.435C10.6741 21.196 10.5921 20.89 10.3531 20.752C10.1141 20.614 9.80805 20.696 9.67005 20.935L7.21105 25.192C7.07305 25.431 7.15505 25.738 7.39405 25.875C7.63305 26.013 7.93905 25.931 8.07705 25.692Z"
      fill="#898E97" />
    <path id="Vector_6" fill-rule="evenodd" clip-rule="evenodd"
      d="M15.0771 25.692L17.5361 21.435C17.6741 21.196 17.5921 20.89 17.3531 20.752C17.1141 20.614 16.8081 20.696 16.6701 20.935L14.2111 25.192C14.0731 25.431 14.1551 25.738 14.3941 25.875C14.6331 26.013 14.9391 25.931 15.0771 25.692Z"
      fill="#898E97" />
    <path id="Vector_7" fill-rule="evenodd" clip-rule="evenodd"
      d="M22.0771 25.692L24.5361 21.435C24.6741 21.196 24.5921 20.89 24.3531 20.752C24.1141 20.614 23.8081 20.696 23.6701 20.935L21.2111 25.192C21.0731 25.431 21.1551 25.738 21.3941 25.875C21.6331 26.013 21.9391 25.931 22.0771 25.692Z"
      fill="#898E97" />
    <path id="Vector_8" fill-rule="evenodd" clip-rule="evenodd"
      d="M29.0771 25.692L31.5361 21.435C31.6741 21.196 31.5921 20.89 31.3531 20.752C31.1141 20.614 30.8081 20.696 30.6701 20.935L28.2111 25.192C28.0731 25.431 28.1551 25.738 28.3941 25.875C28.6331 26.013 28.9391 25.931 29.0771 25.692Z"
      fill="#898E97" />
    <path id="Vector_9" fill-rule="evenodd" clip-rule="evenodd"
      d="M36.0771 25.692L38.5361 21.435C38.6741 21.196 38.5921 20.89 38.3531 20.752C38.1141 20.614 37.8081 20.696 37.6701 20.935L35.2111 25.192C35.0731 25.431 35.1551 25.738 35.3941 25.875C35.6331 26.013 35.9391 25.931 36.0771 25.692Z"
      fill="#898E97" />
    <path id="Vector_10" fill-rule="evenodd" clip-rule="evenodd"
      d="M43.0771 25.692L45.5361 21.435C45.6741 21.196 45.5921 20.89 45.3531 20.752C45.1141 20.614 44.8081 20.696 44.6701 20.935L42.2111 25.192C42.0731 25.431 42.1551 25.738 42.3941 25.875C42.6331 26.013 42.9391 25.931 43.0771 25.692Z"
      fill="#898E97" />
    <path id="Vector_11" fill-rule="evenodd" clip-rule="evenodd"
      d="M7.38603 20.19L46.458 8.98599C46.724 8.90999 46.877 8.63299 46.801 8.36799C46.801 8.36799 45.801 4.87799 45.147 2.59999C44.767 1.27299 43.382 0.50499 42.055 0.88599L20.769 6.98999C20.504 7.06599 20.351 7.34299 20.427 7.60799C20.503 7.87299 20.78 8.02699 21.045 7.95099L42.331 1.84699C43.127 1.61899 43.958 2.07899 44.186 2.87599L45.702 8.16299L7.11003 19.229C6.84503 19.305 6.69103 19.582 6.76703 19.847C6.84303 20.112 7.12003 20.266 7.38603 20.19Z"
      fill="#898E97" />
    <path id="Vector_12" fill-rule="evenodd" clip-rule="evenodd"
      d="M18.338 7.687L2.00903 12.369C1.74303 12.445 1.59003 12.722 1.66603 12.988C1.74203 13.253 2.01903 13.406 2.28403 13.33L18.614 8.648C18.879 8.572 19.033 8.295 18.957 8.029C18.881 7.764 18.604 7.611 18.338 7.687Z"
      fill="#898E97" />
    <path id="Vector_13" fill-rule="evenodd" clip-rule="evenodd"
      d="M9.02504 10.617L7.68204 16.003C7.61504 16.271 7.77904 16.542 8.04604 16.609C8.31404 16.676 8.58604 16.513 8.65204 16.245L9.99504 10.859C10.062 10.591 9.89904 10.32 9.63104 10.253C9.36304 10.186 9.09204 10.35 9.02504 10.617Z"
      fill="#898E97" />
    <path id="Vector_14" fill-rule="evenodd" clip-rule="evenodd"
      d="M15.754 8.68798L14.053 15.508C13.986 15.776 14.15 16.048 14.417 16.114C14.685 16.181 14.957 16.018 15.023 15.75L16.724 8.92998C16.791 8.66198 16.628 8.38998 16.36 8.32398C16.092 8.25698 15.821 8.41998 15.754 8.68798Z"
      fill="#898E97" />
    <path id="Vector_15" fill-rule="evenodd" clip-rule="evenodd"
      d="M22.483 6.75799L20.782 13.579C20.715 13.847 20.878 14.118 21.146 14.185C21.414 14.252 21.686 14.089 21.752 13.821L23.453 6.99999C23.52 6.73299 23.356 6.46099 23.089 6.39399C22.821 6.32699 22.549 6.49099 22.483 6.75799Z"
      fill="#898E97" />
    <path id="Vector_16" fill-rule="evenodd" clip-rule="evenodd"
      d="M29.211 4.829L27.511 11.649C27.444 11.917 27.607 12.189 27.875 12.256C28.143 12.322 28.414 12.159 28.481 11.891L30.182 5.071C30.248 4.803 30.085 4.531 29.818 4.465C29.55 4.398 29.278 4.561 29.211 4.829Z"
      fill="#898E97" />
    <path id="Vector_17" fill-rule="evenodd" clip-rule="evenodd"
      d="M35.94 2.89898L34.24 9.71998C34.173 9.98798 34.336 10.259 34.604 10.326C34.872 10.393 35.143 10.23 35.21 9.96198L36.911 3.14098C36.977 2.87398 36.814 2.60198 36.546 2.53498C36.279 2.46798 36.007 2.63198 35.94 2.89898Z"
      fill="#898E97" />
    <path id="Vector_18" fill-rule="evenodd" clip-rule="evenodd"
      d="M42.607 1.217L40.969 7.79C40.902 8.058 41.065 8.33 41.333 8.397C41.6 8.463 41.872 8.3 41.939 8.032L43.578 1.459C43.645 1.191 43.481 0.920001 43.214 0.853001C42.946 0.786001 42.674 0.949001 42.607 1.217Z"
      fill="#898E97" />
    <path id="Vector_19" fill-rule="evenodd" clip-rule="evenodd"
      d="M9.31903 20.381C9.52903 20.192 9.64903 19.922 9.64903 19.639C9.65003 19.355 9.53003 19.085 9.31903 18.896C7.67403 17.411 3.95003 14.051 1.77203 12.086C1.47903 11.822 1.05703 11.754 0.696028 11.915C0.335028 12.076 0.103027 12.434 0.103027 12.829C0.103027 16.309 0.103027 22.959 0.103027 26.438C0.103027 26.833 0.335028 27.191 0.696028 27.351C1.05703 27.512 1.47803 27.445 1.77203 27.181C3.94903 25.219 7.67303 21.864 9.31903 20.381ZM2.85303 20.923C3.54203 20.923 4.10303 21.483 4.10303 22.173C4.10303 22.862 3.54203 23.423 2.85303 23.423C2.16303 23.423 1.60303 22.862 1.60303 22.173C1.60303 21.483 2.16303 20.923 2.85303 20.923ZM2.85303 15.842C3.54203 15.842 4.10303 16.402 4.10303 17.092C4.10303 17.782 3.54203 18.342 2.85303 18.342C2.16303 18.342 1.60303 17.782 1.60303 17.092C1.60303 16.402 2.16303 15.842 2.85303 15.842Z"
      fill="#139BA8" class="--fill-change-color" />
    <path id="Vector_20" fill-rule="evenodd" clip-rule="evenodd"
      d="M29.9051 42.032C30.5521 41.639 30.9471 40.937 30.9471 40.179C30.9471 39.422 30.5511 38.72 29.9041 38.327C27.8581 37.086 25.1641 35.452 23.0701 34.181C22.4011 33.775 21.5651 33.762 20.8831 34.146C20.2011 34.53 19.7791 35.252 19.7791 36.034C19.7791 38.548 19.7791 41.818 19.7791 44.332C19.7791 45.115 20.2011 45.837 20.8831 46.221C21.5661 46.605 22.4021 46.591 23.0711 46.184C25.1661 44.912 27.8591 43.275 29.9051 42.032Z"
      fill="#139BA8" class="--fill-change-color" />
  </g>
</svg>