<svg width="56" height="44" viewBox="0 0 56 44" fill="none" xmlns="http://www.w3.org/2000/svg">
<g id="Exp-1.-O">
<path id="Vector" fill-rule="evenodd" clip-rule="evenodd" d="M7.424 6.40999C6.619 6.16999 5.766 5.91499 4.956 5.67299C3.897 5.35699 2.75 5.55998 1.863 6.21998C0.976999 6.88098 0.453999 7.92099 0.453999 9.02699C0.453999 15.569 0.453999 28.431 0.453999 34.973C0.453999 36.079 0.976999 37.119 1.863 37.78C2.75 38.44 3.897 38.643 4.956 38.327C5.22 38.248 5.371 37.969 5.292 37.705C5.213 37.44 4.934 37.29 4.67 37.369C3.913 37.595 3.094 37.45 2.461 36.978C1.828 36.506 1.454 35.763 1.454 34.973C1.454 28.431 1.454 15.569 1.454 9.02699C1.454 8.23699 1.828 7.49398 2.461 7.02198C3.094 6.54998 3.913 6.40499 4.67 6.63099L7.138 7.36898C7.403 7.44798 7.681 7.29699 7.76 7.03299C7.839 6.76799 7.689 6.48899 7.424 6.40999Z" fill="#898E97"/>
<path id="Vector_2" fill-rule="evenodd" clip-rule="evenodd" d="M51.33 6.63099C52.087 6.40499 52.906 6.54998 53.539 7.02198C54.172 7.49398 54.546 8.23699 54.546 9.02699C54.546 15.569 54.546 28.431 54.546 34.973C54.546 35.763 54.172 36.506 53.539 36.978C52.906 37.45 52.087 37.595 51.33 37.369L48.862 36.631C48.597 36.552 48.319 36.703 48.24 36.967C48.161 37.232 48.311 37.511 48.576 37.59C49.381 37.83 50.234 38.085 51.044 38.327C52.103 38.643 53.25 38.44 54.137 37.78C55.023 37.119 55.546 36.079 55.546 34.973C55.546 28.431 55.546 15.569 55.546 9.02699C55.546 7.92099 55.023 6.88098 54.137 6.21998C53.25 5.55998 52.103 5.35699 51.044 5.67299C50.78 5.75199 50.629 6.03099 50.708 6.29499C50.787 6.55999 51.066 6.70999 51.33 6.63099Z" fill="#898E97"/>
<path id="Vector_3" fill-rule="evenodd" clip-rule="evenodd" d="M20.484 0.5H15C10.306 0.5 6.5 4.306 6.5 9V35C6.5 39.694 10.306 43.5 15 43.5H41C45.694 43.5 49.5 39.694 49.5 35V9C49.5 4.306 45.694 0.5 41 0.5H24.278C24.002 0.5 23.778 0.724 23.778 1C23.778 1.276 24.002 1.5 24.278 1.5H41C45.142 1.5 48.5 4.858 48.5 9V35C48.5 39.142 45.142 42.5 41 42.5H15C10.858 42.5 7.5 39.142 7.5 35V9C7.5 4.858 10.858 1.5 15 1.5H20.484C20.76 1.5 20.984 1.276 20.984 1C20.984 0.724 20.76 0.5 20.484 0.5Z" fill="#898E97"/>
<path id="Vector_4" fill-rule="evenodd" clip-rule="evenodd" d="M21 18.942V15.079C21 14.548 21.211 14.04 21.586 13.664C21.961 13.289 22.47 13.079 23 13.079C26.271 13.079 32.729 13.079 36 13.079C36.53 13.079 37.039 13.289 37.414 13.664C37.789 14.04 38 14.548 38 15.079L37.993 19.079C37.928 21.18 37.607 24.973 36.561 27.851C35.907 29.65 34.925 31.025 33.673 31.566C32.797 31.983 31.81 32.004 30.991 31.531C29.557 30.703 29.177 28.673 30.143 27C31.109 25.327 33.057 24.641 34.491 25.469C34.708 25.594 34.901 25.747 35.069 25.922C35.587 23.981 35.83 21.778 35.938 20.139C35.955 19.864 35.857 19.594 35.668 19.394C35.479 19.193 35.216 19.079 34.941 19.079C32.464 19.079 26.306 19.079 23.938 19.079C23.407 19.079 22.969 19.493 22.939 20.023C22.804 22.203 22.447 25.411 21.561 27.851C20.907 29.65 19.925 31.025 18.673 31.566C17.797 31.983 16.81 32.004 15.991 31.531C14.557 30.703 14.177 28.673 15.143 27C16.109 25.327 18.057 24.641 19.491 25.469C19.708 25.594 19.901 25.747 20.069 25.922C20.729 23.453 20.941 20.558 21 18.942Z" fill="#139BA8" class="--fill-change-color"/>
</g>
</svg>
