<svg width="38" height="61" viewBox="0 0 38 61" fill="none" xmlns="http://www.w3.org/2000/svg">
<g id="Exp-1.-O">
<path id="Vector" d="M15.5 44.024H14.5V49.56H15.5V44.024Z" fill="#898E97"/>
<path id="Vector_2" d="M23.5 44.024H22.5V49.56H23.5V44.024Z" fill="#898E97"/>
<path id="Vector_3" fill-rule="evenodd" clip-rule="evenodd" d="M11.279 53.66V57.919C11.279 59.298 12.399 60.419 13.779 60.419H24.221C25.601 60.419 26.721 59.298 26.721 57.919V51.317C26.721 49.937 25.601 48.817 24.221 48.817H13.779C12.399 48.817 11.279 49.937 11.279 51.317C11.279 51.593 11.503 51.817 11.779 51.817C12.055 51.817 12.279 51.593 12.279 51.317C12.279 50.489 12.951 49.817 13.779 49.817H24.221C25.049 49.817 25.721 50.489 25.721 51.317V57.919C25.721 58.746 25.049 59.419 24.221 59.419H13.779C12.951 59.419 12.279 58.746 12.279 57.919V53.66C12.279 53.384 12.055 53.16 11.779 53.16C11.503 53.16 11.279 53.384 11.279 53.66Z" fill="#898E97"/>
<path id="Vector_4" fill-rule="evenodd" clip-rule="evenodd" d="M18.482 0.736975C15.928 1.66998 13.932 9.42497 13.932 18.842C13.932 24.017 14.535 28.69 15.501 32.004L15.631 32.434C16.437 35.174 17.034 38.725 17.367 42.518H14.901C14.065 38.677 12.547 35.203 10.49 32.434L10.162 32.004C7.71999 28.69 6.19699 24.017 6.19699 18.842C6.19699 8.79697 11.934 0.642975 19 0.642975C18.824 0.645975 18.651 0.675975 18.482 0.736975Z" fill="#139BA8" class="--fill-change-color"/>
<path id="Vector_5" fill-rule="evenodd" clip-rule="evenodd" d="M20.308 0.736975C26.761 1.66998 31.803 9.42497 31.803 18.842C31.803 24.017 30.28 28.69 27.838 32.004L27.786 32.074C25.658 34.958 24.081 38.552 23.194 42.518H20.732C21.064 39.855 21.782 34.456 22.478 32.074L22.499 32.004C23.465 28.69 24.068 24.017 24.068 18.842C24.068 8.79697 21.797 0.642975 19 0.642975C19.436 0.655975 19.872 0.700975 20.308 0.736975Z" fill="#139BA8" class="--fill-change-color"/>
<path id="Vector_6" fill-rule="evenodd" clip-rule="evenodd" d="M31.217 31.645L30.851 31.995C27.571 35.121 25.246 39.116 24.148 43.512L24.144 43.527H13.977L13.86 43.073C12.797 38.931 10.576 35.181 7.461 32.261C7.456 32.256 7.45099 32.252 7.44599 32.247C7.21999 32.052 6.999 31.852 6.783 31.646C3.406 28.423 1.30099 23.877 1.30099 18.844C1.30099 14.76 2.687 10.998 5.014 8.00199C5.184 7.78399 5.144 7.46899 4.926 7.29999C4.708 7.13099 4.394 7.16999 4.225 7.38799C1.766 10.554 0.300995 14.529 0.300995 18.844C0.300995 24.161 2.52499 28.963 6.09199 32.369H6.093C6.319 32.585 6.55 32.795 6.787 33C9.756 35.786 11.876 39.367 12.892 43.321L13.087 44.083C13.154 44.344 13.39 44.527 13.659 44.527H24.262C24.652 44.527 24.991 44.262 25.085 43.884L25.118 43.755C26.171 39.542 28.398 35.715 31.541 32.718L31.908 32.369C35.475 28.963 37.699 24.161 37.699 18.844C37.699 8.52399 29.32 0.144989 19 0.144989C14.207 0.144989 9.832 1.95299 6.52199 4.92199C6.31599 5.10699 6.299 5.42299 6.483 5.62899C6.66799 5.83399 6.98399 5.85099 7.18899 5.66699C10.323 2.85599 14.463 1.14499 19 1.14499C28.768 1.14499 36.699 9.07599 36.699 18.844C36.699 23.877 34.594 28.422 31.217 31.645Z" fill="#898E97"/>
</g>
</svg>
