<svg width="55" height="50" viewBox="0 0 55 50" fill="none" xmlns="http://www.w3.org/2000/svg">
<g id="Exp-1.-O">
<path id="Vector" fill-rule="evenodd" clip-rule="evenodd" d="M35.328 48.003C35.23 48.189 35.13 48.37 35.026 48.545C34.936 48.697 34.773 48.79 34.596 48.79C30.759 48.79 8.05101 48.79 1.70101 48.79C1.52601 48.79 1.36301 48.698 1.27301 48.548C1.18201 48.397 1.17801 48.21 1.26001 48.055C1.26501 48.047 1.26901 48.038 1.27301 48.03C4.41001 41.219 4.64901 29.365 4.64901 29.365C4.64901 29.361 4.64901 29.358 4.64901 29.355V1.70999C4.64901 1.43399 4.87301 1.20999 5.14901 1.20999H25.115C25.391 1.20999 25.615 0.985991 25.615 0.709991C25.615 0.433991 25.391 0.209991 25.115 0.209991C25.115 0.209991 9.32001 0.209991 5.14901 0.209991C4.32101 0.209991 3.64901 0.880991 3.64901 1.70999V29.35C3.64401 29.606 3.40001 41.004 0.372011 47.595C0.130011 48.063 0.147011 48.616 0.415011 49.062C0.686011 49.513 1.17401 49.79 1.70001 49.79C8.05001 49.79 30.759 49.79 34.596 49.79C35.126 49.79 35.616 49.511 35.886 49.056L36.213 48.469C36.342 48.224 36.248 47.922 36.004 47.793C35.759 47.665 35.457 47.759 35.328 48.003Z" fill="#898E97"/>
<path id="Vector_2" fill-rule="evenodd" clip-rule="evenodd" d="M38.965 13.867C39.163 13.945 39.388 13.89 39.527 13.729C39.666 13.569 39.688 13.338 39.583 13.154C36.762 8.22198 32.897 3.94299 28.001 0.307985C27.834 0.183985 27.608 0.176985 27.433 0.288985C27.259 0.399985 27.171 0.608985 27.214 0.811985C27.951 4.33298 28.313 7.89599 27.956 11.539C27.907 11.998 28.076 12.458 28.413 12.778C28.751 13.099 29.218 13.245 29.678 13.173C32.885 12.677 36.013 12.701 38.965 13.867Z" fill="#139BA8" class="--fill-change-color"/>
<path id="Vector_3" fill-rule="evenodd" clip-rule="evenodd" d="M9.14899 20.532H22.255C22.531 20.532 22.755 20.308 22.755 20.032C22.755 19.756 22.531 19.532 22.255 19.532H9.14899C8.87299 19.532 8.64899 19.756 8.64899 20.032C8.64899 20.308 8.87299 20.532 9.14899 20.532Z" fill="#898E97"/>
<path id="Vector_4" fill-rule="evenodd" clip-rule="evenodd" d="M9.14899 25.532H18.462C18.738 25.532 18.962 25.308 18.962 25.032C18.962 24.756 18.738 24.532 18.462 24.532H9.14899C8.87299 24.532 8.64899 24.756 8.64899 25.032C8.64899 25.308 8.87299 25.532 9.14899 25.532Z" fill="#898E97"/>
<path id="Vector_5" fill-rule="evenodd" clip-rule="evenodd" d="M9.14899 30.532H18.462C18.738 30.532 18.962 30.308 18.962 30.032C18.962 29.756 18.738 29.532 18.462 29.532H9.14899C8.87299 29.532 8.64899 29.756 8.64899 30.032C8.64899 30.308 8.87299 30.532 9.14899 30.532Z" fill="#898E97"/>
<path id="Vector_6" fill-rule="evenodd" clip-rule="evenodd" d="M9.14899 35.532H18.462C18.738 35.532 18.962 35.308 18.962 35.032C18.962 34.756 18.738 34.532 18.462 34.532H9.14899C8.87299 34.532 8.64899 34.756 8.64899 35.032C8.64899 35.308 8.87299 35.532 9.14899 35.532Z" fill="#898E97"/>
<path id="Vector_7" fill-rule="evenodd" clip-rule="evenodd" d="M50.368 21.754C52.297 24.217 53.448 27.318 53.448 30.686C53.448 38.689 46.951 45.186 38.948 45.186C30.945 45.186 24.448 38.689 24.448 30.686C24.448 22.683 30.945 16.186 38.948 16.186C42.522 16.186 45.795 17.482 48.324 19.629C48.534 19.807 48.85 19.782 49.029 19.571C49.207 19.361 49.182 19.045 48.971 18.867C46.268 16.571 42.768 15.186 38.948 15.186C30.393 15.186 23.448 22.131 23.448 30.686C23.448 39.241 30.393 46.186 38.948 46.186C47.502 46.186 54.448 39.241 54.448 30.686C54.448 27.086 53.217 23.77 51.155 21.138C50.985 20.92 50.67 20.882 50.453 21.052C50.236 21.223 50.197 21.537 50.368 21.754Z" fill="#898E97"/>
<path id="Vector_8" fill-rule="evenodd" clip-rule="evenodd" d="M30.854 28.386C32.14 23.588 37.073 20.706 41.872 21.992C46.67 23.277 49.521 28.216 48.236 33.014C46.95 37.812 42.011 40.664 37.213 39.378C36.68 39.235 36.131 39.552 35.988 40.085C35.845 40.619 36.162 41.167 36.695 41.31C42.559 42.881 48.596 39.396 50.167 33.532C51.739 27.668 48.253 21.631 42.389 20.06C36.525 18.489 30.494 22.004 28.923 27.868C28.78 28.401 29.097 28.95 29.63 29.093C30.163 29.236 30.712 28.919 30.854 28.386Z" fill="#139BA8" class="--fill-change-color"/>
<path id="Vector_9" fill-rule="evenodd" clip-rule="evenodd" d="M27.428 24.818L28.965 28.511C29.177 29.021 29.763 29.263 30.273 29.05L33.966 27.513C34.475 27.301 34.717 26.715 34.505 26.206C34.292 25.696 33.707 25.455 33.197 25.667L30.427 26.82L29.275 24.05C29.063 23.54 28.477 23.299 27.967 23.511C27.458 23.723 27.216 24.309 27.428 24.818Z" fill="#139BA8" class="--fill-change-color"/>
<path id="Vector_10" fill-rule="evenodd" clip-rule="evenodd" d="M38.448 25.686V32.456L35.122 35.306C34.913 35.486 34.889 35.802 35.068 36.011C35.248 36.221 35.564 36.245 35.773 36.066L39.273 33.066C39.384 32.971 39.448 32.832 39.448 32.686V25.686C39.448 25.41 39.224 25.186 38.948 25.186C38.672 25.186 38.448 25.41 38.448 25.686Z" fill="#898E97"/>
</g>
</svg>
