<svg width="56" height="54" viewBox="0 0 56 54" fill="none" xmlns="http://www.w3.org/2000/svg">
<g id="Exp-1.-O">
<path id="Vector" fill-rule="evenodd" clip-rule="evenodd" d="M20.407 48.736L20.111 46.362C20.077 46.088 19.827 45.894 19.553 45.928C19.279 45.962 19.085 46.212 19.119 46.486L19.416 48.867L19.417 48.876C19.537 49.711 20.267 50.541 21.551 51.231C24.172 52.639 29.201 53.61 34.947 53.61C40.665 53.61 45.672 52.653 48.303 51.259C49.588 50.578 50.329 49.758 50.468 48.931C50.469 48.924 50.47 48.917 50.471 48.91L55.443 9.06202C55.477 8.78802 55.282 8.53802 55.009 8.50402C54.735 8.47002 54.485 8.66402 54.45 8.93802L49.48 48.774C49.415 49.143 49.137 49.481 48.719 49.812C48.214 50.211 47.509 50.577 46.645 50.908C43.927 51.948 39.688 52.61 34.947 52.61C30.184 52.61 25.927 51.939 23.211 50.888C22.349 50.554 21.647 50.184 21.147 49.782C20.733 49.449 20.461 49.108 20.407 48.736Z" fill="#898E97"/>
<path id="Vector_2" fill-rule="evenodd" clip-rule="evenodd" d="M16.466 17.145L15.443 8.93802C15.409 8.66402 15.159 8.47002 14.885 8.50402C14.611 8.53802 14.416 8.78802 14.45 9.06202L15.474 17.269C15.508 17.543 15.758 17.737 16.032 17.703C16.306 17.669 16.501 17.419 16.466 17.145Z" fill="#898E97"/>
<path id="Vector_3" fill-rule="evenodd" clip-rule="evenodd" d="M23.633 37.04L23.952 40.103C24.009 40.652 24.501 41.052 25.05 40.995C25.599 40.938 25.998 40.445 25.941 39.897L25.623 36.833C25.566 36.284 25.074 35.885 24.525 35.942C23.976 35.999 23.576 36.491 23.633 37.04Z" fill="#139BA8" class="--fill-change-color"/>
<path id="Vector_4" fill-rule="evenodd" clip-rule="evenodd" d="M29.948 20.817L30.948 43.045C30.972 43.596 31.44 44.024 31.992 43.999C32.543 43.974 32.97 43.506 32.946 42.955L31.946 20.727C31.921 20.176 31.453 19.748 30.902 19.773C30.35 19.798 29.923 20.266 29.948 20.817Z" fill="#139BA8" class="--fill-change-color"/>
<path id="Vector_5" fill-rule="evenodd" clip-rule="evenodd" d="M46.08 19.245L44.221 39.91C44.171 40.46 44.577 40.947 45.127 40.996C45.677 41.045 46.163 40.639 46.213 40.09L48.072 19.424C48.121 18.875 47.715 18.388 47.166 18.339C46.616 18.289 46.129 18.695 46.08 19.245Z" fill="#139BA8" class="--fill-change-color"/>
<path id="Vector_6" fill-rule="evenodd" clip-rule="evenodd" d="M37.948 20.727L36.948 42.955C36.923 43.506 37.35 43.974 37.902 43.999C38.453 44.024 38.921 43.596 38.946 43.045L39.946 20.817C39.97 20.266 39.543 19.798 38.992 19.773C38.44 19.748 37.972 20.176 37.948 20.727Z" fill="#139BA8" class="--fill-change-color"/>
<path id="Vector_7" fill-rule="evenodd" clip-rule="evenodd" d="M28.596 1.80701C30.589 1.53701 32.726 1.39001 34.947 1.39001C41.47 1.39001 47.26 2.64901 50.846 4.60601C53.073 5.82001 54.447 7.27001 54.447 8.89001C54.447 10.51 53.073 11.96 50.846 13.175C47.26 15.131 41.47 16.39 34.947 16.39C28.423 16.39 22.633 15.131 19.047 13.175C16.821 11.96 15.447 10.51 15.447 8.89001C15.447 7.76901 16.122 6.72502 17.274 5.77902C19.158 4.23302 22.286 2.98601 26.131 2.21801C26.401 2.16401 26.577 1.90101 26.523 1.63001C26.469 1.35901 26.205 1.18401 25.935 1.23801C21.896 2.04401 18.619 3.38201 16.64 5.00601C15.216 6.17501 14.447 7.50401 14.447 8.89001C14.447 10.803 15.94 12.619 18.568 14.053C22.263 16.068 28.224 17.39 34.947 17.39C41.669 17.39 47.63 16.068 51.325 14.053C53.953 12.619 55.447 10.803 55.447 8.89001C55.447 6.97801 53.953 5.16201 51.325 3.72801C47.63 1.71201 41.669 0.390015 34.947 0.390015C32.679 0.390015 30.497 0.540015 28.461 0.816015C28.188 0.853015 27.996 1.10601 28.033 1.37901C28.07 1.65201 28.322 1.84401 28.596 1.80701Z" fill="#898E97"/>
<path id="Vector_8" fill-rule="evenodd" clip-rule="evenodd" d="M9.33401 26.578C11.691 23.575 14.157 21.382 16.269 20.409C17.534 19.827 18.651 19.68 19.498 20.168C20.615 20.813 21.021 22.386 20.931 24.475C20.784 27.902 19.211 32.665 16.444 37.458C13.677 42.25 10.339 45.994 7.44401 47.835C5.67901 48.958 4.11501 49.392 2.99801 48.747C1.88101 48.102 1.47501 46.53 1.56501 44.441C1.71201 41.013 3.28501 36.25 6.05201 31.458C6.52001 30.646 7.00501 29.865 7.50201 29.117C7.65501 28.887 7.59201 28.577 7.36301 28.424C7.13301 28.271 6.82201 28.334 6.66901 28.564C6.16101 29.328 5.66501 30.128 5.18601 30.958C2.32301 35.916 0.718013 40.852 0.565013 44.398C0.456013 46.958 1.12901 48.823 2.49801 49.613C3.86701 50.404 5.81801 50.054 7.98101 48.679C10.975 46.774 14.447 42.916 17.31 37.958C20.173 33 21.778 28.064 21.93 24.518C22.04 21.958 21.367 20.093 19.998 19.302C18.912 18.676 17.473 18.754 15.851 19.501C13.633 20.522 11.024 22.806 8.54801 25.961C8.37701 26.178 8.41501 26.493 8.63201 26.663C8.84901 26.833 9.16401 26.795 9.33401 26.578Z" fill="#898E97"/>
<path id="Vector_9" fill-rule="evenodd" clip-rule="evenodd" d="M19.498 20.168L23.108 22.253C24.225 22.898 24.631 24.47 24.541 26.559C24.394 29.987 22.821 34.75 20.054 39.542C17.287 44.335 13.949 48.078 11.054 49.919C9.28904 51.042 7.72504 51.476 6.60804 50.832C6.36904 50.694 6.06304 50.776 5.92504 51.015C5.78704 51.254 5.86904 51.56 6.10804 51.698C7.47704 52.488 9.42804 52.139 11.591 50.763C14.586 48.858 18.057 45 20.92 40.042C23.783 35.084 25.388 30.148 25.54 26.602C25.65 24.042 24.977 22.177 23.608 21.387L19.998 19.302C19.759 19.164 19.453 19.246 19.315 19.485C19.177 19.724 19.259 20.03 19.498 20.168Z" fill="#898E97"/>
<path id="Vector_10" fill-rule="evenodd" clip-rule="evenodd" d="M8.313 40.278C8.313 40.278 7.575 39.276 6.887 38.342C6.416 37.702 6.368 36.844 6.766 36.156C7.69 34.555 9.064 32.175 9.966 30.612C10.341 29.963 11.047 29.578 11.796 29.615C13.039 29.676 14.459 29.745 14.459 29.745C15.01 29.772 15.48 29.346 15.507 28.795C15.534 28.244 15.108 27.774 14.557 27.747C14.557 27.747 13.137 27.678 11.894 27.617C10.397 27.544 8.984 28.314 8.234 29.612C7.332 31.175 5.958 33.555 5.034 35.156C4.239 36.532 4.335 38.248 5.277 39.528C5.965 40.462 6.703 41.464 6.703 41.464C7.03 41.908 7.656 42.003 8.101 41.676C8.545 41.349 8.64 40.722 8.313 40.278Z" fill="#139BA8" class="--fill-change-color"/>
</g>
</svg>
