<svg width="52" height="60" viewBox="0 0 52 60" fill="none" xmlns="http://www.w3.org/2000/svg">
<g id="Exp-1.-O">
<path id="Vector" fill-rule="evenodd" clip-rule="evenodd" d="M21.815 17.643C22.618 17.324 23.532 17.104 24.546 17.002C24.821 16.975 25.021 16.73 24.994 16.455C24.966 16.181 24.721 15.98 24.447 16.007C23.332 16.119 22.328 16.363 21.446 16.714C21.189 16.815 21.064 17.106 21.166 17.363C21.268 17.619 21.559 17.745 21.815 17.643Z" fill="#898E97"/>
<path id="Vector_2" fill-rule="evenodd" clip-rule="evenodd" d="M26.996 16.983C28.178 17.072 29.26 17.091 30.248 17.049C30.524 17.038 30.739 16.805 30.727 16.529C30.716 16.253 30.482 16.039 30.207 16.05C29.254 16.09 28.211 16.071 27.071 15.985C26.796 15.965 26.556 16.171 26.535 16.446C26.514 16.722 26.721 16.962 26.996 16.983Z" fill="#898E97"/>
<path id="Vector_3" fill-rule="evenodd" clip-rule="evenodd" d="M32.948 16.753C34.114 16.534 35.103 16.21 35.934 15.811C36.183 15.691 36.288 15.392 36.168 15.144C36.049 14.895 35.75 14.79 35.501 14.909C34.739 15.275 33.832 15.57 32.763 15.771C32.492 15.822 32.313 16.083 32.364 16.355C32.415 16.626 32.677 16.804 32.948 16.753Z" fill="#898E97"/>
<path id="Vector_4" fill-rule="evenodd" clip-rule="evenodd" d="M37.972 14.422C38.868 13.557 39.394 12.561 39.631 11.548C39.694 11.279 39.526 11.01 39.258 10.947C38.989 10.884 38.72 11.052 38.657 11.32C38.461 12.161 38.021 12.985 37.278 13.702C37.079 13.894 37.073 14.211 37.265 14.409C37.457 14.608 37.773 14.614 37.972 14.422Z" fill="#898E97"/>
<path id="Vector_5" fill-rule="evenodd" clip-rule="evenodd" d="M39.393 8.105C38.996 7.051 38.323 6.156 37.503 5.59C37.276 5.434 36.965 5.491 36.808 5.718C36.651 5.945 36.708 6.257 36.936 6.414C37.599 6.871 38.136 7.603 38.457 8.457C38.554 8.715 38.842 8.846 39.101 8.749C39.359 8.652 39.49 8.363 39.393 8.105Z" fill="#898E97"/>
<path id="Vector_6" fill-rule="evenodd" clip-rule="evenodd" d="M26.365 5.588C26.914 3.012 29.102 1.759 30.68 1.75C31.198 1.747 31.647 1.869 31.88 2.181C32.018 2.366 32.06 2.614 32.007 2.918C31.96 3.19 32.143 3.449 32.415 3.496C32.687 3.543 32.946 3.36 32.993 3.088C33.101 2.463 32.965 1.962 32.681 1.583C32.284 1.05 31.556 0.744999 30.675 0.749999C28.754 0.760999 26.055 2.244 25.387 5.38C25.329 5.65 25.501 5.915 25.771 5.973C26.041 6.031 26.307 5.858 26.365 5.588Z" fill="#898E97"/>
<path id="Vector_7" fill-rule="evenodd" clip-rule="evenodd" d="M25.391 5.59C26.068 8.71 28.757 10.186 30.673 10.198C31.622 10.203 32.391 9.85 32.767 9.239C32.994 8.871 33.093 8.402 32.987 7.829C32.857 7.124 32.393 6.221 31.422 5.149C31.237 4.944 30.92 4.928 30.716 5.113C30.511 5.299 30.495 5.615 30.681 5.82C31.357 6.567 31.758 7.204 31.934 7.739C32.067 8.147 32.064 8.474 31.916 8.715C31.782 8.932 31.542 9.063 31.253 9.135C30.89 9.225 30.455 9.218 29.996 9.121C28.529 8.811 26.847 7.584 26.369 5.378C26.31 5.108 26.044 4.937 25.774 4.995C25.504 5.054 25.333 5.32 25.391 5.59Z" fill="#898E97"/>
<path id="Vector_8" fill-rule="evenodd" clip-rule="evenodd" d="M25.744 6.48401H32.439C32.991 6.48401 33.439 6.03601 33.439 5.48401C33.439 4.93201 32.991 4.48401 32.439 4.48401H25.744C25.192 4.48401 24.744 4.93201 24.744 5.48401C24.744 6.03601 25.192 6.48401 25.744 6.48401Z" fill="#139BA8" class="--fill-change-color"/>
<path id="Vector_9" fill-rule="evenodd" clip-rule="evenodd" d="M5.5 45.52V51.129C5.5 52.233 6.224 53.206 7.282 53.523C11.3 54.729 22.602 58.12 25.282 58.923C25.75 59.064 26.25 59.064 26.718 58.923C29.398 58.12 40.7 54.729 44.718 53.523C45.776 53.206 46.5 52.233 46.5 51.129C46.5 48.459 46.5 43.132 46.5 43.132C46.5 42.856 46.276 42.632 46 42.632C45.724 42.632 45.5 42.856 45.5 43.132V51.129C45.5 51.791 45.065 52.375 44.431 52.566C40.413 53.771 29.11 57.162 26.431 57.966C26.15 58.05 25.85 58.05 25.569 57.966L7.569 52.566C6.935 52.375 6.5 51.791 6.5 51.129V45.52C6.5 45.244 6.276 45.02 6 45.02C5.724 45.02 5.5 45.244 5.5 45.52Z" fill="#898E97"/>
<path id="Vector_10" fill-rule="evenodd" clip-rule="evenodd" d="M4.336 34.19C4.336 34.19 1.804 37.944 0.510001 39.862C0.247001 40.252 0.182001 40.744 0.336001 41.189C0.489001 41.634 0.842001 41.982 1.29 42.127L19.285 47.974C19.921 48.18 20.616 47.942 20.991 47.389C22.332 45.409 26.414 39.387 26.414 39.387C26.502 39.257 26.524 39.093 26.473 38.944C26.422 38.795 26.304 38.679 26.154 38.631L6.154 32.141C5.892 32.056 5.61 32.2 5.524 32.463C5.439 32.725 5.583 33.007 5.846 33.093L25.213 39.377L20.163 46.828C20.038 47.012 19.806 47.092 19.594 47.023L1.599 41.176C1.45 41.127 1.332 41.012 1.281 40.863C1.23 40.715 1.252 40.551 1.339 40.421L5.165 34.749C5.32 34.52 5.259 34.209 5.03 34.055C4.802 33.9 4.491 33.961 4.336 34.19Z" fill="#898E97"/>
<path id="Vector_11" fill-rule="evenodd" clip-rule="evenodd" d="M43.001 33.064L25.846 38.631C25.583 38.716 25.439 38.998 25.524 39.261C25.61 39.523 25.892 39.667 26.154 39.582L43.309 34.016C43.572 33.931 43.716 33.648 43.631 33.386C43.545 33.123 43.263 32.979 43.001 33.064Z" fill="#898E97"/>
<path id="Vector_12" fill-rule="evenodd" clip-rule="evenodd" d="M27.002 41.476C27.002 41.476 29.903 45.756 31.009 47.389C31.384 47.942 32.079 48.18 32.715 47.974C35.664 47.016 46.911 43.361 50.71 42.127C51.158 41.982 51.511 41.634 51.664 41.189C51.818 40.744 51.753 40.252 51.49 39.862C49.922 37.537 46.415 32.337 46.415 32.337C46.26 32.109 45.949 32.048 45.72 32.202C45.492 32.357 45.431 32.668 45.585 32.897C45.585 32.897 49.093 38.096 50.661 40.421C50.748 40.551 50.77 40.715 50.719 40.863C50.668 41.012 50.55 41.127 50.401 41.176L32.406 47.023C32.194 47.092 31.962 47.012 31.837 46.828L27.83 40.915C27.675 40.686 27.364 40.627 27.135 40.782C26.907 40.936 26.847 41.248 27.002 41.476Z" fill="#898E97"/>
<path id="Vector_13" fill-rule="evenodd" clip-rule="evenodd" d="M9.19199 32.104L26.155 26.582C26.304 26.533 26.422 26.417 26.473 26.268C26.524 26.119 26.502 25.955 26.413 25.825C26.413 25.825 22.821 20.542 21.572 18.705C21.197 18.154 20.503 17.916 19.868 18.122L1.87199 23.969C1.42399 24.115 1.07099 24.462 0.916993 24.908C0.763993 25.353 0.828993 25.844 1.09199 26.235C2.53599 28.376 5.58499 32.897 5.58499 32.897C5.73999 33.125 6.05099 33.186 6.27999 33.031C6.50799 32.877 6.56899 32.566 6.41499 32.337C6.41499 32.337 3.36499 27.817 1.92099 25.676C1.83299 25.545 1.81199 25.382 1.86299 25.233C1.91399 25.085 2.03199 24.969 2.18099 24.92L20.177 19.073C20.389 19.004 20.62 19.084 20.745 19.267L25.212 25.837L8.88299 31.153C8.61999 31.238 8.47699 31.521 8.56199 31.783C8.64799 32.045 8.92999 32.189 9.19199 32.104Z" fill="#898E97"/>
<path id="Vector_14" fill-rule="evenodd" clip-rule="evenodd" d="M25.845 26.582L45.845 33.092C46.057 33.161 46.29 33.082 46.415 32.897C46.415 32.897 49.464 28.376 50.908 26.235C51.171 25.844 51.236 25.353 51.083 24.908C50.929 24.462 50.576 24.115 50.128 23.969L32.132 18.122C31.497 17.916 30.803 18.154 30.428 18.705L26.93 23.849C26.775 24.078 26.834 24.389 27.062 24.544C27.291 24.699 27.602 24.64 27.757 24.412L31.255 19.267C31.38 19.084 31.611 19.004 31.823 19.073L49.819 24.92C49.968 24.969 50.086 25.085 50.137 25.233C50.188 25.382 50.167 25.545 50.079 25.676L45.796 32.025L26.155 25.631C25.892 25.545 25.61 25.689 25.525 25.952C25.439 26.214 25.583 26.496 25.845 26.582Z" fill="#898E97"/>
<path id="Vector_15" fill-rule="evenodd" clip-rule="evenodd" d="M41.147 32.615L26 37.529L10.853 32.615L26 27.684L41.147 32.615Z" fill="#139BA8" class="--fill-change-color"/>
<path id="Vector_16" fill-rule="evenodd" clip-rule="evenodd" d="M20.998 26.06C20.729 25.681 20.498 25.3 20.304 24.919C20.179 24.673 19.878 24.575 19.632 24.701C19.386 24.826 19.288 25.127 19.413 25.373C19.628 25.796 19.884 26.219 20.183 26.64C20.343 26.865 20.655 26.917 20.88 26.758C21.105 26.598 21.158 26.285 20.998 26.06Z" fill="#898E97"/>
<path id="Vector_17" fill-rule="evenodd" clip-rule="evenodd" d="M19.611 22.839C19.521 22.269 19.517 21.712 19.596 21.178C19.636 20.905 19.447 20.651 19.174 20.611C18.901 20.571 18.647 20.76 18.606 21.033C18.514 21.663 18.517 22.321 18.623 22.994C18.666 23.267 18.922 23.453 19.195 23.41C19.467 23.367 19.654 23.111 19.611 22.839Z" fill="#898E97"/>
</g>
</svg>
