<svg width="56" height="61" viewBox="0 0 56 61" fill="none" xmlns="http://www.w3.org/2000/svg">
<g id="Exp-1.-O">
<path id="Vector" fill-rule="evenodd" clip-rule="evenodd" d="M36.399 33.23C36.408 32.993 36.251 32.783 36.021 32.725C35.792 32.667 35.554 32.778 35.45 32.991C33.787 36.404 30.467 39.237 27.934 40.504C27.723 40.61 27.615 40.848 27.674 41.076C27.732 41.304 27.942 41.46 28.178 41.451C29.343 41.405 30.878 41.484 32.675 41.903C32.943 41.965 33.211 41.799 33.275 41.531C33.791 39.35 35.284 38.596 36.474 38.328C36.603 38.299 36.716 38.219 36.787 38.106C36.858 37.993 36.881 37.856 36.85 37.727C36.432 35.93 36.353 34.396 36.399 33.23Z" fill="#139BA8" class="--fill-change-color"/>
<path id="Vector_2" fill-rule="evenodd" clip-rule="evenodd" d="M12.432 14.195C11.518 14.626 9.77802 16.152 8.82302 17.805C7.89502 19.412 7.40602 21.262 7.40402 22.522C7.40402 22.798 7.62702 23.023 7.90302 23.023C8.17902 23.023 8.40402 22.8 8.40402 22.524C8.40602 21.395 8.85802 19.744 9.68902 18.305C10.532 16.845 12.051 15.48 12.858 15.1C13.108 14.982 13.215 14.684 13.097 14.435C12.98 14.185 12.682 14.078 12.432 14.195Z" fill="#898E97"/>
<path id="Vector_3" fill-rule="evenodd" clip-rule="evenodd" d="M8.925 13.977C14.779 8.12297 24.284 8.12297 30.138 13.977C35.992 19.831 35.992 29.336 30.138 35.19C24.284 41.044 14.779 41.044 8.925 35.19C4.126 30.391 3.261 23.139 6.33 17.455C6.461 17.213 6.37 16.909 6.127 16.778C5.885 16.647 5.581 16.737 5.45 16.98C2.176 23.042 3.099 30.778 8.218 35.897C14.462 42.141 24.601 42.141 30.845 35.897C37.089 29.653 37.089 19.514 30.845 13.27C24.601 7.02598 14.462 7.02598 8.218 13.27C8.023 13.465 8.023 13.782 8.218 13.977C8.413 14.172 8.73 14.172 8.925 13.977Z" fill="#898E97"/>
<path id="Vector_4" fill-rule="evenodd" clip-rule="evenodd" d="M36.956 29.1C36.18 32.109 34.614 34.957 32.259 37.311C25.235 44.336 13.828 44.336 6.80401 37.311C-0.220991 30.287 -0.220991 18.88 6.80401 11.856C13.828 4.83098 25.235 4.83098 32.259 11.856C35.892 15.488 37.646 20.292 37.522 25.056C37.514 25.332 37.733 25.562 38.008 25.569C38.284 25.576 38.514 25.358 38.521 25.082C38.652 20.053 36.801 14.983 32.966 11.148C25.551 3.73298 13.511 3.73298 6.09601 11.148C-1.31899 18.563 -1.31899 30.604 6.09601 38.019C13.511 45.434 25.551 45.434 32.966 38.019C35.452 35.533 37.105 32.527 37.924 29.35C37.993 29.082 37.832 28.81 37.565 28.741C37.297 28.672 37.025 28.833 36.956 29.1Z" fill="#898E97"/>
<path id="Vector_5" fill-rule="evenodd" clip-rule="evenodd" d="M54.452 53.847C54.424 53.945 54.35 54.182 54.249 54.371C53.862 55.095 53.07 56.099 52.058 57.11C51.047 58.122 50.043 58.914 49.319 59.301C49.13 59.402 48.893 59.476 48.795 59.504L36.91 47.619C36.715 47.424 36.398 47.424 36.203 47.619C36.008 47.814 36.008 48.131 36.203 48.326L48.169 60.292C48.379 60.503 48.807 60.605 49.389 60.373C50.183 60.055 51.475 59.108 52.765 57.818C54.056 56.527 55.003 55.235 55.32 54.441C55.553 53.859 55.45 53.431 55.24 53.221L40.745 38.726C38.792 36.773 35.626 36.773 33.674 38.726C31.721 40.678 31.721 43.844 33.674 45.797C33.869 45.992 34.186 45.992 34.381 45.797C34.576 45.602 34.576 45.285 34.381 45.09C32.819 43.527 32.819 40.995 34.381 39.433C35.943 37.871 38.475 37.871 40.038 39.433L54.452 53.847Z" fill="#898E97"/>
<path id="Vector_6" fill-rule="evenodd" clip-rule="evenodd" d="M17.193 21.435C17.17 20.482 17.527 19.786 18.08 19.378C18.948 18.738 20.244 18.765 20.948 19.558C21.251 19.899 21.426 20.381 21.431 20.991C21.443 22.454 20.757 23.309 20.085 24.194C19.181 25.387 18.278 26.613 18.166 28.66C18.136 29.212 18.559 29.683 19.11 29.713C19.662 29.743 20.133 29.32 20.163 28.769C20.248 27.214 20.992 26.308 21.679 25.402C22.599 24.189 23.447 22.979 23.431 20.975C23.421 19.797 23.028 18.888 22.444 18.23C21.079 16.694 18.574 16.528 16.893 17.768C15.885 18.512 15.152 19.744 15.193 21.482C15.206 22.034 15.665 22.471 16.217 22.458C16.768 22.445 17.206 21.987 17.193 21.435Z" fill="#139BA8" class="--fill-change-color"/>
<path id="Vector_7" d="M19.072 33.427C19.7513 33.427 20.302 32.8763 20.302 32.197C20.302 31.5177 19.7513 30.967 19.072 30.967C18.3927 30.967 17.842 31.5177 17.842 32.197C17.842 32.8763 18.3927 33.427 19.072 33.427Z" fill="#139BA8" class="--fill-change-color"/>
<path id="Vector_8" fill-rule="evenodd" clip-rule="evenodd" d="M37.288 7.49699L40.288 2.49699C40.572 2.02399 40.419 1.40899 39.945 1.12499C39.472 0.841986 38.857 0.994986 38.573 1.46799L35.573 6.46799C35.289 6.94199 35.443 7.55699 35.916 7.83999C36.39 8.12399 37.004 7.97099 37.288 7.49699Z" fill="#139BA8" class="--fill-change-color"/>
<path id="Vector_9" fill-rule="evenodd" clip-rule="evenodd" d="M42.019 10.792L53.019 2.79198C53.465 2.46698 53.564 1.84098 53.24 1.39498C52.915 0.947982 52.289 0.849982 51.843 1.17398L40.843 9.17398C40.396 9.49898 40.298 10.125 40.622 10.571C40.947 11.018 41.573 11.116 42.019 10.792Z" fill="#139BA8" class="--fill-change-color"/>
<path id="Vector_10" fill-rule="evenodd" clip-rule="evenodd" d="M43.673 16.953L51.673 14.953C52.209 14.819 52.535 14.276 52.401 13.74C52.267 13.205 51.724 12.879 51.188 13.013L43.188 15.013C42.653 15.147 42.327 15.69 42.461 16.226C42.595 16.761 43.138 17.087 43.673 16.953Z" fill="#139BA8" class="--fill-change-color"/>
</g>
</svg>
