<svg width="58" height="34" viewBox="0 0 58 34" fill="none" xmlns="http://www.w3.org/2000/svg">
<g id="Exp-1.-O">
<path id="Vector" fill-rule="evenodd" clip-rule="evenodd" d="M8.648 4.185L0.648004 17.185C0.458004 17.493 0.450004 17.881 0.627004 18.197C0.804004 18.513 1.138 18.709 1.5 18.709H10.5C11.052 18.709 11.5 18.261 11.5 17.709C11.5 17.157 11.052 16.709 10.5 16.709H3.29L10.352 5.233C10.641 4.763 10.494 4.147 10.024 3.857C9.554 3.568 8.938 3.715 8.648 4.185Z" fill="#139BA8" class="--fill-change-color"/>
<path id="Vector_2" fill-rule="evenodd" clip-rule="evenodd" d="M9.5 12.709V26.709C9.5 27.261 9.948 27.709 10.5 27.709C11.052 27.709 11.5 27.261 11.5 26.709V12.709C11.5 12.157 11.052 11.709 10.5 11.709C9.948 11.709 9.5 12.157 9.5 12.709Z" fill="#139BA8" class="--fill-change-color"/>
<path id="Vector_3" fill-rule="evenodd" clip-rule="evenodd" d="M54.648 4.185L46.648 17.185C46.458 17.493 46.45 17.881 46.627 18.197C46.804 18.513 47.138 18.709 47.5 18.709H56.5C57.052 18.709 57.5 18.261 57.5 17.709C57.5 17.157 57.052 16.709 56.5 16.709H49.29L56.352 5.233C56.641 4.763 56.494 4.147 56.024 3.857C55.554 3.568 54.938 3.715 54.648 4.185Z" fill="#139BA8" class="--fill-change-color"/>
<path id="Vector_4" fill-rule="evenodd" clip-rule="evenodd" d="M55.5 12.709V26.709C55.5 27.261 55.948 27.709 56.5 27.709C57.052 27.709 57.5 27.261 57.5 26.709V12.709C57.5 12.157 57.052 11.709 56.5 11.709C55.948 11.709 55.5 12.157 55.5 12.709Z" fill="#139BA8" class="--fill-change-color"/>
<path id="Vector_5" fill-rule="evenodd" clip-rule="evenodd" d="M18.866 19.331C18.105 19.052 17.292 18.515 16.567 17.77C15.615 16.792 15.021 15.675 14.905 14.741C14.843 14.237 14.916 13.794 15.209 13.509C15.457 13.268 15.817 13.188 16.227 13.214C16.728 13.245 17.294 13.438 17.868 13.76C18.014 13.842 18.193 13.845 18.342 13.768C18.491 13.691 18.592 13.543 18.61 13.376C19.383 6.016 24.167 1 30 1C32.467 1 34.464 1.596 35.974 2.843C38.272 4.743 39.426 8.114 39.497 13.023C39.499 13.186 39.581 13.338 39.716 13.43C39.85 13.521 40.022 13.541 40.174 13.484C40.707 13.281 41.217 13.185 41.657 13.219C42.016 13.246 42.324 13.359 42.528 13.595C42.795 13.905 42.83 14.352 42.724 14.849C42.528 15.769 41.84 16.831 40.807 17.723C39.818 18.577 38.721 19.094 37.804 19.19C37.654 19.206 37.519 19.288 37.437 19.415C36.396 21.015 35.205 22.725 34.375 25.348C33.503 28.105 33.411 30.89 33.443 32.396C33.443 32.4 33.443 32.404 33.444 32.408C33.45 32.552 33.393 32.691 33.288 32.79C33.188 32.884 33.053 32.932 32.916 32.923C28.22 32.223 22.581 27.415 19.959 21.691C19.844 21.44 19.547 21.329 19.296 21.444C19.045 21.559 18.935 21.856 19.05 22.107C21.819 28.154 27.823 33.182 32.771 33.913C32.778 33.914 32.784 33.915 32.791 33.916C33.224 33.962 33.656 33.817 33.974 33.519C34.289 33.222 34.46 32.803 34.443 32.371C34.412 30.933 34.497 28.279 35.329 25.649C36.092 23.237 37.181 21.634 38.15 20.152C39.18 19.983 40.38 19.412 41.46 18.48C42.684 17.424 43.47 16.147 43.702 15.058C43.882 14.214 43.739 13.468 43.285 12.942C42.707 12.272 41.669 12.058 40.48 12.343C40.305 7.416 38.982 4.032 36.611 2.073C34.937 0.69 32.734 0 30 0C23.893 0 18.764 5.015 17.702 12.568C17.056 12.3 16.434 12.18 15.896 12.215C15.343 12.251 14.868 12.445 14.512 12.793C14.014 13.278 13.806 14.009 13.913 14.865C14.05 15.971 14.723 17.31 15.851 18.468C16.692 19.331 17.64 19.946 18.522 20.27C18.781 20.365 19.068 20.231 19.163 19.972C19.258 19.713 19.125 19.426 18.866 19.331Z" fill="#898E97"/>
<path id="Vector_6" fill-rule="evenodd" clip-rule="evenodd" d="M29 11.209C28.423 11.209 27.882 11.476 27.449 11.952C26.883 12.575 26.5 13.576 26.5 14.709C26.5 15.843 26.883 16.843 27.449 17.466C27.882 17.942 28.423 18.209 29 18.209C29.577 18.209 30.118 17.942 30.551 17.466C31.117 16.843 31.5 15.843 31.5 14.709C31.5 13.576 31.117 12.575 30.551 11.952C30.118 11.476 29.577 11.209 29 11.209ZM29 12.209C29.306 12.209 29.582 12.372 29.811 12.625C30.237 13.094 30.5 13.856 30.5 14.709C30.5 15.562 30.237 16.324 29.811 16.794C29.582 17.046 29.306 17.209 29 17.209C28.694 17.209 28.418 17.046 28.189 16.794C27.763 16.324 27.5 15.562 27.5 14.709C27.5 13.856 27.763 13.094 28.189 12.625C28.418 12.372 28.694 12.209 29 12.209Z" fill="#898E97"/>
<path id="Vector_7" fill-rule="evenodd" clip-rule="evenodd" d="M25.962 7.841C26.143 8.503 26.154 9.626 25.165 10.295C24.936 10.449 24.876 10.76 25.03 10.989C25.185 11.218 25.496 11.278 25.724 11.123C27.161 10.153 27.189 8.539 26.927 7.578C26.854 7.311 26.579 7.154 26.313 7.227C26.047 7.299 25.89 7.574 25.962 7.841Z" fill="#898E97"/>
<path id="Vector_8" fill-rule="evenodd" clip-rule="evenodd" d="M31.073 7.578C30.811 8.539 30.839 10.153 32.276 11.123C32.504 11.278 32.815 11.218 32.97 10.989C33.124 10.76 33.064 10.449 32.835 10.295C31.846 9.626 31.857 8.503 32.038 7.841C32.11 7.574 31.953 7.299 31.687 7.227C31.421 7.154 31.146 7.311 31.073 7.578Z" fill="#898E97"/>
</g>
</svg>
