<svg width="62" height="52" viewBox="0 0 62 52" fill="none" xmlns="http://www.w3.org/2000/svg">
<g id="Exp-1.-O">
<path id="Vector" fill-rule="evenodd" clip-rule="evenodd" d="M36.953 34.368L37.706 32.825H23.706C23.706 32.825 23.067 34.136 21.634 37.073C21.483 37.383 21.502 37.748 21.685 38.041C21.868 38.333 22.188 38.511 22.533 38.511H28.56L23.781 50.338C23.605 50.775 23.757 51.276 24.147 51.54C24.537 51.805 25.059 51.761 25.4 51.435C29.944 47.086 37.887 39.485 41.434 36.091C41.729 35.808 41.822 35.375 41.67 34.996C41.518 34.617 41.151 34.368 40.742 34.368H36.953Z" fill="#139BA8" class="--fill-change-color"/>
<path id="Vector_2" fill-rule="evenodd" clip-rule="evenodd" d="M2.455 48.464C2.147 48.996 1.892 49.439 1.705 49.763C1.567 50.002 1.649 50.308 1.888 50.446C2.127 50.584 2.433 50.502 2.571 50.263C2.758 49.939 3.013 49.496 3.321 48.964C3.459 48.725 3.377 48.419 3.138 48.281C2.899 48.143 2.593 48.225 2.455 48.464ZM5.205 43.701C4.95 44.142 4.699 44.577 4.455 45C4.317 45.239 4.399 45.545 4.638 45.683C4.877 45.821 5.183 45.739 5.321 45.5C5.565 45.077 5.816 44.642 6.071 44.201C6.209 43.962 6.127 43.656 5.888 43.518C5.649 43.38 5.343 43.462 5.205 43.701ZM7.955 38.938C7.712 39.358 7.461 39.793 7.205 40.237C7.067 40.476 7.149 40.782 7.388 40.92C7.627 41.058 7.933 40.976 8.071 40.737C8.327 40.293 8.578 39.858 8.821 39.438C8.959 39.199 8.877 38.893 8.638 38.755C8.399 38.617 8.093 38.699 7.955 38.938ZM10.705 34.175C10.705 34.175 10.422 34.665 9.955 35.474C9.817 35.713 9.899 36.019 10.138 36.157C10.377 36.295 10.683 36.213 10.821 35.974C11.288 35.165 11.571 34.675 11.571 34.675C11.709 34.436 11.627 34.13 11.388 33.992C11.149 33.854 10.843 33.936 10.705 34.175Z" fill="#898E97"/>
<path id="Vector_3" fill-rule="evenodd" clip-rule="evenodd" d="M41.308 45.232C41.048 45.683 40.793 46.123 40.558 46.531C40.42 46.77 40.502 47.076 40.741 47.214C40.98 47.352 41.286 47.27 41.424 47.031C41.659 46.623 41.914 46.183 42.174 45.732C42.312 45.493 42.23 45.187 41.991 45.049C41.752 44.911 41.446 44.993 41.308 45.232ZM44.058 40.469C44.058 40.469 43.758 40.989 43.308 41.768C43.17 42.007 43.252 42.313 43.491 42.451C43.73 42.589 44.036 42.507 44.174 42.268C44.624 41.489 44.924 40.969 44.924 40.969C45.062 40.73 44.98 40.424 44.741 40.286C44.502 40.148 44.196 40.23 44.058 40.469Z" fill="#898E97"/>
<path id="Vector_4" fill-rule="evenodd" clip-rule="evenodd" d="M47.723 44.87C47.425 45.387 47.168 45.832 46.973 46.169C46.835 46.408 46.917 46.714 47.156 46.852C47.395 46.99 47.701 46.908 47.839 46.669C48.034 46.332 48.291 45.887 48.589 45.37C48.727 45.131 48.645 44.825 48.406 44.687C48.167 44.549 47.861 44.631 47.723 44.87ZM50.473 40.107C50.226 40.536 49.974 40.972 49.723 41.406C49.585 41.645 49.667 41.951 49.906 42.089C50.145 42.227 50.451 42.145 50.589 41.906C50.84 41.472 51.092 41.036 51.339 40.607C51.477 40.368 51.395 40.062 51.156 39.924C50.917 39.786 50.611 39.868 50.473 40.107ZM53.223 35.344C53.223 35.344 52.933 35.847 52.473 36.643C52.335 36.882 52.417 37.188 52.656 37.326C52.895 37.464 53.201 37.382 53.339 37.143C53.799 36.347 54.089 35.844 54.089 35.844C54.227 35.605 54.145 35.299 53.906 35.161C53.667 35.023 53.361 35.105 53.223 35.344Z" fill="#898E97"/>
<path id="Vector_5" fill-rule="evenodd" clip-rule="evenodd" d="M10.427 46.115C10.135 46.62 9.88 47.063 9.677 47.414C9.539 47.653 9.621 47.959 9.86 48.097C10.099 48.235 10.405 48.153 10.543 47.914C10.746 47.563 11.001 47.12 11.293 46.615C11.431 46.376 11.349 46.07 11.11 45.932C10.871 45.794 10.565 45.876 10.427 46.115ZM13.177 41.352C12.93 41.78 12.678 42.216 12.427 42.651C12.289 42.89 12.371 43.196 12.61 43.334C12.849 43.472 13.155 43.39 13.293 43.151C13.544 42.716 13.796 42.28 14.043 41.852C14.181 41.613 14.099 41.307 13.86 41.169C13.621 41.031 13.315 41.113 13.177 41.352ZM15.927 36.589C15.927 36.589 15.637 37.091 15.177 37.888C15.039 38.127 15.121 38.433 15.36 38.571C15.599 38.709 15.905 38.627 16.043 38.388C16.503 37.591 16.793 37.089 16.793 37.089C16.931 36.85 16.849 36.544 16.61 36.406C16.371 36.268 16.065 36.35 15.927 36.589Z" fill="#898E97"/>
<path id="Vector_6" fill-rule="evenodd" clip-rule="evenodd" d="M15.869 48.148C15.588 48.635 15.329 49.083 15.119 49.447C14.981 49.686 15.063 49.992 15.302 50.13C15.541 50.268 15.847 50.186 15.985 49.947C16.195 49.583 16.454 49.135 16.735 48.648C16.873 48.409 16.791 48.103 16.552 47.965C16.313 47.827 16.007 47.909 15.869 48.148ZM18.619 43.385C18.619 43.385 18.313 43.916 17.869 44.684C17.731 44.923 17.813 45.229 18.052 45.367C18.291 45.505 18.597 45.423 18.735 45.184C19.179 44.416 19.485 43.885 19.485 43.885C19.623 43.646 19.541 43.34 19.302 43.202C19.063 43.064 18.757 43.146 18.619 43.385Z" fill="#898E97"/>
<path id="Vector_7" fill-rule="evenodd" clip-rule="evenodd" d="M14.622 22.977C14.558 23.175 14.401 23.361 14.192 23.551C13.864 23.85 13.405 24.134 12.855 24.41C10.101 25.788 5.142 26.876 1.622 27.516C1.601 27.52 1.581 27.525 1.561 27.531C1.102 27.677 0.812001 28.128 0.870001 28.605C0.928001 29.082 1.317 29.451 1.797 29.482L1.8 29.483C28.996 31.082 52.231 30.234 52.651 30.219C52.648 30.219 52.692 30.219 52.692 30.219C57.359 30.189 61.138 26.392 61.138 21.719C61.138 17.439 57.968 13.894 53.85 13.305C53.503 11.528 52.852 9.85799 51.953 8.35299C51.812 8.11599 51.504 8.03899 51.267 8.17999C51.031 8.32199 50.953 8.62899 51.095 8.86599C51.993 10.37 52.627 12.05 52.932 13.841C52.97 14.064 53.152 14.233 53.376 14.255C57.169 14.626 60.138 17.829 60.138 21.719C60.138 25.842 56.803 29.193 52.686 29.219H52.619C52.619 29.219 29.261 30.095 1.879 28.486C5.48 27.828 10.502 26.706 13.303 25.304C14.085 24.912 14.702 24.493 15.094 24.063C15.412 23.715 15.632 23.26 15.642 22.979C15.646 22.884 15.639 22.787 15.595 22.697C15.302 22.1 15.138 21.428 15.138 20.719C15.138 18.235 17.154 16.219 19.638 16.219C21.155 16.219 22.498 16.972 23.314 18.125C23.446 18.311 23.687 18.384 23.9 18.303C24.113 18.222 24.244 18.006 24.219 17.78C24.165 17.305 24.138 16.807 24.138 16.287C24.138 8.28499 30.635 1.78699 38.638 1.78699C42.586 1.78699 46.167 3.36899 48.783 5.93199C48.98 6.12499 49.297 6.12199 49.49 5.92499C49.683 5.72699 49.68 5.41099 49.483 5.21699C46.687 2.47799 42.858 0.786987 38.638 0.786987C30.083 0.786987 23.138 7.73299 23.138 16.287C23.138 16.351 23.138 16.415 23.139 16.478C22.187 15.692 20.967 15.219 19.638 15.219C16.602 15.219 14.138 17.684 14.138 20.719C14.138 21.524 14.311 22.288 14.622 22.977Z" fill="#898E97"/>
<path id="Vector_8" fill-rule="evenodd" clip-rule="evenodd" d="M31 17.122C30.62 17.122 30.242 17.333 29.926 17.714C29.375 18.378 29 19.584 29 20.247C29 21.585 29.929 22.622 31 22.622C32.071 22.622 33 21.585 33 20.247C33 19.584 32.625 18.378 32.074 17.714C31.758 17.333 31.38 17.122 31 17.122ZM31 18.122C31.057 18.122 31.106 18.161 31.158 18.203C31.269 18.294 31.369 18.424 31.461 18.572C31.783 19.089 32 19.818 32 20.247C32 20.98 31.586 21.622 31 21.622C30.414 21.622 30 20.98 30 20.247C30 19.818 30.217 19.089 30.539 18.572C30.631 18.424 30.731 18.294 30.842 18.203C30.894 18.161 30.943 18.122 31 18.122Z" fill="#898E97"/>
<path id="Vector_9" fill-rule="evenodd" clip-rule="evenodd" d="M36.265 14.635C36.265 14.635 35.54 15.469 34.638 15.469C33.735 15.469 33.01 14.635 33.01 14.635C32.826 14.43 32.509 14.413 32.304 14.597C32.098 14.781 32.081 15.097 32.265 15.303C32.265 15.303 33.333 16.469 34.638 16.469C35.943 16.469 37.01 15.303 37.01 15.303C37.194 15.097 37.177 14.781 36.971 14.597C36.766 14.413 36.449 14.43 36.265 14.635Z" fill="#898E97"/>
<path id="Vector_10" fill-rule="evenodd" clip-rule="evenodd" d="M46.265 14.635C46.265 14.635 45.54 15.469 44.638 15.469C43.735 15.469 43.01 14.635 43.01 14.635C42.826 14.43 42.509 14.413 42.304 14.597C42.098 14.781 42.081 15.097 42.265 15.303C42.265 15.303 43.333 16.469 44.638 16.469C45.943 16.469 47.01 15.303 47.01 15.303C47.194 15.097 47.177 14.781 46.971 14.597C46.766 14.413 46.449 14.43 46.265 14.635Z" fill="#898E97"/>
<path id="Vector_11" fill-rule="evenodd" clip-rule="evenodd" d="M36.638 24.219C36.835 24.219 37.02 24.101 37.099 23.911C37.12 23.885 37.674 23.219 39.638 23.219C41.64 23.219 42.177 23.912 42.177 23.912L42.167 23.887L42.638 24.219C42.255 24.143 42.539 24.282 42.8 24.192C43.061 24.102 43.2 23.817 43.11 23.556C43.11 23.556 42.763 22.219 39.638 22.219C36.512 22.219 36.165 23.556 36.165 23.556C36.075 23.817 36.214 24.102 36.475 24.192C36.529 24.21 36.584 24.219 36.638 24.219Z" fill="#898E97"/>
</g>
</svg>
