<svg xmlns="http://www.w3.org/2000/svg" xmlns:xlink="http://www.w3.org/1999/xlink" width="105.805" height="13.036" viewBox="0 0 105.805 13.036">
  <defs>
    <clipPath id="clip-path">
      <path id="Caminho_3322" data-name="Caminho 3322" d="M236.817,153.681a1.39,1.39,0,1,0,1.39,1.39A1.391,1.391,0,0,0,236.817,153.681Z" transform="translate(-235.427 -153.681)" fill="#3eaeab"/>
    </clipPath>
  </defs>
  <g id="Grupo_8655" data-name="Grupo 8655" transform="translate(-637 -1824.229)">
    <g id="Grupo_8547" data-name="Grupo 8547" transform="translate(637 1824.229)">
      <g id="Grupo_8546" data-name="Grupo 8546" transform="translate(0 0)">
        <g id="Grupo_8545" data-name="Grupo 8545">
          <g id="Grupo_8538" data-name="Grupo 8538" transform="translate(11.588)">
            <path id="Caminho_3313" data-name="Caminho 3313" d="M67.005,133.942v-2.413h3.2v-2.307H67.023v-2.76H64.469v7.269c0,3.434,1.537,5.259,4.567,5.423.332.018.715.018,1.086.018h1.532v-2.43H70C67.9,136.742,67.005,135.9,67.005,133.942Z" transform="translate(-64.469 -126.462)" fill="#fff"/>
          </g>
          <g id="Grupo_8539" data-name="Grupo 8539" transform="translate(20.38 2.76)">
            <path id="Caminho_3314" data-name="Caminho 3314" d="M97.054,138.91a2.937,2.937,0,0,1-3.082,2.571,2.864,2.864,0,0,1-3.1-2.571v-4.949H88.354v4.949c0,2.758,2.52,5,5.618,5s5.6-2.243,5.6-5v-4.949H97.054Z" transform="translate(-88.354 -133.961)" fill="#fff"/>
          </g>
          <g id="Grupo_8540" data-name="Grupo 8540" transform="translate(33.155)">
            <path id="Caminho_3315" data-name="Caminho 3315" d="M131.779,130.128a5.293,5.293,0,0,0-3.082-.959c-3.16,0-5.635,2.174-5.635,4.949,0,2.824,2.491,5.037,5.67,5.037,2.888,0,5.19-1.857,5.481-4.315l.049-8.378h-2.483Zm-3.086,6.385c-1.688,0-2.913-.987-2.913-2.347a2.693,2.693,0,0,1,2.881-2.444,2.621,2.621,0,0,1,2.865,2.525C131.526,135.581,130.362,136.513,128.694,136.513Z" transform="translate(-123.062 -126.462)" fill="#fff"/>
          </g>
          <g id="Grupo_8541" data-name="Grupo 8541" transform="translate(46.019 2.76)">
            <rect id="Retângulo_2898" data-name="Retângulo 2898" width="2.571" height="9.547" fill="#fff"/>
          </g>
          <g id="Grupo_8542" data-name="Grupo 8542" transform="translate(50.201 2.725)">
            <path id="Caminho_3316" data-name="Caminho 3316" d="M174.972,133.865c-2.693,0-5.6,1.912-5.6,5s2.907,4.984,5.6,4.984,5.6-1.905,5.6-4.984S177.665,133.865,174.972,133.865Zm0,7.306a2.358,2.358,0,1,1,2.814-2.305C177.787,140.29,176.327,141.171,174.973,141.171Z" transform="translate(-169.372 -133.865)" fill="#fff"/>
          </g>
          <g id="Grupo_8543" data-name="Grupo 8543" transform="translate(0 1.837)">
            <path id="Caminho_3317" data-name="Caminho 3317" d="M39.656,136.032l-1.378-.311c-1.548-.333-1.972-.578-1.972-1.14,0-.537.661-.871,1.725-.871a3.5,3.5,0,0,1,2.642,1.3l2.189-1.228a5.867,5.867,0,0,0-4.753-2.331c-2.764,0-4.621,1.327-4.621,3.3,0,1.531,1.02,2.47,3.21,2.955l1.378.311c1.479.318,1.972.533,1.972,1.179,0,.537-.78.871-2.036.871a3.407,3.407,0,0,1-2.815-1.515L32.988,139.8a5.288,5.288,0,0,0,1.838,1.783,6.264,6.264,0,0,0,3.107.742c2.9,0,4.932-1.357,4.932-3.3C42.865,137.467,41.845,136.516,39.656,136.032Z" transform="translate(-32.988 -131.454)" fill="#fff"/>
          </g>
          <g id="Grupo_8544" data-name="Grupo 8544" transform="translate(62.993 2.724)">
            <path id="Caminho_3318" data-name="Caminho 3318" d="M215.155,143.937a2.336,2.336,0,0,1,.57-3.329v-1.272c0-3.415-1.886-5.455-5.046-5.455a6.279,6.279,0,0,0-3.98,1.527v-1.545h-2.576v10.074H206.7v-4.406a3.888,3.888,0,0,1,3.838-3.251c1.733,0,2.612,1.094,2.612,3.251v4.406Z" transform="translate(-204.123 -133.863)" fill="#fff"/>
          </g>
        </g>
      </g>
    </g>
    <g id="Grupo_8550" data-name="Grupo 8550" transform="translate(711.516 1834.248)">
      <g id="Grupo_8549" data-name="Grupo 8549" transform="translate(0 0)">
        <path id="Caminho_3319" data-name="Caminho 3319" d="M236.817,153.681a1.39,1.39,0,1,0,1.39,1.39A1.391,1.391,0,0,0,236.817,153.681Z" transform="translate(-235.427 -153.681)" fill="#3eaeab"/>
        <g id="Grupo_8548" data-name="Grupo 8548" clip-path="url(#clip-path)">
          <path id="Caminho_3320" data-name="Caminho 3320" d="M235.427,153.681v0Z" transform="translate(-235.427 -153.681)" fill="#3eaeab"/>
          <rect id="Retângulo_2899" data-name="Retângulo 2899" width="0.069" height="2.779" transform="translate(0 0)" fill="#3eaeab"/>
          <rect id="Retângulo_2900" data-name="Retângulo 2900" width="0.069" height="2.779" transform="translate(0.07 0)" fill="#3eaeab"/>
          <rect id="Retângulo_2901" data-name="Retângulo 2901" width="0.069" height="2.779" transform="translate(0.139 0)" fill="#3eaeab"/>
          <rect id="Retângulo_2902" data-name="Retângulo 2902" width="0.069" height="2.779" transform="translate(0.209 0)" fill="#3eaeab"/>
          <rect id="Retângulo_2903" data-name="Retângulo 2903" width="0.069" height="2.779" transform="translate(0.278 0)" fill="#3eaeab"/>
          <rect id="Retângulo_2904" data-name="Retângulo 2904" width="0.069" height="2.779" transform="translate(0.347 0)" fill="#3eaeab"/>
          <rect id="Retângulo_2905" data-name="Retângulo 2905" width="0.069" height="2.779" transform="translate(0.417 0)" fill="#3eaeab"/>
          <rect id="Retângulo_2906" data-name="Retângulo 2906" width="0.069" height="2.779" transform="translate(0.486 0)" fill="#3eaeab"/>
          <rect id="Retângulo_2907" data-name="Retângulo 2907" width="0.069" height="2.779" transform="translate(0.556 0)" fill="#3eaeab"/>
          <rect id="Retângulo_2908" data-name="Retângulo 2908" width="0.069" height="2.779" transform="translate(0.625 0)" fill="#3eaeab"/>
          <rect id="Retângulo_2909" data-name="Retângulo 2909" width="0.069" height="2.779" transform="translate(0.695 0)" fill="#3eaeab"/>
          <rect id="Retângulo_2910" data-name="Retângulo 2910" width="0.069" height="2.779" transform="translate(0.764 0)" fill="#3eaeab"/>
          <rect id="Retângulo_2911" data-name="Retângulo 2911" width="0.069" height="2.779" transform="translate(0.834 0)" fill="#3eaeab"/>
          <rect id="Retângulo_2912" data-name="Retângulo 2912" width="0.069" height="2.779" transform="translate(0.903 0)" fill="#3eaeab"/>
          <rect id="Retângulo_2913" data-name="Retângulo 2913" width="0.069" height="2.779" transform="translate(0.973 0)" fill="#3eaeab"/>
          <rect id="Retângulo_2914" data-name="Retângulo 2914" width="0.069" height="2.779" transform="translate(1.042 0)" fill="#3eaeab"/>
          <rect id="Retângulo_2915" data-name="Retângulo 2915" width="0.069" height="2.779" transform="translate(1.112 0)" fill="#3eaeab"/>
          <rect id="Retângulo_2916" data-name="Retângulo 2916" width="0.069" height="2.779" transform="translate(1.181 0)" fill="#3eaeab"/>
          <rect id="Retângulo_2917" data-name="Retângulo 2917" width="0.069" height="2.779" transform="translate(1.251 0)" fill="#3eaeab"/>
          <rect id="Retângulo_2918" data-name="Retângulo 2918" width="0.069" height="2.779" transform="translate(1.32 0)" fill="#3eaeab"/>
          <rect id="Retângulo_2919" data-name="Retângulo 2919" width="0.069" height="2.779" transform="translate(1.39 0)" fill="#3eaeab"/>
          <rect id="Retângulo_2920" data-name="Retângulo 2920" width="0.069" height="2.779" transform="translate(1.459 0)" fill="#3eaeab"/>
          <rect id="Retângulo_2921" data-name="Retângulo 2921" width="0.069" height="2.779" transform="translate(1.529 0)" fill="#3eaeab"/>
          <rect id="Retângulo_2922" data-name="Retângulo 2922" width="0.069" height="2.779" transform="translate(1.598 0)" fill="#3eaeab"/>
          <rect id="Retângulo_2923" data-name="Retângulo 2923" width="0.069" height="2.779" transform="translate(1.668 0)" fill="#3eaeab"/>
          <rect id="Retângulo_2924" data-name="Retângulo 2924" width="0.069" height="2.779" transform="translate(1.737 0)" fill="#3eaeab"/>
          <rect id="Retângulo_2925" data-name="Retângulo 2925" width="0.069" height="2.779" transform="translate(1.807 0)" fill="#3eaeab"/>
          <rect id="Retângulo_2926" data-name="Retângulo 2926" width="0.069" height="2.779" transform="translate(1.876 0)" fill="#3eaeab"/>
          <rect id="Retângulo_2927" data-name="Retângulo 2927" width="0.069" height="2.779" transform="translate(1.946 0)" fill="#3eaeab"/>
          <rect id="Retângulo_2928" data-name="Retângulo 2928" width="0.069" height="2.779" transform="translate(2.015 0)" fill="#3eaeab"/>
          <rect id="Retângulo_2929" data-name="Retângulo 2929" width="0.069" height="2.779" transform="translate(2.084 0)" fill="#3eaeab"/>
          <rect id="Retângulo_2930" data-name="Retângulo 2930" width="0.069" height="2.779" transform="translate(2.154 0)" fill="#3eaeab"/>
          <rect id="Retângulo_2931" data-name="Retângulo 2931" width="0.069" height="2.779" transform="translate(2.223 0)" fill="#3eaeab"/>
          <rect id="Retângulo_2932" data-name="Retângulo 2932" width="0.069" height="2.779" transform="translate(2.293 0)" fill="#3eaeab"/>
          <rect id="Retângulo_2933" data-name="Retângulo 2933" width="0.069" height="2.779" transform="translate(2.362 0)" fill="#3eaeab"/>
          <rect id="Retângulo_2934" data-name="Retângulo 2934" width="0.069" height="2.779" transform="translate(2.432 0)" fill="#3eaeab"/>
          <rect id="Retângulo_2935" data-name="Retângulo 2935" width="0.069" height="2.779" transform="translate(2.501 0)" fill="#3eaeab"/>
          <rect id="Retângulo_2936" data-name="Retângulo 2936" width="0.069" height="2.779" transform="translate(2.571 0)" fill="#3eaeab"/>
          <rect id="Retângulo_2937" data-name="Retângulo 2937" width="0.069" height="2.779" transform="translate(2.64 0)" fill="#3eaeab"/>
          <rect id="Retângulo_2938" data-name="Retângulo 2938" width="0.069" height="2.779" transform="translate(2.71 0)" fill="#3eaeab"/>
          <path id="Caminho_3321" data-name="Caminho 3321" d="M242.978,156.46v0Z" transform="translate(-240.199 -153.681)" fill="#3eaeab"/>
        </g>
      </g>
    </g>
    <g id="Grupo_8551" data-name="Grupo 8551" transform="translate(715.616 1827.009)" opacity="0.8">
      <path id="Caminho_3323" data-name="Caminho 3323" d="M273.518,144.271h-3.292a.236.236,0,0,1-.174-.076l-2.673-2.868-2.689,2.869a.238.238,0,0,1-.173.075h-4.88a.238.238,0,0,1-.237-.238v-4.8c0-2.4-1.018-2.4-1.453-2.4a2.159,2.159,0,0,0-2.022,2.3v4.9a.238.238,0,0,1-.238.238h-2.449a.238.238,0,0,1-.238-.238v-4.571c0-.982-.277-2.643-1.314-2.643a2.307,2.307,0,0,0-2.177,1.918c0,.766,0,1.575.008,2.385s.009,1.624.009,2.393v.518a.238.238,0,0,1-.238.238H246.8a.238.238,0,0,1-.238-.238v-9.745a.238.238,0,0,1,.238-.238h2.484a.238.238,0,0,1,.238.238v.325a4.8,4.8,0,0,1,2.315-.6,4.028,4.028,0,0,1,3,1.4,4.757,4.757,0,0,1,3.231-1.4c2.705,0,4.257,1.747,4.257,4.791v3.7l3.128-3.353-4.4-4.736a.238.238,0,0,1,.174-.4h3.29a.239.239,0,0,1,.173.075l2.69,2.855,2.674-2.854a.237.237,0,0,1,.173-.075h3.288a.238.238,0,0,1,.174.4l-4.382,4.736,4.385,4.721a.238.238,0,0,1-.174.4Zm-3.189-.476h2.644l-4.164-4.483a.238.238,0,0,1,0-.323l4.162-4.5h-2.641l-2.776,2.964a.237.237,0,0,1-.173.075h0a.237.237,0,0,1-.173-.075l-2.793-2.964h-2.643l4.18,4.5a.238.238,0,0,1,0,.324l-3.69,3.957a.238.238,0,0,1-.412-.162v-4.3c0-2.783-1.343-4.316-3.781-4.316a4.419,4.419,0,0,0-3.079,1.454.238.238,0,0,1-.371-.027,3.5,3.5,0,0,0-2.777-1.427,4.287,4.287,0,0,0-2.418.745.238.238,0,0,1-.373-.2v-.515h-2.008v9.27h2.008v-.28c0-.768,0-1.578-.008-2.39s-.009-1.621-.009-2.388a2.745,2.745,0,0,1,2.653-2.394c1.321,0,1.79,1.68,1.79,3.118V143.8h1.974v-4.661a2.628,2.628,0,0,1,2.5-2.774c.477,0,1.928,0,1.928,2.877V143.8h4.54l2.792-2.979a.236.236,0,0,1,.173-.075h0a.237.237,0,0,1,.173.075Z" transform="translate(-246.566 -134.015)" fill="#fff"/>
    </g>
  </g>
</svg>
