<svg id="Grupo_95708" data-name="Grupo 95708" xmlns="http://www.w3.org/2000/svg" xmlns:xlink="http://www.w3.org/1999/xlink" width="325.197" height="302.963" viewBox="0 0 325.197 302.963">
  <defs>
    <clipPath id="clip-path">
      <rect id="Retângulo_39895" data-name="Retângulo 39895" width="325.197" height="302.963" fill="none"/>
    </clipPath>
  </defs>
  <g id="Grupo_95710" data-name="Grupo 95710" clip-path="url(#clip-path)">
    <path id="Retângulo_39888" data-name="Retângulo 39888" d="M13.856,0h119.5a13.856,13.856,0,0,1,13.856,13.856v94.425a13.856,13.856,0,0,1-13.856,13.856H13.855A13.855,13.855,0,0,1,0,108.282V13.856A13.856,13.856,0,0,1,13.856,0Z" transform="translate(0.771 180.054)" fill="none" stroke="#fff" stroke-miterlimit="10" stroke-width="2"/>
    <path id="Retângulo_39889" data-name="Retângulo 39889" d="M13.856,0h119.5a13.856,13.856,0,0,1,13.856,13.856v94.425a13.856,13.856,0,0,1-13.856,13.856H13.855A13.855,13.855,0,0,1,0,108.282V13.856A13.856,13.856,0,0,1,13.856,0Z" transform="translate(161.639 180.054)" fill="none" stroke="#fff" stroke-miterlimit="10" stroke-width="2"/>
    <path id="Caminho_43009" data-name="Caminho 43009" d="M318.428,297.342a17.445,17.445,0,0,1-11.329,7.093,18.32,18.32,0,0,0,8.9-1.476,20.784,20.784,0,0,0,3.012-1.572,18.272,18.272,0,0,0,5.795-6.718c2.375-5.527,1.631-12.454,1.571-19.266,0-.179.082-1.2-.987-1.238l.1,0h-3.693a1.1,1.1,0,0,0-1.26,1.24v12.117c0,2.949.123,6.637-2.1,9.822" transform="translate(-70.2 -62.672)" fill="#fff" fill-rule="evenodd"/>
    <path id="Caminho_43010" data-name="Caminho 43010" d="M287.578,288.582c0,.066,0,.131,0,.2v.056c0,.132.016.261.023.391.006.1.009.191.018.286a13.138,13.138,0,0,0,1.444,5.093q.079.153.162.3c.03.055.058.11.089.163a13.743,13.743,0,0,0,24.6-1.212c-.159.221-.326.434-.5.64-.046.056-.095.11-.143.166-.131.153-.265.3-.4.447-.049.052-.1.1-.147.152-.153.154-.308.3-.466.447l-.106.1a11.824,11.824,0,0,1-1.946,1.393c-.145.083-.292.158-.44.234-.11.057-.217.118-.328.172-.254.122-.511.236-.772.34-.095.038-.192.069-.288.1-.176.066-.353.132-.531.19-.113.036-.228.067-.342.1-.164.048-.329.1-.5.138-.119.029-.238.055-.358.081-.164.036-.329.072-.5.1-.12.022-.241.04-.361.059-.169.025-.337.049-.507.068-.118.014-.238.025-.357.036-.173.015-.347.026-.521.035-.115.006-.231.012-.347.014-.181,0-.362,0-.542,0a12.645,12.645,0,0,1-11.63-7.452,12.926,12.926,0,0,1-.91-3.307q-.059-.434-.09-.872c0-.065-.006-.13-.01-.2-.013-.236-.019-.471-.019-.707,0-.078,0-.156,0-.234.005-.294.018-.588.043-.881l0-.015c.025-.286.063-.571.109-.855.012-.079.025-.157.04-.236.042-.234.089-.465.144-.7.015-.061.027-.121.042-.181.072-.282.154-.56.245-.835.021-.062.045-.123.066-.185.077-.22.162-.438.252-.653.032-.075.063-.15.1-.225.12-.268.245-.533.386-.791a9.938,9.938,0,0,1,4.283-4.179,12.5,12.5,0,0,1,4.188-1.259l.186-.022.092-.008.119-.011.16-.013.069-.005.2-.013.051,0,.2-.012.061,0,.191-.008.086,0,.173-.006.111,0,.164,0,.122,0h.438l.133,0,.14,0,.14,0,.129.006.138.006.123.008.13.01.113.012.125.013.1.015.114.017.093.017.131.027c-.024-.006-.048-.009-.072-.016l.012,0a13.7,13.7,0,0,0-17.151,12.959c0,.165,0,.331,0,.5" transform="translate(-65.738 -62.79)" fill="#fff" fill-rule="evenodd"/>
    <path id="Caminho_43011" data-name="Caminho 43011" d="M301.922,275.352a10.836,10.836,0,0,0-7.531,4.568,11.5,11.5,0,0,0-1.9,6.351,11.012,11.012,0,0,1,2.065-4c3.206-3.91,9.035-5.151,13.291-2.242a10.26,10.26,0,0,1,2.353,2.254h4.624c-.063-.126-.142-.265-.238-.419a6.454,6.454,0,0,0-1.038-1.41,13.773,13.773,0,0,0-7.592-5.2h-.005l-.013,0,.009,0a14.912,14.912,0,0,0-4.023.092" transform="translate(-66.861 -62.9)" fill="#fff" fill-rule="evenodd"/>
    <path id="Caminho_43012" data-name="Caminho 43012" d="M314.845,299.406a9.789,9.789,0,0,1-4.479,4.418,14.331,14.331,0,0,0,8.731-4.35l-.006.011.069-.076,0,0,0,0,.029-.069-.049.07Z" transform="translate(-70.947 -68.426)" fill="#fff" fill-rule="evenodd"/>
    <path id="Caminho_43013" data-name="Caminho 43013" d="M304.178,284.141a6.219,6.219,0,1,0,6.221,6.22,6.221,6.221,0,0,0-6.221-6.22" transform="translate(-68.111 -64.952)" fill="#fff" fill-rule="evenodd"/>
    <path id="Caminho_43014" data-name="Caminho 43014" d="M288.1,307.427A20.886,20.886,0,0,0,297.253,310c.229.012.46.016.69.021.14,0,.275.013.415.013l.04,0,.049,0a21.887,21.887,0,0,0,20.581-14.353,20.292,20.292,0,0,0,1.137-5.236c.029-.278.049-.558.069-.839,0-.017,0-.034,0-.05.015-.218.025-.437.033-.656.023-.487.039-.977.046-1.475-.011.141-.023.281-.035.421-.014.156-.029.31-.045.465-.006.056-.012.113-.018.169-.015.151-.032.3-.05.451-.008.059-.015.117-.022.176q-.028.22-.058.438c-.009.062-.018.123-.027.186-.02.141-.042.282-.066.423-.009.065-.021.129-.032.194-.023.137-.047.274-.073.41-.012.067-.025.133-.038.2-.026.134-.053.267-.081.4-.014.068-.029.136-.044.2-.029.131-.059.261-.089.39-.016.069-.033.138-.05.207-.032.127-.063.252-.1.376-.018.072-.039.143-.059.214q-.051.184-.1.366c-.023.072-.045.144-.067.216-.036.119-.075.237-.114.354-.024.073-.049.147-.075.22-.041.115-.081.23-.123.344-.028.074-.056.147-.085.221-.043.112-.086.224-.132.334-.03.075-.062.149-.094.223q-.068.163-.14.325c-.034.075-.069.149-.1.224-.049.1-.1.211-.151.316-.037.075-.076.149-.114.223-.052.1-.106.205-.16.306-.042.076-.084.15-.127.224-.056.1-.113.2-.171.3-.045.076-.092.15-.139.224-.059.1-.118.192-.18.287-.05.075-.1.149-.152.224-.063.093-.125.186-.191.278-.053.075-.11.148-.164.223s-.133.18-.2.268-.118.147-.177.221-.14.174-.213.26-.127.146-.191.218-.147.168-.224.251-.138.145-.207.217-.155.162-.235.242-.148.143-.223.215-.161.156-.245.232-.161.143-.242.214-.167.148-.254.221-.174.143-.262.213-.172.141-.262.211-.187.141-.282.211-.178.135-.272.2-.2.14-.3.21-.183.127-.278.19-.218.139-.329.207c-.095.059-.187.12-.285.179-.117.071-.24.139-.361.208-.094.055-.187.11-.285.164-.13.073-.268.143-.4.214-.092.049-.181.1-.275.145-.153.078-.311.154-.469.228-.081.039-.16.079-.241.118-.242.113-.491.224-.744.332-.292.124-.585.239-.879.349-.091.035-.184.066-.275.1-.206.074-.413.145-.621.211-.1.033-.205.066-.307.1q-.315.095-.629.179c-.09.024-.181.05-.272.073-.3.075-.6.145-.894.205l-.038.007c-.287.058-.573.107-.861.151-.093.015-.188.026-.282.039-.21.029-.42.056-.629.077l-.312.03q-.321.028-.64.045c-.091.005-.181.012-.272.015q-.451.019-.9.015l-.08,0c-.273,0-.547-.012-.821-.028-.1,0-.194-.013-.292-.02q-.31-.022-.62-.053c-.106-.011-.211-.023-.316-.035-.214-.025-.427-.056-.639-.088l-.267-.041c-.3-.05-.6-.106-.893-.171-.035-.008-.072-.018-.107-.025a20.805,20.805,0,0,1-3.769-1.228c-12.678-5.5-10.713-16.78-10.782-28.268,0-.805-.375-1.224-1.079-1.254.049,0,.1,0,.143,0-.033,0-.066,0-.1,0h-4.058a1.129,1.129,0,0,0-1.237,1.272v12.7A21.894,21.894,0,0,0,288.1,307.427" transform="translate(-63.24 -62.667)" fill="#fff" fill-rule="evenodd"/>
    <path id="Caminho_43015" data-name="Caminho 43015" d="M242.942,335.708c-2.654.346-4.729-.087-4.729-2.879v-9.95H234.76v10.33a5.559,5.559,0,0,0,1.112,3.727c1.889,2.152,7.982,1.6,10.522.926v-14.87h-3.452Z" transform="translate(-53.664 -73.808)" fill="#fff" fill-rule="evenodd"/>
    <path id="Caminho_43016" data-name="Caminho 43016" d="M260.6,329.484a3.531,3.531,0,0,0-1.489-1.044,6.472,6.472,0,0,0-2.355-.37,17.044,17.044,0,0,0-2.661.2,17.743,17.743,0,0,0-2.07.433v10.726h3.147v-8.573q.3-.042.676-.074t.718-.031a1.638,1.638,0,0,1,1.5.633,4.242,4.242,0,0,1,.4,2.154v5.891h3.147v-6.271a8.528,8.528,0,0,0-.232-2.07,4.068,4.068,0,0,0-.781-1.6" transform="translate(-57.611 -74.994)" fill="#fff" fill-rule="evenodd"/>
    <rect id="Retângulo_39890" data-name="Retângulo 39890" width="3.146" height="11.106" transform="translate(205.582 253.329)" fill="#fff"/>
    <path id="Caminho_43017" data-name="Caminho 43017" d="M267.971,321.829a1.925,1.925,0,0,0-1.32.5,1.937,1.937,0,0,0,0,2.723,2,2,0,0,0,2.64,0,1.935,1.935,0,0,0,0-2.723,1.925,1.925,0,0,0-1.32-.5" transform="translate(-60.827 -73.568)" fill="#fff" fill-rule="evenodd"/>
    <path id="Caminho_43018" data-name="Caminho 43018" d="M283.274,335.193a5.428,5.428,0,0,1-.781.264,9.628,9.628,0,0,1-1.014.2,8.842,8.842,0,0,1-1.288.085,4.616,4.616,0,0,1-1.943-.37,3.439,3.439,0,0,1-1.3-1,3.993,3.993,0,0,1-.717-1.51,7.671,7.671,0,0,1-.222-1.889,6.067,6.067,0,0,1,.338-2.154,4.049,4.049,0,0,1,.9-1.446,3.388,3.388,0,0,1,1.288-.813,4.527,4.527,0,0,1,1.49-.253,7.54,7.54,0,0,1,2.038.253,8.027,8.027,0,0,1,1.574.612l.95-2.66c-.113-.071-.3-.17-.549-.3a6.6,6.6,0,0,0-.95-.369,10.754,10.754,0,0,0-1.331-.317,9.518,9.518,0,0,0-1.689-.137,8.537,8.537,0,0,0-2.978.507,6.542,6.542,0,0,0-2.365,1.488,6.984,6.984,0,0,0-1.563,2.407,8.665,8.665,0,0,0-.57,3.241,7.911,7.911,0,0,0,1.869,5.637,7.114,7.114,0,0,0,5.438,1.985,11.445,11.445,0,0,0,2.935-.338,7.731,7.731,0,0,0,1.964-.761l-.907-2.639q-.275.126-.613.275" transform="translate(-62.312 -73.924)" fill="#fff" fill-rule="evenodd"/>
    <path id="Caminho_43019" data-name="Caminho 43019" d="M293.425,328.015a5.312,5.312,0,0,0-1.974.38,4.954,4.954,0,0,0-1.7,1.119,5.545,5.545,0,0,0-1.193,1.848,6.776,6.776,0,0,0-.454,2.586,7.237,7.237,0,0,0,.349,2.28,4.812,4.812,0,0,0,1.078,1.827,5.072,5.072,0,0,0,1.837,1.213,6.991,6.991,0,0,0,2.608.444,11.045,11.045,0,0,0,1.183-.064q.591-.063,1.109-.158a8.724,8.724,0,0,0,.94-.222,4.316,4.316,0,0,0,.677-.253l-.423-2.554a6.465,6.465,0,0,1-1.363.39,9.146,9.146,0,0,1-1.7.158,3.651,3.651,0,0,1-2.155-.57,2.093,2.093,0,0,1-.908-1.541h7.138c.014-.169.029-.363.042-.581s.022-.418.022-.6a5.959,5.959,0,0,0-1.373-4.254,4.908,4.908,0,0,0-3.738-1.446m-2.091,4.729a4.56,4.56,0,0,1,.2-.791,2.134,2.134,0,0,1,.391-.687,1.893,1.893,0,0,1,.633-.475,2.114,2.114,0,0,1,.908-.179,2,2,0,0,1,.919.19,1.9,1.9,0,0,1,.612.486,1.94,1.94,0,0,1,.359.675,3.224,3.224,0,0,1,.137.781Z" transform="translate(-65.858 -74.982)" fill="#fff" fill-rule="evenodd"/>
    <path id="Caminho_43020" data-name="Caminho 43020" d="M310.679,334.2a4.063,4.063,0,0,0-1.067-.8,12.771,12.771,0,0,0-1.71-.757c-.337-.126-.616-.243-.834-.352a3.509,3.509,0,0,1-.518-.3.712.712,0,0,1-.253-.285.846.846,0,0,1-.064-.338q0-.824,1.479-.823a6.475,6.475,0,0,1,1.446.148,11.4,11.4,0,0,1,1.193.338l.549-2.449a8.973,8.973,0,0,0-1.478-.391,10.236,10.236,0,0,0-1.942-.179,5.054,5.054,0,0,0-3.189.907,2.97,2.97,0,0,0-1.162,2.471,3.633,3.633,0,0,0,.232,1.372,2.854,2.854,0,0,0,.655.981,3.92,3.92,0,0,0,1.024.707,14.5,14.5,0,0,0,1.341.571,8.882,8.882,0,0,1,1.416.643.8.8,0,0,1,.464.665.652.652,0,0,1-.359.655,3.142,3.142,0,0,1-1.225.169,8.005,8.005,0,0,1-1.668-.18,10.288,10.288,0,0,1-1.648-.5l-.528,2.555a9.888,9.888,0,0,0,3.823.676,6.177,6.177,0,0,0,3.494-.841,2.821,2.821,0,0,0,1.236-2.488,4.24,4.24,0,0,0-.158-1.221,2.5,2.5,0,0,0-.549-.961" transform="translate(-69.225 -74.982)" fill="#fff" fill-rule="evenodd"/>
    <path id="Caminho_43021" data-name="Caminho 43021" d="M321.8,336.97q-.3.043-.676.074c-.255.021-.494.032-.719.032a1.6,1.6,0,0,1-1.5-.676,4.507,4.507,0,0,1-.4-2.2V328.4h-3.147v6.186a8.785,8.785,0,0,0,.233,2.091,4.146,4.146,0,0,0,.781,1.636,3.579,3.579,0,0,0,1.489,1.066,6.313,6.313,0,0,0,2.355.38,17.031,17.031,0,0,0,2.661-.2,17.4,17.4,0,0,0,2.07-.433V328.4H321.8Z" transform="translate(-72.089 -75.069)" fill="#fff" fill-rule="evenodd"/>
    <path id="Caminho_43022" data-name="Caminho 43022" d="M344.44,329.484a3.291,3.291,0,0,0-1.362-1.044,5.544,5.544,0,0,0-2.186-.37,5.9,5.9,0,0,0-3.168,1.034,4.4,4.4,0,0,0-1.234-.729,5.25,5.25,0,0,0-1.953-.305c-.409,0-.824.017-1.247.052s-.833.084-1.235.147-.781.134-1.14.211-.672.151-.94.221v10.726h3.147v-8.573c.2-.028.4-.052.612-.074s.414-.031.612-.031a1.45,1.45,0,0,1,1.341.633,4.339,4.339,0,0,1,.39,2.154v5.891h3.147v-6.06q0-.612-.042-1.15a4.807,4.807,0,0,0-.19-1.024,2.76,2.76,0,0,1,.749-.317,2.881,2.881,0,0,1,.708-.126,1.449,1.449,0,0,1,1.341.633,4.337,4.337,0,0,1,.391,2.154v5.891h3.146v-6.271a10.371,10.371,0,0,0-.19-2.07,3.971,3.971,0,0,0-.7-1.6" transform="translate(-75.43 -74.994)" fill="#fff" fill-rule="evenodd"/>
    <path id="Caminho_43023" data-name="Caminho 43023" d="M359.695,329.239a3.605,3.605,0,0,0-1.489-.907,7.277,7.277,0,0,0-2.322-.317q-.55,0-1.088.053t-1.024.126c-.323.049-.623.106-.9.169s-.5.123-.686.179l.4,2.534a6.823,6.823,0,0,1,1.351-.328,10.807,10.807,0,0,1,1.585-.116,2.355,2.355,0,0,1,1.689.485,1.745,1.745,0,0,1,.485,1.289v.295a4.78,4.78,0,0,0-.771-.137,9.863,9.863,0,0,0-1.087-.053,8.378,8.378,0,0,0-1.754.18,4.722,4.722,0,0,0-1.5.58,3.017,3.017,0,0,0-1.046,1.077,3.237,3.237,0,0,0-.391,1.647,3.886,3.886,0,0,0,.339,1.71,2.86,2.86,0,0,0,.971,1.13,4.249,4.249,0,0,0,1.51.623,9.257,9.257,0,0,0,1.953.19,18.107,18.107,0,0,0,2.915-.2q1.2-.2,1.879-.349v-6.545a7.1,7.1,0,0,0-.232-1.879,3.343,3.343,0,0,0-.792-1.436m-2,7.9a6,6,0,0,1-.676.063c-.281.014-.577.022-.887.022a2.734,2.734,0,0,1-1.362-.285,1.077,1.077,0,0,1-.5-1.024,1.115,1.115,0,0,1,.169-.633,1.175,1.175,0,0,1,.464-.4,2.164,2.164,0,0,1,.687-.2,6.2,6.2,0,0,1,.835-.053,6.269,6.269,0,0,1,.7.042,5.62,5.62,0,0,1,.57.084Z" transform="translate(-80.271 -74.982)" fill="#fff" fill-rule="evenodd"/>
    <path id="Caminho_43024" data-name="Caminho 43024" d="M372.4,328.34c-.239-.049-.479-.091-.718-.126s-.478-.063-.717-.085-.444-.032-.613-.032a11.493,11.493,0,0,0-2.565.264,19.025,19.025,0,0,0-2,.56v10.514h3.146v-8.488a4.092,4.092,0,0,1,.623-.116,5.625,5.625,0,0,1,.707-.052,6.159,6.159,0,0,1,1.226.116q.57.116.993.221l.528-2.6a3.391,3.391,0,0,0-.612-.18" transform="translate(-83.616 -75)" fill="#fff" fill-rule="evenodd"/>
    <path id="Caminho_43025" data-name="Caminho 43025" d="M238.731,349.362v-2.315h1.564v.437h-1.042v.454h.926v.427h-.926v.559h1.119v.437Z" transform="translate(-54.572 -79.332)" fill="#fff"/>
    <path id="Caminho_43026" data-name="Caminho 43026" d="M244.923,348.195a1.349,1.349,0,0,1-.094.525.967.967,0,0,1-.265.371,1.14,1.14,0,0,1-.42.221,1.956,1.956,0,0,1-.555.073c-.093,0-.2,0-.327-.012a2.638,2.638,0,0,1-.368-.049v-2.255a3.046,3.046,0,0,1,.376-.046q.2-.012.336-.012a2.025,2.025,0,0,1,.54.067,1.109,1.109,0,0,1,.416.211.937.937,0,0,1,.267.367,1.391,1.391,0,0,1,.094.538m-1.507.735.085.005.116,0a.766.766,0,0,0,.579-.2.751.751,0,0,0,.189-.545.654.654,0,0,0-.752-.738l-.11,0c-.039,0-.074,0-.107.009Z" transform="translate(-55.524 -79.324)" fill="#fff"/>
    <path id="Caminho_43027" data-name="Caminho 43027" d="M248.52,349.408a1.171,1.171,0,0,1-.421-.069.78.78,0,0,1-.292-.191.771.771,0,0,1-.17-.29,1.211,1.211,0,0,1-.055-.373v-1.44h.521v1.4a.769.769,0,0,0,.032.239.44.44,0,0,0,.086.16.316.316,0,0,0,.134.089.529.529,0,0,0,.172.026.42.42,0,0,0,.309-.117.544.544,0,0,0,.119-.4v-1.4h.521v1.44a1.179,1.179,0,0,1-.057.374.741.741,0,0,1-.471.481,1.225,1.225,0,0,1-.427.067" transform="translate(-56.595 -79.332)" fill="#fff"/>
    <path id="Caminho_43028" data-name="Caminho 43028" d="M253.25,349.392a1.125,1.125,0,0,1-.86-.314,1.25,1.25,0,0,1-.3-.892,1.37,1.37,0,0,1,.09-.513,1.109,1.109,0,0,1,.248-.381,1.026,1.026,0,0,1,.374-.235,1.356,1.356,0,0,1,.471-.08,1.491,1.491,0,0,1,.267.022,1.85,1.85,0,0,1,.211.05,1.081,1.081,0,0,1,.15.059c.04.02.069.035.087.047l-.15.42a1.242,1.242,0,0,0-.249-.1,1.178,1.178,0,0,0-.322-.04.7.7,0,0,0-.235.04.533.533,0,0,0-.2.128.65.65,0,0,0-.142.229.965.965,0,0,0-.053.341,1.223,1.223,0,0,0,.035.3.644.644,0,0,0,.114.239.544.544,0,0,0,.205.159.74.74,0,0,0,.308.058,1.357,1.357,0,0,0,.2-.013,1.417,1.417,0,0,0,.16-.032.881.881,0,0,0,.123-.042l.1-.044.143.418a1.208,1.208,0,0,1-.311.12,1.817,1.817,0,0,1-.464.053" transform="translate(-57.627 -79.316)" fill="#fff"/>
    <path id="Caminho_43029" data-name="Caminho 43029" d="M258.174,349.361q-.039-.12-.083-.248c-.029-.085-.059-.169-.089-.253h-.9l-.088.254c-.029.085-.057.167-.082.247h-.542q.131-.374.248-.691c.079-.211.155-.411.23-.6s.149-.365.221-.533.148-.333.226-.493h.494q.115.241.225.493t.223.533c.076.187.152.386.231.6s.16.442.248.691Zm-.626-1.79c-.012.034-.029.079-.051.137l-.076.2c-.029.076-.061.16-.1.251s-.071.187-.107.287h.662c-.035-.1-.069-.2-.1-.288s-.066-.175-.095-.252-.056-.143-.079-.2-.041-.1-.055-.136" transform="translate(-58.608 -79.332)" fill="#fff"/>
    <path id="Caminho_43030" data-name="Caminho 43030" d="M262.389,349.389c-.008.018-.017.035-.023.05l-.017.04a.326.326,0,0,1,.147.126.319.319,0,0,1,.04.15.273.273,0,0,1-.127.244.594.594,0,0,1-.334.084.947.947,0,0,1-.147-.012c-.049-.008-.1-.019-.147-.032l.06-.291.085.022a.517.517,0,0,0,.122.015.18.18,0,0,0,.082-.018.074.074,0,0,0,.039-.066.089.089,0,0,0-.032-.073.229.229,0,0,0-.112-.05l-.04-.01c.008-.027.021-.058.035-.092s.029-.068.042-.1a1.012,1.012,0,0,1-.709-.363,1.307,1.307,0,0,1-.241-.83,1.374,1.374,0,0,1,.09-.513,1.1,1.1,0,0,1,.248-.38,1.034,1.034,0,0,1,.374-.236,1.356,1.356,0,0,1,.471-.08,1.565,1.565,0,0,1,.267.022,1.851,1.851,0,0,1,.211.05,1.08,1.08,0,0,1,.15.059c.04.02.069.035.087.047l-.15.421a1.243,1.243,0,0,0-.249-.1,1.178,1.178,0,0,0-.322-.04.7.7,0,0,0-.235.04.526.526,0,0,0-.2.129.641.641,0,0,0-.143.228.965.965,0,0,0-.053.341,1.194,1.194,0,0,0,.035.3.627.627,0,0,0,.113.238.544.544,0,0,0,.205.159.728.728,0,0,0,.308.059,1.35,1.35,0,0,0,.2-.014,1.416,1.416,0,0,0,.16-.032.85.85,0,0,0,.123-.042l.1-.043.143.417a1.078,1.078,0,0,1-.265.109,1.831,1.831,0,0,1-.39.062" transform="translate(-59.688 -79.316)" fill="#fff"/>
    <path id="Caminho_43031" data-name="Caminho 43031" d="M267.192,349.136c-.026-.08-.053-.163-.083-.248s-.059-.169-.089-.253h-.9l-.088.254c-.029.085-.057.167-.082.247H265.4q.131-.374.248-.691c.079-.211.155-.411.23-.6s.149-.365.221-.533.148-.332.226-.493h.494q.113.241.225.493c.074.168.148.346.224.533s.151.386.23.6.16.442.248.691Zm.01-2.913a.852.852,0,0,1-.055.11.59.59,0,0,1-.086.112.436.436,0,0,1-.113.085.3.3,0,0,1-.14.034.33.33,0,0,1-.112-.019c-.035-.012-.069-.025-.1-.04s-.067-.028-.1-.04a.3.3,0,0,0-.1-.018.15.15,0,0,0-.11.043.351.351,0,0,0-.07.1l-.244-.16a.805.805,0,0,1,.055-.11.589.589,0,0,1,.085-.113.474.474,0,0,1,.114-.085.293.293,0,0,1,.14-.033.33.33,0,0,1,.112.019c.034.012.069.025.1.04l.1.04a.306.306,0,0,0,.1.018.148.148,0,0,0,.11-.043.368.368,0,0,0,.07-.1Zm-.636,1.122c-.012.034-.029.079-.051.137l-.076.2c-.029.076-.061.16-.1.251s-.071.187-.107.287h.662c-.035-.1-.069-.2-.1-.288s-.065-.175-.095-.251-.056-.143-.079-.2-.041-.1-.055-.136" transform="translate(-60.67 -79.107)" fill="#fff"/>
    <path id="Caminho_43032" data-name="Caminho 43032" d="M272.436,348.187a1.434,1.434,0,0,1-.088.523,1.084,1.084,0,0,1-.242.377,1,1,0,0,1-.366.229,1.334,1.334,0,0,1-.456.076,1.3,1.3,0,0,1-.447-.076,1.045,1.045,0,0,1-.368-.229,1.062,1.062,0,0,1-.247-.377,1.4,1.4,0,0,1-.09-.523,1.355,1.355,0,0,1,.093-.523,1.108,1.108,0,0,1,.252-.379,1.032,1.032,0,0,1,.367-.231,1.273,1.273,0,0,1,.44-.077,1.3,1.3,0,0,1,.447.077,1.016,1.016,0,0,1,.368.231,1.077,1.077,0,0,1,.248.379,1.418,1.418,0,0,1,.089.523m-1.767,0a1.052,1.052,0,0,0,.042.307.7.7,0,0,0,.12.236.534.534,0,0,0,.192.152.661.661,0,0,0,.52,0,.533.533,0,0,0,.194-.152.7.7,0,0,0,.12-.236,1.052,1.052,0,0,0,.042-.307,1.075,1.075,0,0,0-.042-.309.7.7,0,0,0-.12-.237.533.533,0,0,0-.194-.152.613.613,0,0,0-.259-.053.586.586,0,0,0-.261.055.556.556,0,0,0-.192.154.7.7,0,0,0-.12.238,1.06,1.06,0,0,0-.042.306" transform="translate(-61.75 -79.316)" fill="#fff"/>
    <path id="Caminho_43033" data-name="Caminho 43033" d="M278.493,347.012a1.453,1.453,0,0,1,.8.182.661.661,0,0,1,.277.6.669.669,0,0,1-.281.6,1.452,1.452,0,0,1-.8.185h-.164v.775H277.8v-2.282a2.991,2.991,0,0,1,.36-.047c.127-.008.238-.013.335-.013m.033.444c-.038,0-.076,0-.112,0l-.1.007v.668h.164a.891.891,0,0,0,.407-.073.284.284,0,0,0,.137-.274.323.323,0,0,0-.035-.16.259.259,0,0,0-.1-.1.453.453,0,0,0-.159-.053,1.3,1.3,0,0,0-.207-.015" transform="translate(-63.502 -79.324)" fill="#fff"/>
    <path id="Caminho_43034" data-name="Caminho 43034" d="M282.8,347.012a1.434,1.434,0,0,1,.8.185.645.645,0,0,1,.278.576.658.658,0,0,1-.112.4.739.739,0,0,1-.322.238c.047.058.1.124.147.2s.1.153.152.234.1.166.146.254.09.174.13.259h-.583l-.129-.231c-.044-.078-.088-.154-.134-.227s-.091-.143-.136-.209-.09-.126-.134-.179h-.258v.845h-.521v-2.282a2.986,2.986,0,0,1,.353-.047c.121-.008.23-.013.326-.013m.03.444c-.038,0-.072,0-.1,0l-.086.007v.628h.147a.885.885,0,0,0,.421-.073.266.266,0,0,0,.126-.251.255.255,0,0,0-.128-.242.8.8,0,0,0-.38-.072" transform="translate(-64.492 -79.324)" fill="#fff"/>
    <path id="Caminho_43035" data-name="Caminho 43035" d="M286.552,349.362v-2.315h1.564v.437h-1.042v.454H288v.427h-.926v.559h1.119v.437Z" transform="translate(-65.504 -79.332)" fill="#fff"/>
    <path id="Caminho_43036" data-name="Caminho 43036" d="M291.3,348.948a.748.748,0,0,0,.182-.019.324.324,0,0,0,.115-.05.163.163,0,0,0,.06-.075.263.263,0,0,0,.017-.1.221.221,0,0,0-.107-.188,1.514,1.514,0,0,0-.367-.163c-.076-.026-.151-.057-.228-.092a.819.819,0,0,1-.2-.13.616.616,0,0,1-.147-.19.589.589,0,0,1-.057-.272.674.674,0,0,1,.06-.289.622.622,0,0,1,.171-.219.781.781,0,0,1,.267-.138,1.2,1.2,0,0,1,.354-.049,1.428,1.428,0,0,1,.4.05,1.451,1.451,0,0,1,.281.11l-.15.41a1.431,1.431,0,0,0-.216-.088.936.936,0,0,0-.285-.039.524.524,0,0,0-.269.052.174.174,0,0,0-.082.159.181.181,0,0,0,.03.106.283.283,0,0,0,.086.079.72.72,0,0,0,.126.063c.048.019.1.039.159.059q.181.067.314.132a.834.834,0,0,1,.222.152.549.549,0,0,1,.132.2.812.812,0,0,1,.043.284.6.6,0,0,1-.227.5,1.093,1.093,0,0,1-.685.179,1.891,1.891,0,0,1-.278-.018,1.832,1.832,0,0,1-.218-.045,1.253,1.253,0,0,1-.164-.057,1.057,1.057,0,0,1-.115-.057l.147-.414a1.291,1.291,0,0,0,.255.1,1.321,1.321,0,0,0,.373.046" transform="translate(-66.412 -79.316)" fill="#fff"/>
    <path id="Caminho_43037" data-name="Caminho 43037" d="M294.773,349.362v-2.315h1.564v.437h-1.042v.454h.926v.427h-.926v.559h1.119v.437Z" transform="translate(-67.383 -79.332)" fill="#fff"/>
    <path id="Caminho_43038" data-name="Caminho 43038" d="M300.49,349.362q-.224-.4-.484-.785a7.9,7.9,0,0,0-.555-.731v1.517h-.514v-2.315h.424c.073.073.155.164.244.271s.18.221.272.342.184.248.276.378.177.255.257.376v-1.366h.518v2.315Z" transform="translate(-68.334 -79.332)" fill="#fff"/>
    <path id="Caminho_43039" data-name="Caminho 43039" d="M304.774,349.392a1.125,1.125,0,0,1-.86-.314,1.249,1.249,0,0,1-.3-.892,1.371,1.371,0,0,1,.09-.513,1.108,1.108,0,0,1,.248-.381,1.026,1.026,0,0,1,.374-.235,1.356,1.356,0,0,1,.471-.08,1.491,1.491,0,0,1,.267.022,1.851,1.851,0,0,1,.211.05,1.079,1.079,0,0,1,.15.059c.04.02.069.035.087.047l-.15.42a1.242,1.242,0,0,0-.249-.1,1.178,1.178,0,0,0-.322-.04.709.709,0,0,0-.236.04.536.536,0,0,0-.2.128.65.65,0,0,0-.142.229.964.964,0,0,0-.053.341,1.223,1.223,0,0,0,.035.3.643.643,0,0,0,.114.239.544.544,0,0,0,.205.159.74.74,0,0,0,.308.058,1.356,1.356,0,0,0,.2-.013,1.416,1.416,0,0,0,.16-.032.882.882,0,0,0,.123-.042l.1-.044.143.418a1.208,1.208,0,0,1-.311.12,1.817,1.817,0,0,1-.464.053" transform="translate(-69.405 -79.316)" fill="#fff"/>
    <rect id="Retângulo_39891" data-name="Retângulo 39891" width="0.521" height="2.315" transform="translate(237.665 267.714)" fill="#fff"/>
    <path id="Caminho_43040" data-name="Caminho 43040" d="M312.483,349.361c-.026-.08-.053-.163-.083-.248s-.059-.169-.089-.253h-.9l-.088.254c-.029.085-.057.167-.082.247H310.7q.131-.374.248-.691c.079-.211.155-.411.23-.6s.149-.365.221-.533.148-.333.226-.493h.494q.113.241.224.493c.074.168.148.346.224.533s.151.386.23.6.16.442.248.691Zm-.626-1.79c-.012.034-.029.079-.051.137l-.076.2c-.029.076-.061.16-.1.251s-.071.187-.107.287h.662c-.035-.1-.069-.2-.1-.288s-.065-.175-.095-.252-.056-.143-.079-.2-.041-.1-.055-.136" transform="translate(-71.023 -79.332)" fill="#fff"/>
    <path id="Caminho_43041" data-name="Caminho 43041" d="M317.207,348.914v.447H315.66v-2.315h.521v1.868Z" transform="translate(-72.157 -79.332)" fill="#fff"/>
    <path id="Caminho_43042" data-name="Caminho 43042" d="M322.214,349.362v-2.315h1.564v.437h-1.042v.454h.926v.427h-.926v.559h1.119v.437Z" transform="translate(-73.656 -79.332)" fill="#fff"/>
    <path id="Caminho_43043" data-name="Caminho 43043" d="M330.438,349.361c-.026-.08-.053-.163-.083-.248s-.059-.169-.089-.253h-.9l-.088.254c-.029.085-.057.167-.082.247h-.542q.131-.374.248-.691c.079-.211.155-.411.23-.6s.149-.365.221-.533.148-.333.226-.493h.494q.113.241.224.493c.074.168.148.346.224.533s.151.386.23.6.16.442.248.691Zm-.626-1.79c-.012.034-.029.079-.051.137l-.076.2c-.029.076-.061.16-.1.251s-.071.187-.107.287h.662c-.035-.1-.069-.2-.1-.288s-.065-.175-.095-.252-.056-.143-.079-.2-.041-.1-.055-.136" transform="translate(-75.127 -79.332)" fill="#fff"/>
    <path id="Caminho_43044" data-name="Caminho 43044" d="M338.221,348.195a1.35,1.35,0,0,1-.094.525.967.967,0,0,1-.265.371,1.14,1.14,0,0,1-.42.221,1.956,1.956,0,0,1-.555.073c-.093,0-.2,0-.327-.012a2.639,2.639,0,0,1-.368-.049v-2.255a3.047,3.047,0,0,1,.376-.046c.13-.008.242-.012.336-.012a2.025,2.025,0,0,1,.54.067,1.109,1.109,0,0,1,.416.211.938.938,0,0,1,.267.367,1.392,1.392,0,0,1,.094.538m-1.507.735.085.005.116,0a.766.766,0,0,0,.579-.2.751.751,0,0,0,.189-.545.654.654,0,0,0-.752-.738l-.11,0c-.039,0-.074,0-.107.009Z" transform="translate(-76.851 -79.324)" fill="#fff"/>
    <rect id="Retângulo_39892" data-name="Retângulo 39892" width="0.521" height="2.315" transform="translate(262.99 267.714)" fill="#fff"/>
    <path id="Caminho_43045" data-name="Caminho 43045" d="M344.417,348.948a.747.747,0,0,0,.182-.019.324.324,0,0,0,.115-.05.163.163,0,0,0,.06-.075.263.263,0,0,0,.017-.1.221.221,0,0,0-.107-.188,1.514,1.514,0,0,0-.367-.163c-.076-.026-.151-.057-.228-.092a.819.819,0,0,1-.2-.13.616.616,0,0,1-.147-.19.589.589,0,0,1-.057-.272.674.674,0,0,1,.06-.289.622.622,0,0,1,.171-.219.782.782,0,0,1,.267-.138,1.2,1.2,0,0,1,.354-.049,1.428,1.428,0,0,1,.4.05,1.45,1.45,0,0,1,.281.11l-.151.41a1.389,1.389,0,0,0-.215-.088.936.936,0,0,0-.285-.039.523.523,0,0,0-.269.052.174.174,0,0,0-.082.159.181.181,0,0,0,.03.106.284.284,0,0,0,.086.079.721.721,0,0,0,.127.063c.048.019.1.039.159.059.12.045.224.089.314.132a.834.834,0,0,1,.222.152.55.55,0,0,1,.132.2.812.812,0,0,1,.043.284.6.6,0,0,1-.227.5,1.094,1.094,0,0,1-.685.179,1.891,1.891,0,0,1-.278-.018,1.834,1.834,0,0,1-.218-.045,1.255,1.255,0,0,1-.164-.057,1.06,1.06,0,0,1-.115-.057l.147-.414a1.291,1.291,0,0,0,.255.1,1.321,1.321,0,0,0,.373.046" transform="translate(-78.554 -79.316)" fill="#fff"/>
    <path id="Caminho_43046" data-name="Caminho 43046" d="M349.459,347.047v.444h-.7v1.871h-.521v-1.871h-.7v-.444Z" transform="translate(-79.445 -79.332)" fill="#fff"/>
    <path id="Caminho_43047" data-name="Caminho 43047" d="M353.127,349.109q-.039-.12-.083-.248c-.029-.085-.059-.169-.089-.253h-.9l-.088.254c-.029.085-.057.167-.083.247h-.541q.131-.374.248-.691c.079-.211.155-.411.23-.6s.149-.365.221-.533.148-.332.226-.493h.494q.115.241.225.493t.223.533c.076.187.152.386.231.6s.16.442.248.691Zm-.093-2.709-.184.221-.336-.258-.335.258-.191-.221.526-.457Zm-.533.919c-.012.034-.029.079-.051.137l-.076.2c-.029.076-.061.16-.1.251s-.071.187-.107.287h.662c-.035-.1-.069-.2-.1-.288s-.066-.175-.095-.251-.056-.143-.079-.2-.041-.1-.055-.136" transform="translate(-80.314 -79.08)" fill="#fff"/>
    <path id="Caminho_43048" data-name="Caminho 43048" d="M357.858,349.362q-.224-.4-.484-.785a8.049,8.049,0,0,0-.555-.731v1.517H356.3v-2.315h.424c.073.073.154.164.244.271s.18.221.272.342.184.248.275.378.177.255.258.376v-1.366h.518v2.315Z" transform="translate(-81.448 -79.332)" fill="#fff"/>
    <path id="Caminho_43049" data-name="Caminho 43049" d="M362.142,349.392a1.125,1.125,0,0,1-.86-.314,1.25,1.25,0,0,1-.3-.892,1.37,1.37,0,0,1,.09-.513,1.108,1.108,0,0,1,.248-.381,1.026,1.026,0,0,1,.374-.235,1.356,1.356,0,0,1,.471-.08,1.491,1.491,0,0,1,.267.022,1.849,1.849,0,0,1,.211.05,1.081,1.081,0,0,1,.15.059c.04.02.069.035.087.047l-.15.42a1.242,1.242,0,0,0-.249-.1,1.178,1.178,0,0,0-.322-.04.7.7,0,0,0-.235.04.533.533,0,0,0-.2.128.65.65,0,0,0-.142.229.966.966,0,0,0-.053.341,1.224,1.224,0,0,0,.035.3.644.644,0,0,0,.114.239.544.544,0,0,0,.205.159.74.74,0,0,0,.308.058,1.357,1.357,0,0,0,.2-.013,1.418,1.418,0,0,0,.16-.032.883.883,0,0,0,.123-.042l.1-.044.143.418a1.208,1.208,0,0,1-.311.12,1.817,1.817,0,0,1-.464.053" transform="translate(-82.519 -79.316)" fill="#fff"/>
    <rect id="Retângulo_39893" data-name="Retângulo 39893" width="0.521" height="2.315" transform="translate(281.919 267.714)" fill="#fff"/>
    <path id="Caminho_43050" data-name="Caminho 43050" d="M369.851,349.361q-.039-.12-.083-.248c-.029-.085-.059-.169-.089-.253h-.9l-.088.254c-.029.085-.057.167-.083.247h-.541q.131-.374.248-.691c.079-.211.155-.411.23-.6s.149-.365.221-.533.148-.333.226-.493h.494q.115.241.225.493t.223.533c.076.187.152.386.231.6s.16.442.248.691Zm-.626-1.79c-.012.034-.029.079-.051.137l-.076.2c-.029.076-.061.16-.1.251s-.071.187-.107.287h.662c-.035-.1-.069-.2-.1-.288s-.066-.175-.095-.252-.056-.143-.079-.2-.041-.1-.055-.136" transform="translate(-84.137 -79.332)" fill="#fff"/>
    <path id="Caminho_43051" data-name="Caminho 43051" d="M157.855,324.964v3.123h-.807v5.73h.807V337h-5.094v-3.183h.808v-5.73h-.808v-3.123Z" transform="translate(-34.92 -74.284)" fill="#fff"/>
    <path id="Caminho_43052" data-name="Caminho 43052" d="M148.2,324.964h0v3.123h-1.154L144.326,337h-2.89l-2.838-8.913H137.38v-3.123h5.037v3.123H141.9l.93,3.072.923-3.072h-.577v-3.123Z" transform="translate(-31.404 -74.284)" fill="#fff"/>
    <path id="Caminho_43053" data-name="Caminho 43053" d="M131.714,324.964h0v3.123h-.926v5.73h1.272v-1.909h3.127V337H126.5v-3.183h.812v-5.73H126.5v-3.123Z" transform="translate(-28.918 -74.284)" fill="#fff"/>
    <path id="Caminho_43054" data-name="Caminho 43054" d="M121.838,324.964h0v3.878h-3.126v-.754h-1.5v1.275h2.779v3.067h-2.779v1.388h1.5v-.811h3.126V337h-8.913v-3.183h.813v-5.73h-.813v-3.123Z" transform="translate(-25.814 -74.284)" fill="#fff"/>
    <path id="Caminho_43055" data-name="Caminho 43055" d="M108.434,330.808h0v4.111L106.347,337h-4.223l-1.912-2.023v-2.2h3.356v1.041h1.388v-1.678h-3.3l-1.562-1.675v-3.477l2.026-2.023h4.34l1.855,1.911v1.966h-3.244v-.754h-1.507v1.159h3.359Z" transform="translate(-22.882 -74.284)" fill="#fff"/>
    <path id="Caminho_43056" data-name="Caminho 43056" d="M96,330.808h0v4.111L93.913,337H89.747l-1.971-2.023v-2.2h3.358v1.041H92.58v-1.678H89.223l-1.5-1.675v-3.477l2.026-2.023h4.279l1.854,1.911v1.966H92.638v-.754h-1.5v1.159H94.49Z" transform="translate(-20.052 -74.284)" fill="#fff"/>
    <path id="Caminho_43057" data-name="Caminho 43057" d="M82.363,333.817l-2.605-8.854h-3.3l-2.834,8.854h-.984V337h4.746v-3.011h-.752l.235-.693h2.254l.173.693h-.752V337h4.922v-3.182Zm-4.749-3.069.407-1.27.348,1.27Z" transform="translate(-16.605 -74.284)" fill="#fff"/>
    <path id="Caminho_43058" data-name="Caminho 43058" d="M69.723,324.964h0v3.123H68.91v5.73h.813V337H64.687v-3.183h.754v-5.73h-.754v-3.123Z" transform="translate(-14.787 -74.284)" fill="#fff"/>
    <path id="Caminho_43059" data-name="Caminho 43059" d="M59.395,324.964h0v3.123h-.812V337H55.576l-3.182-6.019v2.951h.926V337h-4.69v-3.183h.812v-5.73h-.812v-3.123h4.227l2.836,5.383v-2.375h-.868v-3.008Z" transform="translate(-11.116 -74.284)" fill="#fff"/>
    <path id="Caminho_43060" data-name="Caminho 43060" d="M43.661,324.964h0v3.123h-.925v6.832L40.71,337H36.428l-2.021-2.081v-6.832h-.931v-3.123h4.861v3.008h-.461v5.846h1.388v-5.846h-.4v-3.008Z" transform="translate(-7.652 -74.284)" fill="#fff"/>
    <path id="Caminho_43061" data-name="Caminho 43061" d="M130.625,267.05l-.059,6.769a39.1,39.1,0,0,0-48.5,18c-11.11-15.447-34.841-17.3-48.67-4.8v-7.4a39.779,39.779,0,0,1,47.511,2.6c12.906-16.148,31.947-20.427,49.716-15.162" transform="translate(-7.635 -60.558)" fill="#fff"/>
    <path id="Caminho_43062" data-name="Caminho 43062" d="M130.625,281.375l-.059,6.249c-17.242-8.737-39.987.059-43.114,22.277h-8.2c-5.059-15.973-20.394-21.153-32.984-16.237A27.629,27.629,0,0,0,33.4,304.044V295.58C46.861,280.647,73.966,283.4,82.82,303.3c7.464-21.811,29.111-29.624,47.8-21.929" transform="translate(-7.635 -63.66)" fill="#fff"/>
    <path id="Caminho_43063" data-name="Caminho 43063" d="M51.4,350.5a.19.19,0,0,1-.1.023h-.028l-.828-.046q-.5-.028-1.085-.028a1.594,1.594,0,0,0-.5.074.842.842,0,0,0-.382.253,1.207,1.207,0,0,0-.239.482,2.9,2.9,0,0,0-.083.754v1.149a2.621,2.621,0,0,0,.1.781,1.339,1.339,0,0,0,.248.477.789.789,0,0,0,.336.239,1.052,1.052,0,0,0,.349.065q.377,0,.708-.028v-2.114a.187.187,0,0,1,.05-.129.162.162,0,0,1,.124-.056h1.177a.19.19,0,0,1,.184.184v3.089a.2.2,0,0,1-.184.211q-.377.074-.873.133a10.044,10.044,0,0,1-1.186.06,3.051,3.051,0,0,1-.556-.056,2.644,2.644,0,0,1-.589-.184,2.385,2.385,0,0,1-.555-.349,2.339,2.339,0,0,1-.474-.542,2.743,2.743,0,0,1-.326-.768,3.989,3.989,0,0,1-.12-1.025v-1.14a3.636,3.636,0,0,1,.248-1.449,2.383,2.383,0,0,1,.649-.9,2.279,2.279,0,0,1,.9-.459,3.969,3.969,0,0,1,1-.129,7.543,7.543,0,0,1,1.178.078q.486.077.744.133c.1.018.157.064.157.138v.974a.105.105,0,0,1-.037.1" transform="translate(-10.644 -79.796)" fill="#fff"/>
    <path id="Caminho_43064" data-name="Caminho 43064" d="M57.585,351.227a.682.682,0,0,0-.312-.62,1.659,1.659,0,0,0-.888-.2l-.151,0-.215.009-.21.009-.137,0V352.2l.128,0,.2.01c.07,0,.136,0,.2,0h.128a2.984,2.984,0,0,0,.6-.05,1.056,1.056,0,0,0,.389-.152.557.557,0,0,0,.211-.267,1.107,1.107,0,0,0,.065-.4Zm1.8,4.652c0,.073-.046.11-.138.11H57.834a.126.126,0,0,1-.111-.055,1.271,1.271,0,0,1-.074-.129l-1.227-2.327-.1.009c-.1,0-.209,0-.334-.009s-.231-.009-.316-.009v2.336a.175.175,0,0,1-.056.129.177.177,0,0,1-.129.055h-1.2a.18.18,0,0,1-.13-.055.177.177,0,0,1-.056-.129v-6.17a.406.406,0,0,1,.1-.322.681.681,0,0,1,.313-.12c.1-.018.231-.033.378-.046s.3-.025.47-.037.336-.022.511-.028.346-.009.511-.009a5.39,5.39,0,0,1,1.1.106,2.458,2.458,0,0,1,.88.359,1.759,1.759,0,0,1,.585.666,2.225,2.225,0,0,1,.212,1.021v.12a1.909,1.909,0,0,1-.343,1.186,1.972,1.972,0,0,1-.851.653l1.4,2.593a.227.227,0,0,1,.028.1" transform="translate(-12.367 -79.796)" fill="#fff"/>
    <path id="Caminho_43065" data-name="Caminho 43065" d="M64.23,350.519a.457.457,0,0,0-.037-.106c-.012-.022-.04-.032-.083-.032-.068,0-.11.046-.129.138l-.562,2.538h1.371Zm2.777,5.323c0,.1-.052.147-.157.147H65.563a.162.162,0,0,1-.12-.046.245.245,0,0,1-.064-.12l-.332-1.507H63.163l-.332,1.507a.245.245,0,0,1-.064.12.161.161,0,0,1-.12.046H61.361c-.1,0-.157-.049-.157-.147a.041.041,0,0,1,0-.019.064.064,0,0,0,0-.028l1.371-5.7a1.428,1.428,0,0,1,.238-.533,1.092,1.092,0,0,1,.364-.309,1.465,1.465,0,0,1,.446-.143,3.215,3.215,0,0,1,.478-.036,3.138,3.138,0,0,1,.474.036,1.479,1.479,0,0,1,.441.143,1.09,1.09,0,0,1,.363.309,1.44,1.44,0,0,1,.239.533L67,355.8a.065.065,0,0,0,0,.028.041.041,0,0,1,0,.019" transform="translate(-13.991 -79.796)" fill="#fff"/>
    <path id="Caminho_43066" data-name="Caminho 43066" d="M72.98,351.982a2.585,2.585,0,0,0-.1-.773,1.182,1.182,0,0,0-.275-.483.958.958,0,0,0-.428-.248,2.081,2.081,0,0,0-.561-.069c-.116,0-.238,0-.363.005s-.222.008-.289.013v4.294q.1.009.289.014t.363,0a2.115,2.115,0,0,0,.561-.069.959.959,0,0,0,.428-.248,1.177,1.177,0,0,0,.275-.483,2.58,2.58,0,0,0,.1-.772Zm1.573,1.186a3.68,3.68,0,0,1-.2,1.274,2.3,2.3,0,0,1-1.5,1.453,3.926,3.926,0,0,1-1.233.179q-.286,0-.575-.013c-.193-.009-.377-.021-.552-.032s-.334-.026-.477-.042-.262-.032-.354-.05a.324.324,0,0,1-.2-.093.329.329,0,0,1-.069-.23v-6.077a.279.279,0,0,1,.267-.322c.092-.019.21-.035.354-.05s.3-.029.477-.042.359-.023.552-.032.384-.014.575-.014a3.947,3.947,0,0,1,1.233.179,2.3,2.3,0,0,1,1.5,1.453,3.688,3.688,0,0,1,.2,1.274Z" transform="translate(-15.863 -79.796)" fill="#fff"/>
    <path id="Caminho_43067" data-name="Caminho 43067" d="M82.19,354.75a2.049,2.049,0,0,1-.57.809,2.073,2.073,0,0,1-.842.418,4.535,4.535,0,0,1-2.069,0,2.073,2.073,0,0,1-.842-.418,2.011,2.011,0,0,1-.565-.809,3.491,3.491,0,0,1-.208-1.3v-4.092a.16.16,0,0,1,.056-.123.184.184,0,0,1,.129-.051h1.2a.185.185,0,0,1,.129.051.162.162,0,0,1,.055.123v4.092a3.091,3.091,0,0,0,.051.6.975.975,0,0,0,.174.413.729.729,0,0,0,.331.239,1.755,1.755,0,0,0,1.039,0,.731.731,0,0,0,.332-.239,1.029,1.029,0,0,0,.179-.413,2.841,2.841,0,0,0,.056-.6v-4.092a.159.159,0,0,1,.055-.123.184.184,0,0,1,.129-.051h1.2a.2.2,0,0,1,.133.051.156.156,0,0,1,.059.123v4.092a3.423,3.423,0,0,1-.211,1.3" transform="translate(-17.623 -79.821)" fill="#fff"/>
    <path id="Caminho_43068" data-name="Caminho 43068" d="M87.393,350.519a.456.456,0,0,0-.037-.106c-.012-.022-.04-.032-.083-.032-.068,0-.11.046-.129.138l-.561,2.538h1.37Zm2.777,5.323c0,.1-.052.147-.157.147H88.726a.162.162,0,0,1-.12-.046.252.252,0,0,1-.064-.12l-.331-1.507H86.326L86,355.824a.253.253,0,0,1-.065.12.161.161,0,0,1-.12.046H84.524c-.1,0-.157-.049-.157-.147a.041.041,0,0,1,0-.019.065.065,0,0,0,0-.028l1.371-5.7a1.416,1.416,0,0,1,.239-.533,1.082,1.082,0,0,1,.363-.309,1.465,1.465,0,0,1,.446-.143,3.215,3.215,0,0,1,.478-.036,3.138,3.138,0,0,1,.474.036,1.479,1.479,0,0,1,.441.143,1.082,1.082,0,0,1,.363.309,1.44,1.44,0,0,1,.239.533l1.37,5.7a.064.064,0,0,0,0,.028.041.041,0,0,1,0,.019" transform="translate(-19.286 -79.796)" fill="#fff"/>
    <path id="Caminho_43069" data-name="Caminho 43069" d="M95.583,356.376a.1.1,0,0,1-.037.073l-1.131,1.122a1.135,1.135,0,0,1-.092.083.223.223,0,0,1-.129.028h-.984c-.055,0-.083-.022-.083-.065a.146.146,0,0,1,.037-.092l.855-1.076a.955.955,0,0,1,.106-.106.239.239,0,0,1,.143-.032h1.214c.067,0,.1.022.1.064m.828-.671a.175.175,0,0,1-.051.143.407.407,0,0,1-.151.069,3.845,3.845,0,0,1-.515.1,5.8,5.8,0,0,1-.855.056,3.533,3.533,0,0,1-1.016-.147,2.21,2.21,0,0,1-.869-.491,2.472,2.472,0,0,1-.606-.906,3.641,3.641,0,0,1-.231-1.379V351.99a3.641,3.641,0,0,1,.231-1.379,2.427,2.427,0,0,1,.606-.9,2.238,2.238,0,0,1,.869-.487,3.534,3.534,0,0,1,1.016-.147,5.8,5.8,0,0,1,.855.056,3.941,3.941,0,0,1,.515.1.469.469,0,0,1,.151.065.162.162,0,0,1,.051.139v.9c0,.123-.059.185-.174.185h-.028l-.621-.046q-.354-.028-.741-.028a1.417,1.417,0,0,0-.446.069.832.832,0,0,0-.363.248,1.258,1.258,0,0,0-.244.478,2.756,2.756,0,0,0-.087.757v1.156a2.76,2.76,0,0,0,.087.757,1.258,1.258,0,0,0,.244.478.83.83,0,0,0,.363.248,1.417,1.417,0,0,0,.446.069q.386,0,.741-.028c.236-.019.443-.033.621-.046h.028c.116,0,.174.061.174.184Z" transform="translate(-21.057 -79.796)" fill="#fff"/>
    <path id="Caminho_43070" data-name="Caminho 43070" d="M101.031,349.985a.456.456,0,0,0-.037-.106c-.012-.022-.04-.032-.083-.032-.068,0-.11.046-.129.138l-.561,2.538h1.37Zm1.719-2.869a1.06,1.06,0,0,1-.3.855,1.255,1.255,0,0,1-.824.248,1.232,1.232,0,0,1-.322-.051,1.1,1.1,0,0,1-.331-.151l-.386-.267a.755.755,0,0,0-.377-.166.226.226,0,0,0-.152.051.251.251,0,0,0-.06.2v.175c0,.1-.046.156-.137.156H99.21c-.092,0-.138-.052-.138-.156v-.175a1.036,1.036,0,0,1,.3-.845,1.267,1.267,0,0,1,.828-.248,1.321,1.321,0,0,1,.317.046,1.026,1.026,0,0,1,.326.147l.4.258c.079.049.149.089.207.12a.359.359,0,0,0,.161.046.224.224,0,0,0,.157-.051.271.271,0,0,0,.055-.2v-.174a.13.13,0,0,1,.147-.147h.643c.093,0,.138.049.138.147Zm1.058,8.192c0,.1-.052.147-.157.147h-1.287a.163.163,0,0,1-.12-.046.245.245,0,0,1-.064-.12l-.332-1.507H99.965l-.331,1.507a.253.253,0,0,1-.065.12.161.161,0,0,1-.12.046H98.162c-.1,0-.156-.049-.156-.147a.041.041,0,0,1,0-.018.079.079,0,0,0,0-.028l1.37-5.7a1.44,1.44,0,0,1,.239-.533,1.082,1.082,0,0,1,.363-.309,1.465,1.465,0,0,1,.446-.143,3.227,3.227,0,0,1,.478-.036,3.142,3.142,0,0,1,.474.036,1.479,1.479,0,0,1,.441.143,1.082,1.082,0,0,1,.363.309,1.428,1.428,0,0,1,.239.533l1.37,5.7a.064.064,0,0,0,0,.028.041.041,0,0,1,0,.018" transform="translate(-22.403 -79.262)" fill="#fff"/>
    <path id="Caminho_43071" data-name="Caminho 43071" d="M109.64,352.024a2.033,2.033,0,0,0-.28-1.21,1.012,1.012,0,0,0-.86-.369,1,1,0,0,0-.855.369,2.06,2.06,0,0,0-.275,1.21v1.1a2.058,2.058,0,0,0,.275,1.21,1,1,0,0,0,.855.37,1.012,1.012,0,0,0,.86-.37,2.032,2.032,0,0,0,.28-1.21Zm1.573,1.1a3.867,3.867,0,0,1-.211,1.361,2.454,2.454,0,0,1-.578.915,2.213,2.213,0,0,1-.863.515,3.6,3.6,0,0,1-2.131,0,2.2,2.2,0,0,1-.862-.515,2.446,2.446,0,0,1-.579-.915,3.867,3.867,0,0,1-.211-1.361v-1.095a3.86,3.86,0,0,1,.211-1.36,2.44,2.44,0,0,1,.579-.915,2.207,2.207,0,0,1,.862-.515,3.617,3.617,0,0,1,2.131,0,2.215,2.215,0,0,1,.863.515,2.448,2.448,0,0,1,.578.915,3.86,3.86,0,0,1,.211,1.36Z" transform="translate(-24.18 -79.796)" fill="#fff"/>
    <path id="Caminho_43072" data-name="Caminho 43072" d="M120.607,355.953q-.24.037-.64.078t-1.145.042a4.8,4.8,0,0,1-.848-.073,1.836,1.836,0,0,1-.716-.285,1.47,1.47,0,0,1-.5-.6,2.4,2.4,0,0,1-.185-1.016v-3.052a2.366,2.366,0,0,1,.185-1.011,1.475,1.475,0,0,1,.5-.6,1.849,1.849,0,0,1,.72-.285,4.876,4.876,0,0,1,.852-.073c.245,0,.461,0,.649.013s.351.02.491.032.262.025.363.037.192.025.272.037c.123.019.184.079.184.184v.855a.187.187,0,0,1-.184.184H118.74a.632.632,0,0,0-.455.133.7.7,0,0,0-.133.492v.837h2.382a.187.187,0,0,1,.184.184v.874a.189.189,0,0,1-.184.184h-2.382v.974a.7.7,0,0,0,.133.492.632.632,0,0,0,.455.133h1.867a.187.187,0,0,1,.184.184v.855c0,.11-.061.174-.184.193" transform="translate(-26.649 -79.796)" fill="#fff"/>
    <path id="Caminho_43073" data-name="Caminho 43073" d="M129.318,351.291a.8.8,0,0,0-.3-.7,1.543,1.543,0,0,0-.879-.207l-.156,0-.225.008-.221.009c-.07,0-.118.005-.142.005v1.875l.142,0,.231.009c.083,0,.159,0,.23,0h.142a1.415,1.415,0,0,0,.9-.23.852.852,0,0,0,.28-.7Zm1.573.083a2.2,2.2,0,0,1-.235,1.071,1.914,1.914,0,0,1-.623.686,2.529,2.529,0,0,1-.88.363,4.772,4.772,0,0,1-1.01.106c-.11,0-.234,0-.369-.009l-.378-.018v2.234a.176.176,0,0,1-.056.129.178.178,0,0,1-.129.055h-1.186a.184.184,0,0,1-.129-.05.164.164,0,0,1-.055-.124v-6.179a.406.406,0,0,1,.1-.322.689.689,0,0,1,.313-.12q.351-.054.862-.087c.341-.021.677-.032,1.009-.032a5.144,5.144,0,0,1,1.023.1,2.476,2.476,0,0,1,.884.359,1.916,1.916,0,0,1,.622.685,2.207,2.207,0,0,1,.235,1.072Z" transform="translate(-28.767 -79.796)" fill="#fff"/>
    <path id="Caminho_43074" data-name="Caminho 43074" d="M137.247,346.852a.11.11,0,0,1-.036.073l-1.122,1.122a.9.9,0,0,1-.092.083.224.224,0,0,1-.13.028h-.984c-.055,0-.083-.021-.083-.064a.146.146,0,0,1,.038-.092l.855-1.076a.964.964,0,0,1,.1-.106.242.242,0,0,1,.143-.032h1.2c.067,0,.1.022.1.065m-.377,4.649a2.027,2.027,0,0,0-.281-1.21,1.011,1.011,0,0,0-.86-.37,1,1,0,0,0-.855.37,2.061,2.061,0,0,0-.275,1.21v1.1a2.059,2.059,0,0,0,.275,1.21,1,1,0,0,0,.855.37,1.011,1.011,0,0,0,.86-.37,2.025,2.025,0,0,0,.281-1.21Zm1.573,1.1a3.867,3.867,0,0,1-.211,1.361,2.456,2.456,0,0,1-.579.915,2.2,2.2,0,0,1-.863.515,3.595,3.595,0,0,1-2.129,0,2.2,2.2,0,0,1-.863-.515,2.456,2.456,0,0,1-.579-.915,3.867,3.867,0,0,1-.211-1.361V351.5a3.86,3.86,0,0,1,.211-1.36,2.449,2.449,0,0,1,.579-.915,2.2,2.2,0,0,1,.863-.515,3.612,3.612,0,0,1,2.129,0,2.2,2.2,0,0,1,.863.515,2.45,2.45,0,0,1,.579.915,3.86,3.86,0,0,1,.211,1.36Z" transform="translate(-30.404 -79.273)" fill="#fff"/>
    <path id="Caminho_43075" data-name="Caminho 43075" d="M145.438,354.059a2.142,2.142,0,0,1-.129.727,1.661,1.661,0,0,1-.427.643,2.272,2.272,0,0,1-.778.464,3.372,3.372,0,0,1-1.177.179,7.6,7.6,0,0,1-.97-.055,6.186,6.186,0,0,1-.768-.147.317.317,0,0,1-.129-.064.15.15,0,0,1-.055-.12v-.9a.171.171,0,0,1,.046-.138.186.186,0,0,1,.12-.037h.028q.138.018.382.037c.162.012.329.023.5.032l.492.027q.235.014.373.014a.979.979,0,0,0,.648-.157.626.626,0,0,0,.17-.487.5.5,0,0,0-.124-.345,2.1,2.1,0,0,0-.483-.354l-1.269-.754a2.838,2.838,0,0,1-.528-.4,1.862,1.862,0,0,1-.331-.423,1.614,1.614,0,0,1-.175-.455,2.269,2.269,0,0,1-.051-.483,2.1,2.1,0,0,1,.116-.7,1.355,1.355,0,0,1,.39-.57,1.944,1.944,0,0,1,.727-.381,3.863,3.863,0,0,1,1.122-.138c.166,0,.345.006.538.019s.378.027.556.046.343.04.5.065a3.308,3.308,0,0,1,.359.073.278.278,0,0,1,.1.056.139.139,0,0,1,.041.11v.929a.188.188,0,0,1-.032.11.145.145,0,0,1-.124.046h-.018c-.068-.006-.176-.014-.326-.023l-.511-.032c-.19-.012-.385-.023-.584-.032s-.376-.014-.529-.014a.968.968,0,0,0-.556.12.428.428,0,0,0-.16.368.511.511,0,0,0,.027.174.406.406,0,0,0,.1.143,1.224,1.224,0,0,0,.188.147c.079.052.181.112.3.179l1.177.635a2.382,2.382,0,0,1,.979.845,2.019,2.019,0,0,1,.262,1.021" transform="translate(-32.186 -79.796)" fill="#fff"/>
    <path id="Caminho_43076" data-name="Caminho 43076" d="M3.809,194.173v.117a.549.549,0,0,0,.549.548H307a.548.548,0,0,0,.549-.548v-.117a.549.549,0,0,0-.549-.549H4.358a.549.549,0,0,0-.549.549" transform="translate(-0.871 -44.261)" fill="#fff"/>
    <path id="Caminho_43077" data-name="Caminho 43077" d="M393.831,24.734v-.193l13.129-4.891-2.624-7.163-15.493,5.629,5.629-15.494L387.311,0l-4.891,13.129h-.193L377.335,0l-7.163,2.623L375.8,18.117l-15.493-5.629-2.624,7.163,13.129,4.891h0v.193l-13.129,4.891,2.624,7.163L375.8,31.159l-5.629,15.493,7.163,2.624,4.891-13.13h.193l4.891,13.13,7.163-2.624-5.629-15.493,15.493,5.629,2.624-7.163-13.129-4.891Zm-11.508,4.033a4.129,4.129,0,1,1,4.129-4.129,4.13,4.13,0,0,1-4.129,4.129" transform="translate(-81.764)" fill="#f0b200"/>
    <path id="Caminho_43078" data-name="Caminho 43078" d="M46.4,71.1h-.433L34.679,31.615l-21.517-.034L35.123,92.057l21.3.034L78.578,31.684l-20.544-.032Z" transform="translate(-3.009 -7.219)" fill="#fff"/>
    <rect id="Retângulo_39894" data-name="Retângulo 39894" width="60.441" height="20.111" transform="translate(82.501 84.918) rotate(-89.91)" fill="#fff"/>
    <path id="Caminho_43079" data-name="Caminho 43079" d="M172.081,62.844l.029-18.6,15.786.025.026-16.543L172.137,27.7l.022-13.948L152.8,13.725l-.022,13.948-8.433-.013L144.323,44.2l8.433.013L152.725,64c-.025,15.57,8.609,25.639,25.693,25.667A43.255,43.255,0,0,0,188.692,88.6l.026-16.76a33.928,33.928,0,0,1-5.408.532c-6.38-.01-11.24-2.721-11.229-9.533" transform="translate(-32.991 -3.137)" fill="#fff"/>
    <path id="Caminho_43080" data-name="Caminho 43080" d="M308.545,32.05,308.489,67.3c-.009,5.947-3.041,8.862-8.556,8.853-5.406-.008-8.32-2.932-8.311-8.88l.056-35.249-20.111-.032-.056,35.465C271.486,82.918,282.065,94.072,299.9,94.1s28.671-11.091,28.7-26.553l.056-35.465Z" transform="translate(-62.065 -7.313)" fill="#fff"/>
    <path id="Caminho_43081" data-name="Caminho 43081" d="M224.543,31.916,214.352,31.9l-.1,60.441,20.111.032.069-43.488,16.469.026.027-16.954-16.469-.026Z" transform="translate(-48.977 -7.292)" fill="#fff"/>
    <path id="Caminho_43082" data-name="Caminho 43082" d="M229.486,149.489l-1.256-3.542h-6.406l-1.3,3.542h-1.379l5.23-13.9H225.8l5.211,13.9Zm-3.831-10.5a17.31,17.31,0,0,1-.618-2h-.02c-.185.659-.392,1.3-.639,1.956l-2.182,5.931h5.643Z" transform="translate(-50.096 -30.994)" fill="#fff"/>
    <path id="Caminho_43083" data-name="Caminho 43083" d="M246.266,149.617c-4.159,0-6.218-2.575-6.218-6.818,0-4.139,1.935-7.372,6.693-7.372a13.474,13.474,0,0,1,3.274.433l-.144,1.236a10.691,10.691,0,0,0-3.418-.556c-3.563,0-4.984,2.78-4.984,6.034,0,3.728,1.647,5.89,5.189,5.89a8.259,8.259,0,0,0,3.4-.8l.144,1.174a9.926,9.926,0,0,1-3.934.782" transform="translate(-54.873 -30.958)" fill="#fff"/>
    <path id="Caminho_43084" data-name="Caminho 43084" d="M268.936,149.489l-1.256-3.542h-6.406l-1.3,3.542H258.6l5.23-13.9h1.421l5.211,13.9Zm-3.831-10.5a17.322,17.322,0,0,1-.618-2h-.02c-.185.659-.392,1.3-.639,1.956l-2.182,5.931h5.643Z" transform="translate(-59.114 -30.994)" fill="#fff"/>
    <path id="Caminho_43085" data-name="Caminho 43085" d="M284.219,149.533c-1.379,0-2.347-.083-3.253-.062v-13.9c1.071,0,2.533-.061,3.892-.061,4.573,0,7.188,2.2,7.188,6.9,0,4.777-3.275,7.126-7.827,7.126m.474-12.954c-.8,0-1.812.041-2.409.061V148.3a18.8,18.8,0,0,0,2.121.144c3.707,0,6.261-1.833,6.261-5.952,0-3.954-2.06-5.911-5.973-5.911" transform="translate(-64.227 -30.976)" fill="#fff"/>
    <path id="Caminho_43086" data-name="Caminho 43086" d="M303.279,149.489v-13.9h6.858v1.071H304.6v5.128h5.272v1.05H304.6V148.4h5.539v1.092Z" transform="translate(-69.327 -30.994)" fill="#fff"/>
    <path id="Caminho_43087" data-name="Caminho 43087" d="M334.427,149.489l-1.3-9c-.247-1.791-.37-2.8-.433-3.521h-.04c-.125.515-.351,1.277-.66,2.183l-3.5,10.338h-1.585l-3.316-9.7a24.967,24.967,0,0,1-.865-2.822h-.021c-.062,1.071-.205,2.2-.37,3.645l-1.05,8.877h-1.381l1.937-13.9h1.729l3.378,9.885a23.073,23.073,0,0,1,.783,2.657h.042a20.564,20.564,0,0,1,.741-2.472l3.461-10.071h1.812l2.038,13.9Z" transform="translate(-73.129 -30.994)" fill="#fff"/>
    <path id="Caminho_43088" data-name="Caminho 43088" d="M351.116,144.422v5.067H349.8v-5.067l-4.345-8.835h1.463l2.471,5.169c.412.845.783,1.689,1.112,2.512h.021c.35-.885.8-1.812,1.235-2.718l2.41-4.964h1.4Z" transform="translate(-78.968 -30.994)" fill="#fff"/>
  </g>
</svg>
