<svg xmlns="http://www.w3.org/2000/svg" xmlns:xlink="http://www.w3.org/1999/xlink" width="157.556" height="28.644" viewBox="0 0 157.556 28.644">
  <defs>
    <clipPath id="clip-path">
      <rect id="Retângulo_39860" data-name="Retângulo 39860" width="157.556" height="28.644" fill="none"/>
    </clipPath>
  </defs>
  <g id="Grupo_95704" data-name="Grupo 95704" transform="translate(0 0.001)">
    <g id="Grupo_95699" data-name="Grupo 95699" transform="translate(0 -0.001)" clip-path="url(#clip-path)">
      <path id="Caminho_42712" data-name="Caminho 42712" d="M201.187,7.492V7.434l3.977-1.482-.795-2.17-4.693,1.7,1.7-4.693L199.212,0,197.73,3.977h-.058L196.19,0l-2.17.795,1.7,4.693-4.693-1.7-.795,2.17,3.977,1.482h0v.058l-3.977,1.482.795,2.17,4.693-1.7-1.7,4.693,2.17.795,1.482-3.977h.058l1.482,3.977,2.17-.795-1.7-4.693,4.693,1.7.795-2.17-3.977-1.482ZM197.7,8.714a1.251,1.251,0,1,1,1.251-1.251A1.251,1.251,0,0,1,197.7,8.714" transform="translate(-109.735 0)" fill="#ffb300"/>
      <path id="Caminho_42713" data-name="Caminho 42713" d="M10.069,29.409H9.938l-3.42-11.96L0,17.438,6.653,35.757l6.452.01,6.711-18.3-6.223-.01Z" transform="translate(0 -10.059)" fill="#fff"/>
      <rect id="Retângulo_39858" data-name="Retângulo 39858" width="18.309" height="6.092" transform="translate(21.915 25.723) rotate(-89.908)" fill="#fff"/>
      <path id="Caminho_42714" data-name="Caminho 42714" d="M80.832,22.458l.009-5.633,4.782.008.008-5.011-4.782-.008.007-4.225-5.863-.009L74.987,11.8l-2.555,0-.008,5.011,2.555,0-.01,5.993c-.007,4.716,2.608,7.766,7.783,7.775a13.1,13.1,0,0,0,3.112-.323l.008-5.076a10.249,10.249,0,0,1-1.638.161c-1.932,0-3.4-.824-3.4-2.888" transform="translate(-41.776 -4.372)" fill="#fff"/>
      <path id="Caminho_42715" data-name="Caminho 42715" d="M153.872,17.683l-.017,10.677c0,1.8-.921,2.684-2.592,2.682-1.637,0-2.52-.888-2.517-2.69l.017-10.677-6.092-.01-.017,10.743c-.007,4.684,3.2,8.062,8.6,8.071s8.685-3.36,8.692-8.043l.017-10.743Z" transform="translate(-82.287 -10.189)" fill="#fff"/>
      <path id="Caminho_42716" data-name="Caminho 42716" d="M114.156,17.619l-3.087-.005-.029,18.309,6.092.01.021-13.173,4.989.008.008-5.136-4.989-.008Z" transform="translate(-64.051 -10.16)" fill="#fff"/>
      <rect id="Retângulo_39859" data-name="Retângulo 39859" width="0.559" height="26.312" transform="translate(103.892 2.332)" fill="#fff"/>
      <path id="Caminho_42717" data-name="Caminho 42717" d="M270.349,33.89l-.525-1.482h-2.679L266.6,33.89h-.577l2.187-5.814h.595l2.18,5.814Zm-1.6-4.393a7.126,7.126,0,0,1-.259-.836h-.009c-.077.276-.164.543-.267.818l-.912,2.481h2.36Z" transform="translate(-153.451 -16.195)" fill="#fff"/>
      <path id="Caminho_42718" data-name="Caminho 42718" d="M284.562,33.888c-1.74,0-2.6-1.077-2.6-2.851,0-1.731.81-3.084,2.8-3.084a5.648,5.648,0,0,1,1.369.181l-.06.517a4.47,4.47,0,0,0-1.43-.233c-1.49,0-2.085,1.163-2.085,2.524,0,1.559.689,2.463,2.17,2.463a3.451,3.451,0,0,0,1.421-.336l.061.491a4.156,4.156,0,0,1-1.646.327" transform="translate(-162.643 -16.124)" fill="#fff"/>
      <path id="Caminho_42719" data-name="Caminho 42719" d="M300.428,33.89l-.525-1.482h-2.679l-.543,1.482H296.1l2.188-5.814h.595l2.179,5.814Zm-1.6-4.393a7.136,7.136,0,0,1-.258-.836h-.009c-.077.276-.164.543-.267.818l-.913,2.481h2.36Z" transform="translate(-170.801 -16.195)" fill="#fff"/>
      <path id="Caminho_42720" data-name="Caminho 42720" d="M314.519,33.88c-.577,0-.982-.035-1.361-.026V28.04c.448,0,1.06-.026,1.628-.026,1.913,0,3.007.922,3.007,2.886,0,2-1.37,2.98-3.274,2.98m.2-5.418c-.336,0-.758.017-1.008.026v4.875a7.843,7.843,0,0,0,.887.061,2.312,2.312,0,0,0,2.618-2.49,2.206,2.206,0,0,0-2.5-2.472" transform="translate(-180.638 -16.159)" fill="#fff"/>
      <path id="Caminho_42721" data-name="Caminho 42721" d="M330.171,33.89V28.075h2.868v.448h-2.317v2.145h2.205v.439h-2.205v2.326h2.317v.457Z" transform="translate(-190.452 -16.194)" fill="#fff"/>
      <path id="Caminho_42722" data-name="Caminho 42722" d="M348.923,33.889l-.543-3.765c-.1-.749-.155-1.171-.181-1.473h-.017c-.052.215-.147.534-.276.913l-1.465,4.324h-.664l-1.387-4.057a10.474,10.474,0,0,1-.362-1.18h-.008c-.026.448-.086.922-.155,1.525l-.439,3.712h-.578l.81-5.814h.723l1.413,4.134a9.718,9.718,0,0,1,.328,1.111h.017a8.646,8.646,0,0,1,.31-1.033l1.447-4.212h.758l.853,5.814Z" transform="translate(-197.766 -16.194)" fill="#fff"/>
      <path id="Caminho_42723" data-name="Caminho 42723" d="M364.695,31.771V33.89h-.551V31.771l-1.818-3.7h.612l1.033,2.162c.172.353.327.706.465,1.051h.008c.146-.37.336-.758.517-1.137l1.008-2.076h.585Z" transform="translate(-209 -16.195)" fill="#fff"/>
    </g>
  </g>
</svg>
