<svg id="Grupo_95705" data-name="Grupo 95705" xmlns="http://www.w3.org/2000/svg" xmlns:xlink="http://www.w3.org/1999/xlink" width="34.782" height="13.101" viewBox="0 0 34.782 13.101">
  <defs>
    <clipPath id="clip-path">
      <rect id="Ret창ngulo_39884" data-name="Ret창ngulo 39884" width="34.782" height="13.101" fill="none"/>
    </clipPath>
  </defs>
  <g id="Grupo_95705-2" data-name="Grupo 95705" clip-path="url(#clip-path)">
    <path id="Caminho_42985" data-name="Caminho 42985" d="M441.689,2.732V2.71l1.45-.54-.29-.791L441.138,2,441.76.291,440.969,0l-.54,1.45h-.021L439.867,0l-.791.29L439.7,2l-1.711-.622-.29.791,1.45.54v.021l-1.45.54.29.791,1.711-.622-.622,1.711.791.29.54-1.45h.021l.54,1.45.791-.29-.621-1.711,1.711.622.29-.791Zm-1.271.445a.456.456,0,1,1,.456-.456.456.456,0,0,1-.456.456" transform="translate(-408.356 -0.001)" fill="#edc016"/>
    <path id="Caminho_42986" data-name="Caminho 42986" d="M3.67,44.485H3.622L2.376,40.126,0,40.122,2.425,46.8l2.352,0,2.446-6.669-2.268,0Z" transform="translate(0 -37.432)" fill="#fff"/>
    <rect id="Ret창ngulo_39883" data-name="Ret창ngulo 39883" width="6.673" height="2.22" transform="matrix(0.002, -1, 1, 0.002, 7.987, 9.375)" fill="#fff"/>
    <path id="Caminho_42987" data-name="Caminho 42987" d="M169.7,22.861l0-2.053,1.743,0,0-1.826-1.743,0,0-1.54-2.137,0,0,1.54h-.931l0,1.826h.931l0,2.185a2.58,2.58,0,0,0,2.837,2.834,4.773,4.773,0,0,0,1.134-.118l0-1.85a3.741,3.741,0,0,1-.6.059c-.7,0-1.241-.3-1.24-1.052" transform="translate(-155.461 -16.269)" fill="#fff"/>
    <path id="Caminho_42988" data-name="Caminho 42988" d="M332.307,40.65l-.006,3.892a.856.856,0,0,1-.945.977c-.6,0-.919-.324-.918-.98l.006-3.892-2.22,0-.006,3.916a3.159,3.159,0,0,0,6.3.01l.006-3.916Z" transform="translate(-306.215 -37.918)" fill="#fff"/>
    <path id="Caminho_42989" data-name="Caminho 42989" d="M256.614,40.529l-1.125,0-.011,6.673,2.22,0,.008-4.8,1.818,0,0-1.872-1.818,0Z" transform="translate(-238.352 -37.811)" fill="#fff"/>
    <path id="Caminho_42990" data-name="Caminho 42990" d="M262.833,173.791l-.139-.391h-.707l-.143.391h-.152l.578-1.535h.157l.575,1.535Zm-.423-1.16a1.915,1.915,0,0,1-.068-.221h0c-.02.073-.043.143-.07.216l-.241.655h.623Z" transform="translate(-244.149 -160.708)" fill="#fff"/>
    <path id="Caminho_42991" data-name="Caminho 42991" d="M288.932,173.62c-.459,0-.687-.284-.687-.753s.214-.814.739-.814a1.487,1.487,0,0,1,.362.048l-.016.136a1.181,1.181,0,0,0-.377-.061c-.393,0-.55.307-.55.666,0,.412.182.65.573.65a.913.913,0,0,0,.375-.089l.016.13a1.1,1.1,0,0,1-.434.086" transform="translate(-268.922 -160.519)" fill="#fff"/>
    <path id="Caminho_42992" data-name="Caminho 42992" d="M312.953,173.791l-.139-.391h-.707l-.143.391h-.152l.578-1.535h.157l.575,1.535Zm-.423-1.16a1.909,1.909,0,0,1-.068-.221h0c-.02.073-.043.143-.07.216l-.241.655h.623Z" transform="translate(-290.909 -160.708)" fill="#fff"/>
    <path id="Caminho_42993" data-name="Caminho 42993" d="M340.589,173.7c-.152,0-.259-.009-.359-.007v-1.535c.118,0,.28-.007.43-.007a.693.693,0,0,1,.794.762.761.761,0,0,1-.864.787m.052-1.43c-.089,0-.2,0-.266.007v1.287a2.069,2.069,0,0,0,.234.016.61.61,0,0,0,.691-.657.582.582,0,0,0-.659-.653" transform="translate(-317.422 -160.614)" fill="#fff"/>
    <path id="Caminho_42994" data-name="Caminho 42994" d="M368.578,173.791v-1.535h.757v.118h-.612v.566h.582v.116h-.582v.614h.612v.121Z" transform="translate(-343.869 -160.709)" fill="#fff"/>
    <path id="Caminho_42995" data-name="Caminho 42995" d="M391.307,173.791l-.143-.994c-.027-.2-.041-.309-.048-.389h0c-.014.057-.039.141-.073.241l-.387,1.141h-.175l-.366-1.071a2.766,2.766,0,0,1-.1-.312h0c-.007.118-.023.243-.041.4l-.116.98H389.7l.214-1.535h.191l.373,1.091a2.559,2.559,0,0,1,.086.293h0a2.287,2.287,0,0,1,.082-.273l.382-1.112h.2l.225,1.535Z" transform="translate(-363.579 -160.708)" fill="#fff"/>
    <path id="Caminho_42996" data-name="Caminho 42996" d="M422.782,173.231v.559h-.146v-.559l-.48-.975h.161l.273.571c.045.093.086.186.123.277h0c.039-.1.089-.2.136-.3l.266-.548h.155Z" transform="translate(-393.857 -160.708)" fill="#fff"/>
  </g>
</svg>
