<svg id="Grupo_10070" data-name="Grupo 10070" xmlns="http://www.w3.org/2000/svg" xmlns:xlink="http://www.w3.org/1999/xlink" width="470.321" height="175.346" viewBox="0 0 470.321 175.346">
  <defs>
    <clipPath id="clip-path">
      <rect id="Ret창ngulo_3196" data-name="Ret창ngulo 3196" width="470.321" height="175.346" fill="#fff"/>
    </clipPath>
    <clipPath id="clip-path-2">
      <path id="Caminho_4406" data-name="Caminho 4406" d="M366.1,135.3l-8.488,22.968L348.884,135.3h-4.926l11.4,28.132-2.017,5.341c-1.188,3.146-2.614,4.986-5.342,4.986a6.246,6.246,0,0,1-2.968-.651l-.414,3.8a12.539,12.539,0,0,0,3.619.415c4.807,0,7.063-2.73,8.725-7.005L370.846,135.3ZM495.542,163.07h3.917V135.3h-3.917Zm-46.591-24.927c5.638,0,9.021,3.621,9.021,8.9H439.216c0-4.57,4.63-8.9,9.734-8.9m-14.007,11.039c0,8.368,6.112,14.6,14.363,14.6a14.481,14.481,0,0,0,11.929-5.877l-3.027-2.491a10.523,10.523,0,0,1-8.9,4.807c-5.519,0-9.733-4.392-10.208-9.971h23.147v-1.781c0-7.6-4.866-13.829-13.295-13.889-7.9,0-14.007,6.232-14.007,14.6m33.118-6.232c0,5.283,5.224,6.826,7.122,7.3l3.8.889c2.909.713,5.284,1.663,5.284,4.452,0,3.2-3.325,4.629-6.53,4.629a8.425,8.425,0,0,1-7.3-4.156l-3.384,2.316c2.612,3.917,6.468,5.4,10.683,5.4,5.4,0,10.8-2.493,10.8-8.546,0-3.918-2.909-6.708-6.767-7.6l-3.976-.95c-3.62-.831-5.46-1.78-5.46-4.392,0-2.967,3.027-4.154,5.756-4.154a6.48,6.48,0,0,1,5.995,3.74l3.5-2.314c-1.781-3.621-5.4-4.986-9.261-4.986-5.222,0-10.267,2.611-10.267,8.368m43.683,5.878a10.491,10.491,0,0,1,10.328-10.685c6.528,0,10.5,4.868,10.5,10.685a10.208,10.208,0,0,1-10.5,10.682,10.489,10.489,0,0,1-10.328-10.682m-4.272.118c0,8.132,6.468,14.124,14.481,14.124a11.922,11.922,0,0,0,10.386-5.221h.119v4.985c0,5.994-2.848,10.919-10.8,10.919a13.172,13.172,0,0,1-10.624-5.1l-2.907,3.086a17.183,17.183,0,0,0,13.355,5.582c12.461,0,14.9-8.429,14.9-14.483V135.3h-3.918v4.629h-.119a12.8,12.8,0,0,0-10.743-5.342c-8.189,0-14.124,6.291-14.124,14.363m41.722-9.2h-.119a37.214,37.214,0,0,0-.178-4.45h-4.036c.119,2.017.3,4.629.3,6.112V163.07h3.917V148.828c0-10.151,7.6-10.685,8.428-10.685,5.816,0,7.538,3.383,7.538,9.557v15.37h3.916V145.443c0-6.884-3.381-10.861-10.445-10.861a11.191,11.191,0,0,0-9.318,5.163m-54.544-15.135a2.849,2.849,0,1,0,2.849-2.848,2.888,2.888,0,0,0-2.849,2.848m-97.157.357H405.8c12.818,0,18.815,8.428,18.815,17.094s-6,17.093-18.815,17.093h-8.308Zm-4.274-3.918v42.02h13.946c10.5,0,22.08-7,22.08-21.008s-11.575-21.011-22.08-21.011Zm-78.462,28.132a10.814,10.814,0,0,1,11.1-11.039c6.47,0,10.505,4.807,10.505,11.039s-4.036,11.04-10.505,11.04a10.814,10.814,0,0,1-11.1-11.04m-3.739-30.98V163.07h3.917v-4.628h.119c2.552,3.739,7.122,5.342,10.8,5.342,8.665,0,14.779-6.233,14.779-14.6s-6.114-14.6-14.779-14.6c-3.679,0-8.25,1.6-10.8,5.342h-.119V118.2Zm.831-25.012H326.13V46.92H311.85Zm134.051,0h14.282V46.92H445.9ZM350.314,53.2h-.191V46.919H336.415V93.19h14.28V70.15c0-6,1.142-11.806,8.569-11.806,7.33,0,7.426,6.854,7.426,12.187V93.19h14.281V67.674c0-12.377-2.666-21.9-17.139-21.9-6.95,0-11.614,3.808-13.518,7.426m54.649,0h-.192V46.919H391.063V93.19h14.28V70.15c0-6,1.142-11.806,8.57-11.806,7.329,0,7.425,6.854,7.425,12.187V93.19h14.281V67.674c0-12.377-2.666-21.9-17.137-21.9-6.952,0-11.615,3.808-13.52,7.426m79.4,0h-.191V46.919H470.465V93.19h14.281V70.15c0-6,1.144-11.806,8.569-11.806,7.332,0,7.426,6.854,7.426,12.187V93.19h14.281V67.674c0-12.377-2.665-21.9-17.137-21.9-6.951,0-11.614,3.808-13.519,7.426m53.316,16.566a11.425,11.425,0,1,1,11.424,11.425,11.519,11.519,0,0,1-11.424-11.425m-14.281.1c0,14,9.045,23.9,22.754,23.9,4.285,0,9.806-1.618,13.044-6.093h.189v4.475c0,6.569-4.093,11.329-12.757,11.329-5.807,0-10.664-2.285-15.042-6l-7.9,11.805c6.665,5.331,15.043,6.759,23.232,6.759,17.9,0,26.752-9.329,26.752-26.752V46.919H560.531v6.094h-.191c-2.189-3.333-7.712-7.236-15.8-7.236-13.138,0-21.135,11.805-21.135,24.087M310.708,32.353a8.283,8.283,0,1,0,8.282-8.284,8.288,8.288,0,0,0-8.282,8.284m134.052,0a8.282,8.282,0,1,0,8.284-8.284,8.288,8.288,0,0,0-8.284,8.284" transform="translate(-310.708 -24.069)" fill="#fff"/>
    </clipPath>
  </defs>
  <g id="Grupo_10063" data-name="Grupo 10063">
    <g id="Grupo_10062" data-name="Grupo 10062" clip-path="url(#clip-path)">
      <path id="Caminho_4405" data-name="Caminho 4405" d="M311.85,93.189H326.13V46.919H311.85Zm-1.142-60.837a8.283,8.283,0,1,0,8.282-8.284,8.289,8.289,0,0,0-8.282,8.284m25.706,60.837h14.281V70.15c0-6,1.142-11.805,8.569-11.805,7.33,0,7.426,6.854,7.426,12.186V93.189h14.281V67.674c0-12.376-2.666-21.9-17.139-21.9-6.95,0-11.614,3.808-13.518,7.426h-.19V46.919H336.414Zm54.649,0h14.28V70.15c0-6,1.142-11.805,8.57-11.805,7.329,0,7.425,6.854,7.425,12.186V93.189h14.281V67.674c0-12.376-2.666-21.9-17.137-21.9-6.951,0-11.615,3.808-13.52,7.426h-.191V46.919H391.063Zm54.838,0h14.282V46.919H445.9ZM444.76,32.353a8.283,8.283,0,1,0,8.284-8.284,8.289,8.289,0,0,0-8.284,8.284m25.7,60.837h14.282V70.15c0-6,1.143-11.805,8.568-11.805,7.332,0,7.426,6.854,7.426,12.186V93.189h14.28V67.674c0-12.376-2.665-21.9-17.137-21.9-6.951,0-11.614,3.808-13.518,7.426h-.192V46.919H470.465Zm103.2-46.27H560.531v6.093h-.19c-2.189-3.333-7.712-7.236-15.8-7.236-13.138,0-21.135,11.805-21.135,24.088,0,14,9.045,23.9,22.754,23.9,4.285,0,9.806-1.618,13.043-6.093h.19v4.475c0,6.569-4.093,11.33-12.757,11.33-5.807,0-10.664-2.285-15.042-6l-7.9,11.805c6.665,5.331,15.043,6.759,23.232,6.759,17.9,0,26.752-9.33,26.752-26.752ZM537.682,69.768a11.425,11.425,0,1,1,11.424,11.425,11.518,11.518,0,0,1-11.424-11.425m-226.662,93.3h3.917v-4.629h.119c2.552,3.74,7.122,5.342,10.8,5.342,8.665,0,14.779-6.233,14.779-14.6s-6.114-14.6-14.779-14.6c-3.679,0-8.25,1.6-10.8,5.342h-.119V118.2h-3.917Zm25.343-13.887c0,6.232-4.036,11.039-10.505,11.039a11.039,11.039,0,1,1,0-22.079c6.47,0,10.505,4.807,10.505,11.039m12.522-13.888h-4.925l11.4,28.132-2.018,5.341c-1.187,3.146-2.613,4.985-5.342,4.985a6.247,6.247,0,0,1-2.968-.651l-.414,3.8a12.559,12.559,0,0,0,3.618.415c4.808,0,7.064-2.73,8.726-7.005l13.889-35.017H366.1l-8.488,22.969ZM393.22,163.07h13.947c10.505,0,22.079-7,22.079-21.009s-11.574-21.011-22.079-21.011H393.22Zm4.274-38.1H405.8c12.819,0,18.816,8.428,18.816,17.094s-6,17.094-18.816,17.094h-8.308Zm64.751,25.285V148.47c0-7.6-4.866-13.829-13.295-13.888-7.895,0-14.007,6.232-14.007,14.6s6.113,14.6,14.363,14.6a14.483,14.483,0,0,0,11.929-5.877l-3.027-2.491a10.522,10.522,0,0,1-8.9,4.807c-5.519,0-9.733-4.392-10.208-9.97Zm-23.029-3.206c0-4.57,4.63-8.9,9.734-8.9,5.638,0,9.021,3.621,9.021,8.9Zm48.373-7.478c-1.781-3.621-5.4-4.986-9.261-4.986-5.222,0-10.267,2.611-10.267,8.368,0,5.283,5.224,6.826,7.122,7.3l3.8.889c2.909.713,5.283,1.663,5.283,4.452,0,3.2-3.324,4.628-6.529,4.628a8.424,8.424,0,0,1-7.3-4.156l-3.384,2.316c2.612,3.918,6.468,5.4,10.683,5.4,5.4,0,10.8-2.493,10.8-8.546,0-3.918-2.909-6.708-6.767-7.6l-3.976-.95c-3.62-.831-5.46-1.781-5.46-4.392,0-2.967,3.026-4.154,5.756-4.154a6.479,6.479,0,0,1,5.994,3.74Zm11.869-4.274h-3.916V163.07h3.916Zm.891-10.684a2.849,2.849,0,1,0-2.849,2.849,2.886,2.886,0,0,0,2.849-2.849m7.775,47.125a17.182,17.182,0,0,0,13.355,5.581c12.461,0,14.9-8.428,14.9-14.483V135.294h-3.917v4.63h-.12a12.8,12.8,0,0,0-10.743-5.342c-8.189,0-14.124,6.291-14.124,14.363,0,8.131,6.468,14.124,14.481,14.124a11.922,11.922,0,0,0,10.386-5.222h.12v4.985c0,5.994-2.85,10.919-10.8,10.919a13.17,13.17,0,0,1-10.624-5.1Zm3.62-22.908a10.49,10.49,0,0,1,10.328-10.684c6.528,0,10.5,4.868,10.5,10.684a10.208,10.208,0,0,1-10.5,10.682,10.489,10.489,0,0,1-10.328-10.682m33.118-13.533c.119,2.018.3,4.63.3,6.113V163.07h3.917V148.827c0-10.151,7.6-10.684,8.429-10.684,5.816,0,7.537,3.383,7.537,9.557v15.37h3.916V145.443c0-6.884-3.381-10.861-10.445-10.861a11.189,11.189,0,0,0-9.318,5.163h-.119a37.226,37.226,0,0,0-.178-4.451Z" transform="translate(-108.11 -8.375)" fill="#fff" fill-rule="evenodd"/>
    </g>
  </g>
  <g id="Grupo_10065" data-name="Grupo 10065" transform="translate(202.598 15.694)">
    <g id="Grupo_10064" data-name="Grupo 10064" clip-path="url(#clip-path-2)">
      <rect id="Ret창ngulo_3197" data-name="Ret창ngulo 3197" width="272.483" height="162.768" transform="translate(-4.761 -4.761)" fill="#fff"/>
    </g>
  </g>
  <g id="Grupo_10067" data-name="Grupo 10067">
    <g id="Grupo_10066" data-name="Grupo 10066" clip-path="url(#clip-path)">
      <path id="Caminho_4407" data-name="Caminho 4407" d="M57.033,132.36l.991,2.42,4.919-5.912H60.007Z" transform="translate(-19.844 -44.839)" fill="#fff"/>
      <path id="Caminho_4408" data-name="Caminho 4408" d="M56.138,128.785l.788.07-.981,1.5-.372-.751Z" transform="translate(-19.336 -44.81)" fill="#fff"/>
      <path id="Caminho_4409" data-name="Caminho 4409" d="M56.119,131.171l.457.674,2.5-2.916H58.023Z" transform="translate(-19.526 -44.861)" fill="#fff"/>
      <path id="Caminho_4410" data-name="Caminho 4410" d="M65.124,146.581l.277.991,11.306-18.764h-.912Z" transform="translate(-22.66 -44.818)" fill="#fff"/>
      <path id="Caminho_4411" data-name="Caminho 4411" d="M127.5,174.3l-21.424,24.088,23.181-28.57.678-1.817a.348.348,0,0,0-.215.113L93.633,209.152h.951L118.367,182.1,96.423,209.152h1.035l29.491-33.16.663-1.777a.347.347,0,0,0-.114.085" transform="translate(-32.579 -58.455)" fill="#fff"/>
      <path id="Caminho_4412" data-name="Caminho 4412" d="M122.282,192.2l6.505-7.814.471-1.262a.353.353,0,0,0-.421.085l-26.551,31.2h1.551l9.613-11.009L104.4,214.4h.923L127.773,187.1l.775-2.076Z" transform="translate(-35.59 -63.703)" fill="#fff"/>
      <path id="Caminho_4413" data-name="Caminho 4413" d="M127.431,199.622l-18.257,20.491h.956l16.945-19.019.595-1.59a.36.36,0,0,0-.239.118" transform="translate(-37.987 -69.417)" fill="#fff"/>
      <path id="Caminho_4414" data-name="Caminho 4414" d="M128.142,210.5l-9.56,13.4h.876l7.95-11.142.886-2.373a.343.343,0,0,0-.153.115" transform="translate(-41.26 -73.202)" fill="#fff"/>
      <path id="Caminho_4415" data-name="Caminho 4415" d="M122.967,229.439h.985l1.353-1.426.638-1.708Z" transform="translate(-42.786 -78.742)" fill="#fff"/>
      <path id="Caminho_4416" data-name="Caminho 4416" d="M129.27,150.183l.207-.239.576-1.753L110.573,169.7l20.64-23.69a.354.354,0,0,0-.018-.48.351.351,0,0,1-.284-.077.275.275,0,0,1-.021-.026.349.349,0,0,0-.213.11L100.97,178.567l-4.3,5.4a.357.357,0,0,1-.5.059.455.455,0,0,1-.052-.062l-7.542,8.383,11.069-16.8a.357.357,0,0,0-.569-.43l-9.92,11.521,8.578-12.152a.357.357,0,0,0-.56-.441l-6.5,7.417,6.453-8.391a.357.357,0,0,0-.55-.455L86.573,183.858l9.258-13.3a.357.357,0,0,0-.552-.45l-5.9,6.193,7.806-9.347a.357.357,0,0,0-.538-.47l-9.624,10.55L95.4,166.169a.358.358,0,0,0-.553-.453L81.677,180.9l.276.77,5.278-6.082-5.093,6.6.323.9L86.192,179l-3.635,4.354.3.824,9.738-10.215-8.843,12.7.368,1.026,6.389-7.177-6.112,7.948.32.891,8.507-9.712L85.271,190.9l.34.948L95.988,179.8,86.47,194.241l.389,1.081,14.21-15.8-14.08,16.16.29.806,20.237-22.348L92.352,191.6a.357.357,0,0,0,.537.47L115.2,166.934l-26.9,32.4.28.78,40.4-48.664.411-1.251a.4.4,0,0,0-.123-.019" transform="translate(-28.419 -50.602)" fill="#fff"/>
      <path id="Caminho_4417" data-name="Caminho 4417" d="M91.175,183.509l-9.054-24.361H37.607v-.477H81.944L57.7,93.455H0v-.476H57.527L51.189,75.925l.447-.167,6.4,17.221h62.473L106.284,53.468H68.55v-.476h37.563L96.887,27.366l.448-.162,9.283,25.787h86.652v.476H106.79l14.225,39.511H217.13v.476H121.185l23.479,65.216h29.091v.477H144.836l3.912,10.868-.448.162-3.971-11.03H82.63l8.993,24.194Zm-8.724-24.838h61.706L120.68,93.455H58.211ZM217.13,23.937H153.27v-.475h63.86Z" transform="translate(0 -8.164)" fill="#fff"/>
      <path id="Caminho_4418" data-name="Caminho 4418" d="M116.461,171.855l-.446-.165L167.427,33.133l.447.165Zm64.085-4.316-.447-.164L236.27,13.14l.449.162Z" transform="translate(-40.367 -4.572)" fill="#fff"/>
      <path id="Caminho_4419" data-name="Caminho 4419" d="M147.724,184.425,96.968,43.966l.448-.162,50.755,140.46ZM83.64,180.112,52.221,92.521l.448-.161,31.418,87.591Z" transform="translate(-18.17 -15.241)" fill="#fff"/>
      <path id="Caminho_4420" data-name="Caminho 4420" d="M90.632,156.3l-.448-.163L136.54,28.561l.447.163Zm61.884,0-.447-.161L208.536,0l.448.162Z" transform="translate(-31.379)" fill="#fff"/>
      <path id="Caminho_4421" data-name="Caminho 4421" d="M195.306,158.869l-.321-.842-8.046,9.335,7.671-10.316-.294-.771a.464.464,0,0,0-.061.052l-.355.44.4-.531-.291-.763a.341.341,0,0,0-.067.052l-8.5,9.943L193.6,154.4l-.645-1.69L180.85,166.329l10.876-16.847-.316-.827-13.678,21.191a.357.357,0,0,0,.567.43l14.773-16.62.047.2L179.013,173a.357.357,0,0,0,.559.443l7.227-8.456-7.307,9.676a.357.357,0,0,0,.563.439l3.131-3.889-2.744,3.691a.357.357,0,0,0,.558.445l9.449-10.964-10.383,14.4.273.776a.337.337,0,0,0,.106-.083l30.68-35.257-30.4,36.436.278.792,47.5-51.13.64-1.737L189.5,171.258,232.342,119.9l.736-2-48.043,55.209Z" transform="translate(-61.821 -41.024)" fill="#fff"/>
      <path id="Caminho_4422" data-name="Caminho 4422" d="M68.591,128.93H67.362l-5.724,9.861.439,1.223Z" transform="translate(-21.447 -44.861)" fill="#fff"/>
      <path id="Caminho_4423" data-name="Caminho 4423" d="M73.235,128.992l-10.451,11.9.3.84,11.3-12.74Z" transform="translate(-21.845 -44.882)" fill="#fff"/>
      <path id="Caminho_4424" data-name="Caminho 4424" d="M81.907,135.745a.358.358,0,0,0-.5.042l-7.155,8.2,6.283-8.463a.357.357,0,0,0-.248-.568l.666-.923a.357.357,0,0,0-.559-.443L66.648,149.461l.277.771,8.719-10.066-8.238,11.4.3.832.79-1.042a.361.361,0,0,0,.364-.11l5.463-6.257L68,153.21l.286.8,13.681-17.77a.357.357,0,0,0-.055-.494" transform="translate(-23.19 -46.438)" fill="#fff"/>
      <path id="Caminho_4425" data-name="Caminho 4425" d="M83.664,141.025a.357.357,0,0,0-.5.045L69.482,157.209l.278.776,4.723-5.569-4.576,5.978.288.8,13.529-17.674a.355.355,0,0,0-.059-.494" transform="translate(-24.176 -49.041)" fill="#fff"/>
      <path id="Caminho_4426" data-name="Caminho 4426" d="M84.582,146.225a.355.355,0,0,0-.492.047L70.933,161.651l.278.774,7.513-8.782-7.143,9.813.291.813L84.65,146.715a.357.357,0,0,0-.068-.49" transform="translate(-24.681 -50.851)" fill="#fff"/>
      <path id="Caminho_4427" data-name="Caminho 4427" d="M87.643,156.383a.357.357,0,0,0-.472.037L75.9,168.071,86,153a.357.357,0,0,0-.565-.434l-12.7,14.54.276.769L82.3,157.239,73.764,169.98l.348.968L85.672,159,75.9,175.933l.317.882,11.517-19.968a.355.355,0,0,0-.094-.463" transform="translate(-25.307 -53.042)" fill="#fff"/>
      <path id="Caminho_4428" data-name="Caminho 4428" d="M93.612,170.551l-7.343,8.136,6.758-8.507a.357.357,0,0,0-.546-.46L79.128,184.686l.275.764,5.286-5.924-5.107,6.425.31.862,8.93-9.891L80.376,188.16l.289.8L94.162,171a.357.357,0,0,0-.55-.454" transform="translate(-27.532 -59.012)" fill="#fff"/>
      <path id="Caminho_4429" data-name="Caminho 4429" d="M138.229,128.248l4.876-5.137,9.513-11.946-.258-.7a.362.362,0,0,0-.188.116l-48.4,60.773a.354.354,0,0,0,.006.441l4.853-5.394,29.909-37.56a.344.344,0,0,1-.3-.088.355.355,0,0,1-.013-.5" transform="translate(-36.082 -38.435)" fill="#fff"/>
      <path id="Caminho_4430" data-name="Caminho 4430" d="M103.875,201.705a.36.36,0,0,0,.222.076.355.355,0,0,0,.28-.136l4.3-5.4-4.853,5.394a.429.429,0,0,0,.052.063" transform="translate(-36.125 -68.284)" fill="#fff"/>
      <path id="Caminho_4431" data-name="Caminho 4431" d="M147.429,75.313l-3.944,5.7-1.064,2.928,8.086-8.973-9.277,12.25L140.4,89.5l16.142-17.521-.277-.754-6.535,7.093,6.35-7.6-.284-.775L149.5,77.488l6.112-8.072-.305-.835L145.194,79.8l8.321-12.03a.357.357,0,0,0-.571-.427l-8.172,10.125-.751,2.067Z" transform="translate(-48.853 -23.385)" fill="#fff"/>
      <path id="Caminho_4432" data-name="Caminho 4432" d="M150.189,69.719a.347.347,0,0,0,.153.07l-.807,1.54-1.82,5.013,4.559-8.7a.357.357,0,0,0-.6-.387l-1.228,1.558-.308.85a.307.307,0,0,0,.048.057" transform="translate(-51.396 -23.354)" fill="#fff"/>
      <path id="Caminho_4433" data-name="Caminho 4433" d="M156.379,75.446l-.278-.757L139.657,92.824l-.644,1.774Z" transform="translate(-48.369 -25.988)" fill="#fff"/>
      <path id="Caminho_4434" data-name="Caminho 4434" d="M144.39,92.975a.357.357,0,0,0,.5-.022l13.879-15.142-.276-.755L144.369,92.471a.355.355,0,0,0,.022.5" transform="translate(-50.2 -26.811)" fill="#fff"/>
      <path id="Caminho_4435" data-name="Caminho 4435" d="M149.383,87.274,142.42,97.336l-11.865,13.52-.674,1.857,10.956-11.841a.385.385,0,0,0,.031-.039l2.115-3.057,12.535-14.283-.28-.764-8.716,9.932L154.6,80.987l-.494-1.352-21.972,26.872-1.451,3.993Z" transform="translate(-45.192 -27.709)" fill="#fff"/>
      <path id="Caminho_4436" data-name="Caminho 4436" d="M138.366,113.221a.357.357,0,0,0,.481.488l-21.258,26.038-.684,1.884a.353.353,0,0,0,.153-.1l36.685-44.934-.292-.8-12.815,14.793,4.6-8.32-2.145,2.406Z" transform="translate(-40.676 -33.332)" fill="#fff"/>
      <path id="Caminho_4437" data-name="Caminho 4437" d="M126.811,121.866l21.464-24.62-.8,1.439,2.145-2.405.878-1.588,4.6-5.282-.281-.765-2.683,3.079,2.292-4.149-.325-.887-4.194,7.591L125.695,122.06l-.648,1.785Z" transform="translate(-43.509 -30.163)" fill="#fff"/>
      <path id="Caminho_4438" data-name="Caminho 4438" d="M147.129,105.087,126.46,128.268l-1.793,2.057-.629,1.733,21.531-24.149Z" transform="translate(-43.159 -36.565)" fill="#fff"/>
      <path id="Caminho_4439" data-name="Caminho 4439" d="M167.855,92.417l-.272-.742a.361.361,0,0,0-.071.054l-5.6,6.286-1.559,2.82Z" transform="translate(-55.793 -31.898)" fill="#fff"/>
      <path id="Caminho_4440" data-name="Caminho 4440" d="M126.8,140.638l-1.764,1.978-.028.078Z" transform="translate(-43.494 -48.934)" fill="#fff"/>
      <path id="Caminho_4441" data-name="Caminho 4441" d="M157.06,106.624l2.145-2.405,1.559-2.82-2.145,2.405Z" transform="translate(-54.648 -35.281)" fill="#fff"/>
      <path id="Caminho_4442" data-name="Caminho 4442" d="M113.984,144.974,135.176,123.4l-22.347,23.984-1.059,2.917,24.757-26.363-25.643,28.8-.583,1.607a.347.347,0,0,0,.2-.1l29.622-32.556-1.992,2.332a.357.357,0,1,0,.544.464L154.539,105.9l-.575-1.573-5.252,5.593,5.24-5.625-.254-.694a.375.375,0,0,0-.157.087l-5.729,5.831,5.454-7.1-.3-.829-7.26,7.883,6.247-10.649-.2-.54a.355.355,0,0,0-.406.156l-7.924,13.509-29.264,31.776-.486,1.337a.351.351,0,0,0,.312-.1M144,112.383l4.32-4.692-4.637,6.037-1.171,1.192Zm-2.28,2.475-1.262,2.152L128.969,128.7Z" transform="translate(-38.379 -34.195)" fill="#fff"/>
      <path id="Caminho_4443" data-name="Caminho 4443" d="M165.082,126.812a.357.357,0,0,0-.493.021l-.5.518,4.723-5.658,3.358-5.018-.041-.111-8.278,9.176,7.954-10.06-.727-1.984a.365.365,0,0,0-.066.048l-9.96,10.492-4.563,5.729a.343.343,0,0,0,.2-.1l1.919-2.021-1.493,1.7a.358.358,0,0,0,.022.5L155.377,132a.357.357,0,0,0,.525.484l10.513-11.134-9.942,12.572a.353.353,0,0,0,.029.468.346.346,0,0,1,.289.082.1.1,0,0,1,.016.021.366.366,0,0,0,.212-.11l3.674-4.074-3.738,4.478a.357.357,0,0,0,.532.476l2.006-2.089-2.066,2.57a.357.357,0,0,0,.055.5.358.358,0,0,0,.5-.054l6.755-8.406.458-.685a.348.348,0,0,0-.115-.288" transform="translate(-54.031 -39.56)" fill="#fff"/>
      <path id="Caminho_4444" data-name="Caminho 4444" d="M157.152,145.428a.25.25,0,0,0,.02.026.351.351,0,0,0,.284.077.08.08,0,0,0-.016-.021.35.35,0,0,0-.288-.082" transform="translate(-54.68 -50.6)" fill="#fff"/>
      <path id="Caminho_4445" data-name="Caminho 4445" d="M156.6,135a.355.355,0,0,0,.013.5.344.344,0,0,0,.3.088l4.563-5.729Z" transform="translate(-54.455 -45.185)" fill="#fff"/>
      <path id="Caminho_4446" data-name="Caminho 4446" d="M175.72,124.044l-1.242,1.444,1.217-1.512-.3-.815L171.93,127l3.377-4.086-.291-.793-11.547,13.147,10.575-15.8-.05-.138-3.612,4.325-3.617,5.406a.353.353,0,0,1-.072.205l-.386.481-6.457,9.65a.357.357,0,0,0,.565.434l.5-.567a.357.357,0,0,0,.609.333l6.386-7.072-7.485,9.307a.356.356,0,0,0,.051.5.355.355,0,0,0,.5-.04L176,124.811Z" transform="translate(-55.597 -41.519)" fill="#fff"/>
      <path id="Caminho_4447" data-name="Caminho 4447" d="M179.645,118.957l-.254-.692-3.357,5.019Z" transform="translate(-61.25 -41.15)" fill="#fff"/>
      <path id="Caminho_4448" data-name="Caminho 4448" d="M170.24,134.252l-.458.685.387-.481a.354.354,0,0,0,.072-.2" transform="translate(-59.075 -46.712)" fill="#fff"/>
      <path id="Caminho_4449" data-name="Caminho 4449" d="M179.594,133.742l-12.477,14.2,11.067-18.081-.313-.855-13.528,22.1a.357.357,0,0,0,.573.423L179.882,134.5Z" transform="translate(-57.164 -44.886)" fill="#fff"/>
      <path id="Caminho_4450" data-name="Caminho 4450" d="M182.755,142.7l-12.944,14.62,11.449-18.542-.321-.839L167.02,160.48a.355.355,0,0,0,.091.473.351.351,0,0,0,.212.071.361.361,0,0,0,.268-.121l15.451-17.45Z" transform="translate(-58.095 -47.996)" fill="#fff"/>
      <path id="Caminho_4451" data-name="Caminho 4451" d="M186.711,152.845,173.2,167.9l11.67-19.875-.325-.854L170.788,170.6a.357.357,0,0,0,.573.419L187,153.594Z" transform="translate(-59.408 -51.208)" fill="#fff"/>
      <path id="Caminho_4452" data-name="Caminho 4452" d="M190.095,161.305c0,.005-.01.007-.014.011l-11.266,13.445,10.258-16.135-.318-.833L175.3,178.966a.358.358,0,0,0,.091.481.357.357,0,0,0,.484-.059l14.513-17.322Z" transform="translate(-60.974 -54.904)" fill="#fff"/>
      <path id="Caminho_4453" data-name="Caminho 4453" d="M188.78,207.5l35.194-39.164.652-1.794-19.948,22.2,20.792-24.52.7-1.933-37.686,44.445Z" transform="translate(-65.584 -56.467)" fill="#fff"/>
      <path id="Caminho_4454" data-name="Caminho 4454" d="M195.774,211.87,223.022,181.7l.648-1.782L208.4,196.823l16.042-19.035.709-1.949L194.786,211.87Z" transform="translate(-67.775 -61.182)" fill="#fff"/>
      <path id="Caminho_4455" data-name="Caminho 4455" d="M202.218,215.143l19.215-19.713.593-1.631-16.043,16.458,18.394-22.926.759-2.087-23.988,29.9Z" transform="translate(-69.988 -64.455)" fill="#fff"/>
      <path id="Caminho_4456" data-name="Caminho 4456" d="M216.624,224.026l6.413-10.122,1.138-3.129-8.4,13.252Z" transform="translate(-75.079 -73.338)" fill="#fff"/>
      <path id="Caminho_4457" data-name="Caminho 4457" d="M219.34,228.26l1.959-2.773.926-2.546-3.76,5.319Z" transform="translate(-76.014 -77.571)" fill="#fff"/>
      <path id="Caminho_4458" data-name="Caminho 4458" d="M253.957,41.281a.355.355,0,0,0,.265-.118l16.344-18.089a.385.385,0,0,0,.048-.082l-.933,0-4.519,5,4.155-5-.977-.005-4.367,4.7,3.744-4.456a.35.35,0,0,0,.081-.245l-.825-.005-6.852,7.317,5.152-7.325-.869,0-7.8,11.093a.357.357,0,0,0,.552.451l1.5-1.6-4.412,5.251a.357.357,0,0,0,.534.473l5.88-6.327-6.971,8.4a.356.356,0,0,0,.274.584" transform="translate(-88.239 -7.989)" fill="#fff"/>
      <path id="Caminho_4459" data-name="Caminho 4459" d="M248.239,53.205a.359.359,0,0,0,.271-.125l25.8-30.036-.937-.005L256.581,42.589,271.53,23.155a.346.346,0,0,0,.061-.123l-.862,0-22.773,29.6a.358.358,0,0,0,.058.495.353.353,0,0,0,.226.08" transform="translate(-86.25 -8.012)" fill="#fff"/>
      <path id="Caminho_4460" data-name="Caminho 4460" d="M244.977,58.175l3.927-4.418-3.593,4.187a.357.357,0,0,0,.539.469l31.259-35.306c.007-.008.01-.02.017-.029l-.942,0-.34.384.237-.275a.338.338,0,0,0,.061-.109l-.915,0-5.992,6.742,5.736-6.708a.187.187,0,0,0,.02-.035l-.925-.005L244.438,57.706a.357.357,0,0,0,.539.469" transform="translate(-85.022 -8.024)" fill="#fff"/>
      <path id="Caminho_4461" data-name="Caminho 4461" d="M271.518,23.093l-.9,0-37.6,49.082a.357.357,0,0,0,.552.453l12.381-14.1-14.43,17.122a.357.357,0,0,0,.541.468l7.353-8.28-6.779,7.889a.357.357,0,0,0,.537.47l27.446-30.7L227,88.989a.358.358,0,0,0,.55.456l5.065-5.707L226.532,90.8a.357.357,0,0,0,.537.47l5.159-5.8-6.648,7.713a.357.357,0,0,0,.27.59.353.353,0,0,0,.265-.117L260.04,56.12l.648-1.781L245.849,70.755l15.342-17.8.706-1.941-5.486,6.17,5.612-6.519.7-1.933L234,81.093l32.01-41.4.786-2.162c-.012.01-.027.018-.038.029l-9.814,10.977,10.141-11.8.7-1.915-17.97,20.236L268.482,32.9l.442-1.217a.352.352,0,0,0-.419.081L240.074,64.141,271.516,23.1l0,0" transform="translate(-78.46 -8.033)" fill="#fff"/>
      <path id="Caminho_4462" data-name="Caminho 4462" d="M217.112,123.314a.357.357,0,0,0,.5-.036l5.123-5.776-5.1,5.941a.357.357,0,0,0,.537.471l22.387-25.052-26.975,32.52a.371.371,0,0,0-.056.1c-.159.4-.359,1.1.089,1.364.379.223,1.012.592,6.867-6.64,3.753-4.637,10.681-12.679,17-19.933l-25.407,31.065a4,4,0,0,1,.443.9.352.352,0,0,0,.23.085.358.358,0,0,0,.273-.127l33.819-40.147.717-1.973-16.58,19.283L248.2,94.286l.828-2.277c-5.212,5.909-22.324,25.368-29.106,33.744-3.978,4.913-5.375,6.1-5.852,6.372a2.493,2.493,0,0,1,.095-.333l36.318-43.785.816-2.243-9.266,10.37,9.529-11.091.7-1.913-24.547,27.685,26.274-32.433.749-2.059-37.665,46.495a.358.358,0,0,0,.046.5" transform="translate(-73.76 -26.556)" fill="#fff"/>
      <path id="Caminho_4463" data-name="Caminho 4463" d="M61.411,144.053l-.425.731.477,1.15.387-.659Z" transform="translate(-21.22 -50.123)" fill="#fff"/>
      <path id="Caminho_4464" data-name="Caminho 4464" d="M62.143,147.719l.2.952.522-.588-.3-.84Z" transform="translate(-21.622 -51.232)" fill="#fff"/>
      <path id="Caminho_4465" data-name="Caminho 4465" d="M183.3,190.9l38.609-40.645c-11.959,14.212-33.459,40.022-36.683,45.685l.346.908,39.717-44.569.659-1.813L188.16,192.876c8.245-11.276,33.1-40.762,40.275-49.238l.756-2.081-46.154,48.59Z" transform="translate(-63.687 -49.254)" fill="#fff"/>
      <path id="Caminho_4466" data-name="Caminho 4466" d="M164.075,69.242a.357.357,0,0,0-.551-.454l-.273.3.306.835Z" transform="translate(-56.803 -23.893)" fill="#fff"/>
      <path id="Caminho_4467" data-name="Caminho 4467" d="M171.9,92.171a.356.356,0,0,0-.029-.5.352.352,0,0,0-.433-.025l.272.743Z" transform="translate(-59.653 -31.865)" fill="#fff"/>
      <path id="Caminho_4468" data-name="Caminho 4468" d="M174.081,98.817a.357.357,0,0,0-.128-.488.331.331,0,0,0-.083-.029l.2.54Z" transform="translate(-60.497 -34.203)" fill="#fff"/>
    </g>
  </g>
</svg>
