<svg id="Grupo_10077" data-name="Grupo 10077" xmlns="http://www.w3.org/2000/svg" xmlns:xlink="http://www.w3.org/1999/xlink" width="721.291" height="268.913" viewBox="0 0 721.291 268.913">
  <defs>
    <clipPath id="clip-path">
      <rect id="Ret창ngulo_3199" data-name="Ret창ngulo 3199" width="721.291" height="268.913" fill="none"/>
    </clipPath>
    <clipPath id="clip-path-2">
      <path id="Caminho_4470" data-name="Caminho 4470" d="M395.653,194.647l-13.017,35.224-13.38-35.224H361.7l17.476,43.143-3.094,8.191c-1.822,4.825-4.009,7.646-8.193,7.646a9.578,9.578,0,0,1-4.552-1l-.635,5.826a19.23,19.23,0,0,0,5.55.637c7.373,0,10.832-4.187,13.381-10.743l21.3-53.7Zm198.519,42.6h6.007v-42.6h-6.007Zm-71.453-38.228c8.646,0,13.835,5.553,13.835,13.654H507.79c0-7.009,7.1-13.654,14.929-13.654m-21.482,16.93c0,12.833,9.374,22.392,22.028,22.392a22.208,22.208,0,0,0,18.295-9.013l-4.642-3.82a16.139,16.139,0,0,1-13.653,7.372c-8.464,0-14.927-6.736-15.656-15.291h35.5v-2.731c0-11.652-7.463-21.209-20.389-21.3-12.108,0-21.482,9.558-21.482,22.391m50.79-9.558c0,8.1,8.012,10.468,10.922,11.2l5.826,1.364c4.462,1.093,8.1,2.55,8.1,6.828,0,4.915-5.1,7.1-10.014,7.1A12.92,12.92,0,0,1,555.67,226.5l-5.19,3.552c4.005,6.007,9.92,8.283,16.384,8.283,8.283,0,16.567-3.824,16.567-13.106,0-6.009-4.461-10.287-10.378-11.652l-6.1-1.457c-5.552-1.274-8.374-2.73-8.374-6.736,0-4.55,4.642-6.371,8.827-6.371a9.938,9.938,0,0,1,9.194,5.735l5.373-3.549c-2.732-5.553-8.287-7.647-14.2-7.647-8.009,0-15.746,4-15.746,12.833M619.02,215.4c0-8.921,6.917-16.386,15.839-16.386,10.011,0,16.11,7.465,16.11,16.386.364,9.83-7.372,16.382-16.11,16.382-8.922,0-15.839-7.462-15.839-16.382m-6.552.181c0,12.471,9.919,21.661,22.208,21.661,6.189,0,12.106-2.275,15.928-8.007h.182v7.645c0,9.192-4.368,16.746-16.566,16.746a20.2,20.2,0,0,1-16.293-7.827l-4.459,4.732c5.462,5.827,12.014,8.56,20.482,8.56,19.111,0,22.845-12.927,22.845-22.211V194.647h-6.009v7.1H650.6a19.626,19.626,0,0,0-16.475-8.192c-12.559,0-21.661,9.648-21.661,22.028m63.986-14.11h-.182a57.073,57.073,0,0,0-.273-6.825H669.81c.182,3.094.454,7.1.454,9.374v33.222h6.008V215.4c0-15.568,11.651-16.386,12.926-16.386,8.92,0,11.56,5.188,11.56,14.656v23.572h6.006V210.21c0-10.557-5.186-16.656-16.019-16.656-5.643,0-11.652,3.277-14.291,7.918M592.8,178.261a4.37,4.37,0,1,0,4.37-4.367,4.43,4.43,0,0,0-4.37,4.367m-149,.548h12.742c19.658,0,28.855,12.925,28.855,26.215s-9.2,26.214-28.855,26.214H443.8ZM437.25,172.8v64.442h21.388c16.11,0,33.862-10.741,33.862-32.219S474.748,172.8,458.638,172.8ZM316.919,215.945a16.584,16.584,0,0,1,17.021-16.93c9.922,0,16.111,7.372,16.111,16.93s-6.189,16.931-16.111,16.931a16.585,16.585,0,0,1-17.021-16.931m-5.734-47.512v68.81h6.008v-7.1h.182c3.913,5.734,10.922,8.192,16.565,8.192,13.289,0,22.665-9.559,22.665-22.392s-9.376-22.391-22.665-22.391c-5.643,0-12.652,2.458-16.565,8.192h-.182V168.433Zm1.274-38.359h21.9V59.113h-21.9Zm205.583,0h21.9V59.113h-21.9ZM371.448,68.749h-.293V59.112H350.132v70.962h21.9V94.74c0-9.2,1.751-18.106,13.141-18.106,11.242,0,11.389,10.512,11.389,18.69v34.75h21.9V90.943c0-18.981-4.089-33.582-26.284-33.582-10.658,0-17.812,5.84-20.732,11.388m83.81,0h-.294V59.112H433.941v70.962h21.9V94.74c0-9.2,1.752-18.106,13.143-18.106,11.24,0,11.387,10.512,11.387,18.69v34.75h21.9V90.943c0-18.981-4.088-33.582-26.281-33.582-10.661,0-17.813,5.84-20.734,11.388m121.773,0h-.293V59.112H555.713v70.962h21.9V94.74c0-9.2,1.754-18.106,13.141-18.106,11.244,0,11.389,10.512,11.389,18.69v34.75h21.9V90.943c0-18.981-4.087-33.582-26.282-33.582-10.66,0-17.812,5.84-20.733,11.388M658.8,94.155a17.522,17.522,0,1,1,17.52,17.521A17.665,17.665,0,0,1,658.8,94.155m-21.9.146c0,21.464,13.871,36.648,34.9,36.648,6.571,0,15.038-2.481,20-9.344h.29v6.863c0,10.074-6.277,17.375-19.565,17.375-8.906,0-16.354-3.5-23.069-9.2l-12.12,18.1c10.222,8.175,23.071,10.365,35.629,10.365,27.449,0,41.028-14.307,41.028-41.028V59.112H693.841v9.346h-.293c-3.357-5.111-11.827-11.1-24.238-11.1-20.148,0-32.413,18.105-32.413,36.94M310.708,36.773a12.7,12.7,0,1,0,12.7-12.7,12.711,12.711,0,0,0-12.7,12.7m205.584,0a12.7,12.7,0,1,0,12.7-12.7,12.711,12.711,0,0,0-12.7,12.7" fill="none"/>
    </clipPath>
  </defs>
  <g id="Grupo_10072" data-name="Grupo 10072">
    <g id="Grupo_10071" data-name="Grupo 10071" clip-path="url(#clip-path)">
      <path id="Caminho_4469" data-name="Caminho 4469" d="M312.459,130.073h21.9V59.112h-21.9Zm-1.751-93.3a12.7,12.7,0,1,0,12.7-12.7,12.712,12.712,0,0,0-12.7,12.7m39.423,93.3h21.9V94.739c0-9.2,1.751-18.1,13.141-18.1,11.242,0,11.389,10.512,11.389,18.689v34.75h21.9V90.942c0-18.98-4.089-33.582-26.284-33.582-10.658,0-17.812,5.84-20.732,11.389h-.292V59.112H350.131Zm83.81,0h21.9V94.739c0-9.2,1.752-18.1,13.143-18.1,11.24,0,11.388,10.512,11.388,18.689v34.75h21.9V90.942c0-18.98-4.088-33.582-26.281-33.582-10.66,0-17.813,5.84-20.735,11.389h-.293V59.112H433.941Zm84.1,0h21.9V59.112h-21.9Zm-1.749-93.3a12.7,12.7,0,1,0,12.7-12.7,12.712,12.712,0,0,0-12.7,12.7m39.421,93.3h21.9V94.739c0-9.2,1.753-18.1,13.14-18.1,11.244,0,11.389,10.512,11.389,18.689v34.75h21.9V90.942c0-18.98-4.087-33.582-26.281-33.582-10.66,0-17.812,5.84-20.732,11.389h-.294V59.112H555.713ZM713.99,59.112H693.84v9.345h-.292c-3.357-5.111-11.827-11.1-24.238-11.1-20.148,0-32.413,18.1-32.413,36.941,0,21.464,13.871,36.648,34.9,36.648,6.571,0,15.039-2.482,20-9.345h.291v6.863c0,10.075-6.277,17.376-19.565,17.376-8.906,0-16.354-3.505-23.069-9.2l-12.12,18.1c10.222,8.175,23.071,10.365,35.629,10.365,27.449,0,41.028-14.308,41.028-41.028ZM658.8,94.154a17.521,17.521,0,1,1,17.52,17.521A17.664,17.664,0,0,1,658.8,94.154M311.185,237.243h6.008v-7.1h.182c3.913,5.735,10.922,8.193,16.565,8.193,13.289,0,22.665-9.559,22.665-22.392s-9.376-22.391-22.665-22.391c-5.643,0-12.652,2.457-16.565,8.192h-.182V168.432h-6.008Zm38.866-21.3c0,9.558-6.189,16.93-16.111,16.93a16.93,16.93,0,1,1,0-33.86c9.922,0,16.111,7.372,16.111,16.93m19.2-21.3H361.7l17.476,43.144-3.1,8.191c-1.821,4.824-4.007,7.645-8.192,7.645a9.581,9.581,0,0,1-4.552-1l-.635,5.827a19.262,19.262,0,0,0,5.549.636c7.373,0,10.833-4.187,13.382-10.743l21.3-53.7h-7.283l-13.017,35.225Zm67.994,42.6h21.389c16.111,0,33.861-10.742,33.861-32.22S474.749,172.8,458.638,172.8H437.249Zm6.555-58.435h12.741c19.66,0,28.856,12.926,28.856,26.215s-9.2,26.215-28.856,26.215H443.8Zm99.3,38.777v-2.732c0-11.651-7.463-21.208-20.389-21.3-12.107,0-21.482,9.558-21.482,22.391s9.375,22.392,22.028,22.392a22.211,22.211,0,0,0,18.295-9.013l-4.642-3.821a16.137,16.137,0,0,1-13.653,7.372c-8.464,0-14.927-6.736-15.656-15.29Zm-35.318-4.916c0-7.009,7.1-13.654,14.929-13.654,8.647,0,13.835,5.553,13.835,13.654ZM581.976,201.2c-2.732-5.553-8.287-7.646-14.2-7.646-8.009,0-15.746,4-15.746,12.833,0,8.1,8.012,10.468,10.922,11.2l5.826,1.364c4.462,1.093,8.1,2.55,8.1,6.828,0,4.914-5.1,7.1-10.013,7.1a12.92,12.92,0,0,1-11.2-6.374l-5.189,3.552c4.006,6.008,9.92,8.284,16.384,8.284,8.283,0,16.567-3.824,16.567-13.107,0-6.008-4.461-10.287-10.378-11.651l-6.1-1.457c-5.552-1.275-8.373-2.731-8.373-6.736,0-4.551,4.64-6.371,8.827-6.371a9.937,9.937,0,0,1,9.193,5.735Zm18.2-6.554h-6.006v42.6h6.006Zm1.366-16.385a4.37,4.37,0,1,0-4.369,4.369,4.426,4.426,0,0,0,4.369-4.369m11.924,72.271c5.462,5.827,12.014,8.559,20.482,8.559,19.111,0,22.844-12.926,22.844-22.211V194.646h-6.007v7.1H650.6a19.626,19.626,0,0,0-16.475-8.192c-12.559,0-21.661,9.648-21.661,22.028,0,12.47,9.919,21.661,22.208,21.661,6.189,0,12.107-2.276,15.928-8.008h.183v7.645c0,9.193-4.37,16.746-16.567,16.746a20.2,20.2,0,0,1-16.293-7.827ZM619.02,215.4c0-8.92,6.917-16.385,15.839-16.385,10.011,0,16.11,7.465,16.11,16.385.364,9.83-7.372,16.382-16.11,16.382-8.922,0-15.839-7.462-15.839-16.382m50.79-20.754c.182,3.1.454,7.1.454,9.375v33.222h6.008V215.4c0-15.567,11.651-16.385,12.927-16.385,8.92,0,11.559,5.188,11.559,14.656v23.572h6.006V210.21c0-10.558-5.186-16.656-16.019-16.656-5.643,0-11.652,3.277-14.29,7.918h-.183a57.09,57.09,0,0,0-.273-6.826Z" fill="#01c4f6" fill-rule="evenodd"/>
    </g>
  </g>
  <g id="Grupo_10074" data-name="Grupo 10074">
    <g id="Grupo_10073" data-name="Grupo 10073" clip-path="url(#clip-path-2)">
      <rect id="Ret창ngulo_3200" data-name="Ret창ngulo 3200" width="417.884" height="249.624" transform="translate(303.407 16.768)" fill="#01c4f6"/>
    </g>
  </g>
  <g id="Grupo_10076" data-name="Grupo 10076">
    <g id="Grupo_10075" data-name="Grupo 10075" clip-path="url(#clip-path)">
      <path id="Caminho_4471" data-name="Caminho 4471" d="M57.033,134.223l1.52,3.712,7.544-9.066h-4.5Z" fill="#01c4f6"/>
      <path id="Caminho_4472" data-name="Caminho 4472" d="M56.439,128.785l1.208.107-1.5,2.3-.571-1.152Z" fill="#01c4f6"/>
      <path id="Caminho_4473" data-name="Caminho 4473" d="M56.119,132.368l.7,1.034,3.832-4.472H59.039Z" fill="#01c4f6"/>
      <path id="Caminho_4474" data-name="Caminho 4474" d="M65.124,156.064l.425,1.52,17.339-28.776h-1.4Z" fill="#01c4f6"/>
      <path id="Caminho_4475" data-name="Caminho 4475" d="M145.569,177.662,112.713,214.6l35.551-43.816L149.3,168a.532.532,0,0,0-.33.173L93.633,231.111h1.458l36.475-41.481L97.912,231.111H99.5l45.228-50.855,1.017-2.725a.533.533,0,0,0-.175.131" fill="#01c4f6"/>
      <path id="Caminho_4476" data-name="Caminho 4476" d="M132.952,197.057l9.977-11.984.723-1.935a.541.541,0,0,0-.646.131l-40.719,47.843h2.378l14.743-16.883L105.53,231.112h1.416l34.427-41.876,1.189-3.184Z" fill="#01c4f6"/>
      <path id="Caminho_4477" data-name="Caminho 4477" d="M137.173,199.685l-28,31.426h1.466l25.987-29.168.912-2.439a.55.55,0,0,0-.366.181" fill="#01c4f6"/>
      <path id="Caminho_4478" data-name="Caminho 4478" d="M133.243,210.561l-14.661,20.55h1.344l12.192-17.088,1.359-3.639a.526.526,0,0,0-.234.177" fill="#01c4f6"/>
      <path id="Caminho_4479" data-name="Caminho 4479" d="M122.967,231.111h1.51l2.075-2.187.978-2.619Z" fill="#01c4f6"/>
      <path id="Caminho_4480" data-name="Caminho 4480" d="M154.667,152.719l.318-.367.883-2.688-29.876,32.992,31.654-36.332a.543.543,0,0,0-.027-.736.539.539,0,0,1-.435-.118.4.4,0,0,1-.032-.04.536.536,0,0,0-.326.168l-45.561,50.651-6.594,8.278a.547.547,0,0,1-.769.09.7.7,0,0,1-.079-.1L92.256,217.379l16.976-25.758a.548.548,0,0,0-.872-.66L93.147,208.629,106.3,189.993a.548.548,0,0,0-.859-.677L95.48,200.691l9.9-12.869a.548.548,0,0,0-.843-.7l-15.347,17.24,14.2-20.4a.548.548,0,0,0-.847-.69l-9.055,9.5,11.971-14.334a.548.548,0,0,0-.825-.721L89.87,193.9l12.86-16.661a.549.549,0,0,0-.848-.695L81.677,199.83l.424,1.181,8.1-9.328L82.386,201.8l.495,1.382,5.72-6.27-5.574,6.677.455,1.264,14.934-15.666L84.854,208.67l.565,1.573,9.8-11.007-9.373,12.189.491,1.367L99.381,197.9,87.189,215.169l.521,1.453,15.915-18.481-14.6,22.147.6,1.657,21.792-24.227L89.823,222.5l.444,1.236L121.3,189.464,98.049,216.239a.547.547,0,0,0,.823.721l34.22-38.551L91.836,228.1l.43,1.2,61.959-74.632.63-1.918a.617.617,0,0,0-.188-.03" fill="#01c4f6"/>
      <path id="Caminho_4481" data-name="Caminho 4481" d="M139.828,268.913l-13.886-37.361H57.675v-.731h68L88.5,130.8H0v-.73H88.225L78.5,103.92l.685-.256L89,130.074h95.81L163,69.479h-57.87v-.73h57.607l-14.148-39.3.687-.248,14.237,39.547H296.4v.73H163.774l21.815,60.6h147.4v.73H185.851l36.007,100.017h44.614v.731h-44.35l6,16.668-.687.248-6.09-16.916H126.722l13.792,37.105Zm-13.379-38.092h94.634L185.076,130.8h-95.8ZM332.994,24.191H235.057v-.729h97.937Z" fill="#01c4f6"/>
      <path id="Caminho_4482" data-name="Caminho 4482" d="M116.7,256.547l-.684-.253L194.861,43.8l.685.253Zm98.281-6.619-.686-.251L300.44,13.14l.688.249Z" fill="#01c4f6"/>
      <path id="Caminho_4483" data-name="Caminho 4483" d="M198.686,259.463,120.846,44.052l.687-.248,77.839,215.412ZM100.4,252.848,52.221,118.517l.687-.247L101.091,252.6Z" fill="#01c4f6"/>
      <path id="Caminho_4484" data-name="Caminho 4484" d="M90.871,239.709l-.687-.25L161.276,43.8l.686.25Zm94.906,0-.686-.247L271.691,0l.687.248Z" fill="#01c4f6"/>
      <path id="Caminho_4485" data-name="Caminho 4485" d="M204.715,180.729l-.493-1.291-12.339,14.317,11.765-15.821-.451-1.183a.7.7,0,0,0-.093.08l-.545.675.616-.814-.446-1.17a.519.519,0,0,0-.1.08L189.6,190.85,202.1,173.875l-.989-2.592L182.545,192.17l16.679-25.837-.485-1.269-20.977,32.5a.547.547,0,0,0,.869.659l22.656-25.489.072.3L179.727,202.4a.547.547,0,0,0,.858.679l11.083-12.969-11.206,14.84a.547.547,0,0,0,.863.673l4.8-5.965-4.208,5.66a.547.547,0,0,0,.855.683l14.491-16.815-15.924,22.08.418,1.19a.515.515,0,0,0,.162-.127l47.052-54.07L182.354,214.14l.427,1.215,72.851-78.414.981-2.664L195.8,199.728l65.708-78.762,1.129-3.062-73.68,84.67Z" fill="#01c4f6"/>
      <path id="Caminho_4486" data-name="Caminho 4486" d="M72.3,128.93H70.417l-8.779,15.123.673,1.875Z" fill="#01c4f6"/>
      <path id="Caminho_4487" data-name="Caminho 4487" d="M78.812,128.992l-16.028,18.25.463,1.289,17.33-19.539Z" fill="#01c4f6"/>
      <path id="Caminho_4488" data-name="Caminho 4488" d="M90.05,136.963a.548.548,0,0,0-.76.064L78.317,149.6l9.635-12.979a.548.548,0,0,0-.38-.871l1.022-1.416a.548.548,0,0,0-.857-.68L66.648,158l.425,1.183,13.371-15.437L67.81,161.233l.459,1.276,1.212-1.6a.553.553,0,0,0,.558-.168l8.378-9.6-9.7,12.6.439,1.225,20.981-27.252a.547.547,0,0,0-.085-.758" fill="#01c4f6"/>
      <path id="Caminho_4489" data-name="Caminho 4489" d="M91.232,141.068a.547.547,0,0,0-.761.069l-20.989,24.75.426,1.19,7.244-8.541L70.134,167.7l.441,1.226,20.748-27.1a.545.545,0,0,0-.091-.757" fill="#01c4f6"/>
      <path id="Caminho_4490" data-name="Caminho 4490" d="M91.866,146.266a.544.544,0,0,0-.754.072L70.933,169.924l.426,1.187,11.522-13.469-10.954,15.05.447,1.247,19.6-26.921a.548.548,0,0,0-.1-.752" fill="#01c4f6"/>
      <path id="Caminho_4491" data-name="Caminho 4491" d="M95.6,158.485a.548.548,0,0,0-.724.057L77.593,176.41,93.077,153.3a.547.547,0,0,0-.867-.665l-19.478,22.3.423,1.18L87.4,159.8l-13.09,19.54.534,1.485,17.729-18.328L77.6,188.467l.486,1.352L95.743,159.2a.544.544,0,0,0-.144-.71" fill="#01c4f6"/>
      <path id="Caminho_4492" data-name="Caminho 4492" d="M101.341,171.058,90.079,183.535l10.364-13.046a.548.548,0,0,0-.838-.705L79.128,192.735l.422,1.172,8.107-9.085-7.832,9.854L80.3,196,94,180.829,81.042,198.063l.444,1.234,20.7-27.543a.548.548,0,0,0-.844-.7" fill="#01c4f6"/>
      <path id="Caminho_4493" data-name="Caminho 4493" d="M156.654,137.739l7.478-7.878,14.589-18.32-.4-1.078a.556.556,0,0,0-.289.178l-74.222,93.2a.543.543,0,0,0,.009.677l7.442-8.272,45.869-57.6a.528.528,0,0,1-.46-.135.545.545,0,0,1-.02-.773" fill="#01c4f6"/>
      <path id="Caminho_4494" data-name="Caminho 4494" d="M103.9,204.617a.553.553,0,0,0,.341.117.545.545,0,0,0,.429-.208l6.593-8.277-7.442,8.272a.65.65,0,0,0,.079.1" fill="#01c4f6"/>
      <path id="Caminho_4495" data-name="Caminho 4495" d="M151.177,79.637l-6.048,8.745-1.631,4.49,12.4-13.761L141.672,97.9l-1.268,3.494L165.16,74.521l-.425-1.156L154.713,84.243l9.739-11.65-.435-1.189-9.67,11.57L163.72,70.6l-.468-1.28-15.5,17.2,12.762-18.449a.547.547,0,0,0-.875-.655L147.1,82.941l-1.151,3.17Z" fill="#01c4f6"/>
      <path id="Caminho_4496" data-name="Caminho 4496" d="M151.509,71.107a.532.532,0,0,0,.234.108l-1.238,2.362-2.791,7.688,6.992-13.345a.548.548,0,0,0-.915-.593l-1.884,2.39-.472,1.3a.468.468,0,0,0,.074.087" fill="#01c4f6"/>
      <path id="Caminho_4497" data-name="Caminho 4497" d="M165.645,75.85l-.426-1.161L140,102.5l-.988,2.72Z" fill="#01c4f6"/>
      <path id="Caminho_4498" data-name="Caminho 4498" d="M144.452,101.469a.548.548,0,0,0,.774-.033l21.285-23.222-.423-1.158L144.419,100.7a.545.545,0,0,0,.033.772" fill="#01c4f6"/>
      <path id="Caminho_4499" data-name="Caminho 4499" d="M159.789,91.35l-10.678,15.432-18.2,20.735-1.034,2.848,16.8-18.159a.574.574,0,0,0,.048-.06l3.244-4.689,19.224-21.9-.429-1.171L155.4,99.614l12.387-17.906-.757-2.073-33.7,41.211-2.225,6.123Z" fill="#01c4f6"/>
      <path id="Caminho_4500" data-name="Caminho 4500" d="M149.818,122.52a.547.547,0,0,0,.737.748l-32.6,39.933L116.9,166.09a.541.541,0,0,0,.235-.16L173.4,97.018l-.447-1.222L153.3,118.482l7.05-12.759-3.289,3.69Z" fill="#01c4f6"/>
      <path id="Caminho_4501" data-name="Caminho 4501" d="M127.753,140.638l32.917-37.757-1.22,2.207,3.29-3.689,1.346-2.436,7.06-8.1-.431-1.173L166.6,94.412l3.515-6.363-.5-1.361L163.184,98.33l-37.143,42.6-.994,2.737Z" fill="#01c4f6"/>
      <path id="Caminho_4502" data-name="Caminho 4502" d="M159.45,105.087l-31.7,35.55L125,143.791l-.964,2.657,33.021-37.036Z" fill="#01c4f6"/>
      <path id="Caminho_4503" data-name="Caminho 4503" d="M171.86,92.813l-.417-1.138a.551.551,0,0,0-.109.083l-8.594,9.64-2.391,4.325Z" fill="#01c4f6"/>
      <path id="Caminho_4504" data-name="Caminho 4504" d="M127.753,140.638l-2.706,3.034-.043.119Z" fill="#01c4f6"/>
      <path id="Caminho_4505" data-name="Caminho 4505" d="M157.06,109.413l3.289-3.689,2.391-4.325-3.29,3.689Z" fill="#01c4f6"/>
      <path id="Caminho_4506" data-name="Caminho 4506" d="M115.949,169.892l32.5-33.079L114.177,173.6l-1.624,4.473,37.968-40.43-39.326,44.17-.894,2.464a.532.532,0,0,0,.309-.159l45.428-49.929-3.055,3.576a.548.548,0,1,0,.834.711l24.328-28.5-.882-2.412-8.054,8.578,8.036-8.626-.39-1.064a.577.577,0,0,0-.241.134l-8.786,8.943,8.364-10.885-.466-1.272-11.134,12.089,9.58-16.332-.3-.828a.544.544,0,0,0-.622.239L161.1,119.255l-44.88,48.732-.745,2.051a.539.539,0,0,0,.479-.146m46.032-49.981,6.625-7.2-7.112,9.258-1.8,1.828Zm-3.5,3.8-1.936,3.3L138.93,144.939Z" fill="#01c4f6"/>
      <path id="Caminho_4507" data-name="Caminho 4507" d="M170.309,133.811a.548.548,0,0,0-.756.032l-.763.795,7.243-8.677,5.15-7.7-.063-.17-12.695,14.072,12.2-15.428-1.115-3.042a.559.559,0,0,0-.1.073l-15.275,16.091-7,8.786a.526.526,0,0,0,.312-.153l2.943-3.1L158.1,138a.549.549,0,0,0,.034.76l-2.707,3.008a.547.547,0,0,0,.805.742l16.123-17.076-15.247,19.281a.541.541,0,0,0,.045.717.531.531,0,0,1,.443.126.158.158,0,0,1,.024.032.561.561,0,0,0,.325-.168l5.635-6.248-5.733,6.867a.548.548,0,0,0,.816.73l3.076-3.2-3.168,3.941a.548.548,0,0,0,.084.77.549.549,0,0,0,.769-.083L169.782,135.3l.7-1.051a.534.534,0,0,0-.176-.441" fill="#01c4f6"/>
      <path id="Caminho_4508" data-name="Caminho 4508" d="M157.152,145.43a.391.391,0,0,0,.031.04.539.539,0,0,0,.435.118.122.122,0,0,0-.024-.032.537.537,0,0,0-.442-.126" fill="#01c4f6"/>
      <path id="Caminho_4509" data-name="Caminho 4509" d="M156.654,137.739a.545.545,0,0,0,.02.773.528.528,0,0,0,.46.135l7-8.786Z" fill="#01c4f6"/>
      <path id="Caminho_4510" data-name="Caminho 4510" d="M184.222,126.561l-1.9,2.214,1.867-2.319-.459-1.25-5.316,5.888,5.179-6.267-.447-1.216-17.709,20.163,16.218-24.236-.077-.211-5.54,6.633-5.547,8.291a.541.541,0,0,1-.111.315l-.592.737-9.9,14.8a.548.548,0,0,0,.867.665l.764-.87a.547.547,0,0,0,.934.51l9.794-10.846L160.76,153.834a.546.546,0,0,0,.078.763.544.544,0,0,0,.764-.062l23.051-26.8Z" fill="#01c4f6"/>
      <path id="Caminho_4511" data-name="Caminho 4511" d="M181.572,119.326l-.39-1.062-5.149,7.7Z" fill="#01c4f6"/>
      <path id="Caminho_4512" data-name="Caminho 4512" d="M170.485,134.252l-.7,1.051.593-.737a.544.544,0,0,0,.11-.314" fill="#01c4f6"/>
      <path id="Caminho_4513" data-name="Caminho 4513" d="M187.76,136.271l-19.135,21.772L185.6,130.314l-.48-1.311L164.371,162.9a.548.548,0,0,0,.878.648L188.2,137.428Z" fill="#01c4f6"/>
      <path id="Caminho_4514" data-name="Caminho 4514" d="M191.18,145.242l-19.852,22.421,17.559-28.436-.492-1.287-21.346,34.568a.544.544,0,0,0,.14.725.537.537,0,0,0,.325.109.553.553,0,0,0,.411-.185l23.7-26.762Z" fill="#01c4f6"/>
      <path id="Caminho_4515" data-name="Caminho 4515" d="M195.235,155.872,174.517,178.96l17.9-30.48-.5-1.309-21.1,35.931a.547.547,0,0,0,.879.643l23.98-26.723Z" fill="#01c4f6"/>
      <path id="Caminho_4516" data-name="Caminho 4516" d="M198.021,163.179c-.006.008-.015.011-.021.017l-17.277,20.62,15.731-24.745-.487-1.277-20.641,32.47a.549.549,0,0,0,.139.738.547.547,0,0,0,.742-.091l22.258-26.565Z" fill="#01c4f6"/>
      <path id="Caminho_4517" data-name="Caminho 4517" d="M188.937,231.629l53.974-60.063,1-2.751-30.592,34.043,31.886-37.6,1.078-2.965L188.488,230.45Z" fill="#01c4f6"/>
      <path id="Caminho_4518" data-name="Caminho 4518" d="M196.3,231.1l41.787-46.27.994-2.733-23.415,25.926,24.6-29.193,1.087-2.989L194.786,231.1Z" fill="#01c4f6"/>
      <path id="Caminho_4519" data-name="Caminho 4519" d="M202.789,231.1l29.469-30.232.909-2.5-24.6,25.241,28.21-35.159,1.164-3.2L201.148,231.1Z" fill="#01c4f6"/>
      <path id="Caminho_4520" data-name="Caminho 4520" d="M217.075,231.1l9.835-15.524,1.745-4.8L215.778,231.1Z" fill="#01c4f6"/>
      <path id="Caminho_4521" data-name="Caminho 4521" d="M219.806,231.1l3-4.252,1.42-3.9-5.766,8.157Z" fill="#01c4f6"/>
      <path id="Caminho_4522" data-name="Caminho 4522" d="M254.147,51.057a.544.544,0,0,0,.407-.181L279.62,23.134a.587.587,0,0,0,.074-.125L278.263,23l-6.93,7.67L277.7,23l-1.5-.008-6.7,7.2,5.742-6.834a.537.537,0,0,0,.125-.375l-1.266-.008L263.6,34.2l7.9-11.233-1.333-.007L258.2,39.973a.548.548,0,0,0,.847.691l2.3-2.454-6.766,8.053a.547.547,0,0,0,.819.726l9.018-9.7L253.727,50.161a.547.547,0,0,0,.42.9" fill="#01c4f6"/>
      <path id="Caminho_4523" data-name="Caminho 4523" d="M248.43,69.309a.55.55,0,0,0,.415-.191l39.568-46.063-1.437-.008-25.753,29.98,22.926-29.8a.529.529,0,0,0,.093-.189l-1.322-.007-34.925,45.4a.549.549,0,0,0,.089.759.541.541,0,0,0,.346.123" fill="#01c4f6"/>
      <path id="Caminho_4524" data-name="Caminho 4524" d="M245.31,76.912l6.023-6.776-5.51,6.421a.548.548,0,0,0,.826.719l47.94-54.146c.011-.013.015-.031.026-.044l-1.444-.007-.521.589.363-.422a.52.52,0,0,0,.093-.167l-1.4-.007-9.19,10.339,8.8-10.288a.276.276,0,0,0,.03-.053l-1.418-.008L244.484,76.193a.548.548,0,0,0,.826.719" fill="#01c4f6"/>
      <path id="Caminho_4525" data-name="Caminho 4525" d="M296.078,23.095l-1.373-.007L237.043,98.361a.547.547,0,0,0,.846.694l18.988-21.619-22.13,26.259a.548.548,0,0,0,.829.717l11.276-12.7-10.4,12.1a.547.547,0,0,0,.823.721L279.37,57.45l-51.573,66.7a.548.548,0,0,0,.843.7l7.768-8.753-9.322,10.829a.547.547,0,0,0,.824.721l7.912-8.9-10.2,11.829a.547.547,0,0,0,.414.9.541.541,0,0,0,.407-.18l52.028-57.558.993-2.731L256.711,96.191l23.529-27.3,1.083-2.977-8.413,9.463,8.606-10,1.078-2.964-44.049,49.629,49.091-63.5,1.205-3.316c-.018.016-.041.027-.058.045L273.732,62.113l15.552-18.1,1.068-2.937L262.793,72.113l28.628-33.971.678-1.867a.54.54,0,0,0-.642.124l-43.6,49.649L296.075,23.1l0-.005" fill="#01c4f6"/>
      <path id="Caminho_4526" data-name="Caminho 4526" d="M219.846,148.39a.547.547,0,0,0,.764-.055l7.856-8.858-7.829,9.111a.548.548,0,0,0,.823.723l34.333-38.42-41.369,49.873a.567.567,0,0,0-.086.147c-.243.608-.55,1.689.137,2.092.581.342,1.552.908,10.531-10.183,5.756-7.112,16.381-19.444,26.069-30.569l-38.964,47.642a6.143,6.143,0,0,1,.679,1.373.54.54,0,0,0,.353.13.549.549,0,0,0,.419-.195l51.866-61.57,1.1-3.026L241.1,136.178l26.422-32.306,1.27-3.492c-7.993,9.062-34.237,38.905-44.637,51.75-6.1,7.535-8.243,9.356-8.975,9.773a3.83,3.83,0,0,1,.145-.51l55.7-67.15,1.251-3.44-14.211,15.9L272.676,89.7l1.066-2.934L236.1,129.22,276.39,79.48l1.149-3.158-57.764,71.305a.548.548,0,0,0,.071.763" fill="#01c4f6"/>
      <path id="Caminho_4527" data-name="Caminho 4527" d="M61.638,144.053l-.652,1.121.732,1.764.593-1.01Z" fill="#01c4f6"/>
      <path id="Caminho_4528" data-name="Caminho 4528" d="M62.143,147.974l.3,1.46.8-.9-.464-1.289Z" fill="#01c4f6"/>
      <path id="Caminho_4529" data-name="Caminho 4529" d="M183.447,217.233,242.658,154.9c-18.34,21.795-51.313,61.379-56.258,70.063l.531,1.393L247.841,158l1.011-2.78-57.958,65.038c12.644-17.293,50.766-62.513,61.766-75.513l1.16-3.192-70.783,74.519Z" fill="#01c4f6"/>
      <path id="Caminho_4530" data-name="Caminho 4530" d="M164.514,69.547a.548.548,0,0,0-.845-.7l-.418.464.469,1.28Z" fill="#01c4f6"/>
      <path id="Caminho_4531" data-name="Caminho 4531" d="M172.151,92.487a.547.547,0,0,0-.044-.773.539.539,0,0,0-.664-.039l.417,1.139Z" fill="#01c4f6"/>
      <path id="Caminho_4532" data-name="Caminho 4532" d="M174.193,99.093a.548.548,0,0,0-.2-.749.507.507,0,0,0-.127-.045l.3.828Z" fill="#01c4f6"/>
    </g>
  </g>
</svg>
