<svg id="Grupo_10078" data-name="Grupo 10078" xmlns="http://www.w3.org/2000/svg" xmlns:xlink="http://www.w3.org/1999/xlink" width="46.11" height="37.237" viewBox="0 0 46.11 37.237">
  <defs>
    <clipPath id="clip-path">
      <rect id="Retângulo_3202" data-name="Retângulo 3202" width="46.11" height="37.237" fill="none"/>
    </clipPath>
  </defs>
  <path id="Caminho_4533" data-name="Caminho 4533" d="M64.274,145.972l.21.514,1.045-1.255h-.623Z" transform="translate(-56.377 -127.386)" fill="#01c4f6"/>
  <path id="Caminho_4534" data-name="Caminho 4534" d="M62.749,145.137l.167.015-.208.318-.079-.159Z" transform="translate(-54.934 -127.304)" fill="#01c4f6"/>
  <path id="Caminho_4535" data-name="Caminho 4535" d="M63.245,145.776l.1.143.531-.619h-.223Z" transform="translate(-55.474 -127.447)" fill="#01c4f6"/>
  <path id="Caminho_4536" data-name="Caminho 4536" d="M73.393,148.938l.059.211,2.4-3.985h-.194Z" transform="translate(-64.375 -127.328)" fill="#01c4f6"/>
  <g id="Grupo_10079" data-name="Grupo 10079">
    <g id="Grupo_10078-2" data-name="Grupo 10078" clip-path="url(#clip-path)">
      <path id="Caminho_4537" data-name="Caminho 4537" d="M112.714,190.669l-4.55,5.115,4.923-6.067.144-.386a.075.075,0,0,0-.046.024l-7.663,8.715h.2l5.051-5.744-4.66,5.744h.22l6.263-7.042.141-.377a.075.075,0,0,0-.024.018" transform="translate(-92.557 -166.068)" fill="#01c4f6"/>
      <path id="Caminho_4538" data-name="Caminho 4538" d="M119.52,208.265l1.382-1.659.1-.268a.075.075,0,0,0-.089.018l-5.638,6.625h.329l2.041-2.338-1.922,2.338h.2l4.767-5.8.165-.441Z" transform="translate(-101.11 -180.978)" fill="#01c4f6"/>
      <path id="Caminho_4539" data-name="Caminho 4539" d="M126.913,224.861l-3.877,4.352h.2l3.6-4.039.126-.338a.076.076,0,0,0-.051.025" transform="translate(-107.919 -197.21)" fill="#01c4f6"/>
      <path id="Caminho_4540" data-name="Caminho 4540" d="M135.668,237.122l-2.03,2.846h.186l1.688-2.366.188-.5a.073.073,0,0,0-.032.024" transform="translate(-117.218 -207.966)" fill="#01c4f6"/>
      <path id="Caminho_4541" data-name="Caminho 4541" d="M138.58,255.705h.209l.287-.3.135-.363Z" transform="translate(-121.553 -223.703)" fill="#01c4f6"/>
      <path id="Caminho_4542" data-name="Caminho 4542" d="M102.154,164.9l.044-.051.122-.372-4.137,4.568,4.383-5.031a.075.075,0,0,0,0-.1.075.075,0,0,1-.06-.016l0-.006a.074.074,0,0,0-.045.023l-6.309,7.014-.913,1.146a.075.075,0,0,1-.059.029.077.077,0,0,1-.047-.016.1.1,0,0,1-.011-.013l-1.6,1.78,2.351-3.567a.076.076,0,0,0-.121-.091l-2.107,2.446,1.822-2.581a.076.076,0,0,0-.119-.094l-1.38,1.575,1.37-1.782a.076.076,0,0,0-.117-.1l-2.125,2.387,1.966-2.824a.076.076,0,0,0-.117-.1l-1.254,1.315,1.658-1.985a.076.076,0,0,0-.114-.1l-2.044,2.24,1.781-2.307a.076.076,0,0,0-.117-.1l-2.8,3.225.059.164,1.121-1.292-1.081,1.4.069.191.792-.868-.772.924.063.175,2.068-2.169-1.878,2.7.078.218,1.357-1.524-1.3,1.688.068.189,1.806-2.062-1.688,2.392.072.2,2.2-2.559-2.021,3.067.083.229,3.017-3.355-2.99,3.432.062.171,4.3-4.746-3.22,3.707a.076.076,0,0,0,.114.1l4.738-5.338-5.713,6.881.06.166,8.58-10.334.087-.266a.084.084,0,0,0-.026,0" transform="translate(-80.737 -143.756)" fill="#01c4f6"/>
      <path id="Caminho_4543" data-name="Caminho 4543" d="M19.362,60.428l-1.923-5.173H7.986v-.1H17.4L12.254,41.3H0v-.1H12.217l-1.346-3.621.095-.036L12.324,41.2H25.591l-3.021-8.391H14.557v-.1h7.977l-1.959-5.442.1-.034,1.971,5.476h18.4v.1H22.678L25.7,41.2H46.11v.1H25.735l4.986,13.85H36.9v.1H30.757l.831,2.308-.1.034-.843-2.342h-13.1l1.91,5.138ZM17.51,55.153h13.1L25.628,41.3H12.362Zm28.6-28.612H32.549v-.1H46.11Z" transform="translate(0 -23.191)" fill="#01c4f6"/>
      <path id="Caminho_4544" data-name="Caminho 4544" d="M130.84,48.513l-.095-.035,10.918-29.424.095.035Zm13.609-.917-.1-.035,11.929-32.753.095.035Z" transform="translate(-114.68 -12.989)" fill="#01c4f6"/>
      <path id="Caminho_4545" data-name="Caminho 4545" d="M79.133,79.228,68.354,49.4l.1-.034L79.228,79.193Zm-13.609-.916-6.672-18.6.095-.034,6.672,18.6Z" transform="translate(-51.621 -43.3)" fill="#01c4f6"/>
      <path id="Caminho_4546" data-name="Caminho 4546" d="M101.731,33.193l-.095-.035L111.48,6.065l.095.035Zm13.142,0-.1-.034L126.769,0l.095.034Z" transform="translate(-89.148)" fill="#01c4f6"/>
      <path id="Caminho_4547" data-name="Caminho 4547" d="M203.978,141.574l-.068-.179-1.709,1.982,1.629-2.191-.062-.164a.08.08,0,0,0-.013.011l-.076.093.085-.113-.062-.162a.07.07,0,0,0-.014.011l-1.8,2.111,1.732-2.35-.137-.359-2.571,2.892,2.31-3.578-.067-.176-2.9,4.5a.076.076,0,0,0,.12.091l3.137-3.529.01.042-3,4.066a.076.076,0,0,0,.119.094l1.535-1.8-1.552,2.055a.076.076,0,0,0,.119.093l.665-.826-.583.784a.076.076,0,0,0,.118.095l2.007-2.329-2.205,3.057.058.165a.07.07,0,0,0,.022-.017l6.515-7.487-6.455,7.738.059.168,10.088-10.858.136-.369-8.42,9.063,9.1-10.906.156-.424L201.8,144.6Z" transform="translate(-175.631 -116.548)" fill="#01c4f6"/>
      <path id="Caminho_4548" data-name="Caminho 4548" d="M70.941,145.3H70.68l-1.216,2.094.093.26Z" transform="translate(-60.929 -127.447)" fill="#01c4f6"/>
      <path id="Caminho_4549" data-name="Caminho 4549" d="M72.974,145.37l-2.22,2.527.064.178,2.4-2.706Z" transform="translate(-62.061 -127.508)" fill="#01c4f6"/>
      <path id="Caminho_4550" data-name="Caminho 4550" d="M78.35,150.892a.076.076,0,0,0-.105.009l-1.52,1.74,1.334-1.8a.076.076,0,0,0-.053-.121l.142-.2a.076.076,0,0,0-.119-.094l-2.92,3.371.059.164,1.851-2.138-1.749,2.422.063.177.168-.221a.077.077,0,0,0,.077-.023l1.16-1.329L75.4,154.6l.061.17L78.361,151a.076.076,0,0,0-.012-.1" transform="translate(-65.88 -131.927)" fill="#01c4f6"/>
      <path id="Caminho_4551" data-name="Caminho 4551" d="M81.316,158.859a.076.076,0,0,0-.105.01L78.3,162.3l.059.165,1-1.183-.972,1.269.061.17,2.873-3.753a.076.076,0,0,0-.013-.1" transform="translate(-68.683 -139.325)" fill="#01c4f6"/>
      <path id="Caminho_4552" data-name="Caminho 4552" d="M82.838,164.719a.076.076,0,0,0-.1.01L79.939,168l.059.164,1.6-1.865-1.517,2.084.062.173,2.713-3.728a.076.076,0,0,0-.014-.1" transform="translate(-70.117 -144.466)" fill="#01c4f6"/>
      <path id="Caminho_4553" data-name="Caminho 4553" d="M85.132,172.637a.076.076,0,0,0-.1.008l-2.393,2.474,2.144-3.2a.076.076,0,0,0-.12-.092l-2.7,3.088.059.163L84,172.819l-1.812,2.706.074.206,2.455-2.538-2.075,3.6.067.187,2.446-4.241a.075.075,0,0,0-.02-.1" transform="translate(-71.895 -150.691)" fill="#01c4f6"/>
      <path id="Caminho_4554" data-name="Caminho 4554" d="M92.252,191.336l-1.559,1.728,1.435-1.807a.076.076,0,0,0-.116-.1l-2.835,3.178.058.162,1.123-1.258-1.084,1.365.066.183,1.9-2.1-1.794,2.387.062.171,2.866-3.814a.076.076,0,0,0-.117-.1" transform="translate(-78.219 -167.65)" fill="#01c4f6"/>
      <path id="Caminho_4555" data-name="Caminho 4555" d="M124.2,128.266l1.036-1.091,2.02-2.537-.055-.149a.076.076,0,0,0-.04.025L116.882,137.42a.075.075,0,0,0,0,.094l1.031-1.146,6.352-7.976a.074.074,0,0,1-.064-.019.076.076,0,0,1,0-.107" transform="translate(-102.507 -109.193)" fill="#01c4f6"/>
      <path id="Caminho_4556" data-name="Caminho 4556" d="M117.016,222.325a.076.076,0,0,0,.047.016.075.075,0,0,0,.059-.029l.913-1.146L117,222.312a.1.1,0,0,0,.011.013" transform="translate(-102.629 -193.991)" fill="#01c4f6"/>
      <path id="Caminho_4557" data-name="Caminho 4557" d="M159.723,77.464l-.837,1.211-.226.622,1.717-1.905-1.97,2.6-.176.484,3.428-3.721-.059-.16L160.212,78.1l1.349-1.613-.06-.165-1.339,1.6,1.3-1.714-.065-.177-2.147,2.382,1.767-2.555a.076.076,0,0,0-.121-.091l-1.735,2.15L159,78.36Z" transform="translate(-138.789 -66.436)" fill="#01c4f6"/>
      <path id="Caminho_4558" data-name="Caminho 4558" d="M167,76.192a.074.074,0,0,0,.032.015l-.172.327L166.47,77.6l.968-1.848a.076.076,0,0,0-.127-.082l-.261.331-.065.18a.067.067,0,0,0,.01.012" transform="translate(-146.016 -66.346)" fill="#01c4f6"/>
      <path id="Caminho_4559" data-name="Caminho 4559" d="M160.351,84.333l-.059-.161L156.8,88.023l-.137.377Z" transform="translate(-137.414 -73.83)" fill="#01c4f6"/>
      <path id="Caminho_4560" data-name="Caminho 4560" d="M162.617,90.221a.076.076,0,0,0,.107,0L165.672,87l-.059-.16-3,3.273a.075.075,0,0,0,0,.107" transform="translate(-142.615 -76.171)" fill="#01c4f6"/>
      <path id="Caminho_4561" data-name="Caminho 4561" d="M150.512,91.369l-1.479,2.137-2.52,2.871-.143.394,2.327-2.515.007-.008.449-.649,2.662-3.033-.059-.162-1.851,2.109,1.715-2.479-.1-.287-4.666,5.706-.308.848Z" transform="translate(-128.386 -78.72)" fill="#01c4f6"/>
      <path id="Caminho_4562" data-name="Caminho 4562" d="M136.3,111.66a.076.076,0,0,0,.1.1l-4.514,5.53-.145.4a.074.074,0,0,0,.032-.022l7.791-9.542-.062-.169-2.721,3.141.976-1.767-.455.511Z" transform="translate(-115.559 -94.694)" fill="#01c4f6"/>
      <path id="Caminho_4563" data-name="Caminho 4563" d="M141.3,105.165l4.558-5.228-.169.306.456-.511.186-.337.978-1.121-.06-.163-.57.654.487-.881-.069-.188-.891,1.612-5.143,5.9-.138.379Z" transform="translate(-123.608 -85.691)" fill="#01c4f6"/>
      <path id="Caminho_4564" data-name="Caminho 4564" d="M144.692,118.43l-4.389,4.923-.381.437-.134.368,4.572-5.128Z" transform="translate(-122.612 -103.879)" fill="#01c4f6"/>
      <path id="Caminho_4565" data-name="Caminho 4565" d="M182.3,103.473l-.058-.158a.084.084,0,0,0-.015.012l-1.19,1.335-.331.6Z" transform="translate(-158.505 -90.621)" fill="#01c4f6"/>
      <path id="Caminho_4566" data-name="Caminho 4566" d="M141.255,158.495l-.375.42-.006.017Z" transform="translate(-123.565 -139.02)" fill="#01c4f6"/>
      <path id="Caminho_4567" data-name="Caminho 4567" d="M177,115.382l.455-.511.331-.6-.456.511Z" transform="translate(-155.254 -100.232)" fill="#01c4f6"/>
      <path id="Caminho_4568" data-name="Caminho 4568" d="M125.088,120.672l4.5-4.58-4.746,5.093-.225.619,5.257-5.6-5.445,6.116-.124.341a.073.073,0,0,0,.043-.022l6.291-6.914-.423.5a.076.076,0,0,0,.115.1l3.369-3.946-.122-.334-1.115,1.188,1.113-1.194-.054-.147a.077.077,0,0,0-.033.019l-1.217,1.238,1.158-1.507-.065-.176-1.542,1.674,1.327-2.262-.042-.115a.075.075,0,0,0-.086.033l-1.683,2.869-6.215,6.748-.1.284a.075.075,0,0,0,.066-.02m6.374-6.921.917-1-.985,1.282-.249.253Zm-.484.526-.268.457-2.44,2.483Z" transform="translate(-109.033 -97.147)" fill="#01c4f6"/>
      <path id="Caminho_4569" data-name="Caminho 4569" d="M177.083,130.918a.076.076,0,0,0-.1,0l-.106.11,1-1.2.713-1.066-.009-.023-1.758,1.948,1.689-2.136-.154-.421a.076.076,0,0,0-.014.01l-2.115,2.228-.969,1.217a.073.073,0,0,0,.043-.021l.408-.429-.317.36a.076.076,0,0,0,0,.105l-.375.417a.076.076,0,0,0,.111.1l2.233-2.365-2.111,2.67a.075.075,0,0,0,.006.1.074.074,0,0,1,.061.017l0,0a.077.077,0,0,0,.045-.023l.78-.865-.794.951a.076.076,0,0,0,.113.1l.426-.444-.439.546a.076.076,0,0,0,.012.107.075.075,0,0,0,.048.017.075.075,0,0,0,.059-.028l1.434-1.785.1-.146a.074.074,0,0,0-.024-.061" transform="translate(-153.5 -112.389)" fill="#01c4f6"/>
      <path id="Caminho_4570" data-name="Caminho 4570" d="M177.106,163.889l0,.006a.075.075,0,0,0,.06.016l0,0a.074.074,0,0,0-.061-.017" transform="translate(-155.345 -143.751)" fill="#01c4f6"/>
      <path id="Caminho_4571" data-name="Caminho 4571" d="M176.395,147.441a.076.076,0,0,0,0,.107.074.074,0,0,0,.064.019l.969-1.217Z" transform="translate(-154.703 -128.368)" fill="#01c4f6"/>
      <path id="Caminho_4572" data-name="Caminho 4572" d="M183.459,135.479l-.264.307.259-.321-.064-.173-.736.815.717-.868-.062-.168-2.452,2.792,2.246-3.356-.011-.029-.767.919-.768,1.148a.075.075,0,0,1-.015.044l-.082.1-1.371,2.049a.076.076,0,0,0,.12.092l.106-.12a.076.076,0,0,0,.129.071l1.356-1.5-1.59,1.976a.076.076,0,0,0,.117.1l3.192-3.71Z" transform="translate(-157.95 -117.954)" fill="#01c4f6"/>
      <path id="Caminho_4573" data-name="Caminho 4573" d="M199.152,133.428l-.054-.147-.713,1.066Z" transform="translate(-174.009 -116.905)" fill="#01c4f6"/>
      <path id="Caminho_4574" data-name="Caminho 4574" d="M191.437,151.3l-.1.146.082-.1a.075.075,0,0,0,.015-.043" transform="translate(-167.83 -132.708)" fill="#01c4f6"/>
      <path id="Caminho_4575" data-name="Caminho 4575" d="M188.4,146.389l-2.65,3.015,2.35-3.84-.066-.182-2.873,4.693a.076.076,0,0,0,.02.1.075.075,0,0,0,.045.015.076.076,0,0,0,.057-.026l3.178-3.616Z" transform="translate(-162.401 -127.52)" fill="#01c4f6"/>
      <path id="Caminho_4576" data-name="Caminho 4576" d="M191.519,156.466l-2.749,3.1,2.431-3.937-.068-.178-2.956,4.787a.075.075,0,0,0,.019.1.074.074,0,0,0,.045.015.076.076,0,0,0,.057-.026l3.281-3.706Z" transform="translate(-165.047 -136.354)" fill="#01c4f6"/>
      <path id="Caminho_4577" data-name="Caminho 4577" d="M195.81,167.062l-2.869,3.2,2.478-4.22-.069-.181-2.922,4.975a.076.076,0,0,0,.122.089l3.321-3.7Z" transform="translate(-168.775 -145.478)" fill="#01c4f6"/>
      <path id="Caminho_4578" data-name="Caminho 4578" d="M200.645,178.575l0,0-2.392,2.855,2.178-3.426-.067-.177-2.858,4.5a.076.076,0,0,0,.019.1.078.078,0,0,0,.045.015.076.076,0,0,0,.058-.027l3.082-3.679Z" transform="translate(-173.225 -155.979)" fill="#01c4f6"/>
      <path id="Caminho_4579" data-name="Caminho 4579" d="M212.482,192.5l7.474-8.317.138-.381-4.236,4.714,4.415-5.207.149-.41-8,9.439Z" transform="translate(-186.32 -160.422)" fill="#01c4f6"/>
      <path id="Caminho_4580" data-name="Caminho 4580" d="M219.728,205.817l5.786-6.407.138-.379-3.242,3.59,3.407-4.042.151-.414-6.449,7.652Z" transform="translate(-192.546 -173.817)" fill="#01c4f6"/>
      <path id="Caminho_4581" data-name="Caminho 4581" d="M226.915,215.115,231,210.929l.126-.346-3.407,3.5,3.906-4.868.161-.443-5.094,6.349Z" transform="translate(-198.835 -183.115)" fill="#01c4f6"/>
      <path id="Caminho_4582" data-name="Caminho 4582" d="M243.354,240.35l1.362-2.15.242-.664-1.783,2.814Z" transform="translate(-213.296 -208.35)" fill="#01c4f6"/>
      <path id="Caminho_4583" data-name="Caminho 4583" d="M246.39,252.377l.416-.589.2-.541-.8,1.13Z" transform="translate(-215.953 -220.376)" fill="#01c4f6"/>
      <path id="Caminho_4584" data-name="Caminho 4584" d="M285.875,29.767a.075.075,0,0,0,.056-.025L289.4,25.9a.084.084,0,0,0,.01-.017h-.2l-.96,1.062.882-1.063h-.207l-.927,1,.795-.946a.074.074,0,0,0,.017-.052h-.175l-1.455,1.554,1.094-1.556h-.185l-1.657,2.356a.076.076,0,0,0,.117.1l.318-.34-.937,1.115a.076.076,0,0,0,.114.1L287.3,27.86l-1.48,1.783a.076.076,0,0,0,.058.124" transform="translate(-250.683 -22.697)" fill="#01c4f6"/>
      <path id="Caminho_4585" data-name="Caminho 4585" d="M279.431,32.359a.076.076,0,0,0,.057-.026l5.479-6.378h-.2L281.2,30.1l3.175-4.127a.072.072,0,0,0,.013-.026h-.183l-4.836,6.287a.076.076,0,0,0,.012.105.075.075,0,0,0,.048.017" transform="translate(-245.031 -22.762)" fill="#01c4f6"/>
      <path id="Caminho_4586" data-name="Caminho 4586" d="M275.51,33.448l.834-.938-.763.889a.076.076,0,0,0,.114.1l6.638-7.5s0,0,0-.006h-.2l-.072.082.05-.058a.075.075,0,0,0,.013-.023h-.194l-1.273,1.432L281.88,26a.035.035,0,0,0,0-.007h-.2L275.4,33.348a.076.076,0,0,0,.114.1" transform="translate(-241.542 -22.797)" fill="#01c4f6"/>
      <path id="Caminho_4587" data-name="Caminho 4587" d="M263.9,26.02h-.19l-7.984,10.423a.076.076,0,0,0,.117.1l2.629-2.994-3.064,3.636a.076.076,0,0,0,.115.1l1.561-1.758-1.44,1.675a.076.076,0,0,0,.114.1l5.829-6.52-7.141,9.236a.076.076,0,0,0,.117.1l1.076-1.212-1.291,1.5a.076.076,0,0,0,.114.1l1.1-1.232L254.142,40.9a.076.076,0,0,0,.058.125.074.074,0,0,0,.056-.025l7.2-7.97.137-.378-3.151,3.486,3.258-3.78.15-.412-1.165,1.31,1.192-1.384.149-.411-6.1,6.872,6.8-8.792.167-.459-.008.006L260.8,31.423l2.154-2.506.148-.407-3.816,4.3,3.964-4.7.094-.259a.075.075,0,0,0-.089.017l-6.038,6.875,6.677-8.717h0" transform="translate(-222.9 -22.822)" fill="#01c4f6"/>
      <path id="Caminho_4588" data-name="Caminho 4588" d="M239.991,95.992a.076.076,0,0,0,.106-.008l1.088-1.227L240.1,96.02a.076.076,0,0,0,.114.1l4.754-5.32-5.728,6.906a.08.08,0,0,0-.012.02c-.034.084-.076.234.019.29s.215.126,1.458-1.41c.8-.985,2.268-2.692,3.61-4.233l-5.4,6.6a.844.844,0,0,1,.094.19.075.075,0,0,0,.049.018.076.076,0,0,0,.058-.027l7.182-8.526.152-.419-3.521,4.1,3.659-4.473.176-.484c-1.107,1.255-4.741,5.387-6.181,7.166a7.1,7.1,0,0,1-1.243,1.353.529.529,0,0,1,.02-.071l7.713-9.3.173-.476-1.968,2.2,2.024-2.355.148-.406-5.213,5.879,5.58-6.887.159-.437-8,9.874a.076.076,0,0,0,.01.106" transform="translate(-209.549 -75.445)" fill="#01c4f6"/>
      <path id="Caminho_4589" data-name="Caminho 4589" d="M68.819,162.343l-.09.155.1.244.082-.14Z" transform="translate(-60.284 -142.396)" fill="#01c4f6"/>
      <path id="Caminho_4590" data-name="Caminho 4590" d="M70.034,166.039l.042.2.111-.125-.064-.178Z" transform="translate(-61.428 -145.549)" fill="#01c4f6"/>
      <path id="Caminho_4591" data-name="Caminho 4591" d="M206.334,170.009l8.2-8.632c-2.54,3.018-7.105,8.5-7.79,9.7l.074.193,8.434-9.465.14-.385-8.025,9.006c1.751-2.395,7.03-8.656,8.553-10.456l.161-.442-9.8,10.319Z" transform="translate(-180.932 -139.929)" fill="#01c4f6"/>
      <path id="Caminho_4592" data-name="Caminho 4592" d="M184.155,77.51a.076.076,0,0,0-.117-.1l-.058.064.065.177Z" transform="translate(-161.374 -67.88)" fill="#01c4f6"/>
      <path id="Caminho_4593" data-name="Caminho 4593" d="M193.309,103.333a.076.076,0,0,0-.006-.107.075.075,0,0,0-.092-.005l.058.158Z" transform="translate(-169.471 -90.526)" fill="#01c4f6"/>
      <path id="Caminho_4594" data-name="Caminho 4594" d="M195.991,110.89a.071.071,0,0,0-.045-.11l.042.115Z" transform="translate(-171.87 -97.168)" fill="#01c4f6"/>
    </g>
  </g>
</svg>
