<svg xmlns="http://www.w3.org/2000/svg" xmlns:xlink="http://www.w3.org/1999/xlink" width="446.488" height="133.104" viewBox="0 0 446.488 133.104">
  <defs>
    <clipPath id="clip-path">
      <rect id="Ret창ngulo_3196" data-name="Ret창ngulo 3196" width="446.488" height="133.103" transform="translate(723 368.423)" fill="none"/>
    </clipPath>
    <clipPath id="clip-path-2">
      <rect id="Ret창ngulo_3195" data-name="Ret창ngulo 3195" width="446.5" height="133.5" transform="translate(723 368.25)" fill="none"/>
    </clipPath>
  </defs>
  <g id="Grupo_10139" data-name="Grupo 10139" transform="translate(-723 -368.424)">
    <g id="Grupo_10126" data-name="Grupo 10126" clip-path="url(#clip-path)">
      <g id="Grupo_10125" data-name="Grupo 10125" style="isolation: isolate">
        <g id="Grupo_10124" data-name="Grupo 10124">
          <g id="Grupo_10123" data-name="Grupo 10123" clip-path="url(#clip-path-2)">
            <path id="Caminho_4343" data-name="Caminho 4343" d="M1051.385,440.511q2.914-2.607,2.915-9.049,0-8.742-5.369-10.737a17.035,17.035,0,0,0-5.828-.92h-6.442l-.307,23.314h6.749a11.652,11.652,0,0,0,8.282-2.608m1.534-19.479q3.375,3.067,3.375,10.43,0,13.5-13.191,13.5h-8.436a.307.307,0,0,1-.307-.306l.307-26.382a.306.306,0,0,1,.307-.306h8.129q6.442,0,9.816,3.067" fill="#fff"/>
            <path id="Caminho_4344" data-name="Caminho 4344" d="M1062.122,444.653a.925.925,0,0,1-.307-.614V418.731a.92.92,0,0,1,.307-.766l.613-.307h.154l.767.307a.919.919,0,0,1,.306.766v25.308a.929.929,0,0,1-.307.614l-.767.306h-.154l-.613-.306" fill="#fff"/>
            <path id="Caminho_4345" data-name="Caminho 4345" d="M1092.8,424.253a11.033,11.033,0,0,0-2.3-2.761,8.59,8.59,0,0,0-3.068-1.687,17.154,17.154,0,0,0-4.6-.613,12.573,12.573,0,0,0-6.289,1.533,9.821,9.821,0,0,0-3.988,4.295,15.649,15.649,0,0,0,0,12.884,9.967,9.967,0,0,0,3.988,4.294,12.419,12.419,0,0,0,6.289,1.534q5.674,0,8.436-2.3t3.067-7.516h-9.049l-.767-.307a.767.767,0,0,1,0-1.227l.767-.307h10.89a.308.308,0,0,1,.307.307q0,6.749-3.528,9.97t-10.123,3.221a14.417,14.417,0,0,1-7.209-1.687,12.117,12.117,0,0,1-4.755-4.908,15.656,15.656,0,0,1-1.687-7.363,15.949,15.949,0,0,1,1.687-7.515,11.649,11.649,0,0,1,4.755-4.908,14.723,14.723,0,0,1,7.209-1.688,15.5,15.5,0,0,1,7.055,1.381,11.81,11.81,0,0,1,4.6,4.448,1.072,1.072,0,0,1,.153.613.922.922,0,0,1-.613.921h-.461a1.075,1.075,0,0,1-.92-.461" fill="#fff"/>
            <path id="Caminho_4346" data-name="Caminho 4346" d="M1101.847,444.653a.929.929,0,0,1-.307-.614V418.731a.922.922,0,0,1,.307-.766l.614-.307h.153l.767.307a.919.919,0,0,1,.307.766v25.308a.929.929,0,0,1-.307.614l-.767.306h-.153l-.614-.306" fill="#fff"/>
            <path id="Caminho_4347" data-name="Caminho 4347" d="M1116.725,444.806a.925.925,0,0,1-.307-.614V419.8h-6.748l-.767-.307a.919.919,0,0,1,0-1.38l.767-.307h15.184l.767.307a.766.766,0,0,1,0,1.227l-.767.307h-6.442v24.54a.916.916,0,0,1-.307.614l-.766.307-.614-.307" fill="#fff"/>
            <path id="Caminho_4348" data-name="Caminho 4348" d="M1138.2,419.5l-7.208,17.639h13.8Zm9.817,25-2.454-5.521h-15.185l-2.147,5.521a.92.92,0,0,1-.92.614h-.921a.46.46,0,0,1-.306-.46,3.058,3.058,0,0,1,.306-.921l9.97-25,.307-.46h2.761l.306.46,9.97,24.848a2.467,2.467,0,0,1,.307,1.074c0,.306-.154.46-.307.46h-1.38l-.307-.46" fill="#fff"/>
            <path id="Caminho_4349" data-name="Caminho 4349" d="M1168.568,444.959h-12.884a.306.306,0,0,1-.307-.306l-.307-25.922a.916.916,0,0,1,.307-.613l.767-.307.767.307a.921.921,0,0,1,.306.767l.307,24.387h11.2l.767.307a.921.921,0,0,1,0,1.38l-.767.307" fill="#fff"/>
            <path id="Caminho_4350" data-name="Caminho 4350" d="M1057.981,460.3a11.077,11.077,0,0,0-2.3-2.761,8.751,8.751,0,0,0-3.068-1.687,17.194,17.194,0,0,0-4.6-.613,12.419,12.419,0,0,0-6.289,1.534,9.819,9.819,0,0,0-3.988,4.294,15.649,15.649,0,0,0,0,12.884,9.98,9.98,0,0,0,3.988,4.3,12.418,12.418,0,0,0,6.289,1.533q5.674,0,8.436-2.3t3.067-7.516h-9.049l-.767-.307a.767.767,0,0,1,0-1.227l.767-.306h10.89a.307.307,0,0,1,.307.306q0,6.75-3.528,9.97t-9.97,3.221a14.416,14.416,0,0,1-7.208-1.687,12.111,12.111,0,0,1-4.755-4.908,15.64,15.64,0,0,1-1.687-7.363,15.947,15.947,0,0,1,1.687-7.515,11.654,11.654,0,0,1,4.755-4.908,14.721,14.721,0,0,1,7.208-1.687,15.327,15.327,0,0,1,7.056,1.38,11.808,11.808,0,0,1,4.6,4.448,1.075,1.075,0,0,1,.154.614.92.92,0,0,1-.614.92h-.46a1.073,1.073,0,0,1-.92-.46" fill="#fff"/>
            <path id="Caminho_4351" data-name="Caminho 4351" d="M1081.294,467.966a7.511,7.511,0,0,0,1.841-5.675,5.824,5.824,0,0,0-1.841-4.6,8.128,8.128,0,0,0-5.521-1.841h-6.9v13.8h6.9a7.818,7.818,0,0,0,5.521-1.84m-14.111-13.8h8.59a10.892,10.892,0,0,1,4.908,1.073,7.669,7.669,0,0,1,4.448,7.209,10.128,10.128,0,0,1-1.534,5.829,7.666,7.666,0,0,1-4.295,3.067l4.6,8.436a3.227,3.227,0,0,1,.46,1.227.309.309,0,0,1-.153.307h-1.074a.921.921,0,0,1-.92-.46l-4.908-9.2h-8.436v8.589a.927.927,0,0,1-.307.614l-.767.306-.614-.306a.921.921,0,0,1-.306-.614V454.315a.306.306,0,0,1,.306-.306" fill="#fff"/>
            <path id="Caminho_4352" data-name="Caminho 4352" d="M1114.425,467.506a12.58,12.58,0,0,0-2.915-8.9,11.046,11.046,0,0,0-8.589-3.068q-5.828,0-8.589,3.068a12.729,12.729,0,0,0-2.914,8.9,12.423,12.423,0,0,0,2.914,8.9,13.343,13.343,0,0,0,17.025,0,12.423,12.423,0,0,0,2.914-8.9m-24.541,0a14.267,14.267,0,0,1,3.375-10.123q3.374-3.681,9.969-3.681a14.57,14.57,0,0,1,7.056,1.534,11.651,11.651,0,0,1,4.6,4.754,15.2,15.2,0,0,1,1.688,7.516q0,6.748-3.528,10.277a15.492,15.492,0,0,1-19.786,0q-3.528-3.528-3.528-10.277" fill="#fff"/>
            <path id="Caminho_4353" data-name="Caminho 4353" d="M1142.953,454.162a.924.924,0,0,1,.307.767V470.42a11.968,11.968,0,0,1-2.608,8.283,9.815,9.815,0,0,1-7.669,2.914q-5.675,0-8.129-2.761t-2.608-8.436V454.929a.925.925,0,0,1,.307-.767l.614-.307h.153l.767.307a.922.922,0,0,1,.307.767v15.645a13.807,13.807,0,0,0,.92,5.368,5.674,5.674,0,0,0,2.761,2.914,11.345,11.345,0,0,0,5.061.92q8.283,0,8.283-9.2v-15.8a.919.919,0,0,1,.307-.767l.613-.307h.154l.767.307" fill="#fff"/>
            <path id="Caminho_4354" data-name="Caminho 4354" d="M1158.137,469.653a7.67,7.67,0,0,0,5.522-1.84,7.516,7.516,0,0,0,1.84-5.675,5.831,5.831,0,0,0-1.84-4.6,8.131,8.131,0,0,0-5.522-1.687h-6.9v13.8Zm-8.436,11.2a.919.919,0,0,1-.306-.613V454.315a.306.306,0,0,1,.306-.306h8.59a10.891,10.891,0,0,1,4.908,1.073,7.671,7.671,0,0,1,4.448,7.209,9.207,9.207,0,0,1-2.454,7.056,9.665,9.665,0,0,1-6.9,2.3h-6.9v8.59a.918.918,0,0,1-.306.613l-.767.307h-.154l-.613-.307" fill="#fff"/>
            <path id="Caminho_4355" data-name="Caminho 4355" d="M867.637,447.874a21.779,21.779,0,0,0,6.9,16.1,22.546,22.546,0,0,0,16.412,6.749,22.246,22.246,0,0,0,16.105-6.6,21.934,21.934,0,0,0,6.748-16.1,22.393,22.393,0,0,0-6.748-16.412,22.086,22.086,0,0,0-16.259-6.748,22.543,22.543,0,0,0-16.411,6.748,22.239,22.239,0,0,0-6.9,16.412m-30.676-.307A53.907,53.907,0,0,1,890.8,393.731a52.144,52.144,0,0,1,29.6,8.9,54.6,54.6,0,0,1,19.939,24.08,51.839,51.839,0,0,1,4.141,21.167,52.758,52.758,0,0,1-7.209,26.841,53.38,53.38,0,0,1-19.479,19.633,52.606,52.606,0,0,1-27.148,7.208,53.164,53.164,0,0,1-53.836-53.836" fill="#fff"/>
            <path id="Caminho_4356" data-name="Caminho 4356" d="M790.487,463.672a22.24,22.24,0,0,1-16.258,6.748,22.545,22.545,0,0,1-16.412-6.748,21.781,21.781,0,0,1-6.9-16.105,22.241,22.241,0,0,1,6.9-16.258,22.546,22.546,0,0,1,16.412-6.749,22.083,22.083,0,0,1,16.258,6.749,22.392,22.392,0,0,1,6.749,16.411,21.935,21.935,0,0,1-6.749,15.952M800,368.423v30.829h-.46l-3.681-1.38-3.374-1.074-4.755-1.38-4.6-.767-6.9-.307a53.525,53.525,0,0,0-15.185,2.3h-.307l-1.687.613a55.372,55.372,0,0,0-28.375,23.314,57.95,57.95,0,0,0-3.374,6.749A52.755,52.755,0,0,0,723,448.027v.613a15.549,15.549,0,0,1,.153,2.761,52.455,52.455,0,0,0,15.032,33.744,56.57,56.57,0,0,0,7.208,6.442l4.6,2.914a53.051,53.051,0,0,0,17.025,6.135l3.988.46h9.509a52.305,52.305,0,0,0,23.621-7.055,53.23,53.23,0,0,0,19.326-19.173,52.562,52.562,0,0,0,4.754-10.89,53.2,53.2,0,0,0,2.3-15.8V368.423Z" fill="#fff"/>
            <path id="Caminho_4357" data-name="Caminho 4357" d="M984.052,485.912a13.188,13.188,0,0,0,4.141,9.663,13.653,13.653,0,0,0,9.97,4.141,13.5,13.5,0,0,0,9.816-3.988,13.346,13.346,0,0,0,4.141-9.816,13.5,13.5,0,0,0-4.141-9.817,13.346,13.346,0,0,0-9.816-4.141,13.653,13.653,0,0,0-9.97,4.141,13.5,13.5,0,0,0-4.141,9.817" fill="#88c125"/>
            <path id="Caminho_4358" data-name="Caminho 4358" d="M986.659,497.415a15.486,15.486,0,0,1-4.754-11.35,16.234,16.234,0,0,1,16.1-16.258,22.243,22.243,0,0,1-8.9-4.6l-.92-.767-.46-.46-.307-.306-.46-.461h-.153a21.773,21.773,0,0,1-6.135-15.644,23.312,23.312,0,0,1,19.019-22.7V394.5h-1.534l-4.6.767-4.754,1.227-3.375,1.074-3.681,1.38h-.46V368.423H950.615v79.6a53.207,53.207,0,0,0,2.3,15.8c.46,1.38.92,2.607,1.38,3.834a54.082,54.082,0,0,0,3.528,7.209A53.373,53.373,0,0,0,977.3,494.5a52.163,52.163,0,0,0,12.731,5.368,17.005,17.005,0,0,1-3.528-2.607" fill="#fff"/>
          </g>
        </g>
      </g>
    </g>
  </g>
</svg>
