<svg id="Ícone" xmlns="http://www.w3.org/2000/svg" xmlns:xlink="http://www.w3.org/1999/xlink" width="26" height="33.132" viewBox="0 0 26 33.132">
  <defs>
    <clipPath id="clip-path">
      <rect id="Retângulo_39706" data-name="Retângulo 39706" width="26" height="33.132" fill="none"/>
    </clipPath>
  </defs>
  <g id="Grupo_96284" data-name="Grupo 96284" clip-path="url(#clip-path)">
    <path id="Caminho_41977" data-name="Caminho 41977" d="M16.291,23.432a5.316,5.316,0,0,1-3.923,1.648A5.4,5.4,0,0,1,8.4,23.42a5.414,5.414,0,0,1-1.653-3.957A5.513,5.513,0,0,1,8.4,15.443a5.385,5.385,0,0,1,3.973-1.673,5.279,5.279,0,0,1,3.923,1.673,5.557,5.557,0,0,1,1.628,4.019,5.442,5.442,0,0,1-1.629,3.969Zm2.206,6.3a3.813,3.813,0,0,1,1.137-2.769,3.721,3.721,0,0,1,2.732-1.15,3.645,3.645,0,0,1,1.827.47c.026-.044.055-.086.081-.131A13.04,13.04,0,0,0,26,19.583V0H18.583V7.592a.139.139,0,0,1-.1-.05q-.463-.2-.9-.354t-.823-.246c-.409-.132-.785-.237-1.136-.321q-.555-.114-1.125-.175c-.683-.038-1.234-.064-1.659-.074a12.748,12.748,0,0,0-3.656.579L9.1,6.979c-.132.043-.264.089-.4.137a13.425,13.425,0,0,0-6.873,5.706,14.4,14.4,0,0,0-.812,1.641A13.159,13.159,0,0,0,0,19.583c0,.056,0,.111,0,.166a3.914,3.914,0,0,1,.047.684,13,13,0,0,0,3.61,8.256,13.74,13.74,0,0,0,1.73,1.575c.354.255.719.5,1.1.723a12.679,12.679,0,0,0,4.1,1.518c.316.051.636.092.96.118q.148.025.468.05.213.017.359.034c.215.01.432.016.651.016q.417,0,.828-.025a12.443,12.443,0,0,0,4.984-1.353,3.771,3.771,0,0,1-.352-1.612" transform="translate(-0.001)" fill="#fefefe"/>
    <path id="Caminho_41978" data-name="Caminho 41978" d="M131.41,185.62a3.422,3.422,0,0,0,3.4,3.4,3.218,3.218,0,0,0,2.373-1,3.294,3.294,0,0,0,.985-2.4,3.364,3.364,0,0,0-.985-2.432,3.2,3.2,0,0,0-2.373-1.012,3.258,3.258,0,0,0-2.4,1.012,3.335,3.335,0,0,0-1,2.432" transform="translate(-112.446 -155.886)" fill="#70a918"/>
  </g>
</svg>
