<svg id="Logo-branco" xmlns="http://www.w3.org/2000/svg" xmlns:xlink="http://www.w3.org/1999/xlink" width="114.065" height="34" viewBox="0 0 114.065 34">
  <defs>
    <clipPath id="clip-path">
      <rect id="Retângulo_39705" data-name="Retângulo 39705" width="114.065" height="34" fill="none"/>
    </clipPath>
  </defs>
  <g id="Grupo_96282" data-name="Grupo 96282" clip-path="url(#clip-path)">
    <path id="Caminho_41961" data-name="Caminho 41961" d="M418.233,66.494a3.489,3.489,0,0,1,.922,2.64q.074,3.459-3.286,3.532l-2.155.046a.079.079,0,0,1-.091-.087l-.066-6.742a.079.079,0,0,1,.087-.091l2.076-.045a3.545,3.545,0,0,1,2.513.747m-.269,4.969a3.059,3.059,0,0,0,.677-2.318q-.048-2.234-1.423-2.728a4.329,4.329,0,0,0-1.487-.2l-1.651.036.049,5.971,1.73-.037a2.987,2.987,0,0,0,2.105-.727" transform="translate(-334.009 -53.099)" fill="#fefefe"/>
    <path id="Caminho_41962" data-name="Caminho 41962" d="M449.932,72.365a.236.236,0,0,1-.074-.173V65.737a.247.247,0,0,1,.074-.183.236.236,0,0,1,.173-.074h.02a.237.237,0,0,1,.247.247v6.465a.247.247,0,0,1-.069.173.234.234,0,0,1-.178.074h-.02a.238.238,0,0,1-.173-.074" transform="translate(-363.326 -52.885)" fill="#fefefe"/>
    <path id="Caminho_41963" data-name="Caminho 41963" d="M465.748,66.717a2.817,2.817,0,0,0-.579-.722,2.218,2.218,0,0,0-.766-.415,4.392,4.392,0,0,0-1.177-.139,3.194,3.194,0,0,0-1.6.381,2.512,2.512,0,0,0-1.028,1.092,3.991,3.991,0,0,0,0,3.3,2.551,2.551,0,0,0,1.028,1.092,3.161,3.161,0,0,0,1.6.386,3.288,3.288,0,0,0,2.146-.589,2.6,2.6,0,0,0,.791-1.912H463.85a.259.259,0,0,1-.183-.069.222.222,0,0,1-.074-.168.23.23,0,0,1,.069-.169.242.242,0,0,1,.178-.069h2.788a.079.079,0,0,1,.089.089,3.349,3.349,0,0,1-.89,2.541,4.311,4.311,0,0,1-4.439.376,3.077,3.077,0,0,1-1.225-1.255,3.988,3.988,0,0,1-.435-1.9,4.062,4.062,0,0,1,.425-1.9,2.99,2.99,0,0,1,1.226-1.26,3.771,3.771,0,0,1,1.848-.435,3.941,3.941,0,0,1,1.8.351,3,3,0,0,1,1.162,1.142.276.276,0,0,1,.039.138.241.241,0,0,1-.148.218.266.266,0,0,1-.119.029.277.277,0,0,1-.217-.128" transform="translate(-371.298 -52.47)" fill="#fefefe"/>
    <path id="Caminho_41964" data-name="Caminho 41964" d="M502.821,72.365a.236.236,0,0,1-.074-.173V65.737a.247.247,0,0,1,.074-.183.237.237,0,0,1,.173-.074h.02a.237.237,0,0,1,.247.247v6.465a.247.247,0,0,1-.069.173.234.234,0,0,1-.178.074h-.02a.238.238,0,0,1-.173-.074" transform="translate(-406.042 -52.885)" fill="#fefefe"/>
    <path id="Caminho_41965" data-name="Caminho 41965" d="M514.42,72.572a.237.237,0,0,1-.074-.173l.039-6.238h-1.73a.241.241,0,0,1-.178-.069.238.238,0,0,1,0-.336.239.239,0,0,1,.178-.069h3.865a.257.257,0,0,1,.183.069.221.221,0,0,1,.075.168.227.227,0,0,1-.07.168.24.24,0,0,1-.178.069H514.9l-.04,6.238a.245.245,0,0,1-.069.173.232.232,0,0,1-.178.074h-.02a.237.237,0,0,1-.173-.074" transform="translate(-413.845 -53.052)" fill="#fefefe"/>
    <path id="Caminho_41966" data-name="Caminho 41966" d="M540.992,72.622l-.614-1.4h-3.895l-.553,1.4a.233.233,0,0,1-.238.138.411.411,0,0,1-.2-.035.13.13,0,0,1-.059-.123.767.767,0,0,1,.059-.247l2.541-6.376a.188.188,0,0,1,.079-.1.224.224,0,0,1,.128-.04h.435a.226.226,0,0,1,.129.04.193.193,0,0,1,.079.1l2.54,6.376a.624.624,0,0,1,.07.257c0,.066-.02.107-.06.124a.721.721,0,0,1-.237.025.226.226,0,0,1-.128-.04.187.187,0,0,1-.079-.1m-2.521-6.406-1.819,4.518H540.2Z" transform="translate(-432.443 -53.175)" fill="#fefefe"/>
    <path id="Caminho_41967" data-name="Caminho 41967" d="M577.354,72.482h-3.272a.079.079,0,0,1-.089-.089l-.059-6.613a.237.237,0,0,1,.074-.173.257.257,0,0,1,.44.183l.059,6.218h2.847a.243.243,0,0,1,.178.069.239.239,0,0,1,0,.336.242.242,0,0,1-.178.069" transform="translate(-463.536 -52.927)" fill="#fefefe"/>
    <path id="Caminho_41968" data-name="Caminho 41968" d="M419.54,114.672a2.818,2.818,0,0,0-.579-.722,2.222,2.222,0,0,0-.766-.415,4.393,4.393,0,0,0-1.177-.138,3.19,3.19,0,0,0-1.6.381,2.512,2.512,0,0,0-1.028,1.092,3.992,3.992,0,0,0,0,3.3,2.553,2.553,0,0,0,1.028,1.092,3.165,3.165,0,0,0,1.6.385,3.289,3.289,0,0,0,2.146-.588,2.607,2.607,0,0,0,.791-1.913h-2.314a.257.257,0,0,1-.183-.069.223.223,0,0,1-.074-.168.231.231,0,0,1,.069-.168.241.241,0,0,1,.178-.069h2.788a.079.079,0,0,1,.089.089,3.35,3.35,0,0,1-.89,2.541,4.311,4.311,0,0,1-4.439.376,3.077,3.077,0,0,1-1.225-1.255,4,4,0,0,1-.435-1.9,4.058,4.058,0,0,1,.425-1.9,2.993,2.993,0,0,1,1.226-1.26,3.768,3.768,0,0,1,1.848-.435,3.936,3.936,0,0,1,1.8.351,3,3,0,0,1,1.162,1.142.279.279,0,0,1,.039.138.24.24,0,0,1-.148.217.26.26,0,0,1-.118.03.277.277,0,0,1-.218-.129" transform="translate(-333.978 -91.201)" fill="#fefefe"/>
    <path id="Caminho_41969" data-name="Caminho 41969" d="M456.629,113.641h2.194a2.794,2.794,0,0,1,1.265.272,1.956,1.956,0,0,1,1.137,1.824,2.6,2.6,0,0,1-.391,1.5,1.956,1.956,0,0,1-1.112.776l1.186,2.165a.821.821,0,0,1,.119.3.079.079,0,0,1-.04.079.369.369,0,0,1-.148.02h-.119a.229.229,0,0,1-.217-.128l-1.285-2.323a1.691,1.691,0,0,1-.217.01h-1.948v2.194a.247.247,0,0,1-.069.173.233.233,0,0,1-.178.074h-.02a.254.254,0,0,1-.247-.247V113.73a.079.079,0,0,1,.089-.089m3.608,3.554a1.929,1.929,0,0,0,.484-1.458,1.5,1.5,0,0,0-.489-1.191,2.068,2.068,0,0,0-1.409-.43h-1.77v3.539h1.77a1.978,1.978,0,0,0,1.414-.46" transform="translate(-368.723 -91.782)" fill="#fefefe"/>
    <path id="Caminho_41970" data-name="Caminho 41970" d="M486.916,116.809a3.628,3.628,0,0,1,.88-2.6,3.356,3.356,0,0,1,2.55-.925,3.727,3.727,0,0,1,1.809.4,2.993,2.993,0,0,1,1.176,1.216,3.893,3.893,0,0,1,.445,1.918,3.57,3.57,0,0,1-.9,2.62,3.961,3.961,0,0,1-5.056-.005,3.562,3.562,0,0,1-.9-2.615m6.357,0a3.22,3.22,0,0,0-.736-2.269,3.432,3.432,0,0,0-4.389-.005,3.245,3.245,0,0,0-.727,2.274,3.167,3.167,0,0,0,.751,2.283,3.4,3.4,0,0,0,4.344,0,3.158,3.158,0,0,0,.757-2.278" transform="translate(-393.256 -91.49)" fill="#fefefe"/>
    <path id="Caminho_41971" data-name="Caminho 41971" d="M535.432,113.555a.241.241,0,0,1,.069.178v3.974a3.074,3.074,0,0,1-.667,2.125,2.507,2.507,0,0,1-1.963.742,2.725,2.725,0,0,1-2.081-.7,3.107,3.107,0,0,1-.647-2.17v-3.964a.249.249,0,0,1,.074-.183.238.238,0,0,1,.173-.074h.02a.237.237,0,0,1,.247.247v4.013a3.528,3.528,0,0,0,.217,1.354,1.432,1.432,0,0,0,.692.751,2.892,2.892,0,0,0,1.3.247q2.115,0,2.115-2.353v-4.013a.232.232,0,0,1,.074-.178.246.246,0,0,1,.173-.069h.02a.241.241,0,0,1,.178.069" transform="translate(-428.168 -91.657)" fill="#fefefe"/>
    <path id="Caminho_41972" data-name="Caminho 41972" d="M566.3,120.5a.237.237,0,0,1-.074-.173v-6.593a.079.079,0,0,1,.089-.089h2.195a2.79,2.79,0,0,1,1.265.272,1.959,1.959,0,0,1,1.137,1.824,2.369,2.369,0,0,1-.628,1.79,2.459,2.459,0,0,1-1.774.6h-1.77v2.194a.245.245,0,0,1-.069.173.233.233,0,0,1-.178.074h-.02a.238.238,0,0,1-.173-.074m2.209-2.842a1.979,1.979,0,0,0,1.414-.46,1.929,1.929,0,0,0,.484-1.458,1.5,1.5,0,0,0-.489-1.191,2.07,2.07,0,0,0-1.409-.43h-1.77v3.539Z" transform="translate(-457.309 -91.781)" fill="#fefefe"/>
    <path id="Caminho_41973" data-name="Caminho 41973" d="M151.121,47.409a13.583,13.583,0,0,1,1.083-5.351,13.5,13.5,0,0,1,7.321-7.361,13.576,13.576,0,0,1,5.4-1.1,13.33,13.33,0,0,1,7.557,2.271,13.942,13.942,0,0,1,5.1,6.134,13.258,13.258,0,0,1,1.07,5.4,13.469,13.469,0,0,1-1.827,6.865,13.636,13.636,0,0,1-4.985,5.012,13.421,13.421,0,0,1-6.917,1.853A13.711,13.711,0,0,1,158,59.325a13.614,13.614,0,0,1-6.878-11.915m7.857.036a5.574,5.574,0,0,0,1.748,4.111,5.767,5.767,0,0,0,4.2,1.725,5.676,5.676,0,0,0,4.151-1.712,5.6,5.6,0,0,0,1.723-4.124,5.72,5.72,0,0,0-1.723-4.176,5.633,5.633,0,0,0-4.151-1.738,5.749,5.749,0,0,0-4.2,1.738,5.677,5.677,0,0,0-1.748,4.176" transform="translate(-122.052 -27.139)" fill="#fefefe"/>
    <path id="Caminho_41974" data-name="Caminho 41974" d="M19.657,0V7.889a.15.15,0,0,1-.1-.052q-.49-.21-.953-.368t-.873-.255c-.432-.137-.83-.246-1.2-.333-.391-.077-.787-.139-1.191-.183-.722-.041-1.306-.066-1.754-.076a13.687,13.687,0,0,0-3.868.6l-.085.028c-.141.044-.279.093-.418.142A14.144,14.144,0,0,0,1.94,13.322a14.823,14.823,0,0,0-.859,1.705A13.467,13.467,0,0,0,0,20.347c0,.058,0,.115,0,.172a4.01,4.01,0,0,1,.049.71,13.4,13.4,0,0,0,3.819,8.578A14.467,14.467,0,0,0,5.7,31.445c.375.265.761.519,1.168.751a13.551,13.551,0,0,0,4.342,1.577c.333.053.672.1,1.015.123q.156.027.495.052c.15.011.275.023.38.035.228.01.458.017.689.017.295,0,.586-.009.876-.027A13.341,13.341,0,0,0,20.7,32.157a13.593,13.593,0,0,0,4.98-4.983,13.442,13.442,0,0,0,1.229-2.8,13.583,13.583,0,0,0,.6-4.03V0ZM17.232,24.346a5.676,5.676,0,0,1-4.15,1.712,5.77,5.77,0,0,1-4.2-1.725,5.576,5.576,0,0,1-1.749-4.111A5.678,5.678,0,0,1,8.88,16.046a5.748,5.748,0,0,1,4.2-1.738,5.633,5.633,0,0,1,4.15,1.738,5.721,5.721,0,0,1,1.722,4.176,5.6,5.6,0,0,1-1.722,4.124" transform="translate(0)" fill="#fefefe"/>
    <path id="Caminho_41975" data-name="Caminho 41975" d="M346.665,141.076a3.373,3.373,0,0,0,1.058,2.487,3.489,3.489,0,0,0,2.542,1.043,3.432,3.432,0,0,0,2.511-1.036,3.391,3.391,0,0,0,1.042-2.495,3.461,3.461,0,0,0-1.042-2.526,3.408,3.408,0,0,0-2.511-1.052,3.477,3.477,0,0,0-2.542,1.052,3.434,3.434,0,0,0-1.058,2.526" transform="translate(-279.983 -111.05)" fill="#70a918"/>
    <path id="Caminho_41976" data-name="Caminho 41976" d="M311.361,32.931a3.954,3.954,0,0,1-1.233-2.9,4.018,4.018,0,0,1,1.231-2.942,4.059,4.059,0,0,1,2.887-1.219,5.669,5.669,0,0,1-2.261-1.175,1.121,1.121,0,0,1-.24-.184c-.035-.036-.068-.072-.1-.108l-.062-.065c-.034-.037-.068-.074-.1-.111-.011-.012-.021-.025-.032-.037a5.547,5.547,0,0,1-1.6-3.964,5.958,5.958,0,0,1,4.855-5.814V6.678l-.376.021c-.4.043-.8.105-1.191.183-.371.087-.769.2-1.2.333q-.423.1-.872.255-.464.157-.953.367a.149.149,0,0,1-.1.052V0h-7.847V20.348a13.58,13.58,0,0,0,.6,4.03c.1.334.22.661.349.987a13.783,13.783,0,0,0,.9,1.857,13.637,13.637,0,0,0,4.986,5.011,13.323,13.323,0,0,0,3.268,1.373,4.352,4.352,0,0,1-.886-.675" transform="translate(-244.034 -0.001)" fill="#fefefe"/>
  </g>
</svg>
