<svg xmlns="http://www.w3.org/2000/svg" xmlns:xlink="http://www.w3.org/1999/xlink" width="429.325" height="127.973" viewBox="0 0 429.325 127.973">
  <defs>
    <clipPath id="clip-path">
      <rect id="Logo_preto" width="429.325" height="127.973" fill="none"/>
    </clipPath>
  </defs>
  <g id="Grupo_96286" data-name="Grupo 96286" clip-path="url(#clip-path)">
    <path id="Caminho_41979" data-name="Caminho 41979" d="M431.155,68.563q3.321,2.942,3.469,9.936.279,13.021-12.368,13.292l-8.11.174a.3.3,0,0,1-.342-.327l-.247-25.377a.3.3,0,0,1,.328-.342l7.812-.167q6.137-.132,9.457,2.811m-1.014,18.7q2.678-2.624,2.549-8.726-.181-8.408-5.356-10.269a16.314,16.314,0,0,0-5.6-.736l-6.213.134.184,22.474,6.511-.14q5.245-.113,7.923-2.738" transform="translate(-114.147 -18.147)" fill="#030404"/>
    <path id="Caminho_41980" data-name="Caminho 41980" d="M450.137,91.4a.888.888,0,0,1-.279-.652v-24.3a.929.929,0,0,1,.279-.689.891.891,0,0,1,.65-.279h.074a.891.891,0,0,1,.93.93V90.744a.931.931,0,0,1-.259.652.882.882,0,0,1-.671.279h-.074a.9.9,0,0,1-.65-.279" transform="translate(-124.166 -18.073)" fill="#030404"/>
    <path id="Caminho_41981" data-name="Caminho 41981" d="M482.387,71.552a10.606,10.606,0,0,0-2.178-2.716,8.349,8.349,0,0,0-2.883-1.562,16.53,16.53,0,0,0-4.429-.522,12.022,12.022,0,0,0-6.025,1.434A9.456,9.456,0,0,0,463,72.3a15.024,15.024,0,0,0,0,12.408,9.6,9.6,0,0,0,3.87,4.111,11.9,11.9,0,0,0,6.025,1.452q5.433,0,8.075-2.215t2.977-7.2h-8.707a.973.973,0,0,1-.689-.261.838.838,0,0,1-.279-.632.867.867,0,0,1,.261-.634.91.91,0,0,1,.67-.26H485.7a.3.3,0,0,1,.334.335q-.038,6.474-3.349,9.562T472.9,92.054a13.894,13.894,0,0,1-6.92-1.674,11.581,11.581,0,0,1-4.613-4.725,15.011,15.011,0,0,1-1.637-7.144,15.289,15.289,0,0,1,1.6-7.163,11.254,11.254,0,0,1,4.614-4.742,14.192,14.192,0,0,1,6.957-1.638,14.834,14.834,0,0,1,6.792,1.321,11.305,11.305,0,0,1,4.372,4.3,1.04,1.04,0,0,1,.147.519.907.907,0,0,1-.557.82,1,1,0,0,1-.447.111,1.041,1.041,0,0,1-.818-.484" transform="translate(-126.891 -17.932)" fill="#030404"/>
    <path id="Caminho_41982" data-name="Caminho 41982" d="M503.026,91.4a.888.888,0,0,1-.279-.652v-24.3a.928.928,0,0,1,.279-.689.891.891,0,0,1,.65-.279h.074a.891.891,0,0,1,.93.93V90.744a.931.931,0,0,1-.259.652.882.882,0,0,1-.671.279h-.074a.9.9,0,0,1-.65-.279" transform="translate(-138.764 -18.073)" fill="#030404"/>
    <path id="Caminho_41983" data-name="Caminho 41983" d="M519.98,91.6a.889.889,0,0,1-.277-.65l.148-23.479h-6.512a.908.908,0,0,1-.669-.261.895.895,0,0,1,0-1.264.9.9,0,0,1,.669-.261h14.547a.967.967,0,0,1,.69.261.831.831,0,0,1,.28.631.856.856,0,0,1-.262.633.9.9,0,0,1-.668.261h-6.14l-.149,23.479a.922.922,0,0,1-.261.65.871.871,0,0,1-.67.279h-.074a.891.891,0,0,1-.652-.279" transform="translate(-141.431 -18.13)" fill="#030404"/>
    <path id="Caminho_41984" data-name="Caminho 41984" d="M556.349,91.365l-2.31-5.284H539.38L537.3,91.365a.877.877,0,0,1-.9.521,1.548,1.548,0,0,1-.744-.131.49.49,0,0,1-.223-.463,2.891,2.891,0,0,1,.223-.93l9.564-24a.71.71,0,0,1,.3-.372.844.844,0,0,1,.484-.15h1.636a.851.851,0,0,1,.484.15.725.725,0,0,1,.3.372l9.561,24a2.351,2.351,0,0,1,.263.966c0,.249-.075.4-.226.466a2.712,2.712,0,0,1-.892.093.852.852,0,0,1-.484-.149.7.7,0,0,1-.3-.371M546.86,67.254l-6.847,17h13.358Z" transform="translate(-147.787 -18.173)" fill="#030404"/>
    <path id="Caminho_41985" data-name="Caminho 41985" d="M586.807,91.69H574.491a.3.3,0,0,1-.334-.336l-.223-24.891a.893.893,0,0,1,.279-.652.967.967,0,0,1,1.656.689l.223,23.4h10.716a.915.915,0,0,1,.671.261.9.9,0,0,1,0,1.265.912.912,0,0,1-.671.261" transform="translate(-158.413 -18.088)" fill="#030404"/>
    <path id="Caminho_41986" data-name="Caminho 41986" d="M436.179,119.507A10.607,10.607,0,0,0,434,116.791a8.362,8.362,0,0,0-2.883-1.563,16.535,16.535,0,0,0-4.429-.521,12.007,12.007,0,0,0-6.025,1.433,9.457,9.457,0,0,0-3.87,4.112,15.024,15.024,0,0,0,0,12.408,9.61,9.61,0,0,0,3.87,4.111,11.913,11.913,0,0,0,6.025,1.45q5.434,0,8.076-2.214t2.977-7.2h-8.708a.969.969,0,0,1-.688-.26.839.839,0,0,1-.279-.633.87.87,0,0,1,.261-.633.908.908,0,0,1,.671-.26h10.492a.3.3,0,0,1,.336.335q-.04,6.474-3.351,9.562t-9.787,3.088a13.894,13.894,0,0,1-6.92-1.674,11.582,11.582,0,0,1-4.613-4.725,15.041,15.041,0,0,1-1.637-7.144,15.271,15.271,0,0,1,1.6-7.163,11.266,11.266,0,0,1,4.614-4.744,14.182,14.182,0,0,1,6.955-1.637,14.816,14.816,0,0,1,6.792,1.321,11.3,11.3,0,0,1,4.373,4.3,1.053,1.053,0,0,1,.147.521.9.9,0,0,1-.557.818.981.981,0,0,1-.446.112,1.043,1.043,0,0,1-.819-.484" transform="translate(-114.137 -31.168)" fill="#030404"/>
    <path id="Caminho_41987" data-name="Caminho 41987" d="M456.876,113.641h8.259a10.518,10.518,0,0,1,4.763,1.023,7.363,7.363,0,0,1,4.278,6.864,9.777,9.777,0,0,1-1.47,5.639,7.362,7.362,0,0,1-4.185,2.92l4.465,8.147a3.094,3.094,0,0,1,.448,1.116.3.3,0,0,1-.151.3,1.39,1.39,0,0,1-.557.075h-.449a.863.863,0,0,1-.817-.484l-4.838-8.744a6.358,6.358,0,0,1-.817.038h-7.332v8.259a.931.931,0,0,1-.259.652.879.879,0,0,1-.671.279h-.074a.955.955,0,0,1-.93-.93V113.975a.3.3,0,0,1,.336-.334m13.58,13.376q1.825-1.73,1.822-5.489a5.657,5.657,0,0,0-1.841-4.483,7.784,7.784,0,0,0-5.3-1.619h-6.661v13.321h6.661a7.446,7.446,0,0,0,5.321-1.731" transform="translate(-126.011 -31.366)" fill="#030404"/>
    <path id="Caminho_41988" data-name="Caminho 41988" d="M486.916,126.564q0-6.326,3.312-9.8t9.6-3.48a14.027,14.027,0,0,1,6.808,1.489,11.263,11.263,0,0,1,4.428,4.576,14.652,14.652,0,0,1,1.675,7.22q0,6.437-3.387,9.861t-9.525,3.422q-6.1,0-9.507-3.442t-3.4-9.841m23.926,0q0-5.545-2.772-8.539t-8.242-3q-5.545,0-8.278,2.976t-2.735,8.558q0,5.656,2.828,8.594t8.185,2.939q5.322,0,8.167-2.958t2.847-8.575" transform="translate(-134.395 -31.267)" fill="#030404"/>
    <path id="Caminho_41989" data-name="Caminho 41989" d="M550.05,113.747a.908.908,0,0,1,.259.67v14.958q0,5.206-2.509,8t-7.388,2.792q-5.4,0-7.832-2.624t-2.437-8.166V114.454a.939.939,0,0,1,.279-.689.9.9,0,0,1,.652-.279h.074a.893.893,0,0,1,.93.931v15.105a13.282,13.282,0,0,0,.818,5.1,5.388,5.388,0,0,0,2.606,2.827,10.885,10.885,0,0,0,4.911.93q7.96,0,7.962-8.855V114.417a.871.871,0,0,1,.28-.67.923.923,0,0,1,.65-.261h.075a.909.909,0,0,1,.67.261" transform="translate(-146.326 -31.324)" fill="#030404"/>
    <path id="Caminho_41990" data-name="Caminho 41990" d="M566.5,139.444a.894.894,0,0,1-.279-.652V113.975a.3.3,0,0,1,.334-.335h8.261a10.5,10.5,0,0,1,4.762,1.024,7.373,7.373,0,0,1,4.28,6.864q0,4.466-2.364,6.736a9.254,9.254,0,0,1-6.678,2.27h-6.661v8.259a.922.922,0,0,1-.26.652.876.876,0,0,1-.669.279h-.074a.9.9,0,0,1-.653-.279m8.316-10.7a7.448,7.448,0,0,0,5.321-1.731q1.824-1.73,1.824-5.489a5.656,5.656,0,0,0-1.842-4.483,7.791,7.791,0,0,0-5.3-1.619h-6.661v13.321Z" transform="translate(-156.285 -31.366)" fill="#030404"/>
    <path id="Caminho_41991" data-name="Caminho 41991" d="M151.121,85.571A51.124,51.124,0,0,1,155.2,65.432a50.8,50.8,0,0,1,27.556-27.7A51.1,51.1,0,0,1,203.09,33.6a50.171,50.171,0,0,1,28.443,8.547,52.476,52.476,0,0,1,19.206,23.087,49.9,49.9,0,0,1,4.028,20.336,50.7,50.7,0,0,1-6.878,25.838,51.322,51.322,0,0,1-18.762,18.863,50.513,50.513,0,0,1-26.036,6.975,51.608,51.608,0,0,1-26.082-6.829,51.24,51.24,0,0,1-25.886-44.847m29.571.137a20.98,20.98,0,0,0,6.581,15.475,21.706,21.706,0,0,0,15.816,6.493,21.362,21.362,0,0,0,15.622-6.444A21.093,21.093,0,0,0,225.2,85.708a21.53,21.53,0,0,0-6.484-15.718,21.2,21.2,0,0,0-15.622-6.543,21.636,21.636,0,0,0-15.816,6.543,21.366,21.366,0,0,0-6.581,15.718" transform="translate(-41.711 -9.275)" fill="#030404"/>
    <path id="Caminho_41992" data-name="Caminho 41992" d="M73.986,0V29.693a.566.566,0,0,1-.392-.2q-1.843-.792-3.585-1.384-1.688-.574-3.284-.96C65.1,26.637,63.6,26.227,62.2,25.9c-1.473-.29-2.964-.525-4.481-.687-2.719-.153-4.917-.249-6.6-.286a51.516,51.516,0,0,0-14.559,2.263c-.109.034-.215.071-.321.1-.529.167-1.051.351-1.575.535A53.236,53.236,0,0,0,7.3,50.14,55.791,55.791,0,0,0,4.07,56.558,50.688,50.688,0,0,0,0,76.585c0,.216.007.434.009.649a15.093,15.093,0,0,1,.186,2.674Q1.373,98.274,14.57,112.193a54.453,54.453,0,0,0,6.888,6.162c1.41,1,2.863,1.953,4.4,2.827A51,51,0,0,0,42.2,127.118c1.255.2,2.527.36,3.822.463q.586.1,1.863.2c.566.043,1.037.087,1.43.131.859.038,1.722.065,2.594.065,1.109,0,2.207-.035,3.3-.1a50.213,50.213,0,0,0,22.709-6.837,51.162,51.162,0,0,0,18.743-18.756,50.594,50.594,0,0,0,4.626-10.527,51.124,51.124,0,0,0,2.243-15.168V0ZM64.86,91.636A21.364,21.364,0,0,1,49.238,98.08a21.717,21.717,0,0,1-15.817-6.493,20.986,20.986,0,0,1-6.582-15.475,21.37,21.37,0,0,1,6.582-15.719,21.634,21.634,0,0,1,15.817-6.541A21.2,21.2,0,0,1,64.86,60.394a21.532,21.532,0,0,1,6.483,15.719A21.092,21.092,0,0,1,64.86,91.636" fill="#030404"/>
    <path id="Caminho_41993" data-name="Caminho 41993" d="M346.665,150.964a12.7,12.7,0,0,0,3.981,9.362,13.133,13.133,0,0,0,9.569,3.927,12.919,12.919,0,0,0,9.45-3.9,12.763,12.763,0,0,0,3.921-9.39,13.026,13.026,0,0,0-3.921-9.508,12.826,12.826,0,0,0-9.45-3.958,13.088,13.088,0,0,0-9.569,3.958,12.926,12.926,0,0,0-3.981,9.508" transform="translate(-95.684 -37.951)" fill="#70a918"/>
    <path id="Caminho_41994" data-name="Caminho 41994" d="M336.809,123.945a14.884,14.884,0,0,1-4.64-10.929,15.124,15.124,0,0,1,4.634-11.075,15.277,15.277,0,0,1,10.866-4.589,21.341,21.341,0,0,1-8.509-4.422,4.221,4.221,0,0,1-.9-.692c-.133-.134-.256-.271-.387-.405-.08-.08-.156-.162-.232-.243-.129-.138-.255-.279-.379-.418-.043-.046-.078-.094-.119-.14A20.878,20.878,0,0,1,331.1,76.112,22.423,22.423,0,0,1,349.37,54.228V25.134l-1.414.078c-1.517.161-3.008.4-4.481.688-1.4.326-2.9.738-4.524,1.253q-1.593.384-3.281.961-1.746.591-3.587,1.383a.559.559,0,0,1-.394.2V0H302.154V76.585A51.115,51.115,0,0,0,304.4,91.753c.387,1.255.826,2.489,1.313,3.715a51.889,51.889,0,0,0,3.37,6.988,51.326,51.326,0,0,0,18.765,18.861,50.142,50.142,0,0,0,12.3,5.167,16.38,16.38,0,0,1-3.336-2.539" transform="translate(-83.398 0)" fill="#030404"/>
  </g>
</svg>
