<svg id="logo_branco" data-name="logo branco" xmlns="http://www.w3.org/2000/svg" xmlns:xlink="http://www.w3.org/1999/xlink" width="425.888" height="52.086" viewBox="0 0 425.888 52.086">
  <defs>
    <clipPath id="clip-path">
      <path id="Caminho_3322" data-name="Caminho 3322" d="M241.02,153.681a5.552,5.552,0,1,0,5.595,5.552A5.579,5.579,0,0,0,241.02,153.681Z" transform="translate(-235.427 -153.681)" fill="#3eaeab"/>
    </clipPath>
  </defs>
  <g id="Grupo_8547" data-name="Grupo 8547">
    <g id="Grupo_8546" data-name="Grupo 8546">
      <g id="Grupo_8545" data-name="Grupo 8545">
        <g id="Grupo_8538" data-name="Grupo 8538" transform="translate(46.643)">
          <path id="Caminho_3313" data-name="Caminho 3313" d="M74.677,156.349v-9.641h12.9v-9.217H74.749V126.462H64.469V155.5c0,13.722,6.186,21.012,18.384,21.668,1.335.073,2.879.073,4.371.073h6.168v-9.71H86.728C78.281,167.536,74.677,164.19,74.677,156.349Z" transform="translate(-64.469 -126.462)" fill="#fff"/>
        </g>
        <g id="Grupo_8539" data-name="Grupo 8539" transform="translate(82.032 11.029)">
          <path id="Caminho_3314" data-name="Caminho 3314" d="M123.372,153.733c0,2.633-3.055,10.273-12.406,10.273-9.334,0-12.477-7.055-12.477-10.273V133.961H88.354v19.772c0,11.019,10.143,19.983,22.613,19.983,12.429,0,22.542-8.964,22.542-19.983V133.961H123.372Z" transform="translate(-88.354 -133.961)" fill="#fff"/>
        </g>
        <g id="Grupo_8540" data-name="Grupo 8540" transform="translate(133.457)">
          <path id="Caminho_3315" data-name="Caminho 3315" d="M158.152,141.11a21.417,21.417,0,0,0-12.406-3.831c-12.72,0-22.684,8.686-22.684,19.772,0,11.285,10.026,20.125,22.825,20.125,11.623,0,20.892-7.418,22.063-17.24l.2-33.475h-9.994Zm-12.421,25.513c-6.795,0-11.727-3.944-11.727-9.377,0-5.384,5.2-9.766,11.6-9.766,6.682,0,11.532,4.243,11.532,10.089C157.132,162.9,152.444,166.623,145.731,166.623Z" transform="translate(-123.062 -126.462)" fill="#fff"/>
        </g>
        <g id="Grupo_8541" data-name="Grupo 8541" transform="translate(185.237 11.028)">
          <rect id="Retângulo_2898" data-name="Retângulo 2898" width="10.349" height="38.146" fill="#fff"/>
        </g>
        <g id="Grupo_8542" data-name="Grupo 8542" transform="translate(202.071 10.888)">
          <path id="Caminho_3316" data-name="Caminho 3316" d="M191.914,133.865c-10.841,0-22.542,7.641-22.542,19.983,0,12.3,11.7,19.914,22.542,19.914s22.542-7.612,22.542-19.914C214.455,141.505,202.755,133.865,191.914,133.865Zm0,29.191c-5.537,0-11.263-3.444-11.263-9.211,0-5.806,5.726-9.274,11.263-9.274,5.57,0,11.328,3.468,11.328,9.274C203.245,159.535,197.366,163.056,191.917,163.056Z" transform="translate(-169.372 -133.865)" fill="#fff"/>
        </g>
        <g id="Grupo_8543" data-name="Grupo 8543" transform="translate(0 7.342)">
          <path id="Caminho_3317" data-name="Caminho 3317" d="M59.826,149.745,54.278,148.5c-6.23-1.331-7.937-2.311-7.937-4.556,0-2.147,2.661-3.481,6.944-3.481,4.1,0,8.756,2.441,10.635,5.206l8.81-4.906c-3.4-5.3-11.3-9.313-19.132-9.313-11.126,0-18.6,5.3-18.6,13.192,0,6.118,4.106,9.87,12.92,11.806l5.547,1.241c5.955,1.271,7.939,2.131,7.939,4.711,0,2.147-3.141,3.481-8.195,3.481a13.74,13.74,0,0,1-11.332-6.055l-8.888,4.98a21.212,21.212,0,0,0,7.4,7.123A25.365,25.365,0,0,0,52.9,174.9c11.687,0,19.851-5.424,19.851-13.191C72.746,155.481,68.641,151.681,59.826,149.745Z" transform="translate(-32.988 -131.454)" fill="#fff"/>
        </g>
        <g id="Grupo_8544" data-name="Grupo 8544" transform="translate(253.559 10.885)">
          <path id="Caminho_3318" data-name="Caminho 3318" d="M248.529,174.114a9.29,9.29,0,0,1,2.294-13.3v-5.084c0-13.647-7.593-21.795-20.31-21.795a25.379,25.379,0,0,0-16.02,6.1v-6.173h-10.37v40.251h10.37v-17.6c0-3.886,5.255-12.991,15.447-12.991,6.976,0,10.512,4.37,10.512,12.991v17.6Z" transform="translate(-204.123 -133.863)" fill="#fff"/>
        </g>
      </g>
    </g>
  </g>
  <g id="Grupo_8550" data-name="Grupo 8550" transform="translate(299.94 40.032)">
    <g id="Grupo_8549" data-name="Grupo 8549" transform="translate(0 0)">
      <path id="Caminho_3319" data-name="Caminho 3319" d="M241.02,153.681a5.552,5.552,0,1,0,5.595,5.552A5.579,5.579,0,0,0,241.02,153.681Z" transform="translate(-235.427 -153.681)" fill="#3eaeab"/>
      <g id="Grupo_8548" data-name="Grupo 8548" clip-path="url(#clip-path)">
        <path id="Caminho_3320" data-name="Caminho 3320" d="M235.427,153.681v0Z" transform="translate(-235.427 -153.681)" fill="#3eaeab"/>
        <rect id="Retângulo_2899" data-name="Retângulo 2899" width="0.28" height="11.105" transform="translate(0 -0.001)" fill="#3eaeab"/>
        <rect id="Retângulo_2900" data-name="Retângulo 2900" width="0.28" height="11.105" transform="translate(0.28 -0.001)" fill="#3eaeab"/>
        <rect id="Retângulo_2901" data-name="Retângulo 2901" width="0.28" height="11.105" transform="translate(0.56 -0.001)" fill="#3eaeab"/>
        <rect id="Retângulo_2902" data-name="Retângulo 2902" width="0.28" height="11.105" transform="translate(0.839 -0.001)" fill="#3eaeab"/>
        <rect id="Retângulo_2903" data-name="Retângulo 2903" width="0.28" height="11.105" transform="translate(1.119 -0.001)" fill="#3eaeab"/>
        <rect id="Retângulo_2904" data-name="Retângulo 2904" width="0.28" height="11.105" transform="translate(1.399 -0.001)" fill="#3eaeab"/>
        <rect id="Retângulo_2905" data-name="Retângulo 2905" width="0.28" height="11.105" transform="translate(1.678 -0.001)" fill="#3eaeab"/>
        <rect id="Retângulo_2906" data-name="Retângulo 2906" width="0.28" height="11.105" transform="translate(1.958 -0.001)" fill="#3eaeab"/>
        <rect id="Retângulo_2907" data-name="Retângulo 2907" width="0.28" height="11.105" transform="translate(2.238 -0.001)" fill="#3eaeab"/>
        <rect id="Retângulo_2908" data-name="Retângulo 2908" width="0.28" height="11.105" transform="translate(2.517 -0.001)" fill="#3eaeab"/>
        <rect id="Retângulo_2909" data-name="Retângulo 2909" width="0.28" height="11.105" transform="translate(2.797 -0.001)" fill="#3eaeab"/>
        <rect id="Retângulo_2910" data-name="Retângulo 2910" width="0.28" height="11.105" transform="translate(3.077 -0.001)" fill="#3eaeab"/>
        <rect id="Retângulo_2911" data-name="Retângulo 2911" width="0.28" height="11.105" transform="translate(3.356 -0.001)" fill="#3eaeab"/>
        <rect id="Retângulo_2912" data-name="Retângulo 2912" width="0.28" height="11.105" transform="translate(3.636 -0.001)" fill="#3eaeab"/>
        <rect id="Retângulo_2913" data-name="Retângulo 2913" width="0.28" height="11.105" transform="translate(3.916 -0.001)" fill="#3eaeab"/>
        <rect id="Retângulo_2914" data-name="Retângulo 2914" width="0.28" height="11.105" transform="translate(4.195 -0.001)" fill="#3eaeab"/>
        <rect id="Retângulo_2915" data-name="Retângulo 2915" width="0.28" height="11.105" transform="translate(4.475 -0.001)" fill="#3eaeab"/>
        <rect id="Retângulo_2916" data-name="Retângulo 2916" width="0.28" height="11.105" transform="translate(4.755 -0.001)" fill="#3eaeab"/>
        <rect id="Retângulo_2917" data-name="Retângulo 2917" width="0.28" height="11.105" transform="translate(5.034 -0.001)" fill="#3eaeab"/>
        <rect id="Retângulo_2918" data-name="Retângulo 2918" width="0.28" height="11.105" transform="translate(5.314 -0.001)" fill="#3eaeab"/>
        <rect id="Retângulo_2919" data-name="Retângulo 2919" width="0.28" height="11.105" transform="translate(5.594 -0.001)" fill="#3eaeab"/>
        <rect id="Retângulo_2920" data-name="Retângulo 2920" width="0.28" height="11.105" transform="translate(5.873 -0.001)" fill="#3eaeab"/>
        <rect id="Retângulo_2921" data-name="Retângulo 2921" width="0.28" height="11.105" transform="translate(6.153 -0.001)" fill="#3eaeab"/>
        <rect id="Retângulo_2922" data-name="Retângulo 2922" width="0.28" height="11.105" transform="translate(6.433 -0.001)" fill="#3eaeab"/>
        <rect id="Retângulo_2923" data-name="Retângulo 2923" width="0.28" height="11.105" transform="translate(6.712 -0.001)" fill="#3eaeab"/>
        <rect id="Retângulo_2924" data-name="Retângulo 2924" width="0.28" height="11.105" transform="translate(6.992 -0.001)" fill="#3eaeab"/>
        <rect id="Retângulo_2925" data-name="Retângulo 2925" width="0.28" height="11.105" transform="translate(7.272 -0.001)" fill="#3eaeab"/>
        <rect id="Retângulo_2926" data-name="Retângulo 2926" width="0.28" height="11.105" transform="translate(7.551 -0.001)" fill="#3eaeab"/>
        <rect id="Retângulo_2927" data-name="Retângulo 2927" width="0.28" height="11.105" transform="translate(7.831 -0.001)" fill="#3eaeab"/>
        <rect id="Retângulo_2928" data-name="Retângulo 2928" width="0.28" height="11.105" transform="translate(8.111 -0.001)" fill="#3eaeab"/>
        <rect id="Retângulo_2929" data-name="Retângulo 2929" width="0.28" height="11.105" transform="translate(8.39 -0.001)" fill="#3eaeab"/>
        <rect id="Retângulo_2930" data-name="Retângulo 2930" width="0.28" height="11.105" transform="translate(8.67 -0.001)" fill="#3eaeab"/>
        <rect id="Retângulo_2931" data-name="Retângulo 2931" width="0.28" height="11.105" transform="translate(8.95 -0.001)" fill="#3eaeab"/>
        <rect id="Retângulo_2932" data-name="Retângulo 2932" width="0.28" height="11.105" transform="translate(9.229 -0.001)" fill="#3eaeab"/>
        <rect id="Retângulo_2933" data-name="Retângulo 2933" width="0.28" height="11.105" transform="translate(9.509 -0.001)" fill="#3eaeab"/>
        <rect id="Retângulo_2934" data-name="Retângulo 2934" width="0.28" height="11.105" transform="translate(9.789 -0.001)" fill="#3eaeab"/>
        <rect id="Retângulo_2935" data-name="Retângulo 2935" width="0.28" height="11.105" transform="translate(10.069 -0.001)" fill="#3eaeab"/>
        <rect id="Retângulo_2936" data-name="Retângulo 2936" width="0.28" height="11.105" transform="translate(10.348 -0.001)" fill="#3eaeab"/>
        <rect id="Retângulo_2937" data-name="Retângulo 2937" width="0.28" height="11.105" transform="translate(10.628 -0.001)" fill="#3eaeab"/>
        <rect id="Retângulo_2938" data-name="Retângulo 2938" width="0.28" height="11.105" transform="translate(10.908 -0.001)" fill="#3eaeab"/>
        <path id="Caminho_3321" data-name="Caminho 3321" d="M242.978,164.785v0Z" transform="translate(-231.79 -153.681)" fill="#3eaeab"/>
      </g>
    </g>
  </g>
  <g id="Grupo_8551" data-name="Grupo 8551" transform="translate(316.444 11.108)" opacity="0.8">
    <path id="Caminho_3323" data-name="Caminho 3323" d="M355.053,174.992H341.8a.954.954,0,0,1-.7-.3l-10.758-11.46-10.822,11.463a.962.962,0,0,1-.7.3H299.179a.953.953,0,0,1-.956-.95V154.883c0-9.595-4.1-9.595-5.848-9.595-5.094,0-8.139,4.668-8.139,9.182v19.572a.953.953,0,0,1-.957.95h-9.859a.953.953,0,0,1-.957-.95V155.779c0-3.922-1.114-10.56-5.291-10.56-6.377,0-8.764,6.364-8.764,7.665,0,3.062.018,6.295.034,9.529s.036,6.49.036,9.561v2.068a.954.954,0,0,1-.957.95h-10a.953.953,0,0,1-.957-.95V135.1a.953.953,0,0,1,.957-.95h10a.954.954,0,0,1,.957.95v1.3a19.415,19.415,0,0,1,9.318-2.388,16.263,16.263,0,0,1,12.058,5.611,19.216,19.216,0,0,1,13.007-5.611c10.889,0,17.134,6.979,17.134,19.144v14.773l12.591-13.4-17.711-18.922a.945.945,0,0,1-.176-1.027.958.958,0,0,1,.877-.571h13.244a.967.967,0,0,1,.7.3l10.826,11.407,10.763-11.4a.958.958,0,0,1,.7-.3h13.236a.957.957,0,0,1,.877.571.942.942,0,0,1-.175,1.025L338.1,154.535,355.754,173.4a.942.942,0,0,1,.176,1.025A.957.957,0,0,1,355.053,174.992Zm-12.835-1.9h10.641l-16.76-17.91a.945.945,0,0,1,0-1.291l16.754-17.975H342.219l-11.176,11.842a.959.959,0,0,1-.7.3h0a.957.957,0,0,1-.7-.3l-11.241-11.844H307.769l16.824,17.974a.944.944,0,0,1,0,1.294l-14.855,15.809a.96.96,0,0,1-1.05.235.95.95,0,0,1-.606-.884V153.159c0-11.12-5.406-17.244-15.221-17.244-5.16,0-9.786,3-12.394,5.809a.962.962,0,0,1-1.492-.106,14.1,14.1,0,0,0-11.179-5.7,17.347,17.347,0,0,0-9.731,2.977.966.966,0,0,1-.988.06.949.949,0,0,1-.513-.841v-2.058H248.48v37.039h8.084v-1.118c0-3.068-.018-6.306-.034-9.548s-.036-6.479-.036-9.542c0-1.947,2.787-9.564,10.678-9.564,5.318,0,7.205,6.711,7.205,12.458v17.313h7.944V154.47c0-5.448,3.76-11.082,10.053-11.082,1.919,0,7.761,0,7.761,11.5v18.209h18.273l11.238-11.9a.954.954,0,0,1,.7-.3h0a.955.955,0,0,1,.7.3Z" transform="translate(-246.566 -134.015)" fill="#fff"/>
  </g>
</svg>
