<svg xmlns="http://www.w3.org/2000/svg" xmlns:xlink="http://www.w3.org/1999/xlink" width="380" height="166.478" viewBox="0 0 380 166.478"><defs><style>.a{fill:url(#a);}.b{fill:url(#b);}.c{fill:url(#c);}</style><linearGradient id="a" y1="0.5" x2="1" y2="0.5" gradientUnits="objectBoundingBox"><stop offset="0.016" stop-color="#1d1d1b"/><stop offset="0.325" stop-color="#575756"/><stop offset="0.414" stop-color="#4c4c4b"/><stop offset="0.569" stop-color="#30302e"/><stop offset="0.661" stop-color="#1d1d1b"/><stop offset="0.75" stop-color="#2c2c2b"/><stop offset="0.858" stop-color="#3c3c3b"/></linearGradient><linearGradient id="b" y1="0.5" x2="1" y2="0.5" gradientUnits="objectBoundingBox"><stop offset="0" stop-color="#a6231e"/><stop offset="0.008" stop-color="#ac231e"/><stop offset="0.046" stop-color="#c4241e"/><stop offset="0.08" stop-color="#d3251e"/><stop offset="0.109" stop-color="#d9261e"/><stop offset="0.258" stop-color="#ed806b"/><stop offset="0.297" stop-color="#e76756"/><stop offset="0.362" stop-color="#df4437"/><stop offset="0.416" stop-color="#da2e24"/><stop offset="0.45" stop-color="#d9261e"/><stop offset="0.631" stop-color="#a6231e"/><stop offset="0.657" stop-color="#ac231e"/><stop offset="0.786" stop-color="#c4241e"/><stop offset="0.904" stop-color="#d3251e"/><stop offset="1" stop-color="#d9261e"/></linearGradient><linearGradient id="c" y1="0.5" x2="1" y2="0.5" gradientUnits="objectBoundingBox"><stop offset="0" stop-color="#db8e00"/><stop offset="0.112" stop-color="#fcc000"/><stop offset="0.123" stop-color="#fcc300"/><stop offset="0.222" stop-color="#fee000"/><stop offset="0.279" stop-color="#ffec00"/><stop offset="0.51" stop-color="#fcc000"/><stop offset="0.554" stop-color="#fcc702"/><stop offset="0.622" stop-color="#fcdd09"/><stop offset="0.653" stop-color="#fcea0d"/><stop offset="0.706" stop-color="#fcd908"/><stop offset="0.778" stop-color="#fccb03"/><stop offset="0.864" stop-color="#fcc200"/><stop offset="1" stop-color="#fcc000"/></linearGradient></defs><g transform="translate(-40.16 -45.685)"><g transform="translate(97.365 118.775)"><path d="M164.929,203.012a6.309,6.309,0,0,0-.233-2.048,2.875,2.875,0,0,0-.8-1.1h5.579V208.8a23.323,23.323,0,0,1-2.751.62,16.064,16.064,0,0,1-2.506.207,10.837,10.837,0,0,1-7.575-2.609,9.482,9.482,0,0,1-.019-13.581,10.774,10.774,0,0,1,7.53-2.59,14.4,14.4,0,0,1,1.892.122,13.231,13.231,0,0,1,1.84.381l.323,3.642a13.794,13.794,0,0,0-2.331-.988,6.909,6.909,0,0,0-1.982-.3,4.548,4.548,0,0,0-3.713,1.621,6.9,6.9,0,0,0-1.337,4.514,8.265,8.265,0,0,0,1.349,4.96,4.231,4.231,0,0,0,3.6,1.861q.31,0,.588-.026c.185-.018.369-.043.549-.078Z" transform="translate(-153.77 -190.845)"/><path d="M195.624,213.214a8.273,8.273,0,0,1-5.873-2.135,7.129,7.129,0,0,1-2.291-5.457,6.949,6.949,0,0,1,.672-2.962,7.856,7.856,0,0,1,1.9-2.546,8.014,8.014,0,0,1,2.561-1.515,8.755,8.755,0,0,1,3.031-.526,8.345,8.345,0,0,1,5.9,2.114,7.1,7.1,0,0,1,2.285,5.457,6.993,6.993,0,0,1-.682,2.983,7.711,7.711,0,0,1-1.89,2.535,7.794,7.794,0,0,1-2.551,1.526A8.855,8.855,0,0,1,195.624,213.214Zm-3.863-8.06a7.6,7.6,0,0,0,1.1,4.316,3.479,3.479,0,0,0,5.639.354,5.543,5.543,0,0,0,1.01-3.525,7.517,7.517,0,0,0-1.1-4.306,3.369,3.369,0,0,0-2.9-1.619,3.292,3.292,0,0,0-2.729,1.28A5.507,5.507,0,0,0,191.761,205.154Z" transform="translate(-170.497 -194.434)"/><path d="M228.213,213.1a8.484,8.484,0,0,1-3.137-1.436,7.005,7.005,0,0,1-1.8-3.116l-2.818-8.125q-.234-.68-.506-1.276t-.6-1.17h4.818a10.06,10.06,0,0,0,.478,1.957c.043.121.071.2.085.245l2.829,8.455,2.488-7.54q.171-.532.234-.835a2.706,2.706,0,0,0,.064-.558,1.86,1.86,0,0,0-.181-.792,4.314,4.314,0,0,0-.649-.931h3.818Z" transform="translate(-186.331 -194.386)"/><path d="M246.518,213.1a2.538,2.538,0,0,0,.675-.974,5.335,5.335,0,0,0,.2-1.7v-9.788a5.257,5.257,0,0,0-.2-1.72,2.512,2.512,0,0,0-.675-.937h8.852v3.147a3.4,3.4,0,0,0-.98-.675,3.058,3.058,0,0,0-1.176-.2h-1.546v3.767h2.9v2.907a1.707,1.707,0,0,0-.675-.566,2.185,2.185,0,0,0-.947-.2h-1.274v4.551q.533.109.931.152a6.7,6.7,0,0,0,.746.044,7.6,7.6,0,0,0,2.128-.261,5.117,5.117,0,0,0,1.66-.85l-.806,3.3Z" transform="translate(-199.818 -194.386)"/><path d="M273.529,213.1h-5.977a2.542,2.542,0,0,0,.675-.974,5.318,5.318,0,0,0,.2-1.7v-9.788a5.239,5.239,0,0,0-.2-1.72,2.516,2.516,0,0,0-.675-.937h5.89a7.784,7.784,0,0,1,4.4,1.007,3.794,3.794,0,0,1,.784,5.139,5.473,5.473,0,0,1-2.085,1.573l2.733,4.682a11.04,11.04,0,0,0,.854,1.225,16.631,16.631,0,0,0,1.16,1.3l-2.515.24c-.073.007-.151.013-.234.016s-.209.006-.376.006a3.16,3.16,0,0,1-1.965-.6,6.334,6.334,0,0,1-1.584-2.123l-1.96-3.833v3.811a5.188,5.188,0,0,0,.2,1.7A2.655,2.655,0,0,0,273.529,213.1Zm-.871-7.676a3.407,3.407,0,0,0,1.84-1.056,2.8,2.8,0,0,0,.631-1.862,2.3,2.3,0,0,0-.572-1.65,2.049,2.049,0,0,0-1.562-.6c-.094,0-.163,0-.207.005a.6.6,0,0,0-.13.027Z" transform="translate(-210.261 -194.386)"/><path d="M292.191,212.793a3.536,3.536,0,0,0,.795-1.307,8.674,8.674,0,0,0,.23-2.405v-7.957a4.78,4.78,0,0,0-.272-1.814,4.861,4.861,0,0,0-.9-1.333h4.565l6.72,9.066V201.2a5.534,5.534,0,0,0-.246-1.786,5.168,5.168,0,0,0-.8-1.435h4.234a6.144,6.144,0,0,0-.667,1.488,6.665,6.665,0,0,0-.208,1.8v11.9a8.129,8.129,0,0,1-5.5-3.5q-.085-.117-.128-.171l-4.48-5.834v6.293a5.11,5.11,0,0,0,.224,1.723,3.109,3.109,0,0,0,.757,1.115Z" transform="translate(-222.42 -194.386)"/><path d="M330.112,213.321a8.173,8.173,0,0,1-5.8-2.109,7.041,7.041,0,0,1-2.263-5.39,6.863,6.863,0,0,1,.664-2.926,7.763,7.763,0,0,1,1.877-2.515,7.914,7.914,0,0,1,2.53-1.5,8.651,8.651,0,0,1,2.993-.519,8.242,8.242,0,0,1,5.826,2.088,7.009,7.009,0,0,1,2.258,5.39,6.907,6.907,0,0,1-.674,2.947,7.617,7.617,0,0,1-1.867,2.5,7.708,7.708,0,0,1-2.52,1.507A8.737,8.737,0,0,1,330.112,213.321ZM326.3,205.36a7.5,7.5,0,0,0,1.086,4.263,3.435,3.435,0,0,0,5.569.349,5.472,5.472,0,0,0,1-3.481,7.43,7.43,0,0,0-1.09-4.253,3.33,3.33,0,0,0-2.87-1.6,3.251,3.251,0,0,0-2.695,1.265A5.44,5.44,0,0,0,326.3,205.36Z" transform="translate(-237.317 -194.579)"/><path d="M365.938,212.992a2.527,2.527,0,0,0,.67-.968,5.3,5.3,0,0,0,.194-1.691v-9.718a5.2,5.2,0,0,0-.194-1.681,2.55,2.55,0,0,0-.67-.957h6a9.374,9.374,0,0,1,6.378,1.994,6.972,6.972,0,0,1,2.281,5.54,8.253,8.253,0,0,1-.654,3.329,7.277,7.277,0,0,1-1.918,2.605,5.7,5.7,0,0,1-2.227,1.178,12.32,12.32,0,0,1-3.286.368Zm4.983-2.41a6.374,6.374,0,0,0,.708.146,4.8,4.8,0,0,0,.687.048,3.444,3.444,0,0,0,2.859-1.4,5.931,5.931,0,0,0,1.086-3.735,6.059,6.059,0,0,0-1.059-3.778,3.445,3.445,0,0,0-2.886-1.378q-.314,0-.665.032c-.234.022-.477.054-.73.1Z" transform="translate(-259.108 -194.386)"/><path d="M394.943,212.992a2.537,2.537,0,0,0,.67-.968,5.3,5.3,0,0,0,.194-1.691v-9.718a5.22,5.22,0,0,0-.194-1.707,2.5,2.5,0,0,0-.67-.93h8.788V201.1a3.371,3.371,0,0,0-.973-.67,3.034,3.034,0,0,0-1.168-.195h-1.535v3.74h2.876v2.886a1.692,1.692,0,0,0-.671-.562,2.163,2.163,0,0,0-.94-.195h-1.265v4.518q.529.108.924.151a6.6,6.6,0,0,0,.74.044,7.554,7.554,0,0,0,2.113-.259,5.075,5.075,0,0,0,1.648-.843l-.8,3.275Z" transform="translate(-273.508 -194.386)"/></g><g transform="translate(40.16 133.328)"><path d="M40.16,296.881a43.574,43.574,0,0,0,4.275-5.831,30.2,30.2,0,0,0,2.666-5.664l18.1-51.757q.167-.5.5-1.389a15.022,15.022,0,0,0,1.222-5.053,7.368,7.368,0,0,0-.806-3.332,21.681,21.681,0,0,0-2.97-4.11H90.416L112.3,283a38.873,38.873,0,0,0,3.637,7.719,32.315,32.315,0,0,0,4.859,6.165H87.362a22.749,22.749,0,0,0,3.332-4.5,7.822,7.822,0,0,0,.777-3.444,15.415,15.415,0,0,0-.139-2.11,7.84,7.84,0,0,0-.416-1.721L87.029,274H63.816l-3.609,10.607q-.667,2.056-.861,3a8.373,8.373,0,0,0-.194,1.666,8.805,8.805,0,0,0,.916,3.887,13.935,13.935,0,0,0,2.749,3.721Zm27.433-33.653H83.42L75.534,239.46Z" transform="translate(-40.16 -219.746)"/><path d="M179.938,306.413a16.118,16.118,0,0,0,3.619-5.951q1.044-3.18,1.044-10.953V253.275a21.808,21.808,0,0,0-1.239-8.258,22.209,22.209,0,0,0-4.1-6.072h20.789l30.6,41.287V253.614a25.227,25.227,0,0,0-1.117-8.136,23.544,23.544,0,0,0-3.643-6.533h19.284a27.875,27.875,0,0,0-3.036,6.776,30.294,30.294,0,0,0-.947,8.184v54.208q-14.135-1.652-25.064-15.932-.39-.533-.583-.777l-20.4-26.57v28.658a23.237,23.237,0,0,0,1.02,7.845,14.165,14.165,0,0,0,3.449,5.075Z" transform="translate(-109.22 -229.278)"/><path d="M345.731,282.639q0-5.392-.867-7.631a10.692,10.692,0,0,0-2.985-4.117h20.8v33.317a86.917,86.917,0,0,1-10.255,2.311,59.782,59.782,0,0,1-9.34.77q-17.525,0-28.237-9.725t-10.712-25.373q0-15.6,10.64-25.252t28.069-9.653a53.466,53.466,0,0,1,7.053.458,49.355,49.355,0,0,1,6.861,1.42l1.2,13.577a51.186,51.186,0,0,0-8.69-3.683,25.718,25.718,0,0,0-7.39-1.131q-8.859,0-13.842,6.043t-4.983,16.827q0,11.554,5.031,18.488a15.767,15.767,0,0,0,13.409,6.932q1.156,0,2.191-.1t2.046-.289Z" transform="translate(-171.218 -228.454)"/><path d="M462.66,306.365q-16.345,0-26.8-9.74t-10.452-24.9a31.69,31.69,0,0,1,3.065-13.517,35.843,35.843,0,0,1,8.671-11.616,36.561,36.561,0,0,1,11.688-6.913,39.92,39.92,0,0,1,13.826-2.4q16.486,0,26.915,9.645T500,271.825a31.9,31.9,0,0,1-3.112,13.612,35.99,35.99,0,0,1-20.263,18.529A40.351,40.351,0,0,1,462.66,306.365Zm-17.626-36.773q0,12.257,5.012,19.693t13.184,7.435a15.145,15.145,0,0,0,12.544-5.82q4.607-5.819,4.609-16.082,0-12.257-5.037-19.645t-13.256-7.388a15.017,15.017,0,0,0-12.446,5.844Q445.033,259.472,445.034,269.592Z" transform="translate(-231.431 -228.454)"/><path d="M569.141,307.19a11.49,11.49,0,0,0,3.046-4.4,24.074,24.074,0,0,0,.884-7.69V250.933q0-5.5-.884-7.762a11.355,11.355,0,0,0-3.046-4.226h26.973a11.6,11.6,0,0,0-3.046,4.348,23.57,23.57,0,0,0-.884,7.64v44.661a37.151,37.151,0,0,0,5.552,1.376,33.428,33.428,0,0,0,5.4.442,22,22,0,0,0,7-1.105,27.248,27.248,0,0,0,6.805-3.513l-3.636,14.4Z" transform="translate(-302.79 -229.278)"/><path d="M654.427,307.786a38.222,38.222,0,0,0,3.749-5.113,26.508,26.508,0,0,0,2.338-4.967l15.874-45.385q.146-.439.439-1.217a13.174,13.174,0,0,0,1.071-4.431,6.465,6.465,0,0,0-.706-2.921,19.036,19.036,0,0,0-2.6-3.6H698.5l19.186,55.465a34.032,34.032,0,0,0,3.19,6.769,28.353,28.353,0,0,0,4.261,5.406H695.819a19.977,19.977,0,0,0,2.922-3.944,6.86,6.86,0,0,0,.681-3.02,13.55,13.55,0,0,0-.121-1.85,6.885,6.885,0,0,0-.366-1.51l-3.408-9.739H675.171l-3.166,9.3q-.584,1.8-.755,2.629a7.351,7.351,0,0,0-.17,1.461,7.726,7.726,0,0,0,.8,3.409,12.231,12.231,0,0,0,2.41,3.263Zm24.056-29.51h13.878l-6.915-20.843Z" transform="translate(-345.133 -229.875)"/></g><g transform="translate(233.168 45.685)"><path class="a" d="M423.481,150.094v37.852s24.762-27.286,63.088-21.292,56.306-4.1,64.822-16.56V113.03s-23.184,21.45-63.955,17.98S423.481,150.094,423.481,150.094Z" transform="translate(-423.481 -79.121)"/><path class="b" d="M627.653,45.685S603.838,74.548,562.2,67.608C510.784,58.934,501.163,83.7,501.163,83.7v37.537s20.661-23.658,61.511-18.926,64.98-16.087,64.98-16.087Z" transform="translate(-462.049 -45.685)"/><path class="c" d="M700.933,93.3v22.4s-8.99,15.772-39.9,11.356c-23.816-3.312-39.272,13.643-39.272,13.643V115.22s9.148-14.037,34.541-9.305S700.933,93.3,700.933,93.3Z" transform="translate(-521.922 -69.324)"/></g></g></svg>