<svg xmlns="http://www.w3.org/2000/svg" xmlns:xlink="http://www.w3.org/1999/xlink" width="90" height="39.429" viewBox="0 0 90 39.429"><defs><style>.a{fill:url(#a);}.b{fill:url(#b);}.c{fill:url(#c);}</style><linearGradient id="a" y1="0.5" x2="1" y2="0.5" gradientUnits="objectBoundingBox"><stop offset="0.016" stop-color="#1d1d1b"/><stop offset="0.325" stop-color="#575756"/><stop offset="0.414" stop-color="#4c4c4b"/><stop offset="0.569" stop-color="#30302e"/><stop offset="0.661" stop-color="#1d1d1b"/><stop offset="0.75" stop-color="#2c2c2b"/><stop offset="0.858" stop-color="#3c3c3b"/></linearGradient><linearGradient id="b" y1="0.5" x2="1" y2="0.5" gradientUnits="objectBoundingBox"><stop offset="0" stop-color="#a6231e"/><stop offset="0.008" stop-color="#ac231e"/><stop offset="0.046" stop-color="#c4241e"/><stop offset="0.08" stop-color="#d3251e"/><stop offset="0.109" stop-color="#d9261e"/><stop offset="0.258" stop-color="#ed806b"/><stop offset="0.297" stop-color="#e76756"/><stop offset="0.362" stop-color="#df4437"/><stop offset="0.416" stop-color="#da2e24"/><stop offset="0.45" stop-color="#d9261e"/><stop offset="0.631" stop-color="#a6231e"/><stop offset="0.657" stop-color="#ac231e"/><stop offset="0.786" stop-color="#c4241e"/><stop offset="0.904" stop-color="#d3251e"/><stop offset="1" stop-color="#d9261e"/></linearGradient><linearGradient id="c" y1="0.5" x2="1" y2="0.5" gradientUnits="objectBoundingBox"><stop offset="0" stop-color="#db8e00"/><stop offset="0.112" stop-color="#fcc000"/><stop offset="0.123" stop-color="#fcc300"/><stop offset="0.222" stop-color="#fee000"/><stop offset="0.279" stop-color="#ffec00"/><stop offset="0.51" stop-color="#fcc000"/><stop offset="0.554" stop-color="#fcc702"/><stop offset="0.622" stop-color="#fcdd09"/><stop offset="0.653" stop-color="#fcea0d"/><stop offset="0.706" stop-color="#fcd908"/><stop offset="0.778" stop-color="#fccb03"/><stop offset="0.864" stop-color="#fcc200"/><stop offset="1" stop-color="#fcc000"/></linearGradient></defs><g transform="translate(13.548 17.311)"><path d="M156.413,193.727a1.5,1.5,0,0,0-.055-.485.681.681,0,0,0-.19-.262h1.321V195.1a5.522,5.522,0,0,1-.652.147,3.8,3.8,0,0,1-.593.049,2.567,2.567,0,0,1-1.794-.618,2.246,2.246,0,0,1,0-3.217,2.552,2.552,0,0,1,1.783-.613,3.411,3.411,0,0,1,.448.029,3.132,3.132,0,0,1,.436.09l.077.863a3.267,3.267,0,0,0-.552-.234,1.637,1.637,0,0,0-.47-.072,1.077,1.077,0,0,0-.879.384,1.634,1.634,0,0,0-.317,1.069,1.958,1.958,0,0,0,.32,1.175,1,1,0,0,0,.852.441q.073,0,.139-.006c.044,0,.087-.01.13-.018Z" transform="translate(-153.77 -190.845)"/><path d="M189.394,201.659a1.959,1.959,0,0,1-1.391-.506,1.688,1.688,0,0,1-.543-1.292,1.646,1.646,0,0,1,.159-.7,1.861,1.861,0,0,1,.45-.6,1.9,1.9,0,0,1,.607-.359,2.074,2.074,0,0,1,.718-.125,1.977,1.977,0,0,1,1.4.5,1.681,1.681,0,0,1,.541,1.292,1.656,1.656,0,0,1-.161.707,1.826,1.826,0,0,1-.448.6,1.845,1.845,0,0,1-.6.361A2.1,2.1,0,0,1,189.394,201.659Zm-.915-1.909a1.8,1.8,0,0,0,.26,1.022.824.824,0,0,0,1.336.084,1.313,1.313,0,0,0,.239-.835,1.78,1.78,0,0,0-.261-1.02.8.8,0,0,0-.688-.383.78.78,0,0,0-.646.3A1.3,1.3,0,0,0,188.479,199.75Z" transform="translate(-183.442 -197.211)"/><path d="M221.452,201.56a2.01,2.01,0,0,1-.743-.34,1.659,1.659,0,0,1-.426-.738l-.667-1.924q-.055-.161-.12-.3t-.142-.277H220.5a2.381,2.381,0,0,0,.113.463l.02.058.67,2,.589-1.786q.04-.126.055-.2a.639.639,0,0,0,.015-.132.441.441,0,0,0-.043-.188,1.021,1.021,0,0,0-.154-.22h.9Z" transform="translate(-211.533 -197.127)"/><path d="M246.518,201.56a.6.6,0,0,0,.16-.231,1.264,1.264,0,0,0,.046-.4v-2.318a1.245,1.245,0,0,0-.046-.407.594.594,0,0,0-.16-.222h2.1v.745a.8.8,0,0,0-.232-.16.724.724,0,0,0-.279-.046h-.366v.892h.686v.688a.4.4,0,0,0-.16-.134.517.517,0,0,0-.224-.047h-.3v1.078q.126.026.221.036a1.582,1.582,0,0,0,.177.01,1.8,1.8,0,0,0,.5-.062,1.213,1.213,0,0,0,.393-.2l-.191.781Z" transform="translate(-235.458 -197.127)"/><path d="M268.968,201.56h-1.416a.6.6,0,0,0,.16-.231,1.259,1.259,0,0,0,.047-.4v-2.318a1.241,1.241,0,0,0-.047-.407.6.6,0,0,0-.16-.222h1.4a1.843,1.843,0,0,1,1.043.238.9.9,0,0,1,.186,1.217,1.3,1.3,0,0,1-.494.373l.647,1.109a2.6,2.6,0,0,0,.2.29,3.916,3.916,0,0,0,.275.308l-.6.057-.055,0h-.089a.748.748,0,0,1-.465-.142,1.5,1.5,0,0,1-.375-.5l-.464-.908v.9a1.228,1.228,0,0,0,.048.4A.629.629,0,0,0,268.968,201.56Zm-.206-1.818a.807.807,0,0,0,.436-.25.663.663,0,0,0,.149-.441.545.545,0,0,0-.135-.391.485.485,0,0,0-.37-.143h-.049a.146.146,0,0,0-.031.006Z" transform="translate(-253.983 -197.127)"/><path d="M292.077,201.487a.839.839,0,0,0,.188-.309,2.054,2.054,0,0,0,.054-.57v-1.884a1.133,1.133,0,0,0-.064-.43,1.152,1.152,0,0,0-.213-.316h1.081l1.592,2.147v-1.384a1.311,1.311,0,0,0-.058-.423,1.224,1.224,0,0,0-.189-.34h1a1.454,1.454,0,0,0-.158.352,1.579,1.579,0,0,0-.049.426v2.819a1.925,1.925,0,0,1-1.3-.829l-.03-.04-1.061-1.382v1.49a1.211,1.211,0,0,0,.053.408.738.738,0,0,0,.179.264Z" transform="translate(-275.553 -197.127)"/><path d="M323.958,201.908a1.935,1.935,0,0,1-1.374-.5,1.667,1.667,0,0,1-.536-1.276,1.625,1.625,0,0,1,.157-.693,1.838,1.838,0,0,1,.445-.6,1.874,1.874,0,0,1,.6-.354,2.048,2.048,0,0,1,.709-.123,1.952,1.952,0,0,1,1.38.494,1.66,1.66,0,0,1,.535,1.276,1.634,1.634,0,0,1-.16.7,1.8,1.8,0,0,1-.442.593,1.826,1.826,0,0,1-.6.357A2.069,2.069,0,0,1,323.958,201.908Zm-.9-1.885a1.777,1.777,0,0,0,.257,1.01.813.813,0,0,0,1.319.083,1.3,1.3,0,0,0,.236-.825,1.76,1.76,0,0,0-.258-1.007.789.789,0,0,0-.68-.379.77.77,0,0,0-.638.3A1.289,1.289,0,0,0,323.054,200.022Z" transform="translate(-301.98 -197.469)"/><path d="M365.938,201.534a.6.6,0,0,0,.159-.229,1.256,1.256,0,0,0,.046-.4v-2.3a1.231,1.231,0,0,0-.046-.4.6.6,0,0,0-.159-.227h1.421a2.22,2.22,0,0,1,1.51.472,1.651,1.651,0,0,1,.54,1.312,1.955,1.955,0,0,1-.155.788,1.722,1.722,0,0,1-.454.617,1.35,1.35,0,0,1-.527.279,2.918,2.918,0,0,1-.778.087Zm1.18-.571a1.516,1.516,0,0,0,.168.034,1.134,1.134,0,0,0,.163.011.816.816,0,0,0,.677-.331,1.4,1.4,0,0,0,.257-.884,1.435,1.435,0,0,0-.251-.895.816.816,0,0,0-.684-.326q-.074,0-.158.008c-.055.005-.113.013-.173.023Z" transform="translate(-340.636 -197.127)"/><path d="M394.943,201.534a.6.6,0,0,0,.159-.229,1.254,1.254,0,0,0,.046-.4v-2.3a1.235,1.235,0,0,0-.046-.4.592.592,0,0,0-.159-.22h2.081v.74a.8.8,0,0,0-.23-.159.719.719,0,0,0-.277-.046h-.363v.886h.681v.684a.4.4,0,0,0-.159-.133.512.512,0,0,0-.223-.046h-.3v1.07q.125.026.219.036a1.562,1.562,0,0,0,.175.01,1.791,1.791,0,0,0,.5-.061,1.2,1.2,0,0,0,.39-.2l-.189.776Z" transform="translate(-366.182 -197.127)"/></g><g transform="translate(0 20.757)"><path d="M40.16,238.015a10.323,10.323,0,0,0,1.013-1.381,7.153,7.153,0,0,0,.631-1.341l4.288-12.258q.04-.119.118-.329a3.558,3.558,0,0,0,.289-1.2,1.745,1.745,0,0,0-.191-.789,5.134,5.134,0,0,0-.7-.973h6.458l5.182,14.981a9.207,9.207,0,0,0,.861,1.828,7.656,7.656,0,0,0,1.151,1.46H51.339a5.388,5.388,0,0,0,.789-1.065,1.852,1.852,0,0,0,.184-.816,3.651,3.651,0,0,0-.033-.5,1.857,1.857,0,0,0-.1-.408l-.921-2.63h-5.5l-.855,2.512q-.158.487-.2.71a1.983,1.983,0,0,0-.046.395,2.086,2.086,0,0,0,.217.921,3.3,3.3,0,0,0,.651.881Zm6.5-7.97h3.748l-1.868-5.629Z" transform="translate(-40.16 -219.746)"/><path d="M179.419,254.924a3.817,3.817,0,0,0,.857-1.409,9.364,9.364,0,0,0,.247-2.594v-8.582a5.165,5.165,0,0,0-.293-1.956,5.259,5.259,0,0,0-.972-1.438h4.924l7.248,9.779v-6.3a5.975,5.975,0,0,0-.265-1.927,5.578,5.578,0,0,0-.863-1.547h4.567a6.6,6.6,0,0,0-.719,1.6,7.174,7.174,0,0,0-.224,1.938v12.839a8.768,8.768,0,0,1-5.936-3.773q-.092-.126-.138-.184l-4.832-6.293v6.787a5.5,5.5,0,0,0,.242,1.858,3.355,3.355,0,0,0,.817,1.2Z" transform="translate(-162.67 -236.655)"/><path d="M313.985,248.027a5.558,5.558,0,0,0-.205-1.807,2.532,2.532,0,0,0-.707-.975H318v7.891a20.585,20.585,0,0,1-2.429.547,14.158,14.158,0,0,1-2.212.182,9.566,9.566,0,0,1-6.688-2.3,8.371,8.371,0,0,1-.017-11.99,9.514,9.514,0,0,1,6.648-2.286,12.663,12.663,0,0,1,1.671.108,11.693,11.693,0,0,1,1.625.336l.285,3.216a12.122,12.122,0,0,0-2.058-.872,6.09,6.09,0,0,0-1.75-.268,4.016,4.016,0,0,0-3.278,1.431,6.092,6.092,0,0,0-1.18,3.985,7.3,7.3,0,0,0,1.192,4.379,3.734,3.734,0,0,0,3.176,1.642q.274,0,.519-.023t.484-.068Z" transform="translate(-272.653 -235.193)"/><path d="M434.233,253.646a8.94,8.94,0,0,1-6.347-2.307,7.7,7.7,0,0,1-2.475-5.9,7.506,7.506,0,0,1,.726-3.2,8.489,8.489,0,0,1,2.054-2.751,8.661,8.661,0,0,1,2.768-1.637,9.455,9.455,0,0,1,3.274-.568,9.018,9.018,0,0,1,6.375,2.284,7.667,7.667,0,0,1,2.47,5.9,7.555,7.555,0,0,1-.737,3.224,8.339,8.339,0,0,1-2.042,2.74,8.422,8.422,0,0,1-2.757,1.648A9.556,9.556,0,0,1,434.233,253.646Zm-4.175-8.709a8.209,8.209,0,0,0,1.187,4.664,3.758,3.758,0,0,0,6.093.383,5.986,5.986,0,0,0,1.092-3.809,8.127,8.127,0,0,0-1.193-4.653,3.643,3.643,0,0,0-3.14-1.75,3.557,3.557,0,0,0-2.948,1.384A5.95,5.95,0,0,0,430.058,244.937Z" transform="translate(-379.469 -235.193)"/><path d="M569.141,255.108a2.723,2.723,0,0,0,.722-1.041,5.7,5.7,0,0,0,.209-1.821V241.784a5.615,5.615,0,0,0-.209-1.838,2.692,2.692,0,0,0-.722-1h6.388a2.749,2.749,0,0,0-.721,1.03,5.582,5.582,0,0,0-.209,1.809v10.578a8.8,8.8,0,0,0,1.315.326,7.917,7.917,0,0,0,1.28.1,5.21,5.21,0,0,0,1.658-.262,6.448,6.448,0,0,0,1.612-.832l-.861,3.41Z" transform="translate(-506.058 -236.655)"/><path d="M654.427,256.167a9.048,9.048,0,0,0,.888-1.211,6.288,6.288,0,0,0,.554-1.176l3.76-10.749q.035-.1.1-.288a3.12,3.12,0,0,0,.254-1.049,1.532,1.532,0,0,0-.167-.692,4.511,4.511,0,0,0-.617-.854h5.663l4.544,13.136a8.066,8.066,0,0,0,.756,1.6,6.71,6.71,0,0,0,1.009,1.28H664.23a4.732,4.732,0,0,0,.692-.934,1.625,1.625,0,0,0,.161-.715,3.234,3.234,0,0,0-.029-.438,1.633,1.633,0,0,0-.087-.358l-.807-2.307H659.34l-.75,2.2q-.138.427-.179.623a1.731,1.731,0,0,0-.04.346,1.829,1.829,0,0,0,.19.807,2.9,2.9,0,0,0,.571.773Zm5.7-6.989h3.287l-1.638-4.936Z" transform="translate(-581.174 -237.714)"/></g><g transform="translate(45.712)"><path class="a" d="M423.481,121.808v8.965a17.649,17.649,0,0,1,14.942-5.043c9.077,1.419,13.335-.971,15.353-3.922V113.03s-5.491,5.08-15.147,4.258S423.481,121.808,423.481,121.808Z" transform="translate(-423.481 -104.999)"/><path class="b" d="M531.121,45.685a17.081,17.081,0,0,1-15.5,5.192c-12.177-2.055-14.456,3.81-14.456,3.81v8.89s4.893-5.6,14.568-4.482,15.39-3.81,15.39-3.81Z" transform="translate(-491.899 -45.685)"/><path class="c" d="M640.51,93.3v5.3s-2.129,3.735-9.451,2.69a11.256,11.256,0,0,0-9.3,3.231V98.489s2.167-3.325,8.181-2.2S640.51,93.3,640.51,93.3Z" transform="translate(-598.113 -87.619)"/></g></svg>