<svg id="Grupo_95688" data-name="Grupo 95688" xmlns="http://www.w3.org/2000/svg" xmlns:xlink="http://www.w3.org/1999/xlink" width="35.945" height="33.773" viewBox="0 0 35.945 33.773">
  <defs>
    <clipPath id="clip-path">
      <rect id="Ret창ngulo_39872" data-name="Ret창ngulo 39872" width="35.945" height="33.773" stroke="rgba(0,0,0,0)" stroke-width="1"/>
    </clipPath>
  </defs>
  <g id="Grupo_95688-2" data-name="Grupo 95688" clip-path="url(#clip-path)">
    <path id="Caminho_42860" data-name="Caminho 42860" d="M127.774,245.973H113.738a1.28,1.28,0,0,1-1.278-1.278V233.456a1.28,1.28,0,0,1,1.278-1.278h14.036a1.28,1.28,0,0,1,1.278,1.278V244.7a1.28,1.28,0,0,1-1.278,1.278M113.738,232.35a1.107,1.107,0,0,0-1.106,1.106V244.7a1.107,1.107,0,0,0,1.106,1.106h14.036a1.107,1.107,0,0,0,1.106-1.106V233.456a1.107,1.107,0,0,0-1.106-1.106Z" transform="translate(-102.784 -212.201)" stroke="rgba(0,0,0,0)" stroke-width="1"/>
    <path id="Caminho_42861" data-name="Caminho 42861" d="M265.79,324.731v.348h-.09v.639h.09v.355h-.568v-.355h.09v-.639h-.09v-.348Z" transform="translate(-242.401 -296.79)" stroke="rgba(0,0,0,0)" stroke-width="1"/>
    <path id="Caminho_42862" data-name="Caminho 42862" d="M251.047,324.731h0v.348h-.129l-.3.994h-.322l-.317-.994h-.136v-.348h.562v.348h-.058l.1.343.1-.343h-.064v-.348Z" transform="translate(-228.343 -296.79)" stroke="rgba(0,0,0,0)" stroke-width="1"/>
    <path id="Caminho_42863" data-name="Caminho 42863" d="M239.545,324.731h0v.348h-.1v.639h.142v-.213h.349v.568h-.968v-.355h.091v-.639h-.091v-.348Z" transform="translate(-218.403 -296.79)" stroke="rgba(0,0,0,0)" stroke-width="1"/>
    <path id="Caminho_42864" data-name="Caminho 42864" d="M226.379,324.731h0v.433h-.349v-.084h-.168v.142h.31v.342h-.31v.155h.168v-.09h.349v.445h-.994v-.355h.091v-.639h-.091v-.348Z" transform="translate(-205.992 -296.79)" stroke="rgba(0,0,0,0)" stroke-width="1"/>
    <path id="Caminho_42865" data-name="Caminho 42865" d="M213.487,325.384h0v.459l-.233.232h-.471l-.213-.226V325.6h.374v.116h.155v-.187h-.368l-.174-.187v-.388l.226-.226h.484l.207.213v.219h-.362v-.084h-.168v.129h.375Z" transform="translate(-194.268 -296.791)" stroke="rgba(0,0,0,0)" stroke-width="1"/>
    <path id="Caminho_42866" data-name="Caminho 42866" d="M201.1,325.384h0v.459l-.232.232h-.465l-.22-.226V325.6h.375v.116h.161v-.187h-.374l-.168-.187v-.388l.226-.226h.477l.207.213v.219h-.362v-.084h-.168v.129h.374Z" transform="translate(-182.956 -296.791)" stroke="rgba(0,0,0,0)" stroke-width="1"/>
    <path id="Caminho_42867" data-name="Caminho 42867" d="M186.184,325.719l-.291-.988h-.368l-.316.988h-.11v.355h.529v-.336h-.084l.026-.077h.251l.019.077h-.084v.336h.549v-.355Zm-.53-.342.045-.142.039.142Z" transform="translate(-169.173 -296.79)" stroke="rgba(0,0,0,0)" stroke-width="1"/>
    <path id="Caminho_42868" data-name="Caminho 42868" d="M177.709,324.731h0v.348h-.091v.639h.091v.355h-.562v-.355h.084v-.639h-.084v-.348Z" transform="translate(-161.905 -296.79)" stroke="rgba(0,0,0,0)" stroke-width="1"/>
    <path id="Caminho_42869" data-name="Caminho 42869" d="M162.29,324.731h0v.348H162.2v.994h-.335l-.355-.671v.329h.1v.342h-.523v-.355h.091v-.639h-.091v-.348h.471l.316.6v-.265h-.1v-.336Z" transform="translate(-147.228 -296.79)" stroke="rgba(0,0,0,0)" stroke-width="1"/>
    <path id="Caminho_42870" data-name="Caminho 42870" d="M147.072,324.731h0v.348h-.1v.762l-.226.232h-.478l-.225-.232v-.762h-.1v-.348h.542v.336h-.051v.652h.155v-.652h-.045v-.336Z" transform="translate(-133.379 -296.79)" stroke="rgba(0,0,0,0)" stroke-width="1"/>
    <path id="Caminho_42871" data-name="Caminho 42871" d="M156.7,264.923l-.007.755a4.361,4.361,0,0,0-5.409,2.007,3.755,3.755,0,0,0-5.429-.536v-.826a4.437,4.437,0,0,1,5.3.29,5.042,5.042,0,0,1,5.545-1.691" transform="translate(-133.308 -241.911)" stroke="rgba(0,0,0,0)" stroke-width="1"/>
    <path id="Caminho_42872" data-name="Caminho 42872" d="M156.7,278.578l-.007.7a3.287,3.287,0,0,0-4.809,2.485h-.915a2.735,2.735,0,0,0-3.679-1.811,3.082,3.082,0,0,0-1.435,1.158v-.944a3.383,3.383,0,0,1,5.513.862,3.922,3.922,0,0,1,5.332-2.446" transform="translate(-133.308 -254.314)" stroke="rgba(0,0,0,0)" stroke-width="1"/>
    <path id="Caminho_42873" data-name="Caminho 42873" d="M159.564,349a.021.021,0,0,1-.011,0h0l-.092-.005q-.055,0-.121,0a.178.178,0,0,0-.056.008.094.094,0,0,0-.043.028.135.135,0,0,0-.027.054.323.323,0,0,0-.009.084v.128a.293.293,0,0,0,.011.087.149.149,0,0,0,.028.053.088.088,0,0,0,.037.027.117.117,0,0,0,.039.007q.042,0,.079,0v-.236a.021.021,0,0,1,.006-.014.018.018,0,0,1,.014-.006h.131a.021.021,0,0,1,.021.021v.345a.022.022,0,0,1-.021.024q-.042.008-.1.015a1.124,1.124,0,0,1-.132.007.343.343,0,0,1-.062-.006.3.3,0,0,1-.066-.02.268.268,0,0,1-.062-.039.262.262,0,0,1-.053-.061.306.306,0,0,1-.036-.086.445.445,0,0,1-.013-.114v-.127a.406.406,0,0,1,.028-.162.265.265,0,0,1,.072-.1.254.254,0,0,1,.1-.051.442.442,0,0,1,.111-.014.844.844,0,0,1,.131.009l.083.015c.012,0,.017.007.017.015v.109a.012.012,0,0,1,0,.011" transform="translate(-145.341 -318.828)" stroke="rgba(0,0,0,0)" stroke-width="1"/>
    <path id="Caminho_42874" data-name="Caminho 42874" d="M166.948,349.083a.076.076,0,0,0-.035-.069.185.185,0,0,0-.1-.022h-.08v.2h.072a.333.333,0,0,0,.067-.006.117.117,0,0,0,.043-.017.062.062,0,0,0,.023-.03.124.124,0,0,0,.007-.045Zm.2.519c0,.008-.005.012-.015.012h-.158a.014.014,0,0,1-.012-.006l-.008-.014-.137-.26h-.084v.261a.02.02,0,0,1-.006.014.02.02,0,0,1-.014.006h-.134a.02.02,0,0,1-.014-.006.02.02,0,0,1-.006-.014v-.688a.045.045,0,0,1,.011-.036.076.076,0,0,1,.035-.013l.042-.005.052,0,.057,0h.057a.6.6,0,0,1,.122.012.274.274,0,0,1,.1.04.2.2,0,0,1,.065.074.248.248,0,0,1,.024.114v.013a.213.213,0,0,1-.038.132.22.22,0,0,1-.095.073l.156.289a.026.026,0,0,1,0,.011" transform="translate(-152.228 -318.828)" stroke="rgba(0,0,0,0)" stroke-width="1"/>
    <path id="Caminho_42875" data-name="Caminho 42875" d="M174,349a.05.05,0,0,0,0-.012s0,0-.009,0-.012.005-.014.015l-.063.283h.153Zm.31.594c0,.011-.006.016-.017.016h-.144a.018.018,0,0,1-.013-.005.027.027,0,0,1-.007-.013l-.037-.168h-.21l-.037.168a.028.028,0,0,1-.007.013.018.018,0,0,1-.013.005h-.144c-.012,0-.017-.005-.017-.016v0a.007.007,0,0,0,0,0l.153-.636a.16.16,0,0,1,.027-.059.122.122,0,0,1,.041-.034.163.163,0,0,1,.05-.016.356.356,0,0,1,.053,0,.347.347,0,0,1,.053,0,.165.165,0,0,1,.049.016.122.122,0,0,1,.041.034.162.162,0,0,1,.027.059l.153.636a.007.007,0,0,0,0,0v0" transform="translate(-158.721 -318.828)" stroke="rgba(0,0,0,0)" stroke-width="1"/>
    <path id="Caminho_42876" data-name="Caminho 42876" d="M182.254,349.167a.288.288,0,0,0-.011-.086.132.132,0,0,0-.031-.054.107.107,0,0,0-.048-.028.232.232,0,0,0-.063-.008h-.073v.479l.032,0h.041a.236.236,0,0,0,.063-.008.107.107,0,0,0,.048-.028.131.131,0,0,0,.031-.054.288.288,0,0,0,.011-.086Zm.175.132a.411.411,0,0,1-.023.142.257.257,0,0,1-.167.162.439.439,0,0,1-.137.02h-.064l-.062,0-.053,0-.039-.006a.036.036,0,0,1-.022-.01.037.037,0,0,1-.008-.026v-.678a.031.031,0,0,1,.03-.036l.039-.006.053,0,.062,0,.064,0a.44.44,0,0,1,.137.02.257.257,0,0,1,.167.162.411.411,0,0,1,.023.142Z" transform="translate(-166.207 -318.828)" stroke="rgba(0,0,0,0)" stroke-width="1"/>
    <path id="Caminho_42877" data-name="Caminho 42877" d="M190.123,349.571a.228.228,0,0,1-.064.09.231.231,0,0,1-.094.047.506.506,0,0,1-.231,0,.231.231,0,0,1-.094-.047.224.224,0,0,1-.063-.09.39.39,0,0,1-.023-.145v-.456a.018.018,0,0,1,.006-.014.02.02,0,0,1,.014-.006h.134a.021.021,0,0,1,.014.006.018.018,0,0,1,.006.014v.456a.344.344,0,0,0,.006.067.108.108,0,0,0,.019.046.081.081,0,0,0,.037.027.2.2,0,0,0,.116,0,.082.082,0,0,0,.037-.027.115.115,0,0,0,.02-.046.317.317,0,0,0,.006-.067v-.456a.018.018,0,0,1,.006-.014.02.02,0,0,1,.014-.006h.133a.022.022,0,0,1,.015.006.017.017,0,0,1,.007.014v.456a.382.382,0,0,1-.024.145" transform="translate(-173.245 -318.925)" stroke="rgba(0,0,0,0)" stroke-width="1"/>
    <path id="Caminho_42878" data-name="Caminho 42878" d="M197.165,349a.051.051,0,0,0,0-.012s0,0-.009,0-.012.005-.014.015l-.063.283h.153Zm.31.594c0,.011-.006.016-.017.016h-.144a.018.018,0,0,1-.013-.005.028.028,0,0,1-.007-.013l-.037-.168h-.21l-.037.168a.029.029,0,0,1-.007.013.018.018,0,0,1-.013.005h-.144c-.012,0-.017-.005-.017-.016v0a.007.007,0,0,0,0,0l.153-.636a.158.158,0,0,1,.027-.059.121.121,0,0,1,.041-.034.163.163,0,0,1,.05-.016.356.356,0,0,1,.053,0,.347.347,0,0,1,.053,0,.165.165,0,0,1,.049.016.121.121,0,0,1,.041.034.161.161,0,0,1,.027.059l.153.636a.007.007,0,0,0,0,0v0" transform="translate(-179.891 -318.828)" stroke="rgba(0,0,0,0)" stroke-width="1"/>
    <path id="Caminho_42879" data-name="Caminho 42879" d="M204.963,349.658a.012.012,0,0,1,0,.008l-.126.125-.01.009a.025.025,0,0,1-.014,0h-.11c-.006,0-.009,0-.009-.007a.016.016,0,0,1,0-.01l.1-.12.012-.012a.027.027,0,0,1,.016,0h.135c.007,0,.011,0,.011.007m.092-.075a.02.02,0,0,1-.006.016.045.045,0,0,1-.017.008.433.433,0,0,1-.057.011.652.652,0,0,1-.1.006.394.394,0,0,1-.113-.016.247.247,0,0,1-.1-.055.276.276,0,0,1-.068-.1.406.406,0,0,1-.026-.154v-.129a.406.406,0,0,1,.026-.154.271.271,0,0,1,.068-.1.249.249,0,0,1,.1-.054.393.393,0,0,1,.113-.016.647.647,0,0,1,.1.006.436.436,0,0,1,.057.011.053.053,0,0,1,.017.007.018.018,0,0,1,.006.016v.1c0,.014-.007.021-.019.021h0l-.069-.005q-.039,0-.083,0a.158.158,0,0,0-.05.008.093.093,0,0,0-.041.028.141.141,0,0,0-.027.053.308.308,0,0,0-.01.084v.129a.308.308,0,0,0,.01.084.14.14,0,0,0,.027.053.092.092,0,0,0,.041.028.158.158,0,0,0,.05.008c.029,0,.056,0,.083,0l.069-.005h0c.013,0,.019.007.019.021Z" transform="translate(-186.974 -318.828)" stroke="rgba(0,0,0,0)" stroke-width="1"/>
    <path id="Caminho_42880" data-name="Caminho 42880" d="M210.8,346.869a.051.051,0,0,0,0-.012s0,0-.009,0-.012.005-.014.015l-.063.283h.153Zm.192-.32a.118.118,0,0,1-.033.1.14.14,0,0,1-.092.028.139.139,0,0,1-.036-.006.123.123,0,0,1-.037-.017l-.043-.03a.084.084,0,0,0-.042-.018.025.025,0,0,0-.017.006.028.028,0,0,0-.007.022v.02c0,.012-.005.017-.015.017H210.6c-.01,0-.015-.006-.015-.017v-.02a.116.116,0,0,1,.034-.094.141.141,0,0,1,.092-.028.147.147,0,0,1,.035.005.115.115,0,0,1,.036.016l.044.029.023.013a.04.04,0,0,0,.018.005.025.025,0,0,0,.017-.006.03.03,0,0,0,.006-.022v-.019a.015.015,0,0,1,.016-.016h.072c.01,0,.015.006.015.016Zm.118.914c0,.011-.006.016-.017.016h-.144a.018.018,0,0,1-.013-.005.027.027,0,0,1-.007-.013l-.037-.168h-.21l-.037.168a.028.028,0,0,1-.007.013.018.018,0,0,1-.013.005h-.144c-.012,0-.017-.005-.017-.016v0a.008.008,0,0,0,0,0l.153-.636a.161.161,0,0,1,.027-.059.121.121,0,0,1,.041-.034.164.164,0,0,1,.05-.016.357.357,0,0,1,.053,0,.347.347,0,0,1,.053,0,.165.165,0,0,1,.049.016.121.121,0,0,1,.041.034.159.159,0,0,1,.027.059l.153.636a.007.007,0,0,0,0,0v0" transform="translate(-192.357 -316.692)" stroke="rgba(0,0,0,0)" stroke-width="1"/>
    <path id="Caminho_42881" data-name="Caminho 42881" d="M218.669,349.173a.227.227,0,0,0-.031-.135.113.113,0,0,0-.1-.041.111.111,0,0,0-.1.041.23.23,0,0,0-.031.135v.123a.229.229,0,0,0,.031.135.111.111,0,0,0,.1.041.113.113,0,0,0,.1-.041.226.226,0,0,0,.031-.135Zm.175.122a.432.432,0,0,1-.024.152.274.274,0,0,1-.064.1.247.247,0,0,1-.1.057.4.4,0,0,1-.238,0,.246.246,0,0,1-.1-.057.273.273,0,0,1-.065-.1.431.431,0,0,1-.024-.152v-.122a.43.43,0,0,1,.024-.152.272.272,0,0,1,.065-.1.246.246,0,0,1,.1-.057.4.4,0,0,1,.238,0,.247.247,0,0,1,.1.057.273.273,0,0,1,.064.1.431.431,0,0,1,.024.152Z" transform="translate(-199.46 -318.828)" stroke="rgba(0,0,0,0)" stroke-width="1"/>
    <path id="Caminho_42882" data-name="Caminho 42882" d="M229.488,349.611l-.071.009q-.044,0-.128,0a.535.535,0,0,1-.095-.008.2.2,0,0,1-.08-.032.164.164,0,0,1-.055-.067.267.267,0,0,1-.021-.113v-.34a.264.264,0,0,1,.021-.113.165.165,0,0,1,.055-.067.207.207,0,0,1,.08-.032.546.546,0,0,1,.1-.008h.072l.055,0,.041,0,.03,0c.014,0,.02.009.02.021v.1a.021.021,0,0,1-.02.021h-.208a.071.071,0,0,0-.051.015.078.078,0,0,0-.015.055v.093h.266a.021.021,0,0,1,.02.02v.1a.021.021,0,0,1-.02.021h-.266v.109a.078.078,0,0,0,.015.055.071.071,0,0,0,.051.015h.208a.021.021,0,0,1,.02.021v.1c0,.012-.007.019-.02.022" transform="translate(-209.332 -318.828)" stroke="rgba(0,0,0,0)" stroke-width="1"/>
    <path id="Caminho_42883" data-name="Caminho 42883" d="M238.69,349.09a.089.089,0,0,0-.033-.078.172.172,0,0,0-.1-.023h-.083v.209h.083a.158.158,0,0,0,.1-.026.1.1,0,0,0,.031-.078Zm.175.009a.246.246,0,0,1-.026.119.214.214,0,0,1-.069.077.283.283,0,0,1-.1.04.533.533,0,0,1-.113.012h-.041l-.042,0v.249a.02.02,0,0,1-.006.014.02.02,0,0,1-.014.006h-.132a.021.021,0,0,1-.014-.006.018.018,0,0,1-.006-.014v-.689a.045.045,0,0,1,.011-.036.077.077,0,0,1,.035-.013q.039-.006.1-.01c.038,0,.076,0,.113,0a.572.572,0,0,1,.114.011.276.276,0,0,1,.1.04.214.214,0,0,1,.069.076.246.246,0,0,1,.026.12Z" transform="translate(-217.798 -318.828)" stroke="rgba(0,0,0,0)" stroke-width="1"/>
    <path id="Caminho_42884" data-name="Caminho 42884" d="M245.939,346.562a.012.012,0,0,1,0,.008l-.125.125-.01.009a.025.025,0,0,1-.014,0h-.11c-.006,0-.009,0-.009-.007a.016.016,0,0,1,0-.01l.1-.12.012-.012a.027.027,0,0,1,.016,0h.134c.007,0,.011,0,.011.007m-.042.519a.227.227,0,0,0-.031-.135.113.113,0,0,0-.1-.041.112.112,0,0,0-.1.041.23.23,0,0,0-.031.135v.123a.23.23,0,0,0,.031.135.112.112,0,0,0,.1.041.113.113,0,0,0,.1-.041.227.227,0,0,0,.031-.135Zm.175.122a.431.431,0,0,1-.024.152.274.274,0,0,1-.064.1.246.246,0,0,1-.1.057.4.4,0,0,1-.238,0,.245.245,0,0,1-.1-.057.274.274,0,0,1-.065-.1.431.431,0,0,1-.024-.152v-.122a.43.43,0,0,1,.024-.152.274.274,0,0,1,.065-.1.246.246,0,0,1,.1-.057.4.4,0,0,1,.238,0,.247.247,0,0,1,.1.057.273.273,0,0,1,.064.1.43.43,0,0,1,.024.152Z" transform="translate(-224.345 -316.736)" stroke="rgba(0,0,0,0)" stroke-width="1"/>
    <path id="Caminho_42885" data-name="Caminho 42885" d="M253.78,349.4a.239.239,0,0,1-.014.081.185.185,0,0,1-.048.072.254.254,0,0,1-.087.052.377.377,0,0,1-.131.02.852.852,0,0,1-.108-.006.7.7,0,0,1-.086-.016.035.035,0,0,1-.014-.007.017.017,0,0,1-.006-.013v-.1a.019.019,0,0,1,.005-.015.021.021,0,0,1,.013,0h0l.043,0,.056,0,.055,0,.042,0a.109.109,0,0,0,.072-.017.07.07,0,0,0,.019-.054.056.056,0,0,0-.014-.038.233.233,0,0,0-.054-.039l-.142-.084a.315.315,0,0,1-.059-.044.207.207,0,0,1-.037-.047.179.179,0,0,1-.02-.051.253.253,0,0,1-.006-.054.234.234,0,0,1,.013-.078.151.151,0,0,1,.044-.064.217.217,0,0,1,.081-.043.432.432,0,0,1,.125-.015l.06,0,.062.005.055.007.04.008.011.006a.016.016,0,0,1,0,.012v.1a.021.021,0,0,1,0,.012.016.016,0,0,1-.014.005h0l-.036,0-.057,0-.065,0-.059,0a.108.108,0,0,0-.062.013.048.048,0,0,0-.018.041.056.056,0,0,0,0,.019.044.044,0,0,0,.011.016.137.137,0,0,0,.021.016l.034.02.131.071a.266.266,0,0,1,.109.094.225.225,0,0,1,.029.114" transform="translate(-231.472 -318.828)" stroke="rgba(0,0,0,0)" stroke-width="1"/>
    <path id="Caminho_42899" data-name="Caminho 42899" d="M0,193.453v.013a.061.061,0,0,0,.061.061H33.819a.061.061,0,0,0,.061-.061v-.013a.061.061,0,0,0-.061-.061H.061a.061.061,0,0,0-.061.061" transform="translate(0 -176.752)" stroke="rgba(0,0,0,0)" stroke-width="1"/>
    <g id="Grupo_95715" data-name="Grupo 95715" transform="translate(-9.341 0.66)">
      <g id="Grupo_95714" data-name="Grupo 95714" transform="translate(10.154)">
        <path id="Caminho_43055" data-name="Caminho 43055" d="M361.629,2.7V2.678l1.433-.534-.286-.782-1.691.614L361.7.286,360.918,0l-.534,1.433h-.021L359.829,0l-.782.286.614,1.691-1.691-.614-.286.782,1.433.534h0V2.7l-1.433.534.286.782,1.691-.614-.614,1.691.782.286.534-1.433h.021l.534,1.433.782-.286L361.085,3.4l1.691.614.286-.782L361.629,2.7Zm-1.256.44a.451.451,0,1,1,.451-.451.451.451,0,0,1-.451.451" transform="translate(-328.684)"/>
        <path id="Caminho_43056" data-name="Caminho 43056" d="M16.79,35.893h-.047L15.51,31.585l-2.348,0,2.4,6.6,2.324,0L20.3,31.592l-2.242,0Z" transform="translate(-13.162 -28.923)"/>
        <rect id="Ret창ngulo_39887" data-name="Ret창ngulo 39887" width="6.595" height="2.195" transform="translate(7.895 9.266) rotate(-89.91)"/>
        <path id="Caminho_43057" data-name="Caminho 43057" d="M147.352,19.085l0-2.029,1.723,0,0-1.805-1.723,0,0-1.522-2.112,0,0,1.522h-.92l0,1.805h.92l0,2.159a2.55,2.55,0,0,0,2.8,2.8,4.72,4.72,0,0,0,1.121-.116l0-1.829a3.7,3.7,0,0,1-.59.058c-.7,0-1.227-.3-1.225-1.04" transform="translate(-133.282 -12.57)"/>
        <path id="Caminho_43058" data-name="Caminho 43058" d="M275.552,32l-.006,3.846a.846.846,0,0,1-.934.966c-.59,0-.908-.32-.907-.969l.006-3.846-2.194,0-.006,3.87a3.123,3.123,0,0,0,6.23.01l.006-3.87Z" transform="translate(-249.764 -29.298)"/>
        <path id="Caminho_43059" data-name="Caminho 43059" d="M215.379,31.9l-1.112,0-.01,6.6,2.195,0,.008-4.745,1.8,0,0-1.85-1.8,0Z" transform="translate(-197.329 -29.215)"/>
        <path id="Caminho_43060" data-name="Caminho 43060" d="M220.276,137.1l-.137-.387h-.7l-.142.387h-.15l.571-1.517h.155l.569,1.517Zm-.418-1.146a1.891,1.891,0,0,1-.067-.218h0c-.02.072-.043.142-.07.213l-.238.647h.616Z" transform="translate(-201.809 -124.174)"/>
        <path id="Caminho_43061" data-name="Caminho 43061" d="M240.727,136.975c-.454,0-.679-.281-.679-.744s.211-.8.73-.8a1.469,1.469,0,0,1,.357.047l-.016.135a1.166,1.166,0,0,0-.373-.061c-.389,0-.544.3-.544.658,0,.407.18.643.566.643a.9.9,0,0,0,.371-.088l.016.128a1.083,1.083,0,0,1-.429.085" transform="translate(-220.95 -124.027)"/>
        <path id="Caminho_43062" data-name="Caminho 43062" d="M259.727,137.1l-.137-.387h-.7l-.142.387h-.15l.571-1.517h.155l.569,1.517Zm-.418-1.146a1.885,1.885,0,0,1-.067-.218h0c-.02.072-.043.142-.07.213l-.238.647h.616Z" transform="translate(-237.939 -124.174)"/>
        <path id="Caminho_43063" data-name="Caminho 43063" d="M281.322,137.038c-.15,0-.256-.009-.355-.007v-1.517c.117,0,.276-.007.425-.007a.685.685,0,0,1,.784.753.753.753,0,0,1-.854.778m.052-1.414c-.088,0-.2,0-.263.007V136.9a2.054,2.054,0,0,0,.231.016.6.6,0,0,0,.683-.65.575.575,0,0,0-.652-.645" transform="translate(-258.424 -124.101)"/>
        <path id="Caminho_43064" data-name="Caminho 43064" d="M303.28,137.1v-1.517h.748v.117h-.6v.56H304v.115h-.575v.607h.6v.119Z" transform="translate(-278.859 -124.174)"/>
        <path id="Caminho_43065" data-name="Caminho 43065" d="M321.492,137.1l-.142-.982c-.027-.2-.04-.306-.047-.384h0c-.014.056-.038.139-.072.238l-.382,1.128h-.173l-.362-1.058a2.714,2.714,0,0,1-.094-.308h0c-.007.117-.022.24-.04.4l-.115.969h-.151l.211-1.517h.189l.369,1.079a2.521,2.521,0,0,1,.085.29h0a2.239,2.239,0,0,1,.081-.27l.378-1.1h.2l.222,1.517Z" transform="translate(-294.087 -124.174)"/>
        <path id="Caminho_43066" data-name="Caminho 43066" d="M346.071,136.551v.553h-.144v-.553l-.474-.964h.16l.27.564c.045.092.085.184.121.274h0c.038-.1.088-.2.135-.3l.263-.542h.153Z" transform="translate(-317.482 -124.174)"/>
      </g>
    </g>
  </g>
</svg>
