<svg id="Grupo_95687" data-name="Grupo 95687" xmlns="http://www.w3.org/2000/svg" xmlns:xlink="http://www.w3.org/1999/xlink" width="176.823" height="42.093" viewBox="0 0 176.823 42.093">
  <defs>
    <clipPath id="clip-path">
      <rect id="Ret창ngulo_39870" data-name="Ret창ngulo 39870" width="176.823" height="42.093" stroke="rgba(0,0,0,0)" stroke-width="1"/>
    </clipPath>
  </defs>
  <g id="Grupo_95687-2" data-name="Grupo 95687" clip-path="url(#clip-path)">
    <path id="Caminho_42815" data-name="Caminho 42815" d="M634.045,11.1H593.631a3.656,3.656,0,0,0-3.652,3.651V47.113a3.656,3.656,0,0,0,3.652,3.652h40.414a3.656,3.656,0,0,0,3.652-3.652V14.751a3.656,3.656,0,0,0-3.652-3.651m3.214,36.013a3.218,3.218,0,0,1-3.214,3.214H593.631a3.218,3.218,0,0,1-3.214-3.214V14.751a3.218,3.218,0,0,1,3.214-3.214h40.414a3.217,3.217,0,0,1,3.214,3.214Z" transform="translate(-460.874 -8.671)" stroke="rgba(0,0,0,0)" stroke-width="1"/>
    <path id="Caminho_42816" data-name="Caminho 42816" d="M762.8,116.758h.26v1.84h-.26v1.022h1.636V118.6h-.259v-1.84h.259v-1H762.8Z" transform="translate(-595.876 -90.424)" stroke="rgba(0,0,0,0)" stroke-width="1"/>
    <path id="Caminho_42817" data-name="Caminho 42817" d="M747.245,116.758h.185l-.3.986-.3-.986H747v-1h-1.618v1h.391l.911,2.862h.928l.875-2.862h.37v-1h-1.616Z" transform="translate(-582.273 -90.424)" stroke="rgba(0,0,0,0)" stroke-width="1"/>
    <path id="Caminho_42818" data-name="Caminho 42818" d="M733.072,118.6v1.022h2.788v-1.635h-1v.613h-.409v-1.84h.3v-1h-1.673v1h.26v1.84Z" transform="translate(-572.654 -90.424)" stroke="rgba(0,0,0,0)" stroke-width="1"/>
    <path id="Caminho_42819" data-name="Caminho 42819" d="M717.7,116.758h.261v1.84H717.7v1.022h2.862v-1.283h-1v.26h-.483v-.446h.892v-.985h-.892v-.409h.483V117h1v-1.245H717.7Z" transform="translate(-560.644 -90.424)" stroke="rgba(0,0,0,0)" stroke-width="1"/>
    <path id="Caminho_42820" data-name="Caminho 42820" d="M705.816,117v-.632l-.6-.614h-1.394l-.651.65v1.116l.5.538h1.059v.539h-.446v-.335h-1.078v.707l.614.65h1.356l.67-.668v-1.32l-.484-.5H704.29v-.372h.484V117Z" transform="translate(-549.3 -90.424)" stroke="rgba(0,0,0,0)" stroke-width="1"/>
    <path id="Caminho_42821" data-name="Caminho 42821" d="M691.784,117v-.632l-.6-.614h-1.374l-.651.65v1.116l.482.538h1.078v.539h-.464v-.335h-1.078v.707l.633.65h1.338l.669-.668v-1.32l-.484-.5H690.26v-.372h.483V117Z" transform="translate(-538.354 -90.424)" stroke="rgba(0,0,0,0)" stroke-width="1"/>
    <path id="Caminho_42822" data-name="Caminho 42822" d="M673.983,119.62h1.581V118.6h-.353l-.837-2.844h-1.06l-.91,2.844h-.316v1.022h1.524v-.967h-.242l.075-.223h.724l.056.223h-.242Zm-.3-2.008.131-.408.112.408Z" transform="translate(-525.014 -90.424)" stroke="rgba(0,0,0,0)" stroke-width="1"/>
    <path id="Caminho_42823" data-name="Caminho 42823" d="M663.084,118.6v1.022H664.7V118.6h-.261v-1.84h.261v-1h-1.617v1h.242v1.84Z" transform="translate(-517.982 -90.424)" stroke="rgba(0,0,0,0)" stroke-width="1"/>
    <path id="Caminho_42824" data-name="Caminho 42824" d="M644.9,118.6v1.022h1.506v-.985h-.3v-.948l1.022,1.933h.966v-2.862h.261v-1h-1.468v.966h.279v.763l-.911-1.729H644.9v1h.261v1.84Z" transform="translate(-503.78 -90.424)" stroke="rgba(0,0,0,0)" stroke-width="1"/>
    <path id="Caminho_42825" data-name="Caminho 42825" d="M631.019,115.754h-1.542v.966h.13V118.6h-.446V116.72h.148v-.966h-1.561v1h.3v2.194l.649.668h1.375l.651-.668v-2.194h.3Z" transform="translate(-490.378 -90.424)" stroke="rgba(0,0,0,0)" stroke-width="1"/>
    <path id="Caminho_42826" data-name="Caminho 42826" d="M642.921,53.327a12.776,12.776,0,0,0-15.259-.836v2.378c4.441-4.013,12.063-3.419,15.631,1.542a12.558,12.558,0,0,1,15.576-5.78l.019-2.174a14.52,14.52,0,0,0-15.967,4.869" transform="translate(-490.311 -37.319)" stroke="rgba(0,0,0,0)" stroke-width="1"/>
    <path id="Caminho_42827" data-name="Caminho 42827" d="M643.534,71.107c-2.844-6.391-11.549-7.277-15.873-2.481v2.718a8.872,8.872,0,0,1,4.132-3.333,7.875,7.875,0,0,1,10.593,5.215h2.634a9.463,9.463,0,0,1,13.847-7.154l.019-2.007a11.292,11.292,0,0,0-15.353,7.043" transform="translate(-490.31 -49.32)" stroke="rgba(0,0,0,0)" stroke-width="1"/>
    <path id="Caminho_42828" data-name="Caminho 42828" d="M644.082,143.121q-.083-.018-.239-.043a2.417,2.417,0,0,0-.378-.025,1.284,1.284,0,0,0-.32.041.733.733,0,0,0-.289.148.762.762,0,0,0-.208.288,1.165,1.165,0,0,0-.08.465v.366a1.275,1.275,0,0,0,.039.329.865.865,0,0,0,.1.246.746.746,0,0,0,.152.174.769.769,0,0,0,.179.112.838.838,0,0,0,.189.059.99.99,0,0,0,.179.018,3.268,3.268,0,0,0,.381-.019c.106-.013.2-.027.281-.043a.064.064,0,0,0,.059-.068v-.992a.057.057,0,0,0-.018-.041.056.056,0,0,0-.041-.018h-.378a.052.052,0,0,0-.04.018.059.059,0,0,0-.016.041v.679c-.071.006-.147.009-.227.009a.341.341,0,0,1-.112-.021.254.254,0,0,1-.108-.077.434.434,0,0,1-.08-.153.841.841,0,0,1-.031-.251V144a.934.934,0,0,1,.027-.242.387.387,0,0,1,.077-.155.27.27,0,0,1,.123-.081.517.517,0,0,1,.161-.024q.189,0,.349.009l.266.015h.009a.062.062,0,0,0,.032-.007c.008,0,.012-.015.012-.031v-.313c0-.024-.017-.039-.05-.044" transform="translate(-501.954 -111.749)" stroke="rgba(0,0,0,0)" stroke-width="1"/>
    <path id="Caminho_42829" data-name="Caminho 42829" d="M652.338,144.373a.633.633,0,0,0,.273-.21.613.613,0,0,0,.11-.381v-.038a.716.716,0,0,0-.068-.328.567.567,0,0,0-.188-.214.783.783,0,0,0-.283-.115,1.712,1.712,0,0,0-.352-.034l-.164,0q-.084,0-.164.009l-.151.012c-.047,0-.088.009-.121.015a.221.221,0,0,0-.1.038.131.131,0,0,0-.032.1v1.981a.057.057,0,0,0,.018.041.057.057,0,0,0,.042.018h.386a.061.061,0,0,0,.059-.059v-.75l.1,0,.107,0,.032,0,.394.747a.385.385,0,0,0,.024.041.04.04,0,0,0,.036.018h.454c.029,0,.044-.012.044-.035a.073.073,0,0,0-.009-.032Zm-.122-.591a.357.357,0,0,1-.021.13.18.18,0,0,1-.067.086.341.341,0,0,1-.125.049.957.957,0,0,1-.193.016h-.1l-.063,0-.041,0v-.567l.044,0,.067,0,.069,0,.049,0a.534.534,0,0,1,.285.063.219.219,0,0,1,.1.2Z" transform="translate(-508.617 -111.749)" stroke="rgba(0,0,0,0)" stroke-width="1"/>
    <path id="Caminho_42830" data-name="Caminho 42830" d="M661,145.212l-.44-1.831a.463.463,0,0,0-.077-.171.35.35,0,0,0-.117-.1.482.482,0,0,0-.142-.046,1.012,1.012,0,0,0-.152-.012,1.034,1.034,0,0,0-.153.012.476.476,0,0,0-.143.046.35.35,0,0,0-.117.1.46.46,0,0,0-.077.171l-.44,1.831a.018.018,0,0,1,0,.009.012.012,0,0,0,0,.006c0,.032.017.047.05.047h.413a.052.052,0,0,0,.038-.015.079.079,0,0,0,.021-.038l.106-.484h.605l.106.484a.078.078,0,0,0,.021.038.052.052,0,0,0,.038.015h.414c.033,0,.05-.016.05-.047a.015.015,0,0,0,0-.006.022.022,0,0,1,0-.009m-1.149-.88.18-.815c.006-.03.02-.044.041-.044s.023,0,.027.01a.142.142,0,0,1,.012.034l.18.815Z" transform="translate(-514.901 -111.749)" stroke="rgba(0,0,0,0)" stroke-width="1"/>
    <path id="Caminho_42831" data-name="Caminho 42831" d="M669.82,143.285a.769.769,0,0,0-.3-.174,1.263,1.263,0,0,0-.4-.058q-.092,0-.184,0l-.177.01-.154.013q-.07.008-.114.016a.1.1,0,0,0-.063.03.105.105,0,0,0-.022.074v1.952a.106.106,0,0,0,.022.074.1.1,0,0,0,.063.03c.03.006.067.011.114.016l.154.013.177.01q.093,0,.184,0a1.263,1.263,0,0,0,.4-.058.738.738,0,0,0,.481-.467,1.176,1.176,0,0,0,.065-.409v-.381a1.177,1.177,0,0,0-.065-.409.771.771,0,0,0-.186-.292m-.254,1.082a.829.829,0,0,1-.031.248.375.375,0,0,1-.089.155.306.306,0,0,1-.137.08.67.67,0,0,1-.18.022h-.117c-.04,0-.071,0-.093,0v-1.379c.022,0,.053,0,.093,0l.117,0a.678.678,0,0,1,.18.022.305.305,0,0,1,.137.08.375.375,0,0,1,.089.155.83.83,0,0,1,.031.248Z" transform="translate(-522.145 -111.749)" stroke="rgba(0,0,0,0)" stroke-width="1"/>
    <path id="Caminho_42832" data-name="Caminho 42832" d="M678.775,143.175h-.384a.06.06,0,0,0-.041.016.053.053,0,0,0-.018.04v1.314a.916.916,0,0,1-.018.193.327.327,0,0,1-.057.133.236.236,0,0,1-.106.077.571.571,0,0,1-.334,0,.237.237,0,0,1-.106-.077.314.314,0,0,1-.056-.133,1,1,0,0,1-.016-.193v-1.314a.053.053,0,0,0-.018-.04.06.06,0,0,0-.041-.016h-.387a.06.06,0,0,0-.041.016.052.052,0,0,0-.018.04v1.314a1.125,1.125,0,0,0,.067.418.646.646,0,0,0,.182.26.666.666,0,0,0,.27.135,1.46,1.46,0,0,0,.664,0,.667.667,0,0,0,.27-.135.658.658,0,0,0,.183-.26,1.1,1.1,0,0,0,.068-.418v-1.314a.051.051,0,0,0-.019-.04.065.065,0,0,0-.043-.016" transform="translate(-528.956 -111.844)" stroke="rgba(0,0,0,0)" stroke-width="1"/>
    <path id="Caminho_42833" data-name="Caminho 42833" d="M687.227,145.212l-.44-1.831a.462.462,0,0,0-.077-.171.348.348,0,0,0-.117-.1.479.479,0,0,0-.142-.046,1.012,1.012,0,0,0-.152-.012,1.029,1.029,0,0,0-.153.012.475.475,0,0,0-.144.046.35.35,0,0,0-.117.1.463.463,0,0,0-.077.171l-.44,1.831a.018.018,0,0,1,0,.009.012.012,0,0,0,0,.006c0,.032.017.047.05.047h.413a.052.052,0,0,0,.039-.015.08.08,0,0,0,.021-.038l.106-.484h.606l.106.484a.079.079,0,0,0,.021.038.052.052,0,0,0,.039.015h.413c.033,0,.05-.016.05-.047a.014.014,0,0,0,0-.006.023.023,0,0,1,0-.009m-1.149-.88.18-.815c.006-.03.02-.044.041-.044s.023,0,.027.01a.14.14,0,0,1,.012.034l.18.815Z" transform="translate(-535.387 -111.749)" stroke="rgba(0,0,0,0)" stroke-width="1"/>
    <path id="Caminho_42834" data-name="Caminho 42834" d="M695.454,143.1a1.25,1.25,0,0,0-.165-.033,1.84,1.84,0,0,0-.275-.018,1.132,1.132,0,0,0-.326.047.718.718,0,0,0-.279.156.782.782,0,0,0-.195.289,1.171,1.171,0,0,0-.074.443v.372a1.171,1.171,0,0,0,.074.443.794.794,0,0,0,.195.291.708.708,0,0,0,.279.158,1.132,1.132,0,0,0,.326.047,1.874,1.874,0,0,0,.275-.018,1.3,1.3,0,0,0,.165-.032.14.14,0,0,0,.049-.022.057.057,0,0,0,.016-.046V144.9c0-.039-.019-.059-.056-.059h-.009l-.2.015q-.114.009-.238.009a.446.446,0,0,1-.143-.022.263.263,0,0,1-.117-.079.4.4,0,0,1-.078-.153.887.887,0,0,1-.028-.243v-.371a.883.883,0,0,1,.028-.243.4.4,0,0,1,.078-.153.266.266,0,0,1,.117-.08.452.452,0,0,1,.143-.022q.124,0,.238.009l.2.015h.009c.037,0,.056-.02.056-.06v-.288a.053.053,0,0,0-.016-.045.155.155,0,0,0-.049-.021" transform="translate(-542.241 -111.75)" stroke="rgba(0,0,0,0)" stroke-width="1"/>
    <path id="Caminho_42835" data-name="Caminho 42835" d="M696.381,153.673h-.39a.075.075,0,0,0-.046.01.269.269,0,0,0-.034.034l-.275.346a.046.046,0,0,0-.012.03c0,.014.009.021.026.021h.316a.072.072,0,0,0,.041-.009.311.311,0,0,0,.03-.026l.363-.36a.034.034,0,0,0,.012-.024c0-.014-.011-.021-.033-.021" transform="translate(-543.401 -120.045)" stroke="rgba(0,0,0,0)" stroke-width="1"/>
    <path id="Caminho_42836" data-name="Caminho 42836" d="M702.373,140.76v.056c0,.033.015.05.044.05h.21c.03,0,.044-.017.044-.05v-.056a.082.082,0,0,1,.019-.063.073.073,0,0,1,.049-.016.241.241,0,0,1,.121.053l.124.086a.353.353,0,0,0,.106.049.431.431,0,0,0,.368-.063.341.341,0,0,0,.1-.275v-.059c0-.032-.015-.047-.044-.047H703.3a.042.042,0,0,0-.048.047v.056a.088.088,0,0,1-.017.064.072.072,0,0,1-.05.016.113.113,0,0,1-.052-.015c-.019-.01-.041-.023-.066-.038l-.127-.083a.328.328,0,0,0-.1-.047.417.417,0,0,0-.1-.015.408.408,0,0,0-.266.08.334.334,0,0,0-.1.272" transform="translate(-548.673 -109.683)" stroke="rgba(0,0,0,0)" stroke-width="1"/>
    <path id="Caminho_42837" data-name="Caminho 42837" d="M702.668,145.212l-.44-1.831a.456.456,0,0,0-.077-.171.349.349,0,0,0-.117-.1.481.481,0,0,0-.142-.046,1.011,1.011,0,0,0-.152-.012,1.038,1.038,0,0,0-.154.012.478.478,0,0,0-.143.046.35.35,0,0,0-.117.1.461.461,0,0,0-.077.171l-.44,1.831a.019.019,0,0,1,0,.009.013.013,0,0,0,0,.006c0,.032.017.047.05.047h.414a.052.052,0,0,0,.038-.015.08.08,0,0,0,.021-.038l.106-.484h.605l.106.484a.078.078,0,0,0,.021.038.052.052,0,0,0,.038.015h.414c.033,0,.05-.016.05-.047a.012.012,0,0,0,0-.006.022.022,0,0,1,0-.009m-1.149-.88.18-.815c.006-.03.02-.044.042-.044s.022,0,.026.01a.14.14,0,0,1,.012.034l.18.815Z" transform="translate(-547.45 -111.749)" stroke="rgba(0,0,0,0)" stroke-width="1"/>
    <path id="Caminho_42838" data-name="Caminho 42838" d="M711.1,143.27a.71.71,0,0,0-.277-.165,1.158,1.158,0,0,0-.684,0,.712.712,0,0,0-.277.165.785.785,0,0,0-.186.294,1.245,1.245,0,0,0-.068.437v.351a1.244,1.244,0,0,0,.068.437.784.784,0,0,0,.186.294.709.709,0,0,0,.277.165,1.153,1.153,0,0,0,.684,0,.707.707,0,0,0,.277-.165.785.785,0,0,0,.186-.294,1.241,1.241,0,0,0,.068-.437V144a1.242,1.242,0,0,0-.068-.437.785.785,0,0,0-.186-.294m-.251,1.083a.65.65,0,0,1-.09.389.324.324,0,0,1-.276.119.321.321,0,0,1-.275-.119.661.661,0,0,1-.089-.389V144a.661.661,0,0,1,.089-.389.321.321,0,0,1,.275-.119.324.324,0,0,1,.276.119.651.651,0,0,1,.09.389Z" transform="translate(-554.324 -111.749)" stroke="rgba(0,0,0,0)" stroke-width="1"/>
    <path id="Caminho_42839" data-name="Caminho 42839" d="M723.13,143.092l-.087-.012-.117-.012-.158-.01c-.06,0-.13,0-.208,0a1.551,1.551,0,0,0-.274.023.592.592,0,0,0-.232.092.474.474,0,0,0-.159.192.756.756,0,0,0-.06.325v.98a.766.766,0,0,0,.06.326.472.472,0,0,0,.159.193.587.587,0,0,0,.23.091,1.527,1.527,0,0,0,.272.024c.159,0,.282,0,.368-.013s.154-.017.205-.025.059-.026.059-.062v-.275a.061.061,0,0,0-.059-.059h-.6a.2.2,0,0,1-.146-.043.224.224,0,0,1-.043-.158v-.313h.765a.061.061,0,0,0,.059-.059v-.281a.061.061,0,0,0-.059-.059h-.765v-.269a.224.224,0,0,1,.043-.158.2.2,0,0,1,.146-.043h.6a.057.057,0,0,0,.041-.018.057.057,0,0,0,.018-.041v-.275q0-.05-.059-.059" transform="translate(-563.877 -111.75)" stroke="rgba(0,0,0,0)" stroke-width="1"/>
    <path id="Caminho_42840" data-name="Caminho 42840" d="M733.669,143.2a.791.791,0,0,0-.284-.115,1.643,1.643,0,0,0-.328-.032q-.16,0-.324.01t-.277.028a.22.22,0,0,0-.1.038.13.13,0,0,0-.032.1v1.985a.052.052,0,0,0,.018.04.059.059,0,0,0,.041.016h.381a.061.061,0,0,0,.059-.059V144.5l.121.006.118,0a1.536,1.536,0,0,0,.324-.034.815.815,0,0,0,.283-.116.619.619,0,0,0,.2-.22.707.707,0,0,0,.076-.344v-.026a.709.709,0,0,0-.076-.344.616.616,0,0,0-.2-.22m-.23.591a.273.273,0,0,1-.09.225.454.454,0,0,1-.288.074h-.046l-.074,0-.074,0-.046,0v-.6l.046,0,.071,0,.072,0h.05a.5.5,0,0,1,.282.066.256.256,0,0,1,.1.226Z" transform="translate(-572.069 -111.75)" stroke="rgba(0,0,0,0)" stroke-width="1"/>
    <path id="Caminho_42841" data-name="Caminho 42841" d="M743.386,140.473a.26.26,0,0,0-.034.034l-.275.346a.047.047,0,0,0-.012.03c0,.014.009.021.027.021h.316a.072.072,0,0,0,.042-.009.278.278,0,0,0,.029-.026l.36-.36a.035.035,0,0,0,.012-.024c0-.014-.011-.021-.033-.021h-.387a.077.077,0,0,0-.046.01" transform="translate(-580.461 -109.725)" stroke="rgba(0,0,0,0)" stroke-width="1"/>
    <path id="Caminho_42842" data-name="Caminho 42842" d="M741.927,143.27a.713.713,0,0,0-.277-.165,1.158,1.158,0,0,0-.684,0,.711.711,0,0,0-.277.165.782.782,0,0,0-.186.294,1.236,1.236,0,0,0-.068.437v.351a1.235,1.235,0,0,0,.068.437.782.782,0,0,0,.186.294.708.708,0,0,0,.277.165,1.153,1.153,0,0,0,.684,0,.709.709,0,0,0,.277-.165.791.791,0,0,0,.186-.294,1.25,1.25,0,0,0,.068-.437V144a1.25,1.25,0,0,0-.068-.437.792.792,0,0,0-.186-.294m-.251,1.083a.651.651,0,0,1-.09.389.325.325,0,0,1-.276.119.321.321,0,0,1-.275-.119.661.661,0,0,1-.089-.389V144a.661.661,0,0,1,.089-.389.321.321,0,0,1,.275-.119.325.325,0,0,1,.276.119.651.651,0,0,1,.09.389Z" transform="translate(-578.405 -111.749)" stroke="rgba(0,0,0,0)" stroke-width="1"/>
    <path id="Caminho_42843" data-name="Caminho 42843" d="M750.351,144.055l-.378-.2c-.039-.022-.072-.041-.1-.058a.375.375,0,0,1-.061-.047.13.13,0,0,1-.031-.046.158.158,0,0,1-.009-.056.137.137,0,0,1,.052-.118.308.308,0,0,1,.179-.039c.049,0,.106,0,.17,0l.188.01.164.01.1.008h.006a.046.046,0,0,0,.04-.015.059.059,0,0,0,.01-.035v-.3a.045.045,0,0,0-.013-.035.089.089,0,0,0-.031-.018,1.053,1.053,0,0,0-.115-.024c-.049-.008-.1-.015-.16-.021s-.117-.011-.179-.015-.119-.006-.173-.006a1.248,1.248,0,0,0-.36.044.623.623,0,0,0-.233.123.435.435,0,0,0-.125.183.68.68,0,0,0-.037.226.727.727,0,0,0,.016.155.52.52,0,0,0,.056.146.606.606,0,0,0,.106.136.914.914,0,0,0,.17.127l.408.242a.668.668,0,0,1,.155.114.162.162,0,0,1,.04.111.2.2,0,0,1-.055.156.316.316,0,0,1-.208.05q-.044,0-.12,0l-.158-.009-.161-.01c-.052,0-.093-.008-.122-.012h-.009a.059.059,0,0,0-.038.012.054.054,0,0,0-.015.044v.289a.048.048,0,0,0,.018.038.1.1,0,0,0,.041.021,2.007,2.007,0,0,0,.247.047,2.414,2.414,0,0,0,.312.018,1.081,1.081,0,0,0,.378-.058.724.724,0,0,0,.25-.149.533.533,0,0,0,.137-.207.685.685,0,0,0,.041-.233.649.649,0,0,0-.084-.328.766.766,0,0,0-.315-.272" transform="translate(-585.3 -111.75)" stroke="rgba(0,0,0,0)" stroke-width="1"/>
    <path id="Caminho_42859" data-name="Caminho 42859" d="M528.154,16.913a.26.26,0,0,0-.26.26V54.728a.26.26,0,1,0,.519,0V17.173a.26.26,0,0,0-.26-.26" transform="translate(-412.375 -13.212)" stroke="rgba(0,0,0,0)" stroke-width="1"/>
    <g id="Grupo_95713" data-name="Grupo 95713" transform="translate(-9.199 1.606)">
      <g id="Grupo_95714" data-name="Grupo 95714" transform="translate(10.154)">
        <path id="Caminho_43055" data-name="Caminho 43055" d="M369.529,8.1V8.042l4.3-1.6-.86-2.347L367.9,5.936,369.74.859,367.393,0l-1.6,4.3h-.063l-1.6-4.3-2.347.859,1.844,5.077-5.077-1.844-.86,2.347,4.3,1.6h0V8.1l-4.3,1.6.86,2.347,5.077-1.844-1.844,5.077,2.347.86,1.6-4.3h.063l1.6,4.3,2.347-.86L367.9,10.21l5.077,1.844.86-2.347-4.3-1.6Zm-3.771,1.321a1.353,1.353,0,1,1,1.353-1.353,1.353,1.353,0,0,1-1.353,1.353" transform="translate(-270.6)"/>
        <path id="Caminho_43056" data-name="Caminho 43056" d="M24.054,44.53h-.142l-3.7-12.938-7.05-.011,7.2,19.816,6.98.011L34.6,31.615,27.866,31.6Z" transform="translate(-13.162 -23.598)"/>
        <rect id="Ret창ngulo_39887" data-name="Ret창ngulo 39887" width="19.805" height="6.59" transform="translate(23.706 27.825) rotate(-89.91)"/>
        <path id="Caminho_43057" data-name="Caminho 43057" d="M153.419,29.82l.01-6.094,5.173.008.009-5.421-5.173-.008.007-4.57-6.342-.01-.007,4.57-2.763,0-.009,5.421,2.763,0-.01,6.484c-.008,5.1,2.821,8.4,8.419,8.41a14.174,14.174,0,0,0,3.367-.349l.009-5.492a11.117,11.117,0,0,1-1.772.174c-2.09,0-3.683-.892-3.68-3.124" transform="translate(-111.17 -10.256)"/>
        <path id="Caminho_43058" data-name="Caminho 43058" d="M283.646,32.01l-.018,11.55c0,1.949-1,2.9-2.8,2.9-1.771,0-2.726-.961-2.723-2.91L278.119,32l-6.59-.01-.018,11.621c-.008,5.067,3.458,8.721,9.3,8.73s9.395-3.634,9.4-8.7l.018-11.621Z" transform="translate(-206.208 -23.905)"/>
        <path id="Caminho_43059" data-name="Caminho 43059" d="M217.627,31.906l-3.34-.005-.031,19.8,6.59.011.023-14.25,5.4.009.009-5.555-5.4-.009Z" transform="translate(-163.426 -23.837)"/>
        <path id="Caminho_43060" data-name="Caminho 43060" d="M222.535,140.142l-.411-1.161h-2.1l-.425,1.161h-.452l1.714-4.555h.466l1.707,4.555ZM221.28,136.7a5.67,5.67,0,0,1-.2-.655h-.007c-.061.216-.128.425-.209.641l-.715,1.944H222Z" transform="translate(-167.081 -101.315)"/>
        <path id="Caminho_43061" data-name="Caminho 43061" d="M242.086,140.077c-1.363,0-2.038-.844-2.038-2.234,0-1.356.634-2.416,2.193-2.416a4.415,4.415,0,0,1,1.073.142l-.047.4a3.5,3.5,0,0,0-1.12-.182c-1.168,0-1.633.911-1.633,1.977,0,1.222.54,1.93,1.7,1.93a2.706,2.706,0,0,0,1.114-.263l.047.385a3.253,3.253,0,0,1-1.289.256" transform="translate(-182.698 -101.195)"/>
        <path id="Caminho_43062" data-name="Caminho 43062" d="M261.986,140.142l-.412-1.161h-2.1l-.425,1.161H258.6l1.714-4.555h.466l1.707,4.555Zm-1.255-3.441a5.679,5.679,0,0,1-.2-.655h-.007c-.061.216-.128.425-.209.641l-.715,1.944h1.849Z" transform="translate(-196.56 -101.315)"/>
        <path id="Caminho_43063" data-name="Caminho 43063" d="M282.033,140.1c-.452,0-.769-.027-1.066-.02v-4.555c.351,0,.83-.02,1.275-.02a2.057,2.057,0,0,1,2.355,2.261,2.26,2.26,0,0,1-2.565,2.335m.155-4.245c-.263,0-.594.013-.789.02v3.82a6.16,6.16,0,0,0,.7.047,1.812,1.812,0,0,0,2.052-1.95,1.728,1.728,0,0,0-1.957-1.937" transform="translate(-213.274 -101.256)"/>
        <path id="Caminho_43064" data-name="Caminho 43064" d="M303.28,140.142v-4.555h2.247v.351h-1.815v1.68h1.727v.344h-1.727v1.822h1.815v.358Z" transform="translate(-229.947 -101.315)"/>
        <path id="Caminho_43065" data-name="Caminho 43065" d="M324.666,140.142l-.425-2.949c-.081-.587-.121-.918-.142-1.154h-.013c-.041.169-.115.418-.216.715l-1.147,3.388H322.2l-1.087-3.178a8.179,8.179,0,0,1-.283-.925h-.007c-.02.351-.067.722-.121,1.194l-.344,2.909h-.452l.635-4.555h.566l1.107,3.239a7.554,7.554,0,0,1,.257.871h.014a6.743,6.743,0,0,1,.243-.81l1.134-3.3h.594l.668,4.555Z" transform="translate(-242.372 -101.315)"/>
        <path id="Caminho_43066" data-name="Caminho 43066" d="M347.309,138.482v1.66h-.432v-1.66l-1.424-2.895h.479l.81,1.694c.135.277.257.553.365.823h.007c.115-.29.263-.594.4-.891l.79-1.627h.459Z" transform="translate(-261.46 -101.315)"/>
      </g>
    </g>
  </g>
</svg>
