<svg xmlns="http://www.w3.org/2000/svg" width="598.701" height="800" viewBox="0 0 598.701 800">
  <g id="Grupo_10127" data-name="Grupo 10127" transform="translate(-884.141)" opacity="0.3">
    <g id="Grupo_10128" data-name="Grupo 10128" transform="translate(884.141)">
      <path id="Caminho_4485" data-name="Caminho 4485" d="M884.174,66.589a33.295,33.295,0,1,0,0-66.589Z" transform="translate(-884.122)" fill="#0058a0"/>
      <path id="Caminho_4486" data-name="Caminho 4486" d="M938.575,0a33.295,33.295,0,0,0,0,66.589Z" transform="translate(-872.013)" fill="#0058a0"/>
      <path id="Caminho_4487" data-name="Caminho 4487" d="M926.4.025A33.3,33.3,0,0,0,959.689,33.32,33.293,33.293,0,0,0,992.985.025Z" transform="translate(-859.899 0.014)" fill="#0058a0"/>
      <path id="Caminho_4488" data-name="Caminho 4488" d="M992.985,54.426a33.294,33.294,0,0,0-66.588,0Z" transform="translate(-859.899 12.124)" fill="#0058a0"/>
      <path id="Caminho_4489" data-name="Caminho 4489" d="M968.727,66.589a33.295,33.295,0,0,0,0-66.589Z" transform="translate(-835.615)" fill="#0058a0"/>
      <path id="Caminho_4490" data-name="Caminho 4490" d="M1023.128,0a33.295,33.295,0,0,0,0,66.589Z" transform="translate(-823.505)" fill="#0058a0"/>
      <path id="Caminho_4491" data-name="Caminho 4491" d="M1053.119,66.589a33.295,33.295,0,0,0,0-66.589Z" transform="translate(-787.199)" fill="#0058a0"/>
      <path id="Caminho_4492" data-name="Caminho 4492" d="M1107.521,0a33.295,33.295,0,0,0,0,66.589Z" transform="translate(-775.089)" fill="#0058a0"/>
      <path id="Caminho_4493" data-name="Caminho 4493" d="M1010.982.025a33.3,33.3,0,0,0,33.295,33.295A33.3,33.3,0,0,0,1077.571.025Z" transform="translate(-811.373 0.014)" fill="#0058a0"/>
      <path id="Caminho_4494" data-name="Caminho 4494" d="M1077.571,54.426a33.294,33.294,0,0,0-66.588,0Z" transform="translate(-811.372 12.124)" fill="#0058a0"/>
      <path id="Caminho_4495" data-name="Caminho 4495" d="M1095.342.025a33.3,33.3,0,0,0,33.295,33.295A33.293,33.293,0,0,0,1161.931.025Z" transform="translate(-762.976 0.014)" fill="#0058a0"/>
      <path id="Caminho_4496" data-name="Caminho 4496" d="M1161.931,54.426a33.294,33.294,0,0,0-66.588,0Z" transform="translate(-762.976 12.124)" fill="#0058a0"/>
      <path id="Caminho_4497" data-name="Caminho 4497" d="M1149.794,108.924a33.295,33.295,0,0,1,0-66.589Z" transform="translate(-750.839 24.287)" fill="#0058a0"/>
      <path id="Caminho_4498" data-name="Caminho 4498" d="M1095.391,42.335a33.295,33.295,0,1,1,0,66.589Z" transform="translate(-762.948 24.287)" fill="#0058a0"/>
      <path id="Caminho_4499" data-name="Caminho 4499" d="M1065.4,108.924a33.295,33.295,0,0,1,0-66.589Z" transform="translate(-799.254 24.287)" fill="#0058a0"/>
      <path id="Caminho_4500" data-name="Caminho 4500" d="M1011,42.335a33.295,33.295,0,1,1,0,66.589Z" transform="translate(-811.364 24.287)" fill="#0058a0"/>
      <path id="Caminho_4501" data-name="Caminho 4501" d="M1119.675,42.36a33.294,33.294,0,1,1-66.588,0Z" transform="translate(-787.218 24.302)" fill="#0058a0"/>
      <path id="Caminho_4502" data-name="Caminho 4502" d="M1053.086,96.762a33.295,33.295,0,1,1,66.589,0Z" transform="translate(-787.218 36.411)" fill="#0058a0"/>
      <path id="Caminho_4503" data-name="Caminho 4503" d="M1035.316,42.36a33.294,33.294,0,1,1-66.588,0Z" transform="translate(-835.614 24.302)" fill="#0058a0"/>
      <path id="Caminho_4504" data-name="Caminho 4504" d="M968.727,96.762a33.295,33.295,0,0,1,66.589,0Z" transform="translate(-835.615 36.411)" fill="#0058a0"/>
      <path id="Caminho_4505" data-name="Caminho 4505" d="M980.847,108.924a33.295,33.295,0,0,1,0-66.589Z" transform="translate(-847.761 24.287)" fill="#0058a0"/>
      <path id="Caminho_4506" data-name="Caminho 4506" d="M926.445,42.335a33.295,33.295,0,1,1,0,66.589Z" transform="translate(-859.871 24.287)" fill="#0058a0"/>
      <path id="Caminho_4507" data-name="Caminho 4507" d="M950.73,42.36a33.295,33.295,0,0,1-66.589,0Z" transform="translate(-884.141 24.302)" fill="#0070bb"/>
      <path id="Caminho_4508" data-name="Caminho 4508" d="M884.141,96.762a33.295,33.295,0,0,1,66.589,0Z" transform="translate(-884.141 36.411)" fill="#0070bb"/>
      <path id="Caminho_4509" data-name="Caminho 4509" d="M884.174,151.259a33.295,33.295,0,1,0,0-66.589Z" transform="translate(-884.122 48.575)" fill="#0058a0"/>
      <path id="Caminho_4510" data-name="Caminho 4510" d="M938.575,84.669a33.295,33.295,0,0,0,0,66.589Z" transform="translate(-872.013 48.574)" fill="#0058a0"/>
      <path id="Caminho_4511" data-name="Caminho 4511" d="M926.4,84.694a33.295,33.295,0,0,0,66.589,0Z" transform="translate(-859.899 48.588)" fill="#0058a0"/>
      <path id="Caminho_4512" data-name="Caminho 4512" d="M992.985,139.1a33.294,33.294,0,1,0-66.588,0Z" transform="translate(-859.899 60.698)" fill="#0058a0"/>
      <path id="Caminho_4513" data-name="Caminho 4513" d="M968.727,151.259a33.295,33.295,0,0,0,0-66.589Z" transform="translate(-835.615 48.575)" fill="#0058a0"/>
      <path id="Caminho_4514" data-name="Caminho 4514" d="M1023.128,84.669a33.295,33.295,0,0,0,0,66.589Z" transform="translate(-823.505 48.574)" fill="#0058a0"/>
      <path id="Caminho_4515" data-name="Caminho 4515" d="M1053.119,151.259a33.295,33.295,0,0,0,0-66.589Z" transform="translate(-787.199 48.575)" fill="#0058a0"/>
      <path id="Caminho_4516" data-name="Caminho 4516" d="M1107.521,84.669a33.295,33.295,0,0,0,0,66.589Z" transform="translate(-775.089 48.574)" fill="#0058a0"/>
      <path id="Caminho_4517" data-name="Caminho 4517" d="M1010.982,84.694a33.295,33.295,0,0,0,66.589,0Z" transform="translate(-811.373 48.588)" fill="#0070bb"/>
      <path id="Caminho_4518" data-name="Caminho 4518" d="M1077.571,139.1a33.294,33.294,0,1,0-66.588,0Z" transform="translate(-811.372 60.698)" fill="#0070bb"/>
      <path id="Caminho_4519" data-name="Caminho 4519" d="M1095.342,84.694a33.295,33.295,0,1,0,66.589,0Z" transform="translate(-762.976 48.588)" fill="#0058a0"/>
      <path id="Caminho_4520" data-name="Caminho 4520" d="M1161.931,139.1a33.294,33.294,0,1,0-66.588,0Z" transform="translate(-762.976 60.698)" fill="#0058a0"/>
      <path id="Caminho_4521" data-name="Caminho 4521" d="M1149.794,193.593a33.295,33.295,0,0,1,0-66.589Z" transform="translate(-750.839 72.861)" fill="#0070bb"/>
      <path id="Caminho_4522" data-name="Caminho 4522" d="M1095.391,127a33.295,33.295,0,1,1,0,66.589Z" transform="translate(-762.948 72.861)" fill="#0058a0"/>
      <path id="Caminho_4523" data-name="Caminho 4523" d="M1065.4,193.593a33.295,33.295,0,0,1,0-66.589Z" transform="translate(-799.254 72.861)" fill="#0058a0"/>
      <path id="Caminho_4524" data-name="Caminho 4524" d="M1011,127a33.295,33.295,0,1,1,0,66.589Z" transform="translate(-811.364 72.861)" fill="#0058a0"/>
      <path id="Caminho_4525" data-name="Caminho 4525" d="M1119.675,127.028a33.294,33.294,0,1,1-66.588,0Z" transform="translate(-787.218 72.875)" fill="#0058a0"/>
      <path id="Caminho_4526" data-name="Caminho 4526" d="M1053.086,181.431a33.295,33.295,0,1,1,66.589,0Z" transform="translate(-787.218 84.985)" fill="#0058a0"/>
      <path id="Caminho_4527" data-name="Caminho 4527" d="M1035.316,127.028a33.294,33.294,0,1,1-66.588,0Z" transform="translate(-835.614 72.875)" fill="#0058a0"/>
      <path id="Caminho_4528" data-name="Caminho 4528" d="M968.727,181.431a33.295,33.295,0,0,1,66.589,0Z" transform="translate(-835.615 84.985)" fill="#0058a0"/>
      <path id="Caminho_4529" data-name="Caminho 4529" d="M980.847,193.593a33.295,33.295,0,0,1,0-66.589Z" transform="translate(-847.761 72.861)" fill="#0058a0"/>
      <path id="Caminho_4530" data-name="Caminho 4530" d="M926.445,127a33.295,33.295,0,1,1,0,66.589Z" transform="translate(-859.871 72.861)" fill="#0058a0"/>
      <path id="Caminho_4531" data-name="Caminho 4531" d="M950.73,127.028a33.295,33.295,0,0,1-66.589,0Z" transform="translate(-884.141 72.875)" fill="#0058a0"/>
      <path id="Caminho_4532" data-name="Caminho 4532" d="M884.141,181.431a33.295,33.295,0,0,1,66.589,0Z" transform="translate(-884.141 84.985)" fill="#0058a0"/>
      <path id="Caminho_4533" data-name="Caminho 4533" d="M884.174,235.927a33.295,33.295,0,1,0,0-66.589Z" transform="translate(-884.122 97.148)" fill="#0058a0"/>
      <path id="Caminho_4534" data-name="Caminho 4534" d="M938.575,169.338a33.295,33.295,0,0,0,0,66.589Z" transform="translate(-872.013 97.148)" fill="#0058a0"/>
      <path id="Caminho_4535" data-name="Caminho 4535" d="M926.4,169.363a33.295,33.295,0,0,0,66.589,0Z" transform="translate(-859.899 97.163)" fill="#0058a0"/>
      <path id="Caminho_4536" data-name="Caminho 4536" d="M992.985,223.766a33.294,33.294,0,1,0-66.588,0Z" transform="translate(-859.899 109.272)" fill="#0058a0"/>
      <path id="Caminho_4537" data-name="Caminho 4537" d="M968.727,235.927a33.295,33.295,0,0,0,0-66.589Z" transform="translate(-835.615 97.148)" fill="#0058a0"/>
      <path id="Caminho_4538" data-name="Caminho 4538" d="M1023.128,169.338a33.295,33.295,0,0,0,0,66.589Z" transform="translate(-823.505 97.148)" fill="#0058a0"/>
      <path id="Caminho_4539" data-name="Caminho 4539" d="M1053.119,235.927a33.295,33.295,0,0,0,0-66.589Z" transform="translate(-787.199 97.148)" fill="#0058a0"/>
      <path id="Caminho_4540" data-name="Caminho 4540" d="M1107.521,169.338a33.295,33.295,0,0,0,0,66.589Z" transform="translate(-775.089 97.148)" fill="#0058a0"/>
      <path id="Caminho_4541" data-name="Caminho 4541" d="M1010.982,169.363a33.295,33.295,0,0,0,66.589,0Z" transform="translate(-811.373 97.163)" fill="#0058a0"/>
      <path id="Caminho_4542" data-name="Caminho 4542" d="M1077.571,223.766a33.294,33.294,0,1,0-66.588,0Z" transform="translate(-811.372 109.272)" fill="#0058a0"/>
      <path id="Caminho_4543" data-name="Caminho 4543" d="M1095.342,169.363a33.295,33.295,0,1,0,66.589,0Z" transform="translate(-762.976 97.163)" fill="#0058a0"/>
      <path id="Caminho_4544" data-name="Caminho 4544" d="M1161.931,223.766a33.294,33.294,0,1,0-66.588,0Z" transform="translate(-762.976 109.272)" fill="#0058a0"/>
      <path id="Caminho_4545" data-name="Caminho 4545" d="M1149.794,278.262a33.295,33.295,0,0,1,0-66.589Z" transform="translate(-750.839 121.436)" fill="#0058a0"/>
      <path id="Caminho_4546" data-name="Caminho 4546" d="M1095.391,211.673a33.295,33.295,0,1,1,0,66.589Z" transform="translate(-762.948 121.436)" fill="#0058a0"/>
      <path id="Caminho_4547" data-name="Caminho 4547" d="M1065.4,278.262a33.295,33.295,0,0,1,0-66.589Z" transform="translate(-799.254 121.436)" fill="#0058a0"/>
      <path id="Caminho_4548" data-name="Caminho 4548" d="M1011,211.673a33.295,33.295,0,1,1,0,66.589Z" transform="translate(-811.364 121.436)" fill="#0058a0"/>
      <path id="Caminho_4549" data-name="Caminho 4549" d="M1119.675,211.7a33.294,33.294,0,1,1-66.588,0Z" transform="translate(-787.218 121.45)" fill="#0058a0"/>
      <path id="Caminho_4550" data-name="Caminho 4550" d="M1053.086,266.1a33.295,33.295,0,1,1,66.589,0Z" transform="translate(-787.218 133.559)" fill="#0058a0"/>
      <path id="Caminho_4551" data-name="Caminho 4551" d="M1137.654,66.829a33.295,33.295,0,1,0,0-66.589Z" transform="translate(-738.702 0.138)" fill="#0058a0"/>
      <path id="Caminho_4552" data-name="Caminho 4552" d="M1192.056.239a33.295,33.295,0,0,0,0,66.589Z" transform="translate(-726.592 0.137)" fill="#0058a0"/>
      <path id="Caminho_4553" data-name="Caminho 4553" d="M1179.877.264a33.295,33.295,0,0,0,66.589,0Z" transform="translate(-714.479 0.151)" fill="#0058a0"/>
      <path id="Caminho_4554" data-name="Caminho 4554" d="M1246.467,54.667a33.294,33.294,0,1,0-66.588,0Z" transform="translate(-714.478 12.261)" fill="#0070bb"/>
      <path id="Caminho_4555" data-name="Caminho 4555" d="M1234.33,109.163a33.295,33.295,0,0,1,0-66.589Z" transform="translate(-702.341 24.424)" fill="#0070bb"/>
      <path id="Caminho_4556" data-name="Caminho 4556" d="M1179.927,42.573a33.295,33.295,0,1,1,0,66.589Z" transform="translate(-714.45 24.424)" fill="#0058a0"/>
      <path id="Caminho_4557" data-name="Caminho 4557" d="M1204.211,42.6a33.294,33.294,0,1,1-66.588,0Z" transform="translate(-738.72 24.439)" fill="#0058a0"/>
      <path id="Caminho_4558" data-name="Caminho 4558" d="M1137.621,97a33.295,33.295,0,0,1,66.589,0Z" transform="translate(-738.721 36.548)" fill="#0058a0"/>
      <path id="Caminho_4559" data-name="Caminho 4559" d="M1137.654,151.5a33.295,33.295,0,1,0,0-66.589Z" transform="translate(-738.702 48.712)" fill="#0070bb"/>
      <path id="Caminho_4560" data-name="Caminho 4560" d="M1192.056,84.908a33.295,33.295,0,0,0,0,66.589Z" transform="translate(-726.592 48.711)" fill="#0058a0"/>
      <path id="Caminho_4561" data-name="Caminho 4561" d="M1179.877,84.933a33.295,33.295,0,0,0,66.589,0Z" transform="translate(-714.479 48.726)" fill="#0058a0"/>
      <path id="Caminho_4562" data-name="Caminho 4562" d="M1246.467,139.336a33.294,33.294,0,1,0-66.588,0Z" transform="translate(-714.478 60.835)" fill="#0058a0"/>
      <path id="Caminho_4563" data-name="Caminho 4563" d="M1234.33,193.832a33.295,33.295,0,0,1,0-66.589Z" transform="translate(-702.341 72.999)" fill="#0058a0"/>
      <path id="Caminho_4564" data-name="Caminho 4564" d="M1179.927,127.243a33.295,33.295,0,1,1,0,66.589Z" transform="translate(-714.45 72.999)" fill="#0058a0"/>
      <path id="Caminho_4565" data-name="Caminho 4565" d="M1204.211,127.268a33.294,33.294,0,0,1-66.588,0Z" transform="translate(-738.72 73.013)" fill="#0058a0"/>
      <path id="Caminho_4566" data-name="Caminho 4566" d="M1137.621,181.67a33.295,33.295,0,0,1,66.589,0Z" transform="translate(-738.721 85.122)" fill="#0058a0"/>
      <path id="Caminho_4567" data-name="Caminho 4567" d="M1137.654,236.166a33.295,33.295,0,1,0,0-66.589Z" transform="translate(-738.702 97.285)" fill="#0058a0"/>
      <path id="Caminho_4568" data-name="Caminho 4568" d="M1192.056,169.577a33.295,33.295,0,0,0,0,66.589Z" transform="translate(-726.592 97.285)" fill="#0058a0"/>
      <path id="Caminho_4569" data-name="Caminho 4569" d="M1179.877,169.6a33.295,33.295,0,0,0,66.589,0Z" transform="translate(-714.479 97.3)" fill="#0070bb"/>
      <path id="Caminho_4570" data-name="Caminho 4570" d="M1246.467,224a33.294,33.294,0,1,0-66.588,0Z" transform="translate(-714.478 109.409)" fill="#0058a0"/>
      <path id="Caminho_4571" data-name="Caminho 4571" d="M1234.33,278.5a33.294,33.294,0,1,1,0-66.588Z" transform="translate(-702.341 121.573)" fill="#0058a0"/>
      <path id="Caminho_4572" data-name="Caminho 4572" d="M1179.927,211.911a33.295,33.295,0,1,1,0,66.589Z" transform="translate(-714.45 121.572)" fill="#0058a0"/>
      <path id="Caminho_4573" data-name="Caminho 4573" d="M1204.211,211.937a33.294,33.294,0,1,1-66.588,0Z" transform="translate(-738.72 121.587)" fill="#0058a0"/>
      <path id="Caminho_4574" data-name="Caminho 4574" d="M1137.621,266.339a33.295,33.295,0,0,1,66.589,0Z" transform="translate(-738.721 133.696)" fill="#0058a0"/>
      <path id="Caminho_4575" data-name="Caminho 4575" d="M1222.3,66.829a33.295,33.295,0,1,0,0-66.589Z" transform="translate(-690.14 0.138)" fill="#0058a0"/>
      <path id="Caminho_4576" data-name="Caminho 4576" d="M1276.7.239a33.295,33.295,0,0,0,0,66.589Z" transform="translate(-678.03 0.137)" fill="#0058a0"/>
      <path id="Caminho_4577" data-name="Caminho 4577" d="M1288.859,42.6a33.294,33.294,0,1,1-66.588,0Z" transform="translate(-690.158 24.439)" fill="#0058a0"/>
      <path id="Caminho_4578" data-name="Caminho 4578" d="M1222.27,97a33.295,33.295,0,1,1,66.589,0Z" transform="translate(-690.158 36.548)" fill="#0058a0"/>
      <path id="Caminho_4579" data-name="Caminho 4579" d="M1222.3,151.5a33.295,33.295,0,1,0,0-66.589Z" transform="translate(-690.14 48.712)" fill="#0058a0"/>
      <path id="Caminho_4580" data-name="Caminho 4580" d="M1288.859,127.268a33.294,33.294,0,0,1-66.588,0Z" transform="translate(-690.158 73.013)" fill="#0058a0"/>
      <path id="Caminho_4581" data-name="Caminho 4581" d="M1222.27,181.67a33.295,33.295,0,1,1,66.589,0Z" transform="translate(-690.158 85.122)" fill="#0058a0"/>
      <path id="Caminho_4582" data-name="Caminho 4582" d="M1222.3,236.166a33.295,33.295,0,1,0,0-66.589Z" transform="translate(-690.14 97.285)" fill="#0058a0"/>
      <path id="Caminho_4583" data-name="Caminho 4583" d="M1276.7,169.577a33.295,33.295,0,0,0,0,66.589Z" transform="translate(-678.03 97.285)" fill="#0058a0"/>
      <path id="Caminho_4584" data-name="Caminho 4584" d="M1288.859,211.937a33.294,33.294,0,1,1-66.588,0Z" transform="translate(-690.158 121.587)" fill="#0058a0"/>
      <path id="Caminho_4585" data-name="Caminho 4585" d="M1222.27,266.339a33.295,33.295,0,1,1,66.589,0Z" transform="translate(-690.158 133.696)" fill="#0058a0"/>
      <path id="Caminho_4586" data-name="Caminho 4586" d="M1035.316,211.7a33.294,33.294,0,1,1-66.588,0Z" transform="translate(-835.614 121.45)" fill="#0058a0"/>
      <path id="Caminho_4587" data-name="Caminho 4587" d="M968.727,266.1a33.295,33.295,0,0,1,66.589,0Z" transform="translate(-835.615 133.559)" fill="#0058a0"/>
      <path id="Caminho_4588" data-name="Caminho 4588" d="M980.847,278.262a33.295,33.295,0,0,1,0-66.589Z" transform="translate(-847.761 121.436)" fill="#0058a0"/>
      <path id="Caminho_4589" data-name="Caminho 4589" d="M926.445,211.673a33.295,33.295,0,1,1,0,66.589Z" transform="translate(-859.871 121.436)" fill="#0058a0"/>
      <path id="Caminho_4590" data-name="Caminho 4590" d="M950.73,211.7a33.295,33.295,0,0,1-66.589,0Z" transform="translate(-884.141 121.45)" fill="#0070bb"/>
      <path id="Caminho_4591" data-name="Caminho 4591" d="M884.141,266.1a33.295,33.295,0,1,1,66.589,0Z" transform="translate(-884.141 133.559)" fill="#0058a0"/>
      <path id="Caminho_4592" data-name="Caminho 4592" d="M884.174,320.722a33.294,33.294,0,1,0,0-66.588Z" transform="translate(-884.122 145.795)" fill="#0058a0"/>
      <path id="Caminho_4593" data-name="Caminho 4593" d="M938.575,254.133a33.295,33.295,0,0,0,0,66.589Z" transform="translate(-872.013 145.795)" fill="#0058a0"/>
      <path id="Caminho_4594" data-name="Caminho 4594" d="M926.4,254.157a33.295,33.295,0,0,0,66.589,0Z" transform="translate(-859.899 145.808)" fill="#0058a0"/>
      <path id="Caminho_4595" data-name="Caminho 4595" d="M992.985,308.559a33.294,33.294,0,0,0-66.588,0Z" transform="translate(-859.899 157.918)" fill="#0058a0"/>
      <path id="Caminho_4596" data-name="Caminho 4596" d="M968.727,320.722a33.294,33.294,0,1,0,0-66.588Z" transform="translate(-835.615 145.795)" fill="#0058a0"/>
      <path id="Caminho_4597" data-name="Caminho 4597" d="M1023.128,254.133a33.295,33.295,0,0,0,0,66.589Z" transform="translate(-823.505 145.795)" fill="#0058a0"/>
      <path id="Caminho_4598" data-name="Caminho 4598" d="M1053.119,320.722a33.294,33.294,0,1,0,0-66.588Z" transform="translate(-787.199 145.795)" fill="#0058a0"/>
      <path id="Caminho_4599" data-name="Caminho 4599" d="M1107.521,254.133a33.295,33.295,0,0,0,0,66.589Z" transform="translate(-775.089 145.795)" fill="#0058a0"/>
      <path id="Caminho_4600" data-name="Caminho 4600" d="M1010.982,254.157a33.295,33.295,0,0,0,66.589,0Z" transform="translate(-811.373 145.808)" fill="#0058a0"/>
      <path id="Caminho_4601" data-name="Caminho 4601" d="M1077.571,308.559a33.294,33.294,0,0,0-66.588,0Z" transform="translate(-811.372 157.918)" fill="#0058a0"/>
      <path id="Caminho_4602" data-name="Caminho 4602" d="M1095.342,254.157a33.295,33.295,0,1,0,66.589,0Z" transform="translate(-762.976 145.808)" fill="#0058a0"/>
      <path id="Caminho_4603" data-name="Caminho 4603" d="M1161.931,308.559a33.294,33.294,0,0,0-66.588,0Z" transform="translate(-762.976 157.918)" fill="#0058a0"/>
      <path id="Caminho_4604" data-name="Caminho 4604" d="M1149.794,363.056a33.294,33.294,0,1,1,0-66.588Z" transform="translate(-750.839 170.082)" fill="#0058a0"/>
      <path id="Caminho_4605" data-name="Caminho 4605" d="M1095.391,296.467a33.295,33.295,0,1,1,0,66.589Z" transform="translate(-762.948 170.081)" fill="#0058a0"/>
      <path id="Caminho_4606" data-name="Caminho 4606" d="M1065.4,363.056a33.294,33.294,0,0,1,0-66.588Z" transform="translate(-799.254 170.082)" fill="#0058a0"/>
      <path id="Caminho_4607" data-name="Caminho 4607" d="M1011,296.467a33.295,33.295,0,1,1,0,66.589Z" transform="translate(-811.364 170.081)" fill="#0058a0"/>
      <path id="Caminho_4608" data-name="Caminho 4608" d="M1119.675,296.492a33.294,33.294,0,1,1-66.588,0Z" transform="translate(-787.218 170.096)" fill="#0058a0"/>
      <path id="Caminho_4609" data-name="Caminho 4609" d="M1053.086,350.895a33.295,33.295,0,0,1,66.589,0Z" transform="translate(-787.218 182.205)" fill="#0058a0"/>
      <path id="Caminho_4610" data-name="Caminho 4610" d="M1035.316,296.492a33.294,33.294,0,1,1-66.588,0Z" transform="translate(-835.614 170.096)" fill="#0058a0"/>
      <path id="Caminho_4611" data-name="Caminho 4611" d="M968.727,350.895a33.295,33.295,0,0,1,66.589,0Z" transform="translate(-835.615 182.205)" fill="#0058a0"/>
      <path id="Caminho_4612" data-name="Caminho 4612" d="M980.847,363.056a33.294,33.294,0,0,1,0-66.588Z" transform="translate(-847.761 170.082)" fill="#0058a0"/>
      <path id="Caminho_4613" data-name="Caminho 4613" d="M926.445,296.467a33.295,33.295,0,1,1,0,66.589Z" transform="translate(-859.871 170.081)" fill="#0058a0"/>
      <path id="Caminho_4614" data-name="Caminho 4614" d="M950.73,296.492a33.295,33.295,0,0,1-66.589,0Z" transform="translate(-884.141 170.096)" fill="#0058a0"/>
      <path id="Caminho_4615" data-name="Caminho 4615" d="M884.141,350.895a33.295,33.295,0,0,1,66.589,0Z" transform="translate(-884.141 182.205)" fill="#0058a0"/>
      <path id="Caminho_4616" data-name="Caminho 4616" d="M884.174,405.391a33.294,33.294,0,1,0,0-66.588Z" transform="translate(-884.122 194.369)" fill="#0058a0"/>
      <path id="Caminho_4617" data-name="Caminho 4617" d="M938.575,338.8a33.295,33.295,0,0,0,0,66.589Z" transform="translate(-872.013 194.369)" fill="#0058a0"/>
      <path id="Caminho_4618" data-name="Caminho 4618" d="M926.4,338.826a33.295,33.295,0,1,0,66.589,0Z" transform="translate(-859.899 194.383)" fill="#0058a0"/>
      <path id="Caminho_4619" data-name="Caminho 4619" d="M992.985,393.227a33.294,33.294,0,0,0-66.588,0Z" transform="translate(-859.899 206.493)" fill="#0058a0"/>
      <path id="Caminho_4620" data-name="Caminho 4620" d="M968.727,405.391a33.294,33.294,0,1,0,0-66.588Z" transform="translate(-835.615 194.369)" fill="#0058a0"/>
      <path id="Caminho_4621" data-name="Caminho 4621" d="M1023.128,338.8a33.295,33.295,0,0,0,0,66.589Z" transform="translate(-823.505 194.369)" fill="#0070bb"/>
      <path id="Caminho_4622" data-name="Caminho 4622" d="M1053.119,405.391a33.294,33.294,0,1,0,0-66.588Z" transform="translate(-787.199 194.369)" fill="#0058a0"/>
      <path id="Caminho_4623" data-name="Caminho 4623" d="M1107.521,338.8a33.295,33.295,0,0,0,0,66.589Z" transform="translate(-775.089 194.369)" fill="#0058a0"/>
      <path id="Caminho_4624" data-name="Caminho 4624" d="M1010.982,338.826a33.295,33.295,0,1,0,66.589,0Z" transform="translate(-811.373 194.383)" fill="#0058a0"/>
      <path id="Caminho_4625" data-name="Caminho 4625" d="M1077.571,393.227a33.294,33.294,0,0,0-66.588,0Z" transform="translate(-811.372 206.493)" fill="#0058a0"/>
      <path id="Caminho_4626" data-name="Caminho 4626" d="M1095.342,338.826a33.295,33.295,0,1,0,66.589,0Z" transform="translate(-762.976 194.383)" fill="#0070bb"/>
      <path id="Caminho_4627" data-name="Caminho 4627" d="M1161.931,393.227a33.294,33.294,0,0,0-66.588,0Z" transform="translate(-762.976 206.493)" fill="#0070bb"/>
      <path id="Caminho_4628" data-name="Caminho 4628" d="M1149.794,447.725a33.294,33.294,0,1,1,0-66.588Z" transform="translate(-750.839 218.656)" fill="#0058a0"/>
      <path id="Caminho_4629" data-name="Caminho 4629" d="M1095.391,381.136a33.295,33.295,0,0,1,0,66.589Z" transform="translate(-762.948 218.655)" fill="#0058a0"/>
      <path id="Caminho_4630" data-name="Caminho 4630" d="M1065.4,447.725a33.294,33.294,0,0,1,0-66.588Z" transform="translate(-799.254 218.656)" fill="#0058a0"/>
      <path id="Caminho_4631" data-name="Caminho 4631" d="M1011,381.136a33.295,33.295,0,1,1,0,66.589Z" transform="translate(-811.364 218.655)" fill="#0058a0"/>
      <path id="Caminho_4632" data-name="Caminho 4632" d="M1119.675,381.161a33.294,33.294,0,1,1-66.588,0Z" transform="translate(-787.218 218.67)" fill="#0058a0"/>
      <path id="Caminho_4633" data-name="Caminho 4633" d="M1053.086,435.563a33.295,33.295,0,0,1,66.589,0Z" transform="translate(-787.218 230.78)" fill="#0058a0"/>
      <path id="Caminho_4634" data-name="Caminho 4634" d="M1035.316,381.161a33.294,33.294,0,1,1-66.588,0Z" transform="translate(-835.614 218.67)" fill="#0058a0"/>
      <path id="Caminho_4635" data-name="Caminho 4635" d="M968.727,435.563a33.295,33.295,0,0,1,66.589,0Z" transform="translate(-835.615 230.78)" fill="#0058a0"/>
      <path id="Caminho_4636" data-name="Caminho 4636" d="M980.847,447.725a33.294,33.294,0,0,1,0-66.588Z" transform="translate(-847.761 218.656)" fill="#0058a0"/>
      <path id="Caminho_4637" data-name="Caminho 4637" d="M926.445,381.136a33.295,33.295,0,0,1,0,66.589Z" transform="translate(-859.871 218.655)" fill="#0058a0"/>
      <path id="Caminho_4638" data-name="Caminho 4638" d="M950.73,381.161a33.295,33.295,0,0,1-66.589,0Z" transform="translate(-884.141 218.67)" fill="#0058a0"/>
      <path id="Caminho_4639" data-name="Caminho 4639" d="M884.141,435.563a33.295,33.295,0,0,1,66.589,0Z" transform="translate(-884.141 230.78)" fill="#0058a0"/>
      <path id="Caminho_4640" data-name="Caminho 4640" d="M884.174,490.06a33.294,33.294,0,1,0,0-66.588Z" transform="translate(-884.122 242.943)" fill="#0058a0"/>
      <path id="Caminho_4641" data-name="Caminho 4641" d="M938.575,423.471a33.295,33.295,0,0,0,0,66.589Z" transform="translate(-872.013 242.943)" fill="#0058a0"/>
      <path id="Caminho_4642" data-name="Caminho 4642" d="M926.4,423.495a33.295,33.295,0,0,0,66.589,0Z" transform="translate(-859.899 242.957)" fill="#0058a0"/>
      <path id="Caminho_4643" data-name="Caminho 4643" d="M992.985,477.9a33.294,33.294,0,0,0-66.588,0Z" transform="translate(-859.899 255.067)" fill="#0058a0"/>
      <path id="Caminho_4644" data-name="Caminho 4644" d="M968.727,490.06a33.294,33.294,0,1,0,0-66.588Z" transform="translate(-835.615 242.943)" fill="#0058a0"/>
      <path id="Caminho_4645" data-name="Caminho 4645" d="M1023.128,423.471a33.295,33.295,0,0,0,0,66.589Z" transform="translate(-823.505 242.943)" fill="#0058a0"/>
      <path id="Caminho_4646" data-name="Caminho 4646" d="M1053.119,490.06a33.294,33.294,0,1,0,0-66.588Z" transform="translate(-787.199 242.943)" fill="#0058a0"/>
      <path id="Caminho_4647" data-name="Caminho 4647" d="M1107.521,423.471a33.295,33.295,0,0,0,0,66.589Z" transform="translate(-775.089 242.943)" fill="#0058a0"/>
      <path id="Caminho_4648" data-name="Caminho 4648" d="M1010.982,423.495a33.295,33.295,0,0,0,66.589,0Z" transform="translate(-811.373 242.957)" fill="#0058a0"/>
      <path id="Caminho_4649" data-name="Caminho 4649" d="M1077.571,477.9a33.294,33.294,0,0,0-66.588,0Z" transform="translate(-811.372 255.067)" fill="#0070bb"/>
      <path id="Caminho_4650" data-name="Caminho 4650" d="M1095.342,423.495a33.295,33.295,0,1,0,66.589,0Z" transform="translate(-762.976 242.957)" fill="#0058a0"/>
      <path id="Caminho_4651" data-name="Caminho 4651" d="M1161.931,477.9a33.294,33.294,0,0,0-66.588,0Z" transform="translate(-762.976 255.067)" fill="#0058a0"/>
      <path id="Caminho_4652" data-name="Caminho 4652" d="M1149.794,532.394a33.294,33.294,0,1,1,0-66.588Z" transform="translate(-750.839 267.23)" fill="#0058a0"/>
      <path id="Caminho_4653" data-name="Caminho 4653" d="M1095.391,465.8a33.295,33.295,0,1,1,0,66.589Z" transform="translate(-762.948 267.23)" fill="#0058a0"/>
      <path id="Caminho_4654" data-name="Caminho 4654" d="M1065.4,532.394a33.294,33.294,0,0,1,0-66.588Z" transform="translate(-799.254 267.23)" fill="#0058a0"/>
      <path id="Caminho_4655" data-name="Caminho 4655" d="M1011,465.8a33.295,33.295,0,1,1,0,66.589Z" transform="translate(-811.364 267.23)" fill="#0058a0"/>
      <path id="Caminho_4656" data-name="Caminho 4656" d="M1119.675,465.83a33.294,33.294,0,1,1-66.588,0Z" transform="translate(-787.218 267.244)" fill="#0058a0"/>
      <path id="Caminho_4657" data-name="Caminho 4657" d="M1137.654,320.96a33.294,33.294,0,1,0,0-66.588Z" transform="translate(-738.702 145.932)" fill="#0058a0"/>
      <path id="Caminho_4658" data-name="Caminho 4658" d="M1192.056,254.371a33.295,33.295,0,0,0,0,66.589Z" transform="translate(-726.592 145.931)" fill="#0058a0"/>
      <path id="Caminho_4659" data-name="Caminho 4659" d="M1179.877,254.4a33.295,33.295,0,0,0,66.589,0Z" transform="translate(-714.479 145.945)" fill="#0058a0"/>
      <path id="Caminho_4660" data-name="Caminho 4660" d="M1246.467,308.8a33.294,33.294,0,1,0-66.588,0Z" transform="translate(-714.478 158.055)" fill="#0058a0"/>
      <path id="Caminho_4661" data-name="Caminho 4661" d="M1234.33,363.295a33.294,33.294,0,1,1,0-66.588Z" transform="translate(-702.341 170.219)" fill="#0058a0"/>
      <path id="Caminho_4662" data-name="Caminho 4662" d="M1179.927,296.706a33.295,33.295,0,1,1,0,66.589Z" transform="translate(-714.45 170.218)" fill="#0058a0"/>
      <path id="Caminho_4663" data-name="Caminho 4663" d="M1204.211,296.731a33.294,33.294,0,1,1-66.588,0Z" transform="translate(-738.72 170.233)" fill="#0058a0"/>
      <path id="Caminho_4664" data-name="Caminho 4664" d="M1137.621,351.133a33.295,33.295,0,0,1,66.589,0Z" transform="translate(-738.721 182.343)" fill="#0058a0"/>
      <path id="Caminho_4665" data-name="Caminho 4665" d="M1137.654,405.629a33.294,33.294,0,1,0,0-66.588Z" transform="translate(-738.702 194.506)" fill="#0058a0"/>
      <path id="Caminho_4666" data-name="Caminho 4666" d="M1192.056,336.04a33.295,33.295,0,0,0,0,66.589Z" transform="translate(-726.592 192.784)" fill="#0058a0"/>
      <path id="Caminho_4667" data-name="Caminho 4667" d="M1179.877,339.065a33.295,33.295,0,0,0,66.589,0Z" transform="translate(-714.479 194.52)" fill="#0058a0"/>
      <path id="Caminho_4668" data-name="Caminho 4668" d="M1246.467,393.467a33.294,33.294,0,0,0-66.588,0Z" transform="translate(-714.478 206.63)" fill="#0058a0"/>
      <path id="Caminho_4669" data-name="Caminho 4669" d="M1234.33,447.964a33.294,33.294,0,1,1,0-66.588Z" transform="translate(-702.341 218.793)" fill="#0058a0"/>
      <path id="Caminho_4670" data-name="Caminho 4670" d="M1179.927,381.375a33.295,33.295,0,1,1,0,66.589Z" transform="translate(-714.45 218.793)" fill="#0058a0"/>
      <path id="Caminho_4671" data-name="Caminho 4671" d="M1204.211,381.4a33.294,33.294,0,1,1-66.588,0Z" transform="translate(-738.72 218.806)" fill="#0058a0"/>
      <path id="Caminho_4672" data-name="Caminho 4672" d="M1137.621,435.8a33.295,33.295,0,1,1,66.589,0Z" transform="translate(-738.721 230.917)" fill="#0058a0"/>
      <path id="Caminho_4673" data-name="Caminho 4673" d="M1137.654,490.3a33.294,33.294,0,1,0,0-66.588Z" transform="translate(-738.702 243.08)" fill="#0058a0"/>
      <path id="Caminho_4674" data-name="Caminho 4674" d="M1192.056,423.709a33.295,33.295,0,0,0,0,66.589Z" transform="translate(-726.592 243.079)" fill="#0058a0"/>
      <path id="Caminho_4675" data-name="Caminho 4675" d="M1179.877,423.734a33.295,33.295,0,0,0,66.589,0Z" transform="translate(-714.479 243.094)" fill="#0070bb"/>
      <path id="Caminho_4676" data-name="Caminho 4676" d="M1246.467,478.137a33.294,33.294,0,1,0-66.588,0Z" transform="translate(-714.478 255.203)" fill="#0058a0"/>
      <path id="Caminho_4677" data-name="Caminho 4677" d="M1234.33,532.633a33.294,33.294,0,1,1,0-66.588Z" transform="translate(-702.341 267.367)" fill="#0058a0"/>
      <path id="Caminho_4678" data-name="Caminho 4678" d="M1179.927,466.044a33.295,33.295,0,1,1,0,66.589Z" transform="translate(-714.45 267.367)" fill="#0058a0"/>
      <path id="Caminho_4679" data-name="Caminho 4679" d="M1204.211,466.068a33.294,33.294,0,1,1-66.588,0Z" transform="translate(-738.72 267.38)" fill="#0058a0"/>
      <path id="Caminho_4680" data-name="Caminho 4680" d="M1222.3,320.96a33.294,33.294,0,1,0,0-66.588Z" transform="translate(-690.14 145.932)" fill="#0058a0"/>
      <path id="Caminho_4681" data-name="Caminho 4681" d="M1276.7,254.371a33.295,33.295,0,0,0,0,66.589Z" transform="translate(-678.03 145.931)" fill="#0058a0"/>
      <path id="Caminho_4682" data-name="Caminho 4682" d="M1288.859,296.731a33.294,33.294,0,1,1-66.588,0Z" transform="translate(-690.158 170.233)" fill="#0058a0"/>
      <path id="Caminho_4683" data-name="Caminho 4683" d="M1222.27,351.133a33.295,33.295,0,0,1,66.589,0Z" transform="translate(-690.158 182.343)" fill="#0058a0"/>
      <path id="Caminho_4684" data-name="Caminho 4684" d="M1222.3,405.629a33.294,33.294,0,1,0,0-66.588Z" transform="translate(-690.14 194.506)" fill="#0058a0"/>
      <path id="Caminho_4685" data-name="Caminho 4685" d="M1276.7,339.04a33.295,33.295,0,0,0,0,66.589Z" transform="translate(-678.03 194.505)" fill="#0058a0"/>
      <path id="Caminho_4686" data-name="Caminho 4686" d="M1222.27,435.8a33.295,33.295,0,1,1,66.589,0Z" transform="translate(-690.158 230.917)" fill="#0058a0"/>
      <path id="Caminho_4687" data-name="Caminho 4687" d="M1222.3,490.3a33.294,33.294,0,1,0,0-66.588Z" transform="translate(-690.14 243.08)" fill="#0058a0"/>
      <path id="Caminho_4688" data-name="Caminho 4688" d="M1276.7,423.709a33.295,33.295,0,0,0,0,66.589Z" transform="translate(-678.03 243.079)" fill="#0058a0"/>
      <path id="Caminho_4689" data-name="Caminho 4689" d="M1035.316,465.83a33.294,33.294,0,1,1-66.588,0Z" transform="translate(-835.614 267.244)" fill="#0058a0"/>
      <path id="Caminho_4690" data-name="Caminho 4690" d="M980.847,532.394a33.294,33.294,0,0,1,0-66.588Z" transform="translate(-847.761 267.23)" fill="#0058a0"/>
      <path id="Caminho_4691" data-name="Caminho 4691" d="M926.445,465.8a33.295,33.295,0,1,1,0,66.589Z" transform="translate(-859.871 267.23)" fill="#0058a0"/>
      <path id="Caminho_4692" data-name="Caminho 4692" d="M950.73,465.83a33.295,33.295,0,1,1-66.589,0Z" transform="translate(-884.141 267.244)" fill="#0058a0"/>
    </g>
  </g>
</svg>
