<svg xmlns="http://www.w3.org/2000/svg" width="35.174" height="16.299" viewBox="0 0 35.174 16.299">
  <path id="Caminho_4347" data-name="Caminho 4347" d="M.088,9.266H1.726a1.766,1.766,0,0,0-.039.271c0,.424.285.633.838.633s.911-.209,1.006-.673a.326.326,0,0,0,.022-.153c0-.192-.134-.328-.4-.4L1.788,8.559C1.027,8.35.647,7.943.647,7.327a2.243,2.243,0,0,1,.039-.384,2.048,2.048,0,0,1,.855-1.289,3.246,3.246,0,0,1,2-.577c1.369,0,2.057.464,2.057,1.346a3.514,3.514,0,0,1-.056.537H3.884a.694.694,0,0,0,.039-.271c0-.368-.207-.537-.626-.537a.942.942,0,0,0-.587.175.673.673,0,0,0-.3.441.426.426,0,0,0-.017.136c0,.232.151.384.475.481l1.028.288a3.3,3.3,0,0,1,.95.367,1.049,1.049,0,0,1,.458.9,1.7,1.7,0,0,1-.056.424A2.153,2.153,0,0,1,4.2,10.827a3.74,3.74,0,0,1-1.94.441,2.311,2.311,0,0,1-1.979-.69,1.4,1.4,0,0,1-.229-.808,2.6,2.6,0,0,1,.056-.5M12.9,2.595h10.95l-.3,1.538H12.6L12.9,2.595ZM13.469,0H24.4l-.3,1.555H13.151Zm-3.1,14.745h10.95L21,16.3H10.065l.3-1.555Zm.553-2.572H21.87l-.324,1.555H10.619l.3-1.555ZM5.773,11.154l1.235-5.9H11.4l-.246,1.136H8.377L8.109,7.621h2.621l-.246,1.114H7.863L7.617,10h2.851l-.246,1.153Zm5.321,0L12.346,5.23h2.342a7.394,7.394,0,0,1,1.062.057,1.538,1.538,0,0,1,.855.424,1.052,1.052,0,0,1,.268.712.865.865,0,0,1-.039.311,1.768,1.768,0,0,1-1.52,1.346L15.3,8.1c.76.136,1.14.5,1.14,1.1a1.657,1.657,0,0,1-.307,1,2.02,2.02,0,0,1-.816.712,4.265,4.265,0,0,1-1.638.249H11.094ZM13.7,6.3,13.414,7.61h.76a1.337,1.337,0,0,0,.587-.079.77.77,0,0,0,.419-.577.5.5,0,0,0-.112-.52.686.686,0,0,0-.492-.136H13.7Zm-.492,2.369-.3,1.385h.911c.553,0,.878-.209.973-.673a.7.7,0,0,0,.022-.215c0-.328-.252-.5-.76-.5h-.844Zm3.778,2.482L18.22,5.23h2.7a8.716,8.716,0,0,1,.928.04,1.142,1.142,0,0,1,.783.384,1.083,1.083,0,0,1,.212.7,1.858,1.858,0,0,1-.039.464,1.564,1.564,0,0,1-.777,1.1,2.517,2.517,0,0,1-.95.305v.017a1.193,1.193,0,0,1,.855.271.866.866,0,0,1,.19.656c0,.113,0,.288-.017.537a11.233,11.233,0,0,0-.039,1.464h-1.75a12.13,12.13,0,0,1,.078-1.346,2.646,2.646,0,0,0,.039-.481A.481.481,0,0,0,20.3,8.95a.854.854,0,0,0-.514-.1H19.1l-.492,2.307H16.991Zm2.627-4.828-.285,1.442h.609a3.687,3.687,0,0,0,.665-.04.778.778,0,0,0,.57-.673,1.18,1.18,0,0,0,.039-.215.452.452,0,0,0-.324-.458,2.686,2.686,0,0,0-.665-.057Zm2.756,4.828L25.923,5.23H27.9l1.068,5.925H27.124l-.151-1.193H24.637l-.648,1.193H22.368Zm2.873-2.29h1.593l-.246-2.482h-.017Zm4.365,2.29,1.235-5.9h4.388L35,6.389H32.205l-.263,1.232h2.621L34.34,8.735H31.713L31.445,10H34.3l-.246,1.153H29.606Z" transform="translate(-0.055)" fill="#fff" fill-rule="evenodd"/>
</svg>
