<svg xmlns="http://www.w3.org/2000/svg" xmlns:xlink="http://www.w3.org/1999/xlink" width="172" height="36" viewBox="0 0 172 36">
  <defs>
    <clipPath id="clip-path">
      <rect id="Retângulo_3190" data-name="Retângulo 3190" width="172" height="36" fill="#fff"/>
    </clipPath>
  </defs>
  <g id="Modo_de_isolamento" clip-path="url(#clip-path)">
    <path id="Caminho_4343" data-name="Caminho 4343" d="M.128,20.2H3.7a3.85,3.85,0,0,0-.085.592c0,.924.621,1.38,1.828,1.38s1.986-.456,2.193-1.467a.711.711,0,0,0,.049-.333c0-.419-.292-.715-.865-.875l-2.985-.838c-1.657-.456-2.486-1.343-2.486-2.687a4.889,4.889,0,0,1,.085-.838A4.465,4.465,0,0,1,3.3,12.325a7.075,7.075,0,0,1,4.35-1.257c2.985,0,4.484,1.011,4.484,2.933a7.66,7.66,0,0,1-.122,1.171H8.4a1.514,1.514,0,0,0,.085-.592c0-.8-.451-1.171-1.365-1.171a2.053,2.053,0,0,0-1.279.382,1.467,1.467,0,0,0-.658.961.929.929,0,0,0-.037.3c0,.505.329.838,1.036,1.048l2.242.629a7.188,7.188,0,0,1,2.071.8,2.286,2.286,0,0,1,1,1.972,3.715,3.715,0,0,1-.122.924A4.693,4.693,0,0,1,9.1,23.6a8.153,8.153,0,0,1-4.228.961c-2.157,0-3.607-.505-4.313-1.5a3.058,3.058,0,0,1-.5-1.762,5.673,5.673,0,0,1,.122-1.1M28.055,5.657h23.87l-.658,3.352H27.4l.67-3.352ZM29.3,0H53.131l-.658,3.389H28.6Zm-6.75,32.142h23.87l-.707,3.389H21.878l.658-3.389Zm1.206-5.608H47.612l-.707,3.389H23.084l.658-3.389ZM12.52,24.316,15.213,11.45H24.79l-.536,2.477H18.2l-.585,2.687h5.715l-.536,2.428H17.077L16.541,21.8h6.214l-.536,2.514Zm11.6,0L26.849,11.4h5.105a16.119,16.119,0,0,1,2.315.123,3.353,3.353,0,0,1,1.864.924A2.293,2.293,0,0,1,36.719,14a1.887,1.887,0,0,1-.085.678c-.292,1.5-1.4,2.465-3.314,2.933l-.037.037c1.657.3,2.486,1.085,2.486,2.391a3.612,3.612,0,0,1-.67,2.181,4.4,4.4,0,0,1-1.779,1.553,9.3,9.3,0,0,1-3.57.542H24.12ZM29.8,13.742l-.621,2.847h1.657a2.914,2.914,0,0,0,1.279-.173,1.678,1.678,0,0,0,.914-1.257,1.089,1.089,0,0,0-.244-1.134,1.5,1.5,0,0,0-1.072-.3h-1.9Zm-1.072,5.164-.658,3.02h1.986c1.206,0,1.913-.456,2.12-1.467a1.533,1.533,0,0,0,.049-.468c0-.715-.548-1.085-1.657-1.085h-1.84Zm8.237,5.411L39.655,11.4H45.54a19,19,0,0,1,2.023.086,2.49,2.49,0,0,1,1.706.838,2.361,2.361,0,0,1,.463,1.516,4.049,4.049,0,0,1-.085,1.011,3.41,3.41,0,0,1-1.694,2.391,5.486,5.486,0,0,1-2.071.666v.037a2.6,2.6,0,0,1,1.864.592,1.888,1.888,0,0,1,.414,1.43c0,.246,0,.629-.037,1.171a24.488,24.488,0,0,0-.085,3.192H44.224A26.441,26.441,0,0,1,44.4,21.4a5.768,5.768,0,0,0,.085-1.048,1.048,1.048,0,0,0-.292-.838,1.861,1.861,0,0,0-1.121-.21h-1.5L40.5,24.329H36.974Zm5.727-10.525-.621,3.143H43.4a8.037,8.037,0,0,0,1.45-.086,1.7,1.7,0,0,0,1.243-1.467,2.572,2.572,0,0,0,.085-.468.985.985,0,0,0-.707-1,5.856,5.856,0,0,0-1.45-.123ZM48.7,24.316,56.446,11.4h4.313l2.327,12.916H59.065l-.329-2.6H53.643l-1.413,2.6H48.7Zm6.263-4.991h3.473L57.9,13.914h-.037Zm9.516,4.991L67.168,11.45h9.565l-.5,2.477H70.141l-.573,2.687h5.715L74.8,19.041H69.069L68.484,21.8H74.7l-.536,2.514H64.475Z" transform="translate(-0.006)" fill="#fff" fill-rule="evenodd"/>
    <path id="Caminho_4344" data-name="Caminho 4344" d="M96.084,4.5V32.688l-.853-.789V3.675Z" transform="translate(-10.609 -0.409)" fill="#fff" fill-rule="evenodd"/>
    <path id="Caminho_4345" data-name="Caminho 4345" d="M167.245,12.959h1.438l.037-.222a2.321,2.321,0,0,0,0-.283.545.545,0,0,0-.61-.53c-.378,0-.634.234-.78.715l-.085.333Zm-.231,1.1v.2a.623.623,0,0,0,.67.653.785.785,0,0,0,.731-.493l.109-.246h1.145l-.073.21a1.885,1.885,0,0,1-.427.665,2.01,2.01,0,0,1-1.463.53c-1.157,0-1.779-.468-1.852-1.368a3.685,3.685,0,0,1,.085-1.072,3.161,3.161,0,0,1,.39-.961,1.936,1.936,0,0,1,1.767-.912c1.1,0,1.682.431,1.779,1.282a3.589,3.589,0,0,1-.049.9l-.073.259h-2.692l-.036.357Zm-4.52.111a.9.9,0,0,0,.085.32.489.489,0,0,0,.523.345c.378,0,.695-.259.926-.789a2.5,2.5,0,0,0,.256-1.269,1.092,1.092,0,0,0-.182-.53.59.59,0,0,0-.475-.259c-.366,0-.67.3-.9.863A2.7,2.7,0,0,0,162.493,14.167Zm2.473-4.585h1.17l-1.182,5.866h-1.06l.06-.542-.109.123a1.857,1.857,0,0,1-.561.431,1.21,1.21,0,0,1-.524.111,1.373,1.373,0,0,1-1-.419,1.569,1.569,0,0,1-.414-1.023c0-.136-.012-.271,0-.419a2.407,2.407,0,0,1,.1-.616,2.948,2.948,0,0,1,.232-.678,2.15,2.15,0,0,1,.658-.813,1.757,1.757,0,0,1,1.011-.345,1.37,1.37,0,0,1,1.012.444l.146.185.463-2.292Zm-9.321,3.377h1.426l.036-.222a2.156,2.156,0,0,0,0-.283.551.551,0,0,0-.61-.53c-.353,0-.634.234-.779.715l-.085.333Zm-.219,1.1v.2a.617.617,0,0,0,.67.653.784.784,0,0,0,.73-.493l.11-.246h1.158l-.061.21a1.885,1.885,0,0,1-.427.665,1.98,1.98,0,0,1-1.45.53c-1.157,0-1.779-.468-1.864-1.368a3.326,3.326,0,0,1,.1-1.072,2.871,2.871,0,0,1,.378-.961,1.936,1.936,0,0,1,1.767-.912c1.1,0,1.682.431,1.767,1.282a3.631,3.631,0,0,1-.049.9l-.085.259h-2.693l-.036.357Zm-2.8-.629h-.366a2,2,0,0,0-.706.148l-.134.074a.675.675,0,0,0-.341.678.593.593,0,0,0,.147.357.429.429,0,0,0,.341.16c.475,0,.816-.382,1.011-1.171l.049-.234Zm.182-.912a1.47,1.47,0,0,0,0-.234c-.024-.246-.207-.37-.548-.382a.555.555,0,0,0-.572.345l-.049.185h-1.145l.049-.21a.971.971,0,0,1,.231-.444,1.265,1.265,0,0,1,.5-.345,2.724,2.724,0,0,1,1.035-.173c1.024.012,1.559.357,1.621,1.048v.32l-.036.234-.329,1.528a4.42,4.42,0,0,0-.085.7l-.025.357h-1.073v-.234l-.012-.2a3.76,3.76,0,0,1-.3.259,1.449,1.449,0,0,1-.889.283,1.274,1.274,0,0,1-.865-.3,1.18,1.18,0,0,1-.389-.826,1.424,1.424,0,0,1,.182-.875,1.306,1.306,0,0,1,.682-.567,4.573,4.573,0,0,1,1.256-.234h.719Zm-4.862-1.146H149l-.06.653.219-.32a.975.975,0,0,1,.475-.37,1.863,1.863,0,0,1,.634-.074l-.28,1.072h-.171a1.139,1.139,0,0,0-.5.111.888.888,0,0,0-.463.592c-.061.21-.123.456-.183.764l-.329,1.664h-1.194l.792-4.079Zm-3.874,2.539c.06.6.292.912.694.912.33,0,.6-.259.817-.764a2.528,2.528,0,0,0,.207-.653,2.427,2.427,0,0,0,.049-.776c-.049-.431-.243-.641-.561-.653a.972.972,0,0,0-.877.616,2.492,2.492,0,0,0-.329,1.085Zm-.256-4.326h1.157l-.487,2.194.122-.136a1.278,1.278,0,0,1,.975-.382,1.361,1.361,0,0,1,1.011.419,1.692,1.692,0,0,1,.414,1.023,3.276,3.276,0,0,1-.1,1.134c-.036.123-.074.246-.122.37a2.918,2.918,0,0,1-.341.641,1.819,1.819,0,0,1-.78.6,1.655,1.655,0,0,1-.634.123,1.261,1.261,0,0,1-1.073-.505l-.134-.2-.109.592h-1.1l1.218-5.867Zm-3.875,3.377h1.426l.036-.222v-.283a.545.545,0,0,0-.61-.53c-.365,0-.634.234-.779.715l-.085.333Zm-.219,1.1v.2c.037.431.256.653.658.653a.774.774,0,0,0,.731-.493l.109-.246h1.158l-.074.21a1.872,1.872,0,0,1-.427.665,2.008,2.008,0,0,1-1.462.53c-1.158,0-1.779-.468-1.852-1.368a3.3,3.3,0,0,1,.085-1.072,2.875,2.875,0,0,1,.39-.961,1.943,1.943,0,0,1,1.779-.912c1.1,0,1.681.431,1.767,1.282a3.631,3.631,0,0,1-.049.9l-.085.259h-2.692Zm-4.958-.481v.246a.747.747,0,0,0,.426.727,1.211,1.211,0,0,0,.622.136,1.663,1.663,0,0,0,.755-.16.606.606,0,0,0,.365-.641.824.824,0,0,0-.353-.542,3.8,3.8,0,0,0-.33-.222l-1.084-.542a1.9,1.9,0,0,1-.354-.234,1.6,1.6,0,0,1-.658-1.134v-.37a1.389,1.389,0,0,1,.695-1.035,2.5,2.5,0,0,1,1.4-.345,3.138,3.138,0,0,1,1.414.283,1.385,1.385,0,0,1,.8,1.171v.308h-1.218l-.025-.246c-.073-.419-.365-.629-.889-.629a1.3,1.3,0,0,0-.658.16.53.53,0,0,0-.292.555.7.7,0,0,0,.256.456,1.319,1.319,0,0,0,.267.185l1.183.616.267.16a2.369,2.369,0,0,1,.292.234,1.392,1.392,0,0,1,.488.937,1.511,1.511,0,0,1-.719,1.467,2.8,2.8,0,0,1-1.633.431,3.534,3.534,0,0,1-1.169-.173.969.969,0,0,1-.3-.136,1.44,1.44,0,0,1-.792-1.22v-.283l.036-.2h1.194Zm-7.531.616a.692.692,0,0,0,.207.456.652.652,0,0,0,.464.185c.414,0,.73-.283.95-.838a2.93,2.93,0,0,0,.243-1.343.619.619,0,0,0-.658-.653.9.9,0,0,0-.817.555,2.7,2.7,0,0,0-.28.739,3.125,3.125,0,0,0-.1.912m-1.169,0a3.214,3.214,0,0,1,.267-1.6,2.087,2.087,0,0,1,2.109-1.343,1.983,1.983,0,0,1,1.182.321,1.424,1.424,0,0,1,.6,1.085,3.318,3.318,0,0,1-.244,1.565A1.954,1.954,0,0,1,129,15.362a2.8,2.8,0,0,1-1.085.21,3.4,3.4,0,0,1-.792-.1,1.424,1.424,0,0,1-.512-.246,1.322,1.322,0,0,1-.536-1.011m-2.12-2.847h1.06l-.061.653.219-.32a.971.971,0,0,1,.475-.37,1.863,1.863,0,0,1,.634-.074L126,12.331h-.171a1.145,1.145,0,0,0-.5.111.925.925,0,0,0-.463.592c-.06.21-.122.456-.183.764l-.329,1.664H123.16l.78-4.079Zm-3.253,0h.719l.182-.85,1.145-.283-.243,1.134h.743l-.158.739h-.719l-.463,2.218v.3a.361.361,0,0,0,.378.209.616.616,0,0,0,.256-.037l.158-.049-.133.739-.256.049a2.721,2.721,0,0,1-.463.037c-.682-.012-1.036-.259-1.085-.752v-.1a4.216,4.216,0,0,1,.11-.727l.4-1.886h-.743l.158-.739Zm-4.119,0h1.1l-.061.567.317-.283a1.75,1.75,0,0,1,1.1-.407,1.187,1.187,0,0,1,.78.246,1,1,0,0,1,.378.727,2.53,2.53,0,0,1-.036.592l-.537,2.637h-1.182l.512-2.5c.012-.086.024-.185.036-.3v-.136a.425.425,0,0,0-.487-.444.747.747,0,0,0-.378.1,1.181,1.181,0,0,0-.244.185,1.576,1.576,0,0,0-.219.283l-.11.222a3.164,3.164,0,0,0-.195.653l-.378,1.923h-1.194l.792-4.079Zm-3.473,1.59h1.425l.036-.222v-.283a.551.551,0,0,0-.609-.53c-.354,0-.634.234-.78.715l-.085.333Zm-.219,1.1v.2c.036.431.256.653.658.653a.773.773,0,0,0,.731-.493l.11-.246h1.145l-.061.21a1.885,1.885,0,0,1-.427.665,2.009,2.009,0,0,1-1.462.53c-1.158,0-1.779-.468-1.864-1.368a3.324,3.324,0,0,1,.1-1.072,2.875,2.875,0,0,1,.39-.961,1.936,1.936,0,0,1,1.767-.912c1.1,0,1.682.431,1.767,1.282a3.631,3.631,0,0,1-.049.9l-.073.259h-2.693Zm-2.474-2.674-.024-.308a.768.768,0,0,0-.817-.727,1.166,1.166,0,0,0-.743.234,2.022,2.022,0,0,0-.536.579,4.512,4.512,0,0,0-.464,1.109,6.829,6.829,0,0,0-.146.678,2.382,2.382,0,0,0-.012.653,1.329,1.329,0,0,0,.292.752.869.869,0,0,0,.707.333,1.1,1.1,0,0,0,.962-.493,1.578,1.578,0,0,0,.231-.481l.061-.2h1.365l-.049.271a2.159,2.159,0,0,1-1.316,1.553,2.815,2.815,0,0,1-1.182.234,2.369,2.369,0,0,1-1.559-.493,2.045,2.045,0,0,1-.768-1.467,4.705,4.705,0,0,1,.365-2.206,2.973,2.973,0,0,1,1.4-1.627,3.016,3.016,0,0,1,1.34-.3,2.545,2.545,0,0,1,1.414.37,1.62,1.62,0,0,1,.695,1.269v.283h-1.219Z" transform="translate(-11.853 -1.054)" fill="#fff"/>
    <path id="Caminho_4346" data-name="Caminho 4346" d="M179.606,22.953h1.876l.049-.3a1.961,1.961,0,0,0,0-.382.723.723,0,0,0-.8-.69c-.475,0-.828.308-1.024.937l-.109.431Zm-.292,1.442v.259a.8.8,0,0,0,.865.85,1.016,1.016,0,0,0,.962-.653l.147-.32h1.5l-.1.283a2.2,2.2,0,0,1-.561.863,2.594,2.594,0,0,1-1.9.69c-1.511,0-2.327-.6-2.425-1.8a4.3,4.3,0,0,1,.122-1.393,4.232,4.232,0,0,1,.5-1.257,2.553,2.553,0,0,1,2.315-1.2c1.425,0,2.206.567,2.315,1.676a4.233,4.233,0,0,1-.06,1.183l-.1.345h-3.522l-.049.468Zm-6.019.136a1.555,1.555,0,0,0,.109.419.662.662,0,0,0,.695.456c.487,0,.9-.345,1.206-1.023a3.43,3.43,0,0,0,.341-1.664,1.4,1.4,0,0,0-.243-.69.767.767,0,0,0-.634-.333c-.475,0-.865.382-1.182,1.122A3.337,3.337,0,0,0,173.294,24.53Zm3.229-6h1.523l-1.536,7.678h-1.389l.073-.715-.134.16a2.22,2.22,0,0,1-.731.555,1.592,1.592,0,0,1-.694.148,1.738,1.738,0,0,1-1.3-.555,2.076,2.076,0,0,1-.549-1.331,2.762,2.762,0,0,1,0-.542,4.387,4.387,0,0,1,.134-.813,5.505,5.505,0,0,1,.3-.887,2.847,2.847,0,0,1,.866-1.072,2.12,2.12,0,0,1,1.316-.444,1.8,1.8,0,0,1,.816.185,1.933,1.933,0,0,1,.5.382l.195.246.61-3.007Zm-7.043,5.028h-.475a3.247,3.247,0,0,0-.926.185l-.171.086a.891.891,0,0,0-.451.887.652.652,0,0,0,.195.456.62.62,0,0,0,.451.21c.622,0,1.06-.505,1.316-1.528l.074-.308Zm.256-1.171a1.353,1.353,0,0,0,.012-.308c-.037-.32-.268-.481-.72-.493a.722.722,0,0,0-.743.456l-.06.234h-1.5l.06-.283a1.4,1.4,0,0,1,.3-.579,1.684,1.684,0,0,1,.646-.456,3.629,3.629,0,0,1,1.352-.234c1.328.025,2.035.481,2.12,1.38v.431l-.049.308-.414,2a7.311,7.311,0,0,0-.109.924l-.025.468h-1.4l-.024-.308v-.259c-.158.148-.292.259-.4.345a1.845,1.845,0,0,1-1.169.37A1.643,1.643,0,0,1,166.483,26a1.5,1.5,0,0,1-.5-1.085,1.853,1.853,0,0,1,.244-1.146,1.664,1.664,0,0,1,.889-.739,5.593,5.593,0,0,1,1.632-.308h.938l.061-.32ZM161.6,24.53a1.2,1.2,0,0,0,.109.419.662.662,0,0,0,.695.456c.488,0,.9-.345,1.207-1.023a3.284,3.284,0,0,0,.329-1.664,1.3,1.3,0,0,0-.243-.69.768.768,0,0,0-.634-.333c-.475,0-.865.382-1.182,1.122a3.347,3.347,0,0,0-.292,1.713m3.229-6h1.523L164.8,26.206h-1.389l.073-.715-.146.16a2.221,2.221,0,0,1-.731.555,1.557,1.557,0,0,1-.694.148,1.741,1.741,0,0,1-1.3-.555,2.08,2.08,0,0,1-.548-1.331,4.251,4.251,0,0,1,0-.542,4.387,4.387,0,0,1,.134-.813,4.459,4.459,0,0,1,.3-.887,2.731,2.731,0,0,1,.865-1.072,2.124,2.124,0,0,1,1.316-.444,1.805,1.805,0,0,1,.817.185,1.913,1.913,0,0,1,.5.382l.2.246.609-3.007Zm-4.411,0-.292,1.38h-1.632l.28-1.38H160.4Zm-2.046,2.342h1.523l-1.085,5.336h-1.535l1.085-5.336Zm-1.864-2.342h1.523l-1.584,7.678h-1.523l1.6-7.678Zm-.853,0-.281,1.38h-1.632l.28-1.38Zm-2.047,2.342h1.523l-1.084,5.336H152.5l1.084-5.336ZM148.487,24.2c.073.789.378,1.2.913,1.2.427,0,.78-.333,1.073-1a4.062,4.062,0,0,0,.28-.85,3.235,3.235,0,0,0,.073-1.023c-.073-.567-.316-.85-.743-.85a1.281,1.281,0,0,0-1.145.8,3.423,3.423,0,0,0-.427,1.405v.308Zm-.33-5.669h1.512l-.646,2.872.158-.185a1.736,1.736,0,0,1,1.28-.505,1.711,1.711,0,0,1,1.316.555,2.286,2.286,0,0,1,.548,1.343,4.067,4.067,0,0,1-.134,1.479c-.049.16-.1.32-.158.481a3.606,3.606,0,0,1-.451.838,2.269,2.269,0,0,1-1.024.789,2.173,2.173,0,0,1-.841.16,1.657,1.657,0,0,1-1.4-.653l-.171-.259-.147.764h-1.425Zm-3.594,5.028h-.475a3.253,3.253,0,0,0-.927.185l-.171.086a.893.893,0,0,0-.451.887.714.714,0,0,0,.195.456.6.6,0,0,0,.451.21c.621,0,1.06-.505,1.316-1.528l.073-.308Zm.256-1.171a1.305,1.305,0,0,0,.012-.308c-.036-.32-.28-.481-.719-.493a.724.724,0,0,0-.744.456l-.06.234H141.8l.06-.283a1.261,1.261,0,0,1,.3-.579,1.677,1.677,0,0,1,.646-.456,3.626,3.626,0,0,1,1.352-.234c1.328.025,2.035.481,2.12,1.38v.431l-.049.308-.414,2a5.647,5.647,0,0,0-.11.924l-.024.468h-1.4l-.025-.308v-.259c-.158.148-.292.259-.4.345a1.847,1.847,0,0,1-1.169.37A1.645,1.645,0,0,1,141.553,26a1.5,1.5,0,0,1-.5-1.085,1.852,1.852,0,0,1,.243-1.146,1.7,1.7,0,0,1,.9-.739,5.594,5.594,0,0,1,1.633-.308h.937l.061-.32Zm-7.225-1.516h.95l.244-1.109,1.5-.37-.316,1.479h.975l-.207.961h-.951l-.6,2.909-.024.185.036.2a.455.455,0,0,0,.487.283,1.02,1.02,0,0,0,.33-.049l.207-.062-.183.961-.341.062a3.136,3.136,0,0,1-.61.049c-.889-.012-1.352-.345-1.413-.986v-.123a5.991,5.991,0,0,1,.146-.949l.524-2.465h-.962l.207-.961Zm-5.484,0h1.438l-.073.739.414-.37a2.356,2.356,0,0,1,1.438-.53,1.542,1.542,0,0,1,1.012.333,1.289,1.289,0,0,1,.5.949,2.9,2.9,0,0,1-.049.776l-.706,3.439h-1.536l.67-3.278a3.053,3.053,0,0,0,.049-.382v-.173a.562.562,0,0,0-.634-.579.968.968,0,0,0-.5.123,1.467,1.467,0,0,0-.317.246,2.593,2.593,0,0,0-.292.37l-.147.283a4.256,4.256,0,0,0-.256.863l-.5,2.514h-1.56l1.024-5.337Zm-4.654,2.083h1.877l.049-.3a2.033,2.033,0,0,0,0-.382.723.723,0,0,0-.8-.69c-.475,0-.829.308-1.024.937l-.109.431Zm-.292,1.442v.259a.8.8,0,0,0,.865.85.99.99,0,0,0,.95-.653l.147-.32h1.5l-.1.283a2.2,2.2,0,0,1-.561.863,2.594,2.594,0,0,1-1.9.69c-1.511,0-2.327-.6-2.437-1.8a4.279,4.279,0,0,1,.123-1.393,3.9,3.9,0,0,1,.5-1.257,2.554,2.554,0,0,1,2.315-1.2c1.425,0,2.206.567,2.315,1.676a4.2,4.2,0,0,1-.06,1.183l-.1.345H127.2l-.049.468Zm-5.093-3.525h.951l.243-1.109,1.5-.37-.317,1.479h.975l-.195.961h-.951l-.6,2.909-.024.185.024.2c.061.185.232.283.5.283a1.015,1.015,0,0,0,.329-.049l.207-.062-.183.961-.341.062a3.121,3.121,0,0,1-.609.049c-.889-.012-1.352-.345-1.414-.986v-.123c.025-.283.073-.6.134-.949l.536-2.465h-.975l.207-.961ZM117.9,24.518l.049.32a.7.7,0,0,0,.792.653,1.1,1.1,0,0,0,.585-.16.534.534,0,0,0,.268-.53.654.654,0,0,0-.281-.481l-.267-.148-.865-.456a4.018,4.018,0,0,1-.451-.271,1.331,1.331,0,0,1-.634-1.023,1.3,1.3,0,0,1,.694-1.356,3.165,3.165,0,0,1,1.572-.357,2.871,2.871,0,0,1,1.267.259,1.206,1.206,0,0,1,.78,1.011,3.43,3.43,0,0,1-.012.357l-.024.16h-1.414v-.148c-.049-.505-.28-.764-.706-.789a.689.689,0,0,0-.488.16.528.528,0,0,0-.182.468.644.644,0,0,0,.292.493l.207.123.877.419c.134.074.268.148.4.234a1.478,1.478,0,0,1,.706,1.122,1.381,1.381,0,0,1-.743,1.393,3.465,3.465,0,0,1-1.791.382,4.859,4.859,0,0,1-.768-.062,1.651,1.651,0,0,1-.828-.382,1.354,1.354,0,0,1-.475-.8l-.036-.345v-.259h1.462Zm-6.568-3.648h1.523l-.695,3.352a1.652,1.652,0,0,0-.024.419.614.614,0,0,0,.646.641,1.154,1.154,0,0,0,.913-.493,1.581,1.581,0,0,0,.219-.333,4.254,4.254,0,0,0,.28-.789l.171-.678.451-2.12h1.511l-1.036,5.336h-1.438l.1-.764-.158.148a2.583,2.583,0,0,1-1.706.764,1.676,1.676,0,0,1-1.011-.308,1.235,1.235,0,0,1-.512-.924,3.941,3.941,0,0,1,0-.542l.061-.382.694-3.34Zm-5.873,2.884v.32a1,1,0,0,0,.548.949,1.829,1.829,0,0,0,.8.185A2.239,2.239,0,0,0,107.8,25a.8.8,0,0,0,.475-.838,1.036,1.036,0,0,0-.463-.7,4.029,4.029,0,0,0-.427-.283l-1.413-.715a1.966,1.966,0,0,1-.463-.308,1.994,1.994,0,0,1-.853-1.479,1.965,1.965,0,0,1,0-.468,1.843,1.843,0,0,1,.9-1.343,3.389,3.389,0,0,1,1.828-.456,4.1,4.1,0,0,1,1.852.37,1.831,1.831,0,0,1,1.049,1.528v.407h-1.6l-.024-.32c-.085-.555-.475-.826-1.169-.826a1.784,1.784,0,0,0-.853.21.681.681,0,0,0-.378.727.94.94,0,0,0,.329.6,1.1,1.1,0,0,0,.354.234l1.547.813.354.2c.122.086.256.185.389.3a1.942,1.942,0,0,1,.646,1.232,2.014,2.014,0,0,1-.938,1.923,3.666,3.666,0,0,1-2.144.567,5,5,0,0,1-1.523-.222,1.887,1.887,0,0,1-.4-.173,1.96,1.96,0,0,1-1.048-1.59v-.37l.049-.246h1.572Z" transform="translate(-11.566 -2.05)" fill="#fff"/>
  </g>
</svg>
