<svg xmlns="http://www.w3.org/2000/svg" xmlns:xlink="http://www.w3.org/1999/xlink" width="466" height="98" viewBox="0 0 466 98">
  <defs>
    <clipPath id="clip-path">
      <rect id="Retângulo_3193" data-name="Retângulo 3193" width="466" height="98" fill="#fff"/>
    </clipPath>
  </defs>
  <g id="Modo_de_isolamento" clip-path="url(#clip-path)">
    <path id="Caminho_4353" data-name="Caminho 4353" d="M.253,54.682H9.917a10.421,10.421,0,0,0-.231,1.6c0,2.5,1.682,3.737,4.948,3.737s5.376-1.234,5.937-3.97a1.924,1.924,0,0,0,.132-.9c0-1.134-.792-1.935-2.342-2.369L10.28,50.511c-4.486-1.234-6.729-3.637-6.729-7.273a13.234,13.234,0,0,1,.231-2.269,12.086,12.086,0,0,1,5.047-7.607q4.552-3.4,11.775-3.4c8.081,0,12.138,2.736,12.138,7.94a20.736,20.736,0,0,1-.33,3.169H22.649a4.1,4.1,0,0,0,.231-1.6c0-2.169-1.22-3.169-3.694-3.169a5.557,5.557,0,0,0-3.463,1.034,3.971,3.971,0,0,0-1.781,2.6,2.515,2.515,0,0,0-.1.8c0,1.368.891,2.269,2.8,2.836l6.069,1.7a19.458,19.458,0,0,1,5.607,2.169,6.189,6.189,0,0,1,2.7,5.338,10.057,10.057,0,0,1-.33,2.5,12.7,12.7,0,0,1-6.168,8.607c-3.035,1.8-6.828,2.6-11.446,2.6-5.838,0-9.763-1.368-11.676-4.07A8.277,8.277,0,0,1,.055,57.651a15.357,15.357,0,0,1,.33-2.969M75.853,15.314h64.616l-1.781,9.075H74.072l1.814-9.075ZM79.217,0h64.517l-1.781,9.175H77.337ZM60.944,87.01H125.56l-1.913,9.175H59.13l1.781-9.175Zm3.265-15.18h64.583L126.879,81H62.4l1.781-9.175ZM33.8,65.825l7.29-34.831H67.013L65.561,37.7H49.169l-1.583,7.273h15.47L61.6,51.546H46.134l-1.451,7.473H61.5l-1.451,6.806Zm31.4,0,7.389-34.964h13.82a43.635,43.635,0,0,1,6.267.334,9.076,9.076,0,0,1,5.047,2.5A6.207,6.207,0,0,1,99.3,37.9a5.107,5.107,0,0,1-.231,1.835c-.792,4.07-3.793,6.673-8.972,7.94l-.1.1c4.486.8,6.729,2.936,6.729,6.472a9.777,9.777,0,0,1-1.814,5.905,11.919,11.919,0,0,1-4.816,4.2c-2.045.9-5.278,1.468-9.664,1.468H65.2ZM80.569,37.2l-1.682,7.707h4.486a7.889,7.889,0,0,0,3.463-.467,4.541,4.541,0,0,0,2.474-3.4,2.948,2.948,0,0,0-.66-3.069,4.047,4.047,0,0,0-2.9-.8H80.6Zm-2.9,13.979-1.781,8.174h5.376c3.265,0,5.178-1.234,5.739-3.97a4.148,4.148,0,0,0,.132-1.268c0-1.935-1.484-2.936-4.486-2.936H77.667Zm22.3,14.646,7.29-34.964h15.932a51.437,51.437,0,0,1,5.475.234c2.144.334,3.694,1.034,4.618,2.269a6.39,6.39,0,0,1,1.253,4.1A10.962,10.962,0,0,1,134.3,40.2a9.23,9.23,0,0,1-4.585,6.472,14.852,14.852,0,0,1-5.607,1.8v.1c2.474.134,4.156.567,5.047,1.6.792.7,1.121,2.035,1.121,3.87,0,.667,0,1.7-.1,3.169a66.285,66.285,0,0,0-.231,8.641H119.623a71.578,71.578,0,0,1,.462-7.94,15.615,15.615,0,0,0,.231-2.836,2.837,2.837,0,0,0-.792-2.269c-.561-.467-1.583-.567-3.035-.567h-4.057l-2.9,13.612H100Zm15.5-28.492-1.682,8.508h3.6a21.756,21.756,0,0,0,3.925-.234,4.589,4.589,0,0,0,3.364-3.97,6.961,6.961,0,0,0,.231-1.268,2.667,2.667,0,0,0-1.913-2.7,15.852,15.852,0,0,0-3.925-.334Zm16.261,28.492,20.978-34.964h11.677l6.3,34.964H159.8l-.891-7.04H145.12l-3.826,7.04h-9.566Zm16.954-13.512h9.4l-1.451-14.646h-.1Zm25.761,13.512,7.29-34.831h25.893L206.272,37.7H189.78l-1.55,7.273H203.7l-1.319,6.572h-15.5l-1.583,7.473h16.822l-1.451,6.806H174.443Z" transform="translate(0.077)" fill="#fff" fill-rule="evenodd"/>
    <path id="Caminho_4354" data-name="Caminho 4354" d="M97.54,5.911v76.3l-2.309-2.135V3.675Z" transform="translate(133.844 5.166)" fill="#fff" fill-rule="evenodd"/>
    <path id="Caminho_4355" data-name="Caminho 4355" d="M271.1,18.936h3.892l.1-.6a6.287,6.287,0,0,0,0-.767,1.476,1.476,0,0,0-1.65-1.435c-1.022,0-1.715.634-2.112,1.935l-.231.9Zm-.625,2.969v.534a1.687,1.687,0,0,0,1.814,1.768,2.126,2.126,0,0,0,1.98-1.335l.3-.667h3.1l-.2.567a5.1,5.1,0,0,1-1.155,1.8,5.441,5.441,0,0,1-3.959,1.435c-3.132,0-4.816-1.268-5.013-3.7a9.978,9.978,0,0,1,.231-2.9,8.557,8.557,0,0,1,1.056-2.6,5.242,5.242,0,0,1,4.782-2.469c2.968,0,4.554,1.168,4.816,3.47a9.717,9.717,0,0,1-.132,2.436l-.2.7h-7.289l-.1.967Zm-12.237.3a2.432,2.432,0,0,0,.231.867,1.324,1.324,0,0,0,1.417.934c1.022,0,1.881-.7,2.507-2.135a6.771,6.771,0,0,0,.693-3.436A2.956,2.956,0,0,0,262.593,17a1.6,1.6,0,0,0-1.287-.7c-.991,0-1.814.8-2.442,2.335A7.32,7.32,0,0,0,258.24,22.205Zm6.694-12.411H268.1l-3.2,15.881h-2.87l.164-1.468-.3.333a5.028,5.028,0,0,1-1.518,1.168,3.275,3.275,0,0,1-1.419.3,3.717,3.717,0,0,1-2.7-1.134,4.247,4.247,0,0,1-1.121-2.769c0-.367-.034-.734,0-1.134A6.516,6.516,0,0,1,255.4,19.3a7.979,7.979,0,0,1,.628-1.835,5.821,5.821,0,0,1,1.78-2.2,4.757,4.757,0,0,1,2.737-.934,3.708,3.708,0,0,1,2.74,1.2l.395.5,1.253-6.206ZM239.7,18.936h3.861l.1-.6a5.837,5.837,0,0,0,0-.767,1.492,1.492,0,0,0-1.65-1.435c-.955,0-1.715.634-2.11,1.935l-.231.9Zm-.592,2.969v.534a1.669,1.669,0,0,0,1.814,1.768,2.122,2.122,0,0,0,1.977-1.335l.3-.667h3.134l-.166.567a5.1,5.1,0,0,1-1.155,1.8,5.359,5.359,0,0,1-3.926,1.435c-3.132,0-4.816-1.268-5.047-3.7a9,9,0,0,1,.265-2.9,7.772,7.772,0,0,1,1.022-2.6,5.242,5.242,0,0,1,4.782-2.469c2.968,0,4.554,1.168,4.784,3.47a9.831,9.831,0,0,1-.132,2.436l-.231.7h-7.291l-.1.967Zm-7.587-1.7h-.991a5.411,5.411,0,0,0-1.912.4l-.363.2a1.827,1.827,0,0,0-.924,1.835,1.606,1.606,0,0,0,.4.967,1.161,1.161,0,0,0,.924.434c1.287,0,2.208-1.034,2.737-3.169l.132-.634Zm.493-2.469a3.977,3.977,0,0,0,0-.634c-.065-.667-.56-1-1.484-1.034a1.5,1.5,0,0,0-1.549.934l-.132.5h-3.1l.132-.567a2.628,2.628,0,0,1,.625-1.2,3.424,3.424,0,0,1,1.354-.934,7.375,7.375,0,0,1,2.8-.467c2.771.033,4.222.968,4.388,2.836v.867l-.1.634-.89,4.137a11.964,11.964,0,0,0-.231,1.9l-.067.967h-2.9v-.634l-.031-.534a10.186,10.186,0,0,1-.825.7,3.922,3.922,0,0,1-2.408.767,3.45,3.45,0,0,1-2.343-.8,3.194,3.194,0,0,1-1.054-2.235,3.855,3.855,0,0,1,.493-2.369,3.537,3.537,0,0,1,1.847-1.535,12.38,12.38,0,0,1,3.4-.634h1.946Zm-13.16-3.1h2.87l-.164,1.768.592-.867a2.64,2.64,0,0,1,1.287-1,5.043,5.043,0,0,1,1.715-.2l-.758,2.9h-.462a3.083,3.083,0,0,0-1.352.3,2.4,2.4,0,0,0-1.253,1.6c-.166.567-.332,1.234-.5,2.068l-.89,4.5h-3.233l2.143-11.043ZM208.367,21.5c.164,1.635.791,2.469,1.879,2.469.892,0,1.616-.7,2.211-2.069a6.844,6.844,0,0,0,.561-1.768,6.572,6.572,0,0,0,.132-2.1c-.132-1.168-.659-1.735-1.518-1.768a2.632,2.632,0,0,0-2.374,1.668,6.746,6.746,0,0,0-.89,2.936Zm-.693-11.71h3.132l-1.318,5.939.33-.367a3.459,3.459,0,0,1,2.639-1.034,3.684,3.684,0,0,1,2.737,1.134,4.579,4.579,0,0,1,1.121,2.769,8.867,8.867,0,0,1-.262,3.069c-.1.334-.2.667-.33,1a7.9,7.9,0,0,1-.924,1.735,4.924,4.924,0,0,1-2.112,1.635,4.48,4.48,0,0,1-1.715.334,3.415,3.415,0,0,1-2.9-1.368l-.363-.534-.3,1.6h-2.968l3.3-15.881Zm-10.49,9.142h3.861l.1-.6v-.767a1.476,1.476,0,0,0-1.65-1.435c-.989,0-1.715.634-2.11,1.935l-.231.9ZM196.59,21.9v.534c.1,1.168.693,1.768,1.782,1.768a2.1,2.1,0,0,0,1.98-1.335l.3-.667h3.134l-.2.567a5.068,5.068,0,0,1-1.155,1.8,5.435,5.435,0,0,1-3.957,1.435c-3.134,0-4.816-1.268-5.013-3.7a8.934,8.934,0,0,1,.231-2.9,7.784,7.784,0,0,1,1.056-2.6,5.258,5.258,0,0,1,4.816-2.469c2.968,0,4.551,1.168,4.782,3.47a9.829,9.829,0,0,1-.132,2.436l-.231.7h-7.289Zm-13.422-1.3v.667a2.022,2.022,0,0,0,1.152,1.968,3.278,3.278,0,0,0,1.684.367,4.5,4.5,0,0,0,2.045-.434,1.639,1.639,0,0,0,.989-1.735,2.23,2.23,0,0,0-.955-1.468,10.291,10.291,0,0,0-.892-.6L184.255,17.9a5.144,5.144,0,0,1-.957-.634,4.326,4.326,0,0,1-1.78-3.069v-1a3.76,3.76,0,0,1,1.881-2.8,6.755,6.755,0,0,1,3.791-.934,8.5,8.5,0,0,1,3.827.767,3.75,3.75,0,0,1,2.177,3.169v.834h-3.3l-.067-.667c-.2-1.134-.989-1.7-2.408-1.7a3.523,3.523,0,0,0-1.78.434,1.435,1.435,0,0,0-.791,1.5,1.891,1.891,0,0,0,.693,1.234,3.57,3.57,0,0,0,.724.5l3.2,1.668.724.434a6.411,6.411,0,0,1,.791.634A3.769,3.769,0,0,1,192.3,20.8a4.091,4.091,0,0,1-1.946,3.97,7.572,7.572,0,0,1-4.421,1.168,9.567,9.567,0,0,1-3.166-.467,2.624,2.624,0,0,1-.825-.367,3.9,3.9,0,0,1-2.143-3.3v-.767l.1-.534h3.233Zm-20.386,1.668a1.873,1.873,0,0,0,.561,1.234,1.764,1.764,0,0,0,1.256.5c1.121,0,1.977-.767,2.571-2.269a7.932,7.932,0,0,0,.659-3.637,1.676,1.676,0,0,0-1.78-1.768,2.422,2.422,0,0,0-2.211,1.5,7.3,7.3,0,0,0-.758,2,8.461,8.461,0,0,0-.265,2.469m-3.166,0a8.7,8.7,0,0,1,.724-4.337,5.649,5.649,0,0,1,5.708-3.637,5.367,5.367,0,0,1,3.2.868,3.855,3.855,0,0,1,1.616,2.936,8.982,8.982,0,0,1-.661,4.237,5.289,5.289,0,0,1-2.67,3.069,7.565,7.565,0,0,1-2.937.567,9.217,9.217,0,0,1-2.143-.267,3.854,3.854,0,0,1-1.386-.667,3.579,3.579,0,0,1-1.45-2.736m-5.739-7.707h2.87l-.166,1.768.594-.867a2.629,2.629,0,0,1,1.287-1,5.043,5.043,0,0,1,1.715-.2l-.76,2.9h-.462a3.1,3.1,0,0,0-1.352.3,2.5,2.5,0,0,0-1.253,1.6c-.164.567-.33,1.234-.5,2.068l-.89,4.5h-3.233l2.112-11.043Zm-8.806,0h1.946l.493-2.3,3.1-.767-.659,3.069H152l-.428,2h-1.946l-1.253,6.005v.8a.977.977,0,0,0,1.022.567,1.667,1.667,0,0,0,.693-.1l.428-.134-.361,2-.693.134a7.365,7.365,0,0,1-1.253.1c-1.847-.033-2.8-.7-2.937-2.035v-.267a11.414,11.414,0,0,1,.3-1.968l1.087-5.1h-2.011l.428-2Zm-11.149,0h2.968l-.166,1.535.859-.767a4.739,4.739,0,0,1,2.968-1.1,3.213,3.213,0,0,1,2.112.667,2.706,2.706,0,0,1,1.022,1.968,6.85,6.85,0,0,1-.1,1.6l-1.453,7.14h-3.2l1.386-6.773c.034-.234.065-.5.1-.8v-.367a1.15,1.15,0,0,0-1.318-1.2,2.022,2.022,0,0,0-1.022.267,3.2,3.2,0,0,0-.661.5,4.266,4.266,0,0,0-.592.767l-.3.6a8.567,8.567,0,0,0-.527,1.768l-1.022,5.2h-3.233L133.921,14.6Zm-9.4,4.3h3.858l.1-.6v-.767a1.491,1.491,0,0,0-1.648-1.435c-.957,0-1.715.634-2.112,1.935l-.231.9ZM123.96,21.9v.534c.1,1.168.693,1.768,1.78,1.768a2.093,2.093,0,0,0,1.98-1.335l.3-.667h3.1l-.166.567a5.1,5.1,0,0,1-1.155,1.8,5.439,5.439,0,0,1-3.957,1.435c-3.134,0-4.816-1.268-5.047-3.7a9,9,0,0,1,.262-2.9,7.783,7.783,0,0,1,1.056-2.6,5.242,5.242,0,0,1,4.782-2.469c2.971,0,4.554,1.168,4.785,3.47a9.831,9.831,0,0,1-.132,2.436l-.2.7h-7.291Zm-6.7-7.24-.065-.834a2.08,2.08,0,0,0-2.211-1.968,3.155,3.155,0,0,0-2.011.634,5.474,5.474,0,0,0-1.451,1.568,12.214,12.214,0,0,0-1.256,3,18.486,18.486,0,0,0-.395,1.835,6.449,6.449,0,0,0-.034,1.768,3.6,3.6,0,0,0,.791,2.035,2.352,2.352,0,0,0,1.915.9,2.974,2.974,0,0,0,2.605-1.335,4.272,4.272,0,0,0,.625-1.3l.166-.534h3.695l-.132.734a5.845,5.845,0,0,1-3.562,4.2,7.619,7.619,0,0,1-3.2.634,6.412,6.412,0,0,1-4.222-1.335,5.536,5.536,0,0,1-2.078-3.97,12.737,12.737,0,0,1,.989-5.972,8.049,8.049,0,0,1,3.793-4.4,8.166,8.166,0,0,1,3.627-.8,6.888,6.888,0,0,1,3.827,1,4.386,4.386,0,0,1,1.881,3.436v.767h-3.3Z" transform="translate(149.546 13.293)" fill="#fff"/>
    <path id="Caminho_4356" data-name="Caminho 4356" d="M308.959,30.716h5.078l.132-.8a5.31,5.31,0,0,0,0-1.034,1.957,1.957,0,0,0-2.177-1.868c-1.287,0-2.242.834-2.771,2.536l-.3,1.168Zm-.791,3.9v.7a2.172,2.172,0,0,0,2.341,2.3,2.751,2.751,0,0,0,2.605-1.768l.4-.867h4.058l-.265.767a5.959,5.959,0,0,1-1.518,2.335,7.022,7.022,0,0,1-5.145,1.868c-4.089,0-6.3-1.635-6.564-4.871a11.646,11.646,0,0,1,.329-3.77,11.456,11.456,0,0,1,1.354-3.4,6.91,6.91,0,0,1,6.266-3.236c3.858,0,5.97,1.535,6.266,4.537a11.458,11.458,0,0,1-.164,3.2l-.265.934h-9.533l-.132,1.268Zm-16.295.367a4.211,4.211,0,0,0,.3,1.134,1.791,1.791,0,0,0,1.881,1.234c1.318,0,2.442-.934,3.264-2.769a9.287,9.287,0,0,0,.924-4.5,3.79,3.79,0,0,0-.659-1.868,2.076,2.076,0,0,0-1.715-.9c-1.287,0-2.343,1.034-3.2,3.036A9.034,9.034,0,0,0,291.873,34.986Zm8.741-16.248h4.123l-4.157,20.785h-3.76l.2-1.935-.363.434a6.01,6.01,0,0,1-1.98,1.5,4.311,4.311,0,0,1-1.879.4,4.7,4.7,0,0,1-3.529-1.5,5.62,5.62,0,0,1-1.487-3.6,7.479,7.479,0,0,1,0-1.468,11.878,11.878,0,0,1,.363-2.2,14.907,14.907,0,0,1,.825-2.4,7.706,7.706,0,0,1,2.343-2.9,5.739,5.739,0,0,1,3.562-1.2,4.883,4.883,0,0,1,2.208.5,5.23,5.23,0,0,1,1.354,1.034l.527.667,1.65-8.141ZM281.549,32.351h-1.287a8.789,8.789,0,0,0-2.506.5l-.462.234a2.413,2.413,0,0,0-1.22,2.4,1.765,1.765,0,0,0,.527,1.234,1.679,1.679,0,0,0,1.22.567c1.684,0,2.87-1.368,3.563-4.137l.2-.834Zm.693-3.169a3.662,3.662,0,0,0,.034-.834c-.1-.867-.726-1.3-1.948-1.335a1.955,1.955,0,0,0-2.011,1.234l-.164.634h-4.058l.164-.767a3.79,3.79,0,0,1,.825-1.568,4.558,4.558,0,0,1,1.749-1.234,9.823,9.823,0,0,1,3.661-.634c3.6.067,5.508,1.3,5.739,3.737v1.168l-.132.834-1.121,5.4a19.793,19.793,0,0,0-.3,2.5l-.067,1.268h-3.793l-.065-.834v-.7c-.428.4-.791.7-1.09.934a5,5,0,0,1-3.166,1,4.446,4.446,0,0,1-3.067-1.034,4.053,4.053,0,0,1-1.354-2.936,5.016,5.016,0,0,1,.661-3.1,4.5,4.5,0,0,1,2.408-2,15.141,15.141,0,0,1,4.419-.834h2.54l.166-.867Zm-22.034,5.805a3.249,3.249,0,0,0,.3,1.134,1.791,1.791,0,0,0,1.881,1.234c1.321,0,2.442-.934,3.267-2.769a8.889,8.889,0,0,0,.89-4.5,3.528,3.528,0,0,0-.659-1.868,2.08,2.08,0,0,0-1.717-.9c-1.285,0-2.341,1.034-3.2,3.036a9.06,9.06,0,0,0-.791,4.637m8.741-16.248h4.123l-4.157,20.785h-3.76l.2-1.935-.395.434a6.011,6.011,0,0,1-1.98,1.5,4.215,4.215,0,0,1-1.879.4,4.713,4.713,0,0,1-3.531-1.5,5.631,5.631,0,0,1-1.484-3.6,11.5,11.5,0,0,1,0-1.468,11.876,11.876,0,0,1,.363-2.2,12.068,12.068,0,0,1,.825-2.4,7.393,7.393,0,0,1,2.341-2.9,5.749,5.749,0,0,1,3.562-1.2,4.887,4.887,0,0,1,2.211.5,5.179,5.179,0,0,1,1.352,1.034l.529.667,1.648-8.141Zm-11.941,0-.791,3.737h-4.419l.758-3.737h4.452Zm-5.54,6.339h4.123l-2.937,14.446h-4.157L251.4,25.078Zm-5.047-6.339h4.123l-4.289,20.785H242.1l4.32-20.785Zm-2.309,0-.76,3.737H238.9l.758-3.737Zm-5.542,6.339h4.123l-2.935,14.446h-4.157L238.5,25.078Zm-13.819,9.008c.2,2.135,1.022,3.236,2.473,3.236,1.155,0,2.112-.9,2.9-2.7a10.993,10.993,0,0,0,.758-2.3,8.758,8.758,0,0,0,.2-2.769c-.2-1.535-.856-2.3-2.011-2.3a3.468,3.468,0,0,0-3.1,2.169,9.267,9.267,0,0,0-1.155,3.8v.834Zm-.892-15.347h4.092l-1.749,7.773.428-.5a4.7,4.7,0,0,1,3.464-1.368,4.63,4.63,0,0,1,3.563,1.5,6.187,6.187,0,0,1,1.484,3.637,11.008,11.008,0,0,1-.363,4c-.132.434-.265.867-.428,1.3a9.761,9.761,0,0,1-1.22,2.269,6.141,6.141,0,0,1-2.771,2.135,5.883,5.883,0,0,1-2.276.434,4.487,4.487,0,0,1-3.793-1.768l-.462-.7-.4,2.068h-3.858ZM214.1,32.351h-1.285a8.807,8.807,0,0,0-2.509.5l-.462.234a2.417,2.417,0,0,0-1.22,2.4,1.934,1.934,0,0,0,.527,1.234,1.633,1.633,0,0,0,1.222.567c1.681,0,2.87-1.368,3.563-4.137l.2-.834Zm.693-3.169a3.533,3.533,0,0,0,.034-.834c-.1-.867-.758-1.3-1.946-1.335a1.959,1.959,0,0,0-2.013,1.234l-.164.634h-4.089l.164-.767a3.414,3.414,0,0,1,.825-1.568,4.54,4.54,0,0,1,1.749-1.234,9.814,9.814,0,0,1,3.661-.634c3.594.067,5.509,1.3,5.739,3.737v1.168l-.132.834-1.121,5.4a15.286,15.286,0,0,0-.3,2.5l-.065,1.268h-3.793l-.067-.834v-.7c-.428.4-.791.7-1.087.934a5,5,0,0,1-3.166,1,4.452,4.452,0,0,1-3.069-1.034A4.051,4.051,0,0,1,204.6,36.02a5.014,5.014,0,0,1,.659-3.1,4.6,4.6,0,0,1,2.442-2,15.143,15.143,0,0,1,4.421-.834h2.538l.166-.867Zm-19.559-4.1H197.8l.662-3,4.056-1-.856,4H204.3l-.56,2.6h-2.574l-1.616,7.874-.065.5.1.534a1.232,1.232,0,0,0,1.318.767,2.76,2.76,0,0,0,.892-.134l.56-.167-.5,2.6-.924.167a8.49,8.49,0,0,1-1.65.133c-2.405-.033-3.661-.934-3.825-2.669v-.334a16.215,16.215,0,0,1,.394-2.569l1.419-6.673h-2.605l.561-2.6Zm-14.844,0h3.892l-.2,2,1.121-1a6.377,6.377,0,0,1,3.892-1.435,4.175,4.175,0,0,1,2.74.9,3.491,3.491,0,0,1,1.352,2.569,7.858,7.858,0,0,1-.132,2.1l-1.912,9.308h-4.157l1.814-8.874a8.275,8.275,0,0,0,.132-1.034v-.467a1.523,1.523,0,0,0-1.715-1.568,2.621,2.621,0,0,0-1.352.334,3.972,3.972,0,0,0-.859.667,7.019,7.019,0,0,0-.791,1l-.4.767a11.522,11.522,0,0,0-.693,2.335l-1.352,6.806h-4.222l2.771-14.446Zm-12.6,5.638h5.08l.132-.8a5.5,5.5,0,0,0,0-1.034,1.958,1.958,0,0,0-2.177-1.868c-1.287,0-2.244.834-2.771,2.536l-.3,1.168Zm-.791,3.9v.7a2.174,2.174,0,0,0,2.343,2.3,2.68,2.68,0,0,0,2.571-1.768l.4-.867h4.056l-.262.767a5.958,5.958,0,0,1-1.518,2.335,7.022,7.022,0,0,1-5.145,1.868c-4.089,0-6.3-1.635-6.6-4.871a11.583,11.583,0,0,1,.332-3.77,10.566,10.566,0,0,1,1.352-3.4,6.913,6.913,0,0,1,6.266-3.236c3.858,0,5.97,1.535,6.266,4.537a11.367,11.367,0,0,1-.164,3.2l-.265.934h-9.533l-.132,1.268Zm-13.788-9.542h2.574l.659-3,4.058-1-.859,4h2.639l-.527,2.6h-2.574l-1.616,7.874-.065.5.065.534c.166.5.628.767,1.354.767a2.746,2.746,0,0,0,.89-.134l.56-.167-.5,2.6-.924.167a8.449,8.449,0,0,1-1.648.133c-2.408-.033-3.661-.934-3.827-2.669v-.334c.067-.767.2-1.635.363-2.569l1.451-6.673h-2.639l.561-2.6Zm-11.279,9.875.132.867a1.906,1.906,0,0,0,2.143,1.768,2.979,2.979,0,0,0,1.583-.434,1.446,1.446,0,0,0,.726-1.435,1.772,1.772,0,0,0-.76-1.3l-.724-.4-2.343-1.234a10.877,10.877,0,0,1-1.22-.734,3.6,3.6,0,0,1-1.715-2.769,3.527,3.527,0,0,1,1.879-3.67,8.566,8.566,0,0,1,4.255-.967,7.772,7.772,0,0,1,3.43.7,3.266,3.266,0,0,1,2.112,2.736,9.288,9.288,0,0,1-.034.967l-.065.434H147.5v-.4c-.132-1.368-.758-2.068-1.912-2.135a1.866,1.866,0,0,0-1.321.434,1.428,1.428,0,0,0-.493,1.268,1.744,1.744,0,0,0,.791,1.335l.56.334L147.5,31.45c.363.2.726.4,1.09.634A4,4,0,0,1,150.5,35.12a3.739,3.739,0,0,1-2.011,3.77,9.381,9.381,0,0,1-4.849,1.034,13.153,13.153,0,0,1-2.078-.167,4.47,4.47,0,0,1-2.242-1.034,3.666,3.666,0,0,1-1.287-2.169l-.1-.934v-.7h3.957Zm-17.779-9.875h4.123l-1.881,9.075a4.474,4.474,0,0,0-.065,1.134,1.661,1.661,0,0,0,1.749,1.735,3.123,3.123,0,0,0,2.473-1.335,4.279,4.279,0,0,0,.594-.9,11.519,11.519,0,0,0,.758-2.135l.462-1.835,1.222-5.738h4.089l-2.8,14.446h-3.892l.265-2.068-.428.4a6.992,6.992,0,0,1-4.618,2.068,4.538,4.538,0,0,1-2.737-.834,3.343,3.343,0,0,1-1.386-2.5,10.672,10.672,0,0,1,0-1.468l.166-1.034,1.879-9.041Zm-15.9,7.807v.867a2.7,2.7,0,0,0,1.484,2.569,4.952,4.952,0,0,0,2.177.5,6.062,6.062,0,0,0,2.67-.567,2.156,2.156,0,0,0,1.287-2.269,2.8,2.8,0,0,0-1.253-1.9,10.909,10.909,0,0,0-1.155-.767l-3.825-1.935a5.323,5.323,0,0,1-1.253-.834,5.4,5.4,0,0,1-2.309-4,5.319,5.319,0,0,1,0-1.268,4.99,4.99,0,0,1,2.439-3.637,9.174,9.174,0,0,1,4.948-1.234,11.1,11.1,0,0,1,5.013,1,4.956,4.956,0,0,1,2.838,4.137v1.1h-4.323l-.065-.867c-.231-1.5-1.287-2.235-3.166-2.235a4.831,4.831,0,0,0-2.309.567,1.842,1.842,0,0,0-1.022,1.968,2.544,2.544,0,0,0,.89,1.635,2.982,2.982,0,0,0,.957.634l4.188,2.2.957.534c.33.234.693.5,1.054.8a5.257,5.257,0,0,1,1.749,3.336,5.451,5.451,0,0,1-2.54,5.2,9.924,9.924,0,0,1-5.8,1.535,13.545,13.545,0,0,1-4.123-.6,5.108,5.108,0,0,1-1.09-.467,5.3,5.3,0,0,1-2.836-4.3v-1l.132-.667h4.255Z" transform="translate(145.928 25.867)" fill="#fff"/>
  </g>
</svg>
