<svg version="1.1" id="Layer_1" xmlns="http://www.w3.org/2000/svg" xmlns:xlink="http://www.w3.org/1999/xlink" x="0px" y="0px"
	 width="100%" viewBox="0 0 1221 150" enable-background="new 0 0 1221 150" xml:space="preserve">
<path fill="#FFFFFF" opacity="1.000000" stroke="none"
	d="
M946.000000,151.000000
	C938.979065,151.000000 931.958069,151.000000 924.768799,150.643448
	C923.936890,149.863297 923.292114,149.104340 922.606995,149.065979
	C910.769348,148.403030 901.541077,142.300903 893.232849,134.648758
	C881.219788,123.584526 878.358215,108.691483 878.195557,93.481567
	C878.012695,76.386017 878.931152,59.245419 880.158081,42.181046
	C880.850220,32.554916 886.043396,24.331547 892.902039,17.832800
	C901.281799,9.892736 910.765259,3.396563 923.039062,2.881544
	C923.385071,2.867024 923.680847,1.654114 924.000000,1.000002
	C930.354431,1.000000 936.708801,1.000000 943.232605,1.349540
	C944.391907,2.132537 945.343750,2.784029 946.377869,2.964553
	C953.905457,4.278631 960.790833,7.039197 967.037292,11.494387
	C978.016418,19.325022 985.024597,29.724110 987.484985,43.418629
	C988.764771,42.814995 989.846436,42.632065 990.398865,41.992268
	C994.655334,37.062431 998.805481,32.040867 1002.995728,27.053761
	C1012.899475,15.266514 1023.931213,5.231246 1040.039185,2.925795
	C1040.769653,2.821239 1041.349854,1.665913 1042.000000,1.000000
	C1048.354370,1.000000 1054.708862,1.000000 1061.231323,1.356556
	C1062.228149,2.141193 1063.020630,2.841129 1063.890991,2.957072
	C1080.250732,5.136573 1091.969482,14.027946 1100.415161,27.848949
	C1105.722534,36.534267 1107.603027,46.352215 1107.760620,56.054207
	C1108.044312,73.495056 1108.687744,90.942505 1106.220337,108.431778
	C1103.182373,129.965195 1081.820801,147.549530 1063.957520,149.079636
	C1063.255249,149.139786 1062.650269,150.334122 1062.000000,151.000000
	C1055.645630,151.000000 1049.291138,151.000000 1042.768677,150.643463
	C1040.465942,149.740646 1038.324219,149.220245 1036.197632,148.644073
	C1019.025330,143.991318 1007.238220,133.190018 999.857056,116.443527
	C998.411621,117.608635 997.089661,118.691559 995.749573,119.751518
	C987.990051,125.888718 980.719238,132.835327 972.320251,137.916824
	C964.488098,142.655380 955.445251,145.386490 946.975220,149.092529
	C946.468872,149.314041 946.316895,150.345444 946.000000,151.000000
M931.337708,34.958504
	C924.371338,35.559383 919.419556,38.906990 917.705627,45.848457
	C916.472290,50.843323 915.323975,55.973824 915.118042,61.083328
	C914.715820,71.060760 914.668030,81.081322 915.132812,91.053291
	C915.385010,96.466187 916.621460,101.919128 918.079163,107.169304
	C920.141479,114.596985 926.336487,117.236923 933.197876,117.870155
	C938.050049,118.317963 946.679688,116.137291 948.770264,109.346260
	C950.742554,102.939484 952.583374,96.229980 952.794006,89.600006
	C953.182190,77.382851 952.444580,65.122055 951.967773,52.887566
	C951.514832,41.263077 942.667236,33.220993 931.337708,34.958504
M1071.000000,90.432373
	C1070.666504,77.031883 1070.729004,63.605743 1069.863525,50.239704
	C1069.263306,40.968769 1061.749878,34.017254 1052.860229,34.133938
	C1045.728271,34.227551 1036.871338,37.988144 1035.071167,48.926891
	C1034.014771,55.345417 1033.040894,61.889931 1033.138428,68.361069
	C1033.309082,79.688889 1034.112793,91.022568 1035.071533,102.318108
	C1035.798950,110.887230 1042.153687,117.191917 1052.007080,117.978889
	C1059.142212,118.548759 1066.764038,113.056984 1068.900391,105.284981
	C1070.131714,100.805298 1070.334351,96.042900 1071.000000,90.432373
z"/>
<path fill="#FFFFFF" opacity="1.000000" stroke="none"
	d="
M687.468628,151.000000
	C686.830078,150.401016 686.786804,149.358612 686.471558,149.268539
	C680.169128,147.468246 673.600952,146.353912 667.573914,143.902634
	C661.573547,141.462189 656.110046,137.701782 650.221680,134.414383
	C650.221680,138.898972 650.221680,143.628326 650.221680,148.677032
	C616.788452,148.677032 583.715881,148.677032 550.321289,148.677032
	C550.321289,100.447075 550.321289,52.042973 550.321289,3.319170
	C583.223633,3.319170 616.295105,3.319170 649.683716,3.319170
	C649.683716,13.892100 649.683716,24.632486 649.683716,35.775322
	C629.098145,35.775322 608.356995,35.775322 587.309021,35.775322
	C587.309021,43.571465 587.309021,50.979099 587.309021,58.790428
	C604.916443,58.790428 622.658203,58.790428 640.698608,58.790428
	C640.698608,69.923073 640.698608,80.662788 640.698608,91.805344
	C623.068359,91.805344 605.326599,91.805344 587.293945,91.805344
	C587.293945,100.270538 587.293945,108.343765 587.293945,116.823776
	C607.948059,116.823776 628.689758,116.823776 649.955017,116.823776
	C649.955017,120.390709 649.955017,123.594208 649.955017,126.797707
	C650.326538,127.002022 650.698059,127.206337 651.069580,127.410652
	C655.334778,123.151718 659.601562,118.894348 663.864380,114.633072
	C665.631287,112.866852 667.222107,110.859200 669.222961,109.420143
	C670.217651,108.704742 672.586243,108.352493 673.261841,108.983376
	C679.045044,114.383591 686.477539,115.435600 693.664185,116.922424
	C700.884155,118.416161 708.141724,118.599724 715.323547,116.045578
	C723.788879,113.034950 724.455322,108.531349 723.965515,101.942215
	C723.626892,97.386826 718.635193,93.832130 712.718323,92.944839
	C702.973206,91.483459 693.109192,90.319618 683.615173,87.816811
	C673.985168,85.278137 665.246399,80.644989 660.418518,70.977638
	C655.797302,61.723999 654.273987,52.119408 655.504150,41.791153
	C656.727234,31.522224 660.769653,22.410437 668.259033,15.936525
	C674.261353,10.748104 682.210938,7.753664 689.447815,4.084453
	C691.929016,2.826463 694.869324,2.474171 697.299927,1.354057
	C705.354248,1.000000 713.708496,1.000000 722.231140,1.356930
	C725.302246,2.476044 728.176453,3.378330 731.112793,3.975266
	C741.681519,6.123847 750.309875,11.677930 757.659790,18.298655
	C749.768311,26.213232 742.084900,33.919220 734.473938,41.552448
	C732.749939,40.282539 730.823608,38.429283 728.545593,37.262756
	C719.843994,32.806770 710.470886,32.913956 701.132080,34.097366
	C695.634583,34.794003 690.038757,41.856873 690.358887,46.775406
	C690.650085,51.249664 695.738037,56.322945 700.696045,56.987015
	C708.419189,58.021439 716.204102,58.699020 723.863525,60.078865
	C732.937378,61.713520 741.384888,64.813286 748.644714,71.027763
	C761.719849,82.220238 763.006653,109.681816 756.717224,122.498970
	C749.167236,137.884872 735.860596,145.749298 719.466370,149.062531
	C718.551147,149.247528 717.817932,150.333435 717.000000,151.000015
	C707.312439,151.000000 697.624878,151.000000 687.468628,151.000000
z"/>
<path fill="#FFFFFF" opacity="1.000000" stroke="none"
	d="
M454.466858,151.000000
	C453.854218,150.361938 453.867523,149.266663 453.539490,149.152542
	C445.033691,146.193314 439.425659,140.345413 436.724701,132.001801
	C431.741974,135.528198 427.427734,139.338272 422.474213,141.923431
	C413.288208,146.717484 403.733734,150.100815 392.854767,148.165131
	C387.541595,147.219757 381.921112,148.001495 376.030884,148.001495
	C377.535034,138.484940 378.976044,129.288971 380.444519,120.097420
	C382.284637,108.579308 384.362854,97.093369 385.895844,85.534859
	C386.522797,80.807434 386.834167,75.734047 385.790436,71.160019
	C384.202972,64.203232 376.561890,62.590347 371.080109,67.351486
	C362.501221,74.802597 359.249176,85.069527 357.159363,95.502327
	C353.917419,111.686668 351.722137,128.079193 348.892365,144.350281
	C348.658356,145.695709 347.004974,147.803696 345.954315,147.838364
	C337.345032,148.122467 328.722290,147.998581 319.785126,147.998581
	C323.247742,128.526215 326.719635,109.598160 329.914215,90.623405
	C330.728027,85.789650 330.715942,80.810684 330.984070,75.893028
	C331.228363,71.411697 330.237885,67.142647 325.895630,65.134369
	C322.278900,63.461639 314.914215,65.971588 312.816681,69.874046
	C308.823944,77.302582 304.264526,84.806511 302.290588,92.855507
	C298.908081,106.648285 297.353577,120.887772 294.985870,134.932007
	C294.265320,139.205948 293.394806,143.454605 292.567047,147.852585
	C283.248840,147.852585 273.950775,147.852585 264.524231,147.852585
	C270.256348,112.383530 275.981079,76.960213 281.755188,41.231300
	C289.331299,41.231300 297.419769,41.231300 306.147491,41.231300
	C305.815430,45.855679 305.491547,50.366123 305.167664,54.876568
	C313.109039,45.445705 322.372650,39.048561 334.498444,38.078156
	C347.318542,37.052185 356.167084,42.883362 360.771332,56.847126
	C364.680176,52.497143 367.254181,48.596165 370.765594,45.929581
	C379.464630,39.323467 389.255463,35.986988 400.282104,39.127293
	C408.375977,41.432369 413.905273,47.272617 414.689178,55.176563
	C415.729553,65.666405 415.353363,76.427406 414.349213,86.953926
	C413.266449,98.304176 410.755981,109.518227 408.734253,121.592628
	C415.936035,119.015869 420.645477,114.300606 423.775024,109.024879
	C429.557159,99.277512 433.926880,88.703369 439.146942,78.609108
	C449.002960,59.550251 462.459351,44.781574 484.610382,39.929535
	C501.528534,36.223721 517.800232,38.560764 533.841797,43.379639
	C528.359375,78.151878 518.979858,112.096092 520.005798,147.715286
	C511.041229,147.715286 502.299347,147.715286 493.216309,147.715286
	C493.525208,142.249634 493.838043,136.714478 494.233063,129.724701
	C490.703766,133.899490 488.074921,136.656525 485.855225,139.710876
	C481.710510,145.414154 475.317902,147.467560 469.705566,150.674210
	C464.977905,151.000000 459.955811,151.000000 454.466858,151.000000
M468.052979,121.579895
	C470.992401,125.110611 474.603058,124.585297 478.282410,123.181618
	C486.014038,120.232040 489.751221,113.469543 491.797333,106.423340
	C495.505127,93.654678 498.054199,80.545418 500.943756,67.546516
	C501.579773,64.685440 500.584351,63.126965 497.047516,62.883862
	C489.021118,62.332169 482.841156,65.881294 477.526917,71.093079
	C469.542969,78.923073 465.770508,88.870796 463.934082,99.775215
	C462.655487,107.367348 462.680267,114.537521 468.052979,121.579895
z"/>
<path fill="#FFFFFF" opacity="1.000000" stroke="none"
	d="
M1222.000000,37.999992
	C1222.000000,46.020901 1222.000000,54.041798 1221.674072,62.236908
	C1220.894775,63.214291 1220.303955,63.970078 1220.008301,64.827637
	C1213.713135,83.091446 1196.061890,97.828941 1175.296997,97.049461
	C1167.229980,96.746635 1159.142090,97.000000 1150.693481,97.000000
	C1150.693481,114.776955 1150.693481,131.845322 1150.693481,148.654968
	C1138.231812,148.654968 1126.161987,148.654968 1114.318604,148.654968
	C1114.318604,99.924431 1114.318604,51.539310 1114.318604,3.000103
	C1135.110840,3.000103 1155.587402,2.831877 1176.057251,3.125592
	C1180.813110,3.193832 1185.688721,4.386453 1190.263550,5.836746
	C1204.641479,10.394792 1214.301758,19.918934 1219.114014,34.325867
	C1219.578613,35.716724 1221.014893,36.783016 1222.000000,37.999992
M1174.704834,36.190243
	C1166.598999,36.190243 1158.493286,36.190243 1150.195801,36.190243
	C1150.195801,45.801136 1150.195801,55.199543 1150.195801,65.432816
	C1158.595459,64.940895 1166.800049,64.772972 1174.922974,63.870842
	C1180.031250,63.303524 1184.611694,57.601814 1184.999390,52.676781
	C1185.609497,44.926296 1182.687622,40.155563 1174.704834,36.190243
z"/>
<path fill="#FFFFFF" opacity="1.000000" stroke="none"
	d="
M812.000000,1.000000
	C818.354431,1.000000 824.708801,1.000000 831.232605,1.349519
	C831.894470,2.118966 832.346985,2.843497 832.885376,2.914220
	C846.112915,4.651566 856.998962,10.692356 865.408081,20.964617
	C872.198303,29.259350 875.096008,39.228596 877.309814,50.000000
	C867.313599,50.000000 857.835693,49.770817 848.376099,50.088657
	C842.973511,50.270180 839.075745,49.805527 836.881104,43.597904
	C834.063049,35.626770 826.911133,34.042011 819.320801,35.072411
	C812.766052,35.962208 807.139893,38.908398 805.636353,45.962971
	C804.288696,52.286602 803.090759,58.810467 803.158264,65.232002
	C803.294678,78.215225 803.452820,91.313950 805.270935,104.128258
	C806.808228,114.963837 816.179932,120.025146 827.533081,117.177170
	C835.134094,115.270424 837.411377,108.964470 840.418701,103.213989
	C852.626526,103.213989 864.748413,103.213989 877.075928,103.213989
	C876.684692,105.191170 876.366089,106.927208 875.995789,108.652145
	C873.628052,119.680885 868.662170,129.453430 860.305603,136.980545
	C853.442566,143.162231 845.263977,147.385971 835.968262,149.071030
	C835.220215,149.206650 834.651855,150.333664 834.000000,150.999985
	C826.312439,151.000000 818.624817,151.000000 810.765869,150.657791
	C808.371704,149.543671 806.158752,148.741989 803.924561,148.004623
	C788.660583,142.966995 776.970825,133.940033 770.937439,118.558151
	C766.377075,106.931633 765.974548,94.671387 766.126404,82.492996
	C766.296387,68.853836 766.285400,55.041843 768.431641,41.637856
	C771.655396,21.504282 790.846252,5.554321 810.037842,2.925629
	C810.766174,2.825872 811.349243,1.665915 812.000000,1.000000
z"/>
<path fill="#FFFFFF" opacity="1.000000" stroke="none"
	d="
M126.468628,151.000000
	C125.682816,150.345383 125.477501,149.209152 125.032303,149.105728
	C108.884239,145.354935 99.910393,134.223083 97.226959,118.918869
	C92.765602,93.474800 98.282639,70.250931 117.721725,51.973587
	C126.643135,43.585346 137.528061,38.950653 150.172424,38.926441
	C158.075027,38.911308 165.673660,39.195808 172.842224,43.285229
	C184.573639,49.977612 190.686081,60.246624 192.987930,73.155441
	C195.762100,88.712936 192.781143,103.665062 186.504166,117.719147
	C179.530380,133.333389 167.638489,144.171829 150.834488,149.013290
	C149.970520,149.262192 149.215988,149.890945 148.705261,150.671417
	C141.645752,151.000000 134.291504,151.000000 126.468628,151.000000
M141.564346,65.921974
	C135.012161,69.596306 132.421722,76.090492 129.911362,82.558823
	C125.762444,93.249184 123.586975,104.229187 127.123131,115.505447
	C127.981674,118.243210 129.815338,121.212364 132.080856,122.877625
	C141.299484,129.653732 148.483383,125.370697 154.931595,115.656624
	C162.025681,104.969551 164.702560,92.771645 163.905594,80.057259
	C163.208221,68.931488 154.994675,58.519230 141.564346,65.921974
z"/>
<path fill="#FFFFFF" opacity="1.000000" stroke="none"
	d="
M102.531342,1.000000
	C101.672768,9.928673 100.345535,18.857347 98.997475,27.926151
	C82.616066,27.926151 66.663765,27.926151 50.085453,27.926151
	C48.060822,39.205238 46.052521,50.393341 43.983925,61.917347
	C59.282444,61.917347 74.394295,61.917347 89.634705,61.917347
	C88.387894,69.966591 87.163849,77.692772 86.007500,85.429070
	C85.599327,88.159859 84.252716,89.097168 81.406845,89.067032
	C67.447495,88.919205 53.485725,88.999969 39.505718,88.999969
	C36.162258,108.664978 32.861103,128.081161 29.474485,148.000000
	C20.496891,148.000000 11.217103,148.000000 1.468657,148.000000
	C1.000000,142.645065 1.000000,137.290146 1.335877,131.763916
	C2.447831,130.089035 3.636569,128.661804 3.931170,127.069160
	C5.515749,118.502724 6.862772,109.892578 8.320679,101.302422
	C10.534644,88.257515 12.758768,75.214294 15.004135,62.174755
	C16.865253,51.366661 18.845409,40.578388 20.620354,29.756329
	C22.189535,20.188812 23.548321,10.586788 25.000000,1.000000
	C50.687561,1.000000 76.375122,1.000000 102.531342,1.000000
z"/>
<path fill="#FFFFFF" opacity="1.000000" stroke="none"
	d="
M237.499893,41.252045
	C237.372574,47.256008 236.835831,53.041142 236.282318,59.006969
	C241.290314,53.720318 245.730728,48.013550 251.188400,43.550819
	C256.936981,38.850220 264.216888,38.121235 272.159790,39.375187
	C270.342896,49.461765 268.527039,59.542709 266.632599,70.059784
	C257.275482,68.939720 249.259491,71.704437 243.309586,79.271919
	C237.275650,86.946259 234.757904,96.094101 233.046631,105.444412
	C230.464127,119.555107 228.191086,133.722443 225.784943,147.874878
	C216.115189,147.874878 206.819901,147.874878 197.222107,147.874878
	C202.649033,112.371506 208.051804,77.026047 213.553543,41.033207
	C220.539185,41.033207 228.814835,41.033207 237.499893,41.252045
z"/>
</svg>