<svg xmlns="http://www.w3.org/2000/svg" width="46" height="46" viewBox="0 0 46 46" fill="none">
  <g clip-path="url(#clip0_115_3601)">
    <path
      d="M43.8009 18.6789L25.4458 18.678C24.6353 18.678 23.9783 19.3349 23.9783 20.1454V26.009C23.9783 26.8194 24.6353 27.4764 25.4458 27.4764H35.7822C34.6504 30.4138 32.5378 32.8738 29.8426 34.4369L34.25 42.0666C41.3201 37.9776 45.5 30.8032 45.5 22.7719C45.5 21.6284 45.4157 20.8109 45.2472 19.8904C45.119 19.1911 44.5119 18.6789 43.8009 18.6789Z"
      fill="#167EE6" />
    <path
      d="M23 36.2867C17.9416 36.2867 13.5256 33.5229 11.1538 29.4331L3.52441 33.8306C7.40698 40.5597 14.6803 45.0911 23 45.0911C27.0814 45.0911 30.9325 43.9922 34.25 42.0771V42.0667L29.8426 34.4369C27.8265 35.6062 25.4936 36.2867 23 36.2867Z"
      fill="#12B347" />
    <path
      d="M34.25 42.077V42.0666L29.8425 34.4368C27.8265 35.606 25.4937 36.2866 23 36.2866V45.091C27.0814 45.091 30.9327 43.9921 34.25 42.077Z"
      fill="#0F993E" />
    <path
      d="M9.30436 22.5911C9.30436 20.0977 9.98481 17.765 11.1538 15.7491L3.5244 11.3516C1.59881 14.6586 0.5 18.4993 0.5 22.5911C0.5 26.6829 1.59881 30.5236 3.5244 33.8306L11.1538 29.4331C9.98481 27.4172 9.30436 25.0845 9.30436 22.5911Z"
      fill="#FFD500" />
    <path
      d="M23 8.89542C26.2986 8.89542 29.3286 10.0675 31.6952 12.0172C32.2791 12.4981 33.1276 12.4634 33.6625 11.9286L37.8171 7.77402C38.4238 7.16723 38.3806 6.17397 37.7324 5.61165C33.7672 2.1717 28.608 0.0910645 23 0.0910645C14.6803 0.0910645 7.40698 4.62244 3.52441 11.3515L11.1538 15.749C13.5256 11.6592 17.9416 8.89542 23 8.89542Z"
      fill="#FF4B26" />
    <path
      d="M31.6952 12.0172C32.2791 12.4981 33.1277 12.4634 33.6625 11.9286L37.817 7.77402C38.4237 7.16723 38.3805 6.17397 37.7324 5.61165C33.7672 2.17161 28.608 0.0910645 23 0.0910645V8.89542C26.2985 8.89542 29.3286 10.0675 31.6952 12.0172Z"
      fill="#D93F21" />
  </g>
  <defs>
    <clipPath id="clip0_115_3601">
      <rect width="45" height="45" fill="white" transform="translate(0.5 0.0910645)" />
    </clipPath>
  </defs>
</svg>