<svg xmlns="http://www.w3.org/2000/svg" width="363" height="53.495" viewBox="0 0 363 53.495">
  <g id="Grupo_6428" data-name="Grupo 6428" transform="translate(0 -0.591)">
    <path id="Caminho_2847" data-name="Caminho 2847" d="M21.964,2.35c-.483-.167-.98-.341-1.5-.494C12.24-.58,7.666,3.413,6.45,7.53c-1.666,5.627,1.172,9.478,8.534,15.148C24,29.629,27.74,36.08,25.123,44.933a17.606,17.606,0,0,1-3.83,6.912,26.875,26.875,0,0,0,.672-49.5Z" transform="translate(15.748 1.374)" fill="#fff"/>
    <path id="Caminho_2848" data-name="Caminho 2848" d="M24.92,26.792c-8.8-6.385-13.366-13.286-10.857-21.769a16.7,16.7,0,0,1,1.488-3.5A26.89,26.89,0,0,0,4.646,41c3.009,3.674,5.921,6.44,11.83,8.069,8,2.211,14.455-.86,16.252-6.941C34.4,36.5,32.133,32.335,24.92,26.792Z" transform="translate(0 2.443)" fill="#fff"/>
    <g id="Grupo_6427" data-name="Grupo 6427" transform="translate(62.269 0.591)">
      <g id="Grupo_6426" data-name="Grupo 6426">
        <path id="Caminho_2849" data-name="Caminho 2849" d="M32.945,25.337a21.083,21.083,0,0,1-4.98-4.243,7,7,0,0,1-1.423-4.378,6.256,6.256,0,0,1,1.187-4.026,4.126,4.126,0,0,1,3.4-1.474,9.5,9.5,0,0,1,3.772.748,28.7,28.7,0,0,1,3.372,1.7l3.017-7.4A20.414,20.414,0,0,0,30.462,3.067,12.276,12.276,0,0,0,21.056,6.8q-3.5,3.735-3.5,10.117a17.493,17.493,0,0,0,.889,5.837,15.23,15.23,0,0,0,2.516,4.53,23.123,23.123,0,0,0,4.777,4.225,23.646,23.646,0,0,1,5.2,4.567,7.3,7.3,0,0,1,1.575,4.534,5.693,5.693,0,0,1-1.325,3.971,5.039,5.039,0,0,1-3.939,1.459q-4.6,0-10.091-3.634v9.133a21.749,21.749,0,0,0,10.9,2.545q6.534,0,10.008-3.7t3.47-10.661a15.625,15.625,0,0,0-1.895-7.743A20.889,20.889,0,0,0,32.945,25.337Zm14.15,28.074h8.919V15.594H47.094V53.411ZM51.621.863a4.85,4.85,0,0,0-3.6,1.3,4.824,4.824,0,0,0-1.292,3.55A4.689,4.689,0,0,0,48.067,9.3a4.941,4.941,0,0,0,3.554,1.274A4.8,4.8,0,0,0,55.073,9.3a4.683,4.683,0,0,0,1.343-3.579,4.79,4.79,0,0,0-1.31-3.55A4.722,4.722,0,0,0,51.621.863ZM99.635,14.882q-6.305,0-9.155,6.552h-.334q-2.281-6.556-9.122-6.552a9.827,9.827,0,0,0-4.977,1.339,9.107,9.107,0,0,0-3.67,4.225H71.8l-1.071-4.853H63.658V53.411h8.919V35.25q0-6.79,1.307-9.743a4.365,4.365,0,0,1,4.193-2.955q4.122,0,4.124,8.316V53.411h8.984V35.043q0-6.55,1.274-9.518a4.351,4.351,0,0,1,4.225-2.973q4.057,0,4.058,8.316V53.411h8.988V28.731q0-6.79-2.566-10.32A8.717,8.717,0,0,0,99.635,14.882ZM117,53.411h8.919V15.594H117ZM121.531.863a4.85,4.85,0,0,0-3.6,1.3,4.838,4.838,0,0,0-1.292,3.55A4.7,4.7,0,0,0,117.977,9.3a4.941,4.941,0,0,0,3.554,1.274A4.8,4.8,0,0,0,124.983,9.3a4.7,4.7,0,0,0,1.343-3.579,4.8,4.8,0,0,0-1.307-3.55A4.736,4.736,0,0,0,121.531.863Zm12.037,52.548h8.919V.591h-8.919Zm29.105-38.6a22,22,0,0,0-12.106,3.565l3.085,6.244a15.359,15.359,0,0,1,7.71-2.646q4.525,0,4.527,5.293v2.719l-4.962.2q-6.436.3-9.674,3.209t-3.234,8.875q0,5.57,2.363,8.69a7.688,7.688,0,0,0,6.49,3.122,10.3,10.3,0,0,0,5.332-1.256,12.788,12.788,0,0,0,4.087-4.581h.2l1.782,5.162h6.534V28.019q0-6.316-3.1-9.761T162.673,14.813ZM165.89,38.88a10.667,10.667,0,0,1-1.456,5.924,4.479,4.479,0,0,1-3.906,2.222q-3.289,0-3.285-4.683a6.939,6.939,0,0,1,1.423-4.755,6.2,6.2,0,0,1,4.476-1.764l2.748-.134V38.88Zm28-22.47a13.731,13.731,0,0,0-3.22,5.089h-.3l-1.006-5.906h-7.34V53.411h8.919V33.958q0-4.955,1.742-7.554a5.663,5.663,0,0,1,4.995-2.6,7.283,7.283,0,0,1,2.45.341l1.038-8.759a10.369,10.369,0,0,0-3.22-.512A6,6,0,0,0,193.888,16.411Zm47.985,15.377q-.539,3.223-1.713,13.271-.6-6.79-1.641-13.072L233.288,3.782h-9.456L218.6,31.987q-.735,3.91-1.575,13-1.073-9-1.71-13.2L210.923,3.782h-8.952l8.883,49.629h11.4l4.661-25.867,1.376-10.218.265-2.512a91.977,91.977,0,0,0,1.579,12.6l4.8,26h11.4l8.817-49.629h-9.017Zm29.171-16.9a11.713,11.713,0,0,0-10.193,5.26Q257.2,25.4,257.2,34.775q0,9.229,4.04,14.273a13.4,13.4,0,0,0,11.05,5.038,19.44,19.44,0,0,0,10.295-2.614V44.042a17.267,17.267,0,0,1-8.919,2.744,6.465,6.465,0,0,1-5.369-2.458q-1.944-2.461-2.044-7.521h17.939V31.987q0-8.108-3.525-12.607A11.543,11.543,0,0,0,271.044,14.882Zm-4.661,15.377a13.97,13.97,0,0,1,1.441-6.367,3.638,3.638,0,0,1,3.154-2.055,3.574,3.574,0,0,1,3.216,2.142,13.878,13.878,0,0,1,1.241,6.28ZM314.97,20.008q-2.918-5.124-8.015-5.126a7.8,7.8,0,0,0-4.392,1.256,11.518,11.518,0,0,0-3.557,4.378h-.468q.408-5.091.436-5.942c.022-.563.033-1.107.033-1.626V.591h-8.919v52.82h6.574l1.51-4.316h.57a10.794,10.794,0,0,0,3.637,3.888,8.771,8.771,0,0,0,4.443,1.1q5.2,0,8.131-5.126t2.933-14.527Q317.885,25.133,314.97,20.008ZM303.939,46.314a3.912,3.912,0,0,1-3.775-2.683q-1.154-2.679-1.158-9.264V33.45q.071-6.077,1.191-8.487a3.794,3.794,0,0,1,3.674-2.41q4.9,0,4.9,11.747Q308.767,46.311,303.939,46.314Z" transform="translate(-17.154 -0.591)" fill="#fff"/>
      </g>
    </g>
  </g>
</svg>
