<svg xmlns="http://www.w3.org/2000/svg" width="140" height="20.632" viewBox="0 0 140 20.632">
  <g id="Grupo_6429" data-name="Grupo 6429" transform="translate(0 -0.591)">
    <path id="Caminho_2844" data-name="Caminho 2844"
      d="M12.15,1.59c-.186-.064-.378-.132-.578-.19C8.4.46,6.635,2,6.166,3.588c-.643,2.17.452,3.655,3.291,5.842,3.479,2.681,4.92,5.169,3.91,8.583a6.79,6.79,0,0,1-1.477,2.666A10.365,10.365,0,0,0,12.15,1.59Z"
      transform="translate(2.395 0.209)" fill="#ffffff" />
    <path id="Caminho_2845" data-name="Caminho 2845"
      d="M9.611,11.267C6.219,8.8,4.456,6.143,5.424,2.871A6.44,6.44,0,0,1,6,1.52,10.371,10.371,0,0,0,1.792,16.745a8.143,8.143,0,0,0,4.563,3.112c3.087.853,5.575-.332,6.268-2.677C13.266,15.01,12.393,13.4,9.611,11.267Z"
      transform="translate(0 0.372)" fill="#ffffff" />
    <g id="Grupo_6420" data-name="Grupo 6420" transform="translate(24.016 0.591)">
      <g id="Grupo_6419" data-name="Grupo 6419">
        <path id="Caminho_2846" data-name="Caminho 2846"
          d="M23.244,10.135A8.131,8.131,0,0,1,21.323,8.5a2.7,2.7,0,0,1-.549-1.688,2.413,2.413,0,0,1,.458-1.553,1.591,1.591,0,0,1,1.313-.568A3.665,3.665,0,0,1,24,4.977a11.068,11.068,0,0,1,1.3.654l1.163-2.855a7.873,7.873,0,0,0-4.178-1.231,4.735,4.735,0,0,0-3.627,1.441,5.477,5.477,0,0,0-1.351,3.9,6.746,6.746,0,0,0,.343,2.251,5.874,5.874,0,0,0,.97,1.747,8.918,8.918,0,0,0,1.842,1.63,9.12,9.12,0,0,1,2,1.761,2.813,2.813,0,0,1,.608,1.749,2.2,2.2,0,0,1-.511,1.532,1.943,1.943,0,0,1-1.519.563,7.213,7.213,0,0,1-3.892-1.4v3.522a8.388,8.388,0,0,0,4.2.981,5.046,5.046,0,0,0,3.86-1.425,5.8,5.8,0,0,0,1.338-4.112,6.026,6.026,0,0,0-.731-2.986A8.056,8.056,0,0,0,23.244,10.135ZM28.7,20.962h3.44V6.377H28.7V20.962ZM30.447.7a1.871,1.871,0,0,0-1.39.5,1.86,1.86,0,0,0-.5,1.369,1.808,1.808,0,0,0,.518,1.38,1.906,1.906,0,0,0,1.371.491,1.853,1.853,0,0,0,1.331-.491,1.806,1.806,0,0,0,.518-1.38A1.848,1.848,0,0,0,31.791,1.2,1.821,1.821,0,0,0,30.447.7ZM48.965,6.1A3.678,3.678,0,0,0,45.434,8.63h-.129A3.431,3.431,0,0,0,41.787,6.1a3.79,3.79,0,0,0-1.919.517,3.512,3.512,0,0,0-1.415,1.63h-.221l-.413-1.872H35.089V20.962h3.44v-7a10.062,10.062,0,0,1,.5-3.758,1.684,1.684,0,0,1,1.617-1.14q1.59,0,1.59,3.207v8.694h3.465V13.878a10,10,0,0,1,.491-3.671,1.678,1.678,0,0,1,1.63-1.147q1.565,0,1.565,3.207v8.694h3.466V11.444a6.724,6.724,0,0,0-.99-3.98A3.362,3.362,0,0,0,48.965,6.1Zm6.7,14.86H59.1V6.377h-3.44ZM57.41.7a1.87,1.87,0,0,0-1.39.5,1.866,1.866,0,0,0-.5,1.369,1.813,1.813,0,0,0,.518,1.38,1.906,1.906,0,0,0,1.371.491,1.853,1.853,0,0,0,1.331-.491,1.811,1.811,0,0,0,.518-1.38,1.852,1.852,0,0,0-.5-1.369A1.827,1.827,0,0,0,57.41.7Zm4.642,20.266h3.44V.591h-3.44ZM73.277,6.076a8.486,8.486,0,0,0-4.669,1.375L69.8,9.859a5.924,5.924,0,0,1,2.974-1.021q1.745,0,1.746,2.041v1.049l-1.914.078a5.874,5.874,0,0,0-3.731,1.238,4.37,4.37,0,0,0-1.247,3.423,5.444,5.444,0,0,0,.911,3.352,2.965,2.965,0,0,0,2.5,1.2,3.972,3.972,0,0,0,2.057-.484,4.932,4.932,0,0,0,1.576-1.767h.077l.687,1.991h2.52V11.169a5.439,5.439,0,0,0-1.2-3.765A4.446,4.446,0,0,0,73.277,6.076Zm1.24,9.282a4.114,4.114,0,0,1-.561,2.285,1.727,1.727,0,0,1-1.506.857q-1.268,0-1.267-1.806a2.676,2.676,0,0,1,.549-1.834,2.392,2.392,0,0,1,1.726-.68l1.06-.052v1.231Zm10.8-8.666a5.3,5.3,0,0,0-1.242,1.963h-.116L83.57,6.377H80.739V20.962h3.44v-7.5a5.238,5.238,0,0,1,.672-2.913,2.184,2.184,0,0,1,1.926-1,2.809,2.809,0,0,1,.945.132l.4-3.378a4,4,0,0,0-1.242-.2A2.312,2.312,0,0,0,85.316,6.692Zm18.507,5.93q-.208,1.243-.661,5.118-.231-2.619-.633-5.041L100.511,1.822H96.864L94.847,12.7q-.283,1.508-.608,5.015-.414-3.469-.659-5.092l-1.694-10.8H88.434l3.426,19.141h4.4l1.8-9.976.531-3.941.1-.969a35.47,35.47,0,0,0,.609,4.858l1.849,10.028h4.4l3.4-19.141h-3.478Zm11.25-6.52a4.517,4.517,0,0,0-3.931,2.029,9.781,9.781,0,0,0-1.41,5.643,8.6,8.6,0,0,0,1.558,5.5,5.169,5.169,0,0,0,4.262,1.943,7.5,7.5,0,0,0,3.97-1.008V17.349a6.659,6.659,0,0,1-3.44,1.058,2.493,2.493,0,0,1-2.071-.948,4.8,4.8,0,0,1-.788-2.9h6.919V12.7a7.706,7.706,0,0,0-1.359-4.862A4.452,4.452,0,0,0,115.073,6.1Zm-1.8,5.93a5.388,5.388,0,0,1,.556-2.456,1.4,1.4,0,0,1,1.217-.792,1.379,1.379,0,0,1,1.24.826,5.352,5.352,0,0,1,.479,2.422ZM132.014,8.08A3.439,3.439,0,0,0,128.923,6.1a3.006,3.006,0,0,0-1.694.484,4.442,4.442,0,0,0-1.372,1.688h-.181q.158-1.964.168-2.292c.008-.217.013-.427.013-.627V.591h-3.44V20.962h2.535l.582-1.665h.22a4.163,4.163,0,0,0,1.4,1.5,3.383,3.383,0,0,0,1.714.426,3.477,3.477,0,0,0,3.136-1.977,11.39,11.39,0,0,0,1.131-5.6A11.363,11.363,0,0,0,132.014,8.08ZM127.76,18.225a1.509,1.509,0,0,1-1.456-1.035,9.987,9.987,0,0,1-.447-3.573v-.354a8.842,8.842,0,0,1,.459-3.273,1.463,1.463,0,0,1,1.417-.93q1.888,0,1.889,4.53Q129.622,18.224,127.76,18.225Z"
          transform="translate(-17.154 -0.591)" fill="#ffffff" />
      </g>
    </g>
  </g>
</svg>