<?xml version="1.0" encoding="utf-8"?>
<!DOCTYPE svg PUBLIC "-//W3C//DTD SVG 1.0//EN" "http://www.w3.org/TR/2001/REC-SVG-20010904/DTD/svg10.dtd">
<svg version="1.0" xmlns="http://www.w3.org/2000/svg" width="32px" height="32px" viewBox="0 0 32 32" preserveAspectRatio="xMidYMid meet">
 <g fill="#fdfdfd">
  <path d="M0 16 l0 -16 16 0 16 0 0 16 0 16 -16 0 -16 0 0 -16z m18.40 8.15 c0.15 -1.05 0.05 -1.10 -2 -0.85 -2.80 0.40 -5.70 -0.75 -6.40 -2.55 -0.30 -0.75 -0.50 -2.35 -0.50 -3.55 0 -1.85 0.30 -2.55 1.45 -3.75 1.25 -1.20 1.90 -1.45 4 -1.45 4.60 0 6.35 1.75 5.95 6.25 -0.15 2.05 -0.05 2.25 1 2.25 1.70 0 2.10 -1.75 2.10 -9.05 l0 -6.45 -1.25 0 c-1.20 0 -1.25 0.15 -1.25 2.75 0 2.65 -0.05 2.75 -1.40 2.75 -0.75 0 -2.15 -0.20 -3.10 -0.50 -4.40 -1.25 -10.30 4.85 -8.85 9.25 1.25 3.85 4.60 6.35 8.10 6.15 1.65 -0.15 2.05 -0.35 2.15 -1.25z"/>
 </g>
 <g fill="#0c0a07">
  <path d="M12.80 26.85 c-4.15 -1.05 -7.35 -6.25 -6.55 -10.80 0.45 -2.75 2.70 -5.70 5.35 -7 2.40 -1.15 4.25 -1.30 6.75 -0.60 l1.60 0.45 0.15 -2.80 0.15 -2.85 2.65 0 2.60 0 0 8.25 c0 6.25 -0.20 8.60 -0.75 9.65 -0.40 0.75 -0.60 1.70 -0.40 2.10 0.15 0.50 -0.05 0.75 -0.70 0.75 -1.20 0 -2.15 0.95 -2.15 2.15 0 0.75 -0.15 0.85 -0.65 0.40 -0.40 -0.30 -0.85 -0.35 -1.15 -0.10 -0.70 0.70 -4.75 0.95 -6.90 0.40z m6.10 -7.55 c2.30 -4.70 -4.30 -7.95 -7.20 -3.55 -1.95 3 1.55 6.95 5 5.55 0.85 -0.35 1.85 -1.25 2.20 -2z"/>
 </g>
 <g fill="#76b900">
  <path d="M20.80 26.55 c-1.30 -1.40 -0.60 -3.40 1.35 -3.85 1.25 -0.25 1.70 -0.10 2.40 0.85 1.15 1.50 1.15 2.10 0.05 3.10 -1.20 1.10 -2.75 1.05 -3.80 -0.10z"/>
 </g>
</svg>