<svg id="Grupo_10416" data-name="Grupo 10416" xmlns="http://www.w3.org/2000/svg"
  xmlns:xlink="http://www.w3.org/1999/xlink" width="466.484" height="188.592"
  viewBox="0 0 466.484 188.592">
  <defs>
    <clipPath id="clip-path">
      <rect id="Ret창ngulo_3241" data-name="Ret창ngulo 3241" width="466.484" height="188.592"
        fill="none" />
    </clipPath>
  </defs>
  <path id="Caminho_4474" data-name="Caminho 4474"
    d="M9.741,1.923h21.12V7.349H15.9v7.675h11V20.5h-11v8.506H31.985v5.525H9.741Z"
    transform="translate(-5.283 -1.043)" fill="#ff6900" />
  <g id="Grupo_10205" data-name="Grupo 10205">
    <g id="Grupo_10204" data-name="Grupo 10204" clip-path="url(#clip-path)">
      <path id="Caminho_4475" data-name="Caminho 4475"
        d="M88.6,24.3a18.506,18.506,0,0,0,1.393,1.442A13.307,13.307,0,0,0,91.8,27.158a10.293,10.293,0,0,0,2.249,1.1,8.408,8.408,0,0,0,2.811.44,6.029,6.029,0,0,0,4.277-1.32,4.218,4.218,0,0,0,1.394-3.178,4.153,4.153,0,0,0-.391-1.833,3.625,3.625,0,0,0-1.32-1.418,10.264,10.264,0,0,0-2.42-1.1,32.925,32.925,0,0,0-3.691-.929,12.828,12.828,0,0,1-3.887-1.369,9.867,9.867,0,0,1-2.713-2.2A8.8,8.8,0,0,1,86.5,12.54a9.481,9.481,0,0,1-.538-3.153,9.33,9.33,0,0,1,.685-3.544,8.165,8.165,0,0,1,2.1-2.982A10.62,10.62,0,0,1,92.292.782,14.527,14.527,0,0,1,97.3,0a14.868,14.868,0,0,1,4.449.587,13.56,13.56,0,0,1,3.1,1.369,9.183,9.183,0,0,1,1.931,1.54q.684.758.978,1.1l-4.057,3.813q-.245-.195-.783-.709a7.816,7.816,0,0,0-1.344-1,10.273,10.273,0,0,0-1.931-.88,7.727,7.727,0,0,0-2.542-.391,6.369,6.369,0,0,0-2.2.342,4.841,4.841,0,0,0-1.54.88,3.477,3.477,0,0,0-.9,1.2,3.081,3.081,0,0,0-.293,1.247,3.669,3.669,0,0,0,.318,1.565,3.5,3.5,0,0,0,1.076,1.271,7.446,7.446,0,0,0,2.077,1.051,24.039,24.039,0,0,0,3.325.856,17.847,17.847,0,0,1,3.666,1.173,11.248,11.248,0,0,1,3.1,2.029,9.3,9.3,0,0,1,2.151,3.031,10.325,10.325,0,0,1,.807,4.278,8.926,8.926,0,0,1-.88,3.96,10,10,0,0,1-2.444,3.178,11.247,11.247,0,0,1-3.716,2.127,14.048,14.048,0,0,1-4.693.758,15.557,15.557,0,0,1-4.425-.587,16.882,16.882,0,0,1-3.569-1.491,14.357,14.357,0,0,1-2.737-1.98A19.617,19.617,0,0,1,84.3,28.257Z"
        transform="translate(-45.717)" fill="#ff6900" />
      <path id="Caminho_4476" data-name="Caminho 4476"
        d="M197.052,27.64a12.083,12.083,0,0,1-2.029,2.3,17.261,17.261,0,0,1-3.055,2.175,18.679,18.679,0,0,1-3.863,1.638,15.3,15.3,0,0,1-4.449.636,17.153,17.153,0,0,1-6.7-1.271,15.553,15.553,0,0,1-5.231-3.545,16.2,16.2,0,0,1-3.422-5.353,18.128,18.128,0,0,1-1.222-6.747,18.239,18.239,0,0,1,1.222-6.7A16.7,16.7,0,0,1,171.752,5.3a16.379,16.379,0,0,1,12.1-5.084,17.737,17.737,0,0,1,4.4.513,16.131,16.131,0,0,1,3.643,1.394A13.632,13.632,0,0,1,194.8,4.2a17.648,17.648,0,0,1,2.249,2.567L192.7,10.627a13.507,13.507,0,0,0-3.643-3.617,9.281,9.281,0,0,0-5.207-1.369,9.485,9.485,0,0,0-4.3.953A10.167,10.167,0,0,0,176.3,9.136a11.13,11.13,0,0,0-2.053,3.715,14.048,14.048,0,0,0-.709,4.473,13.386,13.386,0,0,0,.709,4.4,10.659,10.659,0,0,0,2.029,3.569,9.692,9.692,0,0,0,3.153,2.4,9.422,9.422,0,0,0,4.131.88,11.6,11.6,0,0,0,3.593-.489,9.555,9.555,0,0,0,4.3-2.762q.709-.807,1.3-1.393Z"
        transform="translate(-90.613 -0.116)" fill="#ff6900" />
      <path id="Caminho_4477" data-name="Caminho 4477"
        d="M272.813,34.368a16.435,16.435,0,0,1-6.649-1.344,16.913,16.913,0,0,1-5.378-3.691,17.408,17.408,0,0,1-3.618-5.476,17.046,17.046,0,0,1-1.32-6.7,17.053,17.053,0,0,1,1.32-6.7,17.347,17.347,0,0,1,3.593-5.451A16.77,16.77,0,0,1,272.813,0a16.447,16.447,0,0,1,6.649,1.344A17.122,17.122,0,0,1,289.778,17.16a17.054,17.054,0,0,1-1.32,6.7,17.432,17.432,0,0,1-3.618,5.476,16.922,16.922,0,0,1-5.378,3.691,16.439,16.439,0,0,1-6.649,1.344m0-5.818a9.924,9.924,0,0,0,7.675-3.447,11.283,11.283,0,0,0,2.1-3.691,13.633,13.633,0,0,0,0-8.824,11.069,11.069,0,0,0-2.1-3.642,9.874,9.874,0,0,0-3.325-2.469,10.978,10.978,0,0,0-8.727,0,9.937,9.937,0,0,0-3.3,2.469,11.061,11.061,0,0,0-2.1,3.642,13.642,13.642,0,0,0,0,8.824,11.274,11.274,0,0,0,2.1,3.691,9.824,9.824,0,0,0,7.676,3.447"
        transform="translate(-138.753 0)" fill="#ff6900" />
      <path id="Caminho_4478" data-name="Caminho 4478"
        d="M360.21,1.923h6.16V29.056h16.085v5.476H360.21Z" transform="translate(-195.35 -1.043)"
        fill="#ff6900" />
      <path id="Caminho_4479" data-name="Caminho 4479"
        d="M444.36,1.923h6.355l12.369,32.609H456.24L453.4,26.269H441.28l-2.835,8.262h-6.453Zm7.284,19.262-4.3-12.662-4.351,12.662Z"
        transform="translate(-234.278 -1.043)" fill="#ff6900" />
      <path id="Caminho_4480" data-name="Caminho 4480"
        d="M570.924,1.923H583.1a23.7,23.7,0,0,1,6.991.978,14.87,14.87,0,0,1,5.475,2.982,13.348,13.348,0,0,1,3.569,5.133A19.556,19.556,0,0,1,600.4,18.4a17.757,17.757,0,0,1-1.3,7.064,13.87,13.87,0,0,1-3.617,5.035,15.184,15.184,0,0,1-5.5,3.031,22.983,22.983,0,0,1-6.943,1H570.924Zm11.587,27.133q5.573,0,8.506-2.689T593.95,18.5a11.6,11.6,0,0,0-2.713-8.116Q588.524,7.4,582.511,7.4h-5.427V29.056Z"
        transform="translate(-309.625 -1.043)" fill="#ff6900" />
      <path id="Caminho_4481" data-name="Caminho 4481"
        d="M667.243,1.923h21.12V7.349H673.4v7.675h11V20.5h-11v8.506h16.085v5.525H667.243Z"
        transform="translate(-361.861 -1.043)" fill="#ff6900" />
      <path id="Caminho_4482" data-name="Caminho 4482"
        d="M108.079,116.311h11.662v25.762a9.817,9.817,0,0,0,1.68,5.93q1.68,2.307,5.567,2.306t5.535-2.339a10,10,0,0,0,1.647-5.9V116.311h11.794v26.816a19.991,19.991,0,0,1-1.384,7.61,16.1,16.1,0,0,1-3.92,5.765,17.258,17.258,0,0,1-6,3.624,22.23,22.23,0,0,1-7.61,1.252,22.512,22.512,0,0,1-7.643-1.252,17.448,17.448,0,0,1-6.029-3.591,15.772,15.772,0,0,1-3.92-5.732,20.175,20.175,0,0,1-1.384-7.676Z"
        transform="translate(-58.614 -63.078)" fill="#ffffff"/>
      <path id="Caminho_4483" data-name="Caminho 4483"
        d="M215.3,126.523H201.8V116.31h38.676v10.213H227.1v33.734H215.3Z"
        transform="translate(-109.438 -63.078)" fill="#ffffff"/>
      <path id="Caminho_4484" data-name="Caminho 4484"
        d="M297.817,116.311H316a20.935,20.935,0,0,1,6.424.922,13.562,13.562,0,0,1,4.909,2.735,12.17,12.17,0,0,1,3.163,4.513,16.25,16.25,0,0,1,1.12,6.259,14.426,14.426,0,0,1-1.911,7.544,14.664,14.664,0,0,1-5.073,5.106l9.422,16.867H321.536L314.091,145.3h-4.876v14.956h-11.4Zm17.064,19.832a5.144,5.144,0,0,0,3.756-1.417,5.058,5.058,0,0,0,1.449-3.789,5.491,5.491,0,0,0-1.384-3.953,5.122,5.122,0,0,0-3.887-1.449h-5.6v10.608Z"
        transform="translate(-161.513 -63.078)" fill="#ffffff"/>
      <rect id="Ret창ngulo_3240" data-name="Ret창ngulo 3240" width="11.662" height="43.947"
        transform="translate(177.681 53.233)" fill="#ffffff"/>
      <path id="Caminho_4485" data-name="Caminho 4485"
        d="M469.668,150.683a23.863,23.863,0,0,1-19.568,9.29,24.468,24.468,0,0,1-9.29-1.713,20.9,20.9,0,0,1-11.893-11.992,24.882,24.882,0,0,1-1.68-9.29,25.4,25.4,0,0,1,1.647-9.257,21.793,21.793,0,0,1,4.678-7.379,21.3,21.3,0,0,1,7.248-4.876,24.062,24.062,0,0,1,9.29-1.746,28.827,28.827,0,0,1,10.608,1.911,18.145,18.145,0,0,1,8.236,6.654l-7.709,7.775a14.8,14.8,0,0,0-4.415-4.019,11.326,11.326,0,0,0-5.864-1.515,12.563,12.563,0,0,0-4.942.922,10.225,10.225,0,0,0-3.656,2.57,11.49,11.49,0,0,0-2.273,3.855,14.839,14.839,0,0,0,.033,9.652,11.531,11.531,0,0,0,2.339,3.887,10.577,10.577,0,0,0,3.657,2.57,11.939,11.939,0,0,0,4.777.922,12.639,12.639,0,0,0,6.226-1.351,16.6,16.6,0,0,0,4.711-4.25ZM444.274,166.5a12.079,12.079,0,0,0,3.839.64q.373,0,.88-.027a5.021,5.021,0,0,0,.933-.133,1.86,1.86,0,0,0,.746-.373.917.917,0,0,0,.32-.746.74.74,0,0,0-.293-.64,2.075,2.075,0,0,0-.693-.32,4.306,4.306,0,0,0-.88-.133q-.48-.027-.8-.027a16,16,0,0,0-1.839.107,8.351,8.351,0,0,0-1.84.426l.747-3.679a13.542,13.542,0,0,1,2.346-.427q1.172-.108,2.4-.107a11.313,11.313,0,0,1,2.32.24,6.345,6.345,0,0,1,2.053.8A4.606,4.606,0,0,1,456,163.595a4.174,4.174,0,0,1,.587,2.266,4.6,4.6,0,0,1-.666,2.533,5.5,5.5,0,0,1-1.733,1.706,7.593,7.593,0,0,1-2.373.96,12.053,12.053,0,0,1-2.639.293,26.056,26.056,0,0,1-2.879-.16,11.367,11.367,0,0,1-2.826-.693Z"
        transform="translate(-231.7 -61.673)" fill="#ffffff"/>
      <path id="Caminho_4486" data-name="Caminho 4486"
        d="M538.966,101.593h13.375L567.89,145.54H555.305l-2.833-9.092H537.78l-2.9,9.092H522.823Zm-7.511-8.27a14.639,14.639,0,0,1,3.854-2.965,9.8,9.8,0,0,1,4.711-1.186,6.6,6.6,0,0,1,2.372.428q1.12.429,2.24.988t2.24.988a6.565,6.565,0,0,0,2.373.428,7.905,7.905,0,0,0,3.261-.692,13.2,13.2,0,0,0,2.932-1.812l3.822,5.93A14.66,14.66,0,0,1,555.4,98.4a9.8,9.8,0,0,1-4.71,1.186,6.572,6.572,0,0,1-2.373-.428,21.676,21.676,0,0,1-2.206-.989,22.321,22.321,0,0,0-2.207-.988,6.6,6.6,0,0,0-2.373-.428,8.057,8.057,0,0,0-3.327.692,11.89,11.89,0,0,0-2.866,1.812ZM550.1,127.948l-4.876-16.142-5.073,16.142Z"
        transform="translate(-283.539 -48.36)" fill="#ffffff"/>
      <path id="Caminho_4487" data-name="Caminho 4487"
        d="M644.731,159.906a23.479,23.479,0,0,1-9.126-1.746,22.231,22.231,0,0,1-7.248-4.81,21.653,21.653,0,0,1-4.777-7.313,25.868,25.868,0,0,1,0-18.514,21.413,21.413,0,0,1,12.025-12.09,23.866,23.866,0,0,1,9.126-1.713,24.115,24.115,0,0,1,9.158,1.713,21.406,21.406,0,0,1,7.248,4.777,21.942,21.942,0,0,1,4.744,7.314,25.868,25.868,0,0,1,0,18.514,21.418,21.418,0,0,1-11.992,12.123,23.723,23.723,0,0,1-9.158,1.746m0-10.937a10.542,10.542,0,0,0,4.579-.955,9.947,9.947,0,0,0,3.393-2.6,11.446,11.446,0,0,0,2.108-3.887,15.883,15.883,0,0,0,0-9.488,11.464,11.464,0,0,0-2.108-3.887,9.964,9.964,0,0,0-3.393-2.6,11.455,11.455,0,0,0-9.159,0,9.952,9.952,0,0,0-3.393,2.6,11.446,11.446,0,0,0-2.108,3.887,15.884,15.884,0,0,0,0,9.488,11.429,11.429,0,0,0,2.108,3.887,9.935,9.935,0,0,0,3.393,2.6,10.539,10.539,0,0,0,4.579.955"
        transform="translate(-337.253 -61.672)" fill="#ffffff"/>
      <path id="Caminho_4488" data-name="Caminho 4488"
        d="M9.75,109.082,17.4,96.948l19.817,33.336V110.359l11.526-2.819v42.175H38.8l-17.52-25.226v25.226H9.75Z"
        transform="translate(-5.288 -52.577)" fill="#ffffff"/>
      <path id="Caminho_4489" data-name="Caminho 4489"
        d="M49.465,96.489a4.457,4.457,0,0,0-4.423,3.923l-9.274,2.406a4.456,4.456,0,1,0-5.061,6.542v11.173l-.012,0L15.351,94.723a4.459,4.459,0,1,0-6.556-.086l-3.08,4.887a4.474,4.474,0,1,0,2.064,1.308l3.082-4.889a4.368,4.368,0,0,0,2.39.029l15.373,25.862a4.456,4.456,0,1,0,4.526-1.3V109.36a4.456,4.456,0,0,0,3.231-4.177l9.05-2.347a4.457,4.457,0,1,0,4.034-6.346"
        transform="translate(0 -47.294)" fill="#a59c94" />
      <path id="Caminho_4490" data-name="Caminho 4490"
        d="M778.592,269.132a14.768,14.768,0,0,0-5.679-3.837,19.237,19.237,0,0,0-6.73-1.184,16.418,16.418,0,0,0-8.208,1.847,17.849,17.849,0,0,0-4.772,3.647,4.9,4.9,0,0,0-2.767-3.5,11.684,11.684,0,0,0-5.345-1.043,50.353,50.353,0,0,0-5.828.667s1.3,14.812,1.3,28.36c0,11.523-.417,33.792-.417,33.792s4.536-1.828,6.9-2.844a16.027,16.027,0,0,0,5.452-3.571c1.3-1.543,1.421-3.883,1.384-7.061l-.125-7.173a7.912,7.912,0,0,0,.878.934,9.241,9.241,0,0,0,2.194,1.516,19.479,19.479,0,0,0,3.483,1.374,16.885,16.885,0,0,0,4.821.616,20.806,20.806,0,0,0,6.633-1.137,15.245,15.245,0,0,0,6.108-3.932,20.756,20.756,0,0,0,4.439-7.579,36.517,36.517,0,0,0,1.718-12.174,33.652,33.652,0,0,0-1.479-10.7,19.146,19.146,0,0,0-3.961-7.011m-10.4,28.61a7.767,7.767,0,0,1-7.159,3.789,9.484,9.484,0,0,1-4.533-1.042,14.271,14.271,0,0,1-2.821-1.907c-.15-6.807.265-17.38.355-18.746s.416-3.331,1.465-4.341,2.768-1.722,5.44-1.722a9.518,9.518,0,0,1,4.534.995,7.625,7.625,0,0,1,2.959,2.795A12.884,12.884,0,0,1,770,281.826a28.04,28.04,0,0,1,.476,5.306q0,6.821-2.289,10.61"
        transform="translate(-400.919 -143.233)" fill="#ff6900" />
      <path id="Caminho_4491" data-name="Caminho 4491"
        d="M49.509,266.324c-4.534-3.434-10.262-5.15-20.135-5.15-2.553,0-4.957.084-8.113.25s-8.53.417-11.552.75a66.512,66.512,0,0,1,.883,9.059c.237,6.056.483,14.652.483,24.243,0,9.934-.264,18.8-.509,24.883a56.208,56.208,0,0,1-.829,8.236H27.255a56.157,56.157,0,0,1-.829-8.236c-.164-4.076-.335-9.411-.432-15.471v-.012h4.287a45.029,45.029,0,0,0,10.543-1.2A21.506,21.506,0,0,0,49,299.819a19.7,19.7,0,0,0,6-7.344,24.736,24.736,0,0,0,2.217-11,18.507,18.507,0,0,0-7.708-15.151M38.257,291.785a16.863,16.863,0,0,1-9.539,2.738h-2.8c.015-9.095.247-17.234.474-23.073.865-.083,2.966-.269,4.567-.269a12.587,12.587,0,0,1,7.54,2.5,10.684,10.684,0,0,1,4.1,8.692c0,4.675-1.9,7.59-4.347,9.415"
        transform="translate(-5.265 -141.64)" fill="#ff6900" />
      <path id="Caminho_4492" data-name="Caminho 4492"
        d="M150.731,308.811c0-.914-.046-3.727-4.3-4.631a8.533,8.533,0,0,0-7.458,1.915,15.226,15.226,0,0,0-3.4,3.921,6.045,6.045,0,0,0-2.914-4.075,10.479,10.479,0,0,0-5.481-.925,41.256,41.256,0,0,0-6.283,1.036s.27,1.78.631,7.361c.277,4.289.308,15.994.308,15.994s.109,8.34-.285,14.74c-.4,6.559-.614,7.63-.614,7.63h16.037s-.443-2.428-.8-7.522-.26-8.586-.251-14.846-.054-9.5,1.92-11.815c1.514-1.774,3.518-2.686,6.84-1.466a7.8,7.8,0,0,1,2.564,1.7,25.1,25.1,0,0,0,2.035-3.66,16.2,16.2,0,0,0,1.454-5.358"
        transform="translate(-65.561 -164.853)" fill="#ff6900" />
      <path id="Caminho_4493" data-name="Caminho 4493"
        d="M226.781,310.818c-4.194-4.31-9.709-6.772-17.2-6.712a28.751,28.751,0,0,0-8.685,1.373,21.458,21.458,0,0,0-7.6,4.313,22.518,22.518,0,0,0-5.847,7.4,26.083,26.083,0,0,0-2.152,10.731,29.38,29.38,0,0,0,2.411,12.4,22.233,22.233,0,0,0,6.416,7.892,21.582,21.582,0,0,0,8.375,4.118,39.305,39.305,0,0,0,9.565,1.176,34.606,34.606,0,0,0,9.357-1.127,19.841,19.841,0,0,0,6.152-2.7q2.585-1.765,2.585-3.921A8.082,8.082,0,0,0,228.816,342a27.009,27.009,0,0,0-2.585-3.775q-.93.785-2.068,1.715a14.642,14.642,0,0,1-2.688,1.716,18.727,18.727,0,0,1-3.516,1.323,17.237,17.237,0,0,1-4.549.539q-6.724,0-9.823-3.578a12.925,12.925,0,0,1-3.516-8.221l30.87-.748a41.646,41.646,0,0,0,.611-6.014c0-6.4-1.319-10.587-4.77-14.135m-26.814,13.545c0-3.333.765-6.383,2.419-8.245a9.006,9.006,0,0,1,6.887-3.09c3.309,0,6,1.339,7.275,3.3a12.564,12.564,0,0,1,1.784,7.288Z"
        transform="translate(-100.491 -164.923)" fill="#ff6900" />
      <path id="Caminho_4494" data-name="Caminho 4494"
        d="M549.018,310.818c-4.194-4.31-9.709-6.772-17.2-6.712a28.748,28.748,0,0,0-8.685,1.373,21.458,21.458,0,0,0-7.6,4.313,22.513,22.513,0,0,0-5.847,7.4,26.084,26.084,0,0,0-2.153,10.731,29.38,29.38,0,0,0,2.411,12.4,22.233,22.233,0,0,0,6.416,7.892,21.583,21.583,0,0,0,8.375,4.118,39.3,39.3,0,0,0,9.565,1.176,34.607,34.607,0,0,0,9.358-1.127,19.849,19.849,0,0,0,6.152-2.7q2.585-1.765,2.586-3.921A8.078,8.078,0,0,0,551.053,342a27.018,27.018,0,0,0-2.585-3.775q-.931.785-2.068,1.715a14.64,14.64,0,0,1-2.688,1.716,18.734,18.734,0,0,1-3.516,1.323,17.233,17.233,0,0,1-4.549.539q-6.724,0-9.823-3.578a12.93,12.93,0,0,1-3.516-8.221l30.87-.748a41.646,41.646,0,0,0,.611-6.014c0-6.4-1.319-10.587-4.77-14.135M522.2,324.363c0-3.333.765-6.383,2.419-8.245a9.006,9.006,0,0,1,6.887-3.09c3.309,0,6,1.339,7.274,3.3a12.564,12.564,0,0,1,1.784,7.288Z"
        transform="translate(-275.247 -164.923)" fill="#ff6900" />
      <path id="Caminho_4495" data-name="Caminho 4495"
        d="M365.536,331s.068-10.22.068-11.987c0-5.013-1.384-9.072-4.32-11.692-2.2-1.965-6.546-3.21-10.83-3.21-6.151,0-9.314,1.694-13.758,6.361a10.675,10.675,0,0,0-4-4.4c-1.873-1.217-4.56-1.961-8.247-1.961-3.95,0-5.656.6-7.788,1.787a15.2,15.2,0,0,0-4.977,4.193c-1.135-4.043-3.781-5.139-8.378-5a33.431,33.431,0,0,0-6.3,1.036s.36,3.739.65,7.429c.319,4.055.394,11.5.306,17.189s-.2,10.211-.281,13.517-.617,7.592-.617,7.592h16.021a74.055,74.055,0,0,1-.8-7.535c-.119-3.307-.268-13.328-.268-13.328s.033-3.629.141-7.864,2.474-7.451,6.123-7.451c4.2,0,6.608,1.91,6.608,4.809l.1,10.505s-.037,9.171-.279,13.27-.62,7.592-.62,7.592h16.129s-.733-4.614-.865-7.719c-.19-4.462-.171-12.863-.171-12.863l.024-6.545c.1-5.1,1.732-9.075,6.19-9.075,3.2,0,5.9,1.591,5.9,4.845,0,0,.122,5.409.122,10.493s-.142,9.471-.239,13.233a69.536,69.536,0,0,1-.66,7.63h16.129s-.6-3.52-.852-7.626c-.164-2.682-.263-10.371-.263-13.228"
        transform="translate(-161.073 -164.924)" fill="#ff6900" />
      <path id="Caminho_4496" data-name="Caminho 4496"
        d="M476.486,332.1c0-4.294.857-18.1.857-18.1a8.714,8.714,0,0,0-.683-3.97c-.529-1.012-3.114-4.2-8.572-3.862a47.015,47.015,0,0,0-6.541,1.04,68.764,68.764,0,0,1,.654,7.512c.119,4.03.306,7.456.306,17.371,0,6.119-.341,13.206-.341,13.206-.283,4.066.7,5.941,2.312,7.019s4.467,1.317,7.035,1.317c1.053,0,5.825-.262,6.089-.392,0,0-.538-3.632-.854-7.647-.3-3.822-.262-6.368-.262-13.495"
        transform="translate(-250.307 -166.028)" fill="#ff6900" />
      <path id="Caminho_4497" data-name="Caminho 4497"
        d="M980.09,286.4a32.414,32.414,0,0,0-2.2-3.6q-.285.284-.953.853a8.909,8.909,0,0,1-1.67,1.089,17.492,17.492,0,0,1-2.2.948,7.485,7.485,0,0,1-2.53.426c-3.625,0-5.078-2.12-5.439-6.632,0,0-.322-4-.322-10.886a77.486,77.486,0,0,1,.334-9.2s5.513.12,8.189-.192c3.369-.394,3.709-9.662,3.709-9.662h-11.9v-6.632a8.33,8.33,0,0,0-.765-3.837,6.266,6.266,0,0,0-2-2.321,7.141,7.141,0,0,0-2.767-1.136,20.426,20.426,0,0,0-3.388-.284c-.511,0-1.019.016-1.528.047s-.986.08-1.431.142l-2.7.214a98.467,98.467,0,0,1,.963,13.808s-3.047-.094-3.047.422a40.65,40.65,0,0,0,1.879,9.133c.155.4,1.168.309,1.168.309s.3,3.985.3,9.186v11.077q0,2.084.192,4.168a16.314,16.314,0,0,0,.859,3.98,12.189,12.189,0,0,0,4.582,5.968q3.242,2.274,9.258,2.274a24.27,24.27,0,0,0,5.631-.616,17.743,17.743,0,0,0,4.39-1.611,11.783,11.783,0,0,0,3.137-2.179,3.725,3.725,0,0,0,1-2.416,6.359,6.359,0,0,0-.763-2.842"
        transform="translate(-514.368 -127.63)" fill="#ff6900" />
      <path id="Caminho_4498" data-name="Caminho 4498"
        d="M464.642,281.945a9.431,9.431,0,0,0,6.142.469,9.07,9.07,0,0,0,5.142-3.093,6.179,6.179,0,0,0,1.422-5.7,6.086,6.086,0,0,0-3.665-4.443,9.788,9.788,0,0,0-6.177-.417,9.445,9.445,0,0,0-5.26,3.2,6.527,6.527,0,0,0,2.4,9.976"
        transform="translate(-249.91 -145.589)" fill="#ff6900" />
      <path id="Caminho_4499" data-name="Caminho 4499"
        d="M992.442,241.74a5.877,5.877,0,0,1-1.188-1.966,6.837,6.837,0,0,1-.416-2.387,6.6,6.6,0,0,1,.425-2.378,5.746,5.746,0,0,1,1.216-1.948,5.811,5.811,0,0,1,1.926-1.325,6.971,6.971,0,0,1,5.142,0,5.715,5.715,0,0,1,1.916,1.325,5.841,5.841,0,0,1,1.207,1.948,6.616,6.616,0,0,1,.424,2.378,6.69,6.69,0,0,1-.424,2.387,5.865,5.865,0,0,1-1.216,1.966,5.731,5.731,0,0,1-1.926,1.333,6.988,6.988,0,0,1-5.151,0,5.711,5.711,0,0,1-1.935-1.333m2.4.4a5.177,5.177,0,0,0,2.138.422,5.022,5.022,0,0,0,2.128-.431,4.733,4.733,0,0,0,1.566-1.141,4.874,4.874,0,0,0,.968-1.649,5.85,5.85,0,0,0,.331-1.957,5.768,5.768,0,0,0-.331-1.948,4.908,4.908,0,0,0-.968-1.641,4.636,4.636,0,0,0-1.566-1.132,5.106,5.106,0,0,0-2.128-.421,5.046,5.046,0,0,0-2.12.421A4.665,4.665,0,0,0,993.3,233.8a4.921,4.921,0,0,0-.967,1.641,5.744,5.744,0,0,0-.331,1.948,5.541,5.541,0,0,0,.727,2.834,4.763,4.763,0,0,0,2.11,1.923m-.148-8.495c.344-.035.715-.062,1.115-.079s.722-.027.968-.027a3.509,3.509,0,0,1,2.331.623,2,2,0,0,1,.71,1.57,2.258,2.258,0,0,1-.149.834,2.167,2.167,0,0,1-.386.65,2.2,2.2,0,0,1-.562.456,2.263,2.263,0,0,1-.654.254h.036l1.9,3a1.261,1.261,0,0,1-.342.123,1.7,1.7,0,0,1-.323.035,1.231,1.231,0,0,1-.525-.115,1.022,1.022,0,0,1-.434-.412l-1.566-2.475h-.958V241H994.69Zm2.322,3.405q1.586,0,1.585-1.3a1.015,1.015,0,0,0-.415-.878,2.368,2.368,0,0,0-1.355-.3c-.22,0-.411,0-.571.009a3.6,3.6,0,0,0-.442.043h.037v2.423Z"
        transform="translate(-537.354 -125.409)" fill="#ff6900" />
      <path id="Caminho_4500" data-name="Caminho 4500"
        d="M886.833,270.471c-4.053-4.166-9.383-6.544-16.62-6.487a27.792,27.792,0,0,0-8.393,1.327,20.73,20.73,0,0,0-7.344,4.168,21.748,21.748,0,0,0-5.65,7.153A25.206,25.206,0,0,0,846.745,287a28.4,28.4,0,0,0,2.33,11.988,21.485,21.485,0,0,0,6.2,7.626,20.851,20.851,0,0,0,8.094,3.979,37.965,37.965,0,0,0,9.243,1.136,33.447,33.447,0,0,0,9.043-1.089,19.187,19.187,0,0,0,5.945-2.606q2.5-1.706,2.5-3.789a7.808,7.808,0,0,0-1.3-3.647,26.142,26.142,0,0,0-2.5-3.648q-.9.759-2,1.658a14.141,14.141,0,0,1-2.6,1.658,18.113,18.113,0,0,1-3.4,1.279,16.668,16.668,0,0,1-4.4.521q-6.5,0-9.493-3.458a12.494,12.494,0,0,1-3.4-7.945l29.832-.723a40.255,40.255,0,0,0,.59-5.812c0-6.185-1.274-10.231-4.609-13.66m-25.912,13.089c0-3.221.739-6.168,2.338-7.968a8.7,8.7,0,0,1,6.655-2.986c3.2,0,5.8,1.294,7.03,3.189a12.141,12.141,0,0,1,1.724,7.042Z"
        transform="translate(-459.209 -143.164)" fill="#ff6900" />
      <path id="Caminho_4501" data-name="Caminho 4501"
        d="M670.152,326c-2.087-2.5-5.015-6.082-7.458-9.272s-5.9-8.828-5.9-8.828l-3.58-5.784a24.51,24.51,0,0,0,3.757-2.3,19.7,19.7,0,0,0,6-7.344,24.738,24.738,0,0,0,2.217-11,18.507,18.507,0,0,0-7.708-15.151c-4.534-3.433-10.262-5.15-20.135-5.15-2.553,0-4.957.085-8.113.25s-8.53.417-11.552.75a66.508,66.508,0,0,1,.883,9.059c.237,6.055.483,14.651.483,24.243,0,9.934-.264,18.8-.509,24.883a56.2,56.2,0,0,1-.829,8.236h17.518a56.152,56.152,0,0,1-.829-8.236c-.164-4.075-.335-9.41-.432-15.471v-.012h4.287c.108,0,.212-.008.32-.009l10.664,18.013a14.642,14.642,0,0,0,4.543,5.1,11.2,11.2,0,0,0,6.122,1.568,38.274,38.274,0,0,0,11.44-2.146s-.785-.913-1.189-1.4m-36.263-31.482c.016-9.095.247-17.234.474-23.074.865-.083,2.966-.268,4.567-.268a12.589,12.589,0,0,1,7.539,2.5,10.685,10.685,0,0,1,4.1,8.692c0,4.676-1.9,7.59-4.347,9.415a16.864,16.864,0,0,1-9.539,2.738Z"
        transform="translate(-334.981 -141.64)" fill="#ff6900" />
    </g>
  </g>
</svg>