<?xml version="1.0" encoding="utf-8"?>
<svg viewBox="0 0 1358.9867 539.88" xmlns="http://www.w3.org/2000/svg">
  <path d="M 14.075 2.546 L 78.62 2.546 L 78.62 21.229 L 35.449 21.229 L 35.449 39.631 L 68.995 39.631 L 68.995 57.748 L 35.449 57.748 L 35.449 78.131 L 81.734 78.131 L 81.734 96.957 L 14.075 96.957 L 14.075 2.546" style="fill-opacity: 1; fill-rule: nonzero; stroke: none; fill: rgb(255, 105, 0);" id="path12"/>
  <path d="M 120.516 68.789 C 121.741 70.112 123.181 71.456 124.834 72.824 C 126.482 74.192 128.323 75.441 130.353 76.575 C 132.381 77.707 134.6 78.627 137.006 79.335 C 139.412 80.043 141.982 80.396 144.721 80.396 C 146.324 80.396 147.926 80.163 149.533 79.688 C 151.137 79.217 152.598 78.533 153.921 77.636 C 155.242 76.74 156.302 75.655 157.106 74.381 C 157.906 73.107 158.308 71.668 158.308 70.063 C 158.308 66.573 156.61 63.86 153.213 61.924 C 149.816 59.991 144.437 58.08 137.077 56.192 C 133.489 55.343 130.163 54.117 127.098 52.511 C 124.03 50.908 121.387 48.972 119.172 46.708 C 116.953 44.443 115.23 41.849 114.005 38.923 C 112.778 35.999 112.165 32.743 112.165 29.156 C 112.165 25.193 112.872 21.467 114.287 17.975 C 115.703 14.484 117.848 11.392 120.729 8.703 C 123.605 6.014 127.19 3.891 131.485 2.334 C 135.78 0.776 140.849 -0.002 146.702 -0.002 C 151.514 -0.002 155.761 0.494 159.441 1.484 C 163.121 2.475 166.257 3.656 168.853 5.023 C 171.448 6.392 173.572 7.808 175.223 9.268 C 176.873 10.734 178.126 11.888 178.974 12.736 L 166.661 26.325 C 165.621 25.476 164.417 24.556 163.05 23.565 C 161.682 22.575 160.149 21.655 158.45 20.805 C 156.753 19.955 154.886 19.248 152.858 18.681 C 150.829 18.116 148.684 17.832 146.418 17.832 C 144.908 17.832 143.422 18.069 141.96 18.54 C 140.496 19.013 139.176 19.651 137.997 20.451 C 136.816 21.253 135.873 22.197 135.166 23.281 C 134.458 24.368 134.105 25.524 134.105 26.751 C 134.105 29.96 135.804 32.553 139.201 34.535 C 142.597 36.516 147.269 38.169 153.213 39.489 C 156.704 40.339 160.125 41.496 163.476 42.957 C 166.824 44.421 169.82 46.332 172.464 48.689 C 175.105 51.049 177.227 53.951 178.833 57.395 C 180.437 60.841 181.238 65.016 181.238 69.921 C 181.238 74.168 180.294 78.085 178.407 81.669 C 176.519 85.257 173.949 88.372 170.694 91.012 C 167.438 93.655 163.617 95.708 159.229 97.169 C 154.841 98.631 150.1 99.363 145.004 99.363 C 140.285 99.363 135.99 98.915 132.122 98.019 C 128.252 97.12 124.762 95.944 121.649 94.48 C 118.535 93.019 115.726 91.344 113.226 89.455 C 110.725 87.569 108.577 85.633 106.786 83.652 L 120.516 68.789" style="fill-opacity: 1; fill-rule: nonzero; stroke: none; fill: rgb(255, 105, 0);" id="path14"/>
  <path d="M 299.57 79.547 C 297.588 82.285 295.182 84.855 292.351 87.261 C 289.521 89.667 286.382 91.768 282.939 93.56 C 279.493 95.353 275.766 96.769 271.757 97.805 C 267.745 98.843 263.57 99.363 259.229 99.363 C 252.058 99.363 245.499 98.136 239.555 95.683 C 233.61 93.231 228.49 89.809 224.197 85.421 C 219.902 81.033 216.575 75.845 214.217 69.851 C 211.858 63.86 210.678 57.277 210.678 50.105 C 210.678 43.123 211.858 36.588 214.217 30.501 C 216.575 24.415 219.902 19.131 224.197 14.648 C 228.49 10.167 233.633 6.628 239.625 4.032 C 245.617 1.438 252.245 0.139 259.513 0.139 C 268.289 0.139 275.954 1.746 282.514 4.952 C 289.071 8.162 294.522 12.786 298.863 18.823 L 284.283 32.836 C 281.453 28.873 278.101 25.688 274.233 23.281 C 270.363 20.876 265.741 19.673 260.362 19.673 C 256.115 19.673 252.294 20.451 248.897 22.008 C 245.499 23.565 242.619 25.712 240.262 28.448 C 237.902 31.187 236.087 34.372 234.813 38.003 C 233.539 41.636 232.902 45.483 232.902 49.539 C 232.902 53.692 233.539 57.561 234.813 61.145 C 236.087 64.733 237.902 67.847 240.262 70.488 C 242.619 73.131 245.451 75.208 248.755 76.716 C 252.058 78.227 255.783 78.98 259.938 78.98 C 263.334 78.98 266.282 78.627 268.783 77.92 C 271.283 77.211 273.502 76.269 275.437 75.088 C 277.37 73.909 279.091 72.54 280.602 70.983 C 282.111 69.425 283.575 67.847 284.991 66.241 L 299.57 79.547" style="fill-opacity: 1; fill-rule: nonzero; stroke: none; fill: rgb(255, 105, 0);" id="path16"/>
  <path d="M 326.747 2.546 L 348.262 2.546 L 348.262 58.456 C 348.262 61.569 348.567 64.379 349.182 66.879 C 349.795 69.38 350.81 71.528 352.224 73.319 C 353.64 75.112 355.502 76.504 357.816 77.495 C 360.127 78.485 362.982 78.98 366.38 78.98 C 369.682 78.98 372.487 78.485 374.802 77.495 C 377.112 76.504 378.976 75.112 380.392 73.319 C 381.808 71.528 382.822 69.38 383.435 66.879 C 384.048 64.379 384.356 61.569 384.356 58.456 L 384.356 2.546 L 406.012 2.546 L 406.012 61.145 C 406.012 66.808 405.092 71.999 403.252 76.716 C 401.412 81.436 398.77 85.469 395.326 88.819 C 391.879 92.168 387.704 94.788 382.799 96.673 C 377.891 98.56 372.416 99.505 366.38 99.505 C 360.34 99.505 354.866 98.584 349.959 96.745 C 345.052 94.905 340.878 92.287 337.434 88.888 C 333.987 85.492 331.347 81.436 329.506 76.716 C 327.666 71.999 326.747 66.808 326.747 61.145 L 326.747 2.546" style="fill-opacity: 1; fill-rule: nonzero; stroke: none; fill: rgb(255, 105, 0);" id="path18"/>
  <path d="M 440.691 2.546 L 505.235 2.546 L 505.235 21.229 L 462.064 21.229 L 462.064 39.631 L 495.611 39.631 L 495.611 57.748 L 462.064 57.748 L 462.064 78.131 L 508.349 78.131 L 508.349 96.957 L 440.691 96.957 L 440.691 2.546" style="fill-opacity: 1; fill-rule: nonzero; stroke: none; fill: rgb(255, 105, 0);" id="path20"/>
  <path d="M 539.77 2.546 L 561.144 2.546 L 561.144 77.989 L 606.297 77.989 L 606.297 96.957 L 539.77 96.957 L 539.77 2.546" style="fill-opacity: 1; fill-rule: nonzero; stroke: none; fill: rgb(255, 105, 0);" id="path22"/>
  <path d="M 687.543 58.74 L 676.078 23.069 L 664.33 58.74 L 687.543 58.74 Z M 665.038 2.546 L 688.677 2.546 L 723.214 96.957 L 699.858 96.957 L 692.639 75.3 L 659.377 75.3 L 652.157 96.957 L 629.793 96.957 L 665.038 2.546" style="fill-opacity: 1; fill-rule: nonzero; stroke: none; fill: rgb(255, 105, 0);" id="path24"/>
  <path d="M 824.7 77.989 C 834.135 77.989 841.403 75.513 846.499 70.559 C 851.594 65.605 854.142 58.788 854.142 50.105 C 854.142 45.765 853.552 41.825 852.372 38.285 C 851.191 34.747 849.4 31.729 846.994 29.227 C 844.587 26.728 841.544 24.792 837.864 23.424 C 834.183 22.057 829.796 21.371 824.7 21.371 L 811.678 21.371 L 811.678 77.989 L 824.7 77.989 Z M 790.304 2.546 L 825.975 2.546 C 833.239 2.546 839.963 3.491 846.144 5.376 C 852.324 7.266 857.656 10.143 862.139 14.011 C 866.62 17.881 870.112 22.835 872.614 28.873 C 875.112 34.913 876.364 42.037 876.364 50.247 C 876.364 58.08 875.09 64.896 872.543 70.7 C 869.996 76.504 866.479 81.364 861.998 85.279 C 857.515 89.196 852.182 92.123 846.003 94.055 C 839.822 95.991 833.099 96.957 825.832 96.957 L 790.304 96.957 L 790.304 2.546" style="fill-opacity: 1; fill-rule: nonzero; stroke: none; fill: rgb(255, 105, 0);" id="path26"/>
  <path d="M 908.777 2.546 L 973.323 2.546 L 973.323 21.229 L 930.151 21.229 L 930.151 39.631 L 963.697 39.631 L 963.697 57.748 L 930.151 57.748 L 930.151 78.131 L 976.436 78.131 L 976.436 96.957 L 908.777 96.957 L 908.777 2.546" style="fill-opacity: 1; fill-rule: nonzero; stroke: none; fill: rgb(255, 105, 0);" id="path28"/>
  <path d="M 142.534 155.069 L 170.616 155.069 L 170.616 228.041 C 170.616 232.105 171.013 235.77 171.817 239.033 C 172.616 242.297 173.941 245.1 175.787 247.438 C 177.635 249.779 180.066 251.594 183.085 252.887 C 186.102 254.181 189.827 254.827 194.262 254.827 C 198.571 254.827 202.234 254.181 205.254 252.887 C 208.27 251.594 210.703 249.779 212.551 247.438 C 214.398 245.1 215.721 242.297 216.522 239.033 C 217.322 235.77 217.723 232.105 217.723 228.041 L 217.723 155.069 L 245.989 155.069 L 245.989 231.55 C 245.989 238.94 244.787 245.716 242.386 251.871 C 239.985 258.031 236.535 263.297 232.041 267.667 C 227.543 272.039 222.094 275.458 215.691 277.921 C 209.286 280.382 202.142 281.614 194.262 281.614 C 186.378 281.614 179.234 280.414 172.833 278.013 C 166.426 275.611 160.977 272.193 156.482 267.759 C 151.986 263.326 148.54 258.031 146.138 251.871 C 143.736 245.716 142.534 238.94 142.534 231.55 L 142.534 155.069" style="fill-opacity: 1; fill-rule: nonzero; stroke: none;" id="path30"/>
  <path d="M 300.855 179.64 L 260.951 179.64 L 260.951 155.069 L 368.654 155.069 L 368.654 179.64 L 328.935 179.64 L 328.935 278.289 L 300.855 278.289 L 300.855 179.64" style="fill-opacity: 1; fill-rule: nonzero; stroke: none;" id="path32"/>
  <path d="M 428.877 210.676 C 434.051 210.676 438.115 209.137 441.071 206.057 C 444.025 202.98 445.504 199.101 445.504 194.418 C 445.504 189.369 444.025 185.366 441.071 182.41 C 438.115 179.454 434.051 177.977 428.877 177.977 L 411.696 177.977 L 411.696 210.676 L 428.877 210.676 Z M 384.542 155.069 L 430.356 155.069 C 437.497 155.069 443.777 156.085 449.199 158.117 C 454.617 160.149 459.143 162.921 462.777 166.43 C 466.409 169.94 469.119 174.036 470.905 178.716 C 472.689 183.397 473.584 188.385 473.584 193.68 C 473.584 201.686 471.829 208.674 468.32 214.648 C 464.809 220.622 459.849 225.394 453.448 228.965 L 480.788 278.289 L 450.123 278.289 L 427.215 233.029 L 411.696 233.029 L 411.696 278.289 L 384.542 278.289 L 384.542 155.069" style="fill-opacity: 1; fill-rule: nonzero; stroke: none;" id="path34"/>
  <path d="M 496.677 155.069 L 524.572 155.069 L 524.572 278.289 L 496.677 278.289 L 496.677 155.069" style="fill-opacity: 1; fill-rule: nonzero; stroke: none;" id="path36"/>
  <path d="M 659.797 255.566 C 657.211 259.141 654.071 262.494 650.375 265.634 C 646.681 268.775 642.585 271.518 638.09 273.855 C 633.593 276.197 628.73 278.043 623.496 279.398 C 618.261 280.751 612.81 281.43 607.148 281.43 C 597.785 281.43 589.228 279.827 581.469 276.626 C 573.709 273.426 567.026 268.959 561.425 263.233 C 555.818 257.506 551.477 250.734 548.401 242.912 C 545.32 235.093 543.781 226.502 543.781 217.141 C 543.781 208.029 545.32 199.498 548.401 191.554 C 551.477 183.612 555.818 176.716 561.425 170.864 C 567.026 165.016 573.738 160.398 581.561 157.009 C 589.381 153.622 598.03 151.928 607.517 151.928 C 618.97 151.928 628.976 154.024 637.537 158.209 C 646.095 162.397 653.207 168.433 658.874 176.314 L 639.845 194.602 C 636.15 189.43 631.777 185.273 626.729 182.133 C 621.677 178.992 615.645 177.422 608.625 177.422 C 603.082 177.422 598.096 178.438 593.661 180.47 C 589.228 182.502 585.469 185.306 582.392 188.876 C 579.313 192.449 576.942 196.606 575.28 201.346 C 573.617 206.089 572.786 211.109 572.786 216.402 C 572.786 221.824 573.617 226.872 575.28 231.55 C 576.942 236.233 579.313 240.297 582.392 243.744 C 585.469 247.193 589.164 249.903 593.477 251.871 C 597.785 253.843 602.65 254.827 608.07 254.827 C 612.504 254.827 616.352 254.366 619.617 253.442 C 622.878 252.518 625.773 251.289 628.3 249.747 C 630.822 248.209 633.072 246.422 635.042 244.39 C 637.012 242.358 638.922 240.297 640.77 238.201 L 659.797 255.566" style="fill-opacity: 1; fill-rule: nonzero; stroke: none;" id="path38"/>
  <path d="M 674.393 155.069 L 702.289 155.069 L 702.289 278.289 L 674.393 278.289 L 674.393 155.069" style="fill-opacity: 1; fill-rule: nonzero; stroke: none;" id="path40"/>
  <path d="M 785.048 117.013 L 815.162 117.013 L 793.178 145.832 L 771.563 145.832 L 785.048 117.013 Z M 785.603 255.197 C 791.022 255.197 795.886 254.153 800.198 252.057 C 804.507 249.963 808.171 247.132 811.19 243.558 C 814.206 239.989 816.515 235.864 818.116 231.181 C 819.716 226.502 820.518 221.514 820.518 216.217 C 820.518 210.924 819.716 205.936 818.116 201.253 C 816.515 196.574 814.206 192.478 811.19 188.969 C 808.171 185.458 804.507 182.688 800.198 180.656 C 795.886 178.622 791.022 177.606 785.603 177.606 C 780.183 177.606 775.286 178.622 770.916 180.656 C 766.543 182.688 762.848 185.458 759.832 188.969 C 756.814 192.478 754.505 196.574 752.905 201.253 C 751.302 205.936 750.503 210.924 750.503 216.217 C 750.503 221.514 751.302 226.502 752.905 231.181 C 754.505 235.864 756.814 239.989 759.832 243.558 C 762.848 247.132 766.543 249.963 770.916 252.057 C 775.286 254.153 780.183 255.197 785.603 255.197 Z M 785.603 281.43 C 776.487 281.43 768.022 279.767 760.2 276.442 C 752.379 273.117 745.607 268.562 739.881 262.771 C 734.153 256.983 729.657 250.117 726.395 242.173 C 723.13 234.229 721.498 225.702 721.498 216.588 C 721.498 207.35 723.13 198.792 726.395 190.909 C 729.657 183.028 734.153 176.193 739.881 170.402 C 745.607 164.614 752.379 160.057 760.2 156.732 C 768.022 153.406 776.487 151.744 785.603 151.744 C 794.715 151.744 803.182 153.406 811.004 156.732 C 818.824 160.057 825.599 164.614 831.327 170.402 C 837.052 176.193 841.547 183.028 844.812 190.909 C 848.074 198.792 849.707 207.35 849.707 216.588 C 849.707 225.702 848.074 234.229 844.812 242.173 C 841.547 250.117 837.052 256.983 831.327 262.771 C 825.599 268.562 818.824 273.117 811.004 276.442 C 803.182 279.767 794.715 281.43 785.603 281.43" style="fill-opacity: 1; fill-rule: nonzero; stroke: none;" id="path42"/>
  <path d="M 868.919 155.069 L 895.52 155.069 L 948.911 235.061 L 948.911 155.069 L 976.436 155.069 L 976.436 278.289 L 951.127 278.289 L 896.444 196.82 L 896.444 278.289 L 868.919 278.289 L 868.919 155.069" style="fill-opacity: 1; fill-rule: nonzero; stroke: none;" id="path44"/>
  <path d="M 12.626 163.96 L 34.268 129.629 L 90.337 223.948 L 90.337 167.57 L 122.95 159.596 L 122.95 278.923 L 94.808 278.923 L 45.238 207.548 L 45.238 278.923 L 12.626 278.923 L 12.626 163.96" style="fill-opacity: 1; fill-rule: nonzero; stroke: none;" id="path46"/>
  <path d="M 139.956 143.277 C 133.502 143.277 128.191 148.125 127.441 154.376 L 101.2 161.182 C 99.007 157.461 94.969 154.957 90.337 154.957 C 83.371 154.957 77.723 160.605 77.723 167.572 C 77.723 173.337 81.597 178.189 86.88 179.693 L 86.88 211.305 C 86.869 211.309 86.858 211.31 86.848 211.314 L 43.432 138.28 C 45.565 136.02 46.882 132.981 46.882 129.629 C 46.882 122.663 41.234 117.015 34.268 117.015 C 27.302 117.015 21.654 122.663 21.654 129.629 C 21.654 132.862 22.882 135.804 24.883 138.036 L 16.167 151.862 C 15.038 151.532 13.848 151.346 12.614 151.346 C 5.647 151.346 0 156.993 0 163.96 C 0 170.926 5.647 176.574 12.614 176.574 C 19.58 176.574 25.228 170.926 25.228 163.96 C 25.228 160.73 24.003 157.793 22.006 155.561 L 30.725 141.729 C 31.85 142.058 33.037 142.242 34.268 142.242 C 35.383 142.242 36.459 142.084 37.489 141.812 L 80.987 214.982 C 78.965 217.22 77.723 220.176 77.723 223.428 C 77.723 230.394 83.371 236.042 90.337 236.042 C 97.303 236.042 102.951 230.394 102.951 223.428 C 102.951 217.662 99.077 212.81 93.794 211.306 L 93.794 179.693 C 98.984 178.216 102.801 173.506 102.936 167.874 L 128.541 161.233 C 130.553 165.525 134.901 168.505 139.956 168.505 C 146.921 168.505 152.569 162.858 152.569 155.892 C 152.569 148.925 146.921 143.277 139.956 143.277" style="fill-opacity: 1; fill-rule: nonzero; stroke: none; fill: rgb(165, 156, 148);" id="path48"/>
  <path d="M 1069.949 440.587 C 1065.498 447.949 1058.546 451.626 1049.094 451.626 C 1044.088 451.626 1039.682 450.618 1035.886 448.591 C 1032.085 446.569 1029.461 444.638 1027.669 443.037 C 1027.23 423.206 1028.441 392.402 1028.701 388.424 C 1028.96 384.447 1029.914 378.722 1032.969 375.778 C 1036.029 372.835 1041.033 370.762 1048.817 370.762 C 1054.004 370.762 1058.41 371.727 1062.025 373.659 C 1065.64 375.59 1068.508 378.307 1070.645 381.8 C 1072.772 385.298 1074.3 389.439 1075.232 394.219 C 1076.154 399.008 1076.618 404.158 1076.618 409.676 C 1076.618 422.925 1074.396 433.23 1069.949 440.587 L 1069.949 440.587 Z M 1100.257 357.239 C 1095.432 352.09 1089.917 348.362 1083.712 346.061 C 1077.501 343.761 1070.962 342.61 1064.106 342.61 C 1054.468 342.61 1046.498 344.405 1040.197 347.991 C 1033.894 351.579 1029.257 355.125 1026.293 358.618 C 1025.184 353.837 1022.492 350.434 1018.232 348.407 C 1013.962 346.383 1008.773 345.218 1002.66 345.37 C 995.866 345.539 985.683 347.313 985.683 347.313 C 985.683 347.313 989.481 390.466 989.481 429.932 C 989.481 463.503 988.265 528.377 988.265 528.377 C 988.265 528.377 1001.481 523.054 1008.358 520.094 C 1015.593 516.982 1021.602 512.832 1024.241 509.69 C 1028.018 505.195 1028.382 498.376 1028.273 489.119 L 1027.91 468.223 C 1028.278 468.773 1028.98 469.475 1030.466 470.945 C 1031.944 472.421 1034.081 473.89 1036.858 475.361 C 1039.642 476.838 1043.02 478.163 1047.006 479.364 C 1050.994 480.557 1055.673 481.159 1061.052 481.159 C 1067.348 481.159 1073.79 480.052 1080.374 477.845 C 1086.953 475.636 1092.886 471.821 1098.169 466.392 C 1103.453 460.968 1107.762 453.604 1111.099 444.312 C 1114.437 435.023 1116.105 423.199 1116.105 408.849 C 1116.105 396.524 1114.663 386.126 1111.795 377.662 C 1108.917 369.2 1105.07 362.39 1100.257 357.239" style="fill-opacity: 1; fill-rule: nonzero; stroke: none; fill: rgb(255, 105, 0);" id="path50"/>
  <path d="M 96.112 427.874 C 88.966 433.191 77.955 435.85 68.323 435.85 L 60.168 435.85 C 60.213 409.354 60.887 385.642 61.548 368.63 C 64.07 368.387 70.188 367.848 74.853 367.848 C 82.758 367.848 90.144 370.271 96.817 375.122 C 103.486 379.975 108.775 389.067 108.775 400.444 C 108.775 414.066 103.253 422.556 96.112 427.874 L 96.112 427.874 Z M 128.891 353.698 C 115.684 343.697 98.998 338.694 70.235 338.694 C 62.796 338.694 55.796 338.941 46.6 339.423 C 37.401 339.91 21.751 340.638 12.946 341.607 C 12.946 341.607 14.875 351.609 15.518 367.999 C 16.209 385.639 16.926 410.682 16.926 438.624 C 16.926 467.566 16.156 493.396 15.443 511.113 C 14.829 526.395 13.028 535.107 13.028 535.107 L 27.779 535.107 L 56.037 535.107 L 64.062 535.107 C 64.062 535.107 62.261 526.395 61.646 511.113 C 61.168 499.242 60.668 483.699 60.388 466.043 C 60.388 466.031 60.389 466.021 60.388 466.008 L 72.877 466.008 C 83.635 466.008 93.906 464.844 103.591 462.515 C 113.276 460.183 120.059 456.624 127.398 451.279 C 134.736 445.942 140.582 438.624 144.89 429.884 C 149.193 421.143 151.348 410.464 151.348 397.838 C 151.348 378.418 142.1 363.705 128.891 353.698" style="fill-opacity: 1; fill-rule: nonzero; stroke: none; fill: rgb(255, 105, 0);" id="path52"/>
  <path d="M 248.121 409.849 C 248.121 407.185 247.987 398.991 235.581 396.358 C 224.275 393.956 216.885 399.462 213.853 401.938 C 207.767 406.907 205.098 411.645 203.946 413.361 C 202.795 408.412 199.962 403.874 195.458 401.49 C 190.951 399.11 185.621 398.5 179.49 398.795 C 171.966 399.155 161.186 401.812 161.186 401.812 C 161.186 401.812 161.974 406.998 163.025 423.258 C 163.832 435.754 163.922 469.854 163.922 469.854 C 163.922 469.854 164.24 494.151 163.093 512.796 C 161.917 531.906 161.304 535.025 161.304 535.025 L 208.025 535.025 C 208.025 535.025 206.733 527.951 205.698 513.111 C 204.662 498.269 204.939 488.097 204.966 469.86 C 204.993 451.623 204.809 442.182 210.561 435.439 C 214.971 430.271 220.81 427.615 230.487 431.171 C 234.69 432.715 237.957 436.12 237.957 436.12 C 237.957 436.12 241.333 431.236 243.886 425.457 C 246.05 420.559 248.121 413.845 248.121 409.849" style="fill-opacity: 1; fill-rule: nonzero; stroke: none; fill: rgb(255, 105, 0);" id="path54"/>
  <path d="M 289.798 454.952 C 289.798 445.244 292.026 436.357 296.844 430.931 C 301.664 425.504 308.472 421.93 316.908 421.93 C 326.547 421.93 334.38 425.831 338.099 431.542 C 341.814 437.254 343.299 443.633 343.299 452.772 L 289.798 454.952 Z M 367.912 415.494 C 355.696 402.935 339.628 395.764 317.812 395.939 C 309.175 396.008 300.742 397.275 292.508 399.939 C 284.273 402.606 276.891 406.792 270.369 412.503 C 263.839 418.215 257.251 425.404 253.335 434.067 C 249.419 442.732 247.063 453.333 247.063 465.328 C 247.063 479.99 249.667 491.856 254.089 501.467 C 258.501 511.084 265.646 518.745 272.779 524.457 C 279.903 530.171 288.037 534.168 297.178 536.454 C 306.312 538.737 315.6 539.88 325.043 539.88 C 335.483 539.88 344.57 538.782 352.304 536.597 C 360.032 534.409 366.01 531.789 370.226 528.741 C 375.244 525.313 377.756 521.508 377.756 517.319 C 377.756 514.464 376.448 510.797 373.842 506.324 C 371.231 501.852 368.722 498.184 366.31 495.328 C 364.502 496.854 362.492 498.518 360.286 500.325 C 358.074 502.137 355.466 503.801 352.454 505.324 C 349.442 506.849 346.026 508.133 342.211 509.178 C 338.396 510.228 333.975 510.748 328.959 510.748 C 315.9 510.748 306.364 507.278 300.34 500.325 C 294.316 493.376 290.898 486.847 290.098 476.373 L 380.031 474.194 C 380.031 474.194 381.81 464.251 381.81 456.672 C 381.81 438.028 377.967 425.828 367.912 415.494" style="fill-opacity: 1; fill-rule: nonzero; stroke: none; fill: rgb(255, 105, 0);" id="path56"/>
  <path d="M 719.446 454.952 C 719.446 445.244 721.674 436.357 726.494 430.931 C 731.313 425.504 738.121 421.93 746.557 421.93 C 756.197 421.93 764.028 425.831 767.748 431.542 C 771.462 437.254 772.947 443.633 772.947 452.772 L 719.446 454.952 Z M 797.562 415.494 C 785.344 402.935 769.276 395.764 747.461 395.939 C 738.823 396.008 730.39 397.275 722.158 399.939 C 713.922 402.606 706.541 406.792 700.017 412.503 C 693.487 418.215 686.899 425.404 682.983 434.067 C 679.067 442.732 676.711 453.333 676.711 465.328 C 676.711 479.99 679.315 491.856 683.737 501.467 C 688.15 511.084 695.295 518.745 702.427 524.457 C 709.553 530.171 717.685 534.168 726.827 536.454 C 735.962 538.737 745.249 539.88 754.691 539.88 C 765.131 539.88 774.219 538.782 781.952 536.597 C 789.68 534.409 795.658 531.789 799.874 528.741 C 804.894 525.313 807.406 521.508 807.406 517.319 C 807.406 514.464 806.098 510.797 803.49 506.324 C 800.879 501.852 798.37 498.184 795.958 495.328 C 794.151 496.854 792.14 498.518 789.934 500.325 C 787.723 502.137 785.114 503.801 782.103 505.324 C 779.091 506.849 775.674 508.133 771.859 509.178 C 768.044 510.228 763.623 510.748 758.607 510.748 C 745.549 510.748 736.014 507.278 729.989 500.325 C 723.965 493.376 720.546 486.847 719.746 476.373 L 809.679 474.194 C 809.679 474.194 811.458 464.251 811.458 456.672 C 811.458 438.028 807.615 425.828 797.562 415.494" style="fill-opacity: 1; fill-rule: nonzero; stroke: none; fill: rgb(255, 105, 0);" id="path58"/>
  <path d="M 595.653 474.273 C 595.653 474.273 595.85 444.499 595.85 439.351 C 595.85 424.744 591.818 412.922 583.265 405.29 C 576.848 399.564 564.194 395.939 551.716 395.939 C 533.797 395.939 524.581 400.875 511.636 414.47 C 509.139 409.327 505.48 405.223 499.981 401.65 C 494.527 398.104 486.697 395.939 475.956 395.939 C 464.448 395.939 459.481 397.694 453.267 401.146 C 446.559 404.872 442.028 408.985 438.768 413.361 C 435.46 401.582 427.751 398.388 414.359 398.795 C 406.316 399.038 396.008 401.812 396.008 401.812 C 396.008 401.812 397.055 412.704 397.9 423.454 C 398.83 435.267 399.047 456.959 398.791 473.53 C 398.535 490.099 398.207 503.275 397.972 512.907 C 397.738 522.537 396.172 535.025 396.172 535.025 L 442.847 535.025 C 442.847 535.025 440.861 522.707 440.516 513.075 C 440.169 503.442 439.735 474.247 439.735 474.247 C 439.735 474.247 439.829 463.675 440.147 451.339 C 440.463 439.004 447.352 429.632 457.984 429.632 C 470.217 429.632 477.236 435.199 477.236 443.643 L 477.523 474.247 C 477.523 474.247 477.416 500.967 476.709 512.907 C 476.004 524.848 474.904 535.025 474.904 535.025 L 521.895 535.025 C 521.895 535.025 519.76 521.584 519.373 512.537 C 518.817 499.539 518.875 475.066 518.875 475.066 L 518.945 455.999 C 519.248 441.149 523.992 429.562 536.976 429.562 C 546.298 429.562 554.176 434.198 554.176 443.678 C 554.176 443.678 554.53 459.433 554.53 474.247 C 554.53 489.06 554.118 501.839 553.834 512.796 C 553.534 524.343 551.913 535.025 551.913 535.025 L 598.9 535.025 C 598.9 535.025 597.152 524.769 596.418 512.809 C 595.94 504.995 595.653 482.597 595.653 474.273" style="fill-opacity: 1; fill-rule: nonzero; stroke: none; fill: rgb(255, 105, 0);" id="path60"/>
  <path d="M 658.917 474.273 C 658.917 461.763 661.411 421.545 661.411 421.545 C 661.411 416.79 660.954 412.933 659.421 409.978 C 657.882 407.03 650.351 397.74 634.448 398.727 C 626.992 399.19 615.774 401.567 615.393 401.756 C 615.393 401.756 616.954 411.902 617.3 423.642 C 617.646 435.382 618.192 445.361 618.192 474.247 C 618.192 492.072 617.198 512.72 617.198 512.72 C 616.373 524.566 619.23 530.028 623.933 533.17 C 628.63 536.309 636.949 537.006 644.43 537.006 C 647.497 537.006 661.401 536.241 662.167 535.864 C 662.167 535.864 660.601 525.284 659.679 513.587 C 658.802 502.452 658.917 495.036 658.917 474.273" style="fill-opacity: 1; fill-rule: nonzero; stroke: none; fill: rgb(255, 105, 0);" id="path62"/>
  <path d="M 1356.769 453.007 C 1355.276 450.064 1353.143 446.569 1350.369 442.519 C 1349.809 443.072 1348.889 443.9 1347.583 445.003 C 1346.289 446.107 1344.663 447.167 1342.73 448.175 C 1340.783 449.19 1338.636 450.109 1336.33 450.938 C 1334.01 451.763 1331.552 452.179 1328.956 452.179 C 1318.395 452.179 1314.163 446.003 1313.112 432.859 C 1313.112 432.859 1312.174 421.215 1312.174 401.144 C 1312.174 381.074 1313.146 374.356 1313.146 374.356 C 1313.146 374.356 1329.207 374.707 1336.996 373.796 C 1346.823 372.65 1347.809 345.647 1347.809 345.647 L 1313.146 345.647 L 1313.146 326.329 C 1313.146 321.729 1312.4 318.005 1310.918 315.15 C 1309.435 312.299 1307.484 310.043 1305.08 308.387 C 1302.67 306.733 1299.979 305.627 1297.019 305.077 C 1294.05 304.523 1290.108 304.249 1287.15 304.249 C 1285.662 304.249 1284.18 304.297 1282.698 304.386 C 1281.211 304.481 1279.824 304.619 1278.528 304.799 L 1270.674 305.422 C 1270.674 305.422 1273.479 323.185 1273.479 345.647 C 1273.479 345.647 1264.604 345.374 1264.604 346.875 C 1264.604 353.059 1268.252 368.756 1270.079 373.482 C 1270.528 374.646 1273.479 374.382 1273.479 374.382 C 1273.479 374.382 1274.355 385.992 1274.355 401.143 C 1274.355 416.292 1274.355 433.412 1274.355 433.412 C 1274.355 437.461 1274.542 441.511 1274.915 445.554 C 1275.283 449.604 1276.114 453.467 1277.415 457.147 C 1280.011 464.323 1284.458 470.118 1290.764 474.533 C 1297.06 478.95 1306.054 481.159 1317.734 481.159 C 1323.662 481.159 1329.132 480.557 1334.143 479.364 C 1339.143 478.163 1343.409 476.606 1346.929 474.671 C 1350.449 472.739 1354.116 470.628 1356.063 468.323 C 1358.009 466.024 1358.983 463.68 1358.983 461.285 C 1358.983 458.711 1358.249 455.951 1356.769 453.007" style="fill-opacity: 1; fill-rule: nonzero; stroke: none; fill: rgb(255, 105, 0);" id="path64"/>
  <path d="M 625.568 387.703 C 631.106 390.135 637.086 390.599 643.459 389.07 C 649.823 387.542 654.842 384.548 658.441 380.06 C 662.646 375.087 664.043 369.54 662.585 363.463 C 661.083 357.21 657.498 352.891 651.907 350.521 C 646.259 348.187 640.277 347.779 633.913 349.307 C 627.54 350.837 622.424 353.966 618.59 358.641 C 614.754 363.379 613.554 368.75 615.026 374.88 C 616.485 380.958 619.997 385.214 625.568 387.703" style="fill-opacity: 1; fill-rule: nonzero; stroke: none; fill: rgb(255, 105, 0);" id="path66"/>
  <path d="M 1339.103 315.714 C 1342.183 315.714 1343.716 314.454 1343.716 311.929 C 1343.716 310.805 1343.316 309.954 1342.503 309.371 C 1341.703 308.793 1340.383 308.503 1338.556 308.503 C 1337.916 308.503 1337.356 308.511 1336.903 308.53 C 1336.436 308.547 1336.01 308.59 1335.61 308.657 L 1335.716 308.657 L 1335.716 315.714 L 1339.103 315.714 Z M 1332.334 305.794 C 1333.33 305.691 1334.423 305.613 1335.583 305.565 C 1336.743 305.514 1337.69 305.486 1338.396 305.486 C 1341.556 305.486 1343.809 306.093 1345.196 307.302 C 1346.569 308.511 1347.263 310.038 1347.263 311.878 C 1347.263 312.765 1347.116 313.573 1346.836 314.306 C 1346.543 315.039 1346.169 315.669 1345.703 316.201 C 1345.236 316.729 1344.689 317.171 1344.063 317.527 C 1343.436 317.886 1342.81 318.134 1342.156 318.269 L 1342.263 318.269 L 1347.796 327.014 C 1347.476 327.186 1347.143 327.303 1346.809 327.373 C 1346.463 327.439 1346.156 327.475 1345.863 327.475 C 1345.329 327.475 1344.823 327.363 1344.329 327.141 C 1343.849 326.919 1343.436 326.519 1343.076 325.939 L 1338.503 318.731 L 1335.716 318.731 L 1335.716 327.218 L 1332.334 327.218 L 1332.334 305.794 Z M 1332.766 330.542 C 1334.596 331.359 1336.663 331.77 1338.996 331.77 C 1341.316 331.77 1343.383 331.351 1345.196 330.515 C 1346.996 329.679 1348.516 328.573 1349.756 327.191 C 1350.996 325.813 1351.929 324.211 1352.583 322.386 C 1353.223 320.562 1353.543 318.662 1353.543 316.686 C 1353.543 314.707 1353.223 312.815 1352.583 311.009 C 1351.929 309.202 1350.996 307.61 1349.756 306.229 C 1348.516 304.847 1346.996 303.749 1345.196 302.929 C 1343.383 302.111 1341.316 301.703 1338.996 301.703 C 1336.663 301.703 1334.61 302.111 1332.82 302.929 C 1331.028 303.749 1329.518 304.847 1328.28 306.229 C 1327.047 307.61 1326.108 309.202 1325.463 311.009 C 1324.818 312.815 1324.498 314.707 1324.498 316.686 C 1324.498 319.754 1325.204 322.507 1326.619 324.941 C 1328.03 327.382 1330.082 329.246 1332.766 330.542 L 1332.766 330.542 Z M 1325.786 329.366 C 1324.28 327.729 1323.128 325.819 1322.323 323.638 C 1321.518 321.458 1321.114 319.138 1321.114 316.686 C 1321.114 314.23 1321.524 311.921 1322.351 309.758 C 1323.171 307.591 1324.354 305.701 1325.891 304.081 C 1327.43 302.461 1329.303 301.177 1331.502 300.219 C 1333.703 299.267 1336.196 298.787 1338.996 298.787 C 1341.783 298.787 1344.276 299.267 1346.489 300.219 C 1348.676 301.177 1350.543 302.461 1352.063 304.081 C 1353.583 305.701 1354.756 307.591 1355.583 309.758 C 1356.409 311.921 1356.823 314.23 1356.823 316.686 C 1356.823 319.138 1356.409 321.458 1355.583 323.638 C 1354.756 325.819 1353.583 327.729 1352.036 329.366 C 1350.503 331.001 1348.636 332.298 1346.423 333.251 C 1344.223 334.205 1341.73 334.683 1338.943 334.683 C 1336.143 334.683 1333.636 334.205 1331.423 333.251 C 1329.203 332.298 1327.324 331.001 1325.786 329.366" style="fill-opacity: 1; fill-rule: nonzero; stroke: none; fill: rgb(255, 105, 0);" id="path68"/>
  <path d="M 1170.287 399.474 C 1170.287 390.091 1172.441 381.504 1177.098 376.26 C 1181.755 371.016 1188.334 367.562 1196.486 367.562 C 1205.802 367.562 1213.371 371.331 1216.966 376.851 C 1220.554 382.37 1221.99 388.535 1221.99 397.367 L 1170.287 399.474 Z M 1245.775 361.342 C 1233.97 349.206 1218.442 342.277 1197.359 342.445 C 1189.013 342.511 1180.863 343.735 1172.907 346.31 C 1164.949 348.887 1157.815 352.933 1151.511 358.453 C 1145.202 363.971 1138.835 370.919 1135.051 379.291 C 1131.267 387.664 1128.99 397.91 1128.99 409.5 C 1128.99 423.67 1131.507 435.137 1135.779 444.425 C 1140.043 453.719 1146.949 461.121 1153.842 466.642 C 1160.726 472.163 1168.585 476.026 1177.421 478.235 C 1186.247 480.442 1195.222 481.545 1204.347 481.545 C 1214.437 481.545 1223.218 480.484 1230.691 478.372 C 1238.16 476.259 1243.936 473.727 1248.011 470.782 C 1252.86 467.47 1255.288 463.791 1255.288 459.743 C 1255.288 456.984 1254.024 453.44 1251.504 449.118 C 1248.982 444.796 1246.556 441.251 1244.227 438.492 C 1242.48 439.966 1240.538 441.573 1238.406 443.32 C 1236.268 445.072 1233.747 446.68 1230.836 448.152 C 1227.926 449.626 1224.625 450.867 1220.938 451.878 C 1217.251 452.891 1212.979 453.394 1208.131 453.394 C 1195.513 453.394 1186.298 450.04 1180.477 443.32 C 1174.654 436.606 1171.35 430.295 1170.577 420.175 L 1257.486 418.068 C 1257.486 418.068 1259.204 408.459 1259.204 401.136 C 1259.204 383.119 1255.491 371.33 1245.775 361.342" style="fill-opacity: 1; fill-rule: nonzero; stroke: none; fill: rgb(255, 105, 0);" id="path70"/>
  <path d="M 870.792 435.85 C 870.838 409.354 871.512 385.642 872.172 368.63 C 874.694 368.387 880.812 367.848 885.477 367.848 C 893.383 367.848 900.768 370.271 907.441 375.122 C 914.111 379.975 919.399 389.067 919.399 400.444 C 919.399 414.066 913.877 422.556 906.736 427.874 C 899.591 433.191 888.58 435.85 878.947 435.85 L 870.792 435.85 Z M 976.436 527.564 C 970.355 520.288 961.825 509.847 954.708 500.554 C 947.591 491.26 937.505 474.835 937.505 474.835 L 927.077 457.985 C 930.871 456.144 934.379 453.932 938.021 451.279 C 945.36 445.942 951.208 438.624 955.515 429.884 C 959.817 421.143 961.973 410.464 961.973 397.838 C 961.973 378.418 952.724 363.705 939.516 353.698 C 926.308 343.697 909.623 338.694 880.859 338.694 C 873.42 338.694 866.42 338.941 857.224 339.423 C 848.026 339.91 832.375 340.638 823.571 341.607 C 823.571 341.607 825.5 351.609 826.142 367.999 C 826.834 385.639 827.551 410.682 827.551 438.624 C 827.551 467.566 826.78 493.396 826.068 511.113 C 825.454 526.395 823.652 535.107 823.652 535.107 L 838.403 535.107 L 866.662 535.107 L 874.687 535.107 C 874.687 535.107 872.886 526.395 872.271 511.113 C 871.792 499.242 871.292 483.699 871.012 466.043 C 871.012 466.031 871.014 466.021 871.014 466.008 L 880.997 466.008 L 883.501 466.008 C 883.816 466.008 884.12 465.985 884.433 465.983 L 915.501 518.46 C 919.528 525.313 923.936 530.269 928.736 533.311 C 933.524 536.356 939.476 537.88 946.571 537.88 C 962.96 537.88 979.899 531.63 979.899 531.63 C 979.899 531.63 977.612 528.971 976.436 527.564" style="fill-opacity: 1; fill-rule: nonzero; stroke: none; fill: rgb(255, 105, 0);" id="path72"/>
</svg>