<svg xmlns="http://www.w3.org/2000/svg" width="28.057" height="29.773" viewBox="0 0 28.057 29.773">
  <g id="Grupo_10417" data-name="Grupo 10417" transform="translate(6553.653 22426.007)">
    <path id="Caminho_4695" data-name="Caminho 4695" d="M1.546,21.687l3.979-6.313L15.836,32.718V22.351l6-1.466V42.828H16.659L7.544,29.7V42.828h-6Z" transform="translate(-6552.877 -22439.061)"/>
    <path id="Caminho_4696" data-name="Caminho 4696" d="M1.546,21.687l3.979-6.313L15.836,32.718V22.351l9.126-2.367" transform="translate(-6552.877 -22439.061)" fill="none" stroke="#8f8580" stroke-linecap="round" stroke-linejoin="round" stroke-width="0.985"/>
    <path id="Caminho_4697" data-name="Caminho 4697" d="M2.32,18.033A2.319,2.319,0,1,1,0,20.353a2.321,2.321,0,0,1,2.32-2.32" transform="translate(-6553.653 -22437.725)" fill="#8f8580"/>
    <path id="Caminho_4698" data-name="Caminho 4698" d="M17.914,17.045a2.319,2.319,0,1,1-2.32,2.32,2.321,2.321,0,0,1,2.32-2.32" transform="translate(-6545.831 -22438.221)" fill="#8f8580"/>
    <path id="Caminho_4699" data-name="Caminho 4699" d="M4.971,13.829a2.319,2.319,0,1,1-2.32,2.32,2.321,2.321,0,0,1,2.32-2.32" transform="translate(-6552.324 -22439.836)" fill="#8f8580"/>
    <path id="Caminho_4700" data-name="Caminho 4700" d="M11.838,25.316a2.319,2.319,0,1,1-2.32,2.32,2.321,2.321,0,0,1,2.32-2.32" transform="translate(-6548.878 -22434.07)" fill="#8f8580"/>
    <path id="Caminho_4701" data-name="Caminho 4701" d="M11.838,18.475a2.319,2.319,0,1,1-2.32,2.32,2.321,2.321,0,0,1,2.32-2.32" transform="translate(-6548.878 -22437.502)" fill="#8f8580"/>
  </g>
</svg>
