<svg xmlns="http://www.w3.org/2000/svg" width="110" height="29.188" viewBox="0 0 110 29.188"><defs><style>.a,.b{fill:#08254a;}.a{fill-rule:evenodd;}</style></defs><g transform="translate(-47.757 -59.715)"><g transform="translate(55.591 59.715)"><path class="a" d="M94.248,61.026c.157.309.314.342.542.59A18.59,18.59,0,0,1,99.341,74.48a18.375,18.375,0,0,1-1.87,7.446,17.9,17.9,0,0,1-3.382,4.747c-.326.326-.489.392-.588.628.4.119.929.429,1.387.6a14.686,14.686,0,0,0,14.3-2.043,20.342,20.342,0,0,0,2.088-1.978,16.4,16.4,0,0,0,1.687-2.377,11.568,11.568,0,0,0,1.185-2.877c-4.029,5.135-11.152,1.811-11.16-4.307-.008-6.162,6.635-9.093,10.5-5.156.118.12.181.165.316.3s.136.192.3.345a11.231,11.231,0,0,0-1.137-2.676,18.405,18.405,0,0,0-1.611-2.318,14.67,14.67,0,0,0-10.532-5.1c-1.713-.084-5.4.393-6.579,1.3" transform="translate(-93.501 -59.715)"/></g><g transform="translate(51.545 61.803)"><path class="a" d="M70.341,74.163l.973.766a12.319,12.319,0,0,1,1.638,1.807,12.56,12.56,0,0,1,.571,13.409A10.856,10.856,0,0,1,70.43,93.8a4.421,4.421,0,0,0-.557.41,10.571,10.571,0,0,0,2.619,2.273A16.792,16.792,0,0,0,76.64,76.7a16.4,16.4,0,0,0-3.459-4.789,10.437,10.437,0,0,0-2.84,2.254" transform="translate(-69.873 -71.909)"/></g><g transform="translate(49.113 65.293)"><path class="a" d="M55.995,94.493a8.445,8.445,0,0,1,2.086,2.644c1.435,2.939.967,7.036-1.107,9.176a5.481,5.481,0,0,1-1.3,1.106,10.221,10.221,0,0,0,1.161,2.123,1.358,1.358,0,0,0,.09.117l.034.036.075.068a.4.4,0,0,0,.04.033c2.889-1.127,4.655-5.375,4.66-8.548,0-2.546-.726-5.769-2.421-7.478-.328-.331-1.264-1.413-1.894-1.486a11.388,11.388,0,0,0-1.423,2.209" transform="translate(-55.674 -92.284)"/></g><g transform="translate(47.757 68.879)"><path class="a" d="M48.506,123.347a5.588,5.588,0,0,0,1.634-2.021c2.115-4.135-.711-7.931-1.35-8.1a14.892,14.892,0,0,0-.284,10.123" transform="translate(-47.757 -113.224)"/></g><g transform="translate(69.893 72.056)"><path class="a" d="M177,132.03c1.227.236,3.4.686,3.367,2.473a1.714,1.714,0,0,0-1.489,2.8c.6.759,2.743,1.169,3.125-.793a5.054,5.054,0,0,0-1.029-3.922A4.25,4.25,0,0,0,177,132.03" transform="translate(-177.005 -131.771)"/></g><g transform="translate(81.689 62.743)"><path class="b" d="M258.08,77.394l.157,6.446h-.585a6.6,6.6,0,0,0-2.032-3.9,5.11,5.11,0,0,0-3.5-1.476,3.279,3.279,0,0,0-2.3.777,2.366,2.366,0,0,0-.849,1.79,2.173,2.173,0,0,0,.3,1.141,4.846,4.846,0,0,0,1.326,1.326,29.807,29.807,0,0,0,3.095,1.669,13.755,13.755,0,0,1,4.578,3.152,5.332,5.332,0,0,1,1.169,3.394,5.489,5.489,0,0,1-1.89,4.172,6.793,6.793,0,0,1-4.8,1.747,7.749,7.749,0,0,1-1.726-.185,13.041,13.041,0,0,1-2.039-.7,3.092,3.092,0,0,0-1.127-.285,1.4,1.4,0,0,0-.784.285,1.993,1.993,0,0,0-.67.87h-.528v-7.3h.528a8.373,8.373,0,0,0,2.417,4.7,5.658,5.658,0,0,0,3.858,1.619,3.619,3.619,0,0,0,2.546-.87,2.623,2.623,0,0,0,.585-3.351,4.213,4.213,0,0,0-1.105-1.219,16.723,16.723,0,0,0-2.624-1.5,22.66,22.66,0,0,1-3.793-2.21,6.78,6.78,0,0,1-1.776-2.039,5.06,5.06,0,0,1-.62-2.481,5.249,5.249,0,0,1,1.7-3.936,5.936,5.936,0,0,1,4.278-1.626,7.277,7.277,0,0,1,1.825.228,9.137,9.137,0,0,1,1.633.635,3.844,3.844,0,0,0,1.348.463.762.762,0,0,0,.585-.228,2.629,2.629,0,0,0,.4-1.1Z" transform="translate(-245.873 -77.394)"/><path class="b" d="M342.673,81.087v7.872h.385a3.054,3.054,0,0,0,2.667-1.155A7.108,7.108,0,0,0,346.78,84.4h.542V94.521h-.542a7.582,7.582,0,0,0-.72-2.71,3.1,3.1,0,0,0-1.276-1.419,4.851,4.851,0,0,0-2.111-.364v5.448a7.84,7.84,0,0,0,.135,1.954,1.17,1.17,0,0,0,.506.585,2.374,2.374,0,0,0,1.2.228h1.155a6.234,6.234,0,0,0,6.689-5.077h.528l-.87,6.146H335.3v-.528h.642a2.676,2.676,0,0,0,1.355-.3,1.3,1.3,0,0,0,.57-.685,5.88,5.88,0,0,0,.157-1.8V83.284a10.153,10.153,0,0,0-.071-1.611,1.366,1.366,0,0,0-.528-.77,2.453,2.453,0,0,0-1.483-.4H335.3v-.528h16.186v5.719h-.542a6.974,6.974,0,0,0-1.162-3.009,4.319,4.319,0,0,0-2.118-1.341,11.469,11.469,0,0,0-2.995-.257Z" transform="translate(-319.984 -79.533)"/><path class="b" d="M454.9,79.975l9.541,11.994V83.654a3.934,3.934,0,0,0-.5-2.353,2.76,2.76,0,0,0-2.3-.8v-.528h6.389V80.5a4.88,4.88,0,0,0-1.647.406,1.636,1.636,0,0,0-.656.813,5.544,5.544,0,0,0-.235,1.932v16.1h-.485l-13.077-16.1V95.947A2.713,2.713,0,0,0,452.7,98.2a2.793,2.793,0,0,0,1.747.585h.456v.528h-6.859v-.528a3.1,3.1,0,0,0,2.225-.656,3.069,3.069,0,0,0,.627-2.182V82.3l-.413-.513a3.767,3.767,0,0,0-1.084-1.013,3.268,3.268,0,0,0-1.355-.271v-.528Z" transform="translate(-413.415 -79.533)"/><path class="b" d="M582.029,91.877H575.2l-.813,1.882a4.186,4.186,0,0,0-.4,1.554,1.291,1.291,0,0,0,.656,1.2,5.509,5.509,0,0,0,1.9.342v.528h-6.432v-.528a2.876,2.876,0,0,0,1.711-.863,11.47,11.47,0,0,0,1.654-2.916l6.917-15.43h.271L587.634,93.5a9.654,9.654,0,0,0,1.64,2.838,2.238,2.238,0,0,0,1.369.513v.528h-9.355v-.528h.385a2.928,2.928,0,0,0,1.583-.314.761.761,0,0,0,.314-.656,1.749,1.749,0,0,0-.086-.528q-.028-.128-.428-1.07Zm-.485-1.055-2.881-6.66-2.966,6.66Z" transform="translate(-514.575 -77.601)"/></g><g transform="translate(82.197 84.969)"><path class="b" d="M248.841,210.108v-2.942h1.1a1.365,1.365,0,0,1,.541.089.7.7,0,0,1,.319.275.726.726,0,0,1,.115.388.666.666,0,0,1-.1.355.73.73,0,0,1-.309.269.769.769,0,0,1,.41.267.714.714,0,0,1,.144.446.86.86,0,0,1-.087.384.745.745,0,0,1-.216.274.9.9,0,0,1-.322.146,1.963,1.963,0,0,1-.475.049Zm.389-1.706h.636a1.419,1.419,0,0,0,.371-.034.412.412,0,0,0,.224-.147.422.422,0,0,0,.075-.257.473.473,0,0,0-.07-.258.355.355,0,0,0-.2-.152,1.678,1.678,0,0,0-.448-.041h-.588Zm0,1.359h.733a1.7,1.7,0,0,0,.265-.014.634.634,0,0,0,.225-.08.427.427,0,0,0,.149-.164.513.513,0,0,0,.058-.248.489.489,0,0,0-.084-.286.445.445,0,0,0-.234-.171,1.452,1.452,0,0,0-.431-.049h-.68Z" transform="translate(-248.841 -207.166)"/></g><g transform="translate(87.245 84.969)"><path class="b" d="M278.314,210.108v-2.942h1.3a1.739,1.739,0,0,1,.6.079.654.654,0,0,1,.327.28.834.834,0,0,1,.122.444.74.74,0,0,1-.2.528,1.026,1.026,0,0,1-.626.273,1.012,1.012,0,0,1,.235.146,2.018,2.018,0,0,1,.323.391l.512.8h-.49l-.389-.612q-.171-.265-.281-.405a.884.884,0,0,0-.2-.2.585.585,0,0,0-.178-.078,1.165,1.165,0,0,0-.217-.014H278.7v1.307Zm.389-1.644h.837a1.256,1.256,0,0,0,.418-.055.445.445,0,0,0,.229-.177.479.479,0,0,0,.078-.264.438.438,0,0,0-.152-.343.709.709,0,0,0-.479-.134H278.7Z" transform="translate(-278.314 -207.166)"/></g><g transform="translate(92.168 84.969)"><path class="b" d="M307.06,210.108l1.13-2.942h.419l1.2,2.942h-.444l-.343-.891H307.8l-.323.891Zm.849-1.208h1l-.307-.815q-.14-.371-.209-.61a3.765,3.765,0,0,1-.159.562Z" transform="translate(-307.06 -207.166)"/></g><g transform="translate(97.385 84.919)"><path class="b" d="M337.517,208.92l.367-.032a.812.812,0,0,0,.121.362.662.662,0,0,0,.3.229,1.121,1.121,0,0,0,.451.087,1.081,1.081,0,0,0,.393-.066.547.547,0,0,0,.254-.182.422.422,0,0,0,.083-.252.382.382,0,0,0-.08-.242.594.594,0,0,0-.265-.174,5.158,5.158,0,0,0-.524-.144,2.683,2.683,0,0,1-.568-.184.8.8,0,0,1-.314-.274.671.671,0,0,1-.1-.366.748.748,0,0,1,.126-.417.783.783,0,0,1,.369-.294,1.4,1.4,0,0,1,.54-.1,1.472,1.472,0,0,1,.577.105.831.831,0,0,1,.384.31.891.891,0,0,1,.145.464l-.373.028a.6.6,0,0,0-.2-.421.794.794,0,0,0-.513-.143.822.822,0,0,0-.515.129.388.388,0,0,0-.162.312.335.335,0,0,0,.114.261,1.553,1.553,0,0,0,.587.21,3.892,3.892,0,0,1,.651.188.893.893,0,0,1,.379.3.732.732,0,0,1,.122.418.8.8,0,0,1-.134.443.884.884,0,0,1-.386.323,1.346,1.346,0,0,1-.567.115,1.692,1.692,0,0,1-.669-.116.938.938,0,0,1-.424-.35A.992.992,0,0,1,337.517,208.92Z" transform="translate(-337.517 -206.873)"/></g><g transform="translate(102.609 84.969)"><path class="b" d="M368.021,210.108v-2.942h.389v2.942Z" transform="translate(-368.021 -207.166)"/></g><g transform="translate(105.953 84.969)"><path class="b" d="M387.544,210.108v-2.942h.389v2.6h1.449v.347Z" transform="translate(-387.544 -207.166)"/></g><g transform="translate(110.228 84.919)"><path class="b" d="M414.02,206.873a1.552,1.552,0,0,1,.745.2,1.391,1.391,0,0,1,.566.56,1.522,1.522,0,0,1,0,1.513,1.407,1.407,0,0,1-.56.561,1.522,1.522,0,0,1-1.507,0,1.414,1.414,0,0,1-.561-.561,1.515,1.515,0,0,1,0-1.513,1.4,1.4,0,0,1,.567-.56A1.552,1.552,0,0,1,414.02,206.873Zm0,.251a1.29,1.29,0,0,0-.621.164,1.173,1.173,0,0,0-.473.468,1.259,1.259,0,0,0,0,1.26,1.191,1.191,0,0,0,.469.468,1.262,1.262,0,0,0,1.256,0,1.183,1.183,0,0,0,.468-.468,1.264,1.264,0,0,0,0-1.26,1.165,1.165,0,0,0-.473-.468A1.293,1.293,0,0,0,414.02,207.124Zm.486,1.509.247.072a.69.69,0,0,1-.256.4.832.832,0,0,1-1.049-.079.875.875,0,0,1-.221-.634,1,1,0,0,1,.1-.461.674.674,0,0,1,.286-.3.888.888,0,0,1,.425-.1.739.739,0,0,1,.444.127.634.634,0,0,1,.241.346l-.239.058a.487.487,0,0,0-.178-.228.481.481,0,0,0-.276-.079.491.491,0,0,0-.38.165.826.826,0,0,0-.008.936.469.469,0,0,0,.366.158.508.508,0,0,0,.317-.1A.492.492,0,0,0,414.506,208.633Z" transform="translate(-412.505 -206.873)"/></g></g></svg>