<svg xmlns="http://www.w3.org/2000/svg" width="360" height="95.525" viewBox="0 0 360 95.525"><defs><style>.a,.b{fill:#08254a;}.a{fill-rule:evenodd;}</style></defs><g transform="translate(-47.757 -59.715)"><g transform="translate(73.398 59.715)"><path class="a" d="M95.944,64.005c.513,1.01,1.029,1.12,1.773,1.93,9.887,10.746,15.564,27.246,14.894,42.1a60.135,60.135,0,0,1-6.119,24.369,58.57,58.57,0,0,1-11.067,15.537c-1.066,1.068-1.6,1.281-1.925,2.057,1.306.388,3.041,1.4,4.54,1.978,15.765,6.05,33.909,3.6,46.816-6.687a66.573,66.573,0,0,0,6.833-6.475,53.686,53.686,0,0,0,5.522-7.78c.822-1.431,3.927-7.69,3.878-9.417-13.185,16.806-36.5,5.926-36.524-14.1-.026-20.167,21.715-29.759,34.351-16.876.386.394.592.54,1.035.992.46.47.444.627.982,1.131-.141-1.9-2.776-7.07-3.721-8.757a60.235,60.235,0,0,0-5.271-7.587,48.009,48.009,0,0,0-34.468-16.681c-5.605-.275-17.661,1.286-21.53,4.259" transform="translate(-93.501 -59.715)"/></g><g transform="translate(60.154 66.55)"><path class="a" d="M71.4,79.286l3.183,2.506a40.317,40.317,0,0,1,5.359,5.915c9.321,13.019,9.481,30.008,1.868,43.883A35.528,35.528,0,0,1,71.7,143.558a14.472,14.472,0,0,0-1.823,1.343c.735,1.654,7.066,6.771,8.572,7.439C86.9,145.624,97.2,130.023,97.2,113.108c0-9.6-1.1-16.928-5.178-25.526-2.385-5.032-6.964-11.908-11.32-15.673-2.265.89-8.355,5.773-9.295,7.377" transform="translate(-69.873 -71.909)"/></g><g transform="translate(52.195 77.971)"><path class="a" d="M56.724,99.514c.842,1.211,3.932,2.722,6.827,8.652,4.7,9.618,3.164,23.028-3.622,30.031-.876.9-2.913,3.085-4.256,3.62.385,1.532,2.726,5.463,3.8,6.948a4.445,4.445,0,0,0,.294.383c.032.036.079.086.111.119l.246.223a1.311,1.311,0,0,0,.129.107c9.453-3.69,15.233-17.59,15.25-27.976.013-8.334-2.377-18.88-7.922-24.473-1.075-1.084-4.136-4.623-6.2-4.864a37.269,37.269,0,0,0-4.657,7.23" transform="translate(-55.674 -92.284)"/></g><g transform="translate(47.757 89.708)"><path class="a" d="M50.208,146.354c1.743-.925,4.116-4.206,5.349-6.615,6.923-13.533-2.328-25.955-4.419-26.515-4.217,8.735-4.444,23.89-.93,33.13" transform="translate(-47.757 -113.224)"/></g><g transform="translate(120.204 100.104)"><path class="a" d="M177,132.617c4.016.772,11.111,2.244,11.019,8.094-6.374,0-7.315,6.089-4.872,9.174,1.969,2.485,8.976,3.826,10.229-2.595.876-4.488-1-10.511-3.367-12.835-3.366-3.305-10.757-3.09-13.01-1.837" transform="translate(-177.005 -131.771)"/></g><g transform="translate(158.806 69.624)"><path class="b" d="M285.825,77.394l.513,21.1h-1.914a21.606,21.606,0,0,0-6.651-12.765,16.724,16.724,0,0,0-11.458-4.831,10.731,10.731,0,0,0-7.537,2.544A7.744,7.744,0,0,0,256,89.3a7.112,7.112,0,0,0,.98,3.734,15.86,15.86,0,0,0,4.341,4.341,97.553,97.553,0,0,0,10.128,5.461q11.108,5.46,14.982,10.315a17.45,17.45,0,0,1,3.827,11.107,17.965,17.965,0,0,1-6.184,13.652q-6.185,5.717-15.7,5.717a25.361,25.361,0,0,1-5.647-.607,42.678,42.678,0,0,1-6.674-2.287,10.118,10.118,0,0,0-3.687-.933,4.577,4.577,0,0,0-2.567.933,6.524,6.524,0,0,0-2.193,2.847h-1.727v-23.9H247.6q2.053,10.081,7.911,15.379t12.625,5.3a11.844,11.844,0,0,0,8.331-2.847,8.584,8.584,0,0,0,1.914-10.968,13.789,13.789,0,0,0-3.617-3.991,54.728,54.728,0,0,0-8.588-4.924,74.165,74.165,0,0,1-12.414-7.234,22.19,22.19,0,0,1-5.811-6.674,16.558,16.558,0,0,1-2.03-8.121,17.178,17.178,0,0,1,5.554-12.881,19.425,19.425,0,0,1,14-5.321,23.816,23.816,0,0,1,5.974.747,29.9,29.9,0,0,1,5.344,2.077,12.579,12.579,0,0,0,4.411,1.517,2.5,2.5,0,0,0,1.913-.747,8.6,8.6,0,0,0,1.307-3.594Z" transform="translate(-245.873 -77.394)"/><path class="b" d="M359.43,83.616v25.763h1.26q6.021,0,8.727-3.78t3.454-11.154h1.774v33.137h-1.774a24.813,24.813,0,0,0-2.357-8.868,10.157,10.157,0,0,0-4.177-4.644,15.876,15.876,0,0,0-6.907-1.19v17.829q0,5.227.443,6.394a3.83,3.83,0,0,0,1.657,1.914,7.77,7.77,0,0,0,3.92.747h3.78q8.868,0,14.212-4.107t7.678-12.508h1.727L390,143.263H335.3v-1.727h2.1a8.758,8.758,0,0,0,4.434-.98,4.255,4.255,0,0,0,1.867-2.24q.513-1.12.513-5.88V90.8a33.213,33.213,0,0,0-.233-5.274,4.469,4.469,0,0,0-1.727-2.52A8.028,8.028,0,0,0,337.4,81.7h-2.1V79.975h52.973V98.691H386.5q-1.355-6.861-3.8-9.848a14.135,14.135,0,0,0-6.931-4.387q-2.614-.84-9.8-.84Z" transform="translate(-285.174 -78.528)"/><path class="b" d="M470.49,79.975l31.224,39.252V92.017q0-5.694-1.634-7.7-2.24-2.706-7.514-2.614V79.975h20.909V81.7a15.969,15.969,0,0,0-5.391,1.33,5.352,5.352,0,0,0-2.147,2.661,18.14,18.14,0,0,0-.77,6.324V144.71h-1.587l-42.8-52.693v40.232q0,5.46,2.5,7.374A9.141,9.141,0,0,0,469,141.536h1.493v1.727H448.041v-1.727q5.226-.046,7.281-2.147t2.053-7.141V87.583l-1.353-1.68a12.331,12.331,0,0,0-3.547-3.314,10.694,10.694,0,0,0-4.434-.887V79.975Z" transform="translate(-334.72 -78.528)"/><path class="b" d="M609.125,124.223H586.769l-2.66,6.161a13.7,13.7,0,0,0-1.307,5.087,4.226,4.226,0,0,0,2.147,3.92q1.26.747,6.207,1.12v1.727H570.107v-1.727a9.411,9.411,0,0,0,5.6-2.823q2.193-2.311,5.414-9.545l22.636-50.5h.887l22.823,51.9q3.267,7.374,5.368,9.287a7.323,7.323,0,0,0,4.481,1.68v1.727H606.7v-1.727h1.26q3.687,0,5.18-1.027a2.492,2.492,0,0,0,1.027-2.147,5.724,5.724,0,0,0-.28-1.726q-.093-.42-1.4-3.5Zm-1.586-3.454-9.429-21.8-9.707,21.8Z" transform="translate(-388.365 -77.504)"/></g><g transform="translate(160.47 142.365)"><path class="b" d="M248.841,216.8v-9.63h3.613a4.467,4.467,0,0,1,1.77.293,2.274,2.274,0,0,1,1.044.9,2.375,2.375,0,0,1,.378,1.271,2.179,2.179,0,0,1-.335,1.162,2.39,2.39,0,0,1-1.011.88,2.518,2.518,0,0,1,1.343.874,2.338,2.338,0,0,1,.47,1.458,2.814,2.814,0,0,1-.286,1.258,2.438,2.438,0,0,1-.706.9,2.954,2.954,0,0,1-1.054.477,6.427,6.427,0,0,1-1.554.161Zm1.275-5.583H252.2a4.646,4.646,0,0,0,1.215-.112,1.349,1.349,0,0,0,.732-.48,1.38,1.38,0,0,0,.247-.841,1.547,1.547,0,0,0-.23-.844,1.163,1.163,0,0,0-.656-.5,5.489,5.489,0,0,0-1.465-.135h-1.924Zm0,4.447h2.4a5.574,5.574,0,0,0,.867-.046,2.076,2.076,0,0,0,.735-.263,1.4,1.4,0,0,0,.487-.535,1.679,1.679,0,0,0,.19-.811,1.6,1.6,0,0,0-.276-.936,1.457,1.457,0,0,0-.765-.559,4.754,4.754,0,0,0-1.409-.161h-2.227Z" transform="translate(-248.841 -207.166)"/></g><g transform="translate(176.99 142.365)"><path class="b" d="M278.314,216.8v-9.63h4.27a5.692,5.692,0,0,1,1.957.26,2.141,2.141,0,0,1,1.071.917,2.73,2.73,0,0,1,.4,1.452,2.421,2.421,0,0,1-.663,1.728,3.359,3.359,0,0,1-2.05.893,3.313,3.313,0,0,1,.769.479,6.6,6.6,0,0,1,1.057,1.281L286.8,216.8h-1.6l-1.274-2q-.558-.867-.92-1.327a2.9,2.9,0,0,0-.647-.644,1.917,1.917,0,0,0-.581-.256,3.811,3.811,0,0,0-.71-.046h-1.478V216.8Zm1.274-5.38h2.739a4.109,4.109,0,0,0,1.366-.18,1.457,1.457,0,0,0,.749-.578,1.568,1.568,0,0,0,.256-.864,1.434,1.434,0,0,0-.5-1.123,2.319,2.319,0,0,0-1.567-.44h-3.048Z" transform="translate(-278.314 -207.166)"/></g><g transform="translate(193.103 142.365)"><path class="b" d="M307.06,216.8l3.7-9.63h1.373l3.941,9.63H314.62l-1.123-2.916h-4.026l-1.058,2.916Zm2.779-3.954H313.1l-1.005-2.667q-.46-1.215-.683-2a12.328,12.328,0,0,1-.519,1.839Z" transform="translate(-307.06 -207.166)"/></g><g transform="translate(210.175 142.201)"><path class="b" d="M337.517,213.573l1.2-.1a2.658,2.658,0,0,0,.4,1.185,2.167,2.167,0,0,0,.969.749,3.667,3.667,0,0,0,1.478.286,3.538,3.538,0,0,0,1.288-.217,1.791,1.791,0,0,0,.831-.594,1.382,1.382,0,0,0,.272-.825,1.251,1.251,0,0,0-.263-.792,1.944,1.944,0,0,0-.867-.568,16.865,16.865,0,0,0-1.714-.47,8.779,8.779,0,0,1-1.859-.6,2.611,2.611,0,0,1-1.028-.9,2.2,2.2,0,0,1-.338-1.2,2.449,2.449,0,0,1,.414-1.363,2.563,2.563,0,0,1,1.208-.962,4.592,4.592,0,0,1,1.767-.328,4.818,4.818,0,0,1,1.888.345,2.72,2.72,0,0,1,1.258,1.015,2.917,2.917,0,0,1,.473,1.517l-1.222.092a1.973,1.973,0,0,0-.666-1.379,2.6,2.6,0,0,0-1.679-.466,2.691,2.691,0,0,0-1.684.424,1.27,1.27,0,0,0-.529,1.021,1.1,1.1,0,0,0,.374.854,5.082,5.082,0,0,0,1.922.686,12.734,12.734,0,0,1,2.132.614,2.921,2.921,0,0,1,1.242.982,2.394,2.394,0,0,1,.4,1.369,2.616,2.616,0,0,1-.44,1.448,2.893,2.893,0,0,1-1.265,1.058,4.406,4.406,0,0,1-1.855.378,5.537,5.537,0,0,1-2.19-.381,3.07,3.07,0,0,1-1.386-1.146A3.248,3.248,0,0,1,337.517,213.573Z" transform="translate(-337.517 -206.873)"/></g><g transform="translate(227.273 142.365)"><path class="b" d="M368.021,216.8v-9.63H369.3v9.63Z" transform="translate(-368.021 -207.166)"/></g><g transform="translate(238.217 142.365)"><path class="b" d="M387.544,216.8v-9.63h1.274v8.494h4.743V216.8Z" transform="translate(-387.544 -207.166)"/></g><g transform="translate(252.208 142.201)"><path class="b" d="M417.465,206.873a5.079,5.079,0,0,1,2.437.641,4.552,4.552,0,0,1,1.853,1.832,4.982,4.982,0,0,1,.009,4.95,4.6,4.6,0,0,1-1.832,1.836,4.981,4.981,0,0,1-4.933,0,4.627,4.627,0,0,1-1.836-1.836,4.959,4.959,0,0,1,.009-4.95,4.573,4.573,0,0,1,1.856-1.832A5.079,5.079,0,0,1,417.465,206.873Zm0,.821a4.222,4.222,0,0,0-2.033.535,3.839,3.839,0,0,0-1.547,1.531,4.121,4.121,0,0,0-.01,4.125,3.9,3.9,0,0,0,1.534,1.531,4.13,4.13,0,0,0,4.112,0,3.872,3.872,0,0,0,1.53-1.531,4.138,4.138,0,0,0-.01-4.125,3.813,3.813,0,0,0-1.546-1.531A4.232,4.232,0,0,0,417.465,207.694Zm1.589,4.94.808.237a2.258,2.258,0,0,1-.837,1.31,2.723,2.723,0,0,1-3.432-.259,2.864,2.864,0,0,1-.723-2.076,3.26,3.26,0,0,1,.328-1.507,2.205,2.205,0,0,1,.936-.966,2.9,2.9,0,0,1,1.39-.325,2.418,2.418,0,0,1,1.452.417,2.075,2.075,0,0,1,.788,1.133l-.781.191a1.593,1.593,0,0,0-.582-.745,1.573,1.573,0,0,0-.9-.26,1.608,1.608,0,0,0-1.245.539,2.7,2.7,0,0,0-.026,3.064,1.534,1.534,0,0,0,1.2.516,1.662,1.662,0,0,0,1.038-.341A1.612,1.612,0,0,0,419.054,212.634Z" transform="translate(-412.505 -206.873)"/></g></g></svg>