<svg width="87" height="97" viewBox="0 0 87 97" fill="none" xmlns="http://www.w3.org/2000/svg">
<g id="Group">
<g id="Group_2">
<g id="Group_3">
<path id="Vector" d="M70.1887 25.9398C69.5653 26.3127 68.9984 26.599 68.9306 26.6329C69.0003 26.5877 69.5785 26.2242 70.1887 25.9398Z" fill="white"/>
<path id="Vector_2" d="M68.9306 26.7723C68.8816 26.7723 68.8346 26.7459 68.8101 26.7026C68.7743 26.6386 68.7931 26.5576 68.8534 26.518C68.859 26.5143 69.4655 26.1225 70.1284 25.8155C70.1943 25.7854 70.2753 25.8118 70.3092 25.8758C70.3431 25.9417 70.3205 26.0208 70.2583 26.0585C69.6576 26.4182 69.0963 26.7045 68.9909 26.7572C68.972 26.7666 68.9513 26.7723 68.9306 26.7723Z" fill="#2E2F31"/>
</g>
<g id="Group_4">
<path id="Vector_3" d="M79.8973 54.0429H60.5121C60.1467 54.0429 59.8077 53.8772 59.5817 53.589C59.3557 53.3009 59.2766 52.9317 59.3652 52.5758L64.0471 33.7745C63.5706 33.5729 63.1055 33.3488 62.6648 33.1096C62.6233 33.087 62.597 33.0456 62.5932 32.9985C62.5894 32.9514 62.6101 32.9062 62.6478 32.878C62.9586 32.6407 63.2486 32.4109 63.5085 32.1981C63.5669 32.1491 63.6554 32.1586 63.7044 32.2169C63.7533 32.2753 63.7439 32.3638 63.6855 32.4128C63.4708 32.588 63.2373 32.7744 62.9868 32.9684C63.3974 33.185 63.8268 33.3846 64.2656 33.5673C64.3296 33.5937 64.3635 33.6615 64.3466 33.7293L59.6345 52.6455C59.5667 52.9167 59.6269 53.201 59.8002 53.4214C59.9735 53.6417 60.2315 53.7679 60.5121 53.7679H79.8973C80.1779 53.7679 80.4359 53.6417 80.6092 53.4214C80.7824 53.201 80.8408 52.9185 80.773 52.6455L76.0628 33.7293C76.0458 33.6633 76.0816 33.5937 76.1438 33.5673C81.9934 31.151 85.7733 25.4991 85.7733 19.1711C85.7733 14.9016 84.0783 10.9183 81.0009 7.95584C77.9254 4.99336 73.8744 3.45279 69.5954 3.61476C61.3389 3.92927 54.6267 10.9146 54.6342 19.1862C54.638 22.2146 55.5081 25.1413 57.1504 27.6612C58.2672 27.0058 59.1862 26.4276 59.7682 26.0566C59.8322 26.0151 59.9189 26.034 59.9603 26.098C60.0017 26.162 59.9829 26.2487 59.9189 26.2901C59.3162 26.6762 58.3519 27.2826 57.1786 27.9681C57.1146 28.0058 57.0336 27.987 56.994 27.9248C55.2746 25.3371 54.363 22.3163 54.3593 19.188C54.3555 15.0861 55.93 11.1858 58.7926 8.20444C61.6572 5.22312 65.4898 3.49611 69.586 3.33979C73.9422 3.17406 78.0629 4.74287 81.193 7.75809C84.325 10.7733 86.0501 14.8281 86.0501 19.173C86.0501 25.5744 82.2514 31.2941 76.3604 33.7782L81.0404 52.5777C81.129 52.9336 81.0517 53.3027 80.8257 53.5909C80.6016 53.8772 80.2626 54.0429 79.8973 54.0429Z" fill="#2E2F31"/>
</g>
<g id="Group_5">
<path id="Vector_4" d="M85.9108 19.1711C85.9108 23.8569 83.8617 28.0605 80.6073 30.9401C82.7148 28.2658 83.9728 24.8908 83.9728 21.2202C83.9728 12.3422 76.6071 5.1855 67.6537 5.5245C63.9134 5.66764 60.5103 7.13098 57.8849 9.45502C60.644 5.96332 64.8476 3.65623 69.5917 3.47543C78.5451 3.13455 85.9108 10.2931 85.9108 19.1711Z" fill="#2E2F31"/>
</g>
<path id="Vector_5" d="M50.3195 92.397L49.0162 92.3179C47.5472 92.1333 46.7299 91.5683 46.647 90.685L49.2178 90.0936C49.2874 90.0786 49.3326 90.0127 49.3251 89.9411C47.4681 74.6729 45.1742 61.3483 42.3587 49.4909C42.2664 49.5116 42.1722 49.5191 42.0799 49.5153C44.7091 60.5818 46.8824 72.9327 48.6716 86.9485L42.37 88.4627C42.2118 86.3929 40.513 65.0321 36.7765 50.7847C36.6785 50.7885 36.5787 50.7772 36.4827 50.7527C40.2587 65.0773 41.9632 86.7526 42.0969 88.5286L35.7802 90.0428C34.8178 82.3946 33.7537 74.7897 32.3883 68.7046V49.5888L31.9495 52.6906C31.925 52.6775 31.9005 52.6662 31.8779 52.6511C30.4033 64.5029 28.1866 76.6184 25.2542 88.8167L17.962 87.941C25.7458 66.3222 25.3013 47.6866 25.194 45.0744C25.0998 45.0744 25.0056 45.0575 24.9152 45.0311C25.0169 47.4041 25.5311 66.1471 17.6813 87.9071L12.0521 87.231C15.8715 70.4881 18.3066 56.7605 19.4875 45.3475C19.495 45.2722 19.4404 45.2025 19.3632 45.195C19.2859 45.1874 19.2181 45.2421 19.2106 45.3193C17.9638 57.3688 15.3178 72.0005 11.1179 90.0485C11.1085 90.0861 11.116 90.1275 11.1386 90.1596C11.1612 90.1916 11.1951 90.2123 11.2347 90.2179L12.5888 90.3931C12.4363 92.009 12.4457 93.0561 12.6189 93.4987C13.2386 95.0864 21.6156 96.5911 24.531 96.5911C25.5028 96.5911 25.6893 96.4311 25.7382 96.2729C26.0076 95.544 25.661 94.7304 24.951 94.4178L23.757 93.8923C22.482 93.2332 21.9075 92.4497 22.0808 91.621L24.6459 91.9525C24.6516 91.9525 24.6572 91.9544 24.6647 91.9544C24.7269 91.9544 24.7834 91.9111 24.7985 91.8489C25.0358 90.8978 25.2674 89.9467 25.4972 88.9975C25.4972 88.9938 25.4991 88.9919 25.5009 88.9881V88.9862C27.5444 80.4924 29.2412 72.04 30.5822 63.6874L31.8817 67.7517C33.539 74.7332 34.7575 83.9709 35.8687 93.0072C35.8725 93.0467 35.8951 93.0806 35.9271 93.1032C35.9516 93.1202 35.9779 93.1277 36.0062 93.1277C36.0156 93.1277 36.0269 93.1258 36.0363 93.1239L37.3094 92.832C37.7313 94.4404 38.1099 95.4404 38.43 95.802C38.7408 96.1542 39.6033 96.2955 40.7446 96.2955C43.7486 96.2955 48.6923 95.3142 50.6755 94.5835C51.587 94.2483 51.7056 94.0336 51.6981 93.8678C51.7 93.09 51.0936 92.4459 50.3195 92.397ZM24.5612 91.6606L11.4249 89.9618C11.617 89.135 11.8053 88.3158 11.9918 87.5041L25.1921 89.0898C24.9849 89.9449 24.7759 90.8018 24.5612 91.6606ZM35.816 90.3178L48.7074 87.2253C48.8185 88.0935 48.9277 88.9693 49.0351 89.8507L36.1286 92.8169C36.025 91.9864 35.9214 91.1521 35.816 90.3178Z" fill="#2E2F31"/>
<g id="Group_6">
<g id="Group_7">
<path id="Vector_6" d="M68.9306 26.6329C68.9249 26.6348 68.923 26.6367 68.923 26.6367L68.9136 26.6254L68.9306 26.6329Z" fill="white"/>
<path id="Vector_7" d="M68.9231 26.776C68.9212 26.776 68.9193 26.776 68.9174 26.776C68.8779 26.7742 68.8421 26.7572 68.8176 26.7271C68.7762 26.6781 68.7705 26.6009 68.8082 26.55C68.8458 26.4992 68.9118 26.4747 68.9701 26.5011C69.0229 26.5237 69.0643 26.5821 69.0605 26.6386C69.0587 26.6894 69.0342 26.7365 68.9909 26.7591C68.972 26.7685 68.9475 26.776 68.9231 26.776Z" fill="#2E2F31"/>
</g>
<g id="Group_8">
<path id="Vector_8" d="M68.9306 26.6329C68.9249 26.6348 68.923 26.6367 68.923 26.6367L68.9136 26.6254L68.9306 26.6329Z" fill="white"/>
<path id="Vector_9" d="M68.9231 26.776C68.9212 26.776 68.9193 26.776 68.9174 26.776C68.8779 26.7742 68.8421 26.7572 68.8176 26.7271C68.7762 26.6781 68.7705 26.6009 68.8082 26.55C68.8458 26.4992 68.9118 26.4747 68.9701 26.5011C69.0229 26.5237 69.0643 26.5821 69.0605 26.6386C69.0587 26.6894 69.0342 26.7365 68.9909 26.7591C68.972 26.7685 68.9475 26.776 68.9231 26.776Z" fill="#2E2F31"/>
</g>
<g id="Group_9">
<path id="Vector_10" d="M67.4296 24.7477C67.4371 24.742 67.4484 24.7364 67.4597 24.727C67.8778 24.4256 70.9025 22.2202 69.9457 21.821C68.9532 21.4066 65.1319 24.533 64.9003 24.7251" fill="white"/>
<path id="Vector_11" d="M67.4352 24.8814C67.39 24.8814 67.3467 24.8625 67.3204 24.8249C67.277 24.7646 67.2865 24.6836 67.3448 24.6384C67.3486 24.6365 67.3618 24.6271 67.3637 24.6252C68.9815 23.4576 70.0324 22.4293 69.989 22.0564C69.9872 22.0357 69.9815 21.9886 69.8892 21.9509C69.1999 21.6609 66.5783 23.5178 64.985 24.8324C64.9266 24.8814 64.8381 24.8738 64.7892 24.8136C64.7402 24.7552 64.7496 24.6667 64.808 24.6177C65.2261 24.2712 68.9344 21.2522 69.9947 21.6929C70.1943 21.7758 70.2508 21.9189 70.2621 22.0225C70.3412 22.7061 68.5878 24.0791 67.5351 24.8381C67.5313 24.8418 67.52 24.8494 67.5087 24.8569C67.4899 24.8738 67.4616 24.8814 67.4352 24.8814Z" fill="#2E2F31"/>
</g>
</g>
<g id="Group_10">
<path id="Vector_12" d="M60.2918 67.6443C59.4255 67.6443 58.593 67.4956 57.834 67.1905L57.9376 66.9324C60.1129 67.8044 62.9115 67.3468 65.4258 65.7083C66.697 64.8815 68.3355 63.4709 68.925 61.4576C68.9627 61.3295 68.9947 61.1958 69.021 61.0621C68.1095 61.661 67.1339 61.9812 66.164 61.9717C65.0397 61.9586 63.8965 61.3634 63.1808 60.418C62.5951 59.6421 62.3955 58.7588 62.6196 57.9282C62.8437 57.0977 63.4935 56.4197 64.4031 56.0675C65.4446 55.6626 66.6311 55.753 67.4993 56.3029C68.7969 57.1259 69.5069 58.7644 69.3845 60.4538C69.9458 60.0018 70.4712 59.4368 70.9307 58.7757C72.3508 56.7323 72.9045 54.3405 72.4468 52.2123C71.9459 49.8751 70.1021 47.939 67.9626 47.5002L68.0172 47.229C70.2603 47.6885 72.1926 49.7131 72.7161 52.1539C73.1889 54.3574 72.6201 56.8284 71.1567 58.9339C70.6238 59.7004 70.0041 60.3427 69.3412 60.8361C69.3073 61.0696 69.2565 61.3032 69.1887 61.5348C68.5766 63.6291 66.8853 65.0868 65.5745 65.9399C63.8569 67.0605 62.0037 67.6443 60.2918 67.6443ZM65.744 56.0957C65.3297 56.0957 64.906 56.173 64.5048 56.3274C63.678 56.6476 63.0904 57.2596 62.8889 58.0036C62.6874 58.7494 62.8701 59.5479 63.4031 60.2541C64.0585 61.1205 65.1433 61.6855 66.1678 61.6968C67.149 61.7062 68.1566 61.3484 69.0813 60.6873C69.2621 59.175 68.7706 57.4386 67.3524 56.5402C66.8891 56.2445 66.3241 56.0957 65.744 56.0957Z" fill="#2E2F31"/>
</g>
<g id="Group_11">
<path id="Vector_13" d="M2.59964 18.1842C2.17589 15.3762 1.95554 11.843 4.03097 9.42106C5.11012 8.15922 6.75427 7.41342 8.41161 7.36069C8.52649 7.05936 8.66962 6.77121 8.83724 6.50001C10.4117 3.96692 14.1482 3.01207 16.8339 4.45471C19.4837 5.87851 20.8303 9.29864 19.8981 12.2404L19.6344 12.1575C20.5271 9.33819 19.2408 6.06307 16.7039 4.69954C14.1407 3.32094 10.5756 4.23059 9.07454 6.64691C8.93329 6.87291 8.81276 7.11209 8.71106 7.35881C9.10844 7.36634 9.50582 7.41531 9.89379 7.50571C11.9956 7.99914 13.7622 9.73746 14.2876 11.8317C14.4345 12.4174 14.5814 13.5079 13.9053 14.2367C13.1425 15.0598 11.7847 14.8884 10.843 14.3799C9.59999 13.7094 8.65832 12.4589 8.25717 10.9522C7.95772 9.82597 7.98221 8.67149 8.31179 7.64319C6.76746 7.72041 5.24761 8.42666 4.24002 9.60374C2.23804 11.941 2.45651 15.395 2.87272 18.1447L2.59964 18.1842ZM8.60747 7.63377C8.26659 8.63571 8.23081 9.77136 8.52649 10.8788C8.90692 12.312 9.80151 13.5004 10.9767 14.135C11.8261 14.5946 13.0408 14.7622 13.7038 14.0465C14.3121 13.3892 14.1275 12.3252 14.0202 11.8976C13.5173 9.90131 11.8336 8.24397 9.83164 7.77502C9.42861 7.68086 9.01804 7.63566 8.60747 7.63377Z" fill="#2E2F31"/>
</g>
<g id="Group_12">
<path id="Vector_14" d="M2.46214 42.3042C1.62782 42.3042 0.947937 41.6243 0.947937 40.79C0.947937 39.9556 1.62782 39.2758 2.46214 39.2758C3.29645 39.2758 3.97634 39.9556 3.97634 40.79C3.97634 41.6262 3.29834 42.3042 2.46214 42.3042ZM2.46214 39.5526C1.78037 39.5526 1.22479 40.1082 1.22479 40.79C1.22479 41.4717 1.78037 42.0273 2.46214 42.0273C3.1439 42.0273 3.69949 41.4717 3.69949 40.79C3.69949 40.1082 3.14579 39.5526 2.46214 39.5526Z" fill="#2E2F31"/>
</g>
<g id="Group_13">
<path id="Vector_15" d="M47.6998 4.2325C47.0162 4.2325 46.4606 3.67691 46.4606 2.99326C46.4606 2.30961 47.0162 1.75403 47.6998 1.75403C48.3835 1.75403 48.939 2.30961 48.939 2.99326C48.939 3.67691 48.3835 4.2325 47.6998 4.2325ZM47.6998 2.03088C47.1687 2.03088 46.7374 2.46216 46.7374 2.99326C46.7374 3.52436 47.1687 3.95564 47.6998 3.95564C48.2309 3.95564 48.6622 3.52436 48.6622 2.99326C48.6622 2.46216 48.2309 2.03088 47.6998 2.03088Z" fill="#2E2F31"/>
</g>
<g id="Group_14">
<path id="Vector_16" d="M64.3824 91.5175L64.1978 91.5024C64.9342 82.7185 58.529 77.7503 58.465 77.7013L58.5761 77.5544C58.6439 77.6034 65.1301 82.6281 64.3824 91.5175Z" fill="#2E2F31"/>
</g>
<g id="Group_15">
<path id="Vector_17" d="M58.8491 79.2796C59.5148 79.2796 60.0545 78.7399 60.0545 78.0742C60.0545 77.4085 59.5148 76.8689 58.8491 76.8689C58.1834 76.8689 57.6438 77.4085 57.6438 78.0742C57.6438 78.7399 58.1834 79.2796 58.8491 79.2796Z" fill="#87CBD1" class="--fill-change-color"/>
</g>
<g id="Group_16">
<path id="Vector_18" d="M64.4916 91.0467C63.8644 83.5812 69.3148 79.3587 69.3694 79.3154L69.4805 79.4623C69.4259 79.5038 64.0584 83.6678 64.6762 91.0298L64.4916 91.0467Z" fill="#2E2F31"/>
</g>
<g id="Group_17">
<path id="Vector_19" d="M69.151 80.7749C69.7096 80.7749 70.1624 80.3221 70.1624 79.7635C70.1624 79.205 69.7096 78.7522 69.151 78.7522C68.5925 78.7522 68.1396 79.205 68.1396 79.7635C68.1396 80.3221 68.5925 80.7749 69.151 80.7749Z" fill="#87CBD1" class="--fill-change-color"/>
</g>
<g id="Group_18">
<path id="Vector_20" d="M72.0908 24.4313C72.1078 24.3051 72.072 24.1902 71.9854 24.0979C71.8818 23.9906 71.6897 23.8945 71.1774 24.0584C71.5786 23.6798 71.6031 23.4953 71.6125 23.4162C71.6275 23.3088 71.5993 23.2109 71.5334 23.1337C71.1793 22.7137 70.0738 23.128 69.0587 23.6459C69.7329 23.0546 70.313 22.4199 70.2678 22.0225C70.2565 21.9189 70.2 21.7758 70.0003 21.6929C69.1811 21.352 66.8514 23.0207 65.6065 23.9849C66.0962 23.2485 66.6518 22.2315 66.4672 21.6326C66.3994 21.4104 66.2356 21.2522 65.9945 21.1769C64.9304 20.836 60.9679 24.8155 59.7588 26.0622C57.3048 27.6348 49.1387 32.6464 46.0858 31.7273C45.0782 31.426 45.1234 30.4429 45.1818 29.2018C45.21 28.5859 45.2402 27.9211 45.1328 27.2789C45.1385 25.1507 44.3908 17.4422 33.3337 16.8094V15.4628C33.3676 15.4628 33.4034 15.4666 33.4373 15.4666C34.3187 15.4666 35.0344 15.186 35.5711 14.6266C37.0138 13.1256 36.8574 9.97104 36.5448 7.84287C37.1362 7.53401 37.6032 6.99349 37.8518 6.37011C38.1475 5.63184 38.1569 4.79752 37.9611 4.02536C37.6202 2.69007 36.671 1.54124 35.4638 0.876425C34.2566 0.213491 32.812 0.0232741 31.456 0.262457C30.8383 0.371691 30.2017 0.588274 29.8006 1.07041C29.294 1.67872 29.2846 2.54129 29.1207 3.31722C28.9908 3.92931 28.7422 4.51314 28.4032 5.03859L28.2883 5.04989C27.0264 5.24199 26.1978 5.76932 25.823 6.61494C24.9246 8.64706 26.9718 11.7677 27.0585 11.8996C27.0622 11.9052 27.0698 11.909 27.0735 11.9128C27.1093 11.9843 27.147 12.054 27.1959 12.1199C27.4445 12.4608 27.8495 12.6981 28.3052 12.7697C28.4107 12.7866 28.518 12.796 28.6292 12.796C28.6894 12.796 28.7497 12.7923 28.8118 12.7866L27.7817 17.0204C25.5499 17.3462 22.9867 18.0487 21.0826 19.5252C21.0751 19.5252 21.0676 19.5233 21.06 19.5233C21.0393 19.5271 21.0205 19.5346 21.0035 19.5459C21.0017 19.5478 20.9941 19.5534 20.9828 19.561C20.3331 20.0224 10.5473 27.0943 11.6415 33.7632C12.182 37.0553 14.958 39.7089 18.0448 41.6958C18.6155 44.308 19.3556 45.3325 19.3556 45.3325C19.3556 45.3325 21.2032 45.357 24.5988 44.9879C27.9945 46.342 30.8063 47.0501 31.021 47.1047C31.8628 47.487 38.2304 50.3497 40.4659 50.3478C40.6957 50.3478 40.8821 50.3177 41.014 50.2518C41.1552 50.1821 41.2456 50.071 41.2757 49.9316C41.3096 49.7772 41.2531 49.6058 41.1062 49.4137C42.0988 49.8412 42.3737 49.7244 42.4792 49.6792C42.596 49.6303 42.6769 49.538 42.7108 49.4175C42.7504 49.2743 42.7334 49.0596 42.3304 48.7037C42.8615 48.8543 43.0329 48.7809 43.1063 48.7489C43.2062 48.7056 43.2758 48.6321 43.3097 48.5342C43.4868 48.0163 42.5847 47.2874 41.5978 46.6697C42.4396 46.9409 43.2928 47.1198 43.6111 46.8768C43.6939 46.8128 43.7881 46.6923 43.7561 46.4776C43.6073 45.4549 39.6598 43.9388 38.317 43.4492L39.334 42.8635C39.3792 42.8371 39.4056 42.7881 39.4037 42.7373C39.4018 42.6845 39.3698 42.6393 39.3227 42.6186L38.769 42.37C39.2493 42.2495 39.7371 42.1252 40.2343 41.9934L40.4019 39.351C40.7409 39.6034 41.11 39.8351 41.5112 40.0403C42.6751 40.6355 44.0085 40.933 45.5038 40.933C48.2026 40.933 51.4307 39.965 55.1521 38.0327C59.6043 35.7219 63.2448 32.7726 63.6836 32.4128C64.5406 31.8912 71.6746 27.503 71.8328 25.9756C71.8498 25.8212 71.8008 25.6875 71.6972 25.5876C71.5823 25.4803 71.4072 25.4407 71.1661 25.469C72.0343 24.84 72.0758 24.5443 72.0908 24.4313ZM29.1019 12.7433C29.2544 12.7113 29.407 12.6661 29.5595 12.6058C29.6311 12.5776 29.665 12.4966 29.6367 12.4269C29.6085 12.3553 29.5275 12.3214 29.4578 12.3497C29.0755 12.5004 28.6913 12.5512 28.3429 12.4966C27.9587 12.4344 27.6197 12.2386 27.4125 11.9561C27.3654 11.892 27.3278 11.8224 27.2958 11.7527C27.2054 11.2159 27.3165 10.7959 27.6366 10.4833C27.68 10.4494 27.7233 10.4174 27.7628 10.3929C28.3711 9.99552 29.1998 9.98234 29.8213 10.3571C29.8872 10.3967 29.972 10.376 30.0115 10.31C30.0511 10.2441 30.0304 10.1594 29.9644 10.1198H29.9626C30.6067 10.1048 31.0869 9.92772 31.3939 9.58873C31.8308 9.10847 31.8007 8.43989 31.7367 8.06134C31.8195 8.03309 31.9043 8.01049 31.989 7.99166C32.6482 8.04439 33.281 8.05569 33.8799 8.01991C34.6671 8.12537 35.4581 8.24402 36.1945 7.99542C36.219 7.98789 36.2416 7.97471 36.2661 7.96718C36.3094 8.27604 36.3489 8.60374 36.381 8.94462C35.9534 8.85422 35.4864 8.93709 35.1191 9.17627C35.0551 9.21771 35.0381 9.30434 35.0796 9.36837C35.1059 9.40981 35.1511 9.43052 35.1963 9.43052C35.2227 9.43052 35.2491 9.42299 35.2717 9.40792C35.6013 9.19322 36.0269 9.13107 36.4054 9.23654C36.5561 11.1312 36.4393 13.3158 35.3621 14.4383C34.6841 15.1427 33.6803 15.3555 32.377 15.0711C32.3035 15.056 32.2282 15.1012 32.2113 15.1766C32.1943 15.2519 32.2414 15.3254 32.3167 15.3423C32.571 15.3969 32.8139 15.4327 33.0475 15.4534V17.1296C33.0475 17.5194 31.9457 17.8245 30.537 17.8245C29.1471 17.8245 28.0547 17.527 28.0284 17.1447L29.1019 12.7433ZM37.914 43.3607C37.8669 43.387 37.8405 43.4398 37.8443 43.4925C37.85 43.5471 37.8857 43.5923 37.9366 43.6111C40.1043 44.3777 43.37 45.7845 43.4755 46.519C43.4905 46.6169 43.4529 46.6452 43.4359 46.6584C43.0969 46.9164 41.385 46.3778 39.867 45.7129C39.7992 45.6828 39.7182 45.7129 39.6862 45.7807C39.6542 45.8485 39.6824 45.9295 39.7502 45.9634C41.5055 46.8448 43.2005 47.9805 43.0404 48.4457C43.0348 48.4626 43.0254 48.4796 42.9915 48.4946C42.8916 48.5379 42.5357 48.5756 41.3473 48.0276C40.6015 47.5887 39.8463 47.2441 39.8388 47.2403C39.771 47.2102 39.6994 47.2422 39.6655 47.3081C39.6316 47.374 39.6617 47.4569 39.7258 47.4946C40.0177 47.6622 40.5996 47.9842 41.2136 48.2705C42.4886 49.022 42.4491 49.312 42.4396 49.344C42.4283 49.3854 42.4057 49.4099 42.3662 49.4269C42.24 49.4796 41.7861 49.5154 40.2813 48.7074C39.6881 48.3044 39.0459 47.9842 39.0195 47.9711C38.9536 47.9372 38.8726 47.9635 38.8368 48.0257C38.801 48.0897 38.8199 48.1707 38.882 48.2102C38.8877 48.214 39.4564 48.5794 40.125 48.9353C40.9989 49.5286 41.0158 49.8035 41.0008 49.8732C40.9932 49.909 40.9725 49.9617 40.8859 50.0051C39.7785 50.5606 33.4599 47.9146 31.1189 46.8486C31.1114 46.8448 31.102 46.8429 31.0944 46.8392C30.9174 46.7959 13.3384 42.4322 11.9089 33.7199C11.4626 31.0022 12.9466 28.1622 14.8488 25.759C17.2293 26.9248 19.4536 28.5934 21.465 30.7216C20.8661 31.2226 20.4932 31.7895 20.787 32.6087C22.0846 36.236 33.8441 40.5055 34.3338 40.6826L38.9536 42.7636L37.914 43.3607ZM70.1303 25.8155C69.4787 26.1169 68.8741 26.5029 68.8496 26.5199C68.7875 26.5594 68.7668 26.6404 68.8044 26.7045C68.8402 26.7685 68.9193 26.793 68.9871 26.761C68.9928 26.7572 69.5992 26.4559 70.2489 26.0679C71.2076 25.6215 71.4505 25.7477 71.5032 25.7967C71.5315 25.8231 71.5635 25.8645 71.5541 25.953C71.4317 27.1339 65.7176 30.8534 63.5273 32.1868C63.5217 32.1906 63.516 32.1944 63.5104 32.1981C62.936 32.6709 49.3383 43.7411 41.6317 39.7974C41.1872 39.5695 40.7842 39.3096 40.4169 39.0215L41.0045 29.7065L44.92 27.9079C44.9426 28.3411 44.9238 28.7761 44.903 29.1886C44.8447 30.4429 44.79 31.6294 46.0048 31.9929C49.1801 32.9439 57.4592 27.8665 59.9207 26.2864C59.9302 26.2807 59.9377 26.2732 59.9452 26.2656C62.3446 23.7909 65.2374 21.2221 65.9097 21.4387C66.0661 21.4876 66.1583 21.5761 66.2017 21.7117C66.4013 22.3634 65.405 23.8606 64.7835 24.646C64.7402 24.7025 64.744 24.7816 64.7948 24.8305C64.8457 24.8795 64.9266 24.8833 64.9813 24.8381C66.2657 23.7627 69.1604 21.6439 69.893 21.949C69.9853 21.9867 69.989 22.0319 69.9928 22.0545C70.0418 22.4933 68.6575 23.6987 67.3505 24.6347C67.2902 24.678 67.2752 24.7627 67.3166 24.8249C67.358 24.887 67.4428 24.904 67.5068 24.8644C69.1208 23.8324 71.006 22.9359 71.3243 23.3145C71.3356 23.3276 71.345 23.3446 71.3413 23.3804C71.3281 23.4858 71.1774 23.8135 70.0907 24.5556C70.0305 24.597 70.0116 24.6799 70.0512 24.742C70.0907 24.8042 70.1698 24.8268 70.2358 24.791C71.5334 24.081 71.765 24.2637 71.7857 24.2881C71.814 24.3183 71.8253 24.3503 71.8178 24.3936C71.797 24.5292 71.5955 24.9379 70.1303 25.8155Z" fill="#2E2F31"/>
<path id="Vector_21" d="M34.4355 11.9919C34.5428 12.0164 34.6389 12.0296 34.7255 12.0296C34.9176 12.0296 35.057 11.9674 35.1417 11.845C35.4506 11.3968 34.7575 10.3157 34.6163 10.1029C34.573 10.0389 34.4882 10.0219 34.4242 10.0653C34.3602 10.1086 34.3432 10.1933 34.3865 10.2574C34.6879 10.7075 35.0626 11.4721 34.9139 11.6887C34.8461 11.7866 34.6257 11.7527 34.4976 11.7226C34.4242 11.7038 34.3489 11.7527 34.3319 11.8262C34.3131 11.9015 34.3602 11.975 34.4355 11.9919Z" fill="#2E2F31"/>
<path id="Vector_22" d="M35.7632 10.5944C35.9572 10.6848 36.1889 10.6001 36.2774 10.4061C36.3678 10.2121 36.283 9.98045 36.0891 9.89193C35.8951 9.80153 35.6634 9.88628 35.5749 10.0803C35.4845 10.2742 35.5693 10.504 35.7632 10.5944Z" fill="#2E2F31"/>
<path id="Vector_23" d="M33.5786 10.1161C33.3846 10.0257 33.1529 10.1104 33.0644 10.3044C32.974 10.4984 33.0588 10.73 33.2527 10.8185C33.4467 10.9089 33.6784 10.8242 33.7669 10.6302C33.8554 10.4362 33.7726 10.2065 33.5786 10.1161Z" fill="#2E2F31"/>
<path id="Vector_24" d="M33.7838 12.9749C34.0268 13.216 34.3695 13.3497 34.7104 13.3497C34.8422 13.3497 34.976 13.329 35.1022 13.2876C35.1756 13.2631 35.2152 13.1859 35.1907 13.1124C35.1662 13.039 35.089 12.9994 35.0155 13.0239C34.6596 13.1407 34.2433 13.0427 33.9778 12.7772C33.9232 12.7226 33.8365 12.7226 33.7819 12.7772C33.7292 12.8318 33.7292 12.9203 33.7838 12.9749Z" fill="#2E2F31"/>
<path id="Vector_25" d="M32.3996 9.86369C32.4354 9.86369 32.4711 9.85051 32.4994 9.82226C32.7951 9.51904 33.2395 9.36461 33.6614 9.41734C33.7349 9.42487 33.8064 9.37214 33.8158 9.29681C33.8253 9.22147 33.7706 9.15179 33.6953 9.14237C33.1925 9.08022 32.6576 9.26479 32.3016 9.62827C32.2489 9.68289 32.2489 9.77141 32.3035 9.82414C32.3299 9.85051 32.3638 9.86369 32.3996 9.86369Z" fill="#2E2F31"/>
<path id="Vector_26" d="M29.3391 11.1783C28.631 10.7865 28.0208 11.2856 27.9944 11.3063C27.9361 11.3553 27.9285 11.4419 27.9775 11.5003C28.0057 11.5323 28.0453 11.5512 28.0848 11.5512C28.1169 11.5512 28.147 11.5399 28.1734 11.5192C28.1922 11.5022 28.6649 11.1218 29.2054 11.4212C29.2732 11.4589 29.3561 11.4344 29.3938 11.3666C29.4314 11.3007 29.4069 11.2159 29.3391 11.1783Z" fill="#2E2F31"/>
</g>
<g id="Group_19">
<g id="Group_20">
<g id="Group_21">
<path id="Vector_27" d="M68.0775 29.7328C67.262 28.2959 65.4371 27.7874 63.9982 28.6028L60.5818 30.5521L58.2898 26.5105C57.8303 25.6969 56.7982 25.4106 55.9827 25.872C55.574 26.1037 55.301 26.4766 55.1861 26.8947C55.0674 27.3128 55.1145 27.7723 55.3443 28.181L55.5496 28.5445C56.011 29.3581 55.7266 30.3901 54.9149 30.8497C54.5062 31.0832 54.0448 31.1246 53.6286 31.0097C53.2086 30.8949 52.8338 30.618 52.6059 30.2093L52.3987 29.8477C51.9392 29.0379 50.9053 28.7516 50.0917 29.2112H50.0879C49.2781 29.6726 48.9899 30.7065 49.4532 31.5201L51.7433 35.5599L37.9875 43.4849C38.2342 43.5735 43.4586 45.4323 43.613 46.502C43.7599 47.5228 40.3303 46.067 39.8482 45.858C40.1778 46.0256 41.9274 46.9258 42.7561 47.7074L66.9513 33.8159C68.3882 32.9967 68.893 31.1698 68.0775 29.7328ZM38.8557 49.9448C36.4544 49.3176 32.8535 47.7658 31.554 47.1913L29.1057 48.602C25.0188 44.146 18.2596 42.9256 12.7753 46.0331C6.39267 49.6491 4.14962 57.755 7.7675 64.1376C11.3854 70.5183 19.4875 72.7576 25.8682 69.1416C31.345 66.0397 33.7707 59.6326 32.0663 53.8433L38.8557 49.9448ZM23.6402 65.213C19.4291 67.6029 14.0786 66.1226 11.6905 61.9115C9.30431 57.7003 10.7827 52.3498 14.9957 49.9617C19.2069 47.5756 24.5593 49.0558 26.9455 53.2651C29.3336 57.4762 27.8551 62.8268 23.6402 65.213Z" fill="#87CBD1" class="--fill-change-color"/>
</g>
</g>
</g>
</g>
<g id="Group_22">
<path id="Vector_28" d="M60.8417 93.8189C60.4857 93.8265 60.1317 93.7794 59.7908 93.6796C59.2352 93.5157 58.689 93.318 58.2069 93.0016C57.5703 92.5835 57.0505 91.9111 57.011 91.1502C56.9771 90.5024 57.2916 89.8771 57.7248 89.395C58.6646 88.346 60.2032 87.8789 61.5687 88.2254C62.9341 88.572 64.0603 89.7227 64.3805 91.0937C64.3767 89.2556 65.5368 87.489 67.2827 86.8261C68.2319 86.4664 69.3092 86.5436 70.1849 87.0578C71.7236 87.9636 71.8912 89.6511 71.9835 91.2049C72.1511 89.9355 72.9233 88.9995 73.9252 88.2028C75.0364 87.3214 76.6636 86.9222 77.8727 88.0691C78.2399 88.4194 78.5092 88.8677 78.6467 89.3554C78.788 89.8564 78.7955 90.3555 78.7013 90.8301C78.3962 92.3575 77.0195 93.4347 75.462 93.4724L60.8417 93.8189Z" fill="#87CBD1" class="--fill-change-color"/>
</g>
</g>
</svg>
