<svg xmlns="http://www.w3.org/2000/svg" width="35.794" height="35.792" viewBox="0 0 35.794 35.792">
  <g id="Grupo_10131" data-name="Grupo 10131" transform="translate(-436.173 -424.582)">
    <path id="Caminho_4396" data-name="Caminho 4396" d="M55.694,86.363c1.582,1.183,4.719,1.726,8.306,1.375.271-3.588-.266-6.832-2.514-8.435A6.2,6.2,0,0,0,57.9,78.014a4.448,4.448,0,0,0-3.622,1.858c-1.277,1.749-1.336,4.435,1.414,6.491" transform="translate(390.764 349.326)" fill="#fff"/>
    <path id="Caminho_4397" data-name="Caminho 4397" d="M84.71,220.189a29.628,29.628,0,0,1-5.541,6.649,17.9,17.9,0,0,0,23.037-11.353,39.761,39.761,0,0,1-17.5,4.7" transform="translate(368.893 232.5)" fill="#fff"/>
    <path id="Caminho_4398" data-name="Caminho 4398" d="M144.985,132.158a17.809,17.809,0,0,0-2.014-8.245q-.414.347-.856.71a26.034,26.034,0,0,1-11.19,5.228,49.905,49.905,0,0,1-1.261,5.57,27.54,27.54,0,0,1-1.178,3.325,35.1,35.1,0,0,0,16.475-5.678q.023-.452.023-.91" transform="translate(326.981 310.32)" fill="#fff"/>
    <path id="Caminho_4399" data-name="Caminho 4399" d="M113.67,71.508a22,22,0,0,0,8.575-4.209c.405-.333.787-.651,1.151-.96a17.859,17.859,0,0,0-13.956-6.7c-.58,0-1.154.03-1.72.084a11.264,11.264,0,0,1,1.933,1.115c2.884,2.057,4.225,5.63,4.017,10.668" transform="translate(344.63 364.941)" fill="#fff"/>
    <path id="Caminho_4400" data-name="Caminho 4400" d="M15.352,117.506a23.925,23.925,0,0,0,1.754-4.431c.371-1.314.718-2.713.989-4.126-4.045.259-7.678-.507-9.905-2.171a8.179,8.179,0,0,1-3.547-8.04A17.88,17.88,0,0,0,.385,114.448a38.789,38.789,0,0,0,11.854,2.911q1.568.134,3.113.147" transform="translate(436.173 331.715)" fill="#fff"/>
    <path id="Caminho_4401" data-name="Caminho 4401" d="M19.1,239.222a26.11,26.11,0,0,0,4.8-5.012,43.228,43.228,0,0,1-11.345-2.181,17.98,17.98,0,0,0,6.541,7.193" transform="translate(425.497 218.441)" fill="#fff"/>
  </g>
</svg>
