<svg id="Grupo_10132" data-name="Grupo 10132" xmlns="http://www.w3.org/2000/svg" xmlns:xlink="http://www.w3.org/1999/xlink" width="137.654" height="44.75" viewBox="0 0 137.654 44.75">
  <defs>
    <clipPath id="clip-path">
      <rect id="Retângulo_3190" data-name="Retângulo 3190" width="137.654" height="44.75" fill="#fff"/>
    </clipPath>
  </defs>
  <g id="Grupo_10123" data-name="Grupo 10123" clip-path="url(#clip-path)">
    <path id="Caminho_4343" data-name="Caminho 4343" d="M283.915,11.263a8.9,8.9,0,0,0,1.1-.062,5.933,5.933,0,0,0,.921-.186,5.785,5.785,0,0,0,.809-.3q.384-.177.772-.4V7.167H285.27a.216.216,0,0,1-.153-.058.175.175,0,0,1-.062-.132V6.515h3.229v4.153a7.669,7.669,0,0,1-.908.545,6.043,6.043,0,0,1-1.008.4,7.749,7.749,0,0,1-1.156.248,9.847,9.847,0,0,1-1.354.087,6.063,6.063,0,0,1-2.308-.425,5.116,5.116,0,0,1-1.792-1.205,5.432,5.432,0,0,1-1.16-1.886,6.989,6.989,0,0,1-.413-2.461,6.954,6.954,0,0,1,.413-2.456,5.346,5.346,0,0,1,1.173-1.883A5.17,5.17,0,0,1,281.616.425,6.616,6.616,0,0,1,284.048,0a7.793,7.793,0,0,1,1.235.091,5.762,5.762,0,0,1,1.053.268,4.938,4.938,0,0,1,.908.438,6.11,6.11,0,0,1,.809.6l-.223.363a.23.23,0,0,1-.207.124.306.306,0,0,1-.14-.033,1.724,1.724,0,0,1-.359-.231,3.83,3.83,0,0,0-.636-.38,5.3,5.3,0,0,0-1-.355,5.875,5.875,0,0,0-1.462-.157,5.538,5.538,0,0,0-2.056.363A4.361,4.361,0,0,0,280.4,2.131a4.611,4.611,0,0,0-1,1.651,6.422,6.422,0,0,0-.351,2.188,6.509,6.509,0,0,0,.355,2.221,4.748,4.748,0,0,0,.995,1.664,4.287,4.287,0,0,0,1.536,1.045,5.218,5.218,0,0,0,1.978.363" transform="translate(-236.409)" fill="#fff"/>
    <path id="Caminho_4344" data-name="Caminho 4344" d="M356.717,7.279v5.284h-.842V.88h2.981a4.866,4.866,0,0,1,3.022.781,2.73,2.73,0,0,1,1,2.291,3.143,3.143,0,0,1-.231,1.222,2.868,2.868,0,0,1-.665.97,3.535,3.535,0,0,1-1.045.685,4.649,4.649,0,0,1-1.379.352,1.338,1.338,0,0,1,.355.33l4.021,5.053H363.2a.484.484,0,0,1-.227-.049.6.6,0,0,1-.186-.165l-3.74-4.74a.83.83,0,0,0-.3-.256,1.254,1.254,0,0,0-.5-.075Zm0-.627h2.031a4.8,4.8,0,0,0,1.392-.186,3,3,0,0,0,1.04-.532,2.3,2.3,0,0,0,.648-.834,2.609,2.609,0,0,0,.223-1.1,2.147,2.147,0,0,0-.818-1.85,3.971,3.971,0,0,0-2.378-.6h-2.139Z" transform="translate(-302.432 -0.748)" fill="#fff"/>
    <path id="Caminho_4345" data-name="Caminho 4345" d="M415.057,11.962a3.7,3.7,0,0,0,1.507-.293,3.23,3.23,0,0,0,1.127-.813,3.577,3.577,0,0,0,.706-1.226,4.639,4.639,0,0,0,.244-1.523V.881h.842V8.106a5.23,5.23,0,0,1-.306,1.8,4.315,4.315,0,0,1-.879,1.462,4.057,4.057,0,0,1-1.4.978,4.976,4.976,0,0,1-3.691,0,4.053,4.053,0,0,1-1.4-.978,4.308,4.308,0,0,1-.879-1.462,5.223,5.223,0,0,1-.305-1.8V.881h.85V8.1a4.638,4.638,0,0,0,.244,1.524,3.62,3.62,0,0,0,.7,1.226,3.233,3.233,0,0,0,1.123.818,3.656,3.656,0,0,0,1.507.3" transform="translate(-348.965 -0.749)" fill="#fff"/>
    <path id="Caminho_4346" data-name="Caminho 4346" d="M483.124,7.858v4.706h-.842V.881H485.3a4.637,4.637,0,0,1,3.1.9,3.206,3.206,0,0,1,1.045,2.568,3.453,3.453,0,0,1-.285,1.412,3.142,3.142,0,0,1-.822,1.111,3.839,3.839,0,0,1-1.3.726,5.374,5.374,0,0,1-1.734.26Zm0-.677H485.3a4.164,4.164,0,0,0,1.387-.215,3.055,3.055,0,0,0,1.036-.595,2.582,2.582,0,0,0,.652-.9,2.762,2.762,0,0,0,.227-1.127,2.609,2.609,0,0,0-.83-2.073A3.662,3.662,0,0,0,485.3,1.55h-2.172Z" transform="translate(-409.855 -0.749)" fill="#fff"/>
    <path id="Caminho_4347" data-name="Caminho 4347" d="M546.265,5.97a7.087,7.087,0,0,1-.4,2.457,5.446,5.446,0,0,1-1.14,1.883,5.043,5.043,0,0,1-1.759,1.206,6.234,6.234,0,0,1-4.525,0,5.039,5.039,0,0,1-1.759-1.206,5.49,5.49,0,0,1-1.144-1.883,7.018,7.018,0,0,1-.409-2.457,6.994,6.994,0,0,1,.409-2.448,5.49,5.49,0,0,1,1.144-1.883,5.085,5.085,0,0,1,1.759-1.21A5.775,5.775,0,0,1,540.691,0a5.863,5.863,0,0,1,2.271.425,5.019,5.019,0,0,1,1.759,1.21,5.491,5.491,0,0,1,1.14,1.887,7.063,7.063,0,0,1,.4,2.448m-.875,0a6.667,6.667,0,0,0-.339-2.2,4.735,4.735,0,0,0-.954-1.652,4.088,4.088,0,0,0-1.482-1.036,4.974,4.974,0,0,0-1.924-.359,4.9,4.9,0,0,0-1.9.359A4.176,4.176,0,0,0,537.3,2.122a4.709,4.709,0,0,0-.966,1.652,6.583,6.583,0,0,0-.343,2.2,6.577,6.577,0,0,0,.343,2.2,4.718,4.718,0,0,0,.966,1.647,4.132,4.132,0,0,0,1.486,1.032,4.953,4.953,0,0,0,1.9.355,5.029,5.029,0,0,0,1.924-.355A4.045,4.045,0,0,0,544.1,9.818a4.744,4.744,0,0,0,.954-1.647,6.661,6.661,0,0,0,.339-2.2" transform="translate(-454.764 0)" fill="#fff"/>
    <path id="Caminho_4348" data-name="Caminho 4348" d="M291.644,105.013h-7.781v5.081h5.085a1.209,1.209,0,0,1,1.173,1.5l-.639,3.1a.619.619,0,0,1-.574.447h-5.045v8.538h-5.678V99.872h13.51a1.214,1.214,0,0,1,1.178,1.508l-.639,3.173a.615.615,0,0,1-.589.46" transform="translate(-236.409 -84.874)" fill="#fff"/>
    <path id="Caminho_4349" data-name="Caminho 4349" d="M392.247,109.694a12.846,12.846,0,0,1-.894,4.823,11.4,11.4,0,0,1-6.43,6.463,14.278,14.278,0,0,1-10.163,0,11.41,11.41,0,0,1-6.455-6.463,13.452,13.452,0,0,1,0-9.645A11.455,11.455,0,0,1,370.832,101a11.654,11.654,0,0,1,3.928-2.576,13.358,13.358,0,0,1,5.085-.935,13.216,13.216,0,0,1,5.078.943,11.716,11.716,0,0,1,3.912,2.583,11.548,11.548,0,0,1,2.518,3.871,12.807,12.807,0,0,1,.894,4.806m-5.676,0c0-3.9-2.417-7.108-6.726-7.108-4.325,0-6.758,3.2-6.758,7.108s2.433,7.125,6.758,7.125c4.308,0,6.726-3.222,6.726-7.125" transform="translate(-312.236 -82.849)" fill="#fff"/>
    <path id="Caminho_4350" data-name="Caminho 4350" d="M546.521,123.676h-5.676V99.871h7.776a15.953,15.953,0,0,1,4.421.533,8.235,8.235,0,0,1,2.986,1.389,5.615,5.615,0,0,1,1.681,2.249,7.42,7.42,0,0,1,.525,2.821,7.565,7.565,0,0,1-.312,2.2,6.692,6.692,0,0,1-.926,1.911,8.13,8.13,0,0,1-3.43,2.7,5.08,5.08,0,0,1,1.4,1.69l5.085,8.317H555.38a2.129,2.129,0,0,1-2-1.05s-4.317-7.236-4.561-7.679a3.153,3.153,0,0,1-.083-2.806,3.539,3.539,0,0,1,1.712-1.333,3.739,3.739,0,0,0,2.131-3.535c0-1.581-1.15-2.263-2.685-2.263l-3.372,0Z" transform="translate(-459.624 -84.873)" fill="#fff"/>
    <path id="Caminho_4351" data-name="Caminho 4351" d="M676.848,118.7c2.959,0,4.069-1.853,4.283-2.515a7.359,7.359,0,0,0,.319-2.256v-12.8a1.224,1.224,0,0,1,1.227-1.264h4.44v14.061a11.064,11.064,0,0,1-.714,4.036,9.066,9.066,0,0,1-2.043,3.166,9.213,9.213,0,0,1-3.231,2.067,12.84,12.84,0,0,1-8.579,0,9.223,9.223,0,0,1-3.233-2.067,8.952,8.952,0,0,1-2.033-3.166,11.162,11.162,0,0,1-.706-4.036V99.872h4.412a1.229,1.229,0,0,1,1.228,1.206v12.933a7.35,7.35,0,0,0,.32,2.256,4.455,4.455,0,0,0,4.309,2.437" transform="translate(-566.476 -84.874)" fill="#fff"/>
    <path id="Caminho_4352" data-name="Caminho 4352" d="M819.975,102.748a2.106,2.106,0,0,1-.517.59,1.161,1.161,0,0,1-.7.2,1.818,1.818,0,0,1-.812-.237,7.5,7.5,0,0,0-3.491-.955c-2.011-.023-3.087.538-3.087,1.972a2.082,2.082,0,0,0,1.39,2.018,12.8,12.8,0,0,0,1.706.631q.96.287,1.96.64a17.543,17.543,0,0,1,1.96.829,6.585,6.585,0,0,1,1.706,1.214,5.665,5.665,0,0,1,1.205,1.8,6.388,6.388,0,0,1,.459,2.551,8.317,8.317,0,0,1-.574,3.1,7.266,7.266,0,0,1-1.665,2.517,7.716,7.716,0,0,1-2.69,1.689,10.059,10.059,0,0,1-3.634.615,11.614,11.614,0,0,1-2.272-.229,13.517,13.517,0,0,1-2.239-.648,13,13,0,0,1-2.034-.992,8.676,8.676,0,0,1-1.656-1.279l1.831-2.863a1.34,1.34,0,0,1,.509-.475,1.441,1.441,0,0,1,.7-.181,1.929,1.929,0,0,1,.993.312,8.973,8.973,0,0,0,4.327,1.426c1.215,0,2.864-.532,2.864-2.24a2.588,2.588,0,0,0-1.346-2.231,11.143,11.143,0,0,0-1.7-.607q-.951-.261-1.951-.582a14.235,14.235,0,0,1-1.953-.787,6.188,6.188,0,0,1-1.7-1.231,5.757,5.757,0,0,1-1.2-1.9,7.539,7.539,0,0,1-.46-2.814,6.678,6.678,0,0,1,.542-2.624,6.779,6.779,0,0,1,1.591-2.281,7.824,7.824,0,0,1,2.575-1.6,9.495,9.495,0,0,1,3.495-.6,13.075,13.075,0,0,1,2.14.172,11.255,11.255,0,0,1,1.977.508,10.916,10.916,0,0,1,1.747.8,8.01,8.01,0,0,1,1.451,1.058Z" transform="translate(-684.105 -82.85)" fill="#fff"/>
    <path id="Caminho_4353" data-name="Caminho 4353" d="M55.694,86.363c1.582,1.183,4.719,1.726,8.306,1.375.271-3.588-.266-6.832-2.514-8.435A6.2,6.2,0,0,0,57.9,78.014a4.448,4.448,0,0,0-3.622,1.858c-1.277,1.749-1.336,4.435,1.414,6.491" transform="translate(-45.409 -66.298)" fill="#fff"/>
    <path id="Caminho_4354" data-name="Caminho 4354" d="M84.71,220.189a29.628,29.628,0,0,1-5.541,6.649,17.9,17.9,0,0,0,23.037-11.353,39.761,39.761,0,0,1-17.5,4.7" transform="translate(-67.28 -183.125)" fill="#fff"/>
    <path id="Caminho_4355" data-name="Caminho 4355" d="M144.985,132.158a17.809,17.809,0,0,0-2.014-8.245q-.414.347-.856.71a26.034,26.034,0,0,1-11.19,5.228,49.905,49.905,0,0,1-1.261,5.57,27.54,27.54,0,0,1-1.178,3.325,35.1,35.1,0,0,0,16.475-5.678q.023-.452.023-.91" transform="translate(-109.192 -105.304)" fill="#fff"/>
    <path id="Caminho_4356" data-name="Caminho 4356" d="M113.67,71.508a22,22,0,0,0,8.575-4.209c.405-.333.787-.651,1.151-.96a17.859,17.859,0,0,0-13.956-6.7c-.58,0-1.154.03-1.72.084a11.264,11.264,0,0,1,1.933,1.115c2.884,2.057,4.225,5.63,4.017,10.668" transform="translate(-91.543 -50.684)" fill="#fff"/>
    <path id="Caminho_4357" data-name="Caminho 4357" d="M15.352,117.506a23.925,23.925,0,0,0,1.754-4.431c.371-1.314.718-2.713.989-4.126-4.045.259-7.678-.507-9.905-2.171a8.179,8.179,0,0,1-3.547-8.04A17.88,17.88,0,0,0,.385,114.448a38.789,38.789,0,0,0,11.854,2.911q1.568.134,3.113.147" transform="translate(0 -83.911)" fill="#fff"/>
    <path id="Caminho_4358" data-name="Caminho 4358" d="M19.1,239.222a26.11,26.11,0,0,0,4.8-5.012,43.228,43.228,0,0,1-11.345-2.181,17.98,17.98,0,0,0,6.541,7.193" transform="translate(-10.676 -197.184)" fill="#fff"/>
  </g>
</svg>
