<svg id="Grupo_10126" data-name="Grupo 10126" xmlns="http://www.w3.org/2000/svg" xmlns:xlink="http://www.w3.org/1999/xlink" width="477.142" height="96.918" viewBox="0 0 477.142 96.918">
  <defs>
    <clipPath id="clip-path">
      <rect id="Retângulo_3191" data-name="Retângulo 3191" width="477.142" height="96.918" fill="#189fe6"/>
    </clipPath>
  </defs>
  <g id="Grupo_10125" data-name="Grupo 10125" clip-path="url(#clip-path)">
    <path id="Caminho_4359" data-name="Caminho 4359" d="M290.6,24.392a19.276,19.276,0,0,0,2.378-.134,12.849,12.849,0,0,0,1.994-.4,12.522,12.522,0,0,0,1.752-.653q.832-.384,1.672-.867V15.523h-4.864a.468.468,0,0,1-.331-.126.379.379,0,0,1-.134-.286v-1h6.992V23.1a16.611,16.611,0,0,1-1.967,1.18,13.086,13.086,0,0,1-2.182.866,16.782,16.782,0,0,1-2.5.537,21.326,21.326,0,0,1-2.933.187,13.13,13.13,0,0,1-5-.921,11.079,11.079,0,0,1-3.881-2.61,11.766,11.766,0,0,1-2.512-4.086,15.138,15.138,0,0,1-.894-5.33,15.061,15.061,0,0,1,.894-5.32,11.579,11.579,0,0,1,2.539-4.077,11.2,11.2,0,0,1,4-2.611A14.33,14.33,0,0,1,290.882,0a16.877,16.877,0,0,1,2.674.2,12.453,12.453,0,0,1,2.28.582,10.673,10.673,0,0,1,1.967.948,13.241,13.241,0,0,1,1.752,1.3l-.483.787a.5.5,0,0,1-.447.269.664.664,0,0,1-.3-.072,3.731,3.731,0,0,1-.778-.5,8.3,8.3,0,0,0-1.377-.823,11.484,11.484,0,0,0-2.172-.769,12.725,12.725,0,0,0-3.166-.34,12,12,0,0,0-4.453.787,9.442,9.442,0,0,0-3.389,2.254,9.983,9.983,0,0,0-2.164,3.576,13.909,13.909,0,0,0-.76,4.738,14.1,14.1,0,0,0,.769,4.811,10.283,10.283,0,0,0,2.155,3.6,9.285,9.285,0,0,0,3.327,2.263,11.3,11.3,0,0,0,4.283.787" transform="translate(-187.707)" fill="#bababa"/>
    <path id="Caminho_4360" data-name="Caminho 4360" d="M357.7,14.739V26.183h-1.824V.88h6.456q4.382,0,6.545,1.691a5.912,5.912,0,0,1,2.164,4.962,6.808,6.808,0,0,1-.5,2.647,6.211,6.211,0,0,1-1.44,2.1,7.655,7.655,0,0,1-2.262,1.484,10.057,10.057,0,0,1-2.986.761,2.907,2.907,0,0,1,.769.715l8.709,10.944h-1.592a1.047,1.047,0,0,1-.492-.107,1.3,1.3,0,0,1-.4-.358l-8.1-10.264a1.8,1.8,0,0,0-.652-.554,2.715,2.715,0,0,0-1.082-.162Zm0-1.359h4.4a10.4,10.4,0,0,0,3.014-.4,6.489,6.489,0,0,0,2.253-1.153,4.983,4.983,0,0,0,1.4-1.806,5.652,5.652,0,0,0,.483-2.379,4.65,4.65,0,0,0-1.771-4.006,8.6,8.6,0,0,0-5.15-1.3H357.7Z" transform="translate(-240.129 -0.594)" fill="#bababa"/>
    <path id="Caminho_4361" data-name="Caminho 4361" d="M420.216,24.879a8.009,8.009,0,0,0,3.264-.635,7,7,0,0,0,2.44-1.762,7.745,7.745,0,0,0,1.529-2.655,10.046,10.046,0,0,0,.528-3.3V.881H429.8V16.529a11.327,11.327,0,0,1-.662,3.906,9.346,9.346,0,0,1-1.9,3.166,8.786,8.786,0,0,1-3.022,2.119,10.777,10.777,0,0,1-7.994,0A8.778,8.778,0,0,1,413.2,23.6a9.331,9.331,0,0,1-1.9-3.166,11.313,11.313,0,0,1-.662-3.906V.881h1.842V16.51a10.047,10.047,0,0,0,.528,3.3,7.841,7.841,0,0,0,1.52,2.655,7,7,0,0,0,2.432,1.77,7.912,7.912,0,0,0,3.263.644" transform="translate(-277.076 -0.594)" fill="#bababa"/>
    <path id="Caminho_4362" data-name="Caminho 4362" d="M484.105,15.991V26.184h-1.823V.881h6.527q4.453,0,6.715,1.949a6.943,6.943,0,0,1,2.262,5.562,7.479,7.479,0,0,1-.617,3.057,6.8,6.8,0,0,1-1.779,2.405,8.309,8.309,0,0,1-2.826,1.574,11.639,11.639,0,0,1-3.756.563Zm0-1.466h4.7a9.019,9.019,0,0,0,3-.466,6.616,6.616,0,0,0,2.245-1.288,5.6,5.6,0,0,0,1.412-1.94,5.982,5.982,0,0,0,.492-2.44,5.651,5.651,0,0,0-1.8-4.489,7.932,7.932,0,0,0-5.356-1.573h-4.7Z" transform="translate(-325.423 -0.594)" fill="#bababa"/>
    <path id="Caminho_4363" data-name="Caminho 4363" d="M559.251,12.929a15.345,15.345,0,0,1-.877,5.321,11.792,11.792,0,0,1-2.468,4.077,10.922,10.922,0,0,1-3.809,2.611,13.5,13.5,0,0,1-9.8,0,10.913,10.913,0,0,1-3.809-2.611,11.89,11.89,0,0,1-2.477-4.077,15.2,15.2,0,0,1-.886-5.321,15.149,15.149,0,0,1,.886-5.3,11.891,11.891,0,0,1,2.477-4.078A11.013,11.013,0,0,1,542.3.93,12.506,12.506,0,0,1,547.179,0,12.7,12.7,0,0,1,552.1.921a10.87,10.87,0,0,1,3.809,2.62,11.891,11.891,0,0,1,2.468,4.086,15.293,15.293,0,0,1,.877,5.3m-1.9,0a14.441,14.441,0,0,0-.733-4.756A10.257,10.257,0,0,0,554.556,4.6a8.854,8.854,0,0,0-3.21-2.244,10.772,10.772,0,0,0-4.167-.778,10.609,10.609,0,0,0-4.122.778A9.045,9.045,0,0,0,539.838,4.6a10.2,10.2,0,0,0-2.092,3.577A14.259,14.259,0,0,0,537,12.929a14.246,14.246,0,0,0,.742,4.767,10.22,10.22,0,0,0,2.092,3.568,8.949,8.949,0,0,0,3.219,2.235,10.727,10.727,0,0,0,4.122.769,10.892,10.892,0,0,0,4.167-.769,8.762,8.762,0,0,0,3.21-2.235,10.276,10.276,0,0,0,2.066-3.568,14.427,14.427,0,0,0,.733-4.767" transform="translate(-361.08 0)" fill="#bababa"/>
    <path id="Caminho_4364" data-name="Caminho 4364" d="M307.335,111.005H290.483v11H301.5a2.618,2.618,0,0,1,2.541,3.249l-1.385,6.709a1.341,1.341,0,0,1-1.244.969H290.483v18.491h-12.3V99.872h29.259A2.63,2.63,0,0,1,310,103.138l-1.385,6.871a1.331,1.331,0,0,1-1.276,1" transform="translate(-187.707 -67.389)" fill="#3a3939"/>
    <path id="Caminho_4365" data-name="Caminho 4365" d="M421.2,123.921a27.821,27.821,0,0,1-1.935,10.445,24.7,24.7,0,0,1-13.926,14,30.923,30.923,0,0,1-22.01,0,24.712,24.712,0,0,1-13.979-14,29.135,29.135,0,0,1,0-20.889,24.809,24.809,0,0,1,5.471-8.383,25.239,25.239,0,0,1,8.508-5.579,28.93,28.93,0,0,1,11.013-2.025,28.624,28.624,0,0,1,11,2.043,25.375,25.375,0,0,1,8.472,5.6,25.012,25.012,0,0,1,5.454,8.384,27.736,27.736,0,0,1,1.935,10.409m-12.292,0c0-8.454-5.235-15.4-14.566-15.4-9.366,0-14.636,6.941-14.636,15.4s5.27,15.432,14.636,15.432c9.331,0,14.566-6.979,14.566-15.432" transform="translate(-247.914 -65.782)" fill="#3a3939"/>
    <path id="Caminho_4366" data-name="Caminho 4366" d="M553.139,151.428H540.845V99.871h16.841a34.549,34.549,0,0,1,9.574,1.155,17.835,17.835,0,0,1,6.466,3.007,12.161,12.161,0,0,1,3.641,4.87,16.07,16.07,0,0,1,1.137,6.11,16.38,16.38,0,0,1-.675,4.761,14.5,14.5,0,0,1-2.005,4.139,17.606,17.606,0,0,1-7.429,5.843c.8.4,1.706,1.615,3.026,3.66l11.012,18.012H572.324a4.612,4.612,0,0,1-4.335-2.275s-9.349-15.672-9.879-16.632a6.83,6.83,0,0,1-.179-6.078c.655-1.341,2.143-2.08,3.708-2.887a8.1,8.1,0,0,0,4.616-7.655c0-3.424-2.491-4.9-5.815-4.9-1.9,0-5.231.006-7.3.006Z" transform="translate(-364.939 -67.389)" fill="#3a3939"/>
    <path id="Caminho_4367" data-name="Caminho 4367" d="M688.82,140.657c6.409,0,8.813-4.012,9.275-5.447a15.937,15.937,0,0,0,.692-4.885V102.609a2.65,2.65,0,0,1,2.658-2.737h9.615v30.453a23.961,23.961,0,0,1-1.546,8.74,19.635,19.635,0,0,1-4.424,6.857,19.952,19.952,0,0,1-7,4.476,27.808,27.808,0,0,1-18.58,0,19.977,19.977,0,0,1-7-4.476,19.388,19.388,0,0,1-4.4-6.857,24.178,24.178,0,0,1-1.528-8.74V99.872h9.556a2.662,2.662,0,0,1,2.659,2.612v28.01a15.918,15.918,0,0,0,.692,4.885c.464,1.435,3.283,5.277,9.333,5.277" transform="translate(-449.779 -67.389)" fill="#3a3939"/>
    <path id="Caminho_4368" data-name="Caminho 4368" d="M837.439,108.877a4.564,4.564,0,0,1-1.119,1.278,2.514,2.514,0,0,1-1.51.426,3.939,3.939,0,0,1-1.758-.514A16.253,16.253,0,0,0,825.491,108c-4.356-.05-6.685,1.165-6.685,4.27a4.51,4.51,0,0,0,3.011,4.37,27.713,27.713,0,0,0,3.694,1.368q2.079.622,4.245,1.386A37.993,37.993,0,0,1,834,121.187a14.256,14.256,0,0,1,3.7,2.629,12.268,12.268,0,0,1,2.61,3.89,13.835,13.835,0,0,1,.995,5.525,18.013,18.013,0,0,1-1.243,6.716,15.735,15.735,0,0,1-3.606,5.452,16.71,16.71,0,0,1-5.826,3.659,21.786,21.786,0,0,1-7.87,1.332,25.153,25.153,0,0,1-4.92-.5,29.272,29.272,0,0,1-4.849-1.4,28.164,28.164,0,0,1-4.405-2.148A18.787,18.787,0,0,1,805,143.57l3.966-6.2a2.9,2.9,0,0,1,1.1-1.03,3.12,3.12,0,0,1,1.526-.391,4.178,4.178,0,0,1,2.15.676,19.434,19.434,0,0,0,9.372,3.089c2.633,0,6.2-1.152,6.2-4.85a5.606,5.606,0,0,0-2.915-4.831,24.127,24.127,0,0,0-3.679-1.314q-2.06-.566-4.226-1.261a30.837,30.837,0,0,1-4.229-1.7,13.4,13.4,0,0,1-3.677-2.665,12.469,12.469,0,0,1-2.609-4.121,16.331,16.331,0,0,1-1-6.094,14.464,14.464,0,0,1,1.173-5.682,14.683,14.683,0,0,1,3.446-4.939,16.944,16.944,0,0,1,5.578-3.462,20.563,20.563,0,0,1,7.568-1.3,28.318,28.318,0,0,1,4.635.372,24.377,24.377,0,0,1,4.282,1.1,23.644,23.644,0,0,1,3.784,1.741A17.35,17.35,0,0,1,840.592,103Z" transform="translate(-543.176 -65.783)" fill="#3a3939"/>
    <path id="Caminho_4369" data-name="Caminho 4369" d="M58.33,96.1c3.426,2.563,10.22,3.739,17.988,2.979.587-7.771-.577-14.8-5.444-18.268a13.416,13.416,0,0,0-7.762-2.793,9.632,9.632,0,0,0-7.845,4.024c-2.767,3.789-2.893,9.6,3.063,14.058" transform="translate(-36.054 -52.64)" fill="#189fe6"/>
    <path id="Caminho_4370" data-name="Caminho 4370" d="M91.17,225.674a64.168,64.168,0,0,1-12,14.4,38.777,38.777,0,0,0,49.893-24.588A86.113,86.113,0,0,1,91.17,225.674" transform="translate(-53.42 -145.4)" fill="#189fe6"/>
    <path id="Caminho_4371" data-name="Caminho 4371" d="M164.218,141.77a38.569,38.569,0,0,0-4.362-17.856q-.9.751-1.853,1.538a56.385,56.385,0,0,1-24.234,11.322,108.075,108.075,0,0,1-2.731,12.064,59.645,59.645,0,0,1-2.552,7.2,76.029,76.029,0,0,0,35.681-12.3q.05-.979.05-1.972" transform="translate(-86.698 -83.611)" fill="#189fe6"/>
    <path id="Caminho_4372" data-name="Caminho 4372" d="M120.606,85.343a47.64,47.64,0,0,0,18.572-9.117c.877-.72,1.7-1.41,2.493-2.079a38.679,38.679,0,0,0-30.225-14.506c-1.257,0-2.5.065-3.725.182a24.4,24.4,0,0,1,4.186,2.415c6.246,4.455,9.151,12.192,8.7,23.1" transform="translate(-72.685 -40.243)" fill="#189fe6"/>
    <path id="Caminho_4373" data-name="Caminho 4373" d="M33.249,139.385a51.817,51.817,0,0,0,3.8-9.6c.8-2.846,1.555-5.876,2.141-8.935-8.759.561-16.629-1.1-21.452-4.7-6.631-4.959-8.681-11.562-7.683-17.413a38.724,38.724,0,0,0-9.22,34.022,84.007,84.007,0,0,0,25.673,6.3q3.4.291,6.742.319" transform="translate(0 -66.625)" fill="#189fe6"/>
    <path id="Caminho_4374" data-name="Caminho 4374" d="M26.728,247.607a56.547,56.547,0,0,0,10.406-10.855,93.621,93.621,0,0,1-24.571-4.723,38.941,38.941,0,0,0,14.165,15.578" transform="translate(-8.477 -156.563)" fill="#189fe6"/>
    <path id="Caminho_4375" data-name="Caminho 4375" d="M1075.3,137.937l-.626,5.108h-.886l1.548-12.656h3.041a4.059,4.059,0,0,1,2.791.836,2.994,2.994,0,0,1,.93,2.348,4.581,4.581,0,0,1-.33,1.767,3.956,3.956,0,0,1-.939,1.377,4.283,4.283,0,0,1-1.467.9,5.412,5.412,0,0,1-1.914.322Zm.841-6.842-.752,6.135h2.147a4.067,4.067,0,0,0,1.516-.269,3.388,3.388,0,0,0,1.154-.744,3.265,3.265,0,0,0,.738-1.128,3.821,3.821,0,0,0,.259-1.424,2.457,2.457,0,0,0-.729-1.895,3.118,3.118,0,0,0-2.187-.676Z" transform="translate(-724.545 -87.981)" fill="#464545"/>
    <path id="Caminho_4376" data-name="Caminho 4376" d="M1103.063,143.045h-.68a.29.29,0,0,1-.2-.067.331.331,0,0,1-.1-.165l-.9-3.7h-5.67l-1.807,3.7a.4.4,0,0,1-.143.165.385.385,0,0,1-.224.067h-.68l6.324-12.656h.876Zm-7.236-4.589h5.2l-1.565-6.44c-.03-.1-.058-.215-.085-.34s-.049-.256-.067-.393c-.012.036-.035.091-.067.165s-.067.151-.1.228-.069.149-.1.215-.051.11-.063.134Z" transform="translate(-737.275 -87.981)" fill="#464545"/>
    <path id="Caminho_4377" data-name="Caminho 4377" d="M1130.269,137.311l-.707,5.734h-.886l1.547-12.656h3.006a4.326,4.326,0,0,1,2.741.729,2.553,2.553,0,0,1,.908,2.115,4.087,4.087,0,0,1-.269,1.507,3.628,3.628,0,0,1-.76,1.2,3.89,3.89,0,0,1-1.185.837,5.188,5.188,0,0,1-1.534.429,1.1,1.1,0,0,1,.313.349l3.3,5.492h-.76a.44.44,0,0,1-.4-.223l-3.05-5.152a.788.788,0,0,0-.273-.278,1.059,1.059,0,0,0-.479-.081Zm.769-6.215-.689,5.554h1.995a4.65,4.65,0,0,0,1.525-.233,3.279,3.279,0,0,0,1.149-.661,2.838,2.838,0,0,0,.724-1.038,3.51,3.51,0,0,0,.25-1.351,2.03,2.03,0,0,0-.725-1.708,3.407,3.407,0,0,0-2.12-.563Z" transform="translate(-761.583 -87.981)" fill="#464545"/>
    <path id="Caminho_4378" data-name="Caminho 4378" d="M1163.067,143.045h-.68a.29.29,0,0,1-.2-.067.329.329,0,0,1-.1-.165l-.9-3.7h-5.67l-1.807,3.7a.4.4,0,0,1-.143.165.385.385,0,0,1-.224.067h-.68l6.324-12.656h.876Zm-7.236-4.589h5.2l-1.565-6.44c-.03-.1-.058-.215-.085-.34s-.049-.256-.067-.393c-.012.036-.034.091-.067.165s-.067.151-.1.228l-.1.215c-.03.065-.051.11-.062.134Z" transform="translate(-777.763 -87.981)" fill="#464545"/>
    <path id="Caminho_4379" data-name="Caminho 4379" d="M1198.532,130.42a.356.356,0,0,1,.121.139l6.136,11.019c.006-.084.01-.163.013-.237a1.528,1.528,0,0,1,.022-.21l1.324-10.742h.778l-1.557,12.656h-.411a.352.352,0,0,1-.331-.2l-6.145-11.02-.027.4-1.324,10.814h-.778l1.556-12.656h.438a.407.407,0,0,1,.183.031" transform="translate(-807.248 -87.981)" fill="#464545"/>
    <path id="Caminho_4380" data-name="Caminho 4380" d="M1243.666,129.158a9.018,9.018,0,0,1-.487,3.042,7.026,7.026,0,0,1-1.355,2.343,6.06,6.06,0,0,1-4.606,2.048,4.869,4.869,0,0,1-2-.4,4.323,4.323,0,0,1-1.525-1.123,5.06,5.06,0,0,1-.97-1.735,6.98,6.98,0,0,1-.34-2.236,8.945,8.945,0,0,1,.492-3.036,7.16,7.16,0,0,1,1.355-2.352,6.006,6.006,0,0,1,4.584-2.053,4.924,4.924,0,0,1,2.017.4,4.321,4.321,0,0,1,1.529,1.122,5.06,5.06,0,0,1,.971,1.739,7.025,7.025,0,0,1,.34,2.24m-.921.019a6.486,6.486,0,0,0-.282-1.981,4.333,4.333,0,0,0-.809-1.5,3.57,3.57,0,0,0-1.275-.956,4.025,4.025,0,0,0-1.668-.336,4.95,4.95,0,0,0-3.877,1.8,6.351,6.351,0,0,0-1.141,2.1,8.741,8.741,0,0,0-.411,2.773,6.386,6.386,0,0,0,.286,1.981,4.331,4.331,0,0,0,.814,1.5,3.6,3.6,0,0,0,1.27.952,3.99,3.99,0,0,0,1.663.335,5.093,5.093,0,0,0,2.174-.461,4.9,4.9,0,0,0,1.717-1.328,6.331,6.331,0,0,0,1.131-2.1,8.812,8.812,0,0,0,.407-2.777m-1.136-8.551-2.6,1.9a.968.968,0,0,1-.17.1.448.448,0,0,1-.179.031H1238l2.093-1.843a.755.755,0,0,1,.228-.156.882.882,0,0,1,.309-.041Z" transform="translate(-831.556 -81.393)" fill="#464545"/>
    <path id="Caminho_4381" data-name="Caminho 4381" d="M1275.779,131.619a.28.28,0,0,1-.233.153c-.072,0-.158-.057-.259-.17a3.061,3.061,0,0,0-.416-.371,3.027,3.027,0,0,0-.68-.371,2.773,2.773,0,0,0-1.042-.169,3.161,3.161,0,0,0-1.212.219,2.661,2.661,0,0,0-.9.6,2.6,2.6,0,0,0-.568.886,2.938,2.938,0,0,0-.2,1.078,1.749,1.749,0,0,0,.224.917,2.161,2.161,0,0,0,.586.635,4.009,4.009,0,0,0,.823.456q.46.193.948.375t.948.4a3.649,3.649,0,0,1,.823.532,2.3,2.3,0,0,1,.809,1.86,4.537,4.537,0,0,1-.3,1.633,3.941,3.941,0,0,1-2.182,2.267,4.393,4.393,0,0,1-1.762.34,3.888,3.888,0,0,1-1.932-.443,3.981,3.981,0,0,1-1.324-1.213l.3-.384a.358.358,0,0,1,.25-.125.279.279,0,0,1,.184.107q.1.107.25.264c.1.1.215.218.349.34a2.485,2.485,0,0,0,.488.34,3.165,3.165,0,0,0,.666.263,3.239,3.239,0,0,0,.881.107,3.484,3.484,0,0,0,1.36-.255,3.01,3.01,0,0,0,1.695-1.753,3.649,3.649,0,0,0,.228-1.3,1.766,1.766,0,0,0-.223-.925,2.1,2.1,0,0,0-.586-.631,3.735,3.735,0,0,0-.823-.438q-.461-.18-.944-.358t-.948-.394a3.4,3.4,0,0,1-.827-.532,2.385,2.385,0,0,1-.581-.777,2.631,2.631,0,0,1-.219-1.133,3.837,3.837,0,0,1,.259-1.395,3.518,3.518,0,0,1,1.941-2,4.039,4.039,0,0,1,1.61-.3,3.615,3.615,0,0,1,1.6.336,3.367,3.367,0,0,1,1.189.979Z" transform="translate(-855.548 -87.683)" fill="#464545"/>
    <path id="Caminho_4382" data-name="Caminho 4382" d="M1292.712,165.456a.835.835,0,0,1,.063-.322.809.809,0,0,1,.175-.264.879.879,0,0,1,.259-.179.778.778,0,0,1,.326-.067.818.818,0,0,1,.327.067.851.851,0,0,1,.268.179.867.867,0,0,1,.179.264.817.817,0,0,1-.179.908.829.829,0,0,1-.595.237.809.809,0,0,1-.823-.823" transform="translate(-872.266 -111.081)" fill="#464545"/>
    <path id="Caminho_4383" data-name="Caminho 4383" d="M1075.3,196.938l-.626,5.107h-.886l1.548-12.656h3.041a4.059,4.059,0,0,1,2.791.836,3,3,0,0,1,.93,2.348,4.582,4.582,0,0,1-.33,1.767,3.956,3.956,0,0,1-.939,1.377,4.284,4.284,0,0,1-1.467.9,5.412,5.412,0,0,1-1.914.322Zm.841-6.842-.752,6.136h2.147a4.067,4.067,0,0,0,1.516-.269,3.389,3.389,0,0,0,1.154-.744,3.265,3.265,0,0,0,.738-1.128,3.821,3.821,0,0,0,.259-1.424,2.457,2.457,0,0,0-.729-1.895,3.117,3.117,0,0,0-2.187-.676Z" transform="translate(-724.545 -127.792)" fill="#464545"/>
    <path id="Caminho_4384" data-name="Caminho 4384" d="M1103.063,202.045h-.68a.29.29,0,0,1-.2-.067.331.331,0,0,1-.1-.165l-.9-3.7h-5.67l-1.807,3.7a.4.4,0,0,1-.143.165.385.385,0,0,1-.224.067h-.68l6.324-12.656h.876Zm-7.236-4.588h5.2l-1.565-6.44c-.03-.1-.058-.215-.085-.34s-.049-.256-.067-.393c-.012.036-.035.091-.067.165s-.067.151-.1.228-.069.149-.1.215-.051.111-.063.134Z" transform="translate(-737.275 -127.792)" fill="#464545"/>
    <path id="Caminho_4385" data-name="Caminho 4385" d="M1130.269,196.311l-.707,5.734h-.886l1.547-12.656h3.006a4.326,4.326,0,0,1,2.741.729,2.554,2.554,0,0,1,.908,2.115,4.087,4.087,0,0,1-.269,1.507,3.628,3.628,0,0,1-.76,1.2,3.89,3.89,0,0,1-1.185.837,5.189,5.189,0,0,1-1.534.429,1.1,1.1,0,0,1,.313.349l3.3,5.492h-.76a.44.44,0,0,1-.4-.223l-3.05-5.152a.788.788,0,0,0-.273-.278,1.059,1.059,0,0,0-.479-.081Zm.769-6.216-.689,5.555h1.995a4.65,4.65,0,0,0,1.525-.233,3.279,3.279,0,0,0,1.149-.661,2.838,2.838,0,0,0,.724-1.038,3.51,3.51,0,0,0,.25-1.351,2.03,2.03,0,0,0-.725-1.708,3.4,3.4,0,0,0-2.12-.563Z" transform="translate(-761.583 -127.792)" fill="#464545"/>
    <path id="Caminho_4386" data-name="Caminho 4386" d="M1163.067,202.045h-.68a.29.29,0,0,1-.2-.067.329.329,0,0,1-.1-.165l-.9-3.7h-5.67l-1.807,3.7a.4.4,0,0,1-.143.165.385.385,0,0,1-.224.067h-.68l6.324-12.656h.876Zm-7.236-4.588h5.2l-1.565-6.44c-.03-.1-.058-.215-.085-.34s-.049-.256-.067-.393c-.012.036-.034.091-.067.165s-.067.151-.1.228l-.1.215q-.045.1-.062.134Z" transform="translate(-777.763 -127.792)" fill="#464545"/>
    <path id="Caminho_4387" data-name="Caminho 4387" d="M1205.614,189.389l-.089.751h-4.078l-1.458,11.9h-.886l1.458-11.9h-4.1l.089-.751Z" transform="translate(-807.322 -127.792)" fill="#464545"/>
    <path id="Caminho_4388" data-name="Caminho 4388" d="M1231.759,194.449a9.018,9.018,0,0,1-.488,3.042,7.026,7.026,0,0,1-1.355,2.343,6.065,6.065,0,0,1-4.606,2.048,4.867,4.867,0,0,1-2-.4,4.316,4.316,0,0,1-1.525-1.122,5.064,5.064,0,0,1-.97-1.735,6.979,6.979,0,0,1-.34-2.236,8.945,8.945,0,0,1,.492-3.036,7.151,7.151,0,0,1,1.355-2.352,6,6,0,0,1,4.584-2.053,4.924,4.924,0,0,1,2.017.4,4.32,4.32,0,0,1,1.529,1.122,5.062,5.062,0,0,1,.971,1.739,7.032,7.032,0,0,1,.34,2.24m-.922.019a6.486,6.486,0,0,0-.282-1.981,4.331,4.331,0,0,0-.809-1.5,3.577,3.577,0,0,0-1.275-.957,4.026,4.026,0,0,0-1.668-.336,4.951,4.951,0,0,0-3.877,1.8,6.348,6.348,0,0,0-1.141,2.1,8.741,8.741,0,0,0-.411,2.773,6.393,6.393,0,0,0,.286,1.981,4.333,4.333,0,0,0,.814,1.5,3.6,3.6,0,0,0,1.27.952,3.993,3.993,0,0,0,1.664.335,5.091,5.091,0,0,0,2.173-.461,4.9,4.9,0,0,0,1.718-1.328,6.331,6.331,0,0,0,1.131-2.1,8.816,8.816,0,0,0,.407-2.777" transform="translate(-823.521 -127.494)" fill="#464545"/>
    <path id="Caminho_4389" data-name="Caminho 4389" d="M1269.237,194.756a9.542,9.542,0,0,1-.219,2.093,7.713,7.713,0,0,1-.626,1.784,6.436,6.436,0,0,1-.984,1.445,5.9,5.9,0,0,1-1.292,1.073,5.98,5.98,0,0,1-1.547.666,6.609,6.609,0,0,1-1.753.228h-4.258l1.557-12.656h4.257a5.167,5.167,0,0,1,2.022.38,4.268,4.268,0,0,1,1.534,1.078,4.811,4.811,0,0,1,.97,1.69,6.827,6.827,0,0,1,.34,2.218m-.921.018a6.293,6.293,0,0,0-.282-1.95,4.15,4.15,0,0,0-.8-1.467,3.5,3.5,0,0,0-1.27-.921,4.193,4.193,0,0,0-1.677-.322h-3.363l-1.387,11.207h3.363a5.273,5.273,0,0,0,2.173-.443,4.85,4.85,0,0,0,1.717-1.283,5.988,5.988,0,0,0,1.127-2.057,8.775,8.775,0,0,0,.4-2.763" transform="translate(-849.22 -127.792)" fill="#464545"/>
    <path id="Caminho_4390" data-name="Caminho 4390" d="M1306.091,194.449a9.018,9.018,0,0,1-.488,3.042,7.026,7.026,0,0,1-1.355,2.343,6.065,6.065,0,0,1-4.606,2.048,4.867,4.867,0,0,1-2-.4,4.316,4.316,0,0,1-1.525-1.122,5.06,5.06,0,0,1-.97-1.735,6.979,6.979,0,0,1-.34-2.236,8.945,8.945,0,0,1,.492-3.036A7.154,7.154,0,0,1,1296.65,191a6,6,0,0,1,4.584-2.053,4.925,4.925,0,0,1,2.017.4,4.321,4.321,0,0,1,1.529,1.122,5.064,5.064,0,0,1,.971,1.739,7.035,7.035,0,0,1,.34,2.24m-.921.019a6.486,6.486,0,0,0-.282-1.981,4.331,4.331,0,0,0-.809-1.5,3.577,3.577,0,0,0-1.275-.957,4.027,4.027,0,0,0-1.668-.336,4.951,4.951,0,0,0-3.877,1.8,6.346,6.346,0,0,0-1.141,2.1,8.741,8.741,0,0,0-.411,2.773,6.393,6.393,0,0,0,.286,1.981,4.335,4.335,0,0,0,.814,1.5,3.6,3.6,0,0,0,1.27.952,3.993,3.993,0,0,0,1.664.335,5.091,5.091,0,0,0,2.173-.461,4.9,4.9,0,0,0,1.718-1.328,6.329,6.329,0,0,0,1.131-2.1,8.812,8.812,0,0,0,.407-2.777" transform="translate(-873.677 -127.494)" fill="#464545"/>
    <path id="Caminho_4391" data-name="Caminho 4391" d="M1338.2,190.62a.28.28,0,0,1-.233.153c-.072,0-.158-.057-.259-.17a3.047,3.047,0,0,0-.416-.371,3.015,3.015,0,0,0-.68-.372,2.774,2.774,0,0,0-1.042-.169,3.162,3.162,0,0,0-1.212.219,2.663,2.663,0,0,0-.9.6,2.607,2.607,0,0,0-.568.886,2.943,2.943,0,0,0-.2,1.078,1.749,1.749,0,0,0,.223.917,2.162,2.162,0,0,0,.586.635,4.03,4.03,0,0,0,.823.456q.461.193.948.375t.948.4a3.632,3.632,0,0,1,.823.532,2.422,2.422,0,0,1,.586.76,2.448,2.448,0,0,1,.224,1.1,4.545,4.545,0,0,1-.295,1.633,3.942,3.942,0,0,1-2.182,2.267,4.4,4.4,0,0,1-1.762.34,3.886,3.886,0,0,1-1.932-.443,3.979,3.979,0,0,1-1.324-1.212l.3-.384a.358.358,0,0,1,.25-.125.278.278,0,0,1,.183.107l.251.264c.1.1.214.218.348.34a2.5,2.5,0,0,0,.488.34,3.188,3.188,0,0,0,.666.263,3.238,3.238,0,0,0,.881.107,3.483,3.483,0,0,0,1.36-.255,3.009,3.009,0,0,0,1.695-1.753,3.647,3.647,0,0,0,.228-1.3,1.762,1.762,0,0,0-.224-.925,2.1,2.1,0,0,0-.585-.631,3.734,3.734,0,0,0-.823-.438q-.46-.18-.943-.358t-.948-.394a3.383,3.383,0,0,1-.827-.532,2.387,2.387,0,0,1-.582-.777,2.635,2.635,0,0,1-.219-1.132,3.834,3.834,0,0,1,.259-1.395,3.517,3.517,0,0,1,1.941-2,4.039,4.039,0,0,1,1.61-.3,3.614,3.614,0,0,1,1.6.336,3.374,3.374,0,0,1,1.19.979Z" transform="translate(-897.669 -127.493)" fill="#464545"/>
    <path id="Caminho_4392" data-name="Caminho 4392" d="M1367.737,189.42a.356.356,0,0,1,.121.139l6.136,11.02c.006-.084.01-.163.013-.237a1.528,1.528,0,0,1,.022-.21l1.324-10.742h.778l-1.556,12.656h-.411a.353.353,0,0,1-.331-.2l-6.144-11.02-.027.4-1.324,10.814h-.778l1.556-12.656h.438a.406.406,0,0,1,.183.031" transform="translate(-921.42 -127.792)" fill="#464545"/>
    <path id="Caminho_4393" data-name="Caminho 4393" d="M1412.871,188.158a9.015,9.015,0,0,1-.488,3.042,7.024,7.024,0,0,1-1.355,2.343,6.061,6.061,0,0,1-4.606,2.048,4.869,4.869,0,0,1-2-.4,4.312,4.312,0,0,1-1.525-1.122,5.063,5.063,0,0,1-.971-1.735,6.983,6.983,0,0,1-.34-2.236,8.945,8.945,0,0,1,.492-3.036,7.16,7.16,0,0,1,1.355-2.352,6,6,0,0,1,4.584-2.053,4.924,4.924,0,0,1,2.017.4,4.318,4.318,0,0,1,1.529,1.122,5.06,5.06,0,0,1,.97,1.739,7.028,7.028,0,0,1,.34,2.24m-.921.019a6.478,6.478,0,0,0-.282-1.981,4.332,4.332,0,0,0-.809-1.5,3.573,3.573,0,0,0-1.275-.957,4.023,4.023,0,0,0-1.668-.336,4.952,4.952,0,0,0-3.877,1.8,6.348,6.348,0,0,0-1.141,2.1,8.741,8.741,0,0,0-.411,2.773,6.4,6.4,0,0,0,.286,1.981,4.331,4.331,0,0,0,.814,1.5,3.6,3.6,0,0,0,1.27.952,3.992,3.992,0,0,0,1.663.335,5.089,5.089,0,0,0,2.173-.461,4.9,4.9,0,0,0,1.718-1.328,6.326,6.326,0,0,0,1.131-2.1,8.812,8.812,0,0,0,.407-2.777m-1.136-8.551-2.6,1.9a.963.963,0,0,1-.17.1.448.448,0,0,1-.179.031h-.653l2.093-1.843a.755.755,0,0,1,.228-.156.882.882,0,0,1,.309-.041Z" transform="translate(-945.728 -121.204)" fill="#464545"/>
    <path id="Caminho_4394" data-name="Caminho 4394" d="M1444.985,190.62a.28.28,0,0,1-.233.153c-.072,0-.158-.057-.259-.17a2.929,2.929,0,0,0-1.1-.743,2.772,2.772,0,0,0-1.042-.169,3.161,3.161,0,0,0-1.212.219,2.663,2.663,0,0,0-.9.6,2.6,2.6,0,0,0-.568.886,2.943,2.943,0,0,0-.2,1.078,1.749,1.749,0,0,0,.224.917,2.159,2.159,0,0,0,.586.635,4.026,4.026,0,0,0,.823.456q.461.193.948.375t.948.4a3.64,3.64,0,0,1,.823.532,2.3,2.3,0,0,1,.81,1.86,4.545,4.545,0,0,1-.3,1.633,3.942,3.942,0,0,1-2.182,2.267,4.4,4.4,0,0,1-1.762.34,3.887,3.887,0,0,1-1.932-.443,3.975,3.975,0,0,1-1.324-1.212l.3-.384a.359.359,0,0,1,.25-.125.278.278,0,0,1,.183.107l.251.264c.1.1.215.218.349.34a2.478,2.478,0,0,0,.487.34,3.182,3.182,0,0,0,.667.263,3.238,3.238,0,0,0,.881.107,3.483,3.483,0,0,0,1.359-.255,3.008,3.008,0,0,0,1.695-1.753,3.642,3.642,0,0,0,.228-1.3,1.764,1.764,0,0,0-.224-.925,2.1,2.1,0,0,0-.586-.631,3.727,3.727,0,0,0-.823-.438q-.461-.18-.943-.358t-.948-.394a3.391,3.391,0,0,1-.827-.532,2.375,2.375,0,0,1-.581-.777,2.623,2.623,0,0,1-.219-1.132,3.834,3.834,0,0,1,.259-1.395,3.518,3.518,0,0,1,1.941-2,4.04,4.04,0,0,1,1.61-.3,3.614,3.614,0,0,1,1.6.336,3.366,3.366,0,0,1,1.19.979Z" transform="translate(-969.721 -127.493)" fill="#464545"/>
    <path id="Caminho_4395" data-name="Caminho 4395" d="M1461.917,224.457a.833.833,0,0,1,.063-.322.8.8,0,0,1,.175-.264.879.879,0,0,1,.259-.179.777.777,0,0,1,.327-.067.819.819,0,0,1,.327.067.853.853,0,0,1,.268.179.869.869,0,0,1,.179.264.817.817,0,0,1-.179.908.829.829,0,0,1-.595.237.809.809,0,0,1-.823-.823" transform="translate(-986.439 -150.893)" fill="#464545"/>
    <line id="Linha_156" data-name="Linha 156" y2="64.817" transform="translate(323.237 25.666)" fill="none" stroke="#464545" stroke-miterlimit="10" stroke-width="1"/>
  </g>
</svg>
