<svg xmlns="http://www.w3.org/2000/svg" xmlns:xlink="http://www.w3.org/1999/xlink" width="356.73" height="122.671" viewBox="0 0 356.73 122.671">
  <defs>
    <clipPath id="clip-path">
      <rect id="Retângulo_3203" data-name="Retângulo 3203" width="356.73" height="122.671" fill="none"/>
    </clipPath>
  </defs>
  <g id="Grupo_10135" data-name="Grupo 10135" clip-path="url(#clip-path)">
    <g id="Grupo_10145" data-name="Grupo 10145">
      <path id="Caminho_4346" data-name="Caminho 4346" d="M0,26.153A65,65,0,0,0,2.332,39.248a39.5,39.5,0,0,1,10.354,7.458A39.1,39.1,0,0,1,24.2,72.159a65.455,65.455,0,0,0,11.343,7.357v-4.97A50.722,50.722,0,0,0,0,26.153" transform="translate(0 36.342)" fill="#fff"/>
      <path id="Caminho_4347" data-name="Caminho 4347" d="M2.407,16.227A64.916,64.916,0,0,0,.113,27.319a62.213,62.213,0,0,1,9.063,3.039,62.719,62.719,0,0,1,20,13.489,62.719,62.719,0,0,1,13.489,20,62.524,62.524,0,0,1,4.942,24.49v9.713a65.067,65.067,0,0,0,11.324,2.069V88.341A74.274,74.274,0,0,0,2.407,16.227" transform="translate(0.157 22.549)" fill="#fff"/>
      <path id="Caminho_4348" data-name="Caminho 4348" d="M70.753,62.7A97.47,97.47,0,0,0,49.8,31.622,97.431,97.431,0,0,0,18.718,10.668a97.326,97.326,0,0,0-9.3-3.388,65.44,65.44,0,0,0-6.4,9.945,86.508,86.508,0,0,1,64.1,83.547v11.783a65.067,65.067,0,0,0,11.324-2.069v-9.713a97.214,97.214,0,0,0-7.69-38.07" transform="translate(4.195 10.117)" fill="#fff"/>
      <path id="Caminho_4349" data-name="Caminho 4349" d="M57.287,25.085A120.9,120.9,0,0,0,20.822,0,65.47,65.47,0,0,0,9.613,7.658,110.058,110.058,0,0,1,81.5,110.886v4.97a65.523,65.523,0,0,0,11.3-7.322,120.494,120.494,0,0,0-9.515-44.883,120.919,120.919,0,0,0-26-38.567" transform="translate(13.358)" fill="#fff"/>
      <path id="Caminho_4350" data-name="Caminho 4350" d="M62.555,46.705A39.4,39.4,0,0,1,72.909,39.25a65.223,65.223,0,0,0,2.332-13.1A50.719,50.719,0,0,0,39.7,74.548v4.97a65.57,65.57,0,0,0,11.4-7.405A39.077,39.077,0,0,1,62.555,46.705" transform="translate(55.163 36.342)" fill="#62b55a"/>
      <path id="Caminho_4351" data-name="Caminho 4351" d="M41.168,88.34A62.914,62.914,0,0,1,88.662,27.318a65.238,65.238,0,0,0-2.292-11.092A74.273,74.273,0,0,0,29.844,88.34v11.783a65.286,65.286,0,0,0,11.324-2.067Z" transform="translate(41.469 22.547)" fill="#62b55a"/>
      <path id="Caminho_4352" data-name="Caminho 4352" d="M31.314,100.772a86.508,86.508,0,0,1,64.1-83.548,65.558,65.558,0,0,0-6.4-9.945A97.735,97.735,0,0,0,19.99,100.772v9.716a65.288,65.288,0,0,0,11.324,2.067Z" transform="translate(27.777 10.115)" fill="#62b55a"/>
      <path id="Caminho_4353" data-name="Caminho 4353" d="M21.467,110.886A110.063,110.063,0,0,1,93.356,7.656,65.594,65.594,0,0,0,82.147,0,121.4,121.4,0,0,0,10.129,108.5a65.265,65.265,0,0,0,11.338,7.355Z" transform="translate(14.075)" fill="#62b55a"/>
    </g>
    <path id="Caminho_4354" data-name="Caminho 4354" d="M143.841,24.17h7.329c4.664,0,6.621,1.336,6.265,4.662-.5,4.683-8.014,7.369-13.594,8.679Zm15.795,16.667c4.65-3.111,7.8-7.393,7.8-13.274,0-7.838-6.148-13.145-14.6-13.145H134.111v46.51a77.01,77.01,0,0,0,9.73,0V46.875a63.208,63.208,0,0,0,7.183-1.947,143.929,143.929,0,0,1,8.375,16,97.829,97.829,0,0,0,10.98,0,182.043,182.043,0,0,0-10.743-20.091" transform="translate(186.351 4.035)" fill="#fff"/>
    <path id="Caminho_4355" data-name="Caminho 4355" d="M130.536,44.064,136.4,28.026l5.926,16.034a49.06,49.06,0,0,0-11.795,0m10.872-29.613a62.868,62.868,0,0,0-10.191.026L113.783,61.135a74.206,74.206,0,0,0,10.519-.029l2.619-7.164a38.193,38.193,0,0,1,19.059-.014l2.672,7.224a89.641,89.641,0,0,0,10.454-.036Z" transform="translate(158.105 3.811)" fill="#fff"/>
    <path id="Caminho_4356" data-name="Caminho 4356" d="M135.956,61.069l-.134-46.605a74.723,74.723,0,0,0-9.862.026l.074,25.635a116.332,116.332,0,0,0-20.509-25.384v-.186a72.265,72.265,0,0,0-9.783.029l.134,46.608a51.871,51.871,0,0,0,9.783-.029l-.093-32.536c8.614,9.355,16.581,21.532,20.519,32.471h.01a84.09,84.09,0,0,0,9.862-.029" transform="translate(133.038 3.889)" fill="#fff"/>
    <path id="Caminho_4357" data-name="Caminho 4357" d="M79.876,60.9V14.415h30.952a48.056,48.056,0,0,1,0,9.761h-21.2v7.718h17.919a55.49,55.49,0,0,1,0,9.09H89.625v10.16h22.617a47.856,47.856,0,0,1,0,9.759Z" transform="translate(110.99 4.031)" fill="#fff"/>
    <path id="Caminho_4358" data-name="Caminho 4358" d="M83.479,61.9c8.392,0,16.227-4.134,16.227-13.451,0-8.884-5.924-11.353-12.464-14.622-3.209-1.6-12.277-5-12.277-7.773,0-2.284,2.652-2.839,5.983-2.839A34.594,34.594,0,0,1,92.8,25.441a24.182,24.182,0,0,0,3.517-7.96c-4.258-2.036-10.366-3.331-17.463-3.331-8.328,0-14.127,4.072-14.127,12.277,0,9.071,10.8,12.772,15.424,14.87,5.243,2.406,9.5,3.764,9.5,7.651,0,3.331-4.813,3.269-7.095,3.269a43.692,43.692,0,0,1-16.722-3.7,36.041,36.041,0,0,0-3.885,8.206c5.737,3.7,14.313,5.183,21.532,5.183" transform="translate(86.077 3.663)" fill="#fff"/>
    <path id="Caminho_4367" data-name="Caminho 4367" d="M9.947-2.233a6.906,6.906,0,0,0,2.074-.275,3.848,3.848,0,0,0,1.428-.776,3.008,3.008,0,0,0,.819-1.189,4.244,4.244,0,0,0,.261-1.515,3.11,3.11,0,0,0-1.145-2.545,5.349,5.349,0,0,0-3.437-.935H5.452v7.236ZM5.452-18.56v7.09H9.164a7.283,7.283,0,0,0,2.066-.261,4.163,4.163,0,0,0,1.45-.725,2.835,2.835,0,0,0,.848-1.124,3.707,3.707,0,0,0,.275-1.443,3.18,3.18,0,0,0-1.1-2.69A5.6,5.6,0,0,0,9.28-18.56ZM9.28-20.778a12.669,12.669,0,0,1,3.3.377,6.388,6.388,0,0,1,2.277,1.073,4.173,4.173,0,0,1,1.312,1.7,5.843,5.843,0,0,1,.421,2.269,4.538,4.538,0,0,1-.239,1.472,4.416,4.416,0,0,1-.718,1.312,5.12,5.12,0,0,1-1.211,1.095,6.63,6.63,0,0,1-1.718.79,6.274,6.274,0,0,1,3.444,1.631A4.334,4.334,0,0,1,17.3-5.916a5.836,5.836,0,0,1-.486,2.407,5.157,5.157,0,0,1-1.421,1.871,6.622,6.622,0,0,1-2.3,1.211A10.357,10.357,0,0,1,9.991,0H2.654V-20.778ZM28.521-6.612a21.513,21.513,0,0,0-3.038.283,8.638,8.638,0,0,0-2.045.587,2.823,2.823,0,0,0-1.146.855,1.84,1.84,0,0,0-.355,1.1,2.431,2.431,0,0,0,.189,1,1.859,1.859,0,0,0,.515.689,2.067,2.067,0,0,0,.769.392,3.525,3.525,0,0,0,.95.123,5.269,5.269,0,0,0,1.247-.138,4.7,4.7,0,0,0,1.066-.4,6.009,6.009,0,0,0,.957-.624,8.291,8.291,0,0,0,.892-.827Zm-8.337-6a8.388,8.388,0,0,1,2.625-1.755,8.1,8.1,0,0,1,3.118-.58,5.562,5.562,0,0,1,2.19.406,4.49,4.49,0,0,1,1.609,1.131,4.79,4.79,0,0,1,.986,1.755A7.307,7.307,0,0,1,31.045-9.4V0H29.9a1.125,1.125,0,0,1-.58-.123A.84.84,0,0,1,29-.609L28.71-2a14.392,14.392,0,0,1-1.131.95,6.473,6.473,0,0,1-1.16.7,6.3,6.3,0,0,1-1.3.435,7.1,7.1,0,0,1-1.53.152,5.292,5.292,0,0,1-1.609-.239A3.718,3.718,0,0,1,20.67-.725a3.376,3.376,0,0,1-.885-1.211,4.231,4.231,0,0,1-.326-1.733,3.232,3.232,0,0,1,.479-1.675,4.193,4.193,0,0,1,1.552-1.428,10.176,10.176,0,0,1,2.8-1.022,21.339,21.339,0,0,1,4.234-.457V-9.4a3.927,3.927,0,0,0-.739-2.588,2.667,2.667,0,0,0-2.161-.877,4.645,4.645,0,0,0-1.6.239,6.01,6.01,0,0,0-1.117.536q-.471.3-.812.536a1.171,1.171,0,0,1-.674.239.741.741,0,0,1-.449-.138,1.264,1.264,0,0,1-.319-.341Zm17.385-.116a7.8,7.8,0,0,1,2.088-1.595,5.648,5.648,0,0,1,2.639-.595,5.3,5.3,0,0,1,2.124.4,4.11,4.11,0,0,1,1.537,1.131,5,5,0,0,1,.935,1.762,7.667,7.667,0,0,1,.319,2.276V0h-2.6V-9.352a3.954,3.954,0,0,0-.761-2.588,2.828,2.828,0,0,0-2.313-.921,4.339,4.339,0,0,0-2.139.551,7.043,7.043,0,0,0-1.834,1.493V0h-2.6V-21.359h2.6Zm16.313-1.958V0H51.3V-14.689Zm.551-4.611a1.642,1.642,0,0,1-.152.7,2.025,2.025,0,0,1-.406.58,1.863,1.863,0,0,1-.594.4,1.814,1.814,0,0,1-.718.145,1.712,1.712,0,0,1-.7-.145,1.823,1.823,0,0,1-.573-.4,1.979,1.979,0,0,1-.391-.58,1.712,1.712,0,0,1-.145-.7,1.814,1.814,0,0,1,.145-.718,1.927,1.927,0,0,1,.391-.594,1.823,1.823,0,0,1,.573-.4,1.712,1.712,0,0,1,.7-.145,1.814,1.814,0,0,1,.718.145,1.863,1.863,0,0,1,.594.4,1.967,1.967,0,0,1,.406.594A1.74,1.74,0,0,1,54.433-19.3ZM66.076-6.612a21.513,21.513,0,0,0-3.038.283,8.639,8.639,0,0,0-2.045.587,2.823,2.823,0,0,0-1.146.855,1.84,1.84,0,0,0-.355,1.1,2.431,2.431,0,0,0,.188,1A1.859,1.859,0,0,0,60.2-2.1a2.067,2.067,0,0,0,.769.392,3.525,3.525,0,0,0,.95.123,5.269,5.269,0,0,0,1.247-.138,4.7,4.7,0,0,0,1.066-.4,6.009,6.009,0,0,0,.957-.624,8.291,8.291,0,0,0,.892-.827Zm-8.338-6a8.388,8.388,0,0,1,2.625-1.755,8.1,8.1,0,0,1,3.118-.58,5.562,5.562,0,0,1,2.19.406,4.49,4.49,0,0,1,1.609,1.131,4.79,4.79,0,0,1,.986,1.755A7.307,7.307,0,0,1,68.6-9.4V0H67.454a1.125,1.125,0,0,1-.58-.123.84.84,0,0,1-.319-.486L66.265-2a14.392,14.392,0,0,1-1.131.95,6.473,6.473,0,0,1-1.16.7,6.3,6.3,0,0,1-1.3.435,7.1,7.1,0,0,1-1.53.152,5.292,5.292,0,0,1-1.61-.239,3.718,3.718,0,0,1-1.312-.718,3.376,3.376,0,0,1-.885-1.211,4.231,4.231,0,0,1-.326-1.733,3.232,3.232,0,0,1,.479-1.675,4.193,4.193,0,0,1,1.551-1.428,10.176,10.176,0,0,1,2.8-1.022,21.339,21.339,0,0,1,4.234-.457V-9.4a3.927,3.927,0,0,0-.74-2.588,2.667,2.667,0,0,0-2.16-.877,4.645,4.645,0,0,0-1.6.239,6.01,6.01,0,0,0-1.117.536q-.471.3-.812.536a1.171,1.171,0,0,1-.674.239.741.741,0,0,1-.45-.138,1.264,1.264,0,0,1-.319-.341Z" transform="translate(148.024 104.175)" fill="#fff"/>
  </g>
</svg>
