<svg xmlns="http://www.w3.org/2000/svg" width="330" height="220.409" viewBox="0 0 330 220.409"><defs><style>.a{fill:#004090;}.a,.b{fill-rule:evenodd;}.b{fill:#002a5f;}</style></defs><g transform="translate(268.165 -275.588)"><path class="a" d="M-147.527,275.588a59.6,59.6,0,0,0-59.6,59.6,59.339,59.339,0,0,0,12.21,36.14l49.546-65.112-5.327.009H-156a81.88,81.88,0,0,0-14.78,1.141,15.888,15.888,0,0,0-6.075,2.476,23.876,23.876,0,0,0-6.068,7.218q-.28.5-.806,1.533l-2.9-.639,4.856-18.711h62.061l-49.308,65.936a65.7,65.7,0,0,1,7.08-.344q3,0,9.1.363l8.761.52c3.164.189,5.83.286,7.849.286a33.745,33.745,0,0,0,10.379-1.238,23.116,23.116,0,0,0,6.382-3.089,29.56,29.56,0,0,0,8.839-10.077c.2-.388.52-.977.894-1.771l2.625.679a37.487,37.487,0,0,1-2.614,7.433c-2.649,5.923-5.639,9.886-9.753,12.931a23.976,23.976,0,0,1-14.436,4.748l-.84.005c-4.1,0-7.267-.342-17.073-1.843-9.982-1.531-15.058-2.048-20.073-2.048a59.639,59.639,0,0,0-9.71.769,30.852,30.852,0,0,0-9.846,2.967,59.443,59.443,0,0,0,43.921,19.316,59.6,59.6,0,0,0,59.6-59.6,59.6,59.6,0,0,0-59.6-59.6Z" transform="translate(46.627)"/><path class="b" d="M-213.326,366.583h-45.628l-5.6,12.384a34.616,34.616,0,0,1,4.249-2,42.242,42.242,0,0,1,8.2-2.319,53.475,53.475,0,0,1,8.179-.713q2.4-.069,4.5-.069h6.756l-35.495,50.728h50.176l5.789-13.234a40.779,40.779,0,0,1-4.274,2.23,39.467,39.467,0,0,1-9.373,2.871,61.36,61.36,0,0,1-9.121.8q-1.815.045-4.641.046h-8.89l35.174-50.728Z" transform="translate(0 69.51)"/><path class="b" d="M-143.582,424.594a7.875,7.875,0,0,1-1.794-2.046,9.453,9.453,0,0,1-.894-1.767,15.6,15.6,0,0,1-.8-5.1V380.735l.023-3.4c.025-3.886.127-4.948.619-6.525A8.209,8.209,0,0,1-145.6,369a8.15,8.15,0,0,1,2.184-2.413h-18.632a9.621,9.621,0,0,1,2.159,2.3,7.378,7.378,0,0,1,.9,1.884c.434,1.406.568,2.8.6,6.248q.021,2.651.023,3.493v34.736a16.424,16.424,0,0,1-.919,5.607,8.58,8.58,0,0,1-.921,1.7,14.221,14.221,0,0,1-1.768,2.046Z" transform="translate(81.058 69.51)"/><path class="b" d="M-97.207,367.739a27.761,27.761,0,0,0-3.538-.942,47.611,47.611,0,0,0-10.2-1.034,41.745,41.745,0,0,0-16.545,3.078,33.379,33.379,0,0,0-7.971,4.733,29.632,29.632,0,0,0-11.033,23.708c0,9.329,3.746,17.385,10.6,22.791,5.657,4.463,12.926,6.713,21.677,6.713a52.832,52.832,0,0,0,16.277-2.6c.21-.065.524-.164.942-.3V413.342c-1.386.93-1.863,1.231-2.711,1.723a32.045,32.045,0,0,1-3.561,1.769,25.172,25.172,0,0,1-10.123,2.159,19.715,19.715,0,0,1-14.942-6.25c-3.757-4.059-5.789-9.7-5.789-16.069,0-6.085,1.886-11.719,5.239-15.658a19.226,19.226,0,0,1,5.262-4.3,22.749,22.749,0,0,1,11.219-2.783,27.209,27.209,0,0,1,10.423,2.094,18.893,18.893,0,0,1,4.778,2.62V367.739Z" transform="translate(92.945 68.884)"/><path class="b" d="M-71.954,398.265v14.153a41.592,41.592,0,0,1-.254,5.9,10.567,10.567,0,0,1-.619,2.5,8.509,8.509,0,0,1-2.092,3.032q-.259.252-.8.736h18.54a11.648,11.648,0,0,1-1.563-1.792,9.683,9.683,0,0,1-1.08-1.909c-.557-1.354-.706-2.379-.757-5.237q-.048-2.572-.046-3.009l.046-31.912V377.29a23.738,23.738,0,0,1,.642-6.135,8.334,8.334,0,0,1,.919-2.136,7.736,7.736,0,0,1,2.3-2.436h-18.93a8.153,8.153,0,0,1,2.113,2.367,9.447,9.447,0,0,1,.965,2.022,19.582,19.582,0,0,1,.621,6.087v14.108H-97.961V380.574c0-3.2.048-5.3.161-6.869a10.568,10.568,0,0,1,.459-2.528,12.136,12.136,0,0,1,2.413-3.974c.138-.143.351-.349.644-.621h-18.588a14.36,14.36,0,0,1,1.909,2.23,8.377,8.377,0,0,1,.988,1.976c.512,1.469.594,2.261.644,6.133l.044,3.676v31.75a49.17,49.17,0,0,1-.228,6.112,9.926,9.926,0,0,1-.575,2.3,8.313,8.313,0,0,1-2.229,3.261c-.139.13-.355.323-.642.575h18.355a10.093,10.093,0,0,1-1.538-1.907,10.92,10.92,0,0,1-.919-1.815,12.686,12.686,0,0,1-.85-5.078q-.048-1.85-.046-3.47v-14.06Z" transform="translate(118.558 69.51)"/><path class="b" d="M-232.6,366.583a7.333,7.333,0,0,1,2.113,2.344,7.657,7.657,0,0,1,.829,2.021,12.569,12.569,0,0,1,.367,2.665q.026.958.046,3.607l.023,3.353v16.588c0,5.858.046,7.874.229,10.224a18.88,18.88,0,0,0,4.066,10.661,21.388,21.388,0,0,0,9.788,6.8,31.644,31.644,0,0,0,10.578,1.64,35.372,35.372,0,0,0,11.753-1.824,22.4,22.4,0,0,0,8.638-5.791,19.206,19.206,0,0,0,4.687-11.234,90.2,90.2,0,0,0,.392-10.384V380.574l-.023-3.284,0-.464a22.522,22.522,0,0,1,.527-5.747,7.505,7.505,0,0,1,2.6-3.99c.367-.284.48-.367.663-.506h-17.182a8.346,8.346,0,0,1,1.263,2.528,12.06,12.06,0,0,1,.483,2.182,78.208,78.208,0,0,1,.367,9.627v18.011a63.13,63.13,0,0,1-.482,9.832,11.632,11.632,0,0,1-1.494,4.228,11.35,11.35,0,0,1-7.144,4.985,17.2,17.2,0,0,1-4.117.464,15.93,15.93,0,0,1-7.878-1.887,9.933,9.933,0,0,1-3.445-3.009c-1.591-2.323-2.057-4.664-2.113-10.615l-.069-7.3v-14.7a77.991,77.991,0,0,1,.367-9.627,10.97,10.97,0,0,1,1.424-4.18q.106-.177.323-.529Z" transform="translate(27.172 69.51)"/><path class="b" d="M-179.726,412.67q0,1.59.023,2.917a14.357,14.357,0,0,0,.759,5.354,8.15,8.15,0,0,0,.988,1.767,15.132,15.132,0,0,0,1.607,1.885H-194.8a12.8,12.8,0,0,0,1.93-2.023,7.316,7.316,0,0,0,1.011-1.838,15.91,15.91,0,0,0,.667-5.606V377.059a21.662,21.662,0,0,0-.575-6.179,8.442,8.442,0,0,0-1.011-2.113,9.675,9.675,0,0,0-1.953-2.184h14.979q2.773,0,5.376.069a47.147,47.147,0,0,1,9.924,1.011,19.114,19.114,0,0,1,9.421,5.216,13.5,13.5,0,0,1,3.93,9.525,14.484,14.484,0,0,1-.714,4.466,13.935,13.935,0,0,1-4.572,6.616,25.015,25.015,0,0,1-7.146,4.136,25.863,25.863,0,0,1-2.572.9l9,10.59q1.64,1.929,4.228,4.733c2.715,2.942,4.526,4.8,6.57,6.731q1.323,1.252,2.5,2.276c.751.651,1.136.967,2.115,1.746h-7.283q-1.614,0-3.009-.048a11.881,11.881,0,0,1-5.768-1.355,25.287,25.287,0,0,1-6-4.755q-.966-.992-2.826-3.125-1.646-1.881-2.413-2.8l-10.751-12.889V412.67Zm.94-17.912a21.346,21.346,0,0,0,3.034-.261,18.721,18.721,0,0,0,7.306-2.365,11.3,11.3,0,0,0,2.711-2.184,9.579,9.579,0,0,0,2.254-6.539,8.933,8.933,0,0,0-2.99-7.13,10.559,10.559,0,0,0-3.928-2.092,29.347,29.347,0,0,0-7.818-.974c-.473,0-.781.007-1.51.031v21.481c.453.026.649.032.94.032Z" transform="translate(56.045 69.51)"/></g></svg>