<svg xmlns="http://www.w3.org/2000/svg" width="60" height="40.074" viewBox="0 0 60 40.074">
  <g id="Grupo_6419" data-name="Grupo 6419" transform="translate(268.165 -275.588)">
    <path id="Caminho_2844" data-name="Caminho 2844" d="M-196.291,275.588a10.836,10.836,0,0,0-10.836,10.836,10.789,10.789,0,0,0,2.22,6.571l9.008-11.839-.969,0h-.963a14.887,14.887,0,0,0-2.687.208,2.889,2.889,0,0,0-1.1.45,4.342,4.342,0,0,0-1.1,1.312q-.051.091-.147.279l-.527-.116.883-3.4h11.284l-8.965,11.988a11.944,11.944,0,0,1,1.287-.063q.546,0,1.655.066l1.593.095c.575.034,1.06.052,1.427.052a6.136,6.136,0,0,0,1.887-.225,4.2,4.2,0,0,0,1.16-.562,5.375,5.375,0,0,0,1.607-1.832c.037-.071.095-.178.163-.322l.477.123a6.816,6.816,0,0,1-.475,1.351,5.554,5.554,0,0,1-1.773,2.351,4.359,4.359,0,0,1-2.625.863h-.153a19.03,19.03,0,0,1-3.1-.335,23.381,23.381,0,0,0-3.65-.372,10.844,10.844,0,0,0-1.765.14,5.609,5.609,0,0,0-1.79.539,10.808,10.808,0,0,0,7.986,3.512,10.836,10.836,0,0,0,10.836-10.836,10.836,10.836,0,0,0-10.836-10.836Z" transform="translate(-41.463)" fill="#004090" fill-rule="evenodd"/>
    <path id="Caminho_2845" data-name="Caminho 2845" d="M-258.194,366.583h-8.3l-1.019,2.252a6.292,6.292,0,0,1,.773-.364,7.68,7.68,0,0,1,1.491-.422,9.721,9.721,0,0,1,1.487-.13q.436-.013.818-.013h1.228l-6.454,9.223h9.123l1.053-2.406a7.4,7.4,0,0,1-.777.405,7.175,7.175,0,0,1-1.7.522,11.156,11.156,0,0,1-1.658.146q-.33.008-.844.008h-1.616l6.4-9.223Z" transform="translate(0 -61.812)" fill="#002a5f" fill-rule="evenodd"/>
    <path id="Caminho_2846" data-name="Caminho 2846" d="M-158.695,377.13a1.433,1.433,0,0,1-.326-.372,1.719,1.719,0,0,1-.163-.321,2.836,2.836,0,0,1-.146-.927v-6.354l0-.618a3.582,3.582,0,0,1,.113-1.186,1.493,1.493,0,0,1,.15-.33,1.482,1.482,0,0,1,.4-.439h-3.388a1.749,1.749,0,0,1,.393.418,1.341,1.341,0,0,1,.163.343,3.8,3.8,0,0,1,.109,1.136q0,.482,0,.635v6.316a2.986,2.986,0,0,1-.167,1.02,1.56,1.56,0,0,1-.167.309,2.588,2.588,0,0,1-.321.372Z" transform="translate(-72.081 -61.812)" fill="#002a5f" fill-rule="evenodd"/>
    <path id="Caminho_2847" data-name="Caminho 2847" d="M-137.531,366.122a5.046,5.046,0,0,0-.643-.171,8.656,8.656,0,0,0-1.854-.188,7.59,7.59,0,0,0-3.008.56,6.069,6.069,0,0,0-1.449.86,5.388,5.388,0,0,0-2.006,4.311,5.134,5.134,0,0,0,1.926,4.144,6.187,6.187,0,0,0,3.941,1.221,9.606,9.606,0,0,0,2.959-.473l.171-.054v-1.917c-.252.169-.339.224-.493.313a5.827,5.827,0,0,1-.648.322,4.577,4.577,0,0,1-1.841.393,3.585,3.585,0,0,1-2.717-1.136,4.235,4.235,0,0,1-1.053-2.922,4.4,4.4,0,0,1,.952-2.847,3.5,3.5,0,0,1,.957-.781,4.136,4.136,0,0,1,2.04-.506,4.947,4.947,0,0,1,1.9.381,3.435,3.435,0,0,1,.869.476v-1.984Z" transform="translate(-82.652 -61.255)" fill="#002a5f" fill-rule="evenodd"/>
    <path id="Caminho_2848" data-name="Caminho 2848" d="M-105.507,372.343v2.573a7.561,7.561,0,0,1-.046,1.073,1.921,1.921,0,0,1-.113.455,1.547,1.547,0,0,1-.38.551q-.047.046-.146.134h3.371a2.119,2.119,0,0,1-.284-.326,1.762,1.762,0,0,1-.2-.347,2.3,2.3,0,0,1-.138-.952q-.009-.468-.008-.547l.008-5.8v-.626a4.316,4.316,0,0,1,.117-1.115,1.515,1.515,0,0,1,.167-.388,1.407,1.407,0,0,1,.418-.443h-3.442a1.482,1.482,0,0,1,.384.43,1.717,1.717,0,0,1,.175.368,3.56,3.56,0,0,1,.113,1.107v2.565h-4.729v-1.926c0-.582.009-.964.029-1.249a1.922,1.922,0,0,1,.083-.46,2.207,2.207,0,0,1,.439-.723c.025-.026.064-.064.117-.113h-3.38a2.611,2.611,0,0,1,.347.405,1.523,1.523,0,0,1,.18.359,3.01,3.01,0,0,1,.117,1.115l.008.668V374.9a8.94,8.94,0,0,1-.041,1.111,1.8,1.8,0,0,1-.1.418,1.512,1.512,0,0,1-.405.593c-.025.024-.064.059-.117.1h3.337a1.837,1.837,0,0,1-.28-.347,1.987,1.987,0,0,1-.167-.33,2.306,2.306,0,0,1-.155-.923q-.009-.336-.008-.631v-2.556Z" transform="translate(-105.427 -61.812)" fill="#002a5f" fill-rule="evenodd"/>
    <path id="Caminho_2849" data-name="Caminho 2849" d="M-232.6,366.583a1.333,1.333,0,0,1,.384.426,1.392,1.392,0,0,1,.151.368,2.284,2.284,0,0,1,.067.485q0,.174.008.656l0,.61v3.016c0,1.065.008,1.432.042,1.859a3.433,3.433,0,0,0,.739,1.938,3.889,3.889,0,0,0,1.78,1.236,5.753,5.753,0,0,0,1.923.3,6.431,6.431,0,0,0,2.137-.332,4.072,4.072,0,0,0,1.571-1.053,3.492,3.492,0,0,0,.852-2.043,16.4,16.4,0,0,0,.071-1.888v-3.033l0-.6v-.084a4.1,4.1,0,0,1,.1-1.045,1.365,1.365,0,0,1,.473-.725l.121-.092h-3.124a1.517,1.517,0,0,1,.23.46,2.193,2.193,0,0,1,.088.4,14.224,14.224,0,0,1,.067,1.75v3.275a11.478,11.478,0,0,1-.088,1.788,2.115,2.115,0,0,1-.272.769,2.064,2.064,0,0,1-1.3.906,3.129,3.129,0,0,1-.749.084,2.9,2.9,0,0,1-1.432-.343,1.806,1.806,0,0,1-.626-.547,3.127,3.127,0,0,1-.384-1.93l-.013-1.328V369.19a14.179,14.179,0,0,1,.067-1.75,2,2,0,0,1,.259-.76l.059-.1Z" transform="translate(-24.162 -61.812)" fill="#002a5f" fill-rule="evenodd"/>
    <path id="Caminho_2850" data-name="Caminho 2850" d="M-192.057,374.962q0,.289,0,.53a2.61,2.61,0,0,0,.138.973,1.482,1.482,0,0,0,.18.321,2.753,2.753,0,0,0,.292.343H-194.8a2.33,2.33,0,0,0,.351-.368,1.331,1.331,0,0,0,.184-.334,2.893,2.893,0,0,0,.121-1.019v-6.922a3.938,3.938,0,0,0-.1-1.123,1.534,1.534,0,0,0-.184-.384,1.759,1.759,0,0,0-.355-.4h2.723q.5,0,.978.013a8.573,8.573,0,0,1,1.8.184,3.475,3.475,0,0,1,1.713.948,2.455,2.455,0,0,1,.715,1.732,2.633,2.633,0,0,1-.13.812,2.534,2.534,0,0,1-.831,1.2,4.548,4.548,0,0,1-1.3.752,4.7,4.7,0,0,1-.468.163l1.637,1.926q.3.351.769.86c.494.535.823.873,1.195,1.224q.241.228.455.414c.137.118.207.176.385.318h-1.324q-.293,0-.547-.009a2.16,2.16,0,0,1-1.049-.246,4.6,4.6,0,0,1-1.09-.865q-.176-.18-.514-.568-.3-.342-.439-.509l-1.955-2.343v2.373Zm.171-3.257a3.88,3.88,0,0,0,.552-.047,3.4,3.4,0,0,0,1.328-.43,2.054,2.054,0,0,0,.493-.4,1.742,1.742,0,0,0,.41-1.189,1.624,1.624,0,0,0-.544-1.3,1.92,1.92,0,0,0-.714-.38,5.336,5.336,0,0,0-1.421-.177c-.086,0-.142,0-.275.006V371.7c.082,0,.118.006.171.006Z" transform="translate(-49.838 -61.812)" fill="#002a5f" fill-rule="evenodd"/>
  </g>
</svg>
