<svg xmlns="http://www.w3.org/2000/svg" width="41.113" height="18.194" viewBox="0 0 41.113 18.194">
  <g id="Grupo_10132" data-name="Grupo 10132" transform="translate(-63.901 -44.93)">
    <path id="Caminho_4373" data-name="Caminho 4373" d="M97.251,91.346a27.463,27.463,0,0,0-16.415,8.915h3.139A25.189,25.189,0,0,1,95.83,93.917Z" transform="translate(-16.935 -37.139)" fill="#ffb800"/>
    <path id="Caminho_4385" data-name="Caminho 4385" d="M147.5,55.877,141.1,44.93,130.458,63.124h2.591L141.1,49.36l3.377,5.777Z" transform="translate(-56.64 0)" fill="#003d7e"/>
    <path id="Caminho_4386" data-name="Caminho 4386" d="M211.577,110.354a22.229,22.229,0,0,0-3.09-.854l3.093,5.289h2.591Z" transform="translate(-119.073 -51.665)" fill="#003d7e"/>
    <path id="Caminho_4387" data-name="Caminho 4387" d="M172.58,89.782c-.461,0-.92.013-1.375.036l-1.4,2.381a25.644,25.644,0,0,1,2.773-.156A25.162,25.162,0,0,1,190,99.01h3.14a27.445,27.445,0,0,0-20.558-9.228" transform="translate(-88.124 -35.888)" fill="#ffb800"/>
  </g>
</svg>
