<svg xmlns="http://www.w3.org/2000/svg" width="370.438" height="195.999" viewBox="0 0 370.438 195.999">
  <g id="Grupo_10131" data-name="Grupo 10131" transform="translate(-53.333 -39.896)">
    <path id="Caminho_4343" data-name="Caminho 4343" d="M197.918,86.312A195.891,195.891,0,0,0,80.836,149.9h22.391a179.679,179.679,0,0,1,84.561-45.253Z" transform="translate(11.704 19.753)" fill="#fff"/>
    <g id="Grupo_10123" data-name="Grupo 10123" transform="translate(53.333 188.6)">
      <path id="Caminho_4344" data-name="Caminho 4344" d="M70.39,145.58h8.538l17.01,44.228H87.189L83.727,180.7H65.681l-3.6,9.111h-8.75Zm4.321,11.727L68.776,172.49H80.61Z" transform="translate(-53.333 -143.626)" fill="#fff"/>
      <path id="Caminho_4345" data-name="Caminho 4345" d="M86.52,144.8h8.208v45.34H86.52Z" transform="translate(-39.21 -143.957)" fill="#fff"/>
      <path id="Caminho_4346" data-name="Caminho 4346" d="M96.875,144.8h8.208v45.34H96.875Z" transform="translate(-34.803 -143.957)" fill="#fff"/>
      <path id="Caminho_4347" data-name="Caminho 4347" d="M111.667,144.209a5.018,5.018,0,0,1,3.7,1.564,5.189,5.189,0,0,1,1.544,3.788,5.131,5.131,0,0,1-1.528,3.744,4.956,4.956,0,0,1-3.658,1.55,5.026,5.026,0,0,1-3.732-1.58,5.277,5.277,0,0,1-1.544-3.833,5.227,5.227,0,0,1,5.216-5.232Zm-4.1,13.47h8.208v32.712h-8.208Z" transform="translate(-30.728 -144.209)" fill="#fff"/>
      <path id="Caminho_4348" data-name="Caminho 4348" d="M142.812,153.91h8.207v32.712h-8.207v-3.457a16.076,16.076,0,0,1-4.821,3.29,13.467,13.467,0,0,1-5.24,1.008,14.558,14.558,0,0,1-10.961-4.915,17.148,17.148,0,0,1-4.625-12.221,17.571,17.571,0,0,1,4.475-12.418,14.258,14.258,0,0,1,10.871-4.841,13.826,13.826,0,0,1,5.525,1.113,15.092,15.092,0,0,1,4.776,3.337Zm-8.629,6.734a8.3,8.3,0,0,0-6.324,2.691,10.748,10.748,0,0,0,.046,13.875,8.3,8.3,0,0,0,6.307,2.737,8.453,8.453,0,0,0,6.414-2.691,9.836,9.836,0,0,0,2.547-7.051,9.558,9.558,0,0,0-2.547-6.915A8.569,8.569,0,0,0,134.183,160.644Z" transform="translate(-26.169 -140.439)" fill="#fff"/>
      <path id="Caminho_4349" data-name="Caminho 4349" d="M146.734,153.91h8.208v3.353A19.716,19.716,0,0,1,160,153.988a12.246,12.246,0,0,1,4.639-.921,11.23,11.23,0,0,1,8.257,3.4q2.853,2.887,2.853,8.538v21.619H167.63V172.3a36.3,36.3,0,0,0-.525-7.778,5.328,5.328,0,0,0-1.83-2.928,5.127,5.127,0,0,0-3.225-1.006,6.047,6.047,0,0,0-4.274,1.666,8.9,8.9,0,0,0-2.473,4.61,37.082,37.082,0,0,0-.361,6.637v13.124h-8.208Z" transform="translate(-13.586 -140.439)" fill="#fff"/>
      <path id="Caminho_4350" data-name="Caminho 4350" d="M205.152,160.524l-6.833,3.759a11.6,11.6,0,0,0-3.809-2.8,11.453,11.453,0,0,0-4.409-.781,10.276,10.276,0,0,0-7.451,2.747,9.357,9.357,0,0,0-2.844,7.039,9.045,9.045,0,0,0,2.74,6.814,9.93,9.93,0,0,0,7.195,2.642,10.463,10.463,0,0,0,8.579-3.758l6.472,4.431q-5.262,6.845-14.853,6.843-8.63,0-13.514-5.112a17,17,0,0,1,4.118-27,19.8,19.8,0,0,1,9.516-2.285,19.3,19.3,0,0,1,8.75,1.94A16.615,16.615,0,0,1,205.152,160.524Z" transform="translate(-3.031 -140.439)" fill="#fff"/>
      <path id="Caminho_4351" data-name="Caminho 4351" d="M233.534,172.641H207.166a8.783,8.783,0,0,0,3.052,5.547,9.576,9.576,0,0,0,6.328,2.06,10.94,10.94,0,0,0,7.908-3.217l6.917,3.247a16.326,16.326,0,0,1-6.2,5.427,19.369,19.369,0,0,1-8.568,1.758,16.931,16.931,0,0,1-12.538-4.855,16.526,16.526,0,0,1-4.841-12.161,17.082,17.082,0,0,1,4.827-12.432,16.207,16.207,0,0,1,12.1-4.947,16.8,16.8,0,0,1,12.566,4.947q4.841,4.946,4.841,13.064Zm-8.207-6.465a8.223,8.223,0,0,0-3.207-4.449,9.292,9.292,0,0,0-5.557-1.714,9.825,9.825,0,0,0-6.023,1.924,10.725,10.725,0,0,0-3.012,4.238Z" transform="translate(8.754 -140.439)" fill="#fff"/>
    </g>
    <g id="Grupo_10124" data-name="Grupo 10124" transform="translate(301.009 189.443)">
      <path id="Caminho_4352" data-name="Caminho 4352" d="M250.148,144.8a21.967,21.967,0,0,1,16.142,6.794,22.614,22.614,0,0,1,6.756,16.568,22.357,22.357,0,0,1-6.666,16.385,23.091,23.091,0,0,1-32.717-.18A23.239,23.239,0,0,1,250.148,144.8Zm-.088,8.238a13.884,13.884,0,0,0-10.325,4.27,14.866,14.866,0,0,0-4.183,10.854,14.142,14.142,0,0,0,5.267,11.605,14.445,14.445,0,0,0,9.39,3.337,13.71,13.71,0,0,0,10.2-4.329,15.6,15.6,0,0,0-.029-21.362A13.84,13.84,0,0,0,250.06,153.038Z" transform="translate(-227.073 -144.8)" fill="#fff"/>
      <path id="Caminho_4353" data-name="Caminho 4353" d="M264.256,153.91h8.208v3.353a19.7,19.7,0,0,1,5.059-3.275,12.23,12.23,0,0,1,4.639-.921,11.233,11.233,0,0,1,8.257,3.4q2.853,2.887,2.853,8.538v21.619h-8.12V172.3a36.3,36.3,0,0,0-.525-7.778,5.326,5.326,0,0,0-1.829-2.928,5.127,5.127,0,0,0-3.225-1.006,6.044,6.044,0,0,0-4.274,1.666,8.892,8.892,0,0,0-2.475,4.61,37.079,37.079,0,0,0-.361,6.637v13.124h-8.208Z" transform="translate(-211.25 -141.282)" fill="#fff"/>
      <path id="Caminho_4354" data-name="Caminho 4354" d="M323.407,172.641H297.04a8.776,8.776,0,0,0,3.052,5.547,9.574,9.574,0,0,0,6.328,2.06,10.94,10.94,0,0,0,7.908-3.217l6.915,3.247a16.312,16.312,0,0,1-6.194,5.427,19.376,19.376,0,0,1-8.569,1.758,16.93,16.93,0,0,1-12.538-4.855,16.525,16.525,0,0,1-4.84-12.161,17.081,17.081,0,0,1,4.826-12.432,16.21,16.21,0,0,1,12.1-4.947,16.81,16.81,0,0,1,12.568,4.947q4.841,4.946,4.841,13.064Zm-8.207-6.465a8.23,8.23,0,0,0-3.207-4.449,9.3,9.3,0,0,0-5.557-1.714,9.825,9.825,0,0,0-6.023,1.924,10.71,10.71,0,0,0-3.012,4.238Z" transform="translate(-200.676 -141.282)" fill="#fff"/>
    </g>
    <path id="Caminho_4355" data-name="Caminho 4355" d="M252,117.975,206.344,39.9,130.458,169.673h18.479L206.344,71.5,230.431,112.7Z" transform="translate(32.821)" fill="#fff"/>
    <path id="Caminho_4356" data-name="Caminho 4356" d="M230.525,110.556a158.939,158.939,0,0,0-22.038-6.091l22.059,37.73h18.478Z" transform="translate(66.027 27.478)" fill="#fff"/>
    <path id="Caminho_4357" data-name="Caminho 4357" d="M189.589,84.748c-3.286,0-6.562.093-9.8.255l-9.977,16.983a182.926,182.926,0,0,1,19.782-1.111,179.477,179.477,0,0,1,124.233,49.691h22.4A195.76,195.76,0,0,0,189.589,84.748" transform="translate(49.566 19.087)" fill="#fff"/>
  </g>
</svg>
