<svg xmlns="http://www.w3.org/2000/svg" width="42.679" height="18.889" viewBox="0 0 42.679 18.889">
  <g id="Grupo_10134" data-name="Grupo 10134" transform="translate(-3.66 -18.306)">
    <path id="Caminho_4388" data-name="Caminho 4388" d="M97.876,86.312a28.51,28.51,0,0,0-17.04,9.255h3.259A26.15,26.15,0,0,1,96.4,88.981Z" transform="translate(-77.176 -58.375)" fill="#fff"/>
    <path id="Caminho_4389" data-name="Caminho 4389" d="M148.147,51.26,141.5,39.9,130.458,58.784h2.689L141.5,44.495l3.506,6Z" transform="translate(-116.503 -21.59)" fill="#fff"/>
    <path id="Caminho_4390" data-name="Caminho 4390" d="M211.694,105.352a23.133,23.133,0,0,0-3.207-.887l3.21,5.491h2.689Z" transform="translate(-178.342 -72.762)" fill="#fff"/>
    <path id="Caminho_4391" data-name="Caminho 4391" d="M172.686,84.748c-.478,0-.955.013-1.427.037l-1.452,2.472a26.624,26.624,0,0,1,2.879-.162,26.121,26.121,0,0,1,18.081,7.232h3.26a28.491,28.491,0,0,0-21.341-9.58" transform="translate(-147.688 -57.137)" fill="#fff"/>
  </g>
</svg>
