<svg xmlns="http://www.w3.org/2000/svg" width="99.852" height="52.832" viewBox="0 0 99.852 52.832">
  <g id="Grupo_10129" data-name="Grupo 10129" transform="translate(-53.333 -44.93)">
    <path id="Caminho_4373" data-name="Caminho 4373" d="M112.4,91.346a52.8,52.8,0,0,0-31.56,17.141h6.036a48.43,48.43,0,0,1,22.794-12.2Z" transform="translate(-16.935 -28.58)" fill="#ffb800"/>
    <g id="Grupo_10129-2" data-name="Grupo 10129" transform="translate(53.333 85.014)">
      <path id="Caminho_4374" data-name="Caminho 4374" d="M57.931,150.614h2.3l4.585,11.922H62.459l-.933-2.455H56.661l-.97,2.455H53.333Zm1.165,3.161-1.6,4.093h3.19Z" transform="translate(-53.333 -150.088)" fill="#003d7e"/>
      <path id="Caminho_4375" data-name="Caminho 4375" d="M86.52,149.834h2.213v12.221H86.52Z" transform="translate(-73.767 -149.607)" fill="#003d7e"/>
      <path id="Caminho_4376" data-name="Caminho 4376" d="M96.875,149.834h2.213v12.221H96.875Z" transform="translate(-80.143 -149.607)" fill="#003d7e"/>
      <path id="Caminho_4377" data-name="Caminho 4377" d="M107.857,149.244a1.353,1.353,0,0,1,1,.422,1.4,1.4,0,0,1,.416,1.021,1.383,1.383,0,0,1-.412,1.009,1.337,1.337,0,0,1-.986.417,1.356,1.356,0,0,1-1.006-.425,1.424,1.424,0,0,1-.416-1.033,1.409,1.409,0,0,1,1.406-1.41Zm-1.106,3.631h2.213v8.817h-2.213Z" transform="translate(-86.04 -149.244)" fill="#003d7e"/>
      <path id="Caminho_4378" data-name="Caminho 4378" d="M124.078,158.329h2.212v8.817h-2.212v-.932a4.342,4.342,0,0,1-1.3.887,3.637,3.637,0,0,1-1.413.272,3.925,3.925,0,0,1-2.955-1.325,4.621,4.621,0,0,1-1.247-3.294,4.735,4.735,0,0,1,1.206-3.347,3.842,3.842,0,0,1,2.93-1.3,3.72,3.72,0,0,1,1.489.3,4.066,4.066,0,0,1,1.287.9Zm-2.326,1.815a2.237,2.237,0,0,0-1.7.725,2.9,2.9,0,0,0,.012,3.74,2.237,2.237,0,0,0,1.7.737,2.28,2.28,0,0,0,1.729-.725,2.652,2.652,0,0,0,.687-1.9,2.575,2.575,0,0,0-.687-1.864A2.309,2.309,0,0,0,121.752,160.144Z" transform="translate(-92.637 -154.698)" fill="#003d7e"/>
      <path id="Caminho_4379" data-name="Caminho 4379" d="M146.734,158.329h2.213v.9a5.311,5.311,0,0,1,1.363-.882,3.294,3.294,0,0,1,1.25-.248,3.028,3.028,0,0,1,2.226.916,3.145,3.145,0,0,1,.769,2.3v5.827h-2.188v-3.861a9.788,9.788,0,0,0-.141-2.1,1.435,1.435,0,0,0-.493-.789,1.38,1.38,0,0,0-.869-.271,1.628,1.628,0,0,0-1.152.449,2.4,2.4,0,0,0-.667,1.243,9.986,9.986,0,0,0-.1,1.789v3.538h-2.213Z" transform="translate(-110.844 -154.698)" fill="#003d7e"/>
      <path id="Caminho_4380" data-name="Caminho 4380" d="M180.6,160.112l-1.842,1.013a3.12,3.12,0,0,0-1.027-.754,3.08,3.08,0,0,0-1.189-.211,2.77,2.77,0,0,0-2.009.74,2.523,2.523,0,0,0-.767,1.9,2.437,2.437,0,0,0,.739,1.837,2.675,2.675,0,0,0,1.939.712,2.819,2.819,0,0,0,2.313-1.013l1.745,1.194a5.374,5.374,0,0,1-7.646.467,4.583,4.583,0,0,1,1.11-7.278,5.333,5.333,0,0,1,2.565-.616,5.2,5.2,0,0,1,2.359.523A4.477,4.477,0,0,1,180.6,160.112Z" transform="translate(-126.116 -154.698)" fill="#003d7e"/>
      <path id="Caminho_4381" data-name="Caminho 4381" d="M208.476,163.378h-7.107a2.366,2.366,0,0,0,.823,1.5,2.579,2.579,0,0,0,1.706.555,2.949,2.949,0,0,0,2.132-.867l1.864.875a4.4,4.4,0,0,1-1.67,1.463,5.215,5.215,0,0,1-2.309.474,4.567,4.567,0,0,1-3.38-1.309,4.456,4.456,0,0,1-1.3-3.278,4.6,4.6,0,0,1,1.3-3.352,4.368,4.368,0,0,1,3.262-1.333,4.529,4.529,0,0,1,3.387,1.333,4.818,4.818,0,0,1,1.3,3.522Zm-2.212-1.742a2.217,2.217,0,0,0-.865-1.2,2.507,2.507,0,0,0-1.5-.462,2.648,2.648,0,0,0-1.624.519,2.893,2.893,0,0,0-.812,1.143Z" transform="translate(-143.167 -154.698)" fill="#003d7e"/>
    </g>
    <g id="Grupo_10130" data-name="Grupo 10130" transform="translate(120.095 85.241)">
      <path id="Caminho_4382" data-name="Caminho 4382" d="M233.293,149.834a5.922,5.922,0,0,1,4.351,1.832,6.1,6.1,0,0,1,1.821,4.465,6.026,6.026,0,0,1-1.8,4.417,6.223,6.223,0,0,1-8.819-.048,6.264,6.264,0,0,1,4.444-10.666Zm-.024,2.221a3.744,3.744,0,0,0-2.783,1.151,4.008,4.008,0,0,0-1.127,2.926,3.812,3.812,0,0,0,1.42,3.128,3.892,3.892,0,0,0,2.531.9,3.694,3.694,0,0,0,2.75-1.167,4.206,4.206,0,0,0-.008-5.758A3.731,3.731,0,0,0,233.269,152.055Z" transform="translate(-227.073 -149.834)" fill="#ffb800"/>
      <path id="Caminho_4383" data-name="Caminho 4383" d="M264.256,158.329h2.213v.9a5.306,5.306,0,0,1,1.364-.882,3.289,3.289,0,0,1,1.25-.248,3.029,3.029,0,0,1,2.226.916,3.145,3.145,0,0,1,.769,2.3v5.827h-2.189v-3.861a9.787,9.787,0,0,0-.141-2.1,1.435,1.435,0,0,0-.493-.789,1.38,1.38,0,0,0-.869-.271,1.628,1.628,0,0,0-1.152.449,2.4,2.4,0,0,0-.667,1.243,9.983,9.983,0,0,0-.1,1.789v3.538h-2.213Z" transform="translate(-249.968 -154.925)" fill="#ffb800"/>
      <path id="Caminho_4384" data-name="Caminho 4384" d="M298.349,163.378h-7.107a2.365,2.365,0,0,0,.823,1.5,2.579,2.579,0,0,0,1.706.555,2.949,2.949,0,0,0,2.131-.867l1.864.875a4.394,4.394,0,0,1-1.67,1.463,5.218,5.218,0,0,1-2.31.474,4.567,4.567,0,0,1-3.38-1.309,4.456,4.456,0,0,1-1.3-3.278,4.6,4.6,0,0,1,1.3-3.352,4.369,4.369,0,0,1,3.262-1.333,4.531,4.531,0,0,1,3.388,1.333,4.818,4.818,0,0,1,1.3,3.522Zm-2.212-1.742a2.22,2.22,0,0,0-.865-1.2,2.509,2.509,0,0,0-1.5-.462,2.648,2.648,0,0,0-1.623.519,2.889,2.889,0,0,0-.812,1.143Z" transform="translate(-265.267 -154.925)" fill="#ffb800"/>
    </g>
    <path id="Caminho_4385" data-name="Caminho 4385" d="M163.219,65.977,150.914,44.93,130.458,79.911h4.981l15.474-26.464,6.493,11.108Z" transform="translate(-47.489 0)" fill="#003d7e"/>
    <path id="Caminho_4386" data-name="Caminho 4386" d="M214.427,111.142a42.741,42.741,0,0,0-5.94-1.642l5.946,10.17h4.981Z" transform="translate(-95.534 -39.758)" fill="#003d7e"/>
    <path id="Caminho_4387" data-name="Caminho 4387" d="M175.139,89.782c-.886,0-1.769.025-2.643.068l-2.689,4.578a49.307,49.307,0,0,1,5.332-.3,48.377,48.377,0,0,1,33.487,13.395h6.038a52.767,52.767,0,0,0-39.525-17.742" transform="translate(-71.718 -27.617)" fill="#ffb800"/>
  </g>
</svg>
