<svg id="trainiac-logo" xmlns="http://www.w3.org/2000/svg" width="489.022" height="194.634" viewBox="0 0 489.022 194.634">
  <g id="Grupo_10035" data-name="Grupo 10035" transform="translate(99.466 144.431)">
    <g id="Grupo_10034" data-name="Grupo 10034">
      <g id="Grupo_10032" data-name="Grupo 10032">
        <g id="Grupo_10031" data-name="Grupo 10031">
          <path id="Caminho_4350" data-name="Caminho 4350" d="M83.081,88.91l7.1-3.894c-2.417-6.1-8.517-9.726-16.613-9.726C60.156,75.29,51.85,83.6,51.85,95.663c0,13.2,10.992,20.507,21.447,20.507,9.592,0,15.884-4.489,18.569-8.249V93.706H71.225v6.561h12.93l-.058,4.489a16.189,16.189,0,0,1-10.647,3.626c-7.366,0-11.587-5.026-11.587-12.93,0-7.98,4.22-13.006,11.529-13.006C77.652,82.484,80.874,85.093,83.081,88.91Z" transform="translate(-51.85 -75.29)" fill="#fff"/>
        </g>
      </g>
      <g id="Grupo_10033" data-name="Grupo 10033" transform="translate(41.436 12.143)">
        <path id="Caminho_4351" data-name="Caminho 4351" d="M75.618,118.882v-6.695a19.137,19.137,0,0,0,3.587.326c3.165,0,5.544-1.113,6.6-3.319l.211-.806L73.45,82.05h9.975s6.964,17.994,7.175,19.107h.153c.153-.959,6.868-19.107,6.868-19.107h9.342l-11.932,27.6c-2.954,6.868-7.328,9.611-14.944,9.611A28.122,28.122,0,0,1,75.618,118.882Z" transform="translate(-73.45 -81.225)" fill="#fff"/>
        <path id="Caminho_4352" data-name="Caminho 4352" d="M101.168,82.427V87.7c1.8-4.067,5.064-6.062,9.764-6.062,4.642,0,7.75,2.014,9.342,6.119a11,11,0,0,1,10.34-6.119c6.6,0,10.3,4.124,10.3,11.568v15.615H131.9V94.838c0-4.335-1.688-6.446-5.064-6.446-3.53,0-5.64,2.436-5.64,6.6v13.831H112.16V94.838c0-4.335-1.688-6.446-5.064-6.446-3.53,0-5.64,2.475-5.64,6.753v13.678H92.42v-26.4Z" transform="translate(-56.029 -81.602)" fill="#fff"/>
        <path id="Caminho_4353" data-name="Caminho 4353" d="M120.34,82.427h8.767v4.431c2.168-3.434,6.119-5.218,10.762-5.218,7.923,0,13.141,5.486,13.141,13.889,0,8.5-5.486,14.1-13.505,14.1-4.431,0-7.923-1.688-10.129-4.489v14.522H120.34V82.427ZM143.667,95.51c0-4.968-2.647-7.808-7.175-7.808-4.431,0-7.328,2.686-7.328,7.386V96.2c0,4.431,2.9,7.347,7.29,7.347C140.924,103.528,143.667,100.478,143.667,95.51Z" transform="translate(-30.389 -81.602)" fill="#fff"/>
        <path id="Caminho_4354" data-name="Caminho 4354" d="M139.19,101.591a6.771,6.771,0,0,1,2.858-5.755c1.842-1.266,4.489-2.053,9.189-2.532l9.822-.9v-.786c0-2.954-2.014-4.374-5.6-4.374-3.645,0-5.812,1.42-6.177,4.067h-9.246c.691-6.024,6.542-9.668,15.462-9.668,10.033,0,14.618,3.645,14.618,11.3v8.191a36,36,0,0,0,.633,7.712h-8.9a28.533,28.533,0,0,1-.365-4.489c-1.746,3.319-5.851,5.275-11.452,5.275C143.353,109.609,139.19,106.54,139.19,101.591Zm22.061-3.223V96.68l-7.29.748c-4.009.48-5.544,1.535-5.544,3.587,0,1.957,1.9,3.108,5.007,3.108C158.086,104.123,161.251,101.84,161.251,98.368Z" transform="translate(-13.079 -81.602)" fill="#fff"/>
        <path id="Caminho_4355" data-name="Caminho 4355" d="M156.97,103.336l4.853-4.124c2.475,2.954,6.235,4.546,11.721,4.546,3.7,0,5.333-.787,5.333-2.436,0-1.477-.786-2.053-3.8-2.379l-7.021-.691c-6.446-.787-9.5-3.491-9.5-8.134,0-5.39,4.969-8.5,13.831-8.5,6.388,0,11.568,1.8,14.522,5.007l-4.22,4.335c-2.686-2.436-6.024-3.587-10.762-3.587-3.491,0-5.122.691-5.122,2.225,0,1.266.959,1.9,3.376,2.168l7.75.786c6.484.748,9.074,3.434,9.074,8.076,0,5.6-4.7,8.978-13.889,8.978C165.775,109.628,160.231,107.46,156.97,103.336Z" transform="translate(3.249 -81.62)" fill="#fff"/>
        <path id="Caminho_4356" data-name="Caminho 4356" d="M173.86,103.336l4.853-4.124c2.475,2.954,6.235,4.546,11.721,4.546,3.7,0,5.333-.787,5.333-2.436,0-1.477-.786-2.053-3.8-2.379l-7.021-.691c-6.446-.787-9.5-3.491-9.5-8.134,0-5.39,4.969-8.5,13.831-8.5,6.388,0,11.568,1.8,14.522,5.007l-4.22,4.335c-2.686-2.436-6.024-3.587-10.762-3.587-3.491,0-5.122.691-5.122,2.225,0,1.266.959,1.9,3.376,2.168l7.75.786c6.484.748,9.074,3.434,9.074,8.076,0,5.6-4.7,8.978-13.889,8.978C182.684,109.628,177.14,107.46,173.86,103.336Z" transform="translate(18.76 -81.62)" fill="#fff"/>
      </g>
    </g>
  </g>
  <g id="Grupo_10036" data-name="Grupo 10036" transform="translate(23.979 141.995)">
    <path id="Caminho_4357" data-name="Caminho 4357" d="M16.663,110.181v5.007H12.5V74.02h4.22V91.976A12.782,12.782,0,0,1,27.31,86.451,14.208,14.208,0,0,1,41.6,101.107c0,8.613-6.369,14.656-14.349,14.656A12.671,12.671,0,0,1,16.663,110.181Zm20.565-9.131a10.381,10.381,0,0,0-10.34-10.7,10.706,10.706,0,0,0,0,21.409C32.738,111.754,37.227,107.207,37.227,101.049Z" transform="translate(-12.5 -74.02)" fill="#fff"/>
    <path id="Caminho_4358" data-name="Caminho 4358" d="M27.78,116.433l2.762-3.491a5.077,5.077,0,0,0,4.067,1.938c2.973,0,4.393-1.247,6.465-5.889l.633-1.362L29.929,80.79h4.642L44.009,102.6,52.987,80.79h4.642L44.853,110.217c-2.7,6.311-5.275,8.709-10.167,8.709A10.182,10.182,0,0,1,27.78,116.433Z" transform="translate(1.532 -67.803)" fill="#fff"/>
  </g>
  <g id="Grupo_10037" data-name="Grupo 10037">
    <path id="Caminho_4359" data-name="Caminho 4359" d="M25.84,29.075H0V12.52H69.137V29.075H43.546v76.388H25.84V29.075Z" transform="translate(0 11.498)" fill="#fff"/>
    <path id="Caminho_4360" data-name="Caminho 4360" d="M0,16.555V0H69.137V16.555Z" fill="#fff"/>
    <path id="Caminho_4361" data-name="Caminho 4361" d="M37.96,25.736H55.283v10.57a18.011,18.011,0,0,1,7.443-8.978A22.353,22.353,0,0,1,74.255,24.47a25.545,25.545,0,0,1,6.426.767,23.624,23.624,0,0,1,5.16,1.918L79.473,44.478a12.929,12.929,0,0,0-3.817-1.727,19.428,19.428,0,0,0-5.352-.71q-6.762,0-10.819,3.76c-2.724,2.513-4.067,6.637-4.067,12.412V94.508H37.979V25.736Z" transform="translate(34.86 22.472)" fill="#fff"/>
    <path id="Caminho_4362" data-name="Caminho 4362" d="M88.181,95.945q-11.337,0-17.63-5.659A19.019,19.019,0,0,1,64.24,75.457q0-10.819,8.268-16.939C78.052,54.451,85.591,52.4,95.183,52.4h18.071v-.882a11.756,11.756,0,0,0-3.683-9.035q-3.683-3.424-11.2-3.434a18.783,18.783,0,0,0-9.8,2.36A17.644,17.644,0,0,0,82.2,48.082L66.024,40.064A41.622,41.622,0,0,1,79.069,28.8Q86.9,24.4,98.482,24.41q15.28,0,23.557,7.386T130.307,52.3V94.564H113.369V83.994a26.59,26.59,0,0,1-10.378,8.652A32.8,32.8,0,0,1,88.181,95.945Zm5.1-14.5a22.057,22.057,0,0,0,6.235-.882,22.969,22.969,0,0,0,5.736-2.551,22.027,22.027,0,0,0,4.777-3.952,19.4,19.4,0,0,0,3.376-5.084V65.29H97.235q-7.884,0-11.261,2.283A7.3,7.3,0,0,0,82.6,73.941C82.579,78.929,86.147,81.442,93.284,81.442Z" transform="translate(58.994 22.417)" fill="#fff"/>
    <path id="Caminho_4363" data-name="Caminho 4363" d="M104.53,20.522a11.208,11.208,0,0,1,3.184-8.21,11.775,11.775,0,0,1,16.229,0,11.431,11.431,0,0,1,3.127,8.21,10.81,10.81,0,0,1-11.337,11.2,10.75,10.75,0,0,1-8.076-3.184A10.9,10.9,0,0,1,104.53,20.522Zm2.3,19.356h17.956v68.753H106.832Z" transform="translate(95.994 8.329)" fill="#fff"/>
    <path id="Caminho_4364" data-name="Caminho 4364" d="M122.4,25.8H139.97v8.652a23.272,23.272,0,0,1,8.46-7.386A24.912,24.912,0,0,1,160.074,24.4q12.229,0,19.414,7.577t7.194,21.063V94.554H168.726V55.726q0-7.4-3.511-11.644c-2.34-2.839-5.832-4.259-10.512-4.259a13.822,13.822,0,0,0-10.436,4.393c-2.8,2.935-4.2,7.059-4.2,12.412V94.573H122.36V25.8Z" transform="translate(112.367 22.407)" fill="#fff"/>
    <path id="Caminho_4365" data-name="Caminho 4365" d="M161.74,20.522a11.208,11.208,0,0,1,3.184-8.21,11.775,11.775,0,0,1,16.229,0,11.432,11.432,0,0,1,3.127,8.21,10.81,10.81,0,0,1-11.337,11.2,10.75,10.75,0,0,1-8.076-3.184A10.9,10.9,0,0,1,161.74,20.522Zm2.3,19.356H182v68.753H164.042Z" transform="translate(148.532 8.329)" fill="#fff"/>
    <path id="Caminho_4366" data-name="Caminho 4366" d="M202.071,95.945q-11.337,0-17.63-5.659a19.019,19.019,0,0,1-6.311-14.829q0-10.819,8.268-16.939,8.287-6.1,22.656-6.119h18.071v-.882a11.756,11.756,0,0,0-3.683-9.035q-3.683-3.424-11.2-3.434a18.782,18.782,0,0,0-9.8,2.36,17.644,17.644,0,0,0-6.369,6.676l-16.172-8.019A41.623,41.623,0,0,1,192.94,28.8q7.827-4.4,19.414-4.393,15.28,0,23.557,7.386T244.178,52.3V94.564H227.239V83.993a26.591,26.591,0,0,1-10.378,8.652A32.662,32.662,0,0,1,202.071,95.945Zm5.1-14.5a22.057,22.057,0,0,0,6.235-.882,22.969,22.969,0,0,0,5.736-2.551,22.025,22.025,0,0,0,4.777-3.952,19.4,19.4,0,0,0,3.376-5.084V65.29H211.125q-7.884,0-11.261,2.283a7.3,7.3,0,0,0-3.376,6.369C196.469,78.929,200.037,81.442,207.174,81.442Z" transform="translate(163.583 22.417)" fill="#fff"/>
    <path id="Caminho_4367" data-name="Caminho 4367" d="M254.651,95.963a36.651,36.651,0,0,1-14.388-2.8,35.55,35.55,0,0,1-11.452-7.635,35.1,35.1,0,0,1-7.577-11.337,35.75,35.75,0,0,1-2.743-14,36.142,36.142,0,0,1,2.743-14.138,34.854,34.854,0,0,1,7.635-11.337,35.608,35.608,0,0,1,11.452-7.577,36.566,36.566,0,0,1,14.2-2.743,38.382,38.382,0,0,1,11.2,1.592,35.552,35.552,0,0,1,9.477,4.451,34.58,34.58,0,0,1,7.52,6.868,35.764,35.764,0,0,1,5.275,8.844L271.82,52.628A18.422,18.422,0,0,0,265.2,43.9a17.794,17.794,0,0,0-10.436-3.127,18.06,18.06,0,0,0-7.386,1.535,18.916,18.916,0,0,0-9.995,10.321,19.523,19.523,0,0,0-1.458,7.52,18.655,18.655,0,0,0,1.458,7.386,19.165,19.165,0,0,0,4.067,6.043A19.945,19.945,0,0,0,247.5,77.72a18,18,0,0,0,7.386,1.535,16.9,16.9,0,0,0,10.512-3.319,19.875,19.875,0,0,0,6.561-8.652l16.421,6.753a40.143,40.143,0,0,1-12.93,15.73Q266.986,95.982,254.651,95.963Z" transform="translate(200.647 22.398)" fill="#fff"/>
  </g>
</svg>
