<svg xmlns="http://www.w3.org/2000/svg" width="352.76" height="109.777" viewBox="0 0 352.76 109.777">
  <g id="Grupo_10134" data-name="Grupo 10134" transform="translate(5)">
    <g id="Grupo_1" data-name="Grupo 1" transform="translate(-5)">
      <path id="Caminho_6" data-name="Caminho 6" d="M459.96,292.889m0,10.226" transform="translate(-246.637 -241.917)" fill="#fff"/>
      <g id="Grupo_4" data-name="Grupo 4" transform="translate(135.657 11.825)">
        <path id="Caminho_7" data-name="Caminho 7" d="M593.556,279.871c4.837-3.236,8.119-7.691,8.119-13.807,0-8.155-6.4-13.674-15.185-13.674H567v48.378a79.13,79.13,0,0,0,10.12,0V286.152a65.952,65.952,0,0,0,7.473-2.026,149.548,149.548,0,0,1,8.711,16.643,101.163,101.163,0,0,0,11.423,0A189.564,189.564,0,0,0,593.556,279.871Zm-16.431-17.338h7.625c4.851,0,6.886,1.388,6.517,4.849-.52,4.872-8.337,7.666-14.142,9.029Z" transform="translate(-387.629 -251.723)" fill="#fff"/>
        <path id="Caminho_8" data-name="Caminho 8" d="M542.561,252.168a65.525,65.525,0,0,0-10.6.028l-18.136,48.534a77.337,77.337,0,0,0,10.94-.029l2.726-7.451a39.7,39.7,0,0,1,19.825-.016l2.778,7.515a93.414,93.414,0,0,0,10.875-.038Zm-11.309,30.806,6.1-16.685,6.165,16.679A50.912,50.912,0,0,0,531.252,282.974Z" transform="translate(-384.978 -251.702)" fill="#fff"/>
        <path id="Caminho_9" data-name="Caminho 9" d="M508.463,300.753l-.139-48.481a77.443,77.443,0,0,0-10.259.03l.076,26.664a121.049,121.049,0,0,0-21.333-26.406v-.192a75.021,75.021,0,0,0-10.176.029l.139,48.481a53.8,53.8,0,0,0,10.176-.029L476.85,267c8.963,9.732,17.249,22.4,21.345,33.778h.009A87.533,87.533,0,0,0,508.463,300.753Z" transform="translate(-382.626 -251.709)" fill="#fff"/>
        <path id="Caminho_10" data-name="Caminho 10" d="M425.122,300.739V252.381h32.2a49.967,49.967,0,0,1,0,10.152H435.263v8.03H453.9a57.853,57.853,0,0,1,0,9.456h-18.64v10.568h23.528a49.936,49.936,0,0,1,0,10.152Z" transform="translate(-380.557 -251.723)" fill="#fff"/>
        <path id="Caminho_11" data-name="Caminho 11" d="M400.618,301.363c8.729,0,16.879-4.3,16.879-13.991,0-9.242-6.161-11.81-12.964-15.211-3.338-1.668-12.772-5.2-12.772-8.086,0-2.375,2.759-2.953,6.225-2.953a35.985,35.985,0,0,1,12.323,2.311,25.145,25.145,0,0,0,3.658-8.279c-4.429-2.118-10.782-3.466-18.163-3.466-8.665,0-14.7,4.236-14.7,12.772,0,9.434,11.232,13.285,16.045,15.468,5.455,2.5,9.883,3.915,9.883,7.958,0,3.466-5.006,3.4-7.381,3.4a45.438,45.438,0,0,1-17.393-3.85,37.48,37.48,0,0,0-4.044,8.535C384.188,299.823,393.109,301.363,400.618,301.363Z" transform="translate(-378.219 -251.688)" fill="#fff"/>
      </g>
      <g id="Grupo_7" data-name="Grupo 7">
        <g id="Grupo_5" data-name="Grupo 5">
          <path id="Caminho_12" data-name="Caminho 12" d="M235.446,298.1a58.48,58.48,0,0,0,2.077,11.719A35.437,35.437,0,0,1,257,339.272a58.3,58.3,0,0,0,10.1,6.584v-4.448A45.366,45.366,0,0,0,235.446,298.1Z" transform="translate(-235.446 -242.177)" fill="#fff"/>
          <path id="Caminho_13" data-name="Caminho 13" d="M237.742,275.762a58.463,58.463,0,0,0-2.043,9.925,55.812,55.812,0,0,1,25.892,14.792A56.223,56.223,0,0,1,278.008,340.3v8.694A57.829,57.829,0,0,0,288.1,350.84V340.3A66.407,66.407,0,0,0,237.742,275.762Z" transform="translate(-235.459 -241.063)" fill="#fff"/>
          <path id="Caminho_14" data-name="Caminho 14" d="M302.546,305.224a87.578,87.578,0,0,0-46.353-46.566,86.369,86.369,0,0,0-8.282-3.033,58.65,58.65,0,0,0-5.7,8.9,77.354,77.354,0,0,1,57.1,74.766v10.545a57.82,57.82,0,0,0,10.088-1.851v-8.694A87.315,87.315,0,0,0,302.546,305.224Z" transform="translate(-235.783 -240.059)" fill="#fff"/>
          <path id="Caminho_15" data-name="Caminho 15" d="M299.449,261.691a107.714,107.714,0,0,0-32.482-22.448,58.287,58.287,0,0,0-9.985,6.852,98.47,98.47,0,0,1,64.039,92.38v4.448a58.284,58.284,0,0,0,10.066-6.552,108.5,108.5,0,0,0-31.637-74.679Z" transform="translate(-236.519 -239.243)" fill="#fff"/>
        </g>
        <g id="Grupo_6" data-name="Grupo 6" transform="translate(21.56)">
          <path id="Caminho_16" data-name="Caminho 16" d="M344.741,316.493a35.126,35.126,0,0,1,9.223-6.672,58.61,58.61,0,0,0,2.077-11.719,45.366,45.366,0,0,0-31.661,43.307v4.448a58.257,58.257,0,0,0,10.156-6.625A35.047,35.047,0,0,1,344.741,316.493Z" transform="translate(-261.439 -242.177)" fill="#00d953"/>
          <path id="Caminho_17" data-name="Caminho 17" d="M312.391,340.3a56.349,56.349,0,0,1,34.236-51.888,55.418,55.418,0,0,1,8.073-2.72,58.383,58.383,0,0,0-2.043-9.925A66.407,66.407,0,0,0,302.3,340.3V350.84a57.83,57.83,0,0,0,10.088-1.851Z" transform="translate(-260.338 -241.063)" fill="#00d953"/>
          <path id="Caminho_18" data-name="Caminho 18" d="M290.315,339.292a77.354,77.354,0,0,1,57.1-74.766,58.58,58.58,0,0,0-5.7-8.9,87.518,87.518,0,0,0-54.634,49.6,87.334,87.334,0,0,0-6.85,34.068v8.694a57.822,57.822,0,0,0,10.088,1.851Z" transform="translate(-259.238 -240.059)" fill="#00d953"/>
          <path id="Caminho_19" data-name="Caminho 19" d="M268.237,338.475a98.471,98.471,0,0,1,64.04-92.38,58.327,58.327,0,0,0-9.986-6.852,108.729,108.729,0,0,0-64.154,97.1,58.328,58.328,0,0,0,10.1,6.581Z" transform="translate(-258.137 -239.243)" fill="#00d953"/>
        </g>
      </g>
      <path id="Caminho_4345" data-name="Caminho 4345" d="M13.282-17.531A1.068,1.068,0,0,1,13-17.2a.619.619,0,0,1-.37.109,1.035,1.035,0,0,1-.58-.246q-.333-.247-.834-.544a6.707,6.707,0,0,0-1.2-.544,5.179,5.179,0,0,0-1.7-.247,4.973,4.973,0,0,0-1.66.254,3.556,3.556,0,0,0-1.2.689,2.827,2.827,0,0,0-.732,1.022,3.245,3.245,0,0,0-.246,1.269A2.345,2.345,0,0,0,4.894-14a3.685,3.685,0,0,0,1.131.979,8.664,8.664,0,0,0,1.6.7q.892.3,1.827.616t1.827.718a6.426,6.426,0,0,1,1.6,1.008A4.594,4.594,0,0,1,14-8.483a4.971,4.971,0,0,1,.428,2.175,7.015,7.015,0,0,1-.464,2.559,5.9,5.9,0,0,1-1.356,2.081A6.342,6.342,0,0,1,10.418-.275,8.053,8.053,0,0,1,7.467.232,9,9,0,0,1,3.785-.5,8.642,8.642,0,0,1,.957-2.48l.812-1.334a1.068,1.068,0,0,1,.283-.268.663.663,0,0,1,.37-.109.822.822,0,0,1,.428.152q.239.152.544.384t.7.508a5.751,5.751,0,0,0,.892.507,6.036,6.036,0,0,0,1.138.384A6.2,6.2,0,0,0,7.555-2.1a5.357,5.357,0,0,0,1.783-.276,3.788,3.788,0,0,0,1.327-.776,3.361,3.361,0,0,0,.834-1.2,4,4,0,0,0,.29-1.551,2.6,2.6,0,0,0-.428-1.544,3.546,3.546,0,0,0-1.124-1.008,7.806,7.806,0,0,0-1.595-.689q-.9-.283-1.827-.58a19.379,19.379,0,0,1-1.827-.689,5.9,5.9,0,0,1-1.6-1.015,4.664,4.664,0,0,1-1.124-1.559A5.552,5.552,0,0,1,1.842-15.3a5.5,5.5,0,0,1,.428-2.132,5.443,5.443,0,0,1,1.247-1.827,6.092,6.092,0,0,1,2.016-1.276A7.356,7.356,0,0,1,8.28-21.01a8.737,8.737,0,0,1,3.168.551,7.483,7.483,0,0,1,2.516,1.595ZM25.535-6.612a21.513,21.513,0,0,0-3.038.283,8.638,8.638,0,0,0-2.045.587,2.823,2.823,0,0,0-1.145.855,1.84,1.84,0,0,0-.355,1.1,2.432,2.432,0,0,0,.188,1,1.859,1.859,0,0,0,.515.689,2.067,2.067,0,0,0,.768.392,3.525,3.525,0,0,0,.95.123,5.269,5.269,0,0,0,1.247-.138,4.7,4.7,0,0,0,1.066-.4,6.009,6.009,0,0,0,.957-.624,8.291,8.291,0,0,0,.892-.827Zm-8.337-6a8.388,8.388,0,0,1,2.624-1.755,8.1,8.1,0,0,1,3.118-.58,5.562,5.562,0,0,1,2.19.406,4.49,4.49,0,0,1,1.609,1.131,4.79,4.79,0,0,1,.986,1.755A7.307,7.307,0,0,1,28.057-9.4V0H26.912a1.125,1.125,0,0,1-.58-.123.84.84,0,0,1-.319-.486L25.723-2a14.392,14.392,0,0,1-1.131.95,6.473,6.473,0,0,1-1.16.7,6.3,6.3,0,0,1-1.3.435A7.1,7.1,0,0,1,20.6.232a5.292,5.292,0,0,1-1.61-.239,3.718,3.718,0,0,1-1.312-.718A3.376,3.376,0,0,1,16.8-1.936a4.231,4.231,0,0,1-.326-1.733,3.232,3.232,0,0,1,.479-1.675A4.193,4.193,0,0,1,18.5-6.772a10.176,10.176,0,0,1,2.8-1.022,21.339,21.339,0,0,1,4.234-.457V-9.4a3.927,3.927,0,0,0-.74-2.588,2.667,2.667,0,0,0-2.16-.877,4.645,4.645,0,0,0-1.6.239,6.01,6.01,0,0,0-1.116.536q-.471.3-.812.536a1.171,1.171,0,0,1-.674.239.741.741,0,0,1-.45-.138,1.264,1.264,0,0,1-.319-.341Zm17.226.058a8.715,8.715,0,0,1,1.015-.972,6.691,6.691,0,0,1,1.138-.747,5.779,5.779,0,0,1,1.276-.479,6.059,6.059,0,0,1,1.457-.167,5.3,5.3,0,0,1,2.124.4,4.11,4.11,0,0,1,1.537,1.131,5,5,0,0,1,.935,1.762,7.667,7.667,0,0,1,.319,2.276V0h-2.6V-9.352a3.954,3.954,0,0,0-.761-2.588,2.828,2.828,0,0,0-2.313-.921,4.339,4.339,0,0,0-2.139.551,7.043,7.043,0,0,0-1.834,1.493V0h-2.6V-14.689h1.551a.637.637,0,0,1,.681.536ZM52.476.232A3.541,3.541,0,0,1,49.8-.739a3.877,3.877,0,0,1-.935-2.8v-8.99H47.1a.578.578,0,0,1-.391-.138.535.535,0,0,1-.16-.428v-1.029l2.407-.3.595-4.538a.632.632,0,0,1,.2-.355.572.572,0,0,1,.4-.138h1.305V-14.4h4.249v1.87H51.446v8.816A1.875,1.875,0,0,0,51.9-2.335a1.57,1.57,0,0,0,1.16.45,2.048,2.048,0,0,0,.7-.109,3.018,3.018,0,0,0,.515-.239q.218-.131.37-.239a.484.484,0,0,1,.268-.109.444.444,0,0,1,.363.247L56.028-1.1a4.809,4.809,0,0,1-1.609.979A5.465,5.465,0,0,1,52.476.232ZM66.323-6.612a21.513,21.513,0,0,0-3.038.283,8.639,8.639,0,0,0-2.045.587,2.823,2.823,0,0,0-1.145.855,1.84,1.84,0,0,0-.355,1.1,2.431,2.431,0,0,0,.188,1,1.859,1.859,0,0,0,.515.689,2.067,2.067,0,0,0,.768.392,3.525,3.525,0,0,0,.95.123,5.269,5.269,0,0,0,1.247-.138,4.7,4.7,0,0,0,1.066-.4,6.009,6.009,0,0,0,.957-.624,8.291,8.291,0,0,0,.892-.827Zm-8.337-6A8.388,8.388,0,0,1,60.61-14.37a8.1,8.1,0,0,1,3.118-.58,5.562,5.562,0,0,1,2.189.406,4.49,4.49,0,0,1,1.61,1.131,4.79,4.79,0,0,1,.986,1.755A7.307,7.307,0,0,1,68.846-9.4V0H67.7a1.125,1.125,0,0,1-.58-.123A.84.84,0,0,1,66.8-.609L66.512-2a14.392,14.392,0,0,1-1.131.95,6.473,6.473,0,0,1-1.16.7,6.3,6.3,0,0,1-1.3.435,7.1,7.1,0,0,1-1.53.152,5.292,5.292,0,0,1-1.61-.239,3.718,3.718,0,0,1-1.312-.718,3.376,3.376,0,0,1-.885-1.211,4.231,4.231,0,0,1-.326-1.733,3.232,3.232,0,0,1,.479-1.675,4.193,4.193,0,0,1,1.551-1.428,10.176,10.176,0,0,1,2.8-1.022,21.339,21.339,0,0,1,4.234-.457V-9.4a3.927,3.927,0,0,0-.739-2.588,2.667,2.667,0,0,0-2.161-.877,4.645,4.645,0,0,0-1.6.239,6.01,6.01,0,0,0-1.117.536q-.471.3-.812.536a1.171,1.171,0,0,1-.674.239.741.741,0,0,1-.45-.138,1.264,1.264,0,0,1-.319-.341ZM95.4-4.292A.537.537,0,0,1,95.8-4.1l1.117,1.2a8.89,8.89,0,0,1-3.1,2.306,10.6,10.6,0,0,1-4.4.827,10.288,10.288,0,0,1-4.06-.776,8.93,8.93,0,0,1-3.118-2.175,9.832,9.832,0,0,1-2-3.357,12.539,12.539,0,0,1-.71-4.306,12.1,12.1,0,0,1,.739-4.307,9.856,9.856,0,0,1,2.081-3.364,9.3,9.3,0,0,1,3.212-2.182A10.686,10.686,0,0,1,89.7-21.01a10.067,10.067,0,0,1,3.915.711A9.855,9.855,0,0,1,96.6-18.372l-.928,1.291a.76.76,0,0,1-.225.239.645.645,0,0,1-.37.094,1.15,1.15,0,0,1-.638-.283,9.693,9.693,0,0,0-.986-.631,7.655,7.655,0,0,0-1.522-.631,7.691,7.691,0,0,0-2.248-.283,7.552,7.552,0,0,0-2.943.558,6.426,6.426,0,0,0-2.3,1.617,7.459,7.459,0,0,0-1.5,2.581,10.3,10.3,0,0,0-.537,3.437,10.024,10.024,0,0,0,.558,3.465,7.652,7.652,0,0,0,1.523,2.574,6.435,6.435,0,0,0,2.276,1.6,7.247,7.247,0,0,0,2.835.551A11.694,11.694,0,0,0,91.27-2.3a6.839,6.839,0,0,0,1.378-.341,5.8,5.8,0,0,0,1.174-.587,8.368,8.368,0,0,0,1.08-.848A.75.75,0,0,1,95.4-4.292Zm12.136-2.32a21.513,21.513,0,0,0-3.038.283,8.638,8.638,0,0,0-2.044.587,2.823,2.823,0,0,0-1.146.855,1.84,1.84,0,0,0-.355,1.1,2.432,2.432,0,0,0,.188,1,1.859,1.859,0,0,0,.515.689,2.067,2.067,0,0,0,.769.392,3.525,3.525,0,0,0,.95.123,5.269,5.269,0,0,0,1.247-.138,4.7,4.7,0,0,0,1.066-.4,6.009,6.009,0,0,0,.957-.624,8.291,8.291,0,0,0,.892-.827Zm-8.337-6a8.388,8.388,0,0,1,2.624-1.755,8.1,8.1,0,0,1,3.118-.58,5.562,5.562,0,0,1,2.189.406,4.49,4.49,0,0,1,1.61,1.131,4.79,4.79,0,0,1,.986,1.755,7.307,7.307,0,0,1,.334,2.262V0H108.91a1.125,1.125,0,0,1-.58-.123.84.84,0,0,1-.319-.486L107.721-2a14.392,14.392,0,0,1-1.131.95,6.473,6.473,0,0,1-1.16.7,6.3,6.3,0,0,1-1.3.435,7.1,7.1,0,0,1-1.53.152,5.292,5.292,0,0,1-1.609-.239A3.718,3.718,0,0,1,99.68-.725,3.376,3.376,0,0,1,98.8-1.936a4.231,4.231,0,0,1-.326-1.733,3.232,3.232,0,0,1,.479-1.675A4.193,4.193,0,0,1,100.5-6.772a10.176,10.176,0,0,1,2.8-1.022,21.339,21.339,0,0,1,4.234-.457V-9.4a3.927,3.927,0,0,0-.739-2.588,2.667,2.667,0,0,0-2.16-.877,4.645,4.645,0,0,0-1.6.239,6.01,6.01,0,0,0-1.116.536q-.471.3-.812.536a1.171,1.171,0,0,1-.674.239.741.741,0,0,1-.45-.138,1.264,1.264,0,0,1-.319-.341ZM118.306.232a3.541,3.541,0,0,1-2.675-.971,3.877,3.877,0,0,1-.935-2.8v-8.99h-1.769a.578.578,0,0,1-.392-.138.535.535,0,0,1-.16-.428v-1.029l2.407-.3.594-4.538a.632.632,0,0,1,.2-.355.572.572,0,0,1,.4-.138h1.305V-14.4h4.249v1.87h-4.249v8.816a1.875,1.875,0,0,0,.45,1.378,1.57,1.57,0,0,0,1.16.45,2.048,2.048,0,0,0,.7-.109,3.018,3.018,0,0,0,.515-.239q.217-.131.37-.239a.484.484,0,0,1,.268-.109.444.444,0,0,1,.363.247l.754,1.233a4.808,4.808,0,0,1-1.609.979A5.465,5.465,0,0,1,118.306.232Zm13.847-6.844a21.513,21.513,0,0,0-3.038.283,8.638,8.638,0,0,0-2.044.587,2.823,2.823,0,0,0-1.146.855,1.84,1.84,0,0,0-.355,1.1,2.432,2.432,0,0,0,.188,1,1.859,1.859,0,0,0,.515.689,2.067,2.067,0,0,0,.769.392,3.525,3.525,0,0,0,.95.123,5.269,5.269,0,0,0,1.247-.138,4.7,4.7,0,0,0,1.066-.4,6.009,6.009,0,0,0,.957-.624,8.29,8.29,0,0,0,.892-.827Zm-8.337-6a8.388,8.388,0,0,1,2.624-1.755,8.1,8.1,0,0,1,3.117-.58,5.562,5.562,0,0,1,2.19.406,4.49,4.49,0,0,1,1.609,1.131,4.79,4.79,0,0,1,.986,1.755,7.307,7.307,0,0,1,.333,2.262V0h-1.145a1.125,1.125,0,0,1-.58-.123.84.84,0,0,1-.319-.486L132.342-2a14.4,14.4,0,0,1-1.131.95,6.473,6.473,0,0,1-1.16.7,6.3,6.3,0,0,1-1.3.435,7.1,7.1,0,0,1-1.53.152,5.292,5.292,0,0,1-1.609-.239A3.718,3.718,0,0,1,124.3-.725a3.376,3.376,0,0,1-.884-1.211,4.231,4.231,0,0,1-.326-1.733,3.232,3.232,0,0,1,.479-1.675,4.193,4.193,0,0,1,1.552-1.428,10.176,10.176,0,0,1,2.8-1.022,21.339,21.339,0,0,1,4.234-.457V-9.4a3.927,3.927,0,0,0-.74-2.588,2.667,2.667,0,0,0-2.16-.877,4.645,4.645,0,0,0-1.6.239,6.01,6.01,0,0,0-1.116.536q-.471.3-.812.536a1.171,1.171,0,0,1-.674.239.741.741,0,0,1-.45-.138,1.264,1.264,0,0,1-.319-.341Zm17.24.87a6.623,6.623,0,0,1,1.711-2.356,3.737,3.737,0,0,1,2.48-.848,3.85,3.85,0,0,1,.892.1,2.392,2.392,0,0,1,.761.319l-.189,1.928a.415.415,0,0,1-.435.363,2.994,2.994,0,0,1-.594-.087,4.093,4.093,0,0,0-.885-.087,3.529,3.529,0,0,0-1.24.2,2.9,2.9,0,0,0-.971.6,4.252,4.252,0,0,0-.768.986A8.452,8.452,0,0,0,141.2-9.28V0h-2.6V-14.689h1.479a.816.816,0,0,1,.58.16.978.978,0,0,1,.217.551Zm10.832-2.944V0h-2.581V-14.689Zm.551-4.611a1.642,1.642,0,0,1-.152.7,2.025,2.025,0,0,1-.406.58,1.863,1.863,0,0,1-.594.4,1.814,1.814,0,0,1-.718.145,1.712,1.712,0,0,1-.7-.145,1.823,1.823,0,0,1-.573-.4,1.979,1.979,0,0,1-.392-.58,1.712,1.712,0,0,1-.145-.7,1.814,1.814,0,0,1,.145-.718,1.927,1.927,0,0,1,.392-.594,1.823,1.823,0,0,1,.573-.4,1.712,1.712,0,0,1,.7-.145,1.814,1.814,0,0,1,.718.145,1.863,1.863,0,0,1,.594.4,1.966,1.966,0,0,1,.406.594A1.74,1.74,0,0,1,152.439-19.3Zm6.119,6.742a8.715,8.715,0,0,1,1.015-.972,6.691,6.691,0,0,1,1.138-.747,5.78,5.78,0,0,1,1.276-.479,6.059,6.059,0,0,1,1.457-.167,5.3,5.3,0,0,1,2.124.4,4.11,4.11,0,0,1,1.537,1.131,5,5,0,0,1,.935,1.762,7.667,7.667,0,0,1,.319,2.276V0h-2.6V-9.352A3.954,3.954,0,0,0,165-11.941a2.828,2.828,0,0,0-2.313-.921,4.339,4.339,0,0,0-2.139.551,7.044,7.044,0,0,0-1.834,1.493V0h-2.6V-14.689h1.551a.637.637,0,0,1,.682.536Zm21.707,5.945a21.513,21.513,0,0,0-3.038.283,8.639,8.639,0,0,0-2.045.587,2.823,2.823,0,0,0-1.145.855,1.84,1.84,0,0,0-.355,1.1,2.431,2.431,0,0,0,.189,1,1.859,1.859,0,0,0,.515.689,2.067,2.067,0,0,0,.769.392,3.525,3.525,0,0,0,.95.123,5.269,5.269,0,0,0,1.247-.138,4.7,4.7,0,0,0,1.066-.4,6.01,6.01,0,0,0,.957-.624,8.29,8.29,0,0,0,.892-.827Zm-8.338-6a8.388,8.388,0,0,1,2.624-1.755,8.1,8.1,0,0,1,3.118-.58,5.562,5.562,0,0,1,2.189.406,4.49,4.49,0,0,1,1.609,1.131,4.79,4.79,0,0,1,.986,1.755,7.307,7.307,0,0,1,.333,2.262V0h-1.145a1.125,1.125,0,0,1-.58-.123.84.84,0,0,1-.319-.486L180.452-2a14.4,14.4,0,0,1-1.131.95,6.472,6.472,0,0,1-1.16.7,6.3,6.3,0,0,1-1.3.435,7.1,7.1,0,0,1-1.53.152,5.292,5.292,0,0,1-1.609-.239,3.718,3.718,0,0,1-1.312-.718,3.376,3.376,0,0,1-.884-1.211,4.231,4.231,0,0,1-.326-1.733,3.232,3.232,0,0,1,.479-1.675,4.193,4.193,0,0,1,1.551-1.428,10.176,10.176,0,0,1,2.8-1.022,21.34,21.34,0,0,1,4.234-.457V-9.4a3.927,3.927,0,0,0-.74-2.588,2.667,2.667,0,0,0-2.161-.877,4.645,4.645,0,0,0-1.6.239,6.01,6.01,0,0,0-1.117.536q-.471.3-.812.536a1.171,1.171,0,0,1-.674.239.741.741,0,0,1-.449-.138,1.264,1.264,0,0,1-.319-.341Z" transform="translate(136.271 99.313)" fill="#fff"/>
    </g>
  </g>
</svg>
