<svg xmlns="http://www.w3.org/2000/svg" width="33.635" height="31.787" viewBox="0 0 33.635 31.787">
  <g id="Grupo_10128" data-name="Grupo 10128" transform="translate(5)">
    <g id="Grupo_1" data-name="Grupo 1" transform="translate(-5)">
      <g id="Grupo_7" data-name="Grupo 7">
        <g id="Grupo_5" data-name="Grupo 5">
          <path id="Caminho_12" data-name="Caminho 12" d="M235.446,298.1a16.933,16.933,0,0,0,.6,3.393,10.261,10.261,0,0,1,5.64,8.528,16.879,16.879,0,0,0,2.926,1.907v-1.288A13.136,13.136,0,0,0,235.446,298.1Z" transform="translate(-235.446 -281.909)" fill="#fff"/>
          <path id="Caminho_13" data-name="Caminho 13" d="M236.291,275.762a16.925,16.925,0,0,0-.592,2.874,16.161,16.161,0,0,1,7.5,4.283,16.28,16.28,0,0,1,4.754,11.529v2.517a16.745,16.745,0,0,0,2.921.536v-3.053A19.228,19.228,0,0,0,236.291,275.762Z" transform="translate(-235.629 -265.715)" fill="#fff"/>
          <path id="Caminho_14" data-name="Caminho 14" d="M259.68,269.987a25.262,25.262,0,0,0-15.82-14.362,16.982,16.982,0,0,0-1.651,2.577,22.4,22.4,0,0,1,16.533,21.649V282.9a16.747,16.747,0,0,0,2.921-.536v-2.517A25.283,25.283,0,0,0,259.68,269.987Z" transform="translate(-240.348 -251.118)" fill="#fff"/>
          <path id="Caminho_15" data-name="Caminho 15" d="M269.279,245.743a31.189,31.189,0,0,0-9.405-6.5,16.876,16.876,0,0,0-2.891,1.984,28.513,28.513,0,0,1,18.543,26.749v1.288a16.878,16.878,0,0,0,2.915-1.9,31.416,31.416,0,0,0-9.161-21.624Z" transform="translate(-251.057 -239.243)" fill="#fff"/>
        </g>
        <g id="Grupo_6" data-name="Grupo 6" transform="translate(6.243)">
          <path id="Caminho_16" data-name="Caminho 16" d="M330.276,303.427a10.17,10.17,0,0,1,2.671-1.932,16.972,16.972,0,0,0,.6-3.393,13.136,13.136,0,0,0-9.168,12.54v1.288a16.868,16.868,0,0,0,2.941-1.918A10.148,10.148,0,0,1,330.276,303.427Z" transform="translate(-306.155 -281.909)" fill="#00d953"/>
          <path id="Caminho_17" data-name="Caminho 17" d="M305.224,294.448a16.316,16.316,0,0,1,9.913-15.024,16.041,16.041,0,0,1,2.337-.788,16.9,16.9,0,0,0-.592-2.874,19.228,19.228,0,0,0-14.58,18.686V297.5a16.744,16.744,0,0,0,2.921-.536Z" transform="translate(-290.152 -265.715)" fill="#00d953"/>
          <path id="Caminho_18" data-name="Caminho 18" d="M283.148,279.851A22.4,22.4,0,0,1,299.681,258.2a16.963,16.963,0,0,0-1.651-2.577,25.333,25.333,0,0,0-17.8,24.226v2.517a16.747,16.747,0,0,0,2.921.536Z" transform="translate(-274.15 -251.118)" fill="#00d953"/>
          <path id="Caminho_19" data-name="Caminho 19" d="M261.062,267.976A28.513,28.513,0,0,1,279.6,241.227a16.887,16.887,0,0,0-2.892-1.984,31.483,31.483,0,0,0-18.576,28.116,16.889,16.889,0,0,0,2.925,1.906Z" transform="translate(-258.137 -239.243)" fill="#00d953"/>
        </g>
      </g>
    </g>
  </g>
</svg>
