<svg xmlns="http://www.w3.org/2000/svg" xmlns:xlink="http://www.w3.org/1999/xlink" width="100" height="12.318" viewBox="0 0 100 12.318">
  <defs>
    <clipPath id="clip-path">
      <path id="Caminho_3322" data-name="Caminho 3322" d="M236.74,153.681a1.313,1.313,0,1,0,1.314,1.313A1.315,1.315,0,0,0,236.74,153.681Z" transform="translate(-235.427 -153.681)" fill="#3eaeab"/>
    </clipPath>
  </defs>
  <g id="Grupo_9407" data-name="Grupo 9407" transform="translate(-32.988 -126.463)">
    <g id="Grupo_8547" data-name="Grupo 8547" transform="translate(32.988 126.462)">
      <g id="Grupo_8546" data-name="Grupo 8546" transform="translate(0 0)">
        <g id="Grupo_8545" data-name="Grupo 8545">
          <g id="Grupo_8538" data-name="Grupo 8538" transform="translate(10.952)">
            <path id="Caminho_3313" data-name="Caminho 3313" d="M66.866,133.532v-2.28H69.9v-2.18H66.883v-2.609H64.469v6.87c0,3.246,1.452,4.97,4.317,5.126.313.017.676.017,1.026.017H71.26v-2.3H69.7C67.712,136.178,66.866,135.386,66.866,133.532Z" transform="translate(-64.469 -126.462)" fill="#2e2d2c"/>
          </g>
          <g id="Grupo_8539" data-name="Grupo 8539" transform="translate(19.261 2.609)">
            <path id="Caminho_3314" data-name="Caminho 3314" d="M96.576,138.638a2.776,2.776,0,0,1-2.913,2.43,2.706,2.706,0,0,1-2.93-2.43v-4.677h-2.38v4.677c0,2.606,2.382,4.727,5.31,4.727a5.04,5.04,0,0,0,5.293-4.727v-4.677h-2.38Z" transform="translate(-88.354 -133.961)" fill="#2e2d2c"/>
          </g>
          <g id="Grupo_8540" data-name="Grupo 8540" transform="translate(31.336)">
            <path id="Caminho_3315" data-name="Caminho 3315" d="M131.3,129.927a5,5,0,0,0-2.913-.906c-2.987,0-5.326,2.055-5.326,4.677,0,2.669,2.354,4.761,5.359,4.761a4.95,4.95,0,0,0,5.18-4.078l.046-7.918H131.3Zm-2.916,6.035c-1.6,0-2.754-.933-2.754-2.218a2.545,2.545,0,0,1,2.723-2.31,2.478,2.478,0,0,1,2.708,2.387C131.062,135.081,129.961,135.962,128.385,135.962Z" transform="translate(-123.062 -126.462)" fill="#2e2d2c"/>
          </g>
          <g id="Grupo_8541" data-name="Grupo 8541" transform="translate(43.494 2.609)">
            <rect id="Retângulo_2898" data-name="Retângulo 2898" width="2.43" height="9.023" fill="#2e2d2c"/>
          </g>
          <g id="Grupo_8542" data-name="Grupo 8542" transform="translate(47.447 2.575)">
            <path id="Caminho_3316" data-name="Caminho 3316" d="M174.665,133.865c-2.546,0-5.293,1.807-5.293,4.727s2.747,4.71,5.293,4.71,5.293-1.8,5.293-4.71S177.21,133.865,174.665,133.865Zm0,6.9a2.228,2.228,0,1,1,2.66-2.179A2.474,2.474,0,0,1,174.666,140.77Z" transform="translate(-169.372 -133.865)" fill="#2e2d2c"/>
          </g>
          <g id="Grupo_8543" data-name="Grupo 8543" transform="translate(0 1.737)">
            <path id="Caminho_3317" data-name="Caminho 3317" d="M39.29,135.781l-1.3-.294c-1.463-.315-1.864-.547-1.864-1.078,0-.508.625-.823,1.631-.823a3.309,3.309,0,0,1,2.5,1.232l2.069-1.161a5.545,5.545,0,0,0-4.492-2.2c-2.612,0-4.367,1.254-4.367,3.121,0,1.447.964,2.335,3.034,2.793l1.3.294c1.4.3,1.864.5,1.864,1.114,0,.508-.738.823-1.924.823a3.22,3.22,0,0,1-2.661-1.432l-2.087,1.178a5,5,0,0,0,1.737,1.685,5.92,5.92,0,0,0,2.937.7c2.744,0,4.661-1.283,4.661-3.12C42.323,137.137,41.359,136.239,39.29,135.781Z" transform="translate(-32.988 -131.454)" fill="#2e2d2c"/>
          </g>
          <g id="Grupo_8544" data-name="Grupo 8544" transform="translate(59.537 2.575)">
            <path id="Caminho_3318" data-name="Caminho 3318" d="M214.55,143.384a2.208,2.208,0,0,1,.539-3.146v-1.2c0-3.228-1.783-5.155-4.769-5.155a5.934,5.934,0,0,0-3.761,1.443v-1.46h-2.435v9.521h2.435V139.22a3.675,3.675,0,0,1,3.627-3.073c1.638,0,2.468,1.034,2.468,3.073v4.164Z" transform="translate(-204.123 -133.863)" fill="#2e2d2c"/>
          </g>
        </g>
      </g>
    </g>
    <g id="Grupo_8550" data-name="Grupo 8550" transform="translate(103.415 135.931)">
      <g id="Grupo_8549" data-name="Grupo 8549" transform="translate(0 0)">
        <path id="Caminho_3319" data-name="Caminho 3319" d="M236.74,153.681a1.313,1.313,0,1,0,1.314,1.313A1.315,1.315,0,0,0,236.74,153.681Z" transform="translate(-235.427 -153.681)" fill="#3eaeab"/>
        <g id="Grupo_8548" data-name="Grupo 8548" clip-path="url(#clip-path)">
          <path id="Caminho_3320" data-name="Caminho 3320" d="M235.427,153.681v0Z" transform="translate(-235.427 -153.681)" fill="#3eaeab"/>
          <rect id="Retângulo_2899" data-name="Retângulo 2899" width="0.066" height="2.627" transform="translate(0 0)" fill="#3eaeab"/>
          <rect id="Retângulo_2900" data-name="Retângulo 2900" width="0.066" height="2.627" transform="translate(0.066 0)" fill="#3eaeab"/>
          <rect id="Retângulo_2901" data-name="Retângulo 2901" width="0.066" height="2.627" transform="translate(0.131 0)" fill="#3eaeab"/>
          <rect id="Retângulo_2902" data-name="Retângulo 2902" width="0.066" height="2.627" transform="translate(0.197 0)" fill="#3eaeab"/>
          <rect id="Retângulo_2903" data-name="Retângulo 2903" width="0.066" height="2.627" transform="translate(0.263 0)" fill="#3eaeab"/>
          <rect id="Retângulo_2904" data-name="Retângulo 2904" width="0.066" height="2.627" transform="translate(0.328 0)" fill="#3eaeab"/>
          <rect id="Retângulo_2905" data-name="Retângulo 2905" width="0.066" height="2.627" transform="translate(0.394 0)" fill="#3eaeab"/>
          <rect id="Retângulo_2906" data-name="Retângulo 2906" width="0.066" height="2.627" transform="translate(0.46 0)" fill="#3eaeab"/>
          <rect id="Retângulo_2907" data-name="Retângulo 2907" width="0.066" height="2.627" transform="translate(0.525 0)" fill="#3eaeab"/>
          <rect id="Retângulo_2908" data-name="Retângulo 2908" width="0.066" height="2.627" transform="translate(0.591 0)" fill="#3eaeab"/>
          <rect id="Retângulo_2909" data-name="Retângulo 2909" width="0.066" height="2.627" transform="translate(0.657 0)" fill="#3eaeab"/>
          <rect id="Retângulo_2910" data-name="Retângulo 2910" width="0.066" height="2.627" transform="translate(0.722 0)" fill="#3eaeab"/>
          <rect id="Retângulo_2911" data-name="Retângulo 2911" width="0.066" height="2.627" transform="translate(0.788 0)" fill="#3eaeab"/>
          <rect id="Retângulo_2912" data-name="Retângulo 2912" width="0.066" height="2.627" transform="translate(0.854 0)" fill="#3eaeab"/>
          <rect id="Retângulo_2913" data-name="Retângulo 2913" width="0.066" height="2.627" transform="translate(0.919 0)" fill="#3eaeab"/>
          <rect id="Retângulo_2914" data-name="Retângulo 2914" width="0.066" height="2.627" transform="translate(0.985 0)" fill="#3eaeab"/>
          <rect id="Retângulo_2915" data-name="Retângulo 2915" width="0.066" height="2.627" transform="translate(1.051 0)" fill="#3eaeab"/>
          <rect id="Retângulo_2916" data-name="Retângulo 2916" width="0.066" height="2.627" transform="translate(1.116 0)" fill="#3eaeab"/>
          <rect id="Retângulo_2917" data-name="Retângulo 2917" width="0.066" height="2.627" transform="translate(1.182 0)" fill="#3eaeab"/>
          <rect id="Retângulo_2918" data-name="Retângulo 2918" width="0.066" height="2.627" transform="translate(1.248 0)" fill="#3eaeab"/>
          <rect id="Retângulo_2919" data-name="Retângulo 2919" width="0.066" height="2.627" transform="translate(1.313 0)" fill="#3eaeab"/>
          <rect id="Retângulo_2920" data-name="Retângulo 2920" width="0.066" height="2.627" transform="translate(1.379 0)" fill="#3eaeab"/>
          <rect id="Retângulo_2921" data-name="Retângulo 2921" width="0.066" height="2.627" transform="translate(1.445 0)" fill="#3eaeab"/>
          <rect id="Retângulo_2922" data-name="Retângulo 2922" width="0.066" height="2.627" transform="translate(1.51 0)" fill="#3eaeab"/>
          <rect id="Retângulo_2923" data-name="Retângulo 2923" width="0.066" height="2.627" transform="translate(1.576 0)" fill="#3eaeab"/>
          <rect id="Retângulo_2924" data-name="Retângulo 2924" width="0.066" height="2.627" transform="translate(1.642 0)" fill="#3eaeab"/>
          <rect id="Retângulo_2925" data-name="Retângulo 2925" width="0.066" height="2.627" transform="translate(1.707 0)" fill="#3eaeab"/>
          <rect id="Retângulo_2926" data-name="Retângulo 2926" width="0.066" height="2.627" transform="translate(1.773 0)" fill="#3eaeab"/>
          <rect id="Retângulo_2927" data-name="Retângulo 2927" width="0.066" height="2.627" transform="translate(1.839 0)" fill="#3eaeab"/>
          <rect id="Retângulo_2928" data-name="Retângulo 2928" width="0.066" height="2.627" transform="translate(1.904 0)" fill="#3eaeab"/>
          <rect id="Retângulo_2929" data-name="Retângulo 2929" width="0.066" height="2.627" transform="translate(1.97 0)" fill="#3eaeab"/>
          <rect id="Retângulo_2930" data-name="Retângulo 2930" width="0.066" height="2.627" transform="translate(2.036 0)" fill="#3eaeab"/>
          <rect id="Retângulo_2931" data-name="Retângulo 2931" width="0.066" height="2.627" transform="translate(2.101 0)" fill="#3eaeab"/>
          <rect id="Retângulo_2932" data-name="Retângulo 2932" width="0.066" height="2.627" transform="translate(2.167 0)" fill="#3eaeab"/>
          <rect id="Retângulo_2933" data-name="Retângulo 2933" width="0.066" height="2.627" transform="translate(2.233 0)" fill="#3eaeab"/>
          <rect id="Retângulo_2934" data-name="Retângulo 2934" width="0.066" height="2.627" transform="translate(2.298 0)" fill="#3eaeab"/>
          <rect id="Retângulo_2935" data-name="Retângulo 2935" width="0.066" height="2.627" transform="translate(2.364 0)" fill="#3eaeab"/>
          <rect id="Retângulo_2936" data-name="Retângulo 2936" width="0.066" height="2.627" transform="translate(2.43 0)" fill="#3eaeab"/>
          <rect id="Retângulo_2937" data-name="Retângulo 2937" width="0.066" height="2.627" transform="translate(2.495 0)" fill="#3eaeab"/>
          <rect id="Retângulo_2938" data-name="Retângulo 2938" width="0.066" height="2.627" transform="translate(2.561 0)" fill="#3eaeab"/>
          <path id="Caminho_3321" data-name="Caminho 3321" d="M242.978,156.308v0Z" transform="translate(-240.351 -153.681)" fill="#3eaeab"/>
        </g>
      </g>
    </g>
    <g id="Grupo_8551" data-name="Grupo 8551" transform="translate(107.29 129.09)" opacity="0.8">
      <path id="Caminho_3323" data-name="Caminho 3323" d="M272.039,143.708h-3.112a.223.223,0,0,1-.164-.072l-2.526-2.711-2.541,2.711a.225.225,0,0,1-.164.071H258.92a.225.225,0,0,1-.224-.225v-4.532c0-2.27-.962-2.27-1.373-2.27a2.041,2.041,0,0,0-1.911,2.172v4.63a.225.225,0,0,1-.225.225h-2.315a.225.225,0,0,1-.225-.225v-4.32c0-.928-.262-2.5-1.242-2.5a2.18,2.18,0,0,0-2.058,1.813c0,.724,0,1.489.008,2.254s.008,1.535.008,2.262v.489a.225.225,0,0,1-.225.225h-2.348a.225.225,0,0,1-.225-.225v-9.211a.225.225,0,0,1,.225-.225h2.348a.225.225,0,0,1,.225.225v.308a4.532,4.532,0,0,1,2.188-.565,3.807,3.807,0,0,1,2.831,1.327,4.5,4.5,0,0,1,3.054-1.327c2.557,0,4.023,1.651,4.023,4.529v3.495l2.956-3.169-4.159-4.476a.225.225,0,0,1,.165-.378h3.11a.226.226,0,0,1,.164.071l2.542,2.7,2.527-2.7a.224.224,0,0,1,.164-.071h3.108a.225.225,0,0,1,.165.377l-4.141,4.476,4.144,4.462a.225.225,0,0,1-.165.377Zm-3.014-.449h2.5l-3.935-4.237a.225.225,0,0,1,0-.305l3.934-4.252h-2.5l-2.624,2.8a.224.224,0,0,1-.163.071h0a.224.224,0,0,1-.163-.071l-2.639-2.8h-2.5l3.95,4.252a.224.224,0,0,1,0,.306l-3.488,3.74a.225.225,0,0,1-.389-.153v-4.065c0-2.63-1.269-4.079-3.574-4.079a4.177,4.177,0,0,0-2.91,1.374.225.225,0,0,1-.35-.025,3.3,3.3,0,0,0-2.625-1.349,4.052,4.052,0,0,0-2.285.7.225.225,0,0,1-.352-.185V134.5h-1.9v8.761h1.9v-.264c0-.726,0-1.492-.008-2.259s-.008-1.532-.008-2.257a2.594,2.594,0,0,1,2.507-2.262c1.249,0,1.692,1.587,1.692,2.947v4.1h1.865v-4.405a2.483,2.483,0,0,1,2.36-2.621c.451,0,1.822,0,1.822,2.719v4.307h4.291l2.639-2.816a.223.223,0,0,1,.164-.071h0a.223.223,0,0,1,.164.071Z" transform="translate(-246.566 -134.015)" fill="#2e2d2c"/>
    </g>
  </g>
</svg>
