<svg xmlns="http://www.w3.org/2000/svg" width="429.681" height="167" viewBox="0 0 429.681 167">
  <g id="Grupo_10033" data-name="Grupo 10033" transform="translate(-2735.724 -1442.372)">
    <path id="Caminho_4341" data-name="Caminho 4341" d="M2764.255,1516.771c-15.333,0-27.87-10.362-27.87-26.525v-47.874h18.132v47.459c0,6.839,3.728,10.775,9.739,10.775s9.947-3.936,9.947-10.775v-47.459h18.135v47.874C2792.337,1506.408,2779.59,1516.771,2764.255,1516.771Z" transform="translate(0.48 0)" fill="#ffffff"/>
    <path id="Caminho_4342" data-name="Caminho 4342" d="M2816.061,1516.149l-23.624-37.1v37.1H2774.3v-73.777h15.853l23.626,37.1v-37.1h18.133v73.777Z" transform="translate(28.048 0)" fill="#ffffff"/>
    <path id="Caminho_4343" data-name="Caminho 4343" d="M2813.9,1516.149v-73.777h18.132v73.777Z" transform="translate(56.838 0)" fill="#ffffff"/>
    <path id="Caminho_4344" data-name="Caminho 4344" d="M2763.7,1569.648c-8.6,0-15.13-2.9-20.517-8.289-7.772-7.771-7.459-18.133-7.459-29.221s-.313-21.448,7.459-29.22c5.387-5.388,11.914-8.29,20.517-8.29,13.987,0,25.281,7.771,27.976,24.039h-18.445c-1.139-4.145-3.419-7.875-9.429-7.875a8.8,8.8,0,0,0-7.148,3.108c-1.659,2.176-2.8,4.767-2.8,18.238s1.139,16.06,2.8,18.235a8.791,8.791,0,0,0,7.148,3.109c6.01,0,8.29-3.729,9.429-7.875h18.445C2788.984,1561.876,2777.689,1569.648,2763.7,1569.648Z" transform="translate(0 37.993)" fill="#ffffff"/>
    <path id="Caminho_4345" data-name="Caminho 4345" d="M2808.546,1568.764l-13.056-27.458h-6.115v27.458h-18.132v-73.776h29.22c16.372,0,25.179,11.6,25.179,23.729a21.219,21.219,0,0,1-12.019,19.272l15.956,30.775Zm-8.91-57.508h-10.261v14.921h10.261a7.471,7.471,0,1,0,0-14.921Z" transform="translate(25.824 38.254)" fill="#ffffff"/>
    <path id="Caminho_4346" data-name="Caminho 4346" d="M2807.963,1568.764v-73.776h50.151v16.165H2826.1v12.329h27.356v16.165H2826.1V1552.6h32.017v16.163Z" transform="translate(52.52 38.254)" fill="#ffffff"/>
    <path id="Caminho_4347" data-name="Caminho 4347" d="M2889.289,1561.51c-5.075,5.078-12.225,7.254-19.893,7.254h-27.354v-73.776H2869.4c7.668,0,14.818,2.177,19.893,7.251,8.6,8.6,7.671,18.031,7.671,29.636S2897.892,1552.91,2889.289,1561.51Zm-12.433-46.213c-1.658-2.486-4.145-4.143-8.7-4.143h-7.98V1552.6h7.98c4.558,0,7.044-1.658,8.7-4.147,1.451-2.073,1.971-4.042,1.971-16.578C2878.827,1519.442,2878.308,1517.37,2876.856,1515.3Z" transform="translate(77.296 38.254)" fill="#ffffff"/>
    <path id="Caminho_4348" data-name="Caminho 4348" d="M2899.416,1548.522H2877.3v-22.115h22.115Zm-18.652-3.463h15.189v-15.19h-15.189Z" transform="translate(102.062 60.228)" fill="#ffffff"/>
    <path id="Caminho_4349" data-name="Caminho 4349" d="M2919.659,1565.022c-8.1,0-14.3-1.839-18.976-5.619-6.16-4.984-9.283-13.264-9.283-24.61,0-9.206,2.58-16.9,7.459-22.252,4.757-5.217,11.412-7.973,19.246-7.973,8.181,0,15.061,2.875,19.9,8.314,4.457,5.016,6.912,12.062,6.912,19.841v9.294H2931.3l12.468,12.465-1.225,1.225a30.888,30.888,0,0,1-9.612,6.9A32.255,32.255,0,0,1,2919.659,1565.022Zm-1.554-56.991c-14.336,0-23.242,10.255-23.242,26.763,0,10.249,2.691,17.623,8,21.918,4.032,3.261,9.526,4.847,16.8,4.847,9.344,0,14.348-2.582,19.188-7.1l-7.72-7.718c-2.909,2.589-5.917,3.977-11.469,3.977a11.95,11.95,0,0,1-8.491-3.125,10.04,10.04,0,0,1-3.083-7.311v-1.731h33.364v-5.831c0-6.931-2.144-13.16-6.039-17.541C2931.253,1510.5,2925.269,1508.031,2918.1,1508.031Zm-6.33,33.986c.733,2.76,3.267,5.242,7.884,5.242,5.236,0,7.4-1.282,10.278-4.154l1.088-1.087Zm16.35-11.293h-20.04v-1.731a11.385,11.385,0,0,1,1.095-5.085c.891-2.019,3.224-5.351,8.925-5.351s8.037,3.332,8.926,5.351a11.4,11.4,0,0,1,1.094,5.085Zm-16.428-3.463h12.817a6.927,6.927,0,0,0-.6-1.847l-.039-.083c-.659-1.511-2.192-3.312-5.77-3.312s-5.111,1.8-5.768,3.311l-.04.085A6.867,6.867,0,0,0,2911.7,1527.261Z" transform="translate(112.313 44.35)" fill="#ffffff"/>
    <path id="Caminho_4350" data-name="Caminho 4350" d="M2943.327,1572.349c-5.853,0-11.246-2.036-14.8-5.585-5.721-5.721-5.7-15.108-5.687-23.389q0-.633,0-1.255t0-1.254c-.016-8.28-.033-17.666,5.688-23.388a20.781,20.781,0,0,1,14.7-5.584,19.237,19.237,0,0,1,10.7,2.78v-20.187h20.456v77.239h-19.937v-2.566A18.436,18.436,0,0,1,2943.327,1572.349Zm-.1-56.991a17.309,17.309,0,0,0-12.249,4.571c-4.7,4.7-4.687,13.325-4.673,20.931q0,.636,0,1.26t0,1.261c-.014,7.607-.031,16.229,4.673,20.934,2.906,2.9,7.407,4.571,12.35,4.571,5,0,8.261-1.311,11.628-4.675l2.956-2.952v7.005h13.011v-70.313H2957.39v24.52l-2.955-2.955C2951.558,1516.641,2948.1,1515.359,2943.226,1515.359Zm5.386,41.656c-3.666,0-6.185-1.549-7.486-4.6-1.071-2.516-1.29-5.934-1.29-10.291s.219-7.773,1.29-10.288c1.3-3.053,3.82-4.6,7.486-4.6s6.185,1.548,7.487,4.6c1.073,2.516,1.292,5.932,1.292,10.288s-.219,7.775-1.292,10.291C2954.8,1555.466,2952.278,1557.015,2948.611,1557.015Zm0-26.32c-2.844,0-3.747,1.2-4.3,2.5-.891,2.091-1.013,5.528-1.013,8.93s.122,6.842,1.014,8.934c.552,1.3,1.455,2.5,4.3,2.5s3.748-1.2,4.3-2.5c.892-2.092,1.015-5.53,1.015-8.933s-.123-6.838-1.015-8.93C2952.36,1531.895,2951.457,1530.695,2948.611,1530.695Z" transform="translate(135.17 37.023)" fill="#ffffff"/>
    <path id="Caminho_4351" data-name="Caminho 4351" d="M2975.286,1564.759a18.947,18.947,0,0,1-13.763-5.272c-5.364-5.366-6.1-11.43-6.1-17.184v-37.374h20.458v35.094c0,5.51,3.907,5.939,5.1,5.939s5.109-.428,5.109-5.939v-35.094h20.456v59.208H2986.5v-2.7A21.157,21.157,0,0,1,2975.286,1564.759Zm-16.4-56.367V1542.3c0,5.789.866,10.51,5.089,14.735a15.566,15.566,0,0,0,11.314,4.258,17.091,17.091,0,0,0,11.726-4.674l2.956-2.956v7.008h13.117v-52.282h-13.53v31.631c0,6.494-4.3,9.4-8.572,9.4s-8.568-2.907-8.568-9.4v-31.631Z" transform="translate(158.858 44.613)" fill="#ffffff"/>
  </g>
</svg>
