<?xml version="1.0" standalone="no"?>
<!DOCTYPE svg PUBLIC "-//W3C//DTD SVG 20010904//EN"
 "http://www.w3.org/TR/2001/REC-SVG-20010904/DTD/svg10.dtd">
<svg version="1.0" xmlns="http://www.w3.org/2000/svg"
 width="760.000000pt" height="760.000000pt" viewBox="0 0 760.000000 760.000000"
 preserveAspectRatio="xMidYMid meet">
<metadata>
Created by potrace 1.14, written by Peter Selinger 2001-2017
</metadata>
<g transform="translate(0.000000,760.000000) scale(0.100000,-0.100000)"
fill="#000000" stroke="none">
<path d="M3628 7595 c-1 -1 -28 -6 -58 -9 -30 -4 -62 -8 -70 -10 -31 -6 -76
-18 -90 -23 -19 -8 -18 -7 -60 -17 -19 -5 -44 -15 -55 -22 -11 -8 -27 -14 -37
-14 -10 0 -18 -4 -18 -10 0 -5 -5 -10 -11 -10 -7 0 -28 -10 -48 -22 -31 -20
-51 -23 -166 -25 -71 -1 -141 -4 -155 -6 -14 -3 -47 -8 -75 -12 -27 -3 -59 -9
-70 -13 -11 -3 -24 -7 -30 -8 -5 -1 -51 -15 -102 -32 -104 -35 -222 -92 -302
-146 -29 -20 -57 -36 -62 -36 -5 0 -9 -3 -9 -7 0 -5 -17 -19 -37 -33 -20 -14
-45 -34 -55 -45 -11 -11 -22 -20 -26 -20 -34 -3 -172 -66 -200 -92 -7 -7 -17
-13 -22 -13 -5 0 -15 -6 -22 -12 -7 -7 -31 -25 -53 -40 -80 -54 -260 -225
-358 -339 -61 -71 -177 -226 -177 -237 0 -6 -4 -12 -9 -14 -14 -5 -122 -193
-177 -308 -69 -141 -152 -369 -169 -458 -2 -12 -6 -25 -8 -30 -3 -4 -8 -25
-11 -47 -4 -22 -11 -57 -17 -77 -9 -34 -14 -63 -24 -143 -2 -16 -4 -30 -5 -30
-1 0 -3 -9 -4 -20 -29 -218 -29 -598 0 -825 3 -19 7 -53 10 -75 2 -22 9 -66
15 -98 5 -32 12 -70 14 -85 2 -15 6 -34 9 -42 3 -8 8 -26 11 -40 16 -80 26
-123 45 -190 11 -41 23 -86 26 -99 3 -13 12 -37 20 -52 8 -16 14 -30 13 -31
-2 -5 14 -63 20 -73 3 -5 7 -19 8 -29 2 -11 7 -24 12 -30 5 -6 12 -22 16 -36
12 -42 67 -155 76 -158 5 -2 9 -10 9 -18 0 -22 189 -322 232 -368 10 -11 20
-28 24 -38 3 -10 9 -18 14 -18 5 0 11 -8 14 -17 3 -10 18 -31 34 -48 15 -16
39 -46 52 -65 13 -19 27 -37 30 -40 3 -3 30 -36 60 -75 60 -76 84 -106 115
-140 11 -13 34 -40 50 -61 17 -21 35 -42 40 -48 6 -6 35 -40 65 -76 30 -36 60
-69 66 -75 6 -5 37 -41 70 -80 32 -38 75 -86 94 -106 19 -20 63 -68 97 -106
34 -38 76 -85 93 -104 312 -335 413 -439 790 -816 162 -162 306 -303 320 -312
21 -14 69 -16 395 -17 273 0 377 3 395 12 49 24 845 831 1140 1155 41 46 100
110 131 143 31 34 78 86 104 116 65 74 96 109 120 135 11 12 38 43 60 71 22
27 47 56 55 64 8 8 33 38 55 65 22 28 42 52 45 55 3 3 24 27 45 55 22 27 45
55 50 62 6 7 15 18 20 25 67 82 155 200 155 208 0 5 4 10 8 10 5 0 26 26 48
58 21 31 41 59 44 62 3 3 30 43 60 90 30 47 57 87 60 90 3 3 12 19 20 35 8 17
17 32 21 35 6 6 105 208 112 230 2 8 5 18 6 23 0 4 7 20 15 36 9 16 12 31 9
35 -4 3 0 6 7 6 7 0 11 3 7 6 -3 3 1 25 10 47 8 23 16 47 17 52 2 6 6 17 9 25
6 14 46 159 52 185 1 5 7 28 13 50 6 22 14 54 16 70 9 46 15 75 20 93 3 9 7
35 11 57 3 22 10 68 16 103 6 34 9 69 5 77 -3 8 -2 15 2 15 4 0 8 8 8 18 0 9
5 55 10 102 10 99 12 508 1 595 -3 33 -9 80 -12 105 -33 285 -128 609 -247
843 -52 101 -172 302 -210 352 -5 6 -40 52 -80 104 -94 124 -290 319 -409 408
-93 70 -258 163 -289 163 -8 0 -35 16 -60 36 -198 159 -377 248 -600 298 -106
24 -148 28 -285 31 -126 1 -132 2 -185 33 -87 50 -227 97 -355 117 -42 7 -410
16 -417 10z"/>
<path d="M3428 561 c-15 -7 -29 -21 -29 -30 -7 -75 -5 -83 28 -117 18 -20 33
-41 34 -47 1 -19 6 -39 25 -102 10 -33 19 -64 20 -70 17 -78 48 -163 65 -177
19 -16 46 -18 238 -18 159 0 221 3 233 12 9 7 22 31 29 53 13 41 15 46 22 80
3 11 13 47 23 80 17 59 20 67 28 103 3 9 5 18 6 20 2 1 3 5 4 10 7 30 19 52
28 52 38 0 52 101 19 141 l-18 23 -363 0 c-289 1 -369 -2 -392 -13z"/>
<path d="M4480 519 c-170 -63 -217 -268 -91 -395 151 -153 419 -36 406 177 -5
72 -23 115 -66 158 -67 68 -165 91 -249 60z"/>
</g>
</svg>
