<svg xmlns="http://www.w3.org/2000/svg" width="69.786" height="51.022" viewBox="0 0 69.786 51.022"><defs><style>.a{fill:#005837;}.b{fill:#cf7418;}</style></defs><g transform="translate(287.607 -362.347)"><path d="M-187.291,425.023a1.4,1.4,0,0,0,1.4,1.406,1.4,1.4,0,0,0,1.4-1.406,1.4,1.4,0,0,0-1.4-1.394,1.394,1.394,0,0,0-1.4,1.394m2.534,0a1.144,1.144,0,0,1-1.138,1.153,1.146,1.146,0,0,1-1.137-1.153,1.143,1.143,0,0,1,1.137-1.147,1.141,1.141,0,0,1,1.138,1.147m-1.649.811h.26v-.663h.25l.349.663h.3l-.389-.708a.461.461,0,0,0,.343-.443c0-.335-.22-.468-.787-.468h-.324Zm.26-1.394h.069c.413,0,.51.047.51.244s-.124.274-.408.274h-.171Z" transform="translate(-33.331 -20.361)"/><path d="M-198.726,433.667v-4.842l-3.66-4.846h1.6l2.766,3.674,2.82-3.674h1.625l-3.784,4.909v4.78Z" transform="translate(-28.315 -20.477)"/><path d="M-249.544,433.667v-9.688h1.183l6.186,7.512v-7.512h1.344v9.688h-1.195l-6.177-7.541v7.541Z" transform="translate(-12.647 -20.477)"/><path d="M-231.112,432.815v-1.837a4.483,4.483,0,0,0,1.232,1.084,2.318,2.318,0,0,0,1.245.343,1.662,1.662,0,0,0,1.111-.343,1.13,1.13,0,0,0,.407-.909,1.273,1.273,0,0,0-.288-.831,5.775,5.775,0,0,0-1.3-1.018,8.489,8.489,0,0,1-2.013-1.651,2.377,2.377,0,0,1-.413-1.378,2.469,2.469,0,0,1,.783-1.863,2.792,2.792,0,0,1,2.015-.734,3.651,3.651,0,0,1,1.074.177,3.926,3.926,0,0,1,1.07.495v1.571a4.956,4.956,0,0,0-1.149-.738,2.512,2.512,0,0,0-1.045-.242,1.578,1.578,0,0,0-1.036.325,1.04,1.04,0,0,0-.413.833c0,.483.562,1.077,1.665,1.789a1.558,1.558,0,0,1,.21.134,5.82,5.82,0,0,1,1.768,1.515,2.953,2.953,0,0,1,.427,1.657,2.4,2.4,0,0,1-.778,1.818,2.836,2.836,0,0,1-2.017.736,3.961,3.961,0,0,1-1.365-.226,3.639,3.639,0,0,1-1.189-.706" transform="translate(-18.764 -20.377)"/><path d="M-263.51,433.767a4.861,4.861,0,0,1-1.93-.387,5.044,5.044,0,0,1-1.64-1.086,4.922,4.922,0,0,1-1.085-1.633,5,5,0,0,1-.377-1.967,4.753,4.753,0,0,1,.377-1.869,5.029,5.029,0,0,1,1.085-1.621,5.314,5.314,0,0,1,1.64-1.1,5.12,5.12,0,0,1,1.926-.364,4.862,4.862,0,0,1,1.939.378,4.64,4.64,0,0,1,1.643,1.086,4.741,4.741,0,0,1,1.1,1.643,4.9,4.9,0,0,1,.359,1.95,5.1,5.1,0,0,1-.366,1.9,4.818,4.818,0,0,1-1.1,1.6,4.738,4.738,0,0,1-1.643,1.086,4.839,4.839,0,0,1-1.935.387m0-8.719a3.565,3.565,0,0,0-1.369.272,3.958,3.958,0,0,0-1.184.813,3.664,3.664,0,0,0-.787,1.182,4.269,4.269,0,0,0-.256,1.43,4.169,4.169,0,0,0,.256,1.424,3.561,3.561,0,0,0,.787,1.181,3.161,3.161,0,0,0,1.157.8,3.429,3.429,0,0,0,1.392.287,3.66,3.66,0,0,0,1.393-.27,3.716,3.716,0,0,0,1.173-.819,3.889,3.889,0,0,0,.781-1.181,4.1,4.1,0,0,0,.268-1.424,3.79,3.79,0,0,0-.268-1.384,4.331,4.331,0,0,0-.8-1.228,3.744,3.744,0,0,0-1.17-.813,3.541,3.541,0,0,0-1.375-.272" transform="translate(-6.334 -20.398)"/><path d="M-213.973,423.74a4.992,4.992,0,0,1,1.947.378,4.693,4.693,0,0,1,1.616,1.086,4.77,4.77,0,0,1,1.106,1.643,4.847,4.847,0,0,1,.375,1.95,5.037,5.037,0,0,1-.382,1.9,4.764,4.764,0,0,1-1.074,1.6,5.009,5.009,0,0,1-1.657,1.086,4.843,4.843,0,0,1-1.929.387,4.842,4.842,0,0,1-1.932-.387,4.848,4.848,0,0,1-1.626-1.086,4.729,4.729,0,0,1-1.108-1.633,5.082,5.082,0,0,1-.372-1.967,4.79,4.79,0,0,1,.372-1.869,4.871,4.871,0,0,1,1.108-1.622,4.92,4.92,0,0,1,1.626-1.1,5.118,5.118,0,0,1,1.932-.363m0,8.7a3.643,3.643,0,0,0,1.385-.269,3.6,3.6,0,0,0,1.163-.819,3.859,3.859,0,0,0,.789-1.181,4.065,4.065,0,0,0,.269-1.422,3.525,3.525,0,0,0-.269-1.386,4.474,4.474,0,0,0-.8-1.227,3.807,3.807,0,0,0-1.177-.812,3.487,3.487,0,0,0-1.364-.273,3.547,3.547,0,0,0-1.377.273,4.115,4.115,0,0,0-1.183.812,3.5,3.5,0,0,0-.783,1.181,4.192,4.192,0,0,0-.257,1.432,4.071,4.071,0,0,0,.257,1.422,3.41,3.41,0,0,0,.783,1.181,3.231,3.231,0,0,0,1.157.8,3.49,3.49,0,0,0,1.4.287" transform="translate(-22.792 -20.398)"/><path d="M-278.86,423.979l-3.79,4.544-3.793-4.544h-1.165v9.688h1.3v-7.562l3.66,4.368,3.657-4.368v7.562h1.3v-9.688Z" transform="translate(0 -20.477)"/><path d="M-248.1,366.973a6.033,6.033,0,0,1,1.737,1.788,6.982,6.982,0,0,0-2.672-3.278,7.36,7.36,0,0,0-4.023-1.46h-.005a2.321,2.321,0,0,0-1.936.777,1.737,1.737,0,0,0-.328,1.061c-.008,1.235,1.034,2.923,2.8,4.183a3.74,3.74,0,0,1-.968-2.28,1.8,1.8,0,0,1,.334-1.081,2.251,2.251,0,0,1,1.892-.807,5.793,5.793,0,0,1,3.166,1.1" transform="translate(-10.727 -0.556)"/><path class="a" d="M-238.218,371.265c2.209-1.064,3.641-2.851,3.626-4.183a1.676,1.676,0,0,0-.146-.7,2.565,2.565,0,0,0-2.514-1.185,7.737,7.737,0,0,0-3.263.811,5.065,5.065,0,0,1,.936-.091,2.382,2.382,0,0,1,2.3,1.158,1.788,1.788,0,0,1,.164.761c-.011,1.271-1.158,2.672-2.861,3.535a6.086,6.086,0,0,1-2.4.656,4.511,4.511,0,0,0,.851.074,7.718,7.718,0,0,0,3.308-.833" transform="translate(-15.028 -0.946)"/><path class="b" d="M-247.9,377.409c-.007,2.629,1.145,4.7,2.52,4.806a1.466,1.466,0,0,0,.153.007c1.4.034,2.853-2.035,3.056-4.822-.463,1.332-1.336,2.256-2.393,2.278-.049,0-.1,0-.148-.007h0c-1.447-.154-2.375-1.955-2.381-4.066q0-.2.012-.41a5.93,5.93,0,0,1,.617-2.4,7,7,0,0,0-1.412,3.97c-.015.218-.023.433-.023.644" transform="translate(-13.193 -3.471)"/><path d="M-224.036,367c.009-2.527-1.088-4.508-2.408-4.638a1.623,1.623,0,0,0-.194-.011c-1.4-.033-2.858,1.99-3.126,4.741.489-1.3,1.37-2.2,2.413-2.218a1.522,1.522,0,0,1,.181.01c1.4.186,2.281,1.924,2.288,3.956,0,.19-.008.382-.024.576a6.016,6.016,0,0,1-.68,2.393,7.017,7.017,0,0,0,1.51-3.94c.027-.294.041-.585.041-.869" transform="translate(-19.219 0)"/><path class="a" d="M-225.727,379.321a6.03,6.03,0,0,1-1.774-1.767,6.966,6.966,0,0,0,2.734,3.241,7.376,7.376,0,0,0,3.974,1.4,2.342,2.342,0,0,0,1.985-.808,1.719,1.719,0,0,0,.317-1.04c.009-1.241-1.063-2.927-2.858-4.16a3.712,3.712,0,0,1,1,2.3,1.8,1.8,0,0,1-.314,1.044h0a2.3,2.3,0,0,1-1.95.839,5.824,5.824,0,0,1-3.117-1.047" transform="translate(-19.971 -4.598)"/><path class="b" d="M-231.607,373.9a7.81,7.81,0,0,0-3.3.827c-2.208,1.06-3.643,2.851-3.628,4.178a1.679,1.679,0,0,0,.145.7,2.572,2.572,0,0,0,2.521,1.19,7.761,7.761,0,0,0,3.245-.8,5.022,5.022,0,0,1-.917.088,2.393,2.393,0,0,1-2.315-1.166h0a1.792,1.792,0,0,1-.159-.749c.011-1.271,1.157-2.678,2.87-3.532a6.023,6.023,0,0,1,2.4-.658,4.534,4.534,0,0,0-.854-.076Z" transform="translate(-16.303 -3.839)"/><path d="M-219.549,392.3a4.837,4.837,0,0,0,1.2.14,8.018,8.018,0,0,0,3.011-.644c2.332-.955,3.886-2.73,3.869-4.074a1.659,1.659,0,0,0-.1-.592c-.314-.843-1.367-1.346-2.79-1.346a7.956,7.956,0,0,0-2.96.624,5.138,5.138,0,0,1,.669-.043,2.5,2.5,0,0,1,2.5,1.305,1.766,1.766,0,0,1,.122.651c-.015,1.3-1.264,2.688-3.072,3.464a6.1,6.1,0,0,1-2.367.516h-.079" transform="translate(-22.613 -7.788)"/><path class="a" d="M-225.379,397.789c-.007,2.447,1.03,4.361,2.325,4.519a1.391,1.391,0,0,0,.216.016c1.384.031,2.875-1.961,3.19-4.694a2.955,2.955,0,0,1-2.419,2.177,1.8,1.8,0,0,1-.216-.014h0c-1.375-.206-2.212-1.9-2.216-3.884,0-.225.01-.455.033-.688a6.066,6.066,0,0,1,.733-2.395,6.989,6.989,0,0,0-1.587,3.929,8.981,8.981,0,0,0-.059,1.033" transform="translate(-20.676 -10.127)"/><path class="b" d="M-223.313,388.993a7.015,7.015,0,0,0-2.606-3.331,7.279,7.279,0,0,0-4.075-1.548H-230a2.252,2.252,0,0,0-1.858.739,1.766,1.766,0,0,0-.355,1.11c-.008,1.229.986,2.9,2.692,4.166a3.771,3.771,0,0,1-.907-2.232,1.8,1.8,0,0,1,.358-1.119,2.227,2.227,0,0,1,1.838-.774,5.749,5.749,0,0,1,3.211,1.161,6.055,6.055,0,0,1,1.706,1.828" transform="translate(-18.406 -7.232)"/><path d="M-228.443,411.2a5.8,5.8,0,0,1-3.178-1.112,6.041,6.041,0,0,1-1.732-1.8,6.985,6.985,0,0,0,2.658,3.289,7.371,7.371,0,0,0,4.049,1.482,2.271,2.271,0,0,0,1.9-.763,1.756,1.756,0,0,0,.337-1.08c.008-1.235-1.02-2.912-2.77-4.169a3.761,3.761,0,0,1,.95,2.267,1.813,1.813,0,0,1-.336,1.083h0a2.239,2.239,0,0,1-1.88.8" transform="translate(-18.026 -14.852)"/><path class="a" d="M-237.613,404.486a7.78,7.78,0,0,0-3.289.821c-2.214,1.053-3.657,2.842-3.643,4.172a1.672,1.672,0,0,0,.143.692,2.584,2.584,0,0,0,2.537,1.2,7.75,7.75,0,0,0,3.234-.792,5.076,5.076,0,0,1-.906.085,2.4,2.4,0,0,1-2.323-1.169h0a1.761,1.761,0,0,1-.159-.747c.011-1.275,1.165-2.679,2.876-3.533a6.047,6.047,0,0,1,2.415-.647,4.639,4.639,0,0,0-.883-.081Z" transform="translate(-14.308 -14.001)"/><path class="b" d="M-230.164,397.888c.009-2.6-1.138-4.653-2.5-4.756a1.465,1.465,0,0,0-.16-.009c-1.4-.033-2.855,2.032-3.069,4.816.466-1.331,1.339-2.253,2.4-2.274.051,0,.1,0,.16.007,1.435.16,2.356,1.952,2.362,4.045,0,.145,0,.29-.013.439a6.058,6.058,0,0,1-.64,2.41,7.028,7.028,0,0,0,1.43-3.976c.018-.237.026-.471.026-.7" transform="translate(-17.184 -10.225)"/><path d="M-253.66,407.843c-.009,2.67,1.179,4.784,2.561,4.879.047,0,.095.007.142.007,1.411.033,2.839-2.047,3.028-4.846-.453,1.338-1.321,2.272-2.385,2.292-.045,0-.09,0-.136,0-1.464-.14-2.41-1.963-2.417-4.1,0-.12,0-.241.009-.363a6.074,6.074,0,0,1,.617-2.431,6.972,6.972,0,0,0-1.4,4.008c-.01.186-.016.371-.016.554" transform="translate(-11.279 -13.601)"/><path class="a" d="M-252.147,399.255a6.963,6.963,0,0,0-2.829-3.141,7.534,7.534,0,0,0-3.881-1.278,2.406,2.406,0,0,0-2.093.87,1.714,1.714,0,0,0-.286.982c-.009,1.247,1.116,2.934,2.992,4.134a3.644,3.644,0,0,1-1.078-2.328,1.768,1.768,0,0,1,.286-.99,2.345,2.345,0,0,1,2.041-.9,5.906,5.906,0,0,1,3.026.952,6.086,6.086,0,0,1,1.823,1.7" transform="translate(-8.762 -10.794)"/><path class="b" d="M-243.978,401.352c2.143-1.111,3.51-2.9,3.5-4.228a1.719,1.719,0,0,0-.165-.753,2.491,2.491,0,0,0-2.395-1.116,7.61,7.61,0,0,0-3.378.9,4.979,4.979,0,0,1,1.042-.117,2.34,2.34,0,0,1,2.218,1.1,1.786,1.786,0,0,1,.185.808c-.011,1.253-1.1,2.661-2.756,3.555a6.07,6.07,0,0,1-2.385.73,4.321,4.321,0,0,0,.7.052,7.62,7.62,0,0,0,3.438-.934" transform="translate(-13.122 -10.934)"/><path d="M-260.784,384.2h0a7.834,7.834,0,0,0-3.208.767c-2.254,1.028-3.724,2.807-3.709,4.14a1.666,1.666,0,0,0,.132.668,2.622,2.622,0,0,0,2.6,1.238,7.827,7.827,0,0,0,3.155-.74,5.125,5.125,0,0,1-.829.071,2.432,2.432,0,0,1-2.378-1.208,1.772,1.772,0,0,1-.15-.723c.013-1.283,1.2-2.676,2.937-3.512a6.036,6.036,0,0,1,2.419-.606,4.637,4.637,0,0,0-.969-.1" transform="translate(-6.613 -7.261)"/><path class="a" d="M-253.079,377.57c.008-2.619-1.138-4.683-2.5-4.794-.051,0-.1-.008-.154-.008-1.414-.031-2.863,2.035-3.071,4.832.466-1.337,1.34-2.265,2.4-2.286.049,0,.1,0,.152.006h0c1.438.159,2.363,1.953,2.37,4.045,0,.144,0,.29-.013.436a6.129,6.129,0,0,1-.632,2.411,6.985,6.985,0,0,0,1.428-3.971c.017-.228.025-.451.025-.672" transform="translate(-9.569 -3.462)"/><path class="b" d="M-251.5,390.593a5.861,5.861,0,0,1-3.116-1.041,6.027,6.027,0,0,1-1.772-1.748,7.008,7.008,0,0,0,2.734,3.224,7.447,7.447,0,0,0,3.972,1.384,2.348,2.348,0,0,0,2-.815,1.716,1.716,0,0,0,.311-1.03c.008-1.241-1.069-2.934-2.88-4.17a3.707,3.707,0,0,1,1.018,2.3,1.787,1.787,0,0,1-.316,1.047,2.286,2.286,0,0,1-1.949.846" transform="translate(-10.374 -7.99)"/></g></svg>