<svg xmlns="http://www.w3.org/2000/svg" width="212.28" height="179.999" viewBox="0 0 212.28 179.999"><defs><style>.a{fill:#fff;}</style></defs><g transform="translate(810.374 -95.93)"><path class="a" d="M-710,161.451a4.243,4.243,0,0,0,4.245,4.275,4.258,4.258,0,0,0,4.267-4.275,4.252,4.252,0,0,0-4.267-4.239A4.237,4.237,0,0,0-710,161.451m7.7,0a3.477,3.477,0,0,1-3.459,3.5,3.483,3.483,0,0,1-3.455-3.5,3.476,3.476,0,0,1,3.455-3.486,3.47,3.47,0,0,1,3.459,3.486m-5.012,2.464h.792V161.9h.761l1.06,2.016h.9l-1.181-2.152a1.4,1.4,0,0,0,1.041-1.346c0-1.017-.668-1.423-2.391-1.423h-.985Zm.792-4.239h.209c1.255,0,1.551.144,1.551.741,0,.572-.375.832-1.24.832h-.52Z" transform="translate(103.392 63.123)"/><path class="a" d="M-713.966,187.015V172.294l-11.127-14.732h4.872l8.409,11.169,8.573-11.169h4.941l-11.5,14.923v14.531Z" transform="translate(87.843 63.483)"/><path class="a" d="M-772.251,187.015V157.562h3.6l18.806,22.838V157.562h4.086v29.454h-3.632l-18.78-22.925v22.925Z" transform="translate(39.268 63.483)"/><path class="a" d="M-753.778,185.039v-5.585a13.629,13.629,0,0,0,3.745,3.3,7.047,7.047,0,0,0,3.784,1.043,5.054,5.054,0,0,0,3.378-1.043,3.435,3.435,0,0,0,1.238-2.763,3.869,3.869,0,0,0-.875-2.527,17.558,17.558,0,0,0-3.957-3.1c-3.205-2.144-5.282-3.821-6.121-5.02a7.226,7.226,0,0,1-1.255-4.188,7.506,7.506,0,0,1,2.379-5.664,8.489,8.489,0,0,1,6.127-2.231,11.1,11.1,0,0,1,3.264.538,11.927,11.927,0,0,1,3.254,1.5v4.777a15.065,15.065,0,0,0-3.494-2.243,7.635,7.635,0,0,0-3.177-.737,4.8,4.8,0,0,0-3.149.989,3.163,3.163,0,0,0-1.256,2.531c0,1.47,1.707,3.274,5.063,5.438a4.743,4.743,0,0,1,.638.408c2.747,1.754,4.568,3.3,5.375,4.606a8.978,8.978,0,0,1,1.3,5.037,7.282,7.282,0,0,1-2.365,5.526,8.623,8.623,0,0,1-6.131,2.237,12.039,12.039,0,0,1-4.149-.686,11.057,11.057,0,0,1-3.615-2.148" transform="translate(58.234 63.174)"/><path class="a" d="M-775.949,187.807a14.778,14.778,0,0,1-5.869-1.175,15.332,15.332,0,0,1-4.986-3.3,14.965,14.965,0,0,1-3.3-4.965,15.2,15.2,0,0,1-1.147-5.981A14.448,14.448,0,0,1-790.1,166.7a15.289,15.289,0,0,1,3.3-4.929,16.157,16.157,0,0,1,4.986-3.346,15.568,15.568,0,0,1,5.857-1.106,14.8,14.8,0,0,1,5.9,1.149,14.115,14.115,0,0,1,4.992,3.3,14.413,14.413,0,0,1,3.354,5,14.9,14.9,0,0,1,1.092,5.928,15.487,15.487,0,0,1-1.113,5.769,14.651,14.651,0,0,1-3.333,4.864,14.414,14.414,0,0,1-4.992,3.3,14.726,14.726,0,0,1-5.885,1.175m0-26.508a10.84,10.84,0,0,0-4.162.826,12.034,12.034,0,0,0-3.6,2.471,11.14,11.14,0,0,0-2.393,3.593,12.976,12.976,0,0,0-.78,4.348,12.671,12.671,0,0,0,.78,4.328,10.825,10.825,0,0,0,2.393,3.589,9.608,9.608,0,0,0,3.518,2.436,10.425,10.425,0,0,0,4.23.873,11.128,11.128,0,0,0,4.235-.82,11.3,11.3,0,0,0,3.565-2.489,11.822,11.822,0,0,0,2.373-3.589,12.458,12.458,0,0,0,.814-4.328,11.521,11.521,0,0,0-.814-4.208,13.166,13.166,0,0,0-2.424-3.733,11.387,11.387,0,0,0-3.557-2.471,10.767,10.767,0,0,0-4.18-.826" transform="translate(19.698 63.236)"/><path class="a" d="M-726.4,157.323a15.184,15.184,0,0,1,5.918,1.149,14.256,14.256,0,0,1,4.911,3.3,14.477,14.477,0,0,1,3.364,5,14.769,14.769,0,0,1,1.137,5.928,15.349,15.349,0,0,1-1.159,5.771,14.485,14.485,0,0,1-3.268,4.862,15.222,15.222,0,0,1-5.039,3.3,14.713,14.713,0,0,1-5.863,1.177,14.739,14.739,0,0,1-5.877-1.177,14.736,14.736,0,0,1-4.943-3.3,14.342,14.342,0,0,1-3.366-4.963,15.452,15.452,0,0,1-1.133-5.98,14.565,14.565,0,0,1,1.133-5.682,14.835,14.835,0,0,1,3.366-4.931,14.957,14.957,0,0,1,4.943-3.348,15.58,15.58,0,0,1,5.877-1.1m0,26.439a11.071,11.071,0,0,0,4.208-.818,10.948,10.948,0,0,0,3.538-2.491,11.726,11.726,0,0,0,2.4-3.591,12.309,12.309,0,0,0,.818-4.322,10.684,10.684,0,0,0-.818-4.212,13.555,13.555,0,0,0-2.422-3.731,11.568,11.568,0,0,0-3.575-2.469,10.6,10.6,0,0,0-4.147-.83,10.8,10.8,0,0,0-4.188.83,12.566,12.566,0,0,0-3.6,2.469,10.6,10.6,0,0,0-2.379,3.591,12.748,12.748,0,0,0-.784,4.352,12.378,12.378,0,0,0,.784,4.322,10.334,10.334,0,0,0,2.379,3.591,9.857,9.857,0,0,0,3.518,2.436,10.624,10.624,0,0,0,4.267.873" transform="translate(70.719 63.237)"/><path class="a" d="M-783.721,157.562l-11.523,13.815-11.531-13.815h-3.54v29.454h3.953V164.028l11.127,13.278,11.118-13.278v22.988h3.967V157.562Z" transform="translate(0.061 63.483)"/><path class="a" d="M-756.059,106.576a18.369,18.369,0,0,1,5.282,5.434c-1.084-3.295-3.938-7.03-8.122-9.966-4.143-2.927-8.654-4.44-12.233-4.44h-.016c-2.653,0-4.726.814-5.883,2.361a5.3,5.3,0,0,0-1,3.226c-.022,3.754,3.145,8.886,8.518,12.716a11.382,11.382,0,0,1-2.942-6.933,5.461,5.461,0,0,1,1.015-3.287,6.847,6.847,0,0,1,5.753-2.452,17.621,17.621,0,0,1,9.626,3.339" transform="translate(33.316 1.725)"/><path class="a" d="M-752.441,117.235c6.716-3.234,11.068-8.668,11.023-12.718a5.1,5.1,0,0,0-.445-2.136c-1.019-2.292-3.839-3.6-7.643-3.6a23.523,23.523,0,0,0-9.919,2.466,15.406,15.406,0,0,1,2.846-.276c3.155-.006,5.875,1.125,7,3.52a5.436,5.436,0,0,1,.5,2.312c-.035,3.865-3.52,8.122-8.7,10.747a18.5,18.5,0,0,1-7.308,2,13.723,13.723,0,0,0,2.586.225,23.464,23.464,0,0,0,10.057-2.533" transform="translate(46.651 2.933)"/><path class="a" d="M-770.606,120.407c-.022,7.992,3.482,14.3,7.662,14.612a4.452,4.452,0,0,0,.465.022c4.269.1,8.672-6.188,9.29-14.659-1.407,4.05-4.062,6.857-7.276,6.925-.15,0-.3-.01-.449-.02h0c-4.4-.467-7.219-5.942-7.237-12.361q0-.621.036-1.246a18.029,18.029,0,0,1,1.876-7.3c-2.233,2.637-3.955,6.979-4.294,12.069-.045.662-.069,1.315-.069,1.959" transform="translate(40.963 10.763)"/><path class="a" d="M-735.057,110.067c.026-7.682-3.309-13.7-7.32-14.1a4.924,4.924,0,0,0-.591-.035c-4.247-.1-8.689,6.05-9.5,14.413,1.486-3.961,4.164-6.679,7.335-6.742a4.611,4.611,0,0,1,.55.03c4.263.564,6.935,5.851,6.955,12.028,0,.577-.024,1.161-.073,1.75a18.29,18.29,0,0,1-2.069,7.276c2.3-2.584,4.125-6.9,4.592-11.979.083-.9.124-1.778.124-2.641" transform="translate(59.643 0)"/><path class="a" d="M-744.814,119.3a18.307,18.307,0,0,1-5.394-5.371c1.135,3.283,4.048,6.981,8.311,9.854a22.407,22.407,0,0,0,12.081,4.251c2.747,0,4.882-.853,6.035-2.454a5.231,5.231,0,0,0,.964-3.161c.026-3.774-3.232-8.9-8.688-12.647a11.286,11.286,0,0,1,3.053,6.983,5.473,5.473,0,0,1-.954,3.173l0,.006c-1.253,1.756-3.449,2.554-5.93,2.552a17.709,17.709,0,0,1-9.476-3.185" transform="translate(61.974 14.255)"/><path class="a" d="M-740.17,107.485A23.744,23.744,0,0,0-750.217,110c-6.711,3.222-11.074,8.668-11.029,12.7a5.106,5.106,0,0,0,.44,2.121c1.025,2.3,3.849,3.615,7.665,3.618a23.588,23.588,0,0,0,9.866-2.432,15.272,15.272,0,0,1-2.787.268c-3.177,0-5.907-1.133-7.038-3.544l0,0a5.449,5.449,0,0,1-.483-2.276c.034-3.865,3.518-8.14,8.725-10.739a18.314,18.314,0,0,1,7.3-2,13.794,13.794,0,0,0-2.6-.229Z" transform="translate(50.604 11.902)"/><path class="a" d="M-742.256,139.181a14.7,14.7,0,0,0,3.644.426,24.375,24.375,0,0,0,9.154-1.959c7.091-2.9,11.813-8.3,11.762-12.385a5.042,5.042,0,0,0-.319-1.8c-.956-2.562-4.155-4.091-8.482-4.093a24.185,24.185,0,0,0-9,1.9,15.611,15.611,0,0,1,2.034-.132c3.532-.008,6.543,1.287,7.613,3.969a5.369,5.369,0,0,1,.37,1.979c-.045,3.959-3.843,8.173-9.338,10.532a18.536,18.536,0,0,1-7.2,1.567c-.081,0-.162,0-.242,0" transform="translate(70.165 24.144)"/><path class="a" d="M-748.086,141.5c-.022,7.44,3.13,13.258,7.068,13.739a4.5,4.5,0,0,0,.656.049c4.206.091,8.739-5.96,9.7-14.269-1.541,3.9-4.22,6.559-7.353,6.618a5.471,5.471,0,0,1-.656-.043h0c-4.18-.625-6.726-5.788-6.738-11.809,0-.684.03-1.385.1-2.091a18.44,18.44,0,0,1,2.229-7.28c-2.363,2.54-4.269,6.833-4.823,11.945a27.265,27.265,0,0,0-.179,3.14" transform="translate(64.159 31.395)"/><path class="a" d="M-727.865,132.531c-1.021-3.315-3.8-7.1-7.921-10.126-4.19-3.1-8.788-4.708-12.387-4.708h-.018c-2.527,0-4.507.771-5.648,2.247a5.37,5.37,0,0,0-1.078,3.376c-.024,3.735,3,8.8,8.185,12.665a11.465,11.465,0,0,1-2.757-6.784,5.474,5.474,0,0,1,1.088-3.4,6.771,6.771,0,0,1,5.589-2.353,17.479,17.479,0,0,1,9.761,3.528,18.411,18.411,0,0,1,5.187,5.556" transform="translate(57.122 22.421)"/><path class="a" d="M-741.132,153.253a17.646,17.646,0,0,1-9.663-3.38,18.362,18.362,0,0,1-5.266-5.467c1.064,3.3,3.9,7.038,8.079,10s8.729,4.509,12.308,4.5c2.615,0,4.653-.8,5.786-2.32a5.337,5.337,0,0,0,1.025-3.285c.024-3.754-3.1-8.853-8.421-12.674a11.433,11.433,0,0,1,2.887,6.892,5.511,5.511,0,0,1-1.021,3.293v0a6.806,6.806,0,0,1-5.714,2.434" transform="translate(55.945 46.045)"/><path class="a" d="M-746.179,138.069a23.652,23.652,0,0,0-10,2.5c-6.73,3.2-11.117,8.64-11.074,12.686a5.078,5.078,0,0,0,.434,2.1c1.023,2.318,3.871,3.64,7.714,3.642a23.56,23.56,0,0,0,9.831-2.408,15.426,15.426,0,0,1-2.755.26c-3.191,0-5.93-1.143-7.063-3.553v0a5.356,5.356,0,0,1-.483-2.27c.035-3.877,3.542-8.145,8.744-10.741a18.383,18.383,0,0,1,7.343-1.967,14.1,14.1,0,0,0-2.684-.246Z" transform="translate(44.419 43.405)"/><path class="a" d="M-741.19,141.193c.026-7.911-3.459-14.145-7.588-14.46a4.428,4.428,0,0,0-.487-.026c-4.269-.1-8.678,6.177-9.33,14.641,1.417-4.048,4.07-6.849,7.294-6.912.156,0,.317.006.485.02,4.363.485,7.162,5.934,7.182,12.3,0,.441-.014.881-.039,1.334a18.419,18.419,0,0,1-1.945,7.326c2.251-2.633,3.983-6.985,4.348-12.087.055-.721.079-1.433.079-2.132" transform="translate(53.334 31.7)"/><path class="a" d="M-776.367,150.732c-.028,8.116,3.583,14.543,7.785,14.831.144.014.288.022.432.022,4.289.1,8.632-6.224,9.206-14.732-1.378,4.068-4.015,6.906-7.251,6.969-.138,0-.274,0-.412-.014-4.448-.426-7.326-5.966-7.347-12.452,0-.363.008-.733.028-1.1a18.462,18.462,0,0,1,1.876-7.389c-2.249,2.641-3.959,7.036-4.269,12.184-.03.566-.049,1.129-.049,1.683" transform="translate(35.029 42.164)"/><path class="a" d="M-756.31,141.855c-1.242-3.236-4.267-6.823-8.6-9.551a22.92,22.92,0,0,0-11.8-3.883c-2.939,0-5.207.922-6.364,2.645a5.208,5.208,0,0,0-.869,2.986c-.026,3.79,3.392,8.92,9.095,12.568a11.078,11.078,0,0,1-3.277-7.079,5.378,5.378,0,0,1,.869-3.011c1.253-1.884,3.569-2.741,6.2-2.741a17.96,17.96,0,0,1,9.2,2.893,18.5,18.5,0,0,1,5.542,5.173" transform="translate(27.225 33.466)"/><path class="a" d="M-758.244,147.375c6.516-3.378,10.672-8.831,10.631-12.852a5.225,5.225,0,0,0-.5-2.29c-1.054-2.176-3.711-3.386-7.28-3.394a23.134,23.134,0,0,0-10.27,2.751,15.143,15.143,0,0,1,3.169-.355c3,0,5.591,1.062,6.742,3.337a5.43,5.43,0,0,1,.562,2.456c-.034,3.808-3.349,8.09-8.38,10.808a18.455,18.455,0,0,1-7.251,2.221,13.141,13.141,0,0,0,2.126.158,23.168,23.168,0,0,0,10.453-2.84" transform="translate(40.74 33.897)"/><path class="a" d="M-769.371,117.784h-.01a23.819,23.819,0,0,0-9.754,2.333c-6.853,3.124-11.322,8.534-11.275,12.586a5.065,5.065,0,0,0,.4,2.032c1,2.383,3.932,3.762,7.909,3.764a23.8,23.8,0,0,0,9.592-2.249,15.586,15.586,0,0,1-2.519.215c-3.293,0-6.119-1.181-7.229-3.672a5.384,5.384,0,0,1-.455-2.2c.041-3.9,3.642-8.134,8.93-10.676a18.35,18.35,0,0,1,7.355-1.841,14.094,14.094,0,0,0-2.946-.292" transform="translate(20.563 22.51)"/><path class="a" d="M-764.1,120.952c.025-7.962-3.459-14.237-7.613-14.576-.156-.014-.315-.024-.469-.024-4.3-.1-8.7,6.188-9.336,14.691,1.417-4.066,4.074-6.886,7.294-6.951.15,0,.3.008.463.018v0c4.373.483,7.184,5.938,7.2,12.3,0,.438-.01.883-.039,1.326a18.632,18.632,0,0,1-1.92,7.33c2.251-2.623,3.983-6.973,4.34-12.073.051-.692.075-1.372.075-2.044" transform="translate(29.726 10.733)"/><path class="a" d="M-764.232,132.738a17.818,17.818,0,0,1-9.474-3.165,18.324,18.324,0,0,1-5.386-5.315c1.147,3.268,4.074,6.939,8.313,9.8a22.64,22.64,0,0,0,12.075,4.206c2.765,0,4.911-.855,6.074-2.479a5.215,5.215,0,0,0,.946-3.13c.025-3.772-3.25-8.92-8.755-12.678a11.269,11.269,0,0,1,3.094,7,5.431,5.431,0,0,1-.96,3.183c-1.246,1.77-3.443,2.574-5.926,2.572" transform="translate(32.222 24.771)"/><path class="a" d="M-810.374,188.121a6.438,6.438,0,0,0,2.8.8,1.689,1.689,0,0,0,1.864-1.616c0-2.416-4.61-2.387-4.61-5.217a2.766,2.766,0,0,1,2.994-2.651,6.75,6.75,0,0,1,2.335.4v1.226a6.526,6.526,0,0,0-2.363-.635,1.578,1.578,0,0,0-1.726,1.423c0,2.044,4.7,2.209,4.7,5.221,0,.964-.7,2.84-3.4,2.84a8.79,8.79,0,0,1-2.6-.453Z" transform="translate(0 86.015)"/><path class="a" d="M-804.8,179.559h5.5v1h-4.17v3.283h3.506v1h-3.506v3.713h4.46v.995H-804.8Z" transform="translate(5.742 86.141)"/><path class="a" d="M-799.51,179.559h1.878l2.789,7.856h.028l2.871-7.856h1.671v9.984h-1.242v-8.23h-.026l-2.763,7.566h-1.324l-2.694-7.566h-.026v8.23h-1.161Z" transform="translate(11.19 86.141)"/><path class="a" d="M-792.055,179.559h5.5v1h-4.17v3.283h3.506v1h-3.506v3.713h4.46v.995h-5.786Z" transform="translate(18.869 86.141)"/><path class="a" d="M-781.061,185.718l-1.809-4.557-1.794,4.557Zm-2.334-6.159h1.326l3.948,9.984h-1.421l-1.133-2.832h-4.389l-1.121,2.832h-1.159Z" transform="translate(23.722 86.141)"/><path class="a" d="M-780.469,179.559h1.34l5.053,7.885h.028v-7.885h1.159v9.984h-1.326l-5.067-7.887h-.028v7.887h-1.159Z" transform="translate(30.804 86.141)"/><path class="a" d="M-772.5,188.548h2.251c1.395,0,3.285-.8,3.285-4.1,0-3.658-2.663-3.89-3.7-3.89H-772.5Zm-1.326-8.989h3.646c3.009,0,4.624,1.809,4.624,4.762,0,2.706-1.45,5.221-4.639,5.221h-3.632Z" transform="translate(37.647 86.141)"/><path class="a" d="M-759.582,184.684c0-2.073-.788-4.253-3.2-4.253-2.432,0-3.218,2.18-3.218,4.253,0,2.056.786,4.237,3.218,4.237,2.416,0,3.2-2.18,3.2-4.237m-7.83,0c0-2.872,1.547-5.248,4.627-5.248s4.61,2.375,4.61,5.248c0,2.856-1.533,5.231-4.61,5.231-3.094,0-4.627-2.375-4.627-5.231" transform="translate(44.253 86.015)"/><path class="a" d="M-748.949,184.684c0-2.073-.79-4.253-3.205-4.253s-3.216,2.18-3.216,4.253c0,2.056.786,4.237,3.216,4.237s3.205-2.18,3.205-4.237m-7.83,0c0-2.872,1.545-5.248,4.624-5.248s4.612,2.375,4.612,5.248c0,2.856-1.535,5.231-4.612,5.231s-4.624-2.375-4.624-5.231" transform="translate(55.205 86.015)"/><path class="a" d="M-745.861,179.559h5.5v1h-4.17v3.408h3.508v.993h-3.508v4.586h-1.326Z" transform="translate(66.452 86.141)"/><path class="a" d="M-739.332,179.559v6.171c0,1.726.317,3.065,2.373,3.065s2.211-1.38,2.211-3.037v-6.2h1.159v6.669c0,2.154-.966,3.561-3.425,3.561-2.511,0-3.646-1.324-3.646-3.561v-6.669Z" transform="translate(71.808 86.141)"/><path class="a" d="M-731.345,180.555h-3.534v-1h8.394v1h-3.534v8.987h-1.326Z" transform="translate(77.763 86.141)"/><path class="a" d="M-727.121,179.559v6.171c0,1.726.319,3.065,2.375,3.065s2.213-1.38,2.213-3.037v-6.2h1.155v6.669c0,2.154-.964,3.561-3.425,3.561-2.511,0-3.644-1.324-3.644-3.561v-6.669Z" transform="translate(84.389 86.141)"/><path class="a" d="M-720.77,184.254a3.942,3.942,0,0,0,.566.053c1.671,0,2.625-.731,2.625-2.194,0-.964-.79-1.557-1.88-1.557h-1.312Zm-1.326-4.7h3.232a2.492,2.492,0,0,1,2.692,2.513,3.106,3.106,0,0,1-2.042,2.8l3.327,4.667h-1.642l-2.887-4.241h-1.354v4.241H-722.1Z" transform="translate(90.93 86.141)"/><path class="a" d="M-708.641,184.684c0-2.073-.79-4.253-3.205-4.253s-3.216,2.18-3.216,4.253c0,2.056.788,4.237,3.216,4.237s3.205-2.18,3.205-4.237m-7.832,0c0-2.872,1.549-5.248,4.627-5.248s4.612,2.375,4.612,5.248c0,2.856-1.533,5.231-4.612,5.231s-4.627-2.375-4.627-5.231" transform="translate(96.722 86.015)"/></g></svg>