<svg xmlns="http://www.w3.org/2000/svg" width="154" height="20.674" viewBox="0 0 154 20.674">
  <g id="Group_6417" data-name="Group 6417" transform="translate(-143.239 -470.23)">
    <path id="Path_2806" data-name="Path 2806" d="M146.178,472.638h4.768v.588a1.453,1.453,0,0,0-.937.381,1.288,1.288,0,0,0-.348.969V485.2a3.044,3.044,0,0,1-1.023,2.362,3.87,3.87,0,0,1-2.7.925,6.183,6.183,0,0,1-1.459-.185,4.562,4.562,0,0,1-1.241-.468v-2.743h.871a3.756,3.756,0,0,0,.686,1.851,1.556,1.556,0,0,0,1.252.631,1.416,1.416,0,0,0,1.1-.468,1.73,1.73,0,0,0,.424-1.208V474.641a1.332,1.332,0,0,0-.392-1.034,1.509,1.509,0,0,0-1-.381Z" transform="translate(0 -1.71)" fill="#191936"/>
    <path id="Path_2807" data-name="Path 2807" d="M171.411,520.853a1.079,1.079,0,0,1-.271.7.925.925,0,0,1-.755.329,1.011,1.011,0,0,1-.745-.3.986.986,0,0,1-.3-.726,1.038,1.038,0,0,1,.29-.735.964.964,0,0,1,.735-.31.981.981,0,0,1,.764.31,1.06,1.06,0,0,1,.28.735" transform="translate(-18.547 -35.228)" fill="#191936"/>
    <path id="Path_2808" data-name="Path 2808" d="M189.481,487.954a8.448,8.448,0,0,1-2.536-.392,7.27,7.27,0,0,1-2.254-1.154v-3.484h.784a5.67,5.67,0,0,0,1.557,2.972,3.851,3.851,0,0,0,2.711,1.012,3.036,3.036,0,0,0,2.156-.751,2.952,2.952,0,0,0,.261-3.734,4.8,4.8,0,0,0-1.829-1.2l-1.938-.806a6.692,6.692,0,0,1-2.656-1.818,3.911,3.911,0,0,1-.914-2.58,3.8,3.8,0,0,1,1.306-2.983,4.941,4.941,0,0,1,3.4-1.154,7.978,7.978,0,0,1,2.134.283,8.451,8.451,0,0,1,2.025.871v3h-.762a4.458,4.458,0,0,0-1.2-2.341,2.945,2.945,0,0,0-2.09-.794,2.828,2.828,0,0,0-2,.707,2.448,2.448,0,0,0-.762,1.883,2.346,2.346,0,0,0,.49,1.535,4.2,4.2,0,0,0,1.557,1.078l2.156.936A6.6,6.6,0,0,1,193.6,480.8a3.812,3.812,0,0,1,.827,2.493,4.393,4.393,0,0,1-1.393,3.353,4.984,4.984,0,0,1-3.549,1.306" transform="translate(-29.454 -1.176)" fill="#191936"/>
    <path id="Path_2809" data-name="Path 2809" d="M226.362,500.355a3.288,3.288,0,0,1-2.286-.784,2.6,2.6,0,0,1-.871-2.025,2.678,2.678,0,0,1,.707-1.894,4.778,4.778,0,0,1,2.21-1.2l3.57-1.089v-1.2a1.876,1.876,0,0,0-.523-1.4,2,2,0,0,0-1.458-.511,2.768,2.768,0,0,0-1.905.61,3.015,3.015,0,0,0-.925,1.546h-1v-2.134a8.106,8.106,0,0,1,1.851-.664,8.422,8.422,0,0,1,1.981-.272,4.663,4.663,0,0,1,2.918.838,2.721,2.721,0,0,1,1.089,2.275v5.9a1.169,1.169,0,0,0,.315.849,1.314,1.314,0,0,0,.882.37v.588H229.8l-.065-1.72a3.279,3.279,0,0,1-1.285,1.328,3.852,3.852,0,0,1-2.09.588m.653-1.328a2.661,2.661,0,0,0,1.916-.729,2.464,2.464,0,0,0,.762-1.862v-2.068l-2.482.784a3.007,3.007,0,0,0-1.4.805,1.946,1.946,0,0,0-.468,1.35,1.7,1.7,0,0,0,.468,1.241,1.615,1.615,0,0,0,1.208.479" transform="translate(-56.821 -13.577)" fill="#191936"/>
    <path id="Path_2810" data-name="Path 2810" d="M264.79,486.582h-5.269v-.588a2.368,2.368,0,0,0,1.154-.414,1.171,1.171,0,0,0,.435-1V476.85h-2.025v-.871h2.025v-2.46a3,3,0,0,1,1.034-2.395,4.035,4.035,0,0,1,2.733-.893,6.411,6.411,0,0,1,1.4.164,5.715,5.715,0,0,1,1.187.381v2.308h-.806a3.906,3.906,0,0,0-.686-1.426,1.41,1.41,0,0,0-1.143-.511,1.5,1.5,0,0,0-1.186.511,2,2,0,0,0-.446,1.361v2.961h2.286v.871H263.2v7.729a1.158,1.158,0,0,0,.446,1,2.4,2.4,0,0,0,1.143.414Z" transform="translate(-82.317)" fill="#191936"/>
    <path id="Path_2811" data-name="Path 2811" d="M289.981,500.373h-5.095v-.588a2.232,2.232,0,0,0,1.089-.4,1.141,1.141,0,0,0,.414-.969v-6.706a1.218,1.218,0,0,0-.359-.98,1.694,1.694,0,0,0-.925-.37v-.588h3.353l-.044,1.676a2.683,2.683,0,0,1,1.034-1.339,2.8,2.8,0,0,1,1.579-.468,2.38,2.38,0,0,1,.969.2,1.654,1.654,0,0,1,.664.479v2.308h-.98a1.861,1.861,0,0,0-.5-1.241,1.421,1.421,0,0,0-.98-.37,1.484,1.484,0,0,0-1.273.61,2.473,2.473,0,0,0-.446,1.5v5.291a1.14,1.14,0,0,0,.414.969,2.23,2.23,0,0,0,1.089.4Z" transform="translate(-100.649 -13.791)" fill="#191936"/>
    <path id="Path_2812" data-name="Path 2812" d="M317.529,500.355a3.288,3.288,0,0,1-2.286-.784,2.6,2.6,0,0,1-.871-2.025,2.678,2.678,0,0,1,.707-1.894,4.776,4.776,0,0,1,2.21-1.2l3.57-1.089v-1.2a1.876,1.876,0,0,0-.523-1.4,2,2,0,0,0-1.459-.511,2.769,2.769,0,0,0-1.905.61,3.017,3.017,0,0,0-.925,1.546h-1v-2.134a8.105,8.105,0,0,1,1.851-.664,8.421,8.421,0,0,1,1.981-.272,4.663,4.663,0,0,1,2.918.838,2.72,2.72,0,0,1,1.089,2.275v5.9a1.17,1.17,0,0,0,.315.849,1.314,1.314,0,0,0,.882.37v.588h-3.113l-.065-1.72a3.278,3.278,0,0,1-1.285,1.328,3.85,3.85,0,0,1-2.09.588m.653-1.328a2.661,2.661,0,0,0,1.916-.729,2.465,2.465,0,0,0,.762-1.862v-2.068l-2.482.784a3.008,3.008,0,0,0-1.4.805,1.948,1.948,0,0,0-.468,1.35,1.7,1.7,0,0,0,.468,1.241,1.616,1.616,0,0,0,1.209.479" transform="translate(-121.601 -13.577)" fill="#191936"/>
    <path id="Path_2813" data-name="Path 2813" d="M370.514,491.326l1.041-.078,5.031-13.234h1.1l4.982,13.234,1.061.078v.856h-3.493v-.856l1.236-.1-1.168-3.172h-6.364l-1.177,3.172,1.236.1v.856h-3.484Zm3.814-4.311h5.6l-2.754-7.493h-.058Z" transform="translate(-161.493 -5.53)" fill="#191936"/>
    <path id="Path_2814" data-name="Path 2814" d="M426.347,499.86a3.322,3.322,0,0,0,2.043-.662,2.167,2.167,0,0,0,.885-1.839h1.032l.019.058a2.892,2.892,0,0,1-1.163,2.442,4.34,4.34,0,0,1-2.817.983,4,4,0,0,1-3.318-1.474,5.884,5.884,0,0,1-1.177-3.79v-.409a5.875,5.875,0,0,1,1.177-3.776,3.988,3.988,0,0,1,3.308-1.479,5.349,5.349,0,0,1,2.228.457,4.377,4.377,0,0,1,1.645,1.246l.049,2.3h-.992l-.185-1.868a3.325,3.325,0,0,0-1.163-.832,3.881,3.881,0,0,0-1.581-.307,2.806,2.806,0,0,0-2.505,1.211,5.362,5.362,0,0,0-.813,3.051v.409a5.416,5.416,0,0,0,.808,3.075,2.817,2.817,0,0,0,2.52,1.207" transform="translate(-197.971 -13.987)" fill="#191936"/>
    <path id="Path_2815" data-name="Path 2815" d="M466.067,500.638q-.117-.535-.166-.924a6.35,6.35,0,0,1-.049-.788A4.647,4.647,0,0,1,464.3,500.3a4.4,4.4,0,0,1-2.189.545,3.356,3.356,0,0,1-2.394-.8,2.826,2.826,0,0,1-.846-2.16,2.668,2.668,0,0,1,1.255-2.316,5.963,5.963,0,0,1,3.406-.856h2.326v-1.392a2.243,2.243,0,0,0-.725-1.771,2.955,2.955,0,0,0-2.029-.642,5.1,5.1,0,0,0-1.6.238,3.623,3.623,0,0,0-1.211.647l-.1,1.411h-.964l.01-2.024a6.051,6.051,0,0,1,1.747-.915,6.6,6.6,0,0,1,2.165-.351,4.231,4.231,0,0,1,2.8.886,3.122,3.122,0,0,1,1.061,2.54v5.177q0,.321.014.618a4.815,4.815,0,0,0,.063.579l1.051.068v.856Zm-3.834-.827a4.215,4.215,0,0,0,2.228-.584,3.449,3.449,0,0,0,1.391-1.508v-2.111h-2.345a4.377,4.377,0,0,0-2.535.657,1.956,1.956,0,0,0-.949,1.659,1.737,1.737,0,0,0,.589,1.367,2.36,2.36,0,0,0,1.62.521" transform="translate(-224.273 -13.987)" fill="#191936"/>
    <path id="Path_2816" data-name="Path 2816" d="M503.937,488.18a3.636,3.636,0,0,1-1.352,1.275,4.031,4.031,0,0,1-1.946.448,3.493,3.493,0,0,1-2.953-1.411,6.1,6.1,0,0,1-1.065-3.766v-.2a6.874,6.874,0,0,1,1.065-4.033,3.431,3.431,0,0,1,2.973-1.513,3.613,3.613,0,0,1,3.25,1.781V475.51l-1.586-.126v-.866h2.754v14.2l1.586.126v.856h-2.627Zm-6.14-3.454a5.338,5.338,0,0,0,.764,3.036,2.592,2.592,0,0,0,2.3,1.129,3.29,3.29,0,0,0,1.873-.506,3.365,3.365,0,0,0,1.172-1.392V482.01a3.628,3.628,0,0,0-1.124-1.46,3.036,3.036,0,0,0-1.9-.564,2.537,2.537,0,0,0-2.311,1.26,6.189,6.189,0,0,0-.773,3.274Z" transform="translate(-251.099 -3.046)" fill="#191936"/>
    <path id="Path_2817" data-name="Path 2817" d="M542.261,500.842a4.227,4.227,0,0,1-3.289-1.455,5.337,5.337,0,0,1-1.3-3.7v-.535a5.494,5.494,0,0,1,1.3-3.746,4.021,4.021,0,0,1,3.138-1.489,3.9,3.9,0,0,1,3.045,1.226,4.686,4.686,0,0,1,1.109,3.269v.992h-7.434v.282a4.649,4.649,0,0,0,.949,2.973,3.016,3.016,0,0,0,2.486,1.2,5.062,5.062,0,0,0,1.849-.3,3.654,3.654,0,0,0,1.314-.866l.5.8a4.208,4.208,0,0,1-1.5.988,5.763,5.763,0,0,1-2.16.365m-.156-9.935a2.79,2.79,0,0,0-2.165.988,4.231,4.231,0,0,0-1.027,2.476l.019.049H545.1v-.292a3.366,3.366,0,0,0-.808-2.3,2.759,2.759,0,0,0-2.189-.924" transform="translate(-280.267 -13.987)" fill="#191936"/>
    <path id="Path_2818" data-name="Path 2818" d="M573.675,490.976v-.866h2.617l.107,1.742a3.69,3.69,0,0,1,1.353-1.43,3.856,3.856,0,0,1,2.014-.506,3.329,3.329,0,0,1,2.014.589,3.249,3.249,0,0,1,1.158,1.8,4.1,4.1,0,0,1,1.357-1.747,3.563,3.563,0,0,1,2.146-.637,3.18,3.18,0,0,1,2.6,1.119,5.4,5.4,0,0,1,.919,3.464v5.147l1.586.136v.856H587.2v-.856l1.586-.136v-5.167a4.266,4.266,0,0,0-.686-2.749,2.38,2.38,0,0,0-1.912-.8,2.6,2.6,0,0,0-2.1.866,4.16,4.16,0,0,0-.91,2.209c0,.052,0,.1,0,.146s0,.1,0,.175v5.332l1.586.126v.856h-4.34v-.856l1.586-.126v-5.177a4.232,4.232,0,0,0-.7-2.729,2.371,2.371,0,0,0-1.912-.822,2.909,2.909,0,0,0-1.971.628,3.34,3.34,0,0,0-1.017,1.688v6.412l1.586.126v.856h-4.34v-.856l1.586-.126V491.1Z" transform="translate(-305.852 -13.987)" fill="#191936"/>
    <path id="Path_2819" data-name="Path 2819" d="M649.291,491.454l-1.07.087L643.968,502.8a6.01,6.01,0,0,1-1.06,1.82,2.392,2.392,0,0,1-1.907.749,3.427,3.427,0,0,1-.5-.044,2.475,2.475,0,0,1-.428-.093l.136-.973q.117.019.375.044t.365.024a1.5,1.5,0,0,0,1.216-.535,5.108,5.108,0,0,0,.788-1.392l.545-1.411-3.737-9.449-1.07-.087v-.866h3.62v.866l-1.255.1,2.569,6.714.37,1.265h.059l2.88-7.979-1.284-.1v-.866h3.639Z" transform="translate(-352.052 -14.465)" fill="#191936"/>
  </g>
</svg>
