<?xml version="1.0" encoding="utf-8"?>
<!-- Generator: Adobe Illustrator 24.3.0, SVG Export Plug-In . SVG Version: 6.00 Build 0)  -->
<svg version="1.1" id="Camada_1" xmlns="http://www.w3.org/2000/svg" xmlns:xlink="http://www.w3.org/1999/xlink" x="0px" y="0px"
	 viewBox="0 0 680 160" style="enable-background:new 0 0 680 160;" xml:space="preserve">
<style type="text/css">
	.st0{fill:#01003F;}
	.st1{fill:#7BA2A5;}
</style>
<g>
	<g>
		<path class="st0" d="M181.55,46.25v3.92l-5.03,0.86v27.71c0,4.01-1.27,7.2-3.81,9.55c-2.54,2.36-5.84,3.53-9.89,3.53
			c-4.32,0-7.76-1.1-10.31-3.29c-2.55-2.19-3.78-5.37-3.67-9.55l0.06-0.19h5.83c0,2.78,0.7,4.85,2.11,6.22
			c1.41,1.37,3.4,2.05,5.97,2.05c2.24,0,4.07-0.76,5.49-2.27c1.42-1.51,2.13-3.53,2.13-6.06V51.04l-5.03-0.86v-3.92h11.11H181.55z"
			/>
		<path class="st0" d="M192.67,91.19h-6.08v-6.23h6.08V91.19z"/>
		<path class="st0" d="M243.66,59.52h-4.6l-1.14-6.42c-0.93-0.78-2.16-1.43-3.7-1.94c-1.54-0.51-3.33-0.77-5.37-0.77
			c-3.23,0-5.71,0.68-7.44,2.05c-1.73,1.37-2.59,3.15-2.59,5.35c0,1.96,0.88,3.59,2.64,4.89c1.76,1.31,4.6,2.45,8.53,3.44
			c4.73,1.17,8.33,2.9,10.79,5.18c2.46,2.28,3.69,5.11,3.69,8.49c0,3.62-1.48,6.53-4.43,8.73c-2.95,2.2-6.82,3.3-11.59,3.3
			c-3.46,0-6.53-0.57-9.21-1.7c-2.69-1.13-4.87-2.61-6.56-4.44v-8.36h4.57l1.17,6.45c1.17,0.97,2.57,1.76,4.2,2.38
			c1.62,0.62,3.57,0.93,5.83,0.93c3.07,0,5.49-0.65,7.27-1.94c1.78-1.3,2.67-3.06,2.67-5.28c0-2.06-0.77-3.78-2.32-5.17
			c-1.54-1.39-4.27-2.56-8.18-3.5c-4.75-1.13-8.47-2.8-11.14-5c-2.67-2.2-4.01-4.97-4.01-8.3c0-3.52,1.49-6.45,4.48-8.78
			c2.98-2.34,6.86-3.5,11.64-3.5c3.15,0,6.01,0.54,8.6,1.62c2.58,1.08,4.65,2.39,6.22,3.94V59.52z"/>
		<path class="st0" d="M270.69,91.19c-0.19-0.91-0.33-1.72-0.43-2.44c-0.1-0.72-0.17-1.44-0.22-2.16c-1.17,1.5-2.64,2.75-4.4,3.75
			c-1.76,1-3.64,1.5-5.63,1.5c-3.48,0-6.12-0.85-7.93-2.55s-2.72-4.09-2.72-7.18c0-3.17,1.28-5.61,3.84-7.33
			c2.56-1.72,6.07-2.58,10.54-2.58h6.27v-3.89c0-1.95-0.62-3.5-1.85-4.64c-1.23-1.14-2.95-1.71-5.15-1.71
			c-1.52,0-2.86,0.2-4.03,0.59c-1.16,0.39-2.1,0.93-2.82,1.6l-0.65,3.52h-4.69v-6.48c1.52-1.21,3.36-2.19,5.52-2.92
			c2.16-0.73,4.51-1.1,7.04-1.1c3.79,0,6.85,0.97,9.2,2.9c2.35,1.93,3.52,4.7,3.52,8.3v16.08c0,0.43,0.01,0.85,0.02,1.27
			c0.01,0.41,0.04,0.82,0.08,1.23l2.47,0.34v3.89H270.69z M260.91,86.74c2.02,0,3.86-0.48,5.52-1.45c1.67-0.97,2.86-2.13,3.58-3.49
			v-5.49h-6.48c-2.49,0-4.46,0.58-5.91,1.73c-1.45,1.15-2.18,2.55-2.18,4.2c0,1.46,0.45,2.58,1.36,3.35
			C257.71,86.36,259.08,86.74,260.91,86.74z"/>
		<path class="st0" d="M281.87,62.3V57.8h5.22v-4.23c0-3.56,0.93-6.31,2.79-8.26c1.86-1.94,4.46-2.92,7.79-2.92
			c0.7,0,1.4,0.06,2.11,0.17c0.71,0.11,1.5,0.27,2.36,0.48l-0.74,4.63c-0.37-0.08-0.82-0.15-1.34-0.22
			c-0.52-0.06-1.06-0.09-1.62-0.09c-1.79,0-3.12,0.53-3.98,1.59c-0.86,1.06-1.3,2.6-1.3,4.61v4.23h6.97v4.51h-6.97v24.13l5.03,0.86
			v3.89h-16.14V87.3l5.03-0.86V62.3H281.87z"/>
		<path class="st0" d="M303.66,61.71V57.8h10.46l0.59,4.85c0.95-1.71,2.11-3.04,3.5-4.01c1.39-0.97,2.98-1.45,4.77-1.45
			c0.47,0,0.96,0.04,1.47,0.11c0.5,0.07,0.89,0.15,1.16,0.23l-0.8,5.65l-3.46-0.19c-1.6,0-2.95,0.38-4.04,1.13
			c-1.09,0.75-1.93,1.81-2.53,3.16v19.17l5.03,0.86v3.89h-16.14V87.3l5.03-0.86V62.58L303.66,61.71z"/>
		<path class="st0" d="M350.32,91.19c-0.19-0.91-0.33-1.72-0.43-2.44c-0.1-0.72-0.17-1.44-0.22-2.16c-1.17,1.5-2.64,2.75-4.4,3.75
			c-1.76,1-3.64,1.5-5.63,1.5c-3.48,0-6.12-0.85-7.93-2.55S329,85.2,329,82.11c0-3.17,1.28-5.61,3.84-7.33
			c2.56-1.72,6.07-2.58,10.54-2.58h6.27v-3.89c0-1.95-0.62-3.5-1.85-4.64c-1.23-1.14-2.95-1.71-5.15-1.71
			c-1.52,0-2.86,0.2-4.03,0.59c-1.16,0.39-2.1,0.93-2.82,1.6l-0.65,3.52h-4.69v-6.48c1.52-1.21,3.36-2.19,5.52-2.92
			s4.51-1.1,7.04-1.1c3.79,0,6.85,0.97,9.2,2.9c2.35,1.93,3.52,4.7,3.52,8.3v16.08c0,0.43,0.01,0.85,0.02,1.27
			c0.01,0.41,0.04,0.82,0.08,1.23l2.47,0.34v3.89H350.32z M340.54,86.74c2.02,0,3.86-0.48,5.52-1.45c1.67-0.97,2.86-2.13,3.58-3.49
			v-5.49h-6.48c-2.49,0-4.46,0.58-5.91,1.73c-1.45,1.15-2.18,2.55-2.18,4.2c0,1.46,0.45,2.58,1.36,3.35S338.71,86.74,340.54,86.74z"
			/>
		<path class="st1" d="M373.61,88.47l3.3-0.25l15.96-41.97h3.49l15.8,41.97l3.36,0.25v2.72h-11.08v-2.72l3.92-0.31l-3.7-10.06
			h-20.18l-3.73,10.06l3.92,0.31v2.72h-11.05V88.47z M385.7,74.8h17.75l-8.73-23.76h-0.18L385.7,74.8z"/>
		<path class="st1" d="M433.73,88.72c2.45,0,4.61-0.7,6.48-2.1c1.87-1.4,2.81-3.34,2.81-5.83h3.27l0.06,0.19
			c0.1,3.09-1.13,5.67-3.69,7.75c-2.56,2.08-5.54,3.12-8.93,3.12c-4.53,0-8.04-1.56-10.52-4.68c-2.49-3.12-3.73-7.12-3.73-12.02
			v-1.3c0-4.86,1.24-8.85,3.73-11.97c2.49-3.13,5.99-4.69,10.49-4.69c2.57,0,4.93,0.48,7.07,1.45c2.14,0.97,3.88,2.28,5.22,3.95
			l0.15,7.28h-3.15l-0.59-5.93c-0.99-1.11-2.22-1.99-3.69-2.64c-1.47-0.65-3.14-0.97-5.01-0.97c-3.58,0-6.23,1.28-7.95,3.84
			c-1.72,2.56-2.58,5.79-2.58,9.68v1.3c0,3.95,0.85,7.2,2.56,9.75C427.44,87.44,430.11,88.72,433.73,88.72z"/>
		<path class="st1" d="M475.02,91.19c-0.25-1.13-0.42-2.11-0.52-2.93c-0.1-0.82-0.15-1.66-0.15-2.5c-1.23,1.75-2.88,3.2-4.94,4.35
			c-2.06,1.15-4.37,1.73-6.94,1.73c-3.27,0-5.8-0.84-7.59-2.53c-1.79-1.69-2.69-3.97-2.69-6.85c0-3.09,1.33-5.53,3.98-7.34
			c2.65-1.81,6.25-2.72,10.8-2.72h7.38v-4.41c0-2.39-0.77-4.26-2.3-5.62c-1.53-1.36-3.68-2.04-6.44-2.04
			c-1.85,0-3.54,0.25-5.08,0.76c-1.53,0.5-2.81,1.19-3.84,2.05l-0.31,4.48h-3.06l0.03-6.42c1.54-1.19,3.39-2.16,5.54-2.9
			c2.15-0.74,4.44-1.11,6.87-1.11c3.68,0,6.65,0.94,8.89,2.81c2.24,1.87,3.36,4.56,3.36,8.06v16.42c0,0.68,0.02,1.33,0.05,1.96
			c0.03,0.63,0.1,1.24,0.2,1.84l3.33,0.22v2.72H475.02z M462.86,88.57c2.67,0,5.03-0.62,7.07-1.85c2.04-1.23,3.51-2.83,4.41-4.78
			v-6.7h-7.44c-3.35,0-6.03,0.69-8.04,2.08c-2.01,1.39-3.01,3.14-3.01,5.26c0,1.79,0.62,3.24,1.87,4.34
			C458.97,88.01,460.68,88.57,462.86,88.57z"/>
		<path class="st1" d="M508.79,86.37c-1.11,1.75-2.54,3.1-4.29,4.04c-1.75,0.95-3.81,1.42-6.17,1.42c-3.99,0-7.11-1.49-9.37-4.48
			c-2.25-2.98-3.38-6.96-3.38-11.94v-0.65c0-5.33,1.13-9.59,3.38-12.79c2.25-3.2,5.4-4.8,9.43-4.8c2.32,0,4.34,0.49,6.05,1.47
			c1.71,0.98,3.13,2.37,4.26,4.18V46.19l-5.03-0.4v-2.75h5.03h3.7v45.03l5.03,0.4v2.72h-8.33L508.79,86.37z M489.31,75.42
			c0,4.03,0.81,7.24,2.42,9.63c1.62,2.39,4.05,3.58,7.3,3.58c2.37,0,4.35-0.53,5.94-1.6c1.59-1.07,2.83-2.54,3.72-4.41v-15.8
			c-0.82-1.89-2.01-3.44-3.57-4.63c-1.55-1.19-3.56-1.79-6.03-1.79c-3.25,0-5.69,1.33-7.33,4c-1.64,2.66-2.45,6.13-2.45,10.39V75.42
			z"/>
		<path class="st1" d="M536.56,91.84c-4.2,0-7.68-1.54-10.43-4.61c-2.76-3.08-4.14-6.99-4.14-11.74v-1.7
			c0-4.77,1.37-8.73,4.12-11.88c2.75-3.15,6.06-4.72,9.95-4.72c4.09,0,7.31,1.3,9.66,3.89c2.35,2.59,3.52,6.05,3.52,10.37v3.15
			h-23.58v0.9c0,3.75,1,6.89,3.01,9.43c2.01,2.54,4.63,3.81,7.89,3.81c2.28,0,4.24-0.32,5.86-0.96c1.62-0.64,3.01-1.55,4.17-2.75
			l1.57,2.53c-1.26,1.32-2.84,2.36-4.75,3.13C541.5,91.45,539.22,91.84,536.56,91.84z M536.07,60.33c-2.72,0-5,1.04-6.87,3.13
			c-1.86,2.09-2.95,4.71-3.26,7.85l0.06,0.15h19.57v-0.93c0-2.9-0.85-5.33-2.56-7.28C541.31,61.3,538.99,60.33,536.07,60.33z"/>
		<path class="st1" d="M553.79,60.54V57.8h8.3l0.34,5.52c1.07-1.95,2.5-3.47,4.29-4.54s3.92-1.61,6.39-1.61
			c2.55,0,4.68,0.62,6.39,1.87c1.71,1.24,2.93,3.14,3.67,5.69c1.01-2.35,2.44-4.19,4.3-5.54c1.86-1.35,4.13-2.02,6.8-2.02
			c3.56,0,6.31,1.18,8.26,3.55c1.94,2.37,2.92,6.03,2.92,10.99v16.33l5.03,0.43v2.72h-13.79v-2.72l5.03-0.43V71.65
			c0-4.11-0.73-7.02-2.18-8.72c-1.45-1.7-3.47-2.55-6.06-2.55c-2.88,0-5.1,0.92-6.65,2.75c-1.55,1.83-2.52,4.17-2.89,7.01
			c0,0.17,0,0.32,0.02,0.46c0.01,0.14,0.02,0.33,0.02,0.56v16.91l5.03,0.4v2.72h-13.76v-2.72l5.03-0.4V71.65
			c0-4.03-0.74-6.92-2.21-8.66c-1.47-1.74-3.49-2.61-6.06-2.61c-2.63,0-4.72,0.66-6.25,1.99c-1.53,1.33-2.61,3.11-3.22,5.35v20.34
			l5.03,0.4v2.72h-13.76v-2.72l5.03-0.4V60.94L553.79,60.54z"/>
		<path class="st1" d="M645.82,60.54l-3.4,0.28l-13.49,35.71c-0.86,2.26-1.99,4.19-3.36,5.77c-1.38,1.58-3.4,2.38-6.05,2.38
			c-0.43,0-0.96-0.05-1.57-0.14c-0.62-0.09-1.07-0.19-1.36-0.29l0.43-3.09c0.25,0.04,0.64,0.09,1.19,0.14
			c0.54,0.05,0.93,0.08,1.16,0.08c1.62,0,2.91-0.57,3.86-1.7c0.95-1.13,1.78-2.6,2.5-4.41l1.73-4.48L615.6,60.82l-3.4-0.28V57.8
			h11.48v2.75l-3.98,0.31l8.15,21.29l1.17,4.01h0.18l9.14-25.31l-4.07-0.31V57.8h11.54V60.54z"/>
	</g>
	<g>
		<g>
			<path class="st1" d="M46.85,80C46.85,80,46.85,80,46.85,80c0-19.43,14.92-35.43,33.9-37.17v-3.45
				c-9.59,0.8-18.51,4.91-25.39,11.8c-5.69,5.69-9.49,12.77-11.09,20.47L34.18,80L46.85,80z"/>
			<g>
				<path class="st0" d="M121.35,76.56h3.45c-0.8-9.59-4.91-18.51-11.8-25.39c-5.69-5.69-12.77-9.49-20.47-11.09L84.18,30l0,12.67
					C103.61,42.67,119.61,57.58,121.35,76.56z"/>
			</g>
			<g>
				<path class="st0" d="M47.01,83.44h-3.45c0.8,9.59,4.91,18.51,11.8,25.39c5.69,5.69,12.77,9.49,20.47,11.09L84.18,130l0-12.67
					c0,0,0,0,0,0C64.75,117.33,48.75,102.42,47.01,83.44z"/>
			</g>
			<path class="st1" d="M134.18,80l-12.67,0c0,19.43-14.92,35.43-33.9,37.17v3.45c9.59-0.8,18.51-4.91,25.39-11.8
				c5.69-5.69,9.49-12.77,11.09-20.47L134.18,80z"/>
			<polygon class="st1" points="62.35,78.02 99.14,63.1 84,100.31 78.03,83.89 			"/>
		</g>
	</g>
</g>
</svg>
