<svg xmlns="http://www.w3.org/2000/svg" width="420.862" height="56.498" viewBox="0 0 420.862 56.498">
  <g id="Group_6418" data-name="Group 6418" transform="translate(-143.239 -470.23)">
    <path id="Path_2806" data-name="Path 2806" d="M151.272,472.638H164.3v1.606a3.972,3.972,0,0,0-2.56,1.042,3.519,3.519,0,0,0-.952,2.648V506.97a8.319,8.319,0,0,1-2.8,6.456,10.577,10.577,0,0,1-7.378,2.529,16.9,16.9,0,0,1-3.987-.506,12.466,12.466,0,0,1-3.392-1.279v-7.5h2.38a10.265,10.265,0,0,0,1.874,5.058,4.252,4.252,0,0,0,3.422,1.725,3.869,3.869,0,0,0,3.005-1.279,4.728,4.728,0,0,0,1.16-3.3V478.112a3.641,3.641,0,0,0-1.071-2.826,4.123,4.123,0,0,0-2.737-1.042Z" transform="translate(0 -0.503)" fill="#fff"/>
    <path id="Path_2807" data-name="Path 2807" d="M175,522.664a2.95,2.95,0,0,1-.74,1.9,2.528,2.528,0,0,1-2.062.9,2.762,2.762,0,0,1-2.036-.82,2.7,2.7,0,0,1-.82-1.983,2.837,2.837,0,0,1,.793-2.009,2.634,2.634,0,0,1,2.009-.846,2.681,2.681,0,0,1,2.089.846,2.9,2.9,0,0,1,.766,2.009" transform="translate(-5.455 -10.362)" fill="#fff"/>
    <path id="Path_2808" data-name="Path 2808" d="M197.781,515.8a23.088,23.088,0,0,1-6.931-1.071,19.868,19.868,0,0,1-6.159-3.154v-9.52h2.142a15.5,15.5,0,0,0,4.255,8.122,10.525,10.525,0,0,0,7.408,2.767,8.3,8.3,0,0,0,5.891-2.053,8.067,8.067,0,0,0,.713-10.2,13.123,13.123,0,0,0-5-3.272l-5.3-2.2a18.287,18.287,0,0,1-7.259-4.968,10.688,10.688,0,0,1-2.5-7.051,10.375,10.375,0,0,1,3.57-8.152,13.5,13.5,0,0,1,9.282-3.154,21.8,21.8,0,0,1,5.831.774,23.094,23.094,0,0,1,5.534,2.38v8.211h-2.083a12.182,12.182,0,0,0-3.272-6.4,8.048,8.048,0,0,0-5.713-2.171,7.727,7.727,0,0,0-5.474,1.933,6.691,6.691,0,0,0-2.082,5.147,6.411,6.411,0,0,0,1.338,4.2,11.48,11.48,0,0,0,4.254,2.945l5.891,2.559a18.047,18.047,0,0,1,6.9,4.789,10.418,10.418,0,0,1,2.261,6.813,12,12,0,0,1-3.808,9.164,13.621,13.621,0,0,1-9.7,3.57" transform="translate(-8.664 -0.346)" fill="#fff"/>
    <path id="Path_2809" data-name="Path 2809" d="M231.832,519.446a8.985,8.985,0,0,1-6.248-2.142,7.1,7.1,0,0,1-2.379-5.534,7.319,7.319,0,0,1,1.933-5.176,13.058,13.058,0,0,1,6.04-3.272l9.758-2.975v-3.273a5.126,5.126,0,0,0-1.429-3.838,5.46,5.46,0,0,0-3.986-1.4,7.564,7.564,0,0,0-5.206,1.666,8.239,8.239,0,0,0-2.529,4.225h-2.738V491.9a22.153,22.153,0,0,1,5.058-1.815,23.017,23.017,0,0,1,5.414-.744,12.743,12.743,0,0,1,7.973,2.291,7.435,7.435,0,0,1,2.975,6.218v16.125a3.2,3.2,0,0,0,.862,2.32,3.591,3.591,0,0,0,2.41,1.012v1.607h-8.509l-.178-4.7a8.962,8.962,0,0,1-3.51,3.629,10.525,10.525,0,0,1-5.713,1.606m1.785-3.629a7.272,7.272,0,0,0,5.236-1.993,6.734,6.734,0,0,0,2.083-5.088v-5.653l-6.783,2.142a8.218,8.218,0,0,0-3.838,2.2,5.319,5.319,0,0,0-1.28,3.689,4.644,4.644,0,0,0,1.28,3.392,4.414,4.414,0,0,0,3.3,1.309" transform="translate(-16.713 -3.993)" fill="#fff"/>
    <path id="Path_2810" data-name="Path 2810" d="M274.675,514.917h-14.4V513.31a6.47,6.47,0,0,0,3.154-1.13,3.2,3.2,0,0,0,1.19-2.737V488.32h-5.533v-2.38h5.533v-6.724a8.207,8.207,0,0,1,2.826-6.545,11.028,11.028,0,0,1,7.468-2.44,17.521,17.521,0,0,1,3.837.447,15.62,15.62,0,0,1,3.243,1.041v6.307h-2.2a10.674,10.674,0,0,0-1.874-3.9,3.853,3.853,0,0,0-3.124-1.4,4.091,4.091,0,0,0-3.242,1.4,5.454,5.454,0,0,0-1.22,3.719v8.092h6.247v2.38h-6.247v21.124a3.165,3.165,0,0,0,1.22,2.737,6.573,6.573,0,0,0,3.124,1.13Z" transform="translate(-24.213 0)" fill="#fff"/>
    <path id="Path_2811" data-name="Path 2811" d="M298.809,518.973H284.886v-1.607a6.1,6.1,0,0,0,2.975-1.1,3.119,3.119,0,0,0,1.13-2.647V495.292a3.33,3.33,0,0,0-.982-2.677,4.629,4.629,0,0,0-2.529-1.012V490h9.163l-.119,4.581a7.333,7.333,0,0,1,2.827-3.659,7.646,7.646,0,0,1,4.314-1.279,6.5,6.5,0,0,1,2.647.536,4.521,4.521,0,0,1,1.815,1.309v6.307H303.45a5.084,5.084,0,0,0-1.368-3.391,3.884,3.884,0,0,0-2.678-1.012,4.055,4.055,0,0,0-3.48,1.666,6.757,6.757,0,0,0-1.22,4.105v14.459a3.117,3.117,0,0,0,1.13,2.647,6.093,6.093,0,0,0,2.975,1.1Z" transform="translate(-29.605 -4.056)" fill="#fff"/>
    <path id="Path_2812" data-name="Path 2812" d="M323,519.446a8.985,8.985,0,0,1-6.248-2.142,7.1,7.1,0,0,1-2.379-5.534,7.319,7.319,0,0,1,1.933-5.176,13.053,13.053,0,0,1,6.04-3.272l9.758-2.975v-3.273a5.126,5.126,0,0,0-1.429-3.838,5.46,5.46,0,0,0-3.987-1.4,7.567,7.567,0,0,0-5.206,1.666,8.244,8.244,0,0,0-2.528,4.225h-2.738V491.9a22.149,22.149,0,0,1,5.058-1.815,23.015,23.015,0,0,1,5.414-.744,12.744,12.744,0,0,1,7.974,2.291,7.433,7.433,0,0,1,2.975,6.218v16.125a3.2,3.2,0,0,0,.862,2.32,3.593,3.593,0,0,0,2.41,1.012v1.607H332.4l-.178-4.7a8.959,8.959,0,0,1-3.511,3.629A10.521,10.521,0,0,1,323,519.446m1.785-3.629a7.272,7.272,0,0,0,5.236-1.993,6.737,6.737,0,0,0,2.083-5.088v-5.653l-6.783,2.142a8.221,8.221,0,0,0-3.839,2.2,5.322,5.322,0,0,0-1.279,3.689,4.647,4.647,0,0,0,1.279,3.392,4.416,4.416,0,0,0,3.3,1.309" transform="translate(-35.768 -3.993)" fill="#fff"/>
    <path id="Path_2813" data-name="Path 2813" d="M370.514,514.393l2.845-.213,13.749-36.166h3.005l13.615,36.166,2.9.213v2.34H397.08v-2.34l3.377-.266-3.191-8.669H379.875l-3.218,8.669,3.378.266v2.34h-9.52Zm10.424-11.78h15.291L388.7,482.136h-.16Z" transform="translate(-47.501 -1.627)" fill="#fff"/>
    <path id="Path_2814" data-name="Path 2814" d="M434.137,517.093a9.077,9.077,0,0,0,5.584-1.808,5.921,5.921,0,0,0,2.42-5.026h2.819l.053.16a7.9,7.9,0,0,1-3.177,6.674,11.86,11.86,0,0,1-7.7,2.686,10.941,10.941,0,0,1-9.068-4.029,16.081,16.081,0,0,1-3.218-10.357v-1.117a16.056,16.056,0,0,1,3.218-10.319,10.9,10.9,0,0,1,9.041-4.042,14.619,14.619,0,0,1,6.09,1.25,11.961,11.961,0,0,1,4.495,3.4l.133,6.276h-2.712l-.505-5.106a9.086,9.086,0,0,0-3.177-2.273,10.606,10.606,0,0,0-4.322-.838q-4.626,0-6.847,3.31a14.652,14.652,0,0,0-2.221,8.337v1.117a14.8,14.8,0,0,0,2.208,8.4q2.207,3.3,6.887,3.3" transform="translate(-58.231 -4.114)" fill="#fff"/>
    <path id="Path_2815" data-name="Path 2815" d="M478.544,519.221q-.319-1.463-.452-2.526a17.343,17.343,0,0,1-.133-2.154,12.7,12.7,0,0,1-4.255,3.749,12.035,12.035,0,0,1-5.983,1.49,9.171,9.171,0,0,1-6.542-2.181,7.722,7.722,0,0,1-2.313-5.9,7.292,7.292,0,0,1,3.43-6.33q3.431-2.34,9.308-2.34h6.356v-3.8a6.129,6.129,0,0,0-1.981-4.839,8.074,8.074,0,0,0-5.544-1.755,13.947,13.947,0,0,0-4.375.651,9.9,9.9,0,0,0-3.31,1.769l-.266,3.856h-2.633l.027-5.531a16.535,16.535,0,0,1,4.774-2.5,18.029,18.029,0,0,1,5.917-.958,11.563,11.563,0,0,1,7.659,2.42,8.531,8.531,0,0,1,2.9,6.94v14.148q0,.877.04,1.688a13.174,13.174,0,0,0,.172,1.583l2.873.186v2.341Zm-10.478-2.261a11.519,11.519,0,0,0,6.09-1.6,9.427,9.427,0,0,0,3.8-4.122v-5.77H471.55a11.962,11.962,0,0,0-6.927,1.795,5.347,5.347,0,0,0-2.593,4.534,4.746,4.746,0,0,0,1.609,3.736,6.449,6.449,0,0,0,4.428,1.423" transform="translate(-65.967 -4.114)" fill="#fff"/>
    <path id="Path_2816" data-name="Path 2816" d="M516.617,511.854a9.937,9.937,0,0,1-3.7,3.484,11.017,11.017,0,0,1-5.319,1.223,9.545,9.545,0,0,1-8.07-3.855q-2.912-3.856-2.912-10.292v-.558q0-6.888,2.912-11.023a9.377,9.377,0,0,1,8.124-4.135,9.874,9.874,0,0,1,8.881,4.866V477.23l-4.334-.346v-2.367h7.526v38.8l4.334.346V516h-7.18Zm-16.779-9.441a14.589,14.589,0,0,0,2.087,8.3,7.083,7.083,0,0,0,6.289,3.085,8.992,8.992,0,0,0,5.119-1.383,9.2,9.2,0,0,0,3.2-3.8V494.994A9.915,9.915,0,0,0,513.466,491a8.3,8.3,0,0,0-5.2-1.542,6.934,6.934,0,0,0-6.316,3.443,16.914,16.914,0,0,0-2.114,8.948Z" transform="translate(-73.858 -0.896)" fill="#fff"/>
    <path id="Path_2817" data-name="Path 2817" d="M550.22,519.778a11.552,11.552,0,0,1-8.988-3.976,14.586,14.586,0,0,1-3.564-10.118v-1.463a15.013,15.013,0,0,1,3.551-10.239,10.99,10.99,0,0,1,8.576-4.068,10.657,10.657,0,0,1,8.323,3.351,12.807,12.807,0,0,1,3.032,8.935v2.712H540.833v.771a12.705,12.705,0,0,0,2.593,8.124,8.242,8.242,0,0,0,6.795,3.283,13.834,13.834,0,0,0,5.052-.824,9.987,9.987,0,0,0,3.59-2.367l1.357,2.181a11.5,11.5,0,0,1-4.1,2.7,15.75,15.75,0,0,1-5.9,1m-.426-27.151a7.624,7.624,0,0,0-5.917,2.7,11.562,11.562,0,0,0-2.806,6.768l.053.133h16.859v-.8a9.2,9.2,0,0,0-2.207-6.276,7.539,7.539,0,0,0-5.983-2.526" transform="translate(-82.437 -4.114)" fill="#fff"/>
    <path id="Path_2818" data-name="Path 2818" d="M573.675,492.814v-2.367h7.153l.293,4.76a10.087,10.087,0,0,1,3.7-3.909,10.538,10.538,0,0,1,5.5-1.383,9.1,9.1,0,0,1,5.5,1.61,8.88,8.88,0,0,1,3.165,4.906,11.2,11.2,0,0,1,3.71-4.774,9.737,9.737,0,0,1,5.864-1.742,8.69,8.69,0,0,1,7.113,3.059q2.513,3.058,2.513,9.467v14.067l4.335.373v2.341H610.638V516.88l4.334-.373v-14.12q0-5.319-1.875-7.513a6.5,6.5,0,0,0-5.225-2.193,7.1,7.1,0,0,0-5.731,2.367,11.37,11.37,0,0,0-2.486,6.036c0,.142,0,.275.012.4s.014.283.014.479v14.573l4.335.346v2.341h-11.86V516.88l4.335-.346V502.388q0-5.212-1.9-7.459a6.48,6.48,0,0,0-5.225-2.247,7.951,7.951,0,0,0-5.385,1.715,9.128,9.128,0,0,0-2.779,4.614v17.524l4.335.346v2.341h-11.86V516.88l4.335-.346V493.16Z" transform="translate(-89.963 -4.114)" fill="#fff"/>
    <path id="Path_2819" data-name="Path 2819" d="M667.653,492.955l-2.925.239-11.621,30.768a16.422,16.422,0,0,1-2.9,4.973A6.538,6.538,0,0,1,645,530.982a9.362,9.362,0,0,1-1.356-.12,6.759,6.759,0,0,1-1.17-.253l.372-2.658q.319.052,1.024.119t1,.066a4.11,4.11,0,0,0,3.325-1.463,13.96,13.96,0,0,0,2.154-3.8l1.49-3.855-10.212-25.822-2.925-.239v-2.367h9.892v2.367l-3.431.266,7.021,18.349,1.01,3.458h.16l7.871-21.806-3.51-.266v-2.367h9.946Z" transform="translate(-103.552 -4.255)" fill="#fff"/>
  </g>
</svg>
