<svg id="Camada_1" data-name="Camada 1" xmlns="http://www.w3.org/2000/svg" viewBox="0 0 1281.78 521.12"><defs><style>.cls-1{fill:#0c9849;}.cls-1,.cls-2{fill-rule:evenodd;}.cls-2,.cls-3{fill:#0a3633;}</style></defs><path id="Path_262" data-name="Path 262" class="cls-1" d="M134.44,425.17c-27.65,4.26-70.77,22.81-79.36,42.39,23.13,49.6,129.09,62.72,181.1,47.69a198.27,198.27,0,0,0,79-44.78c20.75-19.07,57.13-64,53.51-108.77-14.79-10.73-13.86-4.59-35.7-25.07C300.14,305.9,288.2,278,273.48,237c-11.73,5.32-12.59,13-21,20.92C193.23,314,102,275,89.74,209.14c-18.57-99.66,91.75-153.39,159.37-95.45,39.24,33.64,27.3,63.88,38,113.9,22.34,104.12,126.22,166.22,230.7,140.79,13.83-3.37,44.37-14.63,49.5-23C525.9,343.47,476,357,427.18,310.94c-84.11-79.33-24.59-166.07-105.81-251.7C261.87-3.46,163.11-18.71,88.83,26.31,2.93,78.39-12.08,154.89,7.81,244.6c10.68,48.09,56.47,94.64,98.92,112.7,96.54,41,157.35-5.34,174.11-6.69-6.18,100.33-86.37,65.28-146.4,74.56"/><path id="Path_263" data-name="Path 263" class="cls-2" d="M417.08,7.77a176.17,176.17,0,0,0-29.7,11.85c-74,37.69-41.14,35.18-23.14,73.74,6.27,13.41,10.24,34,18.73,43.57,8.72-3.54,14-15.08,20.49-21.63,33-33.64,108.2-39.44,145.21,14.71,15.3,22.38,16.47,30.81,18.16,62.5C571,270.66,542.58,405.18,705.2,376.34c-9.53-17.1-24.82-25.06-35.46-38.27-14-17.32-12.72-34.54-12.7-60.18,0-42.22,4.34-104.64-6.53-141.52C622.37,36.84,518.87-21,419.35,7.11l-2.27.66"/><path id="Path_264" data-name="Path 264" class="cls-3" d="M815.45,106.69v53.13a55.73,55.73,0,0,1-2,15.68,25,25,0,0,1-6.23,10.87,26.11,26.11,0,0,1-11.22,6.37,61.22,61.22,0,0,1-17.25,2.08,50.15,50.15,0,0,1-16.88-2.65,29.14,29.14,0,0,1-11.46-6.83,12.48,12.48,0,0,1-4-8.61,7.09,7.09,0,0,1,2.28-5.46,7.77,7.77,0,0,1,5.49-2.11,9,9,0,0,1,7,3.55q1.47,1.8,3,3.65a17.38,17.38,0,0,0,3.48,3.15,13.7,13.7,0,0,0,4.59,1.94,26.5,26.5,0,0,0,6.15.64,25,25,0,0,0,11-2,11.31,11.31,0,0,0,5.5-5.52,22.46,22.46,0,0,0,1.84-7.61q.27-4,.4-13a30.1,30.1,0,0,1-9.74,9A26.63,26.63,0,0,1,774.37,166a27.74,27.74,0,0,1-16-4.69,30,30,0,0,1-10.55-13.13,48.32,48.32,0,0,1-3.68-19.5,46,46,0,0,1,2.24-14.87,31.3,31.3,0,0,1,6.39-11.19,27.41,27.41,0,0,1,9.59-6.87,30.1,30.1,0,0,1,11.92-2.31,28.69,28.69,0,0,1,13.47,3,32.76,32.76,0,0,1,10.59,9.35v-2.5a10.7,10.7,0,0,1,2.34-7.38,7.74,7.74,0,0,1,6-2.61,7.11,7.11,0,0,1,7,3.46,22.66,22.66,0,0,1,1.74,9.93m-53,23.16a25.31,25.31,0,0,0,4.86,16.82,15.76,15.76,0,0,0,12.57,5.68,16.32,16.32,0,0,0,8.6-2.45,17.91,17.91,0,0,0,6.62-7.37,25.73,25.73,0,0,0,2.55-12,27.48,27.48,0,0,0-4.93-17.42,15.74,15.74,0,0,0-13-6.23,15.22,15.22,0,0,0-12.56,6,26.69,26.69,0,0,0-4.73,17"/><path id="Path_265" data-name="Path 265" class="cls-3" d="M881.56,135H845.79a24.22,24.22,0,0,0,2.51,11,16.78,16.78,0,0,0,15.44,9.57,21.39,21.39,0,0,0,6-.77,19.73,19.73,0,0,0,5.26-2.41,38.94,38.94,0,0,0,4.68-3.52c1.42-1.24,3.29-2.94,5.57-5.09a6,6,0,0,1,4-1.2,6.59,6.59,0,0,1,4.56,1.54,5.49,5.49,0,0,1,1.74,4.35,11.9,11.9,0,0,1-1.94,5.8,22.93,22.93,0,0,1-5.86,6.36,33.11,33.11,0,0,1-9.85,5.06,42.35,42.35,0,0,1-13.64,2,36.46,36.46,0,0,1-27.42-10,37.43,37.43,0,0,1-9.78-27.27,45.45,45.45,0,0,1,2.41-15,33,33,0,0,1,7-11.9,30.56,30.56,0,0,1,11.38-7.6,40.76,40.76,0,0,1,15-2.65,35.63,35.63,0,0,1,18.4,4.52,29.82,29.82,0,0,1,11.48,11.7,30.68,30.68,0,0,1,3.82,14.6q0,6.9-4,8.94A24.58,24.58,0,0,1,881.54,135m-35.78-10.41h33.17a22.18,22.18,0,0,0-5.07-14,15.11,15.11,0,0,0-11.55-4.66,14.66,14.66,0,0,0-11.22,4.73,23.51,23.51,0,0,0-5.33,14"/><path id="Path_266" data-name="Path 266" class="cls-3" d="M930.2,141.26v15.28a11.78,11.78,0,0,1-2.62,8.34,8.71,8.71,0,0,1-6.62,2.78,8.36,8.36,0,0,1-6.49-2.81,12,12,0,0,1-2.55-8.31V105.62q0-12.32,8.91-12.33a7.45,7.45,0,0,1,6.56,2.88,15.86,15.86,0,0,1,2.22,8.52,32.12,32.12,0,0,1,6.73-8.52,14,14,0,0,1,9.21-2.88,23.64,23.64,0,0,1,11.19,2.88,8.61,8.61,0,0,1,5.43,7.64,7.28,7.28,0,0,1-2.31,5.53,7.19,7.19,0,0,1-5,2.18,23.27,23.27,0,0,1-4.86-1.24,22.56,22.56,0,0,0-6.8-1.24,9.94,9.94,0,0,0-6.57,2.11,13.58,13.58,0,0,0-3.95,6.26,43.31,43.31,0,0,0-1.94,9.89q-.54,5.73-.54,14"/><path id="Path_267" data-name="Path 267" class="cls-3" d="M1014.93,157.35a57,57,0,0,1-12.83,7.73,35.77,35.77,0,0,1-13.9,2.58,26.4,26.4,0,0,1-12.37-2.78,20.38,20.38,0,0,1-8.2-7.53A19.59,19.59,0,0,1,964.75,147a18.46,18.46,0,0,1,4.75-12.8,23.73,23.73,0,0,1,13.07-7.09c1.16-.28,4-.88,8.64-1.82s8.54-1.79,11.82-2.58,6.85-1.72,10.69-2.83a19.13,19.13,0,0,0-2.92-10.62,13,13,0,0,0-10.69-3.38,22.35,22.35,0,0,0-10.48,1.93,17.26,17.26,0,0,0-6,5.83c-1.68,2.6-2.86,4.3-3.55,5.13a5.83,5.83,0,0,1-4.46,1.24,7.77,7.77,0,0,1-5.32-2A6.42,6.42,0,0,1,968,113a15.41,15.41,0,0,1,3.41-9.38,24.45,24.45,0,0,1,10.66-7.51,47.86,47.86,0,0,1,18-3,51,51,0,0,1,19,2.84,17.61,17.61,0,0,1,9.74,9,39.27,39.27,0,0,1,2.84,16.35q0,6.42,0,10.92c0,3-.06,6.32-.1,10a36.66,36.66,0,0,0,1.71,10.75,33.62,33.62,0,0,1,1.7,7.21,6.75,6.75,0,0,1-2.64,5.12,8.87,8.87,0,0,1-6,2.31,8.06,8.06,0,0,1-5.56-2.64,39.51,39.51,0,0,1-5.83-7.67m-1.2-26.48A92.48,92.48,0,0,1,1002,134q-7.66,1.64-10.62,2.41a14.49,14.49,0,0,0-5.62,3,7.69,7.69,0,0,0-2.68,6.26,9.27,9.27,0,0,0,3.14,7.09,11.68,11.68,0,0,0,8.25,2.92,21.55,21.55,0,0,0,10-2.37,16,16,0,0,0,6.73-6.14,28.09,28.09,0,0,0,2.48-13.67Z"/><path id="Path_268" data-name="Path 268" class="cls-3" d="M1084.67,167.66l-.27,1.34a18.5,18.5,0,0,1,10.56,3.55,9.62,9.62,0,0,1,3.44,7.71,10.28,10.28,0,0,1-2.58,6.93,16.57,16.57,0,0,1-7.6,4.62,39.64,39.64,0,0,1-12.19,1.64q-12.33,0-12.33-4.69a3.22,3.22,0,0,1,3.15-3.15q.27,0,2.94.27c1.78.18,3.42.27,4.9.27q12.06,0,12-5.76a4.3,4.3,0,0,0-1.84-3.52,7.26,7.26,0,0,0-4.59-1.42,22.78,22.78,0,0,0-3.08.3,20.77,20.77,0,0,1-3,.3,3.16,3.16,0,0,1-2.64-1.24,4.17,4.17,0,0,1-1-2.64q0-3.22,9.51-4.62a34,34,0,0,1-24.86-10.69,37.5,37.5,0,0,1-8.64-25.7,43.46,43.46,0,0,1,4.36-19.89,31.19,31.19,0,0,1,12.59-13.37,42.77,42.77,0,0,1,32.73-2.64,34.12,34.12,0,0,1,10.05,5.35,25.72,25.72,0,0,1,6.3,7,13.88,13.88,0,0,1,2.18,6.93,7.32,7.32,0,0,1-2.45,5.56,8.36,8.36,0,0,1-5.93,2.28,7.27,7.27,0,0,1-6-3.42,43.19,43.19,0,0,0-7.64-8.88,15.06,15.06,0,0,0-9.78-2.83,15.77,15.77,0,0,0-13.07,6.33,27.42,27.42,0,0,0-5,17.32,33.39,33.39,0,0,0,1.27,9.48,21.9,21.9,0,0,0,3.68,7.37,15.82,15.82,0,0,0,5.83,4.62,17.83,17.83,0,0,0,7.51,1.58,16.17,16.17,0,0,0,9.08-2.22,23.53,23.53,0,0,0,6.3-6.7,54.71,54.71,0,0,1,4.58-6.22,6.15,6.15,0,0,1,4.76-1.75,7.19,7.19,0,0,1,5.53,2.48,8,8,0,0,1,2.24,5.49,17.2,17.2,0,0,1-3.58,9.65,29.12,29.12,0,0,1-10.69,8.88,39.59,39.59,0,0,1-16.88,4.12"/><path id="Path_269" data-name="Path 269" class="cls-3" d="M1178,157.35a56.73,56.73,0,0,1-12.83,7.73,35.74,35.74,0,0,1-13.9,2.58,26.36,26.36,0,0,1-12.36-2.78,20.34,20.34,0,0,1-8.21-7.53,19.59,19.59,0,0,1-2.88-10.32,18.52,18.52,0,0,1,4.73-12.8,23.76,23.76,0,0,1,13.07-7.09c1.16-.28,4-.88,8.64-1.82s8.54-1.79,11.82-2.58,6.85-1.72,10.69-2.83a19,19,0,0,0-2.92-10.62,13,13,0,0,0-10.65-3.4,22.36,22.36,0,0,0-10.48,1.94,17.09,17.09,0,0,0-6,5.83q-2.52,3.89-3.55,5.13a5.84,5.84,0,0,1-4.46,1.24,7.78,7.78,0,0,1-5.32-2,6.45,6.45,0,0,1-2.25-5.06,15.48,15.48,0,0,1,3.42-9.38,24.43,24.43,0,0,1,10.66-7.5,47.86,47.86,0,0,1,18-3,51.19,51.19,0,0,1,19,2.83,17.62,17.62,0,0,1,9.74,9,39.2,39.2,0,0,1,2.84,16.34q0,6.44,0,10.92t-.1,10a37,37,0,0,0,1.7,10.75,33.7,33.7,0,0,1,1.71,7.2,6.77,6.77,0,0,1-2.64,5.13,8.86,8.86,0,0,1-6,2.3,8.06,8.06,0,0,1-5.56-2.64,39.21,39.21,0,0,1-5.83-7.67m-28.27-79.19q-3.42,0-4.62,4.55c-.81,2.64-2,4-3.62,4a3.43,3.43,0,0,1-2.65-1.38,5.79,5.79,0,0,1-1.17-3.85,15,15,0,0,1,1.47-6.46,12.27,12.27,0,0,1,4.12-5,9.72,9.72,0,0,1,5.68-1.84,17.11,17.11,0,0,1,5.59.87c1.72.58,4,1.53,6.9,2.83s4.86,2.16,5.93,2.55a10.48,10.48,0,0,0,3.55.57,4.53,4.53,0,0,0,3-.94,6.66,6.66,0,0,0,1.71-3.53c.72-2.59,1.92-3.88,3.62-3.88a3.37,3.37,0,0,1,2.68,1.42,5.93,5.93,0,0,1,1.14,3.82,16.86,16.86,0,0,1-2.84,8.47,9.55,9.55,0,0,1-8.81,4.73,15.6,15.6,0,0,1-4.69-.76c-2.25-.78-4.46-1.66-6.62-2.66q-4.22-1.89-6.3-2.67a11.21,11.21,0,0,0-4.09-.81m27.07,52.73a94.08,94.08,0,0,1-11.69,3.12q-7.68,1.64-10.62,2.41a14.33,14.33,0,0,0-5.62,3,7.73,7.73,0,0,0-2.69,6.26,9.32,9.32,0,0,0,3.15,7.1,11.72,11.72,0,0,0,8.25,2.91,21.35,21.35,0,0,0,10-2.36,16,16,0,0,0,6.74-6.15,28,28,0,0,0,2.47-13.67Z"/><path id="Path_270" data-name="Path 270" class="cls-3" d="M1281.78,130.47a43.3,43.3,0,0,1-2.55,15.08,33.26,33.26,0,0,1-7.37,11.86,32.48,32.48,0,0,1-11.52,7.6,40.64,40.64,0,0,1-15.08,2.65,39.55,39.55,0,0,1-14.94-2.68,32.94,32.94,0,0,1-18.85-19.46,46.39,46.39,0,0,1,0-30.25,33.16,33.16,0,0,1,7.3-11.8,32.17,32.17,0,0,1,11.52-7.53,43.64,43.64,0,0,1,30,0,32.4,32.4,0,0,1,18.91,19.43,43.48,43.48,0,0,1,2.51,15.07m-18.35,0a27.54,27.54,0,0,0-4.93-17.42,16,16,0,0,0-13.24-6.22,16.42,16.42,0,0,0-9.46,2.77,17.68,17.68,0,0,0-6.29,8.21,33.61,33.61,0,0,0-2.22,12.66,33.07,33.07,0,0,0,2.18,12.53,18,18,0,0,0,6.23,8.21,16.19,16.19,0,0,0,9.55,2.84,16,16,0,0,0,13.24-6.27,27.33,27.33,0,0,0,5-17.31"/><path id="Path_271" data-name="Path 271" class="cls-3" d="M794.41,284.39a56.73,56.73,0,0,1-12.83,7.73,35.74,35.74,0,0,1-13.9,2.58,26.21,26.21,0,0,1-12.36-2.78,20.23,20.23,0,0,1-8.22-7.53,19.59,19.59,0,0,1-2.88-10.32,18.46,18.46,0,0,1,4.75-12.8A23.79,23.79,0,0,1,762,254.18q1.74-.41,8.64-1.81t11.82-2.58q4.93-1.17,10.69-2.84a19.18,19.18,0,0,0-2.92-10.62A13,13,0,0,0,779.58,233a22.36,22.36,0,0,0-10.48,1.94,17.09,17.09,0,0,0-6,5.83q-2.52,3.89-3.55,5.13a5.84,5.84,0,0,1-4.46,1.24,7.83,7.83,0,0,1-5.32-2,6.41,6.41,0,0,1-2.24-5.06,15.41,15.41,0,0,1,3.41-9.38,24.43,24.43,0,0,1,10.66-7.5,47.86,47.86,0,0,1,18-2.95,51,51,0,0,1,19,2.84,17.61,17.61,0,0,1,9.74,9,39.27,39.27,0,0,1,2.84,16.35q0,6.42,0,10.92c0,3-.06,6.32-.1,10a36.72,36.72,0,0,0,1.71,10.76,33.59,33.59,0,0,1,1.7,7.19,6.77,6.77,0,0,1-2.64,5.13,8.87,8.87,0,0,1-6,2.31,8.06,8.06,0,0,1-5.56-2.64,39.28,39.28,0,0,1-5.83-7.68m-1.2-26.47a92.48,92.48,0,0,1-11.7,3.11q-7.66,1.65-10.62,2.41a14.62,14.62,0,0,0-5.62,3,7.69,7.69,0,0,0-2.68,6.26,9.22,9.22,0,0,0,3.14,7.07,11.73,11.73,0,0,0,8.25,2.92,21.55,21.55,0,0,0,10-2.37,16,16,0,0,0,6.73-6.14,28.09,28.09,0,0,0,2.48-13.67Z"/><path id="Path_272" data-name="Path 272" class="cls-3" d="M895.16,233.73v53.13a55.61,55.61,0,0,1-1.94,15.67A25.07,25.07,0,0,1,887,313.41a26,26,0,0,1-11.23,6.36,61.22,61.22,0,0,1-17.25,2.08,50.47,50.47,0,0,1-16.88-2.64,29.32,29.32,0,0,1-11.45-6.84,12.44,12.44,0,0,1-4-8.61,7.09,7.09,0,0,1,2.28-5.46,7.8,7.8,0,0,1,5.49-2.11,9,9,0,0,1,7,3.55c1,1.21,2,2.42,3,3.65a17.41,17.41,0,0,0,3.49,3.15,13.42,13.42,0,0,0,4.59,1.94,26.5,26.5,0,0,0,6.15.64,25,25,0,0,0,11-2,11.29,11.29,0,0,0,5.51-5.54,22.7,22.7,0,0,0,1.84-7.61q.25-4,.4-13a30.17,30.17,0,0,1-9.75,9A26.68,26.68,0,0,1,854.09,293a27.73,27.73,0,0,1-16-4.69,30,30,0,0,1-10.57-13.14,48.42,48.42,0,0,1-3.68-19.5A46.33,46.33,0,0,1,826,240.83a31.26,31.26,0,0,1,6.4-11.19,27.44,27.44,0,0,1,9.58-6.86A30,30,0,0,1,854,220.47a28.67,28.67,0,0,1,13.46,3A33,33,0,0,1,878,232.79v-2.47a10.72,10.72,0,0,1,2.36-7.38,7.77,7.77,0,0,1,6-2.61,7.07,7.07,0,0,1,7,3.45,22.54,22.54,0,0,1,1.74,9.93m-53,23.17A25.35,25.35,0,0,0,847,273.69a15.74,15.74,0,0,0,12.57,5.68,16.38,16.38,0,0,0,8.61-2.45,18.05,18.05,0,0,0,6.62-7.37,25.75,25.75,0,0,0,2.54-12,27.43,27.43,0,0,0-4.92-17.42,15.73,15.73,0,0,0-13-6.23,15.26,15.26,0,0,0-12.57,6,26.72,26.72,0,0,0-4.72,17"/><path id="Path_273" data-name="Path 273" class="cls-3" d="M930,268.31v15.27a11.84,11.84,0,0,1-2.61,8.35,8.74,8.74,0,0,1-6.62,2.78,8.4,8.4,0,0,1-6.5-2.84,12,12,0,0,1-2.55-8.31v-50.9q0-12.33,8.91-12.33a7.44,7.44,0,0,1,6.57,2.88,15.89,15.89,0,0,1,2.21,8.51,32.28,32.28,0,0,1,6.73-8.51,13.91,13.91,0,0,1,9.21-2.88,23.64,23.64,0,0,1,11.19,2.88,8.59,8.59,0,0,1,5.43,7.64,7.28,7.28,0,0,1-2.31,5.53,7.18,7.18,0,0,1-5,2.17,22.43,22.43,0,0,1-4.85-1.24,22.94,22.94,0,0,0-6.81-1.24,10,10,0,0,0-6.56,2.11,13.55,13.55,0,0,0-4,6.27,43.77,43.77,0,0,0-1.94,9.88q-.54,5.73-.53,14"/><path id="Path_274" data-name="Path 274" class="cls-3" d="M1035.16,257.51a43.3,43.3,0,0,1-2.55,15.08,33.26,33.26,0,0,1-7.37,11.86,32.48,32.48,0,0,1-11.52,7.6,40.68,40.68,0,0,1-15.08,2.65A39.55,39.55,0,0,1,983.7,292a33,33,0,0,1-18.86-19.46,46.48,46.48,0,0,1,0-30.25,33,33,0,0,1,7.3-11.79A32.06,32.06,0,0,1,983.7,223a43.64,43.64,0,0,1,30,0,32.45,32.45,0,0,1,18.91,19.43,43.5,43.5,0,0,1,2.51,15.08m-18.35,0a27.52,27.52,0,0,0-4.9-17.43,16,16,0,0,0-13.24-6.22,16.42,16.42,0,0,0-9.46,2.77,17.68,17.68,0,0,0-6.29,8.21,33.61,33.61,0,0,0-2.22,12.66A33.1,33.1,0,0,0,982.86,270a17.93,17.93,0,0,0,6.24,8.21,16.14,16.14,0,0,0,9.54,2.84,16,16,0,0,0,13.25-6.26,27.34,27.34,0,0,0,4.93-17.32"/></svg>