<svg xmlns="http://www.w3.org/2000/svg" viewBox="5650 1220 80 80">
  <defs>
    <style>
      .cls-1 {
        fill: #96d1cf;
      }

      .cls-2 {
        fill: #01afaa;
      }

      .cls-3 {
        fill: #5c2e91;
      }

      .cls-4 {
        fill: #9d85c1;
      }

      .cls-5 {
        fill: #ffc14d;
      }

      .cls-6 {
        fill: #fff;
      }

      .cls-7 {
        fill: #350756;
      }

      .cls-8 {
        fill: #5e3056;
      }
    </style>
  </defs>
  <g id="Group_4676" data-name="Group 4676" transform="translate(5650 1220)">
    <g id="Group_878" data-name="Group 878" transform="translate(0 0)">
      <g id="Group_876" data-name="Group 876" transform="translate(0.601 0.601)">
        <circle id="Ellipse_124" data-name="Ellipse 124" class="cls-1" cx="39.399" cy="39.399" r="39.399"/>
      </g>
      <g id="Group_877" data-name="Group 877">
        <path id="Path_1617" data-name="Path 1617" class="cls-2" d="M41.261,80a.6.6,0,0,1-.6-.6.567.567,0,0,1,.6-.6c.781,0,1.622-.06,2.4-.12.3-.06.6.24.661.541s-.24.6-.541.661c-.841,0-1.682.06-2.523.12ZM36.4,79.82h0c-.841-.06-1.682-.18-2.523-.3a.578.578,0,0,1,.18-1.141c.781.12,1.562.24,2.342.3a.573.573,0,0,1,.541.661C37,79.58,36.7,79.82,36.4,79.82ZM48.468,79.1a.585.585,0,0,1-.6-.48.608.608,0,0,1,.48-.721c.781-.18,1.562-.36,2.342-.6a.59.59,0,0,1,.3,1.141c-.781.24-1.562.42-2.4.6C48.529,79.1,48.529,79.1,48.468,79.1Zm-19.219-.6h-.18l-2.342-.721a.608.608,0,1,1,.42-1.141c.721.24,1.5.48,2.282.721a.652.652,0,0,1,.42.721A.723.723,0,0,1,29.249,78.5Zm26.126-1.622a.525.525,0,0,1-.541-.36.6.6,0,0,1,.3-.781c.721-.3,1.441-.661,2.162-1.021a.578.578,0,1,1,.541,1.021c-.721.36-1.5.721-2.222,1.021C55.556,76.877,55.5,76.877,55.375,76.877Zm-32.913-.961a.361.361,0,0,1-.24-.06c-.721-.36-1.441-.781-2.162-1.141a.618.618,0,0,1,.6-1.081c.721.42,1.381.781,2.1,1.141a.6.6,0,0,1,.3.781A.731.731,0,0,1,22.462,75.916ZM61.8,73.453a.741.741,0,0,1-.48-.24.591.591,0,0,1,.18-.841,22.29,22.29,0,0,0,1.922-1.381.6.6,0,1,1,.721.961l-1.982,1.441C62.042,73.393,61.922,73.453,61.8,73.453ZM16.276,72.072a.854.854,0,0,1-.36-.12,24.21,24.21,0,0,1-1.922-1.562.6.6,0,1,1,.781-.9,22.6,22.6,0,0,0,1.862,1.5.646.646,0,0,1,.12.841A.546.546,0,0,1,16.276,72.072Zm51.171-3.183a.545.545,0,0,1-.42-.18.581.581,0,0,1,0-.841c.541-.541,1.141-1.141,1.682-1.742a.6.6,0,1,1,.9.781,23.827,23.827,0,0,1-1.742,1.742A.453.453,0,0,1,67.447,68.889ZM10.931,67.147a.545.545,0,0,1-.42-.18c-.541-.6-1.081-1.261-1.622-1.862a.6.6,0,0,1,.961-.721c.48.6,1.021,1.2,1.562,1.8a.584.584,0,0,1-.06.841A1.528,1.528,0,0,1,10.931,67.147Zm61.261-3.784a.854.854,0,0,1-.36-.12.539.539,0,0,1-.12-.841c.48-.661.9-1.321,1.321-1.982a.608.608,0,1,1,1.021.661,24.307,24.307,0,0,1-1.381,2.042A.546.546,0,0,1,72.192,63.363ZM6.547,61.381a.717.717,0,0,1-.541-.3c-.42-.721-.841-1.441-1.261-2.1a.618.618,0,0,1,1.081-.6,22.77,22.77,0,0,0,1.2,2.042.647.647,0,0,1-.18.841A1.015,1.015,0,0,1,6.547,61.381ZM75.8,57.057a.361.361,0,0,1-.24-.06.6.6,0,0,1-.3-.781c.36-.721.661-1.441.961-2.222a.608.608,0,0,1,1.141.42c-.3.781-.6,1.5-.961,2.282A.661.661,0,0,1,75.8,57.057ZM3.243,54.895a.525.525,0,0,1-.541-.36c-.3-.781-.6-1.562-.841-2.342a.625.625,0,0,1,.36-.781.625.625,0,0,1,.781.36c.24.781.48,1.5.781,2.282a.625.625,0,0,1-.36.781C3.423,54.895,3.363,54.895,3.243,54.895ZM78.258,50.21h-.12a.57.57,0,0,1-.42-.721c.18-.781.36-1.562.48-2.342a.612.612,0,1,1,1.2.24,17.27,17.27,0,0,1-.541,2.4A.723.723,0,0,1,78.258,50.21Zm-77-2.342a.585.585,0,0,1-.6-.48c-.12-.781-.3-1.622-.36-2.462a.6.6,0,0,1,.541-.661A.6.6,0,0,1,1.5,44.8l.36,2.342a.659.659,0,0,1-.48.721ZM79.339,43h0a.617.617,0,0,1-.6-.661c.06-.781.06-1.562.06-2.4v-.12a.6.6,0,1,1,1.2,0v.12c0,.841,0,1.682-.06,2.462A.6.6,0,0,1,79.339,43ZM.6,40.6A.567.567,0,0,1,0,40v-.06c0-.781,0-1.622.06-2.4A.543.543,0,0,1,.721,37a.543.543,0,0,1,.541.661C1.2,38.438,1.2,39.219,1.2,40A.6.6,0,0,1,.6,40.6Zm78.5-4.985a.639.639,0,0,1-.6-.541l-.36-2.342a.612.612,0,0,1,1.2-.24,16.207,16.207,0,0,1,.36,2.462.6.6,0,0,1-.541.661ZM1.261,33.393h-.12a.623.623,0,0,1-.48-.721,17.268,17.268,0,0,1,.541-2.4.57.57,0,0,1,.721-.42.57.57,0,0,1,.42.721c-.18.781-.36,1.562-.48,2.342A.585.585,0,0,1,1.261,33.393Zm76.276-4.865a.723.723,0,0,1-.6-.42c-.24-.781-.541-1.5-.781-2.222a.608.608,0,1,1,1.141-.42c.3.781.6,1.562.841,2.342a.625.625,0,0,1-.36.781A.454.454,0,0,0,77.538,28.529Zm-74.294-2.1a.454.454,0,0,1-.24-.06.625.625,0,0,1-.36-.781c.3-.781.6-1.5.961-2.282a.592.592,0,0,1,1.081.48,14.341,14.341,0,0,0-.9,2.222A.577.577,0,0,1,3.243,26.426Zm71.471-4.565a.631.631,0,0,1-.541-.3,22.77,22.77,0,0,0-1.2-2.042.608.608,0,0,1,1.021-.661c.42.721.841,1.381,1.261,2.1a.608.608,0,0,1-.24.841A2.6,2.6,0,0,0,74.715,21.862ZM6.486,19.88a.45.45,0,0,1-.3-.06.591.591,0,0,1-.18-.841,24.308,24.308,0,0,1,1.381-2.042.539.539,0,0,1,.841-.12.539.539,0,0,1,.12.841c-.48.661-.9,1.321-1.321,1.982A.734.734,0,0,1,6.486,19.88ZM70.631,15.8a.546.546,0,0,1-.48-.24c-.48-.6-1.021-1.2-1.562-1.8a.6.6,0,1,1,.9-.781c.541.6,1.081,1.2,1.622,1.862a.638.638,0,0,1-.06.841A.868.868,0,0,1,70.631,15.8Zm-59.76-1.682a.635.635,0,0,1-.48-1.021,23.827,23.827,0,0,1,1.742-1.742.595.595,0,0,1,.841.841c-.541.541-1.141,1.141-1.682,1.742A1.272,1.272,0,0,1,10.871,14.114Zm54.715-3.483a.644.644,0,0,1-.36-.12,22.6,22.6,0,0,0-1.862-1.5.6.6,0,0,1,.721-.961A24.21,24.21,0,0,1,66.006,9.61a.584.584,0,0,1,.06.841A1.147,1.147,0,0,1,65.586,10.631ZM16.216,9.189a.546.546,0,0,1-.48-.24.646.646,0,0,1,.12-.841l1.982-1.441A.608.608,0,0,1,18.5,7.688a22.292,22.292,0,0,0-1.922,1.381A.854.854,0,0,1,16.216,9.189ZM59.64,6.426a.541.541,0,0,1-.3-.06,23.431,23.431,0,0,0-2.1-1.141.592.592,0,1,1,.48-1.081c.721.36,1.441.781,2.162,1.141a.665.665,0,0,1,.24.841A.535.535,0,0,1,59.64,6.426ZM22.4,5.345a.577.577,0,0,1-.541-.36A.633.633,0,0,1,22.1,4.2c.721-.36,1.5-.721,2.222-1.021a.592.592,0,0,1,.48,1.081c-.721.3-1.441.661-2.162,1.021A.361.361,0,0,1,22.4,5.345ZM53.033,3.363a.221.221,0,0,1-.18-.06c-.721-.24-1.5-.48-2.282-.721a.618.618,0,0,1-.42-.721.618.618,0,0,1,.721-.42l2.342.721a.625.625,0,0,1,.36.781A.514.514,0,0,1,53.033,3.363ZM29.129,2.7a.723.723,0,0,1-.6-.42.57.57,0,0,1,.42-.721c.781-.24,1.562-.42,2.4-.6a.612.612,0,1,1,.24,1.2c-.781.18-1.562.36-2.342.6C29.249,2.7,29.189,2.7,29.129,2.7ZM45.946,1.622h-.12c-.781-.12-1.562-.24-2.342-.3a.543.543,0,0,1-.541-.661A.543.543,0,0,1,43.6.12c.841.06,1.622.18,2.462.3a.6.6,0,0,1,.48.661A.552.552,0,0,1,45.946,1.622Zm-9.67-.24a.639.639,0,0,1-.6-.541c-.06-.3.24-.6.541-.661A17.62,17.62,0,0,1,38.679,0a.6.6,0,0,1,.6.6.567.567,0,0,1-.6.6,17.454,17.454,0,0,0-2.4.18Z" transform="translate(0 0)"/>
      </g>
    </g>
    <g id="icone_studion_mestre" transform="translate(13 11.525)">
      <path id="Path_2350" data-name="Path 2350" class="cls-3" d="M54.4,37V52.041s-5.959,5.207-16.2,5.207A26.558,26.558,0,0,1,22,52.041V37l16.2,6.364Z" transform="translate(-9.273 -11.602)"/>
      <path id="Path_2351" data-name="Path 2351" class="cls-4" d="M56.352,21.739c.579.231.579.636,0,.926L33.038,32.153a3.387,3.387,0,0,1-2.14,0L7.584,22.665c-.579-.231-.579-.636,0-.926L30.9,11.674a3.387,3.387,0,0,1,2.14,0Z" transform="translate(-3.014 -0.854)"/>
      <path id="Path_2352" data-name="Path 2352" class="cls-5" d="M6.628,67.165a2.261,2.261,0,0,1-2.314,2.2A2.261,2.261,0,0,1,2,67.165C2,65.95,3.157,64.736,4.314,63,5.471,64.736,6.628,66.008,6.628,67.165Z" transform="translate(-0.843 -22.561)"/>
      <g id="Group_4684" data-name="Group 4684" transform="translate(21.983 13.805)">
        <path id="Path_2353" data-name="Path 2353" class="cls-6" d="M56.547,20.512,47.87,17.041a1.047,1.047,0,0,0-.926.058L44.63,18.256a1.164,1.164,0,0,0,1.041,2.083l1.851-.926,8.215,3.3a.984.984,0,0,0,.4.058,1.248,1.248,0,0,0,1.1-.752A1.175,1.175,0,0,0,56.547,20.512Z" transform="translate(-40.523 -16.961)"/>
        <circle id="Ellipse_446" data-name="Ellipse 446" class="cls-6" cx="1.157" cy="1.157" r="1.157" transform="translate(0 2.915)"/>
      </g>
      <g id="Group_4685" data-name="Group 4685" transform="translate(0 9.475)">
        <path id="Path_2354" data-name="Path 2354" class="cls-7" d="M53.743,19.845,44.95,16.258a1.155,1.155,0,0,0-.868,2.14l7.231,2.95L29.561,30.258a2.377,2.377,0,0,1-1.273,0L6.479,21.291l21.867-9.43a2.169,2.169,0,0,1,1.215,0l3.008,1.273a1.14,1.14,0,1,0,.926-2.083L30.429,9.779a4.02,4.02,0,0,0-3.066,0L4.05,19.845a1.8,1.8,0,0,0-1.041,1.041,1.143,1.143,0,0,0-.694,1.041V40.092a9.814,9.814,0,0,1-.579.81C.81,42.233,0,43.332,0,44.6A3.421,3.421,0,0,0,3.471,47.96,3.421,3.421,0,0,0,6.942,44.6c0-1.273-.81-2.43-1.736-3.7-.174-.289-.4-.521-.579-.81V23.084l6.942,2.835v14.52a1.23,1.23,0,0,0,.4.868,27.594,27.594,0,0,0,16.95,5.5c10.587,0,16.719-5.264,16.95-5.5a1.23,1.23,0,0,0,.4-.868V25.919l7.463-3.066a1.556,1.556,0,0,0,0-3.008ZM3.471,45.646A1.1,1.1,0,0,1,2.314,44.6a5.034,5.034,0,0,1,1.157-2.2,5.034,5.034,0,0,1,1.157,2.2A1.1,1.1,0,0,1,3.471,45.646Zm40.5-5.785a25.317,25.317,0,0,1-15.041,4.628,26.2,26.2,0,0,1-15.041-4.628V37.2a21.868,21.868,0,0,0,10.239,4.165H24.3a1.177,1.177,0,0,0,1.157-.983,1.124,1.124,0,0,0-.983-1.273,18.62,18.62,0,0,1-10.587-4.917V26.845L27.421,32.4a4.345,4.345,0,0,0,1.5.289,4.1,4.1,0,0,0,1.5-.289l13.537-5.554Z" transform="translate(0 -9.475)"/>
        <circle id="Ellipse_447" data-name="Ellipse 447" class="cls-7" cx="1.157" cy="1.157" r="1.157" transform="translate(27.768 30.386)"/>
        <circle id="Ellipse_448" data-name="Ellipse 448" class="cls-8" cx="1.157" cy="1.157" r="1.157" transform="translate(35.867 3.196)"/>
      </g>
    </g>
  </g>
</svg>
