<svg xmlns="http://www.w3.org/2000/svg" width="371.41" height="55.096" viewBox="0 0 371.41 55.096">
  <g id="Group_5838" data-name="Group 5838" transform="translate(-135.355 -208.266)">
    <path id="Path_2821" data-name="Path 2821" d="M203.668,222.182v13.878h9.271a6.678,6.678,0,0,0,7.009-6.9c0-4.466-3.024-6.982-7.009-6.982Zm0,20.464v11.306h-7.632V215.568h17.778c7.745,0,13.991,4.89,13.991,13.6,0,8.225-6.246,13.482-13.991,13.482Z" transform="translate(8.758 1.054)" fill="#fff"/>
    <path id="Path_2822" data-name="Path 2822" d="M234.986,240.355h13.454l-6.7-16.817Zm15.659,6.077H232.838l-2.855,7.518h-8.14l15.488-38.383h8.762l15.518,38.383h-8.141Z" transform="translate(12.483 1.054)" fill="#fff"/>
    <path id="Path_2823" data-name="Path 2823" d="M268.1,222.182v13.878h9.3a6.687,6.687,0,0,0,7.039-6.9c0-4.466-3.024-6.982-7.039-6.982Zm8.875,20.464H268.1v11.306h-7.632V215.568H278.28c7.745,0,14.019,4.918,14.019,13.567a13.166,13.166,0,0,1-7.49,12.069l10.175,12.719h-9.214Z" transform="translate(18.058 1.054)" fill="#fff"/>
    <rect id="Rectangle_2617" data-name="Rectangle 2617" width="7.632" height="38.384" transform="translate(318.3 216.622)" fill="#fff"/>
    <path id="Path_2824" data-name="Path 2824" d="M316.69,222.182v13.878h9.271a6.678,6.678,0,0,0,7.009-6.9c0-4.466-3.024-6.982-7.009-6.982Zm0,20.464v11.306h-7.631V215.568h17.778c7.745,0,13.991,4.89,13.991,13.6,0,8.225-6.246,13.482-13.991,13.482Z" transform="translate(25.07 1.054)" fill="#fff"/>
    <path id="Path_2825" data-name="Path 2825" d="M348.008,240.355h13.454l-6.7-16.817Zm15.659,6.077H345.86L343,253.951h-8.141l15.49-38.383h8.762l15.518,38.383h-8.141Z" transform="translate(28.794 1.054)" fill="#fff"/>
    <path id="Path_2826" data-name="Path 2826" d="M398.713,217.476l-.65,6.784c-2.006-1.187-6.982-2.459-11.108-2.459-4.155,0-7.123,1.272-7.123,4.438,0,3.194,2.714,3.759,5.343,4.551l5.54,1.639c6.332,1.866,9.949,4.58,9.949,10.458,0,6.812-5.794,11.7-14.556,11.7-5.426,0-11.56-1.356-14.217-2.826l.621-6.812c1.894,1.188,8.141,2.855,12.917,2.855,4.042,0,7.264-1.413,7.264-4.551,0-2.431-1.442-3.5-4.692-4.38l-6.076-1.64c-4.891-1.329-10.035-3.985-10.035-10.373,0-7.094,5.568-11.785,14.528-11.785a29.363,29.363,0,0,1,12.295,2.4" transform="translate(34.138 0.983)" fill="#fff"/>
    <path id="Path_2827" data-name="Path 2827" d="M427.415,217.476l-.65,6.784c-2.007-1.187-6.982-2.459-11.108-2.459-4.155,0-7.123,1.272-7.123,4.438,0,3.194,2.714,3.759,5.343,4.551l5.54,1.639c6.332,1.866,9.949,4.58,9.949,10.458,0,6.812-5.794,11.7-14.557,11.7-5.426,0-11.56-1.356-14.217-2.826l.622-6.812c1.894,1.188,8.14,2.855,12.917,2.855,4.042,0,7.264-1.413,7.264-4.551,0-2.431-1.442-3.5-4.693-4.38l-6.076-1.64c-4.89-1.329-10.035-3.985-10.035-10.373,0-7.094,5.569-11.785,14.528-11.785a29.369,29.369,0,0,1,12.3,2.4" transform="translate(38.281 0.983)" fill="#fff"/>
    <path id="Path_2828" data-name="Path 2828" d="M430.627,215.568h7.6V239.82c0,5.482,3.958,7.857,9.129,7.857,5.512,0,9.187-2.6,9.187-7.857V215.568h7.6v24.76c0,10.006-8,14.19-16.79,14.19-9.5,0-16.732-4.522-16.732-14.19Z" transform="translate(42.616 1.054)" fill="#fff"/>
    <path id="Path_2829" data-name="Path 2829" d="M166.922,208.266c-2.492,10.738-4.511,31.105-5.774,46.43A287.316,287.316,0,0,1,177,213.3a27.973,27.973,0,0,0-10.083-5.03" transform="translate(3.723)" fill="#fff"/>
    <path id="Path_2830" data-name="Path 2830" d="M187.609,233.373v-.016a27.962,27.962,0,0,0-2.259-11.045,206.683,206.683,0,0,0-23.17,34.813,137.713,137.713,0,0,1,25.429-23.752" transform="translate(3.872 2.027)" fill="#fff"/>
    <path id="Path_2831" data-name="Path 2831" d="M161.767,258.082a28.047,28.047,0,0,0,21.723-13.24,127.716,127.716,0,0,0-21.723,13.24" transform="translate(3.812 5.279)" fill="#fff"/>
    <path id="Path_2832" data-name="Path 2832" d="M154.835,208.266c2.492,10.738,4.511,31.105,5.774,46.43a287.45,287.45,0,0,0-15.857-41.4,27.964,27.964,0,0,1,10.083-5.03" transform="translate(1.356)" fill="#fff"/>
    <path id="Path_2833" data-name="Path 2833" d="M135.355,233.373v-.016a27.963,27.963,0,0,1,2.259-11.045,206.68,206.68,0,0,1,23.17,34.813,137.748,137.748,0,0,0-25.429-23.752" transform="translate(0 2.027)" fill="#fff"/>
    <path id="Path_2834" data-name="Path 2834" d="M160.729,258.082a28.047,28.047,0,0,1-21.723-13.24,127.715,127.715,0,0,1,21.723,13.24" transform="translate(0.527 5.279)" fill="#fff"/>
  </g>
</svg>
