<svg xmlns="http://www.w3.org/2000/svg" width="916.339" height="916.448" viewBox="0 0 916.339 916.448">
  <g id="Grupo_10623" data-name="Grupo 10623" transform="translate(9266.91 16781.33)">
    <g id="Grupo_10466" data-name="Grupo 10466" transform="translate(-10689.42 -17222.365)">
      <path id="Caminho_4347" data-name="Caminho 4347" d="M1837.5,442.5q205.29-14.881,357,121.5,166.335,162.453,141,397.5-27,174.1-158,288-179.37,144.69-406,95.5-180.93-49.215-281-204.5-105.765-178.575-47-380,63.51-187.462,240-275.5A491.347,491.347,0,0,1,1837.5,442.5Zm23,103a416.92,416.92,0,0,1,183,34.5q147.525,71.583,187.5,231.5,26.355,115.872-15,227-48.345,119.595-164.5,179-129.18,59.085-268,26.5-108.9-27.3-182.5-111.5a345.159,345.159,0,0,1-63-117q-44.04-150.24,24.5-289,65.415-118.809,195-161.5A466.267,466.267,0,0,1,1860.5,545.5Z" fill="#f58221" fill-rule="evenodd" opacity="0.96"/>
    </g>
    <g id="Grupo_10467" data-name="Grupo 10467" transform="translate(-10689.42 -17222.365)">
      <path id="Caminho_4348" data-name="Caminho 4348" d="M1874.5,472.5h7q.675,19.027,2,38a12.92,12.92,0,0,1-5-.5q-8.175-9.612-16-19.5a110.9,110.9,0,0,0-1,21h-7q-1.35-18.961-1-38a13.117,13.117,0,0,1,7,1q7.11,8.732,13.5,18A199.178,199.178,0,0,0,1874.5,472.5Z" fill="#fff7f2" fill-rule="evenodd"/>
    </g>
    <g id="Grupo_10468" data-name="Grupo 10468" transform="translate(-10689.42 -17222.365)">
      <path id="Caminho_4349" data-name="Caminho 4349" d="M1897.5,479.5a7.164,7.164,0,0,1-2-6q12.165-.166,25,0v7a19.361,19.361,0,0,1-8-1,14.629,14.629,0,0,0-1.5,5q-.495,13-1,26a5.981,5.981,0,0,1-6.5,0,130.68,130.68,0,0,1,0-31Z" fill="#fff7f1" fill-rule="evenodd"/>
    </g>
    <g id="Grupo_10469" data-name="Grupo 10469" transform="translate(-10689.42 -17222.365)">
      <path id="Caminho_4350" data-name="Caminho 4350" d="M1895.5,473.5a7.164,7.164,0,0,0,2,6h-3A9.65,9.65,0,0,1,1895.5,473.5Z" fill="#fac79b" fill-rule="evenodd"/>
    </g>
    <g id="Grupo_10470" data-name="Grupo 10470" transform="translate(-10689.42 -17222.365)">
      <path id="Caminho_4351" data-name="Caminho 4351" d="M1835.5,482.5h-7a6.886,6.886,0,0,0,1,5v4h8v6a2.866,2.866,0,0,0-3,1h-4a6.886,6.886,0,0,0,1,5v4a73.389,73.389,0,0,1,12-1v7q-9.48.915-19,1-1.665-18.082-3.5-36a40.789,40.789,0,0,1,16.5-2.5,12.194,12.194,0,0,1,1,6.5Z" fill="#fff7f1" fill-rule="evenodd"/>
    </g>
    <g id="Grupo_10471" data-name="Grupo 10471" transform="translate(-10689.42 -17222.365)">
      <path id="Caminho_4352" data-name="Caminho 4352" d="M1962.5,492.5a32.065,32.065,0,0,1-2,13q-9.69,17.27-25.5,6c-1.33-2-2.67-4-4-6q-3.45-14.649,6.5-25.5Q1957.885,470.2,1962.5,492.5Z" fill="#fff8f3" fill-rule="evenodd"/>
    </g>
    <g id="Grupo_10472" data-name="Grupo 10472" transform="translate(-10689.42 -17222.365)">
      <path id="Caminho_4353" data-name="Caminho 4353" d="M1806.5,493.5a10.055,10.055,0,0,0,3,8,74.589,74.589,0,0,1,4,16,11.992,11.992,0,0,0-6,1,46.368,46.368,0,0,1-6-16q.165-2.818-1.5-1-.96,5.986-1.5,12a13.135,13.135,0,0,1-1,7,3.833,3.833,0,0,1-4,.5L1783,506.5a148.008,148.008,0,0,1,1,17c-1.78.74-3.62,1.407-5.5,2q-3.54-19.046-7-38a14.862,14.862,0,0,1,7,0q7.005,10,14,20,1.59-12.523,3.5-25a5.7,5.7,0,0,1,7-1Q1804.6,487.57,1806.5,493.5Z" fill="#fff8f3" fill-rule="evenodd"/>
    </g>
    <g id="Grupo_10473" data-name="Grupo 10473" transform="translate(-10689.42 -17222.365)">
      <path id="Caminho_4354" data-name="Caminho 4354" d="M1835.5,482.5a9.6,9.6,0,0,1-6,1v4a6.886,6.886,0,0,1-1-5Z" fill="#fab77e" fill-rule="evenodd"/>
    </g>
    <g id="Grupo_10474" data-name="Grupo 10474" transform="translate(-10689.42 -17222.365)">
      <path id="Caminho_4355" data-name="Caminho 4355" d="M1943.5,484.5q10.815-1.434,11,9.5a31.875,31.875,0,0,1-3.5,11.5q-6.165,6.33-11-1A22.293,22.293,0,0,1,1943.5,484.5Z" fill="#f58324" fill-rule="evenodd"/>
    </g>
    <g id="Grupo_10475" data-name="Grupo 10475" transform="translate(-10689.42 -17222.365)">
      <path id="Caminho_4356" data-name="Caminho 4356" d="M2009.5,499.5a72.809,72.809,0,0,0,1,17,1.1,1.1,0,0,0,1-1q7.665-9.066,15-18.5a5.508,5.508,0,0,1,6,4,201.381,201.381,0,0,0-8,34.5q-5.355.91-8-3.5a93.147,93.147,0,0,1,4-14.5c-.33-.333-.67-.667-1-1q-5.22,6.968-11,13.5a4.158,4.158,0,0,1-4.5-.5,41.1,41.1,0,0,1-.5-9,31.164,31.164,0,0,0-1-11,1.1,1.1,0,0,0-1,1,62.242,62.242,0,0,1-6,15.5,18.372,18.372,0,0,1-6-1,3.919,3.919,0,0,1-1-2q6.66-16.711,13-33.5a24.926,24.926,0,0,1,7.5,2A32.509,32.509,0,0,1,2009.5,499.5Z" fill="#fff7f1" fill-rule="evenodd"/>
    </g>
    <g id="Grupo_10476" data-name="Grupo 10476" transform="translate(-10689.42 -17222.365)">
      <path id="Caminho_4357" data-name="Caminho 4357" d="M1749.5,494.5h5a281.909,281.909,0,0,1,11,36,14.972,14.972,0,0,1-7.5,0q-5.91-17.5-11.5-35A2.866,2.866,0,0,0,1749.5,494.5Z" fill="#fff7f0" fill-rule="evenodd"/>
    </g>
    <g id="Grupo_10477" data-name="Grupo 10477" transform="translate(-10689.42 -17222.365)">
      <path id="Caminho_4358" data-name="Caminho 4358" d="M1806.5,493.5a28.622,28.622,0,0,1,3,8A10.055,10.055,0,0,1,1806.5,493.5Z" fill="#fdcfa9" fill-rule="evenodd"/>
    </g>
    <g id="Grupo_10478" data-name="Grupo 10478" transform="translate(-10689.42 -17222.365)">
      <path id="Caminho_4359" data-name="Caminho 4359" d="M1837.5,491.5a12.853,12.853,0,0,1,1,7h0A12.853,12.853,0,0,0,1837.5,491.5Z" fill="#fbcca5" fill-rule="evenodd"/>
    </g>
    <g id="Grupo_10479" data-name="Grupo 10479" transform="translate(-10689.42 -17222.365)">
      <path id="Caminho_4360" data-name="Caminho 4360" d="M1834.5,498.5a2.866,2.866,0,0,1-3,1v4a6.886,6.886,0,0,1-1-5Z" fill="#f8aa68" fill-rule="evenodd"/>
    </g>
    <g id="Grupo_10480" data-name="Grupo 10480" transform="translate(-10689.42 -17222.365)">
      <path id="Caminho_4361" data-name="Caminho 4361" d="M1962.5,492.5a14.186,14.186,0,0,1,.5,9,4.953,4.953,0,0,1-2.5,4A32.065,32.065,0,0,0,1962.5,492.5Z" fill="#f89f55" fill-rule="evenodd"/>
    </g>
    <g id="Grupo_10481" data-name="Grupo 10481" transform="translate(-10689.42 -17222.365)">
      <path id="Caminho_4362" data-name="Caminho 4362" d="M2069.5,503.5h5a7.1,7.1,0,0,1-1,5,28.821,28.821,0,0,1-10,1,6.808,6.808,0,0,0-1-4Q2066.2,504.5,2069.5,503.5Z" fill="#ffedde" fill-rule="evenodd"/>
    </g>
    <g id="Grupo_10482" data-name="Grupo 10482" transform="translate(-10689.42 -17222.365)">
      <path id="Caminho_4363" data-name="Caminho 4363" d="M1718.5,505.5q25.26,1.4,22.5,27a20.375,20.375,0,0,1-6.5,8.5q-6.615,2.327-13,4.5-6.045-16.605-13-33c.33-.667.67-1.333,1-2A26.165,26.165,0,0,0,1718.5,505.5Z" fill="#fff7f2" fill-rule="evenodd"/>
    </g>
    <g id="Grupo_10483" data-name="Grupo 10483" transform="translate(-10689.42 -17222.365)">
      <path id="Caminho_4365" data-name="Caminho 4365" d="M2009.5,499.5q1.005,8,2,16a1.1,1.1,0,0,1-1,1A72.809,72.809,0,0,1,2009.5,499.5Z" fill="#f8a864" fill-rule="evenodd"/>
    </g>
    <g id="Grupo_10484" data-name="Grupo 10484" transform="translate(-10689.42 -17222.365)">
      <path id="Caminho_4366" data-name="Caminho 4366" d="M1801.5,502.5a52.7,52.7,0,0,1-3,11q.54-6.014,1.5-12Q1801.665,499.682,1801.5,502.5Z" fill="#faaf70" fill-rule="evenodd"/>
    </g>
    <g id="Grupo_10485" data-name="Grupo 10485" transform="translate(-10689.42 -17222.365)">
      <path id="Caminho_4367" data-name="Caminho 4367" d="M2052.5,510.5q24.465-1.273,19.5,23-5.07,12.836-18.5,15-14.25-2-14-16.5Q2040.19,517.6,2052.5,510.5Z" fill="#fff8f3" fill-rule="evenodd"/>
    </g>
    <g id="Grupo_10486" data-name="Grupo 10486" transform="translate(-10689.42 -17222.365)">
      <path id="Caminho_4368" data-name="Caminho 4368" d="M1718.5,513.5q10.935-1.411,14.5,9a25.125,25.125,0,0,1,0,10,11.027,11.027,0,0,1-5.5,4q-5.37-10.257-10-21C1717.86,514.817,1718.2,514.15,1718.5,513.5Z" fill="#f58324" fill-rule="evenodd"/>
    </g>
    <g id="Grupo_10487" data-name="Grupo 10487" transform="translate(-10689.42 -17222.365)">
      <path id="Caminho_4369" data-name="Caminho 4369" d="M2001.5,510.5a1.1,1.1,0,0,1,1-1,31.164,31.164,0,0,1,1,11C2002.83,517.167,2002.17,513.833,2001.5,510.5Z" fill="#fab77f" fill-rule="evenodd"/>
    </g>
    <g id="Grupo_10488" data-name="Grupo 10488" transform="translate(-10689.42 -17222.365)">
      <path id="Caminho_4370" data-name="Caminho 4370" d="M2055.5,517.5q9.45-1.545,10,8-.675,12.41-12.5,15-5.49-1.248-6.5-7A20.58,20.58,0,0,1,2055.5,517.5Z" fill="#f58425" fill-rule="evenodd"/>
    </g>
    <g id="Grupo_10489" data-name="Grupo 10489" transform="translate(-10689.42 -17222.365)">
      <path id="Caminho_4371" data-name="Caminho 4371" d="M1691.5,518.5a5.383,5.383,0,0,1,3.5,3q7.8,14.6,15.5,29a4.443,4.443,0,0,1-2.5,4,259.025,259.025,0,0,1-23.5-12c-.33.333-.67.667-1,1a144.487,144.487,0,0,1,9,17.5q-3.03,5.526-7.5,1.5-7.875-15.242-16.5-30c1.67-1.333,3.33-2.667,5-4q10.92,5.831,21.5,12a60.724,60.724,0,0,0-8.5-17.5A12.507,12.507,0,0,1,1691.5,518.5Z" fill="#fff7f1" fill-rule="evenodd"/>
    </g>
    <g id="Grupo_10490" data-name="Grupo 10490" transform="translate(-10689.42 -17222.365)">
      <path id="Caminho_4372" data-name="Caminho 4372" d="M2083.5,547.5a11.16,11.16,0,0,0,2-7,119.034,119.034,0,0,0,3-15,16.06,16.06,0,0,1,8,4.5,113.509,113.509,0,0,0-5.5,21.5q7.755-7.75,15.5-15.5a18.855,18.855,0,0,1,7,4q-14.28,13.527-29,26.5a11.825,11.825,0,0,1-5-4.5Q2081.24,554.487,2083.5,547.5Z" fill="#fff6f0" fill-rule="evenodd"/>
    </g>
    <g id="Grupo_10491" data-name="Grupo 10491" transform="translate(-10689.42 -17222.365)">
      <path id="Caminho_4373" data-name="Caminho 4373" d="M1653.5,541.5a6.224,6.224,0,0,1,6,4.5,74.812,74.812,0,0,0-8,6.5,7.771,7.771,0,0,1,3,6,6.946,6.946,0,0,0,6-3.5,2.5,2.5,0,0,1,3,0,33.1,33.1,0,0,0,3,4.5,32.365,32.365,0,0,1-5.5,4,11.618,11.618,0,0,0,4,8,39.883,39.883,0,0,1,8.5-6,21.586,21.586,0,0,1,4,5q-6.75,5.492-14,10.5c-.83.688-1.5.521-2-.5q-10.32-14.56-20-29.5Q1647.32,545.919,1653.5,541.5Z" fill="#fff8f3" fill-rule="evenodd"/>
    </g>
    <g id="Grupo_10492" data-name="Grupo 10492" transform="translate(-10689.42 -17222.365)">
      <path id="Caminho_4374" data-name="Caminho 4374" d="M2085.5,540.5a11.16,11.16,0,0,1-2,7A11.16,11.16,0,0,1,2085.5,540.5Z" fill="#fbcba2" fill-rule="evenodd"/>
    </g>
    <g id="Grupo_10493" data-name="Grupo 10493" transform="translate(-10689.42 -17222.365)">
      <path id="Caminho_4375" data-name="Caminho 4375" d="M2123.5,547.5a31.554,31.554,0,0,1,15,10.5,20.024,20.024,0,0,1-3,4.5,20.634,20.634,0,0,0-9-4.5,50.391,50.391,0,0,0-4,5.5,21.49,21.49,0,0,0,5,4q1.5,4.113-3,6l-6-4a11.34,11.34,0,0,0-4.5,8,20.8,20.8,0,0,1,7.5,6.5,11.449,11.449,0,0,1-3.5,4.5q-6.12-4.435-12.5-8.5a4.678,4.678,0,0,1-2-3Q2113.7,562.32,2123.5,547.5Z" fill="#fff7f1" fill-rule="evenodd"/>
    </g>
    <g id="Grupo_10494" data-name="Grupo 10494" transform="translate(-10689.42 -17222.365)">
      <path id="Caminho_4376" data-name="Caminho 4376" d="M1628.5,558.5a17.78,17.78,0,0,1,5,5,25.465,25.465,0,0,0-6,6q9.315,11.553,18,23.5a11.825,11.825,0,0,1-5,4.5q-9.735-10.992-19-22.5a1.25,1.25,0,0,0-2,0,32.451,32.451,0,0,0-5,4.5,16.942,16.942,0,0,1-4-5.5Q1619.32,565.927,1628.5,558.5Z" fill="#fff7f1" fill-rule="evenodd"/>
    </g>
    <g id="Grupo_10495" data-name="Grupo 10495" transform="translate(-10689.42 -17222.365)">
      <path id="Caminho_4377" data-name="Caminho 4377" d="M2150.5,566.5a11.036,11.036,0,0,1,6,5q-10.065,11.063-19,23a45.516,45.516,0,0,0,8,8,7.762,7.762,0,0,1-4,5,86.125,86.125,0,0,1-9-6.5,21.381,21.381,0,0,1-5-6Q2138.735,580.52,2150.5,566.5Z" fill="#fff6f0" fill-rule="evenodd"/>
    </g>
    <g id="Grupo_10496" data-name="Grupo 10496" transform="translate(-10689.42 -17222.365)">
      <path id="Caminho_4378" data-name="Caminho 4378" d="M1591.5,589.5a225.2,225.2,0,0,1,35,19.5,17.906,17.906,0,0,1-5.5,4.5,16.288,16.288,0,0,0-7.5-2.5,38.871,38.871,0,0,0-5,5.5q6.855,7.4-2,12-8.61-17.721-18-35Q1590.03,591.472,1591.5,589.5Z" fill="#fff8f3" fill-rule="evenodd"/>
    </g>
    <g id="Grupo_10497" data-name="Grupo 10497" transform="translate(-10689.42 -17222.365)">
      <path id="Caminho_4381" data-name="Caminho 4381" d="M2189.5,602.5a28.542,28.542,0,0,1,11.5,12q1.29,26.7-25.5,25.5a27.929,27.929,0,0,1-11.5-13.5Q2177.05,614.7,2189.5,602.5Z" fill="#fff8f2" fill-rule="evenodd"/>
    </g>
    <g id="Grupo_10498" data-name="Grupo 10498" transform="translate(-10689.42 -17222.365)">
      <path id="Caminho_4382" data-name="Caminho 4382" d="M1600.5,601.5a35.8,35.8,0,0,0,7,4c1.02.5,1.19,1.168.5,2a2.683,2.683,0,0,1-3.5,1.5A16.469,16.469,0,0,1,1600.5,601.5Z" fill="#f6872e" fill-rule="evenodd"/>
    </g>
    <g id="Grupo_10499" data-name="Grupo 10499" transform="translate(-10689.42 -17222.365)">
      <path id="Caminho_4383" data-name="Caminho 4383" d="M2189.5,613.5q4.98-.016,5,5-2.715,15.109-18,13.5l-3-3Q2181.9,621.57,2189.5,613.5Z" fill="#f58425" fill-rule="evenodd"/>
    </g>
    <g id="Grupo_10500" data-name="Grupo 10500" transform="translate(-10689.42 -17222.365)">
      <path id="Caminho_4384" data-name="Caminho 4384" d="M1797.5,622.5h167q-.255,63.5.5,127a4.487,4.487,0,0,1,1.5-2q51.45-27.223,102-56a20.5,20.5,0,0,1,10-3.5q37.02,67.871,75,138a66.588,66.588,0,0,1,5,12.5,25.944,25.944,0,0,0-9,3.5q-50.25,28.375-100,57.5,50.37,27.435,101,54a42.134,42.134,0,0,1,7,6,56.251,56.251,0,0,1-5.5,13q-37.74,67.44-75.5,137a3.2,3.2,0,0,1-4,.5q-53.97-31.485-107.5-63.5-.255,65.01-1.5,130-83.445,1.74-167,.5a6.866,6.866,0,0,1-3-1.5q2.8-64.44,3.5-129-52.125,31.935-104.5,63.5a3.2,3.2,0,0,1-4-.5q-40.05-68.04-77-134.5-4.485-6.444-9-13,53.565-32.031,108-63-49.83-28.944-99-59a8.781,8.781,0,0,0-5-1.5,30.624,30.624,0,0,1,4.5-12q39.345-71.407,79-143,53.505,33,107,66Q1797.75,686,1797.5,622.5Z" fill="#f79320" fill-rule="evenodd" opacity="0.894"/>
    </g>
    <g id="Grupo_10501" data-name="Grupo 10501" transform="translate(-10689.42 -17222.365)">
      <path id="Caminho_4385" data-name="Caminho 4385" d="M1556.5,627.5a7.023,7.023,0,0,1,6,3.5,88.664,88.664,0,0,0-5,7.5,11.1,11.1,0,0,0,6,5c1.67-2,3.33-4,5-6a25.442,25.442,0,0,1,4.5,4,28.273,28.273,0,0,1-3.5,7,16.617,16.617,0,0,0,6,5,88.116,88.116,0,0,1,7.5-8q3.855,1.317,4,5a153.022,153.022,0,0,1-11,13q-13.98-10.978-28-22a2.49,2.49,0,0,1,0-3A131.039,131.039,0,0,0,1556.5,627.5Z" fill="#fff7f1" fill-rule="evenodd"/>
    </g>
    <g id="Grupo_10502" data-name="Grupo 10502" transform="translate(-10689.42 -17222.365)">
      <path id="Caminho_4389" data-name="Caminho 4389" d="M1952.5,633.5q-.495,67.508,1,135a1.1,1.1,0,0,0,1-1q56.385-30.437,112-61.5a9.759,9.759,0,0,1,7-2q35.22,64.679,70,129.5-58.35,33.188-117,66.5,50.61,28.8,102,56a57.129,57.129,0,0,1,12,8q-35.49,65.7-71.5,131.5a1.664,1.664,0,0,1-2.5.5q-55.545-32.76-111-65.5a2.868,2.868,0,0,0-3-1v135h-147v-64q.54-35.52,0-71-55.065,31.815-109,65.5a2.49,2.49,0,0,1-3,0q-36.93-65.115-75-129.5,55.7-33.106,112-65.5-51.585-31.05-104-61a58.081,58.081,0,0,1-7-5.5q35.7-65.4,71.5-131a4.3,4.3,0,0,1,5.5.5q53.46,33.227,108,64.5a2.866,2.866,0,0,0,3,1v-135Z" fill="#fefcfb" fill-rule="evenodd"/>
    </g>
    <g id="Grupo_10503" data-name="Grupo 10503" transform="translate(-10689.42 -17222.365)">
      <path id="Caminho_4390" data-name="Caminho 4390" d="M1952.5,632.5v1h-145v135a2.866,2.866,0,0,1-3-1q2.985-66.981,2-135Z" fill="#fcd5a9" fill-rule="evenodd"/>
    </g>
    <g id="Grupo_10504" data-name="Grupo 10504" transform="translate(-10689.42 -17222.365)">
      <path id="Caminho_4391" data-name="Caminho 4391" d="M1952.5,632.5q1.005,67.5,2,135a1.1,1.1,0,0,1-1,1q-1.5-67.492-1-135Z" fill="#f8a13a" fill-rule="evenodd"/>
    </g>
    <g id="Grupo_10505" data-name="Grupo 10505" transform="translate(-10689.42 -17222.365)">
      <path id="Caminho_4392" data-name="Caminho 4392" d="M2216.5,633.5a44.469,44.469,0,0,1,12,14,26.042,26.042,0,0,1-4.5,4,25.7,25.7,0,0,1-5.5-6.5,7.643,7.643,0,0,0-7,4q1.98,2.985,4,6a31.794,31.794,0,0,1-5,4.5,11.067,11.067,0,0,0-7-5.5,31.794,31.794,0,0,1-5,4.5q3.195,4.145,6,8.5a13.467,13.467,0,0,1-4.5,4.5,97.072,97.072,0,0,1-11.5-15Q2202.54,644.988,2216.5,633.5Z" fill="#fff7f1" fill-rule="evenodd"/>
    </g>
    <g id="Grupo_10506" data-name="Grupo 10506" transform="translate(-10689.42 -17222.365)">
      <path id="Caminho_4394" data-name="Caminho 4394" d="M1935.5,654.5q1.005,72,2,144v1Q1934.5,727.518,1935.5,654.5Z" fill="#f2d2d4" fill-rule="evenodd"/>
    </g>
    <g id="Grupo_10507" data-name="Grupo 10507" transform="translate(-10689.42 -17222.365)">
      <path id="Caminho_4395" data-name="Caminho 4395" d="M1824.5,654.5q.99,73.017-2,145v-1Q1823.505,726.5,1824.5,654.5Z" fill="#f5e0e1" fill-rule="evenodd"/>
    </g>
    <g id="Grupo_10508" data-name="Grupo 10508" transform="translate(-10689.42 -17222.365)">
      <path id="Caminho_4396" data-name="Caminho 4396" d="M1824.5,654.5h1v146a2.866,2.866,0,0,1-3-1Q1825.5,727.518,1824.5,654.5Z" fill="#ce5459" fill-rule="evenodd"/>
    </g>
    <g id="Grupo_10509" data-name="Grupo 10509" transform="translate(-10689.42 -17222.365)">
      <path id="Caminho_4397" data-name="Caminho 4397" d="M1825.5,655.5h109v144q-1.5-71.246-1-143h-107q.495,72.255-1,144Z" fill="#bd1a20" fill-rule="evenodd"/>
    </g>
    <g id="Grupo_10510" data-name="Grupo 10510" transform="translate(-10689.42 -17222.365)">
      <path id="Caminho_4398" data-name="Caminho 4398" d="M1934.5,799.5q1.5,2,3,0v-1q64.56-34.9,128.5-71a3.947,3.947,0,0,1,2,1q26.415,49.039,52.5,98-64.74,36.12-129,73,63.255,35.38,127,70-27.405,49.3-54,99a3.2,3.2,0,0,1-4,.5q-60.8-35.145-122-69.5a.882.882,0,0,0-1-1q-1.5-2-3,0-1.5,74.25-1,149h-109q.495-23.265-1-46v-34q.06-35.145,0-70-60.765,37.14-123,72-29.46-48.66-57-98.5,15.21-9.859,31-19,40.965-22.952,82-46,4.56-3.269,9-6.5-61.44-35.95-122-72.5,27.18-50.359,55-100,62.055,35.289,124,71.5v1a2.866,2.866,0,0,0,3,1q1.5-71.745,1-144h107Q1933.005,728.254,1934.5,799.5Z" fill="#c1272d" fill-rule="evenodd"/>
    </g>
    <g id="Grupo_10511" data-name="Grupo 10511" transform="translate(-10689.42 -17222.365)">
      <path id="Caminho_4399" data-name="Caminho 4399" d="M1825.5,655.5v-1h110q-.99,73.017,2,145-1.5,2-3,0v-144Z" fill="#ca484d" fill-rule="evenodd"/>
    </g>
    <g id="Grupo_10512" data-name="Grupo 10512" transform="translate(-10689.42 -17222.365)">
      <path id="Caminho_4400" data-name="Caminho 4400" d="M1536.5,658.5q18.75-.984,26.5,16a9.206,9.206,0,0,1,0,6,89.909,89.909,0,0,1-7.5,13.5,2.5,2.5,0,0,1-3,0,36.043,36.043,0,0,0-7-4,201.022,201.022,0,0,1-22-16A30.059,30.059,0,0,1,1536.5,658.5Z" fill="#fff7f2" fill-rule="evenodd"/>
    </g>
    <g id="Grupo_10513" data-name="Grupo 10513" transform="translate(-10689.42 -17222.365)">
      <path id="Caminho_4401" data-name="Caminho 4401" d="M1537.5,666.5a19.673,19.673,0,0,1,17.5,9,12.44,12.44,0,0,1,0,7,3.437,3.437,0,0,1-4.5,1.5,120.329,120.329,0,0,1-17-12.5A14.977,14.977,0,0,1,1537.5,666.5Z" fill="#f58527" fill-rule="evenodd"/>
    </g>
    <g id="Grupo_10514" data-name="Grupo 10514" transform="translate(-10689.42 -17222.365)">
      <path id="Caminho_4402" data-name="Caminho 4402" d="M2247.5,677.5q5.565,1.644,4,7-10.26,6.379-21,12-5.67,4.632,0,9.5a6.5,6.5,0,0,0,5,0q10.65-6.45,21.5-12.5,5.04,1.094,4,6a178.67,178.67,0,0,1-24.5,14.5q-11.5,1.52-15.5-9.5-3.015-10.458,6.5-15.5Q2237.835,683.588,2247.5,677.5Z" fill="#fff7f1" fill-rule="evenodd"/>
    </g>
    <g id="Grupo_10515" data-name="Grupo 10515" transform="translate(-10689.42 -17222.365)">
      <path id="Caminho_4404" data-name="Caminho 4404" d="M1506.5,710.5q14.64-1.785,24.5,9,7.965,12.313-2.5,22.5-24.825,8.59-33-16.5A18.6,18.6,0,0,1,1506.5,710.5Z" fill="#fff6f0" fill-rule="evenodd"/>
    </g>
    <g id="Grupo_10516" data-name="Grupo 10516" transform="translate(-10689.42 -17222.365)">
      <path id="Caminho_4405" data-name="Caminho 4405" d="M2267.5,714.5a3.086,3.086,0,0,1,3,1q14.415,24.2-13,24-5.52,7.059-11,14a12.237,12.237,0,0,1-2.5-9,69.671,69.671,0,0,0,8.5-13,36.132,36.132,0,0,0-13,5,9.013,9.013,0,0,1-3.5-7Q2252.185,722.53,2267.5,714.5Z" fill="#fff8f3" fill-rule="evenodd"/>
    </g>
    <g id="Grupo_10517" data-name="Grupo 10517" transform="translate(-10689.42 -17222.365)">
      <path id="Caminho_4406" data-name="Caminho 4406" d="M1506.5,718.5q12-1.092,19.5,8,2.82,9.93-7.5,10a17.2,17.2,0,0,1-14.5-8A9.373,9.373,0,0,1,1506.5,718.5Z" fill="#f58222" fill-rule="evenodd"/>
    </g>
    <g id="Grupo_10518" data-name="Grupo 10518" transform="translate(-10689.42 -17222.365)">
      <path id="Caminho_4407" data-name="Caminho 4407" d="M2264.5,724.5q8.235,4.713-1.5,8a8.772,8.772,0,0,1-4.5-4A41.7,41.7,0,0,1,2264.5,724.5Z" fill="#f6872d" fill-rule="evenodd"/>
    </g>
    <g id="Grupo_10519" data-name="Grupo 10519" transform="translate(-10689.42 -17222.365)">
      <path id="Caminho_4408" data-name="Caminho 4408" d="M1486.5,747.5a11.124,11.124,0,0,1,7,3q-8.2,12.765,6,18.5,14.475,3.277,16-11.5a7.192,7.192,0,0,0,6,2,12.194,12.194,0,0,1-1,6.5,9.467,9.467,0,0,1,10.5,2.5,5.818,5.818,0,0,1-2.5,7,3,3,0,0,1-2-2,6.809,6.809,0,0,0,1-4,7.843,7.843,0,0,0-5.5,2,11.454,11.454,0,0,1-2.5-1q-18.12,14.721-34.5-2Q1479.615,757.477,1486.5,747.5Z" fill="#fff6f0" fill-rule="evenodd"/>
    </g>
    <g id="Grupo_10520" data-name="Grupo 10520" transform="translate(-10689.42 -17222.365)">
      <path id="Caminho_4409" data-name="Caminho 4409" d="M2269.5,753.5q15.12-2.313,22.5,11,3.48,9.759-6.5,10,.855-14.892-14-12.5-11.625,2.1-10.5,13.5,3.255,3.6,7,0a16.837,16.837,0,0,1,.5-5.5,18.44,18.44,0,0,1,6-.5q1.365,4.934,3,10a40.792,40.792,0,0,1-18,6.5Q2243.5,763.317,2269.5,753.5Z" fill="#fff6f0" fill-rule="evenodd"/>
    </g>
    <g id="Grupo_10521" data-name="Grupo 10521" transform="translate(-10689.42 -17222.365)">
      <path id="Caminho_4410" data-name="Caminho 4410" d="M1500.5,791.5a11.129,11.129,0,0,0,7,2,2.2,2.2,0,0,1,2,2,18.906,18.906,0,0,0-1,6l-36-9a42.1,42.1,0,0,1,1-8Q1487.15,787.43,1500.5,791.5Z" fill="#fff6ef" fill-rule="evenodd"/>
    </g>
    <g id="Grupo_10522" data-name="Grupo 10522" transform="translate(-10689.42 -17222.365)">
      <path id="Caminho_4411" data-name="Caminho 4411" d="M2294.5,790.5a6.868,6.868,0,0,1,5-1v4a2.867,2.867,0,0,1-1-3Z" fill="#fbc79b" fill-rule="evenodd"/>
    </g>
    <g id="Grupo_10523" data-name="Grupo 10523" transform="translate(-10689.42 -17222.365)">
      <path id="Caminho_4412" data-name="Caminho 4412" d="M2294.5,790.5h4a2.867,2.867,0,0,0,1,3,35.7,35.7,0,0,1,3,14,51.685,51.685,0,0,1-7,1,21.461,21.461,0,0,0-1-7v-3a11.13,11.13,0,0,0-7,2,1.907,1.907,0,0,0-2,1.5q5.34,7.755-4,8.5a37.977,37.977,0,0,1-3.5-8c-2.33.667-4.67,1.333-7,2q1.215,5.877,2.5,12a11.991,11.991,0,0,0-6,1,58.7,58.7,0,0,1-4.5-19A247.487,247.487,0,0,1,2294.5,790.5Z" fill="#fff6f0" fill-rule="evenodd"/>
    </g>
    <g id="Grupo_10524" data-name="Grupo 10524" transform="translate(-10689.42 -17222.365)">
      <path id="Caminho_4413" data-name="Caminho 4413" d="M1500.5,791.5a11.129,11.129,0,0,1,7,2A11.129,11.129,0,0,1,1500.5,791.5Z" fill="#fab276" fill-rule="evenodd"/>
    </g>
    <g id="Grupo_10525" data-name="Grupo 10525" transform="translate(-10689.42 -17222.365)">
      <path id="Caminho_4414" data-name="Caminho 4414" d="M1923.5,793.5a24.908,24.908,0,0,1,4,13A74.129,74.129,0,0,1,1923.5,793.5Z" fill="#e5b0b1" fill-rule="evenodd"/>
    </g>
    <g id="Grupo_10526" data-name="Grupo 10526" transform="translate(-10689.42 -17222.365)">
      <path id="Caminho_4415" data-name="Caminho 4415" d="M2294.5,801.5c-.65-.591-1.32-1.257-2-2a9.109,9.109,0,0,1-5,1,11.13,11.13,0,0,1,7-2Z" fill="#f9ad6d" fill-rule="evenodd"/>
    </g>
    <g id="Grupo_10527" data-name="Grupo 10527" transform="translate(-10689.42 -17222.365)">
      <path id="Caminho_4416" data-name="Caminho 4416" d="M1478.5,830.5a29.348,29.348,0,0,1-15-2,6.5,6.5,0,0,1,1-4.5l22-2q-9.87-5.185-20-9.5a17.845,17.845,0,0,1,2-8q16.875,8.809,33.5,18a7.964,7.964,0,0,1-.5,6.5Q1489.98,829.6,1478.5,830.5Z" fill="#fff8f2" fill-rule="evenodd"/>
    </g>
    <g id="Grupo_10528" data-name="Grupo 10528" transform="translate(-10689.42 -17222.365)">
      <path id="Caminho_4419" data-name="Caminho 4419" d="M2290.5,843.5a1.1,1.1,0,0,0-1,1,14.06,14.06,0,0,0,9,.5,2.242,2.242,0,0,0,1-1.5,13.792,13.792,0,0,1,10,0,11.988,11.988,0,0,1,1,6q-18.975,3.2-38,6a13.009,13.009,0,0,1,.5-5q9.015-9.273,18.5-18l-2.5-1a158.813,158.813,0,0,1-19.5,3v-7a298.581,298.581,0,0,1,37-6,24.938,24.938,0,0,1-.5,7Q2298.44,836.3,2290.5,843.5Z" fill="#fff9f4" fill-rule="evenodd"/>
    </g>
    <g id="Grupo_10529" data-name="Grupo 10529" transform="translate(-10689.42 -17222.365)">
      <path id="Caminho_4425" data-name="Caminho 4425" d="M1762.5,837.5a11.16,11.16,0,0,1,2,7A11.16,11.16,0,0,1,1762.5,837.5Z" fill="#db8d8f" fill-rule="evenodd"/>
    </g>
    <g id="Grupo_10530" data-name="Grupo 10530" transform="translate(-10689.42 -17222.365)">
      <path id="Caminho_4426" data-name="Caminho 4426" d="M2290.5,843.5a15.867,15.867,0,0,0,9,0,2.242,2.242,0,0,1-1,1.5,14.06,14.06,0,0,1-9-.5A1.1,1.1,0,0,1,2290.5,843.5Z" fill="#fddbbe" fill-rule="evenodd"/>
    </g>
    <g id="Grupo_10531" data-name="Grupo 10531" transform="translate(-10689.42 -17222.365)">
      <path id="Caminho_4428" data-name="Caminho 4428" d="M1496.5,846.5a9.65,9.65,0,0,1,1,6,2.852,2.852,0,0,1-1,2.5,71.027,71.027,0,0,0-15,5.5,3.083,3.083,0,0,0-1,3,89.366,89.366,0,0,0,15,1v5a7.137,7.137,0,0,1-6,2h-3a31.439,31.439,0,0,0-14-2q-7.485-.624-15-1,.375-7.528,1.5-15a9.855,9.855,0,0,1,7.5-6,24.934,24.934,0,0,1,8,1,17.417,17.417,0,0,1,6,4Q1488.585,849.441,1496.5,846.5Z" fill="#fff9f4" fill-rule="evenodd"/>
    </g>
    <g id="Grupo_10532" data-name="Grupo 10532" transform="translate(-10689.42 -17222.365)">
      <path id="Caminho_4429" data-name="Caminho 4429" d="M1496.5,846.5a1.1,1.1,0,0,1,1-1,6.764,6.764,0,0,1,0,7A9.65,9.65,0,0,0,1496.5,846.5Z" fill="#fab881" fill-rule="evenodd"/>
    </g>
    <g id="Grupo_10533" data-name="Grupo 10533" transform="translate(-10689.42 -17222.365)">
      <path id="Caminho_4431" data-name="Caminho 4431" d="M1923.5,793.5a74.129,74.129,0,0,0,4,13,48.139,48.139,0,0,1-5,30c.33.333.67.667,1,1a64.623,64.623,0,0,1,17-6,11.129,11.129,0,0,0,7-2,111.559,111.559,0,0,1,54-4c.33.5.67,1,1,1.5a338.981,338.981,0,0,0-10,40.5,11.16,11.16,0,0,0-2,7,52.869,52.869,0,0,0-3,14,10.717,10.717,0,0,0-2,6,25.6,25.6,0,0,0-10,1,125.9,125.9,0,0,0-32,8c-.67.333-1.33.667-2,1a425.727,425.727,0,0,0-61.5,29,224.244,224.244,0,0,0-45.5-23q-22.485-7.016-45-13a28.034,28.034,0,0,0-13-2h-3q-3.8-25.6-9-51a11.16,11.16,0,0,0-2-7c-.22-3.679-.56-7.346-1-11a145.668,145.668,0,0,1,73,11c.33-.333.67-.667,1-1q-16.47-42.023,21-66.5,34.455-13.572,60.5,12.5A45.8,45.8,0,0,1,1923.5,793.5Z" fill="#edecee" fill-rule="evenodd"/>
    </g>
    <g id="Grupo_10534" data-name="Grupo 10534" transform="translate(-10689.42 -17222.365)">
      <path id="Caminho_4432" data-name="Caminho 4432" d="M1765.5,835.5a100.606,100.606,0,0,1,5,23,2.246,2.246,0,0,1-1.5-1A132.3,132.3,0,0,1,1765.5,835.5Z" fill="#c7dff2" fill-rule="evenodd"/>
    </g>
    <g id="Grupo_10535" data-name="Grupo 10535" transform="translate(-10689.42 -17222.365)">
      <path id="Caminho_4433" data-name="Caminho 4433" d="M1770.5,858.5a100.606,100.606,0,0,0-5-23,9.125,9.125,0,0,0-1-5,14.707,14.707,0,0,1,5-1.5,122.175,122.175,0,0,1,27,1,289.692,289.692,0,0,1,68,23q2.175,34.168,4,68.5a363.847,363.847,0,0,0-80-27.5q-5.985-.963-12-1.5A302.237,302.237,0,0,0,1770.5,858.5Z" fill="#41a9f4" fill-rule="evenodd"/>
    </g>
    <g id="Grupo_10536" data-name="Grupo 10536" transform="translate(-10689.42 -17222.365)">
      <path id="Caminho_4434" data-name="Caminho 4434" d="M1947.5,829.5a11.129,11.129,0,0,1-7,2A11.129,11.129,0,0,1,1947.5,829.5Z" fill="#e0a5a6" fill-rule="evenodd"/>
    </g>
    <g id="Grupo_10537" data-name="Grupo 10537" transform="translate(-10689.42 -17222.365)">
      <path id="Caminho_4435" data-name="Caminho 4435" d="M1893.5,922.5a144.4,144.4,0,0,1-1-24,346.559,346.559,0,0,1,4-46.5,259.558,259.558,0,0,1,75-24q13.485-.75,27-.5-8.1,31.737-16,63.5a155.31,155.31,0,0,0-43,10Q1916.01,910.758,1893.5,922.5Z" fill="#40a9f4" fill-rule="evenodd"/>
    </g>
    <g id="Grupo_10538" data-name="Grupo 10538" transform="translate(-10689.42 -17222.365)">
      <path id="Caminho_4436" data-name="Caminho 4436" d="M1868.5,768.5q30.66-3.04,49.5,21,13.3,25.287-1,50-18.9,7.7-37,17a374.321,374.321,0,0,0-37.5-16q-15.81-23.3-3.5-49A59.043,59.043,0,0,1,1868.5,768.5Z" fill="#40a9f4" fill-rule="evenodd"/>
    </g>
    <g id="Grupo_10539" data-name="Grupo 10539" transform="translate(-10689.42 -17222.365)">
      <path id="Caminho_4437" data-name="Caminho 4437" d="M1870.5,856.5q4.8,1.774,9.5,4,4.755-2.262,9.5-4-1.515,35.032-4,70a19.776,19.776,0,0,1-4.5,3,22.622,22.622,0,0,1-7-4Q1871.63,891.026,1870.5,856.5Z" fill="#41a9f4" fill-rule="evenodd"/>
    </g>
    <g id="Grupo_10540" data-name="Grupo 10540" transform="translate(-10689.42 -17222.365)">
      <path id="Caminho_4439" data-name="Caminho 4439" d="M2313.5,888.5a12.856,12.856,0,0,1-7-1q2.775-13.5-11.5-13-16.44.144-10.5,15a8.719,8.719,0,0,1-7,.5q-7.335-19.228,13-24,13.95-2.522,22.5,8.5A20.31,20.31,0,0,1,2313.5,888.5Z" fill="#fff8f2" fill-rule="evenodd"/>
    </g>
    <g id="Grupo_10541" data-name="Grupo 10541" transform="translate(-10689.42 -17222.365)">
      <path id="Caminho_4440" data-name="Caminho 4440" d="M1472.5,869.5a31.439,31.439,0,0,1,14,2A50.745,50.745,0,0,1,1472.5,869.5Z" fill="#fdd5b3" fill-rule="evenodd"/>
    </g>
    <g id="Grupo_10542" data-name="Grupo 10542" transform="translate(-10689.42 -17222.365)">
      <path id="Caminho_4442" data-name="Caminho 4442" d="M1495.5,869.5v3a9.6,9.6,0,0,1-6-1,9.6,9.6,0,0,0,6,1Z" fill="#fbc89f" fill-rule="evenodd"/>
    </g>
    <g id="Grupo_10543" data-name="Grupo 10543" transform="translate(-10689.42 -17222.365)">
      <path id="Caminho_4444" data-name="Caminho 4444" d="M1992.5,867.5a11.16,11.16,0,0,1-2,7A11.16,11.16,0,0,1,1992.5,867.5Z" fill="#d36d6e" fill-rule="evenodd"/>
    </g>
    <g id="Grupo_10544" data-name="Grupo 10544" transform="translate(-10689.42 -17222.365)">
      <path id="Caminho_4446" data-name="Caminho 4446" d="M1467.5,892.5a6.868,6.868,0,0,0,5,1v-8h5a16.6,16.6,0,0,1,1,8h9v-11h7a169.74,169.74,0,0,0-1,19q-18.495-.738-37-1v-18h7v10Z" fill="#fff9f4" fill-rule="evenodd"/>
    </g>
    <g id="Grupo_10545" data-name="Grupo 10545" transform="translate(-10689.42 -17222.365)">
      <path id="Caminho_4449" data-name="Caminho 4449" d="M2306.5,887.5a12.856,12.856,0,0,0,7,1,8.687,8.687,0,0,1-8,0A1.1,1.1,0,0,1,2306.5,887.5Z" fill="#fabe8c" fill-rule="evenodd"/>
    </g>
    <g id="Grupo_10546" data-name="Grupo 10546" transform="translate(-10689.42 -17222.365)">
      <path id="Caminho_4451" data-name="Caminho 4451" d="M1987.5,888.5a51.421,51.421,0,0,1-1,7h-11a25.6,25.6,0,0,1,10-1A10.717,10.717,0,0,1,1987.5,888.5Z" fill="#cd585b" fill-rule="evenodd"/>
    </g>
    <g id="Grupo_10547" data-name="Grupo 10547" transform="translate(-10689.42 -17222.365)">
      <path id="Caminho_4452" data-name="Caminho 4452" d="M1776.5,895.5a28.034,28.034,0,0,1,13,2A68.545,68.545,0,0,1,1776.5,895.5Z" fill="#e7c1c2" fill-rule="evenodd"/>
    </g>
    <g id="Grupo_10548" data-name="Grupo 10548" transform="translate(-10689.42 -17222.365)">
      <path id="Caminho_4453" data-name="Caminho 4453" d="M2276.5,903.5a361.65,361.65,0,0,1,38-1v9a361.65,361.65,0,0,1-38-1h37v-7Z" fill="#fbc292" fill-rule="evenodd"/>
    </g>
    <g id="Grupo_10549" data-name="Grupo 10549" transform="translate(-10689.42 -17222.365)">
      <path id="Caminho_4454" data-name="Caminho 4454" d="M2276.5,903.5h37v7h-37Z" fill="#fefcfa" fill-rule="evenodd"/>
    </g>
    <g id="Grupo_10550" data-name="Grupo 10550" transform="translate(-10689.42 -17222.365)">
      <path id="Caminho_4456" data-name="Caminho 4456" d="M1941.5,904.5a5.767,5.767,0,0,0,2,5.5,86.7,86.7,0,0,1,20,3,14.929,14.929,0,0,1,4,3.5,12.019,12.019,0,0,0-6,3.5c.33.333.67.667,1,1a8.009,8.009,0,0,0-2,5.5q-6.585,1.1-7,8a35.2,35.2,0,0,0,5,10,50.478,50.478,0,0,0-10,.5,13,13,0,0,1-5.5,5.5,32.942,32.942,0,0,0,1.5,8h-3a30.894,30.894,0,0,0,4,10,46.532,46.532,0,0,1-5.5,6,75.945,75.945,0,0,0-3.5,7.5q-11.31-.933-10,10.5-8.385,5.283-8,15a82.222,82.222,0,0,0-12,3.5,31.589,31.589,0,0,1-11.5-.5,4.438,4.438,0,0,0-4.5,2q-16.995,3.915-34,7.5a4.379,4.379,0,0,0-1,3.5q-7.875,1.53-9-6h-3a13.506,13.506,0,0,1,1.5-13,6.47,6.47,0,0,0,0-5,19.931,19.931,0,0,0-8.5-1,3.488,3.488,0,0,0-2-4v-2a26.81,26.81,0,0,1,2-5.5,39.938,39.938,0,0,1-4-8.5q-1.725-4.629-7-4a182.009,182.009,0,0,1-27,3,4.6,4.6,0,0,0-2-4.5,64.47,64.47,0,0,1-22-3.5,17.716,17.716,0,0,0-6,4c-.33-.667-.67-1.333-1-2a39.039,39.039,0,0,0,2.5-8,8.359,8.359,0,0,1,5.5-2.5,48.312,48.312,0,0,1,4-7,109.217,109.217,0,0,0,12.5-1.5q5.355,2.6,8.5-2.5a181.937,181.937,0,0,1,26,1,22.548,22.548,0,0,1,7.5-5.5,51.19,51.19,0,0,0,1-12q-4.53-1.891.5-4a13.03,13.03,0,0,0,0-10,5.593,5.593,0,0,0-3-1,1.607,1.607,0,0,1-1-1.5,11.467,11.467,0,0,0,3-6.5,224.244,224.244,0,0,1,45.5,23A425.727,425.727,0,0,1,1941.5,904.5Z" fill="#cbcbcb" fill-rule="evenodd"/>
    </g>
    <g id="Grupo_10551" data-name="Grupo 10551" transform="translate(-10689.42 -17222.365)">
      <path id="Caminho_4457" data-name="Caminho 4457" d="M1491.5,933.5a9.6,9.6,0,0,1-6-1q3.915-5.188,0-10.5a4.248,4.248,0,0,0-4,0,26.2,26.2,0,0,1-12,12q-9.12,2.787-13.5-5.5a23.292,23.292,0,0,1,.5-11.5,8.719,8.719,0,0,1,7,.5,23.772,23.772,0,0,0-1,9q6.885.876,8.5-6,8.265-11.144,20.5-4.5a7.014,7.014,0,0,1,2.5,3.5,25.125,25.125,0,0,1,0,10A4.953,4.953,0,0,1,1491.5,933.5Z" fill="#fff7f1" fill-rule="evenodd"/>
    </g>
    <g id="Grupo_10552" data-name="Grupo 10552" transform="translate(-10689.42 -17222.365)">
      <path id="Caminho_4458" data-name="Caminho 4458" d="M1892.5,898.5a144.4,144.4,0,0,0,1,24,2.866,2.866,0,0,1-3,1Q1891.25,910.762,1892.5,898.5Z" fill="#7ec0f4" fill-rule="evenodd"/>
    </g>
    <g id="Grupo_10553" data-name="Grupo 10553" transform="translate(-10689.42 -17222.365)">
      <path id="Caminho_4459" data-name="Caminho 4459" d="M2310.5,934.5a2.866,2.866,0,0,0,3,1,18.374,18.374,0,0,1-.5,6q-2.925.914-5.5,2-15.66,2.931-31,7a12.853,12.853,0,0,1-1-7,14.531,14.531,0,0,1,9-2v-10q-11.55.747-7-10Q2293.745,928.773,2310.5,934.5Z" fill="#fff7f2" fill-rule="evenodd"/>
    </g>
    <g id="Grupo_10554" data-name="Grupo 10554" transform="translate(-10689.42 -17222.365)">
      <path id="Caminho_4461" data-name="Caminho 4461" d="M1943.5,903.5a6.5,6.5,0,0,0,1,4.5,11.523,11.523,0,0,0,7-.5,164.335,164.335,0,0,1,17,6.5,4.941,4.941,0,0,1,1,2.5,18.17,18.17,0,0,1-6.5,7c-.33,1.333-.67,2.667-1,4q-7.32,1.789-6,9,13.065,15.355-6.5,10v3a4.428,4.428,0,0,0-5,3,15.909,15.909,0,0,1,3,7,10.252,10.252,0,0,1-4,1.5q6.945,9.036-2.5,15.5-1.755,3.513-3.5,7-3.81.922-7.5,2a25.806,25.806,0,0,1-2,8,23.9,23.9,0,0,0-9.5,14q-.39-9.72,8-15-1.32-11.433,10-10.5a75.945,75.945,0,0,1,3.5-7.5,46.532,46.532,0,0,0,5.5-6,30.894,30.894,0,0,1-4-10h3a32.942,32.942,0,0,1-1.5-8,13,13,0,0,0,5.5-5.5,50.478,50.478,0,0,1,10-.5,35.2,35.2,0,0,1-5-10q.405-6.9,7-8a8.009,8.009,0,0,1,2-5.5c-.33-.333-.67-.667-1-1a12.019,12.019,0,0,1,6-3.5,14.929,14.929,0,0,0-4-3.5,86.7,86.7,0,0,0-20-3,5.767,5.767,0,0,1-2-5.5C1942.17,904.167,1942.83,903.833,1943.5,903.5Z" fill="#a39a9a" fill-rule="evenodd"/>
    </g>
    <g id="Grupo_10555" data-name="Grupo 10555" transform="translate(-10689.42 -17222.365)">
      <path id="Caminho_4462" data-name="Caminho 4462" d="M1485.5,932.5a9.6,9.6,0,0,0,6,1,6.778,6.778,0,0,1-7,0A1.1,1.1,0,0,1,1485.5,932.5Z" fill="#faba85" fill-rule="evenodd"/>
    </g>
    <g id="Grupo_10556" data-name="Grupo 10556" transform="translate(-10689.42 -17222.365)">
      <path id="Caminho_4463" data-name="Caminho 4463" d="M2290.5,934.5q17.73,3.359,0,5Z" fill="#f68b34" fill-rule="evenodd"/>
    </g>
    <g id="Grupo_10557" data-name="Grupo 10557" transform="translate(-10689.42 -17222.365)">
      <path id="Caminho_4465" data-name="Caminho 4465" d="M2310.5,934.5h4a32.515,32.515,0,0,1-.5,8,12.206,12.206,0,0,1-6.5,1q2.58-1.086,5.5-2a18.374,18.374,0,0,0,.5-6A2.866,2.866,0,0,1,2310.5,934.5Z" fill="#f89d52" fill-rule="evenodd"/>
    </g>
    <g id="Grupo_10558" data-name="Grupo 10558" transform="translate(-10689.42 -17222.365)">
      <path id="Caminho_4466" data-name="Caminho 4466" d="M2275.5,943.5a12.853,12.853,0,0,0,1,7,1.1,1.1,0,0,1-1,1A8.687,8.687,0,0,1,2275.5,943.5Z" fill="#f8ad6d" fill-rule="evenodd"/>
    </g>
    <g id="Grupo_10559" data-name="Grupo 10559" transform="translate(-10689.42 -17222.365)">
      <path id="Caminho_4467" data-name="Caminho 4467" d="M1832.5,918.5a5.593,5.593,0,0,1,3,1,13.03,13.03,0,0,1,0,10q-5.025,2.108-.5,4a51.19,51.19,0,0,1-1,12,22.548,22.548,0,0,0-7.5,5.5,181.937,181.937,0,0,0-26-1q-3.15,5.1-8.5,2.5a109.217,109.217,0,0,1-12.5,1.5,48.312,48.312,0,0,0-4,7,8.359,8.359,0,0,0-5.5,2.5,39.039,39.039,0,0,1-2.5,8c.33.667.67,1.333,1,2a17.716,17.716,0,0,1,6-4,64.47,64.47,0,0,0,22,3.5,4.6,4.6,0,0,1,2,4.5,182.009,182.009,0,0,0,27-3q5.265-.629,7,4a7.989,7.989,0,0,0-6-2,132.609,132.609,0,0,0-30,4,9.053,9.053,0,0,0-1-5.5l-14-1a14.189,14.189,0,0,1-6.5-2.5,23.987,23.987,0,0,1-9.5,4,30.183,30.183,0,0,1,3.5-14,15.277,15.277,0,0,1,4.5-1.5,28.7,28.7,0,0,1,5-7,24.794,24.794,0,0,0,14-3.5q4.365,4.215,7-1.5a103.152,103.152,0,0,1,25,1,19.47,19.47,0,0,1,8-4.5,25.822,25.822,0,0,0,1-10h-4a6.219,6.219,0,0,1,4.5-6Q1837.405,922.8,1832.5,918.5Z" fill="#a29595" fill-rule="evenodd"/>
    </g>
    <g id="Grupo_10560" data-name="Grupo 10560" transform="translate(-10689.42 -17222.365)">
      <path id="Caminho_4468" data-name="Caminho 4468" d="M2310.5,967.5a4.949,4.949,0,0,0-.5-3,29.66,29.66,0,0,1-10.5,1,37.768,37.768,0,0,1,12-2A4.619,4.619,0,0,1,2310.5,967.5Z" fill="#fdd9bb" fill-rule="evenodd"/>
    </g>
    <g id="Grupo_10561" data-name="Grupo 10561" transform="translate(-10689.42 -17222.365)">
      <path id="Caminho_4469" data-name="Caminho 4469" d="M2310.5,967.5a6.5,6.5,0,0,1-1,4.5,100.157,100.157,0,0,1-14,1.5,21.134,21.134,0,0,0-9,1,1.1,1.1,0,0,0,1,1q10.065,4.036,20,8v8a337.815,337.815,0,0,1-35.5-16,7.963,7.963,0,0,1,.5-6.5,186.266,186.266,0,0,1,27-3.5,29.66,29.66,0,0,0,10.5-1A4.949,4.949,0,0,1,2310.5,967.5Z" fill="#fff7f2" fill-rule="evenodd"/>
    </g>
    <g id="Grupo_10562" data-name="Grupo 10562" transform="translate(-10689.42 -17222.365)">
      <path id="Caminho_4471" data-name="Caminho 4471" d="M2295.5,973.5l-8,2a1.1,1.1,0,0,1-1-1A21.134,21.134,0,0,1,2295.5,973.5Z" fill="#fabe8b" fill-rule="evenodd"/>
    </g>
    <g id="Grupo_10563" data-name="Grupo 10563" transform="translate(-10689.42 -17222.365)">
      <path id="Caminho_4472" data-name="Caminho 4472" d="M1881.5,991.5a9.6,9.6,0,0,1-6-1,24.845,24.845,0,0,1,13-7,5.316,5.316,0,0,1,3.5-4,111.572,111.572,0,0,0,14,4,60.385,60.385,0,0,1,.5,11,50.478,50.478,0,0,0-10,.5,45.277,45.277,0,0,1-7,4.5,8.372,8.372,0,0,1-5-8Z" fill="#0c0c0c" fill-rule="evenodd"/>
    </g>
    <g id="Grupo_10564" data-name="Grupo 10564" transform="translate(-10689.42 -17222.365)">
      <path id="Caminho_4473" data-name="Caminho 4473" d="M1832.5,978.5a39.938,39.938,0,0,0,4,8.5,26.81,26.81,0,0,0-2,5.5A45.386,45.386,0,0,0,1832.5,978.5Z" fill="#9e9494" fill-rule="evenodd"/>
    </g>
    <g id="Grupo_10565" data-name="Grupo 10565" transform="translate(-10689.42 -17222.365)">
      <path id="Caminho_4474" data-name="Caminho 4474" d="M1875.5,990.5a9.6,9.6,0,0,0,6,1,6.778,6.778,0,0,1-7,0A1.1,1.1,0,0,1,1875.5,990.5Z" fill="#7c7c7c" fill-rule="evenodd"/>
    </g>
    <g id="Grupo_10566" data-name="Grupo 10566" transform="translate(-10689.42 -17222.365)">
      <path id="Caminho_4475" data-name="Caminho 4475" d="M1937.5,998.5q-3,74.985-2,151h-1v-151Q1936,996.5,1937.5,998.5Z" fill="#cd4e54" fill-rule="evenodd"/>
    </g>
    <g id="Grupo_10567" data-name="Grupo 10567" transform="translate(-10689.42 -17222.365)">
      <path id="Caminho_4476" data-name="Caminho 4476" d="M1937.5,998.5a.882.882,0,0,1,1,1q-2.505,74.73-3,150Q1934.51,1073.48,1937.5,998.5Z" fill="#f1d2d3" fill-rule="evenodd"/>
    </g>
    <g id="Grupo_10568" data-name="Grupo 10568" transform="translate(-10689.42 -17222.365)">
      <path id="Caminho_4477" data-name="Caminho 4477" d="M1834.5,994.5a3.488,3.488,0,0,1,2,4,19.931,19.931,0,0,1,8.5,1,6.47,6.47,0,0,1,0,5,13.506,13.506,0,0,0-1.5,13,9.318,9.318,0,0,1-2-6,10.133,10.133,0,0,1,3-9,3.576,3.576,0,0,0-1-1.5Q1835.19,1002.515,1834.5,994.5Z" fill="#9d8a8a" fill-rule="evenodd"/>
    </g>
    <g id="Grupo_10569" data-name="Grupo 10569" transform="translate(-10689.42 -17222.365)">
      <path id="Caminho_4478" data-name="Caminho 4478" d="M1918.5,1007.5a32.273,32.273,0,0,1-19,6,20.814,20.814,0,0,0-9-1,4.438,4.438,0,0,1,4.5-2,31.589,31.589,0,0,0,11.5.5A82.222,82.222,0,0,1,1918.5,1007.5Z" fill="#a3a2a2" fill-rule="evenodd"/>
    </g>
    <g id="Grupo_10570" data-name="Grupo 10570" transform="translate(-10689.42 -17222.365)">
      <path id="Caminho_4479" data-name="Caminho 4479" d="M1525.5,1012.5a11.154,11.154,0,0,0,2,7,1.618,1.618,0,0,1,1,2,11.154,11.154,0,0,0,2,7q70.47,178.7,257,226.5,15.945,3.465,32,5.5a65.722,65.722,0,0,0,16,2,484.774,484.774,0,0,0,105-2,89.55,89.55,0,0,0,16-1.5,3.313,3.313,0,0,0,2-1.5,390.672,390.672,0,0,0,46-12,21.889,21.889,0,0,0,10-3q164.445-60.945,219-228,35.16,16.32,70,33.5a4.932,4.932,0,0,1,1,2.5q-42.81,117.57-140,196.5-182.445,141.2-407,84-211.11-66.855-298-270.5,31.755-24.495,64-48.5C1524.44,1011.31,1525.1,1011.47,1525.5,1012.5Z" fill="#fffdfb" fill-rule="evenodd"/>
    </g>
    <g id="Grupo_10571" data-name="Grupo 10571" transform="translate(-10689.42 -17222.365)">
      <path id="Caminho_4480" data-name="Caminho 4480" d="M1890.5,1012.5a20.814,20.814,0,0,1,9,1,72.322,72.322,0,0,0-11,1Z" fill="#ae5859" fill-rule="evenodd"/>
    </g>
    <g id="Grupo_10572" data-name="Grupo 10572" transform="translate(-10689.42 -17222.365)">
      <path id="Caminho_4481" data-name="Caminho 4481" d="M1525.5,1012.5a11.154,11.154,0,0,1,2,7A11.154,11.154,0,0,1,1525.5,1012.5Z" fill="#fdd0ab" fill-rule="evenodd"/>
    </g>
    <g id="Grupo_10573" data-name="Grupo 10573" transform="translate(-10689.42 -17222.365)">
      <path id="Caminho_4482" data-name="Caminho 4482" d="M1890.5,1012.5l-2,2q-9.855,2.715-20,4.5a8.167,8.167,0,0,1-9.5,1.5q-10.215,11.265-15.5-3h3q1.125,7.53,9,6a4.379,4.379,0,0,1,1-3.5Q1873.51,1016.415,1890.5,1012.5Z" fill="#a09999" fill-rule="evenodd"/>
    </g>
    <g id="Grupo_10574" data-name="Grupo 10574" transform="translate(-10689.42 -17222.365)">
      <path id="Caminho_4484" data-name="Caminho 4484" d="M1528.5,1021.5a11.154,11.154,0,0,1,2,7A11.154,11.154,0,0,1,1528.5,1021.5Z" fill="#fdcfa9" fill-rule="evenodd"/>
    </g>
    <g id="Grupo_10575" data-name="Grupo 10575" transform="translate(-10689.42 -17222.365)">
      <path id="Caminho_4485" data-name="Caminho 4485" d="M1955.5,1030.5q-2.505,67.23-3,135v-136A2.868,2.868,0,0,1,1955.5,1030.5Z" fill="#f8a13a" fill-rule="evenodd"/>
    </g>
    <g id="Grupo_10576" data-name="Grupo 10576" transform="translate(-10689.42 -17222.365)">
      <path id="Caminho_4496" data-name="Caminho 4496" d="M2205.5,1121.5q12.915,7.14,25.5,15a46.41,46.41,0,0,0,7.5-8.5,51.563,51.563,0,0,0,6,1.5,85.553,85.553,0,0,1-11.5,18q-16.11-9.435-31.5-20A18.828,18.828,0,0,1,2205.5,1121.5Z" fill="#f79525" fill-rule="evenodd"/>
    </g>
    <g id="Grupo_10577" data-name="Grupo 10577" transform="translate(-10689.42 -17222.365)">
      <path id="Caminho_4497" data-name="Caminho 4497" d="M1558.5,1156.5c1.82-.72,2.48-1.72,2-3a41.775,41.775,0,0,0-6,2,48.537,48.537,0,0,0-11,2q-5.355.1-3.5-5,4.56-7.38,9.5-14.5a153.824,153.824,0,0,0-16,8.5q-4.29-2.925-3-7.5,14.76-9.135,30-17.5a7.773,7.773,0,0,1,4,5q-6.12,10.755-13,21l1,1a82.279,82.279,0,0,1,25-4.5q4.35,5.505-2,9-11.79,10.035-24,19.5a13.73,13.73,0,0,1-4-6.5A58.458,58.458,0,0,1,1558.5,1156.5Z" fill="#f79525" fill-rule="evenodd"/>
    </g>
    <g id="Grupo_10578" data-name="Grupo 10578" transform="translate(-10689.42 -17222.365)">
      <path id="Caminho_4498" data-name="Caminho 4498" d="M2194.5,1137.5q10.41,7.725,21,15.5,9.195,8.4,1.5,18.5-6.855,9.12-17.5,5.5-10.785-9.03-22-17.5a14.208,14.208,0,0,1,5.5-5,247.042,247.042,0,0,1,20.5,15.5q9.99.51,8.5-9.5-11.16-7.965-21.5-17A17.4,17.4,0,0,0,2194.5,1137.5Z" fill="#f79526" fill-rule="evenodd"/>
    </g>
    <g id="Grupo_10579" data-name="Grupo 10579" transform="translate(-10689.42 -17222.365)">
      <path id="Caminho_4499" data-name="Caminho 4499" d="M1934.5,998.5v151h-111v-48q1.5,22.74,1,46h109Q1933.005,1072.74,1934.5,998.5Z" fill="#bf1f24" fill-rule="evenodd"/>
    </g>
    <g id="Grupo_10580" data-name="Grupo 10580" transform="translate(-10689.42 -17222.365)">
      <path id="Caminho_4500" data-name="Caminho 4500" d="M1823.5,1067.5v82h112q-56.25,1.5-113,1Q1822.005,1108.74,1823.5,1067.5Z" fill="#e19799" fill-rule="evenodd"/>
    </g>
    <g id="Grupo_10581" data-name="Grupo 10581" transform="translate(-10689.42 -17222.365)">
      <path id="Caminho_4501" data-name="Caminho 4501" d="M1558.5,1156.5a4.619,4.619,0,0,0-4-1,41.775,41.775,0,0,1,6-2C1560.98,1154.78,1560.32,1155.78,1558.5,1156.5Z" fill="#fdd8b0" fill-rule="evenodd"/>
    </g>
    <g id="Grupo_10582" data-name="Grupo 10582" transform="translate(-10689.42 -17222.365)">
      <path id="Caminho_4502" data-name="Caminho 4502" d="M1805.5,1100.5v64h147v1h-148Q1804.005,1132.74,1805.5,1100.5Z" fill="#fee8d0" fill-rule="evenodd"/>
    </g>
    <g id="Grupo_10583" data-name="Grupo 10583" transform="translate(-10689.42 -17222.365)">
      <path id="Caminho_4503" data-name="Caminho 4503" d="M1594.5,1165.5a10.988,10.988,0,0,1,6,5q-10.545,16.8-20.5,34a46.532,46.532,0,0,1-5.5-6q8.31-8.115-2-14-3.81,1.35-7.5,3a32.5,32.5,0,0,1-4.5-5Q1577.24,1173.425,1594.5,1165.5Z" fill="#f79526" fill-rule="evenodd"/>
    </g>
    <g id="Grupo_10584" data-name="Grupo 10584" transform="translate(-10689.42 -17222.365)">
      <path id="Caminho_4504" data-name="Caminho 4504" d="M2184.5,1191.5a7.435,7.435,0,0,0-8,1q-13.845,3.09-17-10.5a16.735,16.735,0,0,1,10.5-12.5,11.877,11.877,0,0,1,4.5,5,15.841,15.841,0,0,0-6.5,5,3.439,3.439,0,0,0,1.5,4.5,46.851,46.851,0,0,1,16-1q10.62,3.51,8.5,14.5a24.059,24.059,0,0,1-11.5,10,16.639,16.639,0,0,1-6-5,15.968,15.968,0,0,0,9.5-6Q2187.32,1193.245,2184.5,1191.5Z" fill="#f79526" fill-rule="evenodd"/>
    </g>
    <g id="Grupo_10585" data-name="Grupo 10585" transform="translate(-10689.42 -17222.365)">
      <path id="Caminho_4514" data-name="Caminho 4514" d="M1586.5,1176.5a2.441,2.441,0,0,1,2,.5,56.532,56.532,0,0,0-5,7.5c-.5,1.02-1.17,1.19-2,.5a14.933,14.933,0,0,0-3-3.5Q1582.595,1178.965,1586.5,1176.5Z" fill="#fed" fill-rule="evenodd"/>
    </g>
    <g id="Grupo_10586" data-name="Grupo 10586" transform="translate(-10689.42 -17222.365)">
      <path id="Caminho_4516" data-name="Caminho 4516" d="M2184.5,1191.5c-2.67.33-5.33.67-8,1A7.435,7.435,0,0,1,2184.5,1191.5Z" fill="#fed5aa" fill-rule="evenodd"/>
    </g>
    <g id="Grupo_10587" data-name="Grupo 10587" transform="translate(-10689.42 -17222.365)">
      <path id="Caminho_4517" data-name="Caminho 4517" d="M1611.5,1192.5q14.625-2.565,21,10.5a8.785,8.785,0,0,1-4,4.5q-4.53-9.765-15-6.5-10.44,5.13-9.5,16.5a15.648,15.648,0,0,0,8.5,7.5,31.551,31.551,0,0,1-5,4.5q-14.445-7.23-10.5-23A32.628,32.628,0,0,1,1611.5,1192.5Z" fill="#f79525" fill-rule="evenodd"/>
    </g>
    <g id="Grupo_10588" data-name="Grupo 10588" transform="translate(-10689.42 -17222.365)">
      <path id="Caminho_4521" data-name="Caminho 4521" d="M2125.5,1208.5q18.54-1.35,25.5,16,1.47,23.04-21.5,20.5-15.75-8.76-13.5-26.5A45.411,45.411,0,0,1,2125.5,1208.5Z" fill="#f79525" fill-rule="evenodd"/>
    </g>
    <g id="Grupo_10589" data-name="Grupo 10589" transform="translate(-10689.42 -17222.365)">
      <path id="Caminho_4535" data-name="Caminho 4535" d="M1639.5,1209.5a42.446,42.446,0,0,1,14.5,10q4.71,14.535-10.5,16-1.17,10.035-3,20a24.864,24.864,0,0,1-6.5-5,71.25,71.25,0,0,1,1.5-14.5c-.33-1.17-.67-2.33-1-3.5a122.2,122.2,0,0,0-10,11,16.637,16.637,0,0,1-6-5Q1629.615,1224.385,1639.5,1209.5Z" fill="#f79526" fill-rule="evenodd"/>
    </g>
    <g id="Grupo_10590" data-name="Grupo 10590" transform="translate(-10689.42 -17222.365)">
      <path id="Caminho_4543" data-name="Caminho 4543" d="M2140.5,1236.5h-9q-9.93-6.36-7.5-18,6.84-5.94,13.5.5a15.918,15.918,0,0,1,6,12A6.612,6.612,0,0,1,2140.5,1236.5Z" fill="#fffbf6" fill-rule="evenodd"/>
    </g>
    <g id="Grupo_10591" data-name="Grupo 10591" transform="translate(-10689.42 -17222.365)">
      <path id="Caminho_4545" data-name="Caminho 4545" d="M1642.5,1219.5q7.4,1.875,3,8a6.542,6.542,0,0,1-6,.5,2.75,2.75,0,0,1-.5-3.5A10.619,10.619,0,0,0,1642.5,1219.5Z" fill="#fff5ea" fill-rule="evenodd"/>
    </g>
    <g id="Grupo_10592" data-name="Grupo 10592" transform="translate(-10689.42 -17222.365)">
      <path id="Caminho_4549" data-name="Caminho 4549" d="M2091.5,1233.5q17.01-.75,14.5,16,7.875,4.56,15.5,9.5a23.221,23.221,0,0,1-6.5,4.5,125.312,125.312,0,0,0-16.5-8,155.162,155.162,0,0,1,7,15,7.768,7.768,0,0,0-6,3q-10.35-15.2-20-31Q2085.53,1237.97,2091.5,1233.5Z" fill="#f79526" fill-rule="evenodd"/>
    </g>
    <g id="Grupo_10593" data-name="Grupo 10593" transform="translate(-10689.42 -17222.365)">
      <path id="Caminho_4550" data-name="Caminho 4550" d="M2131.5,1236.5h9a3.225,3.225,0,0,1-3.5,2A10.942,10.942,0,0,1,2131.5,1236.5Z" fill="#ffe2c2" fill-rule="evenodd"/>
    </g>
    <g id="Grupo_10594" data-name="Grupo 10594" transform="translate(-10689.42 -17222.365)">
      <path id="Caminho_4551" data-name="Caminho 4551" d="M1670.5,1235.5q28.59-.15,19.5,27-9.69,15.735-26.5,8.5-12.66-12.555-2.5-27.5A35.734,35.734,0,0,1,1670.5,1235.5Z" fill="#f79527" fill-rule="evenodd"/>
    </g>
    <g id="Grupo_10595" data-name="Grupo 10595" transform="translate(-10689.42 -17222.365)">
      <path id="Caminho_4552" data-name="Caminho 4552" d="M2091.5,1241.5q7.5-1.245,6.5,6a14.933,14.933,0,0,1-3.5,3,41.078,41.078,0,0,0-5-7C2090.24,1242.82,2090.91,1242.15,2091.5,1241.5Z" fill="#fff5ea" fill-rule="evenodd"/>
    </g>
    <g id="Grupo_10596" data-name="Grupo 10596" transform="translate(-10689.42 -17222.365)">
      <path id="Caminho_4553" data-name="Caminho 4553" d="M1674.5,1242.5q13.2.84,9.5,14-4.41,10.335-15.5,8.5-6.42-5.64-2.5-13.5A36.459,36.459,0,0,1,1674.5,1242.5Z" fill="#fffaf6" fill-rule="evenodd"/>
    </g>
    <g id="Grupo_10597" data-name="Grupo 10597" transform="translate(-10689.42 -17222.365)">
      <path id="Caminho_4554" data-name="Caminho 4554" d="M2014.5,1242.5a21.889,21.889,0,0,1-10,3A21.889,21.889,0,0,1,2014.5,1242.5Z" fill="#fccca5" fill-rule="evenodd"/>
    </g>
    <g id="Grupo_10598" data-name="Grupo 10598" transform="translate(-10689.42 -17222.365)">
      <path id="Caminho_4556" data-name="Caminho 4556" d="M2068.5,1246.5a4.753,4.753,0,0,1,4,4.5q-3.405,3.225-7,6.5,6.5,13.005,13,26a22.555,22.555,0,0,1-8,4,127.632,127.632,0,0,0-13.5-27,27.068,27.068,0,0,0-7.5,4,58.16,58.16,0,0,0-3-5.5,3.923,3.923,0,0,1,1-2Q2058.135,1251.675,2068.5,1246.5Z" fill="#f79526" fill-rule="evenodd"/>
    </g>
    <g id="Grupo_10599" data-name="Grupo 10599" transform="translate(-10689.42 -17222.365)">
      <path id="Caminho_4560" data-name="Caminho 4560" d="M1958.5,1257.5a3.313,3.313,0,0,1-2,1.5,89.55,89.55,0,0,1-16,1.5A143.795,143.795,0,0,1,1958.5,1257.5Z" fill="#fedec4" fill-rule="evenodd"/>
    </g>
    <g id="Grupo_10600" data-name="Grupo 10600" transform="translate(-10689.42 -17222.365)">
      <path id="Caminho_4561" data-name="Caminho 4561" d="M1819.5,1260.5a39.059,39.059,0,0,1,16,2A65.722,65.722,0,0,1,1819.5,1260.5Z" fill="#f99e54" fill-rule="evenodd"/>
    </g>
    <g id="Grupo_10601" data-name="Grupo 10601" transform="translate(-10689.42 -17222.365)">
      <path id="Caminho_4562" data-name="Caminho 4562" d="M1723.5,1260.5a33.164,33.164,0,0,1,19.5,10,13.561,13.561,0,0,1-2,11,8.567,8.567,0,0,1-6.5,3,105.4,105.4,0,0,1,2,20,21.039,21.039,0,0,1-7-2,168.728,168.728,0,0,1-3.5-18,3.577,3.577,0,0,0-1.5-1,138.572,138.572,0,0,0-7.5,14,13.141,13.141,0,0,1-6.5-4Q1717.475,1277.06,1723.5,1260.5Z" fill="#f79526" fill-rule="evenodd"/>
    </g>
    <g id="Grupo_10602" data-name="Grupo 10602" transform="translate(-10689.42 -17222.365)">
      <path id="Caminho_4563" data-name="Caminho 4563" d="M2034.5,1262.5a4.27,4.27,0,0,1,4.5,2q6.81,15.975,12.5,32.5a5.68,5.68,0,0,1-6,1,165.381,165.381,0,0,1-21-12.5l-1,1q3.825,9.495,7,19c-2.67.67-5.33,1.33-8,2q-5.67-17.325-13-34a8.044,8.044,0,0,1,7-2.5q10.2,5.955,20,12.5l1-1a99.549,99.549,0,0,1-6-16A14.427,14.427,0,0,1,2034.5,1262.5Z" fill="#f79526" fill-rule="evenodd"/>
    </g>
    <g id="Grupo_10603" data-name="Grupo 10603" transform="translate(-10689.42 -17222.365)">
      <path id="Caminho_4564" data-name="Caminho 4564" d="M1728.5,1269.5q9.72.36,5,8.5a7.962,7.962,0,0,1-6.5-.5Q1727.54,1273.585,1728.5,1269.5Z" fill="#fff4e8" fill-rule="evenodd"/>
    </g>
    <g id="Grupo_10604" data-name="Grupo 10604" transform="translate(-10689.42 -17222.365)">
      <path id="Caminho_4565" data-name="Caminho 4565" d="M1765.5,1314.5a10.7,10.7,0,0,0-6-2,103.249,103.249,0,0,0-11-3,33.737,33.737,0,0,0,2-9,128.213,128.213,0,0,1,9-27,55.975,55.975,0,0,1,16,5,8.488,8.488,0,0,1,0,6q-5.58-.825-11-1.5a14.068,14.068,0,0,0-2,7.5,25.073,25.073,0,0,1,7.5,2q-.2,2.88-.5,6a28.829,28.829,0,0,1-10-2c-.46,2.98-.8,5.98-1,9a82.674,82.674,0,0,0,10,2,18.357,18.357,0,0,1-.5,6A2.847,2.847,0,0,1,1765.5,1314.5Z" fill="#f79526" fill-rule="evenodd"/>
    </g>
    <g id="Grupo_10605" data-name="Grupo 10605" transform="translate(-10689.42 -17222.365)">
      <path id="Caminho_4566" data-name="Caminho 4566" d="M2000.5,1280.5a1.907,1.907,0,0,1-1.5,2,32.829,32.829,0,0,0-7.5,3,51.534,51.534,0,0,1,1,7,7.435,7.435,0,0,0,8-1,2.992,2.992,0,0,1,2,2,4.856,4.856,0,0,1-1,4,13.754,13.754,0,0,0-4,2h-3a5.982,5.982,0,0,0,2,5v4a12.545,12.545,0,0,0,8-2,6.892,6.892,0,0,1,5-1,51.534,51.534,0,0,1,1,7q-10.05,1.815-20,4-4.5-17.985-9-36,9.51-2.01,19-4Z" fill="#f79423" fill-rule="evenodd"/>
    </g>
    <g id="Grupo_10606" data-name="Grupo 10606" transform="translate(-10689.42 -17222.365)">
      <path id="Caminho_4567" data-name="Caminho 4567" d="M2000.5,1280.5a2.868,2.868,0,0,1,1,3,82.674,82.674,0,0,1-10,2,32.829,32.829,0,0,1,7.5-3A1.907,1.907,0,0,0,2000.5,1280.5Z" fill="#fdcd98" fill-rule="evenodd"/>
    </g>
    <g id="Grupo_10607" data-name="Grupo 10607" transform="translate(-10689.42 -17222.365)">
      <path id="Caminho_4568" data-name="Caminho 4568" d="M1856.5,1280.5h6v3a9.127,9.127,0,0,0,5-1,3.2,3.2,0,0,1,.5,4,15.23,15.23,0,0,1-8.5,2v-3a7.189,7.189,0,0,0-6,2,3.2,3.2,0,0,1-.5-4A29.715,29.715,0,0,1,1856.5,1280.5Z" fill="#f8982e" fill-rule="evenodd"/>
    </g>
    <g id="Grupo_10608" data-name="Grupo 10608" transform="translate(-10689.42 -17222.365)">
      <path id="Caminho_4569" data-name="Caminho 4569" d="M1797.5,1305.5a2.868,2.868,0,0,0,1-3h4a45.932,45.932,0,0,1,9,2.5,80.258,80.258,0,0,0-3.5,15.5q-11.37,5.985-21.5-2.5-8.13-14.385.5-28.5,12.645-11.7,25.5-.5a19.567,19.567,0,0,1-2.5,6.5q-13.02-10.845-20,5-2.475,8.82,4.5,14.5,8.49,2.235,7-6.5h-4Z" fill="#f79628" fill-rule="evenodd"/>
    </g>
    <g id="Grupo_10609" data-name="Grupo 10609" transform="translate(-10689.42 -17222.365)">
      <path id="Caminho_4570" data-name="Caminho 4570" d="M1970.5,1284.5a6.951,6.951,0,0,1,0,7q-12.435-1.575-13,11,1.53,18.06,18,11,4.77,7.335-4,9.5-21.78,1.245-23-21Q1950.54,1282.215,1970.5,1284.5Z" fill="#f79527" fill-rule="evenodd"/>
    </g>
    <g id="Grupo_10610" data-name="Grupo 10610" transform="translate(-10689.42 -17222.365)">
      <path id="Caminho_4571" data-name="Caminho 4571" d="M1826.5,1289.5h8q-1.65,18.555-4.5,37a23.792,23.792,0,0,1-8.5,0Q1823.75,1307.975,1826.5,1289.5Z" fill="#f79628" fill-rule="evenodd"/>
    </g>
    <g id="Grupo_10611" data-name="Grupo 10611" transform="translate(-10689.42 -17222.365)">
      <path id="Caminho_4572" data-name="Caminho 4572" d="M1970.5,1284.5a4.753,4.753,0,0,1,2,4c-.33,1.33-.67,2.67-1,4a1.1,1.1,0,0,1-1-1A6.951,6.951,0,0,0,1970.5,1284.5Z" fill="#fcd7ab" fill-rule="evenodd"/>
    </g>
    <g id="Grupo_10612" data-name="Grupo 10612" transform="translate(-10689.42 -17222.365)">
      <path id="Caminho_4573" data-name="Caminho 4573" d="M2000.5,1291.5a7.435,7.435,0,0,1-8,1C1995.17,1292.17,1997.83,1291.83,2000.5,1291.5Z" fill="#fbb86d" fill-rule="evenodd"/>
    </g>
    <g id="Grupo_10613" data-name="Grupo 10613" transform="translate(-10689.42 -17222.365)">
      <path id="Caminho_4574" data-name="Caminho 4574" d="M1895.5,1291.5q19.71-1.41,23,18-1.32,27.15-27,18.5Q1874.19,1307.225,1895.5,1291.5Z" fill="#f79526" fill-rule="evenodd"/>
    </g>
    <g id="Grupo_10614" data-name="Grupo 10614" transform="translate(-10689.42 -17222.365)">
      <path id="Caminho_4575" data-name="Caminho 4575" d="M1856.5,1291.5a9.02,9.02,0,0,1,7.5,2q4.6,18.045,9.5,36-11.565,4.44-10-8a31.162,31.162,0,0,0-11,1,21.039,21.039,0,0,0-2,7,18.956,18.956,0,0,1-8-1.5Q1850.135,1309.985,1856.5,1291.5Z" fill="#f79629" fill-rule="evenodd"/>
    </g>
    <g id="Grupo_10615" data-name="Grupo 10615" transform="translate(-10689.42 -17222.365)">
      <path id="Caminho_4576" data-name="Caminho 4576" d="M2002.5,1293.5q2.58,6.63-5,6a13.754,13.754,0,0,1,4-2A4.856,4.856,0,0,0,2002.5,1293.5Z" fill="#fdd7ac" fill-rule="evenodd"/>
    </g>
    <g id="Grupo_10616" data-name="Grupo 10616" transform="translate(-10689.42 -17222.365)">
      <path id="Caminho_4577" data-name="Caminho 4577" d="M1897.5,1299.5q9.165-1.38,12.5,7,2.625,10.125-5.5,16.5a9.684,9.684,0,0,1-7-.5Q1887.51,1310.95,1897.5,1299.5Z" fill="#fffaf5" fill-rule="evenodd"/>
    </g>
    <g id="Grupo_10617" data-name="Grupo 10617" transform="translate(-10689.42 -17222.365)">
      <path id="Caminho_4578" data-name="Caminho 4578" d="M1802.5,1302.5h-4a2.868,2.868,0,0,1-1,3v-4A6.892,6.892,0,0,1,1802.5,1302.5Z" fill="#fcc485" fill-rule="evenodd"/>
    </g>
    <g id="Grupo_10618" data-name="Grupo 10618" transform="translate(-10689.42 -17222.365)">
      <path id="Caminho_4579" data-name="Caminho 4579" d="M1750.5,1300.5a33.737,33.737,0,0,1-2,9,1.618,1.618,0,0,1-1-1.5A32.829,32.829,0,0,1,1750.5,1300.5Z" fill="#fcbd78" fill-rule="evenodd"/>
    </g>
    <g id="Grupo_10619" data-name="Grupo 10619" transform="translate(-10689.42 -17222.365)">
      <path id="Caminho_4580" data-name="Caminho 4580" d="M1859.5,1306.5c.33,2.67.67,5.33,1,8a4.619,4.619,0,0,1-4-1C1856.8,1310.18,1857.8,1307.84,1859.5,1306.5Z" fill="#fff8f1" fill-rule="evenodd"/>
    </g>
    <g id="Grupo_10620" data-name="Grupo 10620" transform="translate(-10689.42 -17222.365)">
      <path id="Caminho_4581" data-name="Caminho 4581" d="M1996.5,1304.5a2.868,2.868,0,0,1,1,3,51.534,51.534,0,0,1,7-1,12.545,12.545,0,0,1-8,2Z" fill="#fcc990" fill-rule="evenodd"/>
    </g>
    <g id="Grupo_10621" data-name="Grupo 10621" transform="translate(-10689.42 -17222.365)">
      <path id="Caminho_4582" data-name="Caminho 4582" d="M1759.5,1312.5a10.7,10.7,0,0,1,6,2A5.921,5.921,0,0,1,1759.5,1312.5Z" fill="#fed8ae" fill-rule="evenodd"/>
    </g>
    <g id="Grupo_10622" data-name="Grupo 10622" transform="translate(-10689.42 -17222.365)">
      <path id="Caminho_4583" data-name="Caminho 4583" d="M1859.5,1306.5a14.551,14.551,0,0,1,2,9,9.834,9.834,0,0,1-6-1,1.1,1.1,0,0,1,1-1,4.619,4.619,0,0,0,4,1C1860.17,1311.83,1859.83,1309.17,1859.5,1306.5Z" fill="#fcd1a0" fill-rule="evenodd"/>
    </g>
  </g>
</svg>
