<?xml version="1.0" encoding="utf-8"?>
<!-- Generator: Adobe Illustrator 25.2.0, SVG Export Plug-In . SVG Version: 6.00 Build 0)  -->
<svg version="1.1" id="Camada_1" xmlns="http://www.w3.org/2000/svg" xmlns:xlink="http://www.w3.org/1999/xlink" x="0px" y="0px"
	 viewBox="0 0 1512 300" style="enable-background:new 0 0 1512 300;" xml:space="preserve">
<style type="text/css">
	.st0{fill:#01AFAA;}
	.st1{fill:#FFFFFF;}
</style>
<g>
	<g>
		<path class="st0" d="M245.9,300.4H53.8c-29.8,0-53.9-24.1-53.9-53.9V54.3C-0.2,24.5,24,0.4,53.8,0.4h192.1
			c29.8,0,53.9,24.1,53.9,53.9v192.1C299.8,276.2,275.7,300.4,245.9,300.4z"/>
	</g>
	<g>
		<g>
			<path class="st1" d="M1116.1,89c-8.2,0-14.9,6.7-14.9,14.9v150.8c0,8.2,6.7,14.9,14.9,14.9s14.9-6.7,14.9-14.9V103.9
				C1131,95.7,1124.3,89,1116.1,89z"/>
			<circle class="st1" cx="1116.1" cy="44.4" r="14.9"/>
		</g>
		<path class="st1" d="M627.5,195.6c0,1.6,0,3.3,0,4.9c-0.1,12.3-0.2,25.1,5,36.6c4.7,10.5,12.6,19.6,22.1,25.8
			c3.7,2.4,7.9,4.2,12.7,5.4c3.5,0.9,6.6,1.4,9.4,1.4c4.5,0,8-1.2,10.5-3.5c2.7-2.5,4-6.1,4-10.8c0-3.1-1-6.2-2.8-8.7
			c-1.7-2.5-4.3-4.1-8-5.3c-0.7-0.2-1.4-0.4-2.1-0.6c-2.4-0.7-4.8-1.4-7.1-2.7c-6.5-3.6-11.3-10-13.1-17.1c-1.6-6.6-1.3-13.9-1-20.9
			c0.1-2.8,0.2-5.4,0.2-7.9v-26.6v-41.4v-1.9v-2h2H676c8.4,0,15.2-6.8,15.2-15.2s-6.8-15.2-15.2-15.2h-16.5h-2v-2V46.1
			c0-8.3-6.7-15-15-15s-15,6.7-15,15v41.6v2h-2h-8.6c-8.4,0-15.2,6.8-15.2,15.2s6.8,15.2,15.2,15.2h8.6h2v2V195.6z"/>
		<path class="st0" d="M1247.4,89c-24.5,0-47.5,9.7-64.6,27.2c-17.1,17.5-26.3,40.7-25.7,65.3c0.5,23.2,10,45.1,26.5,61.6
			c16.5,16.5,38.4,26,61.6,26.5c0.7,0,1.5,0,2.2,0c23.7,0,46.1-9.1,63.1-25.7c17.5-17.1,27.2-40.1,27.2-64.6
			C1337.7,129.5,1297.2,89,1247.4,89z M1307.6,182.2c-1.4,30.7-26.6,55.9-57.4,57.4c-1,0-2,0.1-2.9,0.1c-15.5,0-30.3-5.9-41.6-16.7
			c-12.1-11.5-18.7-27-18.7-43.6c0-33.3,27.1-60.3,60.3-60.3c16.6,0,32.1,6.6,43.6,18.7C1302.5,149.8,1308.4,165.6,1307.6,182.2z"/>
		<path class="st1" d="M1040.1,254.7c0,8.2,6.7,14.9,14.9,14.9s14.9-6.7,14.9-14.9v-70.3v-0.1l0-0.1c0.1-1.8,0.1-3.5,0.1-5
			c0-1.6,0-3.3-0.1-5.1l0-0.1v-0.1V44.4c0-8.2-6.7-14.9-14.9-14.9s-14.9,6.7-14.9,14.9v63.4v4.2l-3.3-2.7
			c-16.1-13.1-36.3-20.4-57.1-20.4c-24.5,0-47.5,9.7-64.6,27.2c-17.1,17.5-26.3,40.7-25.7,65.3c0.5,23.2,10,45.1,26.5,61.6
			c16.5,16.5,38.4,26,61.6,26.5c0.7,0,1.5,0,2.2,0c21.1,0,40.8-7,57-20.3l3.3-2.7v4.2V254.7z M1040,182.2
			c-1.4,30.7-26.6,55.9-57.4,57.4c-1,0-2,0.1-2.9,0.1c-15.5,0-30.3-5.9-41.6-16.7c-12.1-11.5-18.7-27-18.7-43.6
			c0-33.3,27.1-60.3,60.3-60.3c16.6,0,32.1,6.6,43.6,18.7C1034.9,149.8,1040.8,165.6,1040,182.2z"/>
		<path class="st1" d="M1507.7,166.9l0-0.6c0-0.4,0-0.9,0-1.3c0-0.4,0-0.9,0-1.3l0-0.6c-0.7-27-15.8-51.9-39.6-64.8
			c-11.1-6-23.6-9.2-36.3-9.2c-15.5,0-30.4,4.7-43.2,13.5l-2.6,1.8l-0.5-3.1c-1.2-7.3-7.5-12.6-14.9-12.6c-8.3,0-15.1,6.8-15.1,15.1
			v150.3c0,8.3,6.8,15.1,15.1,15.1c8.3,0,15.1-6.8,15.1-15.1v-83.3c0-1,0-2,0.1-3l0-0.1l0-0.1c-0.1-0.9-0.1-1.8-0.1-2.6
			c0-25.4,20.7-46.1,46.1-46.1c7.5,0,14.7,1.8,21.3,5.2c7.9,4.1,14.4,10.4,18.8,18.1l0,0.1l0,0.1c3.6,7.4,5.5,16.3,5.5,26.5v85.6
			c0,8.3,6.8,15.1,15.1,15.1c8.3,0,15.1-6.8,15.1-15.1L1507.7,166.9L1507.7,166.9L1507.7,166.9z"/>
		<path class="st1" d="M870.3,195.2l0-0.6c0-0.4,0-0.9,0-1.3c0-0.4,0-0.9,0-1.3l0-88.2c0-8.9-7.2-16.1-16.1-16.1
			c-8.9,0-16.1,7.2-16.1,16.1v85.6c0,10.1-1.8,18.8-5.4,26.1c-4.3,7.6-10.7,13.8-18.4,17.8c-6.5,3.4-13.5,5.1-20.9,5.1
			s-14.4-1.7-20.9-5.1c-7.7-4-14.1-10.2-18.4-17.7c-3.6-7.3-5.4-16.1-5.4-26.1v-85.6c0-8.9-7.2-16.1-16.1-16.1
			c-8.9,0-16.1,7.2-16.1,16.1l0,87.6l0,0.6c0,0.4,0,0.9,0,1.3c0,0.4,0,0.9,0,1.3l0,0.6c0.7,27.4,16.1,52.5,40.1,65.7
			c11.2,6.1,23.9,9.4,36.8,9.4s25.6-3.2,36.8-9.4C854.2,247.8,869.6,222.6,870.3,195.2z"/>
		<path class="st1" d="M444.7,250.9c16.9,9.6,36.2,14.7,55.7,14.7c2.3,0,4.7-0.1,7.6-0.3l0.1,0l0.1,0l0.1,0l0.1,0l0.1,0l0.1,0l0.3,0
			c29.3,0,54.9-11.2,68.4-29.9c7.3-10.1,11-21.9,11-35.1v-0.8c0-11.2-3.3-21.1-9.8-29.4c-13.2-16.8-37-25-62.3-32.6
			c-30.2-9.2-56.2-17.1-56.2-38.5v-0.8c0-11.6,6.5-19.8,18.8-23.9l0,0l0.1,0l0.1,0l0.1,0l0.1,0l0.1,0c7-1.9,14.1-2.9,21.3-2.9
			c18.5,0,35.9,6.1,50.4,17.6c0.8,0.6,1.6,1.3,2.3,1.9c3,2.6,6.7,4,10.5,4c4.2,0,8.2-1.7,11.2-4.7c3.1-3.1,4.8-7.5,4.7-11.9
			c-0.2-4.4-2.1-8.5-5.4-11.3l-0.6-0.5c-2.4-2-4.8-3.9-7.2-5.6c-18.9-13.6-41.3-21-64.8-21.2c-43,0.7-73.1,26.1-73.1,62v0.8
			c0,4.4,0.5,8.6,1.5,12.6c7.5,30.4,44.4,40.9,71.4,48.6c31.3,8.7,55.2,17.2,55.2,39.3v0.8c0,3-0.4,5.9-1.2,8.5
			c-2.9,9.9-13.1,21.8-45,21.8c-2.8,0-5.7-0.1-8.8-0.2c-7.2-0.3-14.1-1.1-20.7-2.4c-0.5-0.1-1-0.2-1.5-0.3c-6.6-1.8-13-4.4-19-7.8
			c-2.4-1.3-5.1-2.1-7.8-2.1c-4.3,0-8.3,1.6-11.2,4.6c-3.5,3.5-5.2,8.4-4.5,13.4C437.5,244.2,440.3,248.4,444.7,250.9z"/>
	</g>
	<g>
		<path class="st1" d="M149.8,240.7c-24.1,0-46.8-9.4-63.9-26.5c-17.1-17.1-26.5-39.7-26.5-63.9s9.4-46.8,26.5-63.9
			c17.1-17.1,39.7-26.5,63.9-26.5c24.1,0,46.8,9.4,63.9,26.5c17.1,17.1,26.5,39.7,26.5,63.9s-9.4,46.8-26.5,63.9v0
			C196.6,231.3,174,240.7,149.8,240.7z M149.8,90.1c-16.1,0-31.3,6.3-42.6,17.7c-11.4,11.4-17.7,26.5-17.7,42.6s6.3,31.3,17.7,42.6
			c11.4,11.4,26.5,17.7,42.6,17.7s31.3-6.3,42.6-17.7c11.4-11.4,17.7-26.5,17.7-42.6s-6.3-31.3-17.7-42.6
			C181.1,96.4,166,90.1,149.8,90.1z"/>
	</g>
	<g>
		<g>
			<g>
				<defs>
					<path id="SVGID_1_" d="M149.8,240.7v-30c16.1,0,31.3-6.3,42.6-17.7c11.4-11.4,17.7-26.5,17.7-42.6s-6.3-31.3-17.7-42.6
						l21.2-21.2c17.1,17.1,26.5,39.7,26.5,63.9s-9.4,46.8-26.5,63.9C196.6,231.3,174,240.7,149.8,240.7z"/>
				</defs>
				<clipPath id="SVGID_2_">
					<use xlink:href="#SVGID_1_"  style="overflow:visible;"/>
				</clipPath>
				<g style="clip-path:url(#SVGID_2_);">
					
						<image style="overflow:visible;" width="174" height="174" xlink:href="83F98077AD9CEFFC.png"  transform="matrix(1 0 0 1 104 86)">
					</image>
				</g>
			</g>
		</g>
	</g>
	<g>
		<path class="st1" d="M243.2,240.7c-8.3,0-15-6.7-15-15v-47.2c0-3.1-1.2-6.1-3.4-8.3c-2.2-2.2-5.2-3.4-8.3-3.4s-6.1,1.2-8.3,3.4
			c-2.2,2.2-3.4,5.2-3.4,8.3v7.4c0,14.7-5.7,28.4-16.1,38.8c-10.4,10.4-24.1,16.1-38.8,16.1c-8.3,0-15-6.7-15-15s6.7-15,15-15
			c6.6,0,12.9-2.6,17.6-7.3c4.7-4.7,7.3-10.9,7.3-17.6v-7.4c0-11.2,4.3-21.6,12.2-29.5c7.9-7.9,18.4-12.2,29.5-12.2
			s21.6,4.3,29.5,12.2c7.9,7.9,12.2,18.4,12.2,29.5v47.2C258.2,234,251.5,240.7,243.2,240.7z"/>
	</g>
	<g>
		<g>
			<path class="st0" d="M216.5,136.7c11.2,0,21.6,4.3,29.5,12.2c7.9,7.9,12.2,18.4,12.2,29.5v47.2c0,8.3-6.7,15-15,15s-15-6.7-15-15
				v-47.2c0-3.1-1.2-6.1-3.4-8.3c-2.2-2.2-5.2-3.4-8.3-3.4s-6.1,1.2-8.3,3.4c-2.2,2.2-3.4,5.2-3.4,8.3v7.4
				c0,14.7-5.7,28.4-16.1,38.8c-10.4,10.4-24.1,16.1-38.8,16.1v5c16,0,31-6.2,42.3-17.5c11.3-11.3,17.5-26.3,17.5-42.3v-7.4
				c0-1.8,0.7-3.5,2-4.8c1.3-1.3,3-2,4.8-2s3.5,0.7,4.8,2c1.3,1.3,2,3,2,4.8v47.2c0,11,9,20,20,20s20-9,20-20v-47.2
				c0-12.5-4.9-24.2-13.7-33.1c-8.8-8.8-20.6-13.7-33.1-13.7l0,0c-12.5,0-24.2,4.9-33.1,13.7c-8.8,8.8-13.7,20.6-13.7,33.1v7.4
				c0,5.3-2.1,10.3-5.8,14l3.5,3.5c4.7-4.7,7.3-10.9,7.3-17.6v-7.4c0-11.2,4.3-21.6,12.2-29.5C194.8,141.1,205.3,136.7,216.5,136.7"
				/>
		</g>
	</g>
</g>
</svg>
