<?xml version="1.0" encoding="utf-8"?>
<!-- Generator: Adobe Illustrator 24.2.3, SVG Export Plug-In . SVG Version: 6.00 Build 0)  -->
<svg version="1.1" id="Camada_1" xmlns="http://www.w3.org/2000/svg" xmlns:xlink="http://www.w3.org/1999/xlink" x="0px" y="0px"
	 viewBox="0 0 145.7 69.9" style="enable-background:new 0 0 145.7 69.9;" xml:space="preserve">
<style type="text/css">
	.st0{fill:url(#SVGID_1_);}
	.st1{fill:url(#SVGID_2_);}
	.st2{fill:url(#SVGID_3_);}
	.st3{fill:url(#SVGID_4_);}
	.st4{fill:#425161;}
</style>
<linearGradient id="SVGID_1_" gradientUnits="userSpaceOnUse" x1="7.275958e-12" y1="69.6703" x2="1" y2="69.6703" gradientTransform="matrix(91.4876 -91.4876 -91.4876 -91.4876 6415.3521 6462.6777)">
	<stop  offset="0" style="stop-color:#00B3E0"/>
	<stop  offset="1" style="stop-color:#0064AF"/>
</linearGradient>
<path class="st0" d="M95.9,30.7c-0.1-0.2-0.2-0.3-0.4-0.3c0,0-0.1,0-0.1,0l-22.2,7.1c-0.1,0-0.2,0.1-0.3,0.2L69.2,47
	c-0.1,0.3,0.2,0.7,0.5,0.6l19.6-6.3l2.2,6c0.1,0.2,0.2,0.3,0.4,0.3h10c0.3,0,0.5-0.3,0.4-0.6L95.9,30.7z"/>
<linearGradient id="SVGID_2_" gradientUnits="userSpaceOnUse" x1="7.275958e-12" y1="69.5613" x2="1" y2="69.5613" gradientTransform="matrix(91.4876 -91.4876 -91.4876 -91.4876 6415.3521 6462.6777)">
	<stop  offset="0" style="stop-color:#00B3E0"/>
	<stop  offset="1" style="stop-color:#0064AF"/>
</linearGradient>
<path class="st1" d="M145.3,20.2h-15.6c-0.2,0-3.2,8.1-3.2,8.1c0,0.2,0.2,0.4,0.4,0.4h8.9v7.1c-2,1.8-5.8,3.6-10.1,3.6
	c-8.5,0-14.6-6.5-14.6-15.3c0-8.8,6.2-15.3,14.6-15.3c3.6,0,6.7,1.4,9,3.4c0.1,0.1,0.3,0.1,0.4,0.1l8.8-2.9c0.3-0.1,0.4-0.4,0.2-0.7
	c-3.7-4.9-9.5-8.8-18.4-8.8c-13.7,0-24.9,9.4-24.9,24.2c0,14.7,11.2,24.2,24.9,24.2c8.4,0,15-3.5,19.8-8.7c0.1-0.1,0.1-0.2,0.1-0.3
	V20.7C145.7,20.4,145.5,20.2,145.3,20.2z"/>
<linearGradient id="SVGID_3_" gradientUnits="userSpaceOnUse" x1="-1.651042e-07" y1="70.1106" x2="1" y2="70.1106" gradientTransform="matrix(91.4876 -91.4876 -91.4876 -91.4876 6415.3521 6462.6777)">
	<stop  offset="0" style="stop-color:#00B3E0"/>
	<stop  offset="1" style="stop-color:#0064AF"/>
</linearGradient>
<path class="st2" d="M50.2,0.8H36.9c-0.2,0-0.3,0.1-0.4,0.3L25.3,25.8L14,1.1c-0.1-0.2-0.2-0.3-0.4-0.3H0.4C0.2,0.8,0,1,0,1.3v45.9
	c0,0.2,0.2,0.4,0.4,0.4h9.1c0.2,0,0.4-0.2,0.4-0.4V13.9l11.6,27.7c0.1,0.2,0.2,0.3,0.4,0.3h6.7c0.2,0,0.3-0.1,0.4-0.3l11.6-27.7
	v33.2c0,0.2,0.2,0.4,0.4,0.4h9.2c0.2,0,0.4-0.2,0.4-0.4V1.3C50.7,1,50.5,0.8,50.2,0.8z"/>
<linearGradient id="SVGID_4_" gradientUnits="userSpaceOnUse" x1="7.275958e-12" y1="69.8518" x2="1" y2="69.8518" gradientTransform="matrix(91.4876 -91.4876 -91.4876 -91.4876 6415.3521 6462.6777)">
	<stop  offset="0" style="stop-color:#00B3E0"/>
	<stop  offset="1" style="stop-color:#0064AF"/>
</linearGradient>
<path class="st3" d="M78.3,10.9l6.9,18.2c0.1,0.2,0.3,0.3,0.5,0.3l8.2-2.6c0.2-0.1,0.3-0.3,0.3-0.5L84.7,1.1
	c-0.1-0.2-0.2-0.3-0.4-0.3H72.4c-0.2,0-0.3,0.1-0.4,0.3L54.2,47c-0.1,0.3,0.1,0.6,0.4,0.6H64l5.8-14.2L78.3,10.9z"/>
<path class="st4" d="M43.7,65.8V61c0-0.3,0.2-0.5,0.5-0.5c0.3,0,0.5,0.2,0.5,0.5v4.8c0,2,1.1,3.1,2.8,3.1c1.7,0,2.8-1,2.8-3V61
	c0-0.3,0.2-0.5,0.5-0.5c0.3,0,0.5,0.2,0.5,0.5v4.8c0,2.7-1.5,4.1-3.8,4.1C45.3,69.9,43.7,68.5,43.7,65.8"/>
<path class="st4" d="M53.9,61c0-0.3,0.2-0.5,0.5-0.5h0.1c0.2,0,0.4,0.1,0.5,0.3l5.6,7.1v-7c0-0.3,0.2-0.5,0.5-0.5
	c0.3,0,0.5,0.2,0.5,0.5v8.3c0,0.3-0.2,0.5-0.5,0.5h-0.1c-0.2,0-0.4-0.1-0.5-0.3l-5.7-7.3v7.1c0,0.3-0.2,0.5-0.5,0.5
	c-0.3,0-0.5-0.2-0.5-0.5V61z"/>
<path class="st4" d="M64.4,61c0-0.3,0.2-0.5,0.5-0.5c0.3,0,0.5,0.2,0.5,0.5v8.3c0,0.3-0.2,0.5-0.5,0.5c-0.3,0-0.5-0.2-0.5-0.5V61z"
	/>
<path class="st4" d="M71.7,69.8c-0.3,0-0.5-0.2-0.6-0.4l-3.6-8.2c0-0.1-0.1-0.1-0.1-0.2c0-0.3,0.2-0.5,0.5-0.5
	c0.3,0,0.4,0.2,0.5,0.4l3.2,7.6l3.2-7.7c0.1-0.2,0.3-0.4,0.5-0.4c0.3,0,0.5,0.2,0.5,0.5c0,0.1,0,0.1,0,0.2l-3.6,8.2
	C72.2,69.6,72,69.8,71.7,69.8L71.7,69.8z"/>
<path class="st4" d="M78.4,69.7c-0.3,0-0.5-0.2-0.5-0.5V61c0-0.3,0.2-0.5,0.5-0.5h5.7c0.3,0,0.5,0.2,0.5,0.5c0,0.3-0.2,0.5-0.5,0.5
	H79v3.1h4.6c0.3,0,0.5,0.2,0.5,0.5c0,0.3-0.2,0.5-0.5,0.5H79v3.2h5.3c0.3,0,0.5,0.2,0.5,0.5c0,0.3-0.2,0.5-0.5,0.5H78.4z"/>
<path class="st4" d="M86.7,61c0-0.3,0.2-0.5,0.5-0.5h3.4c1.1,0,2,0.3,2.6,0.9c0.5,0.5,0.7,1.1,0.7,1.8v0c0,1.5-1,2.4-2.5,2.7
	l2.3,2.9C94,69,94,69.1,94,69.3c0,0.3-0.3,0.5-0.5,0.5c-0.2,0-0.4-0.1-0.5-0.3l-2.6-3.4h-2.6v3.1c0,0.3-0.2,0.5-0.5,0.5
	c-0.3,0-0.5-0.2-0.5-0.5V61z M90.6,65.2c1.4,0,2.4-0.7,2.4-1.9v0c0-1.1-0.9-1.8-2.4-1.8h-2.8v3.7H90.6z"/>
<path class="st4" d="M95.9,68.6c-0.1-0.1-0.2-0.2-0.2-0.4c0-0.3,0.2-0.5,0.5-0.5c0.1,0,0.2,0,0.3,0.1c0.9,0.7,1.7,1.1,2.9,1.1
	c1.3,0,2.1-0.7,2.1-1.6v0c0-0.9-0.5-1.3-2.4-1.8C97,65.1,96,64.4,96,62.9v0c0-1.4,1.3-2.5,3-2.5c1.2,0,2.1,0.3,2.9,0.9
	c0.1,0.1,0.2,0.2,0.2,0.4c0,0.3-0.2,0.5-0.5,0.5c-0.1,0-0.2,0-0.3-0.1c-0.8-0.6-1.5-0.8-2.4-0.8c-1.2,0-2,0.6-2,1.5v0
	c0,0.9,0.5,1.4,2.5,1.8c2.1,0.5,3,1.2,3,2.6v0c0,1.6-1.3,2.6-3.1,2.6C98.1,69.8,97,69.4,95.9,68.6"/>
<path class="st4" d="M104.8,61c0-0.3,0.2-0.5,0.5-0.5c0.3,0,0.5,0.2,0.5,0.5v8.3c0,0.3-0.2,0.5-0.5,0.5c-0.3,0-0.5-0.2-0.5-0.5V61z"
	/>
<path class="st4" d="M108.5,61c0-0.3,0.2-0.5,0.5-0.5h2.7c2.9,0,4.9,2,4.9,4.6v0c0,2.6-2,4.6-4.9,4.6H109c-0.3,0-0.5-0.2-0.5-0.5V61
	z M111.7,68.7c2.3,0,3.8-1.6,3.8-3.6v0c0-2-1.5-3.6-3.8-3.6h-2.2v7.3H111.7z"/>
<path class="st4" d="M117.7,69l3.7-8.2c0.1-0.3,0.3-0.5,0.7-0.5h0.1c0.3,0,0.5,0.2,0.6,0.5l3.7,8.2c0,0.1,0.1,0.2,0.1,0.3
	c0,0.3-0.2,0.5-0.5,0.5c-0.2,0-0.4-0.2-0.5-0.4l-1-2.1h-5.1l-1,2.1c-0.1,0.2-0.3,0.4-0.5,0.4c-0.3,0-0.5-0.2-0.5-0.5
	C117.6,69.2,117.7,69.1,117.7,69 M124.2,66.3l-2.1-4.7l-2.1,4.7H124.2z"/>
<path class="st4" d="M128.6,61c0-0.3,0.2-0.5,0.5-0.5h2.7c2.9,0,4.9,2,4.9,4.6v0c0,2.6-2,4.6-4.9,4.6h-2.7c-0.3,0-0.5-0.2-0.5-0.5
	V61z M131.8,68.7c2.3,0,3.8-1.6,3.8-3.6v0c0-2-1.5-3.6-3.8-3.6h-2.2v7.3H131.8z"/>
<path class="st4" d="M139.4,69.7c-0.3,0-0.5-0.2-0.5-0.5V61c0-0.3,0.2-0.5,0.5-0.5h5.7c0.3,0,0.5,0.2,0.5,0.5c0,0.3-0.2,0.5-0.5,0.5
	h-5.2v3.1h4.6c0.3,0,0.5,0.2,0.5,0.5c0,0.3-0.2,0.5-0.5,0.5h-4.6v3.2h5.3c0.3,0,0.5,0.2,0.5,0.5c0,0.3-0.2,0.5-0.5,0.5H139.4z"/>
</svg>
