<?xml version="1.0" encoding="UTF-8"?>
<svg id="Camada_1" data-name="Camada 1" xmlns="http://www.w3.org/2000/svg" viewBox="0 0 568.41 346.57">
  <defs>
    <style>
      .cls-1 {
        fill: #baa263;
        stroke-width: 0px;
      }
    </style>
  </defs>
  <g>
    <g>
      <g>
        <g id="Grupo_545" data-name="Grupo 545">
          <path id="Caminho_14484" data-name="Caminho 14484" class="cls-1" d="m248.27,216.16h20.38s40.72,52.84,40.72,52.84v-43.12c0-8.62-8.26-8.62-8.26-8.62v-1.1h20.55v1.1s-8.26,0-8.26,8.62v63.06h-5.6l-47.05-60.12v50.27c0,5.5,2.02,8.07,6.97,8.25h1.28v1.11h-20.55v-1.11h1.28c4.95-.18,6.97-2.56,6.97-8.25v-52.65c0-9.13-8.44-9.18-8.44-9.18v-1.1Z"/>
          <path id="Caminho_14487" data-name="Caminho 14487" class="cls-1" d="m395.04,216.17h-68.06l-1.47,15.96h.92s5.14-12.66,16.51-12.66h11.37v59.44c0,5.5-2.02,8.26-6.97,8.44h-1.28s0,1.1,0,1.1h30.27v-1.11h-1.1c-4.95-.18-6.97-2.75-6.97-8.43v-59.26h11.01c11.19,0,16.51,12.66,16.51,12.66h.92l-1.65-16.15Z"/>
          <path id="Caminho_14489" data-name="Caminho 14489" class="cls-1" d="m176.27,268.1c0-11.54-9.02-17.86-23.81-24.89-11.54-5.41-14.97-8.48-14.97-13.89s4.15-9.2,10.82-10.28c2.89-.36,5.77-.18,8.48.54,9.38,3.07,12.26,8.84,13.53,12.63h.9v-11.9c-6.49-3.61-13.89-5.23-21.28-5.05-10.28,0-22.73,5.23-22.73,18.76,0,4.87,1.8,9.38,5.41,12.63,2.53,2.52,5.59,5.41,17.68,11.36,12.63,5.95,16.05,9.2,16.05,15.15,0,10.28-9.56,12.81-15.87,12.81-12.81,0-20.02-6.67-23.27-13.71h-1.08v12.08c5.23,3.07,14.97,5.05,24.53,5.05,11.36.18,25.61-7.57,25.61-21.28Z"/>
          <path id="Caminho_14490" data-name="Caminho 14490" class="cls-1" d="m119.02,268.1c0-11.54-9.02-17.86-23.81-24.89-11.54-5.41-14.97-8.48-14.97-13.89s4.15-9.2,10.82-10.28c2.89-.36,5.77-.18,8.48.54,9.38,3.07,12.26,8.84,13.53,12.63h.9v-11.9c-6.49-3.61-13.89-5.23-21.28-5.05-10.28,0-22.73,5.23-22.73,18.76,0,4.69,1.8,9.38,5.41,12.63,2.53,2.52,5.59,5.41,17.68,11.36,12.63,5.95,16.05,9.2,16.05,15.15,0,10.28-9.56,12.81-16.05,12.81-12.81,0-20.02-6.67-23.27-13.71h-1.08v12.08c5.23,3.07,14.97,5.05,24.53,5.05,11.54.18,25.79-7.57,25.79-21.28Z"/>
        </g>
        <path id="Caminho_14488" data-name="Caminho 14488" class="cls-1" d="m58.71,272.49s-5.87,12.66-19.08,12.66h-17.43v-33.21h12.84c12.48,0,13.39,9.36,13.39,9.36h.92v-20.91h-.92s-.92,8.26-13.39,8.26h-12.84v-28.81h16.88c8.28,0,15.04,4.95,16.88,12.47h1.1v-16.14H0v1.1c4.4,0,8.26,3.52,8.26,7.89v53.76c0,4.31-2.75,8.07-7.15,8.44H0v1.1h56.87l2.75-15.96h-.92Z"/>
      </g>
      <path class="cls-1" d="m509.84,287.33c-4.27-.16-6.71-1.76-9.3-6.96l-29.72-64.76h-3.49l-24.95,64.58c-2.29,5.59-7.61,6.81-9.83,7.08v1.18h23.22v-1.1s-11.09-.62-7.52-10.09l5.14-13.76h24.95l6.79,15.41c3.52,7.85-6.79,8.44-6.79,8.44v1.1h31.5v-1.12Zm-54.8-27.13l9.91-26.97,12.11,26.97h-22.02Z"/>
      <path class="cls-1" d="m567.49,272.12s-5.87,12.66-19.08,12.66h-15.59v-58.89c0-8.62,8.26-8.62,8.26-8.62v-1.1h-30.45v1.1s8.07,0,8.07,8.62v52.65c0,7.11-5.26,8.48-7.29,8.74v1.17h54.25l2.75-16.14-.92-.18Z"/>
      <path class="cls-1" d="m430.98,287.24c-1.87-.42-7.68-2.23-7.68-8.51v-52.65c0-8.81,8.26-8.81,8.26-8.81v-1.1h-30.45v1.1s8.26,0,8.26,8.81v52.65c0,7.39-8.26,8.62-8.26,8.62v1.1h29.88v-1.21Z"/>
    </g>
    <path id="Caminho_14488-2" data-name="Caminho 14488" class="cls-1" d="m240.75,272.49s-5.87,12.66-19.08,12.66h-17.43v-33.21h12.84c12.48,0,13.39,9.36,13.39,9.36h.92v-20.91h-.92s-.92,8.26-13.39,8.26h-12.84v-28.81h16.88c8.28,0,15.04,4.95,16.88,12.47h1.1v-16.14h-57.06v1.1c4.4,0,8.26,3.52,8.26,7.89v53.76c0,4.31-2.75,8.07-7.15,8.44h-1.1v1.1h56.87l2.75-15.96h-.92Z"/>
  </g>
  <g>
    <path class="cls-1" d="m173.99,346.06l-15.69-21.77v21.77h-4.25v-28.37h4.38l15.44,21.26v-21.26h4.25v28.37h-4.12Z"/>
    <path class="cls-1" d="m190.28,317.69h4.29v17.14c0,4.85,2.68,7.95,7.66,7.95s7.61-3.1,7.61-7.95v-17.14h4.29v17.22c0,7.06-3.96,11.65-11.91,11.65s-11.95-4.64-11.95-11.61v-17.27Z"/>
    <path class="cls-1" d="m233.28,346.06v-24.62h-8.8v-3.74h21.82v3.74h-8.76v24.62h-4.25Z"/>
    <path class="cls-1" d="m272.91,346.06l-6.76-10.93h-5.32v10.93h-4.25v-28.37h11.95c5.4,0,9.1,3.49,9.1,8.72s-3.44,7.83-7.06,8.29l7.27,11.35h-4.93Zm-4.93-24.62h-7.14v9.95h7.14c3.06,0,5.27-2,5.27-4.98s-2.21-4.98-5.27-4.98Z"/>
    <path class="cls-1" d="m288.74,346.06v-28.37h4.25v28.37h-4.25Z"/>
    <path class="cls-1" d="m312.13,346.06v-24.62h-8.8v-3.74h21.82v3.74h-8.76v24.62h-4.25Z"/>
    <path class="cls-1" d="m335.43,346.06v-28.37h4.25v28.37h-4.25Z"/>
    <path class="cls-1" d="m364.99,317.23c8.46,0,14.29,6.25,14.29,14.67s-5.83,14.67-14.29,14.67-14.29-6.25-14.29-14.67,5.83-14.67,14.29-14.67Zm0,3.79c-6.08,0-9.91,4.64-9.91,10.89s3.83,10.89,9.91,10.89,9.91-4.68,9.91-10.89-3.91-10.89-9.91-10.89Z"/>
    <path class="cls-1" d="m410.24,346.06l-15.69-21.77v21.77h-4.25v-28.37h4.38l15.44,21.26v-21.26h4.25v28.37h-4.12Z"/>
  </g>
  <g>
    <path class="cls-1" d="m315.53,169.1l37.82-37.82-31.34-31.3-12.59,12.59-6.5-6.5,12.61-12.61-12.61-12.61,6.5-6.5,12.62,12.62,18.71-18.71-18.73-18.73-12.61,12.61-6.48-6.48,19.11-19.11,29.17,29.17v38.22l-16.55-16.55-6.11,6.11,31.3,31.32v-62.66s-37.83-37.82-37.83-37.82l-31.3,31.34,12.59,12.59-6.5,6.5-12.61-12.61-12.61,12.61-6.5-6.5,12.62-12.62-18.71-18.71-18.73,18.73,12.61,12.61-6.48,6.48-19.11-19.11,29.17-29.17h38.22l-16.55,16.55,6.11,6.11,31.32-31.3h-62.66s-37.82,37.83-37.82,37.83l31.34,31.3,12.59-12.59,6.5,6.5-12.61,12.61,12.61,12.61-6.5,6.5-12.62-12.62-18.71,18.71,18.73,18.73,12.61-12.61,6.49,6.48-19.11,19.11-29.17-29.17v-38.22l16.55,16.55,6.11-6.11-31.3-31.32v62.66s37.83,37.82,37.83,37.82l31.3-31.34-12.59-12.59,6.5-6.5,12.61,12.61,12.61-12.61,6.5,6.5-12.62,12.62,18.71,18.71,18.73-18.73-12.61-12.61,6.49-6.48,19.11,19.11-29.17,29.17h-38.22l16.55-16.55-6.11-6.11-31.31,31.3h0s62.66,0,62.66,0Zm6.5-107.36l6.52,6.52-6.5,6.5-6.52-6.52,6.5-6.5Zm-69.54-6.11l6.52-6.52,6.5,6.5-6.52,6.52-6.5-6.5Zm-6.11,69.54l-6.52-6.52,6.5-6.5,6.52,6.52-6.5,6.5Zm37.82-50.82l6.5,6.5-6.5,6.5-6.5-6.5,6.5-6.5Zm-12.61,25.61l-6.5-6.5,6.5-6.5,6.5,6.5-6.5,6.5Zm12.61,12.61l-6.5-6.5,6.5-6.5,6.5,6.5-6.5,6.5Zm6.11-19.11l6.5-6.5,6.5,6.5-6.5,6.5-6.5-6.5Zm25.61,37.82l-6.52,6.52-6.5-6.5,6.52-6.52,6.5,6.5Z"/>
    <path class="cls-1" d="m377.67,54.75L322.92,0h-77.43l-54.75,54.75v77.43l54.75,54.75h77.43l54.75-54.75V54.75Zm-8.64,73.85l-49.69,49.69h-70.27l-49.69-49.69V58.33l49.69-49.69h70.27l49.69,49.69v70.27Z"/>
  </g>
</svg>