<svg xmlns="http://www.w3.org/2000/svg" width="357.854" height="98.178" viewBox="0 0 357.854 98.178">
  <g id="Group_5839" data-name="Group 5839" transform="translate(-87.211 -277.797)">
    <rect id="Rectangle_2618" data-name="Rectangle 2618" width="352.854" height="93.177" transform="translate(89.711 280.297)" fill="#004893" stroke="#004893" stroke-miterlimit="10" stroke-width="5"/>
    <rect id="Rectangle_2619" data-name="Rectangle 2619" width="353.477" height="93.342" transform="translate(89.4 280.215)" fill="#ffe800"/>
    <text id="_" data-name="    " transform="translate(261.907 329.33)" fill="#161615" font-size="9" font-family="Helvetica"><tspan x="0" y="0" xml:space="preserve">    </tspan></text>
    <g id="Group_5839-2" data-name="Group 5839" transform="translate(116.518 297.577)">
      <path id="Path_2815" data-name="Path 2815" d="M122.009,353.344V301.092h21.369a36.415,36.415,0,0,1,6.477.549,14.037,14.037,0,0,1,5.306,2.049,10.436,10.436,0,0,1,3.586,4.135,15.233,15.233,0,0,1,1.317,6.806,11.786,11.786,0,0,1-2.415,7.574,12.113,12.113,0,0,1-7.318,4.061,16.027,16.027,0,0,1,5.232,1.538,9.127,9.127,0,0,1,3.293,2.817,10.686,10.686,0,0,1,1.683,3.952,23.77,23.77,0,0,1,.476,4.94q0,4.977-2.049,7.757a12.966,12.966,0,0,1-4.9,4.135,17.534,17.534,0,0,1-5.855,1.647q-3,.293-4.9.293Zm13.465-30.883h6.586a3.665,3.665,0,0,0,1.573-.4,5.557,5.557,0,0,0,1.61-1.207,6.449,6.449,0,0,0,1.281-2.086,7.965,7.965,0,0,0,.512-2.964,7.67,7.67,0,0,0-1.427-4.793,4.891,4.891,0,0,0-4.135-1.866h-6Zm0,22.833h5.269a15.913,15.913,0,0,0,2.232-.184A5.733,5.733,0,0,0,147.33,342a9.694,9.694,0,0,0-.878-9.332q-1.684-2.157-5.415-2.158h-5.562Z" transform="translate(-122.009 -301.092)" fill="#004893"/>
      <path id="Path_2816" data-name="Path 2816" d="M201.521,355.285,189.58,332.012h4.55a4.855,4.855,0,0,0,4.037-1.865,7.056,7.056,0,0,0,1.468-4.5,6.657,6.657,0,0,0-1.583-4.793,5.6,5.6,0,0,0-4.233-1.647h-6.625v36.079H176.216V312.62H198.27q5.694,0,9.019,2.854t3.322,8.343q0,4.83-2,7.5t-6.651,3.476l10.392,20.491Z" transform="translate(-131.137 -303.033)" fill="#004893"/>
      <path id="Path_2817" data-name="Path 2817" d="M218.72,355.329l12.953-42.445h12.88l12.66,42.445h-11.49l-2.561-9.44H232.185l-2.635,9.44Zm18.735-33.3L233.5,339.376h8.2Z" transform="translate(-138.294 -303.078)" fill="#004893"/>
      <path id="Path_2818" data-name="Path 2818" d="M265.109,355.3v-6.513h15a5.371,5.371,0,0,0,3.952-1.317,4.748,4.748,0,0,0,1.317-3.513,4.052,4.052,0,0,0-1.573-3.22,17.928,17.928,0,0,0-3.915-2.415q-2.343-1.1-5.049-2.2a29.065,29.065,0,0,1-5.05-2.635,14.9,14.9,0,0,1-3.915-3.7,8.761,8.761,0,0,1-1.573-5.306,14.989,14.989,0,0,1,.7-4.647,8.277,8.277,0,0,1,2.5-3.732,12.96,12.96,0,0,1,4.9-2.488,28.257,28.257,0,0,1,7.855-.915h13.026v6.513H281.575a6.123,6.123,0,0,0-3.988,1.171,4.489,4.489,0,0,0,.146,6.7,17.778,17.778,0,0,0,3.915,2.341q2.341,1.063,5.05,2.087a27.273,27.273,0,0,1,5.05,2.524,14.192,14.192,0,0,1,3.916,3.7,9.319,9.319,0,0,1,1.573,5.562,12.935,12.935,0,0,1-1.4,6.55,9.256,9.256,0,0,1-3.682,3.586,14.478,14.478,0,0,1-5.187,1.536,51.551,51.551,0,0,1-5.832.33Z" transform="translate(-145.97 -303.048)" fill="#004893"/>
      <path id="Path_2819" data-name="Path 2819" d="M310.063,355.315V312.8h10.978v42.519Z" transform="translate(-153.675 -303.063)" fill="#004893"/>
      <path id="Path_2820" data-name="Path 2820" d="M331.359,355.315V312.8h10.978v35.786h13.538v6.733Z" transform="translate(-157.261 -303.063)" fill="#004893"/>
      <path id="Path_2821" data-name="Path 2821" d="M363.228,355.3v-6.513h15a5.371,5.371,0,0,0,3.952-1.317,4.747,4.747,0,0,0,1.317-3.513,4.052,4.052,0,0,0-1.573-3.22,17.947,17.947,0,0,0-3.915-2.415q-2.343-1.1-5.05-2.2a29.056,29.056,0,0,1-5.05-2.635A14.9,14.9,0,0,1,364,329.8a8.761,8.761,0,0,1-1.573-5.306,14.965,14.965,0,0,1,.7-4.647,8.275,8.275,0,0,1,2.5-3.732,12.971,12.971,0,0,1,4.9-2.488,28.261,28.261,0,0,1,7.855-.915H391.4v6.513H379.694a6.123,6.123,0,0,0-3.988,1.171,4.488,4.488,0,0,0,.146,6.7,17.758,17.758,0,0,0,3.915,2.341q2.341,1.063,5.05,2.087a27.274,27.274,0,0,1,5.05,2.524,14.19,14.19,0,0,1,3.915,3.7,9.313,9.313,0,0,1,1.573,5.562,12.934,12.934,0,0,1-1.4,6.55,9.256,9.256,0,0,1-3.682,3.586,14.479,14.479,0,0,1-5.186,1.536,51.551,51.551,0,0,1-5.832.33Z" transform="translate(-162.492 -303.048)" fill="#004893"/>
      <path id="Path_2822" data-name="Path 2822" d="M407.742,355.329V312.884h26.053V319.4H418.719v10.465h13.9v6.513h-13.9v12.441H434.38v6.513Z" transform="translate(-170.123 -303.078)" fill="#004893"/>
      <path id="Path_2823" data-name="Path 2823" d="M465.865,326.451a12.878,12.878,0,0,0-.256-2.525,8.331,8.331,0,0,0-.8-2.305,4.56,4.56,0,0,0-1.464-1.647,3.752,3.752,0,0,0-2.159-.622,4.207,4.207,0,0,0-3.22,1.244,7.583,7.583,0,0,0-1.72,3.366,23.54,23.54,0,0,0-.659,4.94q-.11,2.818-.11,5.891a70.781,70.781,0,0,0,.366,8.05,14.822,14.822,0,0,0,1.208,4.757,4.518,4.518,0,0,0,2.2,2.269,8.164,8.164,0,0,0,3.257.585,9.528,9.528,0,0,0,2.086-.147,4.217,4.217,0,0,0,1.281-.659v-9.44h-5.415v-6.586h15.515v21.662q-1.025.146-2.561.4t-3.293.475q-1.756.221-3.513.367t-3.22.146a33.282,33.282,0,0,1-9.953-1.208,11.2,11.2,0,0,1-5.745-3.915,15.428,15.428,0,0,1-2.671-6.952,68.65,68.65,0,0,1-.659-10.319q0-4.024.366-7.9a18.178,18.178,0,0,1,2.013-6.952,12.181,12.181,0,0,1,5.05-4.94q3.4-1.866,9.4-1.866a21.835,21.835,0,0,1,6.257.842,14.5,14.5,0,0,1,4.83,2.415,10.556,10.556,0,0,1,3.11,3.952,12.876,12.876,0,0,1,1.1,5.452l-.073,1.171Z" transform="translate(-176.287 -303.033)" fill="#004893"/>
    </g>
  </g>
</svg>
