<svg xmlns="http://www.w3.org/2000/svg" width="36.057" height="38.09" viewBox="0 0 36.057 38.09"><defs><style>.a{fill:#f66;}</style></defs><g transform="translate(-231.579 -110.6)"><g transform="translate(231.579 110.6)"><path class="a" d="M423.78,307.681a2.208,2.208,0,1,1-2.208-2.208,2.208,2.208,0,0,1,2.208,2.208" transform="translate(-408.727 -294.435)"/><g transform="translate(0 0)"><path class="a" d="M567.68,246.8l-9.294,9.293,2.819,2.815a2.872,2.872,0,1,1,3.935,3.93l5.223,5.216V253.287h5.569Z" transform="translate(-539.874 -239.089)"/><path class="a" d="M367.586,431.314l-11.663-11.62-2.356,2.351a2.872,2.872,0,1,1-3.937,3.929l-5.352,5.34Z" transform="translate(-337.894 -402.186)"/><path class="a" d="M249.118,256.619l-2.231-2.225a2.873,2.873,0,1,1-3.992-3.981l-3.055-3.047-8.261,6.457h5.569v14.733Z" transform="translate(-231.579 -239.619)"/><path class="a" d="M403.1,115.337l-5.973-4.737-9.172,7.272,9.171,9.168L399,125.16a2.872,2.872,0,1,1,3.914-3.917l3.381-3.383-3.2-2.523" transform="translate(-379.095 -110.6)"/><path class="a" d="M617.31,448.962a2.208,2.208,0,1,1-2.208-2.208,2.208,2.208,0,0,1,2.208,2.208" transform="translate(-591.294 -427.713)"/><path class="a" d="M573.471,286.754a2.208,2.208,0,1,1-2.208-2.208,2.208,2.208,0,0,1,2.208,2.208" transform="translate(-549.939 -274.693)"/><path class="a" d="M447.413,467.923a2.208,2.208,0,1,1-2.208-2.208,2.208,2.208,0,0,1,2.208,2.208" transform="translate(-431.021 -445.6)"/></g></g><g transform="translate(232.303 141.79)"><path class="a" d="M249.739,674.5a3.585,3.585,0,0,1-.248,1.389,2.571,2.571,0,0,1-.7.982,3,3,0,0,1-1.11.584,5.151,5.151,0,0,1-1.469.195q-.372,0-.867-.031a7.07,7.07,0,0,1-.973-.128v-5.971a8.157,8.157,0,0,1,1-.12q.518-.031.889-.031a5.376,5.376,0,0,1,1.429.177,2.925,2.925,0,0,1,1.1.557,2.479,2.479,0,0,1,.708.973A3.688,3.688,0,0,1,249.739,674.5Zm-3.99,1.946c.065.006.14.01.226.013s.187,0,.305,0a2.034,2.034,0,0,0,1.535-.522,2,2,0,0,0,.5-1.442,1.73,1.73,0,0,0-1.99-1.955q-.142,0-.292,0a2.776,2.776,0,0,0-.283.022Z" transform="translate(-244.369 -670.798)"/><path class="a" d="M354,699a2.844,2.844,0,0,1,.19-1.084,2.321,2.321,0,0,1,.5-.774,2.081,2.081,0,0,1,.712-.469,2.228,2.228,0,0,1,.827-.159,2.056,2.056,0,0,1,1.566.606,2.5,2.5,0,0,1,.575,1.783q0,.115-.009.252t-.018.243h-2.99a.875.875,0,0,0,.38.646,1.528,1.528,0,0,0,.9.239,3.808,3.808,0,0,0,.712-.066,2.688,2.688,0,0,0,.571-.164l.177,1.07a1.831,1.831,0,0,1-.283.106,3.728,3.728,0,0,1-.394.093q-.217.04-.464.066a4.647,4.647,0,0,1-.5.027,2.936,2.936,0,0,1-1.092-.186,2.13,2.13,0,0,1-.77-.509,2.017,2.017,0,0,1-.451-.765A3.031,3.031,0,0,1,354,699Zm3.1-.5a1.366,1.366,0,0,0-.058-.327.82.82,0,0,0-.15-.283.8.8,0,0,0-.257-.2.835.835,0,0,0-.385-.08.887.887,0,0,0-.38.075.787.787,0,0,0-.265.2.891.891,0,0,0-.164.287,1.883,1.883,0,0,0-.084.332Z" transform="translate(-347.792 -694.518)"/><path class="a" d="M445.207,698.967a2.742,2.742,0,0,1,.164-.951,2.225,2.225,0,0,1,1.225-1.3,2.482,2.482,0,0,1,1.008-.195,3.254,3.254,0,0,1,.681.066,3.318,3.318,0,0,1,.6.19l-.274,1.053a3.329,3.329,0,0,0-.407-.124,2.13,2.13,0,0,0-.5-.053,1.044,1.044,0,0,0-.871.363,1.493,1.493,0,0,0-.288.955,1.546,1.546,0,0,0,.27.973,1.13,1.13,0,0,0,.942.345,3.227,3.227,0,0,0,.513-.044,2.188,2.188,0,0,0,.5-.142l.186,1.079a3.1,3.1,0,0,1-.575.168,3.8,3.8,0,0,1-.761.071,2.865,2.865,0,0,1-1.1-.19,2.065,2.065,0,0,1-.756-.518,2.016,2.016,0,0,1-.433-.774A3.284,3.284,0,0,1,445.207,698.967Z" transform="translate(-433.831 -694.518)"/><path class="a" d="M524.118,698.958a3.028,3.028,0,0,1-.159,1,2.182,2.182,0,0,1-.46.778,2.068,2.068,0,0,1-.721.5,2.406,2.406,0,0,1-.942.177,2.381,2.381,0,0,1-.933-.177,2.067,2.067,0,0,1-.721-.5,2.286,2.286,0,0,1-.469-.778,2.879,2.879,0,0,1-.168-1,2.779,2.779,0,0,1,.173-1,2.267,2.267,0,0,1,.478-.77,2.148,2.148,0,0,1,.725-.5,2.336,2.336,0,0,1,.916-.177,2.359,2.359,0,0,1,.924.177,2.1,2.1,0,0,1,.721.5,2.251,2.251,0,0,1,.469.77A2.845,2.845,0,0,1,524.118,698.958Zm-1.345,0a1.657,1.657,0,0,0-.243-.96.8.8,0,0,0-.694-.349.807.807,0,0,0-.7.349,1.634,1.634,0,0,0-.248.96,1.677,1.677,0,0,0,.248.969.8.8,0,0,0,.7.358.79.79,0,0,0,.694-.358A1.7,1.7,0,0,0,522.774,698.958Z" transform="translate(-503.958 -694.518)"/><path class="a" d="M621.049,698.25q-.177-.044-.416-.093a2.578,2.578,0,0,0-.513-.049,2.377,2.377,0,0,0-.3.022,1.737,1.737,0,0,0-.261.049v3.556h-1.318V697.33a7.947,7.947,0,0,1,.836-.234,4.823,4.823,0,0,1,1.075-.111q.106,0,.257.013t.3.035c.1.015.2.032.3.053a1.431,1.431,0,0,1,.256.075Z" transform="translate(-597.067 -694.959)"/><path class="a" d="M679.1,696.517a3.052,3.052,0,0,1,.973.133,1.515,1.515,0,0,1,.624.38,1.4,1.4,0,0,1,.332.6,2.971,2.971,0,0,1,.1.787v2.742q-.283.062-.787.146a7.58,7.58,0,0,1-1.221.084,3.871,3.871,0,0,1-.818-.08,1.775,1.775,0,0,1-.633-.261,1.192,1.192,0,0,1-.407-.473,1.631,1.631,0,0,1-.142-.717,1.358,1.358,0,0,1,.164-.69,1.259,1.259,0,0,1,.438-.451,1.981,1.981,0,0,1,.628-.243,3.528,3.528,0,0,1,.734-.075,4.194,4.194,0,0,1,.456.022,2.029,2.029,0,0,1,.323.058v-.124a.729.729,0,0,0-.2-.54.985.985,0,0,0-.708-.2,4.517,4.517,0,0,0-.664.049,2.858,2.858,0,0,0-.566.137l-.168-1.061q.115-.035.288-.075t.376-.071q.2-.031.429-.053T679.1,696.517Zm.106,3.857q.194,0,.372-.009a2.544,2.544,0,0,0,.283-.026v-1q-.08-.018-.239-.035a2.665,2.665,0,0,0-.292-.018,2.618,2.618,0,0,0-.349.022.914.914,0,0,0-.287.084.492.492,0,0,0-.195.168.467.467,0,0,0-.071.265.452.452,0,0,0,.208.429A1.149,1.149,0,0,0,679.21,700.374Z" transform="translate(-652.609 -694.518)"/><path class="a" d="M768.17,674.708l1.318-.212v1.371h1.583v1.1h-1.583V678.6a1.3,1.3,0,0,0,.146.664.626.626,0,0,0,.588.248,2.525,2.525,0,0,0,.438-.04,2.258,2.258,0,0,0,.411-.111l.186,1.026a3.738,3.738,0,0,1-.531.168,3.1,3.1,0,0,1-.717.071,2.357,2.357,0,0,1-.894-.146,1.4,1.4,0,0,1-.566-.407,1.514,1.514,0,0,1-.3-.633,3.732,3.732,0,0,1-.084-.823Z" transform="translate(-738.5 -673.744)"/><path class="a" d="M837.521,662a.724.724,0,0,1-.234.571.839.839,0,0,1-1.106,0,.811.811,0,0,1,0-1.141.839.839,0,0,1,1.106,0A.724.724,0,0,1,837.521,662Zm-.124,6h-1.318v-4.653H837.4Z" transform="translate(-802.437 -661.222)"/></g></g></svg>