<svg xmlns="http://www.w3.org/2000/svg" width="319.299" height="87.73" viewBox="0 0 319.299 87.73"><defs><style>.a{fill:#f66;}</style></defs><g transform="translate(-2811.375 487.304)"><g transform="translate(2811.375 -487.304)"><path class="a" d="M3959.535-20.362,3931.75,7.419l8.428,8.416a8.587,8.587,0,1,1,11.763,11.748l15.615,15.594V-.982H3984.2Z" transform="translate(-3876.408 43.427)"/><path class="a" d="M3267.418,607.085l-34.867-34.741-7.043,7.028a8.587,8.587,0,1,1-11.771,11.747l-16,15.966Z" transform="translate(-3178.652 -520.001)"/><path class="a" d="M2863.811,9.228l-6.67-6.652a8.58,8.58,0,0,1-7.134,3.806,8.587,8.587,0,0,1-8.588-8.588,8.579,8.579,0,0,1,3.787-7.121l-9.135-9.109-24.7,19.3h16.649V44.913Z" transform="translate(-2811.375 41.596)"/><path class="a" d="M3392.736-473.143,3374.88-487.3l-27.42,21.742,27.418,27.408,5.618-5.622a8.583,8.583,0,0,1-4.353-7.47,8.588,8.588,0,0,1,8.588-8.588,8.583,8.583,0,0,1,7.467,4.348l10.107-10.114-9.569-7.544" transform="translate(-3320.979 487.304)"/><path class="a" d="M4131.822,671.717a6.6,6.6,0,1,1-6.6-6.6,6.6,6.6,0,0,1,6.6,6.6" transform="translate(-4054.044 -608.19)"/><path class="a" d="M3981.531,115.629a6.6,6.6,0,1,1-6.6-6.6,6.6,6.6,0,0,1,6.6,6.6" transform="translate(-3911.178 -79.57)"/><path class="a" d="M3468.354,187.371a6.6,6.6,0,1,1-6.6-6.6,6.6,6.6,0,0,1,6.6,6.6" transform="translate(-3423.351 -147.769)"/><path class="a" d="M3549.374,736.722a6.6,6.6,0,1,1-6.6-6.6,6.6,6.6,0,0,1,6.6,6.6" transform="translate(-3500.367 -669.984)"/></g><g transform="translate(2923.233 -440.376)"><path class="a" d="M5107.583,550.25a21.216,21.216,0,0,1-1.464,8.215,15.217,15.217,0,0,1-4.152,5.807,17.725,17.725,0,0,1-6.558,3.453,30.385,30.385,0,0,1-8.673,1.151q-2.193,0-5.119-.183a41.59,41.59,0,0,1-5.747-.759V532.618a47.839,47.839,0,0,1,5.877-.706q3.056-.183,5.251-.183a31.666,31.666,0,0,1,8.438,1.047,17.245,17.245,0,0,1,6.5,3.3,14.662,14.662,0,0,1,4.18,5.755A21.821,21.821,0,0,1,5107.583,550.25Zm-23.563,11.506c.382.035.826.062,1.329.079s1.1.026,1.8.026q6.1,0,9.043-3.085t2.944-8.525q0-5.7-2.813-8.628t-8.914-2.929c-.555,0-1.13.009-1.72.026a16.392,16.392,0,0,0-1.668.131Z" transform="translate(-5075.87 -528.321)"/><path class="a" d="M5819.506,716.436a16.9,16.9,0,0,1,1.122-6.411,13.766,13.766,0,0,1,2.951-4.579,12.224,12.224,0,0,1,4.2-2.774,13.116,13.116,0,0,1,4.881-.942q5.842,0,9.237,3.581t3.394,10.533c0,.454-.02.95-.052,1.49s-.07,1.019-.105,1.437h-17.626a5.187,5.187,0,0,0,2.239,3.823,8.974,8.974,0,0,0,5.316,1.413,22.34,22.34,0,0,0,4.191-.392,15.715,15.715,0,0,0,3.358-.969l1.047,6.352a10.6,10.6,0,0,1-1.669.628,21.946,21.946,0,0,1-2.321.549q-1.279.235-2.74.393a27.417,27.417,0,0,1-2.921.157,17.249,17.249,0,0,1-6.442-1.1,12.529,12.529,0,0,1-4.539-3.009,11.924,11.924,0,0,1-2.66-4.528A17.92,17.92,0,0,1,5819.506,716.436Zm18.277-3a8.042,8.042,0,0,0-.34-1.936,4.882,4.882,0,0,0-.885-1.675,4.726,4.726,0,0,0-1.514-1.2,4.919,4.919,0,0,0-2.269-.471,5.2,5.2,0,0,0-2.242.445,4.633,4.633,0,0,0-1.566,1.177,5.267,5.267,0,0,0-.963,1.7,11.256,11.256,0,0,0-.5,1.962Z" transform="translate(-5782.773 -689.923)"/><path class="a" d="M6438.086,716.227a16.227,16.227,0,0,1,.967-5.626,13.158,13.158,0,0,1,7.235-7.72,14.633,14.633,0,0,1,5.957-1.151,19.246,19.246,0,0,1,4.022.392,19.654,19.654,0,0,1,3.553,1.125l-1.621,6.248a19.836,19.836,0,0,0-2.4-.732,12.52,12.52,0,0,0-2.923-.314,6.162,6.162,0,0,0-5.142,2.141,8.826,8.826,0,0,0-1.694,5.639,9.12,9.12,0,0,0,1.594,5.744q1.6,2.037,5.569,2.036a19.066,19.066,0,0,0,3.031-.262,12.841,12.841,0,0,0,2.981-.837l1.1,6.4a18.252,18.252,0,0,1-3.4.994,22.442,22.442,0,0,1-4.5.418,16.912,16.912,0,0,1-6.484-1.125,12.207,12.207,0,0,1-4.473-3.062,11.953,11.953,0,0,1-2.563-4.579A19.5,19.5,0,0,1,6438.086,716.227Z" transform="translate(-6370.797 -689.923)"/><path class="a" d="M6968.231,716.174a17.928,17.928,0,0,1-.941,5.941,12.981,12.981,0,0,1-2.717,4.606,12.236,12.236,0,0,1-4.262,2.957,15.185,15.185,0,0,1-11.08,0,12.264,12.264,0,0,1-4.26-2.957,13.591,13.591,0,0,1-2.768-4.606,17.062,17.062,0,0,1-.992-5.941,16.457,16.457,0,0,1,1.018-5.914,13.438,13.438,0,0,1,2.822-4.554,12.664,12.664,0,0,1,4.285-2.931,14.634,14.634,0,0,1,10.869,0,12.4,12.4,0,0,1,4.262,2.931,13.327,13.327,0,0,1,2.77,4.554A16.8,16.8,0,0,1,6968.231,716.174Zm-7.955,0a9.8,9.8,0,0,0-1.432-5.665,4.7,4.7,0,0,0-4.1-2.062,4.753,4.753,0,0,0-4.121,2.062,9.648,9.648,0,0,0-1.461,5.665,9.9,9.9,0,0,0,1.461,5.718,4.715,4.715,0,0,0,4.121,2.115,4.662,4.662,0,0,0,4.1-2.115A10.055,10.055,0,0,0,6960.276,716.174Z" transform="translate(-6849.071 -689.923)"/><path class="a" d="M7626.72,712.234q-1.043-.262-2.453-.549a15.169,15.169,0,0,0-3.027-.288,14.046,14.046,0,0,0-1.748.131,10.293,10.293,0,0,0-1.539.287v21.02h-7.807V706.77a47.073,47.073,0,0,1,4.943-1.386,28.435,28.435,0,0,1,6.352-.654q.627,0,1.518.079t1.775.209q.891.131,1.777.314a8.328,8.328,0,0,1,1.518.444Z" transform="translate(-7484.961 -692.775)"/><path class="a" d="M8021.265,701.729a18.068,18.068,0,0,1,5.758.786,8.925,8.925,0,0,1,3.688,2.252,8.277,8.277,0,0,1,1.965,3.56,17.608,17.608,0,0,1,.574,4.659v16.231q-1.676.367-4.658.864a44.777,44.777,0,0,1-7.223.5,22.95,22.95,0,0,1-4.842-.471,10.511,10.511,0,0,1-3.742-1.543,7.064,7.064,0,0,1-2.408-2.8,9.652,9.652,0,0,1-.838-4.238,8,8,0,0,1,.971-4.081,7.443,7.443,0,0,1,2.6-2.669,11.742,11.742,0,0,1,3.721-1.439,20.94,20.94,0,0,1,4.352-.444,24.7,24.7,0,0,1,2.7.131,12.138,12.138,0,0,1,1.914.34v-.738a4.361,4.361,0,0,0-1.205-3.214q-1.207-1.211-4.193-1.212a26.819,26.819,0,0,0-3.934.288,16.863,16.863,0,0,0-3.355.81l-.994-6.262q.68-.208,1.7-.445c.682-.157,1.422-.3,2.227-.418s1.646-.226,2.535-.313S8020.358,701.729,8021.265,701.729Zm.646,22.821q1.151,0,2.2-.052a15.4,15.4,0,0,0,1.676-.157v-5.9q-.472-.1-1.416-.209a15.887,15.887,0,0,0-1.729-.1,15.662,15.662,0,0,0-2.072.13,5.434,5.434,0,0,0-1.705.5,2.93,2.93,0,0,0-1.154.992,2.759,2.759,0,0,0-.42,1.566,2.66,2.66,0,0,0,1.234,2.532A6.826,6.826,0,0,0,8021.911,724.55Z" transform="translate(-7864.625 -689.923)"/><path class="a" d="M8627.276,553.984l7.807-1.255v8.1h9.383V567.3h-9.383v9.709a7.736,7.736,0,0,0,.863,3.936q.867,1.471,3.488,1.469a14.909,14.909,0,0,0,2.594-.235,13.324,13.324,0,0,0,2.438-.654l1.1,6.047a21.988,21.988,0,0,1-3.146.994,18.339,18.339,0,0,1-4.242.418,13.994,13.994,0,0,1-5.293-.863,8.306,8.306,0,0,1-3.354-2.407,8.961,8.961,0,0,1-1.756-3.741,22.045,22.045,0,0,1-.5-4.866Z" transform="translate(-8451.852 -548.283)"/><path class="a" d="M9096,467.323a4.267,4.267,0,0,1-1.387,3.367,4.982,4.982,0,0,1-6.547,0,4.776,4.776,0,0,1,0-6.734,4.979,4.979,0,0,1,6.547,0A4.266,4.266,0,0,1,9096,467.323Zm-.734,35.467h-7.8V475.276h7.8Z" transform="translate(-8888.556 -462.729)"/></g></g></svg>