<svg xmlns="http://www.w3.org/2000/svg" width="211.8" height="179.958" viewBox="0 0 211.8 179.958">
  <g id="Grupo_6741" data-name="Grupo 6741" transform="translate(-334.771 -334.772)">
    <path id="Caminho_2960" data-name="Caminho 2960" d="M1123.465,538.418V513.652h-19.1V619.715h19.1V557.358h13.368v-18.94Z" transform="translate(-590.261 -137.197)" fill="#f46334" fill-rule="evenodd"/>
    <path id="Caminho_2961" data-name="Caminho 2961" d="M575.288,375.172a21.575,21.575,0,0,1,21.64-21.461v-18.94a40.617,40.617,0,0,0-40.737,40.4v26.049h-9.632a38.828,38.828,0,1,0,0,18.94h9.632V514.73h19.1V420.161H602.34l5.414-18.94H575.288Zm-66.7,57.3a21.782,21.782,0,1,1,21.962-21.781A21.9,21.9,0,0,1,508.586,432.472Z" transform="translate(-103.285 0)" fill="#f46334" fill-rule="evenodd"/>
    <path id="Caminho_2962" data-name="Caminho 2962" d="M353.869,566.024V513.65h-19.1v52.374c0,28.906,23.712,52.421,52.857,52.421v-18.94A33.66,33.66,0,0,1,353.869,566.024Z" transform="translate(0 -137.195)" fill="#f46334" fill-rule="evenodd"/>
  </g>
</svg>
