<svg xmlns="http://www.w3.org/2000/svg" width="311.211" height="264.424" viewBox="0 0 311.211 264.424">
  <g id="Grupo_6867" data-name="Grupo 6867" transform="translate(-334.771 -334.772)">
    <path id="Caminho_2960" data-name="Caminho 2960" d="M1132.428,550.042v-36.39h-28.062V669.5h28.062V577.871h19.643V550.042Z" transform="translate(-506.089 -117.632)" fill="#fff" fill-rule="evenodd"/>
    <path id="Caminho_2961" data-name="Caminho 2961" d="M624.971,394.135a31.7,31.7,0,0,1,31.8-31.533V334.772c-33.006,0-59.858,26.632-59.858,59.363V432.41H582.757a57.539,57.539,0,0,0-55.8-43.136c-31.721,0-57.526,25.592-57.526,57.05s25.805,57.05,57.526,57.05a57.539,57.539,0,0,0,55.8-43.135h14.152V599.2h28.062V460.239H664.72l7.955-27.829h-47.7Zm-98.009,84.193a32,32,0,1,1,32.271-32A32.174,32.174,0,0,1,526.962,478.328Z" transform="translate(-88.556 0)" fill="#fff" fill-rule="evenodd"/>
    <path id="Caminho_2962" data-name="Caminho 2962" d="M362.832,590.607V513.65H334.771v76.957c0,42.473,34.841,77.026,77.666,77.026V639.8C385.085,639.8,362.832,617.732,362.832,590.607Z" transform="translate(0 -117.631)" fill="#fff" fill-rule="evenodd"/>
  </g>
</svg>
