<svg xmlns="http://www.w3.org/2000/svg" width="298.849" height="93.001" viewBox="0 0 298.849 93.001"><defs><style>.a{fill:#007569;}.b{fill:#fff;}.c{fill:#5cbb68;}</style></defs><g transform="translate(0 -413.56)"><g transform="translate(0 413.56)"><path class="a" d="M341.4,495.135m0,8.663" transform="translate(-160.679 -451.953)"/><g transform="translate(114.925 10.017)"><path class="b" d="M526.67,456.833c4.1-2.741,6.878-6.515,6.878-11.7,0-6.909-5.42-11.584-12.864-11.584H504.177v40.985a67.184,67.184,0,0,0,8.574,0V462.155a55.878,55.878,0,0,0,6.33-1.716,126.67,126.67,0,0,1,7.38,14.1,85.861,85.861,0,0,0,9.676,0A160.487,160.487,0,0,0,526.67,456.833Zm-13.919-14.687h6.46c4.109,0,5.833,1.176,5.521,4.107-.44,4.128-7.063,6.494-11.98,7.65Z" transform="translate(-352.214 -432.987)"/><path class="b" d="M447.655,433.08a55.448,55.448,0,0,0-8.98.023l-15.364,41.118a65.569,65.569,0,0,0,9.268-.025l2.31-6.313a33.638,33.638,0,0,1,16.795-.014l2.354,6.367a79.016,79.016,0,0,0,9.213-.033Zm-9.581,26.1,5.172-14.135,5.223,14.13A43.138,43.138,0,0,0,438.074,459.178Z" transform="translate(-314.155 -432.684)"/><path class="b" d="M386.986,474.339l-.117-41.072a65.687,65.687,0,0,0-8.691.025l.065,22.59a102.522,102.522,0,0,0-18.073-22.37v-.162a63.44,63.44,0,0,0-8.622.024l.117,41.072a45.555,45.555,0,0,0,8.622-.024l-.082-28.673c7.592,8.245,14.612,18.977,18.083,28.616h.007A73.935,73.935,0,0,0,386.986,474.339Z" transform="translate(-280.38 -432.79)"/><path class="b" d="M288.426,474.506V433.539H315.7a42.3,42.3,0,0,1,0,8.6H297.017v6.8h15.791a48.93,48.93,0,0,1,0,8.011H297.017v8.952H316.95a42.372,42.372,0,0,1,0,8.6Z" transform="translate(-250.672 -432.981)"/><path class="b" d="M236.081,474.568c7.395,0,14.3-3.643,14.3-11.853,0-7.83-5.22-10-10.983-12.886-2.827-1.414-10.82-4.4-10.82-6.851,0-2.012,2.338-2.5,5.274-2.5a30.468,30.468,0,0,1,10.439,1.958,21.294,21.294,0,0,0,3.1-7.014c-3.752-1.795-9.135-2.936-15.387-2.936-7.341,0-12.451,3.589-12.451,10.82,0,7.993,9.515,11.255,13.593,13.1,4.621,2.121,8.373,3.317,8.373,6.742,0,2.936-4.241,2.882-6.253,2.882a38.5,38.5,0,0,1-14.735-3.262A31.735,31.735,0,0,0,217.1,470C222.162,473.263,229.719,474.568,236.081,474.568Z" transform="translate(-217.105 -432.484)"/></g><path class="b" d="M0,503.062a49.593,49.593,0,0,0,1.76,9.929,29.767,29.767,0,0,1,7.814,5.652,29.713,29.713,0,0,1,8.688,19.3,49.348,49.348,0,0,0,8.561,5.578v-3.768A38.433,38.433,0,0,0,0,503.062Z" transform="translate(0 -455.684)"/><path class="b" d="M2.116,469.092A49.463,49.463,0,0,0,.386,477.5a46.952,46.952,0,0,1,6.838,2.3,47.326,47.326,0,0,1,15.1,10.227A47.567,47.567,0,0,1,32.5,505.2a47.585,47.585,0,0,1,3.728,18.565v7.365a48.99,48.99,0,0,0,8.546,1.568v-8.933A56.258,56.258,0,0,0,2.116,469.092Z" transform="translate(-0.182 -439.696)"/><path class="b" d="M61.4,480.49a73.906,73.906,0,0,0-15.812-23.564A73.525,73.525,0,0,0,22.132,441.04a73.4,73.4,0,0,0-7.016-2.569,49.667,49.667,0,0,0-4.831,7.541,65.534,65.534,0,0,1,48.373,63.34v8.933a49,49,0,0,0,8.546-1.568v-7.365A73.973,73.973,0,0,0,61.4,480.49Z" transform="translate(-4.841 -425.284)"/><path class="b" d="M68.726,432.578A91.231,91.231,0,0,0,41.208,413.56a49.426,49.426,0,0,0-8.46,5.8A83.423,83.423,0,0,1,87,497.627V501.4a49.346,49.346,0,0,0,8.527-5.551,91.917,91.917,0,0,0-26.8-63.266Z" transform="translate(-15.413 -413.56)"/><g transform="translate(18.265)"><path class="c" d="M152.485,518.643a29.765,29.765,0,0,1,7.813-5.652,49.593,49.593,0,0,0,1.76-9.929,38.433,38.433,0,0,0-26.822,36.689v3.768a49.344,49.344,0,0,0,8.6-5.613A29.692,29.692,0,0,1,152.485,518.643Z" transform="translate(-81.914 -455.684)"/><path class="c" d="M110.212,523.763a47.736,47.736,0,0,1,29-43.958,46.958,46.958,0,0,1,6.839-2.3,49.515,49.515,0,0,0-1.73-8.409,56.257,56.257,0,0,0-42.658,54.671V532.7a49,49,0,0,0,8.546-1.568Z" transform="translate(-66.114 -439.696)"/><path class="c" d="M76.642,509.351a65.533,65.533,0,0,1,48.373-63.34,49.629,49.629,0,0,0-4.831-7.541A74.117,74.117,0,0,0,68.1,509.351v7.365a48.99,48.99,0,0,0,8.546,1.568Z" transform="translate(-50.314 -425.284)"/><path class="c" d="M43.062,497.627a83.424,83.424,0,0,1,54.252-78.262,49.442,49.442,0,0,0-8.46-5.8A92.11,92.11,0,0,0,34.5,495.82a49.371,49.371,0,0,0,8.557,5.575Z" transform="translate(-34.505 -413.56)"/></g></g><g transform="translate(115.438 471.241)"><path class="b" d="M218.073,534.648q1.168-.292,3.1-.62a26.826,26.826,0,0,1,4.454-.329,9.63,9.63,0,0,1,3.761.639,5.892,5.892,0,0,1,2.392,1.789,6.929,6.929,0,0,1,1.259,2.756,16.024,16.024,0,0,1,.365,3.542v10.661h-3.4v-9.931a16.2,16.2,0,0,0-.238-2.993,5.064,5.064,0,0,0-.785-2.008,3.106,3.106,0,0,0-1.46-1.113,6.415,6.415,0,0,0-2.264-.347c-.365,0-.743.013-1.132.036s-.761.055-1.113.092-.67.079-.949.128-.481.086-.6.11v16.028h-3.4Z" transform="translate(-218.073 -527.784)"/><path class="b" d="M262.595,533.561a9.852,9.852,0,0,1,3.45.529,5.607,5.607,0,0,1,2.263,1.5,5.681,5.681,0,0,1,1.223,2.3,11.127,11.127,0,0,1,.365,2.939v11.866q-.438.074-1.223.2t-1.771.238q-.986.109-2.136.2t-2.282.091a12.518,12.518,0,0,1-2.957-.328,6.623,6.623,0,0,1-2.337-1.041,4.762,4.762,0,0,1-1.533-1.88,6.579,6.579,0,0,1-.548-2.811,5.412,5.412,0,0,1,.639-2.7,5.093,5.093,0,0,1,1.734-1.826,8.051,8.051,0,0,1,2.556-1.022,13.957,13.957,0,0,1,3.067-.328q.511,0,1.059.055t1.04.146q.493.091.858.164c.243.049.414.086.511.11v-.949a7.63,7.63,0,0,0-.183-1.661,3.813,3.813,0,0,0-.657-1.461,3.327,3.327,0,0,0-1.3-1.022,5.079,5.079,0,0,0-2.136-.384,16.031,16.031,0,0,0-2.939.238,10.328,10.328,0,0,0-1.88.493l-.4-2.811a10.493,10.493,0,0,1,2.19-.566A18.907,18.907,0,0,1,262.595,533.561Zm.292,17.013q1.2,0,2.136-.055a9.329,9.329,0,0,0,1.552-.2V544.66a4.373,4.373,0,0,0-1.186-.31,13.2,13.2,0,0,0-1.99-.128,12.751,12.751,0,0,0-1.625.11,5,5,0,0,0-1.57.456,3.364,3.364,0,0,0-1.187.95,2.493,2.493,0,0,0-.475,1.588,2.726,2.726,0,0,0,1.168,2.538A6.086,6.086,0,0,0,262.887,550.574Z" transform="translate(-235.504 -527.719)"/><path class="b" d="M296.783,550.574a6.682,6.682,0,0,0,3.085-.547,1.853,1.853,0,0,0,1-1.753,2.327,2.327,0,0,0-.986-1.971,15.644,15.644,0,0,0-3.249-1.643q-1.095-.438-2.1-.895a7.332,7.332,0,0,1-1.734-1.077,4.7,4.7,0,0,1-1.168-1.5,4.784,4.784,0,0,1-.438-2.154,4.838,4.838,0,0,1,1.862-4,7.946,7.946,0,0,1,5.075-1.478,14.338,14.338,0,0,1,1.606.091q.8.091,1.5.219t1.223.274q.529.146.822.256l-.621,2.921a8.574,8.574,0,0,0-1.716-.6,11.1,11.1,0,0,0-2.811-.31,5.189,5.189,0,0,0-2.483.566,1.875,1.875,0,0,0-1.059,1.771,2.408,2.408,0,0,0,.237,1.1,2.527,2.527,0,0,0,.73.858,5.974,5.974,0,0,0,1.223.711q.73.329,1.752.694,1.351.512,2.41,1a7.566,7.566,0,0,1,1.807,1.15,4.414,4.414,0,0,1,1.15,1.589,5.757,5.757,0,0,1,.4,2.282,4.528,4.528,0,0,1-1.953,3.98,9.721,9.721,0,0,1-5.568,1.351,14.565,14.565,0,0,1-3.943-.42q-1.424-.419-1.935-.639l.621-2.921q.584.219,1.862.657A10.742,10.742,0,0,0,296.783,550.574Z" transform="translate(-252.351 -527.719)"/><path class="b" d="M358.114,547.827q-.8-1.351-1.844-3.031t-2.246-3.487q-1.2-1.807-2.5-3.669t-2.574-3.6q-1.278-1.734-2.482-3.268t-2.228-2.7v19.752h-3.468v-25.3h2.811q1.716,1.826,3.669,4.253t3.871,5q1.917,2.573,3.614,5.056t2.866,4.418v-18.73h3.468v25.3Z" transform="translate(-275.82 -522.525)"/><path class="b" d="M405.489,552.895q-1.17.293-3.085.621a26.57,26.57,0,0,1-4.437.328,9.408,9.408,0,0,1-3.687-.639,5.943,5.943,0,0,1-2.41-1.807,7.334,7.334,0,0,1-1.314-2.756,14.365,14.365,0,0,1-.4-3.523V534.457h3.4v9.931q0,3.469,1.095,4.965a4.266,4.266,0,0,0,3.688,1.5q.548,0,1.132-.037t1.1-.092q.511-.055.931-.11a2.756,2.756,0,0,0,.6-.128V534.457h3.4Z" transform="translate(-299.062 -528.141)"/><path class="b" d="M442.9,534.457a95.759,95.759,0,0,1-3.341,10.223q-1.917,4.893-3.705,8.763h-3.067q-1.79-3.869-3.706-8.763a95.64,95.64,0,0,1-3.34-10.223h3.651q.438,1.79,1.041,3.816t1.277,4.016q.676,1.991,1.369,3.852t1.315,3.322q.62-1.459,1.314-3.322t1.369-3.852q.674-1.99,1.278-4.016t1.04-3.816Z" transform="translate(-315.812 -528.141)"/><path class="b" d="M461.815,543.565a12.112,12.112,0,0,1,.73-4.4,9.2,9.2,0,0,1,1.935-3.122,7.87,7.87,0,0,1,2.774-1.862,8.675,8.675,0,0,1,3.213-.62,7.309,7.309,0,0,1,5.878,2.391q2.045,2.392,2.045,7.284v.566a5.263,5.263,0,0,1-.036.638h-13a6.945,6.945,0,0,0,1.716,4.491,6.282,6.282,0,0,0,4.673,1.533,12.426,12.426,0,0,0,3.012-.31,10.8,10.8,0,0,0,1.844-.6l.474,2.848a10.1,10.1,0,0,1-2.172.694,15.471,15.471,0,0,1-3.524.365,11.176,11.176,0,0,1-4.289-.749,8,8,0,0,1-2.976-2.062,8.408,8.408,0,0,1-1.734-3.122A13.194,13.194,0,0,1,461.815,543.565Zm13.034-1.862a5.7,5.7,0,0,0-1.15-3.779,3.96,3.96,0,0,0-3.268-1.478,4.476,4.476,0,0,0-2.063.456,4.868,4.868,0,0,0-1.515,1.186,5.443,5.443,0,0,0-.967,1.68,8.261,8.261,0,0,0-.457,1.935Z" transform="translate(-332.789 -527.719)"/><path class="b" d="M502.37,534.648q1.167-.292,3.1-.62a26.841,26.841,0,0,1,4.454-.329,9.628,9.628,0,0,1,3.761.639,5.887,5.887,0,0,1,2.391,1.789,6.923,6.923,0,0,1,1.26,2.756,16.024,16.024,0,0,1,.365,3.542v10.661h-3.4v-9.931a16.2,16.2,0,0,0-.237-2.993,5.081,5.081,0,0,0-.784-2.008,3.114,3.114,0,0,0-1.461-1.113,6.409,6.409,0,0,0-2.263-.347q-.549,0-1.132.036t-1.114.092q-.53.055-.949.128t-.6.11v16.028h-3.4Z" transform="translate(-351.876 -527.784)"/><path class="b" d="M545.078,550.574a6.682,6.682,0,0,0,3.085-.547,1.853,1.853,0,0,0,1-1.753,2.327,2.327,0,0,0-.986-1.971,15.665,15.665,0,0,0-3.25-1.643q-1.1-.438-2.1-.895a7.341,7.341,0,0,1-1.734-1.077,4.7,4.7,0,0,1-1.168-1.5,4.783,4.783,0,0,1-.438-2.154,4.837,4.837,0,0,1,1.862-4,7.946,7.946,0,0,1,5.075-1.478,14.347,14.347,0,0,1,1.607.091q.8.091,1.5.219t1.223.274q.529.146.822.256l-.621,2.921a8.581,8.581,0,0,0-1.716-.6,11.1,11.1,0,0,0-2.811-.31,5.187,5.187,0,0,0-2.482.566,1.874,1.874,0,0,0-1.059,1.771,2.415,2.415,0,0,0,.237,1.1,2.528,2.528,0,0,0,.73.858,5.97,5.97,0,0,0,1.223.711q.73.329,1.753.694,1.35.512,2.41,1a7.566,7.566,0,0,1,1.807,1.15,4.415,4.415,0,0,1,1.15,1.589,5.766,5.766,0,0,1,.4,2.282,4.527,4.527,0,0,1-1.953,3.98,9.724,9.724,0,0,1-5.568,1.351,14.571,14.571,0,0,1-3.943-.42q-1.424-.419-1.935-.639l.621-2.921q.583.219,1.862.657A10.738,10.738,0,0,0,545.078,550.574Z" transform="translate(-369.21 -527.719)"/></g></g></svg>