<svg xmlns="http://www.w3.org/2000/svg" xmlns:xlink="http://www.w3.org/1999/xlink" width="35.174" height="35.174" viewBox="0 0 35.174 35.174">
  <defs>
    <linearGradient id="linear-gradient" x1="0.5" x2="0.5" y2="1" gradientUnits="objectBoundingBox">
      <stop offset="0" stop-color="#3cc1be"/>
      <stop offset="1" stop-color="#139ba8"/>
    </linearGradient>
    <clipPath id="clip-path">
      <path id="Caminho_3325" data-name="Caminho 3325" d="M724.717,569.722a1.272,1.272,0,1,0,1.272,1.272A1.272,1.272,0,0,0,724.717,569.722Z" transform="translate(-723.446 -569.722)" fill="#fff"/>
    </clipPath>
  </defs>
  <g id="Grupo_9119" data-name="Grupo 9119" transform="translate(7509.523 22741.523)">
    <path id="Caminho_3552" data-name="Caminho 3552" d="M6.424,0H28.75a6.424,6.424,0,0,1,6.424,6.424V28.75a6.424,6.424,0,0,1-6.424,6.424H6.424A6.424,6.424,0,0,1,0,28.75V6.424A6.424,6.424,0,0,1,6.424,0Z" transform="translate(-7509.523 -22741.523)" fill="url(#linear-gradient)"/>
    <g id="Grupo_8554" data-name="Grupo 8554" transform="translate(-7506.782 -22728.637)">
      <g id="Grupo_8550" data-name="Grupo 8550" transform="translate(0 6.626)">
        <g id="Grupo_8549" data-name="Grupo 8549" transform="translate(0 0)">
          <path id="Caminho_3319" data-name="Caminho 3319" d="M724.717,569.722a1.272,1.272,0,1,0,1.272,1.272A1.272,1.272,0,0,0,724.717,569.722Z" transform="translate(-723.446 -569.722)" fill="#fff"/>
          <g id="Grupo_8563" data-name="Grupo 8563">
            <path id="Caminho_3324" data-name="Caminho 3324" d="M724.717,569.722a1.272,1.272,0,1,0,1.272,1.272A1.272,1.272,0,0,0,724.717,569.722Z" transform="translate(-723.446 -569.722)" fill="#fff"/>
            <g id="Grupo_8562" data-name="Grupo 8562" clip-path="url(#clip-path)">
              <g id="Grupo_8548" data-name="Grupo 8548" transform="translate(-0.001)">
                <path id="Caminho_3320" data-name="Caminho 3320" d="M723.436,569.722" transform="translate(-723.436 -569.722)" fill="#fff"/>
                <rect id="Retângulo_2899" data-name="Retângulo 2899" width="0.064" height="2.544" transform="translate(0 0)" fill="#fff"/>
                <rect id="Retângulo_2900" data-name="Retângulo 2900" width="0.064" height="2.544" transform="translate(0.064 0)" fill="#fff"/>
                <rect id="Retângulo_2901" data-name="Retângulo 2901" width="0.064" height="2.544" transform="translate(0.127 0)" fill="#fff"/>
                <rect id="Retângulo_2902" data-name="Retângulo 2902" width="0.064" height="2.544" transform="translate(0.191 0)" fill="#fff"/>
                <rect id="Retângulo_2903" data-name="Retângulo 2903" width="0.064" height="2.544" transform="translate(0.255 0)" fill="#fff"/>
                <rect id="Retângulo_2904" data-name="Retângulo 2904" width="0.064" height="2.544" transform="translate(0.318 0)" fill="#fff"/>
                <rect id="Retângulo_2905" data-name="Retângulo 2905" width="0.064" height="2.544" transform="translate(0.382 0)" fill="#fff"/>
                <rect id="Retângulo_2906" data-name="Retângulo 2906" width="0.064" height="2.544" transform="translate(0.445 0)" fill="#fff"/>
                <rect id="Retângulo_2907" data-name="Retângulo 2907" width="0.064" height="2.544" transform="translate(0.509 0)" fill="#fff"/>
                <rect id="Retângulo_2908" data-name="Retângulo 2908" width="0.064" height="2.544" transform="translate(0.572 0)" fill="#fff"/>
                <rect id="Retângulo_2909" data-name="Retângulo 2909" width="0.064" height="2.544" transform="translate(0.636 0)" fill="#fff"/>
                <rect id="Retângulo_2910" data-name="Retângulo 2910" width="0.064" height="2.544" transform="translate(0.7 0)" fill="#fff"/>
                <rect id="Retângulo_2911" data-name="Retângulo 2911" width="0.064" height="2.544" transform="translate(0.763 0)" fill="#fff"/>
                <rect id="Retângulo_2912" data-name="Retângulo 2912" width="0.064" height="2.544" transform="translate(0.827 0)" fill="#fff"/>
                <rect id="Retângulo_2913" data-name="Retângulo 2913" width="0.064" height="2.544" transform="translate(0.89 0)" fill="#fff"/>
                <rect id="Retângulo_2914" data-name="Retângulo 2914" width="0.064" height="2.544" transform="translate(0.954 0)" fill="#fff"/>
                <rect id="Retângulo_2915" data-name="Retângulo 2915" width="0.064" height="2.544" transform="translate(1.018 0)" fill="#fff"/>
                <rect id="Retângulo_2916" data-name="Retângulo 2916" width="0.064" height="2.544" transform="translate(1.081 0)" fill="#fff"/>
                <rect id="Retângulo_2917" data-name="Retângulo 2917" width="0.064" height="2.544" transform="translate(1.145 0)" fill="#fff"/>
                <rect id="Retângulo_2918" data-name="Retângulo 2918" width="0.064" height="2.544" transform="translate(1.208 0)" fill="#fff"/>
                <rect id="Retângulo_2919" data-name="Retângulo 2919" width="0.064" height="2.544" transform="translate(1.272 0)" fill="#fff"/>
                <rect id="Retângulo_2920" data-name="Retângulo 2920" width="0.064" height="2.544" transform="translate(1.335 0)" fill="#fff"/>
                <rect id="Retângulo_2921" data-name="Retângulo 2921" width="0.064" height="2.544" transform="translate(1.399 0)" fill="#fff"/>
                <rect id="Retângulo_2922" data-name="Retângulo 2922" width="0.064" height="2.544" transform="translate(1.463 0)" fill="#fff"/>
                <rect id="Retângulo_2923" data-name="Retângulo 2923" width="0.064" height="2.544" transform="translate(1.526 0)" fill="#fff"/>
                <rect id="Retângulo_2924" data-name="Retângulo 2924" width="0.064" height="2.544" transform="translate(1.59 0)" fill="#fff"/>
                <rect id="Retângulo_2925" data-name="Retângulo 2925" width="0.064" height="2.544" transform="translate(1.653 0)" fill="#fff"/>
                <rect id="Retângulo_2926" data-name="Retângulo 2926" width="0.064" height="2.544" transform="translate(1.717 0)" fill="#fff"/>
                <rect id="Retângulo_2927" data-name="Retângulo 2927" width="0.064" height="2.544" transform="translate(1.781 0)" fill="#fff"/>
                <rect id="Retângulo_2928" data-name="Retângulo 2928" width="0.064" height="2.544" transform="translate(1.844 0)" fill="#fff"/>
                <rect id="Retângulo_2929" data-name="Retângulo 2929" width="0.064" height="2.544" transform="translate(1.908 0)" fill="#fff"/>
                <rect id="Retângulo_2930" data-name="Retângulo 2930" width="0.064" height="2.544" transform="translate(1.972 0)" fill="#fff"/>
                <rect id="Retângulo_2931" data-name="Retângulo 2931" width="0.064" height="2.544" transform="translate(2.035 0)" fill="#fff"/>
                <rect id="Retângulo_2932" data-name="Retângulo 2932" width="0.064" height="2.544" transform="translate(2.099 0)" fill="#fff"/>
                <rect id="Retângulo_2933" data-name="Retângulo 2933" width="0.064" height="2.544" transform="translate(2.162 0)" fill="#fff"/>
                <rect id="Retângulo_2934" data-name="Retângulo 2934" width="0.064" height="2.544" transform="translate(2.226 0)" fill="#fff"/>
                <rect id="Retângulo_2935" data-name="Retângulo 2935" width="0.064" height="2.544" transform="translate(2.29 0)" fill="#fff"/>
                <rect id="Retângulo_2936" data-name="Retângulo 2936" width="0.064" height="2.544" transform="translate(2.353 0)" fill="#fff"/>
                <rect id="Retângulo_2937" data-name="Retângulo 2937" width="0.064" height="2.544" transform="translate(2.417 0)" fill="#fff"/>
                <rect id="Retângulo_2938" data-name="Retângulo 2938" width="0.064" height="2.544" transform="translate(2.48 0)" fill="#fff"/>
                <path id="Caminho_3321" data-name="Caminho 3321" d="M747.026,593.309" transform="translate(-744.482 -590.765)" fill="#fff"/>
              </g>
            </g>
          </g>
        </g>
      </g>
      <g id="Grupo_8551" data-name="Grupo 8551" transform="translate(3.752 0)" opacity="0.8">
        <path id="Caminho_3323" data-name="Caminho 3323" d="M782.9,517.675h-3.013a.216.216,0,0,1-.159-.069l-2.447-2.625-2.461,2.626a.218.218,0,0,1-.159.069H770.2a.218.218,0,0,1-.217-.218v-4.39c0-2.2-.932-2.2-1.33-2.2a1.976,1.976,0,0,0-1.851,2.1v4.484a.218.218,0,0,1-.218.218h-2.242a.218.218,0,0,1-.218-.218v-4.184c0-.9-.253-2.419-1.2-2.419a2.112,2.112,0,0,0-1.993,1.756c0,.7,0,1.442.008,2.183s.008,1.487.008,2.19v.474a.218.218,0,0,1-.218.218h-2.274a.218.218,0,0,1-.218-.218v-8.92a.218.218,0,0,1,.218-.218h2.274a.218.218,0,0,1,.218.218v.3a4.391,4.391,0,0,1,2.119-.547,3.687,3.687,0,0,1,2.742,1.285,4.354,4.354,0,0,1,2.958-1.285c2.476,0,3.9,1.6,3.9,4.386v3.384l2.863-3.069-4.027-4.335a.218.218,0,0,1,.159-.366h3.012a.219.219,0,0,1,.159.068l2.462,2.613,2.448-2.612a.217.217,0,0,1,.159-.069h3.01a.218.218,0,0,1,.159.366l-4.011,4.335,4.014,4.321a.218.218,0,0,1-.159.366Zm-2.919-.435h2.42l-3.81-4.1a.217.217,0,0,1,0-.3l3.81-4.118h-2.418l-2.542,2.713a.218.218,0,0,1-.158.069h0a.217.217,0,0,1-.158-.068l-2.556-2.713h-2.419l3.825,4.117a.217.217,0,0,1,0,.3l-3.378,3.622a.218.218,0,0,1-.377-.149v-3.937c0-2.548-1.229-3.951-3.461-3.951a4.045,4.045,0,0,0-2.819,1.332.218.218,0,0,1-.34-.024,3.2,3.2,0,0,0-2.542-1.306,3.922,3.922,0,0,0-2.213.682.218.218,0,0,1-.34-.179v-.471H758.67v8.485h1.838v-.256c0-.7,0-1.445-.008-2.188s-.008-1.484-.008-2.186a2.513,2.513,0,0,1,2.428-2.191c1.209,0,1.638,1.537,1.638,2.854v3.966h1.807v-4.268a2.4,2.4,0,0,1,2.286-2.539c.436,0,1.765,0,1.765,2.634v4.172h4.155l2.556-2.727a.216.216,0,0,1,.159-.069h0a.216.216,0,0,1,.159.069Z" transform="translate(-758.234 -508.287)" fill="#fff"/>
      </g>
    </g>
  </g>
</svg>
