<?xml version="1.0" encoding="utf-8"?>
<!-- Generator: Adobe Illustrator 24.1.3, SVG Export Plug-In . SVG Version: 6.00 Build 0)  -->
<svg version="1.1" id="Camada_1" xmlns="http://www.w3.org/2000/svg" xmlns:xlink="http://www.w3.org/1999/xlink" x="0px" y="0px"
	 viewBox="0 0 1200 311.4" style="enable-background:new 0 0 1200 311.4;" xml:space="preserve">
<style type="text/css">
	.st0{fill:#FFFFFF;}
</style>
<g>
	<rect x="565.9" y="12.6" class="st0" width="2.7" height="286.3"/>
	<path class="st0" d="M662.4,197.7h0.2l14.4-37.2h14.7c-7.8,16.6-15.3,33.5-22.4,50.4H654c-5.5-16.9-11.7-33.6-17.6-50.4h14.5
		L662.4,197.7z"/>
	<path class="st0" d="M717.5,211.1c-3.1,0.6-6.1,0.9-9.3,0.9c-16.3,0-18.1-9.7-18.1-14.3c0-20.5,35.7-13.9,35.7-24.8
		c0-4.9-5.5-5.6-9.2-5.6c-6.8,0-13.5,1.8-19.8,4.3l1.5-9.4c7.2-1.7,14.5-2.9,21.9-2.9c8.9,0,19.7,2.1,19.7,13.2
		c0,7.2-1.7,23.2-1.7,38.4h-14.1c0.5-4.5,0.8-9,1.7-26.1c-5.3,4.7-22.2,4.1-22.2,13.2c0,4.8,4.5,6,8.5,6c2.7,0,5.4-0.6,7.9-1.5
		L717.5,211.1z"/>
	<path class="st0" d="M765,168.7h0.2c4.3-7,11.1-9.4,19.4-9.4c10.7,0,18.9,4.2,18.9,16c0,6.2-1.4,20.4-1.4,35.6h-15
		c1.3-9.7,2.3-19.7,2.3-29.4c0-7.3-3.3-10.8-10.7-10.8c-8,0-12.4,5.9-13.8,13.2c-1.5,8.1-1.6,22.5-1.7,27.1h-14.5
		c1.4-15.3,2.4-30.7,2.7-50.4h14.2L765,168.7z"/>
	<path class="st0" d="M830,170.4c-0.2,4.4-1.1,19.7-1.1,23.2c0,4.3,0.8,7.7,5.3,7.7c4.1,0,5.7-0.6,8.1-1.2l-1.8,10.5
		c-3.7,1-7.5,1.5-11.4,1.5c-9.5,0-14.3-3.1-14.3-13.1c0-5.2,1.4-26.4,1.6-28.6h-7.1l0.4-9.9h7.5l0.5-9.2l13.1-2.8l-0.4,12.1h12.7
		l-0.4,9.9H830z"/>
	<path class="st0" d="M873.8,211.1c-3,0.6-6.1,0.9-9.3,0.9c-16.3,0-18-9.7-18-14.3c0-20.5,35.7-13.9,35.7-24.8
		c0-4.9-5.5-5.6-9.2-5.6c-6.8,0-13.5,1.8-19.8,4.3l1.5-9.4c7.2-1.7,14.5-2.9,21.9-2.9c8.9,0,19.7,2.1,19.7,13.2
		c0,7.2-1.7,23.2-1.7,38.4h-14.1c0.5-4.5,0.8-9,1.7-26.1c-5.3,4.7-22.2,4.1-22.2,13.2c0,4.8,4.5,6,8.5,6c2.7,0,5.4-0.6,7.9-1.5
		L873.8,211.1z"/>
	<path class="st0" d="M936.5,169.2c-17.2,0-19.1,13.7-19.1,19.1c0,7.9,4.2,13.3,12.4,13.3c7.7,0,12.3-6.5,13.5-13.5
		c0.9-5.8,0.9-11.8,1.2-18C941.9,169.5,939.2,169.2,936.5,169.2 M908.3,221c6.4,2.2,12.9,4,19.6,4c15.3,0,14.7-11.1,15.2-22.3h-0.2
		c-4,5.8-10.4,8.8-17.7,8.8c-13.6,0-21.8-8.7-21.8-22.1c0-8.9,4-30.1,33.8-30.1c7.3,0,14.6,1.1,21.8,2.4
		c-0.9,10.7-2.2,29.3-2.6,52.5c-0.3,16-10.1,20.7-24.7,20.7c-7.6,0-15.1-1-22.5-2.8L908.3,221z"/>
	<path class="st0" d="M1003.6,179.6c0-7.8-2.7-12-10.4-12c-7.1,0-11.7,5.4-12.6,12H1003.6z M980.1,186.4v1.6
		c0,9.4,6.4,14.7,15.5,14.7c5.8,0,11.4-1.5,16.8-3.2l-1.8,10.6c-5.4,1.2-10.9,1.9-16.4,1.9c-26,0-28.2-17.6-28.2-24.6
		c0-9.2,3.6-28.2,27.4-28.2c13.7,0,23.6,6.9,23.6,21.3c0,2.1-0.3,4.3-0.6,5.9H980.1z"/>
	<path class="st0" d="M1038.6,168.2l0.2,0.2c3.3-6.1,9.4-9.1,16.4-9.1c6.8,0,12.8,2.5,15.1,9.2c3.7-6.6,9.8-9.2,17.1-9.2
		c8.9,0,16.2,4.1,16.2,13.7c0,3-1.6,20.2-1.8,37.9h-14.1c0.7-7.6,1.8-28.4,1.8-31.8c0-5.1-1.9-8.4-7.5-8.4c-6.6,0-9.8,5.1-10.8,10.8
		c-1.1,6.2-1.4,24.3-1.5,29.4h-14.2c0.6-10.4,1.6-21,1.6-31.5c0-4.9-1.7-8.7-7.3-8.7c-6.8,0-9.8,5.5-10.8,11.4
		c-1.2,7.1-1.4,24.1-1.4,28.8h-14.3c0.3-4.2,2-30.4,2.2-50.4h13.5L1038.6,168.2z"/>
	<path class="st0" d="M1169.4,181.3c0.1-0.9-0.7-1.7-1.6-1.7h-17.2c-0.9,0-1.6-0.8-1.6-1.7l1.1-17.2c0.1-0.9-0.7-1.7-1.6-1.7h-7.3
		c-0.9,0-1.8,0.8-1.8,1.7l-1.1,17.2c-0.1,0.9-0.9,1.7-1.8,1.7h-17.2c-0.9,0-1.8,0.8-1.8,1.7l-0.5,7.3c-0.1,0.9,0.7,1.7,1.6,1.7h17.2
		c0.9,0,1.7,0.8,1.6,1.7l-1.1,17.2c-0.1,0.9,0.7,1.7,1.6,1.7h7.3c0.9,0,1.7-0.8,1.8-1.7l1.1-17.2c0.1-0.9,0.9-1.7,1.8-1.7h17.2
		c0.9,0,1.8-0.8,1.8-1.7L1169.4,181.3z"/>
	<g>
		<path class="st0" d="M639.2,91.6h9.3c2.4,0,4.3,0.6,5.6,1.7c1.3,1.2,2,2.8,2,4.8c0,2-0.7,3.6-2,4.8c-1.4,1.2-3.2,1.8-5.6,1.8h-6.6
			V115h-2.7V91.6z M648.3,102.5c1.7,0,3-0.4,3.9-1.1c0.9-0.7,1.3-1.8,1.3-3.2c0-1.4-0.4-2.5-1.3-3.2c-0.9-0.7-2.2-1.1-3.9-1.1h-6.4
			v8.6H648.3z"/>
		<path class="st0" d="M663,114.1c-1.2-0.7-2.1-1.7-2.7-3c-0.6-1.3-1-2.8-1-4.5c0-1.7,0.3-3.2,1-4.5c0.6-1.3,1.6-2.3,2.7-3
			c1.2-0.7,2.5-1.1,4.1-1.1s2.9,0.4,4.1,1.1c1.2,0.7,2.1,1.7,2.7,3c0.6,1.3,1,2.8,1,4.5c0,1.7-0.3,3.2-1,4.5c-0.6,1.3-1.6,2.3-2.7,3
			c-1.2,0.7-2.5,1.1-4.1,1.1S664.2,114.8,663,114.1z M670.9,111.4c0.9-1.1,1.3-2.7,1.3-4.7c0-2-0.4-3.6-1.3-4.7s-2.1-1.7-3.7-1.7
			c-1.6,0-2.9,0.6-3.8,1.7c-0.9,1.1-1.3,2.7-1.3,4.7c0,2.1,0.4,3.7,1.3,4.7c0.9,1.1,2.2,1.6,3.8,1.6
			C668.8,113,670,112.5,670.9,111.4z"/>
		<path class="st0" d="M701.5,98.5h2.6L698,115h-2.6l-4.7-12.9l-4.7,12.9h-2.6l-6.1-16.5h2.8l4.7,13.3l4.8-13.3h2.3l4.8,13.4
			L701.5,98.5z"/>
		<path class="st0" d="M721.4,106.6h-12.1c0,2.1,0.5,3.7,1.5,4.8c1,1.1,2.3,1.6,4.2,1.6c1.9,0,3.7-0.6,5.3-1.9l0.9,1.9
			c-0.7,0.7-1.6,1.2-2.8,1.6c-1.1,0.4-2.3,0.6-3.5,0.6c-2.6,0-4.6-0.8-6.1-2.3c-1.5-1.5-2.2-3.6-2.2-6.3c0-1.7,0.3-3.2,1-4.5
			c0.7-1.3,1.6-2.3,2.8-3c1.2-0.7,2.5-1.1,4-1.1c2.2,0,3.9,0.7,5.2,2.2c1.2,1.4,1.9,3.4,1.9,5.9V106.6z M711.1,101.4
			c-0.9,0.8-1.4,2-1.7,3.5h9.6c-0.1-1.6-0.6-2.7-1.4-3.5c-0.8-0.8-1.9-1.2-3.2-1.2C713,100.1,711.9,100.5,711.1,101.4z"/>
	</g>
	<g>
		<path class="st0" d="M733.7,98.3l-0.1,2.4c-0.5-0.2-1.1-0.3-1.7-0.3c-1.6,0-2.8,0.5-3.6,1.5c-0.8,1-1.2,2.2-1.2,3.6v9.4h-2.7
			v-11.9c0-1.7-0.1-3.3-0.3-4.6h2.5l0.3,3.1c0.4-1.1,1.1-2,2-2.6c0.9-0.6,2-0.9,3.2-0.9C732.8,98.1,733.3,98.1,733.7,98.3z"/>
		<path class="st0" d="M750.3,106.6h-12.1c0,2.1,0.5,3.7,1.5,4.8c1,1.1,2.3,1.6,4.2,1.6c1.9,0,3.7-0.6,5.3-1.9l0.9,1.9
			c-0.7,0.7-1.6,1.2-2.8,1.6c-1.1,0.4-2.3,0.6-3.5,0.6c-2.6,0-4.6-0.8-6.1-2.3c-1.5-1.5-2.2-3.6-2.2-6.3c0-1.7,0.3-3.2,1-4.5
			c0.7-1.3,1.6-2.3,2.8-3c1.2-0.7,2.5-1.1,4-1.1c2.2,0,3.9,0.7,5.2,2.2c1.2,1.4,1.9,3.4,1.9,5.9V106.6z M739.9,101.4
			c-0.9,0.8-1.4,2-1.7,3.5h9.6c-0.1-1.6-0.6-2.7-1.4-3.5c-0.8-0.8-1.9-1.2-3.2-1.2C741.9,100.1,740.8,100.5,739.9,101.4z"/>
		<path class="st0" d="M768.8,90.8V115h-2.6v-3c-0.5,1-1.2,1.8-2.2,2.4c-1,0.6-2.1,0.8-3.4,0.8c-1.4,0-2.7-0.4-3.8-1.1
			c-1.1-0.7-2-1.7-2.6-3c-0.6-1.3-0.9-2.8-0.9-4.5s0.3-3.2,0.9-4.5c0.6-1.3,1.5-2.3,2.6-3s2.4-1.1,3.8-1.1c1.3,0,2.4,0.3,3.4,0.8
			c1,0.6,1.7,1.3,2.2,2.3V90.8H768.8z M764.9,111.3c0.9-1.1,1.3-2.7,1.3-4.7c0-2-0.4-3.6-1.3-4.7c-0.9-1.1-2.1-1.7-3.7-1.7
			s-2.9,0.5-3.8,1.6c-0.9,1.1-1.4,2.6-1.4,4.6c0,2,0.5,3.6,1.4,4.7s2.2,1.7,3.8,1.7S764,112.4,764.9,111.3z"/>
		<path class="st0" d="M794.6,99.1c1.1,0.7,2,1.7,2.6,3c0.6,1.3,0.9,2.8,0.9,4.5s-0.3,3.2-0.9,4.5c-0.6,1.3-1.5,2.3-2.6,3
			c-1.1,0.7-2.4,1.1-3.8,1.1c-1.3,0-2.4-0.3-3.4-0.9c-1-0.6-1.7-1.4-2.2-2.4v3.1h-2.7V90.8h2.7v10.6c0.5-1.1,1.2-1.9,2.2-2.5
			c1-0.6,2.1-0.9,3.4-0.9C792.3,98.1,793.5,98.4,794.6,99.1z M794.1,111.3c0.9-1.1,1.3-2.7,1.3-4.7c0-2-0.4-3.5-1.3-4.6
			c-0.9-1.1-2.1-1.6-3.8-1.6c-1.6,0-2.9,0.5-3.8,1.6c-0.9,1.1-1.3,2.7-1.3,4.7c0,2,0.4,3.6,1.3,4.7c0.9,1.1,2.1,1.7,3.8,1.7
			C791.9,113,793.2,112.4,794.1,111.3z"/>
		<path class="st0" d="M816.8,98.5l-7.7,18c-0.8,1.9-1.8,3.3-3.1,4.1c-1.2,0.9-2.7,1.5-4.5,1.8l-0.6-2.1c1.6-0.4,2.7-0.8,3.5-1.4
			c0.8-0.6,1.5-1.5,2-2.7l0.7-1.5l-7-16.4h2.8l5.6,13.6l5.6-13.6H816.8z"/>
	</g>
	<g>
		<path class="st0" d="M258,263.2h2v-20.4h-2V263.2z M257.8,237.5h2.4v-2.7h-2.4V237.5z"/>
		<path class="st0" d="M294.3,263.2h2v-20.4h-2V263.2z M294.1,237.5h2.4v-2.7h-2.4V237.5z"/>
		<rect x="343.1" y="234.1" class="st0" width="2" height="29.1"/>
		<polygon class="st0" points="405.8,58.8 350.8,58.8 350.8,41.7 479.3,41.7 479.3,58.8 424.3,58.8 424.3,205.5 405.8,205.5 		"/>
		<path class="st0" d="M268.8,58.4c-36,0-65.3,29.3-65.3,65.2c0,36,29.3,65.3,65.3,65.3s65.3-29.3,65.3-65.3
			C334.2,87.7,304.9,58.4,268.8,58.4 M268.8,205.6c-45.2,0-82-36.7-82-81.9c0-45.1,36.8-81.9,82-81.9s82,36.7,82,81.9
			C350.8,168.8,314,205.6,268.8,205.6"/>
		<path class="st0" d="M86.8,188.5c10.2,0,19.4-1.6,27.7-4.9c8.3-3.3,15.3-7.8,21.1-13.6c5.8-5.8,10.3-12.6,13.4-20.5
			c3.2-7.9,4.7-16.3,4.7-25.4v-0.5c0-9-1.6-17.5-4.7-25.4c-3.2-7.9-7.6-14.7-13.4-20.6c-5.8-5.9-12.8-10.4-21.1-13.8
			c-8.3-3.4-17.6-5-27.7-5H48.8v129.6H86.8z M30.6,41.7h56.1c12.6,0,24.2,2.1,34.8,6.2c10.6,4.1,19.6,9.9,27.3,17.2
			c7.6,7.3,13.5,15.9,17.7,25.8c4.2,9.9,6.2,20.6,6.2,32.2v0.5c0,11.5-2.1,22.3-6.2,32.3c-4.2,10-10,18.6-17.7,26
			c-7.6,7.3-16.7,13.1-27.3,17.3c-10.6,4.2-22.1,6.3-34.8,6.3H30.6V41.7z"/>
		<path class="st0" d="M305,258v-13.3h-3v-1.8h3v-6.5h2v6.5h7.1v1.8H307v13.1c0,2.9,1.7,4,4.1,4c1,0,1.8-0.2,3-0.7v1.8
			c-1,0.5-2,0.7-3.3,0.7C307.6,263.6,305,261.8,305,258"/>
		<path class="st0" d="M333.9,255.6v-2.3c-1.7-0.4-4-0.9-6.9-0.9c-4.3,0-6.7,1.9-6.7,4.7v0.1c0,3,2.8,4.7,5.9,4.7
			C330.4,261.8,333.9,259.3,333.9,255.6 M318.3,257.3L318.3,257.3c0-4.3,3.6-6.7,8.9-6.7c2.8,0,4.8,0.4,6.7,0.9v-0.9
			c0-4.1-2.5-6.2-6.7-6.2c-2.5,0-4.5,0.7-6.4,1.6l-0.7-1.7c2.2-1,4.4-1.8,7.2-1.8c2.8,0,4.9,0.8,6.4,2.2c1.4,1.4,2.1,3.2,2.1,5.8
			v12.7h-1.9v-3.4c-1.4,2-3.9,3.9-7.8,3.9C322.3,263.7,318.3,261.5,318.3,257.3"/>
		<path class="st0" d="M384.6,252.1L384.6,252.1c0-4.8-4.2-7.8-8.4-7.8c-4.3,0-7.9,3-7.9,7.7v0.1c0,4.6,3.7,7.8,7.9,7.8
			C380.4,259.8,384.6,256.7,384.6,252.1 M367.1,266.6l1.2-1.6c2.4,1.9,5.2,2.9,8.2,2.9c4.7,0,8-2.7,8-7.9v-3
			c-1.8,2.5-4.5,4.7-8.5,4.7c-4.9,0-9.8-3.8-9.8-9.6V252c0-5.9,4.9-9.7,9.8-9.7c4.1,0,6.8,2.2,8.5,4.6v-4.1h2v17.2
			c0,3-1,5.3-2.6,6.9c-1.8,1.8-4.4,2.7-7.4,2.7C373.1,269.7,369.9,268.7,367.1,266.6"/>
		<path class="st0" d="M393.9,242.9h2v5.8c1.6-3.6,5-6.3,9-6.1v2.2h-0.2c-4.7,0-8.8,3.6-8.8,10.2v8.3h-2V242.9z"/>
		<path class="st0" d="M426.2,253.1L426.2,253.1c0-5-3.7-8.9-8.4-8.9c-4.8,0-8.3,4-8.3,8.7v0.1c0,4.9,3.7,8.8,8.4,8.8
			C422.8,261.9,426.2,257.9,426.2,253.1 M407.4,253.1L407.4,253.1c0-5.8,4.4-10.7,10.5-10.7c6,0,10.4,4.9,10.4,10.6v0.1
			c0,5.7-4.4,10.7-10.5,10.7C411.8,263.7,407.4,258.8,407.4,253.1"/>
		<path class="st0" d="M434,255.3v-12.5h2V255c0,4.2,2.4,7,6.5,7c4,0,7.1-3,7.1-7.3v-11.8h2v20.4h-2v-3.8c-1.4,2.4-3.6,4.3-7.3,4.3
			C437,263.7,434,260.2,434,255.3"/>
		<path class="st0" d="M477,253.1L477,253.1c0-5.4-3.7-8.9-8-8.9c-4.2,0-8.3,3.6-8.3,8.7v0.1c0,5.2,4.1,8.7,8.3,8.7
			C473.4,261.8,477,258.6,477,253.1 M458.9,242.9h2v4.6c1.8-2.7,4.4-5,8.4-5c4.9,0,9.9,4,9.9,10.6v0.1c0,6.6-5,10.7-9.9,10.7
			c-4.1,0-6.7-2.3-8.4-4.9v10.8h-2V242.9z"/>
		<path class="st0" d="M284.8,252.1L284.8,252.1c0-4.8-4.2-7.8-8.4-7.8c-4.3,0-7.9,3-7.9,7.7v0.1c0,4.6,3.7,7.8,7.9,7.8
			C280.6,259.8,284.8,256.7,284.8,252.1 M267.3,266.6l1.2-1.6c2.4,1.9,5.2,2.9,8.2,2.9c4.7,0,8-2.7,8-7.9v-3
			c-1.8,2.5-4.5,4.7-8.5,4.7c-4.9,0-9.8-3.8-9.8-9.6V252c0-5.9,4.9-9.7,9.8-9.7c4.1,0,6.8,2.2,8.5,4.6v-4.1h2V260c0,3-1,5.3-2.6,6.9
			c-1.8,1.8-4.4,2.7-7.4,2.7C273.2,269.7,270.1,268.6,267.3,266.6"/>
		<path class="st0" d="M248.2,253.1L248.2,253.1c0-5.3-4.1-8.8-8.3-8.8c-4.4,0-8,3.2-8,8.7v0.1c0,5.3,3.7,8.8,8,8.8
			C244.1,261.8,248.2,258.3,248.2,253.1 M229.8,253.1L229.8,253.1c0-6.7,5-10.7,9.9-10.7c4.1,0,6.7,2.3,8.4,4.9v-13.2h2v29.1h-2
			v-4.6c-1.8,2.7-4.4,5-8.4,5C234.8,263.7,229.8,259.7,229.8,253.1"/>
	</g>
</g>
</svg>
