<svg xmlns="http://www.w3.org/2000/svg" viewBox="5740 438 20 20"><defs><style>.cls-1{fill:rgba(255,255,255,0)}.cls-2{fill:#dbf2ff}.cls-3{fill:url(#linear-gradient)}.cls-4{opacity:.1}.cls-5{fill:#ed1e79}.cls-6{fill:#4d3e2f}.cls-7{fill:#ffc14d}</style><linearGradient id="linear-gradient" x1=".5" x2=".5" y2="1" gradientUnits="objectBoundingBox"><stop offset="0" stop-color="#fb953b"/><stop offset=".076" stop-color="#fba036"/><stop offset=".272" stop-color="#fcb82d"/><stop offset=".481" stop-color="#fcc926"/><stop offset=".709" stop-color="#fcd322"/><stop offset=".994" stop-color="#fcd621"/></linearGradient></defs><g id="angel" transform="translate(5430 58)"><path id="Rectangle_802" data-name="Rectangle 802" class="cls-1" transform="translate(310 380)" d="M0 0H20V20H0z"/><g id="XMLID_1_" transform="translate(310 382)"><g id="XMLID_23_" transform="translate(0 5.922)"><g id="XMLID_28_" transform="translate(1.512 4.9)"><ellipse id="XMLID_29_" class="cls-2" cx=".819" cy="1.593" rx=".819" ry="1.593" transform="rotate(-85.004 .89 .816)"/></g><g id="XMLID_26_" transform="translate(.424 2.712)"><ellipse id="XMLID_27_" class="cls-2" cx="1.028" cy="1.993" rx="1.028" ry="1.993" transform="rotate(-64.98 1.464 .932)"/></g><g id="XMLID_24_"><ellipse id="XMLID_25_" class="cls-2" cx="1.283" cy="2.485" rx="1.283" ry="2.485" transform="rotate(-45 2.19 .907)"/></g></g><g id="XMLID_16_" transform="translate(14.671 5.921)"><g id="XMLID_21_" transform="translate(.508 4.902)"><ellipse id="XMLID_22_" class="cls-2" cx="1.593" cy=".819" rx="1.593" ry=".819" transform="rotate(-4.996 3.175 .139)"/></g><g id="XMLID_19_" transform="translate(.424 2.709)"><ellipse id="XMLID_20_" class="cls-2" cx="1.993" cy="1.028" rx="1.993" ry="1.028" transform="rotate(-25.04 3.796 .844)"/></g><g id="XMLID_17_"><ellipse id="XMLID_18_" class="cls-2" cx="2.485" cy="1.283" rx="2.485" ry="1.283" transform="rotate(-45 4.242 1.757)"/></g></g><ellipse id="XMLID_15_" class="cls-3" cx="6.826" cy="6.826" rx="6.826" ry="6.826" transform="translate(3.175 2.503)"/><g id="XMLID_12_" class="cls-4" transform="translate(4.659 10.567)"><ellipse id="XMLID_14_" class="cls-5" cx="1.657" cy="1.657" rx="1.657" ry="1.657"/><ellipse id="XMLID_13_" class="cls-5" cx="1.657" cy="1.657" rx="1.657" ry="1.657" transform="translate(7.372)"/></g><g id="XMLID_10_" transform="translate(5.223 7.655)"><path id="XMLID_11_" class="cls-6" d="M52.531 86.148a.451.451 0 0 1-.455-.455.683.683 0 1 0-1.365 0 .455.455 0 0 1-.91 0 1.593 1.593 0 1 1 3.186 0 .456.456 0 0 1-.456.455z" transform="translate(-49.8 -84.1)"/></g><g id="XMLID_8_" transform="translate(11.594 7.655)"><path id="XMLID_9_" class="cls-6" d="M122.531 86.148a.451.451 0 0 1-.455-.455.683.683 0 1 0-1.365 0 .455.455 0 0 1-.91 0 1.593 1.593 0 1 1 3.186 0 .451.451 0 0 1-.456.455z" transform="translate(-119.8 -84.1)"/></g><g id="XMLID_4_" transform="translate(4.54)"><path id="XMLID_5_" class="cls-7" d="M47.761 2.275a29.007 29.007 0 0 1-3.6-.2C43.01 1.92 42.3 1.711 42.3 1.138S43.019.364 44.166.2a32.457 32.457 0 0 1 7.2 0c1.147.155 1.857.364 1.857.937s-.71.774-1.857.937a29.007 29.007 0 0 1-3.605.201zm-3.686-1.137a25.563 25.563 0 0 0 3.686.228 25.562 25.562 0 0 0 3.686-.228A25.563 25.563 0 0 0 47.761.91a25.563 25.563 0 0 0-3.686.228z" transform="translate(-42.3)"/></g><g id="XMLID_2_" transform="translate(8.409 12.096)"><path id="XMLID_3_" class="cls-6" d="M86.393 134.948a1.6 1.6 0 0 1-1.593-1.593.455.455 0 0 1 .91 0 .683.683 0 1 0 1.365 0 .455.455 0 0 1 .91 0 1.6 1.6 0 0 1-1.592 1.593z" transform="translate(-84.8 -132.9)"/></g></g></g></svg>