<svg xmlns="http://www.w3.org/2000/svg" viewBox="5930 280 20 20"><defs><style>.cls-1{fill:rgba(255,255,255,0)}.cls-2{fill:url(#linear-gradient)}.cls-3{opacity:.1}.cls-4{fill:#ed1e79}.cls-5{clip-path:url(#clip-path)}.cls-6{fill:url(#radial-gradient)}.cls-7{fill:#fff}.cls-8{fill:#4d3e2f}</style><linearGradient id="linear-gradient" x1=".5" x2=".5" y2="1" gradientUnits="objectBoundingBox"><stop offset="0" stop-color="#ff793b"/><stop offset=".076" stop-color="#fb6e3a"/><stop offset=".272" stop-color="#f35639"/><stop offset=".481" stop-color="#ed4539"/><stop offset=".709" stop-color="#e93b38"/><stop offset=".994" stop-color="#e83838"/></linearGradient><clipPath id="clip-path"><path id="Path_2285" data-name="Path 2285" d="M33.566 74.387H18.5V69.2l7.533 2.267 7.533-2.267z" transform="translate(-18.5 -69.2)"/></clipPath><radialGradient id="radial-gradient" cx="3.067" cy="-2310.293" r="3.067" gradientUnits="userSpaceOnUse"><stop offset=".763" stop-color="#fcc062"/><stop offset="1" stop-color="#fff"/></radialGradient></defs><g id="angry" transform="translate(5620 -260)"><path id="Rectangle_817" data-name="Rectangle 817" class="cls-1" transform="translate(310 540)" d="M0 0H20V20H0z"/><g id="XMLID_1_" transform="translate(310 540)"><ellipse id="XMLID_18_" class="cls-2" cx="10" cy="10" rx="10" ry="10"/><g id="XMLID_15_" class="cls-3" transform="translate(1.933 11.76)"><ellipse id="XMLID_17_" class="cls-4" cx="2" cy="2" rx="2" ry="2"/><ellipse id="XMLID_16_" class="cls-4" cx="2" cy="2" rx="2" ry="2" transform="translate(12.133)"/></g><g id="XMLID_4_" transform="translate(2.467 9.227)"><g id="XMLID_6_" class="cls-5"><ellipse id="XMLID_14_" class="cls-6" cx="3.067" cy="3.067" rx="3.067" ry="3.067" transform="translate(.733 -1.733)"/><ellipse id="XMLID_13_" class="cls-6" cx="3.067" cy="3.067" rx="3.067" ry="3.067" transform="translate(8.2 -1.733)"/><g id="XMLID_10_" transform="translate(1.04 -1.427)"><ellipse id="XMLID_12_" class="cls-7" cx="2.76" cy="2.76" rx="2.76" ry="2.76"/><ellipse id="XMLID_11_" cx="1.187" cy="1.187" rx="1.187" ry="1.187" transform="translate(1.573 1.573)"/></g><g id="XMLID_7_" transform="translate(8.507 -1.427)"><ellipse id="XMLID_9_" class="cls-7" cx="2.76" cy="2.76" rx="2.76" ry="2.76"/><ellipse id="XMLID_8_" cx="1.187" cy="1.187" rx="1.187" ry="1.187" transform="translate(1.573 1.573)"/></g></g></g><g id="XMLID_2_" transform="translate(6.669 15.002)"><path id="XMLID_3_" class="cls-8" d="M50.681 114.848a.666.666 0 0 1-.12-1.32l5.333-1a.664.664 0 0 1 .24 1.307l-5.333 1c-.04-.001-.08.013-.12.013z" transform="translate(-50.017 -112.517)"/></g></g></g></svg>