<svg xmlns="http://www.w3.org/2000/svg" viewBox="5930 360 20 20"><defs><style>.cls-1{fill:rgba(255,255,255,0)}.cls-2{fill:url(#linear-gradient)}.cls-3{fill:#4d3e2f}.cls-4{opacity:.1}.cls-5{fill:#ed1e79}</style><linearGradient id="linear-gradient" x1=".5" x2=".5" y2="1" gradientUnits="objectBoundingBox"><stop offset="0" stop-color="#fb953b"/><stop offset=".076" stop-color="#fba036"/><stop offset=".272" stop-color="#fcb82d"/><stop offset=".481" stop-color="#fcc926"/><stop offset=".709" stop-color="#fcd322"/><stop offset=".994" stop-color="#fcd621"/></linearGradient></defs><g id="calm" transform="translate(5580 20)"><path id="Rectangle_798" data-name="Rectangle 798" class="cls-1" transform="translate(350 340)" d="M0 0H20V20H0z"/><g id="XMLID_1_" transform="translate(350 340)"><ellipse id="XMLID_12_" class="cls-2" cx="10" cy="10" rx="10" ry="10"/><g id="XMLID_10_" transform="translate(2.665 12.878)"><path id="XMLID_11_" class="cls-3" d="M27.319 101.586a9.041 9.041 0 0 1-7.2-3.933.667.667 0 1 1 1.067-.8 7.754 7.754 0 0 0 6.133 3.4 7.754 7.754 0 0 0 6.133-3.4.667.667 0 1 1 1.067.8 9 9 0 0 1-7.2 3.933z" transform="translate(-19.984 -96.584)"/></g><g id="XMLID_7_" class="cls-4" transform="translate(1.267 10.907)"><ellipse id="XMLID_9_" class="cls-5" cx="2" cy="2" rx="2" ry="2"/><ellipse id="XMLID_8_" class="cls-5" cx="2" cy="2" rx="2" ry="2" transform="translate(13.467)"/></g><g id="XMLID_2_" transform="translate(4.253 8.667)"><g id="XMLID_5_" transform="translate(7.48)"><path id="XMLID_6_" class="cls-3" d="M90 67.667a2 2 0 0 1-2-2 .667.667 0 0 1 1.333 0 .667.667 0 1 0 1.333 0 .667.667 0 0 1 1.333 0 2 2 0 0 1-1.999 2z" transform="translate(-88 -65)"/></g><g id="XMLID_3_"><path id="XMLID_4_" class="cls-3" d="M33.9 67.667a2 2 0 0 1-2-2 .667.667 0 0 1 1.333 0 .667.667 0 1 0 1.333 0 .667.667 0 0 1 1.333 0 2 2 0 0 1-1.999 2z" transform="translate(-31.9 -65)"/></g></g></g></g></svg>