<svg xmlns="http://www.w3.org/2000/svg" viewBox="5930 400 20 20"><defs><style>.cls-1{fill:rgba(255,255,255,0)}.cls-2{fill:url(#linear-gradient)}.cls-3{opacity:.1}.cls-4{fill:#ed1e79}.cls-5{fill:#4d3e2f}.cls-6{fill:url(#radial-gradient)}.cls-7{fill:#fff}.cls-8{fill:#ded6bb}</style><linearGradient id="linear-gradient" x1=".5" x2=".5" y2="1" gradientUnits="objectBoundingBox"><stop offset="0" stop-color="#fb953b"/><stop offset=".076" stop-color="#fba036"/><stop offset=".272" stop-color="#fcb82d"/><stop offset=".481" stop-color="#fcc926"/><stop offset=".709" stop-color="#fcd322"/><stop offset=".994" stop-color="#fcd621"/></linearGradient><radialGradient id="radial-gradient" cx="2.817" cy="-1946.988" r="2.817" gradientUnits="userSpaceOnUse"><stop offset=".65" stop-color="#fcc062"/><stop offset="1" stop-color="#fff"/></radialGradient></defs><g id="flustered" transform="translate(5580 20)"><path id="Rectangle_803" data-name="Rectangle 803" class="cls-1" transform="translate(350 380)" d="M0 0H20V20H0z"/><g id="XMLID_1_" transform="translate(350.629 380)"><circle id="XMLID_39_" class="cls-2" cx="9.186" cy="9.186" r="9.186"/><g id="XMLID_36_" class="cls-3" transform="translate(1.996 10.239)"><ellipse id="XMLID_38_" class="cls-4" cx="2.229" cy="2.229" rx="2.229" ry="2.229"/><ellipse id="XMLID_37_" class="cls-4" cx="2.229" cy="2.229" rx="2.229" ry="2.229" transform="translate(9.92)"/></g><g id="XMLID_30_" transform="translate(2.164 3.199)"><g id="XMLID_34_" transform="translate(10.542 .003)"><path id="XMLID_35_" class="cls-5" d="M106.629 28.821a.6.6 0 0 1-.5-.257 2.888 2.888 0 0 0-1.874-1.2.615.615 0 0 1 .208-1.212 4.125 4.125 0 0 1 2.67 1.7.622.622 0 0 1-.147.857.638.638 0 0 1-.357.112z" transform="translate(-103.744 -26.144)"/></g><g id="XMLID_31_"><path id="XMLID_33_" class="cls-5" d="M18.285 28.8a.638.638 0 0 1-.355-.11.611.611 0 0 1-.147-.857 4.125 4.125 0 0 1 2.67-1.7.615.615 0 0 1 .208 1.212 2.888 2.888 0 0 0-1.874 1.2.638.638 0 0 1-.502.255z" transform="translate(-17.668 -26.117)"/></g></g><g id="XMLID_24_" transform="translate(2.694 6.099)"><ellipse id="XMLID_29_" class="cls-6" cx="2.817" cy="2.817" rx="2.817" ry="2.817"/><g id="XMLID_25_" transform="translate(.367 .367)"><ellipse id="XMLID_28_" class="cls-7" cx="2.449" cy="2.449" rx="2.449" ry="2.449"/><ellipse id="XMLID_27_" cx="1.225" cy="1.225" rx="1.225" ry="1.225" transform="translate(2.143 .735)"/><path id="XMLID_26_" class="cls-7" d="M45.915 61.579a.45.45 0 0 0-.637.637z" transform="translate(-42.682 -60.391)"/></g></g><g id="XMLID_18_" transform="translate(10.043 6.099)"><ellipse id="XMLID_23_" class="cls-6" cx="2.817" cy="2.817" rx="2.817" ry="2.817"/><g id="XMLID_19_" transform="translate(.367 .367)"><ellipse id="XMLID_22_" class="cls-7" cx="2.449" cy="2.449" rx="2.449" ry="2.449"/><ellipse id="XMLID_21_" cx="1.225" cy="1.225" rx="1.225" ry="1.225" transform="translate(2.143 .735)"/><path id="XMLID_20_" class="cls-7" d="M105.915 61.579a.45.45 0 1 0-.637.637z" transform="translate(-102.682 -60.391)"/></g></g><g id="XMLID_16_" transform="translate(4.899 13.742)"><path id="XMLID_17_" class="cls-5" d="M47.961 113.425h-7.349a.612.612 0 1 1 0-1.225h7.348a.606.606 0 0 1 .612.612.614.614 0 0 1-.611.613z" transform="translate(-40 -112.2)"/></g><g id="XMLID_2_" transform="translate(5.389 11.084)"><path id="XMLID_15_" class="cls-7" d="M52.236 93.86a.674.674 0 0 0-1.212-.4v-.539a.674.674 0 1 0-1.347 0v-.343a.674.674 0 0 0-1.347 0v.343a.674.674 0 1 0-1.347 0v2.694c0-.367-.441-.674-.808-.674a.68.68 0 0 0-.674.674l.135 1.617v.024a3.22 3.22 0 0 0 3.209 3.209h.7a2.7 2.7 0 0 0 2.694-2.694V93.86z" transform="translate(-45.316 -91.729)"/><g id="XMLID_13_" transform="translate(2.829 1.004)"><path id="XMLID_14_" class="cls-8" d="M67.284 101.027a.188.188 0 0 1-.184-.184v-1.96a.184.184 0 0 1 .367 0v1.96a.188.188 0 0 1-.183.184z" transform="translate(-67.1 -98.7)"/></g><g id="XMLID_11_" transform="translate(1.482 3.025)"><path id="XMLID_12_" class="cls-8" d="M56.284 117.527a.188.188 0 0 1-.184-.184v-1.96a.184.184 0 0 1 .367 0v1.96a.188.188 0 0 1-.183.184z" transform="translate(-56.1 -115.2)"/></g><g id="XMLID_9_" transform="translate(4.176 1.004)"><path id="XMLID_10_" class="cls-8" d="M78.284 101.223a.188.188 0 0 1-.184-.184v-2.155a.184.184 0 1 1 .367 0v2.156a.18.18 0 0 1-.183.183z" transform="translate(-78.1 -98.7)"/></g><g id="XMLID_7_" transform="translate(5.524 1.543)"><path id="XMLID_8_" class="cls-8" d="M89.284 105.623a.188.188 0 0 1-.184-.184v-2.156a.184.184 0 0 1 .367 0v2.156a.18.18 0 0 1-.183.184z" transform="translate(-89.1 -103.1)"/></g><g id="XMLID_3_"><path id="XMLID_4_" class="cls-8" d="M48.225 99.416h-.7a3.392 3.392 0 0 1-3.393-3.393v-.012L44 94.407v-.012a.852.852 0 0 1 .857-.857 1.189 1.189 0 0 1 .625.208V91.7a.852.852 0 0 1 .857-.857.864.864 0 0 1 .551.2.857.857 0 0 1 1.592 0 .864.864 0 0 1 .551-.2.852.852 0 0 1 .857.857v.159a.879.879 0 0 1 .355-.073.852.852 0 0 1 .857.857v3.393l-.135-.012h-.047l.184.012v.514a2.872 2.872 0 0 1-2.879 2.866zm-3.858-5.034l.135 1.6v.049a3.021 3.021 0 0 0 3.025 3.013h.7a2.514 2.514 0 0 0 2.511-2.511v-3.89a.49.49 0 0 0-.882-.294.193.193 0 0 1-.208.061.184.184 0 0 1-.122-.171V91.7a.49.49 0 1 0-.98 0 .184.184 0 0 1-.367 0v-.343a.49.49 0 1 0-.98 0v.343a.184.184 0 0 1-.367 0 .49.49 0 1 0-.98 0v2.694a.184.184 0 0 1-.367 0c0-.257-.355-.49-.625-.49a.473.473 0 0 0-.493.478z" transform="translate(-44 -90.5)"/></g></g></g></g></svg>