<svg xmlns="http://www.w3.org/2000/svg" viewBox="5550 560 20 20"><defs><style>.cls-1{fill:rgba(255,255,255,0)}.cls-2{fill:url(#linear-gradient)}.cls-3{fill:#4d3e2f}.cls-4{opacity:.1}.cls-5{fill:#ed1e79}</style><linearGradient id="linear-gradient" x1=".5" x2=".5" y2="1" gradientUnits="objectBoundingBox"><stop offset="0" stop-color="#fb953b"/><stop offset=".076" stop-color="#fba036"/><stop offset=".272" stop-color="#fcb82d"/><stop offset=".481" stop-color="#fcc926"/><stop offset=".709" stop-color="#fcd322"/><stop offset=".994" stop-color="#fcd621"/></linearGradient></defs><g id="frown" transform="translate(5160 140)"><path id="Rectangle_809" data-name="Rectangle 809" class="cls-1" transform="translate(390 420)" d="M0 0H20V20H0z"/><g id="XMLID_1_" transform="translate(390 420)"><ellipse id="XMLID_11_" class="cls-2" cx="10" cy="10" rx="10" ry="10"/><g id="XMLID_9_" transform="translate(4.67 12.587)"><path id="XMLID_10_" class="cls-3" d="M45.023 98.307a.676.676 0 0 1-.533-.267 5.246 5.246 0 0 0-4.133-2.307 5.209 5.209 0 0 0-4.133 2.307.667.667 0 1 1-1.067-.8 6.188 6.188 0 0 1 10.4-.013.663.663 0 0 1-.133.933.643.643 0 0 1-.401.147z" transform="translate(-35.027 -94.4)"/></g><g id="XMLID_6_" class="cls-4" transform="translate(1.933 10.907)"><ellipse id="XMLID_8_" class="cls-5" cx="2" cy="2" rx="2" ry="2"/><ellipse id="XMLID_7_" class="cls-5" cx="2" cy="2" rx="2" ry="2" transform="translate(12.133)"/></g><g id="XMLID_4_" transform="translate(11.758 8.493)"><path id="XMLID_5_" class="cls-3" d="M90.185 66.417h-.093a2 2 0 0 1-1.907-2.08.661.661 0 0 1 .693-.64.669.669 0 0 1 .64.693.667.667 0 0 0 1.333.053.661.661 0 0 1 .693-.64.669.669 0 0 1 .64.693 2.008 2.008 0 0 1-1.999 1.921z" transform="translate(-88.182 -63.697)"/></g><g id="XMLID_2_" transform="translate(4.291 8.48)"><path id="XMLID_3_" class="cls-3" d="M34.184 66.33h-.094a2.005 2.005 0 0 1-1.907-2.093.667.667 0 0 1 1.333.053.651.651 0 0 0 .173.48.617.617 0 0 0 .467.213.661.661 0 0 0 .693-.64.661.661 0 0 1 .693-.64.669.669 0 0 1 .64.693 2.01 2.01 0 0 1-1.998 1.934z" transform="translate(-32.181 -63.597)"/></g></g></g></svg>