<svg xmlns="http://www.w3.org/2000/svg" viewBox="5550 440 20 20"><defs><style>.cls-1{fill:rgba(255,255,255,0)}.cls-2{fill:url(#linear-gradient)}.cls-3{opacity:.1}.cls-4{fill:#ed1e79}.cls-5{fill:#4d3e2f}.cls-6{fill:url(#radial-gradient)}.cls-7{fill:#fff}.cls-8{fill:#e0346a}</style><linearGradient id="linear-gradient" x1=".5" x2=".5" y2="1" gradientUnits="objectBoundingBox"><stop offset="0" stop-color="#fb953b"/><stop offset=".076" stop-color="#fba036"/><stop offset=".272" stop-color="#fcb82d"/><stop offset=".481" stop-color="#fcc926"/><stop offset=".709" stop-color="#fcd322"/><stop offset=".994" stop-color="#fcd621"/></linearGradient><radialGradient id="radial-gradient" cx="3.067" cy="-2051.286" r="3.067" gradientUnits="userSpaceOnUse"><stop offset=".65" stop-color="#fcc062"/><stop offset="1" stop-color="#fff"/></radialGradient></defs><g id="happy" transform="translate(5280 140)"><path id="Rectangle_791" data-name="Rectangle 791" class="cls-1" transform="translate(270 300)" d="M0 0H20V20H0z"/><g id="XMLID_1_" transform="translate(270 300)"><ellipse id="XMLID_27_" class="cls-2" cx="10" cy="10" rx="10" ry="10"/><g id="XMLID_24_" class="cls-3" transform="translate(2.173 11.147)"><ellipse id="XMLID_26_" class="cls-4" cx="2.427" cy="2.427" rx="2.427" ry="2.427"/><ellipse id="XMLID_25_" class="cls-4" cx="2.427" cy="2.427" rx="2.427" ry="2.427" transform="translate(10.8)"/></g><g id="XMLID_19_" transform="translate(2.147 3.707)"><g id="XMLID_22_" transform="translate(11.667)"><path id="XMLID_23_" class="cls-5" d="M106.973 30.267a.625.625 0 0 1-.467-.2 3.136 3.136 0 0 0-2.24-.933.667.667 0 0 1 0-1.333 4.478 4.478 0 0 1 3.187 1.32.66.66 0 0 1 0 .947.677.677 0 0 1-.48.199z" transform="translate(-103.6 -27.8)"/></g><g id="XMLID_20_"><path id="XMLID_21_" class="cls-5" d="M16.767 30.267a.625.625 0 0 1-.467-.2.66.66 0 0 1 0-.947 4.456 4.456 0 0 1 3.187-1.32.667.667 0 0 1 0 1.333 3.159 3.159 0 0 0-2.24.933.725.725 0 0 1-.48.201z" transform="translate(-16.1 -27.8)"/></g></g><g id="XMLID_13_" transform="translate(2.933 5.973)"><ellipse id="XMLID_18_" class="cls-6" cx="3.067" cy="3.067" rx="3.067" ry="3.067"/><g id="XMLID_14_" transform="translate(.4 .4)"><ellipse id="XMLID_17_" class="cls-7" cx="2.667" cy="2.667" rx="2.667" ry="2.667"/><ellipse id="XMLID_16_" cx="1.333" cy="1.333" rx="1.333" ry="1.333" transform="translate(1.333 1.333)"/><path id="XMLID_15_" class="cls-7" d="M38.483 60.59a.49.49 0 0 0-.693.693z" transform="translate(-35.963 -58.763)"/></g></g><g id="XMLID_7_" transform="translate(10.933 5.973)"><ellipse id="XMLID_12_" class="cls-6" cx="3.067" cy="3.067" rx="3.067" ry="3.067"/><g id="XMLID_8_" transform="translate(.4 .4)"><ellipse id="XMLID_11_" class="cls-7" cx="2.667" cy="2.667" rx="2.667" ry="2.667"/><ellipse id="XMLID_10_" cx="1.333" cy="1.333" rx="1.333" ry="1.333" transform="translate(1.333 1.333)"/><path id="XMLID_9_" class="cls-7" d="M98.483 60.59a.49.49 0 1 0-.693.693z" transform="translate(-95.963 -58.763)"/></g></g><g id="XMLID_2_" transform="translate(4 13.133)"><g id="XMLID_5_"><path id="XMLID_6_" class="cls-5" d="M30 98.5a6 6 0 0 0 11.92 0z" transform="translate(-30 -98.5)"/></g><path id="XMLID_4_" class="cls-8" d="M61.367 122.7a2.093 2.093 0 0 0-2.067 1.733 5.907 5.907 0 0 0 4.133 0 2.1 2.1 0 0 0-2.066-1.733z" transform="translate(-55.393 -119.473)"/><path id="XMLID_3_" class="cls-7" d="M30 98.5a6.262 6.262 0 0 0 .307 1.333h11.32a6.262 6.262 0 0 0 .307-1.333z" transform="translate(-30 -98.5)"/></g></g></g></svg>