<svg xmlns="http://www.w3.org/2000/svg" viewBox="5550 600 20 20"><defs><style>.cls-1{fill:rgba(255,255,255,0)}.cls-2{fill:url(#linear-gradient)}.cls-3{opacity:.1}.cls-4{fill:#ed1e79}.cls-5{fill:#4d3e2f}.cls-6{fill:#e0346a}.cls-7,.cls-8{fill:#fff}.cls-8{opacity:.5}</style><linearGradient id="linear-gradient" x1=".5" x2=".5" y2="1" gradientUnits="objectBoundingBox"><stop offset="0" stop-color="#fb953b"/><stop offset=".076" stop-color="#fba036"/><stop offset=".272" stop-color="#fcb82d"/><stop offset=".481" stop-color="#fcc926"/><stop offset=".709" stop-color="#fcd322"/><stop offset=".994" stop-color="#fcd621"/></linearGradient></defs><g id="heart_eyes" transform="translate(5160 140)"><path id="Rectangle_814" data-name="Rectangle 814" class="cls-1" transform="translate(390 460)" d="M0 0H20V20H0z"/><g id="XMLID_1_" transform="translate(390 460)"><ellipse id="XMLID_16_" class="cls-2" cx="10" cy="10" rx="10" ry="10"/><g id="XMLID_13_" class="cls-3" transform="translate(2.173 10.48)"><ellipse id="XMLID_15_" class="cls-4" cx="2.427" cy="2.427" rx="2.427" ry="2.427"/><ellipse id="XMLID_14_" class="cls-4" cx="2.427" cy="2.427" rx="2.427" ry="2.427" transform="translate(10.8)"/></g><g id="XMLID_8_" transform="translate(4.04 12.293)"><g id="XMLID_11_"><path id="XMLID_12_" class="cls-5" d="M30.3 92.2a6 6 0 0 0 11.92 0z" transform="translate(-30.3 -92.2)"/></g><path id="XMLID_10_" class="cls-6" d="M61.567 116.4a2.093 2.093 0 0 0-2.067 1.733 5.907 5.907 0 0 0 4.133 0 2.093 2.093 0 0 0-2.066-1.733z" transform="translate(-55.607 -113.173)"/><path id="XMLID_9_" class="cls-7" d="M30.3 92.2a6.262 6.262 0 0 0 .307 1.333h11.32a6.262 6.262 0 0 0 .307-1.333z" transform="translate(-30.3 -92.2)"/></g><g id="XMLID_5_" transform="translate(1.236 4.03)"><path id="XMLID_7_" class="cls-6" d="M14.367 30.261a2.307 2.307 0 0 0-1.453.907 2.321 2.321 0 0 0-1.68-.36 2.515 2.515 0 0 0-1.92 2.987c.333 1.867 2.96 3.787 4.68 3.493s3.533-3.013 3.2-4.88a2.5 2.5 0 0 0-2.827-2.147z" transform="translate(-9.27 -30.224)"/><path id="XMLID_6_" class="cls-8" d="M14.222 40.953a1.16 1.16 0 0 0 .293 1.627l1.333-1.92a1.174 1.174 0 0 0-1.626.293z" transform="translate(-13.378 -39.09)"/></g><g id="XMLID_2_" transform="translate(10.8 4.074)"><path id="XMLID_4_" class="cls-6" d="M87 31.131a2.321 2.321 0 0 0-1.68.36 2.307 2.307 0 0 0-1.453-.907 2.524 2.524 0 0 0-2.827 2.147c-.333 1.867 1.48 4.573 3.2 4.88s4.347-1.627 4.68-3.493A2.515 2.515 0 0 0 87 31.131z" transform="translate(-81 -30.551)"/><path id="XMLID_3_" class="cls-8" d="M88.053 35.517a1.176 1.176 0 0 0-.293 1.627l1.92-1.344a1.169 1.169 0 0 0-1.627-.283z" transform="translate(-86.68 -34.671)"/></g></g></g></svg>