<svg xmlns="http://www.w3.org/2000/svg" viewBox="5740 320 20 20"><defs><style>.cls-1{fill:rgba(255,255,255,0)}.cls-2{fill:url(#linear-gradient)}.cls-3{fill:#4d3e2f}.cls-4{opacity:.1}.cls-5{fill:#ed1e79}.cls-6{fill:#e0346a}.cls-7{fill:#fff;opacity:.5}</style><linearGradient id="linear-gradient" x1=".5" x2=".5" y2="1" gradientUnits="objectBoundingBox"><stop offset="0" stop-color="#fb953b"/><stop offset=".076" stop-color="#fba036"/><stop offset=".272" stop-color="#fcb82d"/><stop offset=".481" stop-color="#fcc926"/><stop offset=".709" stop-color="#fcd322"/><stop offset=".994" stop-color="#fcd621"/></linearGradient></defs><g id="in_love" transform="translate(5470 -180)"><path id="Rectangle_820" data-name="Rectangle 820" class="cls-1" transform="translate(270 500)" d="M0 0H20V20H0z"/><g id="XMLID_1_" transform="translate(270.86 500)"><ellipse id="XMLID_17_" class="cls-2" cx="9.091" cy="9.091" rx="9.091" ry="9.091" transform="translate(0 1.818)"/><g id="XMLID_15_" transform="translate(4.84 14.9)"><path id="XMLID_16_" class="cls-3" d="M44.178 125.954a5.344 5.344 0 0 1-4.109-2.036.6.6 0 0 1 .933-.764 4.1 4.1 0 0 0 3.164 1.6 4.145 4.145 0 0 0 3.176-1.6.6.6 0 0 1 .933.764 5.3 5.3 0 0 1-4.097 2.036z" transform="translate(-39.927 -122.927)"/></g><g id="XMLID_12_" class="cls-4" transform="translate(1.976 12.558)"><circle id="XMLID_14_" class="cls-5" cx="2.206" cy="2.206" r="2.206"/><circle id="XMLID_13_" class="cls-5" cx="2.206" cy="2.206" r="2.206" transform="translate(9.818)"/></g><g id="XMLID_10_" transform="translate(11.212 9.891)"><path id="XMLID_11_" class="cls-3" d="M94.621 84.327a2.131 2.131 0 0 1-2.121-2.121.606.606 0 1 1 1.212 0 .909.909 0 0 0 1.818 0 .606.606 0 1 1 1.212 0 2.131 2.131 0 0 1-2.121 2.121z" transform="translate(-92.5 -81.6)"/></g><g id="XMLID_8_" transform="translate(2.715 9.891)"><path id="XMLID_9_" class="cls-3" d="M24.521 84.327a2.131 2.131 0 0 1-2.121-2.121.606.606 0 1 1 1.212 0 .909.909 0 0 0 1.818 0 .606.606 0 1 1 1.212 0 2.124 2.124 0 0 1-2.121 2.121z" transform="translate(-22.4 -81.6)"/></g><g id="XMLID_5_" transform="translate(9.673)"><path id="XMLID_7_" class="cls-6" d="M82.77 0a1.214 1.214 0 0 0-.836.339A1.291 1.291 0 0 0 81.085 0 1.34 1.34 0 0 0 79.8 1.382a2.6 2.6 0 0 0 2.121 2.255 2.6 2.6 0 0 0 2.121-2.255A1.33 1.33 0 0 0 82.77 0z" transform="translate(-79.8)"/><path id="XMLID_6_" class="cls-7" d="M83.182 3.382a.615.615 0 0 0 0 .873l.873-.873a.615.615 0 0 0-.873 0z" transform="translate(-82.612 -2.812)"/></g><g id="XMLID_2_" transform="translate(12.655 4.897)"><path id="XMLID_4_" class="cls-6" d="M106.521 40.4a.931.931 0 0 0-.606.242.907.907 0 0 0-.606-.242.941.941 0 0 0-.909.982 1.518 1.518 0 1 0 3.03 0 .949.949 0 0 0-.909-.982z" transform="translate(-104.4 -40.4)"/><path id="XMLID_3_" class="cls-7" d="M106.877 42.811a.454.454 0 0 0 0 .63l.63-.63a.432.432 0 0 0-.63 0z" transform="translate(-106.465 -42.399)"/></g></g></g></svg>