<svg xmlns="http://www.w3.org/2000/svg" viewBox="5740 518 20 20"><defs><style>.cls-1{fill:rgba(255,255,255,0)}.cls-2{fill:#e0346a}.cls-3{fill:#fff;opacity:.5}</style></defs><g id="kiss" transform="translate(5390 18)"><path id="Rectangle_822" data-name="Rectangle 822" class="cls-1" transform="translate(350 500)" d="M0 0H20V20H0z"/><g id="XMLID_1_" transform="translate(350 504)"><g id="XMLID_3_"><path id="XMLID_4_" class="cls-2" d="M13.96 0A5.692 5.692 0 0 0 10 1.64 5.692 5.692 0 0 0 6.04 0C2.707 0 0 3.427 0 5.28c0 3.893 5.64 6.053 10 6.053s10-2.16 10-6.053C20 3.427 17.293 0 13.96 0z"/></g><path id="XMLID_2_" class="cls-3" d="M36 43.833c3.32 0 6-.92 6-1.333H30c0 .413 2.693 1.333 6 1.333z" transform="translate(-26 -36.833)"/></g></g></svg>