<svg xmlns="http://www.w3.org/2000/svg" viewBox="5930 480 20 20"><defs><style>.cls-1{fill:rgba(255,255,255,0)}.cls-2{fill:url(#linear-gradient)}.cls-3{opacity:.1}.cls-4{fill:#ed1e79}.cls-5{fill:#4d3e2f}.cls-6{fill:#e0346a}.cls-7{fill:#fff}.cls-8{fill:#429aff}</style><linearGradient id="linear-gradient" x1=".5" x2=".5" y2="1" gradientUnits="objectBoundingBox"><stop offset="0" stop-color="#fb953b"/><stop offset=".076" stop-color="#fba036"/><stop offset=".272" stop-color="#fcb82d"/><stop offset=".481" stop-color="#fcc926"/><stop offset=".709" stop-color="#fcd322"/><stop offset=".994" stop-color="#fcd621"/></linearGradient></defs><g id="lol" transform="translate(5540 180)"><path id="Rectangle_794" data-name="Rectangle 794" class="cls-1" transform="translate(390 300)" d="M0 0H20V20H0z"/><g id="XMLID_1_" transform="translate(390 301)"><ellipse id="XMLID_17_" class="cls-2" cx="9.18" cy="9.18" rx="9.18" ry="9.18" transform="translate(.826)"/><g id="XMLID_14_" class="cls-3" transform="translate(2.821 9.62)"><ellipse id="XMLID_16_" class="cls-4" cx="2.228" cy="2.228" rx="2.228" ry="2.228"/><ellipse id="XMLID_15_" class="cls-4" cx="2.228" cy="2.228" rx="2.228" ry="2.228" transform="translate(9.914)"/></g><g id="XMLID_9_" transform="translate(4.535 11.285)"><g id="XMLID_12_"><path id="XMLID_13_" class="cls-5" d="M37 92.2a5.5 5.5 0 0 0 10.942 0z" transform="translate(-37 -92.2)"/></g><path id="XMLID_11_" class="cls-6" d="M68.1 116.4a1.922 1.922 0 0 0-1.9 1.591 5.422 5.422 0 0 0 3.794 0A1.922 1.922 0 0 0 68.1 116.4z" transform="translate(-62.626 -113.438)"/><path id="XMLID_10_" class="cls-7" d="M37 92.2a5.749 5.749 0 0 0 .282 1.224h10.391a5.749 5.749 0 0 0 .282-1.224z" transform="translate(-37 -92.2)"/></g><path id="XMLID_8_" class="cls-8" d="M132.41 86.987c-.5-1.077-3.758-2.987-3.758-2.987s-.636 3.721-.135 4.8a2.147 2.147 0 1 0 3.892-1.811z" transform="translate(-112.612 -73.719)"/><path id="XMLID_7_" class="cls-8" d="M4.044 88.8c.5-1.077-.135-4.8-.135-4.8S.653 85.909.151 86.987A2.147 2.147 0 1 0 4.044 88.8z" transform="translate(.051 -73.719)"/><g id="XMLID_2_" transform="translate(3.878 7.074)"><g id="XMLID_5_" transform="translate(0 .005)"><path id="XMLID_6_" class="cls-5" d="M32.25 61.5a.616.616 0 0 1-.282-1.163l1.359-.673-1.359-.673a.61.61 0 0 1 .551-1.089l2.448 1.224a.613.613 0 0 1 .343.551.626.626 0 0 1-.343.551l-2.448 1.224a.7.7 0 0 1-.269.048z" transform="translate(-31.629 -57.829)"/></g><g id="XMLID_3_" transform="translate(8.589)"><path id="XMLID_4_" class="cls-5" d="M104.86 61.465a.667.667 0 0 1-.269-.061l-2.448-1.224a.613.613 0 0 1-.343-.551.626.626 0 0 1 .343-.551l2.448-1.224a.61.61 0 1 1 .551 1.089l-1.359.673 1.359.673a.6.6 0 0 1 .269.82.608.608 0 0 1-.551.356z" transform="translate(-101.8 -57.792)"/></g></g></g></g></svg>