<svg xmlns="http://www.w3.org/2000/svg" viewBox="5930 520 20 20"><defs><style>.cls-1{fill:rgba(255,255,255,0)}.cls-2{fill:url(#linear-gradient)}.cls-3{opacity:.1}.cls-4{fill:#ed1e79}.cls-5{fill:#4d3e2f}.cls-6{fill:url(#radial-gradient)}.cls-7{fill:#fff}.cls-8{fill:#ded6bb}</style><linearGradient id="linear-gradient" x1=".5" x2=".5" y2="1" gradientUnits="objectBoundingBox"><stop offset="0" stop-color="#fb953b"/><stop offset=".076" stop-color="#fba036"/><stop offset=".272" stop-color="#fcb82d"/><stop offset=".481" stop-color="#fcc926"/><stop offset=".709" stop-color="#fcd322"/><stop offset=".994" stop-color="#fcd621"/></linearGradient><radialGradient id="radial-gradient" cx="2.753" cy="-1844.682" r="2.758" gradientUnits="userSpaceOnUse"><stop offset=".65" stop-color="#fcc062"/><stop offset="1" stop-color="#fff"/></radialGradient></defs><g id="ok" transform="translate(5540 180)"><path id="Rectangle_799" data-name="Rectangle 799" class="cls-1" transform="translate(390 340)" d="M0 0H20V20H0z"/><g id="XMLID_2_" transform="translate(390.427 340)"><ellipse id="XMLID_43_" class="cls-2" cx="8.993" cy="8.993" rx="8.993" ry="8.993" transform="translate(.588)"/><g id="XMLID_40_" class="cls-3" transform="translate(2.542 10.623)"><ellipse id="XMLID_42_" class="cls-4" cx="2.182" cy="2.182" rx="2.182" ry="2.182"/><ellipse id="XMLID_41_" class="cls-4" cx="2.182" cy="2.182" rx="2.182" ry="2.182" transform="translate(9.712)"/></g><g id="XMLID_35_" transform="translate(2.506 3.333)"><g id="XMLID_38_" transform="translate(10.504)"><path id="XMLID_39_" class="cls-5" d="M111.534 30.018a.562.562 0 0 1-.42-.18A2.82 2.82 0 0 0 109.1 29a.6.6 0 0 1 0-1.2 4.027 4.027 0 0 1 2.866 1.187.594.594 0 0 1 0 .851.609.609 0 0 1-.432.18z" transform="translate(-108.5 -27.8)"/></g><g id="XMLID_36_"><path id="XMLID_37_" class="cls-5" d="M21.5 30.018a.562.562 0 0 1-.42-.18.594.594 0 0 1 0-.851 4.007 4.007 0 0 1 2.866-1.187.6.6 0 0 1 0 1.2 2.841 2.841 0 0 0-2.014.839.609.609 0 0 1-.432.179z" transform="translate(-20.9 -27.8)"/></g></g><g id="XMLID_32_" transform="translate(5.348 12.734)"><g id="XMLID_33_"><path id="XMLID_34_" class="cls-5" d="M44.6 106.2a4.21 4.21 0 0 0 8.393 0z" transform="translate(-44.6 -106.2)"/></g></g><g id="XMLID_25_" transform="translate(3.225 5.372)"><ellipse id="XMLID_30_" class="cls-6" cx="2.758" cy="2.758" rx="2.758" ry="2.758"/><g id="XMLID_26_" transform="translate(.36 .36)"><ellipse id="XMLID_29_" class="cls-7" cx="2.398" cy="2.398" rx="2.398" ry="2.398"/><ellipse id="XMLID_28_" cx="1.199" cy="1.199" rx="1.199" ry="1.199" transform="translate(1.199 1.199)"/><path id="XMLID_27_" class="cls-7" d="M43.3 60.576a.441.441 0 0 0-.623.624z" transform="translate(-41.033 -58.933)"/></g></g><g id="XMLID_19_" transform="translate(10.42 5.372)"><ellipse id="XMLID_24_" class="cls-6" cx="2.758" cy="2.758" rx="2.758" ry="2.758"/><g id="XMLID_20_" transform="translate(.36 .36)"><ellipse id="XMLID_23_" class="cls-7" cx="2.398" cy="2.398" rx="2.398" ry="2.398"/><ellipse id="XMLID_22_" cx="1.199" cy="1.199" rx="1.199" ry="1.199" transform="translate(1.199 1.199)"/><path id="XMLID_21_" class="cls-7" d="M103.3 60.576a.441.441 0 0 0-.624.624z" transform="translate(-101.033 -58.933)"/></g></g><g id="XMLID_9_" transform="translate(0 11.978)"><path id="XMLID_18_" class="cls-7" d="M7.275 105.9a.665.665 0 0 0-.659-.659H6.4a.665.665 0 0 0 .659-.659.7.7 0 0 0-.779-.659h-1.8c.048-.2.108-.432.156-.671.216-.9.372-1.847-.576-1.847a.891.891 0 0 0-.791.48s-1.487 2.362-1.607 2.65l-.012.012a3.124 3.124 0 0 0-.252 1.211v.683a2.646 2.646 0 0 0 2.638 2.638h1.908a.659.659 0 0 0 .4-1.187h.048a.659.659 0 0 0 0-1.319H6.6a.686.686 0 0 0 .675-.673z" transform="translate(-1.232 -101.22)"/><g id="XMLID_16_" transform="translate(2.59 2.518)"><path id="XMLID_17_" class="cls-8" d="M22.739 121.26h-.959a.18.18 0 0 1 0-.36h.959a.18.18 0 0 1 0 .36z" transform="translate(-21.6 -120.9)"/></g><g id="XMLID_10_"><path id="XMLID_12_" class="cls-8" d="M4.724 107.922H2.818A2.814 2.814 0 0 1 0 105.1v-.683a3.277 3.277 0 0 1 .252-1.259.091.091 0 0 1 .024-.048c.156-.324 1.451-2.386 1.607-2.65a1.08 1.08 0 0 1 .947-.56.869.869 0 0 1 .731.3c.324.408.18 1.127.024 1.775-.024.084-.036.168-.06.252s-.036.132-.048.2h1.571a.875.875 0 0 1 .959.839.806.806 0 0 1-.228.576.845.845 0 0 1 0 1.487.843.843 0 0 1-.324 1.367.786.786 0 0 1 .108.4.839.839 0 0 1-.839.826zm-1.391-.36h1.379A.48.48 0 0 0 5 106.7a.189.189 0 0 1-.06-.2.18.18 0 0 1 .168-.12h.048a.48.48 0 0 0 0-.959.18.18 0 1 1 0-.36h.216a.48.48 0 0 0 0-.959h-.216a.18.18 0 1 1 0-.36.481.481 0 0 0 .48-.48c0-.288-.252-.48-.6-.48h-1.8a.171.171 0 0 1-.144-.072.182.182 0 0 1-.036-.156 3.776 3.776 0 0 1 .108-.432c.024-.084.036-.168.06-.24.144-.6.252-1.2.048-1.463a.528.528 0 0 0-.444-.168.723.723 0 0 0-.635.384.012.012 0 0 1-.012.012C1.966 100.991.7 103.03.6 103.269a2.884 2.884 0 0 0-.228 1.139v.683a2.461 2.461 0 0 0 2.458 2.459h.5c-.009.012.003.012.003.012z" transform="translate(0 -99.9)"/></g></g></g></g></svg>