<svg xmlns="http://www.w3.org/2000/svg" viewBox="5550 480 20 20"><defs><style>.cls-1{fill:rgba(255,255,255,0)}.cls-2{fill:url(#linear-gradient)}.cls-3{fill:#8cc63f}.cls-4{opacity:.1}.cls-5{fill:#ed1e79}.cls-6{fill:#4d3e2f}</style><linearGradient id="linear-gradient" x1=".5" x2=".5" y2="1" gradientUnits="objectBoundingBox"><stop offset="0" stop-color="#fb953b"/><stop offset=".076" stop-color="#fba036"/><stop offset=".272" stop-color="#fcb82d"/><stop offset=".481" stop-color="#fcc926"/><stop offset=".709" stop-color="#fcd322"/><stop offset=".994" stop-color="#fcd621"/></linearGradient></defs><g id="puke" transform="translate(5160 -20)"><path id="Rectangle_823" data-name="Rectangle 823" class="cls-1" transform="translate(390 500)" d="M0 0H20V20H0z"/><g id="XMLID_1_" transform="translate(392 500)"><ellipse id="XMLID_12_" class="cls-2" cx="7.987" cy="7.987" rx="7.987" ry="7.987"/><path id="XMLID_11_" class="cls-3" d="M51.926 108.05a3.7 3.7 0 0 0-2.716-.192c-.011 0-.011 0-.021.011h-.011a4.031 4.031 0 0 0-1.778 1.267v5.282a.905.905 0 0 0 1.81 0v.447a1.353 1.353 0 1 0 2.705 0v-.671a.671.671 0 0 0 1.342 0v-5.059a4 4 0 0 0-1.331-1.085z" transform="translate(-42.352 -96.218)"/><g id="XMLID_8_" class="cls-4" transform="translate(1.736 9.436)"><ellipse id="XMLID_10_" class="cls-5" cx="1.938" cy="1.938" rx="1.938" ry="1.938"/><ellipse id="XMLID_9_" class="cls-5" cx="1.938" cy="1.938" rx="1.938" ry="1.938" transform="translate(8.626)"/></g><g id="XMLID_6_" transform="translate(2.644 6.159)"><path id="XMLID_7_" class="cls-6" d="M25.369 61.021a.536.536 0 0 1-.245-1.012l1.182-.586-1.182-.586a.531.531 0 1 1 .479-.948l2.13 1.065a.533.533 0 0 1 .3.479.545.545 0 0 1-.3.479L25.6 60.979a.542.542 0 0 1-.231.042z" transform="translate(-24.829 -57.829)"/></g><g id="XMLID_4_" transform="translate(10.117 6.155)"><path id="XMLID_5_" class="cls-6" d="M97.662 60.987a.58.58 0 0 1-.234-.053L95.3 59.869a.533.533 0 0 1-.3-.479.545.545 0 0 1 .3-.479l2.13-1.065a.531.531 0 1 1 .479.948l-1.182.586 1.182.586a.52.52 0 0 1 .234.714.529.529 0 0 1-.481.307z" transform="translate(-95 -57.792)"/></g><g id="XMLID_2_" transform="translate(3.994 10.927)"><path id="XMLID_3_" class="cls-6" d="M38.033 105.39a.574.574 0 0 1-.341-.117.537.537 0 0 1-.075-.745 5.028 5.028 0 0 1 3.876-1.928 4.975 4.975 0 0 1 3.866 1.928.53.53 0 1 1-.82.671 3.8 3.8 0 0 0-6.1 0 .509.509 0 0 1-.406.191z" transform="translate(-37.5 -102.6)"/></g></g></g></svg>