<svg xmlns="http://www.w3.org/2000/svg" viewBox="5740 160 20 20"><defs><style>.cls-1{fill:rgba(255,255,255,0)}.cls-2{fill:url(#linear-gradient)}.cls-3{fill:#4d3e2f}.cls-4{opacity:.1}.cls-5{fill:#ed1e79}.cls-6{fill:#2b231a}</style><linearGradient id="linear-gradient" x1=".5" x2=".5" y2="1" gradientUnits="objectBoundingBox"><stop offset="0" stop-color="#fb953b"/><stop offset=".076" stop-color="#fba036"/><stop offset=".272" stop-color="#fcb82d"/><stop offset=".481" stop-color="#fcc926"/><stop offset=".709" stop-color="#fcd322"/><stop offset=".994" stop-color="#fcd621"/></linearGradient></defs><g id="sunglasses" transform="translate(5470 -180)"><path id="Rectangle_796" data-name="Rectangle 796" class="cls-1" transform="translate(270 340)" d="M0 0H20V20H0z"/><g id="XMLID_1_" transform="translate(270 340)"><ellipse id="XMLID_8_" class="cls-2" cx="9.677" cy="9.677" rx="9.677" ry="9.677" transform="translate(.323)"/><g id="XMLID_6_" transform="translate(4.184 13.436)"><path id="XMLID_7_" class="cls-3" d="M38.243 107.994a7.331 7.331 0 0 1-5.665-2.813.642.642 0 1 1 .994-.813 5.807 5.807 0 0 0 9.329 0 .642.642 0 0 1 .994.813 7.287 7.287 0 0 1-5.652 2.813z" transform="translate(-32.427 -104.127)"/></g><g id="XMLID_3_" class="cls-4" transform="translate(1.548 10.555)"><ellipse id="XMLID_5_" class="cls-5" cx="1.935" cy="1.935" rx="1.935" ry="1.935"/><ellipse id="XMLID_4_" class="cls-5" cx="1.935" cy="1.935" rx="1.935" ry="1.935" transform="translate(13.032)"/></g><path id="XMLID_2_" class="cls-6" d="M20 49.387a.388.388 0 0 0-.387-.387H.387a.388.388 0 0 0-.387.387v.852a.388.388 0 0 0 .387.387h.026a.383.383 0 0 1 .387.361 4.427 4.427 0 0 0 8.465 1.419.884.884 0 0 1 .735-.529.851.851 0 0 1 .748.516A4.416 4.416 0 0 0 19.2 51a.383.383 0 0 1 .387-.361h.026a.388.388 0 0 0 .387-.387z" transform="translate(0 -42.677)"/></g></g></svg>