<svg xmlns="http://www.w3.org/2000/svg" viewBox="5550 520 20 20"><defs><style>.cls-1{fill:rgba(255,255,255,0)}.cls-2{fill:url(#linear-gradient)}.cls-3{fill:#fff}</style><linearGradient id="linear-gradient" x1=".5" x2=".5" y2="1" gradientUnits="objectBoundingBox"><stop offset="0" stop-color="#429aff"/><stop offset="1" stop-color="#214d80"/></linearGradient></defs><g id="thumbs_up" transform="translate(5160 -20)"><path id="Rectangle_824" data-name="Rectangle 824" class="cls-1" transform="translate(390 540)" d="M0 0H20V20H0z"/><g id="XMLID_1_" transform="translate(390 540)"><g id="XMLID_3_"><ellipse id="XMLID_4_" class="cls-2" cx="10" cy="10" rx="10" ry="10"/></g><path id="XMLID_2_" class="cls-3" d="M46.987 32.827a1.155 1.155 0 0 0-1.147-1.147h-.627a1.155 1.155 0 0 0 1.147-1.147A1.218 1.218 0 0 0 45 29.387h-2.867c.08-.36.187-.76.28-1.16.387-1.573.653-3.227-1-3.227a1.536 1.536 0 0 0-1.373.827s-2.587 4.12-2.8 4.6l-.013.027a5.311 5.311 0 0 0-.427 2.106v1.187a4.6 4.6 0 0 0 4.587 4.587h3.307a1.144 1.144 0 0 0 .68-2.067h.093a1.147 1.147 0 1 0 0-2.293h.36a1.15 1.15 0 0 0 1.16-1.147z" transform="translate(-31.893 -21.667)"/></g></g></svg>