<svg xmlns="http://www.w3.org/2000/svg" viewBox="5550 200 20 20"><defs><style>.cls-1{fill:rgba(255,255,255,0)}.cls-2{fill:url(#linear-gradient)}.cls-3{opacity:.1}.cls-4{fill:#ed1e79}.cls-5{fill:#4d3e2f}.cls-6{fill:#e0346a}.cls-7{fill:#fff}</style><linearGradient id="linear-gradient" x1=".5" x2=".5" y2="1" gradientUnits="objectBoundingBox"><stop offset="0" stop-color="#fb953b"/><stop offset=".076" stop-color="#fba036"/><stop offset=".272" stop-color="#fcb82d"/><stop offset=".481" stop-color="#fcc926"/><stop offset=".709" stop-color="#fcd322"/><stop offset=".994" stop-color="#fcd621"/></linearGradient></defs><g id="tongue" transform="translate(5320 -140)"><path id="Rectangle_795" data-name="Rectangle 795" class="cls-1" transform="translate(230 340)" d="M0 0H20V20H0z"/><g id="XMLID_1_" transform="translate(231 340)"><ellipse id="XMLID_16_" class="cls-2" cx="8.961" cy="8.961" rx="8.961" ry="8.961"/><g id="XMLID_13_" class="cls-3" transform="translate(1.947 9.391)"><ellipse id="XMLID_15_" class="cls-4" cx="2.174" cy="2.174" rx="2.174" ry="2.174"/><ellipse id="XMLID_14_" class="cls-4" cx="2.174" cy="2.174" rx="2.174" ry="2.174" transform="translate(9.677)"/></g><g id="XMLID_8_" transform="translate(3.62 11.016)"><g id="XMLID_11_"><path id="XMLID_12_" class="cls-5" d="M30.3 92.2a5.373 5.373 0 0 0 10.681 0z" transform="translate(-30.3 -92.2)"/></g><path id="XMLID_10_" class="cls-6" d="M61.352 116.4a1.876 1.876 0 0 0-1.852 1.553 5.293 5.293 0 0 0 3.7 0 1.876 1.876 0 0 0-1.848-1.553z" transform="translate(-56.011 -113.509)"/><path id="XMLID_9_" class="cls-7" d="M30.3 92.2a5.611 5.611 0 0 0 .275 1.195h10.143a5.611 5.611 0 0 0 .275-1.195z" transform="translate(-30.3 -92.2)"/></g><g id="XMLID_3_" transform="translate(2.978 6.905)"><g id="XMLID_6_" transform="translate(0 .005)"><path id="XMLID_7_" class="cls-5" d="M25.535 61.41a.6.6 0 0 1-.275-1.135l1.326-.657-1.326-.657a.6.6 0 1 1 .54-1.061l2.389 1.195a.6.6 0 0 1 .335.538.612.612 0 0 1-.335.538L25.8 61.362a.681.681 0 0 1-.265.048z" transform="translate(-24.929 -57.829)"/></g><g id="XMLID_4_" transform="translate(8.372)"><path id="XMLID_5_" class="cls-5" d="M97.987 61.377a.651.651 0 0 1-.263-.06l-2.389-1.195a.6.6 0 0 1-.335-.537.612.612 0 0 1 .335-.538l2.389-1.195a.6.6 0 0 1 .538 1.063l-1.326.657 1.326.657a.609.609 0 0 1-.275 1.147z" transform="translate(-95 -57.792)"/></g></g><path id="XMLID_2_" class="cls-6" d="M55 102.112v5.4a2.389 2.389 0 0 0 4.779 0V102.1H55z" transform="translate(-48.429 -89.902)"/></g></g></svg>