<svg xmlns="http://www.w3.org/2000/svg" viewBox="5740 478 20 20"><defs><style>.cls-1{fill:rgba(255,255,255,0)}.cls-2{fill:url(#linear-gradient)}.cls-3{opacity:.1}.cls-4{fill:#ed1e79}.cls-5{fill:#4d3e2f}</style><linearGradient id="linear-gradient" x1=".5" x2=".5" y2="1" gradientUnits="objectBoundingBox"><stop offset="0" stop-color="#fb953b"/><stop offset=".076" stop-color="#fba036"/><stop offset=".272" stop-color="#fcb82d"/><stop offset=".481" stop-color="#fcc926"/><stop offset=".709" stop-color="#fcd322"/><stop offset=".994" stop-color="#fcd621"/></linearGradient></defs><g id="zzz" transform="translate(5390 18)"><path id="Rectangle_813" data-name="Rectangle 813" class="cls-1" transform="translate(350 460)" d="M0 0H20V20H0z"/><g id="XMLID_1_" transform="translate(350 460)"><ellipse id="XMLID_14_" class="cls-2" cx="9.225" cy="9.225" rx="9.225" ry="9.225" transform="translate(0 1.55)"/><g id="XMLID_11_" class="cls-3" transform="translate(2.005 12.46)"><circle id="XMLID_13_" class="cls-4" cx="2.239" cy="2.239" r="2.239"/><circle id="XMLID_12_" class="cls-4" cx="2.239" cy="2.239" r="2.239" transform="translate(9.963)"/></g><path id="XMLID_10_" class="cls-5" d="M108.95 19.225c-.1.012-.209.037-.308.049-.16.025-.332.062-.492.086-.037.012-.074.012-.111.025.061-.086.123-.185.2-.271.123-.185.258-.369.381-.554.1-.135.2-.283.3-.418a.335.335 0 0 0 .074-.148.257.257 0 0 0-.234-.3c-.049 0-.086.012-.135.012l-.221.037c-.221.037-.443.074-.652.111-.172.025-.344.062-.517.086a.4.4 0 0 0-.16.049.262.262 0 0 0-.037.406.265.265 0 0 0 .209.062.093.093 0 0 0 .049-.012 1.451 1.451 0 0 0 .246-.049c.2-.037.394-.074.59-.1a.045.045 0 0 0 .037-.012c-.049.061-.086.123-.135.185-.1.135-.2.283-.3.418s-.2.3-.307.431c-.062.086-.111.16-.172.246a.238.238 0 0 0-.037.221.277.277 0 0 0 .258.2c.025 0 .061-.012.086-.012.049-.012.1-.012.16-.025.16-.025.332-.062.492-.086s.357-.062.529-.1c.1-.012.2-.037.3-.049a.261.261 0 0 0 .1-.48.469.469 0 0 0-.193-.008z" transform="translate(-93.796 -15.523)"/><path id="XMLID_9_" class="cls-5" d="M134.384 2.312h-1.378l.357-.357.7-.7.541-.541a.75.75 0 0 0 .148-.2.376.376 0 0 0-.271-.492.542.542 0 0 0-.2-.025h-2.111a.493.493 0 0 0-.234.037.388.388 0 0 0-.16.578.42.42 0 0 0 .3.16h1.4l-.234.234-.541.541-.553.554-.308.308a.375.375 0 0 0 .209.652.5.5 0 0 0 .135 0h2.226a.392.392 0 0 0 .332-.172.379.379 0 0 0-.062-.5.7.7 0 0 0-.296-.077z" transform="translate(-115.504)"/><g id="XMLID_7_" transform="translate(8.303 14.477)"><path id="XMLID_8_" class="cls-5" d="M69.038 120.775a1.538 1.538 0 1 1 0-3.075.615.615 0 1 1 0 1.23.308.308 0 1 0 0 .615.609.609 0 0 1 .615.615.617.617 0 0 1-.615.615z" transform="translate(-67.5 -117.7)"/></g><g id="XMLID_2_" transform="translate(2.768 10.295)"><g id="XMLID_5_" transform="translate(8.61)"><path id="XMLID_6_" class="cls-5" d="M94.653 86.468a2.163 2.163 0 0 1-2.153-2.153.615.615 0 0 1 1.23 0 .923.923 0 1 0 1.845 0 .615.615 0 0 1 1.23 0 2.155 2.155 0 0 1-2.152 2.153z" transform="translate(-92.5 -83.7)"/></g><g id="XMLID_3_"><path id="XMLID_4_" class="cls-5" d="M24.653 86.468a2.163 2.163 0 0 1-2.153-2.153.615.615 0 1 1 1.23 0 .923.923 0 1 0 1.845 0 .615.615 0 0 1 1.23 0 2.163 2.163 0 0 1-2.152 2.153z" transform="translate(-22.5 -83.7)"/></g></g></g></g></svg>