<svg id="Group_5834" data-name="Group 5834" xmlns="http://www.w3.org/2000/svg" viewBox="0 0 1000 1000">
  <defs>
    <style>
      .cls-1 {
        fill: #00b1b0;
      }
    </style>
  </defs>
  <path id="Path_2808" data-name="Path 2808" class="cls-1" d="M7.6,124.38c0-8.09-.08-11.88-.16-13.82-.08-1.37-.32-1.78-1.7-1.86l-4.85-.48.33-.97c1.21,0,5.82.32,9.29.32,3.07,0,6.3-.32,11.64-.32,7.92,0,11.15,1.53,13.5,3.88s3.72,6.15,3.72,10.51c0,5.09-1.54,9.05-3.96,11.63-3.32,3.48-7.6,4.69-12.12,4.69a17.314,17.314,0,0,1-5.58-.89l.08-1.13a16.868,16.868,0,0,0,4.53.57,7.711,7.711,0,0,0,6.87-3.47c1.53-2.27,2.59-5.82,2.59-11.08,0-4.2-.89-7.92-2.59-10.02-2.03-2.5-5.02-3.47-9.54-3.47-4.12,0-4.68.49-4.77,1.54-.16,2.83-.4,8.73-.4,16.97v17.78c0,6.23.24,9.3.33,10.99.16,1.78.73,2.1,2.99,2.42l4.2.48-.24.97c-2.75,0-7.19-.33-11.24-.33-3.32,0-7.03.33-10.02.33l.08-.97,3.56-.32c2.26-.24,2.83-.65,2.99-3.24.32-4.12.48-12.04.48-19.4V124.38Z"/>
  <path id="Path_2809" data-name="Path 2809" class="cls-1" d="M22.1,160.07h-.35c-1.25,0-2.87-.07-4.59-.14-2.08-.08-4.44-.18-6.64-.18-1.69,0-3.5.08-5.24.17-1.7.08-3.31.16-4.77.16H0l.15-1.84,3.93-.35c2.06-.22,2.43-.45,2.58-2.81.3-3.77.49-11.37.49-19.37V124.4c0-6.61-.05-11.25-.16-13.8-.07-1.22-.2-1.37-1.27-1.43l-5.43-.54.61-1.82h.33c.45,0,1.38.04,2.55.1,1.93.09,4.57.22,6.75.22,1.32,0,2.65-.06,4.2-.13,2.06-.09,4.39-.2,7.44-.2,8.14,0,11.41,1.61,13.82,4.01,2.44,2.44,3.85,6.39,3.85,10.83,0,4.97-1.41,9.1-4.08,11.94-3.06,3.21-7.25,4.83-12.45,4.83a17.971,17.971,0,0,1-5.73-.92l-.33-.12.14-2.03.54.16a16.14,16.14,0,0,0,4.4.55,7.194,7.194,0,0,0,6.48-3.25c1.68-2.48,2.53-6.12,2.53-10.85,0-4.23-.91-7.78-2.49-9.74-1.87-2.31-4.62-3.31-9.19-3.31-4.23,0-4.27.54-4.31,1.12-.12,2.1-.4,7.96-.4,16.93v17.78c0,5.21.17,8.23.27,10.04l.05.94c.13,1.46.42,1.68,2.6,2l4.7.54Zm-11.59-1.23c2.23,0,4.6.1,6.68.19,1.55.06,3.02.13,4.2.14l.03-.13-3.69-.43c-2.26-.32-3.19-.66-3.38-2.83l-.06-.95c-.1-1.81-.27-4.85-.27-10.09V126.96c0-8.99.28-14.88.41-16.99.12-1.54,1.24-1.96,5.22-1.96,4.81,0,7.86,1.12,9.89,3.64,1.7,2.11,2.68,5.87,2.68,10.3,0,4.91-.9,8.72-2.66,11.33a8.147,8.147,0,0,1-7.24,3.67,18.242,18.242,0,0,1-4.12-.44l-.02.25a17.309,17.309,0,0,0,5.1.75c5.02,0,8.88-1.49,11.79-4.55,2.51-2.67,3.84-6.59,3.84-11.32,0-4.2-1.31-7.91-3.58-10.19-2.25-2.26-5.35-3.75-13.18-3.75-3.02,0-5.35.11-7.4.2-1.56.07-2.91.13-4.24.13-2.19,0-4.85-.13-6.79-.22-.92-.04-1.68-.08-2.18-.09l-.04.12,4.29.43c1.69.1,2.02.78,2.1,2.28.11,2.57.16,7.23.16,13.85v11.31c0,8.15-.19,15.59-.49,19.44-.18,2.85-.96,3.39-3.39,3.64l-3.18.29-.01.1c1.32-.02,2.74-.08,4.25-.16,1.76-.09,3.57-.18,5.28-.18"/>
  <path id="Path_2810" data-name="Path 2810" class="cls-1" d="M48.06,107.24c1.7,0,6.87.32,10.83.32H71.82c5.66,0,10.02-.32,11.15-.72a106.294,106.294,0,0,0-.16,12.53l-.97.16a29.835,29.835,0,0,0-1.62-6.95c-1.13-2.75-2.02-3.63-10.75-3.63H63.1c-.89,0-1.13.32-1.21,1.29-.08,2.67-.33,6.71-.33,12.29v8.97c.97.16,4.53.16,5.66.16,8.24,0,9.61-1.45,10.27-6.87h.89a101.333,101.333,0,0,0-.16,16.4h-.89c-.65-6.63-1.7-8.08-10.19-8.08-1.53,0-4.6,0-5.58.16v7.84c0,4.77.08,11.72.33,14.79.16,1.7.97,2.11,8.25,2.11,8.16,0,10.1-.57,12.12-2.75,1.86-2.03,3.31-6.06,4.12-9.3l.89.17c-.08,1.7-1.86,11.48-2.26,13.57-2.34-.25-7.35-.4-17.87-.4H58.57c-3.8,0-9.05.33-11.31.33l.08-.97,4.68-.56c1.45-.16,2.18-.57,2.42-3.4.16-3.55.24-8.4.24-13.74V125.85c0-7.43-.08-12.37-.24-14.95-.08-1.62-.72-2.19-2.75-2.34l-3.63-.33Z"/>
  <path id="Path_2811" data-name="Path 2811" class="cls-1" d="M85.37,160.19l-.41-.05c-2.64-.27-8.31-.4-17.82-.4H58.57c-2.13,0-4.72.1-7,.19-1.78.07-3.32.14-4.31.14h-.49l.16-1.83,5.05-.61c1.08-.12,1.79-.2,2.03-2.99.16-3.44.24-8.18.24-13.7V125.83c0-7.46-.08-12.34-.24-14.93-.07-1.29-.43-1.77-2.34-1.92l-4.05-.36v-1.84h.45c.67,0,1.9.05,3.38.11,2.26.09,5.07.21,7.46.21H71.84c5.93,0,10.02-.35,11-.7l.68-.24-.08.71a106.6,106.6,0,0,0-.16,12.44l.03.41-1.83.31-.06-.46a29.432,29.432,0,0,0-1.59-6.85c-.98-2.37-1.38-3.35-10.33-3.35H63.1c-.56,0-.69.03-.76.88-.02.66-.05,1.43-.08,2.29-.1,2.45-.24,5.81-.24,9.96v8.57c.85.07,2.6.11,5.21.11,7.98,0,9.2-1.3,9.82-6.47l.05-.39h1.79l-.05.49a99.537,99.537,0,0,0-.16,16.33l.04.49H76.93l-.04-.4c-.63-6.42-1.47-7.68-9.74-7.68-1.32,0-3.92,0-5.12.11v7.44c0,4.92.09,11.73.32,14.76.12,1.25.53,1.69,7.8,1.69,8.15,0,9.93-.59,11.79-2.61,1.5-1.63,3-5.02,4.02-9.1l.1-.41,1.69.31-.02.4c-.08,1.7-1.85,11.44-2.27,13.64Zm-26.8-1.35h8.57c9.08,0,14.67.12,17.5.36.49-2.59,1.91-10.42,2.15-12.72l-.07-.01c-.51,1.94-1.94,6.7-4.12,9.08-2.2,2.37-4.41,2.89-12.45,2.89-7.19,0-8.49-.38-8.69-2.51-.24-3.06-.33-9.9-.33-14.83v-8.22l.38-.06a56.243,56.243,0,0,1,5.65-.17c8.55,0,9.89,1.61,10.57,7.82a103.4,103.4,0,0,1,.17-15.19c-.7,5.27-2.34,6.82-10.65,6.82-1.17,0-4.73,0-5.73-.17l-.38-.06v-9.36c0-4.17.14-7.53.24-9.99.03-.86.06-1.63.08-2.31.09-1.05.4-1.73,1.66-1.73H69.5c8.61,0,9.88.79,11.17,3.92a28.994,28.994,0,0,1,1.59,6.6l.11-.01a115.566,115.566,0,0,1,.13-11.56,70.967,70.967,0,0,1-10.64.58H58.9c-2.41,0-5.23-.12-7.5-.21-1.17-.05-2.18-.09-2.88-.1v.1l3.22.28c2.24.18,3.07.91,3.16,2.77.16,2.6.24,7.49.24,14.97v15.11c0,5.53-.08,10.29-.24,13.76-.26,3.01-1.12,3.63-2.83,3.82l-4.32.52-.01.11c.96-.02,2.29-.06,3.78-.12,2.3-.08,4.9-.18,7.05-.18"/>
  <path id="Path_2812" data-name="Path 2812" class="cls-1" d="M137.36,124.05c-.57-10.75-5.9-16.57-14.95-16.57-5.41,0-9.94,1.78-13.34,6.38-3.47,4.85-5.09,11.56-5.09,19.88,0,7.03,1.7,13.98,4.69,18.35,3.4,5,7.76,7.11,13.74,7.11,5.74,0,9.7-2.19,9.94-5.58a94.655,94.655,0,0,0,.32-11.4c-.08-5.01-.32-5.66-4.36-5.9l-3.88-.33-.24-.97c2.34,0,8.08.24,11.48.24,3.23,0,7.03-.16,8.73-.24l.32.89c-4.29.48-4.77.73-5.01,2.67a84.024,84.024,0,0,0-.24,9.69,43,43,0,0,0,.49,8.25c-1.77.56-5.9,1.94-8,2.5a38.86,38.86,0,0,1-10.59,1.62c-9.78,0-15.84-2.59-20.12-8.08C97.7,148.12,96,141.32,96,133.97c0-10.91,4.45-19.72,12.13-24.24,4.2-2.51,8.56-3.56,14.38-3.56,7.76,0,12.85,3.07,14.71,5.09l1.69-4.61.81.4a82.081,82.081,0,0,0-1.21,16.97h-1.15Z"/>
  <path id="Path_2813" data-name="Path 2813" class="cls-1" d="M121.35,161.12c-9.71,0-16.03-2.54-20.48-8.26-3.45-4.31-5.35-11.01-5.35-18.86,0-11.03,4.5-20.01,12.35-24.64,4.25-2.53,8.63-3.62,14.61-3.62,7.4,0,12.38,2.77,14.53,4.73l1.63-4.42,1.58.79-.09.35a81.428,81.428,0,0,0-1.2,16.84l.03.48h-2.04l-.02-.43c-.55-10.4-5.7-16.14-14.5-16.14-5.65,0-9.9,2.03-12.97,6.2-3.32,4.63-5.01,11.23-5.01,19.61,0,7.12,1.72,13.88,4.61,18.09,3.24,4.78,7.36,6.91,13.37,6.91,5.54,0,9.26-2.03,9.49-5.16a91.615,91.615,0,0,0,.32-11.35c-.08-4.99-.27-5.24-3.94-5.46l-4.21-.35-.46-1.84h.58c1.07,0,2.84.05,4.77.1,2.28.07,4.87.14,6.71.14,3.12,0,6.79-.15,8.7-.24l.33-.02.63,1.74-.57.07c-4.39.5-4.42.73-4.61,2.27a66.744,66.744,0,0,0-.26,7.75c.01.64.02,1.26.02,1.9a43.868,43.868,0,0,0,.48,8.17l.06.39-2,.65c-2.02.66-4.79,1.56-6.4,1.98a38.778,38.778,0,0,1-10.69,1.63m1.14-54.47c-5.82,0-10.05,1.05-14.15,3.49C100.77,114.6,96.43,123.3,96.43,134c0,7.65,1.83,14.15,5.15,18.31,4.27,5.47,10.36,7.91,19.77,7.91a37.622,37.622,0,0,0,10.46-1.6c1.6-.42,4.35-1.32,6.36-1.97l1.25-.41a46.363,46.363,0,0,1-.43-7.93c0-.63-.01-1.26-.02-1.89a66.522,66.522,0,0,1,.26-7.86c.28-2.21,1.01-2.55,4.84-3l-.01-.04c-1.99.09-5.45.23-8.42.23-1.86,0-4.45-.07-6.74-.14-1.6-.04-3.1-.09-4.16-.1l.02.09,3.56.3c4.33.27,4.69,1.2,4.78,6.34a95.56,95.56,0,0,1-.33,11.46c-.25,3.63-4.34,5.97-10.39,5.97-6.25,0-10.73-2.32-14.11-7.31-2.99-4.36-4.77-11.31-4.77-18.6,0-8.58,1.74-15.35,5.18-20.15,3.26-4.42,7.74-6.58,13.7-6.58,9.23,0,14.68,5.88,15.38,16.57h.23a86.074,86.074,0,0,1,1.17-16.28l-.03-.02-1.78,4.83-.5-.54c-1.68-1.84-6.61-4.94-14.36-4.94"/>
  <path id="Path_2814" data-name="Path 2814" class="cls-1" d="M178.32,106.19c15.03,0,23.28,11.8,23.28,26.18,0,19.32-10.1,28.29-23.76,28.29-13.82,0-23.68-9.05-23.68-26.67,0-15.44,8.49-27.8,24.09-27.8Zm-.49,1.14a13.362,13.362,0,0,0-11.48,6.38c-2.51,4.12-4.2,10.75-4.2,19.15,0,8.49,2.02,15.92,4.53,19.96a13.048,13.048,0,0,0,11.8,6.47,12.147,12.147,0,0,0,11.23-6.23c2.34-3.96,3.88-11.15,3.88-19.8,0-7.75-1.61-14.87-4.2-19.48a12.57,12.57,0,0,0-11.48-6.46h-.08Z"/>
  <path id="Path_2815" data-name="Path 2815" class="cls-1" d="M177.83,161.12c-15.11,0-24.14-10.14-24.14-27.12,0-16.9,9.86-28.25,24.54-28.25h.08c14.19,0,23.73,10.71,23.73,26.64,0,17.99-9.05,28.73-24.21,28.73m.41-54.47c-14.36,0-23.63,10.73-23.63,27.35,0,16.42,8.68,26.22,23.23,26.22,14.81,0,23.31-10.14,23.31-27.83,0-12.81-7.06-25.73-22.82-25.73h-.09Zm.24,53.1a13.545,13.545,0,0,1-12.18-6.68c-2.84-4.57-4.6-12.31-4.6-20.2,0-7.97,1.52-14.86,4.27-19.39a13.8,13.8,0,0,1,11.87-6.6h.08a13.089,13.089,0,0,1,11.87,6.68c2.71,4.84,4.26,12.02,4.26,19.71,0,8.37-1.47,15.86-3.94,20.03a12.692,12.692,0,0,1-11.63,6.45m-.65-51.97a12.924,12.924,0,0,0-11.1,6.17c-2.66,4.38-4.13,11.11-4.13,18.92,0,9.24,2.3,16.25,4.46,19.73a12.536,12.536,0,0,0,11.42,6.25,11.689,11.689,0,0,0,10.85-6.01c2.38-4.03,3.8-11.35,3.8-19.56,0-7.43-1.55-14.63-4.14-19.25a12.068,12.068,0,0,0-11.08-6.24h-.08Z"/>
  <path id="Path_2816" data-name="Path 2816" class="cls-1" d="M249.43,145.31c-.57,3.07-1.37,9.62-1.94,14.39-1.37-.16-4.77-.25-9.38-.32-4.53-.08-10.27-.08-16.73-.08-3.72,0-9.37.24-11.07.24l.08-.89,4.2-.4c1.77-.24,2.26-.64,2.43-2.1.32-2.91.56-10.1.56-18.75V123.9c0-8.64-.16-11.8-.24-13.66,0-1.21-.57-1.69-2.18-1.78l-3.96-.24.08-.97c1.53,0,7.19.32,9.78.32,2.82,0,6.3-.24,9.86-.32l.32.97-4.04.33c-1.69.16-2.26.72-2.35,2.1-.16,3.56-.4,9.3-.4,18.11v8.48c0,8.97,0,17.46.24,19.64.16.89.81,1.21,6.46,1.21,8.97,0,11.64-.48,13.34-3.07,1.77-2.5,2.99-6.22,3.96-9.78Z"/>
  <path id="Path_2817" data-name="Path 2817" class="cls-1" d="M247.88,160.2l-.45-.05c-1.31-.15-4.54-.24-9.33-.32-4.53-.08-10.18-.08-16.72-.08-2.21,0-5.12.08-7.46.15-1.59.04-2.92.08-3.61.08h-.5l.16-1.75,4.58-.43c1.67-.23,1.89-.55,2.02-1.7.33-3.04.56-10.55.56-18.7V123.9c0-8.22-.14-11.44-.23-13.36l-.01-.28c0-.88-.26-1.27-1.75-1.34l-4.43-.27.16-1.85h.42c.67,0,2.11.06,3.77.13,2.13.09,4.56.19,6.01.19,1.59,0,3.4-.07,5.31-.16,1.47-.06,2.99-.13,4.54-.16l.34-.01.6,1.83-4.61.37c-1.58.15-1.86.62-1.93,1.68-.14,3.12-.4,8.95-.4,18.08v8.48c0,8.96,0,17.44.24,19.59.08.47.55.81,6.01.81,9.01,0,11.43-.53,12.96-2.87,1.83-2.59,3.05-6.51,3.9-9.65l.1-.36,1.84.15-.09.49c-.44,2.36-1.09,7.19-1.94,14.35Zm-26.5-1.36c6.55,0,12.21,0,16.74.08,4.46.08,7.44.15,8.97.29.77-6.49,1.37-11.01,1.8-13.49l-.11-.01c-.87,3.14-2.09,6.97-3.93,9.56-1.84,2.81-4.88,3.26-13.7,3.26-5.57,0-6.67-.26-6.91-1.59-.25-2.23-.25-10.73-.25-19.72v-8.48c0-9.14.26-14.98.4-18.13.09-1.65.87-2.35,2.75-2.53l3.48-.27-.04-.11c-1.42.04-2.83.1-4.19.16-1.92.08-3.73.16-5.34.16-1.47,0-3.9-.1-6.04-.19-1.36-.06-2.57-.11-3.32-.12l-.01.09,3.5.22c1.29.06,2.61.38,2.61,2.23l.01.26c.09,1.93.23,5.16.23,13.4v13.5c0,8.3-.22,15.68-.57,18.8-.19,1.66-.82,2.23-2.81,2.5l-3.85.38c.74-.01,1.84-.04,3.09-.08,2.35-.08,5.27-.17,7.49-.17"/>
  <path id="Path_2818" data-name="Path 2818" class="cls-1" d="M262.91,123.33c0-7.03,0-9.29-.16-11.8-.08-2.75-1.62-2.98-6.46-3.31l.08-.97c1.94.08,6.14.32,9.78.32,3.32,0,8.08-.32,10.1-.32v.97c-4.61.08-5.98.73-6.14,2.83-.16,1.7-.32,5.25-.32,11.8v19.32c0,7.35.16,10.91.32,13.41.16,2.43,1.94,2.83,6.39,3.07l-.08.97c-2.5-.08-7.35-.33-10.43-.33-2.99,0-7.67.16-9.69.33v-.97c4.28-.16,6.14-.81,6.3-2.83.16-1.94.32-4.93.32-13.65V123.33Z"/>
  <path id="Path_2819" data-name="Path 2819" class="cls-1" d="M255.83,160.11v-1.9l.43-.02c4.76-.18,5.76-1.02,5.87-2.41.17-2,.32-5.03.32-13.62V123.33c0-6.94,0-9.28-.16-11.77-.07-2.3-1.05-2.56-6.05-2.89l-.46-.03.16-1.86,1.83.08c2.17.11,5.45.26,8.36.26,1.85,0,4.16-.1,6.2-.19,1.62-.07,3.01-.13,3.91-.13h.45v1.87l-.44.01c-4.75.08-5.58.78-5.7,2.41-.12,1.25-.32,4.43-.32,11.76v19.32c0,7.44.16,10.94.32,13.38.13,1.9,1.24,2.39,5.95,2.65l.46.02-.15,1.86-.43-.02c-.7-.02-1.6-.05-2.58-.09-2.51-.1-5.63-.23-7.84-.23-2.91,0-7.6.16-9.66.32Zm10.15-1.27c2.22,0,5.35.13,7.87.23.79.03,1.52.06,2.14.08l.01-.08c-3.82-.22-6.16-.6-6.35-3.47-.16-2.46-.33-5.98-.33-13.44V122.84c0-7.37.2-10.58.33-11.84.2-2.57,2.14-3.13,6.14-3.23v-.07c-.87.01-2.06.06-3.42.13-2.04.09-4.36.19-6.24.19-2.93,0-6.22-.16-8.4-.26l-.96-.05-.01.08c4.21.28,6.33.54,6.43,3.72.16,2.5.16,4.85.16,11.81v18.83c0,8.62-.16,11.67-.32,13.69-.2,2.41-2.46,3.05-6.31,3.22v.05c2.27-.13,6.54-.27,9.26-.27"/>
  <path id="Path_2820" data-name="Path 2820" class="cls-1" d="M330.79,159.62c-1.46-.08-5.17-.25-9.13-.25-3.31,0-6.95.16-9.78.25v-.97c4.61-.48,5.5-.89,5.09-2.42-.65-2.5-3.31-11.15-5.41-17.94-1.05-.08-4.61-.08-8.08-.08-3.55,0-7.03,0-8.16.08-2.99,9.05-4.2,12.85-4.77,15.44-.89,3.71.08,4.44,6.22,4.93l-.16.97c-1.7,0-3.72-.33-7.43-.33-2.18,0-5.98.33-8.49.33v-.97c4.36-.32,5.5-.81,7.35-5.41,3.32-7.92,12.04-34.1,14.95-42.59a21.3,21.3,0,0,0,.72-3.07,23.3,23.3,0,0,0,5.33-1.04c2.51,10.34,13.17,43.97,15.76,49.54a3.362,3.362,0,0,0,3.15,2.26l2.83.32v.95Zm-34.91-23.04c1.13.08,4.69.08,8,.08,3.24,0,6.55,0,7.2-.08-1.94-7.03-4.69-16.41-7.12-24.24-2.27,6.78-5.09,14.78-8.08,24.24"/>
  <path id="Path_2821" data-name="Path 2821" class="cls-1" d="M331.24,160.09l-.48-.03c-.45-.02-4.46-.24-9.11-.24-2.45,0-5.09.09-7.43.17l-2.8.09v-1.84l.4-.04c2.63-.28,4.33-.56,4.69-1.09.07-.11.14-.29.01-.78-.61-2.35-3.01-10.19-5.32-17.62-1.31-.06-4.58-.06-7.74-.06-3.18,0-6.46,0-7.83.06-2.96,8.97-4.12,12.62-4.66,15.1-.37,1.55-.36,2.39.02,2.92.65.89,2.61,1.2,5.8,1.45l.49.04-.3,1.84h-.38c-.7,0-1.45-.06-2.33-.12-1.29-.09-2.9-.21-5.1-.21-1.05,0-2.45.07-3.94.15-1.59.09-3.24.18-4.55.18h-.45v-1.84l.42-.04c4.22-.31,5.2-.75,6.97-5.13,2.69-6.44,9.01-25.08,12.78-36.22.88-2.58,1.62-4.77,2.16-6.35a15.1,15.1,0,0,0,.57-2.33l.2-1.02.34-.02a22.739,22.739,0,0,0,5.19-1.02l.49-.21.12.52c2.51,10.33,13.24,44.08,15.73,49.46a2.926,2.926,0,0,0,2.79,2.01l3.24.36v1.86Zm-50.11-1.02v.09c1.21-.02,2.65-.09,4.05-.16,1.5-.08,2.93-.16,3.99-.16,2.24,0,3.86.12,5.17.21.7.05,1.32.09,1.89.11l.02-.1c-3.3-.28-5.15-.66-5.96-1.78-.65-.9-.54-2.12-.17-3.66.56-2.55,1.69-6.11,4.78-15.47l.09-.29.31-.02c1.15-.08,4.57-.08,8.19-.08,3.46,0,7.05,0,8.12.08l.31.03.09.29c2.45,7.92,4.81,15.58,5.42,17.97a1.811,1.811,0,0,1-.14,1.52c-.55.8-1.99,1.1-4.94,1.42v.1l1.87-.06c2.34-.07,4.99-.17,7.46-.17,3.93,0,7.41.16,8.68.22v-.09l-2.43-.28a3.83,3.83,0,0,1-3.51-2.52c-2.55-5.48-12.89-37.97-15.67-49.14a26.039,26.039,0,0,1-4.64.88l-.07.34a16.156,16.156,0,0,1-.61,2.45c-.54,1.58-1.28,3.78-2.16,6.35-3.78,11.15-10.1,29.81-12.8,36.27-1.89,4.62-3.13,5.3-7.34,5.65m22.74-21.95c-3.38,0-6.88,0-8.03-.09l-.57-.04.17-.54c2.05-6.46,4.03-12.29,5.78-17.42.81-2.41,1.59-4.68,2.31-6.83l.45-1.34.41,1.34c2.4,7.75,5.13,17.04,7.12,24.26l.14.5-.52.06c-.68.1-3.87.1-7.26.1m-7.39-.96c1.51.05,4.61.05,7.39.05,2.55,0,5.39,0,6.61-.04-1.86-6.71-4.31-15.1-6.54-22.36-.59,1.76-1.22,3.59-1.87,5.51-1.69,4.98-3.61,10.61-5.59,16.84"/>
  <path id="Path_2822" data-name="Path 2822" class="cls-1" d="M277.63,202.66h-2.76V170.78h5.65a25.46,25.46,0,0,1,4.83.39,8.634,8.634,0,0,1,3.29,1.32,5.8,5.8,0,0,1,1.97,2.56,10.673,10.673,0,0,1,.67,4.06c0,3.23-.87,5.54-2.59,6.94a8.45,8.45,0,0,1-3.42,1.69,14.082,14.082,0,0,1-3.41.53h-4.21v14.39Zm0-29.42v12.54h2.36a19.675,19.675,0,0,0,4.62-.45,5.046,5.046,0,0,0,2.86-1.85,6.843,6.843,0,0,0,1.04-4.11,8.33,8.33,0,0,0-.44-2.98,4.191,4.191,0,0,0-1.32-1.85,5.3,5.3,0,0,0-2.1-.98,15.053,15.053,0,0,0-3-.33h-4.02Z"/>
  <path id="Path_2823" data-name="Path 2823" class="cls-1" d="M303.3,187.65h-2.85v15h-2.76V170.77h6.17a16.446,16.446,0,0,1,5.28.73,6.355,6.355,0,0,1,3.34,2.52,8.849,8.849,0,0,1,1.19,4.91,11.01,11.01,0,0,1-.5,3.25,7.067,7.067,0,0,1-1.54,2.75,4.853,4.853,0,0,1-2.63,1.49v.09a4.619,4.619,0,0,1,3.39,2.5,13.87,13.87,0,0,1,.86,5.28c.02.57.03,1.48.07,2.72a19.615,19.615,0,0,0,.35,3.37,2.673,2.673,0,0,0,1,1.9v.37h-3a11.009,11.009,0,0,1-.79-3.05c-.15-1.19-.26-2.43-.32-3.73s-.12-2.52-.18-3.68c-.12-1.91-.77-3.14-1.95-3.7a12.252,12.252,0,0,0-5.13-.84m-2.85-14.41v11.94h4.86a7.058,7.058,0,0,0,3.67-1.2c1.3-.81,1.94-2.41,1.94-4.84a7.51,7.51,0,0,0-.71-3.59,3.725,3.725,0,0,0-2.12-1.79,10.847,10.847,0,0,0-3.63-.51h-4.01Z"/>
  <path id="Path_2824" data-name="Path 2824" class="cls-1" d="M330.12,203.43a7.315,7.315,0,0,1-6.25-2.75,13.211,13.211,0,0,1-2.53-6.34,65.152,65.152,0,0,1-.48-8.52,45.613,45.613,0,0,1,.33-5.58,19.662,19.662,0,0,1,1.26-4.98,8.869,8.869,0,0,1,2.86-3.78,7.782,7.782,0,0,1,4.9-1.47q4.275,0,6.35,2.66a12.761,12.761,0,0,1,2.57,6.2,62.724,62.724,0,0,1,.49,8.53,48.11,48.11,0,0,1-.57,7.87,11.34,11.34,0,0,1-2.67,5.78c-1.4,1.59-3.48,2.38-6.26,2.38m.27-2.47a4.883,4.883,0,0,0,3.54-1.28,7.57,7.57,0,0,0,1.94-3.23,18.1,18.1,0,0,0,.8-3.99c.12-1.37.18-2.92.18-4.69v-1.01a57.09,57.09,0,0,0-.35-6.6,12.741,12.741,0,0,0-1.84-5.31,5.018,5.018,0,0,0-4.58-2.37,4.715,4.715,0,0,0-3.59,1.42,8.263,8.263,0,0,0-1.94,3.56,22.149,22.149,0,0,0-.76,4.27c-.11,1.43-.17,3-.17,4.73v1.06a46.959,46.959,0,0,0,.39,6.4,10.875,10.875,0,0,0,1.88,4.92,5.157,5.157,0,0,0,4.5,2.12"/>
  <path id="Path_2825" data-name="Path 2825" class="cls-1" d="M160.2,0c.93-.02,1.35.44,2.1.55.21-.04.41-.09.61-.13a2.008,2.008,0,0,1,1.03.85.966.966,0,0,1-.08.55c.25.02.49.03.74.04V1.9c-.1.52-.69.89-.58,1.41a.651.651,0,0,0,.37.6c-.05.39-.34.62-.2.94a1.416,1.416,0,0,0,.2.04c.35-.49.37-.95.87-1.28.92-.62,2.08.1,2.06-1.49l-.57.21V2.3a.5.5,0,0,1,.04-.13c.24-.15.62-.27.7-.6.1.04.19.08.29.13.05.53-.32,1.39.28,1.62l-.33.6c.2.1.38.2.58.3l-.33.21a2.745,2.745,0,0,1-.04,1.15c-.76.31-1.99.35-2.43,1.02v.08c.21.2.41.4.61.6a1.3,1.3,0,0,1-.08.17,5.7,5.7,0,0,1-3.01-.04c-.06-.62-.9-.96-1.48-1.02-.32.2-.6.25-.78.6.14.18.27.37.41.55a9.143,9.143,0,0,1-7.98-2h-.17c-.25.52-2.16,2.13-2.76,1.96-.78-.44-.73-1.79-.45-2.64h.24c.03.06.06.11.09.17a.868.868,0,0,0-.04.81h.04c.08-.03.17-.06.24-.08.03-.16.05-.31.08-.47.21-.04.46.03.62-.09a.725.725,0,0,1-.08-.55c.55-.72,1.49-.74,1.48-2.09.63-.23,1.26-.45,1.89-.68.58-.06,1.15-.11,1.73-.17.39-.15.55-.7,1.2-.85C158.42.58,159.6.77,160.2,0"/>
  <path id="Path_2826" data-name="Path 2826" class="cls-1" d="M162.63,66.21a1.551,1.551,0,0,1-.04-.21c-.22-.51-1.44-.97-1.73-.3.25.07.5.14.74.21v.64c-.67-.47-.6-.54-1.44-.3-.44-1.27-1.95.43-3.29.04-.68-.19-1.13-.9-1.69-1.07-.38-.11-.77.22-1.11-.04-.47-.36-.52-1.31-1.11-1.53h-.87c-.33-.25-.3-.69-.78-.81-.56-.14-1.38.31-1.85-.05-.37-.22-.15-.57-.37-.93-.17-.28-.74-.35-.95-.64-.28-.53-.55-1.05-.83-1.58-.57-.78-1.41-.06-2.14-1.06-.38-.84-.77-1.67-1.15-2.51-.25-.46-.73-.7-.99-1.11-.28-.72-.55-1.45-.82-2.17-.87-1.84-2.43-4.4-.74-6.52-.25-.74-.28-1.76-.78-2.26-.2.09-.41.17-.62.26-.84-.65-.86-1.78-1.15-3.02-.1-.43-.44-.92-.49-1.28.07-.13.14-.26.21-.38.33-1.15.09-3.11.45-4.47a5.417,5.417,0,0,1,.66-1.57c.24-.27.47-.54.7-.81.18-.72.36-1.45.54-2.17.41-1.12.82-2.25,1.24-3.37.3-.91.6-1.82.91-2.72.33-.31,1.74-.04,2.22-.68a13.34,13.34,0,0,1,3.42-3.28c.36-.25.61-.62,1.19-.64,1.24.5.74,2.2,1.48,2.34a2.578,2.578,0,0,0,.7-.43c.76.02,1.69.67,1.4,1.62-.43,1.44-4.34,2.18-4.61,3.87.06.4.11.8.17,1.19-.39.28-.38.97-.82,1.19-1.06.53-2.4-.24-2.93.9-.02.08-.02.17-.04.25.19.33.52.44.74.72-.23.37-.47.74-.7,1.11.11,1.24,1.19,1.23,1.52,2.13.03.44.06.88.08,1.32.27,1.11.75,2.09.99,3.15a5.122,5.122,0,0,1-.25,2.73c-.16.39-.65.74-.54,1.36.21,1.11,1.26,1.55,1.61,2.51.21.75.41,1.51.61,2.26a40.1,40.1,0,0,0,2.68,4.98c.75,1.3,1.58,2.8,3.62,2.6-.06,1.03,2.13,1.98,2.97,2.38,2.83,1.36,5.28,2.44,8.77,1.79,1.01-.19,2,.06,2.92-.17.95-.23,5.57.59,6.42.26a6.524,6.524,0,0,1,4.03-.55c.17.69,5.59-2.49,6.42-2.73.24-.39.29-.85.7-1.06.66-.35,1.73-.16,2.18-.72-.36-.42-.27-.68-.45-1.36-.13-.17-.25-.34-.37-.51-.42-1.13.67-2.37,1.2-2.77.55-.3,1.1-.59,1.65-.89.25-.59-.43-1.03.41-1.66.5-.37,1.62-.47,1.97-.98.27-.39.05-1.28.25-1.74,1.99-.97,2.62-3.76,3.21-6.22.49-2,.99-4,1.48-6a3.8,3.8,0,0,0-.33-1.83c-.17-1.26-.33-2.53-.49-3.79a14.459,14.459,0,0,0-1.28-3.79c-.4-.5-.8-.99-1.2-1.49l-.33-1.11a28.612,28.612,0,0,0-2.71-3.11l-1.98-2.43a12.119,12.119,0,0,1-2.14-1.28l-1.56-1.53c-.48-.3-1.11-.19-1.52-.51-1.01-.79-1.25-2.66-2.02-3.7-.47-.63-1.06-.46-1.81-.72-.29-.23-.24-.77-.61-.94-.7-.31-1.57.32-2.27,0-.45-.21-.41-.94-.91-1.11-.84-.29-1.7.16-2.14-.51-.28-.5.28-.94-.08-1.53a1.867,1.867,0,0,1-.25.04c-.07.04-.14.09-.21.13-.03.33-.03.95-.25,1.11l-.12.09c-.19-.09-.38-.17-.58-.26.29-1.06-3.49.41-4-.51.13-.11.25-.23.37-.34a1.968,1.968,0,0,0-.33-.85,1.867,1.867,0,0,1-.25.04l-.12.09c.12.47-.13.75-.16,1.23-.11-.06-.14-.07-.2-.17-.18-.31.14-.68,0-.98-.04-.07-.23-.15-.29-.26.52-.16.5-.46.7-.94.85-.23,1.3-1.07,2.18-.38a.688.688,0,0,1-.13.55c-.2.41-.69.33-1.03.6a1.583,1.583,0,0,0,.54.72c.66-.46,1.01-1.45,1.6-2,.95-.01,1.27.41,1.98.6.38.06.77.11,1.15.17l2.47-.09a6.294,6.294,0,0,1,2.8.94,4.777,4.777,0,0,1,1.4,1.36c.22.34.3.91.62,1.15.95-.32,1.55.64,2.27.93a2.82,2.82,0,0,0,.74-.43,19,19,0,0,1,5.43,2.17c.93.43.63.85,1.57,1.28.14.14.28.29.41.43.48.04-.28.08.2.13.29.11.35.41.58.55a9.486,9.486,0,0,1,1.77,1.11,13.7,13.7,0,0,1,3.54,5.2c.21.67.41,1.33.62,2,.29.52.58,1.05.87,1.58.45,1.42,1.74,3.3,2.14,4.68.14.49-.34,1.5-.16,2.3.24,1.09,1.04,2.35.91,3.62-.08.7-.51,1.03-.62,1.58,1.03,1.14-.08,1.91.29,3.28.15.55.73.43,1.07.77-.69,2.47-.43,2.56-2.43,3.75-.15,1.22,1.44,1.23-.29,1.87-.19.48-.15,2.7-.49,3.15-.22.29-.65.33-.82.68-.08.45-.16.91-.25,1.36a2.407,2.407,0,0,1-.86,1.15c.43,1.05-.48,1.15-.79,2,.07.1.13.2.2.3.49-.21.68-.74,1.07-1.06h.12c.19.23.43.3.49.68-1.02,2.47-3.72.48-4.36,3.15a1.919,1.919,0,0,0-.82.04,1.658,1.658,0,0,0,.16.94c-.41.47-.82.94-1.24,1.4-.25-.04-.46-.15-.66,0-.41.2-.67.89-.91,1.28a1.686,1.686,0,0,1-.82-.55c-.93.07-2.09.22-2.18,1.24.08.17.16.34.25.51h.21c.3-.31.6-.63.9-.94.6.03.86.41,1.44.51.75-.02,1.51-.03,2.27-.04v.21a5.218,5.218,0,0,1-2.3,2.55c-.97.42-1.34-.35-1.98.68-1.95-.25-1.38,1.96-2.6,2.13a1.512,1.512,0,0,0-1.81-.77c-.04.31-.08.63-.12.94-.11.05-.22.09-.33.13.17.52.48.7.49,1.4-.45.67-1.46.39-2.3.68a2.921,2.921,0,0,0-.71.47,9.441,9.441,0,0,0-1.48-.81.564.564,0,0,1-.12.04v.17c.19.25.5.36.58.72-.05.07-.11.14-.16.21-.34-.06-.52-.3-.99-.21a4.008,4.008,0,0,1-1.77.25c-.18-.04-.3-.25-.62-.17-.54.14-.69.82-1.11,1.02h-.7c-.6,2.07-1.28.21-2.35.55a4.441,4.441,0,0,0-.37.72c-.71.12-1.58-.21-2.34,0-.27.07-.34.29-.66.34-.75-.51-.93-.34-1.73-.17a14.122,14.122,0,0,0-2.88-1.45c.03-.01.05-.03.08-.04.41-.49,1.21-.76.83-1.83-.46.02-.6.23-.95.34l-.28-.34a.567.567,0,0,0-.46.13c-.26.17-.27.52-.25.98-.06-.03-.11-.06-.17-.09a.708.708,0,0,1-.54-.55c.18-.24.36-.48.54-.73a.913.913,0,0,0-.08-.13c-.41-.16-.62-.6-.99-.85a1.346,1.346,0,0,0-.91,1.06c.1.28.38.66.33.77l-.42.6h-.21a1.266,1.266,0,0,0-1.3-.75"/>
  <path id="Path_2827" data-name="Path 2827" class="cls-1" d="M168.72,1.11c.1.03.19.06.29.08a.355.355,0,0,0,.04.09l-.21,1.11a.564.564,0,0,0-.12-.04,1.766,1.766,0,0,1-.12-.17c.04-.36.08-.72.12-1.07"/>
  <path id="Path_2828" data-name="Path 2828" class="cls-1" d="M166.09,1.32a.887.887,0,0,0,.17.08h-.08c-.21.12-.41.23-.62.34.12-.27.28-.28.53-.42"/>
  <path id="Path_2829" data-name="Path 2829" class="cls-1" d="M165.47,2.47c.11.01.22.03.33.04h-.08c-.24.14-.47.28-.7.43.08-.32.25-.29.45-.47"/>
  <path id="Path_2830" data-name="Path 2830" class="cls-1" d="M168.97,3.32a2.413,2.413,0,0,0,.25.08c.1.32.04,1.07-.25,1.23-.04-.06-.08-.11-.12-.17.03-.37.08-.76.12-1.14"/>
  <path id="Path_2831" data-name="Path 2831" class="cls-1" d="M147.68,4.26c.74.03.79.56,1.4.68a2.827,2.827,0,0,1-.62.98c-.31-.02-.58-.08-.7.09-.28.52.03,1.27-.29,1.79s-.83.4-1.28.77c.03.03.05.06.08.09.16.38.47.47.74.72-.37.84-1.35.58-2.18.89v-.21a10.225,10.225,0,0,0,.58-2.85c.55-.37,1.1-.74,1.64-1.11V5.96c-.08-.08-.16-.17-.24-.26.24-.67.33-1.08.87-1.44"/>
  <path id="Path_2832" data-name="Path 2832" class="cls-1" d="M148.38,6.9a1.8,1.8,0,0,0,.08.21c-.09.06-.19.11-.29.17a3.594,3.594,0,0,0,.21-.38"/>
  <path id="Path_2833" data-name="Path 2833" class="cls-1" d="M143.94,7.24c1.47,0,.3,1.2.33,2h-.54c-.65-.26-1.18-.2-1.44.38.13.11.27.23.41.34a1.459,1.459,0,0,1-.41,1.07c-.37-.13-.52-.41-.95-.47-.36,1.6-2.7.25-2.38,2.17,1.09.42,1.84-.98,2.8-1.15.52-.09.93.53,1.19.34.22-.61.02-1.49.54-1.79.14-.11.22-.08.37,0a16.545,16.545,0,0,1,.04,1.79c-.21.43-.77.36-1.19.34-.2.34-.58.35-.78.64-.34.47-.52,1-.86,1.45-1.01,1.3-2.16,1.72-2.14,4.04a19.013,19.013,0,0,0-5.36,7.88c-.12.38-.25.77-.37,1.15-.03.35.15.81,0,1.19-.39,1.02-1.58,1.45-1.85,2.56.28.06.55.11.82.17-.01.04-.03.08-.04.13-.11.15-.16.32-.33.42a2.166,2.166,0,0,1-.25.04,1.2,1.2,0,0,0-.45-.47c-.84.52-.65,2.01-1.36,2.64l-.91.21c.17.25.33.51.5.77-.3.41-.67.34-.66,1.11a4.7,4.7,0,0,0,1.07,1.15,4.028,4.028,0,0,1-1.03,1.45c-.08-.01-.16-.03-.25-.04-.01-.03-.03-.06-.04-.09a1.049,1.049,0,0,0,.08-.81c-1.14-.33-1.07.15-.91.89a4.894,4.894,0,0,1-.74.77c.25.41.05.8-.08,1.28-.07-.04-.14-.09-.2-.13,0-.86.57-2.15.49-2.6-.19-.57-.38-1.14-.58-1.7.25-.14.49-.29.74-.43-.09-.58-.19-1.16-.29-1.75a14.247,14.247,0,0,1,.29-4.98c.03-.01.05-.03.08-.04a1.325,1.325,0,0,1,.74.47c.22.36.05.87.17,1.36.14.58.82,2.5,1.73,1.7.36-.2.44-.81.62-1.19a.913.913,0,0,0-.08-.13c-1.96.02-1.41-1.83-2.19-2.98a10.318,10.318,0,0,0-1.07-1.02c-.3-.19-.74-.23-.94-.51-.2-.41-.8-2.13-.54-2.47a1.219,1.219,0,0,1,1.03-.6,5.7,5.7,0,0,1,1.2,3.32h.16c.56-.27,1.21-.4,1.48-.98a1.182,1.182,0,0,0-.58-.38c.04-.18.08-.37.12-.55-.5-.11-.8-.27-.78-.94.15-.14.31-.28.45-.42-.26-1.33.58-1.3.74-2.26.1-.57-.53-.54-.45-.98,1.34-2.33,2.69-4.66,4.03-6.98.31-.5,3.12-1.83,3.54-1.02a1.8,1.8,0,0,0-.08.21.93.93,0,0,0-.62.6,2.472,2.472,0,0,0,2.01-.34,5.489,5.489,0,0,1-.61-1.36v-.04a2.946,2.946,0,0,0,1.15,0c.15-1.28.48-2.14,1.89-1.62.25.09.55.31.87.21.68-.34.16-1.58.29-2.26.66-.46.64-.02,1.24-.13.37-.2.75-.42,1.12-.63"/>
  <path id="Path_2834" data-name="Path 2834" class="cls-1" d="M165.67,12.77a6.437,6.437,0,0,1,3.79.77c.23.2.46.4.7.59l1.4.21a10.842,10.842,0,0,1,2.43.98c2.23,1.23,3.38,3.27,4.94,5.19a2.856,2.856,0,0,1,1.19.13c-.37,1.82.03,1.24.95,2.3-.76,1.66.58,1.73.41,2.38-.19.36-.51.37-.82.6-.81.6-.16,1.78.33,2.17-.29,8.34-5.23,12.17-9.51,15.4-1.09.82-3.04,1.15-4.53,1.5-1.3.3-3.88-.54-4.32-1.15-.78-1.06-.26-.5-.62-1.7-.14-.47,1.27-.75,1.27-1.73,0-.63,1.07-2.05,1.41-2.62.11-.18,4.42-2.83,4.61-2.89.38-.12.72,0,.99-.21.08-.16.16-.31.25-.47.28-.11-1.9-.23-1.61-.34.61-.4,0-.8.61-1.19.73-.77,1.46-2.81,2.18-3.58.52-.5-.19-1,.33-1.49.12-.89.25-1.79.37-2.68a7.249,7.249,0,0,0,.09-3.11,3.314,3.314,0,0,0-1.52-.34c-1.27-2.46-4.27-1.93-7.33-1.49-.81.12-1.44-.4-1.97-.47s-1.11.39-1.53.51c-.65.18-1.15-.13-1.81.08l-1.32.6c-.52.33-1.12,1.52-2.1,1.02-.18-.19-.36-.37-.54-.55-.99.18-1.16-.37-1.77-.89a1.908,1.908,0,0,1-1.27,0c.02-.16.05-.31.08-.47a1.431,1.431,0,0,0,.54-.26c-.09-.37-.19-.74-.29-1.11,1.65-2.46,4.78-2.71,7.82-3.75,1.32-.48,2.64-.96,3.96-1.45.74-.14,1.48-.31,2.21-.49"/>
  <path id="Path_2835" data-name="Path 2835" class="cls-1" d="M128.87,23.97c-.14.12-.22.13-.29.34h.04l.17-.17a1.8,1.8,0,0,1,.21-.08v-.09Z"/>
  <path id="Path_2836" data-name="Path 2836" class="cls-1" d="M127.88,38.7c.28.08.4.32.54.55a2.715,2.715,0,0,1-.5.72h-.41c.12-.42.25-.84.37-1.27"/>
  <path id="Path_2837" data-name="Path 2837" class="cls-1" d="M128.62,39.21c.24.1.3.29.46.47a.772.772,0,0,1-.79.81v-.3c.11-.32.22-.65.33-.98"/>
  <path id="Path_2838" data-name="Path 2838" class="cls-1" d="M128.29,41.64c.15.17.31.34.45.51-.2.43.08.48.08.94a3.1,3.1,0,0,1-.49.64c-.1-.01-.19-.03-.29-.04.04-.23.08-.45.13-.68-.1-.05-.2-.09-.29-.13.14-.41.28-.83.41-1.24"/>
  <path id="Path_2839" data-name="Path 2839" class="cls-1" d="M128.62,44.15c.23.02.32.06.41.21.06.1.07.1.04.21a1.44,1.44,0,0,1-1.2.68c.26-.36.5-.73.75-1.1"/>
  <path id="Path_2840" data-name="Path 2840" class="cls-1" d="M130.27,44.71c.14.16.28.31.41.47-.08.45-.32.55-.58.81v.17c.88.74,2.44,2.25,2.76,3.49.17.63-.22,1.26-.08,1.7.33.47.66.93.99,1.4.5,1.08.99,2.16,1.48,3.24.27.45.98.82,1.15,1.28.51,1.3.87,2.31.08,3.36v.13c.63.22.64.9,1.11,1.24.2.08.41.17.62.25a6.612,6.612,0,0,1,.08,1.15,24.546,24.546,0,0,0,3.62,1.83c.54.23,1.46.33,1.81.77.12.28.08.63.25.85.4.52,1.56.35,2.06.77.42.35.34,1.18.78,1.53,1.16.9,2.87.87,3.99,1.92.26.6.52,1.19.78,1.79.28.57.55,1.13.82,1.7-.3.25-.32.78-.54,1.11h-.49l-.33-.51c-1.03.13-4.31-.47-3.87-1.62-.5-.43-1.64-.21-2.18-.6-.63-.45-.82-1.53-1.36-2.09a2.7,2.7,0,0,1-2.31-.38A19.4,19.4,0,0,1,139.3,68c-.22-.18-.44-.37-.66-.55-.32-.51-.41-1.1-.74-1.57a9.1,9.1,0,0,0-1.9-1.87c-.35-.25-.71-.51-1.07-.77-.22-.41-.08-1.13-.21-1.53-.32-.05-1.1-.19-1.28-.43-.85-1.41-.38-4.18-1.4-5.28l-.54.09c-1.03-2.06-2.08-3.93-3-6.26-.55-1.39-1.07-2.29-.33-3.66.21-.02.41-.03.61-.04.11-.23.22-.46.33-.68.19.18.38.37.58.55.22-.44.4-.87.58-1.29"/>
  <path id="Path_2841" data-name="Path 2841" class="cls-1" d="M197.38,55.73c.11-.42.22-.85.33-1.27a.65.65,0,0,1,.45.64c-.15.21-.3.43-.45.64h-.33Z"/>
  <path id="Path_2842" data-name="Path 2842" class="cls-1" d="M197.05,58.12a2.768,2.768,0,0,1,.41-1.28c.12.14.25.28.37.43a1.285,1.285,0,0,1-.45.85Z"/>
</svg>
