<svg xmlns="http://www.w3.org/2000/svg" width="37.125" height="37.124" viewBox="0 0 37.125 37.124">
  <g id="Grupo_10124" data-name="Grupo 10124" transform="translate(-2001.125 336.25)">
    <path id="Caminho_4343" data-name="Caminho 4343" d="M2746.353-171.536h2.128a.423.423,0,0,0,.426-.426.413.413,0,0,0-.426-.426h-2.128Zm0,2.079h2.193a.493.493,0,0,0,.491-.491.482.482,0,0,0-.491-.491h-2.193Zm3.438-1.571a1.57,1.57,0,0,1,.458,1.113,1.554,1.554,0,0,1-1.555,1.555h-3.568v-5.14h3.519a1.5,1.5,0,0,1,1.49,1.506,1.544,1.544,0,0,1-.344.966Z" transform="translate(-727.762 -159.198)" fill="#fff"/>
    <path id="Caminho_4344" data-name="Caminho 4344" d="M2713.193,112.14h-1.309l-.409-.868h-2.881l-.409.868h-1.31l2.554-5.14h1.195l2.57,5.14Zm-3.159-3.83-.9,1.866h1.8l-.9-1.866Z" transform="translate(-690.347 -433.576)" fill="#fff"/>
    <path id="Caminho_4345" data-name="Caminho 4345" d="M2708.835,392.75h1.473l-2.6,3.339v1.8h-1.228v-1.8l-2.6-3.339h1.473l1.751,2.341,1.735-2.341Z" transform="translate(-687.413 -713.09)" fill="#fff"/>
    <path id="Caminho_4346" data-name="Caminho 4346" d="M3034.774,392.75v1.1h-3.421v.851h3.307v1.113h-3.307v.966h3.421v1.113h-4.649v-5.14Z" transform="translate(-1006.542 -713.09)" fill="#fff"/>
    <path id="Caminho_4347" data-name="Caminho 4347" d="M3320.269,395.926h-.917v1.964h-1.228v-5.14h3.126a1.586,1.586,0,0,1,.442,3.11l1.506,2.03h-1.473Zm.851-2.079h-1.768v.982h1.768a.491.491,0,1,0,0-.982Z" transform="translate(-1288.256 -713.09)" fill="#fff"/>
    <path id="Caminho_4348" data-name="Caminho 4348" d="M2446.943,397.89h-1.31l-.409-.868h-2.881l-.409.868h-1.31l2.57-5.14h1.179l2.57,5.14Zm-3.159-3.83-.9,1.866h1.8l-.9-1.866Z" transform="translate(-429.908 -713.09)" fill="#fff"/>
    <path id="Caminho_4349" data-name="Caminho 4349" d="M2175.586,394.714h2.144a.434.434,0,0,0,0-.868h-2.144Zm0,2.079h2.21a.5.5,0,0,0,.491-.491.492.492,0,0,0-.491-.491h-2.21Zm3.438-1.588a1.584,1.584,0,0,1,.475,1.129,1.555,1.555,0,0,1-1.555,1.555h-3.568v-5.14h3.519a1.5,1.5,0,0,1,1.49,1.506,1.426,1.426,0,0,1-.36.949Z" transform="translate(-169.469 -713.09)" fill="#fff"/>
    <path id="Caminho_4350" data-name="Caminho 4350" d="M2749.774,678.5v1.1h-3.421v.851h3.29v1.1h-3.29v.982h3.421v1.1h-4.649V678.5Z" transform="translate(-727.762 -992.603)" fill="#fff"/>
    <path id="Caminho_4351" data-name="Caminho 4351" d="M2748.906,971.088a.489.489,0,0,0-.475-.491h-2.079v.982h2.079a.479.479,0,0,0,.475-.491Zm-3.781,3.552V969.5h3.421a1.589,1.589,0,0,1,1.588,1.588,1.572,1.572,0,0,1-1,1.473l1.555,2.079h-1.473l-1.473-1.964h-1.391v1.964Z" transform="translate(-727.762 -1277.252)" fill="#fff"/>
    <path id="Caminho_4352" data-name="Caminho 4352" d="M2039.684-318.834a18.568,18.568,0,0,0-18.529-17.416,18.569,18.569,0,0,0-18.53,17.416c.033.376.065.769.115,1.146a18.483,18.483,0,0,0,3.47,8.708,18.521,18.521,0,0,0,14.945,7.546,16.282,16.282,0,0,1-16.222-15.108c-.033-.376-.033-.769-.033-1.146,0-.393,0-.769.033-1.146a16.284,16.284,0,0,1,16.222-15.125A18.559,18.559,0,0,1,2036.1-326.4a18.551,18.551,0,0,1,3.47,8.708c.049.376.082.769.115,1.146.017-.376.033-.769.033-1.146,0-.393-.016-.769-.033-1.146" transform="translate(-1.467)" fill="#89d329"/>
    <path id="Caminho_4353" data-name="Caminho 4353" d="M2001.158-213.834a18.568,18.568,0,0,0,18.529,17.416,18.568,18.568,0,0,0,18.53-17.416c-.033-.393-.065-.769-.115-1.162a18.422,18.422,0,0,0-3.47-8.692,18.559,18.559,0,0,0-14.945-7.562,16.284,16.284,0,0,1,16.221,15.125c.016.376.033.753.033,1.146,0,.376-.016.769-.033,1.146a16.282,16.282,0,0,1-16.221,15.108,18.5,18.5,0,0,1-14.945-7.546,18.377,18.377,0,0,1-3.47-8.725c-.049-.376-.082-.753-.115-1.129-.016.376-.033.753-.033,1.146,0,.376.016.769.033,1.146" transform="translate(0 -102.708)" fill="#00bcff"/>
  </g>
</svg>
