<svg id="Logo_Loja_Bayer_H_cor_v1" xmlns="http://www.w3.org/2000/svg" width="714.463" height="203.891" viewBox="0 0 714.463 203.891">
  <path id="Caminho_4392" data-name="Caminho 4392" d="M490.487,28.65a8.575,8.575,0,0,1-5.914,14.7H465.06V15.13h19.189a8.233,8.233,0,0,1,6.237,13.507M471.723,37.29h12.009a2.686,2.686,0,0,0,0-5.372H471.723Zm0-11.416h11.661a2.35,2.35,0,0,0,0-4.7H471.723Z" transform="translate(135.494 4.408)" fill="#fff"/>
  <path id="Caminho_4393" data-name="Caminho 4393" d="M478.755,48.369l-4.92,10.24h9.84Zm17.252,20.984h-7.167l-2.26-4.7H470.9l-2.26,4.7H461.49l14-28.2h6.5l14.011,28.2Z" transform="translate(134.454 11.989)" fill="#fff"/>
  <path id="Caminho_4394" data-name="Caminho 4394" d="M488.334,67.67h8.032l-14.2,18.363v9.84h-6.676v-9.84L461.28,67.67h8.032l9.5,12.836Z" transform="translate(134.392 19.715)" fill="#fff"/>
  <path id="Caminho_4395" data-name="Caminho 4395" d="M516.7,67.67v6.044H498.023v4.7h18v6.031h-18v5.385H516.7v6.044H491.36V67.67Z" transform="translate(143.156 19.715)" fill="#fff"/>
  <path id="Caminho_4396" data-name="Caminho 4396" d="M534.258,73.714h-9.685v5.372h9.685a2.686,2.686,0,0,0,0-5.372m-4.687,11.416h-5V95.873H517.91V67.67h17.033a8.748,8.748,0,0,1,2.415,17.123l8.213,11.08h-8.006Z" transform="translate(150.891 19.715)" fill="#fff"/>
  <path id="Caminho_4397" data-name="Caminho 4397" d="M454.219,74.889l-4.92,10.24h9.84Zm17.252,20.984h-7.154l-2.247-4.7H446.394l-2.26,4.7H436.98l14-28.2h6.5l14.011,28.2Z" transform="translate(127.313 19.715)" fill="#fff"/>
  <path id="Caminho_4398" data-name="Caminho 4398" d="M437.857,81.19a8.575,8.575,0,0,1-5.914,14.7H412.43V67.67h19.19a8.233,8.233,0,0,1,6.237,13.507m-18.75,8.652h12.009a2.686,2.686,0,0,0,0-5.372H419.106Zm0-11.415h11.661a2.35,2.35,0,0,0,0-4.7H419.106Z" transform="translate(120.16 19.715)" fill="#fff"/>
  <path id="Caminho_4399" data-name="Caminho 4399" d="M490.4,94.18v6.056H471.723v4.7l18-.013v6.044h-18v5.372H490.4v6.044H465.06V94.18Z" transform="translate(135.494 27.439)" fill="#fff"/>
  <path id="Caminho_4400" data-name="Caminho 4400" d="M465.05,149.423v-28.2h18.711a8.755,8.755,0,0,1,3.216,16.839l8.42,11.364H487.39l-8.006-10.744h-7.671v10.744Zm20.662-19.461a2.676,2.676,0,0,0-2.647-2.686H471.713v5.372h11.351a2.684,2.684,0,0,0,2.647-2.686" transform="translate(135.491 35.317)" fill="#fff"/>
  <path id="Caminho_4401" data-name="Caminho 4401" d="M598.716,95.624C595.474,42.266,551.478,0,497.668,0S399.861,42.266,396.62,95.624c.129,2.144.323,4.261.581,6.366a101.627,101.627,0,0,0,100.467,89.271c-46.8,0-85.255-36.687-88.483-82.995-.142-2.092-.219-4.2-.219-6.315s.078-4.223.219-6.315c3.228-46.308,41.672-82.995,88.483-82.995A101.589,101.589,0,0,1,598.135,102c.258,2.066.452,4.158.581,6.263q.194-3.138.194-6.315t-.194-6.315" transform="translate(115.554)" fill="#6bb52e"/>
  <path id="Caminho_4402" data-name="Caminho 4402" d="M396.674,105.417c3.241,53.358,47.237,95.624,101.048,95.624s97.807-42.266,101.048-95.624c-.129-2.144-.323-4.261-.581-6.366A101.627,101.627,0,0,0,497.722,9.78c46.8,0,85.242,36.687,88.47,82.995.142,2.092.219,4.2.219,6.315s-.078,4.223-.219,6.315c-3.229,46.308-41.672,82.995-88.47,82.995A101.589,101.589,0,0,1,397.255,99.038c-.258-2.066-.452-4.158-.581-6.263q-.194,3.138-.194,6.315c0,2.118.077,4.223.194,6.315" transform="translate(115.513 2.849)" fill="#3db8eb"/>
  <path id="Caminho_4403" data-name="Caminho 4403" d="M22.244,42.04V58.685H32.2v3.771H17.75V42.04Z" transform="translate(5.171 12.248)" fill="#fff"/>
  <path id="Caminho_4404" data-name="Caminho 4404" d="M35.4,54.948a6.715,6.715,0,0,0,.956,2.2,5,5,0,0,0,1.717,1.563,5.973,5.973,0,0,0,5.14,0,4.87,4.87,0,0,0,1.717-1.563,6.6,6.6,0,0,0,.956-2.2,10.08,10.08,0,0,0,.3-2.505,11.8,11.8,0,0,0-.3-2.609,7.031,7.031,0,0,0-.956-2.247,4.915,4.915,0,0,0-1.717-1.575,5.973,5.973,0,0,0-5.14,0,4.8,4.8,0,0,0-1.717,1.575,6.754,6.754,0,0,0-.956,2.247,10.846,10.846,0,0,0-.3,2.609,10.484,10.484,0,0,0,.3,2.505m-4.106-6.754a10.119,10.119,0,0,1,1.976-3.422,9.023,9.023,0,0,1,3.164-2.286,11.234,11.234,0,0,1,8.458,0,9.214,9.214,0,0,1,3.151,2.286,10.43,10.43,0,0,1,1.976,3.422,12.912,12.912,0,0,1,.684,4.249,12.265,12.265,0,0,1-.684,4.158,9.826,9.826,0,0,1-1.976,3.358,9,9,0,0,1-3.151,2.247,11.4,11.4,0,0,1-8.458,0,9.047,9.047,0,0,1-3.164-2.247A10.126,10.126,0,0,1,31.294,56.6a12.483,12.483,0,0,1-.684-4.158,13.081,13.081,0,0,1,.684-4.249" transform="translate(8.918 12.137)" fill="#fff"/>
  <path id="Caminho_4405" data-name="Caminho 4405" d="M61.957,58.223a5.369,5.369,0,0,1-2.983,3.99,7.92,7.92,0,0,1-3.629.7,8.5,8.5,0,0,1-2.492-.362,6.169,6.169,0,0,1-2.144-1.111,5.324,5.324,0,0,1-1.511-1.95,6.471,6.471,0,0,1-.568-2.88V54.84H52.7v.917a7.515,7.515,0,0,0,.116,1.369,2.855,2.855,0,0,0,.4,1.072,1.969,1.969,0,0,0,.788.7,2.89,2.89,0,0,0,1.3.258,2.528,2.528,0,0,0,1.369-.31,1.771,1.771,0,0,0,.7-.814,3.338,3.338,0,0,0,.258-1.085c.026-.387.039-.762.039-1.136V42.03h4.494V56.015a13.8,13.8,0,0,1-.194,2.2" transform="translate(14.168 12.245)" fill="#fff"/>
  <path id="Caminho_4406" data-name="Caminho 4406" d="M73.821,54.566l-2.57-7.49H71.2l-2.66,7.49h5.294ZM73.562,42.04l7.632,20.416H76.532l-1.55-4.546H67.351l-1.6,4.546H61.23L68.952,42.04Z" transform="translate(17.839 12.248)" fill="#fff"/>
  <path id="Caminho_4407" data-name="Caminho 4407" d="M48.72,66.89,25.747,127.118H15.3L38.273,66.89Z" transform="translate(4.458 19.488)" fill="#008fdb"/>
  <path id="Caminho_4408" data-name="Caminho 4408" d="M64.01,66.89,41.037,127.118H30.59L53.563,66.89Z" transform="translate(8.912 19.488)" fill="#66b212"/>
  <path id="Caminho_4409" data-name="Caminho 4409" d="M33.433,66.89,10.46,127.118H0L22.986,66.89Z" transform="translate(0 19.488)" fill="#00baff"/>
  <path id="Caminho_4410" data-name="Caminho 4410" d="M68.218,104.489H83.546l-7.451-23.8h-.168Zm-7.541,22.792H47.44L68.889,67.13H83.378l21.2,60.151H90.92l-3.861-12.4H64.86Z" transform="translate(13.821 19.558)" fill="#fff"/>
  <path id="Caminho_4411" data-name="Caminho 4411" d="M122.8,95.216h25.13v32.426h-8.381L138.3,120.1c-3.177,3.68-7.787,9.13-18.763,9.13-14.489,0-27.648-10.4-27.648-31.509,0-16.336,9.052-31.832,29.236-31.832h.168c18.428,0,25.724,11.984,26.4,20.274H135.124c0-2.35-4.274-9.892-13.159-9.892S104.7,82.471,104.7,97.89c0,16.426,8.962,20.7,17.511,20.7,2.763,0,11.984-1.085,14.579-13.236H122.8V95.216Z" transform="translate(26.772 19.197)" fill="#fff"/>
  <path id="Caminho_4412" data-name="Caminho 4412" d="M170.81,93.593c6.534,0,9.724-2.26,9.724-8.213,0-3.177-1.42-7.877-8.794-7.877H156.075v16.09h14.747ZM143.743,67.12h30.411c16,0,18.931,11.816,18.931,17.007,0,6.612-3.345,12.319-9.3,14.321,4.946,2.182,7.619,4.016,7.619,15.251,0,8.794,0,10.976,2.686,11.984v1.588H180.185c-.839-2.854-1.343-5.953-1.343-12.152,0-8.213-.5-11.39-9.8-11.39H156.049v23.541H143.73V67.12Z" transform="translate(41.875 19.555)" fill="#fff"/>
  <path id="Caminho_4413" data-name="Caminho 4413" d="M216.09,118.59c6.78,0,16.336-4.184,16.336-21.036S222.87,76.518,216.09,76.518,199.755,80.7,199.755,97.554s9.556,21.036,16.335,21.036m0-52.7c7.955,0,28.9,3.435,28.9,31.677s-20.946,31.677-28.9,31.677-28.9-3.435-28.9-31.677,20.946-31.677,28.9-31.677" transform="translate(54.537 19.197)" fill="#fff"/>
</svg>
