<svg xmlns="http://www.w3.org/2000/svg" width="330.484" height="132.691" viewBox="0 0 330.484 132.691">
  <g id="Grupo_5845" data-name="Grupo 5845" transform="translate(-319.062 -274.779)">
    <g id="Grupo_5840" data-name="Grupo 5840" transform="translate(319.062 371.971)">
      <path id="Caminho_2835" data-name="Caminho 2835" d="M331.852,456.429A16.971,16.971,0,0,1,348.823,473.4h0a17.07,17.07,0,0,1-17.069,17.07h-12.4a.292.292,0,0,1-.292-.292V456.721a.292.292,0,0,1,.292-.292Zm8.7,16.874c0-6.126-3.161-9.677-8.462-9.677h-4.668a.292.292,0,0,0-.292.292v19.063a.292.292,0,0,0,.292.292h4.668c5.3,0,8.462-3.6,8.462-9.677Z" transform="translate(-319.062 -455.7)" fill="#fff"/>
      <path id="Caminho_2836" data-name="Caminho 2836" d="M392.618,469.511h10.394a3.465,3.465,0,0,1,3.465,3.465v3.732H392.618v6.564h11.707a3.465,3.465,0,0,1,3.465,3.465v3.732H384.545V456.429h19.78a3.465,3.465,0,0,1,3.465,3.465v3.732H392.618Z" transform="translate(-349.245 -455.7)" fill="#fff"/>
      <path id="Caminho_2837" data-name="Caminho 2837" d="M471.309,490.47h-8.072V469.024L455.8,484.1h-4.328l-7.441-15.076V490.47h-8.072V456.429h6.966a3.5,3.5,0,0,1,3.107,1.888l7.627,14.7,7.581-14.688a3.5,3.5,0,0,1,3.11-1.9h6.961Z" transform="translate(-372.943 -455.7)" fill="#fff"/>
      <path id="Caminho_2838" data-name="Caminho 2838" d="M528.934,455.077c10.066,0,16.777,7.44,16.777,17.506v.486c0,10.018-6.662,17.507-16.777,17.507h-.389c-10.115,0-16.826-7.488-16.826-17.507v-.486c0-10.066,6.711-17.506,16.826-17.506Zm-.341,7.2c-5.3,0-8.607,4.425-8.607,10.406v.293c0,5.932,3.307,10.406,8.607,10.406h.292c5.3,0,8.559-4.425,8.559-10.406v-.293c0-6.078-3.258-10.406-8.559-10.406Z" transform="translate(-407.864 -455.077)" fill="#fff"/>
      <path id="Caminho_2839" data-name="Caminho 2839" d="M599.849,455.077a17.21,17.21,0,0,1,13.129,5.932l-2.237,2.4a4.015,4.015,0,0,1-5.192.547,9.355,9.355,0,0,0-5.7-1.678H599.7c-5.106,0-8.462,4.085-8.462,10.406v.293c0,6.273,3.4,10.406,8.559,10.406h.146a9.274,9.274,0,0,0,5.663-1.684,4.015,4.015,0,0,1,5.184.534l2.089,2.221a16.487,16.487,0,0,1-13.179,6.127c-9.872,0-16.728-7.148-16.728-17.507v-.486c0-10.407,6.759-17.506,16.68-17.506Z" transform="translate(-440.709 -455.077)" fill="#fff"/>
      <path id="Caminho_2840" data-name="Caminho 2840" d="M655.9,478.215v9.447a2.809,2.809,0,0,1-2.809,2.809h-5.263V456.429H663.29c8.267,0,11.963,3.89,11.963,10.942,0,4.863-1.9,8.266-5.933,9.822l6.905,13.277h-7.37a2.81,2.81,0,0,1-2.5-1.537l-5.443-10.718Zm6.954-7.052c2.966,0,4.134-1.458,4.134-3.647,0-2.383-1.313-3.891-4.571-3.891H655.9v7.537Z" transform="translate(-470.601 -455.7)" fill="#fff"/>
      <path id="Caminho_2841" data-name="Caminho 2841" d="M716.251,482.591l-1.847,5.344a3.763,3.763,0,0,1-3.557,2.534H704.92l12.887-34.041h8.607L739.3,490.47h-5.926a3.762,3.762,0,0,1-3.557-2.534l-1.847-5.344Zm5.884-17.07-3.4,9.872h6.808Z" transform="translate(-496.918 -455.7)" fill="#fff"/>
      <path id="Caminho_2842" data-name="Caminho 2842" d="M782.8,463.626v23.16a3.683,3.683,0,0,1-3.683,3.684h-4.438V463.626h-9.872v-7.2h27.914v7.2Z" transform="translate(-524.523 -455.7)" fill="#fff"/>
      <path id="Caminho_2843" data-name="Caminho 2843" d="M823.943,482.591l-1.719,4.972a4.316,4.316,0,0,1-4.079,2.906h-5.532L825.5,456.429h8.608l12.887,34.041h-5.533a4.316,4.316,0,0,1-4.079-2.906l-1.719-4.972Zm5.884-17.07-3.4,9.872h6.808Z" transform="translate(-546.557 -455.7)" fill="#fff"/>
      <path id="Caminho_2844" data-name="Caminho 2844" d="M907.506,460.135l-2.337,2.559a3.965,3.965,0,0,1-4.676.945,14.216,14.216,0,0,0-6.5-1.463c-3.113,0-5.057,1.313-5.057,3.4,0,1.556.972,2.041,7.926,3.5,7.635,1.556,10.991,4.814,10.991,10.358,0,6.614-5.544,11.136-13.47,11.136a19.166,19.166,0,0,1-14.929-6.516l2.337-2.608a3.422,3.422,0,0,1,4.525-.561,13.239,13.239,0,0,0,7.823,2.585c3.258,0,5.349-1.411,5.349-3.6,0-1.993-1.021-2.625-6.467-3.7-8.316-1.7-12.255-4.814-12.255-10.211,0-6.517,5.349-10.893,13.323-10.893C899.63,455.077,904.638,456.924,907.506,460.135Z" transform="translate(-577.364 -455.077)" fill="#fff"/>
    </g>
    <g id="Grupo_5844" data-name="Grupo 5844" transform="translate(430.761 274.779)">
      <g id="Grupo_5842" data-name="Grupo 5842" transform="translate(48.722 18.534)">
        <g id="Grupo_5841" data-name="Grupo 5841">
          <path id="Caminho_2845" data-name="Caminho 2845" d="M673.261,309.161l-.937,7.934a6.337,6.337,0,0,1-5.306,5.509c-9.277,1.489-22.423,2.363-34.568,2.94-2,.084-3.966.168-5.894.252a10.214,10.214,0,0,0-.363-3.632c-1.173-3.882-4.693-6.187-8.213-8.03-.433-.224-.88-.447-1.327-.671.21-.014.433-.014.656-.028,17.626-.6,41.034-1.452,50.126-3.1C669.392,309.985,671.319,309.608,673.261,309.161Z" transform="translate(-616.654 -309.161)" fill="#fff"/>
        </g>
      </g>
      <path id="Caminho_2846" data-name="Caminho 2846" d="M545.886,296.246c7.346.95,21.173.14,29.735,1.341h.028c.768.112,1.494.238,2.165.377h.028l.587.126c6.005,1.327,11.718,5.782,12.36,11.593v.013a10.567,10.567,0,0,1-.712,5.014q-.126.356-.293.712c-.014.028-.028.07-.042.1-3.6,7.793-14.441,8.464-21.732,9.511-5.224.754-10.461,1.327-15.713,1.76l1.174-12.235c4.413-.279,17.207-.8,22.067-4.036,3.813-2.542,2.514-6.4-1.187-8-4.539-1.969-10-2.416-16.1-2.584-13.883-.391-25.154-1.592-29.6-5.14-2.192-1.76-4.176-5.642.349-9.05,7.081-5.307,19.511-4.958,27.919-5.461,11.7-.713,55.588-1.425,68.856-3.841,2.682-.475,5.322-1.006,8.031-1.663l-.955,8.037a6.314,6.314,0,0,1-5.1,5.47c-17.834,3.368-54.392,3.9-65.57,4.482-3.449.182-11.523.545-16.467,1.495C544.462,294.5,544.615,296.079,545.886,296.246Z" transform="translate(-526.271 -274.779)" fill="#fff"/>
      <g id="Grupo_5843" data-name="Grupo 5843" transform="translate(22.381 51.628)">
        <path id="Caminho_2847" data-name="Caminho 2847" d="M609.444,370.553l-1.327,8.953a7.122,7.122,0,0,1-5.741,5.978c-2.416.447-5.139.866-8.31,1.3-7.514,1.02-15.042,1.844-22.6,2.57l1.215-12.738c4.414-.433,8.813-.922,13.227-1.424A123.109,123.109,0,0,0,609.444,370.553Z" transform="translate(-569.485 -370.553)" fill="#fff"/>
        <path id="Caminho_2848" data-name="Caminho 2848" d="M604.591,405.427l-1.173,7.933a7.955,7.955,0,0,1-6.676,6.718c-1.355.21-2.807.419-4.372.629-8.171,1.1-16.369,1.983-24.581,2.765l1.229-12.71q7.6-.775,15.2-1.648A134.825,134.825,0,0,0,604.591,405.427Z" transform="translate(-567.789 -386.628)" fill="#fff"/>
      </g>
      <path id="Caminho_2849" data-name="Caminho 2849" d="M682.81,341.884l-.943,7.963a6.338,6.338,0,0,1-5.24,5.5c-9.14,1.568-22.262,2.462-34.712,3.05l1.174-12.039.07-.7a1.2,1.2,0,0,0,.224-.014c13.422-.559,26.676-1.313,33-2.472C678.536,342.778,680.659,342.373,682.81,341.884Z" transform="translate(-579.575 -305.71)" fill="#fff"/>
    </g>
  </g>
</svg>
