<svg xmlns="http://www.w3.org/2000/svg" width="122.392" height="40.544" viewBox="0 0 122.392 40.544"><defs><style>.a{fill:#002841;}.b{fill:#0072bb;}.c{fill:#00a3e2;}.d{fill:#88bc3b;}</style></defs><g transform="translate(-447.593 -369.591)"><path class="a" d="M496.745,381.458h1.7a.467.467,0,0,0,.467-.469v-7.735a.46.46,0,0,0-.136-.331.455.455,0,0,0-.33-.137h-1.7a.452.452,0,0,0-.342.143.467.467,0,0,0-.126.326v7.735a.468.468,0,0,0,.126.326.452.452,0,0,0,.342.143m-.074-8.2a.081.081,0,0,1,.021-.059c.005-.005.015-.016.053-.016h1.7a.064.064,0,0,1,.052.021.066.066,0,0,1,.021.053v7.735a.064.064,0,0,1-.022.053.064.064,0,0,1-.051.021h-1.7c-.038,0-.048-.011-.053-.017a.079.079,0,0,1-.021-.058Z" transform="translate(-5.317 -0.349)"/><path class="a" d="M501.428,381.456h1.7a.468.468,0,0,0,.469-.469v-3.8l2.809,3.96a.779.779,0,0,0,.256.212.685.685,0,0,0,.331.093h1.673a.468.468,0,0,0,.469-.469v-7.746a.468.468,0,0,0-.469-.469h-1.676a.468.468,0,0,0-.469.469v3.783l-2.8-3.958a.789.789,0,0,0-.588-.294h-1.7a.467.467,0,0,0-.469.469v7.746a.46.46,0,0,0,.137.332.465.465,0,0,0,.333.136m-.077-8.215a.073.073,0,0,1,.075-.075h1.7a.341.341,0,0,1,.15.042.336.336,0,0,1,.119.09l2.948,4.16a.334.334,0,0,0,.329.157.291.291,0,0,0,.241-.32v-4.054a.073.073,0,0,1,.075-.075h1.676a.069.069,0,0,1,.053.021.066.066,0,0,1,.021.053v7.746a.065.065,0,0,1-.021.053.066.066,0,0,1-.053.021H506.99a.3.3,0,0,1-.143-.044.39.39,0,0,1-.126-.1l-2.953-4.161a.34.34,0,0,0-.278-.154.32.32,0,0,0-.067.007.3.3,0,0,0-.224.322v4.054a.065.065,0,0,1-.022.053.066.066,0,0,1-.053.021h-1.7a.069.069,0,0,1-.055-.021.067.067,0,0,1-.021-.053Z" transform="translate(-5.829 -0.348)"/><path class="a" d="M512.249,380.8a5.162,5.162,0,0,0,.853.418,5.7,5.7,0,0,0,.985.276,6.181,6.181,0,0,0,1.136.1,5.5,5.5,0,0,0,1.368-.159,3.091,3.091,0,0,0,1.088-.5,2.374,2.374,0,0,0,.721-.882,2.877,2.877,0,0,0,.257-1.258,2.511,2.511,0,0,0-.316-1.308,2.774,2.774,0,0,0-.769-.841,3.477,3.477,0,0,0-.967-.48,8.431,8.431,0,0,0-.925-.239l-.355-.061a5.478,5.478,0,0,1-.568-.136,2.9,2.9,0,0,1-.508-.2c-.11-.058-.132-.1-.132-.11,0-.073.024-.1.035-.106a.367.367,0,0,1,.159-.083,1.144,1.144,0,0,1,.266-.038c.107,0,.2-.006.282-.006a2.98,2.98,0,0,1,.859.144,4.431,4.431,0,0,1,1.016.485.437.437,0,0,0,.361.081.489.489,0,0,0,.3-.193l.88-1.252a.48.48,0,0,0,.1-.341.492.492,0,0,0-.178-.33,5.685,5.685,0,0,0-1.5-.838,5.393,5.393,0,0,0-2.933-.167,3.275,3.275,0,0,0-1.113.445,2.624,2.624,0,0,0-.839.875,2.68,2.68,0,0,0-.334,1.392,2.569,2.569,0,0,0,.18,1,2.365,2.365,0,0,0,.476.735,2.589,2.589,0,0,0,.667.5,5.176,5.176,0,0,0,.725.313,5.117,5.117,0,0,0,.713.188l.576.106q.269.059.526.094a2.618,2.618,0,0,1,.405.085.768.768,0,0,1,.239.11.078.078,0,0,1,.035.074.262.262,0,0,1-.158.252,2.39,2.39,0,0,1-1.716-.1,6.161,6.161,0,0,1-1.174-.6l0,0a.465.465,0,0,0-.346-.061.5.5,0,0,0-.3.194l-.868,1.252a.49.49,0,0,0-.1.346.445.445,0,0,0,.174.321,6.173,6.173,0,0,0,.718.509m-.477-.944.868-1.252a.1.1,0,0,1,.062-.038l.024,0a.065.065,0,0,1,.036.01,6.56,6.56,0,0,0,1.247.641,3.4,3.4,0,0,0,1.191.239,1.785,1.785,0,0,0,.852-.166.65.65,0,0,0,.363-.6.469.469,0,0,0-.192-.389,1.152,1.152,0,0,0-.361-.173,2.982,2.982,0,0,0-.466-.1c-.162-.021-.326-.051-.5-.089l-.582-.108a4.75,4.75,0,0,1-.658-.174,4.629,4.629,0,0,1-.668-.289,2.19,2.19,0,0,1-.567-.426,1.974,1.974,0,0,1-.4-.614,2.186,2.186,0,0,1-.149-.846,2.3,2.3,0,0,1,.277-1.19,2.244,2.244,0,0,1,.714-.745,2.883,2.883,0,0,1,.981-.392,5.007,5.007,0,0,1,2.718.151,5.251,5.251,0,0,1,1.382.773.086.086,0,0,1,.036.064.091.091,0,0,1-.021.07l-.879,1.252a.093.093,0,0,1-.062.038c-.022.005-.033,0-.061-.019a4.842,4.842,0,0,0-1.123-.537,3.371,3.371,0,0,0-.974-.161c-.086,0-.184,0-.3.006a1.578,1.578,0,0,0-.356.052.76.76,0,0,0-.327.177.517.517,0,0,0-.159.392.53.53,0,0,0,.344.458,3.188,3.188,0,0,0,.579.23,5.883,5.883,0,0,0,.609.147c.192.034.315.055.36.061a8.052,8.052,0,0,1,.873.226,3.084,3.084,0,0,1,.857.426,2.386,2.386,0,0,1,.659.722,2.136,2.136,0,0,1,.26,1.105,2.484,2.484,0,0,1-.218,1.086,1.977,1.977,0,0,1-.6.738,2.7,2.7,0,0,1-.951.437,5.137,5.137,0,0,1-1.269.147,5.7,5.7,0,0,1-1.063-.094,5.251,5.251,0,0,1-.917-.257,4.772,4.772,0,0,1-.789-.386,5.979,5.979,0,0,1-.681-.483.056.056,0,0,1-.023-.047.1.1,0,0,1,.022-.078" transform="translate(-6.964 -0.333)"/><path class="a" d="M520.695,375.25H522.3c.038,0,.049.011.053.016a.079.079,0,0,1,.021.059v5.663a.467.467,0,0,0,.469.469h1.7a.454.454,0,0,0,.342-.142.472.472,0,0,0,.127-.327v-5.663a.073.073,0,0,1,.074-.075h1.586a.449.449,0,0,0,.342-.142.468.468,0,0,0,.126-.326v-1.54a.475.475,0,0,0-.126-.327.455.455,0,0,0-.342-.142h-5.979a.467.467,0,0,0-.469.469v1.54a.467.467,0,0,0,.469.469m-.075-2.009a.066.066,0,0,1,.021-.053.069.069,0,0,1,.053-.021h5.979c.038,0,.049.011.053.016a.078.078,0,0,1,.021.059v1.54a.078.078,0,0,1-.021.059c-.005.005-.015.016-.053.016h-1.586a.468.468,0,0,0-.469.469v5.663a.072.072,0,0,1-.021.057c-.005.006-.016.017-.054.017h-1.7a.073.073,0,0,1-.075-.074v-5.663a.471.471,0,0,0-.127-.327.454.454,0,0,0-.342-.142h-1.608a.074.074,0,0,1-.075-.075Z" transform="translate(-7.933 -0.348)"/><path class="a" d="M529.814,381.458h1.7a.467.467,0,0,0,.467-.469v-7.735a.467.467,0,0,0-.467-.469h-1.7a.452.452,0,0,0-.342.143.467.467,0,0,0-.126.326v7.735a.468.468,0,0,0,.126.326.452.452,0,0,0,.342.143m-.073-8.2a.082.082,0,0,1,.02-.059c.006-.005.015-.016.053-.016h1.7a.064.064,0,0,1,.052.021.066.066,0,0,1,.021.053v7.735a.073.073,0,0,1-.073.075h-1.7c-.038,0-.047-.011-.053-.017a.079.079,0,0,1-.02-.058Z" transform="translate(-8.929 -0.349)"/><path class="a" d="M534.223,375.25h1.608c.038,0,.049.011.053.016a.079.079,0,0,1,.021.059v5.663a.468.468,0,0,0,.469.469h1.7a.455.455,0,0,0,.342-.142.472.472,0,0,0,.127-.327v-5.663a.066.066,0,0,1,.021-.053.069.069,0,0,1,.052-.021H540.2a.453.453,0,0,0,.343-.142.471.471,0,0,0,.126-.326v-1.54a.475.475,0,0,0-.127-.327.455.455,0,0,0-.342-.142h-5.979a.467.467,0,0,0-.469.469v1.54a.467.467,0,0,0,.469.469m-.075-2.009a.066.066,0,0,1,.021-.053.069.069,0,0,1,.054-.021H540.2c.038,0,.049.011.053.016a.078.078,0,0,1,.021.059v1.54a.081.081,0,0,1-.021.059c-.006.005-.016.016-.054.016h-1.586a.469.469,0,0,0-.469.469v5.663a.072.072,0,0,1-.02.057c-.005.006-.016.017-.054.017h-1.7a.073.073,0,0,1-.075-.074v-5.663a.471.471,0,0,0-.126-.327.455.455,0,0,0-.342-.142h-1.608a.074.074,0,0,1-.075-.075Z" transform="translate(-9.411 -0.348)"/><path class="a" d="M543.826,380.563a3.5,3.5,0,0,0,1.21.762,4.636,4.636,0,0,0,3.1,0,3.5,3.5,0,0,0,1.21-.762,3.34,3.34,0,0,0,.775-1.19,4.227,4.227,0,0,0,.268-1.532v-4.587a.468.468,0,0,0-.468-.469h-1.7a.467.467,0,0,0-.468.469v4.587a1.466,1.466,0,0,1-.122.643,1.135,1.135,0,0,1-.293.387,1.071,1.071,0,0,1-.374.2,1.232,1.232,0,0,1-.756,0,1.115,1.115,0,0,1-.381-.2,1.093,1.093,0,0,1-.3-.385,1.465,1.465,0,0,1-.122-.643v-4.587a.467.467,0,0,0-.467-.469h-1.7a.455.455,0,0,0-.331.137.46.46,0,0,0-.136.331v4.587a4.152,4.152,0,0,0,.273,1.533,3.381,3.381,0,0,0,.78,1.189m-.66-7.309a.066.066,0,0,1,.021-.053.063.063,0,0,1,.052-.021h1.7a.073.073,0,0,1,.073.075v4.587a1.854,1.854,0,0,0,.162.818,1.491,1.491,0,0,0,.408.521,1.525,1.525,0,0,0,.517.265,1.6,1.6,0,0,0,.972,0,1.46,1.46,0,0,0,.513-.267,1.521,1.521,0,0,0,.4-.52,1.849,1.849,0,0,0,.163-.817v-4.587a.072.072,0,0,1,.073-.075h1.7a.065.065,0,0,1,.052.021.066.066,0,0,1,.021.053v4.587a3.858,3.858,0,0,1-.241,1.39,2.961,2.961,0,0,1-.684,1.051,3.1,3.1,0,0,1-1.073.676,4.244,4.244,0,0,1-2.822,0,3.111,3.111,0,0,1-1.075-.676,3.012,3.012,0,0,1-.689-1.053,3.767,3.767,0,0,1-.246-1.388Z" transform="translate(-10.396 -0.349)"/><path class="a" d="M553.061,375.25h1.608c.038,0,.049.011.053.016a.079.079,0,0,1,.021.059v5.663a.468.468,0,0,0,.469.469h1.7a.454.454,0,0,0,.342-.142.472.472,0,0,0,.127-.327v-5.663a.066.066,0,0,1,.021-.053.068.068,0,0,1,.052-.021h1.586a.453.453,0,0,0,.343-.142.471.471,0,0,0,.126-.326v-1.54a.475.475,0,0,0-.126-.327.455.455,0,0,0-.342-.142h-5.979a.467.467,0,0,0-.469.469v1.54a.467.467,0,0,0,.469.469m-.075-2.009a.066.066,0,0,1,.021-.053.069.069,0,0,1,.053-.021h5.979c.038,0,.049.011.053.016a.078.078,0,0,1,.021.059v1.54a.081.081,0,0,1-.02.059c-.006.005-.016.016-.054.016h-1.586a.468.468,0,0,0-.469.469v5.663a.072.072,0,0,1-.021.057c-.005.006-.016.017-.054.017h-1.7a.073.073,0,0,1-.075-.074v-5.663a.471.471,0,0,0-.126-.327.455.455,0,0,0-.342-.142h-1.608a.074.074,0,0,1-.075-.075Z" transform="translate(-11.468 -0.348)"/><path class="a" d="M567.344,375.735a2.462,2.462,0,0,0-.714-.505,2.086,2.086,0,0,0-1.753,0,2.366,2.366,0,0,0-.709.506,2.366,2.366,0,0,0-.477,2.516,2.409,2.409,0,0,0,.476.74,2.341,2.341,0,0,0,.71.513,2.077,2.077,0,0,0,1.754,0,2.427,2.427,0,0,0,.714-.511,2.374,2.374,0,0,0,.482-.742,2.35,2.35,0,0,0,0-1.774,2.268,2.268,0,0,0-.483-.743m.118,2.367a1.985,1.985,0,0,1-.4.618,2.026,2.026,0,0,1-.6.428,1.688,1.688,0,0,1-1.419,0,1.983,1.983,0,0,1-.591-.427,2.053,2.053,0,0,1-.4-.62,1.976,1.976,0,0,1,.4-2.092,1.993,1.993,0,0,1,.592-.423,1.682,1.682,0,0,1,1.418,0,2.065,2.065,0,0,1,.6.424,1.884,1.884,0,0,1,.4.616,1.965,1.965,0,0,1,0,1.476" transform="translate(-12.661 -0.595)"/><path class="a" d="M569.61,375.353a4.548,4.548,0,0,0-2.39-2.39,4.468,4.468,0,0,0-3.487,0,4.525,4.525,0,0,0-1.42.965,4.672,4.672,0,0,0-.958,1.424,4.453,4.453,0,0,0,0,3.487,4.666,4.666,0,0,0,.958,1.425,4.54,4.54,0,0,0,1.42.965,4.443,4.443,0,0,0,3.487,0,4.54,4.54,0,0,0,2.39-2.39,4.442,4.442,0,0,0,0-3.487m-.362,3.33a4.14,4.14,0,0,1-2.185,2.185,4.071,4.071,0,0,1-3.172,0,4.157,4.157,0,0,1-1.3-.881,4.281,4.281,0,0,1-.877-1.3,4.052,4.052,0,0,1,0-3.172,4.281,4.281,0,0,1,.877-1.3,4.138,4.138,0,0,1,1.3-.88,4.051,4.051,0,0,1,3.172,0,4.139,4.139,0,0,1,2.185,2.185,4.052,4.052,0,0,1,0,3.172" transform="translate(-12.386 -0.33)"/><path class="a" d="M498.52,386.941a.274.274,0,0,0-.2-.082h-1.759a.266.266,0,0,0-.2.082.28.28,0,0,0-.077.2v8.022a.28.28,0,0,0,.077.2.266.266,0,0,0,.2.082h5.672a.28.28,0,0,0,.281-.281v-1.6a.28.28,0,0,0-.281-.281h-3.35a.265.265,0,0,1-.2-.082.279.279,0,0,1-.077-.2V387.14a.274.274,0,0,0-.082-.2" transform="translate(-5.318 -1.886)"/><path class="a" d="M506.8,395.164v-8.011a.281.281,0,0,0-.28-.281h-1.762a.261.261,0,0,0-.2.083.282.282,0,0,0-.077.2v8.011a.284.284,0,0,0,.077.2.263.263,0,0,0,.2.082h1.762a.28.28,0,0,0,.28-.281" transform="translate(-6.213 -1.887)"/><path class="a" d="M514.684,390.753a2.47,2.47,0,0,0,.569-.61,1.586,1.586,0,0,0,.264-.915,2.335,2.335,0,0,0-.24-1.108,2.1,2.1,0,0,0-.633-.733,2.567,2.567,0,0,0-.909-.4,4.592,4.592,0,0,0-1.079-.124h-3.542a.281.281,0,0,0-.281.281v8.022a.269.269,0,0,0,.082.2.272.272,0,0,0,.2.082h3.718a4.976,4.976,0,0,0,1.12-.123,2.558,2.558,0,0,0,.944-.422,2.089,2.089,0,0,0,.651-.8,2.912,2.912,0,0,0,.241-1.26,2.088,2.088,0,0,0-.1-.669,2.01,2.01,0,0,0-.258-.516,1.883,1.883,0,0,0-.346-.376,2.61,2.61,0,0,0-.375-.257q-.234-.118-.023-.27m-3.53-1.455a.275.275,0,0,1,.082-.2.272.272,0,0,1,.2-.082h1.114a.5.5,0,0,1,.322.152.472.472,0,0,1,.169.363.647.647,0,0,1-.14.405.452.452,0,0,1-.376.182h-1.09a.281.281,0,0,1-.281-.281Zm1.994,3.812a.576.576,0,0,1-.4.176h-1.314a.28.28,0,0,1-.281-.281v-.669a.275.275,0,0,1,.082-.2.272.272,0,0,1,.2-.082h1.231a.6.6,0,0,1,.487.217.672.672,0,0,1,.182.428.545.545,0,0,1-.188.41" transform="translate(-6.689 -1.886)"/><path class="a" d="M520.232,389.1a.272.272,0,0,1,.2-.082h3.647a.28.28,0,0,0,.281-.281v-1.6a.28.28,0,0,0-.281-.281h-5.969a.28.28,0,0,0-.281.281v8.022a.269.269,0,0,0,.082.2.272.272,0,0,0,.2.082h5.969a.272.272,0,0,0,.2-.082.269.269,0,0,0,.082-.2v-1.619a.28.28,0,0,0-.281-.281h-3.647a.28.28,0,0,1-.281-.281v-.445a.28.28,0,0,1,.281-.281h3.178a.28.28,0,0,0,.282-.281v-1.619a.28.28,0,0,0-.282-.281h-3.178a.272.272,0,0,1-.2-.082.269.269,0,0,1-.082-.2V389.3a.27.27,0,0,1,.082-.2" transform="translate(-7.671 -1.886)"/><path class="a" d="M531.4,395.222a.538.538,0,0,0,.206.159.586.586,0,0,0,.252.064h2.182a.145.145,0,0,0,.152-.111.218.218,0,0,0-.035-.2q-.388-.516-.88-1.138t-.938-1.208a.211.211,0,0,1-.041-.194.326.326,0,0,1,.123-.17,2.141,2.141,0,0,0,.5-.439,3,3,0,0,0,.387-.592,3.257,3.257,0,0,0,.341-1.443,3.274,3.274,0,0,0-.229-1.243,2.954,2.954,0,0,0-.633-.974,2.825,2.825,0,0,0-.98-.64,3.366,3.366,0,0,0-1.254-.228h-3.648a.281.281,0,0,0-.282.281v8.023a.269.269,0,0,0,.083.2.272.272,0,0,0,.2.082h1.757a.272.272,0,0,0,.2-.082.268.268,0,0,0,.082-.2v-1.9a.271.271,0,0,1,.082-.2.268.268,0,0,1,.2-.082h.257a.546.546,0,0,1,.244.064.531.531,0,0,1,.2.159q.362.516.73,1.02t.741,1m-2.171-4.4a.28.28,0,0,1-.281-.281V389.3a.275.275,0,0,1,.082-.2.272.272,0,0,1,.2-.082h1.237a.81.81,0,0,1,.414.1.823.823,0,0,1,.268.246,1.017,1.017,0,0,1,.141.306,1.153,1.153,0,0,1,.041.275.844.844,0,0,1-.292.663.833.833,0,0,1-.281.164.87.87,0,0,1-.291.053Z" transform="translate(-8.632 -1.886)"/><path class="a" d="M543.764,389.334a3.855,3.855,0,0,0-.962-1.4,4.28,4.28,0,0,0-3.014-1.079h-3.2a.28.28,0,0,0-.281.281v8.022a.28.28,0,0,0,.281.281h3.2a4.941,4.941,0,0,0,1.671-.27,3.974,3.974,0,0,0,1.343-.8,3.83,3.83,0,0,0,.962-1.4,5.221,5.221,0,0,0,0-3.642m-2.2,2.915a1.683,1.683,0,0,1-.463.645,1.551,1.551,0,0,1-.633.311,3.017,3.017,0,0,1-.681.082h-.879a.272.272,0,0,1-.2-.082.269.269,0,0,1-.082-.2v-3.682a.28.28,0,0,1,.282-.281h.879a2.934,2.934,0,0,1,.674.082,1.608,1.608,0,0,1,.633.311,1.648,1.648,0,0,1,.469.645,3.33,3.33,0,0,1,0,2.17" transform="translate(-9.689 -1.886)"/><path class="a" d="M548.206,387.13l-3.4,7.94a.267.267,0,0,0-.036.164.238.238,0,0,0,.052.118.253.253,0,0,0,.106.07.347.347,0,0,0,.123.023h2.017a.4.4,0,0,0,.229-.076.431.431,0,0,0,.159-.182l.329-.7a.432.432,0,0,1,.159-.182.417.417,0,0,1,.24-.077h2.474a.4.4,0,0,1,.229.077.531.531,0,0,1,.17.182l.317.7a.523.523,0,0,0,.17.182.416.416,0,0,0,.24.076h2.005a.261.261,0,0,0,.252-.117.241.241,0,0,0,.018-.223l-3.425-7.976a.437.437,0,0,0-.159-.182.4.4,0,0,0-.228-.076H548.6a.415.415,0,0,0-.24.076.437.437,0,0,0-.159.182m.516,4.844.587-1.419c.031-.07.066-.106.105-.106s.074.036.105.106l.306.733q.164.393.281.686a.163.163,0,0,1,.005.182.191.191,0,0,1-.169.077H548.9a.19.19,0,0,1-.176-.077.187.187,0,0,1,0-.182" transform="translate(-10.613 -1.888)"/><path class="a" d="M562.625,387.938a4.28,4.28,0,0,0-3.014-1.079h-3.2a.28.28,0,0,0-.281.281v8.022a.28.28,0,0,0,.281.281h3.2a4.941,4.941,0,0,0,1.671-.27,3.983,3.983,0,0,0,1.343-.8,3.83,3.83,0,0,0,.962-1.4,5.221,5.221,0,0,0,0-3.642,3.855,3.855,0,0,0-.962-1.4m-1.237,4.31a1.683,1.683,0,0,1-.463.645,1.552,1.552,0,0,1-.633.311,3.017,3.017,0,0,1-.681.082h-.879a.272.272,0,0,1-.2-.082.269.269,0,0,1-.082-.2v-3.682a.28.28,0,0,1,.281-.281h.879a2.934,2.934,0,0,1,.674.082,1.608,1.608,0,0,1,.633.311,1.648,1.648,0,0,1,.469.645,3.33,3.33,0,0,1,0,2.17" transform="translate(-11.854 -1.886)"/><path class="a" d="M566.3,386.941a.274.274,0,0,0-.082.2v8.022a.28.28,0,0,0,.281.281h5.97a.28.28,0,0,0,.281-.281v-1.619a.28.28,0,0,0-.281-.281h-3.648a.28.28,0,0,1-.281-.281v-.445a.28.28,0,0,1,.281-.282H572a.271.271,0,0,0,.2-.081.274.274,0,0,0,.082-.2v-1.618a.276.276,0,0,0-.082-.2.271.271,0,0,0-.2-.081h-3.178a.28.28,0,0,1-.281-.282V389.3a.281.281,0,0,1,.281-.281h3.648a.28.28,0,0,0,.281-.281V387.14a.28.28,0,0,0-.281-.281H566.5a.272.272,0,0,0-.2.082" transform="translate(-12.956 -1.886)"/><path class="a" d="M580.063,389.1a.272.272,0,0,1,.2-.082h3.647a.28.28,0,0,0,.281-.281v-1.6a.28.28,0,0,0-.281-.281H577.94a.28.28,0,0,0-.281.281v8.022a.269.269,0,0,0,.082.2.272.272,0,0,0,.2.082h5.969a.272.272,0,0,0,.2-.082.269.269,0,0,0,.082-.2v-1.619a.28.28,0,0,0-.281-.281h-3.647a.28.28,0,0,1-.281-.281v-.445a.28.28,0,0,1,.281-.281h3.178a.28.28,0,0,0,.281-.281v-1.619a.28.28,0,0,0-.281-.281h-3.178a.272.272,0,0,1-.2-.082.269.269,0,0,1-.082-.2V389.3a.27.27,0,0,1,.082-.2" transform="translate(-14.206 -1.886)"/><path class="a" d="M498.836,403.575a2.293,2.293,0,0,1,.686-.5,1.916,1.916,0,0,1,.839-.188,2.234,2.234,0,0,1,1.161.287,2.49,2.49,0,0,1,.821.828.354.354,0,0,0,.175.141.307.307,0,0,0,.235,0l1.665-.657a.245.245,0,0,0,.141-.152.223.223,0,0,0-.023-.2,7.511,7.511,0,0,0-.745-.991,4.237,4.237,0,0,0-.909-.768,4.3,4.3,0,0,0-1.125-.493,5.154,5.154,0,0,0-1.4-.176,4.427,4.427,0,0,0-1.76.352,4.687,4.687,0,0,0-1.436.95,4.368,4.368,0,0,0-.968,1.407,4.4,4.4,0,0,0,0,3.447,4.368,4.368,0,0,0,.968,1.407,4.7,4.7,0,0,0,1.436.95,4.427,4.427,0,0,0,1.76.352,5.053,5.053,0,0,0,1.372-.175,4.455,4.455,0,0,0,1.132-.489,4.308,4.308,0,0,0,.92-.765,6.709,6.709,0,0,0,.751-1,.238.238,0,0,0,.023-.2.246.246,0,0,0-.141-.147l-1.665-.656a.292.292,0,0,0-.229,0,.356.356,0,0,0-.17.141,2.4,2.4,0,0,1-.827.8,2.236,2.236,0,0,1-1.167.311,1.928,1.928,0,0,1-.839-.188,2.34,2.34,0,0,1-.686-.494,2.211,2.211,0,0,1-.458-.711,2.285,2.285,0,0,1,0-1.7,2.277,2.277,0,0,1,.458-.723" transform="translate(-5.27 -3.398)"/><path class="a" d="M509.041,400.864h-1.762a.264.264,0,0,0-.2.082.282.282,0,0,0-.077.2v8.011a.282.282,0,0,0,.077.2.262.262,0,0,0,.2.083h1.762a.281.281,0,0,0,.28-.281v-8.011a.28.28,0,0,0-.28-.281" transform="translate(-6.488 -3.416)"/><path class="a" d="M519.158,403.326a3.854,3.854,0,0,0-.962-1.4,4.28,4.28,0,0,0-3.014-1.079h-3.2a.28.28,0,0,0-.281.281v8.022a.28.28,0,0,0,.281.281h3.2a4.941,4.941,0,0,0,1.671-.27,3.982,3.982,0,0,0,1.343-.8,3.829,3.829,0,0,0,.962-1.4,5.221,5.221,0,0,0,0-3.642m-2.2,2.915a1.682,1.682,0,0,1-.463.645,1.552,1.552,0,0,1-.633.311,3.019,3.019,0,0,1-.681.082H514.3a.272.272,0,0,1-.2-.082.269.269,0,0,1-.082-.2v-3.682a.28.28,0,0,1,.281-.281h.879a2.937,2.937,0,0,1,.674.082,1.609,1.609,0,0,1,.633.311,1.648,1.648,0,0,1,.469.645,3.33,3.33,0,0,1,0,2.17" transform="translate(-7.002 -3.414)"/><path class="a" d="M526.147,401.121a.437.437,0,0,0-.159-.182.4.4,0,0,0-.228-.076h-1.643a.418.418,0,0,0-.241.076.44.44,0,0,0-.158.182l-3.4,7.94a.272.272,0,0,0-.035.164.23.23,0,0,0,.052.118.249.249,0,0,0,.105.07.356.356,0,0,0,.124.023h2.017a.4.4,0,0,0,.229-.076.437.437,0,0,0,.159-.182l.328-.7a.444.444,0,0,1,.159-.182.421.421,0,0,1,.241-.077h2.475a.4.4,0,0,1,.229.077.541.541,0,0,1,.17.182l.316.7a.539.539,0,0,0,.17.182.42.42,0,0,0,.24.076H529.3a.262.262,0,0,0,.252-.117.241.241,0,0,0,.018-.223Zm-.522,5.026a.192.192,0,0,1-.17.077h-1.043a.191.191,0,0,1-.176-.077.187.187,0,0,1,0-.182l.586-1.419c.031-.07.067-.106.105-.106s.075.036.106.106c.094.227.2.471.3.733s.2.491.282.686a.163.163,0,0,1,.006.182" transform="translate(-7.939 -3.416)"/><path class="a" d="M539.421,403.326a3.854,3.854,0,0,0-.962-1.4,4.28,4.28,0,0,0-3.014-1.079h-3.2a.28.28,0,0,0-.281.281v8.022a.28.28,0,0,0,.281.281h3.2a4.941,4.941,0,0,0,1.671-.27,3.982,3.982,0,0,0,1.343-.8,3.829,3.829,0,0,0,.962-1.4,5.221,5.221,0,0,0,0-3.642m-2.2,2.915a1.681,1.681,0,0,1-.463.645,1.551,1.551,0,0,1-.633.311,3.019,3.019,0,0,1-.681.082h-.879a.272.272,0,0,1-.2-.082.269.269,0,0,1-.082-.2v-3.682a.28.28,0,0,1,.281-.281h.879a2.937,2.937,0,0,1,.674.082,1.609,1.609,0,0,1,.633.311,1.648,1.648,0,0,1,.469.645,3.33,3.33,0,0,1,0,2.17" transform="translate(-9.215 -3.414)"/><path class="a" d="M546.411,401.121a.446.446,0,0,0-.159-.182.4.4,0,0,0-.228-.076h-1.642a.421.421,0,0,0-.241.076.446.446,0,0,0-.158.182l-3.4,7.94a.26.26,0,0,0-.035.164.222.222,0,0,0,.052.118.247.247,0,0,0,.106.07.348.348,0,0,0,.123.023h2.017a.4.4,0,0,0,.229-.076.437.437,0,0,0,.159-.182l.329-.7a.442.442,0,0,1,.158-.182.422.422,0,0,1,.241-.077h2.475a.4.4,0,0,1,.228.077.543.543,0,0,1,.171.182l.315.7a.548.548,0,0,0,.17.182.42.42,0,0,0,.24.076h2.007a.26.26,0,0,0,.251-.117.239.239,0,0,0,.018-.223Zm-.522,5.026a.194.194,0,0,1-.171.077h-1.044a.19.19,0,0,1-.175-.077.187.187,0,0,1,0-.182l.586-1.419c.032-.07.067-.106.105-.106s.076.036.106.106c.094.227.2.471.3.733s.2.491.281.686a.163.163,0,0,1,.007.182" transform="translate(-10.152 -3.416)"/><path class="a" d="M559.987,400.851h-1.736a.281.281,0,0,0-.281.281v4.2c0,.078-.025.121-.076.128a.157.157,0,0,1-.147-.082l-3.049-4.3a.616.616,0,0,0-.446-.223h-1.758a.281.281,0,0,0-.282.281v8.022a.271.271,0,0,0,.083.2.276.276,0,0,0,.2.082h1.757a.28.28,0,0,0,.282-.281v-4.2c0-.078.026-.123.077-.135s.1.013.146.077l3.055,4.3a.613.613,0,0,0,.2.164.508.508,0,0,0,.246.07h1.732a.28.28,0,0,0,.281-.281v-8.022a.28.28,0,0,0-.281-.281" transform="translate(-11.426 -3.414)"/><path class="a" d="M565.683,400.864h-1.762a.264.264,0,0,0-.2.082.282.282,0,0,0-.077.2v8.011a.282.282,0,0,0,.077.2.262.262,0,0,0,.2.083h1.762a.266.266,0,0,0,.2-.083.268.268,0,0,0,.082-.2v-8.011a.28.28,0,0,0-.28-.281" transform="translate(-12.675 -3.416)"/><path class="a" d="M573.164,401.121a.436.436,0,0,0-.159-.182.4.4,0,0,0-.228-.076h-1.643a.418.418,0,0,0-.24.076.44.44,0,0,0-.158.182l-3.4,7.94a.273.273,0,0,0-.035.164.231.231,0,0,0,.053.118.249.249,0,0,0,.105.07.356.356,0,0,0,.124.023H569.6a.4.4,0,0,0,.229-.076.438.438,0,0,0,.159-.182l.328-.7a.444.444,0,0,1,.159-.182.421.421,0,0,1,.24-.077h2.475a.4.4,0,0,1,.229.077.54.54,0,0,1,.17.182l.316.7a.54.54,0,0,0,.17.182.42.42,0,0,0,.24.076h2.006a.262.262,0,0,0,.252-.117.241.241,0,0,0,.018-.223Zm-.522,5.026a.192.192,0,0,1-.17.077h-1.043a.19.19,0,0,1-.176-.077.187.187,0,0,1,0-.182l.586-1.419c.031-.07.067-.106.105-.106s.075.036.106.106c.094.227.2.471.3.733s.2.491.281.686a.163.163,0,0,1,.006.182" transform="translate(-13.074 -3.416)"/><path class="b" d="M475.769,378.6a15.25,15.25,0,0,1,5.029-1.518,11.36,11.36,0,0,1,3.11,7.666,16.244,16.244,0,0,0-8.139-6.148" transform="translate(-3.077 -0.818)"/><path class="c" d="M485.876,392.449l-.017.026a.68.68,0,0,0,.124,1c.068.1.147.2.216.285.329.41.38.73-.2,1.3l-.041.048c-.287.4.042.7.186.937.2.324.171.513-.232.808l-.341.316a28.24,28.24,0,0,0-3.954-4.021,13.442,13.442,0,0,0,3.31-6.461l3.161,3.8a.565.565,0,0,1,.156.4.417.417,0,0,1-.206.232l-.037.027a4.176,4.176,0,0,1-.983.536,2.456,2.456,0,0,0-1.138.77" transform="translate(-3.716 -1.868)"/><path class="d" d="M480.283,393.414a23.517,23.517,0,0,1-6.7,4.8,24.66,24.66,0,0,1-2.222-2.046,32.436,32.436,0,0,0,3.234-6.185,25.561,25.561,0,0,1,5.69,3.43" transform="translate(-2.596 -2.227)"/><path class="c" d="M476.06,381a11.107,11.107,0,0,0-.435-1.83c3.093.954,5.607,2.907,8.135,6.316a12.636,12.636,0,0,1-2.957,6.474c-.382-.312-.774-.61-1.165-.887a27.637,27.637,0,0,0-4.5-2.527A15.924,15.924,0,0,0,476.06,381" transform="translate(-3.008 -1.047)"/><path class="d" d="M480.875,401.553a12.134,12.134,0,0,1-6.495-2.638,23.052,23.052,0,0,0,6.386-4.652,27.086,27.086,0,0,1,4.006,4.44c.066.131.145.261.22.382.428.69.8,1.287-.216,2.043a3.422,3.422,0,0,1-1.148.431,9.239,9.239,0,0,1-2.126.037c-.213-.014-.393-.025-.573-.031v-.01Z" transform="translate(-2.926 -2.695)"/><path class="a" d="M484.583,388.261l-2.908-3.707a1.659,1.659,0,0,1-.3-.714s-.013-.073-.039-.37a12.117,12.117,0,0,0-4.862-9.011A13.412,13.412,0,0,0,468.607,372a1.181,1.181,0,0,0-2.116.4l-.64.057-.182.07a.677.677,0,0,0-.327.29.89.89,0,0,1-.4.207l-.558-.028-.694.308-.765.441-.023-.011a.982.982,0,0,1-.469-.377l-.093-.147-.041-.049a.687.687,0,0,1-.117-.484c.025-.167.062-.411.085-.553l.039-.252v-.026c-.1-2.023-.48-2.109-.624-2.142l-.051-.012a.61.61,0,0,0-.86.184l-.107.449-.029.033a.518.518,0,0,1-.289.166l-.066,0-.493.31-.654.034-.043.005a4.364,4.364,0,0,1-1.61.072l-.229-.019-.026,0a.532.532,0,0,0-.492.332.815.815,0,0,0,.247.753v.355l.143.418c.011.029.084.229.16.384l-.048.109-.128.411a1.438,1.438,0,0,0-.178.092c-.04.026-.189.1-.322.162l-.231.106-.246.061-.306.129c-.049.021-.211.077-.354.118l-.063.019-.459-.517-.636-.877-1.1.238-.308.412a1.823,1.823,0,0,1-.632-.055c-.375-.073-.841-.165-.944.228l-.01.034.005.362c0,.127.008.309.013.4l.009.144a2.553,2.553,0,0,0,.227,1.771,1.958,1.958,0,0,0,.147.43l.075.159-.11.7c-.111.7-.249,1.467-.336,1.9l-.325-.138-.437.312-.349.094a2.345,2.345,0,0,0-1.141.578,3.871,3.871,0,0,1-.335.283l-.345.253-.015.608-.2.385,0,.326-.622.721.111.366-.018.658.037.063c.094.16.2.348.222.41a3.674,3.674,0,0,0,.428.591l.241.279c.081.139.348.55.693.581l.151.154.571.453.6-.092.354.706.7.372.452-.255.743,0,.508.2.419-.283c.141-.1.356-.234.479-.31s.437-.287.67-.452c.618-.436.7-.475,1.1-.513l.054.031a3.112,3.112,0,0,0,.048.918l.078.562.284.332a3.992,3.992,0,0,0,.629.553l.438.306h.634l.091.149h.367l.471.327.458.105.445.428.762-.092.249.171.069.331-.061.923.257.282c-.079.328-.145.77.19.964l.04.023.388.066.029,0a3.05,3.05,0,0,1,1.944,1.383l-.071.771a2.623,2.623,0,0,0-.476,1.154l.364,1.187-.086,1.034.106.163c.051.078.187.286,1.1.363l.5.044a2.1,2.1,0,0,1,.426-.033,3,3,0,0,0,.134.525,1.1,1.1,0,0,1,.043.289v.385c.129.649.317.9.575.681l.57-.2c-.292.683-.574,1.377-.181,1.723l.057.038a.756.756,0,0,0,.582.045c.023.108.047.248.061.371l.029.286-.076.145-.326.159a1.415,1.415,0,0,0-.577.39,1.742,1.742,0,0,1-.2.135,4.428,4.428,0,0,0-1.278,1.345,5.306,5.306,0,0,1-.443.574,3.04,3.04,0,0,0-.353.41l-.22.315-.013.02a.338.338,0,0,0-.005.347c.114.191.374.229.714.222.822-.06.956.421,1.549.789l.367.21a1.617,1.617,0,0,1,.271.2l.153.214.45.187.137.335-.02.537v.2a1.384,1.384,0,0,0,.067.42.476.476,0,0,0,.32.324.417.417,0,0,0,.1.013c.2,0,.355-.135.656-.405l.4-.359.169-.33c.069-.147.171-.384.224-.529l.058-.157.413-.336a4.237,4.237,0,0,0,1.344-1.687l.367-.681a2.21,2.21,0,0,1,.633-.754,3.875,3.875,0,0,0,.492-.671,1.351,1.351,0,0,0,.113-1.269l-.094-.276.061-.336a3.188,3.188,0,0,1,.118-.473l.1-.188.355-.444.233-.151c.177-.116.443-.3.591-.421a3.178,3.178,0,0,1,.531-.308l.323-.141c.071-.024.291-.069.594-.177a1.179,1.179,0,0,0,1.808-.541l1.374,0,0,0a7.737,7.737,0,0,0,1.508-.081,4.035,4.035,0,0,0,1.361-.514l.027-.017c1.52-1.121.821-2.247.4-2.92-.042-.068-.208-.363-.208-.363-.011-.025-.018-.043-.022-.056l.317-.315c.818-.865.463-1.282.287-1.586a1.037,1.037,0,0,1-.1-.208,1.317,1.317,0,0,0,.085-1.991c-.063-.083-.283-.322-.159-.513a1.591,1.591,0,0,1,.7-.465,4.267,4.267,0,0,0,1.014-.591,1.237,1.237,0,0,0,.48-.676,1.213,1.213,0,0,0-.267-.938m-3.976-4.939a15.441,15.441,0,0,0-7.207-5.493c-.005-.049-.013-.1-.023-.145a13.359,13.359,0,0,1,4.255-1.238,11.619,11.619,0,0,1,2.975,6.876m-11.1,9.726a29.937,29.937,0,0,0,2.206-4.221c.031,0,.062,0,.094,0a1.181,1.181,0,0,0,.885-.4,22.422,22.422,0,0,1,4.555,2.836,21.664,21.664,0,0,1-6.179,4.426c-.487-.395-.974-.828-1.456-1.293a1.179,1.179,0,0,0-.107-1.351m-4.778-7.373a27.83,27.83,0,0,1,6.684-6.871,1.175,1.175,0,0,0,.781.318,9.723,9.723,0,0,1,.24,1.125,14.041,14.041,0,0,1-.647,6.219,1.181,1.181,0,0,0-.758,2.07,30.228,30.228,0,0,1-2.147,4.119,1.155,1.155,0,0,0-.828.094,27.714,27.714,0,0,1-3.646-5.314,1.178,1.178,0,0,0,.32-1.76m11.872,4.2a24.658,24.658,0,0,0-3.617-2.094,1.258,1.258,0,0,0,.007-.13,1.18,1.18,0,0,0-.5-.965,14.9,14.9,0,0,0,.654-6.543,10.884,10.884,0,0,0-.258-1.225,1.2,1.2,0,0,0,.349-.373c2.757.975,5.045,2.828,7.347,5.933a12.207,12.207,0,0,1-2.856,6.254c-.369-.3-.747-.59-1.125-.857m-7.783-17.152a12.7,12.7,0,0,1,7.234,2.318,10.682,10.682,0,0,1,.934.766,14.179,14.179,0,0,0-3.979,1.256,1.155,1.155,0,0,0-.967-.289A11.769,11.769,0,0,0,468.778,373a1.175,1.175,0,0,0,.043-.276m6.389,26.8-.445.184a3.745,3.745,0,0,0-.685.4c-.133.1-.375.277-.541.385l-.329.248-.373.451-.18.268-.049.091a3.319,3.319,0,0,0-.184.673s-.066.053-.031.658.157.811.008,1.227c-.231.34-.7.609-.929,1.048l-.545.842a3.578,3.578,0,0,1-1.165,1.47,1.522,1.522,0,0,0-.69.8c-.046.125-.138.339-.2.469l-.089.186c-.139.273-.217.311-.266.24l-.021-.765a1.094,1.094,0,0,0-.8-.86l-.034-.046a1.834,1.834,0,0,0-.5-.4l-.216-.123-.491-.467c-.889-.688-1.5-.183-1.306-.465.037-.043.075-.082.1-.108a5.7,5.7,0,0,0,.547-.693,5.031,5.031,0,0,1,1.775-1.633l.537-.262.286-.545-.058-.561c-.06-.6-.136-.952-.371-1.072l-.116-.058-.116.058c-.08.04-.141.067-.185.084.035-.108.1-.252.138-.352.145-.346.263-.624.156-.833l-.049-.158a.785.785,0,0,0-.265-.4l-.216-.143-.542.191c-.094.061-.087-.225-.087-.225,0-.187-.162-.428-.094-.558a1.055,1.055,0,0,0-1.383-.958l-.283-.024a3.361,3.361,0,0,1-.529-.082l.069-.843-.33-1.072.412-1,.11-1.138-.046-.074c-.846-1.349-1.324-1.693-2.541-1.841l-.065-.012a3.185,3.185,0,0,1,.061-.441l.024-.126-.28-.306.048-.717-.149-.708-.709-.487-.693.084-.346-.332-.5-.107-.556-.385h-.188l-.091-.149h-.812l-.254-.177a3.261,3.261,0,0,1-.494-.432l-.147-.172-.049-.353a2.418,2.418,0,0,1-.029-.9l.017-.141-.678-.542-.1.009a2.447,2.447,0,0,0-1.534.648c-.224.158-.513.353-.633.427s-.357.227-.506.328l-.108.073-.286-.11-1.064.006-.273.154-.131-.069-.755-.943-.667.1-.023-.005v-.076l-.693-.5a.773.773,0,0,1-.109-.154l-.386-.458a3.529,3.529,0,0,1-.314-.411c-.038-.086-.133-.265-.226-.425l-.009-.578.564-.654,0-.42.194-.379.01-.419.061-.045a4.624,4.624,0,0,0,.412-.349,1.659,1.659,0,0,1,.825-.4l.454-.121.234-.161.075.031c.254.109.5.19.678,0,.055-.056.158-.16.528-2.5l.145-.915-.168-.359a1.863,1.863,0,0,1-.09-.4l-.013-.11c-.1-.393-.369-.189-.207-1.448l-.007-.126c-.005-.08-.01-.232-.012-.347.093.012.217.036.31.054.391.077.761.149.992-.036l.179-.226a1.892,1.892,0,0,0,.568-.1l.222.3.238.446.674.524.443-.129c.157-.045.335-.105.41-.137l.568-.2.255-.115c.136-.062.319-.153.4-.2.042-.027.094-.059.535-.65l.029-.039.181-.671-.108-.143a2.741,2.741,0,0,1-.148-.347l-.1-.279v-.549a3.932,3.932,0,0,0,1.558-.134l.754-.038.545-.344.441-.479.012-.011c.024-.021.12-.119.12-.119l.006-.025.144-.172a.253.253,0,0,1,.037-.053l.021.012.154.24a2.564,2.564,0,0,1,.118,1.118l-.047.3c-.024.149-.064.409-.089.579l0,.028,0,.028a2.219,2.219,0,0,0,.36,1.1,1.685,1.685,0,0,0,.784.648l.054.017a.89.89,0,0,0,.178.018.777.777,0,0,0,.281-.052l.444-.247.419-.142.56-.263.356.018a2.056,2.056,0,0,0,.952-.418l.065-.045.027-.07.215.069.4-.108a1.18,1.18,0,0,0,1.816.428,11.057,11.057,0,0,1,3.015,3.5,1.208,1.208,0,0,0-.148.175,21.207,21.207,0,0,0-4.151-.309,1.183,1.183,0,1,0,.048.72,20.286,20.286,0,0,1,3.893.291,1.214,1.214,0,0,0,.022.207,28.377,28.377,0,0,0-6.929,7.1,1.182,1.182,0,1,0-.444,2.314,28.409,28.409,0,0,0,3.867,5.648,1.182,1.182,0,0,0,1.543,1.63c.424.412.853.8,1.281,1.157.147.115.417.327.621.5a14.615,14.615,0,0,0,4.491,2.448c0,.037-.006.076-.006.114a1.158,1.158,0,0,0,.047.326Zm6.428-1.221a3.285,3.285,0,0,1-1.1.412,8.828,8.828,0,0,1-2.034.036c-.2-.012-.6-.041-.6-.041l-.127-.01a1.18,1.18,0,0,0-2.005-.376,13.435,13.435,0,0,1-4.077-2.137,22.055,22.055,0,0,0,6.105-4.448,25.985,25.985,0,0,1,3.83,4.245c.062.126.138.249.21.366.41.66.763,1.23-.207,1.953m2.292-8.987a3.593,3.593,0,0,1-.87.5,2.173,2.173,0,0,0-1.007.723l-.015.024a.86.86,0,0,0,.011,1.048c.06.1.129.189.191.27.29.384.442.574-.068,1.105l-.049.053c-.272.312-.046.746.086.966.177.306.179.376-.126.674l-.3.3a25.831,25.831,0,0,0-3.5-3.779,12.934,12.934,0,0,0,2.931-6.072l2.8,3.567a.509.509,0,0,1,.138.306c0,.146-.216.313-.216.313" transform="translate(0 0)"/></g></svg>