<?xml version="1.0" encoding="utf-8"?>
<!-- Generator: Adobe Illustrator 24.1.3, SVG Export Plug-In . SVG Version: 6.00 Build 0)  -->
<svg version="1.1" id="Layer_1" xmlns="http://www.w3.org/2000/svg" xmlns:xlink="http://www.w3.org/1999/xlink" x="0px" y="0px"
	 viewBox="0 0 491.7 143.4" style="enable-background:new 0 0 491.7 143.4;" xml:space="preserve">
<style type="text/css">
	.st0{fill:#F7C08B;}
	.st1{fill:#F1701C;}
	.st2{fill-rule:evenodd;clip-rule:evenodd;fill:#F1701C;}
</style>
<path class="st0" d="M159.4,18.7h8.1l16,35.8l16-35.8h8v45.7h-7.5V33.1l-13.9,31.3h-5.2l-14-31.3v31.3h-7.5V18.7z"/>
<path class="st0" d="M250.2,64.4h-7.5v-4.3c-2.4,3.1-6.4,4.9-10.7,4.9c-8.5,0-14.9-5.3-14.9-15.5V28.2h7.4v20.2
	c0,6.6,3.6,10.1,9.1,10.1c5.5,0,9.1-3.4,9.1-10.1V28.2h7.5V64.4z"/>
<path class="st0" d="M285.8,44.2c0-6.6-3.6-10.1-9.1-10.1c-5.5,0-9.1,3.4-9.1,10.1v20.3h-7.5V28.2h7.5v4.1c2.4-3,6.4-4.7,10.8-4.7
	c8.5,0,14.9,5.3,14.9,15.5v21.4h-7.4V44.2z"/>
<path class="st0" d="M317.5,27.6c4.7,0,9.7,2.2,12.5,5.7V15.8h7.6v48.7H330V59c-2.3,3.3-6.6,6.1-12.6,6.1c-9.5,0-17.1-7.7-17.1-18.9
	S307.9,27.6,317.5,27.6z M319,34.1c-5.6,0-11,4.2-11,12s5.4,12.4,11,12.4c5.7,0,11-4.4,11-12.2C330,38.5,324.6,34.1,319,34.1z"/>
<path class="st0" d="M363.1,65c-10.3,0-18.2-7.4-18.2-18.7s8.2-18.7,18.5-18.7s18.5,7.3,18.5,18.7S373.5,65,363.1,65z M363.1,58.5
	c5.6,0,11.1-4,11.1-12.2s-5.3-12.2-10.9-12.2c-5.7,0-10.7,3.9-10.7,12.2S357.5,58.5,363.1,58.5z"/>
<path class="st0" d="M421.1,27.6c4.7,0,9.7,2.2,12.5,5.7V15.8h7.6v48.7h-7.6V59c-2.3,3.3-6.6,6.1-12.6,6.1
	c-9.5,0-17.1-7.7-17.1-18.9S411.5,27.6,421.1,27.6z M422.6,34.1c-5.6,0-11,4.2-11,12s5.4,12.4,11,12.4c5.7,0,11-4.4,11-12.2
	C433.6,38.5,428.3,34.1,422.6,34.1z"/>
<path class="st0" d="M465.6,27.6c6.1,0,10.3,2.9,12.6,5.9v-5.3h7.6v36.2h-7.6V59c-2.3,3.1-6.6,6-12.7,6c-9.4,0-17-7.7-17-18.9
	S456.1,27.6,465.6,27.6z M467.2,34.1c-5.6,0-11,4.2-11,12s5.4,12.4,11,12.4c5.7,0,11-4.4,11-12.2C478.2,38.5,472.9,34.1,467.2,34.1z
	"/>
<path class="st1" d="M182.9,80.7c9.5,0,17.8,4.8,21.2,13.7h-9c-2.4-4.9-6.8-7.2-12.2-7.2c-9.1,0-15.7,6.4-15.7,16.8
	s6.6,16.8,15.7,16.8c5.5,0,9.8-2.3,12.2-7.2h9c-3.5,8.9-11.7,13.7-21.2,13.7c-12.9,0-23.3-9.6-23.3-23.3
	C159.5,90.4,170,80.7,182.9,80.7z"/>
<path class="st1" d="M228.4,127.6c-10.4,0-18.1-7.4-18.1-18.7c0-11.4,7.4-18.7,18.1-18.7c10.3,0,17.6,7.2,17.6,17.8
	c0,1.2-0.1,2.4-0.3,3.7h-27.7c0.5,6,4.8,9.6,10.3,9.6c4.6,0,7.2-2.2,8.5-5.1h8.1C243,122.5,237.3,127.6,228.4,127.6z M218.2,105.6
	h20.1c-0.1-5.6-4.5-9.1-10.1-9.1C223.1,96.5,219,99.9,218.2,105.6z"/>
<path class="st1" d="M260.9,127h-7.5V90.8h7.5V96c2.1-3.6,5.7-5.9,10.9-5.9v7.8h-1.9c-5.5,0-8.9,2.3-8.9,10V127z"/>
<path class="st1" d="M293.3,90.2c6.1,0,10.3,2.9,12.6,5.9v-5.3h7.6V127h-7.6v-5.4c-2.3,3.1-6.6,6-12.7,6c-9.4,0-17-7.7-17-18.9
	C276.2,97.5,283.8,90.2,293.3,90.2z M294.9,96.7c-5.6,0-11,4.2-11,12c0,7.8,5.4,12.4,11,12.4c5.7,0,11-4.4,11-12.2
	C305.9,101.1,300.5,96.7,294.9,96.7z M305.5,88.2l-9.4-5.7l-9.4,5.7v-5.9l9.4-5.5l9.4,5.5V88.2z"/>
<path class="st1" d="M374.7,106.7c0-6.6-3.6-10.1-9.1-10.1c-5.5,0-9.1,3.4-9.1,10.1V127H349v-20.3c0-6.6-3.6-10.1-9.1-10.1
	c-5.5,0-9.1,3.4-9.1,10.1V127h-7.5V90.8h7.5v4.1c2.4-3,6.4-4.7,10.7-4.7c5.7,0,10.5,2.4,13,7.2c2.2-4.4,7.4-7.2,12.6-7.2
	c8.5,0,14.9,5.3,14.9,15.5V127h-7.4V106.7z"/>
<path class="st1" d="M390.6,81.2c0-2.7,2.1-4.8,4.8-4.8c2.6,0,4.7,2.1,4.7,4.8s-2.1,4.8-4.7,4.8C392.7,86,390.6,83.9,390.6,81.2z
	 M391.6,90.8h7.5V127h-7.5V90.8z"/>
<path class="st1" d="M424.2,90.2c8.9,0,14.7,4.4,16.7,12h-8.1c-1.2-3.5-4.1-5.7-8.6-5.7c-6.1,0-10.1,4.5-10.1,12.4
	c0,8,4,12.4,10.1,12.4c4.5,0,7.2-2,8.6-5.7h8.1c-2,7.1-7.8,12-16.7,12c-10.4,0-17.8-7.4-17.8-18.7C406.5,97.5,413.9,90.2,424.2,90.2
	z"/>
<path class="st1" d="M463,90.2c6.1,0,10.3,2.9,12.6,5.9v-5.3h7.6V127h-7.6v-5.4c-2.3,3.1-6.6,6-12.7,6c-9.4,0-17-7.7-17-18.9
	C446,97.5,453.5,90.2,463,90.2z M464.6,96.7c-5.6,0-11,4.2-11,12c0,7.8,5.4,12.4,11,12.4c5.7,0,11-4.4,11-12.2
	C475.6,101.1,470.3,96.7,464.6,96.7z"/>
<path class="st2" d="M115.6,116.1c-7.5,7.4-16.9,13-27.3,15.9c5.3-7.4,9.5-15.8,12.7-25.2h22.3C120.9,110.2,118.4,113.3,115.6,116.1
	z M26.9,27.2c7-7.1,15.7-12.4,25.5-15.5c-5.1,7.4-9.2,15.7-12.2,24.6H19.3C21.6,33.1,24,30,26.9,27.2z M123.1,36.3h-22.2
	c-3.1-9.2-7.4-17.7-12.7-25.1c10.5,3,19.9,8.7,27.3,16.1C118.4,30,120.9,33.1,123.1,36.3z M106.5,69.2c-0.2-9.8-1.7-19.3-4.2-28.3
	h23.6c4.7,8.5,7.7,18.1,8,28.3H106.5z M106.5,74H134c-0.4,10.4-3.3,20.1-8.1,28.6v-0.3h-23.5C104.9,93.4,106.4,83.8,106.5,74z
	 M73.7,102.3V74h28.3c-0.2,9.9-1.7,19.5-4.4,28.3H73.7z M73.7,106.8h22.4c-3.5,10.1-8.6,19.2-14.7,26.7c-2.5,0.5-5.1,0.7-7.7,0.8
	L73.7,106.8z M34.4,69.2H8.5c0.4-10.2,3.2-19.8,8-28.3h22.1C36.1,49.9,34.6,59.4,34.4,69.2z M68.8,36.3H45
	c3.4-9.9,8.3-18.7,14.3-26.3c3.1-0.6,6.3-0.9,9.5-1.1V36.3z M97.5,40.9c2.7,8.9,4.3,18.4,4.4,28.3H73.7V40.9H97.5z M73.7,36.3V8.9
	c2.6,0.1,5.2,0.4,7.7,0.8c6.1,7.7,11.1,16.6,14.7,26.6H73.7z M59.3,133.2c-6-7.5-10.9-16.5-14.3-26.4h23.8v27.5
	C65.6,134.2,62.4,133.9,59.3,133.2z M71.2,4.2C34,4.2,3.7,34.4,3.7,71.7c0,11.1,2.7,21.7,7.6,31c0.8,0.5,1.7,0.7,2.5,1.1
	c2,0.6,4.2,1.1,6.2,1.1c2,0,4-0.5,5.8-1.1c1-0.4,2-0.8,2.9-1.4H16.4c-4.7-8.5-7.5-18-7.9-28.3h25.9c0.2,7.4,1,14.5,2.5,21.2
	c1.1-1.1,2.1-2.5,3.2-3.8c0.2-0.2,0.4-0.5,0.5-0.7c-0.8-4.8-1.3-9.7-1.5-14.8l-0.9-0.7l0.8-0.3c0-0.3,0-0.6,0-0.8h3.1l18.2-4.8H39
	c0.2-9.9,1.8-19.4,4.4-28.3h25.4V67l1-0.3l1.9-0.5l-0.3,1.9l-2.6,19.3v14.8H47.6c-1.5,1.1-3.1,2.2-4.7,3.1c-0.9,0.6-1.8,1.1-2.8,1.7
	c3,8.9,7.2,17.2,12.2,24.4c-9.8-3.1-18.5-8.4-25.5-15.4c-1.5-1.5-2.8-3-4.1-4.7c-1.1,0-2.4-0.3-3.6-0.6c-1.4-0.4-2.6-0.8-3.9-1.4
	c12.2,18,32.7,29.8,56,29.8c37.3,0,67.5-30.2,67.5-67.5C138.7,34.4,108.6,4.2,71.2,4.2z M70.1,68l-29.2,7.7l7.4,6.6
	c-2.4,3.5-4.7,6.9-7.2,10c-2.9,3.6-5.9,6.9-9.3,9.4c-3.5,2.6-7.4,4.5-11.9,4.4c-4.4,0.1-9.1-1.7-13.1-4.4c3.7,3.3,7.4,6.6,12.7,8
	c5.1,1.4,10.9,0.4,15.8-1.6c4.9-2,9.2-4.9,13.3-8c3.6-2.8,6.9-5.7,10.1-8.5l7.4,6.6L70.1,68z"/>
</svg>
