<svg xmlns="http://www.w3.org/2000/svg" xmlns:xlink="http://www.w3.org/1999/xlink" width="156.511" height="58.018" viewBox="0 0 156.511 58.018">
  <defs>
    <clipPath id="clip-path">
      <path id="Caminho_4346" data-name="Caminho 4346" d="M1048,369h13.266v25.773H1048Zm0,0" transform="translate(-1048 -369)" fill="#fff"/>
    </clipPath>
    <clipPath id="clip-path-2">
      <path id="Caminho_4349" data-name="Caminho 4349" d="M1071,239h21.881v19.634H1071Zm0,0" transform="translate(-1071 -239)" fill="#fff"/>
    </clipPath>
    <clipPath id="clip-path-3">
      <path id="Caminho_4352" data-name="Caminho 4352" d="M1023,196.707h9.375v21.1H1023Zm0,0" transform="translate(-1023 -196.707)" fill="#fff"/>
    </clipPath>
    <clipPath id="clip-path-4">
      <path id="Caminho_4449" data-name="Caminho 4449" d="M309.863,421.688h17.909v17.776H309.863Zm0,0" transform="translate(-309.863 -421.688)" fill="#fff"/>
    </clipPath>
  </defs>
  <g id="_1" data-name="1" transform="translate(-309.863 -196.707)">
    <g id="Grupo_10123" data-name="Grupo 10123" transform="translate(440.425 227.182)" clip-path="url(#clip-path)">
      <path id="Caminho_4345" data-name="Caminho 4345" d="M1052.546,369.586c-4.992,2.044-3.985,10.236-2.253,14.437,2.353,5.655,6.5,5.969,8.593,11.322,2.6-5.929,4.14-11.709,1.976-17C1058.649,372.7,1055.957,369.222,1052.546,369.586Zm0,0" transform="translate(-1048.72 -369.461)" fill="#fff" fill-rule="evenodd"/>
    </g>
    <path id="Caminho_4347" data-name="Caminho 4347" d="M925.865,298.937c.052,1.559-5.562,2.151-8.865,3.089-10.706,3.123-12.713-3.643-16.887-5.936,4.331-1.586,6.679-5.552,13-4.9C919.231,291.619,923.828,293.939,925.865,298.937Zm0,0" transform="translate(-485.847 -77.712)" fill="#fff" fill-rule="evenodd"/>
    <g id="Grupo_10124" data-name="Grupo 10124" transform="translate(444.493 204.188)" clip-path="url(#clip-path-2)">
      <path id="Caminho_4348" data-name="Caminho 4348" d="M1072.423,257.549c.523,3.142,6.765.251,13.024-2.918,7.351-3.745,5.317-10.086,7.941-15.1-4.488,1.859-9.076-.6-13.247,3.118C1074.621,247.7,1069.7,257.036,1072.423,257.549Zm0,0" transform="translate(-1071.534 -239.441)" fill="#fff" fill-rule="evenodd"/>
    </g>
    <path id="Caminho_4350" data-name="Caminho 4350" d="M1094.078,351.713c1.11.348,1.4,1.425,2.2,2.321,2.824,2.429,6.2,2.624,10.119.873a18.743,18.743,0,0,0,2.87-2.024,8.657,8.657,0,0,0-6.442-2.145c-2.69.126-2.419-.918-6.234.345C1095.726,351.315,1094.914,351.9,1094.078,351.713Zm0,0" transform="translate(-645.503 -126.55)" fill="#fff" fill-rule="evenodd"/>
    <g id="Grupo_10125" data-name="Grupo 10125" transform="translate(436.003 196.707)" clip-path="url(#clip-path-3)">
      <path id="Caminho_4351" data-name="Caminho 4351" d="M1029.679,217.541c-2.136-.9-4.248-1.026-6.223-8.356-.782-5.985,2.331-8.492,3.489-12.6,1.829,3.714,5.35,5.121,5.552,11.356C1033.107,215.69,1030.489,215.75,1029.679,217.541Zm0,0" transform="translate(-1023.273 -196.611)" fill="#fff" fill-rule="evenodd"/>
    </g>
    <path id="Caminho_4353" data-name="Caminho 4353" d="M989.563,358.549c.255,1.641,1.027,2.961-2.516,6.784-3.113,2.5-5.8,1.429-8.669,2.111,1.481-2.389.933-5.109,4.451-7.307C987.11,356.991,988.212,358.682,989.563,358.549Zm0,0" transform="translate(-550.268 -132.939)" fill="#fff" fill-rule="evenodd"/>
    <g id="Grupo_10128" data-name="Grupo 10128" transform="translate(329.962 236.233)">
      <g id="Grupo_10127" data-name="Grupo 10127" transform="translate(0 0)">
        <g id="Grupo_10126" data-name="Grupo 10126" transform="translate(0)">
          <path id="Caminho_4354" data-name="Caminho 4354" d="M5.727-93.152A9.167,9.167,0,0,0,15.1-83.906a9.344,9.344,0,0,0,7.092-2.787l-3.039-4.813a5.608,5.608,0,0,1-3.294,1.394,2.927,2.927,0,0,1-3.039-3.04,2.926,2.926,0,0,1,3.039-3.039A5.609,5.609,0,0,1,19.153-94.8l3.039-4.813A9.344,9.344,0,0,0,15.1-102.4,9.167,9.167,0,0,0,5.727-93.152Zm0,0" transform="translate(-5.727 102.398)" fill="#fff"/>
        </g>
      </g>
    </g>
    <g id="Grupo_10131" data-name="Grupo 10131" transform="translate(349.314 236.613)">
      <g id="Grupo_10130" data-name="Grupo 10130" transform="translate(0 0)">
        <g id="Grupo_10129" data-name="Grupo 10129">
          <path id="Caminho_4355" data-name="Caminho 4355" d="M15.18-100.25H8.594v17.732H15.18Zm0,0" transform="translate(-8.594 100.25)" fill="#fff"/>
        </g>
      </g>
    </g>
    <g id="Grupo_10134" data-name="Grupo 10134" transform="translate(359.8 236.613)">
      <g id="Grupo_10133" data-name="Grupo 10133" transform="translate(0 0)">
        <g id="Grupo_10132" data-name="Grupo 10132">
          <path id="Caminho_4356" data-name="Caminho 4356" d="M15.18-100.25H8.594v17.732H15.18Zm0,0" transform="translate(-8.594 100.25)" fill="#fff"/>
        </g>
      </g>
    </g>
    <g id="Grupo_10137" data-name="Grupo 10137" transform="translate(369.273 236.613)">
      <g id="Grupo_10136" data-name="Grupo 10136" transform="translate(0 0)">
        <g id="Grupo_10135" data-name="Grupo 10135" transform="translate(0)">
          <path id="Caminho_4357" data-name="Caminho 4357" d="M2.863-100.25v5.827H7.676v11.906h6.586V-94.423h4.813v-5.827Zm0,0" transform="translate(-2.863 100.25)" fill="#fff"/>
        </g>
      </g>
    </g>
    <g id="Grupo_10140" data-name="Grupo 10140" transform="translate(387.359 236.613)">
      <g id="Grupo_10139" data-name="Grupo 10139" transform="translate(0 0)">
        <g id="Grupo_10138" data-name="Grupo 10138" transform="translate(0)">
          <path id="Caminho_4358" data-name="Caminho 4358" d="M2.863-100.25v5.827H7.676v11.906h6.586V-94.423h4.813v-5.827Zm0,0" transform="translate(-2.863 100.25)" fill="#fff"/>
        </g>
      </g>
    </g>
    <g id="Grupo_10143" data-name="Grupo 10143" transform="translate(405.191 236.613)">
      <g id="Grupo_10142" data-name="Grupo 10142" transform="translate(0 0)">
        <g id="Grupo_10141" data-name="Grupo 10141" transform="translate(0)">
          <path id="Caminho_4359" data-name="Caminho 4359" d="M15.239-100.25H6.626L1.434-82.518H8.78l.506-2.533h3.293l.506,2.533h7.346S15.264-100.148,15.239-100.25ZM10.046-89.1l.886-4.56.886,4.56Zm0,0" transform="translate(-1.434 100.25)" fill="#fff"/>
        </g>
      </g>
    </g>
    <g id="Grupo_10146" data-name="Grupo 10146" transform="translate(425.556 236.613)">
      <g id="Grupo_10145" data-name="Grupo 10145" transform="translate(0 0)">
        <g id="Grupo_10144" data-name="Grupo 10144" transform="translate(0)">
          <path id="Caminho_4360" data-name="Caminho 4360" d="M15.239-100.25H6.626L1.434-82.518H8.78l.506-2.533h3.293l.506,2.533h7.346S15.264-100.148,15.239-100.25ZM10.046-89.1l.886-4.56.886,4.56Zm0,0" transform="translate(-1.434 100.25)" fill="#fff"/>
        </g>
      </g>
    </g>
    <path id="Caminho_4443" data-name="Caminho 4443" d="M323.214,436.48a.508.508,0,0,1-.1-.012.1.1,0,0,1-.05-.162c.051-.056.1-.11.155-.163a.1.1,0,0,1,.07-.03l.019,0a.1.1,0,0,1,.072.059.282.282,0,0,1,.021.111.406.406,0,0,1-.019.119.1.1,0,0,1-.075.068.443.443,0,0,1-.088.009" transform="translate(-10.841 -197.06)" fill="#fff"/>
    <path id="Caminho_4444" data-name="Caminho 4444" d="M393.539,433.868a.1.1,0,0,1-.04-.008,1.093,1.093,0,0,1-.241-.137.554.554,0,0,1-.183-.268,0,0,0,0,0,0,0h.013a.1.1,0,0,0,.091-.061.1.1,0,0,0,0-.064.1.1,0,0,1,.051.024c.128.113.254.228.375.349a.1.1,0,0,1-.069.167m-.371-.443-.064.073.064-.073" transform="translate(-68.493 -194.768)" fill="#fff"/>
    <path id="Caminho_4445" data-name="Caminho 4445" d="M394.741,439.733h0a.186.186,0,0,1-.054-.007.053.053,0,0,1-.036-.024.106.106,0,0,1-.016-.044h.006a1.711,1.711,0,0,1,.176-.041,2.333,2.333,0,0,0,.318-.077.515.515,0,0,0,.142-.075l.006,0,.067.079a.717.717,0,0,1-.087.018.826.826,0,0,0-.167.039h0a.485.485,0,0,0-.063.032c-.031.018-.064.039-.091.056l-.035.02-.008,0a.759.759,0,0,1-.157.023m.16-.023h0" transform="translate(-69.776 -199.816)" fill="#fff"/>
    <path id="Caminho_4446" data-name="Caminho 4446" d="M393.813,438.736a.378.378,0,0,1-.122-.019.251.251,0,0,1-.113-.074.265.265,0,0,1-.048-.084.408.408,0,0,1-.022-.14.192.192,0,0,1,0-.02.1.1,0,0,1,.048-.081.487.487,0,0,1,.131-.051c.047-.013.1-.023.15-.034a2.376,2.376,0,0,0,.292-.068.3.3,0,0,0,.109-.057.057.057,0,0,0,.014-.023.1.1,0,0,1,.072-.072.089.089,0,0,1,.024,0,.1.1,0,0,1,.074.033c.078.09.155.182.23.275a.1.1,0,0,1,.019.079.1.1,0,0,1-.046.067.785.785,0,0,1-.082.046h0a.7.7,0,0,1-.175.047.62.62,0,0,0-.127.029.467.467,0,0,0-.052.028l-.079.049c-.018.01-.035.02-.052.028a.158.158,0,0,1-.037.013h0a.954.954,0,0,1-.206.028m0-.2h0a.759.759,0,0,0,.157-.023l.008,0,.035-.02c.028-.017.06-.038.091-.056a.5.5,0,0,1,.063-.032h0a.822.822,0,0,1,.167-.039.718.718,0,0,0,.087-.018l-.067-.079-.006,0a.515.515,0,0,1-.142.075,2.342,2.342,0,0,1-.318.077,1.72,1.72,0,0,0-.176.041h-.006a.106.106,0,0,0,.016.044.053.053,0,0,0,.036.024.186.186,0,0,0,.054.007h0m.162-.023h0" transform="translate(-68.85 -198.623)" fill="#fff"/>
    <path id="Caminho_4447" data-name="Caminho 4447" d="M319.728,440.4a8.759,8.759,0,0,1-8.11-12.069.451.451,0,0,0,.044.14.219.219,0,0,0,.2.122h0a.367.367,0,0,0,.1-.017.1.1,0,0,0,.068-.11.479.479,0,0,1-.006-.071.188.188,0,0,1,.014-.081.116.116,0,0,1,.017.015.3.3,0,0,1,.042.062.243.243,0,0,1,.023.08.71.71,0,0,1,.006.106v.057a.939.939,0,0,0,.009.149.462.462,0,0,0,.056.161,1,1,0,0,0,.2.231.681.681,0,0,1,.079.084.386.386,0,0,1,.055.1,1.221,1.221,0,0,1,.051.221c.012.084.022.172.033.251a1.506,1.506,0,0,0,.178.531c.081.149.175.282.274.457a1.755,1.755,0,0,1,.091.22,3.587,3.587,0,0,0,.193.464.771.771,0,0,0,.14.193.378.378,0,0,0,.094.066.276.276,0,0,0,.117.027h0a.266.266,0,0,0,.084-.013.1.1,0,0,0,.064-.124,1.228,1.228,0,0,1-.051-.213.677.677,0,0,1,.064.106c.033.063.059.131.087.19a.838.838,0,0,0,.091.153.847.847,0,0,0,.142.138,1.1,1.1,0,0,1,.145.134.444.444,0,0,1,.077.116c.01.022.017.043.028.07a.224.224,0,0,0,.042.067.2.2,0,0,0,.058.041.346.346,0,0,0,.107.031,1.439,1.439,0,0,0,.154.015c.062,0,.123,0,.184,0,.113,0,.225,0,.332,0h.1a.881.881,0,0,0,.263.309,1.112,1.112,0,0,0,.409.2c.124.029.231.037.3.048l.013,0-.01.015c-.023.031-.058.074-.106.128a2.634,2.634,0,0,0-.23.272.669.669,0,0,0-.13.382.642.642,0,0,0,.023.169,1.072,1.072,0,0,0,.088.207,3.168,3.168,0,0,0,.226.362c.041.059.084.113.124.161a.975.975,0,0,0,.117.12,2.168,2.168,0,0,0,.2.147.85.85,0,0,1,.21.169.434.434,0,0,1,.065.114.8.8,0,0,1,.043.182.856.856,0,0,1,.006.1,1.646,1.646,0,0,1-.05.357c-.028.124-.061.253-.079.383-.039.3-.1.58-.152.872a5.161,5.161,0,0,0-.095.924c0,.107,0,.2,0,.288a1.006,1.006,0,0,0,.048.35.861.861,0,0,0,.232.334,1.538,1.538,0,0,0,.241.187.87.87,0,0,0,.135.07.4.4,0,0,0,.142.03.214.214,0,0,0,.084-.016.2.2,0,0,0,.1-.095.32.32,0,0,0,.028-.142.581.581,0,0,0-.008-.095.216.216,0,0,0-.036-.087c-.022-.033-.046-.059-.064-.082a.213.213,0,0,1-.033-.055.281.281,0,0,1-.006-.069c0-.057.008-.126.01-.18s0-.091.007-.139a.541.541,0,0,1,.019-.117.19.19,0,0,1,.037-.057,1.492,1.492,0,0,1,.115-.113.585.585,0,0,0,.058-.059.311.311,0,0,0,.026-.037.171.171,0,0,0,.019-.052h0a.19.19,0,0,0,0-.028.17.17,0,0,0-.014-.068.2.2,0,0,0-.06-.075.73.73,0,0,0-.061-.043.161.161,0,0,1,.007-.032.031.031,0,0,1,.007-.012.74.74,0,0,0,.1-.141c.059-.113.114-.228.169-.339l.074,0a.5.5,0,0,0,.138-.016.243.243,0,0,0,.178-.183.647.647,0,0,0,.019-.159.405.405,0,0,0,.067-.022.51.51,0,0,0,.2-.168,3.176,3.176,0,0,0,.169-.29.38.38,0,0,1,.063-.084.108.108,0,0,1,.022-.015.042.042,0,0,1,.017,0h.029a.1.1,0,0,0,.061-.021.1.1,0,0,0,.037-.072c0-.083,0-.152,0-.207a.9.9,0,0,1,.006-.1.169.169,0,0,1,.037-.088.431.431,0,0,1,.135-.1,1.734,1.734,0,0,1,.189-.082.929.929,0,0,0,.281-.148.5.5,0,0,0,.113-.141.74.74,0,0,0,.082-.344c0-.048,0-.091,0-.129a.373.373,0,0,1,.009-.091.256.256,0,0,1,.038-.088.165.165,0,0,1,.044-.047c.027-.021.068-.043.115-.082a.415.415,0,0,0,.127-.179.634.634,0,0,0-.047-.569.893.893,0,0,0-.234-.253,4.015,4.015,0,0,0-.642-.388h0a6.335,6.335,0,0,1-.607-.34.6.6,0,0,0-.186-.068,1.336,1.336,0,0,0-.243-.015.648.648,0,0,1-.209-.03.772.772,0,0,1-.279-.182.653.653,0,0,0-.145-.1.476.476,0,0,0-.21-.046h-.048v-.032a.432.432,0,0,0-.028-.178.174.174,0,0,0-.04-.057.316.316,0,0,1,.044,0h0a.427.427,0,0,1,.124.019.954.954,0,0,1,.209.111,1.22,1.22,0,0,0,.256.135.1.1,0,0,0,.031.006h.031a.1.1,0,0,0,.1-.088.427.427,0,0,0,0-.059.725.725,0,0,0-.009-.113.1.1,0,0,0-.042-.068,2.944,2.944,0,0,0-.4-.234,1.1,1.1,0,0,0-.463-.113.819.819,0,0,0-.186.021.772.772,0,0,1-.008-.086c0-.051,0-.107,0-.164a.769.769,0,0,0-.016-.13.4.4,0,0,0-.035-.1.293.293,0,0,0-.12-.122.434.434,0,0,0-.191-.046h0a.1.1,0,0,0-.072.032.1.1,0,0,0-.025.077.376.376,0,0,1,0,.041c0,.045-.007.1-.01.159-.039,0-.084,0-.131,0h-.047a.4.4,0,0,0,.037-.171.855.855,0,0,0-.039-.228.669.669,0,0,1-.032-.173.19.19,0,0,1,.01-.067.214.214,0,0,1,.043-.066.463.463,0,0,1,.153-.095.877.877,0,0,0,.105-.056.405.405,0,0,0,.1-.1.728.728,0,0,0,.112-.261.683.683,0,0,1,.033-.1.241.241,0,0,1,.052-.073.278.278,0,0,1,.07-.048c.044-.024.1-.046.159-.079a.462.462,0,0,0,.169-.15.438.438,0,0,0,.05-.113c.017-.057.025-.111.035-.16a.3.3,0,0,1,.142-.221c.077-.061.18-.125.272-.2a.719.719,0,0,0,.126-.129.413.413,0,0,0,.055-.1l.082-.009c.088-.008.2-.012.3-.031a.605.605,0,0,0,.148-.044.272.272,0,0,0,.122-.105h0a.17.17,0,0,0,.021-.083.453.453,0,0,0-.011-.084,1.768,1.768,0,0,0-.123-.339c-.026-.057-.054-.109-.079-.153-.013-.021-.026-.041-.039-.059a.266.266,0,0,0-.045-.049h0a.454.454,0,0,0-.191-.1.75.75,0,0,0-.1-.012.206.206,0,0,1-.035,0l-.008,0a.088.088,0,0,1-.023-.032.572.572,0,0,1-.039-.113,1.337,1.337,0,0,1-.03-.16.961.961,0,0,0-.023-.118.336.336,0,0,0-.111-.173.417.417,0,0,0-.1-.06l.014-.01a.1.1,0,0,0,.033-.07c0-.059,0-.119,0-.178s0-.128,0-.191a.1.1,0,0,0-.094-.093.168.168,0,0,1-.082-.023.16.16,0,0,1-.052-.057.241.241,0,0,0,.1.021h0a.241.241,0,0,0,.137-.044.367.367,0,0,0,.126-.163.56.56,0,0,0,.044-.217.514.514,0,0,0-.091-.3.507.507,0,0,0-.219-.176,1.156,1.156,0,0,1,.045-.141.834.834,0,0,0,.06-.272.47.47,0,0,0,0-.054.1.1,0,0,0-.062-.079.978.978,0,0,0-.218-.055,1.86,1.86,0,0,1-.27-.046.382.382,0,0,1-.105-.052.392.392,0,0,1-.1-.1.56.56,0,0,1-.068-.145,3.007,3.007,0,0,0-.109-.3.6.6,0,0,0-.068-.111.1.1,0,0,0,.017-.084.1.1,0,0,0-.095-.074h-.01l-.2.02h0a.514.514,0,0,0-.115.013h-.006c-.131,0-.276-.014-.406-.014a1.023,1.023,0,0,0-.207.017.383.383,0,0,0-.091.03.222.222,0,0,0-.08.065.446.446,0,0,0-.077.267.917.917,0,0,0,.123.435.753.753,0,0,0,.135.174.5.5,0,0,0,.082.061.13.13,0,0,0-.017.017.1.1,0,0,0-.02.073c0,.015,0,.028,0,.042a.32.32,0,0,1-.043.162l-.027-.014a.993.993,0,0,1-.154-.113.6.6,0,0,1-.1-.111.533.533,0,0,1-.054-.128c-.024-.077-.041-.162-.07-.24a.361.361,0,0,0-.065-.112.208.208,0,0,0-.06-.044.178.178,0,0,0-.078-.017h0a.248.248,0,0,0-.12.033.634.634,0,0,0-.117.084h0a.49.49,0,0,0-.123.173,2.231,2.231,0,0,0-.081.254.539.539,0,0,1-.037.095.2.2,0,0,1-.049.062.47.47,0,0,1-.19.081,1.186,1.186,0,0,1-.254.028l.029-.017a.745.745,0,0,0,.15-.091.278.278,0,0,0,.068-.086.292.292,0,0,0,.029-.122v0a.259.259,0,0,0-.03-.113.652.652,0,0,0-.1-.141c-.017-.019-.035-.038-.053-.057a8.728,8.728,0,0,1,2.8-1.535l.01.021a.287.287,0,0,0,.09.09.839.839,0,0,0,.14.074,1.026,1.026,0,0,0,.344.058.943.943,0,0,1,.44.09.373.373,0,0,1,.068.039.153.153,0,0,1,.051.06.261.261,0,0,1,.018.106.775.775,0,0,1-.008.1.4.4,0,0,1-.014.057c-.011.037-.027.083-.041.131a.553.553,0,0,0-.026.153.248.248,0,0,0,.01.076.185.185,0,0,0,.082.1.258.258,0,0,0,.123.033c-.006.1-.013.241-.013.386a2.255,2.255,0,0,0,.048.518.661.661,0,0,0,.087.212.331.331,0,0,0,.076.082.277.277,0,0,0,.033.022,4.478,4.478,0,0,0,.159,1.027,1.061,1.061,0,0,0,.138.319.556.556,0,0,0,.3.217.4.4,0,0,0,.121.018h0c.066,0,.115-.012.141-.012h0a.056.056,0,0,1,.035.009.225.225,0,0,1,.061.076.1.1,0,0,0,.084.048.1.1,0,0,0,.028,0,.1.1,0,0,0,.07-.1c0-.017,0-.035,0-.054a2.59,2.59,0,0,1,.037-.417,1.507,1.507,0,0,1,.048-.2.562.562,0,0,1,.064-.14,1.269,1.269,0,0,1,.424-.325,2.7,2.7,0,0,0,.514-.33,4.567,4.567,0,0,0,.341-.326.979.979,0,0,0,.142-.207.608.608,0,0,0,.066-.251c0-.014,0-.027,0-.04a1.733,1.733,0,0,0-.039-.337,1.42,1.42,0,0,1-.035-.26.519.519,0,0,1,.022-.152.694.694,0,0,1,.084-.176c.05-.078.093-.14.131-.2a.954.954,0,0,0,.133-.258,1.252,1.252,0,0,0,.041-.369c0-.059.006-.127.008-.2a8.725,8.725,0,0,1,3.5,1.67.42.42,0,0,0-.075.011.4.4,0,0,0-.1.048c-.048.03-.1.066-.14.1a1.076,1.076,0,0,1-.1.071h0a.684.684,0,0,1-.138.047.47.47,0,0,0-.09.037.5.5,0,0,0-.1.074.325.325,0,0,0-.079.113c-.012.027-.019.051-.025.069a.289.289,0,0,1-.011.031l0,.006h-.015a.375.375,0,0,1-.08-.012.093.093,0,0,0-.024,0,.094.094,0,0,0-.059.02.1.1,0,0,0-.039.074,1.963,1.963,0,0,1-.019.3.357.357,0,0,1-.039.105.546.546,0,0,1-.087.116c-.064.068-.131.119-.2.18a.863.863,0,0,0-.2.24c-.016.028-.047.077-.084.135-.056.087-.125.194-.182.3-.029.051-.055.1-.076.147a.467.467,0,0,0-.041.136h0c0,.008,0,.016,0,.023a.427.427,0,0,0,.044.169.882.882,0,0,0,.163.24.531.531,0,0,0,.111.091.266.266,0,0,0,.14.043h.014a.1.1,0,0,0,.086-.066.477.477,0,0,1,.066-.137l.011-.015a.556.556,0,0,0,.032.053c.05.075.106.134.144.188a.376.376,0,0,1,.039.066c-.023-.018-.05-.041-.075-.064a.7.7,0,0,0-.053-.046.172.172,0,0,0-.035-.021.131.131,0,0,0-.058-.014.138.138,0,0,0-.037.006.247.247,0,0,0-.055.026.162.162,0,0,0-.06.071.176.176,0,0,0-.015.075.5.5,0,0,0,.007.068.328.328,0,0,1,0,.041.025.025,0,0,1,0,.012c-.026.061-.042.108-.055.142a.5.5,0,0,1-.026.058.16.16,0,0,1-.052.054,1.157,1.157,0,0,1-.158.087c-.068.033-.118.057-.16.078a.528.528,0,0,0-.082.051.31.31,0,0,0-.05.05.5.5,0,0,0-.055.089l-.059.121c-.044.091-.075.172-.1.217a.126.126,0,0,1-.035.041.056.056,0,0,1-.035.01h0a.348.348,0,0,1-.135-.041.1.1,0,0,0-.041-.01.1.1,0,0,0-.092.064.466.466,0,0,0-.023.161c0,.042,0,.083,0,.119a.522.522,0,0,1,0,.071.12.12,0,0,1-.012.042h0a.2.2,0,0,1-.032.044.067.067,0,0,1-.031.018.243.243,0,0,1-.052,0H322.3a.5.5,0,0,0-.094.008.258.258,0,0,0-.115.057.491.491,0,0,0-.135.175.468.468,0,0,0-.039.193.921.921,0,0,0,.075.329c.04.1.084.192.106.263a.1.1,0,0,0,.066.064.422.422,0,0,0,.1.017h0a.2.2,0,0,0,.093-.022.216.216,0,0,0,.051-.037.535.535,0,0,0,.046-.053.32.32,0,0,1,.038-.042.237.237,0,0,0,.057-.088c.017-.042.025-.08.035-.108a.165.165,0,0,1,.015-.032.05.05,0,0,1,.008-.01l.021-.006.08-.015.046-.011a.268.268,0,0,0,.049-.019h0a1.8,1.8,0,0,0,.322-.232,1.47,1.47,0,0,1,.268-.2.516.516,0,0,1,.234-.059.5.5,0,0,1,.237.064.812.812,0,0,1,.212.174h0a.657.657,0,0,1,.089.138,1.071,1.071,0,0,0,.1.16.226.226,0,0,1,.008.027.9.9,0,0,0,.026.089.214.214,0,0,0,.028.055.146.146,0,0,0,.068.054.223.223,0,0,0,.077.015h0a.149.149,0,0,0,.118-.055.2.2,0,0,0,.037-.067.247.247,0,0,0,.008-.025.353.353,0,0,1,.071.009.082.082,0,0,1,.029.012l.006.008a.152.152,0,0,1,.013.054.95.95,0,0,0,.036.185.478.478,0,0,0,.167.225.5.5,0,0,0,.079.053.2.2,0,0,0,.095.025h0a.166.166,0,0,0,.091-.029.274.274,0,0,0,.079-.1,1.22,1.22,0,0,0,.056-.128c.015-.037.025-.066.032-.093a.256.256,0,0,0,.012-.075.152.152,0,0,0-.01-.055.138.138,0,0,0-.027-.041.228.228,0,0,0-.037-.029c-.01-.006-.01-.006-.014-.012a.148.148,0,0,1-.021-.053c-.007-.03-.018-.064-.026-.1a.47.47,0,0,1-.015-.105.137.137,0,0,1,0-.038.037.037,0,0,1,.014-.023.1.1,0,0,1,.056-.015l.009,0a.2.2,0,0,1,.055.05,1.03,1.03,0,0,1,.1.158l.046.083c.015.026.028.05.042.071.029.041.066.086.1.131a.548.548,0,0,1,.07.108h0c.017.044.03.075.037.1s.006.019.007.023v0c0,.006-.013.021-.028.042s-.027.041-.044.069a.312.312,0,0,0-.137.03.545.545,0,0,0-.124.091.218.218,0,0,1-.084.052l-.078.021a.173.173,0,0,1-.032.006h0l-.01,0c-.014,0-.059-.024-.146-.057a.617.617,0,0,1-.129-.07.378.378,0,0,0-.08-.037.349.349,0,0,0-.108-.016h0a.654.654,0,0,0-.092.008.436.436,0,0,0-.129.041c-.055.027-.1.057-.135.076a.208.208,0,0,1-.1.03h-.017a.234.234,0,0,1-.136-.068,1.348,1.348,0,0,1-.209-.281,1.439,1.439,0,0,0-.232-.31.866.866,0,0,0-.189-.132.4.4,0,0,0-.178-.045h0a.366.366,0,0,0-.154.036.886.886,0,0,0-.185.127c-.059.048-.118.1-.187.144a2.513,2.513,0,0,1-.408.2,2.267,2.267,0,0,0-.44.229,2.377,2.377,0,0,0-.2.146.39.39,0,0,0-.079.1.7.7,0,0,0-.057.14.513.513,0,0,0-.021.15c0,.054.006.1.006.131a.2.2,0,0,1-.006.05.122.122,0,0,1-.022.041.622.622,0,0,1-.123.112,2.6,2.6,0,0,0-.226.164.428.428,0,0,0-.1.121.353.353,0,0,0-.04.167.631.631,0,0,0,.062.254.228.228,0,0,0,.074.093.352.352,0,0,0,.054.033.168.168,0,0,1,.04.024.076.076,0,0,1,.021.038.241.241,0,0,1,.011.074.644.644,0,0,1-.009.089.75.75,0,0,0-.01.114.38.38,0,0,0,.037.167,1.617,1.617,0,0,0,.278.4,1.227,1.227,0,0,0,.2.173.557.557,0,0,0,.227.1.475.475,0,0,0,.082.007h0a.758.758,0,0,0,.24-.045,3.2,3.2,0,0,0,.3-.137.617.617,0,0,1,.234-.07h0a.189.189,0,0,1,.088.021.469.469,0,0,1,.065.045c.045.035.1.083.15.129s.1.09.133.12.07.063.086.079a.106.106,0,0,1,.018.024.077.077,0,0,1,.006.016c.007.023.015.08.044.176h0a1.448,1.448,0,0,1,.046.385,1.917,1.917,0,0,0,.046.44.569.569,0,0,0,.087.184.692.692,0,0,1,.078.14.7.7,0,0,1,.033.258v.016a1.142,1.142,0,0,0,.017.23,1.491,1.491,0,0,0,.218.481,3.63,3.63,0,0,1,.249.428,2.093,2.093,0,0,0,.143.3.386.386,0,0,0,.113.116.31.31,0,0,0,.168.048h0a.655.655,0,0,0,.292-.085.523.523,0,0,0,.12-.08.621.621,0,0,0,.1-.13.644.644,0,0,1,.081-.109.538.538,0,0,1,.166-.115.98.98,0,0,0,.219-.131,1.092,1.092,0,0,0,.31-.411,1.42,1.42,0,0,0,.108-.457c0-.054.006-.1.007-.128a.426.426,0,0,1,.006-.055.12.12,0,0,1,.021-.05.543.543,0,0,1,.082-.088.25.25,0,0,1,.071-.044,1.421,1.421,0,0,0,.155-.072.328.328,0,0,0,.084-.073.319.319,0,0,0,.057-.115.415.415,0,0,0,.017-.117,1,1,0,0,0-.066-.3.863.863,0,0,1-.056-.262.353.353,0,0,1,.016-.106,1.192,1.192,0,0,1,.256-.39c.115-.133.245-.261.341-.392.012-.017.024-.037.038-.062a3.3,3.3,0,0,0,.176-.374,2.224,2.224,0,0,0,.076-.218.754.754,0,0,0,.033-.2.262.262,0,0,0-.007-.064.167.167,0,0,0-.031-.067l-.008-.011a2.361,2.361,0,0,0,.294-.145,1.19,1.19,0,0,0,.257-.2.507.507,0,0,0,.088-.122.326.326,0,0,0,.037-.148.3.3,0,0,0-.027-.122.371.371,0,0,0-.1-.125l-.01-.009.044.022c.1.046.2.077.314.124l.037-.091-.037.091c.061.024.1.042.131.056l.019.011a8.758,8.758,0,0,1-8.758,8.733m-1.595-2.047a.328.328,0,0,0-.2.069.258.258,0,0,0-.073.1.306.306,0,0,0-.025.124.457.457,0,0,0,.017.118.1.1,0,0,0,.055.064.1.1,0,0,0,.04.008.1.1,0,0,0,.045-.011l.024-.009.026-.006a.213.213,0,0,0,.068-.029l.019-.013.062.013.025.007.008,0a.1.1,0,0,0,.053.015.09.09,0,0,0,.03,0,.1.1,0,0,0,.061-.058.53.53,0,0,0,.039-.18.277.277,0,0,0-.135-.242.1.1,0,0,0-.117.01.078.078,0,0,0-.02.025m8.453-3.123a.906.906,0,0,0-.029.138,1.283,1.283,0,0,0-.013.176.673.673,0,0,0,.047.269.284.284,0,0,0,.086.114.238.238,0,0,0,.146.049h.019a.293.293,0,0,0,.126-.035.321.321,0,0,0,.135-.153.827.827,0,0,0,.062-.275c0-.044,0-.086.007-.122s0-.066.006-.086l-.1-.012.1.012a1.052,1.052,0,0,1,.082-.251.858.858,0,0,0,.077-.315.488.488,0,0,0-.006-.077.1.1,0,0,0-.079-.081h-.018a.1.1,0,0,0-.084.048l-.079.132c-.095.056-.184.1-.269.159a.565.565,0,0,0-.124.126.634.634,0,0,0-.091.187h0m-4.565-7.533-.062.031a.1.1,0,0,0-.053.1.229.229,0,0,1,0,.034.884.884,0,0,1-.048.231c-.013.041-.026.082-.037.121a.46.46,0,0,0-.02.115.188.188,0,0,0,0,.042.126.126,0,0,0,.046.073.124.124,0,0,0,.042.022.15.15,0,0,0,.041.006.252.252,0,0,0,.087-.019.854.854,0,0,0,.09-.046.669.669,0,0,0,.174-.138.292.292,0,0,0,.048-.079.24.24,0,0,0,.017-.087.269.269,0,0,0-.03-.118.742.742,0,0,0-.089-.134,1.184,1.184,0,0,1-.085-.118.1.1,0,0,0-.128-.038m-1.036-1.323a.438.438,0,0,0-.046.064.253.253,0,0,0-.039.132.223.223,0,0,0,.055.145.4.4,0,0,0,.182.111.748.748,0,0,0,.219.034.659.659,0,0,0,.143-.016.4.4,0,0,0,.13-.054.591.591,0,0,0,.054-.044,1.6,1.6,0,0,0,.219-.258,1.146,1.146,0,0,0,.091-.162.428.428,0,0,0,.042-.171.235.235,0,0,0-.015-.083.2.2,0,0,0-.089-.1.239.239,0,0,0-.062-.025.1.1,0,0,0-.068-.041.759.759,0,0,0-.079,0,.464.464,0,0,0-.229.054.3.3,0,0,0-.1.086.219.219,0,0,0-.031.057h-.016a.265.265,0,0,1-.116-.028.383.383,0,0,1-.1-.074.1.1,0,0,0-.069-.028.088.088,0,0,0-.024,0,.1.1,0,0,0-.07.066.513.513,0,0,0-.023.15.482.482,0,0,0,.039.19m-4.6,6.249a.181.181,0,0,1-.114-.037.39.39,0,0,1-.117-.192,1.286,1.286,0,0,1-.052-.3.1.1,0,0,0-.071-.088.118.118,0,0,1-.053-.031.347.347,0,0,1-.072-.138c-.015-.048-.028-.1-.043-.158a.833.833,0,0,0-.1-.251.325.325,0,0,0-.107-.1.317.317,0,0,0-.156-.039h0a.424.424,0,0,0-.051,0,.1.1,0,0,0-.086.095.673.673,0,0,1-.122.347.244.244,0,0,1-.061.058.088.088,0,0,1-.05.017.148.148,0,0,1-.1-.048.21.21,0,0,1-.056-.111.834.834,0,0,1-.018-.189c0-.069,0-.138.009-.2.106-.026.216-.051.332-.089a1.9,1.9,0,0,0,.214-.1c.033-.017.064-.032.089-.041l.03-.01h.009a.256.256,0,0,1,.084.014.169.169,0,0,1,.083.068,2.379,2.379,0,0,1,.106.219.5.5,0,0,0,.091.125.37.37,0,0,0,.079.057l-.018.02-.017.025-.03,0h0a.1.1,0,0,0-.073.032.1.1,0,0,0-.025.079.286.286,0,0,0,.07.155.387.387,0,0,0,.084.067c.042.025.082.042.115.061a.259.259,0,0,1,.08.062h0v0a.262.262,0,0,1,0,.028.358.358,0,0,0,0,.056.191.191,0,0,0,.021.089.222.222,0,0,0,.071.079.188.188,0,0,0,.052.025.331.331,0,0,0,.073.013c.024,0,.05,0,.075,0a1.552,1.552,0,0,0,.217-.017,1.07,1.07,0,0,0,.159-.039c-.06.058-.121.124-.178.182-.031.032-.06.061-.086.084a.4.4,0,0,1-.062.046.474.474,0,0,1-.217.067m10.633-.129a.082.082,0,0,1-.024-.009.365.365,0,0,1-.077-.065l-.02-.021a.556.556,0,0,0,.16.024h0l-.026.048a.2.2,0,0,1-.014.023m-.591-.453a2.373,2.373,0,0,1-.379-.281.7.7,0,0,1-.143-.192.53.53,0,0,1-.053-.235.838.838,0,0,1,.047-.263c0,.008.006.018.01.028.009.033.019.076.036.126.036.106.055.186.089.27a.958.958,0,0,0,.167.269c.068.08.142.18.225.277m1.413-.676-.083-.039a3.017,3.017,0,0,1-.352-.16.35.35,0,0,1-.1-.088.16.16,0,0,1-.032-.089c.021,0,.039,0,.056,0a.294.294,0,0,1,.105.017.386.386,0,0,1,.124.089c.045.045.1.105.167.172a1.212,1.212,0,0,0,.117.1m-12.2-.344h0m.473-2.755-.009,0a.119.119,0,0,1-.023-.017.1.1,0,0,1,0-.025.53.53,0,0,1,0-.063c0-.042,0-.091,0-.141a.885.885,0,0,0-.006-.113.274.274,0,0,0-.041-.115.383.383,0,0,0-.1-.1.639.639,0,0,0-.216-.081c-.111-.022-.222-.032-.314-.057a.462.462,0,0,1-.118-.048.249.249,0,0,1-.081-.078.285.285,0,0,1-.05-.158.3.3,0,0,1,.027-.12.778.778,0,0,1,.125-.189c.053-.063.113-.124.165-.185a.614.614,0,0,0,.082-.121c.014-.026.023-.049.032-.067a.215.215,0,0,1,.041-.061.4.4,0,0,1,.11-.069,1.54,1.54,0,0,1,.161-.058.609.609,0,0,0,.186-.1.727.727,0,0,0,.265-.569.689.689,0,0,0-.066-.3h0c-.031-.066-.059-.136-.091-.209a.1.1,0,0,0-.044-.047l.037-.01a.582.582,0,0,1,.158-.03h0a.268.268,0,0,1,.117.027.562.562,0,0,1,.108.062.187.187,0,0,1,.066.09,1.684,1.684,0,0,1,.055.193.649.649,0,0,1,.025.15.144.144,0,0,1-.006.043.336.336,0,0,1-.036.074c-.02.035-.048.08-.077.142a1.194,1.194,0,0,0-.064.151.542.542,0,0,0-.028.171.6.6,0,0,0,.031.186.1.1,0,0,0,.058.061.089.089,0,0,0,.035.007.1.1,0,0,0,.049-.013.352.352,0,0,1,.166-.057.135.135,0,0,1,.066.017.363.363,0,0,1,.115.119c.061.089.122.212.211.323a.666.666,0,0,0,.164.149.457.457,0,0,0,.066.035l0,0a.1.1,0,0,0-.029.089.142.142,0,0,1,0,.027c0,.021,0,.049-.007.08s-.006.039-.007.06h-.075c0-.068-.007-.127-.013-.181a.568.568,0,0,0-.038-.156.313.313,0,0,0-.064-.1.431.431,0,0,0-.16-.1,1.409,1.409,0,0,0-.229-.06.224.224,0,0,1-.091-.035l-.032-.022a.186.186,0,0,0-.03-.016.137.137,0,0,0-.048-.009h0a.135.135,0,0,0-.068.019.323.323,0,0,0-.066.053c-.021.021-.046.049-.078.084a.687.687,0,0,0-.127.218c-.028.073-.048.144-.07.209a.672.672,0,0,0-.038.22,1.024,1.024,0,0,0,.042.263.844.844,0,0,1,.037.213.445.445,0,0,1-.031.164h0a.563.563,0,0,1-.07.135.19.19,0,0,1-.036.036.036.036,0,0,1-.015.006" transform="translate(-0.91 -186.343)" fill="#fff"/>
    <g id="Grupo_10393" data-name="Grupo 10393" transform="translate(309.863 236.502)" clip-path="url(#clip-path-4)">
      <path id="Caminho_4448" data-name="Caminho 4448" d="M318.815,439.578a8.954,8.954,0,0,1-8.156-12.652.1.1,0,0,1,.089-.057h0a.1.1,0,0,1,.089.059.7.7,0,0,1,.043.2,1.748,1.748,0,0,0,.022.177.276.276,0,0,0,.016.049.381.381,0,0,1,.025-.126.216.216,0,0,1,.086-.108.175.175,0,0,1,.093-.027h0a.215.215,0,0,1,.139.055.418.418,0,0,1,.1.131.449.449,0,0,1,.044.143,1,1,0,0,1,.007.133v.057a.768.768,0,0,0,.007.117.261.261,0,0,0,.032.094.641.641,0,0,0,.118.143,1.334,1.334,0,0,1,.145.151.583.583,0,0,1,.084.15,1.4,1.4,0,0,1,.061.26c.014.089.023.179.034.254h0a1.3,1.3,0,0,0,.155.465c.073.135.169.27.272.455a1.134,1.134,0,0,1,.069.152c.022.058.046.122.07.189a2.436,2.436,0,0,0,.164.375.544.544,0,0,0,.077.106.891.891,0,0,1-.021-.186.666.666,0,0,1,.009-.11.1.1,0,0,1,.1-.082h.012a.308.308,0,0,1,.135.05.427.427,0,0,1,.1.092,1,1,0,0,1,.124.217c.021.046.04.09.055.123h0a.634.634,0,0,0,.069.117.481.481,0,0,0,.069.071,1.758,1.758,0,0,1,.209.19.626.626,0,0,1,.1.14.824.824,0,0,1,.039.092.116.116,0,0,0,.007.016l.015.006a.887.887,0,0,0,.174.021c.057,0,.114,0,.172,0h0c.108,0,.22,0,.333,0,.057,0,.114,0,.172,0a.1.1,0,0,1,.087.067.645.645,0,0,0,.224.279.925.925,0,0,0,.334.168c.062.014.121.023.174.03s.1.012.144.021a.285.285,0,0,1,.088.029.159.159,0,0,1,.05.045.141.141,0,0,1,.027.083.189.189,0,0,1-.017.077.466.466,0,0,1-.038.067,1.627,1.627,0,0,1-.132.163,2.521,2.521,0,0,0-.215.251.476.476,0,0,0-.095.272.468.468,0,0,0,.016.117.691.691,0,0,0,.047.116c.023.049.054.1.088.162a3.336,3.336,0,0,0,.227.332,1.049,1.049,0,0,0,.13.142,2.335,2.335,0,0,0,.207.149,1.124,1.124,0,0,1,.194.151.635.635,0,0,1,.106.149.889.889,0,0,1,.082.289,1,1,0,0,1,.007.12,1.855,1.855,0,0,1-.055.4c-.029.128-.061.252-.076.367-.041.308-.1.594-.153.88a4.971,4.971,0,0,0-.091.891c0,.111,0,.206,0,.288a.824.824,0,0,0,.037.285.67.67,0,0,0,.182.258,1.375,1.375,0,0,0,.153.124.808.808,0,0,0,.16.091.2.2,0,0,0,.069.017h.01a.072.072,0,0,0,0-.01.2.2,0,0,0,0-.046.461.461,0,0,0,0-.063l0,0a.161.161,0,0,0-.017-.025c-.017-.022-.043-.05-.067-.086a.329.329,0,0,1-.042-.086.452.452,0,0,1-.014-.124c0-.072.008-.146.01-.189s0-.091.008-.146a.757.757,0,0,1,.028-.164.441.441,0,0,1,.1-.153c.04-.041.082-.077.112-.106l.024-.024-.051-.034a.2.2,0,0,1-.06-.066.151.151,0,0,1-.018-.07v-.015h0a.391.391,0,0,1,.026-.114.262.262,0,0,1,.047-.075.347.347,0,0,0,.026-.031.372.372,0,0,0,.039-.062c.067-.127.13-.263.2-.394a.1.1,0,0,1,.087-.053h.008c.048,0,.09.006.124.006h0a.272.272,0,0,0,.088-.01c.017-.006.019-.008.025-.017a.124.124,0,0,0,.014-.037.582.582,0,0,0,.01-.117c0-.019,0-.04,0-.062a.094.094,0,0,1,.027-.072.1.1,0,0,1,.07-.03.216.216,0,0,0,.113-.029.326.326,0,0,0,.09-.084,2.3,2.3,0,0,0,.158-.27.507.507,0,0,1,.142-.169.244.244,0,0,1,.07-.033c0-.049,0-.093,0-.135a.545.545,0,0,1,.03-.191.355.355,0,0,1,.075-.118.664.664,0,0,1,.178-.126,2.312,2.312,0,0,1,.233-.1.824.824,0,0,0,.171-.083.286.286,0,0,0,.076-.074.453.453,0,0,0,.07-.18.531.531,0,0,0,.009-.1c0-.04,0-.082,0-.129a.563.563,0,0,1,.014-.135.47.47,0,0,1,.063-.149.434.434,0,0,1,.133-.127.436.436,0,0,0,.093-.071.241.241,0,0,0,.044-.075.461.461,0,0,0,.033-.167.448.448,0,0,0-.066-.23.7.7,0,0,0-.182-.2,3.859,3.859,0,0,0-.6-.366h0a6.468,6.468,0,0,1-.625-.349.407.407,0,0,0-.125-.046.813.813,0,0,0-.134-.01,1.037,1.037,0,0,1-.345-.042.785.785,0,0,1-.229-.122c-.059-.045-.1-.088-.142-.12a.367.367,0,0,0-.075-.05.288.288,0,0,0-.127-.026.613.613,0,0,0-.133.016l-.02,0a.1.1,0,0,1-.066-.026.1.1,0,0,1-.032-.083c.006-.054.008-.1.008-.135a.518.518,0,0,0,0-.063h0a.7.7,0,0,0-.088.075c-.068.066-.144.151-.218.223a.745.745,0,0,1-.151.12.662.662,0,0,1-.308.089h0a.379.379,0,0,1-.229-.075.494.494,0,0,1-.142-.18,1.157,1.157,0,0,1-.1-.4.319.319,0,0,1-.086-.07.466.466,0,0,1-.084-.142c-.04-.1-.059-.2-.086-.291a.432.432,0,0,0-.057-.133.122.122,0,0,0-.037-.035.067.067,0,0,0-.014-.006.936.936,0,0,1-.053.181.641.641,0,0,1-.169.254.3.3,0,0,1-.2.077h0a.342.342,0,0,1-.225-.1.407.407,0,0,1-.117-.211,1.048,1.048,0,0,1-.024-.236c0-.109.01-.213.014-.283a.1.1,0,0,1,.073-.09c.135-.035.263-.062.389-.1a.983.983,0,0,0,.116-.05c.045-.022.092-.046.137-.066a.586.586,0,0,1,.09-.033.214.214,0,0,1,.058-.008h0a.408.408,0,0,1,.193.044.363.363,0,0,1,.126.111,1.527,1.527,0,0,1,.122.241.3.3,0,0,0,.062.089.234.234,0,0,0,.011-.07.7.7,0,0,0-.033-.177.9.9,0,0,1-.039-.224.381.381,0,0,1,.023-.135.39.39,0,0,1,.082-.131.54.54,0,0,1,.164-.116,1.15,1.15,0,0,0,.131-.066.205.205,0,0,0,.054-.049.4.4,0,0,0,.064-.14,1.2,1.2,0,0,1,.061-.182.426.426,0,0,1,.092-.131h0a.612.612,0,0,1,.171-.108.842.842,0,0,0,.14-.075.216.216,0,0,0,.06-.06.227.227,0,0,0,.026-.061c.008-.026.015-.057.021-.091a.729.729,0,0,1,.071-.225.516.516,0,0,1,.108-.126c.042-.037.089-.07.135-.1a1.558,1.558,0,0,0,.243-.193.223.223,0,0,0,.062-.113.1.1,0,0,1,.066-.08.532.532,0,0,1,.113-.023c.039,0,.082-.008.124-.011a2.115,2.115,0,0,0,.242-.028.3.3,0,0,0,.1-.036.04.04,0,0,0,.01-.008.282.282,0,0,0-.01-.053c-.007-.029-.018-.064-.031-.1a2.225,2.225,0,0,0-.1-.228,1.2,1.2,0,0,0-.064-.115.194.194,0,0,0-.021-.028.251.251,0,0,0-.108-.056.855.855,0,0,0-.1-.012.251.251,0,0,1-.1-.034.222.222,0,0,1-.055-.048.547.547,0,0,1-.1-.215,2.007,2.007,0,0,1-.037-.2.332.332,0,0,0-.03-.114.132.132,0,0,0-.041-.044.214.214,0,0,0-.037-.021s0,.009,0,.013a.687.687,0,0,0-.008.081.113.113,0,0,0,0,.023.1.1,0,0,1-.069.11.488.488,0,0,1-.079.014c-.028,0-.057,0-.085,0a.641.641,0,0,1-.154-.016.1.1,0,0,1-.074-.09c0-.088-.008-.16-.013-.218a.48.48,0,0,0-.024-.128.145.145,0,0,0-.026-.044.187.187,0,0,0-.067-.046,1.055,1.055,0,0,0-.22-.06.462.462,0,0,1-.137-.048l-.023-.014c-.017.017-.039.041-.07.075a.517.517,0,0,0-.091.158c-.023.061-.042.13-.068.2a.452.452,0,0,0-.028.156.844.844,0,0,0,.037.214,1.023,1.023,0,0,1,.042.262.657.657,0,0,1-.043.232.762.762,0,0,1-.068.14.4.4,0,0,1-.113.125.222.222,0,0,1-.122.039h0a.22.22,0,0,1-.094-.022.307.307,0,0,1-.082-.06.17.17,0,0,1-.037-.057.249.249,0,0,1-.014-.055.627.627,0,0,1-.007-.109c0-.048,0-.1,0-.141a.664.664,0,0,0,0-.081.124.124,0,0,0-.008-.036.2.2,0,0,0-.084-.065.636.636,0,0,0-.143-.04,2.105,2.105,0,0,1-.379-.08.469.469,0,0,1-.231-.183.485.485,0,0,1-.082-.263.5.5,0,0,1,.043-.2.817.817,0,0,1,.1-.165c.075-.1.162-.187.225-.259a.445.445,0,0,0,.061-.093.835.835,0,0,1,.053-.1.37.37,0,0,1,.066-.077.627.627,0,0,1,.149-.093,1.624,1.624,0,0,1,.182-.067.409.409,0,0,0,.129-.065.531.531,0,0,0,.189-.415.488.488,0,0,0-.046-.214h0c-.028-.059-.051-.117-.075-.171a.443.443,0,0,0-.048-.009l-.048-.005a.5.5,0,0,1-.133.3.1.1,0,0,1-.071.031.108.108,0,0,1-.026,0,.7.7,0,0,1-.2-.1,1.255,1.255,0,0,1-.175-.145.588.588,0,0,1-.084-.1.857.857,0,0,1-.089-.222c-.02-.073-.037-.14-.055-.185a.171.171,0,0,0-.022-.043h0a.112.112,0,0,0-.021.009.485.485,0,0,0-.08.059h0a.281.281,0,0,0-.058.075.585.585,0,0,0-.041.1,2.522,2.522,0,0,1-.078.25.425.425,0,0,1-.118.164.659.659,0,0,1-.27.12,1.4,1.4,0,0,1-.3.032,1.182,1.182,0,0,1-.2-.015.1.1,0,0,1-.066-.043.1.1,0,0,1-.012-.078.346.346,0,0,1,.066-.131.4.4,0,0,1,.094-.082c.064-.041.124-.065.158-.089a.084.084,0,0,0,.046-.077v-.007s0-.011-.008-.019a.4.4,0,0,0-.041-.061,1.364,1.364,0,0,0-.151-.158.1.1,0,0,1-.031-.075.1.1,0,0,1,.035-.073,8.923,8.923,0,0,1,3.115-1.692.084.084,0,0,1,.029,0,.1.1,0,0,1,.084.047.1.1,0,0,1-.014.12l-.009.01h0a.534.534,0,0,0,.126.07.869.869,0,0,0,.276.042,1.381,1.381,0,0,1,.348.046,1.4,1.4,0,0,1,.183.071.449.449,0,0,1,.143.1.328.328,0,0,1,.062.1.472.472,0,0,1,.028.169.975.975,0,0,1-.01.13.62.62,0,0,1-.021.088c-.009.029-.019.058-.028.086a.523.523,0,0,0-.032.14c0,.006,0,.01,0,.013h0a.094.094,0,0,0,.03,0h0a.383.383,0,0,0,.073-.009l.019,0a.1.1,0,0,1,.1.1c0,.1-.019.29-.019.489a2.738,2.738,0,0,0,.017.324.929.929,0,0,0,.061.252.209.209,0,0,0,.057.081.076.076,0,0,0,.03.015.1.1,0,0,1,.075.09,4.5,4.5,0,0,0,.156,1.046.863.863,0,0,0,.11.26.36.36,0,0,0,.2.142h0a.22.22,0,0,0,.064.01h0c.039,0,.081-.011.141-.012h0a.257.257,0,0,1,.084.015,2.264,2.264,0,0,1,.088-.521.725.725,0,0,1,.092-.193,1.44,1.44,0,0,1,.487-.383,2.522,2.522,0,0,0,.477-.3c.081-.075.171-.151.251-.231a.962.962,0,0,0,.191-.246.407.407,0,0,0,.046-.169v-.034a1.568,1.568,0,0,0-.035-.3,1.525,1.525,0,0,1-.039-.3.727.727,0,0,1,.03-.208.878.878,0,0,1,.106-.225c.079-.123.14-.2.181-.273a.546.546,0,0,0,.079-.211,1.374,1.374,0,0,0,.015-.233c0-.09.01-.18.009-.262,0-.019,0-.036,0-.053a.1.1,0,0,1,.033-.08.1.1,0,0,1,.064-.023l.02,0a8.918,8.918,0,0,1,4,1.98.108.108,0,0,1,.03.047.1.1,0,0,1,0,.064.1.1,0,0,1-.091.061h-.013a.859.859,0,0,1-.187-.041.521.521,0,0,0-.138-.028h0a.145.145,0,0,0-.043.005.139.139,0,0,0-.033.015c-.016.009-.035.021-.055.035-.041.029-.088.065-.131.1a.712.712,0,0,1-.087.055.643.643,0,0,1-.137.052.365.365,0,0,0-.087.031.352.352,0,0,0-.064.047.137.137,0,0,0-.034.054c-.01.024-.017.055-.033.093a.222.222,0,0,1-.059.08.2.2,0,0,1-.06.032.241.241,0,0,1-.077.011h-.01c0,.048,0,.095-.008.14a.612.612,0,0,1-.07.238.762.762,0,0,1-.117.157c-.077.081-.151.137-.213.192a.675.675,0,0,0-.157.187c-.028.05-.075.121-.126.2s-.109.172-.154.254a1.078,1.078,0,0,0-.068.14.182.182,0,0,0-.012.043v0a.141.141,0,0,0,.01.048.5.5,0,0,0,.035.079.691.691,0,0,0,.118.158.351.351,0,0,0,.047.039.592.592,0,0,1,.06-.1.384.384,0,0,1,.18-.137.087.087,0,0,1,.033-.006.1.1,0,0,1,.095.073.484.484,0,0,0,.1.174,1.35,1.35,0,0,1,.144.2.4.4,0,0,1,.048.185.391.391,0,0,1-.012.1.1.1,0,0,1-.071.072.236.236,0,0,1-.054.006h-.058a.1.1,0,0,1-.093-.066v0a.29.29,0,0,1-.032-.021.739.739,0,0,1-.076-.062c0,.011,0,.024,0,.038a.229.229,0,0,1-.017.088c-.027.062-.042.108-.059.152a.377.377,0,0,1-.158.2,1.412,1.412,0,0,1-.17.093,1.647,1.647,0,0,0-.2.1.172.172,0,0,0-.019.019.307.307,0,0,0-.027.044c-.016.029-.036.073-.066.133-.022.044-.041.09-.062.133a.646.646,0,0,1-.069.126.3.3,0,0,1-.073.073.248.248,0,0,1-.143.044h0a.358.358,0,0,1-.1-.013c0,.033,0,.071,0,.111a.635.635,0,0,1-.007.1.324.324,0,0,1-.034.106.416.416,0,0,1-.066.09.272.272,0,0,1-.081.055.365.365,0,0,1-.144.023h-.011a.223.223,0,0,0-.049,0,.059.059,0,0,0-.029.014.294.294,0,0,0-.082.105.268.268,0,0,0-.023.113.719.719,0,0,0,.062.258c.028.073.062.146.09.218h.011l.007-.007a.9.9,0,0,1,.082-.093h0l0-.008a.34.34,0,0,0,.013-.035.786.786,0,0,1,.041-.12.26.26,0,0,1,.072-.091h0a.2.2,0,0,1,.054-.028.488.488,0,0,1,.048-.012l.086-.017.035-.009h0a1.615,1.615,0,0,0,.285-.208,1.616,1.616,0,0,1,.308-.222.715.715,0,0,1,.32-.079h0a.684.684,0,0,1,.33.088.984.984,0,0,1,.265.217h0a.847.847,0,0,1,.116.177.844.844,0,0,0,.079.134.2.2,0,0,1,.026.048c0,.015.009.028.012.041s0,.009,0,.013a.157.157,0,0,1,.015-.028.122.122,0,0,1,.053-.048.111.111,0,0,1,.046-.011h.033a.489.489,0,0,1,.178.026.229.229,0,0,1,.118.093.254.254,0,0,1,.032.08.9.9,0,0,1,.015.093.462.462,0,0,0,.021.106.287.287,0,0,0,.1.135.412.412,0,0,0,.044.03.745.745,0,0,0,.056-.123c.012-.032.021-.055.026-.072l-.007-.006a.206.206,0,0,1-.046-.052.371.371,0,0,1-.044-.111c0-.019-.016-.057-.026-.1a.669.669,0,0,1-.02-.151.3.3,0,0,1,.028-.135.23.23,0,0,1,.115-.111.325.325,0,0,1,.115-.026h.01a.229.229,0,0,1,.136.048.47.47,0,0,1,.093.093,1.5,1.5,0,0,1,.133.213c.024.043.044.08.056.1s.057.075.093.122a.726.726,0,0,1,.1.155h0c.018.045.031.079.041.108a.308.308,0,0,1,.017.091.178.178,0,0,1-.017.076.382.382,0,0,1-.031.052,1.039,1.039,0,0,0-.068.11.335.335,0,0,1,.094.044.274.274,0,0,1,.095.117.593.593,0,0,1,.028.081c.01.035.019.07.03.1.038.113.058.193.085.259a.738.738,0,0,0,.135.216c.08.1.162.206.249.3a1.053,1.053,0,0,0,.269.235.389.389,0,0,0,.187.051.359.359,0,0,0,.095-.013,2.036,2.036,0,0,0,.3-.112,1.6,1.6,0,0,0,.33-.2.46.46,0,0,0,.124-.137.141.141,0,0,0,.016-.059.1.1,0,0,0-.01-.041.206.206,0,0,0-.071-.078.84.84,0,0,0-.145-.079,3.99,3.99,0,0,1-.374-.169.511.511,0,0,1-.2-.193.358.358,0,0,1-.042-.17.492.492,0,0,1,.011-.1.1.1,0,0,1,.077-.075.851.851,0,0,1,.164-.017h0a.483.483,0,0,1,.175.03.491.491,0,0,1,.135.082c.077.065.138.141.222.221a.87.87,0,0,0,.25.175c.083.039.179.07.3.12l-.073.182c-.117-.047-.215-.077-.314-.124l-.044-.022.01.009a.371.371,0,0,1,.1.125.3.3,0,0,1,.027.122.325.325,0,0,1-.037.148.509.509,0,0,1-.088.122,1.188,1.188,0,0,1-.257.2,2.356,2.356,0,0,1-.294.145l.008.011a.167.167,0,0,1,.031.067.26.26,0,0,1,.007.064.753.753,0,0,1-.033.2,2.235,2.235,0,0,1-.076.218,3.3,3.3,0,0,1-.176.374c-.014.025-.026.044-.038.062-.1.131-.225.259-.341.392a1.191,1.191,0,0,0-.256.39.354.354,0,0,0-.016.106.863.863,0,0,0,.056.262,1,1,0,0,1,.066.3.415.415,0,0,1-.017.117.32.32,0,0,1-.057.115.327.327,0,0,1-.084.073,1.417,1.417,0,0,1-.155.072.249.249,0,0,0-.071.044.54.54,0,0,0-.082.088.121.121,0,0,0-.021.05.428.428,0,0,0-.006.055c0,.033,0,.074-.007.128a1.419,1.419,0,0,1-.108.457,1.091,1.091,0,0,1-.31.411.979.979,0,0,1-.219.131.538.538,0,0,0-.166.115.647.647,0,0,0-.081.109.623.623,0,0,1-.1.13.523.523,0,0,1-.12.08.655.655,0,0,1-.292.085h0a.31.31,0,0,1-.168-.048.387.387,0,0,1-.113-.116,2.1,2.1,0,0,1-.143-.3,3.625,3.625,0,0,0-.249-.428,1.492,1.492,0,0,1-.218-.481,1.138,1.138,0,0,1-.017-.23v-.016a.7.7,0,0,0-.032-.258.69.69,0,0,0-.078-.14.569.569,0,0,1-.087-.184,1.92,1.92,0,0,1-.046-.44,1.448,1.448,0,0,0-.046-.385h0c-.029-.1-.037-.153-.044-.175a.075.075,0,0,0-.006-.016.1.1,0,0,0-.018-.024c-.016-.017-.043-.042-.086-.079s-.082-.074-.133-.12-.105-.094-.15-.129a.47.47,0,0,0-.065-.045.189.189,0,0,0-.088-.021h0a.617.617,0,0,0-.234.07,3.187,3.187,0,0,1-.3.137.756.756,0,0,1-.24.045h0a.479.479,0,0,1-.082-.007.557.557,0,0,1-.227-.1,1.228,1.228,0,0,1-.2-.173,1.621,1.621,0,0,1-.278-.4.381.381,0,0,1-.037-.167.758.758,0,0,1,.01-.114.635.635,0,0,0,.009-.089.239.239,0,0,0-.011-.074.076.076,0,0,0-.021-.038.168.168,0,0,0-.04-.024.352.352,0,0,1-.054-.033.228.228,0,0,1-.074-.093.632.632,0,0,1-.062-.254.353.353,0,0,1,.04-.167.428.428,0,0,1,.1-.121,2.608,2.608,0,0,1,.226-.164.622.622,0,0,0,.123-.112.121.121,0,0,0,.022-.041.2.2,0,0,0,.006-.05c0-.033,0-.077-.006-.131a.513.513,0,0,1,.021-.15.694.694,0,0,1,.057-.14.388.388,0,0,1,.079-.1,2.362,2.362,0,0,1,.2-.146,2.262,2.262,0,0,1,.44-.229,2.516,2.516,0,0,0,.408-.2c.069-.046.129-.1.187-.144a.885.885,0,0,1,.184-.127.366.366,0,0,1,.154-.036h0a.4.4,0,0,1,.178.045.866.866,0,0,1,.189.132,1.439,1.439,0,0,1,.232.31,1.351,1.351,0,0,0,.209.281.234.234,0,0,0,.136.068h.017a.209.209,0,0,0,.1-.03c.037-.019.081-.049.135-.076a.435.435,0,0,1,.129-.041.65.65,0,0,1,.092-.008h0a.349.349,0,0,1,.108.016.379.379,0,0,1,.08.037.615.615,0,0,0,.129.07c.088.033.132.055.147.057l.01,0h0a.178.178,0,0,0,.032-.005l.078-.021a.218.218,0,0,0,.084-.052.545.545,0,0,1,.124-.091.313.313,0,0,1,.137-.03c.017-.028.031-.051.044-.069s.025-.036.028-.042v0s0-.013-.007-.023-.019-.053-.037-.1h0a.55.55,0,0,0-.07-.108c-.034-.044-.071-.089-.1-.131-.015-.021-.028-.045-.042-.071l-.046-.083a1.034,1.034,0,0,0-.1-.158.2.2,0,0,0-.055-.05l-.009,0a.1.1,0,0,0-.056.015.037.037,0,0,0-.014.023.138.138,0,0,0,0,.038.47.47,0,0,0,.015.105c.008.037.019.071.026.1a.148.148,0,0,0,.021.053c0,.005,0,.005.014.012a.221.221,0,0,1,.037.029.138.138,0,0,1,.027.041.152.152,0,0,1,.01.055.257.257,0,0,1-.012.075c-.008.026-.018.055-.033.093a1.216,1.216,0,0,1-.056.128.274.274,0,0,1-.079.1.166.166,0,0,1-.091.029h0a.2.2,0,0,1-.095-.025.5.5,0,0,1-.079-.053.479.479,0,0,1-.167-.225.951.951,0,0,1-.036-.185.152.152,0,0,0-.013-.054l-.006-.008a.082.082,0,0,0-.029-.012.356.356,0,0,0-.071-.009.24.24,0,0,1-.008.025.2.2,0,0,1-.037.067.165.165,0,0,1-.047.038.163.163,0,0,1-.071.017h0a.224.224,0,0,1-.077-.015.147.147,0,0,1-.068-.054.214.214,0,0,1-.028-.055.923.923,0,0,1-.026-.089.218.218,0,0,0-.008-.027,1.065,1.065,0,0,1-.1-.16.652.652,0,0,0-.089-.137h0a.812.812,0,0,0-.212-.174.5.5,0,0,0-.237-.064.516.516,0,0,0-.234.059,1.466,1.466,0,0,0-.268.2,1.8,1.8,0,0,1-.322.232h0a.271.271,0,0,1-.049.019l-.046.011-.08.015-.021.006-.008.01a.165.165,0,0,0-.015.033c-.01.028-.019.066-.035.108a.238.238,0,0,1-.057.088.316.316,0,0,0-.038.042.542.542,0,0,1-.046.053.216.216,0,0,1-.051.037.2.2,0,0,1-.093.022h0a.42.42,0,0,1-.1-.017.1.1,0,0,1-.066-.064c-.023-.07-.066-.162-.106-.263a.921.921,0,0,1-.075-.329.468.468,0,0,1,.039-.193.49.49,0,0,1,.135-.175.257.257,0,0,1,.115-.057.5.5,0,0,1,.094-.008h.011a.245.245,0,0,0,.052,0,.067.067,0,0,0,.031-.018.2.2,0,0,0,.032-.044h0a.118.118,0,0,0,.012-.042.518.518,0,0,0,0-.071c0-.036,0-.077,0-.119a.466.466,0,0,1,.023-.161.1.1,0,0,1,.092-.064.1.1,0,0,1,.041.01.348.348,0,0,0,.135.041h0a.056.056,0,0,0,.035-.01.125.125,0,0,0,.035-.041c.029-.045.059-.126.1-.217l.059-.121a.5.5,0,0,1,.055-.089.31.31,0,0,1,.05-.05.532.532,0,0,1,.082-.051c.041-.021.091-.045.16-.078a1.151,1.151,0,0,0,.158-.087.161.161,0,0,0,.052-.054.52.52,0,0,0,.026-.058c.013-.035.03-.082.055-.142a.025.025,0,0,0,0-.012.328.328,0,0,0,0-.041.5.5,0,0,1-.007-.068.175.175,0,0,1,.015-.075.162.162,0,0,1,.06-.071.251.251,0,0,1,.055-.026.137.137,0,0,1,.037-.005.131.131,0,0,1,.058.014.169.169,0,0,1,.035.021.685.685,0,0,1,.053.046c.025.023.051.046.075.064a.371.371,0,0,0-.039-.066c-.038-.054-.093-.113-.144-.188a.551.551,0,0,1-.032-.052l-.011.015a.475.475,0,0,0-.066.137.1.1,0,0,1-.086.066h-.014a.266.266,0,0,1-.14-.043.53.53,0,0,1-.111-.091.883.883,0,0,1-.163-.24.428.428,0,0,1-.044-.169c0-.008,0-.015,0-.023h0a.465.465,0,0,1,.041-.136c.021-.046.047-.1.076-.147.057-.1.126-.209.182-.3.037-.057.068-.106.084-.135a.863.863,0,0,1,.2-.24c.069-.061.135-.112.2-.18a.549.549,0,0,0,.087-.116.358.358,0,0,0,.039-.105,1.964,1.964,0,0,0,.019-.3.1.1,0,0,1,.039-.074.094.094,0,0,1,.059-.02.091.091,0,0,1,.023,0,.377.377,0,0,0,.08.012h.015l0-.006a.283.283,0,0,0,.011-.031c.006-.018.013-.042.025-.069a.326.326,0,0,1,.079-.113.5.5,0,0,1,.1-.074.465.465,0,0,1,.091-.037.682.682,0,0,0,.137-.047h0a1.072,1.072,0,0,0,.1-.071c.044-.032.092-.069.14-.1a.4.4,0,0,1,.1-.048.424.424,0,0,1,.075-.011,8.725,8.725,0,0,0-3.5-1.67c0,.073-.008.141-.008.2a1.252,1.252,0,0,1-.041.369.952.952,0,0,1-.133.258c-.038.056-.082.117-.131.2a.7.7,0,0,0-.084.175.519.519,0,0,0-.022.152,1.423,1.423,0,0,0,.035.26,1.731,1.731,0,0,1,.039.337c0,.013,0,.026,0,.04a.609.609,0,0,1-.066.251.978.978,0,0,1-.142.207,4.556,4.556,0,0,1-.341.326,2.7,2.7,0,0,1-.514.33,1.27,1.27,0,0,0-.424.325.562.562,0,0,0-.064.14,1.493,1.493,0,0,0-.048.2,2.58,2.58,0,0,0-.037.417c0,.019,0,.037,0,.054a.1.1,0,0,1-.07.1.093.093,0,0,1-.028,0,.1.1,0,0,1-.084-.048.226.226,0,0,0-.062-.076.056.056,0,0,0-.035-.009h0c-.026,0-.075.011-.141.012h0a.4.4,0,0,1-.121-.018.557.557,0,0,1-.3-.217,1.059,1.059,0,0,1-.138-.319,4.475,4.475,0,0,1-.159-1.027.282.282,0,0,1-.033-.022.331.331,0,0,1-.076-.082.658.658,0,0,1-.087-.212,2.251,2.251,0,0,1-.048-.518c0-.145.007-.283.013-.386a.258.258,0,0,1-.123-.033.186.186,0,0,1-.082-.1.248.248,0,0,1-.01-.076.552.552,0,0,1,.026-.153c.014-.048.03-.093.041-.131a.4.4,0,0,0,.014-.057.776.776,0,0,0,.008-.1.261.261,0,0,0-.018-.106.153.153,0,0,0-.051-.06.37.37,0,0,0-.068-.039.943.943,0,0,0-.44-.091,1.025,1.025,0,0,1-.344-.058.833.833,0,0,1-.14-.074.286.286,0,0,1-.09-.09l-.01-.021a8.729,8.729,0,0,0-2.8,1.535c.019.019.037.037.053.057a.649.649,0,0,1,.1.141.26.26,0,0,1,.03.113v0a.292.292,0,0,1-.029.122.277.277,0,0,1-.068.086.74.74,0,0,1-.15.091l-.029.017a1.186,1.186,0,0,0,.254-.028.471.471,0,0,0,.19-.081.2.2,0,0,0,.049-.062.539.539,0,0,0,.037-.095,2.241,2.241,0,0,1,.081-.254.49.49,0,0,1,.123-.173h0a.632.632,0,0,1,.117-.084.248.248,0,0,1,.12-.033h0a.179.179,0,0,1,.078.017.209.209,0,0,1,.06.044.362.362,0,0,1,.065.112c.029.077.046.163.07.24a.535.535,0,0,0,.054.128.6.6,0,0,0,.1.111.994.994,0,0,0,.154.113l.027.015a.321.321,0,0,0,.043-.162c0-.014,0-.028,0-.042a.1.1,0,0,1,.02-.073.136.136,0,0,1,.017-.017.5.5,0,0,1-.082-.061.753.753,0,0,1-.135-.174.917.917,0,0,1-.123-.435.446.446,0,0,1,.077-.267.223.223,0,0,1,.08-.065.381.381,0,0,1,.091-.03,1.022,1.022,0,0,1,.207-.017c.13,0,.276.012.406.015h.006a.512.512,0,0,1,.115-.013h0l.2-.02h.01a.1.1,0,0,1,.095.074.1.1,0,0,1-.017.084.6.6,0,0,1,.068.111,3,3,0,0,1,.109.3.559.559,0,0,0,.068.145.393.393,0,0,0,.1.1.381.381,0,0,0,.105.052,1.863,1.863,0,0,0,.27.046.976.976,0,0,1,.218.055.1.1,0,0,1,.061.079.469.469,0,0,1,0,.054.833.833,0,0,1-.06.272,1.165,1.165,0,0,0-.045.141.507.507,0,0,1,.219.175.514.514,0,0,1,.091.3.56.56,0,0,1-.044.217.367.367,0,0,1-.126.163.241.241,0,0,1-.137.044h0a.241.241,0,0,1-.1-.021.161.161,0,0,0,.053.057.169.169,0,0,0,.082.023.1.1,0,0,1,.094.093c0,.064,0,.127,0,.191s0,.12,0,.178a.1.1,0,0,1-.033.07l-.014.01a.418.418,0,0,1,.1.06.336.336,0,0,1,.111.173.972.972,0,0,1,.023.118,1.337,1.337,0,0,0,.03.16.57.57,0,0,0,.039.113.088.088,0,0,0,.023.032l.008,0a.2.2,0,0,0,.035,0,.755.755,0,0,1,.1.012.455.455,0,0,1,.191.1h0a.267.267,0,0,1,.045.049c.013.018.026.038.039.059.026.044.053.1.079.153a1.766,1.766,0,0,1,.123.339.451.451,0,0,1,.011.084.169.169,0,0,1-.021.083h0a.273.273,0,0,1-.122.105.606.606,0,0,1-.148.044c-.1.019-.212.023-.3.031l-.082.009a.414.414,0,0,1-.055.1.722.722,0,0,1-.126.129c-.092.077-.195.141-.272.2a.3.3,0,0,0-.142.221c-.01.048-.019.1-.035.16a.439.439,0,0,1-.05.113.463.463,0,0,1-.169.15c-.059.032-.115.055-.159.079a.278.278,0,0,0-.07.048.24.24,0,0,0-.052.073.679.679,0,0,0-.033.1.729.729,0,0,1-.112.261.4.4,0,0,1-.1.1.867.867,0,0,1-.105.056.463.463,0,0,0-.153.095.213.213,0,0,0-.043.066.189.189,0,0,0-.01.067.666.666,0,0,0,.032.173.857.857,0,0,1,.039.228.4.4,0,0,1-.037.171h.047c.046,0,.091,0,.131,0,0-.059.01-.114.01-.159a.376.376,0,0,0,0-.041.1.1,0,0,1,.025-.077.1.1,0,0,1,.072-.032h0a.434.434,0,0,1,.191.046.293.293,0,0,1,.12.122.4.4,0,0,1,.035.1.76.76,0,0,1,.016.13c0,.057,0,.113,0,.164a.779.779,0,0,0,.008.086.823.823,0,0,1,.186-.021,1.1,1.1,0,0,1,.463.113,2.949,2.949,0,0,1,.4.234.1.1,0,0,1,.042.068.725.725,0,0,1,.009.113.426.426,0,0,1,0,.059.1.1,0,0,1-.1.088h-.031a.1.1,0,0,1-.031-.006,1.223,1.223,0,0,1-.256-.135.951.951,0,0,0-.209-.111.427.427,0,0,0-.124-.019h0a.317.317,0,0,0-.044,0,.174.174,0,0,1,.04.057.432.432,0,0,1,.028.178v.032h.048a.476.476,0,0,1,.21.046.653.653,0,0,1,.145.1.772.772,0,0,0,.279.182.646.646,0,0,0,.209.03,1.336,1.336,0,0,1,.243.015.6.6,0,0,1,.186.068,6.343,6.343,0,0,0,.607.34h0a4.015,4.015,0,0,1,.642.388.893.893,0,0,1,.234.253.633.633,0,0,1,.047.569.414.414,0,0,1-.127.179c-.048.039-.088.06-.115.082a.166.166,0,0,0-.044.047.256.256,0,0,0-.038.088.373.373,0,0,0-.009.09c0,.038,0,.081,0,.129a.738.738,0,0,1-.082.344.5.5,0,0,1-.113.141.929.929,0,0,1-.281.148,1.726,1.726,0,0,0-.189.082.431.431,0,0,0-.135.1.169.169,0,0,0-.037.089.906.906,0,0,0-.006.1c0,.055,0,.124,0,.207a.1.1,0,0,1-.037.072.1.1,0,0,1-.061.021h-.029a.042.042,0,0,0-.017,0,.105.105,0,0,0-.022.014.38.38,0,0,0-.063.084,3.193,3.193,0,0,1-.169.29.511.511,0,0,1-.2.168.4.4,0,0,1-.067.022.65.65,0,0,1-.019.159.259.259,0,0,1-.084.136.256.256,0,0,1-.094.047.5.5,0,0,1-.138.016l-.074,0c-.055.111-.109.225-.169.339a.742.742,0,0,1-.1.141.03.03,0,0,0-.007.012.158.158,0,0,0-.007.032.715.715,0,0,1,.061.043.2.2,0,0,1,.06.075.17.17,0,0,1,.014.068.187.187,0,0,1,0,.028h0a.172.172,0,0,1-.019.053.321.321,0,0,1-.026.037.594.594,0,0,1-.058.059,1.492,1.492,0,0,0-.115.113.192.192,0,0,0-.037.057.546.546,0,0,0-.019.117c0,.048-.006.1-.007.139s-.01.123-.01.18a.281.281,0,0,0,.006.069.211.211,0,0,0,.033.055c.019.023.042.05.064.082a.216.216,0,0,1,.036.087.581.581,0,0,1,.008.095.319.319,0,0,1-.028.142.2.2,0,0,1-.1.095.215.215,0,0,1-.084.016.4.4,0,0,1-.142-.03.868.868,0,0,1-.135-.07,1.536,1.536,0,0,1-.241-.187.86.86,0,0,1-.232-.334,1.008,1.008,0,0,1-.048-.35c0-.088,0-.181,0-.288a5.167,5.167,0,0,1,.095-.924c.052-.292.113-.573.152-.872.018-.131.051-.259.079-.383a1.645,1.645,0,0,0,.05-.357.85.85,0,0,0-.006-.1.8.8,0,0,0-.043-.182.433.433,0,0,0-.065-.114.85.85,0,0,0-.21-.169,2.165,2.165,0,0,1-.2-.147.976.976,0,0,1-.117-.12c-.04-.048-.082-.1-.124-.161a3.16,3.16,0,0,1-.226-.362,1.073,1.073,0,0,1-.088-.207.645.645,0,0,1-.023-.169.669.669,0,0,1,.13-.382,2.638,2.638,0,0,1,.23-.272c.048-.054.084-.1.106-.128l.01-.015-.013,0c-.067-.01-.175-.019-.3-.048a1.113,1.113,0,0,1-.409-.2.881.881,0,0,1-.263-.309h-.1c-.108,0-.219,0-.332,0-.061,0-.122,0-.184,0a1.407,1.407,0,0,1-.154-.015.347.347,0,0,1-.107-.031.2.2,0,0,1-.058-.041.225.225,0,0,1-.042-.067c-.011-.027-.018-.048-.028-.07a.447.447,0,0,0-.077-.116,1.106,1.106,0,0,0-.145-.134.849.849,0,0,1-.142-.138.838.838,0,0,1-.091-.153c-.028-.059-.055-.127-.087-.19a.678.678,0,0,0-.064-.106,1.223,1.223,0,0,0,.051.213.1.1,0,0,1-.064.124.265.265,0,0,1-.084.013h0a.276.276,0,0,1-.117-.027.379.379,0,0,1-.094-.066.77.77,0,0,1-.14-.193,3.59,3.59,0,0,1-.193-.464,1.754,1.754,0,0,0-.091-.22c-.1-.175-.193-.308-.274-.457a1.507,1.507,0,0,1-.178-.531c-.011-.079-.021-.167-.033-.251a1.225,1.225,0,0,0-.051-.221.386.386,0,0,0-.055-.1.674.674,0,0,0-.079-.084,1,1,0,0,1-.2-.232.463.463,0,0,1-.056-.161.939.939,0,0,1-.009-.149v-.057a.707.707,0,0,0-.006-.106.242.242,0,0,0-.023-.08.306.306,0,0,0-.042-.062.115.115,0,0,0-.017-.015.187.187,0,0,0-.015.081.479.479,0,0,0,.006.071.1.1,0,0,1-.068.11.367.367,0,0,1-.1.017h0a.219.219,0,0,1-.2-.122.45.45,0,0,1-.044-.14,8.759,8.759,0,1,0,16.868,3.336l-.019-.011c-.027-.014-.07-.032-.131-.056l.073-.182c.062.025.108.043.147.063a.326.326,0,0,1,.1.073.1.1,0,0,1,.026.066s0,.01,0,.021a8.954,8.954,0,0,1-8.955,8.955m4.03-6.653a1.625,1.625,0,0,1,.054.437,1.712,1.712,0,0,0,.04.4.371.371,0,0,0,.06.124.834.834,0,0,1,.1.178h0a.872.872,0,0,1,.046.328v.016a1,1,0,0,0,.013.191,1.339,1.339,0,0,0,.192.417,3.669,3.669,0,0,1,.263.453c.028.064.052.123.075.173a.618.618,0,0,0,.066.119.176.176,0,0,0,.041.039.106.106,0,0,0,.064.017h0a.494.494,0,0,0,.2-.064.329.329,0,0,0,.075-.05.314.314,0,0,0,.048-.056,1.21,1.21,0,0,1,.126-.173.729.729,0,0,1,.222-.155.809.809,0,0,0,.18-.106.889.889,0,0,0,.256-.339,1.246,1.246,0,0,0,.093-.4c0-.053,0-.095.007-.135a.429.429,0,0,1,.023-.123.358.358,0,0,1,.046-.082.768.768,0,0,1,.1-.11.544.544,0,0,1,.176-.1.323.323,0,0,0,.1-.056.121.121,0,0,0,.032-.057.235.235,0,0,0,.008-.063.842.842,0,0,0-.056-.243,1.048,1.048,0,0,1-.066-.322.54.54,0,0,1,.026-.165,1.376,1.376,0,0,1,.3-.46c.121-.138.249-.267.329-.378a.865.865,0,0,0,.046-.078c.021-.039.045-.088.07-.142a2.958,2.958,0,0,0,.135-.344.643.643,0,0,0,.034-.169c0-.008,0-.013,0-.017l-.01-.01-.006.008a1.062,1.062,0,0,0-.059.1.5.5,0,0,1-.048.078.188.188,0,0,1-.048.044.126.126,0,0,1-.046.019h0a.241.241,0,0,1-.044,0,.262.262,0,0,1-.1-.02.352.352,0,0,1-.077-.046.836.836,0,0,1-.108-.1c-.019-.021-.035-.039-.046-.048a3.791,3.791,0,0,0-.464-.325,1.534,1.534,0,0,1-.453-.406.727.727,0,0,1-.123-.41,1.013,1.013,0,0,1,.057-.324s0-.008,0-.013c0-.021-.006-.044-.009-.062s0-.019,0-.025v0a.153.153,0,0,1,0-.018l-.01,0a.135.135,0,0,0-.032.017c-.023.017-.052.048-.1.082a.381.381,0,0,1-.116.059c-.036.01-.064.019-.091.025a.363.363,0,0,1-.077.01h0a.226.226,0,0,1-.057-.008.331.331,0,0,1-.05-.017c-.031-.013-.064-.028-.117-.048a.664.664,0,0,1-.135-.068.25.25,0,0,0-.066-.036.137.137,0,0,0-.049-.007.544.544,0,0,0-.064.005.323.323,0,0,0-.111.044,1.028,1.028,0,0,1-.146.078.366.366,0,0,1-.137.027h-.037a.411.411,0,0,1-.195-.076.7.7,0,0,1-.145-.142c-.085-.106-.153-.229-.22-.33a.817.817,0,0,0-.127-.16.7.7,0,0,0-.146-.1.2.2,0,0,0-.092-.025.159.159,0,0,0-.071.018.5.5,0,0,0-.091.057c-.068.052-.149.128-.256.2a2.679,2.679,0,0,1-.44.218,2.084,2.084,0,0,0-.4.208c-.069.049-.121.081-.155.106a.226.226,0,0,0-.071.077.5.5,0,0,0-.039.1.309.309,0,0,0-.012.093c0,.039,0,.081,0,.131a.358.358,0,0,1-.013.1.3.3,0,0,1-.057.11,1.01,1.01,0,0,1-.24.2.666.666,0,0,0-.17.14.155.155,0,0,0-.03.1.43.43,0,0,0,.045.174.039.039,0,0,0,.016.019c.008.006.028.015.056.031a.262.262,0,0,1,.125.161.441.441,0,0,1,.019.131.777.777,0,0,1-.01.117.645.645,0,0,0-.009.086.2.2,0,0,0,.019.086,1.37,1.37,0,0,0,.166.258,1.167,1.167,0,0,0,.243.234.374.374,0,0,0,.146.066.356.356,0,0,0,.054,0h0a.679.679,0,0,0,.267-.071c.095-.042.192-.1.294-.135a.6.6,0,0,1,.217-.046h0a.393.393,0,0,1,.175.041.661.661,0,0,1,.1.067c.035.027.07.058.106.09.071.063.142.13.182.164a1.188,1.188,0,0,1,.112.106.279.279,0,0,1,.057.1c.007.022.011.042.016.064s.015.064.03.115m-8.262-2.656a.317.317,0,0,1,.156.039.325.325,0,0,1,.107.1.833.833,0,0,1,.1.251c.014.056.028.111.043.158a.348.348,0,0,0,.072.138.118.118,0,0,0,.053.031.1.1,0,0,1,.071.088,1.287,1.287,0,0,0,.052.3.39.39,0,0,0,.117.192.181.181,0,0,0,.114.037.474.474,0,0,0,.217-.067.393.393,0,0,0,.062-.046c.026-.023.055-.052.086-.084.057-.058.117-.124.178-.182a1.072,1.072,0,0,1-.159.039,1.552,1.552,0,0,1-.217.017c-.026,0-.051,0-.075,0a.336.336,0,0,1-.073-.013.187.187,0,0,1-.052-.025.223.223,0,0,1-.071-.079.191.191,0,0,1-.021-.089.361.361,0,0,1,0-.056.266.266,0,0,0,0-.028v0h0a.258.258,0,0,0-.08-.062c-.033-.019-.073-.036-.115-.061a.386.386,0,0,1-.084-.067.286.286,0,0,1-.07-.155.1.1,0,0,1,.025-.079.1.1,0,0,1,.073-.032h0l.03,0,.017-.025.018-.02a.371.371,0,0,1-.079-.057A.5.5,0,0,1,315,430.3a2.386,2.386,0,0,0-.106-.219.169.169,0,0,0-.083-.068.258.258,0,0,0-.084-.014h-.009l-.03.01c-.025.01-.056.025-.089.041a1.881,1.881,0,0,1-.213.1c-.115.038-.225.063-.332.089,0,.062-.009.131-.009.2a.833.833,0,0,0,.018.189.21.21,0,0,0,.056.111.148.148,0,0,0,.1.048.089.089,0,0,0,.05-.017.246.246,0,0,0,.061-.058.647.647,0,0,0,.1-.209.638.638,0,0,0,.023-.137.1.1,0,0,1,.086-.095.411.411,0,0,1,.051,0h0m11.4,1.112.02.021a.363.363,0,0,0,.077.065.08.08,0,0,0,.024.009.2.2,0,0,0,.014-.023l.026-.048h0a.553.553,0,0,1-.16-.024m-8.919-.091v0m0-.093v0m-1.425-.111h0a1.32,1.32,0,0,0,.184-.014,1.455,1.455,0,0,0,.272-.082,1.008,1.008,0,0,1,.294-.067.772.772,0,0,0-.142-.014h0a.662.662,0,0,0-.22.039.088.088,0,0,1-.033.006.1.1,0,0,1-.088-.057.694.694,0,0,1-.048-.274,1.331,1.331,0,0,0-.014-.223.153.153,0,0,0-.035-.075.1.1,0,0,0-.026-.019c0,.051-.008.1-.008.137a.363.363,0,0,0,0,.04.1.1,0,0,1-.086.108.7.7,0,0,1-.075,0c-.058,0-.115,0-.164,0h0a.354.354,0,0,0-.094.01.085.085,0,0,0-.047.029.125.125,0,0,0-.021.045.1.1,0,0,1-.012.028c.029.015.068.033.109.057a.467.467,0,0,1,.121.1h0a.212.212,0,0,1,.037.066.207.207,0,0,1,.01.064.493.493,0,0,1,0,.057c0,.014,0,.023,0,.028h0l.006.006.019,0a.677.677,0,0,0,.071,0h0m9.348-1.034a.837.837,0,0,0-.047.263.53.53,0,0,0,.052.235.7.7,0,0,0,.143.192,2.369,2.369,0,0,0,.379.281c-.083-.1-.157-.2-.225-.277a.959.959,0,0,1-.167-.269c-.034-.084-.053-.164-.089-.27-.017-.05-.027-.093-.036-.126,0-.01-.006-.02-.01-.028m1.371-.081a.16.16,0,0,0,.032.089.351.351,0,0,0,.1.088,3.013,3.013,0,0,0,.352.16l.083.039a1.208,1.208,0,0,1-.117-.1c-.07-.067-.122-.127-.167-.172a.388.388,0,0,0-.124-.089.3.3,0,0,0-.105-.017c-.017,0-.035,0-.056,0M314.721,430h0m.442-2.775a.123.123,0,0,0,.023.017l.009,0a.036.036,0,0,0,.015-.006.193.193,0,0,0,.036-.036.562.562,0,0,0,.07-.135h0a.445.445,0,0,0,.031-.164.844.844,0,0,0-.037-.213,1.024,1.024,0,0,1-.042-.263.672.672,0,0,1,.038-.22c.023-.064.042-.135.07-.209a.687.687,0,0,1,.127-.218c.032-.035.057-.063.078-.084a.32.32,0,0,1,.066-.053.135.135,0,0,1,.068-.019h0a.137.137,0,0,1,.048.009.186.186,0,0,1,.03.016l.033.022a.224.224,0,0,0,.091.035,1.413,1.413,0,0,1,.229.06.431.431,0,0,1,.16.1.313.313,0,0,1,.064.1.569.569,0,0,1,.038.156c.006.054.01.113.013.181h.075c0-.021,0-.041.007-.06s.007-.059.007-.08a.144.144,0,0,0,0-.027.1.1,0,0,1,.029-.089l0,0a.456.456,0,0,1-.066-.035.666.666,0,0,1-.164-.148c-.09-.111-.15-.234-.211-.323a.363.363,0,0,0-.115-.119.134.134,0,0,0-.066-.017.352.352,0,0,0-.166.057.1.1,0,0,1-.049.013.089.089,0,0,1-.035-.007.1.1,0,0,1-.058-.061.6.6,0,0,1-.031-.186.542.542,0,0,1,.028-.171,1.2,1.2,0,0,1,.064-.151c.03-.062.057-.107.077-.142a.335.335,0,0,0,.036-.074.142.142,0,0,0,.006-.043.65.65,0,0,0-.025-.15,1.689,1.689,0,0,0-.055-.193.188.188,0,0,0-.066-.09.564.564,0,0,0-.108-.062.268.268,0,0,0-.117-.027h0a.582.582,0,0,0-.158.03l-.037.01a.1.1,0,0,1,.044.047c.032.073.059.143.091.209h0a.688.688,0,0,1,.066.3.727.727,0,0,1-.265.569.611.611,0,0,1-.186.1,1.526,1.526,0,0,0-.161.058.4.4,0,0,0-.11.069.216.216,0,0,0-.041.061c-.009.018-.019.041-.032.067a.617.617,0,0,1-.082.121c-.052.061-.112.122-.165.184a.777.777,0,0,0-.125.189.3.3,0,0,0-.027.12.285.285,0,0,0,.05.158.248.248,0,0,0,.081.078.465.465,0,0,0,.118.048c.091.025.2.035.314.057a.638.638,0,0,1,.216.081.382.382,0,0,1,.1.1.273.273,0,0,1,.041.115.881.881,0,0,1,.006.113c0,.05,0,.1,0,.141a.531.531,0,0,0,0,.063.1.1,0,0,0,0,.025m.757-2.016a.337.337,0,0,1,.2.065.6.6,0,0,1,.133.141c.073.1.131.222.2.312a.454.454,0,0,0,.156.135l.014.006v-.052c0-.035,0-.069,0-.1a.329.329,0,0,1-.087-.038.351.351,0,0,1-.117-.122.6.6,0,0,1-.073-.305.932.932,0,0,1,.008-.118.1.1,0,0,1,.084-.083h.014a.1.1,0,0,1,.089.058.469.469,0,0,0,.095.148.081.081,0,0,0,.05.027.051.051,0,0,0,.026-.01.146.146,0,0,0,.039-.044.335.335,0,0,0,.046-.176.322.322,0,0,0-.055-.184.333.333,0,0,0-.194-.128.1.1,0,0,1-.072-.1.991.991,0,0,1,.067-.266.817.817,0,0,0,.048-.178,1.546,1.546,0,0,0-.21-.035.867.867,0,0,1-.311-.086.583.583,0,0,1-.2-.175,1.045,1.045,0,0,1-.129-.3.863.863,0,0,0-.106-.246.167.167,0,0,0-.077-.062c-.042,0-.086,0-.131,0-.155,0-.325-.015-.462-.015h0a1.115,1.115,0,0,0-.125.006.3.3,0,0,0-.079.018.121.121,0,0,0-.015.008.257.257,0,0,0-.039.151.689.689,0,0,0,.057.256.614.614,0,0,0,.139.209.212.212,0,0,0,.095.056.23.23,0,0,0,.052.006h0a.587.587,0,0,0,.155-.03.769.769,0,0,1,.214-.038h0a.472.472,0,0,1,.2.045.7.7,0,0,1,.162.1.389.389,0,0,1,.1.128.692.692,0,0,1,.036.1c.013.046.025.094.039.151a.8.8,0,0,1,.032.2.343.343,0,0,1-.014.1.461.461,0,0,1-.034.081c-.027.049-.056.093-.091.165a1.045,1.045,0,0,0-.054.126.36.36,0,0,0-.019.11.116.116,0,0,0,0,.015.43.43,0,0,1,.143-.026h0m.529-.066-.089.04.089-.04m.584,12.669a.1.1,0,0,1-.04-.008.1.1,0,0,1-.055-.064.457.457,0,0,1-.017-.118.306.306,0,0,1,.025-.124.258.258,0,0,1,.073-.1.328.328,0,0,1,.2-.069.076.076,0,0,1,.02-.025.1.1,0,0,1,.117-.01.277.277,0,0,1,.135.242.53.53,0,0,1-.039.18.1.1,0,0,1-.061.058.09.09,0,0,1-.03,0,.1.1,0,0,1-.053-.015l-.008,0-.025-.007-.062-.013-.019.013a.214.214,0,0,1-.068.029l-.026.006-.024.009a.1.1,0,0,1-.045.011m.329-.127.053-.082-.053.082m-.124-.139h0l.006,0,.026.007.024,0c0-.008,0-.015,0-.021v-.006a.317.317,0,0,0-.06-.006h0a.221.221,0,0,0-.046,0,.1.1,0,0,1,.048.014m8.671-2.59a.238.238,0,0,1-.146-.049.283.283,0,0,1-.086-.114.672.672,0,0,1-.047-.27,1.278,1.278,0,0,1,.013-.176.9.9,0,0,1,.029-.138h0a.635.635,0,0,1,.09-.187.566.566,0,0,1,.124-.126c.085-.062.174-.1.269-.159l.079-.132a.1.1,0,0,1,.084-.048h.018a.1.1,0,0,1,.079.081.485.485,0,0,1,.006.077.859.859,0,0,1-.077.315,1.049,1.049,0,0,0-.082.252l-.1-.012.1.012c0,.019,0,.05-.006.086s0,.078-.007.122a.827.827,0,0,1-.061.275.321.321,0,0,1-.135.153.294.294,0,0,1-.126.035h-.019m.255-1c-.039.021-.075.041-.105.059a.438.438,0,0,0-.137.119.456.456,0,0,0-.062.131h0a.729.729,0,0,0-.022.106,1.129,1.129,0,0,0-.01.148.6.6,0,0,0,.017.154.14.14,0,0,0,.039.075.046.046,0,0,0,.028.008h.006a.09.09,0,0,0,.059-.022.172.172,0,0,0,.042-.067.88.88,0,0,0,.041-.25c0-.059,0-.114.01-.161a1.224,1.224,0,0,1,.095-.3h0m-5.141-6.505a.15.15,0,0,1-.041-.006.123.123,0,0,1-.042-.022.126.126,0,0,1-.046-.073.187.187,0,0,1,0-.042.459.459,0,0,1,.02-.115c.011-.039.024-.079.037-.121a.884.884,0,0,0,.048-.231.232.232,0,0,0,0-.034.1.1,0,0,1,.053-.1l.061-.031a.1.1,0,0,1,.128.038,1.21,1.21,0,0,0,.085.118.742.742,0,0,1,.089.134.269.269,0,0,1,.03.118.241.241,0,0,1-.017.087.292.292,0,0,1-.048.079.669.669,0,0,1-.174.138.843.843,0,0,1-.09.046.25.25,0,0,1-.087.019m.155-.486c-.007.033-.015.066-.024.1-.015.055-.032.106-.046.15a.55.55,0,0,0,.1-.071.133.133,0,0,0,.035-.045.041.041,0,0,0,0-.015.073.073,0,0,0-.01-.033.42.42,0,0,0-.039-.061l-.017-.023m-.737-1.129a.748.748,0,0,1-.219-.034.4.4,0,0,1-.182-.111.223.223,0,0,1-.055-.145.253.253,0,0,1,.039-.132.435.435,0,0,1,.046-.064.481.481,0,0,1-.039-.19.514.514,0,0,1,.023-.15.1.1,0,0,1,.07-.066.087.087,0,0,1,.023,0,.1.1,0,0,1,.069.028.382.382,0,0,0,.1.074.265.265,0,0,0,.116.028h.016a.22.22,0,0,1,.031-.057.3.3,0,0,1,.1-.086.466.466,0,0,1,.229-.054.758.758,0,0,1,.079,0,.1.1,0,0,1,.068.041.241.241,0,0,1,.062.025.2.2,0,0,1,.089.1.236.236,0,0,1,.015.083.428.428,0,0,1-.042.171,1.143,1.143,0,0,1-.091.162,1.6,1.6,0,0,1-.219.258.581.581,0,0,1-.054.044.4.4,0,0,1-.13.054.657.657,0,0,1-.143.016m-.167-.522a.1.1,0,0,1-.017.129.3.3,0,0,0-.064.071.069.069,0,0,0-.012.032.032.032,0,0,0,.008.019.166.166,0,0,0,.051.035.483.483,0,0,0,.2.04h0a.424.424,0,0,0,.1-.01.191.191,0,0,0,.065-.026.432.432,0,0,0,.055-.048,1.017,1.017,0,0,0,.082-.091,1.161,1.161,0,0,0,.151-.225.286.286,0,0,0,.034-.11.024.024,0,0,0,0-.013h0l-.01,0a.175.175,0,0,0-.041-.007.1.1,0,0,1-.07-.035.319.319,0,0,0-.1.016.122.122,0,0,0-.058.04.1.1,0,0,0-.015.042.1.1,0,0,1-.07.082.439.439,0,0,1-.122.017.465.465,0,0,1-.2-.046h0a.262.262,0,0,0,.039.094l-.081.055.081-.055" transform="translate(-309.86 -421.826)" fill="#fff"/>
    </g>
  </g>
</svg>
