<svg xmlns="http://www.w3.org/2000/svg" xmlns:xlink="http://www.w3.org/1999/xlink" width="182.06" height="67.489" viewBox="0 0 182.06 67.489">
  <defs>
    <clipPath id="clip-path">
      <path id="Caminho_4451" data-name="Caminho 4451" d="M1048,369h15.432v29.98H1048Zm0,0" transform="translate(-1048 -369)"/>
    </clipPath>
    <clipPath id="clip-path-2">
      <path id="Caminho_4454" data-name="Caminho 4454" d="M1071,239h25.453v22.839H1071Zm0,0" transform="translate(-1071 -239)"/>
    </clipPath>
    <clipPath id="clip-path-3">
      <path id="Caminho_4457" data-name="Caminho 4457" d="M1023,196.707h10.905v24.545H1023Zm0,0" transform="translate(-1023 -196.707)"/>
    </clipPath>
    <clipPath id="clip-path-4">
      <path id="Caminho_4554" data-name="Caminho 4554" d="M309.863,421.687H330.7v20.678H309.863Zm0,0" transform="translate(-309.863 -421.687)"/>
    </clipPath>
  </defs>
  <g id="_1" data-name="1" transform="translate(-309.863 -196.707)">
    <g id="Grupo_10394" data-name="Grupo 10394" transform="translate(461.738 232.157)" clip-path="url(#clip-path)">
      <path id="Caminho_4450" data-name="Caminho 4450" d="M1053.144,369.59c-5.807,2.378-4.636,11.906-2.62,16.794,2.738,6.578,7.564,6.943,10,13.171,3.029-6.9,4.816-13.621,2.3-19.772C1060.245,373.214,1057.112,369.167,1053.144,369.59Zm0,0" transform="translate(-1048.695 -369.445)" fill="#92cf34" fill-rule="evenodd"/>
    </g>
    <path id="Caminho_4452" data-name="Caminho 4452" d="M930.069,300.213c.06,1.813-6.47,2.5-10.313,3.593-12.454,3.633-14.788-4.237-19.643-6.9,5.038-1.845,7.77-6.458,15.118-5.7C922.352,291.7,927.7,294.4,930.069,300.213Zm0,0" transform="translate(-468.803 -74.986)" fill="#92cf34" fill-rule="evenodd"/>
    <g id="Grupo_10395" data-name="Grupo 10395" transform="translate(466.471 205.409)" clip-path="url(#clip-path-2)">
      <path id="Caminho_4453" data-name="Caminho 4453" d="M1072.549,260.489c.608,3.655,7.869.292,15.15-3.394,8.551-4.356,6.185-11.733,9.237-17.56-5.221,2.163-10.558-.7-15.41,3.626C1075.106,249.038,1069.38,259.893,1072.549,260.489Zm0,0" transform="translate(-1071.516 -239.425)" fill="#92cf34" fill-rule="evenodd"/>
    </g>
    <path id="Caminho_4455" data-name="Caminho 4455" d="M1094.078,351.918c1.292.4,1.629,1.657,2.555,2.7,3.286,2.825,7.215,3.053,11.771,1.016a21.808,21.808,0,0,0,3.339-2.355,10.07,10.07,0,0,0-7.493-2.495c-3.13.147-2.814-1.068-7.251.4C1095.995,351.456,1095.051,352.139,1094.078,351.918Zm0,0" transform="translate(-622.859 -122.111)" fill="#92cf34" fill-rule="evenodd"/>
    <g id="Grupo_10396" data-name="Grupo 10396" transform="translate(456.594 196.707)" clip-path="url(#clip-path-3)">
      <path id="Caminho_4456" data-name="Caminho 4456" d="M1030.714,220.961c-2.485-1.05-4.941-1.194-7.238-9.719-.91-6.962,2.712-9.878,4.058-14.652,2.128,4.321,6.223,5.957,6.458,13.209C1034.7,218.808,1031.657,218.877,1030.714,220.961Zm0,0" transform="translate(-1023.263 -196.614)" fill="#92cf34" fill-rule="evenodd"/>
    </g>
    <path id="Caminho_4458" data-name="Caminho 4458" d="M991.389,358.6c.3,1.909,1.2,3.445-2.926,7.892-3.621,2.913-6.75,1.662-10.084,2.455,1.723-2.779,1.086-5.943,5.178-8.5C988.535,356.792,989.817,358.759,991.389,358.6Zm0,0" transform="translate(-530.966 -128.275)" fill="#92cf34" fill-rule="evenodd"/>
    <g id="Grupo_10399" data-name="Grupo 10399" transform="translate(333.243 242.685)">
      <g id="Grupo_10398" data-name="Grupo 10398" transform="translate(0 0)">
        <g id="Grupo_10397" data-name="Grupo 10397" transform="translate(0)">
          <path id="Caminho_4459" data-name="Caminho 4459" d="M5.727-91.643a10.663,10.663,0,0,0,10.9,10.755c5.6,0,8.25-3.241,8.25-3.241l-3.536-5.6a6.524,6.524,0,0,1-3.831,1.621,3.4,3.4,0,0,1-3.536-3.536,3.4,3.4,0,0,1,3.536-3.536,6.525,6.525,0,0,1,3.831,1.62l3.536-5.6s-2.652-3.241-8.25-3.241A10.663,10.663,0,0,0,5.727-91.643Zm0,0" transform="translate(-5.727 102.398)"/>
        </g>
      </g>
    </g>
    <g id="Grupo_10402" data-name="Grupo 10402" transform="translate(355.753 243.127)">
      <g id="Grupo_10401" data-name="Grupo 10401" transform="translate(0 0)">
        <g id="Grupo_10400" data-name="Grupo 10400" transform="translate(0)">
          <path id="Caminho_4460" data-name="Caminho 4460" d="M16.255-100.25H8.594v20.627h7.661Zm0,0" transform="translate(-8.594 100.25)"/>
        </g>
      </g>
    </g>
    <g id="Grupo_10405" data-name="Grupo 10405" transform="translate(367.952 243.127)">
      <g id="Grupo_10404" data-name="Grupo 10404" transform="translate(0 0)">
        <g id="Grupo_10403" data-name="Grupo 10403" transform="translate(0)">
          <path id="Caminho_4461" data-name="Caminho 4461" d="M16.255-100.25H8.594v20.627h7.661Zm0,0" transform="translate(-8.594 100.25)"/>
        </g>
      </g>
    </g>
    <g id="Grupo_10408" data-name="Grupo 10408" transform="translate(378.971 243.127)">
      <g id="Grupo_10407" data-name="Grupo 10407" transform="translate(0 0)">
        <g id="Grupo_10406" data-name="Grupo 10406" transform="translate(0)">
          <path id="Caminho_4462" data-name="Caminho 4462" d="M2.863-100.25v6.778h5.6v13.849h7.661V-93.472h5.6v-6.778Zm0,0" transform="translate(-2.863 100.25)"/>
        </g>
      </g>
    </g>
    <g id="Grupo_10411" data-name="Grupo 10411" transform="translate(400.009 243.127)">
      <g id="Grupo_10410" data-name="Grupo 10410" transform="translate(0 0)">
        <g id="Grupo_10409" data-name="Grupo 10409" transform="translate(0)">
          <path id="Caminho_4463" data-name="Caminho 4463" d="M2.863-100.25v6.778h5.6v13.849h7.661V-93.472h5.6v-6.778Zm0,0" transform="translate(-2.863 100.25)"/>
        </g>
      </g>
    </g>
    <g id="Grupo_10414" data-name="Grupo 10414" transform="translate(420.753 243.127)">
      <g id="Grupo_10413" data-name="Grupo 10413" transform="translate(0 0)">
        <g id="Grupo_10412" data-name="Grupo 10412" transform="translate(0)">
          <path id="Caminho_4464" data-name="Caminho 4464" d="M17.493-100.25H7.474L1.434-79.623H9.979l.589-2.946H14.4l.589,2.946h8.545S17.522-100.132,17.493-100.25ZM11.452-87.284l1.031-5.3,1.031,5.3Zm0,0" transform="translate(-1.434 100.25)"/>
        </g>
      </g>
    </g>
    <g id="Grupo_10417" data-name="Grupo 10417" transform="translate(444.442 243.127)">
      <g id="Grupo_10416" data-name="Grupo 10416" transform="translate(0 0)">
        <g id="Grupo_10415" data-name="Grupo 10415" transform="translate(0)">
          <path id="Caminho_4465" data-name="Caminho 4465" d="M17.493-100.25H7.474L1.434-79.623H9.979l.589-2.946H14.4l.589,2.946h8.545S17.522-100.132,17.493-100.25ZM11.452-87.284l1.031-5.3,1.031,5.3Zm0,0" transform="translate(-1.434 100.25)" fill="#92cf34"/>
        </g>
      </g>
    </g>
    <path id="Caminho_4548" data-name="Caminho 4548" d="M323.244,436.54a.591.591,0,0,1-.121-.014.114.114,0,0,1-.059-.188c.059-.065.121-.128.18-.19a.116.116,0,0,1,.082-.035l.022,0a.113.113,0,0,1,.084.068.328.328,0,0,1,.025.129.473.473,0,0,1-.022.138.111.111,0,0,1-.087.079.513.513,0,0,1-.1.01" transform="translate(-10.461 -190.147)" fill="#fff"/>
    <path id="Caminho_4549" data-name="Caminho 4549" d="M393.615,433.957a.121.121,0,0,1-.047-.01,1.27,1.27,0,0,1-.28-.159.644.644,0,0,1-.213-.312,0,0,0,0,0,0,0h.015a.114.114,0,0,0,.106-.071.12.12,0,0,0,0-.075.114.114,0,0,1,.059.028c.149.131.295.265.436.406a.114.114,0,0,1-.08.194m-.432-.515-.075.085.075-.085" transform="translate(-66.09 -187.935)" fill="#fff"/>
    <path id="Caminho_4550" data-name="Caminho 4550" d="M394.758,439.778h0a.216.216,0,0,1-.063-.008.062.062,0,0,1-.042-.028.123.123,0,0,1-.018-.051l.007,0a2,2,0,0,1,.2-.047,2.72,2.72,0,0,0,.37-.089.6.6,0,0,0,.165-.087l.007,0,.078.092a.834.834,0,0,1-.1.021.964.964,0,0,0-.194.046h0a.567.567,0,0,0-.073.037c-.036.021-.074.046-.106.065l-.04.023-.01,0a.882.882,0,0,1-.182.027m.186-.027h0" transform="translate(-67.328 -192.806)"/>
    <path id="Caminho_4551" data-name="Caminho 4551" d="M393.863,438.854a.44.44,0,0,1-.142-.022.291.291,0,0,1-.131-.086.307.307,0,0,1-.056-.1.474.474,0,0,1-.026-.162.221.221,0,0,1,0-.023.114.114,0,0,1,.055-.094.564.564,0,0,1,.153-.059c.055-.015.114-.027.174-.039a2.76,2.76,0,0,0,.339-.079.348.348,0,0,0,.127-.067.066.066,0,0,0,.017-.027.113.113,0,0,1,.084-.084.1.1,0,0,1,.027,0,.116.116,0,0,1,.086.039c.091.105.18.211.268.32a.114.114,0,0,1,.023.092.111.111,0,0,1-.054.078.9.9,0,0,1-.1.054h0a.808.808,0,0,1-.2.055.72.72,0,0,0-.148.034.551.551,0,0,0-.06.033l-.092.057c-.021.012-.04.023-.06.033a.183.183,0,0,1-.043.015h0a1.112,1.112,0,0,1-.24.033m0-.227h0a.884.884,0,0,0,.182-.027l.01,0,.04-.023c.032-.019.07-.044.106-.065a.568.568,0,0,1,.073-.037h0a.959.959,0,0,1,.194-.046.828.828,0,0,0,.1-.021l-.078-.092-.007,0a.6.6,0,0,1-.165.087,2.718,2.718,0,0,1-.37.089,2,2,0,0,0-.2.047l-.007,0a.123.123,0,0,0,.018.051.062.062,0,0,0,.042.028.216.216,0,0,0,.063.008h0m.188-.027h0" transform="translate(-66.434 -191.655)" fill="#fff"/>
    <path id="Caminho_4552" data-name="Caminho 4552" d="M321.158,443.227a10.189,10.189,0,0,1-9.433-14.04.525.525,0,0,0,.051.163.255.255,0,0,0,.232.141h0a.427.427,0,0,0,.12-.019.113.113,0,0,0,.08-.128.567.567,0,0,1-.007-.083.218.218,0,0,1,.017-.094.14.14,0,0,1,.02.017.355.355,0,0,1,.049.072.282.282,0,0,1,.027.093.826.826,0,0,1,.006.123v.066a1.093,1.093,0,0,0,.01.173.538.538,0,0,0,.065.187,1.164,1.164,0,0,0,.231.269.787.787,0,0,1,.092.1.447.447,0,0,1,.064.115,1.421,1.421,0,0,1,.059.257c.014.1.026.2.039.292a1.752,1.752,0,0,0,.207.618c.094.173.2.328.319.531a2.036,2.036,0,0,1,.106.256,4.168,4.168,0,0,0,.224.539.9.9,0,0,0,.162.224.441.441,0,0,0,.109.077.32.32,0,0,0,.136.031h0a.308.308,0,0,0,.1-.015.113.113,0,0,0,.074-.144,1.425,1.425,0,0,1-.06-.248.785.785,0,0,1,.075.123c.038.073.069.153.1.221a.844.844,0,0,0,.271.338,1.284,1.284,0,0,1,.169.156.516.516,0,0,1,.09.135c.011.026.019.05.032.081a.262.262,0,0,0,.049.078.232.232,0,0,0,.068.047.4.4,0,0,0,.125.036,1.664,1.664,0,0,0,.179.018c.072,0,.143.006.214.006.132,0,.261,0,.387,0h0l.115,0a1.024,1.024,0,0,0,.306.359,1.294,1.294,0,0,0,.476.236c.144.034.269.043.347.055l.015,0-.012.018c-.026.036-.068.086-.124.149a3.072,3.072,0,0,0-.268.316.779.779,0,0,0-.151.444.748.748,0,0,0,.027.2,1.242,1.242,0,0,0,.1.241,3.688,3.688,0,0,0,.263.421c.048.068.1.132.144.187a1.133,1.133,0,0,0,.136.14,2.509,2.509,0,0,0,.235.171.989.989,0,0,1,.244.2.506.506,0,0,1,.076.133.928.928,0,0,1,.05.211,1,1,0,0,1,.006.111,1.918,1.918,0,0,1-.059.415c-.032.145-.071.294-.092.446-.046.347-.117.675-.177,1.014a6.006,6.006,0,0,0-.11,1.075c0,.125,0,.233,0,.335a1.171,1.171,0,0,0,.055.408,1,1,0,0,0,.27.388,1.781,1.781,0,0,0,.281.217,1.008,1.008,0,0,0,.157.081.463.463,0,0,0,.165.035.249.249,0,0,0,.1-.018.228.228,0,0,0,.118-.11.372.372,0,0,0,.033-.166.678.678,0,0,0-.009-.11.251.251,0,0,0-.042-.1c-.026-.038-.053-.068-.075-.1a.249.249,0,0,1-.039-.064.33.33,0,0,1-.007-.08c0-.066.009-.146.012-.209,0-.046,0-.105.008-.162a.634.634,0,0,1,.022-.136.222.222,0,0,1,.043-.066,1.735,1.735,0,0,1,.133-.131.676.676,0,0,0,.068-.069.365.365,0,0,0,.031-.043.2.2,0,0,0,.023-.061v0a.214.214,0,0,0,0-.033.2.2,0,0,0-.016-.08.229.229,0,0,0-.07-.088.823.823,0,0,0-.072-.05.193.193,0,0,1,.008-.038.035.035,0,0,1,.008-.014.86.86,0,0,0,.114-.164c.069-.132.133-.265.2-.394.031,0,.059,0,.086,0a.58.58,0,0,0,.161-.018.3.3,0,0,0,.109-.055.3.3,0,0,0,.1-.158.758.758,0,0,0,.023-.185.469.469,0,0,0,.078-.026.593.593,0,0,0,.234-.2,3.692,3.692,0,0,0,.2-.338.443.443,0,0,1,.073-.1.126.126,0,0,1,.026-.017.048.048,0,0,1,.019,0l.014,0a.084.084,0,0,0,.02,0,.112.112,0,0,0,.071-.024.115.115,0,0,0,.043-.084c0-.1,0-.177,0-.241a1.056,1.056,0,0,1,.007-.117.2.2,0,0,1,.043-.1.5.5,0,0,1,.158-.113,2.01,2.01,0,0,1,.219-.095,1.082,1.082,0,0,0,.326-.172.584.584,0,0,0,.131-.164.86.86,0,0,0,.095-.4c0-.056,0-.106,0-.15a.436.436,0,0,1,.01-.105.3.3,0,0,1,.044-.1.194.194,0,0,1,.051-.055c.031-.025.079-.05.134-.095a.482.482,0,0,0,.148-.208.737.737,0,0,0-.055-.661,1.039,1.039,0,0,0-.272-.294,4.678,4.678,0,0,0-.747-.452h0a7.359,7.359,0,0,1-.706-.4.7.7,0,0,0-.216-.079,1.553,1.553,0,0,0-.283-.018.755.755,0,0,1-.244-.035.9.9,0,0,1-.325-.212.765.765,0,0,0-.169-.117.553.553,0,0,0-.244-.053h0c-.018,0-.035,0-.054,0v-.037a.5.5,0,0,0-.033-.207.2.2,0,0,0-.047-.066.369.369,0,0,1,.051,0h0a.5.5,0,0,1,.144.022,1.108,1.108,0,0,1,.244.129,1.423,1.423,0,0,0,.3.157.115.115,0,0,0,.036.006h.036a.113.113,0,0,0,.112-.1.5.5,0,0,0,0-.069.845.845,0,0,0-.01-.132.115.115,0,0,0-.049-.079,3.432,3.432,0,0,0-.469-.272,1.284,1.284,0,0,0-.539-.131.952.952,0,0,0-.216.024.9.9,0,0,1-.009-.1c0-.059,0-.125,0-.191a.9.9,0,0,0-.018-.151.469.469,0,0,0-.041-.113.341.341,0,0,0-.139-.141.505.505,0,0,0-.223-.053h0a.112.112,0,0,0-.084.037.114.114,0,0,0-.029.089.425.425,0,0,1,0,.047c0,.052-.008.116-.011.185-.046,0-.1,0-.152,0l-.055,0a.467.467,0,0,0,.043-.2,1,1,0,0,0-.046-.265.777.777,0,0,1-.038-.2.22.22,0,0,1,.012-.078.247.247,0,0,1,.05-.077.538.538,0,0,1,.178-.11,1.019,1.019,0,0,0,.122-.065.474.474,0,0,0,.121-.111.847.847,0,0,0,.13-.3.789.789,0,0,1,.039-.113.279.279,0,0,1,.06-.085.322.322,0,0,1,.082-.056c.051-.028.117-.054.185-.092a.539.539,0,0,0,.2-.174.512.512,0,0,0,.059-.131c.019-.066.029-.129.041-.186a.349.349,0,0,1,.165-.257c.089-.071.209-.145.316-.235a.837.837,0,0,0,.146-.15.481.481,0,0,0,.064-.121c.027,0,.06-.007.1-.01.1-.01.231-.014.35-.036a.7.7,0,0,0,.172-.051.317.317,0,0,0,.142-.122h0a.2.2,0,0,0,.024-.1.518.518,0,0,0-.013-.1,2.051,2.051,0,0,0-.143-.394c-.031-.066-.063-.127-.092-.178-.015-.025-.03-.048-.045-.069a.31.31,0,0,0-.052-.057h0a.528.528,0,0,0-.223-.113.874.874,0,0,0-.119-.014.236.236,0,0,1-.04-.006l-.009,0a.1.1,0,0,1-.026-.037.663.663,0,0,1-.046-.131,1.561,1.561,0,0,1-.035-.186,1.126,1.126,0,0,0-.027-.137.391.391,0,0,0-.129-.2.488.488,0,0,0-.117-.07l.016-.012a.118.118,0,0,0,.039-.081c0-.068,0-.138,0-.207s0-.149,0-.223a.113.113,0,0,0-.109-.109.2.2,0,0,1-.1-.027.187.187,0,0,1-.061-.066.28.28,0,0,0,.113.025h0a.281.281,0,0,0,.159-.051.427.427,0,0,0,.146-.19.652.652,0,0,0,.051-.252.6.6,0,0,0-.105-.344.589.589,0,0,0-.255-.2,1.358,1.358,0,0,1,.052-.164.969.969,0,0,0,.07-.316.54.54,0,0,0,0-.063.113.113,0,0,0-.072-.092,1.142,1.142,0,0,0-.254-.063,2.165,2.165,0,0,1-.314-.054.443.443,0,0,1-.122-.06.457.457,0,0,1-.113-.113.65.65,0,0,1-.08-.169,3.493,3.493,0,0,0-.127-.352.7.7,0,0,0-.08-.129.115.115,0,0,0,.02-.1.113.113,0,0,0-.11-.086h-.012l-.232.023h0a.6.6,0,0,0-.134.015l-.006,0c-.152,0-.322-.017-.473-.017a1.19,1.19,0,0,0-.24.019.443.443,0,0,0-.106.035.258.258,0,0,0-.093.076.519.519,0,0,0-.089.31,1.067,1.067,0,0,0,.143.506.875.875,0,0,0,.158.2.581.581,0,0,0,.1.072.147.147,0,0,0-.02.019.115.115,0,0,0-.023.084c0,.017,0,.033,0,.049a.373.373,0,0,1-.05.189l-.031-.017a1.153,1.153,0,0,1-.179-.131.7.7,0,0,1-.118-.129.621.621,0,0,1-.063-.149c-.028-.089-.048-.189-.082-.279a.42.42,0,0,0-.076-.13.242.242,0,0,0-.07-.051.208.208,0,0,0-.091-.02h0a.288.288,0,0,0-.14.039.736.736,0,0,0-.137.1h0a.57.57,0,0,0-.143.2,2.591,2.591,0,0,0-.094.3.627.627,0,0,1-.043.11.228.228,0,0,1-.057.072.55.55,0,0,1-.221.094,1.381,1.381,0,0,1-.295.032l.034-.019a.869.869,0,0,0,.174-.106.323.323,0,0,0,.079-.1.34.34,0,0,0,.034-.141V425.5a.3.3,0,0,0-.035-.131.757.757,0,0,0-.117-.164c-.019-.022-.04-.044-.062-.066a10.154,10.154,0,0,1,3.262-1.786l.012.024a.332.332,0,0,0,.1.1.971.971,0,0,0,.163.086,1.193,1.193,0,0,0,.4.068,1.1,1.1,0,0,1,.512.105.435.435,0,0,1,.08.046.179.179,0,0,1,.06.07.3.3,0,0,1,.021.124.9.9,0,0,1-.01.121.468.468,0,0,1-.017.066c-.013.043-.031.1-.047.152a.642.642,0,0,0-.031.178.287.287,0,0,0,.012.088.216.216,0,0,0,.1.121.3.3,0,0,0,.143.039c-.007.12-.015.28-.015.449a2.622,2.622,0,0,0,.056.6.768.768,0,0,0,.1.247.386.386,0,0,0,.088.1.321.321,0,0,0,.039.026,5.209,5.209,0,0,0,.185,1.194,1.234,1.234,0,0,0,.161.371.647.647,0,0,0,.353.252.463.463,0,0,0,.141.021h0c.077,0,.133-.014.164-.014h0a.065.065,0,0,1,.041.01.263.263,0,0,1,.072.088.113.113,0,0,0,.1.055.111.111,0,0,0,.032,0,.115.115,0,0,0,.082-.113c0-.019,0-.04,0-.063a3,3,0,0,1,.043-.485,1.743,1.743,0,0,1,.056-.237.655.655,0,0,1,.075-.163,1.476,1.476,0,0,1,.493-.379,3.141,3.141,0,0,0,.6-.383,5.312,5.312,0,0,0,.4-.379,1.141,1.141,0,0,0,.166-.24.707.707,0,0,0,.077-.292c0-.016,0-.031,0-.047a2.009,2.009,0,0,0-.045-.392,1.653,1.653,0,0,1-.041-.3.6.6,0,0,1,.026-.177.808.808,0,0,1,.1-.2c.058-.091.108-.162.153-.227a1.11,1.11,0,0,0,.154-.3,1.457,1.457,0,0,0,.048-.429c0-.068.006-.148.01-.232a10.149,10.149,0,0,1,4.073,1.943.486.486,0,0,0-.088.013.461.461,0,0,0-.119.055c-.055.035-.112.077-.162.115a1.246,1.246,0,0,1-.121.083h0a.8.8,0,0,1-.16.055.543.543,0,0,0-.105.043.587.587,0,0,0-.119.086.38.38,0,0,0-.092.131c-.014.031-.022.059-.029.08a.343.343,0,0,1-.013.036l0,.006-.017,0h0a.438.438,0,0,1-.093-.014.107.107,0,0,0-.027,0,.11.11,0,0,0-.068.023.112.112,0,0,0-.046.086,2.279,2.279,0,0,1-.023.345.417.417,0,0,1-.045.122.64.64,0,0,1-.1.135c-.075.079-.152.138-.232.209a1,1,0,0,0-.232.279c-.018.033-.055.09-.1.157-.065.1-.146.226-.212.344-.034.059-.064.117-.088.171a.542.542,0,0,0-.048.158h0c0,.01,0,.018,0,.027a.5.5,0,0,0,.051.2,1.027,1.027,0,0,0,.19.279.619.619,0,0,0,.129.105.31.31,0,0,0,.162.05h.017a.113.113,0,0,0,.1-.077.553.553,0,0,1,.077-.159l.013-.017a.652.652,0,0,0,.037.061c.059.087.123.156.167.219a.44.44,0,0,1,.045.076c-.027-.021-.058-.048-.087-.075a.81.81,0,0,0-.062-.053.2.2,0,0,0-.041-.025.153.153,0,0,0-.068-.017.161.161,0,0,0-.043.006.288.288,0,0,0-.064.031.189.189,0,0,0-.07.083.2.2,0,0,0-.018.087.579.579,0,0,0,.008.079.373.373,0,0,1,.006.047.03.03,0,0,1,0,.014c-.03.071-.049.125-.064.166a.587.587,0,0,1-.031.068.187.187,0,0,1-.06.063,1.342,1.342,0,0,1-.184.1c-.08.039-.137.066-.186.091a.615.615,0,0,0-.095.059.357.357,0,0,0-.058.058.578.578,0,0,0-.064.1c-.019.039-.04.083-.069.141-.051.106-.087.2-.121.252a.147.147,0,0,1-.041.048.065.065,0,0,1-.04.011h0a.4.4,0,0,1-.157-.047.114.114,0,0,0-.048-.011.117.117,0,0,0-.107.074.542.542,0,0,0-.027.187c0,.049,0,.1,0,.138a.6.6,0,0,1,0,.083.138.138,0,0,1-.014.049h0a.237.237,0,0,1-.037.051.078.078,0,0,1-.036.021.287.287,0,0,1-.06,0h-.013a.582.582,0,0,0-.109.009.3.3,0,0,0-.134.066.572.572,0,0,0-.157.2.544.544,0,0,0-.046.224,1.069,1.069,0,0,0,.087.383c.047.117.1.223.124.305a.113.113,0,0,0,.076.074.49.49,0,0,0,.121.02h0a.236.236,0,0,0,.108-.026.252.252,0,0,0,.06-.043.619.619,0,0,0,.054-.062.372.372,0,0,1,.044-.049.276.276,0,0,0,.066-.1c.019-.049.029-.093.041-.125a.191.191,0,0,1,.017-.038.06.06,0,0,1,.009-.012l.024-.007c.024-.006.058-.011.093-.018l.053-.013a.318.318,0,0,0,.057-.022h0a2.09,2.09,0,0,0,.375-.27,1.7,1.7,0,0,1,.312-.229.6.6,0,0,1,.272-.068.576.576,0,0,1,.276.074.942.942,0,0,1,.247.2h0a.762.762,0,0,1,.1.16,1.237,1.237,0,0,0,.111.186.274.274,0,0,1,.01.031,1.051,1.051,0,0,0,.03.1.25.25,0,0,0,.032.063.17.17,0,0,0,.079.063.26.26,0,0,0,.09.018h0a.189.189,0,0,0,.083-.019.191.191,0,0,0,.055-.044.234.234,0,0,0,.043-.078.288.288,0,0,0,.009-.029.411.411,0,0,1,.083.01.1.1,0,0,1,.034.014l.006.009a.174.174,0,0,1,.015.063,1.109,1.109,0,0,0,.042.215.556.556,0,0,0,.195.261.582.582,0,0,0,.092.062.235.235,0,0,0,.11.029h0a.193.193,0,0,0,.106-.034.319.319,0,0,0,.092-.113,1.427,1.427,0,0,0,.065-.149c.017-.043.029-.077.038-.108a.3.3,0,0,0,.014-.088.177.177,0,0,0-.012-.064.162.162,0,0,0-.031-.048.262.262,0,0,0-.043-.034c-.011-.007-.011-.007-.016-.014a.172.172,0,0,1-.024-.062c-.008-.035-.021-.075-.031-.118a.544.544,0,0,1-.018-.122.162.162,0,0,1,0-.044.043.043,0,0,1,.016-.027.111.111,0,0,1,.065-.018l.01,0a.228.228,0,0,1,.064.058,1.208,1.208,0,0,1,.119.183c.018.034.036.067.053.1s.032.058.049.083c.034.048.077.1.117.152a.64.64,0,0,1,.082.125h0c.02.051.035.088.043.113s.006.022.008.027v0c0,.007-.015.024-.033.049s-.031.047-.051.08a.364.364,0,0,0-.16.035.635.635,0,0,0-.145.106.254.254,0,0,1-.1.06l-.091.024a.206.206,0,0,1-.038.006h0l-.012,0c-.017,0-.068-.028-.17-.067a.712.712,0,0,1-.15-.082.442.442,0,0,0-.093-.043.407.407,0,0,0-.125-.018h0a.764.764,0,0,0-.107.009.507.507,0,0,0-.15.047c-.063.031-.114.066-.158.088a.242.242,0,0,1-.118.035l-.019,0a.273.273,0,0,1-.158-.08,1.572,1.572,0,0,1-.244-.326,1.674,1.674,0,0,0-.27-.36,1.007,1.007,0,0,0-.219-.154.462.462,0,0,0-.207-.052h0a.426.426,0,0,0-.179.042,1.033,1.033,0,0,0-.215.148c-.068.055-.137.114-.218.168a2.924,2.924,0,0,1-.474.233,2.637,2.637,0,0,0-.512.266,2.751,2.751,0,0,0-.237.17.452.452,0,0,0-.092.117.813.813,0,0,0-.066.162.6.6,0,0,0-.024.174c0,.063.006.113.006.152a.236.236,0,0,1-.006.059.141.141,0,0,1-.026.048.721.721,0,0,1-.143.13,3.043,3.043,0,0,0-.263.19.5.5,0,0,0-.111.141.41.41,0,0,0-.047.194.735.735,0,0,0,.072.295.266.266,0,0,0,.086.108.405.405,0,0,0,.063.039.193.193,0,0,1,.047.028.088.088,0,0,1,.024.044.28.28,0,0,1,.013.086.744.744,0,0,1-.01.1.873.873,0,0,0-.012.133.443.443,0,0,0,.043.195,1.883,1.883,0,0,0,.323.465,1.426,1.426,0,0,0,.23.2.647.647,0,0,0,.264.113.557.557,0,0,0,.1.008h0a.88.88,0,0,0,.279-.052,3.7,3.7,0,0,0,.354-.159.718.718,0,0,1,.272-.082h0a.22.22,0,0,1,.1.024.547.547,0,0,1,.076.052c.052.041.115.1.174.15s.114.1.154.139.082.073.1.092a.121.121,0,0,1,.021.028.085.085,0,0,1,.007.018c.008.027.018.093.051.2h0a1.682,1.682,0,0,1,.053.448,2.237,2.237,0,0,0,.053.512.662.662,0,0,0,.1.214.807.807,0,0,1,.091.162.818.818,0,0,1,.038.3v.018a1.328,1.328,0,0,0,.019.268,1.733,1.733,0,0,0,.254.559,4.227,4.227,0,0,1,.29.5,2.425,2.425,0,0,0,.166.35.449.449,0,0,0,.132.135.361.361,0,0,0,.2.055h0a.763.763,0,0,0,.34-.1.608.608,0,0,0,.139-.093.722.722,0,0,0,.121-.151.752.752,0,0,1,.094-.127.626.626,0,0,1,.193-.133,1.138,1.138,0,0,0,.255-.152,1.27,1.27,0,0,0,.361-.478,1.651,1.651,0,0,0,.125-.531c.006-.063.006-.111.008-.149a.483.483,0,0,1,.006-.064.141.141,0,0,1,.024-.059.633.633,0,0,1,.1-.1.291.291,0,0,1,.083-.051,1.647,1.647,0,0,0,.181-.084.382.382,0,0,0,.1-.085.372.372,0,0,0,.067-.133.485.485,0,0,0,.019-.137,1.168,1.168,0,0,0-.077-.353,1,1,0,0,1-.065-.3.411.411,0,0,1,.018-.123,1.385,1.385,0,0,1,.3-.454c.134-.154.285-.3.4-.456.014-.02.028-.043.044-.072a3.83,3.83,0,0,0,.2-.435,2.586,2.586,0,0,0,.088-.253.877.877,0,0,0,.039-.228.305.305,0,0,0-.008-.075.194.194,0,0,0-.036-.078l-.01-.013a2.741,2.741,0,0,0,.342-.169,1.384,1.384,0,0,0,.3-.227.591.591,0,0,0,.1-.141.379.379,0,0,0,.043-.172.345.345,0,0,0-.031-.142.432.432,0,0,0-.113-.145l-.012-.01c.017.01.034.018.051.026.116.054.23.089.366.144l.043-.106-.043.106c.072.028.121.049.153.065l.022.013a10.187,10.187,0,0,1-10.188,10.159m-1.855-2.381a.382.382,0,0,0-.234.08.3.3,0,0,0-.084.112.357.357,0,0,0-.029.144.533.533,0,0,0,.02.137.112.112,0,0,0,.064.075.118.118,0,0,0,.047.01.112.112,0,0,0,.052-.013.137.137,0,0,1,.028-.01l.03-.007a.247.247,0,0,0,.079-.034l.022-.015.072.015.029.008.009,0a.115.115,0,0,0,.062.018.1.1,0,0,0,.035-.006.113.113,0,0,0,.072-.068.618.618,0,0,0,.045-.21.322.322,0,0,0-.158-.281.112.112,0,0,0-.137.012.091.091,0,0,0-.023.029m9.833-3.633a1.052,1.052,0,0,0-.034.161,1.5,1.5,0,0,0-.015.2.782.782,0,0,0,.055.313.33.33,0,0,0,.1.133.277.277,0,0,0,.17.057h.022a.341.341,0,0,0,.146-.04.374.374,0,0,0,.158-.178.961.961,0,0,0,.072-.32c0-.051.006-.1.008-.142s0-.077.007-.1l-.113-.014.113.014a1.221,1.221,0,0,1,.1-.293,1,1,0,0,0,.089-.366.569.569,0,0,0-.006-.089.115.115,0,0,0-.092-.094.091.091,0,0,0-.021,0,.113.113,0,0,0-.1.055l-.092.154c-.11.065-.214.113-.313.185a.659.659,0,0,0-.145.146.738.738,0,0,0-.105.217h0m-5.31-8.762-.072.036a.113.113,0,0,0-.062.12.272.272,0,0,1,0,.039,1.027,1.027,0,0,1-.056.268c-.015.048-.031.1-.043.141a.532.532,0,0,0-.023.133.218.218,0,0,0,.006.049.147.147,0,0,0,.053.084.145.145,0,0,0,.049.026.176.176,0,0,0,.047.007.292.292,0,0,0,.1-.023.99.99,0,0,0,.1-.053.779.779,0,0,0,.2-.161.338.338,0,0,0,.056-.092.279.279,0,0,0,.019-.1.314.314,0,0,0-.035-.137.865.865,0,0,0-.1-.156,1.388,1.388,0,0,1-.1-.137.113.113,0,0,0-.149-.044m-1.206-1.539a.507.507,0,0,0-.054.074.3.3,0,0,0-.046.154.26.26,0,0,0,.063.169.467.467,0,0,0,.211.129.87.87,0,0,0,.255.039.767.767,0,0,0,.166-.018.471.471,0,0,0,.151-.063.679.679,0,0,0,.063-.051,1.857,1.857,0,0,0,.255-.3,1.328,1.328,0,0,0,.106-.188.5.5,0,0,0,.049-.2.274.274,0,0,0-.017-.1.233.233,0,0,0-.1-.119.278.278,0,0,0-.072-.029.114.114,0,0,0-.08-.048.879.879,0,0,0-.092-.006.54.54,0,0,0-.266.063.344.344,0,0,0-.111.1.256.256,0,0,0-.036.067h-.018a.309.309,0,0,1-.135-.032.445.445,0,0,1-.119-.086.113.113,0,0,0-.08-.033.1.1,0,0,0-.027,0,.114.114,0,0,0-.082.076.6.6,0,0,0-.027.174.561.561,0,0,0,.045.221m-5.356,7.269a.211.211,0,0,1-.133-.043.453.453,0,0,1-.137-.223,1.493,1.493,0,0,1-.06-.351.113.113,0,0,0-.083-.1.137.137,0,0,1-.062-.036.4.4,0,0,1-.084-.161c-.018-.055-.033-.119-.05-.184a.969.969,0,0,0-.115-.292.378.378,0,0,0-.125-.117.37.37,0,0,0-.182-.046h0a.492.492,0,0,0-.059,0,.113.113,0,0,0-.1.11.783.783,0,0,1-.141.4.286.286,0,0,1-.071.068.1.1,0,0,1-.059.019.172.172,0,0,1-.112-.055.245.245,0,0,1-.065-.129.972.972,0,0,1-.021-.22c0-.08.006-.161.01-.233.124-.031.252-.059.386-.1a2.2,2.2,0,0,0,.248-.111c.039-.019.075-.037.1-.048l.035-.011.009,0h0a.3.3,0,0,1,.1.016.2.2,0,0,1,.1.08,2.762,2.762,0,0,1,.123.255.58.58,0,0,0,.105.145.43.43,0,0,0,.092.066l-.021.023-.02.029a.211.211,0,0,0-.035,0h0a.116.116,0,0,0-.084.037.117.117,0,0,0-.029.092.333.333,0,0,0,.081.181.448.448,0,0,0,.1.078c.049.029.1.049.134.071a.3.3,0,0,1,.093.072l0,0v0a.309.309,0,0,1,0,.033.413.413,0,0,0-.006.065.221.221,0,0,0,.024.1.259.259,0,0,0,.083.092.22.22,0,0,0,.061.029.39.39,0,0,0,.085.015c.028,0,.058,0,.088,0a1.808,1.808,0,0,0,.252-.019,1.245,1.245,0,0,0,.185-.046c-.07.068-.141.144-.207.211-.036.037-.07.071-.1.1a.46.46,0,0,1-.072.054.551.551,0,0,1-.252.078m12.369-.15a.1.1,0,0,1-.028-.01.424.424,0,0,1-.09-.076l-.023-.025a.646.646,0,0,0,.186.028h0l-.031.056a.227.227,0,0,1-.016.027m-.687-.527a2.764,2.764,0,0,1-.44-.326.813.813,0,0,1-.166-.223.616.616,0,0,1-.061-.273.975.975,0,0,1,.055-.305c0,.01.007.021.011.033.01.039.022.088.042.146.042.123.064.216.1.314a1.113,1.113,0,0,0,.195.313c.08.093.166.209.262.322m1.644-.786c-.032-.016-.064-.031-.1-.045a3.51,3.51,0,0,1-.41-.186.408.408,0,0,1-.119-.1.186.186,0,0,1-.037-.1c.024,0,.045,0,.065,0a.343.343,0,0,1,.122.02.45.45,0,0,1,.145.1c.052.052.113.122.195.2a1.4,1.4,0,0,0,.136.117m-14.191-.4h0m.55-3.205-.01,0a.141.141,0,0,1-.026-.02.122.122,0,0,1,0-.029.623.623,0,0,1,0-.073c0-.049,0-.106,0-.164a1.019,1.019,0,0,0-.007-.132.317.317,0,0,0-.047-.134.444.444,0,0,0-.121-.115.743.743,0,0,0-.252-.094c-.129-.026-.259-.037-.365-.066a.538.538,0,0,1-.137-.055.289.289,0,0,1-.094-.091.331.331,0,0,1-.059-.183.347.347,0,0,1,.031-.14.9.9,0,0,1,.145-.22c.062-.073.132-.144.192-.215a.711.711,0,0,0,.1-.141c.016-.031.027-.057.038-.078a.249.249,0,0,1,.048-.071.469.469,0,0,1,.128-.08,1.792,1.792,0,0,1,.187-.068.708.708,0,0,0,.216-.113.846.846,0,0,0,.309-.661.8.8,0,0,0-.076-.347h0c-.036-.076-.068-.158-.105-.243a.113.113,0,0,0-.051-.055l.043-.011a.678.678,0,0,1,.184-.035h0a.311.311,0,0,1,.137.031.651.651,0,0,1,.126.072.218.218,0,0,1,.076.1,1.974,1.974,0,0,1,.064.224.758.758,0,0,1,.029.174.166.166,0,0,1-.006.05.392.392,0,0,1-.042.086c-.023.04-.055.093-.09.165a1.4,1.4,0,0,0-.074.175.631.631,0,0,0-.033.2.693.693,0,0,0,.036.216.113.113,0,0,0,.068.072.1.1,0,0,0,.041.008.113.113,0,0,0,.057-.015.409.409,0,0,1,.193-.066.156.156,0,0,1,.076.019.423.423,0,0,1,.133.138c.072.1.141.247.246.375a.773.773,0,0,0,.19.173.529.529,0,0,0,.076.04l0,0a.114.114,0,0,0-.034.1.167.167,0,0,1,0,.031c0,.024,0,.057-.008.093s-.006.045-.008.07l-.044,0h0l-.039,0c0-.079-.008-.148-.015-.211a.662.662,0,0,0-.044-.182.363.363,0,0,0-.075-.117.5.5,0,0,0-.186-.117,1.646,1.646,0,0,0-.267-.07.26.26,0,0,1-.105-.04l-.038-.026a.215.215,0,0,0-.035-.018.158.158,0,0,0-.055-.01h0a.156.156,0,0,0-.079.022.371.371,0,0,0-.076.062c-.025.025-.054.057-.091.1a.8.8,0,0,0-.148.253c-.033.085-.055.168-.082.243a.781.781,0,0,0-.044.256,1.19,1.19,0,0,0,.049.305.985.985,0,0,1,.043.248.519.519,0,0,1-.036.19h0a.656.656,0,0,1-.082.157.222.222,0,0,1-.042.042.042.042,0,0,1-.017.007" transform="translate(-0.878 -179.807)"/>
    <g id="Grupo_10664" data-name="Grupo 10664" transform="translate(309.863 242.998)" clip-path="url(#clip-path-4)">
      <path id="Caminho_4553" data-name="Caminho 4553" d="M320.276,442.471a10.416,10.416,0,0,1-9.487-14.718.114.114,0,0,1,.1-.067h0a.116.116,0,0,1,.1.069.811.811,0,0,1,.05.238,2.025,2.025,0,0,0,.026.206.319.319,0,0,0,.018.057.443.443,0,0,1,.029-.146.251.251,0,0,1,.1-.126.2.2,0,0,1,.108-.031h0a.25.25,0,0,1,.162.064.486.486,0,0,1,.116.152.523.523,0,0,1,.051.166,1.172,1.172,0,0,1,.008.155v.066a.892.892,0,0,0,.008.137.3.3,0,0,0,.037.109.747.747,0,0,0,.137.166,1.561,1.561,0,0,1,.169.176.681.681,0,0,1,.1.174,1.627,1.627,0,0,1,.071.3c.016.1.027.208.039.295h0a1.509,1.509,0,0,0,.181.541c.085.157.2.314.317.529a1.319,1.319,0,0,1,.08.177c.026.068.053.142.081.22a2.835,2.835,0,0,0,.191.436.632.632,0,0,0,.09.123,1.033,1.033,0,0,1-.024-.216.772.772,0,0,1,.01-.128.113.113,0,0,1,.112-.095h.014a.358.358,0,0,1,.158.059.5.5,0,0,1,.113.107,1.169,1.169,0,0,1,.145.252c.025.054.047.1.064.143h0a.737.737,0,0,0,.08.137.562.562,0,0,0,.08.083,2.041,2.041,0,0,1,.243.221.726.726,0,0,1,.113.162.96.96,0,0,1,.046.107.129.129,0,0,0,.008.018.094.094,0,0,0,.018.007,1.033,1.033,0,0,0,.2.025c.066,0,.133.006.2.006h0c.126,0,.256,0,.387,0,.067,0,.133,0,.2,0a.113.113,0,0,1,.1.078.75.75,0,0,0,.26.325,1.076,1.076,0,0,0,.388.2c.072.017.141.027.2.035s.117.014.168.024a.331.331,0,0,1,.1.034.185.185,0,0,1,.059.052.164.164,0,0,1,.031.1.221.221,0,0,1-.02.089.543.543,0,0,1-.044.078,1.9,1.9,0,0,1-.154.19,2.927,2.927,0,0,0-.25.292.553.553,0,0,0-.11.316.544.544,0,0,0,.018.137.813.813,0,0,0,.055.135c.027.057.063.121.1.188a3.88,3.88,0,0,0,.264.387,1.218,1.218,0,0,0,.151.165,2.7,2.7,0,0,0,.241.174,1.31,1.31,0,0,1,.226.175.739.739,0,0,1,.123.173,1.035,1.035,0,0,1,.095.336,1.167,1.167,0,0,1,.008.14,2.157,2.157,0,0,1-.063.465c-.034.149-.071.293-.088.427-.047.358-.12.69-.178,1.023a5.784,5.784,0,0,0-.106,1.036c0,.129,0,.24,0,.335a.957.957,0,0,0,.043.331.779.779,0,0,0,.212.3,1.605,1.605,0,0,0,.178.145.945.945,0,0,0,.186.106.233.233,0,0,0,.08.02h0l.01,0a.079.079,0,0,0,0-.012.233.233,0,0,0,.006-.053.537.537,0,0,0-.006-.073l0,0a.2.2,0,0,0-.02-.029c-.02-.026-.05-.059-.078-.1a.385.385,0,0,1-.049-.1.527.527,0,0,1-.016-.145c0-.084.01-.17.012-.219s0-.105.009-.17a.883.883,0,0,1,.032-.19.513.513,0,0,1,.118-.178c.047-.048.095-.09.13-.123l.028-.028-.059-.039a.236.236,0,0,1-.07-.076.176.176,0,0,1-.021-.081v-.018h0a.454.454,0,0,1,.03-.133.305.305,0,0,1,.055-.088.388.388,0,0,0,.03-.036.434.434,0,0,0,.045-.072c.078-.148.151-.305.229-.458a.113.113,0,0,1,.1-.062h.009c.056,0,.105.007.145.007h0a.317.317,0,0,0,.1-.012c.019-.007.022-.01.029-.02a.145.145,0,0,0,.017-.043.676.676,0,0,0,.011-.136c0-.022,0-.047,0-.072a.11.11,0,0,1,.031-.084.113.113,0,0,1,.082-.035.251.251,0,0,0,.131-.034.379.379,0,0,0,.1-.1,2.689,2.689,0,0,0,.184-.314.59.59,0,0,1,.165-.2.286.286,0,0,1,.082-.039c0-.057,0-.109,0-.157a.634.634,0,0,1,.035-.222.412.412,0,0,1,.087-.137.772.772,0,0,1,.207-.147,2.687,2.687,0,0,1,.271-.117.963.963,0,0,0,.2-.1.334.334,0,0,0,.088-.086.528.528,0,0,0,.081-.209.618.618,0,0,0,.01-.121c0-.047,0-.1,0-.15a.655.655,0,0,1,.016-.158.546.546,0,0,1,.073-.173.5.5,0,0,1,.154-.148.508.508,0,0,0,.109-.083.28.28,0,0,0,.051-.087.536.536,0,0,0,.039-.195.521.521,0,0,0-.077-.268.809.809,0,0,0-.212-.228,4.494,4.494,0,0,0-.7-.426h0a7.51,7.51,0,0,1-.727-.406.469.469,0,0,0-.145-.053.942.942,0,0,0-.156-.012,1.206,1.206,0,0,1-.4-.049.913.913,0,0,1-.266-.142c-.068-.052-.12-.1-.166-.14a.428.428,0,0,0-.087-.058.335.335,0,0,0-.148-.031.715.715,0,0,0-.154.018l-.023,0a.114.114,0,0,1-.076-.03.117.117,0,0,1-.037-.1c.006-.063.01-.116.01-.158a.594.594,0,0,0,0-.073h0a.827.827,0,0,0-.1.088c-.079.076-.168.176-.254.26a.868.868,0,0,1-.176.139.77.77,0,0,1-.358.1h0a.44.44,0,0,1-.267-.088.575.575,0,0,1-.166-.21,1.345,1.345,0,0,1-.117-.461.37.37,0,0,1-.1-.081.54.54,0,0,1-.1-.165c-.047-.116-.069-.238-.1-.338a.5.5,0,0,0-.067-.154.14.14,0,0,0-.043-.04.081.081,0,0,0-.017-.007,1.087,1.087,0,0,1-.061.211.746.746,0,0,1-.2.295.354.354,0,0,1-.227.09h0a.4.4,0,0,1-.262-.113.474.474,0,0,1-.136-.245,1.221,1.221,0,0,1-.027-.274c0-.127.012-.248.016-.329a.114.114,0,0,1,.085-.1c.158-.041.305-.072.453-.12a1.148,1.148,0,0,0,.135-.059c.052-.026.107-.054.16-.077a.686.686,0,0,1,.1-.039.249.249,0,0,1,.068-.01h0a.475.475,0,0,1,.225.051.422.422,0,0,1,.147.129,1.771,1.771,0,0,1,.142.28.348.348,0,0,0,.072.1.272.272,0,0,0,.013-.081.821.821,0,0,0-.039-.206,1.045,1.045,0,0,1-.046-.26.443.443,0,0,1,.027-.158.454.454,0,0,1,.1-.152.628.628,0,0,1,.19-.135,1.334,1.334,0,0,0,.153-.077.238.238,0,0,0,.063-.057.467.467,0,0,0,.075-.163,1.391,1.391,0,0,1,.071-.212.5.5,0,0,1,.107-.152h0a.716.716,0,0,1,.2-.126.973.973,0,0,0,.163-.087.252.252,0,0,0,.07-.07.265.265,0,0,0,.031-.072c.009-.031.017-.067.024-.106a.848.848,0,0,1,.083-.262.6.6,0,0,1,.126-.147c.049-.043.1-.082.157-.121a1.809,1.809,0,0,0,.283-.225.259.259,0,0,0,.072-.132.113.113,0,0,1,.076-.093.625.625,0,0,1,.131-.027c.046-.006.095-.01.145-.013a2.449,2.449,0,0,0,.281-.032.353.353,0,0,0,.116-.042.046.046,0,0,0,.011-.009.329.329,0,0,0-.011-.062c-.008-.034-.021-.074-.036-.118a2.574,2.574,0,0,0-.114-.265,1.387,1.387,0,0,0-.075-.133.231.231,0,0,0-.024-.032.293.293,0,0,0-.126-.065,1.008,1.008,0,0,0-.121-.014.293.293,0,0,1-.117-.039.258.258,0,0,1-.064-.055.636.636,0,0,1-.111-.25,2.344,2.344,0,0,1-.043-.231.386.386,0,0,0-.035-.133.153.153,0,0,0-.047-.051.247.247,0,0,0-.043-.025c0,.006,0,.01,0,.015a.809.809,0,0,0-.009.094.132.132,0,0,0,0,.027.116.116,0,0,1-.08.128.57.57,0,0,1-.092.017c-.032,0-.066,0-.1,0a.745.745,0,0,1-.179-.018.112.112,0,0,1-.086-.1c-.006-.1-.009-.186-.015-.254a.559.559,0,0,0-.028-.149.168.168,0,0,0-.03-.051.219.219,0,0,0-.078-.054,1.228,1.228,0,0,0-.256-.07.539.539,0,0,1-.159-.056l-.027-.017c-.019.019-.046.048-.081.088a.6.6,0,0,0-.105.183c-.027.071-.049.151-.079.236a.524.524,0,0,0-.032.181.98.98,0,0,0,.043.248,1.191,1.191,0,0,1,.049.3.764.764,0,0,1-.05.27.889.889,0,0,1-.079.163.47.47,0,0,1-.132.145.258.258,0,0,1-.142.045h0a.257.257,0,0,1-.109-.026.357.357,0,0,1-.095-.07.2.2,0,0,1-.043-.067.293.293,0,0,1-.017-.064.729.729,0,0,1-.008-.126c0-.055,0-.113,0-.164a.77.77,0,0,0,0-.094.146.146,0,0,0-.01-.042.23.23,0,0,0-.1-.076.745.745,0,0,0-.166-.047,2.444,2.444,0,0,1-.441-.093.546.546,0,0,1-.268-.213.565.565,0,0,1-.1-.306.587.587,0,0,1,.05-.23.956.956,0,0,1,.114-.192c.087-.117.189-.218.261-.3a.52.52,0,0,0,.072-.108.959.959,0,0,1,.062-.12.43.43,0,0,1,.077-.09.728.728,0,0,1,.174-.109,1.875,1.875,0,0,1,.211-.078.477.477,0,0,0,.149-.076.618.618,0,0,0,.22-.482.568.568,0,0,0-.054-.248h0c-.032-.068-.059-.136-.087-.2a.51.51,0,0,0-.056-.01l-.055-.006a.584.584,0,0,1-.154.351.113.113,0,0,1-.083.036.126.126,0,0,1-.03,0,.817.817,0,0,1-.229-.115,1.461,1.461,0,0,1-.2-.169.686.686,0,0,1-.1-.119,1,1,0,0,1-.1-.258c-.023-.084-.043-.163-.063-.215a.2.2,0,0,0-.026-.05h0a.127.127,0,0,0-.025.01.559.559,0,0,0-.093.068h0a.327.327,0,0,0-.068.087.679.679,0,0,0-.047.117,2.942,2.942,0,0,1-.091.291.494.494,0,0,1-.137.19.766.766,0,0,1-.314.14,1.627,1.627,0,0,1-.354.038,1.372,1.372,0,0,1-.231-.018.111.111,0,0,1-.076-.05.113.113,0,0,1-.014-.091.4.4,0,0,1,.076-.153.473.473,0,0,1,.109-.095c.075-.047.145-.076.184-.1a.1.1,0,0,0,.053-.09v-.008a.234.234,0,0,0-.009-.022.468.468,0,0,0-.047-.071,1.59,1.59,0,0,0-.176-.183.118.118,0,0,1-.036-.087.114.114,0,0,1,.041-.084,10.379,10.379,0,0,1,3.624-1.968.1.1,0,0,1,.034,0,.113.113,0,0,1,.08.194l-.01.011h0a.622.622,0,0,0,.147.081,1.012,1.012,0,0,0,.322.049,1.6,1.6,0,0,1,.4.053,1.639,1.639,0,0,1,.213.083.522.522,0,0,1,.166.121.381.381,0,0,1,.072.119.549.549,0,0,1,.032.2,1.136,1.136,0,0,1-.011.151.727.727,0,0,1-.024.1c-.01.034-.022.068-.032.1a.61.61,0,0,0-.037.163c0,.007,0,.012,0,.015h0a.11.11,0,0,0,.035,0h0a.45.45,0,0,0,.084-.01l.022,0a.115.115,0,0,1,.113.121c-.006.119-.023.338-.023.569a3.181,3.181,0,0,0,.019.377,1.082,1.082,0,0,0,.071.293.243.243,0,0,0,.067.094.089.089,0,0,0,.035.017.115.115,0,0,1,.088.1,5.232,5.232,0,0,0,.182,1.217,1.007,1.007,0,0,0,.128.3.419.419,0,0,0,.234.166h0a.255.255,0,0,0,.075.011h0c.045,0,.094-.013.164-.014h0a.3.3,0,0,1,.1.017,2.633,2.633,0,0,1,.1-.606.844.844,0,0,1,.107-.225,1.676,1.676,0,0,1,.567-.446,2.936,2.936,0,0,0,.555-.351c.094-.088.2-.176.292-.268a1.121,1.121,0,0,0,.222-.286.472.472,0,0,0,.054-.2v-.039a1.818,1.818,0,0,0-.04-.349,1.774,1.774,0,0,1-.045-.346.845.845,0,0,1,.035-.242,1.024,1.024,0,0,1,.124-.262c.092-.143.163-.238.211-.317a.636.636,0,0,0,.092-.246,1.6,1.6,0,0,0,.018-.271c0-.1.011-.21.01-.3,0-.022,0-.042,0-.062a.114.114,0,0,1,.039-.093.116.116,0,0,1,.075-.027l.023,0a10.374,10.374,0,0,1,4.653,2.3.126.126,0,0,1,.035.055.12.12,0,0,1,0,.075.114.114,0,0,1-.106.071h-.015a1,1,0,0,1-.218-.048.606.606,0,0,0-.16-.033h0a.17.17,0,0,0-.05.006.162.162,0,0,0-.038.017c-.018.01-.041.025-.064.041-.048.034-.1.076-.153.112a.825.825,0,0,1-.1.064.746.746,0,0,1-.16.06.424.424,0,0,0-.1.036.416.416,0,0,0-.075.055.161.161,0,0,0-.039.063c-.011.028-.019.064-.039.109a.26.26,0,0,1-.069.093.233.233,0,0,1-.07.037.282.282,0,0,1-.09.013h-.012c0,.056,0,.11-.009.163a.712.712,0,0,1-.082.276.884.884,0,0,1-.136.182c-.09.094-.176.159-.248.223a.785.785,0,0,0-.182.218c-.032.058-.087.141-.147.235s-.127.2-.179.295a1.256,1.256,0,0,0-.079.163.213.213,0,0,0-.014.05v0a.162.162,0,0,0,.012.056.577.577,0,0,0,.041.092.8.8,0,0,0,.137.183.411.411,0,0,0,.055.045.686.686,0,0,1,.07-.119.446.446,0,0,1,.209-.159.1.1,0,0,1,.039-.007.115.115,0,0,1,.11.084.564.564,0,0,0,.114.2,1.569,1.569,0,0,1,.168.233.463.463,0,0,1,.056.215.454.454,0,0,1-.014.112.116.116,0,0,1-.083.084.278.278,0,0,1-.063.007l-.038,0h-.007a.1.1,0,0,1-.022,0,.114.114,0,0,1-.108-.077l0,0a.344.344,0,0,1-.038-.025.872.872,0,0,1-.088-.072c0,.013,0,.028,0,.044a.266.266,0,0,1-.019.1c-.031.072-.049.126-.069.177a.439.439,0,0,1-.183.228,1.639,1.639,0,0,1-.2.109,1.916,1.916,0,0,0-.236.121.194.194,0,0,0-.022.022.346.346,0,0,0-.031.051c-.018.034-.042.084-.077.155-.026.051-.047.1-.072.155a.747.747,0,0,1-.08.147.343.343,0,0,1-.085.085.289.289,0,0,1-.166.051h0a.415.415,0,0,1-.112-.015c0,.039,0,.083,0,.129a.738.738,0,0,1-.008.117.375.375,0,0,1-.039.124.483.483,0,0,1-.077.1.319.319,0,0,1-.094.063.426.426,0,0,1-.167.027h-.013a.26.26,0,0,0-.057,0,.069.069,0,0,0-.034.016.342.342,0,0,0-.1.122.312.312,0,0,0-.027.132.837.837,0,0,0,.072.3c.032.085.072.17.1.254h.013l.008-.008a1.046,1.046,0,0,1,.1-.108h0l0-.009a.389.389,0,0,0,.015-.041.916.916,0,0,1,.048-.14.3.3,0,0,1,.084-.105h0a.226.226,0,0,1,.063-.033.563.563,0,0,1,.055-.014l.1-.02.04-.01h0a1.882,1.882,0,0,0,.331-.242,1.88,1.88,0,0,1,.358-.259.832.832,0,0,1,.372-.092h0a.8.8,0,0,1,.383.1,1.147,1.147,0,0,1,.309.252h0a.986.986,0,0,1,.135.206.986.986,0,0,0,.092.156.231.231,0,0,1,.031.055c.006.017.01.032.014.047s0,.01,0,.015a.185.185,0,0,1,.017-.033.142.142,0,0,1,.062-.055.13.13,0,0,1,.054-.013h.039a.568.568,0,0,1,.207.031.267.267,0,0,1,.137.109.3.3,0,0,1,.037.093,1.035,1.035,0,0,1,.018.108.537.537,0,0,0,.025.124.334.334,0,0,0,.118.157.487.487,0,0,0,.051.035.861.861,0,0,0,.065-.143c.014-.037.024-.064.03-.084l-.008-.007a.239.239,0,0,1-.054-.061.43.43,0,0,1-.051-.129c0-.023-.018-.067-.031-.117a.776.776,0,0,1-.023-.175.352.352,0,0,1,.032-.157.267.267,0,0,1,.134-.129.376.376,0,0,1,.134-.031h.012a.267.267,0,0,1,.158.055.547.547,0,0,1,.108.108,1.745,1.745,0,0,1,.154.248c.027.05.051.093.065.113s.066.087.109.141a.846.846,0,0,1,.113.181h0c.021.052.036.092.048.126a.358.358,0,0,1,.019.105.207.207,0,0,1-.019.088.44.44,0,0,1-.036.06,1.2,1.2,0,0,0-.08.128.39.39,0,0,1,.109.051.32.32,0,0,1,.11.137.692.692,0,0,1,.032.094c.011.041.022.081.035.122.044.132.068.224.1.3a.86.86,0,0,0,.158.251c.093.111.188.24.289.354a1.225,1.225,0,0,0,.313.273.453.453,0,0,0,.217.059.418.418,0,0,0,.11-.015,2.363,2.363,0,0,0,.348-.13,1.856,1.856,0,0,0,.384-.227.536.536,0,0,0,.145-.159.165.165,0,0,0,.018-.069.11.11,0,0,0-.011-.047.239.239,0,0,0-.083-.091.982.982,0,0,0-.169-.092,4.622,4.622,0,0,1-.436-.2.594.594,0,0,1-.237-.224.416.416,0,0,1-.049-.2.572.572,0,0,1,.013-.114.116.116,0,0,1,.089-.087,1,1,0,0,1,.191-.02h0a.562.562,0,0,1,.2.035.57.57,0,0,1,.158.095c.09.076.161.164.258.257a1.013,1.013,0,0,0,.291.2c.1.046.208.081.353.139l-.084.211c-.136-.055-.25-.09-.366-.144-.017-.008-.034-.016-.051-.026l.012.01a.432.432,0,0,1,.113.145.345.345,0,0,1,.031.142.379.379,0,0,1-.043.172.591.591,0,0,1-.1.141,1.384,1.384,0,0,1-.3.227,2.742,2.742,0,0,1-.342.169l.01.013a.194.194,0,0,1,.036.078.305.305,0,0,1,.008.075.876.876,0,0,1-.039.228,2.593,2.593,0,0,1-.088.253,3.837,3.837,0,0,1-.2.435c-.016.029-.031.051-.044.072-.111.152-.262.3-.4.456a1.386,1.386,0,0,0-.3.454.412.412,0,0,0-.018.123,1,1,0,0,0,.065.3,1.169,1.169,0,0,1,.077.353.483.483,0,0,1-.019.137.372.372,0,0,1-.067.133.384.384,0,0,1-.1.085,1.657,1.657,0,0,1-.181.084.29.29,0,0,0-.083.051.632.632,0,0,0-.1.1.141.141,0,0,0-.024.059.5.5,0,0,0-.006.064c0,.038,0,.086-.008.149a1.652,1.652,0,0,1-.125.531,1.271,1.271,0,0,1-.361.478,1.139,1.139,0,0,1-.255.152.626.626,0,0,0-.193.133.751.751,0,0,0-.094.127.722.722,0,0,1-.121.151.608.608,0,0,1-.139.093.762.762,0,0,1-.34.1h0a.361.361,0,0,1-.2-.055.448.448,0,0,1-.132-.135,2.428,2.428,0,0,1-.166-.35,4.216,4.216,0,0,0-.29-.5,1.735,1.735,0,0,1-.254-.559,1.33,1.33,0,0,1-.019-.268v-.018a.818.818,0,0,0-.038-.3.806.806,0,0,0-.091-.162.662.662,0,0,1-.1-.214,2.232,2.232,0,0,1-.053-.512,1.685,1.685,0,0,0-.053-.448h0c-.034-.111-.043-.178-.051-.2a.089.089,0,0,0-.007-.018.122.122,0,0,0-.021-.028c-.018-.019-.05-.049-.1-.092s-.1-.086-.154-.139-.122-.109-.174-.15a.551.551,0,0,0-.076-.052.22.22,0,0,0-.1-.024h0a.718.718,0,0,0-.272.082,3.711,3.711,0,0,1-.354.159.882.882,0,0,1-.279.052h0a.556.556,0,0,1-.1-.008.648.648,0,0,1-.264-.113,1.425,1.425,0,0,1-.23-.2,1.883,1.883,0,0,1-.323-.465.443.443,0,0,1-.043-.195.881.881,0,0,1,.012-.133.739.739,0,0,0,.01-.1.279.279,0,0,0-.013-.086.087.087,0,0,0-.024-.044.193.193,0,0,0-.047-.028.4.4,0,0,1-.063-.039.265.265,0,0,1-.086-.109.735.735,0,0,1-.072-.295.411.411,0,0,1,.047-.194.5.5,0,0,1,.111-.141,3.037,3.037,0,0,1,.263-.19.723.723,0,0,0,.143-.13.142.142,0,0,0,.026-.048.236.236,0,0,0,.006-.059c0-.039-.006-.089-.006-.152a.6.6,0,0,1,.024-.174.812.812,0,0,1,.066-.162.451.451,0,0,1,.092-.117,2.752,2.752,0,0,1,.237-.17,2.635,2.635,0,0,1,.512-.266,2.926,2.926,0,0,0,.474-.233c.08-.054.15-.113.218-.168a1.031,1.031,0,0,1,.215-.148.425.425,0,0,1,.179-.042h0a.462.462,0,0,1,.207.052,1.006,1.006,0,0,1,.219.154,1.674,1.674,0,0,1,.27.36,1.57,1.57,0,0,0,.243.326.273.273,0,0,0,.158.08l.019,0a.242.242,0,0,0,.118-.035c.043-.023.094-.057.158-.088a.508.508,0,0,1,.15-.047.762.762,0,0,1,.107-.009h0a.407.407,0,0,1,.125.018.44.44,0,0,1,.093.043.714.714,0,0,0,.15.082c.1.039.154.064.17.067l.012,0h0a.205.205,0,0,0,.038-.006l.091-.024a.254.254,0,0,0,.1-.06.635.635,0,0,1,.145-.106.364.364,0,0,1,.16-.035c.019-.033.036-.059.051-.08s.029-.042.033-.049v0c0-.006,0-.015-.008-.027s-.022-.062-.043-.113h0a.64.64,0,0,0-.082-.125c-.039-.051-.083-.1-.117-.152-.017-.025-.032-.052-.049-.083l-.053-.1a1.208,1.208,0,0,0-.119-.183.226.226,0,0,0-.064-.058l-.01,0a.111.111,0,0,0-.065.018.043.043,0,0,0-.016.027.161.161,0,0,0,0,.044.547.547,0,0,0,.018.122c.01.043.023.083.031.118a.173.173,0,0,0,.024.062c0,.006,0,.006.016.014a.261.261,0,0,1,.043.034.162.162,0,0,1,.031.048.177.177,0,0,1,.012.064.3.3,0,0,1-.014.088c-.009.031-.021.064-.038.108a1.43,1.43,0,0,1-.065.149.319.319,0,0,1-.092.113.193.193,0,0,1-.106.034h0a.235.235,0,0,1-.11-.029.581.581,0,0,1-.092-.062.556.556,0,0,1-.195-.261,1.106,1.106,0,0,1-.042-.215.175.175,0,0,0-.015-.063l-.006-.009a.1.1,0,0,0-.034-.014.41.41,0,0,0-.083-.01.276.276,0,0,1-.009.029.234.234,0,0,1-.043.078.174.174,0,0,1-.137.063h0a.261.261,0,0,1-.09-.018.171.171,0,0,1-.079-.063.249.249,0,0,1-.032-.064,1.062,1.062,0,0,1-.03-.1.264.264,0,0,0-.01-.031,1.238,1.238,0,0,1-.111-.186.759.759,0,0,0-.1-.16h0a.942.942,0,0,0-.247-.2.576.576,0,0,0-.276-.074.6.6,0,0,0-.272.068,1.707,1.707,0,0,0-.312.229,2.09,2.09,0,0,1-.375.27h0a.318.318,0,0,1-.057.022l-.053.013c-.035.006-.069.012-.093.018l-.024.007a.056.056,0,0,0-.009.012.188.188,0,0,0-.017.038c-.012.032-.022.076-.041.125a.277.277,0,0,1-.066.1.37.37,0,0,0-.044.049.62.62,0,0,1-.054.062.251.251,0,0,1-.059.043.236.236,0,0,1-.108.026h0a.49.49,0,0,1-.121-.02.113.113,0,0,1-.076-.074c-.027-.082-.077-.189-.124-.305a1.071,1.071,0,0,1-.087-.383.544.544,0,0,1,.046-.224.572.572,0,0,1,.157-.2.3.3,0,0,1,.134-.066.582.582,0,0,1,.109-.009h.013a.282.282,0,0,0,.06,0,.078.078,0,0,0,.036-.021.239.239,0,0,0,.037-.051h0a.137.137,0,0,0,.014-.049.606.606,0,0,0,0-.083c0-.042,0-.089,0-.138a.541.541,0,0,1,.027-.187.118.118,0,0,1,.107-.074.114.114,0,0,1,.048.011.4.4,0,0,0,.157.047h0a.064.064,0,0,0,.04-.011.147.147,0,0,0,.041-.048c.034-.052.069-.146.121-.252.029-.058.05-.1.069-.141a.58.58,0,0,1,.064-.1.358.358,0,0,1,.058-.058.617.617,0,0,1,.095-.059c.048-.025.106-.052.186-.091a1.336,1.336,0,0,0,.184-.1.187.187,0,0,0,.06-.063.6.6,0,0,0,.031-.068c.015-.04.035-.095.064-.166a.03.03,0,0,0,0-.014.374.374,0,0,0-.006-.047.585.585,0,0,1-.008-.079.2.2,0,0,1,.018-.087.188.188,0,0,1,.07-.083.288.288,0,0,1,.064-.031.162.162,0,0,1,.043-.006.153.153,0,0,1,.068.017.2.2,0,0,1,.041.025.792.792,0,0,1,.062.053c.029.027.059.054.087.075a.438.438,0,0,0-.045-.076c-.044-.063-.108-.132-.167-.219a.65.65,0,0,1-.037-.061l-.013.017a.554.554,0,0,0-.077.159.113.113,0,0,1-.1.077h-.017a.31.31,0,0,1-.162-.05.618.618,0,0,1-.129-.105,1.027,1.027,0,0,1-.19-.279.5.5,0,0,1-.051-.2c0-.009,0-.018,0-.027h0a.543.543,0,0,1,.048-.158c.024-.054.055-.112.088-.171.067-.118.147-.243.212-.344.043-.067.079-.124.1-.157a1,1,0,0,1,.231-.279c.08-.071.158-.13.232-.209a.638.638,0,0,0,.1-.135.417.417,0,0,0,.045-.122,2.283,2.283,0,0,0,.022-.345.112.112,0,0,1,.046-.086.11.11,0,0,1,.068-.023.107.107,0,0,1,.027,0,.439.439,0,0,0,.093.014h0l.017,0,0-.006a.327.327,0,0,0,.013-.036c.007-.021.015-.049.029-.08a.379.379,0,0,1,.092-.131.586.586,0,0,1,.119-.086.54.54,0,0,1,.105-.043.8.8,0,0,0,.16-.055h0a1.25,1.25,0,0,0,.121-.083c.051-.038.107-.08.162-.115a.461.461,0,0,1,.119-.055.491.491,0,0,1,.088-.013,10.149,10.149,0,0,0-4.073-1.943c0,.084-.01.164-.01.232a1.456,1.456,0,0,1-.048.429,1.109,1.109,0,0,1-.154.3c-.044.065-.095.137-.153.227a.809.809,0,0,0-.1.2.6.6,0,0,0-.026.177,1.655,1.655,0,0,0,.041.3,2.011,2.011,0,0,1,.045.392c0,.015,0,.031,0,.047a.707.707,0,0,1-.077.292,1.141,1.141,0,0,1-.166.24,5.307,5.307,0,0,1-.4.379,3.143,3.143,0,0,1-.6.383,1.475,1.475,0,0,0-.493.379.652.652,0,0,0-.075.163,1.746,1.746,0,0,0-.056.237,3.006,3.006,0,0,0-.043.485c0,.023,0,.043,0,.063a.115.115,0,0,1-.082.113.111.111,0,0,1-.032,0,.114.114,0,0,1-.1-.055.263.263,0,0,0-.072-.088.065.065,0,0,0-.041-.01h0c-.031,0-.087.013-.164.014h0a.462.462,0,0,1-.141-.021.646.646,0,0,1-.353-.252,1.233,1.233,0,0,1-.161-.371,5.208,5.208,0,0,1-.185-1.194.326.326,0,0,1-.039-.026.385.385,0,0,1-.088-.1.767.767,0,0,1-.1-.247,2.62,2.62,0,0,1-.056-.6c0-.169.008-.33.015-.449a.3.3,0,0,1-.143-.039.216.216,0,0,1-.1-.121.288.288,0,0,1-.012-.088.642.642,0,0,1,.031-.178c.016-.055.035-.108.047-.152a.459.459,0,0,0,.017-.066.9.9,0,0,0,.01-.121.3.3,0,0,0-.021-.124.179.179,0,0,0-.059-.07.435.435,0,0,0-.08-.046,1.1,1.1,0,0,0-.512-.105,1.192,1.192,0,0,1-.4-.068.973.973,0,0,1-.163-.086.332.332,0,0,1-.1-.1l-.012-.024a10.154,10.154,0,0,0-3.262,1.786c.022.022.043.043.062.066a.757.757,0,0,1,.117.164.3.3,0,0,1,.035.131v.006a.34.34,0,0,1-.034.141.322.322,0,0,1-.079.1.867.867,0,0,1-.174.106l-.034.019a1.382,1.382,0,0,0,.295-.032.549.549,0,0,0,.221-.094.228.228,0,0,0,.057-.072.632.632,0,0,0,.043-.11,2.6,2.6,0,0,1,.094-.3.57.57,0,0,1,.143-.2h0a.735.735,0,0,1,.137-.1.288.288,0,0,1,.14-.039h0a.208.208,0,0,1,.091.02.244.244,0,0,1,.07.051.419.419,0,0,1,.076.13c.034.09.054.19.082.279a.621.621,0,0,0,.063.149.7.7,0,0,0,.118.129,1.155,1.155,0,0,0,.179.131l.031.017a.373.373,0,0,0,.05-.189c0-.016,0-.032,0-.049a.115.115,0,0,1,.023-.084.153.153,0,0,1,.02-.019.582.582,0,0,1-.1-.072.876.876,0,0,1-.158-.2,1.068,1.068,0,0,1-.143-.506.519.519,0,0,1,.089-.31.259.259,0,0,1,.093-.076.446.446,0,0,1,.106-.035,1.188,1.188,0,0,1,.24-.019c.151,0,.321.014.473.017l.006,0a.6.6,0,0,1,.134-.015h0l.232-.023h.012a.113.113,0,0,1,.11.086.115.115,0,0,1-.02.1.7.7,0,0,1,.08.129,3.509,3.509,0,0,1,.127.352.653.653,0,0,0,.08.169.458.458,0,0,0,.113.113.443.443,0,0,0,.122.06,2.168,2.168,0,0,0,.314.054,1.141,1.141,0,0,1,.254.064.113.113,0,0,1,.072.092.547.547,0,0,1,0,.063.969.969,0,0,1-.07.316,1.362,1.362,0,0,0-.052.164.59.59,0,0,1,.255.2.6.6,0,0,1,.105.344.653.653,0,0,1-.051.252.427.427,0,0,1-.146.19.28.28,0,0,1-.159.051h0a.28.28,0,0,1-.113-.025.187.187,0,0,0,.061.066.2.2,0,0,0,.1.027.113.113,0,0,1,.109.108c0,.074,0,.148,0,.223s0,.139,0,.207a.118.118,0,0,1-.039.081l-.016.012a.486.486,0,0,1,.117.07.391.391,0,0,1,.129.2,1.125,1.125,0,0,1,.027.137,1.568,1.568,0,0,0,.035.186.661.661,0,0,0,.046.131.1.1,0,0,0,.027.037l.009,0a.236.236,0,0,0,.04.006.883.883,0,0,1,.119.014.529.529,0,0,1,.223.113h0a.311.311,0,0,1,.052.057c.015.021.03.044.045.069.03.051.062.113.092.178a2.054,2.054,0,0,1,.143.394.52.52,0,0,1,.013.1.2.2,0,0,1-.024.1h0a.317.317,0,0,1-.142.122.707.707,0,0,1-.172.051c-.119.022-.247.027-.35.036-.035,0-.068.006-.1.01a.481.481,0,0,1-.064.121.834.834,0,0,1-.146.15c-.107.089-.227.164-.316.235a.348.348,0,0,0-.165.257c-.012.056-.022.12-.041.186a.509.509,0,0,1-.059.131.538.538,0,0,1-.2.174c-.068.038-.134.064-.185.092a.322.322,0,0,0-.082.056.28.28,0,0,0-.06.085.793.793,0,0,0-.039.113.848.848,0,0,1-.13.3.474.474,0,0,1-.121.111,1.015,1.015,0,0,1-.122.065.538.538,0,0,0-.178.11.248.248,0,0,0-.05.077.22.22,0,0,0-.012.078.779.779,0,0,0,.038.2,1,1,0,0,1,.046.265.467.467,0,0,1-.043.2l.055,0c.054,0,.106,0,.152,0,0-.069.011-.133.011-.185a.432.432,0,0,0,0-.047.114.114,0,0,1,.029-.089.112.112,0,0,1,.084-.037h0a.505.505,0,0,1,.223.053.341.341,0,0,1,.139.141.468.468,0,0,1,.041.113.888.888,0,0,1,.018.151c0,.067,0,.132,0,.191a.889.889,0,0,0,.009.1.953.953,0,0,1,.216-.024,1.284,1.284,0,0,1,.539.131,3.431,3.431,0,0,1,.469.272.115.115,0,0,1,.049.079.841.841,0,0,1,.01.132.5.5,0,0,1,0,.069.113.113,0,0,1-.113.1H318.2a.114.114,0,0,1-.036-.006,1.423,1.423,0,0,1-.3-.157,1.11,1.11,0,0,0-.244-.129.5.5,0,0,0-.144-.022h0a.369.369,0,0,0-.051,0,.2.2,0,0,1,.047.066.5.5,0,0,1,.033.207v.037c.018,0,.036,0,.054,0h0a.554.554,0,0,1,.244.053.761.761,0,0,1,.169.117.9.9,0,0,0,.325.212.754.754,0,0,0,.244.035,1.551,1.551,0,0,1,.283.018.7.7,0,0,1,.216.079,7.366,7.366,0,0,0,.706.4h0a4.671,4.671,0,0,1,.747.452,1.039,1.039,0,0,1,.272.294.737.737,0,0,1,.055.661.482.482,0,0,1-.148.208c-.055.045-.1.07-.134.095a.192.192,0,0,0-.051.055.3.3,0,0,0-.044.1.433.433,0,0,0-.01.105c0,.044,0,.094,0,.15a.861.861,0,0,1-.095.4.582.582,0,0,1-.131.164,1.082,1.082,0,0,1-.326.172,2.008,2.008,0,0,0-.219.095.5.5,0,0,0-.158.113.2.2,0,0,0-.043.1,1.064,1.064,0,0,0-.007.117c0,.064,0,.145,0,.241a.115.115,0,0,1-.043.084.112.112,0,0,1-.071.024.085.085,0,0,1-.02,0l-.014,0a.049.049,0,0,0-.019,0,.125.125,0,0,0-.026.017.442.442,0,0,0-.073.1,3.7,3.7,0,0,1-.2.338.593.593,0,0,1-.234.2.469.469,0,0,1-.078.026.757.757,0,0,1-.023.185.3.3,0,0,1-.1.158.3.3,0,0,1-.109.055.579.579,0,0,1-.161.019c-.027,0-.055,0-.086,0-.063.129-.127.262-.2.394a.86.86,0,0,1-.114.164.036.036,0,0,0-.008.014.186.186,0,0,0-.008.038.837.837,0,0,1,.072.05.228.228,0,0,1,.07.088.2.2,0,0,1,.016.08.217.217,0,0,1,0,.033v0a.2.2,0,0,1-.023.061.364.364,0,0,1-.031.043.685.685,0,0,1-.068.069,1.726,1.726,0,0,0-.133.131.222.222,0,0,0-.043.066.636.636,0,0,0-.022.136c0,.056-.006.116-.008.162,0,.063-.012.143-.012.209a.328.328,0,0,0,.007.08.249.249,0,0,0,.039.063c.022.027.049.058.075.1a.252.252,0,0,1,.042.1.675.675,0,0,1,.009.11.372.372,0,0,1-.033.166.228.228,0,0,1-.118.11.249.249,0,0,1-.1.018.462.462,0,0,1-.165-.035,1.006,1.006,0,0,1-.158-.081,1.784,1.784,0,0,1-.28-.217,1,1,0,0,1-.27-.388,1.171,1.171,0,0,1-.055-.408c0-.1,0-.211,0-.335a6,6,0,0,1,.11-1.075c.06-.339.131-.667.177-1.014.021-.152.059-.3.092-.446a1.914,1.914,0,0,0,.059-.415,1,1,0,0,0-.006-.111.932.932,0,0,0-.05-.211.5.5,0,0,0-.076-.133.989.989,0,0,0-.244-.2,2.524,2.524,0,0,1-.236-.171,1.134,1.134,0,0,1-.136-.14c-.047-.055-.1-.119-.144-.187a3.685,3.685,0,0,1-.263-.421,1.246,1.246,0,0,1-.1-.241.748.748,0,0,1-.027-.2.778.778,0,0,1,.151-.444,3.069,3.069,0,0,1,.268-.316c.056-.063.1-.113.124-.149l.012-.018-.015,0c-.078-.012-.2-.022-.347-.055a1.293,1.293,0,0,1-.476-.236,1.024,1.024,0,0,1-.306-.359l-.115,0h0c-.125,0-.255,0-.387,0-.071,0-.142,0-.214-.006a1.666,1.666,0,0,1-.179-.018.4.4,0,0,1-.125-.036.233.233,0,0,1-.068-.047.262.262,0,0,1-.049-.078c-.013-.031-.021-.055-.032-.081a.517.517,0,0,0-.09-.135,1.285,1.285,0,0,0-.169-.156.845.845,0,0,1-.271-.338c-.032-.068-.064-.148-.1-.221a.79.79,0,0,0-.075-.123,1.426,1.426,0,0,0,.059.248.112.112,0,0,1-.074.144.308.308,0,0,1-.1.015h0a.321.321,0,0,1-.136-.031.441.441,0,0,1-.109-.077.9.9,0,0,1-.162-.224,4.172,4.172,0,0,1-.224-.539,2.04,2.04,0,0,0-.106-.256c-.115-.2-.225-.358-.319-.531a1.752,1.752,0,0,1-.207-.618c-.013-.092-.024-.195-.039-.292a1.424,1.424,0,0,0-.059-.257.449.449,0,0,0-.064-.115.791.791,0,0,0-.092-.1,1.165,1.165,0,0,1-.231-.269.538.538,0,0,1-.065-.187,1.093,1.093,0,0,1-.01-.173v-.066a.821.821,0,0,0-.006-.123.282.282,0,0,0-.027-.093.356.356,0,0,0-.049-.072.139.139,0,0,0-.02-.017.218.218,0,0,0-.017.094.558.558,0,0,0,.007.083.113.113,0,0,1-.08.128.427.427,0,0,1-.12.019h0a.255.255,0,0,1-.232-.141.525.525,0,0,1-.051-.163,10.189,10.189,0,1,0,19.621,3.88l-.022-.013c-.031-.016-.081-.037-.153-.065l.084-.211c.072.029.125.05.171.073a.38.38,0,0,1,.117.085.112.112,0,0,1,.03.076s0,.012,0,.024a10.416,10.416,0,0,1-10.416,10.417m4.688-7.739a1.89,1.89,0,0,1,.063.508,1.991,1.991,0,0,0,.047.461.432.432,0,0,0,.07.145.969.969,0,0,1,.113.207h0a1.013,1.013,0,0,1,.053.381v.018a1.165,1.165,0,0,0,.015.223,1.557,1.557,0,0,0,.223.485,4.276,4.276,0,0,1,.305.526c.033.074.06.143.088.2a.717.717,0,0,0,.077.138.2.2,0,0,0,.048.045.122.122,0,0,0,.074.02h0a.574.574,0,0,0,.236-.075.383.383,0,0,0,.088-.059.366.366,0,0,0,.055-.065,1.4,1.4,0,0,1,.147-.2.849.849,0,0,1,.258-.181.939.939,0,0,0,.21-.123,1.035,1.035,0,0,0,.3-.394,1.451,1.451,0,0,0,.108-.46c0-.062.006-.11.008-.157a.5.5,0,0,1,.027-.143.416.416,0,0,1,.053-.1.9.9,0,0,1,.12-.128.633.633,0,0,1,.2-.117.374.374,0,0,0,.121-.065.141.141,0,0,0,.037-.067.273.273,0,0,0,.01-.073.983.983,0,0,0-.065-.283,1.219,1.219,0,0,1-.077-.375.627.627,0,0,1,.03-.192,1.6,1.6,0,0,1,.343-.535c.141-.161.289-.31.383-.44a1.01,1.01,0,0,0,.054-.091c.024-.046.052-.1.082-.166a3.434,3.434,0,0,0,.158-.4.745.745,0,0,0,.039-.2c0-.009,0-.015,0-.019l-.011-.012-.007.009a1.207,1.207,0,0,0-.069.119.58.58,0,0,1-.056.091.218.218,0,0,1-.055.051.146.146,0,0,1-.053.022h0a.277.277,0,0,1-.051,0,.3.3,0,0,1-.114-.023.407.407,0,0,1-.09-.053.968.968,0,0,1-.126-.121c-.022-.024-.041-.045-.053-.056a4.4,4.4,0,0,0-.54-.378,1.785,1.785,0,0,1-.527-.472.845.845,0,0,1-.143-.477,1.179,1.179,0,0,1,.067-.377s0-.01,0-.015c0-.024-.007-.051-.01-.072s0-.023,0-.029V431.2a.176.176,0,0,1,0-.021l-.011,0a.158.158,0,0,0-.038.02c-.027.019-.061.055-.114.1a.443.443,0,0,1-.135.068c-.042.012-.075.022-.105.029a.423.423,0,0,1-.089.011h0a.262.262,0,0,1-.067-.009.386.386,0,0,1-.059-.019c-.036-.015-.074-.032-.136-.055a.77.77,0,0,1-.157-.08.289.289,0,0,0-.077-.042.159.159,0,0,0-.057-.008.623.623,0,0,0-.074.006.375.375,0,0,0-.129.051,1.2,1.2,0,0,1-.17.091.425.425,0,0,1-.159.031h0l-.041,0a.477.477,0,0,1-.227-.088.82.82,0,0,1-.169-.165c-.1-.123-.178-.266-.256-.384a.947.947,0,0,0-.148-.186.82.82,0,0,0-.17-.12.237.237,0,0,0-.107-.029.185.185,0,0,0-.083.021.582.582,0,0,0-.105.067c-.079.06-.174.149-.3.232a3.121,3.121,0,0,1-.512.253,2.42,2.42,0,0,0-.468.242c-.08.057-.141.094-.181.124a.263.263,0,0,0-.083.089.581.581,0,0,0-.046.117.36.36,0,0,0-.014.108c0,.045.006.094.006.152a.416.416,0,0,1-.015.121.349.349,0,0,1-.067.128,1.175,1.175,0,0,1-.28.237.773.773,0,0,0-.2.162.181.181,0,0,0-.035.114.5.5,0,0,0,.052.2.045.045,0,0,0,.018.022c.01.007.032.018.065.036a.3.3,0,0,1,.145.187.513.513,0,0,1,.022.153.9.9,0,0,1-.012.136.751.751,0,0,0-.01.1.236.236,0,0,0,.022.1,1.6,1.6,0,0,0,.193.3,1.357,1.357,0,0,0,.282.272.434.434,0,0,0,.17.076.417.417,0,0,0,.063,0h0a.789.789,0,0,0,.311-.083c.11-.049.223-.111.342-.157a.7.7,0,0,1,.252-.053h0a.457.457,0,0,1,.2.047.772.772,0,0,1,.115.078c.04.031.082.068.124.1.083.073.166.151.212.19a1.375,1.375,0,0,1,.13.123.325.325,0,0,1,.066.119c.008.026.013.049.018.075s.017.075.035.133m-9.611-3.09a.369.369,0,0,1,.182.046.378.378,0,0,1,.125.117.969.969,0,0,1,.115.292c.017.065.032.129.05.184a.4.4,0,0,0,.084.161.138.138,0,0,0,.062.036.113.113,0,0,1,.083.1,1.5,1.5,0,0,0,.06.351.453.453,0,0,0,.137.223.211.211,0,0,0,.133.043.552.552,0,0,0,.252-.078.459.459,0,0,0,.072-.054c.031-.027.064-.06.1-.1.066-.068.137-.144.207-.211a1.246,1.246,0,0,1-.185.046,1.807,1.807,0,0,1-.252.019c-.03,0-.059,0-.088,0a.388.388,0,0,1-.085-.015.22.22,0,0,1-.061-.029.26.26,0,0,1-.083-.092.222.222,0,0,1-.024-.1.417.417,0,0,1,.006-.065.3.3,0,0,0,0-.033v0l0,0a.3.3,0,0,0-.093-.072c-.039-.022-.085-.042-.134-.071a.449.449,0,0,1-.1-.078.333.333,0,0,1-.081-.181.117.117,0,0,1,.029-.092.115.115,0,0,1,.084-.037h0a.211.211,0,0,1,.035,0l.02-.029.021-.023a.431.431,0,0,1-.092-.066.579.579,0,0,1-.105-.145,2.767,2.767,0,0,0-.123-.255.2.2,0,0,0-.1-.08.3.3,0,0,0-.1-.016h0l-.009,0-.035.011c-.029.011-.065.029-.1.048a2.189,2.189,0,0,1-.248.111c-.134.044-.262.073-.386.1,0,.072-.01.153-.01.233a.971.971,0,0,0,.021.22.245.245,0,0,0,.065.129.172.172,0,0,0,.112.055.1.1,0,0,0,.059-.019.285.285,0,0,0,.071-.068.751.751,0,0,0,.115-.244.744.744,0,0,0,.027-.16.113.113,0,0,1,.1-.11.487.487,0,0,1,.059,0h0m13.256,1.293.023.025a.424.424,0,0,0,.09.076.1.1,0,0,0,.028.01.226.226,0,0,0,.016-.027l.031-.056h0a.646.646,0,0,1-.186-.028m-10.375-.105v0m0-.108v0m-1.658-.129h0a1.547,1.547,0,0,0,.215-.016,1.7,1.7,0,0,0,.316-.1,1.17,1.17,0,0,1,.342-.078.9.9,0,0,0-.166-.017h0a.769.769,0,0,0-.256.045.1.1,0,0,1-.039.006.112.112,0,0,1-.1-.067.807.807,0,0,1-.055-.318,1.546,1.546,0,0,0-.017-.259.178.178,0,0,0-.04-.088.115.115,0,0,0-.031-.022c0,.059-.01.113-.01.159a.424.424,0,0,0,0,.047.114.114,0,0,1-.1.125.814.814,0,0,1-.088,0c-.068,0-.133-.006-.191-.006h0a.411.411,0,0,0-.109.011.1.1,0,0,0-.055.034.144.144,0,0,0-.024.052.119.119,0,0,1-.014.033c.034.018.079.039.127.067a.542.542,0,0,1,.141.114h0a.246.246,0,0,1,.043.077.241.241,0,0,1,.011.075.574.574,0,0,1-.006.066c0,.016,0,.027,0,.032h0l.007.006.022,0a.768.768,0,0,0,.083,0h0m10.874-1.2a.975.975,0,0,0-.055.305.616.616,0,0,0,.061.273.813.813,0,0,0,.166.223,2.762,2.762,0,0,0,.44.326c-.1-.113-.182-.229-.262-.322a1.115,1.115,0,0,1-.195-.313c-.039-.1-.062-.191-.1-.314-.019-.058-.031-.108-.042-.146,0-.012-.007-.023-.011-.033m1.595-.094a.186.186,0,0,0,.037.1.408.408,0,0,0,.119.1,3.512,3.512,0,0,0,.41.186c.033.014.064.029.1.045a1.408,1.408,0,0,1-.136-.117c-.081-.078-.142-.148-.195-.2a.449.449,0,0,0-.145-.1.343.343,0,0,0-.122-.02c-.02,0-.041,0-.065,0m-13.53.036h0m.514-3.229a.14.14,0,0,0,.027.02l.01,0a.042.042,0,0,0,.017-.007.224.224,0,0,0,.042-.042.656.656,0,0,0,.082-.157h0a.517.517,0,0,0,.036-.19.983.983,0,0,0-.043-.248,1.19,1.19,0,0,1-.049-.305.781.781,0,0,1,.044-.256c.027-.075.049-.158.082-.243a.8.8,0,0,1,.148-.253c.037-.041.066-.073.091-.1a.374.374,0,0,1,.076-.062.157.157,0,0,1,.079-.022h0a.158.158,0,0,1,.055.01.215.215,0,0,1,.035.018l.038.026a.26.26,0,0,0,.105.04,1.646,1.646,0,0,1,.267.07.5.5,0,0,1,.186.117.365.365,0,0,1,.075.117.664.664,0,0,1,.044.182c.007.063.011.132.015.211l.039,0h0l.044,0c0-.025,0-.048.008-.07s.008-.069.008-.093a.164.164,0,0,0,0-.031.114.114,0,0,1,.034-.1l0,0a.535.535,0,0,1-.076-.04.773.773,0,0,1-.19-.173c-.1-.129-.174-.272-.246-.375a.422.422,0,0,0-.133-.138.156.156,0,0,0-.076-.019.409.409,0,0,0-.193.066.112.112,0,0,1-.057.015.1.1,0,0,1-.041-.008.113.113,0,0,1-.068-.072.693.693,0,0,1-.036-.216.63.63,0,0,1,.033-.2,1.4,1.4,0,0,1,.074-.175c.035-.072.067-.125.09-.165a.393.393,0,0,0,.042-.086.166.166,0,0,0,.006-.05.755.755,0,0,0-.029-.174,1.969,1.969,0,0,0-.064-.224.218.218,0,0,0-.076-.1.652.652,0,0,0-.126-.072.311.311,0,0,0-.137-.031h0a.678.678,0,0,0-.184.035l-.043.011a.113.113,0,0,1,.051.055c.037.084.069.166.105.243h0a.8.8,0,0,1,.076.347.846.846,0,0,1-.309.661.708.708,0,0,1-.216.113,1.783,1.783,0,0,0-.187.068.468.468,0,0,0-.128.08.251.251,0,0,0-.048.071c-.01.021-.022.047-.038.078a.715.715,0,0,1-.1.141c-.06.071-.13.141-.192.215a.9.9,0,0,0-.145.22.348.348,0,0,0-.031.14.331.331,0,0,0,.059.183.29.29,0,0,0,.094.091.542.542,0,0,0,.137.055c.106.029.236.04.365.066a.742.742,0,0,1,.252.094.444.444,0,0,1,.121.115.318.318,0,0,1,.047.134,1.024,1.024,0,0,1,.007.132c0,.058,0,.115,0,.164a.617.617,0,0,0,0,.073.124.124,0,0,0,0,.029m.881-2.344a.391.391,0,0,1,.229.076.694.694,0,0,1,.154.164c.084.121.153.258.235.362a.528.528,0,0,0,.182.158l.016.007v-.061c0-.04,0-.08,0-.121a.384.384,0,0,1-.1-.044.408.408,0,0,1-.136-.141.7.7,0,0,1-.084-.355,1.083,1.083,0,0,1,.009-.137.114.114,0,0,1,.1-.1l.016,0a.114.114,0,0,1,.1.068.547.547,0,0,0,.11.172.094.094,0,0,0,.058.031.06.06,0,0,0,.03-.011.169.169,0,0,0,.045-.051.389.389,0,0,0,.054-.2.375.375,0,0,0-.063-.214.388.388,0,0,0-.226-.149.114.114,0,0,1-.084-.116,1.154,1.154,0,0,1,.078-.309.951.951,0,0,0,.055-.207,1.8,1.8,0,0,0-.244-.041,1.007,1.007,0,0,1-.362-.1.679.679,0,0,1-.227-.2,1.216,1.216,0,0,1-.15-.346,1,1,0,0,0-.124-.286.194.194,0,0,0-.09-.072c-.049,0-.1.006-.152.006-.18,0-.378-.017-.537-.017h0a1.3,1.3,0,0,0-.145.006.353.353,0,0,0-.092.021.144.144,0,0,0-.018.01.3.3,0,0,0-.045.175.8.8,0,0,0,.066.3.714.714,0,0,0,.162.243.247.247,0,0,0,.11.065.268.268,0,0,0,.061.006h0a.686.686,0,0,0,.181-.035.892.892,0,0,1,.248-.044h0a.549.549,0,0,1,.231.052.808.808,0,0,1,.188.113.452.452,0,0,1,.116.149.8.8,0,0,1,.042.114c.015.053.029.109.046.176a.934.934,0,0,1,.037.231.4.4,0,0,1-.016.114.533.533,0,0,1-.039.094c-.031.057-.065.108-.106.192a1.2,1.2,0,0,0-.063.146.417.417,0,0,0-.022.128.133.133,0,0,0,0,.018.5.5,0,0,1,.166-.031h0m.616-.077-.1.047.1-.047m.679,14.737a.118.118,0,0,1-.047-.01.112.112,0,0,1-.064-.075.532.532,0,0,1-.02-.137.357.357,0,0,1,.029-.144.3.3,0,0,1,.084-.112.382.382,0,0,1,.234-.08.09.09,0,0,1,.023-.029.112.112,0,0,1,.137-.012.322.322,0,0,1,.158.281.616.616,0,0,1-.045.21.113.113,0,0,1-.072.068.105.105,0,0,1-.035.006.115.115,0,0,1-.062-.018l-.009,0-.029-.008-.072-.015-.022.015a.246.246,0,0,1-.079.034l-.03.007a.138.138,0,0,0-.028.01.112.112,0,0,1-.052.013m.383-.148.062-.1-.062.1m-.144-.162h0l.007,0,.03.008.028.006c0-.009,0-.018,0-.025V440.1a.366.366,0,0,0-.07-.007h0a.254.254,0,0,0-.053.006.119.119,0,0,1,.056.016m10.086-3.012a.276.276,0,0,1-.17-.057.329.329,0,0,1-.1-.133.781.781,0,0,1-.055-.313,1.489,1.489,0,0,1,.015-.2,1.053,1.053,0,0,1,.034-.161h0a.738.738,0,0,1,.105-.217.659.659,0,0,1,.145-.146c.1-.072.2-.12.313-.185l.092-.154a.114.114,0,0,1,.1-.055.092.092,0,0,1,.021,0,.115.115,0,0,1,.092.094.572.572,0,0,1,.006.089,1,1,0,0,1-.089.367,1.22,1.22,0,0,0-.1.293l-.113-.014.113.014c0,.023,0,.058-.007.1s0,.091-.008.142a.962.962,0,0,1-.072.32.374.374,0,0,1-.158.178.342.342,0,0,1-.146.04h-.022m.3-1.16c-.046.025-.087.047-.122.069a.509.509,0,0,0-.159.138.53.53,0,0,0-.072.153h0a.844.844,0,0,0-.026.124,1.316,1.316,0,0,0-.012.173.7.7,0,0,0,.019.179.163.163,0,0,0,.046.087.054.054,0,0,0,.033.01h.006a.1.1,0,0,0,.068-.026.2.2,0,0,0,.049-.078,1.023,1.023,0,0,0,.048-.291c0-.069.006-.133.012-.187a1.422,1.422,0,0,1,.11-.349h0m-5.98-7.567a.175.175,0,0,1-.047-.007.143.143,0,0,1-.049-.026.147.147,0,0,1-.053-.084.217.217,0,0,1-.006-.049.534.534,0,0,1,.023-.133c.013-.045.028-.092.043-.141a1.03,1.03,0,0,0,.056-.268.268.268,0,0,0,0-.039.113.113,0,0,1,.062-.12l.072-.036a.113.113,0,0,1,.149.044,1.392,1.392,0,0,0,.1.137.861.861,0,0,1,.1.156.313.313,0,0,1,.035.137.279.279,0,0,1-.019.1.339.339,0,0,1-.056.092.778.778,0,0,1-.2.161.985.985,0,0,1-.1.053.291.291,0,0,1-.1.022m.18-.565c-.008.039-.018.076-.028.113-.018.064-.038.124-.053.174a.639.639,0,0,0,.113-.083.153.153,0,0,0,.04-.052.047.047,0,0,0,0-.017.086.086,0,0,0-.011-.039.486.486,0,0,0-.045-.071l-.019-.027m-.858-1.313a.872.872,0,0,1-.255-.039.467.467,0,0,1-.211-.129.26.26,0,0,1-.063-.169.3.3,0,0,1,.046-.154.508.508,0,0,1,.054-.074.56.56,0,0,1-.045-.221.6.6,0,0,1,.027-.174.114.114,0,0,1,.082-.076.1.1,0,0,1,.027,0,.113.113,0,0,1,.08.033.445.445,0,0,0,.119.086.309.309,0,0,0,.135.032h.018a.257.257,0,0,1,.036-.067.344.344,0,0,1,.111-.1.54.54,0,0,1,.266-.063.879.879,0,0,1,.092.006.114.114,0,0,1,.08.048.277.277,0,0,1,.072.029.233.233,0,0,1,.1.119.275.275,0,0,1,.017.1.5.5,0,0,1-.049.2,1.331,1.331,0,0,1-.106.188,1.857,1.857,0,0,1-.255.3.679.679,0,0,1-.063.051.471.471,0,0,1-.151.063.768.768,0,0,1-.166.018m-.195-.608a.115.115,0,0,1-.019.15.346.346,0,0,0-.075.083.08.08,0,0,0-.014.037.037.037,0,0,0,.01.022.193.193,0,0,0,.059.041.562.562,0,0,0,.23.047h0a.493.493,0,0,0,.114-.012.221.221,0,0,0,.076-.03.5.5,0,0,0,.063-.056,1.18,1.18,0,0,0,.095-.105,1.349,1.349,0,0,0,.175-.261.333.333,0,0,0,.039-.128.028.028,0,0,0,0-.015h0a.054.054,0,0,0-.012-.006.207.207,0,0,0-.048-.008.115.115,0,0,1-.082-.04.37.37,0,0,0-.114.018.142.142,0,0,0-.068.047.117.117,0,0,0-.018.049.113.113,0,0,1-.081.095.511.511,0,0,1-.141.02.54.54,0,0,1-.233-.054l0,0a.3.3,0,0,0,.046.109l-.094.064.094-.064" transform="translate(-309.86 -421.821)" fill="#fff"/>
    </g>
  </g>
</svg>
