<svg xmlns="http://www.w3.org/2000/svg" xmlns:xlink="http://www.w3.org/1999/xlink" width="163.543" height="58.929" viewBox="0 0 163.543 58.929">
  <defs>
    <clipPath id="clip-path">
      <rect id="Retângulo_3204" data-name="Retângulo 3204" width="163.543" height="58.929" fill="none"/>
    </clipPath>
  </defs>
  <g id="Grupo_10082" data-name="Grupo 10082" clip-path="url(#clip-path)">
    <path id="Caminho_4595" data-name="Caminho 4595" d="M203.469,33.9a.866.866,0,0,1,.182-.649,1.032,1.032,0,0,1,.67-.162h1.332a.978.978,0,0,1,1.136.771l7.386,16.07,7.588-16.07a.978.978,0,0,1,1.136-.771h2.07a1.03,1.03,0,0,1,.669.162.865.865,0,0,1,.183.649v27.27a.864.864,0,0,1-.183.649,1.027,1.027,0,0,1-.669.162h-1.461a1.029,1.029,0,0,1-.67-.162.867.867,0,0,1-.182-.649V38.726L216.041,52.6a.977.977,0,0,1-1.136.771h-1.583a.977.977,0,0,1-1.136-.771l-6.453-13.879" transform="translate(-142.912 -23.238)" fill="#5b5c5e"/>
    <path id="Caminho_4596" data-name="Caminho 4596" d="M470.4,46.53a.421.421,0,0,1-.088.315.5.5,0,0,1-.325.079h-.748a.5.5,0,0,1-.325-.079.42.42,0,0,1-.089-.315V33.3a.42.42,0,0,1,.089-.315.5.5,0,0,1,.325-.079h.748a.5.5,0,0,1,.325.079.421.421,0,0,1,.088.315Z" transform="translate(-329.29 -23.113)" fill="#ffffff"/>
    <path id="Caminho_4597" data-name="Caminho 4597" d="M485.581,34.246H481.8a.5.5,0,0,1-.325-.079.42.42,0,0,1-.089-.315V33.3a.42.42,0,0,1,.089-.315.5.5,0,0,1,.325-.079h9.134a.5.5,0,0,1,.325.079.419.419,0,0,1,.089.315v.551a.419.419,0,0,1-.089.315.5.5,0,0,1-.325.079h-3.78V46.53a.42.42,0,0,1-.089.315.5.5,0,0,1-.325.079h-.748a.5.5,0,0,1-.325-.079.42.42,0,0,1-.088-.315Z" transform="translate(-338.117 -23.113)" fill="#ffffff"/>
    <path id="Caminho_4598" data-name="Caminho 4598" d="M115.734,30.162q7.082,0,9.388,5.6.247.618.432,1.235a9.073,9.073,0,0,1,.288,1.359q.1.741.144,1.647t.041,2.1v6.341q0,1.235-.041,2.182t-.144,1.709a9.624,9.624,0,0,1-.288,1.4q-.185.639-.432,1.256-2.307,5.806-9.388,5.806-7.124,0-9.388-5.517-.247-.618-.432-1.256a9.686,9.686,0,0,1-.288-1.379q-.1-.741-.144-1.668t-.041-2.12V42.514q0-1.236.041-2.182t.144-1.709a9.633,9.633,0,0,1,.288-1.4q.185-.638.432-1.256,2.305-5.806,9.388-5.806m0,2.882q-3.624,0-5.27,2.079t-1.647,6.691v7.329q0,4.612,1.647,6.691t5.27,2.079q3.622,0,5.271-2.079t1.647-6.691V41.814q0-4.611-1.647-6.691t-5.271-2.079" transform="translate(-74.059 -21.185)" fill="#ffffff"/>
    <path id="Caminho_4599" data-name="Caminho 4599" d="M181.027,33.608h-3.175V36.59h2.884V62.339h2.983V33.608Z" transform="translate(-124.92 -23.605)" fill="#ffffff"/>
    <path id="Caminho_4600" data-name="Caminho 4600" d="M37.646,144.358a2.622,2.622,0,0,1,1.337.329,1.728,1.728,0,0,1,.784.9,4.177,4.177,0,0,1,.216,1.426v1.417a5.289,5.289,0,0,1-.051.793,2.64,2.64,0,0,1-.164.605,1.78,1.78,0,0,1-.775.9,2.537,2.537,0,0,1-1.3.315H35.741a.239.239,0,0,1-.155-.038.2.2,0,0,1-.042-.15v-6.307a.2.2,0,0,1,.042-.15.239.239,0,0,1,.155-.037ZM36.295,150.4h1.332a1.462,1.462,0,0,0,1.206-.469,2.346,2.346,0,0,0,.38-1.483v-1.5a2.346,2.346,0,0,0-.38-1.483A1.462,1.462,0,0,0,37.627,145H36.295Z" transform="translate(-24.965 -101.394)" fill="#5b5c5e"/>
    <path id="Caminho_4601" data-name="Caminho 4601" d="M54.576,152.661v.178q0,1.549,1.257,1.549a1.038,1.038,0,0,0,1.061-.61.344.344,0,0,1,.08-.136.262.262,0,0,1,.136-.024h.338a.384.384,0,0,1,.169.024c.025.016.037.058.037.127a.812.812,0,0,1-.1.338,1.689,1.689,0,0,1-.235.357,1.569,1.569,0,0,1-.634.412,2.465,2.465,0,0,1-.877.15,1.889,1.889,0,0,1-1.46-.554,2.239,2.239,0,0,1-.511-1.577v-.7a2.646,2.646,0,0,1,.507-1.741,1.814,1.814,0,0,1,1.474-.605q1.933,0,1.933,2.149v.479a.2.2,0,0,1-.042.15.236.236,0,0,1-.155.038Zm1.239-2.234q-1.229,0-1.239,1.624H57a2.112,2.112,0,0,0-.286-1.229,1.034,1.034,0,0,0-.9-.394" transform="translate(-37.812 -105.248)" fill="#5b5c5e"/>
    <path id="Caminho_4602" data-name="Caminho 4602" d="M71.383,150.853a.2.2,0,0,1-.042.15.238.238,0,0,1-.155.038h-.347a.24.24,0,0,1-.155-.038.2.2,0,0,1-.042-.15v-6.307a.2.2,0,0,1,.042-.15.24.24,0,0,1,.155-.037h.347a.238.238,0,0,1,.155.037.2.2,0,0,1,.042.15Z" transform="translate(-49.617 -101.395)" fill="#5b5c5e"/>
    <path id="Caminho_4603" data-name="Caminho 4603" d="M77.638,145.028a.5.5,0,0,1-.343-.112.394.394,0,0,1-.127-.31v-.15a.382.382,0,0,1,.127-.3.5.5,0,0,1,.343-.113.531.531,0,0,1,.357.113.376.376,0,0,1,.131.3v.15a.387.387,0,0,1-.131.31.532.532,0,0,1-.357.112m.366,5.6a.2.2,0,0,1-.042.15.237.237,0,0,1-.155.038H77.46a.238.238,0,0,1-.155-.038.2.2,0,0,1-.042-.15v-4.543a.2.2,0,0,1,.042-.15.239.239,0,0,1,.155-.038h.347a.239.239,0,0,1,.155.038.2.2,0,0,1,.042.15Z" transform="translate(-54.202 -101.173)" fill="#5b5c5e"/>
    <path id="Caminho_4604" data-name="Caminho 4604" d="M83.052,150.286a.186.186,0,0,1,.136.043.4.4,0,0,1,.08.154l1.3,3.979,1.267-3.979a.371.371,0,0,1,.08-.16.2.2,0,0,1,.136-.038h.394q.15,0,.15.113a.63.63,0,0,1-.028.112L85.06,155a.449.449,0,0,1-.093.164.222.222,0,0,1-.151.042h-.544a.219.219,0,0,1-.15-.042.444.444,0,0,1-.094-.164l-1.5-4.486a.661.661,0,0,1-.028-.112c0-.075.05-.113.15-.113Z" transform="translate(-57.945 -105.558)" fill="#5b5c5e"/>
    <path id="Caminho_4605" data-name="Caminho 4605" d="M98.913,152.661v.178q0,1.549,1.258,1.549a1.036,1.036,0,0,0,1.06-.61.355.355,0,0,1,.08-.136.264.264,0,0,1,.136-.024h.338a.382.382,0,0,1,.169.024c.025.016.038.058.038.127a.8.8,0,0,1-.1.338,1.688,1.688,0,0,1-.234.357,1.575,1.575,0,0,1-.634.412,2.47,2.47,0,0,1-.878.15,1.889,1.889,0,0,1-1.46-.554,2.24,2.24,0,0,1-.511-1.577v-.7a2.644,2.644,0,0,1,.507-1.741,1.814,1.814,0,0,1,1.474-.605q1.934,0,1.933,2.149v.479a.2.2,0,0,1-.042.15.238.238,0,0,1-.155.038Zm1.239-2.234q-1.23,0-1.239,1.624h2.422a2.109,2.109,0,0,0-.287-1.229,1.032,1.032,0,0,0-.9-.394" transform="translate(-68.954 -105.248)" fill="#5b5c5e"/>
    <path id="Caminho_4606" data-name="Caminho 4606" d="M115.7,151.188a1.523,1.523,0,0,1,.54-.652,1.4,1.4,0,0,1,.812-.249h.122c.069,0,.113.013.132.037a.274.274,0,0,1,.028.15v.338a.27.27,0,0,1-.028.15c-.019.026-.063.038-.132.038h-.244a1.025,1.025,0,0,0-.5.122,1.157,1.157,0,0,0-.38.343,1.63,1.63,0,0,0-.244.516,2.323,2.323,0,0,0-.085.643v2.393a.2.2,0,0,1-.042.15.239.239,0,0,1-.155.037h-.347a.237.237,0,0,1-.154-.037.2.2,0,0,1-.043-.15v-4.543a.2.2,0,0,1,.043-.15.239.239,0,0,1,.154-.037h.329a.239.239,0,0,1,.155.037.2.2,0,0,1,.042.15Z" transform="translate(-80.758 -105.558)" fill="#5b5c5e"/>
    <path id="Caminho_4607" data-name="Caminho 4607" d="M125.484,156.152a1.825,1.825,0,0,0,.342-.028.616.616,0,0,0,.258-.113.792.792,0,0,0,.2-.235,2.262,2.262,0,0,0,.174-.385l.112-.328-1.727-4.552a.466.466,0,0,1-.028-.112q0-.113.151-.113h.412a.185.185,0,0,1,.132.038.508.508,0,0,1,.085.16l1.342,3.623,1.249-3.623a.509.509,0,0,1,.084-.16.185.185,0,0,1,.132-.038h.394c.1,0,.15.038.15.113a.466.466,0,0,1-.028.112l-1.764,4.937a3.676,3.676,0,0,1-.314.7,1.528,1.528,0,0,1-.352.413,1.047,1.047,0,0,1-.408.2,2.18,2.18,0,0,1-.493.052h-.216c-.069,0-.113-.013-.131-.037a.271.271,0,0,1-.028-.15v-.282a.269.269,0,0,1,.028-.15c.018-.025.063-.038.131-.038Z" transform="translate(-87.669 -105.558)" fill="#5b5c5e"/>
    <path id="Caminho_4608" data-name="Caminho 4608" d="M138.787,165.494a.157.157,0,0,1,0-.038.664.664,0,0,1,.033-.085l.526-1.211a.414.414,0,0,1-.282-.169.588.588,0,0,1-.1-.357v-.075a.51.51,0,0,1,.154-.39.7.7,0,0,1,.854,0,.521.521,0,0,1,.155.4v.178a1.061,1.061,0,0,1-.071.376,4.668,4.668,0,0,1-.239.507l-.4.751a.434.434,0,0,1-.117.155.316.316,0,0,1-.164.033H138.9c-.075,0-.113-.025-.113-.075" transform="translate(-97.481 -114.506)" fill="#5b5c5e"/>
    <path id="Caminho_4609" data-name="Caminho 4609" d="M156.565,154.444a1.678,1.678,0,0,1-1.389.582,1.854,1.854,0,0,1-1.422-.526,2.143,2.143,0,0,1-.492-1.52v-.995a2.219,2.219,0,0,1,.525-1.581,1.95,1.95,0,0,1,1.492-.559,2.012,2.012,0,0,1,1.5.535,2.053,2.053,0,0,1,.53,1.511v4.42a.2.2,0,0,1-.042.15.242.242,0,0,1-.155.037h-.347a.241.241,0,0,1-.155-.037.2.2,0,0,1-.042-.15ZM154,152.83q0,1.558,1.286,1.558t1.276-1.558v-.788q0-1.558-1.286-1.558T154,152.041Z" transform="translate(-107.648 -105.248)" fill="#5b5c5e"/>
    <path id="Caminho_4610" data-name="Caminho 4610" d="M173.7,154.7a1.623,1.623,0,0,1-.6.474,1.881,1.881,0,0,1-.8.164,1.535,1.535,0,0,1-1.164-.422,1.713,1.713,0,0,1-.4-1.229v-3.21a.2.2,0,0,1,.043-.15.238.238,0,0,1,.154-.038h.347a.24.24,0,0,1,.155.038.2.2,0,0,1,.042.15v3.05a1.306,1.306,0,0,0,.244.877.989.989,0,0,0,.779.277,1.1,1.1,0,0,0,.859-.362,1.389,1.389,0,0,0,.324-.962v-2.881a.2.2,0,0,1,.042-.15.241.241,0,0,1,.155-.038h.347a.241.241,0,0,1,.155.038.2.2,0,0,1,.042.15v4.542a.2.2,0,0,1-.042.15.239.239,0,0,1-.155.037h-.329a.236.236,0,0,1-.154-.037.2.2,0,0,1-.043-.15Z" transform="translate(-119.917 -105.558)" fill="#5b5c5e"/>
    <path id="Caminho_4611" data-name="Caminho 4611" d="M188.666,151.891c.125,0,.285.006.479.018s.388.032.582.057v-.554a1,1,0,0,0-.239-.746,1.1,1.1,0,0,0-.783-.23,1.42,1.42,0,0,0-.671.127.851.851,0,0,0-.361.436.517.517,0,0,1-.075.131.222.222,0,0,1-.141.028h-.338a.256.256,0,0,1-.164-.037.184.184,0,0,1-.042-.141.662.662,0,0,1,.075-.286,1.319,1.319,0,0,1,.188-.286,1.508,1.508,0,0,1,.61-.422,2.578,2.578,0,0,1,.92-.141,2.039,2.039,0,0,1,1.351.361,1.506,1.506,0,0,1,.413,1.187v1.924a1.683,1.683,0,0,1-.422,1.262,1.892,1.892,0,0,1-1.351.408h-.14a2.307,2.307,0,0,1-1.413-.352,1.351,1.351,0,0,1-.455-1.14,1.472,1.472,0,0,1,.479-1.22,2.385,2.385,0,0,1,1.5-.385m.056.619a1.634,1.634,0,0,0-1,.225.915.915,0,0,0-.277.751.8.8,0,0,0,.258.667,1.49,1.49,0,0,0,.906.206h.085a1.02,1.02,0,0,0,.793-.267,1.269,1.269,0,0,0,.239-.859V152.6c-.188-.025-.374-.045-.558-.061s-.333-.023-.446-.023" transform="translate(-131.124 -105.248)" fill="#5b5c5e"/>
    <path id="Caminho_4612" data-name="Caminho 4612" d="M204.173,150.853a.2.2,0,0,1-.042.15.239.239,0,0,1-.155.038h-.347a.239.239,0,0,1-.155-.038.2.2,0,0,1-.042-.15v-6.307a.2.2,0,0,1,.042-.15.239.239,0,0,1,.155-.037h.347a.239.239,0,0,1,.155.037.2.2,0,0,1,.042.15Z" transform="translate(-142.886 -101.395)" fill="#5b5c5e"/>
    <path id="Caminho_4613" data-name="Caminho 4613" d="M210.428,145.028a.5.5,0,0,1-.343-.112.394.394,0,0,1-.127-.31v-.15a.382.382,0,0,1,.127-.3.5.5,0,0,1,.343-.113.531.531,0,0,1,.357.113.377.377,0,0,1,.131.3v.15a.388.388,0,0,1-.131.31.531.531,0,0,1-.357.112m.366,5.6a.2.2,0,0,1-.043.15.236.236,0,0,1-.154.038h-.348a.238.238,0,0,1-.155-.038.2.2,0,0,1-.042-.15v-4.543a.2.2,0,0,1,.042-.15.24.24,0,0,1,.155-.038h.348a.238.238,0,0,1,.154.038.2.2,0,0,1,.043.15Z" transform="translate(-147.471 -101.173)" fill="#5b5c5e"/>
    <path id="Caminho_4614" data-name="Caminho 4614" d="M217.593,151.948a1.246,1.246,0,0,1-.929-.3,1.323,1.323,0,0,1-.291-.948v-3.05h-.61c-.069,0-.112-.013-.131-.038a.272.272,0,0,1-.028-.15v-.244a.275.275,0,0,1,.028-.15c.019-.025.063-.038.131-.038h.61v-1.192a.2.2,0,0,1,.042-.15.239.239,0,0,1,.155-.038h.347a.239.239,0,0,1,.155.038.2.2,0,0,1,.042.15v1.192h.967c.069,0,.112.013.131.038a.272.272,0,0,1,.028.15v.244a.269.269,0,0,1-.028.15q-.028.037-.131.038h-.967v2.928a.915.915,0,0,0,.126.549.5.5,0,0,0,.418.164h.441c.069,0,.113.013.132.037a.277.277,0,0,1,.028.15v.282a.274.274,0,0,1-.028.15c-.019.025-.063.038-.132.038Z" transform="translate(-151.435 -102.302)" fill="#5b5c5e"/>
    <path id="Caminho_4615" data-name="Caminho 4615" d="M226.991,156.152a1.823,1.823,0,0,0,.342-.028.622.622,0,0,0,.259-.113.8.8,0,0,0,.2-.235,2.241,2.241,0,0,0,.173-.385l.113-.328-1.727-4.552a.452.452,0,0,1-.028-.112q0-.113.15-.113h.413a.185.185,0,0,1,.131.038.516.516,0,0,1,.084.16l1.342,3.623,1.248-3.623a.515.515,0,0,1,.084-.16.186.186,0,0,1,.132-.038h.394q.15,0,.15.113a.446.446,0,0,1-.028.112l-1.765,4.937a3.637,3.637,0,0,1-.314.7,1.522,1.522,0,0,1-.352.413,1.054,1.054,0,0,1-.408.2,2.177,2.177,0,0,1-.493.052h-.216c-.068,0-.112-.013-.131-.037a.274.274,0,0,1-.028-.15v-.282a.271.271,0,0,1,.028-.15c.019-.025.063-.038.131-.038Z" transform="translate(-158.965 -105.558)" fill="#5b5c5e"/>
    <path id="Caminho_4616" data-name="Caminho 4616" d="M240.294,165.494a.144.144,0,0,1,0-.038.753.753,0,0,1,.033-.085l.526-1.211a.414.414,0,0,1-.282-.169.588.588,0,0,1-.1-.357v-.075a.509.509,0,0,1,.155-.39.7.7,0,0,1,.854,0,.521.521,0,0,1,.155.4v.178a1.061,1.061,0,0,1-.071.376,4.668,4.668,0,0,1-.239.507l-.4.751a.435.435,0,0,1-.117.155.317.317,0,0,1-.164.033h-.235q-.113,0-.113-.075" transform="translate(-168.777 -114.506)" fill="#5b5c5e"/>
    <path id="Caminho_4617" data-name="Caminho 4617" d="M257.205,155.026a2.059,2.059,0,0,1-.807-.15,1.374,1.374,0,0,1-.572-.432v1.868a.2.2,0,0,1-.042.15.241.241,0,0,1-.155.037h-.347a.239.239,0,0,1-.154-.037.2.2,0,0,1-.043-.15v-4.327a2.206,2.206,0,0,1,.531-1.582,1.965,1.965,0,0,1,1.5-.559,2.03,2.03,0,0,1,1.492.521,1.989,1.989,0,0,1,.526,1.478v.995q0,2.187-1.924,2.187m1.183-2.985q0-1.558-1.276-1.558t-1.286,1.558v.788a1.8,1.8,0,0,0,.323,1.159,1.156,1.156,0,0,0,.953.4q1.285,0,1.286-1.558Z" transform="translate(-179.166 -105.248)" fill="#5b5c5e"/>
    <path id="Caminho_4618" data-name="Caminho 4618" d="M273.118,151.188a1.522,1.522,0,0,1,.539-.652,1.4,1.4,0,0,1,.812-.249h.122c.069,0,.113.013.132.037a.274.274,0,0,1,.028.15v.338a.27.27,0,0,1-.028.15c-.019.026-.062.038-.132.038h-.244a1.026,1.026,0,0,0-.5.122,1.161,1.161,0,0,0-.38.343,1.637,1.637,0,0,0-.244.516,2.322,2.322,0,0,0-.085.643v2.393a.2.2,0,0,1-.042.15.239.239,0,0,1-.155.037h-.347a.239.239,0,0,1-.155-.037.2.2,0,0,1-.042-.15v-4.543a.2.2,0,0,1,.042-.15.241.241,0,0,1,.155-.037h.329a.239.239,0,0,1,.155.037.2.2,0,0,1,.043.15Z" transform="translate(-191.324 -105.558)" fill="#5b5c5e"/>
    <path id="Caminho_4619" data-name="Caminho 4619" d="M284.2,155.025a2.012,2.012,0,0,1-1.5-.535,2.052,2.052,0,0,1-.53-1.511v-.995a2.206,2.206,0,0,1,.53-1.582,1.965,1.965,0,0,1,1.5-.559,2.015,2.015,0,0,1,1.5.535,2.054,2.054,0,0,1,.53,1.511v.995a2.207,2.207,0,0,1-.53,1.582,1.966,1.966,0,0,1-1.5.558m0-.638q1.286,0,1.286-1.558v-.789q0-1.558-1.286-1.558t-1.286,1.558v.789q0,1.558,1.286,1.558" transform="translate(-198.191 -105.247)" fill="#5b5c5e"/>
    <path id="Caminho_4620" data-name="Caminho 4620" d="M300.734,144.358c.068,0,.112.012.131.037a.272.272,0,0,1,.028.15v.253a.273.273,0,0,1-.028.15c-.019.025-.063.037-.131.037h-.272a.843.843,0,0,0-.6.169.792.792,0,0,0-.174.582v.385h.854c.069,0,.112.013.132.037a.275.275,0,0,1,.028.15v.244a.272.272,0,0,1-.028.15c-.019.025-.062.038-.132.038h-.854v4.11a.2.2,0,0,1-.042.15.237.237,0,0,1-.155.037h-.347a.239.239,0,0,1-.155-.037.2.2,0,0,1-.042-.15v-4.11h-.6c-.069,0-.113-.012-.131-.038a.269.269,0,0,1-.028-.15v-.244a.271.271,0,0,1,.028-.15c.018-.025.063-.037.131-.037h.6V145.7a1.289,1.289,0,0,1,.376-.995,1.519,1.519,0,0,1,1.07-.347Z" transform="translate(-209.443 -101.394)" fill="#5b5c5e"/>
    <path id="Caminho_4621" data-name="Caminho 4621" d="M309.307,152.661v.178q0,1.549,1.257,1.549a1.037,1.037,0,0,0,1.061-.61.354.354,0,0,1,.08-.136.262.262,0,0,1,.136-.024h.338a.384.384,0,0,1,.169.024c.025.016.038.058.038.127a.812.812,0,0,1-.1.338,1.678,1.678,0,0,1-.235.357,1.572,1.572,0,0,1-.633.412,2.471,2.471,0,0,1-.878.15,1.889,1.889,0,0,1-1.46-.554,2.24,2.24,0,0,1-.511-1.577v-.7a2.646,2.646,0,0,1,.507-1.741,1.814,1.814,0,0,1,1.474-.605q1.933,0,1.933,2.149v.479a.2.2,0,0,1-.043.15.234.234,0,0,1-.154.038Zm1.239-2.234q-1.23,0-1.239,1.624h2.421a2.112,2.112,0,0,0-.286-1.229,1.033,1.033,0,0,0-.9-.394" transform="translate(-216.73 -105.248)" fill="#5b5c5e"/>
    <path id="Caminho_4622" data-name="Caminho 4622" d="M326.367,155.026a2.141,2.141,0,0,1-1.511-.46,1.1,1.1,0,0,1-.366-.826.184.184,0,0,1,.042-.141.257.257,0,0,1,.164-.038h.272a.3.3,0,0,1,.155.028.2.2,0,0,1,.061.132.813.813,0,0,0,.357.544,1.548,1.548,0,0,0,.807.169q1.07,0,1.07-.76a.777.777,0,0,0-.192-.558,1.4,1.4,0,0,0-.662-.324l-.835-.216a1.733,1.733,0,0,1-.854-.465,1.175,1.175,0,0,1-.272-.812v-.047a1.254,1.254,0,0,1,.469-1.028,1.986,1.986,0,0,1,1.286-.38,1.883,1.883,0,0,1,1.426.469,1.09,1.09,0,0,1,.338.8.184.184,0,0,1-.042.141.257.257,0,0,1-.164.038h-.272a.294.294,0,0,1-.16-.028.211.211,0,0,1-.056-.131q-.113-.7-1.136-.7a1.136,1.136,0,0,0-.727.207.792.792,0,0,0-.211.854.537.537,0,0,0,.16.207,1.13,1.13,0,0,0,.3.169,3.189,3.189,0,0,0,.455.141l.77.2a1.31,1.31,0,0,1,1.126,1.37v.047q0,1.408-1.793,1.408" transform="translate(-227.915 -105.248)" fill="#5b5c5e"/>
    <path id="Caminho_4623" data-name="Caminho 4623" d="M341.03,155.026a2.141,2.141,0,0,1-1.511-.46,1.1,1.1,0,0,1-.366-.826.184.184,0,0,1,.042-.141.257.257,0,0,1,.164-.038h.272a.3.3,0,0,1,.155.028.2.2,0,0,1,.061.132.814.814,0,0,0,.357.544,1.55,1.55,0,0,0,.807.169q1.07,0,1.07-.76a.777.777,0,0,0-.192-.558,1.4,1.4,0,0,0-.662-.324l-.835-.216a1.733,1.733,0,0,1-.854-.465,1.175,1.175,0,0,1-.272-.812v-.047a1.254,1.254,0,0,1,.469-1.028,1.986,1.986,0,0,1,1.286-.38,1.883,1.883,0,0,1,1.426.469,1.092,1.092,0,0,1,.338.8.184.184,0,0,1-.042.141.257.257,0,0,1-.164.038h-.272a.294.294,0,0,1-.159-.028.212.212,0,0,1-.057-.131q-.113-.7-1.135-.7a1.136,1.136,0,0,0-.727.207.79.79,0,0,0-.211.854.536.536,0,0,0,.16.207,1.13,1.13,0,0,0,.3.169,3.189,3.189,0,0,0,.455.141l.77.2a1.31,1.31,0,0,1,1.126,1.37v.047q0,1.408-1.793,1.408" transform="translate(-238.214 -105.248)" fill="#5b5c5e"/>
    <path id="Caminho_4624" data-name="Caminho 4624" d="M355.169,145.028a.5.5,0,0,1-.343-.112.4.4,0,0,1-.127-.31v-.15a.383.383,0,0,1,.127-.3.5.5,0,0,1,.343-.113.531.531,0,0,1,.357.113.376.376,0,0,1,.131.3v.15a.387.387,0,0,1-.131.31.531.531,0,0,1-.357.112m.366,5.6a.2.2,0,0,1-.042.15.238.238,0,0,1-.155.038h-.347a.239.239,0,0,1-.155-.038.2.2,0,0,1-.042-.15v-4.543a.2.2,0,0,1,.042-.15.241.241,0,0,1,.155-.038h.347a.239.239,0,0,1,.155.038.2.2,0,0,1,.042.15Z" transform="translate(-249.133 -101.173)" fill="#5b5c5e"/>
    <path id="Caminho_4625" data-name="Caminho 4625" d="M363.254,155.025a2.012,2.012,0,0,1-1.5-.535,2.052,2.052,0,0,1-.53-1.511v-.995a2.206,2.206,0,0,1,.53-1.582,1.965,1.965,0,0,1,1.5-.559,2.015,2.015,0,0,1,1.5.535,2.054,2.054,0,0,1,.53,1.511v.995a2.207,2.207,0,0,1-.53,1.582,1.966,1.966,0,0,1-1.5.558m0-.638q1.286,0,1.286-1.558v-.789q0-1.558-1.286-1.558t-1.286,1.558v.789q0,1.558,1.286,1.558" transform="translate(-253.718 -105.247)" fill="#5b5c5e"/>
    <path id="Caminho_4626" data-name="Caminho 4626" d="M380.739,149.845a1.607,1.607,0,0,1,1.2.422,1.689,1.689,0,0,1,.413,1.23v3.21a.2.2,0,0,1-.043.15.238.238,0,0,1-.155.037h-.347a.239.239,0,0,1-.155-.037.2.2,0,0,1-.042-.15v-3.05a1.274,1.274,0,0,0-.254-.877,1.061,1.061,0,0,0-.817-.277,1.16,1.16,0,0,0-.9.361,1.364,1.364,0,0,0-.333.962v2.881a.2.2,0,0,1-.042.15.238.238,0,0,1-.155.037h-.347a.239.239,0,0,1-.155-.037.2.2,0,0,1-.042-.15v-4.543a.2.2,0,0,1,.042-.15.241.241,0,0,1,.155-.038h.328a.241.241,0,0,1,.155.038.2.2,0,0,1,.043.15v.329a1.551,1.551,0,0,1,.605-.479,2.006,2.006,0,0,1,.84-.169" transform="translate(-265.9 -105.248)" fill="#5b5c5e"/>
    <path id="Caminho_4627" data-name="Caminho 4627" d="M396.665,151.891q.188,0,.479.018c.194.013.388.032.582.057v-.554a1,1,0,0,0-.239-.746,1.106,1.106,0,0,0-.784-.23,1.416,1.416,0,0,0-.671.127.853.853,0,0,0-.362.436.518.518,0,0,1-.075.131.221.221,0,0,1-.141.028h-.338a.256.256,0,0,1-.164-.037.184.184,0,0,1-.042-.141.662.662,0,0,1,.075-.286,1.318,1.318,0,0,1,.188-.286,1.506,1.506,0,0,1,.61-.422,2.577,2.577,0,0,1,.919-.141,2.038,2.038,0,0,1,1.352.361,1.505,1.505,0,0,1,.413,1.187v1.924a1.683,1.683,0,0,1-.422,1.262,1.892,1.892,0,0,1-1.352.408h-.14a2.307,2.307,0,0,1-1.413-.352,1.352,1.352,0,0,1-.455-1.14,1.472,1.472,0,0,1,.479-1.22,2.385,2.385,0,0,1,1.5-.385m.056.619a1.634,1.634,0,0,0-1,.225.915.915,0,0,0-.277.751.8.8,0,0,0,.258.667,1.49,1.49,0,0,0,.906.206h.084a1.019,1.019,0,0,0,.793-.267,1.267,1.267,0,0,0,.239-.859V152.6q-.282-.038-.558-.061t-.446-.023" transform="translate(-277.218 -105.248)" fill="#5b5c5e"/>
    <path id="Caminho_4628" data-name="Caminho 4628" d="M412.171,150.853a.2.2,0,0,1-.042.15.238.238,0,0,1-.155.038h-.347a.239.239,0,0,1-.155-.038.2.2,0,0,1-.042-.15v-6.307a.2.2,0,0,1,.042-.15.239.239,0,0,1,.155-.037h.347a.238.238,0,0,1,.155.037.2.2,0,0,1,.042.15Z" transform="translate(-288.98 -101.395)" fill="#5b5c5e"/>
    <path id="Caminho_4629" data-name="Caminho 4629" d="M418.427,145.028a.5.5,0,0,1-.343-.112.4.4,0,0,1-.127-.31v-.15a.383.383,0,0,1,.127-.3.5.5,0,0,1,.343-.113.531.531,0,0,1,.357.113.376.376,0,0,1,.131.3v.15a.387.387,0,0,1-.131.31.531.531,0,0,1-.357.112m.366,5.6a.2.2,0,0,1-.042.15.238.238,0,0,1-.155.038h-.347a.239.239,0,0,1-.155-.038.2.2,0,0,1-.042-.15v-4.543a.2.2,0,0,1,.042-.15.241.241,0,0,1,.155-.038h.347a.239.239,0,0,1,.155.038.2.2,0,0,1,.042.15Z" transform="translate(-293.564 -101.173)" fill="#5b5c5e"/>
    <path id="Caminho_4630" data-name="Caminho 4630" d="M426.109,155.026a2.141,2.141,0,0,1-1.511-.46,1.1,1.1,0,0,1-.366-.826.184.184,0,0,1,.042-.141.258.258,0,0,1,.164-.038h.272a.3.3,0,0,1,.155.028.2.2,0,0,1,.061.132.814.814,0,0,0,.357.544,1.55,1.55,0,0,0,.807.169q1.07,0,1.07-.76a.777.777,0,0,0-.192-.558,1.4,1.4,0,0,0-.662-.324l-.835-.216a1.733,1.733,0,0,1-.854-.465,1.175,1.175,0,0,1-.272-.812v-.047a1.254,1.254,0,0,1,.469-1.028,1.986,1.986,0,0,1,1.286-.38,1.883,1.883,0,0,1,1.427.469,1.092,1.092,0,0,1,.338.8.183.183,0,0,1-.042.141.257.257,0,0,1-.164.038h-.272a.3.3,0,0,1-.16-.028.213.213,0,0,1-.057-.131q-.112-.7-1.135-.7a1.136,1.136,0,0,0-.727.207.79.79,0,0,0-.211.854.537.537,0,0,0,.16.207,1.13,1.13,0,0,0,.3.169,3.187,3.187,0,0,0,.455.141l.77.2a1.31,1.31,0,0,1,1.126,1.37v.047q0,1.408-1.793,1.408" transform="translate(-297.971 -105.248)" fill="#5b5c5e"/>
    <path id="Caminho_4631" data-name="Caminho 4631" d="M445.153,149.845a1.52,1.52,0,0,1,1.159.422,1.726,1.726,0,0,1,.4,1.23v3.21a.2.2,0,0,1-.042.15.239.239,0,0,1-.155.037h-.347a.237.237,0,0,1-.155-.037.2.2,0,0,1-.042-.15v-3.05a1.323,1.323,0,0,0-.24-.877.974.974,0,0,0-.774-.277,1.1,1.1,0,0,0-.859.357,1.386,1.386,0,0,0-.324.967v2.881a.2.2,0,0,1-.042.15.239.239,0,0,1-.155.037h-.347a.236.236,0,0,1-.154-.037.2.2,0,0,1-.043-.15v-3.05a1.325,1.325,0,0,0-.239-.877.974.974,0,0,0-.774-.277,1.1,1.1,0,0,0-.859.357,1.384,1.384,0,0,0-.324.967v2.881a.2.2,0,0,1-.042.15.239.239,0,0,1-.155.037h-.347a.238.238,0,0,1-.155-.037.2.2,0,0,1-.042-.15v-4.543a.2.2,0,0,1,.042-.15.24.24,0,0,1,.155-.038h.329a.24.24,0,0,1,.155.038.2.2,0,0,1,.043.15v.329a1.493,1.493,0,0,1,.586-.479,1.9,1.9,0,0,1,.812-.169,1.391,1.391,0,0,1,1.389.77,1.844,1.844,0,0,1,.662-.591,1.986,1.986,0,0,1,.887-.179" transform="translate(-309.113 -105.248)" fill="#5b5c5e"/>
    <path id="Caminho_4632" data-name="Caminho 4632" d="M466.817,163.026a.6.6,0,0,1,.427.146.51.51,0,0,1,.155.39v.188a.509.509,0,0,1-.155.39.7.7,0,0,1-.854,0,.508.508,0,0,1-.155-.39v-.187a.509.509,0,0,1,.155-.39.6.6,0,0,1,.427-.146" transform="translate(-327.474 -114.506)" fill="#5b5c5e"/>
    <path id="Caminho_4633" data-name="Caminho 4633" d="M36.4,54.157a4.65,4.65,0,0,0,2.049,3.023,7.714,7.714,0,0,0,4.241,1.035A6.482,6.482,0,0,0,47.029,56.9a4.67,4.67,0,0,0,1.542-3.754q0-3.733-4.018-5.154l-5.235-1.745Q33.6,44.3,33.6,39.02v-.2a7.22,7.22,0,0,1,2.455-5.843q2.455-2.07,6.96-2.07a12.078,12.078,0,0,1,4.261.649,6.862,6.862,0,0,1,2.881,2.07,6.244,6.244,0,0,1,1.055,1.867,5.882,5.882,0,0,1,.406,2.029.794.794,0,0,1-.183.609,1.11,1.11,0,0,1-.71.162H49.3a1.283,1.283,0,0,1-.69-.122.925.925,0,0,1-.243-.568q-.609-3.936-5.681-3.936a6.482,6.482,0,0,0-4.3,1.3,4.464,4.464,0,0,0-1.542,3.612,6.051,6.051,0,0,0,.223,1.725,3.584,3.584,0,0,0,.73,1.339,4.55,4.55,0,0,0,1.36,1.035,13.477,13.477,0,0,0,2.11.852L46.5,45.27a8.08,8.08,0,0,1,4.058,2.861,7.845,7.845,0,0,1,1.379,4.687v.2a8.3,8.3,0,0,1-.649,3.327A7.255,7.255,0,0,1,49.464,58.9a8.078,8.078,0,0,1-2.881,1.624,11.9,11.9,0,0,1-3.774.568q-5.073,0-7.548-2.354a7.088,7.088,0,0,1-1.5-2.151,5.625,5.625,0,0,1-.609-2.354.8.8,0,0,1,.183-.609,1.113,1.113,0,0,1,.71-.163h1.42a1.3,1.3,0,0,1,.67.122.856.856,0,0,1,.264.568" transform="translate(-23.284 -21.706)" fill="#5b5c5e"/>
    <path id="Caminho_4634" data-name="Caminho 4634" d="M304.221,53.376a.978.978,0,0,1-1.136-.771l-6.452-13.879V61.167a.864.864,0,0,1-.183.649,1.026,1.026,0,0,1-.669.162h-1.461a1.026,1.026,0,0,1-.67-.162.865.865,0,0,1-.182-.649V33.9a.866.866,0,0,1,.182-.649,1.03,1.03,0,0,1,.67-.163h2.232a.979.979,0,0,1,1.136.771l7.386,16.07,7.588-16.07a.979.979,0,0,1,1.136-.771h2.07a1.03,1.03,0,0,1,.67.163.866.866,0,0,1,.183.649v27.27a.865.865,0,0,1-.183.649,1.027,1.027,0,0,1-.67.162h-1.461a1.027,1.027,0,0,1-.67-.162.866.866,0,0,1-.182-.649V38.726L306.939,52.6a.978.978,0,0,1-1.136.771Z" transform="translate(-206.125 -23.238)" fill="#5b5c5e"/>
    <path id="Caminho_4635" data-name="Caminho 4635" d="M407.076,61.127a1.3,1.3,0,0,1,.081.365q0,.487-.649.487h-1.826a.8.8,0,0,1-1.014-.69l-2.394-7.224H389.586l-2.354,7.224a.8.8,0,0,1-1.015.69h-1.7q-.65,0-.649-.487a1.277,1.277,0,0,1,.081-.365l9.293-27.149a1.783,1.783,0,0,1,.365-.69.957.957,0,0,1,.69-.2h2.6a.9.9,0,0,1,.69.223,2.04,2.04,0,0,1,.365.67Zm-16.557-9.9h9.82L395.47,36.291Z" transform="translate(-269.618 -23.238)" fill="#5b5c5e"/>
  </g>
</svg>
