<svg xmlns="http://www.w3.org/2000/svg" width="35.073" height="43.86" viewBox="0 0 35.073 43.86">
  <path id="Fill-12" d="M-74.267,90.076a5.923,5.923,0,0,0-1.651-4.13h.01a2.515,2.515,0,0,1,2.454,2.346,2.071,2.071,0,0,1-.813,1.784Zm-3.471,4.014V92.078a11.8,11.8,0,0,0,2.013-.2,2.536,2.536,0,0,1-2.013,2.215Zm-2.8-2.344a6.032,6.032,0,0,0,1.462.295v2.008a2.42,2.42,0,0,1-1.462-2.3Zm-.01-5.8h1.472V90.8a5.931,5.931,0,0,1-1.472-.385Zm-2.32-3.249a2.149,2.149,0,0,1,.981-1.813v3.559a1.991,1.991,0,0,1-.981-1.746Zm3.792-5.611V78.91a8.452,8.452,0,0,0-1.418.157,2.594,2.594,0,0,1,1.418-1.981Zm2.869,2.267a7.61,7.61,0,0,0-1.53-.376V77.006a2.627,2.627,0,0,1,1.53,2.347Zm-1.53,5.315V80.2a7.768,7.768,0,0,1,1.6.4,5.883,5.883,0,0,1-1.6,4.067Zm-2.811-4.356a7.069,7.069,0,0,1,1.472-.183v4.6h-1.472ZM-75.6,90.64a10.553,10.553,0,0,1-2.141.22v-4.9c.612.141,2.142,1.63,2.142,4.545,0,.046,0,.092,0,.137Zm-.535-5.913H-76.2a7.191,7.191,0,0,0,1.36-3.5,6.545,6.545,0,0,1,1.251.978c.178.181.268.271.4.271a.286.286,0,0,0,.268-.451,3.048,3.048,0,0,1-.491-1.715,2.722,2.722,0,0,1,.223-.993c.09-.225,0-.451-.267-.451-.223,0-.268.181-.357.316a1.177,1.177,0,0,1-1.008.585c-.193-2.439-1.426-3.633-2.7-3.962a3.942,3.942,0,0,1,3.081-2.083c.223-.045.4-.135.4-.316,0-.225-.179-.315-.4-.315a7.36,7.36,0,0,0-1.785.451,8.35,8.35,0,0,1-2.32.451,15.073,15.073,0,0,1-3.079-.632.307.307,0,0,0-.312.316c0,.135.089.271.357.361a3.435,3.435,0,0,1,2.3,1.849,3.3,3.3,0,0,0-1.689,1.49,2.064,2.064,0,0,0-1.948-1.4,1.459,1.459,0,0,0-1.517,1.4.87.87,0,0,0,.758.948c.179,0,.268-.09.268-.226,0-.18-.089-.225-.089-.5a.523.523,0,0,1,.58-.5c.535,0,1.026.542,1.026,2.031V79.5a3.515,3.515,0,0,0-2.32,3.239,3.148,3.148,0,0,0,2.32,3.073v3.807a7.211,7.211,0,0,1-1.919-2.639c-.089-.18-.178-.406-.4-.406-.268,0-.357.271-.223.587a3.542,3.542,0,0,1,.223,1.263,1.953,1.953,0,0,1-.536,1.4c-.178.181-.312.316-.312.451a.259.259,0,0,0,.268.271c.268,0,.58-.316,1.16-.316a3.114,3.114,0,0,1,1.517.632c.075.045.149.092.223.142v1.166c0,.632-.267,1.038-.8,1.038a.578.578,0,0,1-.58-.631c0-.271.178-.361.178-.5s-.089-.225-.267-.225a1.01,1.01,0,0,0-.714,1.083,1.364,1.364,0,0,0,1.383,1.4,2.017,2.017,0,0,0,1.5-.627,3.612,3.612,0,0,0,2.048,1.57,2.411,2.411,0,0,1-2.2,2.171c-.58,0-.893-.316-.893-.722a.661.661,0,0,1,.4-.587c.223-.09.4-.135.4-.406,0-.135-.089-.316-.535-.316A1.545,1.545,0,0,0-83.449,97a1.855,1.855,0,0,0,2.052,1.85,3.859,3.859,0,0,0,2.854-1.322,5.172,5.172,0,0,0,2.5,1.141c.178,0,.357-.09.357-.271s-.179-.315-.357-.406a2.791,2.791,0,0,1-1.7-2.662v-.022a4.343,4.343,0,0,0,3.413-3.854,3.28,3.28,0,0,0,2.209-3.163,3.812,3.812,0,0,0-4.016-3.565Zm7.586,12.725A2.3,2.3,0,0,1-71.134,95.2a1.881,1.881,0,0,1,1.651-2.031c.357,0,.669.135.669.5,0,.225-.089.406.134.406.134,0,.268-.136.268-.5a.884.884,0,0,0-.982-.812h-.134a.922.922,0,0,0,.09-.406.613.613,0,0,0-.625-.632c-.312,0-.625.181-.625.406a.119.119,0,0,0,.134.136c.134,0,.179-.136.4-.136a.284.284,0,0,1,.312.316c0,.316-.268.451-.491.587a2.47,2.47,0,0,0-1.2,2.166,2.449,2.449,0,0,0,1.74,2.436l-.67,1.038c-.892,0-1.338.677-2.141,2.121a.785.785,0,0,0-.8-.632.79.79,0,0,0-.8.857.206.206,0,0,0,.179.226.212.212,0,0,0,.223-.226.413.413,0,0,1,.4-.451.437.437,0,0,1,.447.5,1.375,1.375,0,0,1-.268.857,4.22,4.22,0,0,1-3.347,2.3c-.981,0-1.561-.586-1.561-1.173a.89.89,0,0,1,.847-.993.531.531,0,0,1,.58.542c0,.271-.223.271-.223.406,0,.09.09.135.179.135.268,0,.446-.316.446-.631a.89.89,0,0,0-.982-.858,1.221,1.221,0,0,0-1.115.722,1.221,1.221,0,0,0-1.116-.722.889.889,0,0,0-.981.858c0,.315.178.631.446.631.089,0,.178-.045.178-.135,0-.135-.223-.135-.223-.406a.531.531,0,0,1,.58-.542.891.891,0,0,1,.848.993c0,.587-.58,1.173-1.562,1.173a4.22,4.22,0,0,1-3.346-2.3,1.368,1.368,0,0,1-.268-.857.437.437,0,0,1,.446-.5.413.413,0,0,1,.4.451.212.212,0,0,0,.223.226.206.206,0,0,0,.178-.226.79.79,0,0,0-.8-.857.784.784,0,0,0-.8.632c-.8-1.444-1.25-2.121-2.142-2.121l-.669-1.038a2.451,2.451,0,0,0,1.74-2.436,2.471,2.471,0,0,0-1.205-2.166c-.223-.136-.491-.271-.491-.587a.284.284,0,0,1,.313-.316c.223,0,.267.136.4.136a.119.119,0,0,0,.134-.136c0-.225-.312-.406-.625-.406a.612.612,0,0,0-.624.632.931.931,0,0,0,.089.406h-.134a.885.885,0,0,0-.982.812c0,.361.134.5.268.5.223,0,.134-.181.134-.406,0-.362.312-.5.669-.5A1.88,1.88,0,0,1-85.681,95.2a2.3,2.3,0,0,1-2.588,2.256A3.136,3.136,0,0,1-91.481,94.2a5.767,5.767,0,0,1,2.275-4.242l1.027-.992a5.224,5.224,0,0,0,1.829-4.061,5.062,5.062,0,0,0-3.168-4.558,1.108,1.108,0,0,0,.714-1.128c0-.361-.134-.586-.134-.857a.757.757,0,0,1,.759-.857.651.651,0,0,1,.669.631.472.472,0,0,1-.491.5c-.134,0-.223,0-.223.135s.134.181.312.181a.79.79,0,0,0,.8-.677.638.638,0,0,0,.312.09.519.519,0,0,0,.535-.542c0-.09-.044-.225-.178-.225-.09,0-.134.09-.134.18A.212.212,0,0,1-86.8,78a.477.477,0,0,1-.4-.316,1.141,1.141,0,0,0-.981-.587,1.116,1.116,0,0,0-1.116.948,5.154,5.154,0,0,0-1.026-.812c.357-.226.669-.406,1.026-.677a11.352,11.352,0,0,0,1.562-1.444l2.454-2.707c2.142-2.392,3.525-2.979,4.864-2.979,1.16,0,1.74.587,1.74,1.264a1.128,1.128,0,0,1-.545,1.046,1.518,1.518,0,0,1-.392-.775c-.045-.226-.089-.226-.134-.226-.089,0-.089.09-.089.181a1.756,1.756,0,0,0,.24.938,1.238,1.238,0,0,1-.151.009c-.446,0-.714-.225-.714-.5a.3.3,0,0,1,.089-.226c.09-.09.045-.135,0-.135-.178,0-.357.225-.357.5,0,.316.268.767,1.027.767a1.466,1.466,0,0,0,.422-.063,1.417,1.417,0,0,0,.872.289,1.421,1.421,0,0,0,.872-.289,1.456,1.456,0,0,0,.422.063c.758,0,1.026-.451,1.026-.767,0-.271-.178-.5-.357-.5-.044,0-.089.045,0,.135a.3.3,0,0,1,.089.226c0,.271-.267.5-.714.5a1.234,1.234,0,0,1-.15-.009,1.756,1.756,0,0,0,.24-.938c0-.091,0-.181-.09-.181-.044,0-.089,0-.134.226a1.517,1.517,0,0,1-.391.775,1.126,1.126,0,0,1-.545-1.046c0-.677.58-1.264,1.74-1.264,1.338,0,2.722.587,4.864,2.979l2.454,2.707a9.249,9.249,0,0,0,1.562,1.444c.356.271.669.451,1.026.677a5.125,5.125,0,0,0-1.026.812,1.116,1.116,0,0,0-1.116-.948,1.143,1.143,0,0,0-.982.587.476.476,0,0,1-.4.316.212.212,0,0,1-.223-.226c0-.09-.045-.18-.134-.18-.134,0-.179.135-.179.225a.519.519,0,0,0,.536.542.642.642,0,0,0,.312-.09.789.789,0,0,0,.8.677c.179,0,.313-.046.313-.181s-.09-.135-.224-.135a.449.449,0,0,1-.49-.5.651.651,0,0,1,.669-.631.757.757,0,0,1,.758.857c0,.271-.133.5-.133.857A1.107,1.107,0,0,0-67.3,80.35a5.063,5.063,0,0,0-3.169,4.558,5.225,5.225,0,0,0,1.83,4.061l1.026.992A5.768,5.768,0,0,1-65.333,94.2a3.136,3.136,0,0,1-3.213,3.249Zm-9.861,8.393a7.033,7.033,0,0,0-.937-1.4,1.773,1.773,0,0,0,.937-.857,1.769,1.769,0,0,0,.937.857,6.989,6.989,0,0,0-.937,1.4ZM-77.956,72a1.094,1.094,0,0,1-.451.1,1.094,1.094,0,0,1-.451-.1,1.447,1.447,0,0,0,.451-.61,1.439,1.439,0,0,0,.451.61Zm13.337,20.267a.637.637,0,0,0-.58.316,7.823,7.823,0,0,0-2.276-3.024,2.049,2.049,0,0,0,.625.091,1.929,1.929,0,0,0,1.338-.452.672.672,0,0,0,.67.5.612.612,0,0,0,.669-.677c0-.136-.045-.271-.178-.271-.268,0-.045.542-.491.542a.321.321,0,0,1-.313-.361c0-.226.134-.5.134-.813A1.338,1.338,0,0,0-66,86.758a.614.614,0,0,1-.491-.587c0-.361.268-.406.446-.406s.312.045.312-.09-.134-.226-.4-.226a.741.741,0,0,0-.759.722.722.722,0,0,0,.223.542.92.92,0,0,0-.758.9c0,.316.089.632.312.632.268,0,.045-.226.045-.587,0-.406.357-.586.714-.586a1,1,0,0,1,.937,1.037c0,.677-.536,1.128-1.384,1.128a2.218,2.218,0,0,1-1.784-.767,4.743,4.743,0,0,1-1.473-3.564,4.716,4.716,0,0,1,3.614-4.467,1.122,1.122,0,0,0,.8-1.083.735.735,0,0,0-.714-.813c-.179,0-.313.045-.313.181s.134.135.223.135a.459.459,0,0,1,.4.5.719.719,0,0,1-.759.722.791.791,0,0,1-.8-.858c0-.947,1.116-1.579,1.964-1.985a6.872,6.872,0,0,1-1.607-.948.582.582,0,0,1-.178-.451c0-.226.134-.406.312-.406a.212.212,0,0,1,.223.226c0,.135-.089.135-.089.225a.119.119,0,0,0,.134.135c.089,0,.312-.09.312-.451a.53.53,0,0,0-.58-.541.721.721,0,0,0-.714.767,9.7,9.7,0,0,1-.982-.948l-1.427-1.579c-.4-.451-.179-1.309.4-1.309a.413.413,0,0,1,.446.407c0,.406-.4.225-.4.451a.164.164,0,0,0,.178.18.625.625,0,0,0,.625-.677.808.808,0,0,0-.848-.767.994.994,0,0,0-.982,1.083l-.446-.5c-1.963-2.166-3.57-3.114-5.131-3.114a2.566,2.566,0,0,0-1.428.406,6.943,6.943,0,0,1-.58-.812,7.188,7.188,0,0,1-.58.812,2.569,2.569,0,0,0-1.428-.406c-1.562,0-3.168.948-5.132,3.114l-.446.5a.994.994,0,0,0-.982-1.083.808.808,0,0,0-.848.767A.625.625,0,0,0-87.2,73a.165.165,0,0,0,.179-.18c0-.226-.4-.045-.4-.451a.413.413,0,0,1,.446-.407c.58,0,.8.858.4,1.309L-88,74.845a9.49,9.49,0,0,1-.982.948.721.721,0,0,0-.714-.767.53.53,0,0,0-.58.541c0,.361.223.451.313.451a.119.119,0,0,0,.134-.135c0-.09-.09-.09-.09-.225a.212.212,0,0,1,.223-.226c.179,0,.313.18.313.406a.582.582,0,0,1-.179.451,4.35,4.35,0,0,1-1.606.948c.848.406,1.963,1.038,1.963,1.985a.79.79,0,0,1-.8.858.719.719,0,0,1-.759-.722.46.46,0,0,1,.4-.5c.089,0,.223,0,.223-.135s-.134-.181-.312-.181a.734.734,0,0,0-.714.813,1.122,1.122,0,0,0,.8,1.083,4.755,4.755,0,0,1,3.614,4.467,5,5,0,0,1-1.472,3.564,2.219,2.219,0,0,1-1.785.767c-.848,0-1.383-.451-1.383-1.128a1,1,0,0,1,.937-1.037c.357,0,.714.18.714.586,0,.361-.223.587.044.587.223,0,.313-.316.313-.632a.92.92,0,0,0-.759-.9.718.718,0,0,0,.223-.542.741.741,0,0,0-.758-.722c-.268,0-.4.09-.4.226s.134.09.312.09.447.045.447.406a.615.615,0,0,1-.491.587,1.338,1.338,0,0,0-.982,1.353c0,.316.134.587.134.813a.321.321,0,0,1-.312.361c-.446,0-.223-.542-.491-.542-.134,0-.179.135-.179.271a.613.613,0,0,0,.67.677.671.671,0,0,0,.669-.5,1.931,1.931,0,0,0,1.339.452,2.041,2.041,0,0,0,.624-.091,7.828,7.828,0,0,0-2.275,3.024.639.639,0,0,0-.58-.316.614.614,0,0,0-.67.677c0,.09,0,.36.223.36.179,0,.09-.18.09-.315a.32.32,0,0,1,.357-.316c.356,0,.446.316.356.812a3.979,3.979,0,0,0-.044.722,3.538,3.538,0,0,0,3.614,3.655,6,6,0,0,0,.893-.09l.624.947a1.056,1.056,0,0,0-.758.993,1.015,1.015,0,0,0,1.026,1.038c.357,0,.625-.181.625-.361a.164.164,0,0,0-.179-.181c-.133,0-.133.136-.446.136a.613.613,0,0,1-.624-.632.679.679,0,0,1,.758-.632c.848,0,1.249.993,1.83,1.986l.58.992a4.714,4.714,0,0,0,3.7,2.572,2.159,2.159,0,0,0,.536-.045,8.81,8.81,0,0,1,1.294,1.986,8.775,8.775,0,0,1,1.294-1.986,2.151,2.151,0,0,0,.535.045,4.714,4.714,0,0,0,3.7-2.572l.58-.992c.58-.993.982-1.986,1.829-1.986a.68.68,0,0,1,.759.632.614.614,0,0,1-.625.632c-.312,0-.312-.136-.446-.136a.164.164,0,0,0-.178.181c0,.18.267.361.624.361A1.016,1.016,0,0,0-69.3,99.708a1.057,1.057,0,0,0-.759-.993l.625-.947a5.992,5.992,0,0,0,.892.09A3.538,3.538,0,0,0-64.931,94.2a3.892,3.892,0,0,0-.045-.722c-.089-.5,0-.812.357-.812a.32.32,0,0,1,.357.316c0,.135-.089.315.089.315.223,0,.223-.27.223-.36a.614.614,0,0,0-.669-.677Zm-1.16,7.761c-1.964,2.03-4.864,3.474-7.631,4.828a29.257,29.257,0,0,0-5,2.888,29.268,29.268,0,0,0-5-2.888c-2.766-1.354-5.667-2.8-7.63-4.828-2.5-2.572-3.7-5.189-3.7-8.167,0-2.527.982-4.648,3.213-7.491a1.321,1.321,0,0,0,.357-.632,2.378,2.378,0,0,0-.268-.721L-93,79.583a5.541,5.541,0,0,1-.714-2.256,2.052,2.052,0,0,1,.938-1.534l2.231-2.031a.28.28,0,0,0,.044-.316l-.714-1.489c-.089-.18-.089-.315.045-.406a19.631,19.631,0,0,1,6.649-2.662,23.771,23.771,0,0,0,6.113-2.166,23.743,23.743,0,0,0,6.113,2.166,22.159,22.159,0,0,1,6.649,2.662c.133.091.133.226.044.406l-.714,1.489a.282.282,0,0,0,.045.316l2.231,2.031a2.054,2.054,0,0,1,.937,1.534,5.541,5.541,0,0,1-.714,2.256l-1.562,3.43a2.374,2.374,0,0,0-.267.721,1.312,1.312,0,0,0,.357.632c2.409,2.708,3.212,4.964,3.212,7.491,0,2.978-1.2,5.6-3.7,8.167Zm2.1-15.522c-.4-.5-.625-.722-.625-.9a2.643,2.643,0,0,1,.268-.767l1.339-2.978a6.294,6.294,0,0,0,.758-2.617,2.516,2.516,0,0,0-.937-1.94l-1.919-1.67a.421.421,0,0,1-.089-.541l.714-1.625a.239.239,0,0,0-.089-.316,24.308,24.308,0,0,0-7.05-3.068c-2.365-.632-5.533-1.534-7.1-2.753-1.562,1.219-4.73,2.076-7.1,2.753a24.3,24.3,0,0,0-7.05,3.068.24.24,0,0,0-.09.316l.714,1.625a.421.421,0,0,1-.089.541l-1.919,1.67a2.519,2.519,0,0,0-.937,1.94,6.281,6.281,0,0,0,.759,2.617l1.339,2.978a2.665,2.665,0,0,1,.267.767c0,.181-.223.406-.625.9a10.911,10.911,0,0,0-2.811,7.355,12.787,12.787,0,0,0,4.016,8.979c2.187,2.256,5.221,3.745,7.988,5.1a28.1,28.1,0,0,1,5.533,3.249,28.068,28.068,0,0,1,5.533-3.249c2.766-1.354,5.845-2.843,7.987-5.1a12.783,12.783,0,0,0,4.016-8.979A10.906,10.906,0,0,0-63.682,84.5Z" transform="translate(95.944 -65.324)" fill="#1e2044" fill-rule="evenodd"/>
</svg>
