<svg xmlns="http://www.w3.org/2000/svg" xmlns:xlink="http://www.w3.org/1999/xlink" width="758" height="800" viewBox="0 0 758 800">
  <defs>
    <clipPath id="clip-path">
      <rect id="Retângulo_3290" data-name="Retângulo 3290" width="758" height="800" transform="translate(522)" fill="#fff" stroke="#707070" stroke-width="1"/>
    </clipPath>
  </defs>
  <g id="Grupo_de_máscara_8685" data-name="Grupo de máscara 8685" transform="translate(-522)" clip-path="url(#clip-path)">
    <g id="Grupo_10225" data-name="Grupo 10225" transform="translate(536)">
      <rect id="Retângulo_3248" data-name="Retângulo 3248" width="185.303" height="23.577" transform="translate(264.612 94.876)" fill="#938872"/>
      <rect id="Retângulo_3249" data-name="Retângulo 3249" width="247.644" height="23.577" transform="translate(0.022 108.139)" fill="#3a1605"/>
      <rect id="Retângulo_3250" data-name="Retângulo 3250" width="247.645" height="23.577" transform="matrix(1, -0.027, 0.027, 1, 0.022, 6.676)"/>
      <rect id="Retângulo_3251" data-name="Retângulo 3251" width="247.644" height="4.788" transform="translate(0.022 92.298)" fill="#3a1605"/>
      <rect id="Retângulo_3252" data-name="Retângulo 3252" width="247.644" height="4.789" transform="translate(0.022 38.881)" fill="#fff"/>
      <rect id="Retângulo_3253" data-name="Retângulo 3253" width="247.646" height="23.577" transform="matrix(1, -0.027, 0.027, 1, 463.696, 7.181)"/>
      <rect id="Retângulo_3254" data-name="Retângulo 3254" width="247.645" height="4.789" transform="translate(463.696 39.385)" fill="#fff"/>
      <rect id="Retângulo_3255" data-name="Retângulo 3255" width="247.645" height="23.578" transform="translate(655.122 205.377) rotate(-1.544)" fill="#3a1605"/>
      <rect id="Retângulo_3256" data-name="Retângulo 3256" width="247.644" height="4.788" transform="translate(655.123 237.583)" fill="#fff"/>
      <rect id="Retângulo_3257" data-name="Retângulo 3257" width="247.646" height="4.789" transform="matrix(1, -0.014, 0.014, 1, 0, 57.523)" fill="#3a1605"/>
      <rect id="Retângulo_3258" data-name="Retângulo 3258" width="247.646" height="23.577" transform="matrix(1, -0.027, 0.027, 1, 0.021, 180.005)"/>
      <rect id="Retângulo_3259" data-name="Retângulo 3259" width="247.644" height="4.789" transform="translate(0.022 212.216)" fill="#fff"/>
      <rect id="Retângulo_3260" data-name="Retângulo 3260" width="247.646" height="4.789" transform="matrix(1, -0.014, 0.014, 1, 0, 230.86)" fill="#3a1605"/>
      <rect id="Retângulo_3261" data-name="Retângulo 3261" width="247.645" height="4.789" transform="translate(287.109 720.873)" fill="#fff"/>
      <rect id="Retângulo_3262" data-name="Retângulo 3262" width="247.646" height="4.789" transform="translate(287.088 739.525) rotate(-0.789)" fill="#3a1605"/>
      <rect id="Retângulo_3263" data-name="Retângulo 3263" width="247.646" height="4.79" transform="translate(464.179 57.532) rotate(-0.789)" fill="#3a1605"/>
      <rect id="Retângulo_3264" data-name="Retângulo 3264" width="185.303" height="4.421" transform="translate(264.612 83.088)" fill="#3a1605"/>
      <rect id="Retângulo_3265" data-name="Retângulo 3265" width="247.646" height="23.577" transform="translate(287.109 688.67) rotate(-1.545)"/>
      <rect id="Retângulo_3266" data-name="Retângulo 3266" width="185.303" height="4.421" transform="translate(83.738 636.005)" fill="#3a1605"/>
      <rect id="Retângulo_3267" data-name="Retângulo 3267" width="185.303" height="4.421" transform="translate(264.612 34.459)" fill="#3a1605"/>
      <rect id="Retângulo_3268" data-name="Retângulo 3268" width="245.531" height="4.421" transform="translate(466.315 105.929)" fill="#3a1605"/>
      <rect id="Retângulo_3269" data-name="Retângulo 3269" width="245.531" height="4.421" transform="translate(466.315 153.957)" fill="#3a1605"/>
      <rect id="Retângulo_3270" data-name="Retângulo 3270" width="247.646" height="23.578" transform="translate(287.371 493.489) rotate(-1.545)"/>
      <rect id="Retângulo_3271" data-name="Retângulo 3271" width="247.645" height="4.789" transform="translate(287.371 525.692)" fill="#fff"/>
      <rect id="Retângulo_3272" data-name="Retângulo 3272" width="247.646" height="4.789" transform="translate(287.855 543.839) rotate(-0.789)" fill="#3a1605"/>
      <rect id="Retângulo_3273" data-name="Retângulo 3273" width="245.531" height="4.421" transform="translate(289.991 592.236)" fill="#3a1605"/>
      <rect id="Retângulo_3274" data-name="Retângulo 3274" width="245.531" height="4.421" transform="translate(289.991 640.264)" fill="#3a1605"/>
      <rect id="Retângulo_3275" data-name="Retângulo 3275" width="245.531" height="4.421" transform="translate(655.121 306.582)" fill="#3a1605"/>
      <rect id="Retângulo_3276" data-name="Retângulo 3276" width="185.303" height="4.421" transform="translate(264.587 134.834) rotate(-1.545)" fill="#3a1605"/>
      <rect id="Retângulo_3277" data-name="Retângulo 3277" width="185.303" height="23.577" transform="translate(83.738 533.06)" fill="#361805"/>
      <rect id="Retângulo_3278" data-name="Retângulo 3278" width="185.303" height="23.577" transform="translate(83.738 603.793)" fill="#938872"/>
      <rect id="Retângulo_3279" data-name="Retângulo 3279" width="185.303" height="23.577" transform="translate(83.738 681.994)" fill="#361805"/>
      <rect id="Retângulo_3280" data-name="Retângulo 3280" width="185.303" height="4.421" transform="translate(83.713 573.018) rotate(-1.545)" fill="#fff"/>
      <rect id="Retângulo_3281" data-name="Retângulo 3281" width="185.303" height="4.421" transform="translate(589.081 699.317)" fill="#fff"/>
      <rect id="Retângulo_3282" data-name="Retângulo 3282" width="185.303" height="4.421" transform="translate(589.081 776.886)" fill="#3a1605"/>
      <rect id="Retângulo_3283" data-name="Retângulo 3283" width="185.303" height="23.577" transform="translate(589.081 738.419)" fill="#938872"/>
      <rect id="Retângulo_3284" data-name="Retângulo 3284" width="248.01" height="4.421" transform="translate(654.8 259.682) rotate(-1.545)" fill="#3a1605"/>
      <rect id="Retângulo_3285" data-name="Retângulo 3285" width="185.303" height="23.577" transform="translate(564.493 637.483)" fill="#938872"/>
      <rect id="Retângulo_3286" data-name="Retângulo 3286" width="180.726" height="23.577" transform="translate(565.023 513.641)"/>
      <rect id="Retângulo_3287" data-name="Retângulo 3287" width="185.303" height="4.421" transform="translate(562.736 621.088)" fill="#3a1605"/>
      <rect id="Retângulo_3288" data-name="Retângulo 3288" width="4.421" height="185.304" transform="matrix(0.021, -1, 1, 0.021, 562.709, 579.445)" fill="#3a1605"/>
      <rect id="Retângulo_3289" data-name="Retângulo 3289" width="185.303" height="4.421" transform="translate(560.446 557.728)" fill="#3a1605"/>
    </g>
  </g>
</svg>
