<svg xmlns="http://www.w3.org/2000/svg" width="407.404" height="159.475" viewBox="0 0 407.404 159.475">
  <g id="Logo_rgb_colorido_prp-edn-rgb-pos" transform="translate(-237.62 -74.88)">
    <g id="Grupo_10231" data-name="Grupo 10231" transform="translate(237.62 74.88)">
      <g id="Grupo_10226" data-name="Grupo 10226" transform="translate(0 86.504)">
        <path id="Caminho_4521" data-name="Caminho 4521" d="M1478.875,542.336a13,13,0,0,0-5.007-3.383,16.957,16.957,0,0,0-5.934-1.043,14.475,14.475,0,0,0-7.237,1.629,15.7,15.7,0,0,0-4.207,3.216,4.324,4.324,0,0,0-2.44-3.091,10.327,10.327,0,0,0-4.712-.92,44.712,44.712,0,0,0-5.138.588s1.149,13.06,1.149,25.007c0,10.161-.369,29.8-.369,29.8s4-1.611,6.082-2.507a14.106,14.106,0,0,0,4.808-3.149c1.143-1.36,1.253-3.425,1.221-6.227l-.11-6.324a6.737,6.737,0,0,0,.774.824,8.113,8.113,0,0,0,1.935,1.336,17.18,17.18,0,0,0,3.071,1.212,14.841,14.841,0,0,0,4.25.542,18.346,18.346,0,0,0,5.849-1,13.433,13.433,0,0,0,5.385-3.466,18.323,18.323,0,0,0,3.915-6.682,32.176,32.176,0,0,0,1.516-10.733,29.616,29.616,0,0,0-1.306-9.438,16.878,16.878,0,0,0-3.492-6.181Zm-9.174,25.227a6.848,6.848,0,0,1-6.313,3.342,8.348,8.348,0,0,1-4-.92,12.592,12.592,0,0,1-2.487-1.681c-.132-6,.234-15.326.312-16.53a6.2,6.2,0,0,1,1.294-3.828,6.66,6.66,0,0,1,4.8-1.518,8.4,8.4,0,0,1,4,.876,6.741,6.741,0,0,1,2.61,2.464,11.37,11.37,0,0,1,1.387,3.758,24.717,24.717,0,0,1,.418,4.678q0,6.014-2.019,9.356Z" transform="translate(-1149.778 -524.646)" fill="#31170d"/>
        <path id="Caminho_4522" data-name="Caminho 4522" d="M121.714,536.981c-4-3.028-9.048-4.541-17.753-4.541-2.251,0-4.37.074-7.155.221s-7.521.369-10.187.662a58.861,58.861,0,0,1,.779,7.988c.208,5.339.427,12.919.427,21.375s-.232,16.578-.449,21.941a49.646,49.646,0,0,1-.731,7.263h15.446a49.649,49.649,0,0,1-.731-7.263c-.145-3.594-.3-8.3-.382-13.641v-.011h3.78a39.739,39.739,0,0,0,9.3-1.058,18.938,18.938,0,0,0,7.2-3.4,17.367,17.367,0,0,0,5.294-6.476,21.824,21.824,0,0,0,1.954-9.7,16.318,16.318,0,0,0-6.8-13.359Zm-9.922,22.451a14.868,14.868,0,0,1-8.41,2.414h-2.468c.013-8.02.217-15.2.419-20.345.763-.074,2.616-.236,4.027-.236a11.1,11.1,0,0,1,6.647,2.2,9.418,9.418,0,0,1,3.62,7.664c0,4.123-1.672,6.693-3.832,8.3Z" transform="translate(-86.62 -520.362)" fill="#31170d"/>
        <path id="Caminho_4523" data-name="Caminho 4523" d="M319.815,616.346c0-.807-.041-3.286-3.8-4.084a7.52,7.52,0,0,0-6.575,1.689,13.442,13.442,0,0,0-3,3.457,5.339,5.339,0,0,0-2.57-3.594,9.252,9.252,0,0,0-4.834-.815,36.367,36.367,0,0,0-5.541.913s.239,1.57.557,6.491c.245,3.782.271,14.1.271,14.1s.1,7.354-.252,13c-.356,5.784-.542,6.727-.542,6.727h14.14s-.39-2.141-.7-6.632-.23-7.571-.221-13.09-.048-8.378,1.694-10.419c1.336-1.564,3.1-2.368,6.031-1.292a6.89,6.89,0,0,1,2.26,1.5,22.349,22.349,0,0,0,1.8-3.227,14.3,14.3,0,0,0,1.282-4.724Z" transform="translate(-248.633 -582.733)" fill="#31170d"/>
        <path id="Caminho_4524" data-name="Caminho 4524" d="M449.945,618.245c-3.7-3.8-8.56-5.97-15.164-5.918a25.368,25.368,0,0,0-7.658,1.21,18.878,18.878,0,0,0-6.7,3.8,19.835,19.835,0,0,0-5.155,6.525,22.983,22.983,0,0,0-1.9,9.462,25.92,25.92,0,0,0,2.125,10.939,19.62,19.62,0,0,0,5.658,6.959,19.024,19.024,0,0,0,7.384,3.63,34.623,34.623,0,0,0,8.434,1.037,30.527,30.527,0,0,0,8.252-.993,17.471,17.471,0,0,0,5.424-2.377q2.277-1.555,2.28-3.457a7.133,7.133,0,0,0-1.186-3.329,23.92,23.92,0,0,0-2.279-3.329q-.82.693-1.824,1.512a13,13,0,0,1-2.37,1.514,16.452,16.452,0,0,1-3.1,1.167,15.23,15.23,0,0,1-4.012.475q-5.927,0-8.662-3.156a11.4,11.4,0,0,1-3.1-7.25l27.22-.659a36.771,36.771,0,0,0,.538-5.3c0-5.643-1.162-9.336-4.205-12.464ZM426.3,630.188c0-2.939.674-5.628,2.134-7.27a7.945,7.945,0,0,1,6.072-2.724c2.917,0,5.287,1.18,6.415,2.908a11.08,11.08,0,0,1,1.574,6.426l-16.194.659Z" transform="translate(-342.507 -582.923)" fill="#31170d"/>
        <path id="Caminho_4525" data-name="Caminho 4525" d="M1049.575,618.245c-3.7-3.8-8.56-5.97-15.164-5.918a25.368,25.368,0,0,0-7.658,1.21,18.873,18.873,0,0,0-6.7,3.8,19.826,19.826,0,0,0-5.155,6.525,22.975,22.975,0,0,0-1.9,9.462,25.918,25.918,0,0,0,2.125,10.939,19.616,19.616,0,0,0,5.658,6.959,19.023,19.023,0,0,0,7.385,3.63,34.62,34.62,0,0,0,8.434,1.037,30.53,30.53,0,0,0,8.252-.993,17.479,17.479,0,0,0,5.424-2.377q2.276-1.555,2.279-3.457a7.136,7.136,0,0,0-1.186-3.329,23.984,23.984,0,0,0-2.279-3.329q-.82.693-1.824,1.512a13.019,13.019,0,0,1-2.371,1.514,16.445,16.445,0,0,1-3.1,1.167,15.23,15.23,0,0,1-4.012.475q-5.927,0-8.662-3.156a11.4,11.4,0,0,1-3.1-7.25l27.22-.659a36.771,36.771,0,0,0,.538-5.3c0-5.643-1.163-9.336-4.205-12.464Zm-23.643,11.943c0-2.939.674-5.628,2.134-7.27a7.945,7.945,0,0,1,6.072-2.724c2.917,0,5.288,1.18,6.415,2.908a11.08,11.08,0,0,1,1.574,6.426l-16.194.659Z" transform="translate(-812.093 -582.923)" fill="#31170d"/>
        <path id="Caminho_4526" data-name="Caminho 4526" d="M681.665,636.031s.061-9.011.061-10.57c0-4.42-1.221-8-3.808-10.31-1.943-1.733-5.773-2.83-9.549-2.83-5.424,0-8.213,1.494-12.132,5.608a9.408,9.408,0,0,0-3.526-3.88,13.209,13.209,0,0,0-7.272-1.729c-3.483,0-4.986.531-6.868,1.577a13.424,13.424,0,0,0-4.389,3.7c-1-3.565-3.335-4.531-7.386-4.409a29.47,29.47,0,0,0-5.554.913s.316,3.3.573,6.549c.282,3.576.347,10.141.269,15.157s-.178,9-.247,11.919-.544,6.7-.544,6.7h14.127a65.2,65.2,0,0,1-.705-6.643c-.1-2.915-.236-11.752-.236-11.752s.028-3.2.124-6.934,2.182-6.569,5.4-6.569c3.7,0,5.827,1.685,5.827,4.24l.087,9.263s-.032,8.087-.247,11.7-.547,6.7-.547,6.7h14.223s-.646-4.069-.763-6.806c-.167-3.934-.152-11.343-.152-11.343l.022-5.771c.091-4.5,1.527-8,5.456-8,2.822,0,5.205,1.4,5.205,4.272,0,0,.108,4.769.108,9.252s-.126,8.352-.21,11.668a61.557,61.557,0,0,1-.581,6.728H682.65s-.529-3.1-.75-6.726c-.146-2.366-.232-9.143-.232-11.663Z" transform="translate(-505.296 -582.918)" fill="#31170d"/>
        <path id="Caminho_4527" data-name="Caminho 4527" d="M940.582,639c0-3.787.755-15.96.755-15.96a7.677,7.677,0,0,0-.6-3.5c-.466-.893-2.746-3.7-7.558-3.4a41.3,41.3,0,0,0-5.766.917,60.588,60.588,0,0,1,.576,6.623c.1,3.553.269,6.574.269,15.316,0,5.4-.3,11.644-.3,11.644-.25,3.585.616,5.24,2.039,6.19s3.938,1.16,6.2,1.16c.928,0,5.136-.232,5.37-.345,0,0-.475-3.2-.752-6.742-.264-3.37-.23-5.615-.23-11.9Z" transform="translate(-745.066 -585.892)" fill="#31170d"/>
        <path id="Caminho_4528" data-name="Caminho 4528" d="M1861.335,529.393a28.535,28.535,0,0,0-1.937-3.175q-.25.25-.841.752a7.837,7.837,0,0,1-1.472.961,15.589,15.589,0,0,1-1.937.835,6.611,6.611,0,0,1-2.231.375c-3.2,0-4.479-1.869-4.795-5.847,0,0-.284-3.524-.284-9.6a68.112,68.112,0,0,1,.295-8.107s4.86.106,7.219-.169c2.971-.347,3.271-8.519,3.271-8.519H1848.13v-5.847a7.339,7.339,0,0,0-.674-3.383,5.513,5.513,0,0,0-1.768-2.047,6.291,6.291,0,0,0-2.439-1,18.044,18.044,0,0,0-2.986-.252c-.452,0-.9.015-1.347.041s-.87.069-1.262.126l-2.377.189a86.712,86.712,0,0,1,.851,12.175s-2.687-.082-2.687.371a35.815,35.815,0,0,0,1.657,8.052c.137.354,1.03.273,1.03.273s.265,3.513.265,8.1v9.768q0,1.838.169,3.676a14.365,14.365,0,0,0,.756,3.509,10.744,10.744,0,0,0,4.041,5.261q2.859,2,8.163,2.006a21.447,21.447,0,0,0,4.964-.542,15.654,15.654,0,0,0,3.872-1.421,10.425,10.425,0,0,0,2.767-1.922,3.278,3.278,0,0,0,.883-2.13,5.608,5.608,0,0,0-.672-2.505Z" transform="translate(-1454.602 -482.717)" fill="#31170d"/>
        <path id="Caminho_4529" data-name="Caminho 4529" d="M929.43,557.884a8.33,8.33,0,0,0,5.416.414,8,8,0,0,0,4.535-2.726,5.444,5.444,0,0,0,1.254-5.022,5.369,5.369,0,0,0-3.231-3.917,8.612,8.612,0,0,0-5.446-.366,8.33,8.33,0,0,0-4.637,2.826,5.756,5.756,0,0,0,2.113,8.8Z" transform="translate(-744.006 -530.974)" fill="#31170d"/>
        <path id="Caminho_4530" data-name="Caminho 4530" d="M1913.733,486a5.185,5.185,0,0,1-1.047-1.733,6.038,6.038,0,0,1-.367-2.1,5.8,5.8,0,0,1,.375-2.1,5.09,5.09,0,0,1,1.072-1.718,5.15,5.15,0,0,1,1.7-1.169,6.146,6.146,0,0,1,4.535,0,5.029,5.029,0,0,1,1.689,1.169,5.181,5.181,0,0,1,1.064,1.718,6.1,6.1,0,0,1,0,4.2A5.165,5.165,0,0,1,1921.68,486a5.081,5.081,0,0,1-1.7,1.176,6.16,6.16,0,0,1-4.542,0A5.057,5.057,0,0,1,1913.733,486Zm2.113.356a4.562,4.562,0,0,0,1.884.371,4.435,4.435,0,0,0,1.876-.38,4.163,4.163,0,0,0,1.381-1.006,4.266,4.266,0,0,0,.854-1.455,5.131,5.131,0,0,0,.293-1.726,5.055,5.055,0,0,0-.293-1.718,4.31,4.31,0,0,0-.854-1.446,4.091,4.091,0,0,0-1.381-1,4.915,4.915,0,0,0-3.745,0,4.113,4.113,0,0,0-1.375,1,4.37,4.37,0,0,0-.852,1.446,5.078,5.078,0,0,0-.292,1.718,4.893,4.893,0,0,0,.642,2.5,4.189,4.189,0,0,0,1.861,1.7Zm-.131-7.491c.3-.03.632-.054.983-.069s.636-.024.854-.024a3.111,3.111,0,0,1,2.056.549,1.77,1.77,0,0,1,.626,1.386,2,2,0,0,1-.13.735,1.915,1.915,0,0,1-.34.573,1.854,1.854,0,0,1-.5.4,2,2,0,0,1-.577.225h.033l1.674,2.646a1.12,1.12,0,0,1-.3.109,1.561,1.561,0,0,1-.284.03,1.085,1.085,0,0,1-.462-.1.9.9,0,0,1-.381-.364l-1.382-2.182h-.843v2.57h-1.023v-6.485Zm2.048,3c.933,0,1.4-.382,1.4-1.145a.892.892,0,0,0-.366-.774,2.089,2.089,0,0,0-1.195-.262c-.2,0-.364,0-.5.009a2.965,2.965,0,0,0-.391.039h.033v2.136h1.023Z" transform="translate(-1516.375 -476.75)" fill="#31170d"/>
        <path id="Caminho_4531" data-name="Caminho 4531" d="M1679.538,543.386c-3.574-3.674-8.273-5.771-14.654-5.719a24.524,24.524,0,0,0-7.4,1.169,18.278,18.278,0,0,0-6.476,3.676,19.165,19.165,0,0,0-4.981,6.307,22.222,22.222,0,0,0-1.835,9.143,25.047,25.047,0,0,0,2.054,10.57,18.957,18.957,0,0,0,5.468,6.725,18.364,18.364,0,0,0,7.137,3.509,33.469,33.469,0,0,0,8.15,1,29.477,29.477,0,0,0,7.975-.961,16.927,16.927,0,0,0,5.242-2.3q2.2-1.5,2.2-3.342a6.875,6.875,0,0,0-1.146-3.216,22.952,22.952,0,0,0-2.2-3.216q-.793.67-1.761,1.462a12.484,12.484,0,0,1-2.29,1.462,15.933,15.933,0,0,1-2.995,1.128,14.736,14.736,0,0,1-3.876.46q-5.729,0-8.372-3.049a11.014,11.014,0,0,1-2.995-7.005l26.3-.638a35.478,35.478,0,0,0,.521-5.125c0-5.452-1.123-9.022-4.064-12.045Zm-22.848,11.542c0-2.839.651-5.439,2.063-7.027a7.674,7.674,0,0,1,5.869-2.633,7.266,7.266,0,0,1,6.2,2.811,10.706,10.706,0,0,1,1.52,6.209l-15.65.637Z" transform="translate(-1306.395 -524.455)" fill="#31170d"/>
        <path id="Caminho_4532" data-name="Caminho 4532" d="M1264.21,589.613c-1.841-2.2-4.422-5.363-6.576-8.176s-5.207-7.784-5.207-7.784l-3.156-5.1a21.619,21.619,0,0,0,3.312-2.03,17.364,17.364,0,0,0,5.294-6.476,21.824,21.824,0,0,0,1.954-9.7,16.319,16.319,0,0,0-6.8-13.359c-4-3.027-9.048-4.541-17.754-4.541-2.25,0-4.37.074-7.154.221s-7.521.369-10.187.662a58.854,58.854,0,0,1,.779,7.987c.208,5.339.427,12.919.427,21.375s-.231,16.578-.448,21.941a49.658,49.658,0,0,1-.731,7.263h15.446a49.679,49.679,0,0,1-.73-7.263c-.146-3.594-.3-8.3-.382-13.641v-.011h3.778c.1,0,.187-.006.282-.009l9.4,15.884a12.931,12.931,0,0,0,4.005,4.5,9.874,9.874,0,0,0,5.4,1.384,33.757,33.757,0,0,0,10.087-1.891s-.692-.8-1.047-1.229Zm-31.976-27.76c.013-8.02.216-15.2.418-20.345.763-.074,2.615-.236,4.027-.236a11.1,11.1,0,0,1,6.647,2.2,9.417,9.417,0,0,1,3.62,7.664c0,4.123-1.672,6.693-3.832,8.3a14.872,14.872,0,0,1-8.411,2.414h-2.468Z" transform="translate(-972.587 -520.37)" fill="#31170d"/>
      </g>
      <g id="Grupo_10230" data-name="Grupo 10230" transform="translate(0.512 0)">
        <g id="Grupo_10228" data-name="Grupo 10228" transform="translate(0 30.377)">
          <g id="Grupo_10227" data-name="Grupo 10227" transform="translate(40.913)">
            <path id="Caminho_4533" data-name="Caminho 4533" d="M277.63,270.28h26.437v8.428H287.378v5.673h13.715v7.931H287.378v6.278h17.846v8.428H277.63Z" transform="translate(-277.63 -258.931)" fill="#fff"/>
            <path id="Caminho_4534" data-name="Caminho 4534" d="M443.268,282.453h15.092V299.03a20.3,20.3,0,0,1-7.573,4.049,30.578,30.578,0,0,1-8.564,1.238,22.912,22.912,0,0,1-8.013-1.349,16.677,16.677,0,0,1-6.031-3.856,16.5,16.5,0,0,1-3.774-6.086,23.519,23.519,0,0,1-1.295-8.042,20.847,20.847,0,0,1,1.405-7.738,17.654,17.654,0,0,1,9.97-10.106,20.242,20.242,0,0,1,7.738-1.431,23.979,23.979,0,0,1,8.564,1.514,15.026,15.026,0,0,1,6.693,5.04l-6.335,6.389a16.968,16.968,0,0,0-3.663-2.808,9.1,9.1,0,0,0-4.543-1.1,10.02,10.02,0,0,0-4.186.826A8.955,8.955,0,0,0,435.7,277.8a9.8,9.8,0,0,0-1.9,3.305,12.245,12.245,0,0,0-.661,4.049,12.033,12.033,0,0,0,.716,4.268,9.655,9.655,0,0,0,1.982,3.249,8.63,8.63,0,0,0,3.084,2.093,10.657,10.657,0,0,0,4.075.744,13.36,13.36,0,0,0,3.47-.44,9.813,9.813,0,0,0,3.195-1.542V290h-6.389v-7.545Z" transform="translate(-391.559 -255.352)" fill="#fff"/>
            <path id="Caminho_4535" data-name="Caminho 4535" d="M633.661,266.916a19.632,19.632,0,0,1-7.628-1.46,18.6,18.6,0,0,1-6.059-4.021,18.1,18.1,0,0,1-3.993-6.114,21.632,21.632,0,0,1,0-15.476,17.895,17.895,0,0,1,10.052-10.106,19.952,19.952,0,0,1,7.628-1.431,20.167,20.167,0,0,1,7.656,1.431,17.892,17.892,0,0,1,6.059,3.993,18.339,18.339,0,0,1,3.967,6.114,21.632,21.632,0,0,1,0,15.476,17.906,17.906,0,0,1-10.026,10.134A19.843,19.843,0,0,1,633.661,266.916Zm0-9.143a8.83,8.83,0,0,0,3.827-.8,8.327,8.327,0,0,0,2.837-2.175,9.583,9.583,0,0,0,1.763-3.249,13.306,13.306,0,0,0,0-7.933,9.581,9.581,0,0,0-1.763-3.249,8.3,8.3,0,0,0-2.837-2.175,9.579,9.579,0,0,0-7.656,0A8.329,8.329,0,0,0,627,240.368a9.581,9.581,0,0,0-1.763,3.249,13.3,13.3,0,0,0,0,7.933A9.529,9.529,0,0,0,627,254.8a8.3,8.3,0,0,0,2.836,2.175A8.8,8.8,0,0,0,633.661,257.772Zm-.77-39.822h9.859l-6.83,8.593h-7.05Z" transform="translate(-541.481 -217.95)" fill="#fff"/>
            <path id="Caminho_4536" data-name="Caminho 4536" d="M851.352,296.608a19.954,19.954,0,0,1-16.359,7.766,20.45,20.45,0,0,1-7.766-1.432,17.47,17.47,0,0,1-9.942-10.026,20.787,20.787,0,0,1-1.405-7.766,21.092,21.092,0,0,1,1.377-7.738,18.2,18.2,0,0,1,3.91-6.168,17.8,17.8,0,0,1,6.06-4.075,20.129,20.129,0,0,1,7.766-1.459,24.137,24.137,0,0,1,8.868,1.6,15.156,15.156,0,0,1,6.884,5.563l-6.443,6.5a12.327,12.327,0,0,0-3.691-3.359,9.474,9.474,0,0,0-4.9-1.267,10.5,10.5,0,0,0-4.132.772,8.563,8.563,0,0,0-3.058,2.147,9.594,9.594,0,0,0-1.9,3.223,12.385,12.385,0,0,0,.028,8.068A9.613,9.613,0,0,0,828.6,292.2a8.821,8.821,0,0,0,3.058,2.147,9.989,9.989,0,0,0,3.992.77,10.544,10.544,0,0,0,5.205-1.13,13.894,13.894,0,0,0,3.938-3.552l6.554,6.168Z" transform="translate(-699.148 -255.352)" fill="#fff"/>
            <path id="Caminho_4537" data-name="Caminho 4537" d="M1003.78,270.28h9.748v36.738h-9.748Z" transform="translate(-846.298 -258.931)" fill="#fff"/>
            <path id="Caminho_4538" data-name="Caminho 4538" d="M1099.541,304.318a19.631,19.631,0,0,1-7.628-1.459,18.6,18.6,0,0,1-6.059-4.021,18.1,18.1,0,0,1-3.993-6.114,21.631,21.631,0,0,1,0-15.476,17.894,17.894,0,0,1,10.052-10.106,19.949,19.949,0,0,1,7.628-1.431,20.165,20.165,0,0,1,7.655,1.431,17.891,17.891,0,0,1,6.06,3.993,18.322,18.322,0,0,1,3.966,6.114,21.624,21.624,0,0,1,0,15.476,17.9,17.9,0,0,1-10.026,10.135A19.843,19.843,0,0,1,1099.541,304.318Zm0-9.143a8.834,8.834,0,0,0,3.828-.8,8.339,8.339,0,0,0,2.836-2.175,9.592,9.592,0,0,0,1.763-3.249,13.306,13.306,0,0,0,0-7.933,9.6,9.6,0,0,0-1.763-3.249,8.319,8.319,0,0,0-2.836-2.175,9.58,9.58,0,0,0-7.656,0,8.334,8.334,0,0,0-2.837,2.175,9.583,9.583,0,0,0-1.763,3.249,13.3,13.3,0,0,0,0,7.933,9.525,9.525,0,0,0,1.763,3.249,8.305,8.305,0,0,0,2.837,2.175A8.792,8.792,0,0,0,1099.541,295.174Z" transform="translate(-906.324 -255.352)" fill="#fff"/>
            <path id="Caminho_4539" data-name="Caminho 4539" d="M1277.747,291.815a15.781,15.781,0,0,0,4.021,2.808,11.789,11.789,0,0,0,5.452,1.267,8.363,8.363,0,0,0,1.488-.139,4.488,4.488,0,0,0,1.377-.469,2.891,2.891,0,0,0,.99-.88,2.445,2.445,0,0,0,.387-1.431A2.758,2.758,0,0,0,1290,290.6a19.8,19.8,0,0,0-4.269-1.872l-2.038-.661a23.481,23.481,0,0,1-3.442-1.432,14.319,14.319,0,0,1-3.111-2.121,9.978,9.978,0,0,1-2.232-2.919,8.571,8.571,0,0,1-.854-3.938,11.777,11.777,0,0,1,.938-4.708,10.9,10.9,0,0,1,2.726-3.8,12.591,12.591,0,0,1,4.433-2.533,18.813,18.813,0,0,1,6.113-.909,22.413,22.413,0,0,1,4.9.494,21.7,21.7,0,0,1,3.856,1.212,15.255,15.255,0,0,1,2.809,1.542,11.568,11.568,0,0,1,1.763,1.488l-4.958,6.279a20.305,20.305,0,0,0-4.021-2.34,10.712,10.712,0,0,0-4.3-.909,6.3,6.3,0,0,0-1.431.165,4.811,4.811,0,0,0-1.295.494,2.8,2.8,0,0,0-.937.854,2.24,2.24,0,0,0-.357,1.295,2.476,2.476,0,0,0,.412,1.431,3.643,3.643,0,0,0,1.13,1.047,8.935,8.935,0,0,0,1.734.8c.679.238,1.406.488,2.176.744l1.763.551c1.246.4,2.516.872,3.8,1.405a12.584,12.584,0,0,1,3.47,2.147,10.692,10.692,0,0,1,2.533,3.359,11.075,11.075,0,0,1,.991,4.93,9.544,9.544,0,0,1-1.185,4.682,11.8,11.8,0,0,1-3.194,3.691,15.158,15.158,0,0,1-4.737,2.4,19.361,19.361,0,0,1-5.81.855,25.424,25.424,0,0,1-9.226-1.46,19.051,19.051,0,0,1-6.307-3.938l5.9-7.1Z" transform="translate(-1056.23 -255.352)" fill="#fff"/>
          </g>
          <path id="Caminho_4540" data-name="Caminho 4540" d="M116.809,307.008l-12.4-4.47-5.788,4.47H88.98V270.27h8.868l14.1,20.488V270.27h9.638v36.738h-4.778Z" transform="translate(-88.98 -258.923)" fill="#fff"/>
          <path id="Caminho_4541" data-name="Caminho 4541" d="M133.43,342.4l18.189,21.1H143.7l3.763,10.145-5.316,2.01-3.528-10.31-5.185,5.6Z" transform="translate(-123.79 -315.41)"/>
        </g>
        <g id="Grupo_10229" data-name="Grupo 10229">
          <path id="Caminho_4542" data-name="Caminho 4542" d="M88.98,81.44h18.478v4.747H94.369V92.9h9.623v4.791H94.369v7.441H108.44v4.832H88.98V81.44Z" transform="translate(-88.98 -80.668)" fill="#31170d"/>
          <path id="Caminho_4543" data-name="Caminho 4543" d="M230.387,99.138a16.545,16.545,0,0,0,1.219,1.262,11.72,11.72,0,0,0,1.583,1.241,9.119,9.119,0,0,0,1.967.963,7.373,7.373,0,0,0,2.459.384,5.268,5.268,0,0,0,3.741-1.154,3.689,3.689,0,0,0,1.219-2.78,3.642,3.642,0,0,0-.343-1.6,3.17,3.17,0,0,0-1.156-1.241,9.037,9.037,0,0,0-2.117-.963,29.04,29.04,0,0,0-3.229-.813,11.206,11.206,0,0,1-3.4-1.2,8.635,8.635,0,0,1-2.373-1.924,7.754,7.754,0,0,1-1.412-2.459,8.286,8.286,0,0,1-.471-2.759,8.172,8.172,0,0,1,.6-3.1,7.157,7.157,0,0,1,1.839-2.609,9.281,9.281,0,0,1,3.1-1.817A12.714,12.714,0,0,1,238,77.88a13,13,0,0,1,3.893.514,11.843,11.843,0,0,1,2.715,1.2,8.057,8.057,0,0,1,1.689,1.347q.6.664.855.963l-3.55,3.336c-.143-.113-.371-.321-.685-.62a6.78,6.78,0,0,0-1.175-.876,8.986,8.986,0,0,0-1.689-.77,6.757,6.757,0,0,0-2.223-.343,5.556,5.556,0,0,0-1.924.3,4.2,4.2,0,0,0-1.347.77,3.046,3.046,0,0,0-.792,1.048,2.681,2.681,0,0,0-.256,1.091,3.227,3.227,0,0,0,.278,1.368,3.065,3.065,0,0,0,.941,1.113,6.514,6.514,0,0,0,1.817.919,21.091,21.091,0,0,0,2.908.748,15.583,15.583,0,0,1,3.208,1.026,9.813,9.813,0,0,1,2.715,1.774,8.154,8.154,0,0,1,1.882,2.652,9.037,9.037,0,0,1,.7,3.743,7.793,7.793,0,0,1-.77,3.463,8.746,8.746,0,0,1-2.138,2.78,9.872,9.872,0,0,1-3.251,1.861,12.274,12.274,0,0,1-4.105.664,13.324,13.324,0,0,1-3.871-.514,14.891,14.891,0,0,1-3.123-1.3,12.479,12.479,0,0,1-2.394-1.733,17.187,17.187,0,0,1-1.689-1.8l3.765-3.464Z" transform="translate(-196.77 -77.88)" fill="#31170d"/>
          <path id="Caminho_4544" data-name="Caminho 4544" d="M405.688,102.283a10.557,10.557,0,0,1-1.774,2.01,15,15,0,0,1-2.674,1.9,16.334,16.334,0,0,1-3.379,1.434,13.365,13.365,0,0,1-3.893.555,15,15,0,0,1-5.86-1.113,13.6,13.6,0,0,1-4.576-3.1,14.125,14.125,0,0,1-2.993-4.682,16.707,16.707,0,0,1,0-11.761,14.6,14.6,0,0,1,3.015-4.791,14.323,14.323,0,0,1,4.641-3.251,14.478,14.478,0,0,1,5.945-1.2,15.509,15.509,0,0,1,3.849.449,14.03,14.03,0,0,1,3.186,1.219,11.958,11.958,0,0,1,2.544,1.817,15.3,15.3,0,0,1,1.967,2.245L401.879,87.4a11.8,11.8,0,0,0-3.186-3.164,8.115,8.115,0,0,0-4.554-1.2,8.291,8.291,0,0,0-3.765.835,8.863,8.863,0,0,0-2.843,2.223,9.7,9.7,0,0,0-1.8,3.251,12.268,12.268,0,0,0-.62,3.912,11.7,11.7,0,0,0,.62,3.85,9.326,9.326,0,0,0,1.774,3.123,8.458,8.458,0,0,0,2.759,2.095,8.232,8.232,0,0,0,3.613.77,10.21,10.21,0,0,0,3.145-.427,8.372,8.372,0,0,0,3.763-2.416q.621-.706,1.134-1.219l3.763,3.251Z" transform="translate(-316.471 -78.201)" fill="#31170d"/>
          <path id="Caminho_4545" data-name="Caminho 4545" d="M558.2,107.957a14.394,14.394,0,0,1-5.817-1.175,14.769,14.769,0,0,1-4.7-3.229,15.222,15.222,0,0,1-3.164-4.791,15.459,15.459,0,0,1,0-11.72,15.169,15.169,0,0,1,3.145-4.769A14.666,14.666,0,0,1,558.2,77.89a14.391,14.391,0,0,1,5.816,1.175,15.2,15.2,0,0,1,7.868,19.7,15.268,15.268,0,0,1-3.164,4.791,14.824,14.824,0,0,1-4.7,3.229,14.4,14.4,0,0,1-5.816,1.175Zm0-5.09a8.681,8.681,0,0,0,6.715-3.017,9.85,9.85,0,0,0,1.839-3.229,11.93,11.93,0,0,0,0-7.721,9.666,9.666,0,0,0-1.839-3.186A8.635,8.635,0,0,0,562,83.555a9.6,9.6,0,0,0-7.634,0,8.668,8.668,0,0,0-2.887,2.16,9.688,9.688,0,0,0-1.839,3.186,11.93,11.93,0,0,0,0,7.721,9.873,9.873,0,0,0,1.839,3.229,8.818,8.818,0,0,0,2.887,2.2A8.716,8.716,0,0,0,558.2,102.867Z" transform="translate(-444.817 -77.888)" fill="#31170d"/>
          <path id="Caminho_4546" data-name="Caminho 4546" d="M736.02,81.44h5.389v23.737H755.48v4.791H736.02Z" transform="translate(-595.695 -80.668)" fill="#31170d"/>
          <path id="Caminho_4547" data-name="Caminho 4547" d="M879.362,81.44h5.56l10.82,28.527h-5.988l-2.481-7.228H876.667l-2.481,7.228H868.54L879.36,81.44Zm6.372,16.851-3.763-11.078-3.806,11.078h7.571Z" transform="translate(-699.475 -80.668)" fill="#31170d"/>
          <path id="Caminho_4548" data-name="Caminho 4548" d="M1133.8,81.44h10.651a20.8,20.8,0,0,1,6.115.854,13.012,13.012,0,0,1,4.791,2.609,11.658,11.658,0,0,1,3.123,4.491,17.09,17.09,0,0,1,1.113,6.458,15.12,15.12,0,0,1-1.135,6.181,12.108,12.108,0,0,1-3.164,4.4,13.3,13.3,0,0,1-4.813,2.652,20.071,20.071,0,0,1-6.072.876H1133.8V81.44Zm10.137,23.737q4.876,0,7.441-2.353t2.566-6.886a10.112,10.112,0,0,0-2.373-7.1q-2.376-2.609-7.634-2.609h-4.747v18.946h4.747Z" transform="translate(-907.207 -80.668)" fill="#31170d"/>
          <path id="Caminho_4549" data-name="Caminho 4549" d="M1311.63,81.44h18.478v4.747h-13.089V92.9h9.623v4.791h-9.623v7.441h14.071v4.832h-19.46Z" transform="translate(-1046.471 -80.668)" fill="#31170d"/>
        </g>
      </g>
    </g>
  </g>
</svg>
