<svg id="Grupo_10231" data-name="Grupo 10231" xmlns="http://www.w3.org/2000/svg" width="141.092" height="55.229" viewBox="0 0 141.092 55.229">
  <g id="Grupo_10226" data-name="Grupo 10226" transform="translate(0 29.958)">
    <path id="Caminho_4521" data-name="Caminho 4521" d="M1456.209,539.443a4.5,4.5,0,0,0-1.734-1.172,5.87,5.87,0,0,0-2.055-.361,5.012,5.012,0,0,0-2.506.564,5.44,5.44,0,0,0-1.457,1.114,1.5,1.5,0,0,0-.845-1.07,3.575,3.575,0,0,0-1.632-.318,15.472,15.472,0,0,0-1.779.2s.4,4.523.4,8.661c0,3.519-.128,10.319-.128,10.319s1.385-.558,2.106-.868a4.887,4.887,0,0,0,1.665-1.091,3.281,3.281,0,0,0,.423-2.156l-.038-2.19a2.346,2.346,0,0,0,.268.285,2.812,2.812,0,0,0,.67.463,5.963,5.963,0,0,0,1.064.42,5.14,5.14,0,0,0,1.472.188,6.354,6.354,0,0,0,2.026-.347,4.654,4.654,0,0,0,1.865-1.2,6.349,6.349,0,0,0,1.356-2.314,11.145,11.145,0,0,0,.525-3.717,10.255,10.255,0,0,0-.452-3.269,5.844,5.844,0,0,0-1.209-2.141Zm-3.177,8.736a2.372,2.372,0,0,1-2.186,1.157,2.892,2.892,0,0,1-1.384-.318,4.372,4.372,0,0,1-.862-.582c-.046-2.079.081-5.308.108-5.725a2.145,2.145,0,0,1,.448-1.326,2.307,2.307,0,0,1,1.661-.526,2.909,2.909,0,0,1,1.384.3,2.332,2.332,0,0,1,.9.853,3.929,3.929,0,0,1,.481,1.3,8.543,8.543,0,0,1,.145,1.62,6.279,6.279,0,0,1-.7,3.24Z" transform="translate(-1342.236 -533.316)" fill="#ff6900"/>
    <path id="Caminho_4522" data-name="Caminho 4522" d="M98.774,534.013c-1.384-1.049-3.133-1.573-6.148-1.573-.78,0-1.513.026-2.478.077s-2.6.128-3.528.229a20.382,20.382,0,0,1,.27,2.766c.072,1.849.148,4.474.148,7.4s-.08,5.741-.155,7.6a17.2,17.2,0,0,1-.253,2.515h5.349a17.194,17.194,0,0,1-.253-2.515c-.05-1.245-.1-2.874-.132-4.724v0H92.9a13.761,13.761,0,0,0,3.22-.366,6.558,6.558,0,0,0,2.5-1.178A6.015,6.015,0,0,0,100.45,542a7.558,7.558,0,0,0,.677-3.359,5.651,5.651,0,0,0-2.354-4.627Zm-3.436,7.775a5.149,5.149,0,0,1-2.913.836H91.57c0-2.777.075-5.263.145-7.046.264-.026.906-.082,1.395-.082a3.843,3.843,0,0,1,2.3.762,3.262,3.262,0,0,1,1.254,2.654,3.361,3.361,0,0,1-1.327,2.875Z" transform="translate(-86.62 -528.257)" fill="#ff6900"/>
    <path id="Caminho_4523" data-name="Caminho 4523" d="M302.614,613.559c0-.279-.014-1.138-1.314-1.414a2.6,2.6,0,0,0-2.277.585,4.655,4.655,0,0,0-1.039,1.2,1.849,1.849,0,0,0-.89-1.245,3.2,3.2,0,0,0-1.674-.282,12.591,12.591,0,0,0-1.919.316s.083.544.193,2.248c.085,1.31.094,4.884.094,4.884s.033,2.547-.087,4.5c-.123,2-.188,2.33-.188,2.33h4.9s-.135-.741-.244-2.3-.08-2.622-.077-4.533-.017-2.9.587-3.608a1.679,1.679,0,0,1,2.089-.448,2.386,2.386,0,0,1,.783.519,7.739,7.739,0,0,0,.622-1.118,4.952,4.952,0,0,0,.444-1.636Z" transform="translate(-277.962 -601.918)" fill="#ff6900"/>
    <path id="Caminho_4524" data-name="Caminho 4524" d="M426.037,614.376a6.863,6.863,0,0,0-5.251-2.05,8.785,8.785,0,0,0-2.652.419,6.538,6.538,0,0,0-2.321,1.317,6.868,6.868,0,0,0-1.785,2.26,7.959,7.959,0,0,0-.657,3.277,8.977,8.977,0,0,0,.736,3.788,6.794,6.794,0,0,0,1.96,2.41,6.59,6.59,0,0,0,2.557,1.257,11.989,11.989,0,0,0,2.921.359,10.574,10.574,0,0,0,2.858-.344,6.051,6.051,0,0,0,1.878-.823,1.494,1.494,0,0,0,.789-1.2,2.47,2.47,0,0,0-.411-1.153,8.289,8.289,0,0,0-.789-1.153q-.284.24-.632.523a4.509,4.509,0,0,1-.821.524,5.7,5.7,0,0,1-1.074.4,5.273,5.273,0,0,1-1.389.165,3.765,3.765,0,0,1-3-1.093,3.95,3.95,0,0,1-1.074-2.511l9.427-.228a12.733,12.733,0,0,0,.186-1.836,5.624,5.624,0,0,0-1.456-4.316Zm-8.188,4.136a3.843,3.843,0,0,1,.739-2.518,2.751,2.751,0,0,1,2.1-.943,2.605,2.605,0,0,1,2.222,1.007,3.837,3.837,0,0,1,.545,2.225l-5.608.228Z" transform="translate(-388.829 -602.143)" fill="#ff6900"/>
    <path id="Caminho_4525" data-name="Caminho 4525" d="M1025.667,614.376a6.863,6.863,0,0,0-5.252-2.05,8.786,8.786,0,0,0-2.652.419,6.539,6.539,0,0,0-2.321,1.317,6.869,6.869,0,0,0-1.785,2.26A7.958,7.958,0,0,0,1013,619.6a8.976,8.976,0,0,0,.736,3.788,6.794,6.794,0,0,0,1.96,2.41,6.59,6.59,0,0,0,2.557,1.257,11.989,11.989,0,0,0,2.921.359,10.575,10.575,0,0,0,2.858-.344,6.053,6.053,0,0,0,1.878-.823,1.494,1.494,0,0,0,.789-1.2,2.471,2.471,0,0,0-.411-1.153,8.286,8.286,0,0,0-.789-1.153q-.284.24-.632.523a4.513,4.513,0,0,1-.821.524,5.7,5.7,0,0,1-1.074.4,5.273,5.273,0,0,1-1.39.165,3.765,3.765,0,0,1-3-1.093,3.95,3.95,0,0,1-1.074-2.511l9.427-.228a12.733,12.733,0,0,0,.186-1.836,5.625,5.625,0,0,0-1.456-4.316Zm-8.188,4.136a3.843,3.843,0,0,1,.739-2.518,2.751,2.751,0,0,1,2.1-.943,2.605,2.605,0,0,1,2.222,1.007,3.836,3.836,0,0,1,.545,2.225l-5.608.228Z" transform="translate(-943.422 -602.143)" fill="#ff6900"/>
    <path id="Caminho_4526" data-name="Caminho 4526" d="M642.167,620.532s.021-3.121.021-3.661a4.6,4.6,0,0,0-1.319-3.571,5.344,5.344,0,0,0-3.307-.98,5.005,5.005,0,0,0-4.2,1.942,3.26,3.26,0,0,0-1.221-1.344,4.575,4.575,0,0,0-2.518-.6,4.174,4.174,0,0,0-2.379.546,4.647,4.647,0,0,0-1.52,1.281c-.347-1.235-1.155-1.569-2.558-1.527a10.209,10.209,0,0,0-1.924.316s.11,1.142.2,2.268c.1,1.239.12,3.512.093,5.249s-.062,3.118-.086,4.128-.189,2.319-.189,2.319h4.893a22.573,22.573,0,0,1-.244-2.3c-.036-1.009-.082-4.07-.082-4.07s.01-1.109.043-2.4.756-2.275,1.87-2.275c1.282,0,2.018.584,2.018,1.468l.03,3.208s-.011,2.8-.086,4.052-.189,2.319-.189,2.319h4.926s-.224-1.409-.264-2.357c-.058-1.362-.053-3.928-.053-3.928l.008-2c.032-1.557.529-2.771,1.89-2.771.977,0,1.8.486,1.8,1.48,0,0,.038,1.652.038,3.2s-.044,2.892-.073,4.041a21.306,21.306,0,0,1-.2,2.33h4.926s-.183-1.075-.26-2.329c-.05-.819-.08-3.167-.08-4.039Z" transform="translate(-581.086 -602.138)" fill="#ff6900"/>
    <path id="Caminho_4527" data-name="Caminho 4527" d="M931.972,624.044c0-1.311.261-5.527.261-5.527a2.658,2.658,0,0,0-.209-1.212,2.713,2.713,0,0,0-2.617-1.179,14.29,14.29,0,0,0-2,.318,20.97,20.97,0,0,1,.2,2.294c.036,1.23.093,2.277.093,5.3,0,1.869-.1,4.033-.1,4.033-.086,1.242.213,1.815.706,2.144a4.27,4.27,0,0,0,2.149.4c.321,0,1.779-.08,1.86-.119,0,0-.164-1.109-.261-2.335-.092-1.167-.08-1.945-.08-4.121Z" transform="translate(-864.261 -605.65)" fill="#ff6900"/>
    <path id="Caminho_4528" data-name="Caminho 4528" d="M1843.1,499.962a9.881,9.881,0,0,0-.671-1.1c-.058.058-.155.145-.291.261a2.714,2.714,0,0,1-.51.333,5.386,5.386,0,0,1-.671.289,2.29,2.29,0,0,1-.773.13c-1.107,0-1.551-.647-1.661-2.025,0,0-.1-1.22-.1-3.324a23.581,23.581,0,0,1,.1-2.807s1.683.037,2.5-.059c1.029-.12,1.133-2.95,1.133-2.95h-3.634v-2.025a2.542,2.542,0,0,0-.234-1.172,1.91,1.91,0,0,0-.612-.709,2.179,2.179,0,0,0-.845-.347,6.246,6.246,0,0,0-1.034-.087c-.156,0-.311.005-.466.014s-.3.024-.437.044l-.823.065a30.045,30.045,0,0,1,.294,4.217s-.931-.029-.931.128a12.4,12.4,0,0,0,.574,2.789c.047.122.357.095.357.095s.092,1.217.092,2.805v3.383q0,.637.059,1.273a4.966,4.966,0,0,0,.262,1.215,3.72,3.72,0,0,0,1.4,1.822,4.888,4.888,0,0,0,2.827.695,7.432,7.432,0,0,0,1.719-.188,5.418,5.418,0,0,0,1.341-.492,3.609,3.609,0,0,0,.958-.665,1.135,1.135,0,0,0,.306-.738,1.94,1.94,0,0,0-.233-.868Z" transform="translate(-1702.241 -483.797)" fill="#ff6900"/>
    <path id="Caminho_4529" data-name="Caminho 4529" d="M927.226,550.11a2.885,2.885,0,0,0,1.875.143,2.77,2.77,0,0,0,1.57-.944,1.885,1.885,0,0,0,.434-1.739,1.859,1.859,0,0,0-1.119-1.356,2.983,2.983,0,0,0-1.886-.127,2.885,2.885,0,0,0-1.606.979,1.994,1.994,0,0,0,.732,3.046Z" transform="translate(-863.01 -540.791)" fill="#ff6900"/>
    <path id="Caminho_4530" data-name="Caminho 4530" d="M1912.81,479.955a1.794,1.794,0,0,1-.363-.6,2.091,2.091,0,0,1-.127-.729,2.009,2.009,0,0,1,.13-.726,1.763,1.763,0,0,1,.371-.595,1.784,1.784,0,0,1,.588-.4,2.127,2.127,0,0,1,1.57,0,1.74,1.74,0,0,1,.585.4,1.792,1.792,0,0,1,.369.595,2.111,2.111,0,0,1,0,1.455,1.785,1.785,0,0,1-.372.6,1.759,1.759,0,0,1-.588.407,2.134,2.134,0,0,1-1.573,0A1.749,1.749,0,0,1,1912.81,479.955Zm.732.123a1.581,1.581,0,0,0,.653.128,1.537,1.537,0,0,0,.65-.131,1.446,1.446,0,0,0,.479-.349,1.481,1.481,0,0,0,.3-.5,1.781,1.781,0,0,0,.1-.6,1.754,1.754,0,0,0-.1-.595,1.5,1.5,0,0,0-.3-.5,1.419,1.419,0,0,0-.479-.346,1.7,1.7,0,0,0-1.3,0,1.423,1.423,0,0,0-.476.346,1.507,1.507,0,0,0-.3.5,1.754,1.754,0,0,0-.1.595,1.7,1.7,0,0,0,.222.865,1.45,1.45,0,0,0,.645.587Zm-.045-2.594c.105-.01.219-.019.34-.024s.22-.008.3-.008a1.077,1.077,0,0,1,.712.19.613.613,0,0,1,.217.48.692.692,0,0,1-.045.255.664.664,0,0,1-.118.2.645.645,0,0,1-.172.139.694.694,0,0,1-.2.078h.011l.58.916a.385.385,0,0,1-.1.038.536.536,0,0,1-.1.011.378.378,0,0,1-.16-.035.311.311,0,0,1-.132-.126l-.479-.756h-.292v.89h-.354v-2.246Zm.709,1.04q.484,0,.484-.4a.309.309,0,0,0-.127-.268.723.723,0,0,0-.414-.091c-.068,0-.126,0-.174,0a1.032,1.032,0,0,0-.135.014h.011v.74h.354Z" transform="translate(-1775.197 -476.75)" fill="#ff6900"/>
    <path id="Caminho_4531" data-name="Caminho 4531" d="M1656.432,539.647a6.631,6.631,0,0,0-5.075-1.981,8.491,8.491,0,0,0-2.563.4,6.327,6.327,0,0,0-2.243,1.273,6.636,6.636,0,0,0-1.725,2.184,7.7,7.7,0,0,0-.635,3.167,8.676,8.676,0,0,0,.711,3.661,6.567,6.567,0,0,0,1.894,2.329,6.362,6.362,0,0,0,2.472,1.215,11.6,11.6,0,0,0,2.823.347,10.207,10.207,0,0,0,2.762-.333,5.861,5.861,0,0,0,1.815-.8,1.443,1.443,0,0,0,.763-1.157,2.382,2.382,0,0,0-.4-1.114,7.967,7.967,0,0,0-.763-1.114q-.275.232-.61.506a4.321,4.321,0,0,1-.793.506,5.516,5.516,0,0,1-1.037.391,5.1,5.1,0,0,1-1.342.159,3.639,3.639,0,0,1-2.9-1.056,3.814,3.814,0,0,1-1.037-2.426l9.11-.221a12.282,12.282,0,0,0,.18-1.775,5.436,5.436,0,0,0-1.408-4.171Zm-7.913,4a3.714,3.714,0,0,1,.714-2.434,2.657,2.657,0,0,1,2.032-.912,2.517,2.517,0,0,1,2.146.973,3.707,3.707,0,0,1,.526,2.15l-5.42.221Z" transform="translate(-1527.205 -533.09)" fill="#ff6900"/>
    <path id="Caminho_4532" data-name="Caminho 4532" d="M1233.964,552.247c-.638-.763-1.531-1.857-2.277-2.832s-1.8-2.7-1.8-2.7l-1.093-1.766a7.494,7.494,0,0,0,1.147-.7,6.015,6.015,0,0,0,1.833-2.243,7.558,7.558,0,0,0,.677-3.359,5.651,5.651,0,0,0-2.354-4.627c-1.384-1.049-3.133-1.573-6.148-1.573-.78,0-1.513.026-2.478.077s-2.6.128-3.528.229a20.387,20.387,0,0,1,.27,2.766c.072,1.849.148,4.474.148,7.4s-.08,5.741-.155,7.6a17.2,17.2,0,0,1-.253,2.515h5.349a17.2,17.2,0,0,1-.253-2.515c-.05-1.245-.1-2.874-.132-4.724v0h1.308c.033,0,.065,0,.1,0l3.257,5.5a4.477,4.477,0,0,0,1.387,1.557,3.419,3.419,0,0,0,1.87.479,11.691,11.691,0,0,0,3.493-.655s-.24-.279-.363-.426Zm-11.074-9.614c0-2.777.075-5.263.145-7.046.264-.026.906-.082,1.395-.082a3.843,3.843,0,0,1,2.3.762,3.261,3.261,0,0,1,1.254,2.654,3.361,3.361,0,0,1-1.327,2.875,5.149,5.149,0,0,1-2.913.836h-.855Z" transform="translate(-1132.97 -528.267)" fill="#ff6900"/>
  </g>
  <g id="Grupo_10230" data-name="Grupo 10230" transform="translate(0.177 0)">
    <g id="Grupo_10228" data-name="Grupo 10228" transform="translate(0 10.52)">
      <g id="Grupo_10227" data-name="Grupo 10227" transform="translate(14.169)">
        <path id="Caminho_4533" data-name="Caminho 4533" d="M277.63,270.28h9.156V273.2h-5.78v1.965h4.75v2.747h-4.75v2.174h6.181V283H277.63Z" transform="translate(-277.63 -266.35)" fill="#a59c94"/>
        <path id="Caminho_4534" data-name="Caminho 4534" d="M430.091,271.508h5.227v5.741a7.032,7.032,0,0,1-2.623,1.4,10.59,10.59,0,0,1-2.966.429,7.935,7.935,0,0,1-2.775-.467,5.775,5.775,0,0,1-2.089-1.335,5.713,5.713,0,0,1-1.307-2.108,8.145,8.145,0,0,1-.448-2.785,7.22,7.22,0,0,1,.487-2.68,6.114,6.114,0,0,1,3.453-3.5,7.01,7.01,0,0,1,2.68-.5,8.3,8.3,0,0,1,2.966.524,5.2,5.2,0,0,1,2.318,1.745l-2.194,2.213a5.875,5.875,0,0,0-1.269-.973,3.15,3.15,0,0,0-1.573-.382,3.47,3.47,0,0,0-1.45.286,3.1,3.1,0,0,0-1.059.773,3.394,3.394,0,0,0-.658,1.145,4.24,4.24,0,0,0-.229,1.4,4.168,4.168,0,0,0,.248,1.478,3.343,3.343,0,0,0,.686,1.125,2.99,2.99,0,0,0,1.068.725,3.691,3.691,0,0,0,1.411.258,4.627,4.627,0,0,0,1.2-.152,3.4,3.4,0,0,0,1.106-.534v-1.22h-2.213V271.51Z" transform="translate(-412.183 -262.123)" fill="#a59c94"/>
        <path id="Caminho_4535" data-name="Caminho 4535" d="M621.169,234.908a6.8,6.8,0,0,1-2.642-.505,6.443,6.443,0,0,1-2.1-1.392,6.269,6.269,0,0,1-1.383-2.117,7.491,7.491,0,0,1,0-5.36,6.2,6.2,0,0,1,3.481-3.5,6.909,6.909,0,0,1,2.642-.5,6.984,6.984,0,0,1,2.651.5,6.2,6.2,0,0,1,2.1,1.383,6.351,6.351,0,0,1,1.374,2.117,7.491,7.491,0,0,1,0,5.36,6.2,6.2,0,0,1-3.472,3.51A6.872,6.872,0,0,1,621.169,234.908Zm0-3.167a3.059,3.059,0,0,0,1.326-.276,2.884,2.884,0,0,0,.982-.753,3.32,3.32,0,0,0,.611-1.125,4.607,4.607,0,0,0,0-2.747,3.32,3.32,0,0,0-.611-1.125,2.877,2.877,0,0,0-.982-.753,3.317,3.317,0,0,0-2.651,0,2.886,2.886,0,0,0-.982.753,3.318,3.318,0,0,0-.611,1.125,4.607,4.607,0,0,0,0,2.747,3.3,3.3,0,0,0,.611,1.125,2.876,2.876,0,0,0,.982.753A3.046,3.046,0,0,0,621.169,231.741ZM620.9,217.95h3.414l-2.365,2.976h-2.442Z" transform="translate(-589.245 -217.95)" fill="#a59c94"/>
        <path id="Caminho_4536" data-name="Caminho 4536" d="M828.165,276.41a6.91,6.91,0,0,1-5.665,2.69,7.082,7.082,0,0,1-2.69-.5,6.05,6.05,0,0,1-3.443-3.472,7.2,7.2,0,0,1-.487-2.69,7.306,7.306,0,0,1,.477-2.68,6.3,6.3,0,0,1,1.354-2.136,6.164,6.164,0,0,1,2.1-1.411,6.971,6.971,0,0,1,2.69-.505,8.359,8.359,0,0,1,3.071.553,5.249,5.249,0,0,1,2.384,1.926l-2.231,2.251a4.27,4.27,0,0,0-1.278-1.163,3.281,3.281,0,0,0-1.7-.439,3.635,3.635,0,0,0-1.431.267,2.965,2.965,0,0,0-1.059.744,3.321,3.321,0,0,0-.658,1.116,4.289,4.289,0,0,0,.01,2.794,3.329,3.329,0,0,0,.677,1.125,3.054,3.054,0,0,0,1.059.744,3.46,3.46,0,0,0,1.383.267,3.652,3.652,0,0,0,1.8-.391,4.812,4.812,0,0,0,1.364-1.23l2.27,2.136Z" transform="translate(-775.454 -262.123)" fill="#a59c94"/>
        <path id="Caminho_4537" data-name="Caminho 4537" d="M1003.78,270.28h3.376V283h-3.376Z" transform="translate(-949.241 -266.35)" fill="#a59c94"/>
        <path id="Caminho_4538" data-name="Caminho 4538" d="M1087.049,279.081a6.8,6.8,0,0,1-2.642-.505,6.443,6.443,0,0,1-2.1-1.392,6.269,6.269,0,0,1-1.383-2.117,7.491,7.491,0,0,1,0-5.36,6.2,6.2,0,0,1,3.481-3.5,6.909,6.909,0,0,1,2.642-.5,6.984,6.984,0,0,1,2.651.5,6.2,6.2,0,0,1,2.1,1.383,6.349,6.349,0,0,1,1.374,2.117,7.491,7.491,0,0,1,0,5.36,6.2,6.2,0,0,1-3.472,3.51A6.872,6.872,0,0,1,1087.049,279.081Zm0-3.167a3.059,3.059,0,0,0,1.326-.276,2.885,2.885,0,0,0,.982-.753,3.321,3.321,0,0,0,.611-1.125,4.606,4.606,0,0,0,0-2.747,3.322,3.322,0,0,0-.611-1.125,2.878,2.878,0,0,0-.982-.753,3.317,3.317,0,0,0-2.651,0,2.886,2.886,0,0,0-.982.753,3.32,3.32,0,0,0-.611,1.125,4.606,4.606,0,0,0,0,2.747,3.3,3.3,0,0,0,.611,1.125,2.877,2.877,0,0,0,.982.753A3.046,3.046,0,0,0,1087.049,275.914Z" transform="translate(-1020.134 -262.123)" fill="#a59c94"/>
        <path id="Caminho_4539" data-name="Caminho 4539" d="M1273.892,274.751a5.469,5.469,0,0,0,1.392.973,4.083,4.083,0,0,0,1.888.439,2.894,2.894,0,0,0,.515-.048,1.554,1.554,0,0,0,.477-.162,1,1,0,0,0,.343-.3.847.847,0,0,0,.134-.5.955.955,0,0,0-.505-.82,6.861,6.861,0,0,0-1.478-.648l-.706-.229a8.128,8.128,0,0,1-1.192-.5,4.958,4.958,0,0,1-1.078-.735,3.453,3.453,0,0,1-.773-1.011,2.966,2.966,0,0,1-.3-1.364,4.078,4.078,0,0,1,.324-1.631,3.775,3.775,0,0,1,.944-1.316,4.362,4.362,0,0,1,1.535-.877,6.514,6.514,0,0,1,2.117-.315,7.767,7.767,0,0,1,1.7.171,7.517,7.517,0,0,1,1.335.42,5.28,5.28,0,0,1,.973.534,4,4,0,0,1,.611.515l-1.717,2.174a7.029,7.029,0,0,0-1.392-.81,3.708,3.708,0,0,0-1.488-.315,2.179,2.179,0,0,0-.5.057,1.666,1.666,0,0,0-.448.171.97.97,0,0,0-.324.3.777.777,0,0,0-.124.448.858.858,0,0,0,.143.5,1.261,1.261,0,0,0,.391.363,3.1,3.1,0,0,0,.6.276q.353.124.753.258l.611.191q.648.21,1.316.487a4.352,4.352,0,0,1,1.2.744,3.7,3.7,0,0,1,.877,1.163,3.835,3.835,0,0,1,.343,1.707,3.3,3.3,0,0,1-.41,1.622,4.086,4.086,0,0,1-1.106,1.278,5.252,5.252,0,0,1-1.64.83,6.706,6.706,0,0,1-2.012.3,8.8,8.8,0,0,1-3.2-.505,6.6,6.6,0,0,1-2.184-1.364l2.042-2.461Z" transform="translate(-1197.177 -262.123)" fill="#a59c94"/>
      </g>
      <path id="Caminho_4540" data-name="Caminho 4540" d="M98.618,282.993l-4.3-1.548-2,1.548H88.98V270.27h3.071l4.883,7.1v-7.1h3.338v12.723H98.618Z" transform="translate(-88.98 -266.34)" fill="#a59c94"/>
      <path id="Caminho_4541" data-name="Caminho 4541" d="M133.43,342.4l6.3,7.306h-2.744l1.3,3.514-1.841.7-1.222-3.571-1.8,1.938Z" transform="translate(-130.091 -333.053)"/>
    </g>
    <g id="Grupo_10229" data-name="Grupo 10229">
      <path id="Caminho_4542" data-name="Caminho 4542" d="M88.98,81.44h6.4v1.644H90.846v2.325h3.333v1.659H90.846v2.577h4.873v1.673H88.98V81.44Z" transform="translate(-88.98 -81.173)" fill="#ff6900"/>
      <path id="Caminho_4543" data-name="Caminho 4543" d="M227.925,85.242a5.73,5.73,0,0,0,.422.437,4.057,4.057,0,0,0,.548.43,3.158,3.158,0,0,0,.681.333,2.553,2.553,0,0,0,.852.133,1.825,1.825,0,0,0,1.3-.4,1.278,1.278,0,0,0,.422-.963,1.261,1.261,0,0,0-.119-.556,1.1,1.1,0,0,0-.4-.43,3.13,3.13,0,0,0-.733-.333,10.056,10.056,0,0,0-1.118-.282A3.881,3.881,0,0,1,228.6,83.2a2.991,2.991,0,0,1-.822-.666,2.686,2.686,0,0,1-.489-.852,2.87,2.87,0,0,1-.163-.955,2.83,2.83,0,0,1,.207-1.074,2.479,2.479,0,0,1,.637-.9,3.214,3.214,0,0,1,1.074-.629,4.4,4.4,0,0,1,1.518-.237,4.5,4.5,0,0,1,1.348.178,4.1,4.1,0,0,1,.94.415,2.791,2.791,0,0,1,.585.466q.207.23.3.333L232.5,80.428c-.05-.039-.128-.111-.237-.215a2.35,2.35,0,0,0-.407-.3,3.112,3.112,0,0,0-.585-.267,2.34,2.34,0,0,0-.77-.119,1.924,1.924,0,0,0-.666.1,1.453,1.453,0,0,0-.466.267,1.055,1.055,0,0,0-.274.363.929.929,0,0,0-.089.378,1.117,1.117,0,0,0,.1.474,1.061,1.061,0,0,0,.326.385,2.256,2.256,0,0,0,.629.318,7.3,7.3,0,0,0,1.007.259,5.4,5.4,0,0,1,1.111.355,3.4,3.4,0,0,1,.94.614,2.824,2.824,0,0,1,.652.919,3.13,3.13,0,0,1,.244,1.3,2.7,2.7,0,0,1-.267,1.2,3.029,3.029,0,0,1-.741.963,3.419,3.419,0,0,1-1.126.644,4.251,4.251,0,0,1-1.422.23,4.614,4.614,0,0,1-1.341-.178,5.156,5.156,0,0,1-1.082-.451,4.32,4.32,0,0,1-.829-.6,5.95,5.95,0,0,1-.585-.622l1.3-1.2Z" transform="translate(-216.282 -77.88)" fill="#ff6900"/>
      <path id="Caminho_4544" data-name="Caminho 4544" d="M388.55,86.6a3.656,3.656,0,0,1-.614.7,5.2,5.2,0,0,1-.926.659,5.658,5.658,0,0,1-1.17.5,4.628,4.628,0,0,1-1.348.192,5.2,5.2,0,0,1-2.029-.385,4.707,4.707,0,0,1-1.585-1.074,4.892,4.892,0,0,1-1.036-1.622,5.786,5.786,0,0,1,0-4.073,5.058,5.058,0,0,1,1.044-1.659,4.961,4.961,0,0,1,1.607-1.126,5.014,5.014,0,0,1,2.059-.415,5.371,5.371,0,0,1,1.333.155,4.858,4.858,0,0,1,1.1.422,4.142,4.142,0,0,1,.881.629,5.3,5.3,0,0,1,.681.777l-1.318,1.17a4.089,4.089,0,0,0-1.1-1.1,2.81,2.81,0,0,0-1.577-.415,2.872,2.872,0,0,0-1.3.289,3.068,3.068,0,0,0-.985.77,3.357,3.357,0,0,0-.622,1.126,4.248,4.248,0,0,0-.215,1.355,4.05,4.05,0,0,0,.215,1.333,3.229,3.229,0,0,0,.614,1.082,2.929,2.929,0,0,0,.955.726,2.851,2.851,0,0,0,1.251.267,3.535,3.535,0,0,0,1.089-.148,2.9,2.9,0,0,0,1.3-.837q.215-.244.393-.422l1.3,1.126Z" transform="translate(-357.652 -78.259)" fill="#ff6900"/>
      <path id="Caminho_4545" data-name="Caminho 4545" d="M548.5,88.3a4.985,4.985,0,0,1-2.014-.407,5.115,5.115,0,0,1-1.629-1.118,5.273,5.273,0,0,1-1.1-1.659,5.354,5.354,0,0,1,0-4.059,5.255,5.255,0,0,1,1.089-1.652A5.079,5.079,0,0,1,548.5,77.89a4.985,4.985,0,0,1,2.014.407,5.264,5.264,0,0,1,2.725,6.821,5.286,5.286,0,0,1-1.1,1.659,5.135,5.135,0,0,1-1.629,1.118,4.987,4.987,0,0,1-2.014.407Zm0-1.763a3.006,3.006,0,0,0,2.325-1.045,3.411,3.411,0,0,0,.637-1.118,4.131,4.131,0,0,0,0-2.674,3.347,3.347,0,0,0-.637-1.1,2.989,2.989,0,0,0-1.007-.748,3.324,3.324,0,0,0-2.644,0,3,3,0,0,0-1,.748,3.356,3.356,0,0,0-.637,1.1,4.131,4.131,0,0,0,0,2.674,3.419,3.419,0,0,0,.637,1.118,3.054,3.054,0,0,0,1,.763A3.019,3.019,0,0,0,548.5,86.54Z" transform="translate(-509.233 -77.889)" fill="#ff6900"/>
      <path id="Caminho_4546" data-name="Caminho 4546" d="M736.02,81.44h1.866v8.22h4.873V91.32H736.02Z" transform="translate(-687.423 -81.173)" fill="#ff6900"/>
      <path id="Caminho_4547" data-name="Caminho 4547" d="M872.288,81.44h1.926l3.747,9.88h-2.074l-.859-2.5h-3.673l-.859,2.5H868.54l3.747-9.88Zm2.207,5.836-1.3-3.836-1.318,3.836H874.5Z" transform="translate(-809.989 -81.173)" fill="#ff6900"/>
      <path id="Caminho_4548" data-name="Caminho 4548" d="M1133.8,81.44h3.688a7.2,7.2,0,0,1,2.118.3,4.505,4.505,0,0,1,1.659.9,4.039,4.039,0,0,1,1.082,1.555,5.92,5.92,0,0,1,.385,2.237,5.24,5.24,0,0,1-.393,2.141,4.192,4.192,0,0,1-1.1,1.525,4.6,4.6,0,0,1-1.667.919,6.952,6.952,0,0,1-2.1.3H1133.8V81.44Zm3.51,8.22a3.68,3.68,0,0,0,2.577-.815,3.072,3.072,0,0,0,.889-2.385,3.5,3.5,0,0,0-.822-2.459,3.419,3.419,0,0,0-2.644-.9h-1.644V89.66h1.644Z" transform="translate(-1055.327 -81.173)" fill="#ff6900"/>
      <path id="Caminho_4549" data-name="Caminho 4549" d="M1311.63,81.44h6.4v1.644H1313.5v2.325h3.333v1.659H1313.5v2.577h4.873v1.673h-6.739Z" transform="translate(-1219.8 -81.173)" fill="#ff6900"/>
    </g>
  </g>
</svg>
