<svg xmlns="http://www.w3.org/2000/svg" width="383.853" height="41" viewBox="0 0 383.853 41">
  <g id="Group_6423" data-name="Group 6423" transform="translate(-34.016 -610.51)">
    <path id="Path_2806" data-name="Path 2806" d="M176.469,627.353c.038-.515.064-1.035.064-1.56a20.862,20.862,0,0,0-1.618-8.08,88.449,88.449,0,0,0-17.154,26.031c6.523-7.8,10.763-11.5,18.709-16.392" transform="translate(83.13 4.84)" fill="#ffbf00"/>
    <path id="Path_2807" data-name="Path 2807" d="M169.84,614.917a20.907,20.907,0,0,0-8.063-4.409c-2.779,12.361-4.208,29.833-4.641,35.905a143.3,143.3,0,0,1,12.7-31.5" transform="translate(82.711 0)" fill="#ffbf00"/>
    <path id="Path_2808" data-name="Path 2808" d="M173.553,629.277c-7.933,2.6-14.379,7.513-16.25,9.625a20.912,20.912,0,0,0,16.25-9.625" transform="translate(82.823 12.608)" fill="#ffbf00"/>
    <path id="Path_2809" data-name="Path 2809" d="M162.724,643.745a88.461,88.461,0,0,0-17.156-26.031,20.893,20.893,0,0,0-1.617,8.08c0,.525.025,1.043.064,1.56,7.944,4.89,12.186,8.588,18.709,16.392" transform="translate(73.853 4.84)" fill="#ffbf00"/>
    <path id="Path_2810" data-name="Path 2810" d="M156.269,610.509a20.886,20.886,0,0,0-8.063,4.409,143.259,143.259,0,0,1,12.7,31.5c-.433-6.074-1.862-23.544-4.641-35.905" transform="translate(76.712 0)" fill="#ffbf00"/>
    <path id="Path_2811" data-name="Path 2811" d="M145.917,629.277a20.915,20.915,0,0,0,16.25,9.625c-1.871-2.112-8.317-7.02-16.25-9.625" transform="translate(75.174 12.608)" fill="#ffbf00"/>
    <path id="Path_2812" data-name="Path 2812" d="M196.32,631.678h-7.694v-4.807h13.343v13.976a23.913,23.913,0,0,1-10.73,2.571c-10.372,0-16.842-6.134-16.842-14.735,0-9.317,7.439-14.714,17.094-14.714a22.341,22.341,0,0,1,9.255,1.939l-.443,5.081a21.761,21.761,0,0,0-8.5-1.834c-6.639,0-11.509,3.31-11.509,9.528,0,5.8,4.3,9.549,10.708,9.549a14.876,14.876,0,0,0,5.313-.843Z" transform="translate(94.307 2.325)" fill="#ffbf00"/>
    <path id="Path_2813" data-name="Path 2813" d="M199.621,619.143v10.35h6.935a4.986,4.986,0,0,0,5.249-5.142,4.911,4.911,0,0,0-5.249-5.208ZM206.24,634.4h-6.619v8.432h-5.692V614.211H207.21c5.776,0,10.455,3.668,10.455,10.118a9.82,9.82,0,0,1-5.585,9l7.588,9.486H212.8Z" transform="translate(107.428 2.487)" fill="#ffbf00"/>
    <path id="Path_2814" data-name="Path 2814" d="M225.379,638.137c5.565,0,9.3-3.8,9.3-9.4,0-5.565-3.73-9.466-9.3-9.466-5.524,0-9.3,3.9-9.3,9.466,0,5.607,3.773,9.4,9.3,9.4m-.022-24.179c8.854,0,15.156,6.156,15.156,14.8s-6.3,14.672-15.156,14.672c-8.81,0-15.135-6.03-15.135-14.672,0-8.665,6.324-14.8,15.135-14.8" transform="translate(118.374 2.317)" fill="#ffbf00"/>
    <path id="Path_2815" data-name="Path 2815" d="M230.977,614.21h5.671V632.3c0,4.089,2.951,5.86,6.809,5.86,4.109,0,6.851-1.939,6.851-5.86V614.21h5.669v18.467c0,7.461-5.965,10.581-12.52,10.581-7.083,0-12.48-3.372-12.48-10.581Z" transform="translate(132.317 2.486)" fill="#ffbf00"/>
    <path id="Path_2816" data-name="Path 2816" d="M255.142,619.143v10.35h6.914a4.981,4.981,0,0,0,5.228-5.142,4.905,4.905,0,0,0-5.228-5.208Zm0,15.262v8.432h-5.693V614.211H262.71c5.774,0,10.434,3.646,10.434,10.139,0,6.134-4.659,10.054-10.434,10.054Z" transform="translate(144.726 2.487)" fill="#ffbf00"/>
    <path id="Path_2817" data-name="Path 2817" d="M55.938,631.678H48.245v-4.807H61.587v13.976a23.913,23.913,0,0,1-10.73,2.571c-10.372,0-16.842-6.134-16.842-14.735,0-9.317,7.439-14.714,17.094-14.714a22.341,22.341,0,0,1,9.255,1.939l-.443,5.081a21.761,21.761,0,0,0-8.5-1.834c-6.639,0-11.509,3.31-11.509,9.528,0,5.8,4.3,9.549,10.709,9.549a14.872,14.872,0,0,0,5.311-.843Z" transform="translate(0 2.325)" fill="#ffbf00"/>
    <path id="Path_2818" data-name="Path 2818" d="M75.07,642.836H53.547V614.21H74.754v4.932H59.24v6.6H72.815v4.933H59.24v7.25H75.07Z" transform="translate(13.121 2.487)" fill="#ffbf00"/>
    <path id="Path_2819" data-name="Path 2819" d="M74.875,642.836H69.182V614.21h5.166L90.81,633.855V614.21H96.5v28.626H91.253L74.875,623.4Z" transform="translate(23.624 2.487)" fill="#ffbf00"/>
    <path id="Path_2820" data-name="Path 2820" d="M110.7,642.836H89.18V614.21h21.207v4.932H94.873v6.6h13.575v4.933H94.873v7.25H110.7Z" transform="translate(37.059 2.487)" fill="#ffbf00"/>
    <g id="Group_6417" data-name="Group 6417" transform="translate(151.008 616.275)">
      <path id="Path_2821" data-name="Path 2821" d="M124,615.75l-.485,5.059a19.855,19.855,0,0,0-8.284-1.834c-3.1,0-5.313.95-5.313,3.31,0,2.382,2.025,2.8,3.984,3.394l4.133,1.222c4.721,1.391,7.419,3.415,7.419,7.8,0,5.079-4.322,8.727-10.855,8.727-4.047,0-8.623-1.011-10.6-2.108l.463-5.08c1.413.886,6.072,2.13,9.635,2.13,3.014,0,5.417-1.055,5.417-3.4,0-1.812-1.075-2.613-3.5-3.266l-4.532-1.222c-3.646-.991-7.483-2.972-7.483-7.737,0-5.291,4.153-8.79,10.835-8.79A21.907,21.907,0,0,1,124,615.75" transform="translate(-103.996 -613.958)" fill="#ffbf00"/>
    </g>
    <rect id="Rectangle_2615" data-name="Rectangle 2615" width="5.692" height="28.626" transform="translate(176.872 616.696)" fill="#ffbf00"/>
    <path id="Path_2822" data-name="Path 2822" d="M145.714,615.75l-.485,5.059a19.855,19.855,0,0,0-8.284-1.834c-3.1,0-5.313.95-5.313,3.31,0,2.382,2.025,2.8,3.984,3.394l4.133,1.222c4.721,1.391,7.419,3.415,7.419,7.8,0,5.079-4.322,8.727-10.855,8.727-4.047,0-8.623-1.011-10.6-2.108l.463-5.08c1.413.886,6.072,2.13,9.634,2.13,3.014,0,5.417-1.055,5.417-3.4,0-1.812-1.075-2.613-3.5-3.266l-4.532-1.222c-3.646-.991-7.483-2.972-7.483-7.737,0-5.291,4.153-8.79,10.835-8.79a21.907,21.907,0,0,1,9.17,1.792" transform="translate(61.599 2.317)" fill="#ffbf00"/>
  </g>
</svg>
