<svg xmlns="http://www.w3.org/2000/svg" width="200.763" height="11.975" viewBox="0 0 200.763 11.975">
  <g id="Group_5839" data-name="Group 5839" transform="translate(-126.821 -105.1)">
    <path id="Path_2836" data-name="Path 2836" d="M150.132,122.16a3.265,3.265,0,0,1-1.027,2.2,3.383,3.383,0,0,1-2.315.757,3.215,3.215,0,0,1-1.789-.5,3.282,3.282,0,0,1-1.2-1.43,5.116,5.116,0,0,1-.431-2.119v-1.18a5.151,5.151,0,0,1,.425-2.144,3.257,3.257,0,0,1,1.218-1.446,3.35,3.35,0,0,1,1.832-.507,3.246,3.246,0,0,1,2.3.787,3.284,3.284,0,0,1,.983,2.176h-.774a2.309,2.309,0,0,0-2.512-2.312,2.383,2.383,0,0,0-1.969.923,4,4,0,0,0-.733,2.552v1.11a4.044,4.044,0,0,0,.714,2.512,2.3,2.3,0,0,0,1.931.935,2.555,2.555,0,0,0,1.814-.576,2.751,2.751,0,0,0,.755-1.732Z" transform="translate(-16.55 -10.686)" fill-rule="evenodd"/>
    <path id="Path_2837" data-name="Path 2837" d="M162.2,120.945a5.26,5.26,0,0,1-.434,2.2,3.3,3.3,0,0,1-1.237,1.458,3.376,3.376,0,0,1-1.858.511,3.222,3.222,0,0,1-2.569-1.135,4.562,4.562,0,0,1-.98-3.073v-.936a5.187,5.187,0,0,1,.441-2.2,3.39,3.39,0,0,1,6.184-.054,5.184,5.184,0,0,1,.454,2.141Zm-.767-.986a4.008,4.008,0,0,0-.742-2.569,2.668,2.668,0,0,0-4.05,0,4.041,4.041,0,0,0-.751,2.6v.948a4,4,0,0,0,.748,2.559,2.671,2.671,0,0,0,4.066.013,4.107,4.107,0,0,0,.73-2.6Z" transform="translate(-18.76 -10.686)" fill-rule="evenodd"/>
    <path id="Path_2838" data-name="Path 2838" d="M174.554,125.02h-.767l-5.22-7.769v7.769h-.774v-9.082h.774l5.227,7.779v-7.779h.761Z" transform="translate(-21.145 -10.715)" fill-rule="evenodd"/>
    <path id="Path_2839" data-name="Path 2839" d="M185.536,120.774H181.3v4.246h-.767v-9.082h5.626v.649H181.3v3.536h4.234Z" transform="translate(-23.542 -10.715)" fill-rule="evenodd"/>
    <rect id="Rectangle_2616" data-name="Rectangle 2616" width="0.767" height="9.08" transform="translate(165.626 105.225)"/>
    <path id="Path_2840" data-name="Path 2840" d="M201.539,122.47h-4.123l-.935,2.55h-.805l3.437-9.082h.73l3.434,9.082h-.8Zm-3.888-.649H201.3l-1.821-4.944Z" transform="translate(-26.391 -10.715)" fill-rule="evenodd"/>
    <path id="Path_2841" data-name="Path 2841" d="M215.019,125.02h-.767l-5.22-7.769v7.769h-.774v-9.082h.774l5.226,7.779v-7.779h.762Z" transform="translate(-28.758 -10.715)" fill-rule="evenodd"/>
    <path id="Path_2842" data-name="Path 2842" d="M227.355,122.16a3.245,3.245,0,0,1-1.025,2.2,3.4,3.4,0,0,1-2.318.757,3.207,3.207,0,0,1-1.786-.5,3.271,3.271,0,0,1-1.2-1.43,5.154,5.154,0,0,1-.431-2.119v-1.18a5.164,5.164,0,0,1,.425-2.144,3.253,3.253,0,0,1,1.221-1.446,3.34,3.34,0,0,1,1.83-.507,3.256,3.256,0,0,1,2.306.787,3.3,3.3,0,0,1,.98,2.176h-.774a2.309,2.309,0,0,0-2.512-2.312,2.384,2.384,0,0,0-1.97.923,4.009,4.009,0,0,0-.732,2.552v1.11a4.044,4.044,0,0,0,.714,2.512,2.3,2.3,0,0,0,1.931.935,2.555,2.555,0,0,0,1.814-.576,2.751,2.751,0,0,0,.755-1.732Zm-3.038,2.889-.073.4q1.028.128,1.027,1.065a1.043,1.043,0,0,1-.491.91,2.348,2.348,0,0,1-1.341.336l-.045-.485a1.816,1.816,0,0,0,.91-.2.612.612,0,0,0,.352-.546.508.508,0,0,0-.273-.5,2.355,2.355,0,0,0-.825-.187l.181-.793Z" transform="translate(-31.079 -10.686)" fill-rule="evenodd"/>
    <path id="Path_2843" data-name="Path 2843" d="M237.473,122.47H233.35l-.935,2.55h-.806l3.438-9.082h.729l3.438,9.082h-.8Zm-3.885-.649h3.64l-1.82-4.944Z" transform="translate(-33.151 -10.715)" fill-rule="evenodd"/>
    <path id="Path_2844" data-name="Path 2844" d="M249.594,125.02v-9.082h2.537a3.959,3.959,0,0,1,2,.51,3.523,3.523,0,0,1,1.379,1.456,4.6,4.6,0,0,1,.5,2.16v.834a4.576,4.576,0,0,1-.494,2.16,3.508,3.508,0,0,1-1.386,1.452,4.1,4.1,0,0,1-2.059.511Zm.767-8.433v7.786h1.719a2.952,2.952,0,0,0,2.3-.955,3.66,3.66,0,0,0,.869-2.572v-.8a3.592,3.592,0,0,0-.856-2.512,2.912,2.912,0,0,0-2.252-.948Z" transform="translate(-36.535 -10.715)" fill-rule="evenodd"/>
    <path id="Path_2845" data-name="Path 2845" d="M266.483,120.666h-4.247v3.707h4.884v.647h-5.651v-9.082h5.62v.649h-4.852v3.432h4.247Z" transform="translate(-38.769 -10.715)" fill-rule="evenodd"/>
    <path id="Path_2846" data-name="Path 2846" d="M276.994,122.759a1.48,1.48,0,0,0-.529-1.2,5.651,5.651,0,0,0-1.941-.834,6.728,6.728,0,0,1-2.058-.865,2.094,2.094,0,0,1-.067-3.425,3.527,3.527,0,0,1,2.194-.654,3.651,3.651,0,0,1,1.617.349,2.677,2.677,0,0,1,1.107.973,2.545,2.545,0,0,1,.393,1.392h-.774a1.911,1.911,0,0,0-.637-1.5,2.468,2.468,0,0,0-1.706-.564,2.692,2.692,0,0,0-1.662.466,1.45,1.45,0,0,0-.615,1.215,1.371,1.371,0,0,0,.555,1.129,5.153,5.153,0,0,0,1.776.774,8.335,8.335,0,0,1,1.852.692,2.669,2.669,0,0,1,.948.856,2.145,2.145,0,0,1,.32,1.18,2.054,2.054,0,0,1-.859,1.722,3.654,3.654,0,0,1-2.261.647,4.411,4.411,0,0,1-1.76-.343,2.668,2.668,0,0,1-1.218-.96,2.472,2.472,0,0,1-.416-1.414h.767a1.82,1.82,0,0,0,.717,1.516,3.036,3.036,0,0,0,1.909.555,2.833,2.833,0,0,0,1.7-.466A1.466,1.466,0,0,0,276.994,122.759Z" transform="translate(-40.61 -10.686)" fill-rule="evenodd"/>
    <path id="Path_2847" data-name="Path 2847" d="M282.887,125.02v-9.082h2.537a3.939,3.939,0,0,1,2,.51,3.51,3.51,0,0,1,1.383,1.456,4.6,4.6,0,0,1,.494,2.16v.834a4.575,4.575,0,0,1-.491,2.16,3.5,3.5,0,0,1-1.389,1.452,4.083,4.083,0,0,1-2.056.511Zm.764-8.433v7.786h1.722a2.952,2.952,0,0,0,2.3-.955,3.675,3.675,0,0,0,.869-2.572v-.8a3.592,3.592,0,0,0-.856-2.512,2.912,2.912,0,0,0-2.252-.948Z" transform="translate(-42.799 -10.715)" fill-rule="evenodd"/>
    <path id="Path_2848" data-name="Path 2848" d="M299.776,120.666h-4.247v3.707h4.884v.647h-5.651v-9.082h5.62v.649h-4.852v3.432h4.247Z" transform="translate(-45.033 -10.715)" fill-rule="evenodd"/>
    <path id="Path_2849" data-name="Path 2849" d="M315.364,122.47h-4.123l-.936,2.55H309.5l3.437-9.082h.73l3.437,9.082h-.8Zm-3.885-.649h3.64l-1.82-4.944Z" transform="translate(-47.806 -10.715)" fill-rule="evenodd"/>
    <path id="Path_2850" data-name="Path 2850" d="M334.11,120.945a5.21,5.21,0,0,1-.434,2.2,3.3,3.3,0,0,1-1.237,1.458,3.376,3.376,0,0,1-1.858.511,3.228,3.228,0,0,1-2.572-1.135,4.577,4.577,0,0,1-.977-3.073v-.936a5.237,5.237,0,0,1,.438-2.2,3.479,3.479,0,0,1,4.947-1.484,3.314,3.314,0,0,1,1.237,1.43,5.145,5.145,0,0,1,.456,2.141Zm-.767-.986a4.008,4.008,0,0,0-.742-2.569,2.668,2.668,0,0,0-4.05,0,4.041,4.041,0,0,0-.751,2.6v.948a4,4,0,0,0,.748,2.559,2.671,2.671,0,0,0,4.066.013,4.127,4.127,0,0,0,.73-2.6Z" transform="translate(-51.105 -10.686)" fill-rule="evenodd"/>
    <path id="Path_2851" data-name="Path 2851" d="M343.093,121.234h-2.635v3.786h-.774v-9.082h2.949a3.386,3.386,0,0,1,2.271.7,2.7,2.7,0,0,1,.3,3.51,2.6,2.6,0,0,1-1.373.92l2.271,3.868v.08h-.815Zm-2.635-.647h2.35a2.177,2.177,0,0,0,1.554-.552,2.078,2.078,0,0,0-.025-2.914,2.529,2.529,0,0,0-1.715-.533h-2.163Z" transform="translate(-53.485 -10.715)" fill-rule="evenodd"/>
    <rect id="Rectangle_2617" data-name="Rectangle 2617" width="0.767" height="9.08" transform="translate(295.77 105.225)"/>
    <path id="Path_2852" data-name="Path 2852" d="M363.526,123.913a2.581,2.581,0,0,1-1.249.885,5.43,5.43,0,0,1-1.906.317,3.524,3.524,0,0,1-1.9-.511,3.353,3.353,0,0,1-1.284-1.446,4.867,4.867,0,0,1-.463-2.147v-1.148a4.386,4.386,0,0,1,.954-2.984,3.231,3.231,0,0,1,2.563-1.094,3.4,3.4,0,0,1,2.258.714,2.952,2.952,0,0,1,1.018,1.97h-.768a2.341,2.341,0,0,0-.814-1.516,2.608,2.608,0,0,0-1.688-.517,2.469,2.469,0,0,0-2.013.9,3.927,3.927,0,0,0-.742,2.553v1.075a4.474,4.474,0,0,0,.352,1.83,2.778,2.778,0,0,0,1.012,1.233,2.659,2.659,0,0,0,1.512.438,4.266,4.266,0,0,0,1.7-.31,1.848,1.848,0,0,0,.684-.482v-2.344h-2.439v-.65h3.207Z" transform="translate(-56.692 -10.686)" fill-rule="evenodd"/>
    <path id="Path_2853" data-name="Path 2853" d="M374.369,120.666h-4.246v3.707h4.883v.647h-5.651v-9.082h5.62v.649h-4.852v3.432h4.246Z" transform="translate(-59.068 -10.715)" fill-rule="evenodd"/>
    <path id="Path_2854" data-name="Path 2854" d="M380.9,115.938l3.349,8.017,3.361-8.017h1.025v9.082h-.767v-3.955l.06-4.053-3.377,8.007h-.593l-3.371-7.976.063,4v3.98h-.767v-9.082Z" transform="translate(-61.048 -10.715)" fill-rule="evenodd"/>
  </g>
</svg>
