<svg id="Camada_1" data-name="Camada 1" xmlns="http://www.w3.org/2000/svg" viewBox="0 0 1280 415.97"><defs><style>.cls-1{fill-rule:evenodd;}.cls-2{fill:#dde460;}.cls-3{fill:#a7dcda;}.cls-4{fill:#f6df3f;}</style></defs><path class="cls-1" d="M815.78,247.59l8.81-41.37c10.61,0,27.23-1.45,34.54,5.93a12.88,12.88,0,0,1,4.17,9.62c0,10.58-4.77,18.73-14.2,22.46-9.94,3.94-19.82,3.36-33.32,3.36Zm21.71-59H828.4c0-1.41,1.39-7.51,1.78-9.36L836,150.76c10,0,22.06-1.13,29.93,2.93,6,3.11,6.74,7.24,6.74,12.93a20.19,20.19,0,0,1-10.84,17.59c-7.08,3.66-13.76,4.4-24.36,4.4ZM784.1,265.48h47.23c21.66,0,45.45-4.3,56.27-21.18,8.23-12.86,9.35-35.28-8.35-44.05a37.42,37.42,0,0,0-6.45-2.65l-2.45-.77c5-.43,13.37-4.29,17.77-7.46.94-.68,1.41-1.12,2.26-1.84a20.7,20.7,0,0,0,4.23-4.29,33.85,33.85,0,0,0,6.82-14.6c1.62-7.87,1-16.92-4.47-23.37-7.88-9.35-20.68-12.4-34.54-12.4H812.85c-1,0-.81.49-1,1.36l-3.05,14.56c-3.23,16.43-7.43,33.56-10.71,50l-12.36,58.05c-.32,1.6-.57,2.51-.89,4.1a19.86,19.86,0,0,0-.75,4.53Z"/><path class="cls-1" d="M713.39,248.76c-9.89,0-13.21-5.91-13.21-15.56A54.59,54.59,0,0,1,712.33,199c6.79-8.62,18.88-16.54,30.11-16.54h3.81c2.4,0,3.6.84,5.57.88,0,1.63-7,29.25-7.59,31.13a92.05,92.05,0,0,1-3.56,9.63c-3.36,7.62-7.18,13.86-13.12,19.16a23.81,23.81,0,0,1-14.16,5.5Zm-11.73,16.72a44.84,44.84,0,0,0,21.41-5c7.26-3.75,13.22-12.05,14.08-12.62a49,49,0,0,1-1.4,5.92c-.51,2.07-1,4.25-1.46,6.16a69.16,69.16,0,0,1-3.88,11.39c-5.78,12.9-15.72,18.79-29.09,20.2-3.56.37-7.18,0-10.82,0a57.48,57.48,0,0,1-13.07-2.17,55.23,55.23,0,0,1-5.66-2c-.92-.39-1.6-.76-2.64-1.19a9.81,9.81,0,0,0-2.68-1.13,26.47,26.47,0,0,1-1.21,4.95l-4.06,14.71,7.46,2.21c19.91,5,46.09,5.31,64.5-3.87,9.29-4.63,16.23-12.49,20.84-21.72,7.23-14.51,9.39-27.89,13-43.63l10.32-46.29c.54-2.29,5.05-21.45,5.05-23.41-5.33-2.56-26-4.41-32-4.41a85.09,85.09,0,0,0-23.14,3.27,84.19,84.19,0,0,0-30.46,15.61,60.16,60.16,0,0,0-8.43,8l-3.11,3.64a65.91,65.91,0,0,0-12.15,24.53c-6.36,25,1.2,46.77,28.59,46.77Z"/><path class="cls-1" d="M479.87,196.83c2.49-10.67,4.64-22.15,7.15-33,.47-2,2.24-9.78,2.24-11.25,11.81,0,28.4-1.92,35.49,9.09,4.39,6.86,1.76,17.91-1.23,22.53-8.8,13.64-26.31,12.67-43.65,12.67Zm-43.42,68.65h29l9-42.62a44.62,44.62,0,0,0,1.25-6.38c24,0,46,2.29,64.29-12.28A45.33,45.33,0,0,0,556.73,169c0-8.58-1-14.12-6-21a30.76,30.76,0,0,0-5.66-6.06,36.26,36.26,0,0,0-7.08-4.66c-11.6-6.09-28-4.36-42.29-4.36h-31.1c-.18,2.23-16.29,76.26-17.62,82.72-1.14,5.51-2.47,11-3.57,16.66l-5.27,24.66c-.29,1.24-.56,2.72-.88,4.11a29.69,29.69,0,0,0-.82,4.46Z"/><path class="cls-1" d="M1169.29,206.22m74.81-40.48h0l-21.77,19.87c-2.71,2.37-7,6.78-9.33,8.58l-18.48,16.72c3.63,6.85,9.68,16.83,13.81,24.05l5.94,10.19c3.73,6.67,8.14,13.69,11.64,20.33h-31.68c-.44-1.89-2.41-4.85-3.33-6.65l-8.5-16.42-1.57-3.14-5.08-9.88c-1.19-2.3-7.83-15.33-8.51-15.84,0,1.43-2.28,11.54-2.62,13.23-2.51,12.1-5.25,27.15-7.94,38.7-8.4,0-16.86-.11-25.25,0-3.46,0-2.53,0-1.92-3.11,3.79-18.83,8.33-38.17,12-56.92L1159,122.31h27.58c0,1.62-5.85,28.67-6.48,31.66-.7,3.4-1.49,6.85-2.19,10.42-.92,4.61-8.6,40-8.64,41.83l40.72-38.8c2.31-2.18,1-1.7,5.34-1.68Z"/><path class="cls-1" d="M623.92,242.59l.08.1s-.11-.07-.08-.1Zm-25.53,6.46c-10.39,0-13.49-7.23-13.49-17,0-13.94,6.28-26,12.56-33.79,2.69-3.31,3.5-3.59,5.7-5.74a38.23,38.23,0,0,1,6.77-5,35.48,35.48,0,0,1,19.55-5.37,18,18,0,0,1,6.76,1.18,35.09,35.09,0,0,1-1.12,5.34c-3,11.65-4.9,24.56-10,35.14L616.64,238c-3.53,4-7.14,7.95-12.63,9.95a21.52,21.52,0,0,1-5.62,1.13ZM584.6,267.53c10.54,0,17-2,25.23-7.91a49.66,49.66,0,0,0,7.71-7.56c1.27-1.43,2.11-2.77,3.27-4.35.67-.91.91-1.36,1.52-2.31a8.5,8.5,0,0,1,1.59-2.22A39.59,39.59,0,0,1,623,249l-2.33,14.44c-.16,1.32-.63,1.91.86,2.05h27c.43-1.84.26-4.66.51-6.54l.61-6.72c1.88-16.73,8.53-43,12.15-60L667,168.37c0-.63-2.08-1-2.68-1.14a74.85,74.85,0,0,0-9.72-2L644.45,164c-12.34-.61-19.65-.8-31.75,2.28a82.08,82.08,0,0,0-31,15.65A77.9,77.9,0,0,0,570,193.69a66.68,66.68,0,0,0-10.91,20.19,57.77,57.77,0,0,0-1.73,6.2,109.48,109.48,0,0,0-1.82,14c-.26,3.18.82,10.72,1.78,13.73A28.42,28.42,0,0,0,562.77,258c4.75,6.11,13.79,9.55,21.83,9.55Z"/><path class="cls-1" d="M948.09,249.05c-8.56,0-13.78-5.3-13.78-14.37,0-12.4,2.15-20.26,8.15-30.28.76-1.27,1.36-2.12,2.24-3.35l5.22-6.2a48.48,48.48,0,0,1,9.74-7.58,35.91,35.91,0,0,1,19.23-5.11,18,18,0,0,1,6.75,1.18,41.17,41.17,0,0,1-1.18,5.27c-.42,1.76-.81,3.44-1.22,5.22-2.65,11.21-4,19.23-8.75,30-4.21,9.45-11.18,20.06-21.11,24.06a23.68,23.68,0,0,1-5.29,1.17ZM905,235.56c0,18.44,10.54,32,29,32,11,0,17.87-2.48,25.19-7.95a49.61,49.61,0,0,0,7.73-7.53,39.09,39.09,0,0,0,3.28-4.36l3.12-4.81c0,2.31-3.53,18.56-3.53,22.6H998c0-1.64.23-1.89.29-3.22a151.36,151.36,0,0,1,2.63-22.63c1.62-8.2,3.27-15.85,5.13-23.91l9.83-44.44a16.3,16.3,0,0,0,.61-3.2c-3.38-1.62-16.17-3.57-19.66-3.81-5.43-.36-5.32-.5-11.15-.58-1.36,0-1.71-.27-2.64-.27l-8.22.55c-15.79,1.35-35.92,9.73-47,20.76a19.58,19.58,0,0,1-1.6,1.34L918,195.49A64.35,64.35,0,0,0,908.15,215,69.53,69.53,0,0,0,905,235.56Z"/><path class="cls-1" d="M1060.75,182.75m0,0c0-2.64,2.63-15.16,2.63-17l-25,0c-1.13.12-1,.09-1.16,1.18-1.43,10.06-2,13.1-4.06,23.22l-6.32,30.07c-1.13,5.1-2.16,9.9-3.17,15-1,4.88-2.18,10-3.18,15-.5,2.48-1,4.89-1.56,7.53l-1.64,7.75h27.87l2.46-11.91c.42-2.07.76-3.76,1.23-5.81l3.82-17.89c2.16-9.41,4.64-26,9-34.12,2-3.66,2.34-3.7,4.35-6.22l3.83-3.5c9.15-6.2,24.2-5.43,25.16,7.28.47,6.28-5.14,28.75-6.67,36.45L1081,265.48h27.58l13-61.54c1.38-6.48,3.09-14.33,1.56-21.95-2.1-10.46-9.82-16-19.57-17.69-10.4-1.79-22.39.41-30.42,5.89-4.77,3.25-8.12,7.16-11.58,11.6-.29.37-.53.65-.79,1Z"/><path d="M366.46,153.53C331.38,68.67,234.4,28.34,149.82,63.45S25.13,195.81,60.2,280.67s132.06,125.18,216.62,90.07,124.71-132.36,89.64-217.21Z"/><path d="M272.88,73.08C193.59,40.16,102.67,78,69.79,157.53s4.75,170.72,84,203.62S324,356.27,356.9,276.71,352.15,106,272.88,73.08Z"/><path class="cls-2" d="M351.14,194.55c0-76.39-61.69-138.31-137.8-138.31S75.57,118.16,75.57,194.55s61.68,138.33,137.77,138.33S351.14,270.94,351.14,194.55Z"/><path d="M213.32,336.52c-79,0-143-64.28-143-143.59s64-143.57,143-143.57,143,64.28,143,143.57S292.31,336.52,213.32,336.52Zm0-276.54a133.22,133.22,0,1,0,132.62,133c0-73.5-59.39-133.11-132.62-133.19Z"/><path class="cls-3" d="M304.63,257.9c0-63.41-51.21-114.82-114.38-114.82S75.88,194.49,75.88,257.9s51.21,114.81,114.37,114.81S304.63,321.3,304.63,257.9Z"/><path d="M190.49,377.94a120.25,120.25,0,0,1-25.3-2.66c-64.55-13.89-105.66-77.7-91.82-142.5s77.38-106.1,142-92.2S321,218.24,307.2,283.05a119.76,119.76,0,0,1-116.55,94.89Zm-.27-229.67c-57.33,0-104.89,44.51-108.92,101.93s36.87,108.17,93.62,116.24a109.6,109.6,0,1,0,15.3-218.18Z"/><path class="cls-4" d="M361.12,262.73a71,71,0,1,0-71,71.24,71.09,71.09,0,0,0,71-71.24Z"/><path d="M290.16,339.17a76.44,76.44,0,1,1,76.16-76.44A76.28,76.28,0,0,1,290.16,339.17Zm0-142.45a66.09,66.09,0,1,0,65.76,66A65.78,65.78,0,0,0,290.16,196.72Z"/></svg>