<svg id="Camada_1" data-name="Camada 1" xmlns="http://www.w3.org/2000/svg" viewBox="0 0 397.81 385.55"><defs><style>.cls-1{fill:#dde460;}.cls-2{fill:#a7dcda;}.cls-3{fill:#f6df3f;}</style></defs><path d="M352,130.65C317,45.79,220,5.46,135.39,40.57S10.71,172.94,45.77,257.8,177.83,383,262.39,347.86,387.1,215.51,352,130.65Z"/><path d="M258.45,50.21C179.16,17.29,88.24,55.09,55.36,134.65s4.75,170.72,84,203.63,170.22-4.89,203.09-84.44S337.73,83.11,258.45,50.21Z"/><path class="cls-1" d="M336.71,171.68c0-76.39-61.68-138.32-137.79-138.32S61.14,95.29,61.14,171.68,122.82,310,198.92,310,336.71,248.07,336.71,171.68Z"/><path d="M198.89,313.64c-79,0-143-64.28-143-143.59s64-143.57,143-143.57,143,64.28,143,143.57S277.88,313.64,198.89,313.64Zm0-276.53A133.22,133.22,0,1,0,331.51,170.05c0-73.5-59.38-133.1-132.62-133.18Z"/><path class="cls-2" d="M290.2,235c0-63.41-51.21-114.81-114.38-114.81S61.45,171.61,61.45,235s51.21,114.81,114.37,114.81S290.2,298.42,290.2,235Z"/><path d="M176.06,355.07a121.42,121.42,0,0,1-25.29-2.66C86.21,338.51,45.1,274.71,58.94,209.9s77.38-106.09,142-92.2,105.69,77.66,91.88,142.47a119.75,119.75,0,0,1-116.55,94.9Zm-.27-229.68c-57.33,0-104.89,44.52-108.92,101.93s36.87,108.17,93.63,116.25a109.6,109.6,0,1,0,15.29-218.18Z"/><path class="cls-3" d="M346.69,239.85a71,71,0,1,0-70.95,71.24,71.09,71.09,0,0,0,70.95-71.24Z"/><path d="M275.74,316.29a76.44,76.44,0,1,1,76.15-76.44A76.28,76.28,0,0,1,275.74,316.29Zm0-142.45a66.09,66.09,0,1,0,65.76,66A65.81,65.81,0,0,0,275.74,173.84Z"/></svg>