<svg
  xmlns="http://www.w3.org/2000/svg"
  width="100%"
  fill="none"
>
  <g clip-path="url(#clip0_731_8289)">
    <mask
      id="mask0_731_8289"
      style="mask-type: luminance"
      maskUnits="userSpaceOnUse"
      x="0"
      y="0"
      width="55"
      height="17"
    >
      <path
        d="M54.9286 0.5H0.0714111V16.5H54.9286V0.5Z"
        fill="white"
      />
    </mask>
    <g mask="url(#mask0_731_8289)">
      <mask
        id="mask1_731_8289"
        style="mask-type: luminance"
        maskUnits="userSpaceOnUse"
        x="0"
        y="0"
        width="55"
        height="17"
      >
        <path
          d="M54.9286 0.5H0.0714111V16.5H54.9286V0.5Z"
          fill="white"
        />
      </mask>
      <g mask="url(#mask1_731_8289)">
        <path
          d="M40.5771 6.8037C40.7346 6.96965 40.8553 7.1657 40.9316 7.37951C41.0079 7.59333 41.0381 7.82028 41.0204 8.04609C41.0443 9.13121 40.5175 9.6852 39.4401 9.70808L38.4037 9.72971C38.3979 9.73061 38.392 9.73018 38.3864 9.72847C38.3808 9.72675 38.3756 9.72379 38.3714 9.71982C38.3672 9.71585 38.3639 9.71098 38.3619 9.70557C38.3599 9.70017 38.3592 9.69439 38.3599 9.68868L38.3282 6.51576C38.3273 6.51008 38.3277 6.50428 38.3295 6.4988C38.3312 6.49331 38.3343 6.4883 38.3383 6.48415C38.3424 6.48 38.3474 6.47682 38.3529 6.47486C38.3584 6.47291 38.3643 6.47222 38.3702 6.47287L39.3684 6.45198C39.8023 6.41382 40.2347 6.53968 40.5767 6.8037M40.4471 9.14227C40.5743 8.99159 40.6688 8.81716 40.7248 8.6296C40.7808 8.44204 40.7973 8.24528 40.773 8.05131C40.7578 7.35061 40.5291 6.92268 40.0869 6.76752C39.8557 6.69647 39.6136 6.66542 39.3715 6.67577L38.5775 6.69255L38.6011 9.50257L39.4332 9.48503C39.8032 9.50288 40.1659 9.38021 40.4456 9.14264"
          fill="#0C0A08"
        />
        <path
          d="M41.7222 9.66704C41.711 9.65656 41.702 9.64394 41.6959 9.62996C41.6898 9.61598 41.6867 9.60093 41.6868 9.58573V6.54634C41.6863 6.53036 41.6892 6.51446 41.6953 6.49964C41.7014 6.48481 41.7105 6.47138 41.7222 6.46018C41.7329 6.44918 41.7458 6.44043 41.7601 6.43447C41.7744 6.4285 41.7898 6.42545 41.8053 6.42549H41.8148C41.8306 6.42486 41.8464 6.42744 41.8611 6.43307C41.8758 6.43869 41.8892 6.44724 41.9004 6.45817C41.9115 6.46911 41.9203 6.48219 41.926 6.49659C41.9318 6.511 41.9344 6.52641 41.9338 6.54186V9.58424C41.9339 9.61454 41.922 9.64371 41.9006 9.66555C41.8896 9.67688 41.8762 9.68582 41.8615 9.69179C41.8467 9.69777 41.8308 9.70064 41.8148 9.70024H41.8053C41.7898 9.70028 41.7744 9.69723 41.7601 9.69127C41.7458 9.6853 41.7329 9.67655 41.7222 9.66555"
          fill="#0C0A08"
        />
        <path
          d="M45.495 7.20428C45.422 7.07679 45.328 6.96198 45.2167 6.8645C45.1084 6.77628 44.9833 6.70997 44.8486 6.66943C44.6638 6.6227 44.4733 6.60075 44.2825 6.60416C44.0142 6.59713 43.7488 6.65898 43.5125 6.78356C43.2977 6.90146 43.1248 7.08079 43.017 7.29753C42.9041 7.54123 42.8456 7.80573 42.8456 8.07332C42.8456 8.34091 42.9041 8.60541 43.017 8.84911C43.1258 9.06518 43.2984 9.24425 43.5125 9.36308C43.7483 9.48896 44.014 9.5515 44.2825 9.54434C44.6489 9.57216 45.0137 9.47431 45.3143 9.2676C45.4373 9.15102 45.5346 9.01101 45.6002 8.85622C45.6657 8.70143 45.6982 8.53514 45.6955 8.3676H44.5829C44.5503 8.36846 44.5187 8.35681 44.4948 8.33515C44.4835 8.32518 44.4745 8.31297 44.4684 8.29934C44.4623 8.28571 44.4592 8.27097 44.4594 8.25608C44.4591 8.24133 44.4619 8.22668 44.4676 8.21302C44.4733 8.19936 44.4818 8.18698 44.4925 8.17664C44.5038 8.16571 44.5172 8.15719 44.5319 8.15161C44.5467 8.14602 44.5625 8.14349 44.5783 8.14419H45.9189C45.9247 8.14346 45.9305 8.14403 45.936 8.14587C45.9416 8.14771 45.9466 8.15077 45.9507 8.1548C45.9548 8.15884 45.958 8.16375 45.9598 8.16915C45.9617 8.17455 45.9623 8.1803 45.9616 8.18596C45.9786 8.40335 45.9493 8.62182 45.8756 8.82758C45.802 9.03334 45.6855 9.2219 45.5335 9.38135C45.2279 9.59816 44.8675 9.7292 44.4914 9.76036C44.1152 9.79151 43.7375 9.7216 43.399 9.55815C43.1481 9.42129 42.9434 9.21603 42.8097 8.96735C42.6656 8.6912 42.5937 8.38442 42.6004 8.07444C42.5933 7.76426 42.6634 7.45704 42.8047 7.17929C42.9361 6.92828 43.1416 6.72167 43.3944 6.58626C43.668 6.44496 43.974 6.37448 44.2833 6.38149C44.5818 6.36885 44.8792 6.42547 45.1512 6.54672C45.3845 6.67212 45.5778 6.8581 45.71 7.08418C45.7219 7.10384 45.7284 7.12622 45.7287 7.14908C45.7284 7.17115 45.7216 7.19266 45.7089 7.21091C45.6962 7.22917 45.6783 7.24334 45.6574 7.25165C45.6397 7.26056 45.6201 7.26529 45.6002 7.26545C45.5792 7.2642 45.5587 7.25807 45.5405 7.24757C45.5224 7.23706 45.507 7.22248 45.4958 7.20503"
          fill="#0C0A08"
        />
        <path
          d="M46.6148 9.66704C46.6036 9.65656 46.5947 9.64394 46.5886 9.62996C46.5825 9.61598 46.5794 9.60093 46.5794 9.58573V6.54634C46.5789 6.53036 46.5818 6.51446 46.5879 6.49964C46.594 6.48481 46.6032 6.47138 46.6148 6.46018C46.6256 6.44918 46.6385 6.44043 46.6527 6.43447C46.667 6.4285 46.6824 6.42545 46.6979 6.42549H46.7075C46.7233 6.42486 46.739 6.42744 46.7537 6.43307C46.7685 6.43869 46.7818 6.44724 46.793 6.45817C46.8042 6.46911 46.8129 6.48219 46.8187 6.49659C46.8244 6.511 46.827 6.52641 46.8264 6.54186V9.58424C46.8266 9.61454 46.8147 9.64371 46.7932 9.66555C46.7822 9.67688 46.7689 9.68582 46.7541 9.69179C46.7393 9.69777 46.7234 9.70064 46.7075 9.70024H46.6979C46.6824 9.70028 46.667 9.69723 46.6527 9.69127C46.6385 9.6853 46.6256 9.67655 46.6148 9.66555"
          fill="#0C0A08"
        />
        <path
          d="M48.4407 9.68606C48.4294 9.67558 48.4205 9.66296 48.4144 9.64898C48.4083 9.635 48.4052 9.61995 48.4052 9.60475L48.4239 6.66905H47.5918C47.576 6.66969 47.5603 6.66714 47.5456 6.66155C47.5309 6.65597 47.5176 6.64747 47.5064 6.6366C47.485 6.61562 47.473 6.58718 47.473 6.55753C47.473 6.52787 47.485 6.49944 47.5064 6.47846C47.5176 6.46758 47.5309 6.45908 47.5456 6.4535C47.5603 6.44792 47.576 6.44536 47.5918 6.446H49.4527C49.4854 6.44497 49.5171 6.45664 49.5411 6.47846C49.5525 6.48835 49.5616 6.50053 49.5678 6.51418C49.574 6.52782 49.5771 6.5426 49.5769 6.55753C49.5772 6.57226 49.5744 6.58688 49.5686 6.60049C49.5628 6.61409 49.5542 6.62638 49.5434 6.6366C49.5322 6.64747 49.5189 6.65597 49.5042 6.66155C49.4895 6.66714 49.4738 6.66969 49.458 6.66905H48.6713L48.6522 9.60475C48.6524 9.63512 48.6403 9.66434 48.6187 9.68606C48.6078 9.69749 48.5946 9.70651 48.5798 9.71249C48.5651 9.71848 48.5492 9.72129 48.5333 9.72075H48.5238C48.5082 9.72079 48.4928 9.71774 48.4786 9.71178C48.4643 9.70581 48.4514 9.69706 48.4407 9.68606Z"
          fill="#0C0A08"
        />
        <path
          d="M52.2753 9.65251L51.9802 8.99196H50.1072L49.8404 9.65251C49.8308 9.67379 49.8145 9.69155 49.794 9.70321C49.7734 9.71488 49.7496 9.71985 49.726 9.71741C49.6935 9.71968 49.6609 9.71404 49.6311 9.70099C49.6213 9.6949 49.6135 9.68627 49.6084 9.67606C49.6034 9.66585 49.6013 9.65447 49.6025 9.64318C49.6053 9.60311 49.615 9.56378 49.6311 9.52682L50.8531 6.52621C50.8599 6.50683 50.8734 6.49035 50.8912 6.47959C50.9094 6.46734 50.9309 6.46083 50.953 6.46094H51.1623C51.1843 6.46088 51.2058 6.46738 51.224 6.47959C51.2417 6.49047 51.2552 6.5069 51.2621 6.52621L52.4838 9.52682C52.5037 9.56427 52.5151 9.60549 52.5173 9.64766C52.5173 9.67862 52.5078 9.69801 52.4883 9.70584C52.4512 9.71589 52.4125 9.7198 52.374 9.71741C52.3519 9.71744 52.3304 9.71094 52.3122 9.69876C52.2944 9.68804 52.2809 9.67155 52.2741 9.65214M51.0616 6.63773L50.1849 8.7637H51.8918L51.0616 6.63773Z"
          fill="#0C0A08"
        />
        <path
          d="M54.8096 9.7021H53.2361C53.2303 9.70285 53.2244 9.70227 53.2189 9.70041C53.2133 9.69855 53.2083 9.69546 53.2041 9.69138C53.2 9.6873 53.1969 9.68234 53.195 9.67689C53.1932 9.67144 53.1926 9.66564 53.1934 9.65996L53.1649 6.54783C53.1648 6.53263 53.1679 6.51758 53.174 6.50361C53.1801 6.48963 53.1891 6.47701 53.2003 6.46652C53.2176 6.44933 53.2397 6.43759 53.2639 6.43281C53.288 6.42802 53.3131 6.43042 53.3358 6.43968C53.3586 6.44895 53.378 6.46466 53.3915 6.48479C53.4051 6.50493 53.4121 6.52857 53.4119 6.55268L53.4405 9.47869H54.8096C54.8254 9.47818 54.8412 9.48083 54.8559 9.48647C54.8707 9.49211 54.8841 9.50063 54.8954 9.51151C54.9168 9.53249 54.9288 9.56093 54.9288 9.59058C54.9288 9.62023 54.9168 9.64867 54.8954 9.66965C54.8841 9.68055 54.8707 9.68909 54.8559 9.69473C54.8412 9.70037 54.8254 9.70264 54.8096 9.7021Z"
          fill="#0C0A08"
        />
        <path
          d="M41.2205 11.545C41.1476 11.4175 41.0535 11.3027 40.9423 11.2052C40.8339 11.1169 40.7088 11.0505 40.5741 11.0098C40.3893 10.9632 40.1988 10.9413 40.008 10.9449C39.7398 10.9377 39.4743 10.9996 39.2381 11.1243C39.0232 11.2421 38.8503 11.4215 38.7425 11.6382C38.6296 11.8819 38.5712 12.1464 38.5712 12.414C38.5712 12.6816 38.6296 12.9461 38.7425 13.1898C38.8513 13.4059 39.024 13.5849 39.2381 13.7038C39.4739 13.8295 39.7395 13.892 40.008 13.885C40.3744 13.9129 40.7392 13.815 41.0399 13.6083C41.1628 13.4917 41.26 13.3517 41.3256 13.1969C41.3911 13.0421 41.4236 12.8758 41.421 12.7083H40.3084C40.2758 12.7092 40.2442 12.6975 40.2203 12.6759C40.209 12.6658 40.2 12.6536 40.1939 12.6399C40.1878 12.6262 40.1847 12.6114 40.1849 12.5964C40.1847 12.5817 40.1875 12.5671 40.1932 12.5535C40.1989 12.54 40.2073 12.5276 40.218 12.5173C40.2293 12.5064 40.2427 12.4979 40.2574 12.4923C40.2722 12.4867 40.288 12.4842 40.3038 12.4849H41.6444C41.6502 12.4841 41.6561 12.4846 41.6617 12.4864C41.6673 12.4882 41.6723 12.4913 41.6765 12.4953C41.6807 12.4994 41.6838 12.5043 41.6857 12.5097C41.6876 12.5152 41.6882 12.521 41.6875 12.5267C41.7045 12.7441 41.6753 12.9626 41.6016 13.1685C41.5279 13.3743 41.4114 13.5629 41.2594 13.7224C40.9538 13.9393 40.5935 14.0703 40.2173 14.1015C39.8411 14.1327 39.4634 14.0627 39.1249 13.8992C38.874 13.7624 38.6693 13.5571 38.5356 13.3084C38.3916 13.0322 38.3197 12.7255 38.3263 12.4155C38.3191 12.1053 38.3892 11.7981 38.5306 11.5204C38.662 11.2694 38.8675 11.0628 39.1203 10.9273C39.3939 10.786 39.6999 10.7155 40.0092 10.7226C40.3077 10.7098 40.6052 10.7664 40.8771 10.8878C41.1104 11.013 41.3038 11.1989 41.4359 11.4249C41.4478 11.4446 41.4542 11.4669 41.4546 11.4898C41.4543 11.5118 41.4474 11.5332 41.4347 11.5514C41.422 11.5696 41.4041 11.5837 41.3833 11.592C41.3658 11.601 41.3463 11.6059 41.3265 11.6062C41.3054 11.6049 41.2849 11.5988 41.2667 11.5883C41.2484 11.5778 41.233 11.5632 41.2217 11.5457"
          fill="#0C0A08"
        />
        <path
          d="M42.3481 10.7867H43.4035C43.6143 10.782 43.8232 10.8258 44.0134 10.9147C44.1801 10.9899 44.3207 11.1112 44.4178 11.2636C44.5149 11.416 44.5644 11.5929 44.56 11.7725C44.572 12.0207 44.5065 12.2666 44.3721 12.4774C44.2443 12.6574 44.0551 12.7869 43.8384 12.8426L44.4102 13.8612C44.4385 13.9035 44.4579 13.951 44.4674 14.0007C44.4684 14.008 44.4671 14.0155 44.4637 14.0222C44.4603 14.0288 44.4549 14.0343 44.4483 14.038C44.4254 14.0458 44.4012 14.049 44.377 14.0473H44.3199C44.2983 14.0483 44.277 14.0431 44.2584 14.0324C44.2399 14.0216 44.2249 14.0058 44.2154 13.9869L43.5972 12.8937C43.5625 12.8975 43.5276 12.8991 43.4927 12.8985H42.5558V13.9309C42.5561 13.9614 42.5442 13.9907 42.5226 14.0126C42.5117 14.0241 42.4984 14.0331 42.4836 14.0391C42.4688 14.045 42.4529 14.0478 42.4369 14.0473H42.4273C42.396 14.0465 42.3663 14.034 42.3441 14.0124C42.322 13.9907 42.3092 13.9616 42.3084 13.9309V10.8281C42.3077 10.8224 42.3083 10.8166 42.3102 10.8112C42.3121 10.8058 42.3152 10.8008 42.3194 10.7968C42.3236 10.7928 42.3286 10.7897 42.3342 10.7879C42.3398 10.7861 42.3457 10.7856 42.3515 10.7864M44.0866 12.4588C44.1714 12.3661 44.2358 12.2574 44.2759 12.1393C44.316 12.0213 44.3308 11.8964 44.3195 11.7725C44.3249 11.668 44.3066 11.5637 44.266 11.467C44.2253 11.3703 44.1633 11.2835 44.0843 11.213C43.8916 11.0665 43.6505 10.9944 43.407 11.0105H42.5558V12.674H43.407C43.6536 12.6909 43.8973 12.6133 44.0866 12.4577"
          fill="#0C0A08"
        />
        <path
          d="M45.115 12.4148C45.0862 11.9676 45.2382 11.5273 45.5381 11.1888C45.7003 11.0367 45.8932 10.9194 46.1044 10.8445C46.3156 10.7695 46.5405 10.7386 46.7647 10.7535C47.066 10.7431 47.3652 10.8072 47.6345 10.94C47.8755 11.0734 48.0721 11.2721 48.2005 11.5122C48.3498 11.7901 48.4236 12.1009 48.4148 12.4148C48.4302 12.6381 48.3999 12.8622 48.3255 13.0739C48.2512 13.2856 48.1343 13.4806 47.9817 13.6475C47.6396 13.9242 47.2094 14.0753 46.7655 14.0749C46.3216 14.0744 45.8918 13.9223 45.5503 13.6449C45.3975 13.4785 45.2803 13.2839 45.2056 13.0725C45.1309 12.8611 45.1002 12.6372 45.1153 12.414M48.1723 12.414C48.1984 12.0268 48.0716 11.6446 47.8182 11.3462C47.5221 11.1046 47.1488 10.9721 46.7632 10.9716C46.3777 10.9711 46.0041 11.1027 45.7073 11.3436C45.4563 11.644 45.3313 12.0265 45.3578 12.4137C45.3294 12.8044 45.4592 13.1903 45.7191 13.4882C46.0131 13.7261 46.3827 13.856 46.7642 13.8555C47.1457 13.855 47.515 13.7242 47.8083 13.4856C48.0691 13.1891 48.1997 12.8039 48.1719 12.4137"
          fill="#0C0A08"
        />
        <path
          d="M51.6573 10.8054C51.6684 10.8163 51.6771 10.8294 51.6828 10.8438C51.6885 10.8581 51.6911 10.8735 51.6905 10.8889V12.759C51.7151 13.1198 51.6007 13.4766 51.3699 13.759C51.2477 13.8804 51.1001 13.9745 50.9371 14.0348C50.7742 14.0951 50.5999 14.1201 50.4262 14.1081C50.2453 14.1243 50.0629 14.1035 49.8907 14.047C49.7184 13.9906 49.56 13.8997 49.4256 13.7802C49.1942 13.4903 49.083 13.1257 49.1142 12.759V10.8941C49.1138 10.8782 49.1167 10.8623 49.1228 10.8475C49.1289 10.8327 49.138 10.8192 49.1496 10.808C49.1603 10.797 49.1732 10.7882 49.1875 10.7823C49.2018 10.7763 49.2172 10.7733 49.2327 10.7733H49.2422C49.258 10.7727 49.2738 10.7752 49.2885 10.7809C49.3032 10.7865 49.3166 10.795 49.3278 10.806C49.3389 10.8169 49.3477 10.83 49.3534 10.8444C49.3592 10.8588 49.3618 10.8742 49.3612 10.8897V12.7784C49.353 12.9955 49.3885 13.2121 49.4656 13.4158C49.5283 13.5698 49.6467 13.6957 49.7984 13.7694C49.9954 13.8553 50.2102 13.8952 50.4258 13.8858C51.104 13.8858 51.4431 13.5168 51.4431 12.7788V10.8897C51.4426 10.874 51.4455 10.8585 51.4517 10.8441C51.4579 10.8296 51.4672 10.8167 51.4789 10.8061C51.5011 10.7849 51.531 10.7731 51.562 10.7733H51.5716C51.5873 10.7727 51.6031 10.7753 51.6178 10.781C51.6324 10.7866 51.6458 10.7952 51.657 10.8061"
          fill="#0C0A08"
        />
        <path
          d="M52.4868 14.013C52.4755 14.0025 52.4666 13.9898 52.4605 13.9757C52.4544 13.9617 52.4513 13.9466 52.4514 13.9313V10.8285C52.4506 10.8228 52.4512 10.8171 52.4531 10.8117C52.455 10.8063 52.4581 10.8014 52.4622 10.7973C52.4663 10.7933 52.4713 10.7903 52.4769 10.7884C52.4824 10.7866 52.4883 10.786 52.4941 10.7867H53.548C53.7587 10.7819 53.9677 10.8257 54.1579 10.9147C54.3245 10.9899 54.4651 11.1112 54.5623 11.2636C54.6595 11.416 54.709 11.5929 54.7048 11.7725C54.7165 11.9257 54.6957 12.0795 54.6437 12.2244C54.5918 12.3694 54.5098 12.5022 54.403 12.6147C54.168 12.8159 53.8611 12.918 53.5495 12.8985H52.6983V13.9313C52.6987 13.9617 52.6868 13.9911 52.6652 14.013C52.6543 14.0244 52.641 14.0334 52.6263 14.0393C52.6116 14.0453 52.5957 14.0482 52.5798 14.0477H52.5703C52.5547 14.0478 52.5392 14.0447 52.5249 14.0388C52.5105 14.0328 52.4976 14.024 52.4868 14.013ZM53.548 12.674C53.7946 12.6909 54.0383 12.6133 54.2276 12.4577C54.3125 12.365 54.377 12.2563 54.4171 12.1382C54.4573 12.0202 54.4722 11.8953 54.4609 11.7714C54.4663 11.6669 54.448 11.5626 54.4074 11.4659C54.3667 11.3691 54.3047 11.2824 54.2257 11.2119C54.0328 11.0654 53.7916 10.9933 53.548 11.0094H52.6968V12.674H53.548Z"
          fill="#0C0A08"
        />
        <path
          d="M14.0512 10.0393C14.0488 9.17409 14.2261 8.31745 14.5722 7.5213C14.8964 6.74509 15.3744 6.03937 15.9787 5.44486C16.583 4.85034 17.3016 4.37881 18.0931 4.05746C18.9141 3.71347 19.7984 3.53791 20.6915 3.54163C21.9853 3.53078 23.2522 3.9033 24.3256 4.61021C25.4135 5.31792 26.2664 6.32117 26.7796 7.49668C27.1311 8.29962 27.3064 9.16584 27.2941 10.0393C27.3018 11.1736 26.9984 12.2891 26.4155 13.2696C25.8422 14.2483 25.0152 15.0618 24.018 15.628C23.0102 16.2081 21.8603 16.5095 20.6911 16.5C19.5226 16.5094 18.3725 16.2147 17.3586 15.6462C16.348 15.0833 15.5089 14.2672 14.9276 13.2817C14.3462 12.2963 14.044 11.1771 14.0512 10.0393ZM17.8293 10.0564C17.8255 10.4182 17.8983 10.7769 18.043 11.1098C18.1877 11.4427 18.4012 11.7428 18.6702 11.9911C18.9333 12.2531 19.2479 12.4601 19.5952 12.5996C19.9425 12.7391 20.315 12.8082 20.6904 12.8027C21.0616 12.8083 21.4301 12.7398 21.7734 12.6012C22.1166 12.4627 22.4273 12.2571 22.6866 11.997C22.9532 11.7466 23.1644 11.4452 23.3069 11.1116C23.4495 10.7779 23.5204 10.4191 23.5152 10.0575C23.5207 9.69209 23.45 9.32938 23.3075 8.99151C23.1651 8.65364 22.9538 8.3477 22.6866 8.09233C22.4291 7.82909 22.119 7.6206 21.7755 7.47986C21.4321 7.33913 21.0627 7.26919 20.6904 7.27439C20.3145 7.26917 19.9415 7.33901 19.5941 7.47965C19.2468 7.62029 18.9324 7.82876 18.6702 8.09233C18.3997 8.34592 18.1855 8.65127 18.0409 8.98936C17.8962 9.32745 17.8242 9.69106 17.8293 10.0575"
          fill="#0C0A08"
        />
        <path
          d="M9.52492 0.5V4.21225C9.51528 4.21166 9.50585 4.20917 9.49721 4.20494C9.48856 4.20071 9.48088 4.19483 9.47461 4.18763C9.31756 4.12174 9.1651 4.06405 9.0172 4.01457C8.8735 3.96646 8.73323 3.92655 8.59792 3.89447C8.3898 3.82995 8.19845 3.77885 8.01968 3.73745C7.83139 3.70015 7.6408 3.6718 7.44793 3.65129C7.1003 3.63227 6.81976 3.62033 6.6044 3.61399C5.97371 3.62065 5.34726 3.71599 4.74429 3.89708L4.70313 3.91014C4.63528 3.93102 4.56858 3.95415 4.50187 3.97727C3.04632 4.491 1.81325 5.47496 1.00617 6.76677C0.850997 7.02525 0.712983 7.29323 0.592978 7.56905C0.247004 8.36105 0.0697061 9.21377 0.0719199 10.0751C0.0719199 10.1023 0.0719199 10.1292 0.0719199 10.156C0.0899896 10.267 0.0978985 10.3793 0.0955524 10.4917C0.190632 12.0097 0.843266 13.443 1.93317 14.5273C2.20367 14.8081 2.49811 15.0659 2.81329 15.2979C2.99358 15.4228 3.17921 15.5418 3.37513 15.6511C4.02273 16.0136 4.72914 16.2647 5.46356 16.3933C5.62403 16.4179 5.78641 16.4385 5.95184 16.4511C6.00266 16.4593 6.08194 16.4676 6.18969 16.4758C6.26211 16.481 6.32234 16.4866 6.37265 16.4922C6.48243 16.497 6.59259 16.5004 6.70389 16.5004C6.84568 16.5004 6.98595 16.4959 7.12317 16.4877C8.14619 16.4334 9.14107 16.1403 10.0246 15.6328C11.0205 15.071 11.8473 14.2622 12.4218 13.2879C13.0029 12.3133 13.3056 11.2038 13.2985 10.0755V0.5H9.52492ZM8.35892 11.9571C8.09968 12.2172 7.78894 12.4228 7.44571 12.5613C7.10248 12.6998 6.73397 12.7684 6.36274 12.7628C5.9871 12.7683 5.61423 12.6992 5.26671 12.5596C4.91918 12.4199 4.60426 12.2127 4.34102 11.9504C4.07257 11.702 3.85951 11.4019 3.7152 11.069C3.57089 10.7362 3.49846 10.3777 3.50244 10.0162C3.49705 9.64983 3.5687 9.28633 3.71296 8.94825C3.85722 8.61017 4.071 8.30474 4.34102 8.05094C4.60322 7.78735 4.91761 7.57886 5.26496 7.43822C5.61232 7.29759 5.98534 7.22775 6.36122 7.23299C6.73353 7.22777 7.10295 7.29771 7.4464 7.43844C7.78986 7.57917 8.09998 7.78768 8.3574 8.05094C8.62457 8.30633 8.8358 8.61228 8.9782 8.95015C9.1206 9.28802 9.19119 9.65072 9.18568 10.0162C9.19088 10.3777 9.12003 10.7365 8.97754 11.0701C8.83506 11.4038 8.62397 11.7052 8.3574 11.9556"
          fill="#0C0A08"
        />
        <path
          d="M32.1408 14.6299C32.1386 14.8488 32.1827 15.0658 32.2704 15.2672C32.358 15.4686 32.4873 15.6501 32.65 15.8003C32.8092 15.9589 32.9997 16.0842 33.2099 16.1685C33.4201 16.2529 33.6456 16.2946 33.8728 16.2911C34.0974 16.2945 34.3203 16.253 34.5279 16.1692C34.7355 16.0854 34.9235 15.961 35.0803 15.8036C35.2416 15.652 35.3693 15.4695 35.4555 15.2675C35.5417 15.0655 35.5845 14.8484 35.5812 14.6295C35.5845 14.4084 35.5419 14.189 35.4558 13.9846C35.3696 13.7802 35.2419 13.595 35.0803 13.4405C34.9246 13.2812 34.737 13.155 34.5293 13.0699C34.3215 12.9847 34.098 12.9424 33.8728 12.9455C33.6452 12.9424 33.4194 12.9847 33.2092 13.07C32.9989 13.1552 32.8086 13.2815 32.65 13.4412C32.4863 13.5946 32.3567 13.7794 32.2692 13.9839C32.1816 14.1885 32.138 14.4085 32.1411 14.6303"
          fill="#76B900"
        />
        <path
          d="M32.451 15.9965C32.2616 15.8207 32.1113 15.6086 32.0093 15.3735C31.9073 15.1384 31.8559 14.8853 31.8583 14.6299C31.8551 14.3718 31.906 14.1158 32.0078 13.8777C32.1096 13.6396 32.2602 13.4244 32.4502 13.2454C32.6312 13.0645 32.8472 12.9207 33.0855 12.8222C33.3238 12.7237 33.5798 12.6726 33.8385 12.6718C33.4379 12.5706 33.0662 12.3816 32.7513 12.119C32.7095 12.0953 32.671 12.0662 32.637 12.0325C32.6198 12.0157 32.6042 11.9985 32.5874 11.9817C32.5772 11.9717 32.5676 11.9616 32.5577 11.9512C32.5415 11.9338 32.5253 11.9162 32.5093 11.8986C32.504 11.893 32.4994 11.8866 32.4941 11.881C32.2457 11.6356 32.0497 11.3444 31.9172 11.0243C31.7847 10.7042 31.7184 10.3615 31.7222 10.0162C31.7267 9.36587 31.9621 8.73735 32.3881 8.23819C32.8141 7.73904 33.4041 7.40031 34.0572 7.27999V3.64234L33.8766 3.65204C33.6825 3.67218 33.4923 3.70164 33.3048 3.73782C33.126 3.77847 32.9347 3.83032 32.7266 3.89447C32.5909 3.92655 32.4511 3.96658 32.3073 4.01457C32.1586 4.0638 32.0062 4.12161 31.8499 4.18763C31.8436 4.19484 31.8359 4.20074 31.8273 4.20497C31.8186 4.2092 31.8092 4.21168 31.7996 4.21225V0.5H28.026V10.0755C28.0234 10.718 28.1199 11.3573 28.3123 11.9717C28.3614 12.1287 28.4178 12.2827 28.48 12.436C28.6012 12.7374 28.7451 13.0295 28.9107 13.3099C29.4843 14.2886 30.3114 15.102 31.3086 15.6683C31.8009 15.9511 32.3295 16.1684 32.8806 16.3143C32.725 16.2268 32.5817 16.1202 32.454 15.9969"
          fill="#0C0A08"
        />
      </g>
    </g>
  </g>
  <defs>
    <clipPath id="clip0_731_8289">
      <rect
        width="54.8571"
        height="16"
        fill="white"
        transform="translate(0.0714111 0.5)"
      />
    </clipPath>
  </defs>
</svg>