<svg width="100%" fill="none"
  xmlns="http://www.w3.org/2000/svg">
  <path
    d="M13.4204 7.40664V5.13267H16.4495V2.95863H13.4373V0.357147H11.0236V7.20771C11.0236 10.4444 12.476 12.164 15.34 12.3187C15.6535 12.3361 16.016 12.3361 16.3663 12.3361H17.8146V10.0455H16.2499C14.2666 10.0455 13.4204 9.25633 13.4204 7.40664Z"
    fill="black" />
  <path
    d="M27.5554 7.62239C27.5554 8.24336 26.838 10.0456 24.6425 10.0456C22.4508 10.0456 21.7129 8.38145 21.7129 7.62239V2.95859H19.3329V7.62239C19.3329 10.2214 21.7146 12.3358 24.6425 12.3358C27.5608 12.3358 29.9353 10.2214 29.9353 7.62239V2.95859H27.5554V7.62239Z"
    fill="black" />
  <path
    d="M39.6468 3.81236C38.7939 3.21605 37.7755 2.90013 36.7339 2.90867C33.7471 2.90867 31.4077 4.95748 31.4077 7.57247C31.4077 10.2343 33.7619 12.3195 36.7669 12.3195C39.4961 12.3195 41.6726 10.5696 41.9474 8.2531L41.9933 0.357147H39.6469L39.6468 3.81236ZM36.7304 9.83021C35.135 9.83021 33.9769 8.89981 33.9769 7.61834C33.9769 6.34833 35.1984 5.31488 36.6997 5.31488C38.2689 5.31488 39.4074 6.31572 39.4074 7.69463C39.4075 8.95172 38.3067 9.83021 36.7304 9.83021Z"
    fill="black" />
  <path d="M45.9959 2.95844H43.5659V11.956H45.9959V2.95844Z" fill="black" />
  <path
    d="M52.8113 2.92529C50.2658 2.92529 47.5185 4.7275 47.5185 7.63896C47.5185 10.5405 50.2658 12.3361 52.8113 12.3361C55.3569 12.3361 58.1042 10.5405 58.1042 7.63896C58.1042 4.7275 55.3569 2.92529 52.8113 2.92529ZM52.812 9.81066C51.5117 9.81066 50.1674 8.99823 50.1674 7.63799C50.1674 6.26824 51.512 5.4504 52.812 5.4504C54.1198 5.4504 55.472 6.26839 55.472 7.63799C55.472 8.98024 54.0916 9.81066 52.8121 9.81066H52.812Z"
    fill="black" />
  <path
    d="M6.37323 6.40342L5.07038 6.11066C3.60748 5.79674 3.20673 5.56568 3.20673 5.03592C3.20673 4.52941 3.83156 4.2148 4.8373 4.2148C5.79958 4.2148 6.89335 4.79068 7.33448 5.44284L9.40305 4.28558C8.60566 3.03463 6.75071 2.08897 4.91062 2.08897C2.29832 2.08897 0.54319 3.33958 0.54319 5.20073C0.54319 6.64383 1.50718 7.5288 3.57683 7.98535L4.87934 8.27812C6.27742 8.57785 6.74333 8.78078 6.74333 9.38951C6.74333 9.89597 6.00582 10.2106 4.81911 10.2106C3.69405 10.2106 2.68548 9.59692 2.15841 8.78239L0.0714111 9.95715C0.503754 10.6506 1.10037 11.2276 1.80879 11.6372C2.66182 12.1073 3.62273 12.3362 4.74569 12.3362C7.48988 12.3362 9.40677 11.0568 9.40677 9.2248C9.40687 7.75635 8.44283 6.85992 6.37323 6.40342Z"
    fill="black" />
  <path
    d="M70.0349 12.4187C69.8571 12.1798 69.7297 11.9075 69.6604 11.6182C69.5911 11.3288 69.5813 11.0285 69.6317 10.7352C69.682 10.442 69.7914 10.162 69.9533 9.91214C70.1151 9.66226 70.3261 9.44767 70.5734 9.28133V8.0822C70.5734 4.86325 68.7905 2.94137 65.8045 2.94137C64.2996 2.94137 62.9358 3.61435 62.0431 4.38068V2.92461H59.6082V12.4187H62.0431V8.26626C62.0431 7.34985 63.2771 5.20203 65.6703 5.20203C67.3082 5.20203 68.1386 6.23271 68.1386 8.26626V12.4187H70.0349Z"
    fill="black" />
  <path
    d="M71.8118 9.79959C71.5521 9.79966 71.2982 9.87652 71.0823 10.0205C70.8663 10.1644 70.6981 10.369 70.5987 10.6083C70.4994 10.8476 70.4734 11.1109 70.5241 11.3649C70.5748 11.6189 70.6999 11.8522 70.8836 12.0353C71.0673 12.2184 71.3013 12.3431 71.5561 12.3936C71.8108 12.4441 72.0749 12.4182 72.3148 12.3191C72.5548 12.2199 72.7599 12.0521 72.9042 11.8367C73.0485 11.6214 73.1255 11.3682 73.1255 11.1092C73.125 10.7619 72.9865 10.429 72.7402 10.1835C72.4939 9.93801 72.1601 9.79994 71.8118 9.79959Z"
    fill="#76B900" />
  <mask id="mask0_1893_3548" style="mask-type:luminance" maskUnits="userSpaceOnUse" x="70" y="9"
    width="4" height="4">
    <path
      d="M71.8118 9.79959C71.5521 9.79966 71.2982 9.87652 71.0823 10.0205C70.8663 10.1644 70.6981 10.369 70.5987 10.6083C70.4994 10.8476 70.4734 11.1109 70.5241 11.3649C70.5748 11.6189 70.6999 11.8522 70.8836 12.0353C71.0673 12.2184 71.3013 12.3431 71.5561 12.3936C71.8108 12.4441 72.0749 12.4182 72.3148 12.3191C72.5548 12.2199 72.7599 12.0521 72.9042 11.8367C73.0485 11.6214 73.1255 11.3682 73.1255 11.1092C73.125 10.7619 72.9865 10.429 72.7402 10.1835C72.4939 9.93801 72.1601 9.79994 71.8118 9.79959Z"
      fill="white" />
  </mask>
  <g mask="url(#mask0_1893_3548)">
    <path d="M70.5643 9.79944H70.4987V12.4188H70.5643V9.79944Z" fill="#76B900" />
    <path d="M70.63 9.79945H70.5643V12.4188H70.63V9.79945Z" fill="#76B900" />
    <path d="M70.6956 9.79945H70.6299V12.4188H70.6956V9.79945Z" fill="#76B900" />
    <path d="M70.7613 9.79945H70.6957V12.4188H70.7613V9.79945Z" fill="#76B900" />
    <path d="M70.8269 9.79945H70.7613V12.4188H70.8269V9.79945Z" fill="#76B900" />
    <path d="M70.8926 9.79945H70.827V12.4188H70.8926V9.79945Z" fill="#76B900" />
    <path d="M70.9584 9.79945H70.8927V12.4188H70.9584V9.79945Z" fill="#76B900" />
    <path d="M71.024 9.79945H70.9583V12.4188H71.024V9.79945Z" fill="#76B900" />
    <path d="M71.0896 9.79945H71.024V12.4188H71.0896V9.79945Z" fill="#76B900" />
    <path d="M71.1553 9.79945H71.0897V12.4188H71.1553V9.79945Z" fill="#76B900" />
    <path d="M71.221 9.79945H71.1553V12.4188H71.221V9.79945Z" fill="#76B900" />
    <path d="M71.2866 9.79945H71.2209V12.4188H71.2866V9.79945Z" fill="#76B900" />
    <path d="M71.3523 9.79945H71.2867V12.4188H71.3523V9.79945Z" fill="#76B900" />
    <path d="M71.418 9.79945H71.3524V12.4188H71.418V9.79945Z" fill="#76B900" />
    <path d="M71.4836 9.79945H71.418V12.4188H71.4836V9.79945Z" fill="#76B900" />
    <path d="M71.5494 9.79945H71.4837V12.4188H71.5494V9.79945Z" fill="#76B900" />
    <path d="M71.615 9.79945H71.5493V12.4188H71.615V9.79945Z" fill="#76B900" />
    <path d="M71.6806 9.79945H71.615V12.4188H71.6806V9.79945Z" fill="#76B900" />
    <path d="M71.7463 9.79945H71.6807V12.4188H71.7463V9.79945Z" fill="#76B900" />
    <path d="M71.812 9.79945H71.7463V12.4188H71.812V9.79945Z" fill="#76B900" />
    <path d="M71.8777 9.79945H71.812V12.4188H71.8777V9.79945Z" fill="#76B900" />
    <path d="M71.9433 9.79945H71.8777V12.4188H71.9433V9.79945Z" fill="#76B900" />
    <path d="M72.009 9.79945H71.9434V12.4188H72.009V9.79945Z" fill="#76B900" />
    <path d="M72.0746 9.79945H72.009V12.4188H72.0746V9.79945Z" fill="#76B900" />
    <path d="M72.1404 9.79945H72.0747V12.4188H72.1404V9.79945Z" fill="#76B900" />
    <path d="M72.206 9.79945H72.1403V12.4188H72.206V9.79945Z" fill="#76B900" />
    <path d="M72.2717 9.79945H72.2061V12.4188H72.2717V9.79945Z" fill="#76B900" />
    <path d="M72.3373 9.79945H72.2717V12.4188H72.3373V9.79945Z" fill="#76B900" />
    <path d="M72.403 9.79945H72.3373V12.4188H72.403V9.79945Z" fill="#76B900" />
    <path d="M72.4687 9.79945H72.403V12.4188H72.4687V9.79945Z" fill="#76B900" />
    <path d="M72.5343 9.79945H72.4687V12.4188H72.5343V9.79945Z" fill="#76B900" />
    <path d="M72.6 9.79945H72.5344V12.4188H72.6V9.79945Z" fill="#76B900" />
    <path d="M72.6657 9.79945H72.6V12.4188H72.6657V9.79945Z" fill="#76B900" />
    <path d="M72.7314 9.79945H72.6657V12.4188H72.7314V9.79945Z" fill="#76B900" />
    <path d="M72.797 9.79945H72.7313V12.4188H72.797V9.79945Z" fill="#76B900" />
    <path d="M72.8627 9.79945H72.7971V12.4188H72.8627V9.79945Z" fill="#76B900" />
    <path d="M72.9283 9.79945H72.8627V12.4188H72.9283V9.79945Z" fill="#76B900" />
    <path d="M72.994 9.79945H72.9283V12.4188H72.994V9.79945Z" fill="#76B900" />
    <path d="M73.0597 9.79945H72.994V12.4188H73.0597V9.79945Z" fill="#76B900" />
    <path d="M73.1253 9.79945H73.0597V12.4188H73.1253V9.79945Z" fill="#76B900" />
  </g>
  <path
    d="M99.8468 12.6428H96.7352C96.7044 12.6428 96.6739 12.6365 96.6456 12.6242C96.6174 12.6119 96.592 12.5939 96.571 12.5714L94.045 9.86828L91.504 12.572C91.483 12.5944 91.4576 12.6122 91.4295 12.6243C91.4013 12.6365 91.3709 12.6428 91.3402 12.6428H86.7275C86.698 12.6428 86.6688 12.637 86.6415 12.6257C86.6143 12.6144 86.5895 12.5979 86.5687 12.5771C86.5478 12.5562 86.5313 12.5315 86.5201 12.5043C86.5088 12.4771 86.503 12.448 86.5031 12.4186V7.89961C86.5031 5.63641 85.5408 5.63641 85.1299 5.63641C83.9339 5.63641 83.2189 6.73747 83.2189 7.80212V12.4186C83.2189 12.448 83.2131 12.4772 83.2018 12.5044C83.1905 12.5316 83.174 12.5563 83.1531 12.5771C83.1322 12.598 83.1074 12.6145 83.0801 12.6257C83.0528 12.637 83.0236 12.6428 82.9941 12.6428H80.6793C80.6497 12.6428 80.6205 12.637 80.5932 12.6257C80.5659 12.6145 80.5412 12.598 80.5203 12.5771C80.4994 12.5563 80.4828 12.5316 80.4715 12.5044C80.4602 12.4772 80.4544 12.448 80.4544 12.4186V8.11087C80.4544 7.18568 80.1928 5.61998 79.2121 5.61998C77.7148 5.61998 77.1541 7.1211 77.1541 7.42809C77.1541 8.15035 77.1582 8.91283 77.1621 9.67569C77.1662 10.4417 77.1704 11.2066 77.1704 11.9309V12.4186C77.1704 12.448 77.1646 12.4772 77.1533 12.5044C77.142 12.5316 77.1255 12.5563 77.1046 12.5771C77.0837 12.598 77.0589 12.6145 77.0316 12.6257C77.0043 12.637 76.9751 12.6428 76.9456 12.6428H74.5985C74.5689 12.6428 74.5397 12.637 74.5124 12.6257C74.4851 12.6145 74.4603 12.598 74.4395 12.5771C74.4186 12.5563 74.402 12.5316 74.3907 12.5044C74.3794 12.4772 74.3736 12.448 74.3736 12.4186V3.23405C74.3736 3.17458 74.3973 3.11755 74.4395 3.0755C74.4816 3.03344 74.5388 3.00982 74.5985 3.00982H76.946C77.0057 3.00982 77.0628 3.03344 77.105 3.0755C77.1472 3.11755 77.1709 3.17458 77.1709 3.23405V3.54071C77.8408 3.17173 78.5935 2.97793 79.3588 2.97736C80.4219 2.97736 81.5251 3.50083 82.1899 4.30079C83.0471 3.46822 84.1712 2.97736 85.2441 2.97736C87.8007 2.97736 89.2672 4.62344 89.2672 7.49302V10.9777L92.2236 7.81737L88.0649 3.35406C88.0351 3.32211 88.0154 3.28222 88.0081 3.23926C88.0007 3.1963 88.0061 3.15214 88.0235 3.11218C88.0409 3.07221 88.0697 3.03818 88.1062 3.01424C88.1427 2.99029 88.1854 2.97748 88.2291 2.97736H91.3389C91.3696 2.9774 91.3999 2.98366 91.4281 2.99576C91.4562 3.00786 91.4816 3.02555 91.5027 3.04774L94.0447 5.73848L96.572 3.04857C96.5929 3.02615 96.6183 3.00827 96.6465 2.99603C96.6746 2.9838 96.705 2.97747 96.7358 2.97745H99.8435C99.8872 2.9775 99.93 2.99025 99.9665 3.01413C100.003 3.03801 100.032 3.072 100.049 3.11193C100.067 3.15186 100.072 3.196 100.065 3.23897C100.058 3.28194 100.038 3.32186 100.008 3.35386L95.8672 7.81737L100.011 12.2665C100.041 12.2984 100.061 12.3383 100.068 12.3813C100.076 12.4243 100.07 12.4685 100.053 12.5084C100.035 12.5484 100.006 12.5824 99.9699 12.6063C99.9333 12.6302 99.8905 12.6429 99.8468 12.6429V12.6428ZM96.833 12.1947H99.3316L95.3964 7.97C95.3579 7.9286 95.3365 7.87425 95.3364 7.81779C95.3363 7.76133 95.3576 7.70692 95.396 7.66543L99.33 3.42557H96.8335L94.2094 6.21867C94.1884 6.24098 94.1631 6.25877 94.135 6.27095C94.1069 6.28312 94.0766 6.28942 94.0459 6.28945H94.0455C94.0149 6.28948 93.9846 6.28325 93.9564 6.27113C93.9283 6.25902 93.903 6.24128 93.882 6.21902L91.2424 3.42557H88.7444L92.6947 7.66509C92.7334 7.70653 92.755 7.76108 92.755 7.81774C92.755 7.8744 92.7334 7.92895 92.6947 7.97038L89.2068 11.6993C89.176 11.7321 89.136 11.7549 89.092 11.7647C89.048 11.7746 89.0021 11.771 88.9602 11.7545C88.9182 11.738 88.8822 11.7094 88.8569 11.6722C88.8315 11.6351 88.8179 11.5912 88.8178 11.5462V7.49302C88.8178 4.87009 87.5484 3.42557 85.244 3.42557C84.0323 3.42557 82.9461 4.13325 82.3339 4.79585C82.311 4.82055 82.2828 4.83981 82.2514 4.85219C82.2201 4.86456 82.1863 4.86974 82.1527 4.86735C82.119 4.86495 82.0863 4.85504 82.0571 4.83834C82.0278 4.82164 82.0026 4.79859 81.9835 4.77089C81.4279 3.96606 80.3734 3.42552 79.3584 3.42552C78.5433 3.425 77.747 3.66963 77.0735 4.12745C77.0397 4.1507 77.0003 4.16431 76.9594 4.16681C76.9185 4.16931 76.8777 4.1606 76.8414 4.14162C76.8051 4.12265 76.7747 4.09413 76.7535 4.05917C76.7323 4.0242 76.7211 3.98411 76.7211 3.94324V3.45794H74.8232V12.1947H76.7213V11.9311C76.7213 11.2075 76.7171 10.4436 76.7133 9.6791C76.7095 8.91463 76.7049 8.15099 76.7049 7.42839C76.7049 6.96911 77.3593 5.17245 79.2122 5.17245C80.4608 5.17245 80.904 6.75541 80.904 8.11111V12.1949H82.7694V7.80212C82.7694 6.51719 83.6523 5.18815 85.1298 5.18815C85.5803 5.18815 86.9521 5.18815 86.9521 7.89956V12.1946H91.2426L93.8814 9.38687C93.9024 9.36447 93.9277 9.34661 93.9559 9.33443C93.9841 9.32225 94.0145 9.31601 94.0453 9.3161H94.0457C94.0764 9.31608 94.1068 9.32238 94.135 9.33462C94.1632 9.34686 94.1886 9.36476 94.2095 9.38722L96.833 12.1947Z"
    fill="black" />
</svg>