<svg xmlns="http://www.w3.org/2000/svg" xmlns:xlink="http://www.w3.org/1999/xlink" width="35.781" height="33.619" viewBox="0 0 35.781 33.619">
  <defs>
    <clipPath id="clip-path">
      <rect id="Retângulo_39868" data-name="Retângulo 39868" width="35.781" height="33.619" fill="none"/>
    </clipPath>
  </defs>
  <g id="LOGO-Menu-minimizado" clip-path="url(#clip-path)">
    <path id="Caminho_42755" data-name="Caminho 42755" d="M127.7,232.177H113.732a1.274,1.274,0,0,0-1.272,1.272v11.188a1.274,1.274,0,0,0,1.272,1.272H127.7a1.274,1.274,0,0,0,1.272-1.272V233.449a1.274,1.274,0,0,0-1.272-1.272m1.1,12.46a1.1,1.1,0,0,1-1.1,1.1H113.732a1.1,1.1,0,0,1-1.1-1.1V233.449a1.1,1.1,0,0,1,1.1-1.1H127.7a1.1,1.1,0,0,1,1.1,1.1Z" transform="translate(-102.828 -212.291)" fill="#fff"/>
    <path id="Caminho_42756" data-name="Caminho 42756" d="M212.28,276.506a1.937,1.937,0,0,1-1.258.788,2.034,2.034,0,0,0,.988-.164,2.309,2.309,0,0,0,.334-.175,2.029,2.029,0,0,0,.643-.746,5.507,5.507,0,0,0,.174-2.139c0-.02.009-.134-.11-.137h-.4a.122.122,0,0,0-.14.138v1.345a1.794,1.794,0,0,1-.234,1.091" transform="translate(-192.948 -250.469)" fill="#fff"/>
    <path id="Caminho_42757" data-name="Caminho 42757" d="M191.5,276.019c0,.015,0,.029,0,.043s0,.021,0,.032a1.459,1.459,0,0,0,.16.565l.018.034.01.018a1.526,1.526,0,0,0,2.731-.135c-.018.025-.036.048-.055.071l-.016.018-.045.05-.016.017-.052.05-.012.011a1.309,1.309,0,0,1-.216.155l-.049.026-.036.019q-.042.02-.086.038l-.032.012-.059.021-.038.011-.055.015-.04.009-.055.011-.04.007-.056.008-.04,0-.058,0-.039,0h-.06a1.4,1.4,0,0,1-1.291-.827,1.434,1.434,0,0,1-.1-.367q-.007-.048-.01-.1c0-.007,0-.014,0-.022,0-.026,0-.052,0-.079v-.026c0-.033,0-.065,0-.1v0c0-.032.007-.063.012-.095,0-.009,0-.017,0-.026,0-.026.01-.052.016-.077l0-.02c.008-.031.017-.062.027-.093l.007-.021c.009-.024.018-.049.028-.073l.011-.025c.013-.03.027-.059.043-.088a1.1,1.1,0,0,1,.476-.464,1.389,1.389,0,0,1,.465-.14l.021,0h.378l.011,0,.013,0,.01,0,.015,0-.008,0h0a1.521,1.521,0,0,0-1.9,1.439c0,.018,0,.037,0,.055s0,.015,0,.022v.006Z" transform="translate(-175.096 -250.94)" fill="#fff"/>
    <path id="Caminho_42758" data-name="Caminho 42758" d="M197.46,274.95a1.2,1.2,0,0,0-.836.507,1.276,1.276,0,0,0-.211.705,1.222,1.222,0,0,1,.229-.444,1.118,1.118,0,0,1,1.476-.249,1.14,1.14,0,0,1,.261.25h.513c-.007-.014-.016-.029-.026-.047a.717.717,0,0,0-.115-.157,1.529,1.529,0,0,0-.843-.577h0a1.656,1.656,0,0,0-.447.01" transform="translate(-179.59 -251.381)" fill="#fff"/>
    <path id="Caminho_42759" data-name="Caminho 42759" d="M214.289,299.6a1.591,1.591,0,0,0,.969-.483h0l.008-.008h0l0-.008-.005.008h-.478a1.086,1.086,0,0,1-.5.491" transform="translate(-195.935 -273.485)" fill="#fff"/>
    <path id="Caminho_42760" data-name="Caminho 42760" d="M202.571,283.909a.691.691,0,1,0,.691.691.691.691,0,0,0-.691-.691" transform="translate(-184.589 -259.592)" fill="#fff"/>
    <path id="Caminho_42761" data-name="Caminho 42761" d="M181.845,277.608a2.319,2.319,0,0,0,1.016.286l.077,0h.056a2.43,2.43,0,0,0,2.285-1.594,2.253,2.253,0,0,0,.126-.581c0-.031.005-.062.008-.093v-.006c0-.024,0-.048,0-.073,0-.054,0-.108.005-.164,0,.016,0,.031,0,.047s0,.034,0,.052l0,.019c0,.017,0,.033-.006.05l0,.02-.006.049,0,.021c0,.016,0,.031-.007.047l0,.022-.008.046,0,.022-.009.044,0,.022-.01.043-.006.023c0,.014-.007.028-.011.042l-.007.024-.012.041-.007.024-.013.039-.008.024-.014.038-.009.025-.015.037-.01.025-.016.036-.012.025-.017.035-.013.025-.018.034-.014.025-.019.033-.015.025-.02.032-.017.025-.021.031-.018.025-.022.03-.02.025-.024.029-.021.024-.025.028-.023.024-.026.027-.025.024-.027.026-.027.024-.028.025-.029.024-.029.023-.031.023-.03.022-.034.023-.031.021-.037.023-.032.02-.04.023-.032.018-.045.024-.03.016-.052.025-.027.013-.083.037-.1.039-.031.011-.069.023-.034.011-.07.02-.03.008-.1.023h0l-.1.017-.031,0-.07.009-.035,0-.071,0-.03,0-.1,0h-.009l-.091,0-.032,0-.069-.006-.035,0-.071-.01-.03,0-.1-.019-.012,0a2.312,2.312,0,0,1-.418-.136c-1.408-.611-1.189-1.863-1.2-3.139,0-.089-.042-.136-.12-.139h-.446a.125.125,0,0,0-.137.141v1.41a2.431,2.431,0,0,0,1.271,2.144" transform="translate(-165.108 -250.452)" fill="#fff"/>
    <path id="Caminho_42762" data-name="Caminho 42762" d="M139.974,324.311v-1.651h-.383v1.412c-.295.038-.525-.01-.525-.32v-1.1h-.383v1.147a.617.617,0,0,0,.123.414c.21.239.886.177,1.168.1" transform="translate(-126.804 -295.012)" fill="#fff"/>
    <path id="Caminho_42763" data-name="Caminho 42763" d="M156.9,327.995a.392.392,0,0,0-.165-.116.718.718,0,0,0-.261-.041,1.891,1.891,0,0,0-.3.022,1.971,1.971,0,0,0-.23.048V329.1h.349v-.952l.075-.008c.028,0,.055,0,.08,0a.182.182,0,0,1,.167.07.471.471,0,0,1,.045.239v.654h.349v-.7a.947.947,0,0,0-.026-.23.452.452,0,0,0-.087-.178" transform="translate(-142.591 -299.758)" fill="#fff"/>
    <rect id="Retângulo_39863" data-name="Retângulo 39863" width="0.349" height="1.233" transform="translate(14.597 28.108)" fill="#fff"/>
    <path id="Caminho_42764" data-name="Caminho 42764" d="M170.223,322.01a.214.214,0,0,0,.147-.055.215.215,0,0,0,0-.3.222.222,0,0,0-.293,0,.215.215,0,0,0,0,.3.214.214,0,0,0,.147.055" transform="translate(-155.452 -294.052)" fill="#fff"/>
    <path id="Caminho_42765" data-name="Caminho 42765" d="M177.765,324.437l-.068.03a.6.6,0,0,1-.087.029,1.067,1.067,0,0,1-.113.022.977.977,0,0,1-.143.009.513.513,0,0,1-.216-.041.382.382,0,0,1-.144-.111.443.443,0,0,1-.08-.168.851.851,0,0,1-.025-.21.674.674,0,0,1,.038-.239.45.45,0,0,1,.1-.161.376.376,0,0,1,.143-.09.5.5,0,0,1,.165-.028.836.836,0,0,1,.226.028.892.892,0,0,1,.175.068l.106-.3c-.012-.008-.033-.019-.061-.033a.729.729,0,0,0-.106-.041,1.2,1.2,0,0,0-.148-.035,1.057,1.057,0,0,0-.188-.015.948.948,0,0,0-.331.056.726.726,0,0,0-.263.165.776.776,0,0,0-.174.267.962.962,0,0,0-.063.36.878.878,0,0,0,.208.626.79.79,0,0,0,.6.22,1.27,1.27,0,0,0,.326-.038.856.856,0,0,0,.218-.084Z" transform="translate(-161.392 -295.478)" fill="#fff"/>
    <path id="Caminho_42766" data-name="Caminho 42766" d="M192.617,327.782a.59.59,0,0,0-.219.042.551.551,0,0,0-.189.124.616.616,0,0,0-.133.205.752.752,0,0,0-.05.287.8.8,0,0,0,.039.253.535.535,0,0,0,.12.2.563.563,0,0,0,.2.135.776.776,0,0,0,.29.049,1.221,1.221,0,0,0,.131-.007q.066-.007.123-.018a.973.973,0,0,0,.1-.025.482.482,0,0,0,.075-.028l-.047-.284a.717.717,0,0,1-.151.043,1.017,1.017,0,0,1-.189.018.405.405,0,0,1-.239-.063.232.232,0,0,1-.1-.171h.793c0-.019,0-.04,0-.065s0-.046,0-.067a.662.662,0,0,0-.152-.472.545.545,0,0,0-.415-.161m-.232.525a.506.506,0,0,1,.022-.088.237.237,0,0,1,.043-.076.21.21,0,0,1,.07-.053.235.235,0,0,1,.1-.02.222.222,0,0,1,.1.021.211.211,0,0,1,.068.054.216.216,0,0,1,.04.075.359.359,0,0,1,.015.087Z" transform="translate(-175.579 -299.707)" fill="#fff"/>
    <path id="Caminho_42767" data-name="Caminho 42767" d="M207.627,328.47a.451.451,0,0,0-.118-.089,1.416,1.416,0,0,0-.19-.084,1,1,0,0,1-.093-.039.393.393,0,0,1-.057-.033.079.079,0,0,1-.028-.032.094.094,0,0,1-.007-.038q0-.091.164-.091a.718.718,0,0,1,.161.016,1.264,1.264,0,0,1,.132.038l.061-.272a.992.992,0,0,0-.164-.043,1.137,1.137,0,0,0-.216-.02.561.561,0,0,0-.354.1.33.33,0,0,0-.129.274.4.4,0,0,0,.026.152.316.316,0,0,0,.073.109.435.435,0,0,0,.114.079,1.607,1.607,0,0,0,.149.063.985.985,0,0,1,.157.071.089.089,0,0,1,.052.074.072.072,0,0,1-.04.073.349.349,0,0,1-.136.019.889.889,0,0,1-.185-.02,1.145,1.145,0,0,1-.183-.055l-.059.284a1.129,1.129,0,0,0,.151.047,1.117,1.117,0,0,0,.273.028.686.686,0,0,0,.388-.093.313.313,0,0,0,.137-.276.471.471,0,0,0-.018-.136.278.278,0,0,0-.061-.107" transform="translate(-189.047 -299.708)" fill="#fff"/>
    <path id="Caminho_42768" data-name="Caminho 42768" d="M220,329.118l-.075.008c-.028,0-.055,0-.08,0a.177.177,0,0,1-.167-.075.5.5,0,0,1-.044-.244v-.645h-.349v.687a.975.975,0,0,0,.026.232.46.46,0,0,0,.087.182.4.4,0,0,0,.165.118.7.7,0,0,0,.262.042,1.893,1.893,0,0,0,.3-.022,1.935,1.935,0,0,0,.23-.048v-1.191H220Z" transform="translate(-200.5 -300.058)" fill="#fff"/>
    <path id="Caminho_42769" data-name="Caminho 42769" d="M235.209,328.206a.481.481,0,0,1,.043.239v.654h.349v-.7a1.152,1.152,0,0,0-.021-.23.441.441,0,0,0-.077-.178.365.365,0,0,0-.151-.116.615.615,0,0,0-.243-.041.655.655,0,0,0-.352.115.489.489,0,0,0-.137-.081.582.582,0,0,0-.217-.034c-.045,0-.091,0-.138.006s-.092.009-.137.016-.087.015-.127.023l-.1.025V329.1h.349v-.952l.068-.008a.68.68,0,0,1,.068,0,.161.161,0,0,1,.149.07.482.482,0,0,1,.043.239v.654h.349v-.673q0-.068,0-.128a.534.534,0,0,0-.021-.114.308.308,0,0,1,.083-.035.32.32,0,0,1,.079-.014.161.161,0,0,1,.149.07" transform="translate(-213.863 -299.758)" fill="#fff"/>
    <path id="Caminho_42770" data-name="Caminho 42770" d="M256.023,327.918a.4.4,0,0,0-.165-.1.807.807,0,0,0-.258-.035q-.061,0-.121.006t-.114.014c-.036.005-.069.012-.1.019l-.076.02.045.281a.756.756,0,0,1,.15-.036,1.2,1.2,0,0,1,.176-.013.262.262,0,0,1,.188.054.194.194,0,0,1,.054.143v.033a.532.532,0,0,0-.086-.015,1.1,1.1,0,0,0-.121-.006.932.932,0,0,0-.195.02.524.524,0,0,0-.166.064.335.335,0,0,0-.116.12.359.359,0,0,0-.043.183.432.432,0,0,0,.038.19.318.318,0,0,0,.108.125.472.472,0,0,0,.168.069,1.029,1.029,0,0,0,.217.021,2.009,2.009,0,0,0,.324-.022q.134-.022.209-.039v-.727a.788.788,0,0,0-.026-.209.371.371,0,0,0-.088-.159m-.222.877a.664.664,0,0,1-.075.007l-.1,0a.3.3,0,0,1-.151-.032.12.12,0,0,1-.055-.114.124.124,0,0,1,.019-.07.13.13,0,0,1,.052-.045.24.24,0,0,1,.076-.022.683.683,0,0,1,.093-.006.694.694,0,0,1,.077,0,.628.628,0,0,1,.063.009Z" transform="translate(-233.227 -299.707)" fill="#fff"/>
    <path id="Caminho_42771" data-name="Caminho 42771" d="M270.364,327.877l-.08-.009-.068,0a1.276,1.276,0,0,0-.285.029,2.111,2.111,0,0,0-.222.062v1.167h.349v-.942a.457.457,0,0,1,.069-.013.63.63,0,0,1,.079-.006.683.683,0,0,1,.136.013l.11.025.059-.288a.373.373,0,0,0-.068-.02l-.08-.014" transform="translate(-246.609 -299.782)" fill="#fff"/>
    <path id="Caminho_42772" data-name="Caminho 42772" d="M142.712,346.961h.1v-.047h-.1v-.05h.116v-.049h-.174v.257h.182v-.049h-.124Z" transform="translate(-130.436 -317.109)" fill="#fff"/>
    <path id="Caminho_42773" data-name="Caminho 42773" d="M147,346.81a.123.123,0,0,0-.046-.023.225.225,0,0,0-.06-.007h-.037l-.042.005v.25l.041.005h.036a.218.218,0,0,0,.062-.008.127.127,0,0,0,.047-.025.107.107,0,0,0,.029-.041.15.15,0,0,0,.01-.058.154.154,0,0,0-.01-.06.1.1,0,0,0-.03-.041m-.041.161a.085.085,0,0,1-.064.022h-.022v-.162h.024a.073.073,0,0,1,.084.082.083.083,0,0,1-.021.06" transform="translate(-134.241 -317.077)" fill="#fff"/>
    <path id="Caminho_42774" data-name="Caminho 42774" d="M151.656,346.969a.06.06,0,0,1-.013.044.047.047,0,0,1-.034.013.058.058,0,0,1-.019,0,.035.035,0,0,1-.015-.01.049.049,0,0,1-.01-.018.086.086,0,0,1,0-.027v-.155H151.5v.16a.134.134,0,0,0,.006.041.083.083,0,0,0,.051.053.13.13,0,0,0,.047.008.135.135,0,0,0,.047-.007.082.082,0,0,0,.052-.053.13.13,0,0,0,.006-.042v-.16h-.058Z" transform="translate(-138.527 -317.109)" fill="#fff"/>
    <path id="Caminho_42775" data-name="Caminho 42775" d="M156.2,346.952l-.014,0-.018,0h-.023a.082.082,0,0,1-.034-.006.06.06,0,0,1-.023-.018.072.072,0,0,1-.013-.027.136.136,0,0,1,0-.033.107.107,0,0,1,.006-.038.072.072,0,0,1,.016-.025.059.059,0,0,1,.023-.014.077.077,0,0,1,.026,0,.13.13,0,0,1,.036,0,.137.137,0,0,1,.028.011l.017-.047-.01-.005-.017-.007-.023-.006-.03,0a.15.15,0,0,0-.052.009.115.115,0,0,0-.042.026.123.123,0,0,0-.027.042.152.152,0,0,0-.01.057.139.139,0,0,0,.033.1.125.125,0,0,0,.1.035.2.2,0,0,0,.052-.006.134.134,0,0,0,.035-.013l-.016-.046-.011,0" transform="translate(-142.654 -317.046)" fill="#fff"/>
    <path id="Caminho_42776" data-name="Caminho 42776" d="M160.517,346.928l-.025-.059-.025-.055h-.055q-.013.027-.025.055l-.025.059-.026.066-.027.077h.06l.009-.027.01-.028h.1l.01.028.009.028h.062l-.028-.077c-.009-.023-.017-.046-.026-.066m-.115.042.012-.032.011-.028.008-.022.006-.015.006.015.009.022.011.028.011.032Z" transform="translate(-146.579 -317.109)" fill="#fff"/>
    <path id="Caminho_42777" data-name="Caminho 42777" d="M165.223,346.951l-.014,0-.018,0-.023,0a.08.08,0,0,1-.034-.007.06.06,0,0,1-.023-.018.07.07,0,0,1-.013-.026.133.133,0,0,1,0-.033.107.107,0,0,1,.006-.038.071.071,0,0,1,.016-.025.058.058,0,0,1,.023-.014.078.078,0,0,1,.026,0,.131.131,0,0,1,.036,0,.138.138,0,0,1,.028.011l.017-.047-.01-.005-.017-.007-.023-.006-.03,0a.151.151,0,0,0-.052.009.115.115,0,0,0-.042.026.122.122,0,0,0-.028.042.153.153,0,0,0-.01.057.145.145,0,0,0,.027.092.112.112,0,0,0,.079.04l0,.011,0,.01h0a.026.026,0,0,1,.012.006.01.01,0,0,1,0,.008.008.008,0,0,1,0,.007l-.009,0-.014,0-.009,0-.007.032.016,0h.016a.066.066,0,0,0,.037-.009.03.03,0,0,0,.014-.027.035.035,0,0,0,0-.017.036.036,0,0,0-.016-.014l0,0,0-.006a.206.206,0,0,0,.043-.007.12.12,0,0,0,.029-.012l-.016-.046-.011,0" transform="translate(-150.899 -317.045)" fill="#fff"/>
    <path id="Caminho_42778" data-name="Caminho 42778" d="M169.535,346.928l-.025-.059-.025-.055h-.055c-.009.018-.017.036-.025.055l-.025.059-.026.066-.027.077h.06l.009-.027.01-.028h.1l.01.028.009.028h.062l-.028-.077-.026-.066m-.115.042.012-.032.011-.028.008-.022.006-.015.006.015.009.022.011.028.011.032Z" transform="translate(-154.825 -317.109)" fill="#fff"/>
    <path id="Caminho_42779" data-name="Caminho 42779" d="M170.146,345.847l-.012,0-.011,0-.011,0-.012,0a.033.033,0,0,0-.016,0,.052.052,0,0,0-.013.009.065.065,0,0,0-.009.013l-.006.012.027.018a.04.04,0,0,1,.008-.011.017.017,0,0,1,.012,0l.011,0,.011,0,.011,0,.012,0a.033.033,0,0,0,.016,0,.048.048,0,0,0,.013-.009.065.065,0,0,0,.01-.012l.006-.012-.027-.018a.041.041,0,0,1-.008.011.016.016,0,0,1-.012,0" transform="translate(-155.49 -316.21)" fill="#fff"/>
    <path id="Caminho_42780" data-name="Caminho 42780" d="M174.272,346.778a.113.113,0,0,0-.041-.026.144.144,0,0,0-.05-.009.141.141,0,0,0-.049.009.115.115,0,0,0-.041.026.123.123,0,0,0-.028.042.15.15,0,0,0-.01.058.156.156,0,0,0,.01.058.118.118,0,0,0,.027.042.117.117,0,0,0,.041.025.145.145,0,0,0,.05.008.148.148,0,0,0,.051-.008.112.112,0,0,0,.041-.025.121.121,0,0,0,.027-.042.159.159,0,0,0,.01-.058.157.157,0,0,0-.01-.058.119.119,0,0,0-.027-.042m-.027.134a.077.077,0,0,1-.013.026.059.059,0,0,1-.021.017.073.073,0,0,1-.058,0,.059.059,0,0,1-.021-.017.077.077,0,0,1-.013-.026.127.127,0,0,1,0-.068.078.078,0,0,1,.013-.026.062.062,0,0,1,.021-.017.065.065,0,0,1,.029-.006.068.068,0,0,1,.029.006.06.06,0,0,1,.021.017.077.077,0,0,1,.013.026.119.119,0,0,1,0,.034.117.117,0,0,1,0,.034" transform="translate(-159.146 -317.045)" fill="#fff"/>
    <path id="Caminho_42781" data-name="Caminho 42781" d="M181.8,346.779h-.037l-.04.005v.253h.058v-.086h.018a.161.161,0,0,0,.089-.021.087.087,0,0,0,0-.133.162.162,0,0,0-.088-.02m.044.116a.1.1,0,0,1-.045.008h-.018v-.074h.023l.023,0a.051.051,0,0,1,.018.006.028.028,0,0,1,.011.011.036.036,0,0,1,0,.018.031.031,0,0,1-.015.03" transform="translate(-166.156 -317.077)" fill="#fff"/>
    <path id="Caminho_42782" data-name="Caminho 42782" d="M186.228,346.982l-.017-.026-.016-.022a.082.082,0,0,0,.036-.026.073.073,0,0,0,.012-.044.072.072,0,0,0-.031-.064.159.159,0,0,0-.089-.021h-.036l-.039.005v.253h.058v-.094h.029l.015.02.015.023.015.025.014.026h.065l-.014-.029-.016-.028m-.059-.091a.1.1,0,0,1-.047.008h-.016v-.07h.021a.089.089,0,0,1,.042.008.028.028,0,0,1,.014.027.029.029,0,0,1-.014.028" transform="translate(-170.113 -317.077)" fill="#fff"/>
    <path id="Caminho_42783" data-name="Caminho 42783" d="M190.533,346.961h.1v-.047h-.1v-.05h.116v-.049h-.174v.257h.182v-.049h-.124Z" transform="translate(-174.16 -317.109)" fill="#fff"/>
    <path id="Caminho_42784" data-name="Caminho 42784" d="M194.619,346.883a.094.094,0,0,0-.025-.017l-.035-.015-.018-.007-.014-.007a.032.032,0,0,1-.01-.009.02.02,0,0,1,0-.012.019.019,0,0,1,.009-.018.058.058,0,0,1,.03-.006.1.1,0,0,1,.032,0l.024.01.017-.046a.161.161,0,0,0-.031-.012.158.158,0,0,0-.045-.006.133.133,0,0,0-.039.005.087.087,0,0,0-.03.015.069.069,0,0,0-.019.024.075.075,0,0,0-.007.032.065.065,0,0,0,.006.03.069.069,0,0,0,.016.021.092.092,0,0,0,.023.014l.025.01a.168.168,0,0,1,.041.018.025.025,0,0,1,.012.021.029.029,0,0,1,0,.011.018.018,0,0,1-.007.008.036.036,0,0,1-.013.006l-.02,0a.147.147,0,0,1-.041-.005.145.145,0,0,1-.028-.011l-.016.046.013.006.018.006.024,0,.031,0a.121.121,0,0,0,.076-.02.067.067,0,0,0,.025-.056.09.09,0,0,0,0-.031.061.061,0,0,0-.015-.023" transform="translate(-177.796 -317.046)" fill="#fff"/>
    <path id="Caminho_42785" data-name="Caminho 42785" d="M198.754,346.961h.1v-.047h-.1v-.05h.116v-.049H198.7v.257h.182v-.049h-.124Z" transform="translate(-181.677 -317.109)" fill="#fff"/>
    <path id="Caminho_42786" data-name="Caminho 42786" d="M203.023,346.966l-.029-.042-.031-.042-.03-.038-.027-.03h-.047v.257h.057V346.9a.88.88,0,0,1,.062.081q.029.043.054.087h.049v-.257h-.058Z" transform="translate(-185.484 -317.109)" fill="#fff"/>
    <path id="Caminho_42787" data-name="Caminho 42787" d="M207.729,346.952l-.014,0-.018,0h-.023a.082.082,0,0,1-.034-.006.06.06,0,0,1-.023-.018.072.072,0,0,1-.013-.027.135.135,0,0,1,0-.033.107.107,0,0,1,.006-.038.072.072,0,0,1,.016-.025.059.059,0,0,1,.023-.014.078.078,0,0,1,.026,0,.13.13,0,0,1,.036,0,.136.136,0,0,1,.028.011l.017-.047-.01-.005-.017-.007-.023-.006-.03,0a.15.15,0,0,0-.052.009.114.114,0,0,0-.042.026.123.123,0,0,0-.027.042.152.152,0,0,0-.01.057.139.139,0,0,0,.033.1.125.125,0,0,0,.1.035.2.2,0,0,0,.052-.006.134.134,0,0,0,.035-.013l-.016-.046-.011,0" transform="translate(-189.765 -317.046)" fill="#fff"/>
    <rect id="Retângulo_39864" data-name="Retângulo 39864" width="0.058" height="0.257" transform="translate(18.16 29.705)" fill="#fff"/>
    <path id="Caminho_42788" data-name="Caminho 42788" d="M214.826,346.928l-.025-.059-.025-.055h-.055c-.009.018-.017.036-.025.055l-.025.059-.026.066-.027.077h.06l.009-.027.01-.028h.1l.01.028.009.028h.062l-.028-.077-.026-.066m-.115.042.012-.032.011-.028.008-.022.006-.015.006.015.009.022.011.028.011.032Z" transform="translate(-196.237 -317.109)" fill="#fff"/>
    <path id="Caminho_42789" data-name="Caminho 42789" d="M219.64,346.814h-.058v.257h.172v-.05h-.114Z" transform="translate(-200.775 -317.109)" fill="#fff"/>
    <path id="Caminho_42790" data-name="Caminho 42790" d="M226.195,346.961h.1v-.047h-.1v-.05h.116v-.049h-.174v.257h.182v-.049h-.124Z" transform="translate(-206.768 -317.109)" fill="#fff"/>
    <path id="Caminho_42791" data-name="Caminho 42791" d="M232.781,346.928l-.025-.059-.025-.055h-.055c-.009.018-.017.036-.025.055l-.024.059-.026.066-.027.077h.06l.009-.027.01-.028h.1l.01.028.009.028h.062l-.028-.077-.026-.066m-.115.042.012-.032.011-.028.008-.022.006-.015.006.015.009.022.011.028.011.032Z" transform="translate(-212.654 -317.109)" fill="#fff"/>
    <path id="Caminho_42792" data-name="Caminho 42792" d="M240.3,346.81a.123.123,0,0,0-.046-.023.224.224,0,0,0-.06-.007h-.037l-.042.005v.25l.041.005h.036a.218.218,0,0,0,.062-.008.127.127,0,0,0,.047-.025.107.107,0,0,0,.029-.041.15.15,0,0,0,.01-.058.154.154,0,0,0-.01-.06.1.1,0,0,0-.03-.041m-.041.161a.085.085,0,0,1-.064.022h-.022v-.162h.024a.073.073,0,0,1,.083.082.083.083,0,0,1-.021.06" transform="translate(-219.548 -317.077)" fill="#fff"/>
    <rect id="Retângulo_39865" data-name="Retângulo 39865" width="0.058" height="0.257" transform="translate(20.971 29.705)" fill="#fff"/>
    <path id="Caminho_42793" data-name="Caminho 42793" d="M247.733,346.883a.093.093,0,0,0-.025-.017l-.035-.015-.018-.007-.014-.007a.032.032,0,0,1-.01-.009.02.02,0,0,1,0-.012.019.019,0,0,1,.009-.018.058.058,0,0,1,.03-.006.1.1,0,0,1,.032,0l.024.01.017-.046a.161.161,0,0,0-.031-.012.158.158,0,0,0-.045-.006.133.133,0,0,0-.039.005.087.087,0,0,0-.03.015.069.069,0,0,0-.019.024.075.075,0,0,0-.007.032.065.065,0,0,0,.006.03.068.068,0,0,0,.016.021.092.092,0,0,0,.023.014l.025.01a.168.168,0,0,1,.041.018.025.025,0,0,1,.012.021.029.029,0,0,1,0,.011.018.018,0,0,1-.007.008l-.013.006-.02,0a.148.148,0,0,1-.041-.005.146.146,0,0,1-.028-.011l-.016.046.013.006.018.006.024,0,.031,0a.122.122,0,0,0,.076-.02.067.067,0,0,0,.025-.056.09.09,0,0,0,0-.031.061.061,0,0,0-.015-.023" transform="translate(-226.361 -317.046)" fill="#fff"/>
    <path id="Caminho_42794" data-name="Caminho 42794" d="M251.464,346.863h.078v.208h.058v-.208h.078v-.049h-.213Z" transform="translate(-229.926 -317.109)" fill="#fff"/>
    <path id="Caminho_42795" data-name="Caminho 42795" d="M256.161,345.757l.037.029.02-.025-.058-.051-.058.051.021.025Z" transform="translate(-234.167 -316.099)" fill="#fff"/>
    <path id="Caminho_42796" data-name="Caminho 42796" d="M255.469,346.928l-.025-.059-.025-.055h-.055q-.013.027-.025.055l-.025.059-.026.066-.027.077h.06l.009-.027.01-.028h.1l.01.028.009.028h.062l-.028-.077c-.009-.023-.017-.046-.026-.066m-.115.042.012-.032.011-.028.008-.022.006-.015.006.015.009.022.011.028.011.032Z" transform="translate(-233.398 -317.109)" fill="#fff"/>
    <path id="Caminho_42797" data-name="Caminho 42797" d="M260.391,346.966l-.029-.042-.031-.042-.03-.038-.027-.03h-.047v.257h.057V346.9a.894.894,0,0,1,.062.081q.029.043.054.087h.049v-.257h-.057Z" transform="translate(-237.938 -317.109)" fill="#fff"/>
    <path id="Caminho_42798" data-name="Caminho 42798" d="M265.1,346.952l-.014,0-.018,0h-.023a.082.082,0,0,1-.034-.006.06.06,0,0,1-.023-.018.071.071,0,0,1-.013-.027.136.136,0,0,1,0-.033.108.108,0,0,1,.006-.038.072.072,0,0,1,.016-.025.059.059,0,0,1,.023-.014.077.077,0,0,1,.026,0,.13.13,0,0,1,.036,0,.136.136,0,0,1,.028.011l.017-.047-.01-.005-.017-.007-.023-.006-.03,0a.15.15,0,0,0-.052.009.115.115,0,0,0-.042.026.123.123,0,0,0-.027.042.152.152,0,0,0-.01.057.139.139,0,0,0,.033.1.125.125,0,0,0,.1.035.2.2,0,0,0,.052-.006.134.134,0,0,0,.034-.013l-.016-.046-.011,0" transform="translate(-242.219 -317.046)" fill="#fff"/>
    <rect id="Retângulo_39866" data-name="Retângulo 39866" width="0.058" height="0.257" transform="translate(23.073 29.705)" fill="#fff"/>
    <path id="Caminho_42799" data-name="Caminho 42799" d="M272.194,346.928l-.025-.059-.025-.055h-.055q-.013.027-.025.055l-.025.059-.026.066-.027.077h.06l.009-.027.01-.028h.1l.01.028.009.028h.062l-.028-.077-.026-.066m-.115.042.012-.032.011-.028.008-.022.006-.015.006.015.009.022.01.028.011.032Z" transform="translate(-248.691 -317.109)" fill="#fff"/>
    <path id="Caminho_42813" data-name="Caminho 42813" d="M0,193.453v.013a.061.061,0,0,0,.061.061h33.6a.061.061,0,0,0,.061-.061v-.013a.061.061,0,0,0-.061-.061H.061a.061.061,0,0,0-.061.061" transform="translate(0 -176.828)" fill="#fff"/>
    <g id="Grupo_95714" data-name="Grupo 95714" transform="translate(1.038 0.709)">
      <path id="Caminho_43055" data-name="Caminho 43055" d="M361.552,2.646V2.626l1.4-.523-.281-.766-1.658.6.6-1.658L360.855,0l-.523,1.4h-.021L359.787,0l-.766.281.6,1.658-1.658-.6-.281.766,1.4.523h0v.021l-1.4.523.281.766,1.658-.6-.6,1.658.766.281.523-1.4h.021l.523,1.4.766-.281-.6-1.658,1.658.6.281-.766-1.4-.523Zm-1.231.431a.442.442,0,1,1,.442-.442.442.442,0,0,1-.442.442" transform="translate(-329.252)" fill="#fff"/>
      <path id="Caminho_43056" data-name="Caminho 43056" d="M16.719,35.809h-.046l-1.208-4.224-2.3,0,2.35,6.47,2.279,0,2.37-6.463-2.2,0Z" transform="translate(-13.162 -28.975)" fill="#fff"/>
      <rect id="Retângulo_39887" data-name="Retângulo 39887" width="6.466" height="2.152" transform="translate(7.74 9.085) rotate(-89.91)" fill="#fff"/>
      <path id="Caminho_43057" data-name="Caminho 43057" d="M147.293,18.98l0-1.99,1.689,0,0-1.77-1.689,0,0-1.492-2.071,0,0,1.492h-.9l0,1.77h.9l0,2.117a2.5,2.5,0,0,0,2.749,2.746,4.628,4.628,0,0,0,1.1-.114l0-1.793a3.629,3.629,0,0,1-.579.057c-.683,0-1.2-.291-1.2-1.02" transform="translate(-133.498 -12.592)" fill="#fff"/>
      <path id="Caminho_43058" data-name="Caminho 43058" d="M275.473,32l-.006,3.771a.83.83,0,0,1-.915.947c-.578,0-.89-.314-.889-.95l.006-3.771-2.152,0-.006,3.794a3.061,3.061,0,0,0,6.108.01L277.625,32Z" transform="translate(-250.19 -29.351)" fill="#fff"/>
      <path id="Caminho_43059" data-name="Caminho 43059" d="M215.357,31.9l-1.09,0-.01,6.466,2.152,0,.007-4.653,1.762,0,0-1.814-1.762,0Z" transform="translate(-197.66 -29.268)" fill="#fff"/>
      <path id="Caminho_43060" data-name="Caminho 43060" d="M220.254,137.074l-.134-.379h-.685l-.139.379h-.148l.56-1.487h.152l.557,1.487Zm-.41-1.124a1.851,1.851,0,0,1-.066-.214h0c-.02.07-.042.139-.068.209l-.233.635h.6Z" transform="translate(-202.148 -124.397)" fill="#fff"/>
      <path id="Caminho_43061" data-name="Caminho 43061" d="M240.713,136.945c-.445,0-.665-.275-.665-.729s.207-.789.716-.789a1.442,1.442,0,0,1,.35.046l-.015.132a1.144,1.144,0,0,0-.366-.06c-.381,0-.533.3-.533.646,0,.4.176.63.555.63a.884.884,0,0,0,.364-.086l.015.126a1.062,1.062,0,0,1-.421.084" transform="translate(-221.323 -124.25)" fill="#fff"/>
      <path id="Caminho_43062" data-name="Caminho 43062" d="M259.705,137.074l-.134-.379h-.685l-.139.379H258.6l.56-1.487h.152l.557,1.487Zm-.41-1.124a1.863,1.863,0,0,1-.066-.214h0c-.02.07-.042.139-.068.209l-.233.635h.6Z" transform="translate(-238.343 -124.397)" fill="#fff"/>
      <path id="Caminho_43063" data-name="Caminho 43063" d="M281.315,137.008c-.148,0-.251-.009-.348-.007v-1.487c.115,0,.271-.007.416-.007a.672.672,0,0,1,.769.738.738.738,0,0,1-.837.762m.051-1.386c-.086,0-.194,0-.258.007v1.247a2.008,2.008,0,0,0,.227.015.592.592,0,0,0,.67-.637.564.564,0,0,0-.639-.632" transform="translate(-258.865 -124.325)" fill="#fff"/>
      <path id="Caminho_43064" data-name="Caminho 43064" d="M303.279,137.075v-1.487h.734v.115h-.593v.549h.564v.112h-.564v.595h.593v.117Z" transform="translate(-279.336 -124.397)" fill="#fff"/>
      <path id="Caminho_43065" data-name="Caminho 43065" d="M321.461,137.074l-.139-.963c-.026-.192-.04-.3-.046-.377h0c-.013.055-.038.137-.071.234l-.375,1.106h-.17l-.355-1.038a2.66,2.66,0,0,1-.093-.3h0c-.007.115-.022.236-.04.39l-.112.95h-.148l.207-1.487h.185l.361,1.058a2.481,2.481,0,0,1,.084.284h0a2.2,2.2,0,0,1,.079-.264l.37-1.077h.194l.218,1.487Z" transform="translate(-294.593 -124.397)" fill="#fff"/>
      <path id="Caminho_43066" data-name="Caminho 43066" d="M346.059,136.532v.542h-.141v-.542l-.465-.945h.156l.264.553c.044.09.084.181.119.269h0c.038-.095.086-.194.132-.291l.258-.531h.15Z" transform="translate(-318.029 -124.397)" fill="#fff"/>
    </g>
  </g>
</svg>
