<svg xmlns="http://www.w3.org/2000/svg" xmlns:xlink="http://www.w3.org/1999/xlink" width="630" height="150" viewBox="0 0 630 150">
  <defs>
    <clipPath id="clip-path">
      <rect id="Retângulo_39870" data-name="Retângulo 39870" width="630" height="149.974" fill="#fff" stroke="rgba(0,0,0,0)" stroke-width="1"/>
    </clipPath>
    <clipPath id="clip-path-2">
      <rect id="Retângulo_39872" data-name="Retângulo 39872" width="372.223" height="140.196" fill="#fff"/>
    </clipPath>
    <clipPath id="clip-LOGO-HOME">
      <rect width="630" height="150"/>
    </clipPath>
  </defs>
  <g id="LOGO-HOME" clip-path="url(#clip-LOGO-HOME)">
    <g id="Grupo_95685" data-name="Grupo 95685" transform="translate(0 0)">
      <g id="Grupo_95687" data-name="Grupo 95687" clip-path="url(#clip-path)">
        <path id="Caminho_42859" data-name="Caminho 42859" d="M528.818,16.913a.925.925,0,0,0-.924.925V151.645a.925.925,0,1,0,1.849,0V17.838a.925.925,0,0,0-.925-.925" transform="translate(-116.312 -3.726)" fill="#fff" stroke="rgba(0,0,0,0)" stroke-width="1"/>
        <g id="Grupo_95720" data-name="Grupo 95720" transform="translate(0 1.459)">
          <g id="Grupo_95720-2" data-name="Grupo 95720" clip-path="url(#clip-path-2)">
            <path id="Caminho_42860" data-name="Caminho 42860" d="M387.229,29.224V29l15.512-5.779-3.1-8.463-18.3,6.651L387.989,3.1,379.526,0l-5.779,15.512h-.228L367.74,0l-8.463,3.1L365.928,21.4l-18.306-6.651-3.1,8.463L360.035,29h0v.228L344.523,35l3.1,8.463,18.306-6.651-6.651,18.3,8.463,3.1,5.779-15.513h.228l5.779,15.513,8.463-3.1-6.651-18.3,18.3,6.651,3.1-8.463L387.23,29.224Zm-13.6,4.765a4.879,4.879,0,1,1,4.879-4.879,4.879,4.879,0,0,1-4.879,4.879" transform="translate(-30.518)" fill="#fff"/>
            <path id="Caminho_42861" data-name="Caminho 42861" d="M39.273,78.272h-.511l-13.34-46.65L0,31.581l25.947,71.452,25.167.04L77.289,31.7l-24.273-.038Z" transform="translate(0 -2.797)" fill="#fff"/>
            <rect id="Retângulo_39871" data-name="Retângulo 39871" width="71.412" height="23.762" transform="translate(85.479 100.331) rotate(-89.91)" fill="#fff"/>
            <path id="Caminho_42862" data-name="Caminho 42862" d="M163.958,71.76l.035-21.972,18.651.029.031-19.545-18.651-.03.026-16.479-22.867-.036L141.156,30.2l-9.964-.015-.031,19.546,9.964.015-.037,23.378c-.03,18.4,10.171,30.293,30.356,30.326a51.106,51.106,0,0,0,12.139-1.259l.031-19.8a40.086,40.086,0,0,1-6.389.629c-7.537-.012-13.28-3.215-13.267-11.263" transform="translate(-11.618 -1.216)" fill="#fff"/>
            <path id="Caminho_42863" data-name="Caminho 42863" d="M302.105,32.06l-.067,41.646c-.011,7.026-3.593,10.47-10.108,10.459-6.388-.01-9.831-3.464-9.82-10.491l.067-41.646-23.761-.037-.067,41.9c-.03,18.268,12.469,31.447,33.547,31.479S325.77,92.269,325.8,74l.067-41.9Z" transform="translate(-22.885 -2.834)" fill="#fff"/>
            <path id="Caminho_42864" data-name="Caminho 42864" d="M213.248,31.919,201.207,31.9l-.113,71.411,23.761.038.082-51.381L244.394,52l.032-20.031-19.458-.031Z" transform="translate(-17.813 -2.826)" fill="#fff"/>
            <path id="Caminho_42865" data-name="Caminho 42865" d="M218.2,152.012l-1.484-4.185h-7.568l-1.532,4.185h-1.63l6.179-16.425h1.679L220,152.012ZM213.673,139.6a20.463,20.463,0,0,1-.73-2.361h-.024c-.219.778-.463,1.533-.755,2.311l-2.578,7.008h6.667Z" transform="translate(-18.246 -12.01)" fill="#fff"/>
            <path id="Caminho_42866" data-name="Caminho 42866" d="M234.233,152.193c-4.914,0-7.347-3.042-7.347-8.055,0-4.89,2.287-8.71,7.907-8.71a15.92,15.92,0,0,1,3.868.511l-.17,1.46a12.632,12.632,0,0,0-4.039-.657c-4.21,0-5.889,3.285-5.889,7.129,0,4.4,1.946,6.959,6.131,6.959a9.758,9.758,0,0,0,4.016-.948l.17,1.387a11.726,11.726,0,0,1-4.648.924" transform="translate(-20.098 -11.996)" fill="#fff"/>
            <path id="Caminho_42867" data-name="Caminho 42867" d="M257.65,152.012l-1.484-4.185H248.6l-1.532,4.185h-1.63l6.179-16.425h1.679l6.157,16.425ZM253.124,139.6a20.451,20.451,0,0,1-.73-2.361h-.024c-.219.778-.463,1.533-.755,2.311l-2.578,7.008H255.7Z" transform="translate(-21.741 -12.01)" fill="#fff"/>
            <path id="Caminho_42868" data-name="Caminho 42868" d="M271.648,152.078c-1.63,0-2.774-.1-3.844-.074V135.58c1.265,0,2.993-.072,4.6-.072,5.4,0,8.493,2.6,8.493,8.152,0,5.644-3.869,8.419-9.246,8.419m.559-15.305c-.948,0-2.141.048-2.846.072v13.773a22.214,22.214,0,0,0,2.506.17c4.38,0,7.4-2.166,7.4-7.032,0-4.672-2.433-6.983-7.057-6.983" transform="translate(-23.723 -12.004)" fill="#fff"/>
            <path id="Caminho_42869" data-name="Caminho 42869" d="M290.117,152.012V135.587h8.1v1.265h-6.545v6.059H297.9v1.24h-6.229v6.57h6.545v1.29Z" transform="translate(-25.699 -12.011)" fill="#fff"/>
            <path id="Caminho_42870" data-name="Caminho 42870" d="M323.9,152.012l-1.533-10.634c-.292-2.116-.438-3.308-.511-4.161h-.047c-.148.608-.415,1.508-.779,2.579l-4.137,12.215h-1.873l-3.918-11.46a29.5,29.5,0,0,1-1.022-3.334h-.025c-.073,1.266-.242,2.6-.437,4.306l-1.24,10.488h-1.632l2.289-16.425h2.042l3.991,11.679a27.292,27.292,0,0,1,.925,3.14h.049a24.28,24.28,0,0,1,.875-2.92l4.089-11.9h2.141l2.408,16.425Z" transform="translate(-27.172 -12.01)" fill="#fff"/>
            <path id="Caminho_42871" data-name="Caminho 42871" d="M338.982,146.025v5.986h-1.558v-5.986l-5.134-10.438h1.728l2.919,6.107c.487,1,.925,2,1.314,2.969h.025c.414-1.045.95-2.141,1.459-3.211l2.847-5.865h1.654Z" transform="translate(-29.435 -12.01)" fill="#fff"/>
          </g>
        </g>
        <path id="União_12" data-name="União 12" d="M13.027,141.032A13.02,13.02,0,0,1,0,128.046V12.982A13.019,13.019,0,0,1,13.027,0h144.2a13.022,13.022,0,0,1,13.03,12.982V128.046a13.022,13.022,0,0,1-13.03,12.985ZM1.562,12.982V128.046a11.458,11.458,0,0,0,11.465,11.428h144.2a11.461,11.461,0,0,0,11.468-11.428V12.982A11.46,11.46,0,0,0,157.223,1.557H13.027A11.458,11.458,0,0,0,1.562,12.982Zm45.745,91.374c-.056-.008-.113-.022-.169-.036l.068-.331c.02,0,.051.011.1.022a.6.6,0,0,0,.141.017.2.2,0,0,0,.093-.02.08.08,0,0,0,.042-.073.1.1,0,0,0-.034-.084.265.265,0,0,0-.129-.059l-.045-.011a.834.834,0,0,1,.039-.1c.017-.039.034-.079.048-.115a1.15,1.15,0,0,1-.811-.412,1.48,1.48,0,0,1-.276-.948,1.6,1.6,0,0,1,.1-.586,1.269,1.269,0,0,1,.284-.435,1.23,1.23,0,0,1,.428-.269,1.606,1.606,0,0,1,.54-.09,1.718,1.718,0,0,1,.307.025,1.548,1.548,0,0,1,.242.056,1.373,1.373,0,0,1,.172.067.873.873,0,0,1,.1.053l-.172.48a1.582,1.582,0,0,0-.284-.109,1.354,1.354,0,0,0-.369-.045.8.8,0,0,0-.27.045.6.6,0,0,0-.234.146.713.713,0,0,0-.163.261,1.07,1.07,0,0,0-.062.39,1.341,1.341,0,0,0,.042.342.679.679,0,0,0,.129.272.6.6,0,0,0,.234.18.846.846,0,0,0,.352.067,1.471,1.471,0,0,0,.234-.014c.07-.011.132-.022.186-.036a1.173,1.173,0,0,0,.141-.048,1.034,1.034,0,0,0,.11-.05l.166.477a1.169,1.169,0,0,1-.3.123,2.015,2.015,0,0,1-.448.073c-.008.02-.02.039-.025.056s-.014.034-.02.045a.384.384,0,0,1,.169.146.346.346,0,0,1,.045.171.308.308,0,0,1-.144.278.688.688,0,0,1-.386.1A1.076,1.076,0,0,1,47.307,104.356Zm87.687-1.136a1.427,1.427,0,0,1-.341-1.018,1.6,1.6,0,0,1,.1-.586,1.3,1.3,0,0,1,.284-.435,1.18,1.18,0,0,1,.428-.269,1.606,1.606,0,0,1,.54-.09,1.718,1.718,0,0,1,.307.025,1.508,1.508,0,0,1,.239.056,1.433,1.433,0,0,1,.175.067.871.871,0,0,1,.1.053l-.172.48a1.582,1.582,0,0,0-.284-.109,1.376,1.376,0,0,0-.372-.045.827.827,0,0,0-.27.045.619.619,0,0,0-.234.146.708.708,0,0,0-.16.261,1.07,1.07,0,0,0-.062.39,1.483,1.483,0,0,0,.039.342.763.763,0,0,0,.129.272.644.644,0,0,0,.236.182.875.875,0,0,0,.352.065,1.493,1.493,0,0,0,.234-.014c.07-.011.13-.022.183-.036a1.226,1.226,0,0,0,.144-.048q.059-.025.11-.05l.166.477a1.356,1.356,0,0,1-.357.137,2.008,2.008,0,0,1-.532.062A1.293,1.293,0,0,1,134.994,103.22Zm-15.1.339a2.144,2.144,0,0,1-.251-.053,1.4,1.4,0,0,1-.321-.129l.169-.474a1.377,1.377,0,0,0,.293.118,1.555,1.555,0,0,0,.428.051.873.873,0,0,0,.208-.02.384.384,0,0,0,.132-.059.162.162,0,0,0,.068-.084.285.285,0,0,0,.02-.112.256.256,0,0,0-.121-.216,1.909,1.909,0,0,0-.422-.185,2.535,2.535,0,0,1-.262-.1,1.065,1.065,0,0,1-.234-.149.7.7,0,0,1-.166-.216.669.669,0,0,1-.065-.311.782.782,0,0,1,.068-.331.676.676,0,0,1,.194-.25.936.936,0,0,1,.307-.16,1.4,1.4,0,0,1,.405-.053,1.724,1.724,0,0,1,.464.056,1.816,1.816,0,0,1,.321.126l-.172.468a1.885,1.885,0,0,0-.248-.1,1.112,1.112,0,0,0-.327-.042.6.6,0,0,0-.307.059.194.194,0,0,0-.1.18.213.213,0,0,0,.034.123.383.383,0,0,0,.1.09,1.014,1.014,0,0,0,.146.073l.18.065c.141.053.259.1.36.151a.975.975,0,0,1,.256.174.6.6,0,0,1,.149.233.919.919,0,0,1,.051.325.686.686,0,0,1-.259.572,1.255,1.255,0,0,1-.785.2A2.173,2.173,0,0,1,119.895,103.56Zm-35.608-.339a1.415,1.415,0,0,1-.341-1.018,1.544,1.544,0,0,1,.1-.586,1.3,1.3,0,0,1,.284-.435,1.181,1.181,0,0,1,.428-.269,1.605,1.605,0,0,1,.54-.09,1.718,1.718,0,0,1,.307.025,1.508,1.508,0,0,1,.239.056,1.432,1.432,0,0,1,.175.067.874.874,0,0,1,.1.053l-.172.48a1.535,1.535,0,0,0-.287-.109,1.34,1.34,0,0,0-.369-.045.815.815,0,0,0-.27.045.619.619,0,0,0-.234.146.752.752,0,0,0-.163.261,1.137,1.137,0,0,0-.059.39,1.343,1.343,0,0,0,.039.342.719.719,0,0,0,.129.272.644.644,0,0,0,.236.182.875.875,0,0,0,.352.065,1.493,1.493,0,0,0,.234-.014c.068-.011.129-.022.183-.036a1.227,1.227,0,0,0,.144-.048q.059-.025.11-.05l.166.477a1.4,1.4,0,0,1-.357.137,2.022,2.022,0,0,1-.532.062A1.293,1.293,0,0,1,84.286,103.22Zm-11.341.339a2.274,2.274,0,0,1-.251-.053,1.462,1.462,0,0,1-.189-.065c-.051-.022-.1-.045-.132-.065l.169-.474a1.377,1.377,0,0,0,.293.118,1.569,1.569,0,0,0,.428.051.858.858,0,0,0,.208-.02.361.361,0,0,0,.132-.059.184.184,0,0,0,.07-.084.348.348,0,0,0,.017-.112.256.256,0,0,0-.121-.216,1.849,1.849,0,0,0-.422-.185,2.265,2.265,0,0,1-.259-.1.947.947,0,0,1-.234-.149.651.651,0,0,1-.234-.527.782.782,0,0,1,.068-.331.706.706,0,0,1,.194-.25.935.935,0,0,1,.307-.16,1.41,1.41,0,0,1,.408-.053,1.6,1.6,0,0,1,.783.182l-.172.468a1.885,1.885,0,0,0-.248-.1,1.112,1.112,0,0,0-.327-.042.6.6,0,0,0-.307.059.2.2,0,0,0-.1.18.2.2,0,0,0,.037.123.329.329,0,0,0,.1.09,1.185,1.185,0,0,0,.146.073c.053.02.115.042.183.065.138.053.256.1.357.151a.931.931,0,0,1,.256.174.643.643,0,0,1,.152.233.993.993,0,0,1,.048.325.678.678,0,0,1-.259.572,1.255,1.255,0,0,1-.785.2A2.2,2.2,0,0,1,72.945,103.56Zm-17.793-.067a1.213,1.213,0,0,1-.422-.261,1.251,1.251,0,0,1-.281-.432,1.744,1.744,0,0,1,0-1.2,1.243,1.243,0,0,1,.29-.432,1.192,1.192,0,0,1,.419-.264,1.528,1.528,0,0,1,1.016,0,1.155,1.155,0,0,1,.422.264,1.194,1.194,0,0,1,.284.432,1.619,1.619,0,0,1,.1.6,1.563,1.563,0,0,1-.1.6,1.2,1.2,0,0,1-.276.432,1.176,1.176,0,0,1-.419.261,1.519,1.519,0,0,1-.524.087A1.478,1.478,0,0,1,55.152,103.492Zm.214-2.084a.6.6,0,0,0-.22.174.8.8,0,0,0-.138.272,1.3,1.3,0,0,0,0,.7.813.813,0,0,0,.138.269.576.576,0,0,0,.22.174.752.752,0,0,0,.6,0,.608.608,0,0,0,.222-.174.808.808,0,0,0,.135-.269,1.135,1.135,0,0,0,.051-.351,1.166,1.166,0,0,0-.051-.353.808.808,0,0,0-.135-.269.608.608,0,0,0-.222-.174.737.737,0,0,0-.6,0ZM38.739,103.22A1.426,1.426,0,0,1,38.4,102.2a1.544,1.544,0,0,1,.1-.586,1.29,1.29,0,0,1,.281-.435,1.192,1.192,0,0,1,.431-.269,1.577,1.577,0,0,1,.538-.09,1.718,1.718,0,0,1,.307.025,1.548,1.548,0,0,1,.242.056,1.373,1.373,0,0,1,.172.067.873.873,0,0,1,.1.053l-.172.48a1.581,1.581,0,0,0-.284-.109,1.375,1.375,0,0,0-.372-.045.8.8,0,0,0-.267.045.6.6,0,0,0-.234.146.713.713,0,0,0-.163.261,1.07,1.07,0,0,0-.062.39,1.482,1.482,0,0,0,.039.342.723.723,0,0,0,.132.272.633.633,0,0,0,.234.182.885.885,0,0,0,.352.065,1.471,1.471,0,0,0,.234-.014c.07-.011.132-.022.186-.036a1.173,1.173,0,0,0,.141-.048c.042-.017.079-.034.113-.05l.163.477a1.356,1.356,0,0,1-.357.137,2.008,2.008,0,0,1-.532.062A1.3,1.3,0,0,1,38.739,103.22ZM35,103.5a.875.875,0,0,1-.335-.216.85.85,0,0,1-.2-.334,1.352,1.352,0,0,1-.062-.424v-1.644h.6v1.593a.861.861,0,0,0,.037.272.488.488,0,0,0,.1.182.368.368,0,0,0,.155.1.619.619,0,0,0,.2.028.487.487,0,0,0,.355-.132.627.627,0,0,0,.135-.454v-1.593h.6v1.644a1.369,1.369,0,0,1-.065.426.855.855,0,0,1-.2.334.876.876,0,0,1-.341.216,1.426,1.426,0,0,1-.49.076A1.311,1.311,0,0,1,35,103.5Zm78.158.048a3.476,3.476,0,0,1-.422-.056v-2.575a3.478,3.478,0,0,1,.431-.05c.149-.011.279-.014.386-.014a2.355,2.355,0,0,1,.619.076,1.25,1.25,0,0,1,.476.241,1.052,1.052,0,0,1,.307.418,1.611,1.611,0,0,1,.107.614,1.567,1.567,0,0,1-.107.6,1.107,1.107,0,0,1-.3.424,1.35,1.35,0,0,1-.481.25,2.224,2.224,0,0,1-.636.084C113.429,103.56,113.3,103.557,113.161,103.548Zm.175-2.177v1.669c.031,0,.062.006.1.006s.082,0,.132,0a.888.888,0,0,0,.664-.224.869.869,0,0,0,.217-.623.852.852,0,0,0-.208-.628.866.866,0,0,0-.653-.213h-.127C113.418,101.363,113.375,101.366,113.336,101.372Zm-82.648,2.177a3.477,3.477,0,0,1-.422-.056v-2.575a3.478,3.478,0,0,1,.431-.05c.149-.011.279-.014.386-.014a2.355,2.355,0,0,1,.619.076,1.25,1.25,0,0,1,.476.241,1.08,1.08,0,0,1,.307.418,1.611,1.611,0,0,1,.107.614,1.567,1.567,0,0,1-.107.6,1.169,1.169,0,0,1-.3.424,1.35,1.35,0,0,1-.481.25,2.224,2.224,0,0,1-.636.084C30.955,103.56,30.831,103.557,30.688,103.548Zm.175-2.177v1.669a.985.985,0,0,0,.1.006c.037,0,.082,0,.132,0a.888.888,0,0,0,.664-.224.84.84,0,0,0-.645-1.464h-.127C30.941,101.363,30.9,101.366,30.862,101.372Zm112.1,2.154c-.031-.093-.062-.185-.1-.283s-.068-.194-.1-.289H141.73l-.1.289c-.034.1-.065.191-.1.283h-.619c.1-.286.194-.547.284-.791s.177-.468.265-.682.169-.418.251-.609.172-.379.262-.564h.566c.087.185.172.373.256.564s.172.4.256.609.175.44.265.682.183.5.284.791Zm-.777-1.888c-.025.065-.053.143-.087.227s-.07.182-.11.289-.082.213-.124.325h.76q-.063-.173-.118-.328t-.11-.286c-.034-.087-.065-.163-.09-.23s-.048-.118-.062-.154C142.231,101.52,142.211,101.571,142.186,101.638Zm-3.572,1.888v-2.643h.6v2.643Zm-6.314,0c-.172-.3-.357-.6-.555-.9a10.047,10.047,0,0,0-.636-.836v1.734h-.591v-2.645H131c.084.084.177.188.279.309s.206.255.312.393.211.283.315.432.2.292.3.429v-1.563h.594v2.645Zm-4.124,0c-.028-.093-.059-.185-.093-.283l-.1-.289h-1.039l-.1.289c-.034.1-.068.191-.1.283h-.619c.1-.286.194-.547.284-.791s.177-.468.262-.682.172-.418.253-.609.172-.379.262-.564h.566c.084.185.172.373.256.564s.169.4.256.609.175.44.265.682.183.5.284.791Zm-.774-1.888c-.025.065-.056.143-.087.23s-.07.18-.113.286-.082.213-.121.325h.757q-.059-.173-.118-.328c-.037-.1-.073-.2-.107-.286s-.065-.163-.09-.23-.048-.118-.065-.154C127.447,101.52,127.427,101.571,127.4,101.638Zm-3.831,1.888v-2.138h-.8v-.508h2.2v.508h-.8v2.138Zm-6.652,0v-2.643h.6v2.643Zm-8.8,0c-.028-.093-.059-.185-.1-.283s-.068-.194-.1-.289h-1.036l-.1.289c-.034.1-.068.191-.1.283h-.619c.1-.286.194-.547.284-.791s.177-.468.262-.682.172-.418.253-.609.172-.379.259-.564h.566c.087.185.175.373.259.564s.169.4.256.609.175.44.265.682.183.5.281.791Zm-.774-1.888c-.028.065-.056.143-.087.227s-.07.182-.113.289-.082.213-.121.325h.757q-.059-.173-.118-.328c-.037-.1-.073-.2-.107-.286s-.065-.163-.09-.23-.048-.118-.065-.154C107.391,101.52,107.371,101.571,107.346,101.638Zm-6.964,1.888v-2.645h1.793v.5h-1.2v.516h1.061v.491h-1.061v.637h1.284v.5Zm-5.793,0v-2.645h.6v2.135h1.174v.511Zm-2.339,0c-.028-.093-.059-.185-.093-.283s-.068-.194-.1-.289H91.017l-.1.289c-.034.1-.068.191-.1.283H90.2c.1-.286.194-.547.284-.791s.177-.468.262-.682.172-.418.253-.609.172-.379.262-.564h.566c.084.185.172.373.256.564s.169.4.256.609.175.44.265.682.183.5.284.791Zm-.774-1.888c-.025.065-.056.143-.087.227s-.07.182-.11.289-.084.213-.124.325h.757q-.059-.173-.118-.328c-.037-.1-.073-.2-.107-.286s-.065-.163-.09-.23-.048-.118-.065-.154C91.52,101.52,91.5,101.571,91.475,101.638ZM87.9,103.526v-2.643h.6v2.643Zm-6.314,0c-.172-.3-.355-.6-.555-.9a9.474,9.474,0,0,0-.636-.836v1.734h-.588v-2.645h.484c.084.084.18.188.281.309s.205.255.312.393.208.283.315.432.2.292.293.429v-1.563h.594v2.645Zm-5.461,0v-2.645h1.793v.5H76.725v.516h1.061v.491H76.725v.637h1.281v.5Zm-7.265,0v-2.645h1.79v.5H69.457v.516h1.061v.491H69.457v.637h1.284v.5Zm-2.412,0c-.048-.087-.1-.174-.146-.264s-.1-.177-.155-.261-.1-.163-.155-.236-.1-.143-.155-.2h-.3v.965h-.6V100.92a3.626,3.626,0,0,1,.405-.053c.138-.008.262-.014.372-.014a1.652,1.652,0,0,1,.915.21.729.729,0,0,1,.318.659.753.753,0,0,1-.127.452.869.869,0,0,1-.369.272c.051.065.107.143.166.227s.118.174.175.267.113.191.166.289.1.2.149.3Zm-.808-2.163-.1.008v.715h.169a1.008,1.008,0,0,0,.481-.084.3.3,0,0,0,.146-.286.286.286,0,0,0-.146-.275.9.9,0,0,0-.433-.084C65.714,101.358,65.674,101.36,65.64,101.363Zm-4.518,2.163V100.92a3.612,3.612,0,0,1,.414-.053c.146-.008.273-.014.383-.014a1.655,1.655,0,0,1,.912.208.751.751,0,0,1,.318.679.765.765,0,0,1-.324.69,1.675,1.675,0,0,1-.918.21h-.189v.886Zm.707-2.163-.11.008v.76h.189a1.02,1.02,0,0,0,.467-.084.317.317,0,0,0,.158-.311.357.357,0,0,0-.042-.182.309.309,0,0,0-.115-.118.589.589,0,0,0-.18-.062,1.573,1.573,0,0,0-.239-.017C61.913,101.358,61.871,101.36,61.829,101.363Zm-9.613,2.163c-.031-.093-.062-.185-.1-.283l-.1-.289H50.983l-.1.289c-.034.1-.065.191-.1.283h-.619c.1-.286.194-.547.284-.791s.177-.468.265-.682.169-.418.251-.609.172-.379.262-.564h.566c.087.185.172.373.256.564s.172.4.256.609.175.44.265.682.183.5.284.791Zm-.777-1.888c-.025.065-.053.143-.087.23s-.07.18-.11.286-.082.213-.124.325h.76q-.063-.173-.118-.328t-.11-.286c-.034-.087-.065-.163-.09-.23s-.048-.118-.062-.154C51.484,101.52,51.465,101.571,51.439,101.638Zm-7.195,1.888c-.031-.093-.062-.185-.1-.283s-.068-.194-.1-.289H43.012l-.1.289c-.034.1-.065.191-.1.283H42.2c.1-.286.194-.547.284-.791s.177-.468.265-.682.169-.418.251-.609.172-.379.262-.564h.566c.087.185.172.373.256.564s.172.4.256.609.175.44.265.682.183.5.284.791Zm-.777-1.888c-.025.065-.056.143-.087.227s-.07.182-.11.289-.082.213-.124.325h.76q-.063-.173-.118-.328t-.11-.286c-.034-.087-.065-.163-.09-.23s-.048-.118-.062-.154C43.513,101.52,43.493,101.571,43.468,101.638Zm-16.878,1.888v-2.645h1.79v.5H27.186v.516h1.061v.491H27.186v.637H28.47v.5Zm100.886-3.136-.383.295-.22-.252.6-.522.594.522-.208.252Zm-76.664.045a.719.719,0,0,1,.062-.123.627.627,0,0,1,.1-.129.493.493,0,0,1,.129-.1.338.338,0,0,1,.16-.036.391.391,0,0,1,.129.02c.039.014.079.031.115.045s.076.034.113.048a.342.342,0,0,0,.121.02.172.172,0,0,0,.127-.051.411.411,0,0,0,.082-.112l.279.182a.672.672,0,0,1-.065.126.8.8,0,0,1-.1.129.617.617,0,0,1-.129.1.359.359,0,0,1-.163.039.375.375,0,0,1-.127-.022c-.039-.014-.079-.028-.118-.045s-.076-.031-.113-.045a.356.356,0,0,0-.121-.022.162.162,0,0,0-.124.05.342.342,0,0,0-.082.115Zm34-3.248a11.919,11.919,0,0,1-1.559-.482l.605-2.917a11.957,11.957,0,0,0,1.886.567,9.156,9.156,0,0,0,1.911.2,3.6,3.6,0,0,0,1.4-.194.743.743,0,0,0,.411-.746.912.912,0,0,0-.532-.76,9.862,9.862,0,0,0-1.621-.735c-.566-.21-1.075-.426-1.537-.651a4.66,4.66,0,0,1-1.174-.808,3.289,3.289,0,0,1-.749-1.122,4.144,4.144,0,0,1-.267-1.568,3.382,3.382,0,0,1,1.331-2.819,5.793,5.793,0,0,1,3.654-1.038,11.926,11.926,0,0,1,2.227.2,10.588,10.588,0,0,1,1.695.446l-.631,2.8A13.325,13.325,0,0,0,90.5,87.18a7.471,7.471,0,0,0-1.658-.171q-1.693,0-1.695.943a.975.975,0,0,0,.073.384.807.807,0,0,0,.29.325,4.013,4.013,0,0,0,.594.339c.251.123.569.255.954.4a14.3,14.3,0,0,1,1.959.864,4.659,4.659,0,0,1,1.224.915,2.882,2.882,0,0,1,.628,1.1,4.813,4.813,0,0,1,.183,1.394,3.221,3.221,0,0,1-1.419,2.842,7.1,7.1,0,0,1-4,.959A11.682,11.682,0,0,1,84.813,97.186ZM73.97,96.967a5.819,5.819,0,0,1-2.106-1.386A5.468,5.468,0,0,1,70.631,93.5a8.21,8.21,0,0,1-.4-2.606,7.723,7.723,0,0,1,.518-2.951,6.412,6.412,0,0,1,1.368-2.112,5.707,5.707,0,0,1,1.948-1.276,6.134,6.134,0,0,1,2.263-.435,5.629,5.629,0,0,1,4.284,1.652,6.8,6.8,0,0,1,1.574,4.859c0,.21-.008.438-.025.687s-.031.468-.048.662h-8.18a2.39,2.39,0,0,0,1.042,1.762,4.2,4.2,0,0,0,2.469.651,10.465,10.465,0,0,0,1.948-.182,7.375,7.375,0,0,0,1.559-.446l.484,2.917a4.973,4.973,0,0,1-.774.289,9.968,9.968,0,0,1-1.075.255c-.4.07-.819.132-1.272.18a12.921,12.921,0,0,1-1.354.073A8.014,8.014,0,0,1,73.97,96.967Zm1.368-9.681a2.185,2.185,0,0,0-.726.544,2.389,2.389,0,0,0-.448.783,4.949,4.949,0,0,0-.231.9H78.7a3.777,3.777,0,0,0-.158-.889,2.3,2.3,0,0,0-.411-.774,2.16,2.16,0,0,0-.7-.553,2.276,2.276,0,0,0-1.053-.219A2.448,2.448,0,0,0,75.338,87.287ZM58.657,95.209a9.019,9.019,0,0,1-2.142-6.438,9.919,9.919,0,0,1,.653-3.7,7.96,7.96,0,0,1,1.793-2.746,7.445,7.445,0,0,1,2.708-1.7,9.791,9.791,0,0,1,3.414-.578,11.082,11.082,0,0,1,1.937.154,13.316,13.316,0,0,1,1.523.362,7.435,7.435,0,0,1,1.089.424c.29.143.5.255.628.337l-1.087,3.038a9.229,9.229,0,0,0-1.8-.7,8.593,8.593,0,0,0-2.334-.289,5.168,5.168,0,0,0-1.709.289,3.856,3.856,0,0,0-1.475.929,4.606,4.606,0,0,0-1.03,1.652,6.932,6.932,0,0,0-.386,2.457,8.754,8.754,0,0,0,.253,2.157,4.594,4.594,0,0,0,.822,1.725A3.941,3.941,0,0,0,63,93.725a5.288,5.288,0,0,0,2.227.424,10.159,10.159,0,0,0,1.478-.1,11.485,11.485,0,0,0,1.16-.227,6.146,6.146,0,0,0,.9-.3c.259-.112.493-.216.7-.314L70.5,96.221a8.9,8.9,0,0,1-2.252.867,13.118,13.118,0,0,1-3.364.387A8.173,8.173,0,0,1,58.657,95.209Zm38.536,1.784a4.1,4.1,0,0,1-1.706-1.217,4.766,4.766,0,0,1-.9-1.871,9.991,9.991,0,0,1-.267-2.384V84.453h3.609v6.632a5.131,5.131,0,0,0,.459,2.508,1.832,1.832,0,0,0,1.717.771c.259,0,.532-.014.825-.036s.546-.053.774-.084v-9.79h3.6V96.7a20.5,20.5,0,0,1-2.37.494,19.708,19.708,0,0,1-3.049.23A7.277,7.277,0,0,1,97.192,96.993Zm32,.194a4.881,4.881,0,0,1-1.728-.713,3.28,3.28,0,0,1-1.115-1.29,4.423,4.423,0,0,1-.388-1.952,3.7,3.7,0,0,1,.448-1.882,3.465,3.465,0,0,1,1.2-1.229,5.444,5.444,0,0,1,1.717-.662,9.633,9.633,0,0,1,2.01-.2,11.733,11.733,0,0,1,1.247.059,5.7,5.7,0,0,1,.881.157v-.337a2,2,0,0,0-.555-1.473,2.719,2.719,0,0,0-1.937-.553,12.574,12.574,0,0,0-1.816.132,7.978,7.978,0,0,0-1.548.373l-.459-2.892c.208-.065.47-.132.785-.2s.659-.137,1.027-.194.763-.1,1.174-.143a12.25,12.25,0,0,1,1.247-.062,8.381,8.381,0,0,1,2.663.362,4.153,4.153,0,0,1,1.706,1.035,3.818,3.818,0,0,1,.906,1.641,8.058,8.058,0,0,1,.267,2.146v7.473c-.515.115-1.236.247-2.153.4a20.615,20.615,0,0,1-3.341.23A10.738,10.738,0,0,1,129.195,97.186Zm1.863-5.462a2.445,2.445,0,0,0-.788.23,1.344,1.344,0,0,0-.532.457,1.282,1.282,0,0,0-.191.724,1.233,1.233,0,0,0,.569,1.17,3.154,3.154,0,0,0,1.559.323c.355,0,.7-.006,1.016-.022a7.527,7.527,0,0,0,.774-.073V91.809a6.5,6.5,0,0,0-.653-.1,7.589,7.589,0,0,0-.8-.048A6.861,6.861,0,0,0,131.058,91.725ZM24.352,95.646a6.323,6.323,0,0,1-1.275-4.258v-11.8h3.955V90.956c0,3.19,2.379,3.683,5.421,3.288V79.721h3.955V96.7a25.028,25.028,0,0,1-5.826.684C28.034,97.388,25.507,96.958,24.352,95.646ZM138.9,97.136V85.129a21.983,21.983,0,0,1,2.289-.64,13.311,13.311,0,0,1,2.939-.3c.194,0,.428.011.7.036s.546.056.822.1.549.09.822.146a3.7,3.7,0,0,1,.7.2l-.605,2.965c-.321-.081-.7-.166-1.137-.252a6.94,6.94,0,0,0-1.4-.135,6.775,6.775,0,0,0-.811.062,4.76,4.76,0,0,0-.712.132v9.692Zm-17.669,0V90.409a4.943,4.943,0,0,0-.45-2.46,1.661,1.661,0,0,0-1.534-.721,3.3,3.3,0,0,0-.814.143,3.18,3.18,0,0,0-.859.362,5.589,5.589,0,0,1,.22,1.17c.031.41.048.847.048,1.313v6.92h-3.606V90.409a4.948,4.948,0,0,0-.448-2.46,1.666,1.666,0,0,0-1.537-.721c-.228,0-.462.011-.7.034s-.473.053-.7.084v9.79h-3.609V84.888c.307-.081.667-.166,1.078-.252s.847-.171,1.306-.241.932-.129,1.416-.168.96-.062,1.43-.062a6.033,6.033,0,0,1,2.238.351,4.989,4.989,0,0,1,1.413.83,6.8,6.8,0,0,1,3.631-1.181,6.352,6.352,0,0,1,2.505.424,3.737,3.737,0,0,1,1.559,1.192,4.5,4.5,0,0,1,.8,1.832,11.906,11.906,0,0,1,.217,2.362v7.162Zm-70.1,0V84.456h3.606v12.68Zm-5.416,0V90.409a4.835,4.835,0,0,0-.459-2.46,1.887,1.887,0,0,0-1.72-.721c-.256,0-.532.011-.822.034s-.546.053-.774.084v9.79H38.339V84.888a19.988,19.988,0,0,1,2.373-.494,19.366,19.366,0,0,1,3.049-.23,7.422,7.422,0,0,1,2.7.424,4.045,4.045,0,0,1,1.706,1.192,4.635,4.635,0,0,1,.9,1.832,9.722,9.722,0,0,1,.265,2.362v7.162Zm5.695-14.792a2.2,2.2,0,0,1,0-3.108,2.3,2.3,0,0,1,3.023,0,2.2,2.2,0,0,1,0,3.108,2.3,2.3,0,0,1-3.023,0Zm33.615-4.7h-.045c-.16,0-.318-.011-.476-.014-.265-.006-.529-.011-.791-.025a24,24,0,0,1-10.491-2.937A24.992,24.992,0,0,1,60.109,52.614v-14.5a1.292,1.292,0,0,1,1.419-1.453h4.65c.037,0,.073,0,.113.006-.053,0-.107,0-.163,0,.805.034,1.236.511,1.236,1.431.079,13.12-2.173,26,12.355,32.282a24.066,24.066,0,0,0,4.318,1.4c.042.008.084.02.124.028.341.073.681.137,1.025.194l.3.048c.245.036.487.07.732.1.121.014.242.028.363.039.236.025.473.045.712.062.11.008.222.017.332.022.315.017.631.028.943.031.031,0,.059,0,.09,0,.343,0,.69,0,1.033-.017l.312-.017c.242-.014.487-.031.732-.053.118-.008.239-.02.357-.034.242-.025.481-.053.721-.087.11-.017.217-.028.324-.045.329-.05.659-.107.988-.174l.042-.006c.343-.07.684-.149,1.025-.236.1-.025.208-.056.31-.084.242-.065.481-.132.723-.2.118-.034.234-.07.352-.109.236-.076.476-.154.712-.241.1-.036.211-.073.315-.112.338-.123.673-.255,1.008-.4q.435-.185.853-.379c.093-.042.183-.09.276-.132.18-.087.363-.174.538-.264.107-.053.208-.109.315-.166.155-.081.312-.16.462-.244.11-.062.217-.123.327-.188.138-.079.279-.157.411-.238.113-.067.22-.135.327-.2l.38-.238c.107-.07.211-.143.315-.216s.236-.157.352-.241.205-.151.31-.227.22-.16.324-.241.2-.16.3-.241.2-.163.3-.244.194-.168.29-.252.189-.163.279-.244.186-.177.279-.266.175-.163.256-.244.183-.185.27-.278.16-.166.236-.247.172-.191.256-.286.149-.168.22-.25c.084-.1.166-.2.245-.3s.138-.168.2-.255c.082-.1.158-.2.231-.306.065-.084.129-.168.189-.252.076-.107.146-.21.22-.317.059-.087.118-.171.175-.258.07-.107.138-.216.205-.325l.16-.258.194-.337c.051-.087.1-.171.146-.258.062-.115.124-.233.183-.348.045-.087.09-.171.132-.255.059-.121.115-.241.172-.362.042-.084.082-.168.121-.255.053-.121.107-.247.16-.37.037-.084.073-.168.107-.255.053-.126.1-.252.152-.379.034-.087.065-.171.1-.255.045-.129.093-.261.138-.393.031-.081.059-.166.087-.25.045-.135.09-.269.132-.407.025-.081.048-.163.076-.244l.118-.418.068-.244c.039-.143.076-.286.113-.429.02-.079.037-.157.056-.238.037-.146.07-.295.1-.443.014-.079.034-.154.048-.233.034-.151.065-.3.093-.457.014-.073.031-.149.045-.224.028-.157.056-.314.082-.468.014-.076.025-.149.037-.222.025-.163.053-.323.076-.482.011-.073.02-.143.031-.213l.068-.5c.006-.067.014-.135.023-.2.023-.171.042-.342.059-.516.006-.065.014-.129.02-.194.017-.174.037-.353.051-.53l.042-.48c-.008.567-.028,1.128-.053,1.683-.008.25-.023.5-.039.749,0,.02,0,.039,0,.056-.023.323-.045.642-.079.959a23.258,23.258,0,0,1-1.3,5.981A25.074,25.074,0,0,1,85.086,77.645Zm1.99-6.4A20,20,0,0,0,100,63.148c2.553-3.636,2.412-7.849,2.412-11.215V38.095a1.256,1.256,0,0,1,1.444-1.417h4.231l-.113,0c1.224.039,1.129,1.209,1.132,1.414.068,7.779.92,15.69-1.8,22a20.873,20.873,0,0,1-6.64,7.672,23.865,23.865,0,0,1-3.451,1.8,21.392,21.392,0,0,1-8.407,1.765Q87.914,71.328,87.019,71.249ZM71.757,60.421c-.037-.062-.068-.123-.1-.185-.065-.115-.127-.23-.186-.348a14.925,14.925,0,0,1-1.655-5.815c-.008-.107-.014-.219-.02-.325-.008-.151-.023-.3-.028-.449v-.065c0-.076,0-.149,0-.224,0-.191-.006-.382,0-.569a15.681,15.681,0,0,1,19.65-14.8l-.078-.016c-.037-.006-.07-.014-.107-.02s-.087-.014-.132-.02l-.115-.017c-.045-.006-.1-.008-.144-.014s-.084-.008-.129-.014l-.149-.011-.141-.008-.158-.008-.149-.006c-.053,0-.107-.006-.16-.006s-.107,0-.158,0-.1,0-.155,0l-.172,0c-.048,0-.1,0-.146,0h-.183L87,37.5l-.186,0-.129.006-.2.006-.1,0c-.073.006-.146.008-.217.011-.025,0-.048,0-.07,0l-.231.014c-.023,0-.039,0-.059,0l-.225.017-.079.006c-.062.006-.124.008-.183.014s-.093.008-.135.014l-.107.008-.214.025a14.387,14.387,0,0,0-4.8,1.436,11.386,11.386,0,0,0-4.909,4.774c-.16.295-.3.6-.442.9-.039.084-.076.171-.113.255-.1.247-.2.5-.287.746-.025.07-.053.14-.076.213-.107.314-.2.631-.281.954-.017.067-.031.137-.048.2-.062.266-.118.53-.166.8-.014.09-.031.18-.045.269-.053.325-.1.648-.124.976a.036.036,0,0,0,0,.017c-.031.334-.045.67-.051,1.007v.266c0,.269.006.539.023.808,0,.073.006.149.011.222.023.334.056.665.1,1a14.123,14.123,0,0,0,14.37,12.287c.205,0,.414,0,.622,0l.4-.017c.2-.011.4-.022.6-.039l.408-.042c.194-.022.388-.048.58-.079.138-.02.279-.042.414-.067.191-.034.38-.073.569-.115.138-.031.273-.059.411-.093.191-.048.38-.1.569-.157.129-.039.262-.073.391-.115.205-.067.408-.143.608-.216.11-.042.222-.076.329-.121.3-.121.594-.25.887-.39.127-.062.251-.129.374-.2.169-.087.338-.171.5-.266a13.331,13.331,0,0,0,2.229-1.591l.124-.109c.18-.163.357-.334.532-.511l.169-.171c.158-.166.312-.337.464-.511.053-.065.11-.126.163-.191.2-.236.388-.477.571-.732a15.748,15.748,0,0,1-13.982,9.423c-.157,0-.312.007-.468.007A15.754,15.754,0,0,1,71.757,60.421Zm23.285-1.487h4.929c.017-.028.037-.053.056-.081l-.034.079,0,0,0,0-.082.087.008-.014a16.436,16.436,0,0,1-10,4.968A11.192,11.192,0,0,0,95.042,58.935Zm-16.1-6.365a7.129,7.129,0,1,1,7.13,7.1A7.117,7.117,0,0,1,78.941,52.569Zm-2.652-9.577a12.422,12.422,0,0,1,8.63-5.218,17.121,17.121,0,0,1,4.608-.1l-.011,0,.017,0h.006a15.78,15.78,0,0,1,8.7,5.933,7.339,7.339,0,0,1,1.188,1.61c.11.177.2.334.273.477H94.4a11.715,11.715,0,0,0-2.7-2.572c-4.875-3.321-11.555-1.9-15.229,2.561a12.559,12.559,0,0,0-2.367,4.564A13.08,13.08,0,0,1,76.289,42.993ZM89.44,37.647l.048.01Zm-.02,0-.013-.005.033.009Zm0,0h0Z" transform="translate(459.748 8.943)" fill="#fff" stroke="rgba(0,0,0,0)" stroke-miterlimit="10" stroke-width="1"/>
      </g>
    </g>
  </g>
</svg>
