<svg xmlns="http://www.w3.org/2000/svg" width="400.479" height="210.23" viewBox="0 0 400.479 210.23">
  <g id="Group_6421" data-name="Group 6421" transform="translate(-473.84 -169.77)">
    <g id="Group_6419" data-name="Group 6419" transform="translate(521 156.98)">
      <path id="Path_2844" data-name="Path 2844" d="M119.223,217.367a102.1,102.1,0,1,1,102.1-102.1,103.292,103.292,0,0,1-.642,11.338,5.831,5.831,0,0,1-5.8,5.193H82.12a36.936,36.936,0,0,0,65.917,14.052,6.1,6.1,0,0,1,4.957-2.124h56.4a5.407,5.407,0,0,1,4.687,2.26,5.826,5.826,0,0,1,.657,5.379A102.635,102.635,0,0,1,119.223,217.367Zm0-192.54a90.435,90.435,0,1,0,81.17,130.3H155.576A48.594,48.594,0,0,1,69.684,126.22a5.833,5.833,0,0,1,1.612-4.292,4.927,4.927,0,0,1,3.9-1.544H209.394c.091-1.643.265-3.526.265-5.121A90.536,90.536,0,0,0,119.223,24.827Zm41.766,83.628H75.513a5.836,5.836,0,0,1-5.829-6.1,48.617,48.617,0,0,1,97.133,0,5.836,5.836,0,0,1-5.829,6.1ZM81.034,97.045h73.9a37.716,37.716,0,0,0-36.688-29.431C100.528,67.614,84.6,80.271,81.034,97.045Z" transform="translate(7.672 5.653)" fill="#fff"/>
    </g>
    <path id="Path_2845" data-name="Path 2845" d="M-18524-19425s-68.145,22.389-90-10,46.816-115.031,140-140,219.338-23.637,240,0,16.143,54.182-20,90" transform="translate(19094 19765)" fill="none" stroke="#fff" stroke-linecap="round" stroke-width="4" stroke-dasharray="8"/>
    <g id="Group_6420" data-name="Group 6420" transform="matrix(0.966, 0.259, -0.259, 0.966, -191.24, -223.359)">
      <g id="Group_1033" data-name="Group 1033" transform="matrix(-0.985, 0.174, -0.174, -0.985, 1130.726, 235.963)">
        <path id="Path_1676" data-name="Path 1676" d="M9.589,9.92a.852.852,0,0,1,1.2-.176l5.39,4.016.881-1.55L3.389,2.029l-1.233,1.3L7.792,7.525A.856.856,0,0,1,6.771,8.9L.359,4.143a.893.893,0,0,1-.352-.634.8.8,0,0,1,.247-.669L2.684.268A.91.91,0,0,1,3.847.162l14.9,11.1A.873.873,0,0,1,19,12.386l-1.761,3.065a.875.875,0,0,1-.564.423.992.992,0,0,1-.7-.141L9.8,11.118A.826.826,0,0,1,9.589,9.92Z" fill="#fff"/>
      </g>
      <g id="Group_1036" data-name="Group 1036" transform="matrix(-0.985, 0.174, -0.174, -0.985, 1118.4, 266.851)">
        <g id="Group_1034" data-name="Group 1034">
          <path id="Path_1677" data-name="Path 1677" d="M2.162,4.414A10.939,10.939,0,1,1,4.381,19.7,10.962,10.962,0,0,1,2.162,4.414ZM3.571,5.435A9.212,9.212,0,1,0,16.465,3.568,9.245,9.245,0,0,0,3.571,5.435Z" fill="#fff"/>
        </g>
        <g id="Group_1035" data-name="Group 1035" transform="translate(16.094 5.981)">
          <path id="Path_1678" data-name="Path 1678" d="M1.04,6.641A6.521,6.521,0,0,0,.159,1.357.849.849,0,0,1,.371.159a.849.849,0,0,1,1.2.211A8.061,8.061,0,0,1,2.7,7.064a.853.853,0,0,1-1.057.6.708.708,0,0,1-.282-.141A.768.768,0,0,1,1.04,6.641Z" fill="#fff"/>
        </g>
      </g>
      <g id="Group_1037" data-name="Group 1037" transform="matrix(-0.985, 0.174, -0.174, -0.985, 1105.443, 238.991)">
        <path id="Path_1679" data-name="Path 1679" d="M.159,6.293A.855.855,0,0,1,.371,5.1,67.591,67.591,0,0,0,6.36.234.883.883,0,0,1,7.593.269.883.883,0,0,1,7.557,1.5a65.4,65.4,0,0,1-6.13,5,.9.9,0,0,1-1.022,0A.508.508,0,0,1,.159,6.293Z" fill="#fff"/>
      </g>
      <g id="Group_1038" data-name="Group 1038" transform="matrix(-0.985, 0.174, -0.174, -0.985, 1129.001, 246.532)">
        <path id="Path_1680" data-name="Path 1680" d="M.018,6.424A32.026,32.026,0,0,1,1.956.54.826.826,0,0,1,3.083.082.826.826,0,0,1,3.541,1.21,35.8,35.8,0,0,0,1.674,6.882a.838.838,0,0,1-1.057.6.708.708,0,0,1-.282-.141A.942.942,0,0,1,.018,6.424Z" fill="#fff"/>
      </g>
      <g id="Group_1039" data-name="Group 1039" transform="matrix(-0.985, 0.174, -0.174, -0.985, 1151.318, 278.852)">
        <path id="Path_1681" data-name="Path 1681" d="M31.051,73.383l-.176-.74a.8.8,0,0,1,.07-.564l4.967-10.111a17.887,17.887,0,0,0,.564-1.761,12.974,12.974,0,0,0,.458-2.29v-.176l-.986-1.585a34.226,34.226,0,0,1-4.58,2.431.905.905,0,0,1-.846-.106L23.09,52.95l-7.433-5.566a.861.861,0,0,1-.352-.775,38.5,38.5,0,0,1,1.022-5.073l-1.8-.493a.6.6,0,0,0-.176.07,3.737,3.737,0,0,0-.845.423c-.669.352-1.444.846-2.008,1.2-.352.247-.669.458-.7.493L2.516,50.871a.717.717,0,0,1-.528.211l-.74.07a.922.922,0,0,1-.6-.176L.331,50.73a.825.825,0,0,1-.247-1.022c1.163-2.677,5.39-10.252,8.173-15.184.141-.211.282-.458.423-.669a10.136,10.136,0,0,1,2.255-2.184l.881-.564a8.943,8.943,0,0,1,3.629-1.127h.106l5.143.07A73.452,73.452,0,0,1,27.669,18.6,45.989,45.989,0,0,1,50.216,2.184h.035A39.831,39.831,0,0,1,61.947,0a.835.835,0,0,1,.81.6,39.015,39.015,0,0,1,1.268,11.837v.035a45.979,45.979,0,0,1-9.3,26.316,71.063,71.063,0,0,1-8.983,9.97l1.55,4.9.035.106a8.649,8.649,0,0,1-.035,3.8l-.282.986-.846-.247.846.247a8.771,8.771,0,0,1-1.444,2.783c-.176.211-.317.423-.493.6C41.127,66.02,35.1,72.22,32.848,74.122a.849.849,0,0,1-1.057.035l-.352-.247A.776.776,0,0,1,31.051,73.383ZM37.005,54.5l.317.528,1.163,1.9a1.239,1.239,0,0,1,.176.634v.528c-.035.352-.106.74-.176,1.163-.176.81-.423,1.726-.634,2.431a5.723,5.723,0,0,1-.387,1.057l-4.228,8.631c2.748-2.607,7.363-7.363,10.534-10.639.106-.106.247-.282.388-.458a7.938,7.938,0,0,0,1.163-2.219l.282-.986a7.506,7.506,0,0,0,.035-2.959l-1.691-5.39a.9.9,0,0,1,.247-.916,70.96,70.96,0,0,0,9.16-10.076A44.126,44.126,0,0,0,62.3,12.4v-.035A38.74,38.74,0,0,0,61.278,1.726h-.141c-.528.035-1.339.07-2.325.211a43.012,43.012,0,0,0-8,1.832H50.78a44.2,44.2,0,0,0-21.7,15.818,67.1,67.1,0,0,0-7.046,11.661.859.859,0,0,1-.81.493l-5.637-.07a7,7,0,0,0-2.818.881l-.881.564a7.659,7.659,0,0,0-1.8,1.761,2.835,2.835,0,0,0-.317.493c-2.255,3.981-5.461,9.759-7.187,13.141l7.046-6.517a18.347,18.347,0,0,1,1.938-1.339,13.944,13.944,0,0,1,2.5-1.268,1.47,1.47,0,0,1,.81-.035l2.149.6.6.141a1,1,0,0,1,.528.388.894.894,0,0,1,.07.669,51.109,51.109,0,0,0-1.163,5.179l7.046,5.249,7.046,5.249c.211-.106.528-.247.916-.458.881-.458,2.149-1.163,3.7-2.149a.771.771,0,0,1,.669-.106,1.253,1.253,0,0,1,.317.141A.823.823,0,0,1,37.005,54.5Z" fill="#fff"/>
      </g>
      <g id="Group_1040" data-name="Group 1040" transform="matrix(-0.985, 0.174, -0.174, -0.985, 1102.277, 287.534)">
        <path id="Path_1682" data-name="Path 1682" d="M.132,3.382a.786.786,0,0,1-.07-.74A.971.971,0,0,1,.59,2.114,39.789,39.789,0,0,1,12.11,0a.835.835,0,0,1,.81.6,38.9,38.9,0,0,1,1.268,11.626l-.881-.035.881.035a.852.852,0,0,1-.352.669.806.806,0,0,1-.74.141A21.956,21.956,0,0,1,5.7,9.371,20.658,20.658,0,0,1,.132,3.382Zm6.623,4.65a19.544,19.544,0,0,0,5.707,3.03A41.318,41.318,0,0,0,11.44,1.726H11.3c-.528.035-1.3.07-2.29.211a41.776,41.776,0,0,0-6.8,1.444A19.521,19.521,0,0,0,6.755,8.032Z" fill="#fff"/>
      </g>
      <g id="Group_1041" data-name="Group 1041" transform="matrix(-0.985, 0.174, -0.174, -0.985, 1130.951, 232.491)">
        <path id="Path_1683" data-name="Path 1683" d="M.479,3.968A1.182,1.182,0,0,1,.233,2.312l.07-.07L2.17.269A.882.882,0,0,1,3.4.234a.882.882,0,0,1,.035,1.233L2.03,2.946l5.32,3.946A.856.856,0,0,1,6.327,8.266Z" fill="#fff"/>
      </g>
      <g id="Group_1042" data-name="Group 1042" transform="matrix(-0.985, 0.174, -0.174, -0.985, 1121.67, 225.764)">
        <path id="Path_1684" data-name="Path 1684" d="M.187.348a.852.852,0,0,1,1.2-.176l5.073,3.77L7.479,2.18a.876.876,0,0,1,1.515.881L7.655,5.385l-.07.07A1.182,1.182,0,0,1,5.929,5.7L.363,1.545A.815.815,0,0,1,.187.348Z" fill="#fff"/>
      </g>
      <g id="Group_1043" data-name="Group 1043" transform="matrix(-0.985, 0.174, -0.174, -0.985, 1104.52, 265.467)">
        <circle id="Ellipse_408" data-name="Ellipse 408" cx="0.74" cy="0.74" r="0.74" transform="translate(0 0.691) rotate(-27.839)" fill="#fff"/>
      </g>
    </g>
  </g>
</svg>
