<svg width="25" height="25" viewBox="0 0 25 25" fill="none" xmlns="http://www.w3.org/2000/svg">
<path d="M21.2119 0H3.78809C1.69566 0 0 1.69566 0 3.78809V21.2119C0 23.3038 1.69566 25 3.78809 25H21.2119C23.3038 25 25 23.3043 25 21.2119V3.78809C25 1.69624 23.3043 0 21.2119 0ZM8.3264 18.7862C8.30099 18.8348 8.2519 18.8625 8.2005 18.8625C8.17855 18.8625 8.15603 18.8573 8.13466 18.8463C8.11445 18.8359 7.64029 18.5841 7.33246 18.0637C7.02232 17.5388 6.98593 17.2552 6.98304 17.2246C6.97496 17.1466 7.03156 17.0767 7.10952 17.0686C7.18749 17.0623 7.25738 17.1177 7.26546 17.1957C7.26546 17.1968 7.29896 17.4475 7.57733 17.9194C7.84416 18.371 8.26172 18.5928 8.26634 18.5945C8.33564 18.6309 8.36279 18.7169 8.3264 18.7862ZM9.06161 18.4172C9.03909 18.4726 8.98595 18.5061 8.92993 18.5061C8.91203 18.5061 8.89412 18.5027 8.8768 18.4957C8.85543 18.4871 8.35875 18.2826 8.0024 17.7946C7.64317 17.302 7.57907 17.0236 7.57329 16.9936C7.5577 16.9167 7.60737 16.8417 7.68418 16.8261C7.76099 16.8105 7.83607 16.8601 7.85166 16.937C7.85166 16.9381 7.90942 17.1847 8.23226 17.6271C8.54125 18.0505 8.97902 18.2306 8.98307 18.2324C9.05584 18.2618 9.09107 18.3444 9.06161 18.4172ZM8.37318 16.5396C7.99374 15.5295 7.87881 14.5945 7.81643 14.245C7.75348 13.8956 7.56867 13.4613 6.93222 12.5661C6.29519 11.6704 5.9169 10.9912 5.78696 10.733C5.69397 10.5476 5.87243 10.2929 6.0971 10.2929C6.18488 10.2929 6.2796 10.3316 6.36854 10.4287C6.6833 10.774 7.80142 12.1647 7.96717 12.3299C8.04341 12.4056 8.19472 12.4945 8.3085 12.4945C8.44249 12.4945 8.52277 12.3703 8.36221 11.9539C8.06651 11.1841 7.26662 9.48264 7.10721 9.07605C6.88197 8.49851 7.21464 8.45057 7.21464 8.45057C7.21464 8.45057 7.30878 8.37896 7.42833 8.37896C7.51958 8.37896 7.62469 8.42054 7.71363 8.56839C7.91866 8.90856 9.10146 11.2944 9.24931 11.5063C9.32208 11.6103 9.40352 11.6836 9.46589 11.6836C9.52826 11.6836 9.5762 11.6039 9.56985 11.3943C9.55656 10.9842 9.39197 8.54471 9.29552 7.74251C9.26144 7.4572 9.56754 7.31397 9.70961 7.30473C9.71366 7.30473 9.71712 7.30473 9.72116 7.30473C9.86382 7.30473 10.0821 7.46818 10.1353 7.63971C10.1901 7.81586 10.6741 10.8474 10.7238 11.2274C10.7509 11.4347 10.8635 11.5855 10.975 11.5855C11.068 11.5855 11.1604 11.4809 11.2008 11.2176C11.2898 10.6389 11.7755 8.29753 11.8205 8.00009C11.8569 7.75926 12.0007 7.6784 12.1619 7.6784C12.1994 7.6784 12.2375 7.68302 12.2756 7.69053C12.4783 7.73096 12.6291 7.87996 12.6187 8.1156C12.6089 8.33564 12.364 11.2846 12.4061 12.2849C11.9984 12.4651 11.5075 12.6123 11.3175 12.662L11.2857 12.6707L11.2545 12.6822L11.0697 12.7498C11.0345 12.7538 10.9663 12.7573 10.919 12.7596C10.6048 12.7746 10.0787 12.8 9.82628 13.273C9.70499 13.4994 9.68824 13.7593 9.78007 14.0042C9.95449 14.472 10.4483 14.6909 10.595 14.7469C10.6065 14.7515 10.6192 14.7567 10.6314 14.7614C10.8341 14.8434 11.0582 14.9173 11.5647 14.9173C11.813 14.9173 12.1226 14.9 12.5095 14.8653C12.4402 15.0357 12.3386 15.2361 12.2779 15.3562L12.2242 15.4636C12.0931 15.7264 11.5699 16.4559 10.6672 17.6358C10.5349 17.6202 10.3871 17.6104 10.2213 17.6104C9.99954 17.6104 9.74542 17.6288 9.45492 17.6774C9.45492 17.6774 8.75147 17.5509 8.37261 16.5408L8.37318 16.5396ZM18.4726 14.6279C18.2289 15.6785 17.8067 16.5211 17.6658 16.8469C17.5243 17.1726 17.4383 17.6364 17.4718 18.7348C17.5064 19.8333 17.4446 20.6084 17.4105 20.8954C17.3926 21.0421 17.2402 21.142 17.0865 21.142C16.9329 21.142 16.7926 21.0519 16.7579 20.8267C16.6875 20.3647 16.5263 18.5876 16.4795 18.3589C16.4524 18.2249 16.3352 18.0054 16.2069 18.0054C16.1151 18.0054 16.0175 18.1174 15.9424 18.4524C15.7622 19.2569 15.4862 21.1172 15.3932 21.5434C15.3037 21.9535 15.1356 22.0199 15.0363 22.0199C14.9889 22.0199 14.9571 22.0049 14.9571 22.0049C14.9571 22.0049 14.9531 22.0049 14.9462 22.0049C14.8855 22.0049 14.591 21.9864 14.6072 21.6306C14.6251 21.2339 14.9618 18.5922 14.9554 18.334C14.952 18.1792 14.9127 18.0545 14.8347 18.0545C14.7827 18.0545 14.714 18.1099 14.6268 18.2497C14.4102 18.5985 13.1968 20.721 12.8324 21.4424C12.7584 21.5885 12.6187 21.6352 12.4887 21.6352C12.3906 21.6352 12.2987 21.6087 12.2456 21.5781C12.122 21.507 12.0244 21.2408 12.0758 21.0641C12.1278 20.8868 13.4041 18.0949 13.5728 17.7507C13.6854 17.5214 13.6444 17.2921 13.4885 17.2921C13.4099 17.2921 13.3025 17.3499 13.1702 17.4943C12.7752 17.9269 11.0743 19.6075 10.8722 19.8299C10.7798 19.9315 10.6874 19.9725 10.6002 19.9725C10.4968 19.9725 10.4009 19.9153 10.3212 19.8362C10.1751 19.6895 10.1318 19.4828 10.271 19.2922C10.4102 19.1016 12.513 16.4466 12.8485 15.7761C13.1662 15.1408 13.7224 14.1561 12.6799 14.1561C12.621 14.1561 12.5575 14.159 12.4882 14.1659C12.0764 14.204 11.7813 14.219 11.5641 14.219C11.0969 14.219 10.9883 14.1497 10.8427 14.0943C10.6291 14.0129 10.3374 13.798 10.4419 13.6022C10.5465 13.4059 11.0674 13.4948 11.2805 13.4168L11.4936 13.3389C11.4936 13.3389 12.4356 13.0923 13.0362 12.7521C13.6369 12.4119 14.9779 11.8338 15.3395 11.7668C15.4908 11.7391 15.6675 11.7229 15.8431 11.7229C16.0857 11.7229 16.3242 11.7541 16.4859 11.8269C16.7643 11.9528 17.0386 12.5638 18.2 13.083C18.2 13.083 18.7152 13.578 18.4715 14.6291L18.4726 14.6279ZM19.1022 14.9854C19.0681 15.0559 18.9832 15.0859 18.9127 15.0519C18.8423 15.0184 18.8122 14.9329 18.8463 14.8624C18.8463 14.8613 18.9497 14.6303 18.9583 14.0828C18.9664 13.5589 18.7262 13.1512 18.7233 13.1471C18.6829 13.0801 18.7048 12.9929 18.7724 12.9525C18.8232 12.9219 18.8862 12.9271 18.9312 12.9612C18.9451 12.9716 18.9578 12.9854 18.9676 13.0016C18.9791 13.0207 19.2523 13.4833 19.2425 14.0879C19.2327 14.6978 19.1154 14.9583 19.1027 14.986L19.1022 14.9854ZM19.939 14.2762C19.8703 14.8821 19.7282 15.1304 19.7126 15.1564C19.6722 15.2234 19.5844 15.2448 19.5174 15.2043C19.4516 15.1628 19.429 15.0761 19.4695 15.0091C19.4695 15.008 19.5948 14.7879 19.6566 14.2439C19.7155 13.7229 19.5157 13.2944 19.5139 13.2898C19.4804 13.2188 19.5105 13.1339 19.5815 13.1004C19.6312 13.0767 19.6872 13.0842 19.7282 13.1154C19.7461 13.1287 19.7606 13.1466 19.7709 13.1679C19.7808 13.1887 20.0077 13.675 19.939 14.2756V14.2762ZM22.5345 5.2845C22.4299 5.2845 22.345 5.1996 22.345 5.09506C22.345 4.19641 20.8117 2.81089 18.7735 2.81089H16.6135L12.4997 5.91748L8.38993 2.81436H6.22589C4.18832 2.81436 2.65438 4.19988 2.65438 5.09853C2.65438 5.20306 2.56948 5.28796 2.46494 5.28796C2.36041 5.28796 2.27551 5.20306 2.27551 5.09853C2.27551 3.89955 4.09823 2.43549 6.22589 2.43549H8.32871L8.84735 1.91686C8.92416 1.84062 9.06104 1.82907 9.13496 1.91686L12.4997 5.91748L15.8645 1.91686C15.939 1.82849 16.0758 1.84062 16.1521 1.91686L16.6678 2.43202H18.7741C20.9012 2.43202 22.7245 3.89609 22.7245 5.09506C22.7245 5.1996 22.6396 5.2845 22.5351 5.2845H22.5345Z" fill="#002F87"/>
</svg>
