<svg id="Camada_1" data-name="Camada 1" xmlns="http://www.w3.org/2000/svg" xmlns:xlink="http://www.w3.org/1999/xlink" viewBox="0 0 300 300"><defs><style>.cls-1{fill:#01afaa;}.cls-2{fill:#fff;}.cls-3{fill:url(#Gradiente_sem_nome_118);}</style><linearGradient id="Gradiente_sem_nome_118" x1="3003.1" y1="-6667.08" x2="3093.4" y2="-6667.08" gradientTransform="matrix(0.71, 0.71, 0.71, -0.71, 2750.18, -6697.19)" gradientUnits="userSpaceOnUse"><stop offset="0" stop-color="#fff"/><stop offset="0.09" stop-color="#f7fdfc"/><stop offset="0.22" stop-color="#e3f6f5"/><stop offset="0.38" stop-color="#c0ebea"/><stop offset="0.56" stop-color="#91dcda"/><stop offset="0.76" stop-color="#54c9c6"/><stop offset="0.97" stop-color="#0bb2ad"/><stop offset="1" stop-color="#01afaa"/></linearGradient></defs><title>20191023_opcões_brandsystem_suite</title><rect class="cls-1" width="300" height="300" rx="53.93"/><path class="cls-2" d="M150,240.31a90.31,90.31,0,1,1,63.86-26.45h0A89.72,89.72,0,0,1,150,240.31Zm0-150.62a60.3,60.3,0,1,0,42.65,17.66A59.94,59.94,0,0,0,150,89.69Z"/><path class="cls-3" d="M150,240.31v-30a60.32,60.32,0,0,0,42.65-103l21.21-21.21A90.31,90.31,0,0,1,150,240.31Z"/><path class="cls-2" d="M243.37,240.31a15,15,0,0,1-15-15V178.08a11.76,11.76,0,0,0-23.52,0v7.38A54.85,54.85,0,0,1,150,240.31a15,15,0,0,1,0-30,24.86,24.86,0,0,0,24.85-24.85v-7.38a41.76,41.76,0,1,1,83.52,0v47.23A15,15,0,0,1,243.37,240.31Z"/><path class="cls-1" d="M216.61,136.32a41.76,41.76,0,0,1,41.76,41.76v47.23a15,15,0,0,1-30,0V178.08a11.76,11.76,0,0,0-23.52,0v7.38A54.85,54.85,0,0,1,150,240.31v5a59.85,59.85,0,0,0,59.85-59.85v-7.38a6.76,6.76,0,0,1,13.52,0v47.23a20,20,0,0,0,40,0V178.08a46.77,46.77,0,0,0-46.76-46.76h0a46.76,46.76,0,0,0-46.76,46.76v7.38a19.72,19.72,0,0,1-5.82,14l3.54,3.53a24.69,24.69,0,0,0,7.28-17.57v-7.38a41.76,41.76,0,0,1,41.76-41.76"/></svg>