<svg style="position: absolute; width: 0; height: 0; overflow: hidden;" class="symbol-defs" version="1.1" xmlns="http://www.w3.org/2000/svg" xmlns:xlink="http://www.w3.org/1999/xlink">
  <defs>
    <symbol id="icon-home" viewBox="0 0 20 20">
      <path d="M5.24935 15.5418H7.62435V11.5835C7.62435 11.3592 7.70022 11.1712 7.85195 11.0194C8.00369 10.8677 8.19171 10.7918 8.41602 10.7918H11.5827C11.807 10.7918 11.995 10.8677 12.1467 11.0194C12.2985 11.1712 12.3743 11.3592 12.3743 11.5835V15.5418H14.7493V8.41683L9.99935 4.85433L5.24935 8.41683V15.5418ZM3.66602 15.5418V8.41683C3.66602 8.16613 3.72209 7.92864 3.83424 7.70433C3.9464 7.48002 4.10143 7.2953 4.29935 7.15016L9.04935 3.58766C9.32643 3.37655 9.6431 3.271 9.99935 3.271C10.3556 3.271 10.6723 3.37655 10.9493 3.58766L15.6993 7.15016C15.8973 7.2953 16.0523 7.48002 16.1645 7.70433C16.2766 7.92864 16.3327 8.16613 16.3327 8.41683V15.5418C16.3327 15.9772 16.1776 16.35 15.8676 16.6601C15.5575 16.9701 15.1848 17.1252 14.7493 17.1252H11.5827C11.3584 17.1252 11.1704 17.0493 11.0186 16.8976C10.8669 16.7458 10.791 16.5578 10.791 16.3335V12.3752H9.20768V16.3335C9.20768 16.5578 9.13181 16.7458 8.98008 16.8976C8.82834 17.0493 8.64032 17.1252 8.41602 17.1252H5.24935C4.81393 17.1252 4.44119 16.9701 4.13112 16.6601C3.82105 16.35 3.66602 15.9772 3.66602 15.5418Z"/>
    </symbol>
    <symbol id="icon-journey" viewBox="0 0 24 24">
      <path d="M11.05 16.875C10.8667 14.7833 10.0396 13.0188 8.56875 11.5813C7.09792 10.1438 5.32917 9.30833 3.2625 9.075C2.9875 9.04167 2.75 8.93333 2.55 8.75C2.35 8.56667 2.25 8.34167 2.25 8.075C2.25 7.80833 2.34792 7.58542 2.54375 7.40625C2.73958 7.22708 2.975 7.15417 3.25 7.1875C5.15 7.3625 6.87917 7.98333 8.4375 9.05C9.99583 10.1167 11.1833 11.525 12 13.275C12.6083 11.95 13.4229 10.7812 14.4438 9.76875C15.4646 8.75625 16.6 7.875 17.85 7.125H14.925C14.6667 7.125 14.4458 7.03333 14.2625 6.85C14.0792 6.66667 13.9875 6.44583 13.9875 6.1875C13.9875 5.92917 14.0792 5.70833 14.2625 5.525C14.4458 5.34167 14.6667 5.25 14.925 5.25H19.8125C20.0708 5.25 20.2917 5.34167 20.475 5.525C20.6583 5.70833 20.75 5.92917 20.75 6.1875V11C20.75 11.2583 20.6583 11.4792 20.475 11.6625C20.2917 11.8458 20.0708 11.9375 19.8125 11.9375C19.5542 11.9375 19.3333 11.8458 19.15 11.6625C18.9667 11.4792 18.875 11.2583 18.875 11V8.7C17.325 9.625 15.9917 10.775 14.875 12.15C13.7583 13.525 13.1083 15.1 12.925 16.875H13.95C14.2083 16.875 14.4292 16.9667 14.6125 17.15C14.7958 17.3333 14.8875 17.5542 14.8875 17.8125C14.8875 18.0708 14.7958 18.2917 14.6125 18.475C14.4292 18.6583 14.2083 18.75 13.95 18.75H10.0375C9.77917 18.75 9.55833 18.6583 9.375 18.475C9.19167 18.2917 9.1 18.0708 9.1 17.8125C9.1 17.5542 9.19167 17.3333 9.375 17.15C9.55833 16.9667 9.77917 16.875 10.0375 16.875H11.05Z"/>
    </symbol>
    <symbol viewBox="0 0 49 49" id="icon-journey-scorm">
      <path d="M14.75 28.625C15.3167 28.625 15.7917 28.4333 16.175 28.05C16.5583 27.6667 16.75 27.1917 16.75 26.625C16.75 26.0583 16.5583 25.5833 16.175 25.2C15.7917 24.8167 15.3167 24.625 14.75 24.625C14.1833 24.625 13.7083 24.8167 13.325 25.2C12.9417 25.5833 12.75 26.0583 12.75 26.625C12.75 27.1917 12.9417 27.6667 13.325 28.05C13.7083 28.4333 14.1833 28.625 14.75 28.625ZM14.75 20.625C15.3167 20.625 15.7917 20.4333 16.175 20.05C16.5583 19.6667 16.75 19.1917 16.75 18.625C16.75 18.0583 16.5583 17.5833 16.175 17.2C15.7917 16.8167 15.3167 16.625 14.75 16.625C14.1833 16.625 13.7083 16.8167 13.325 17.2C12.9417 17.5833 12.75 18.0583 12.75 18.625C12.75 19.1917 12.9417 19.6667 13.325 20.05C13.7083 20.4333 14.1833 20.625 14.75 20.625ZM20.75 28.625H34.75C35.3167 28.625 35.7917 28.4333 36.175 28.05C36.5583 27.6667 36.75 27.1917 36.75 26.625C36.75 26.0583 36.5583 25.5833 36.175 25.2C35.7917 24.8167 35.3167 24.625 34.75 24.625H20.75C20.1833 24.625 19.7083 24.8167 19.325 25.2C18.9417 25.5833 18.75 26.0583 18.75 26.625C18.75 27.1917 18.9417 27.6667 19.325 28.05C19.7083 28.4333 20.1833 28.625 20.75 28.625ZM20.75 20.625H34.75C35.3167 20.625 35.7917 20.4333 36.175 20.05C36.5583 19.6667 36.75 19.1917 36.75 18.625C36.75 18.0583 36.5583 17.5833 36.175 17.2C35.7917 16.8167 35.3167 16.625 34.75 16.625H20.75C20.1833 16.625 19.7083 16.8167 19.325 17.2C18.9417 17.5833 18.75 18.0583 18.75 18.625C18.75 19.1917 18.9417 19.6667 19.325 20.05C19.7083 20.4333 20.1833 20.625 20.75 20.625ZM8.75 38.625C7.65 38.625 6.70833 38.2333 5.925 37.45C5.14167 36.6667 4.75 35.725 4.75 34.625V10.625C4.75 9.525 5.14167 8.58333 5.925 7.8C6.70833 7.01667 7.65 6.625 8.75 6.625H40.75C41.85 6.625 42.7917 7.01667 43.575 7.8C44.3583 8.58333 44.75 9.525 44.75 10.625V34.625C44.75 35.725 44.3583 36.6667 43.575 37.45C42.7917 38.2333 41.85 38.625 40.75 38.625H32.75V40.625C32.75 41.1917 32.5583 41.6667 32.175 42.05C31.7917 42.4333 31.3167 42.625 30.75 42.625H18.75C18.1833 42.625 17.7083 42.4333 17.325 42.05C16.9417 41.6667 16.75 41.1917 16.75 40.625V38.625H8.75ZM8.75 34.625H40.75V10.625H8.75V34.625Z"/>
    </symbol>
    <symbol viewBox="0 0 49 49" id="icon-journey-pdf">
      <path d="M12.25 44.5C11.15 44.5 10.2083 44.1083 9.425 43.325C8.64167 42.5417 8.25 41.6 8.25 40.5V8.5C8.25 7.4 8.64167 6.45833 9.425 5.675C10.2083 4.89167 11.15 4.5 12.25 4.5H26.6C27.1333 4.5 27.6417 4.6 28.125 4.8C28.6083 5 29.0333 5.28333 29.4 5.65L39.1 15.35C39.4667 15.7167 39.75 16.1417 39.95 16.625C40.15 17.1083 40.25 17.6167 40.25 18.15V40.5C40.25 41.6 39.8583 42.5417 39.075 43.325C38.2917 44.1083 37.35 44.5 36.25 44.5H12.25ZM26.25 16.5V8.5H12.25V40.5H36.25V18.5H28.25C27.6833 18.5 27.2083 18.3083 26.825 17.925C26.4417 17.5417 26.25 17.0667 26.25 16.5Z" />
    </symbol>
    <symbol viewBox="0 0 49 49" id="icon-pdf-white">
      <path d="M12.25 44.625C11.15 44.625 10.2083 44.2333 9.425 43.45C8.64167 42.6667 8.25 41.725 8.25 40.625V8.625C8.25 7.525 8.64167 6.58333 9.425 5.8C10.2083 5.01667 11.15 4.625 12.25 4.625H26.6C27.1333 4.625 27.6417 4.725 28.125 4.925C28.6083 5.125 29.0333 5.40833 29.4 5.775L39.1 15.475C39.4667 15.8417 39.75 16.2667 39.95 16.75C40.15 17.2333 40.25 17.7417 40.25 18.275V40.625C40.25 41.725 39.8583 42.6667 39.075 43.45C38.2917 44.2333 37.35 44.625 36.25 44.625H12.25ZM26.25 16.625V8.625H12.25V40.625H36.25V18.625H28.25C27.6833 18.625 27.2083 18.4333 26.825 18.05C26.4417 17.6667 26.25 17.1917 26.25 16.625Z" />
    </symbol>
    <symbol viewBox="0 0 49 49" id="icon-screen">
      <path d="M8.75 36.625C7.65 36.625 6.70833 36.2333 5.925 35.45C5.14167 34.6667 4.75 33.725 4.75 32.625V10.625C4.75 9.525 5.14167 8.58333 5.925 7.8C6.70833 7.01667 7.65 6.625 8.75 6.625H40.75C41.85 6.625 42.7917 7.01667 43.575 7.8C44.3583 8.58333 44.75 9.525 44.75 10.625V32.625C44.75 33.725 44.3583 34.6667 43.575 35.45C42.7917 36.2333 41.85 36.625 40.75 36.625H34.75L36.15 38.025C36.35 38.225 36.5 38.45 36.6 38.7C36.7 38.95 36.75 39.2083 36.75 39.475V40.625C36.75 41.1917 36.5583 41.6667 36.175 42.05C35.7917 42.4333 35.3167 42.625 34.75 42.625H14.75C14.1833 42.625 13.7083 42.4333 13.325 42.05C12.9417 41.6667 12.75 41.1917 12.75 40.625V39.475C12.75 39.2083 12.8 38.95 12.9 38.7C13 38.45 13.15 38.225 13.35 38.025L14.75 36.625H8.75ZM8.75 32.625H40.75V10.625H8.75V32.625Z" />
    </symbol>
    <symbol viewBox="0 0 49 49" id="icon-journey-block">
      <g clip-path="url(#clip0_227_3246)">
        <path d="M8.75 34.619C8.18333 34.619 7.70833 34.4274 7.325 34.044C6.94167 33.6607 6.75 33.1857 6.75 32.619V16.619C6.75 16.0524 6.94167 15.5774 7.325 15.194C7.70833 14.8107 8.18333 14.619 8.75 14.619H40.75C41.3167 14.619 41.7917 14.8107 42.175 15.194C42.5583 15.5774 42.75 16.0524 42.75 16.619V18.619C42.75 19.1857 42.5583 19.6607 42.175 20.044C41.7917 20.4274 41.3167 20.619 40.75 20.619C40.1833 20.619 39.7083 20.4274 39.325 20.044C38.9417 19.6607 38.75 19.1857 38.75 18.619H10.75V30.619H26.75C27.3167 30.619 27.7917 30.8107 28.175 31.194C28.5583 31.5774 28.75 32.0524 28.75 32.619C28.75 33.1857 28.5583 33.6607 28.175 34.044C27.7917 34.4274 27.3167 34.619 26.75 34.619H8.75ZM38.75 34.619H34.75C34.1833 34.619 33.7083 34.4274 33.325 34.044C32.9417 33.6607 32.75 33.1857 32.75 32.619C32.75 32.0524 32.9417 31.5774 33.325 31.194C33.7083 30.8107 34.1833 30.619 34.75 30.619H38.75V26.619C38.75 26.0524 38.9417 25.5774 39.325 25.194C39.7083 24.8107 40.1833 24.619 40.75 24.619C41.3167 24.619 41.7917 24.8107 42.175 25.194C42.5583 25.5774 42.75 26.0524 42.75 26.619V30.619H46.75C47.3167 30.619 47.7917 30.8107 48.175 31.194C48.5583 31.5774 48.75 32.0524 48.75 32.619C48.75 33.1857 48.5583 33.6607 48.175 34.044C47.7917 34.4274 47.3167 34.619 46.75 34.619H42.75V38.619C42.75 39.1857 42.5583 39.6607 42.175 40.044C41.7917 40.4274 41.3167 40.619 40.75 40.619C40.1833 40.619 39.7083 40.4274 39.325 40.044C38.9417 39.6607 38.75 39.1857 38.75 38.619V34.619Z" />
      </g>
      <defs>
      <clipPath id="clip0_227_3246">
        <rect width="48" height="48" fill="white" transform="translate(0.75 0.619019)"/>
      </clipPath>
      </defs>
    </symbol>
    <symbol viewBox="0 0 49 49" id="icon-journey-separator">
      <path d="M8.25 40.619C7.15 40.619 6.20833 40.2274 5.425 39.444C4.64167 38.6607 4.25 37.719 4.25 36.619V12.619C4.25 11.519 4.64167 10.5774 5.425 9.79402C6.20833 9.01069 7.15 8.61902 8.25 8.61902H40.25C41.35 8.61902 42.2917 9.01069 43.075 9.79402C43.8583 10.5774 44.25 11.519 44.25 12.619V36.619C44.25 37.719 43.8583 38.6607 43.075 39.444C42.2917 40.2274 41.35 40.619 40.25 40.619H8.25ZM8.25 36.619H40.25V12.619H8.25V36.619ZM14.25 32.619H26.25C26.8167 32.619 27.2917 32.4274 27.675 32.044C28.0583 31.6607 28.25 31.1857 28.25 30.619C28.25 30.0524 28.0583 29.5774 27.675 29.194C27.2917 28.8107 26.8167 28.619 26.25 28.619H14.25C13.6833 28.619 13.2083 28.8107 12.825 29.194C12.4417 29.5774 12.25 30.0524 12.25 30.619C12.25 31.1857 12.4417 31.6607 12.825 32.044C13.2083 32.4274 13.6833 32.619 14.25 32.619ZM22.25 24.619H34.25C34.8167 24.619 35.2917 24.4274 35.675 24.044C36.0583 23.6607 36.25 23.1857 36.25 22.619C36.25 22.0524 36.0583 21.5774 35.675 21.194C35.2917 20.8107 34.8167 20.619 34.25 20.619H22.25C21.6833 20.619 21.2083 20.8107 20.825 21.194C20.4417 21.5774 20.25 22.0524 20.25 22.619C20.25 23.1857 20.4417 23.6607 20.825 24.044C21.2083 24.4274 21.6833 24.619 22.25 24.619ZM14.25 24.619C14.8167 24.619 15.2917 24.4274 15.675 24.044C16.0583 23.6607 16.25 23.1857 16.25 22.619C16.25 22.0524 16.0583 21.5774 15.675 21.194C15.2917 20.8107 14.8167 20.619 14.25 20.619C13.6833 20.619 13.2083 20.8107 12.825 21.194C12.4417 21.5774 12.25 22.0524 12.25 22.619C12.25 23.1857 12.4417 23.6607 12.825 24.044C13.2083 24.4274 13.6833 24.619 14.25 24.619ZM34.25 32.619C34.8167 32.619 35.2917 32.4274 35.675 32.044C36.0583 31.6607 36.25 31.1857 36.25 30.619C36.25 30.0524 36.0583 29.5774 35.675 29.194C35.2917 28.8107 34.8167 28.619 34.25 28.619C33.6833 28.619 33.2083 28.8107 32.825 29.194C32.4417 29.5774 32.25 30.0524 32.25 30.619C32.25 31.1857 32.4417 31.6607 32.825 32.044C33.2083 32.4274 33.6833 32.619 34.25 32.619Z"/>
    </symbol>
    <symbol viewBox="0 0 20 20" id="icon-journey-pencil-edit">
      <path d="M3.33333 17.5C3.09722 17.5 2.89931 17.4201 2.73958 17.2604C2.57986 17.1007 2.5 16.9028 2.5 16.6667V14.6458C2.5 14.4236 2.54167 14.2118 2.625 14.0104C2.70833 13.809 2.82639 13.6319 2.97917 13.4792L13.5 2.97917C13.6667 2.82639 13.8507 2.70833 14.0521 2.625C14.2535 2.54167 14.4653 2.5 14.6875 2.5C14.9097 2.5 15.125 2.54167 15.3333 2.625C15.5417 2.70833 15.7222 2.83333 15.875 3L17.0208 4.16667C17.1875 4.31944 17.309 4.5 17.3854 4.70833C17.4618 4.91667 17.5 5.125 17.5 5.33333C17.5 5.55556 17.4618 5.76736 17.3854 5.96875C17.309 6.17014 17.1875 6.35417 17.0208 6.52083L6.52083 17.0208C6.36806 17.1736 6.19097 17.2917 5.98958 17.375C5.78819 17.4583 5.57639 17.5 5.35417 17.5H3.33333ZM14.6667 6.5L15.8333 5.33333L14.6667 4.16667L13.5 5.33333L14.6667 6.5Z"/>
    </symbol>

    <symbol viewBox="0 0 49 49" id="icon-journey-audio">
      <path d="M22.25 42.625V28.075C21.65 27.7083 21.1667 27.2333 20.8 26.65C20.4333 26.0667 20.25 25.3917 20.25 24.625C20.25 23.525 20.6417 22.5833 21.425 21.8C22.2083 21.0167 23.15 20.625 24.25 20.625C25.35 20.625 26.2917 21.0167 27.075 21.8C27.8583 22.5833 28.25 23.525 28.25 24.625C28.25 25.3917 28.0667 26.075 27.7 26.675C27.3333 27.275 26.85 27.7417 26.25 28.075V42.625C26.25 43.1917 26.0583 43.6667 25.675 44.05C25.2917 44.4333 24.8167 44.625 24.25 44.625C23.6833 44.625 23.2083 44.4333 22.825 44.05C22.4417 43.6667 22.25 43.1917 22.25 42.625ZM11.9 37.675C11.5 38.075 11.0167 38.275 10.45 38.275C9.88333 38.275 9.41667 38.0583 9.05 37.625C7.55 35.8583 6.375 33.875 5.525 31.675C4.675 29.475 4.25 27.125 4.25 24.625C4.25 21.8583 4.775 19.2583 5.825 16.825C6.875 14.3917 8.3 12.275 10.1 10.475C11.9 8.675 14.0167 7.25 16.45 6.2C18.8833 5.15 21.4833 4.625 24.25 4.625C27.0167 4.625 29.6167 5.15 32.05 6.2C34.4833 7.25 36.6 8.675 38.4 10.475C40.2 12.275 41.625 14.3917 42.675 16.825C43.725 19.2583 44.25 21.8583 44.25 24.625C44.25 27.125 43.825 29.475 42.975 31.675C42.125 33.875 40.95 35.8583 39.45 37.625C39.0833 38.0583 38.625 38.2833 38.075 38.3C37.525 38.3167 37.05 38.125 36.65 37.725C36.2833 37.3583 36.1 36.8917 36.1 36.325C36.1 35.7583 36.2833 35.2583 36.65 34.825C37.7833 33.425 38.6667 31.8583 39.3 30.125C39.9333 28.3917 40.25 26.5583 40.25 24.625C40.25 20.1583 38.7 16.375 35.6 13.275C32.5 10.175 28.7167 8.625 24.25 8.625C19.7833 8.625 16 10.175 12.9 13.275C9.8 16.375 8.25 20.1583 8.25 24.625C8.25 26.5583 8.56667 28.3833 9.2 30.1C9.83333 31.8167 10.7333 33.375 11.9 34.775C12.2667 35.2083 12.4583 35.7 12.475 36.25C12.4917 36.8 12.3 37.275 11.9 37.675ZM17.55 32.025C17.15 32.425 16.6667 32.6333 16.1 32.65C15.5333 32.6667 15.0833 32.4417 14.75 31.975C13.9833 30.9417 13.375 29.8083 12.925 28.575C12.475 27.3417 12.25 26.025 12.25 24.625C12.25 21.2917 13.4167 18.4583 15.75 16.125C18.0833 13.7917 20.9167 12.625 24.25 12.625C27.5833 12.625 30.4167 13.7917 32.75 16.125C35.0833 18.4583 36.25 21.2917 36.25 24.625C36.25 26.025 36.025 27.35 35.575 28.6C35.125 29.85 34.5167 30.975 33.75 31.975C33.4167 32.4083 32.9667 32.6333 32.4 32.65C31.8333 32.6667 31.35 32.475 30.95 32.075C30.5833 31.7083 30.3917 31.2417 30.375 30.675C30.3583 30.1083 30.5167 29.5917 30.85 29.125C31.2833 28.4583 31.625 27.75 31.875 27C32.125 26.25 32.25 25.4583 32.25 24.625C32.25 22.425 31.4667 20.5417 29.9 18.975C28.3333 17.4083 26.45 16.625 24.25 16.625C22.05 16.625 20.1667 17.4083 18.6 18.975C17.0333 20.5417 16.25 22.425 16.25 24.625C16.25 25.4917 16.375 26.2917 16.625 27.025C16.875 27.7583 17.2167 28.4583 17.65 29.125C17.9833 29.5917 18.1417 30.1 18.125 30.65C18.1083 31.2 17.9167 31.6583 17.55 32.025Z"/>
    </symbol>

    <symbol viewBox="0 0 49 49" id="icon-journey-external_link">
      <path d="M14.75 34.625C11.9833 34.625 9.625 33.65 7.675 31.7C5.725 29.75 4.75 27.3917 4.75 24.625C4.75 21.8583 5.725 19.5 7.675 17.55C9.625 15.6 11.9833 14.625 14.75 14.625H20.75C21.3167 14.625 21.7917 14.8167 22.175 15.2C22.5583 15.5833 22.75 16.0583 22.75 16.625C22.75 17.1917 22.5583 17.6667 22.175 18.05C21.7917 18.4333 21.3167 18.625 20.75 18.625H14.75C13.0833 18.625 11.6667 19.2083 10.5 20.375C9.33333 21.5417 8.75 22.9583 8.75 24.625C8.75 26.2917 9.33333 27.7083 10.5 28.875C11.6667 30.0417 13.0833 30.625 14.75 30.625H20.75C21.3167 30.625 21.7917 30.8167 22.175 31.2C22.5583 31.5833 22.75 32.0583 22.75 32.625C22.75 33.1917 22.5583 33.6667 22.175 34.05C21.7917 34.4333 21.3167 34.625 20.75 34.625H14.75ZM18.75 26.625C18.1833 26.625 17.7083 26.4333 17.325 26.05C16.9417 25.6667 16.75 25.1917 16.75 24.625C16.75 24.0583 16.9417 23.5833 17.325 23.2C17.7083 22.8167 18.1833 22.625 18.75 22.625H30.75C31.3167 22.625 31.7917 22.8167 32.175 23.2C32.5583 23.5833 32.75 24.0583 32.75 24.625C32.75 25.1917 32.5583 25.6667 32.175 26.05C31.7917 26.4333 31.3167 26.625 30.75 26.625H18.75ZM28.75 34.625C28.1833 34.625 27.7083 34.4333 27.325 34.05C26.9417 33.6667 26.75 33.1917 26.75 32.625C26.75 32.0583 26.9417 31.5833 27.325 31.2C27.7083 30.8167 28.1833 30.625 28.75 30.625H34.75C36.4167 30.625 37.8333 30.0417 39 28.875C40.1667 27.7083 40.75 26.2917 40.75 24.625C40.75 22.9583 40.1667 21.5417 39 20.375C37.8333 19.2083 36.4167 18.625 34.75 18.625H28.75C28.1833 18.625 27.7083 18.4333 27.325 18.05C26.9417 17.6667 26.75 17.1917 26.75 16.625C26.75 16.0583 26.9417 15.5833 27.325 15.2C27.7083 14.8167 28.1833 14.625 28.75 14.625H34.75C37.5167 14.625 39.875 15.6 41.825 17.55C43.775 19.5 44.75 21.8583 44.75 24.625C44.75 27.3917 43.775 29.75 41.825 31.7C39.875 33.65 37.5167 34.625 34.75 34.625H28.75Z"/>
    </symbol>

    <symbol viewBox="0 0 49 49" id="icon-journey-video">
      <path d="M20.8 32.625L31.95 25.475C32.25 25.275 32.4 24.9917 32.4 24.625C32.4 24.2583 32.25 23.975 31.95 23.775L20.8 16.625C20.4667 16.3917 20.125 16.375 19.775 16.575C19.425 16.775 19.25 17.075 19.25 17.475V31.775C19.25 32.175 19.425 32.475 19.775 32.675C20.125 32.875 20.4667 32.8583 20.8 32.625ZM8.25 40.625C7.15 40.625 6.20833 40.2333 5.425 39.45C4.64167 38.6667 4.25 37.725 4.25 36.625V12.625C4.25 11.525 4.64167 10.5833 5.425 9.8C6.20833 9.01667 7.15 8.625 8.25 8.625H40.25C41.35 8.625 42.2917 9.01667 43.075 9.8C43.8583 10.5833 44.25 11.525 44.25 12.625V36.625C44.25 37.725 43.8583 38.6667 43.075 39.45C42.2917 40.2333 41.35 40.625 40.25 40.625H8.25ZM8.25 36.625H40.25V12.625H8.25V36.625Z"/>
    </symbol>

    <symbol viewBox="0 0 49 49"  id="icon-journey-survey">
      <path d="M10.75 8.625V20.675V20.625V40.625V8.625ZM16.75 28.625H20.75C21.3167 28.625 21.7917 28.4333 22.175 28.05C22.5583 27.6667 22.75 27.1917 22.75 26.625C22.75 26.0583 22.5583 25.5833 22.175 25.2C21.7917 24.8167 21.3167 24.625 20.75 24.625H16.75C16.1833 24.625 15.7083 24.8167 15.325 25.2C14.9417 25.5833 14.75 26.0583 14.75 26.625C14.75 27.1917 14.9417 27.6667 15.325 28.05C15.7083 28.4333 16.1833 28.625 16.75 28.625ZM16.75 36.625H18.75C19.3167 36.625 19.7917 36.4333 20.175 36.05C20.5583 35.6667 20.75 35.1917 20.75 34.625C20.75 34.0583 20.5583 33.5833 20.175 33.2C19.7917 32.8167 19.3167 32.625 18.75 32.625H16.75C16.1833 32.625 15.7083 32.8167 15.325 33.2C14.9417 33.5833 14.75 34.0583 14.75 34.625C14.75 35.1917 14.9417 35.6667 15.325 36.05C15.7083 36.4333 16.1833 36.625 16.75 36.625ZM10.75 44.625C9.65 44.625 8.70833 44.2333 7.925 43.45C7.14167 42.6667 6.75 41.725 6.75 40.625V8.625C6.75 7.525 7.14167 6.58333 7.925 5.8C8.70833 5.01667 9.65 4.625 10.75 4.625H25.1C25.6333 4.625 26.1417 4.725 26.625 4.925C27.1083 5.125 27.5333 5.40833 27.9 5.775L37.6 15.475C37.9667 15.8417 38.25 16.2667 38.45 16.75C38.65 17.2333 38.75 17.7417 38.75 18.275V19.675C38.75 20.2417 38.5583 20.7083 38.175 21.075C37.7917 21.4417 37.3167 21.625 36.75 21.625C36.1833 21.625 35.7083 21.4333 35.325 21.05C34.9417 20.6667 34.75 20.1917 34.75 19.625V18.625H26.75C26.1833 18.625 25.7083 18.4333 25.325 18.05C24.9417 17.6667 24.75 17.1917 24.75 16.625V8.625H10.75V40.625H21.75C22.3167 40.625 22.7917 40.8167 23.175 41.2C23.5583 41.5833 23.75 42.0583 23.75 42.625C23.75 43.1917 23.5583 43.6667 23.175 44.05C22.7917 44.4333 22.3167 44.625 21.75 44.625H10.75ZM33.75 38.625C35.15 38.625 36.3333 38.1417 37.3 37.175C38.2667 36.2083 38.75 35.025 38.75 33.625C38.75 32.225 38.2667 31.0417 37.3 30.075C36.3333 29.1083 35.15 28.625 33.75 28.625C32.35 28.625 31.1667 29.1083 30.2 30.075C29.2333 31.0417 28.75 32.225 28.75 33.625C28.75 35.025 29.2333 36.2083 30.2 37.175C31.1667 38.1417 32.35 38.625 33.75 38.625ZM45.35 45.225C44.9833 45.5917 44.5167 45.775 43.95 45.775C43.3833 45.775 42.9167 45.5917 42.55 45.225L38.55 41.225C37.85 41.6917 37.0917 42.0417 36.275 42.275C35.4583 42.5083 34.6167 42.625 33.75 42.625C31.25 42.625 29.125 41.75 27.375 40C25.625 38.25 24.75 36.125 24.75 33.625C24.75 31.125 25.625 29 27.375 27.25C29.125 25.5 31.25 24.625 33.75 24.625C36.25 24.625 38.375 25.5 40.125 27.25C41.875 29 42.75 31.125 42.75 33.625C42.75 34.4917 42.6333 35.3333 42.4 36.15C42.1667 36.9667 41.8167 37.725 41.35 38.425L45.35 42.425C45.7167 42.7917 45.9 43.2583 45.9 43.825C45.9 44.3917 45.7167 44.8583 45.35 45.225Z"/>
    </symbol>

    <symbol viewBox="0 0 49 49" id="icon-journey-alert">
      <path d="M10.75 38.5C10.1833 38.5 9.70833 38.3083 9.325 37.925C8.94167 37.5417 8.75 37.0667 8.75 36.5C8.75 35.9333 8.94167 35.4583 9.325 35.075C9.70833 34.6917 10.1833 34.5 10.75 34.5H12.75V20.5C12.75 17.7333 13.5833 15.275 15.25 13.125C16.9167 10.975 19.0833 9.56667 21.75 8.9V7.5C21.75 6.66667 22.0417 5.95833 22.625 5.375C23.2083 4.79167 23.9167 4.5 24.75 4.5C25.5833 4.5 26.2917 4.79167 26.875 5.375C27.4583 5.95833 27.75 6.66667 27.75 7.5V8.9C30.4167 9.56667 32.5833 10.975 34.25 13.125C35.9167 15.275 36.75 17.7333 36.75 20.5V34.5H38.75C39.3167 34.5 39.7917 34.6917 40.175 35.075C40.5583 35.4583 40.75 35.9333 40.75 36.5C40.75 37.0667 40.5583 37.5417 40.175 37.925C39.7917 38.3083 39.3167 38.5 38.75 38.5H10.75ZM24.75 44.5C23.65 44.5 22.7083 44.1083 21.925 43.325C21.1417 42.5417 20.75 41.6 20.75 40.5H28.75C28.75 41.6 28.3583 42.5417 27.575 43.325C26.7917 44.1083 25.85 44.5 24.75 44.5ZM16.75 34.5H32.75V20.5C32.75 18.3 31.9667 16.4167 30.4 14.85C28.8333 13.2833 26.95 12.5 24.75 12.5C22.55 12.5 20.6667 13.2833 19.1 14.85C17.5333 16.4167 16.75 18.3 16.75 20.5V34.5Z"/>
    </symbol>

    <symbol viewBox="0 0 49 49" id="icon-journey-calendar">
      <path d="M10.25 44.5C9.15 44.5 8.20833 44.1083 7.425 43.325C6.64167 42.5417 6.25 41.6 6.25 40.5V12.5C6.25 11.4 6.64167 10.4583 7.425 9.675C8.20833 8.89167 9.15 8.5 10.25 8.5H12.25V6.5C12.25 5.93333 12.4417 5.45833 12.825 5.075C13.2083 4.69167 13.6833 4.5 14.25 4.5C14.8167 4.5 15.2917 4.69167 15.675 5.075C16.0583 5.45833 16.25 5.93333 16.25 6.5V8.5H32.25V6.5C32.25 5.93333 32.4417 5.45833 32.825 5.075C33.2083 4.69167 33.6833 4.5 34.25 4.5C34.8167 4.5 35.2917 4.69167 35.675 5.075C36.0583 5.45833 36.25 5.93333 36.25 6.5V8.5H38.25C39.35 8.5 40.2917 8.89167 41.075 9.675C41.8583 10.4583 42.25 11.4 42.25 12.5V40.5C42.25 41.6 41.8583 42.5417 41.075 43.325C40.2917 44.1083 39.35 44.5 38.25 44.5H10.25ZM10.25 40.5H38.25V20.5H10.25V40.5ZM10.25 16.5H38.25V12.5H10.25V16.5ZM24.25 28.5C23.6833 28.5 23.2083 28.3083 22.825 27.925C22.4417 27.5417 22.25 27.0667 22.25 26.5C22.25 25.9333 22.4417 25.4583 22.825 25.075C23.2083 24.6917 23.6833 24.5 24.25 24.5C24.8167 24.5 25.2917 24.6917 25.675 25.075C26.0583 25.4583 26.25 25.9333 26.25 26.5C26.25 27.0667 26.0583 27.5417 25.675 27.925C25.2917 28.3083 24.8167 28.5 24.25 28.5ZM16.25 28.5C15.6833 28.5 15.2083 28.3083 14.825 27.925C14.4417 27.5417 14.25 27.0667 14.25 26.5C14.25 25.9333 14.4417 25.4583 14.825 25.075C15.2083 24.6917 15.6833 24.5 16.25 24.5C16.8167 24.5 17.2917 24.6917 17.675 25.075C18.0583 25.4583 18.25 25.9333 18.25 26.5C18.25 27.0667 18.0583 27.5417 17.675 27.925C17.2917 28.3083 16.8167 28.5 16.25 28.5ZM32.25 28.5C31.6833 28.5 31.2083 28.3083 30.825 27.925C30.4417 27.5417 30.25 27.0667 30.25 26.5C30.25 25.9333 30.4417 25.4583 30.825 25.075C31.2083 24.6917 31.6833 24.5 32.25 24.5C32.8167 24.5 33.2917 24.6917 33.675 25.075C34.0583 25.4583 34.25 25.9333 34.25 26.5C34.25 27.0667 34.0583 27.5417 33.675 27.925C33.2917 28.3083 32.8167 28.5 32.25 28.5ZM24.25 36.5C23.6833 36.5 23.2083 36.3083 22.825 35.925C22.4417 35.5417 22.25 35.0667 22.25 34.5C22.25 33.9333 22.4417 33.4583 22.825 33.075C23.2083 32.6917 23.6833 32.5 24.25 32.5C24.8167 32.5 25.2917 32.6917 25.675 33.075C26.0583 33.4583 26.25 33.9333 26.25 34.5C26.25 35.0667 26.0583 35.5417 25.675 35.925C25.2917 36.3083 24.8167 36.5 24.25 36.5ZM16.25 36.5C15.6833 36.5 15.2083 36.3083 14.825 35.925C14.4417 35.5417 14.25 35.0667 14.25 34.5C14.25 33.9333 14.4417 33.4583 14.825 33.075C15.2083 32.6917 15.6833 32.5 16.25 32.5C16.8167 32.5 17.2917 32.6917 17.675 33.075C18.0583 33.4583 18.25 33.9333 18.25 34.5C18.25 35.0667 18.0583 35.5417 17.675 35.925C17.2917 36.3083 16.8167 36.5 16.25 36.5ZM32.25 36.5C31.6833 36.5 31.2083 36.3083 30.825 35.925C30.4417 35.5417 30.25 35.0667 30.25 34.5C30.25 33.9333 30.4417 33.4583 30.825 33.075C31.2083 32.6917 31.6833 32.5 32.25 32.5C32.8167 32.5 33.2917 32.6917 33.675 33.075C34.0583 33.4583 34.25 33.9333 34.25 34.5C34.25 35.0667 34.0583 35.5417 33.675 35.925C33.2917 36.3083 32.8167 36.5 32.25 36.5Z"/>
    </symbol>

    <symbol viewBox="0 0 49 49" id="icon-journey-library">
      <path d="M22.75 28.5H26.75C27.3167 28.5 27.7917 28.3083 28.175 27.925C28.5583 27.5417 28.75 27.0667 28.75 26.5C28.75 25.9333 28.5583 25.4583 28.175 25.075C27.7917 24.6917 27.3167 24.5 26.75 24.5H22.75C22.1833 24.5 21.7083 24.6917 21.325 25.075C20.9417 25.4583 20.75 25.9333 20.75 26.5C20.75 27.0667 20.9417 27.5417 21.325 27.925C21.7083 28.3083 22.1833 28.5 22.75 28.5ZM22.75 22.5H34.75C35.3167 22.5 35.7917 22.3083 36.175 21.925C36.5583 21.5417 36.75 21.0667 36.75 20.5C36.75 19.9333 36.5583 19.4583 36.175 19.075C35.7917 18.6917 35.3167 18.5 34.75 18.5H22.75C22.1833 18.5 21.7083 18.6917 21.325 19.075C20.9417 19.4583 20.75 19.9333 20.75 20.5C20.75 21.0667 20.9417 21.5417 21.325 21.925C21.7083 22.3083 22.1833 22.5 22.75 22.5ZM22.75 16.5H34.75C35.3167 16.5 35.7917 16.3083 36.175 15.925C36.5583 15.5417 36.75 15.0667 36.75 14.5C36.75 13.9333 36.5583 13.4583 36.175 13.075C35.7917 12.6917 35.3167 12.5 34.75 12.5H22.75C22.1833 12.5 21.7083 12.6917 21.325 13.075C20.9417 13.4583 20.75 13.9333 20.75 14.5C20.75 15.0667 20.9417 15.5417 21.325 15.925C21.7083 16.3083 22.1833 16.5 22.75 16.5ZM16.75 36.5C15.65 36.5 14.7083 36.1083 13.925 35.325C13.1417 34.5417 12.75 33.6 12.75 32.5V8.5C12.75 7.4 13.1417 6.45833 13.925 5.675C14.7083 4.89167 15.65 4.5 16.75 4.5H40.75C41.85 4.5 42.7917 4.89167 43.575 5.675C44.3583 6.45833 44.75 7.4 44.75 8.5V32.5C44.75 33.6 44.3583 34.5417 43.575 35.325C42.7917 36.1083 41.85 36.5 40.75 36.5H16.75ZM16.75 32.5H40.75V8.5H16.75V32.5ZM8.75 44.5C7.65 44.5 6.70833 44.1083 5.925 43.325C5.14167 42.5417 4.75 41.6 4.75 40.5V14.5C4.75 13.9333 4.94167 13.4583 5.325 13.075C5.70833 12.6917 6.18333 12.5 6.75 12.5C7.31667 12.5 7.79167 12.6917 8.175 13.075C8.55833 13.4583 8.75 13.9333 8.75 14.5V40.5H34.75C35.3167 40.5 35.7917 40.6917 36.175 41.075C36.5583 41.4583 36.75 41.9333 36.75 42.5C36.75 43.0667 36.5583 43.5417 36.175 43.925C35.7917 44.3083 35.3167 44.5 34.75 44.5H8.75Z"/>
    </symbol>

    <symbol viewBox="0 0 49 49" id="icon-journey-live-room">
      <path d="M8.25 40.5C7.15 40.5 6.20833 40.1083 5.425 39.325C4.64167 38.5417 4.25 37.6 4.25 36.5V12.5C4.25 11.4 4.64167 10.4583 5.425 9.675C6.20833 8.89167 7.15 8.5 8.25 8.5H32.25C33.35 8.5 34.2917 8.89167 35.075 9.675C35.8583 10.4583 36.25 11.4 36.25 12.5V21.5L42.55 15.2C42.8833 14.8667 43.25 14.7833 43.65 14.95C44.05 15.1167 44.25 15.4333 44.25 15.9V33.1C44.25 33.5667 44.05 33.8833 43.65 34.05C43.25 34.2167 42.8833 34.1333 42.55 33.8L36.25 27.5V36.5C36.25 37.6 35.8583 38.5417 35.075 39.325C34.2917 40.1083 33.35 40.5 32.25 40.5H8.25ZM8.25 36.5H32.25V12.5H8.25V36.5Z"/>
    </symbol>

    <symbol viewBox="0 0 49 49" id="icon-journey-forum">
      <path d="M10.75 42.5C9.65 42.5 8.70833 42.1083 7.925 41.325C7.14167 40.5417 6.75 39.6 6.75 38.5V10.5C6.75 9.4 7.14167 8.45833 7.925 7.675C8.70833 6.89167 9.65 6.5 10.75 6.5H26.75C27.3167 6.5 27.7917 6.69167 28.175 7.075C28.5583 7.45833 28.75 7.93333 28.75 8.5C28.75 9.06667 28.5583 9.54167 28.175 9.925C27.7917 10.3083 27.3167 10.5 26.75 10.5H10.75V38.5H38.75V22.5C38.75 21.9333 38.9417 21.4583 39.325 21.075C39.7083 20.6917 40.1833 20.5 40.75 20.5C41.3167 20.5 41.7917 20.6917 42.175 21.075C42.5583 21.4583 42.75 21.9333 42.75 22.5V38.5C42.75 39.6 42.3583 40.5417 41.575 41.325C40.7917 42.1083 39.85 42.5 38.75 42.5H10.75ZM18.75 34.5C18.1833 34.5 17.7083 34.3083 17.325 33.925C16.9417 33.5417 16.75 33.0667 16.75 32.5C16.75 31.9333 16.9417 31.4583 17.325 31.075C17.7083 30.6917 18.1833 30.5 18.75 30.5H30.75C31.3167 30.5 31.7917 30.6917 32.175 31.075C32.5583 31.4583 32.75 31.9333 32.75 32.5C32.75 33.0667 32.5583 33.5417 32.175 33.925C31.7917 34.3083 31.3167 34.5 30.75 34.5H18.75ZM18.75 28.5C18.1833 28.5 17.7083 28.3083 17.325 27.925C16.9417 27.5417 16.75 27.0667 16.75 26.5C16.75 25.9333 16.9417 25.4583 17.325 25.075C17.7083 24.6917 18.1833 24.5 18.75 24.5H30.75C31.3167 24.5 31.7917 24.6917 32.175 25.075C32.5583 25.4583 32.75 25.9333 32.75 26.5C32.75 27.0667 32.5583 27.5417 32.175 27.925C31.7917 28.3083 31.3167 28.5 30.75 28.5H18.75ZM18.75 22.5C18.1833 22.5 17.7083 22.3083 17.325 21.925C16.9417 21.5417 16.75 21.0667 16.75 20.5C16.75 19.9333 16.9417 19.4583 17.325 19.075C17.7083 18.6917 18.1833 18.5 18.75 18.5H30.75C31.3167 18.5 31.7917 18.6917 32.175 19.075C32.5583 19.4583 32.75 19.9333 32.75 20.5C32.75 21.0667 32.5583 21.5417 32.175 21.925C31.7917 22.3083 31.3167 22.5 30.75 22.5H18.75ZM36.75 18.5C36.1833 18.5 35.7083 18.3083 35.325 17.925C34.9417 17.5417 34.75 17.0667 34.75 16.5V14.5H32.75C32.1833 14.5 31.7083 14.3083 31.325 13.925C30.9417 13.5417 30.75 13.0667 30.75 12.5C30.75 11.9333 30.9417 11.4583 31.325 11.075C31.7083 10.6917 32.1833 10.5 32.75 10.5H34.75V8.5C34.75 7.93333 34.9417 7.45833 35.325 7.075C35.7083 6.69167 36.1833 6.5 36.75 6.5C37.3167 6.5 37.7917 6.69167 38.175 7.075C38.5583 7.45833 38.75 7.93333 38.75 8.5V10.5H40.75C41.3167 10.5 41.7917 10.6917 42.175 11.075C42.5583 11.4583 42.75 11.9333 42.75 12.5C42.75 13.0667 42.5583 13.5417 42.175 13.925C41.7917 14.3083 41.3167 14.5 40.75 14.5H38.75V16.5C38.75 17.0667 38.5583 17.5417 38.175 17.925C37.7917 18.3083 37.3167 18.5 36.75 18.5Z"/>
    </symbol>

    <symbol viewBox="0 0 49 49" id="icon-journey-chat">
      <path d="M14.25 36.5C13.6833 36.5 13.2083 36.3083 12.825 35.925C12.4417 35.5417 12.25 35.0667 12.25 34.5V30.5H38.25V12.5H42.25C42.8167 12.5 43.2917 12.6917 43.675 13.075C44.0583 13.4583 44.25 13.9333 44.25 14.5V39.65C44.25 40.55 43.8417 41.175 43.025 41.525C42.2083 41.875 41.4833 41.7333 40.85 41.1L36.25 36.5H14.25ZM12.25 26.5L7.65 31.1C7.01667 31.7333 6.29167 31.875 5.475 31.525C4.65833 31.175 4.25 30.55 4.25 29.65V6.5C4.25 5.93333 4.44167 5.45833 4.825 5.075C5.20833 4.69167 5.68333 4.5 6.25 4.5H32.25C32.8167 4.5 33.2917 4.69167 33.675 5.075C34.0583 5.45833 34.25 5.93333 34.25 6.5V24.5C34.25 25.0667 34.0583 25.5417 33.675 25.925C33.2917 26.3083 32.8167 26.5 32.25 26.5H12.25ZM30.25 22.5V8.5H8.25V22.5H30.25Z"/>
    </symbol>

    <symbol viewBox="0 0 49 49" id="icon-journey-message">
      <path d="M8.75 40.5C7.65 40.5 6.70833 40.1083 5.925 39.325C5.14167 38.5417 4.75 37.6 4.75 36.5V12.5C4.75 11.4 5.14167 10.4583 5.925 9.675C6.70833 8.89167 7.65 8.5 8.75 8.5H40.75C41.85 8.5 42.7917 8.89167 43.575 9.675C44.3583 10.4583 44.75 11.4 44.75 12.5V36.5C44.75 37.6 44.3583 38.5417 43.575 39.325C42.7917 40.1083 41.85 40.5 40.75 40.5H8.75ZM40.75 16.5L25.8 25.85C25.6333 25.95 25.4583 26.025 25.275 26.075C25.0917 26.125 24.9167 26.15 24.75 26.15C24.5833 26.15 24.4083 26.125 24.225 26.075C24.0417 26.025 23.8667 25.95 23.7 25.85L8.75 16.5V36.5H40.75V16.5ZM24.75 22.5L40.75 12.5H8.75L24.75 22.5ZM8.75 17V14.05V14.1V14.075V17Z"/>
    </symbol>

    <symbol viewBox="0 0 49 49"  id="icon-journey-pool">
      <path d="M10.75 8.625V20.675V20.625V40.625V8.625ZM16.75 28.625H20.75C21.3167 28.625 21.7917 28.4333 22.175 28.05C22.5583 27.6667 22.75 27.1917 22.75 26.625C22.75 26.0583 22.5583 25.5833 22.175 25.2C21.7917 24.8167 21.3167 24.625 20.75 24.625H16.75C16.1833 24.625 15.7083 24.8167 15.325 25.2C14.9417 25.5833 14.75 26.0583 14.75 26.625C14.75 27.1917 14.9417 27.6667 15.325 28.05C15.7083 28.4333 16.1833 28.625 16.75 28.625ZM16.75 36.625H18.75C19.3167 36.625 19.7917 36.4333 20.175 36.05C20.5583 35.6667 20.75 35.1917 20.75 34.625C20.75 34.0583 20.5583 33.5833 20.175 33.2C19.7917 32.8167 19.3167 32.625 18.75 32.625H16.75C16.1833 32.625 15.7083 32.8167 15.325 33.2C14.9417 33.5833 14.75 34.0583 14.75 34.625C14.75 35.1917 14.9417 35.6667 15.325 36.05C15.7083 36.4333 16.1833 36.625 16.75 36.625ZM10.75 44.625C9.65 44.625 8.70833 44.2333 7.925 43.45C7.14167 42.6667 6.75 41.725 6.75 40.625V8.625C6.75 7.525 7.14167 6.58333 7.925 5.8C8.70833 5.01667 9.65 4.625 10.75 4.625H25.1C25.6333 4.625 26.1417 4.725 26.625 4.925C27.1083 5.125 27.5333 5.40833 27.9 5.775L37.6 15.475C37.9667 15.8417 38.25 16.2667 38.45 16.75C38.65 17.2333 38.75 17.7417 38.75 18.275V19.675C38.75 20.2417 38.5583 20.7083 38.175 21.075C37.7917 21.4417 37.3167 21.625 36.75 21.625C36.1833 21.625 35.7083 21.4333 35.325 21.05C34.9417 20.6667 34.75 20.1917 34.75 19.625V18.625H26.75C26.1833 18.625 25.7083 18.4333 25.325 18.05C24.9417 17.6667 24.75 17.1917 24.75 16.625V8.625H10.75V40.625H21.75C22.3167 40.625 22.7917 40.8167 23.175 41.2C23.5583 41.5833 23.75 42.0583 23.75 42.625C23.75 43.1917 23.5583 43.6667 23.175 44.05C22.7917 44.4333 22.3167 44.625 21.75 44.625H10.75ZM33.75 38.625C35.15 38.625 36.3333 38.1417 37.3 37.175C38.2667 36.2083 38.75 35.025 38.75 33.625C38.75 32.225 38.2667 31.0417 37.3 30.075C36.3333 29.1083 35.15 28.625 33.75 28.625C32.35 28.625 31.1667 29.1083 30.2 30.075C29.2333 31.0417 28.75 32.225 28.75 33.625C28.75 35.025 29.2333 36.2083 30.2 37.175C31.1667 38.1417 32.35 38.625 33.75 38.625ZM45.35 45.225C44.9833 45.5917 44.5167 45.775 43.95 45.775C43.3833 45.775 42.9167 45.5917 42.55 45.225L38.55 41.225C37.85 41.6917 37.0917 42.0417 36.275 42.275C35.4583 42.5083 34.6167 42.625 33.75 42.625C31.25 42.625 29.125 41.75 27.375 40C25.625 38.25 24.75 36.125 24.75 33.625C24.75 31.125 25.625 29 27.375 27.25C29.125 25.5 31.25 24.625 33.75 24.625C36.25 24.625 38.375 25.5 40.125 27.25C41.875 29 42.75 31.125 42.75 33.625C42.75 34.4917 42.6333 35.3333 42.4 36.15C42.1667 36.9667 41.8167 37.725 41.35 38.425L45.35 42.425C45.7167 42.7917 45.9 43.2583 45.9 43.825C45.9 44.3917 45.7167 44.8583 45.35 45.225Z"/>
    </symbol>

    <symbol viewBox="0 0 24 24" id="icon-journey-tree-arrow-down">
      <path d="M11.4742 14.475L7.84922 10.85C7.79922 10.8 7.76172 10.7458 7.73672 10.6875C7.71172 10.6292 7.69922 10.5667 7.69922 10.5C7.69922 10.3667 7.74505 10.25 7.83672 10.15C7.92839 10.05 8.04922 10 8.19922 10H15.7992C15.9492 10 16.0701 10.05 16.1617 10.15C16.2534 10.25 16.2992 10.3667 16.2992 10.5C16.2992 10.5333 16.2492 10.65 16.1492 10.85L12.5242 14.475C12.4409 14.5583 12.3576 14.6167 12.2742 14.65C12.1909 14.6833 12.0992 14.7 11.9992 14.7C11.8992 14.7 11.8076 14.6833 11.7242 14.65C11.6409 14.6167 11.5576 14.5583 11.4742 14.475Z"/>
    </symbol>

    <symbol viewBox="0 0 24 24" id="icon-journey-tree-arrow-right">
      <path d="M14.475 12.525L10.85 16.15C10.8 16.2 10.7458 16.2375 10.6875 16.2625C10.6292 16.2875 10.5667 16.3 10.5 16.3C10.3667 16.3 10.25 16.2542 10.15 16.1625C10.05 16.0708 10 15.95 10 15.8V8.19999C10 8.04999 10.05 7.92915 10.15 7.83749C10.25 7.74582 10.3667 7.69999 10.5 7.69999C10.5333 7.69999 10.65 7.74999 10.85 7.84999L14.475 11.475C14.5583 11.5583 14.6167 11.6417 14.65 11.725C14.6833 11.8083 14.7 11.9 14.7 12C14.7 12.1 14.6833 12.1917 14.65 12.275C14.6167 12.3583 14.5583 12.4417 14.475 12.525Z"/>
    </symbol>

    <symbol viewBox="0 0 25 25" id="icon-journey-expand-panel">
      <path d="M3.5 18.5C3.21666 18.5 2.97916 18.4042 2.7875 18.2125C2.59583 18.0208 2.5 17.7833 2.5 17.5L2.5 7.5C2.5 7.21667 2.59583 6.97917 2.7875 6.7875C2.97917 6.59583 3.21667 6.5 3.5 6.5C3.78333 6.5 4.02083 6.59583 4.2125 6.7875C4.40417 6.97917 4.5 7.21667 4.5 7.5L4.5 17.5C4.5 17.7833 4.40416 18.0208 4.2125 18.2125C4.02083 18.4042 3.78333 18.5 3.5 18.5ZM18.675 13.5L7.5 13.5C7.21667 13.5 6.97917 13.4042 6.7875 13.2125C6.59583 13.0208 6.5 12.7833 6.5 12.5C6.5 12.2167 6.59583 11.9792 6.7875 11.7875C6.97917 11.5958 7.21667 11.5 7.5 11.5L18.675 11.5L15.8 8.6C15.6167 8.41667 15.5208 8.1875 15.5125 7.9125C15.5042 7.6375 15.6 7.4 15.8 7.2C15.9833 7.01667 16.2167 6.925 16.5 6.925C16.7833 6.925 17.0167 7.01667 17.2 7.2L21.8 11.8C21.9 11.9 21.9708 12.0083 22.0125 12.125C22.0542 12.2417 22.075 12.3667 22.075 12.5C22.075 12.6333 22.0542 12.7583 22.0125 12.875C21.9708 12.9917 21.9 13.1 21.8 13.2L17.2 17.8C17.0167 17.9833 16.7875 18.075 16.5125 18.075C16.2375 18.075 16 17.9833 15.8 17.8C15.6 17.6 15.5 17.3625 15.5 17.0875C15.5 16.8125 15.6 16.575 15.8 16.375L18.675 13.5Z"/>
    </symbol>

    <symbol viewBox="0 0 248 248" fill="none" id="icon-journey-add">
      <path fill-rule="evenodd" clip-rule="evenodd" d="M200.376 89.2139V114.893C200.376 115.963 201.244 116.831 202.314 116.831C203.383 116.831 204.251 115.963 204.251 114.893V89.2139C204.251 88.1444 203.383 87.2764 202.314 87.2764C201.244 87.2764 200.376 88.1444 200.376 89.2139Z" fill="#898E97"/>
      <path fill-rule="evenodd" clip-rule="evenodd" d="M189.313 209.369C188.399 211.458 187.407 213.43 186.329 215.248C185.981 215.829 185.353 216.182 184.675 216.182C169.814 216.186 81.8091 216.186 57.2028 216.186C56.5247 216.186 55.893 215.829 55.5443 215.248C55.1917 214.663 55.1762 213.938 55.4939 213.337C55.5133 213.306 55.5288 213.272 55.5443 213.241C67.7002 186.848 68.6263 140.914 68.6263 140.914V118.702C68.6263 117.633 67.7583 116.765 66.6888 116.765C65.6193 116.765 64.7513 117.633 64.7513 118.702V140.856C64.7319 141.848 63.7864 186.015 52.0529 211.555C51.1152 213.368 51.181 215.511 52.2195 217.24C53.2697 218.987 55.1607 220.061 57.1989 220.061C81.8052 220.061 169.818 220.061 184.675 220.057C186.713 220.057 188.6 218.991 189.65 217.247L189.658 217.232C190.813 215.283 191.882 213.167 192.863 210.927C193.293 209.947 192.847 208.804 191.867 208.374C190.886 207.943 189.743 208.389 189.313 209.369Z" fill="#898E97"/>
      <path fill-rule="evenodd" clip-rule="evenodd" d="M68.6262 42.4271V33.751C68.6262 32.6815 69.4942 31.8135 70.5637 31.8135H148.304C149.373 31.8135 150.241 30.9455 150.241 29.876C150.241 28.8065 149.373 27.9385 148.304 27.9385C148.304 27.9385 86.7728 27.9385 70.5637 27.9385C67.3552 27.9385 64.7512 30.5386 64.7512 33.751V42.4271C64.7512 43.4966 65.6192 44.3646 66.6887 44.3646C67.7582 44.3646 68.6262 43.4966 68.6262 42.4271Z" fill="#898E97"/>
      <path fill-rule="evenodd" clip-rule="evenodd" d="M157.991 27.9385H157.957C157.596 27.9385 157.232 28.0392 156.914 28.2446C156.24 28.6747 155.899 29.4846 156.066 30.2712C158.922 43.9151 160.324 57.7217 158.941 71.8384C158.751 73.617 159.406 75.3995 160.712 76.6395C161.797 77.6702 163.223 78.236 164.695 78.2399H164.777C165.056 78.236 165.335 78.2127 165.614 78.1701C170.465 77.4184 175.274 76.9766 180.013 76.9844H180.296C187.589 77.0231 194.719 78.143 201.601 80.8594C201.829 80.9485 202.066 80.9911 202.302 80.995H202.337C202.88 80.9872 203.407 80.7509 203.779 80.3246C204.317 79.7046 204.402 78.8095 203.996 78.0965C193.064 58.985 178.087 42.4039 159.115 28.3182C158.782 28.0702 158.387 27.9424 157.991 27.9385Z" fill="#139BA8"/>
      <path fill-rule="evenodd" clip-rule="evenodd" d="M204.065 122.062C181.606 122.062 163.378 140.294 163.378 162.75C163.378 185.206 181.606 203.438 204.065 203.438C226.521 203.438 244.753 185.206 244.753 162.75C244.753 140.294 226.521 122.062 204.065 122.062ZM204.065 125.938C224.382 125.938 240.878 142.433 240.878 162.75C240.878 183.067 224.382 199.562 204.065 199.562C183.745 199.562 167.253 183.067 167.253 162.75C167.253 142.433 183.745 125.938 204.065 125.938Z" fill="#898E97"/>
      <path fill-rule="evenodd" clip-rule="evenodd" d="M200.19 143.375V182.125C200.19 184.264 201.926 186 204.065 186C206.204 186 207.94 184.264 207.94 182.125V143.375C207.94 141.236 206.204 139.5 204.065 139.5C201.926 139.5 200.19 141.236 200.19 143.375Z" fill="#139BA8"/>
      <path fill-rule="evenodd" clip-rule="evenodd" d="M223.44 158.875H184.69C182.551 158.875 180.815 160.611 180.815 162.75C180.815 164.889 182.551 166.625 184.69 166.625H223.44C225.579 166.625 227.315 164.889 227.315 162.75C227.315 160.611 225.579 158.875 223.44 158.875Z" fill="#139BA8"/>
      <path fill-rule="evenodd" clip-rule="evenodd" d="M87.7223 88.4083L95.666 85.1959C97.8632 84.3085 99.3008 82.1773 99.3008 79.8058C99.3008 77.4381 97.8593 75.3069 95.666 74.4195C93.2248 73.4314 90.489 72.327 87.73 71.211C76.5274 66.685 67.642 57.8035 63.1122 46.6009L59.8959 38.6494C59.0085 36.4523 56.8773 35.0146 54.5058 35.0146C52.1382 35.0146 50.0069 36.4523 49.1195 38.6494L45.9149 46.5776C41.3889 57.7803 32.5074 66.6656 21.3048 71.1955C18.5342 72.3193 15.7868 73.4275 13.3417 74.4195C11.1445 75.3069 9.70691 77.4381 9.70691 79.8058C9.70691 82.1773 11.1445 84.3085 13.3417 85.1959C15.7907 86.184 18.538 87.2961 21.3087 88.4199C32.5113 92.9498 41.3928 101.835 45.9188 113.038L49.1195 120.962C50.0069 123.159 52.1382 124.597 54.5058 124.597C56.8773 124.597 59.0085 123.159 59.8959 120.962C60.884 118.525 61.9923 115.785 63.1083 113.022C67.6343 101.82 76.5197 92.9343 87.7223 88.4083ZM94.2129 81.6038L86.2691 84.8161C74.0939 89.7374 64.4374 99.3939 59.5162 111.569C58.3963 114.332 57.2919 117.072 56.3038 119.513C56.0093 120.241 55.2963 120.722 54.5097 120.722C53.7192 120.722 53.0062 120.241 52.7117 119.509L49.5109 111.589C44.5897 99.4094 34.937 89.7529 22.7618 84.8278L14.7948 81.6038C14.0624 81.3054 13.5819 80.5963 13.5819 79.8058C13.5819 79.0191 14.0624 78.3061 14.7948 78.0116L22.7579 74.7915C34.9332 69.8664 44.5897 60.206 49.507 48.0308L52.7117 40.1025C53.0062 39.3701 53.7192 38.8896 54.5097 38.8896C55.2963 38.8896 56.0093 39.3663 56.3038 40.0986L59.52 48.054C64.4452 60.2293 74.1016 69.8858 86.2769 74.8032L94.2129 78.0116C94.9453 78.3061 95.4258 79.0191 95.4258 79.8058C95.4258 80.5963 94.9453 81.3093 94.2129 81.6038Z" fill="#898E97"/>
      <path fill-rule="evenodd" clip-rule="evenodd" d="M134.079 150.28C135.954 149.525 137.179 147.704 137.179 145.681C137.179 143.662 135.951 141.841 134.079 141.085L134.071 141.081C124.035 137.024 116.072 129.065 112.011 119.025L112.003 119.009C111.247 117.134 109.426 115.905 107.407 115.905C105.385 115.909 103.563 117.134 102.808 119.009C98.7506 129.049 90.7913 137.012 80.7512 141.073L80.7357 141.081C78.8602 141.837 77.6318 143.658 77.6318 145.681C77.6318 147.704 78.8602 149.525 80.7357 150.284C80.7435 150.288 80.7512 150.288 80.759 150.292C90.7952 154.353 98.7506 162.312 102.808 172.352L102.812 172.36C103.567 174.236 105.385 175.46 107.407 175.46C109.426 175.46 111.244 174.236 112.003 172.364C112.003 172.356 112.007 172.349 112.007 172.349C116.068 162.305 124.027 154.341 134.071 150.284L134.079 150.28ZM132.626 146.688L132.618 146.692C121.601 151.145 112.867 159.879 108.415 170.895L108.407 170.911C108.244 171.318 107.845 171.585 107.407 171.585C106.966 171.585 106.57 171.318 106.404 170.911L106.4 170.899C101.951 159.89 93.221 151.156 82.2121 146.7L82.1888 146.692C81.7781 146.526 81.5068 146.126 81.5068 145.681C81.5068 145.239 81.7781 144.84 82.1888 144.673L82.2043 144.666C93.2171 140.213 101.951 131.475 106.4 120.462C106.566 120.052 106.966 119.78 107.407 119.78C107.849 119.78 108.248 120.052 108.411 120.458L108.419 120.478C112.871 131.491 121.609 140.225 132.622 144.673L132.626 144.677C133.037 144.844 133.304 145.239 133.304 145.681C133.304 146.126 133.037 146.522 132.626 146.688Z" fill="#898E97"/>
    </symbol>

    <symbol viewBox="0 0 24 25" id="icon-journey-trash">
      <path d="M7 21.5C6.45 21.5 5.97917 21.3042 5.5875 20.9125C5.19583 20.5208 5 20.05 5 19.5V6.5C4.71667 6.5 4.47917 6.40417 4.2875 6.2125C4.09583 6.02083 4 5.78333 4 5.5C4 5.21667 4.09583 4.97917 4.2875 4.7875C4.47917 4.59583 4.71667 4.5 5 4.5H9C9 4.21667 9.09583 3.97917 9.2875 3.7875C9.47917 3.59583 9.71667 3.5 10 3.5H14C14.2833 3.5 14.5208 3.59583 14.7125 3.7875C14.9042 3.97917 15 4.21667 15 4.5H19C19.2833 4.5 19.5208 4.59583 19.7125 4.7875C19.9042 4.97917 20 5.21667 20 5.5C20 5.78333 19.9042 6.02083 19.7125 6.2125C19.5208 6.40417 19.2833 6.5 19 6.5V19.5C19 20.05 18.8042 20.5208 18.4125 20.9125C18.0208 21.3042 17.55 21.5 17 21.5H7ZM17 6.5H7V19.5H17V6.5ZM10 17.5C10.2833 17.5 10.5208 17.4042 10.7125 17.2125C10.9042 17.0208 11 16.7833 11 16.5V9.5C11 9.21667 10.9042 8.97917 10.7125 8.7875C10.5208 8.59583 10.2833 8.5 10 8.5C9.71667 8.5 9.47917 8.59583 9.2875 8.7875C9.09583 8.97917 9 9.21667 9 9.5V16.5C9 16.7833 9.09583 17.0208 9.2875 17.2125C9.47917 17.4042 9.71667 17.5 10 17.5ZM14 17.5C14.2833 17.5 14.5208 17.4042 14.7125 17.2125C14.9042 17.0208 15 16.7833 15 16.5V9.5C15 9.21667 14.9042 8.97917 14.7125 8.7875C14.5208 8.59583 14.2833 8.5 14 8.5C13.7167 8.5 13.4792 8.59583 13.2875 8.7875C13.0958 8.97917 13 9.21667 13 9.5V16.5C13 16.7833 13.0958 17.0208 13.2875 17.2125C13.4792 17.4042 13.7167 17.5 14 17.5Z" />
    </symbol>

    <symbol id="icon-check-outline">
      <svg viewBox="0 0 24 24">
      <path fill="currentColor" d="M23 12L20.6 9.2L20.9 5.5L17.3 4.7L15.4 1.5L12 3L8.6 1.5L6.7 4.7L3.1 5.5L3.4 9.2L1 12L3.4 14.8L3.1 18.5L6.7 19.3L8.6 22.5L12 21L15.4 22.5L17.3 19.3L20.9 18.5L20.6 14.8L23 12M18.7 16.9L16 17.5L14.6 19.9L12 18.8L9.4 19.9L8 17.5L5.3 16.9L5.5 14.1L3.7 12L5.5 9.9L5.3 7.1L8 6.5L9.4 4.1L12 5.2L14.6 4.1L16 6.5L18.7 7.1L18.5 9.9L20.3 12L18.5 14.1L18.7 16.9M16.6 7.6L18 9L10 17L6 13L7.4 11.6L10 14.2L16.6 7.6Z" />
      </svg>
    </symbol>

    <symbol viewBox="0 -960 960 960" id="icon-check-circle">
      <path d="m424-408-86-86q-11-11-28-11t-28 11q-11 11-11 28t11 28l114 114q12 12 28 12t28-12l226-226q11-11 11-28t-11-28q-11-11-28-11t-28 11L424-408Zm56 328q-83 0-156-31.5T197-197q-54-54-85.5-127T80-480q0-83 31.5-156T197-763q54-54 127-85.5T480-880q83 0 156 31.5T763-763q54 54 85.5 127T880-480q0 83-31.5 156T763-197q-54 54-127 85.5T480-80Z"/>
    </symbol>

    <symbol id="icon-check-outline-2">
      <svg viewBox="0 0 24 24">
        <path d="M8.6 12.05L6.45 9.9C6.26667 9.71667 6.03333 9.625 5.75 9.625C5.46667 9.625 5.23333 9.71667 5.05 9.9C4.86667 10.0833 4.775 10.3167 4.775 10.6C4.775 10.8833 4.86667 11.1167 5.05 11.3L7.9 14.15C8.1 14.35 8.33333 14.45 8.6 14.45C8.86667 14.45 9.1 14.35 9.3 14.15L14.95 8.5C15.1333 8.31667 15.225 8.08333 15.225 7.8C15.225 7.51667 15.1333 7.28333 14.95 7.1C14.7667 6.91667 14.5333 6.825 14.25 6.825C13.9667 6.825 13.7333 6.91667 13.55 7.1L8.6 12.05ZM10 20.25C8.61667 20.25 7.31667 19.9875 6.1 19.4625C4.88333 18.9375 3.825 18.225 2.925 17.325C2.025 16.425 1.3125 15.3667 0.7875 14.15C0.2625 12.9333 0 11.6333 0 10.25C0 8.86667 0.2625 7.56667 0.7875 6.35C1.3125 5.13333 2.025 4.075 2.925 3.175C3.825 2.275 4.88333 1.5625 6.1 1.0375C7.31667 0.5125 8.61667 0.25 10 0.25C11.3833 0.25 12.6833 0.5125 13.9 1.0375C15.1167 1.5625 16.175 2.275 17.075 3.175C17.975 4.075 18.6875 5.13333 19.2125 6.35C19.7375 7.56667 20 8.86667 20 10.25C20 11.6333 19.7375 12.9333 19.2125 14.15C18.6875 15.3667 17.975 16.425 17.075 17.325C16.175 18.225 15.1167 18.9375 13.9 19.4625C12.6833 19.9875 11.3833 20.25 10 20.25ZM10 18.25C12.2333 18.25 14.125 17.475 15.675 15.925C17.225 14.375 18 12.4833 18 10.25C18 8.01667 17.225 6.125 15.675 4.575C14.125 3.025 12.2333 2.25 10 2.25C7.76667 2.25 5.875 3.025 4.325 4.575C2.775 6.125 2 8.01667 2 10.25C2 12.4833 2.775 14.375 4.325 15.925C5.875 17.475 7.76667 18.25 10 18.25Z"/>
      </svg>
    </symbol>
    <symbol viewBox="0 0 49 49" id="icon-journey-external_link">
      <path d="M14.25 34.5C11.4833 34.5 9.125 33.525 7.175 31.575C5.225 29.625 4.25 27.2667 4.25 24.5C4.25 21.7333 5.225 19.375 7.175 17.425C9.125 15.475 11.4833 14.5 14.25 14.5H20.25C20.8167 14.5 21.2917 14.6917 21.675 15.075C22.0583 15.4583 22.25 15.9333 22.25 16.5C22.25 17.0667 22.0583 17.5417 21.675 17.925C21.2917 18.3083 20.8167 18.5 20.25 18.5H14.25C12.5833 18.5 11.1667 19.0833 10 20.25C8.83333 21.4167 8.25 22.8333 8.25 24.5C8.25 26.1667 8.83333 27.5833 10 28.75C11.1667 29.9167 12.5833 30.5 14.25 30.5H20.25C20.8167 30.5 21.2917 30.6917 21.675 31.075C22.0583 31.4583 22.25 31.9333 22.25 32.5C22.25 33.0667 22.0583 33.5417 21.675 33.925C21.2917 34.3083 20.8167 34.5 20.25 34.5H14.25ZM18.25 26.5C17.6833 26.5 17.2083 26.3083 16.825 25.925C16.4417 25.5417 16.25 25.0667 16.25 24.5C16.25 23.9333 16.4417 23.4583 16.825 23.075C17.2083 22.6917 17.6833 22.5 18.25 22.5H30.25C30.8167 22.5 31.2917 22.6917 31.675 23.075C32.0583 23.4583 32.25 23.9333 32.25 24.5C32.25 25.0667 32.0583 25.5417 31.675 25.925C31.2917 26.3083 30.8167 26.5 30.25 26.5H18.25ZM28.25 34.5C27.6833 34.5 27.2083 34.3083 26.825 33.925C26.4417 33.5417 26.25 33.0667 26.25 32.5C26.25 31.9333 26.4417 31.4583 26.825 31.075C27.2083 30.6917 27.6833 30.5 28.25 30.5H34.25C35.9167 30.5 37.3333 29.9167 38.5 28.75C39.6667 27.5833 40.25 26.1667 40.25 24.5C40.25 22.8333 39.6667 21.4167 38.5 20.25C37.3333 19.0833 35.9167 18.5 34.25 18.5H28.25C27.6833 18.5 27.2083 18.3083 26.825 17.925C26.4417 17.5417 26.25 17.0667 26.25 16.5C26.25 15.9333 26.4417 15.4583 26.825 15.075C27.2083 14.6917 27.6833 14.5 28.25 14.5H34.25C37.0167 14.5 39.375 15.475 41.325 17.425C43.275 19.375 44.25 21.7333 44.25 24.5C44.25 27.2667 43.275 29.625 41.325 31.575C39.375 33.525 37.0167 34.5 34.25 34.5H28.25Z" fill="#64676D">
      </path>
    </symbol>
  </defs>
</svg>