<svg width="113" height="92" viewBox="0 0 113 92" fill="none" xmlns="http://www.w3.org/2000/svg">
<g id="Group 61">
<g id="_x3C_Layer_x3E_">
<g id="Group">
<g id="Group_2">
<path id="Vector" d="M34.2055 40.1907L7.35236 40.516C3.94004 40.5587 1.14356 37.828 1.10096 34.4157L0.775607 7.56259C0.733002 4.15415 3.4675 1.3538 6.87595 1.31119L33.7329 0.985843C37.1453 0.943238 39.9417 3.67387 39.9843 7.08618L40.3097 33.9393C40.3484 37.3516 37.6178 40.152 34.2055 40.1907Z" fill="#6FC1C9" class="--fill-change-color"/>
</g>
<g id="Group_3">
<path id="Vector_2" d="M16.4157 28.7685C16.315 28.7685 16.2182 28.7298 16.1407 28.6562L11.0862 23.5978C10.9351 23.4467 10.9351 23.2027 11.0862 23.0516C11.2372 22.9006 11.4812 22.9006 11.6323 23.0516L16.4157 27.8351L29.4492 14.8016C29.6002 14.6506 29.8442 14.6506 29.9953 14.8016C30.1463 14.9527 30.1463 15.1967 29.9953 15.3478L16.6907 28.6562C16.6133 28.7298 16.5164 28.7685 16.4157 28.7685Z" fill="#2E2F31"/>
</g>
<g id="Group_4">
<g id="Group_5">
<path id="Vector_3" d="M7.2749 84.028C3.69991 84.028 0.756248 81.1192 0.713643 77.5442L0.388291 50.6872C0.368925 48.9326 1.03125 47.2787 2.25519 46.0238C3.47913 44.7689 5.11751 44.0678 6.87208 44.0446L33.8065 43.7192C37.3815 43.7192 40.3252 46.628 40.3678 50.203L40.6931 77.0561C40.7125 78.8107 40.0502 80.4646 38.8262 81.7195C37.6023 82.9744 35.9639 83.6755 34.2094 83.6987L7.2749 84.028Z" fill="white"/>
<path id="Vector_4" d="M33.8065 44.1066C37.184 44.1066 39.9379 46.8217 39.9805 50.2069L40.3058 77.06C40.3484 80.4723 37.6178 83.2688 34.2055 83.3114L7.35235 83.6368C7.32524 83.6368 7.302 83.6368 7.27489 83.6368C3.89743 83.6368 1.14356 80.9216 1.10096 77.5364L0.775605 50.6833C0.733 47.271 3.46363 44.4745 6.87595 44.4319L33.7291 44.1066C33.7562 44.1066 33.7833 44.1066 33.8065 44.1066ZM33.8065 43.3319H33.7213L6.8682 43.6573C5.01292 43.6805 3.27384 44.4242 1.98018 45.7527C0.682648 47.0812 -0.0184072 48.8358 0.00483223 50.6911L0.330184 77.5442C0.376663 81.3283 3.49461 84.4114 7.27876 84.4114H7.36397L34.2171 84.0861C38.0477 84.0396 41.1308 80.8829 41.0843 77.0523L40.759 50.1991C40.7086 46.4111 37.5945 43.3319 33.8065 43.3319Z" fill="#2E2F31"/>
</g>
</g>
<g id="Group_6">
<path id="Vector_5" d="M16.4157 71.8892C16.315 71.8892 16.2182 71.8505 16.1407 71.7769L11.0823 66.7185C10.9312 66.5674 10.9312 66.3234 11.0823 66.1724C11.2333 66.0213 11.4774 66.0213 11.6284 66.1724L16.4119 70.9558L29.4453 57.9224C29.5963 57.7713 29.8403 57.7713 29.9914 57.9224C30.1425 58.0734 30.1425 58.3174 29.9914 58.4685L16.683 71.7769C16.6133 71.8505 16.5164 71.8892 16.4157 71.8892Z" fill="#2E2F31"/>
</g>
<g id="Group_7">
<g id="Group_8">
<path id="Vector_6" d="M63.9868 28.7803L50.5195 42.2475L51.8364 43.5644C54.2456 45.9735 58.1537 45.9735 60.5667 43.5644L68.4991 35.632L63.9868 28.7803Z" fill="white"/>
<path id="Vector_7" d="M56.1977 45.7565C54.5167 45.7565 52.8396 45.1174 51.5576 43.8392L50.2407 42.5223C50.0896 42.3713 50.0896 42.1273 50.2407 41.9762L63.7079 28.509C63.7892 28.4276 63.9054 28.385 64.0216 28.3967C64.1378 28.4083 64.2424 28.4703 64.3044 28.5671L68.8128 35.4188C68.9135 35.5738 68.8942 35.7752 68.7625 35.9069L60.8301 43.8392C59.5597 45.1174 57.8787 45.7565 56.1977 45.7565ZM51.0657 42.2473L52.1076 43.2892C54.3618 45.5435 58.0336 45.5435 60.2878 43.2892L67.9956 35.5815L63.9209 29.3882L51.0657 42.2473Z" fill="#2E2F31"/>
</g>
<g id="Group_9">
<path id="Vector_8" d="M62.178 28.4006L44.1248 34.4777L44.7175 36.2439C45.8058 39.4742 49.3072 41.2133 52.5375 40.1249L63.1695 36.546L62.178 28.4006Z" fill="white"/>
<path id="Vector_9" d="M50.5738 40.8297C47.8354 40.8297 45.2713 39.0984 44.3534 36.3639L43.7608 34.5977C43.691 34.3963 43.8034 34.1755 44.0048 34.1058L62.0579 28.0287C62.1702 27.99 62.2903 28.0054 62.3871 28.0674C62.484 28.1294 62.5498 28.234 62.5653 28.3463L63.5568 36.4878C63.5801 36.6699 63.4716 36.8442 63.2973 36.9023L52.6653 40.4811C51.972 40.7213 51.2671 40.8297 50.5738 40.8297ZM44.6167 34.7178L45.0854 36.116C46.1041 39.141 49.3886 40.7716 52.4136 39.753L62.7473 36.2748L61.8487 28.9157L44.6167 34.7178Z" fill="#2E2F31"/>
</g>
<g id="Group_10">
<path id="Vector_10" d="M96.5684 91.3794L76.811 71.622L64.711 59.5221C60.4118 55.2228 57.9949 49.3897 57.9949 43.3087V20.3288H42.1107C38.4118 20.3288 35.4178 17.3309 35.4178 13.6359V11.6179H67.4998L86.9085 24.2911L94.0392 56.7682L112.611 75.3403L96.5684 91.3794Z" fill="white"/>
<path id="Vector_11" d="M96.5684 91.7667C96.4677 91.7667 96.3708 91.728 96.2934 91.6544L64.436 59.797C60.0322 55.3932 57.6075 49.5369 57.6075 43.3087V20.7161H42.1107C38.2065 20.7161 35.0305 17.5401 35.0305 13.6359V11.6179C35.0305 11.4049 35.2048 11.2306 35.4178 11.2306H67.4998C67.5734 11.2306 67.6469 11.2538 67.7128 11.2926L87.1216 23.9658C87.2068 24.02 87.2649 24.1091 87.2881 24.2059L94.3916 56.5745L112.882 75.0653C113.033 75.2164 113.033 75.4604 112.882 75.6115C112.731 75.7625 112.487 75.7625 112.336 75.6115L93.7641 57.0393C93.7138 56.989 93.6751 56.9192 93.6596 56.8495L86.5677 24.5274L67.3874 12.0014H35.809V13.632C35.809 17.1102 38.6364 19.9376 42.1146 19.9376H57.9987C58.2118 19.9376 58.386 20.1119 58.386 20.3249V43.3048C58.386 49.3277 60.7293 54.9865 64.986 59.2432L96.8434 91.1005C96.9944 91.2516 96.9944 91.4956 96.8434 91.6466C96.7659 91.728 96.6691 91.7667 96.5684 91.7667Z" fill="#2E2F31"/>
</g>
<g id="Group_11">
<path id="Vector_12" d="M60.222 25.6621H41.1734V27.5251C41.1734 30.9336 43.935 33.6991 47.3474 33.6991H58.5642L60.222 25.6621Z" fill="white"/>
<path id="Vector_13" d="M58.5681 34.0827H47.3512C43.7336 34.0827 40.79 31.1391 40.79 27.5215V25.6584C40.79 25.4454 40.9643 25.2711 41.1773 25.2711H60.2259C60.3421 25.2711 60.4505 25.3253 60.528 25.4144C60.6016 25.5035 60.6287 25.6236 60.6054 25.7359L58.9477 33.769C58.909 33.9549 58.7502 34.0827 58.5681 34.0827ZM41.5646 26.0496V27.5253C41.5646 30.7169 44.1597 33.3119 47.3512 33.3119H58.2544L59.7533 26.0535H41.5646V26.0496Z" fill="#2E2F31"/>
</g>
<g id="Group_12">
<path id="Vector_14" d="M101.941 19.6742L34.5386 20.1855L23.7129 25.1819L34.0273 30.0157L101.429 29.5006L101.809 28.8692C103.409 26.189 103.536 22.8774 102.146 20.0809L101.941 19.6742Z" fill="#2E2F31"/>
<g id="Group_13">
<path id="Vector_15" d="M98.1564 29.64C98.1525 29.64 98.1487 29.64 98.1487 29.64C97.9356 29.6362 97.7652 29.458 97.7691 29.245L97.9821 20.0034C97.986 19.7904 98.1525 19.62 98.3772 19.6238C98.5902 19.6277 98.7606 19.8059 98.7568 20.0189L98.5437 29.2604C98.5399 29.4735 98.3656 29.64 98.1564 29.64Z" fill="white"/>
</g>
<path id="Vector_16" d="M28.4615 22.9897L23.7129 25.182L28.4615 27.4052V22.9897Z" fill="white"/>
</g>
<g id="Group_14">
<path id="Vector_17" d="M70.4744 36.3677L51.2632 17.1565L51.1702 17.2611C48.2304 20.654 48.0871 25.6544 50.8333 29.2061L58.0839 39.8149L70.4744 36.3677Z" fill="white"/>
<path id="Vector_18" d="M58.084 40.21C57.96 40.21 57.8399 40.1519 57.7625 40.0396L50.5157 29.4308C47.6805 25.7629 47.8315 20.5301 50.8797 17.0132L50.9727 16.9087C51.0424 16.8273 51.1431 16.7808 51.2516 16.777C51.3678 16.7731 51.4646 16.8157 51.5382 16.8893L70.7494 36.1005C70.9005 36.2516 70.9005 36.4956 70.7494 36.6467C70.5984 36.7977 70.3544 36.7977 70.2033 36.6467L51.2903 17.7337C48.6526 20.9717 48.579 25.6544 51.1431 28.9777L58.4054 39.6058C58.5255 39.784 58.479 40.0241 58.3047 40.1442C58.235 40.1868 58.1575 40.21 58.084 40.21Z" fill="#2E2F31"/>
</g>
</g>
</g>
</g>
</g>
</svg>
