<svg width="113" height="116" viewBox="0 0 113 116" fill="none" xmlns="http://www.w3.org/2000/svg">
<g id="Group 59">
<g id="_x3C_Layer_x3E_">
<g id="Group">
<g id="Group 58">
<g id="Group_2">
<path id="Vector" d="M57.0562 27.3185C59.5297 20.5859 58.0563 13.9801 58.0563 13.9801C56.9049 7.08169 43.8349 0.207629 36.6389 0.954067C35.4924 0.8321 34.3118 0.856494 33.1214 1.05164C26.1058 2.22252 21.3686 8.86241 22.5444 15.8731L23.1932 19.7614C23.1981 21.9324 23.3103 23.8497 23.3494 25.1914C23.525 31.3678 17.8706 32.0996 15.685 35.6756C13.4993 39.2517 16.6607 41.5057 17.0071 46.155C17.3144 50.2434 13.8896 50.8191 12.2357 55.5514C11.3429 61.118 16.6802 59.8934 19.2415 61.6253C26.2083 61.9522 35.4387 60.4057 35.4387 60.4057C35.4387 60.4057 77.7857 65.6356 65.7793 42.496C63.7644 38.6126 54.69 33.7583 57.0562 27.3185Z" fill="#2E2F31"/>
<g id="Group_3">
<path id="Vector_2" d="M41.1321 62.7084C39.9515 62.7084 39.249 62.6841 39.2295 62.6841C38.9611 62.6743 38.7514 62.445 38.7611 62.1767C38.7709 61.9083 39.0002 61.6937 39.2685 61.7083C39.5173 61.7181 64.0522 62.5474 69.2968 53.4536C71.0238 50.4532 70.4384 46.6137 67.5551 42.0472C66.8526 40.9349 65.4036 39.7299 63.8619 38.4516C60.4468 35.6171 56.1975 32.085 57.5196 27.2648C59.354 20.5762 57.4172 14.2241 57.3977 14.1607C56.6415 11.2091 53.2996 8.10137 48.4502 5.8279C43.8837 3.68616 38.8001 2.70067 35.507 3.32514C35.2436 3.37393 34.985 3.20317 34.9362 2.93485C34.8874 2.6714 35.0582 2.41283 35.3265 2.36404C38.8636 1.69566 44.0496 2.68116 48.8649 4.93998C54.0509 7.37445 57.505 10.6334 58.3344 13.8924C58.4124 14.1363 60.3737 20.5469 58.4612 27.5185C57.305 31.7337 61.1201 34.9 64.4864 37.6954C66.0866 39.0224 67.5941 40.2763 68.3796 41.5203C71.4727 46.4185 72.0679 50.5996 70.1408 53.9366C67.799 57.9956 61.8665 60.6984 52.5044 61.9718C47.8842 62.606 43.5227 62.7084 41.1321 62.7084Z" fill="#2E2F31"/>
</g>
<g id="Group_4">
<path id="Vector_3" d="M13.3529 51.9656C13.2407 51.9656 13.1236 51.9265 13.0309 51.8436C12.826 51.668 12.8065 51.3557 12.987 51.1557C14.8995 48.9749 15.7386 47.5699 15.7288 43.3108C15.724 41.6862 15.2995 40.3201 14.9239 39.12C14.314 37.1588 13.7383 35.3097 15.2946 33.1631C16.1728 31.9483 17.4656 31.1336 18.7097 30.3432C20.9246 28.9382 23.0225 27.6112 23.1786 24.1522C23.1981 23.7717 23.2079 23.3423 23.2274 22.874C23.2615 21.8202 23.3054 20.5078 23.4079 19.1028L23.0664 15.473C22.4175 8.59896 27.5645 2.47134 34.5362 1.81271C35.6875 1.7005 36.8535 1.75417 38 1.9542C38.2635 2.00298 38.444 2.25667 38.3952 2.52012C38.3464 2.78357 38.0927 2.96408 37.8293 2.9153C36.7706 2.72503 35.6924 2.68112 34.624 2.78357C28.1841 3.38853 23.4323 9.04292 24.0324 15.3803L24.3787 19.0491C24.3836 19.0735 24.3836 19.1028 24.3787 19.132C24.2763 20.5322 24.2324 21.8495 24.1982 22.9033C24.1836 23.3765 24.169 23.8107 24.1494 24.1961C23.9689 28.1625 21.4515 29.7578 19.2317 31.1677C18.0072 31.9434 16.8558 32.6752 16.085 33.7388C14.8165 35.4854 15.2507 36.8904 15.8557 38.8321C16.2509 40.1006 16.6997 41.5398 16.7046 43.3157C16.7143 47.6821 15.8313 49.3945 13.7237 51.8046C13.6212 51.907 13.4846 51.9656 13.3529 51.9656Z" fill="#2E2F31"/>
</g>
<path id="Vector_4" d="M46.1809 29.6747L30.2653 28.0137L28.0452 49.2863L43.9608 50.9473L46.1809 29.6747Z" fill="white"/>
<path id="Vector_5" d="M45.0205 40.7739L46.1767 29.6798L36.0681 28.626L32.4432 32.085C34.5167 36.5929 38.9368 39.7835 45.0205 40.7739Z" fill="#2E2F31"/>
<path id="Vector_6" d="M44.1423 36.2709C37.1267 37.4417 30.4917 32.7094 29.3209 25.6939L27.9939 17.7465C26.8181 10.731 31.5553 4.09596 38.5708 2.92508C45.5864 1.75419 52.2214 6.48651 53.3923 13.5021L54.7193 21.4494C55.895 28.4601 51.1578 35.1 44.1423 36.2709Z" fill="white"/>
<path id="Vector_7" d="M37.5317 2.27625C29.9209 3.54958 24.7495 10.5261 25.9741 17.8588L26.4327 20.5957C32.3456 23.0936 39.5075 21.3129 43.4544 15.9902L48.5673 9.09177C49.2015 8.238 49.7137 7.34032 50.1138 6.41337C47.05 3.17393 42.386 1.46639 37.5317 2.27625Z" fill="#2E2F31"/>
<path id="Vector_8" d="M31.8626 27.8893C30.0673 29.0846 27.6426 28.5967 26.4473 26.7965L26.096 26.2696C24.9008 24.4742 25.3886 22.0495 27.1889 20.8542C28.9842 19.6589 31.4089 20.1468 32.6042 21.947L32.9555 22.4739C34.1459 24.2742 33.658 26.6989 31.8626 27.8893Z" fill="white"/>
<path id="Vector_9" d="M52.7727 19.1759C52.7727 20.137 52.2799 20.9176 51.6701 20.9176C51.0602 20.9176 50.5626 20.1419 50.5577 19.1808C50.5577 18.2197 51.0505 17.4391 51.6603 17.4391C52.2702 17.4342 52.7678 18.2148 52.7727 19.1759Z" fill="#2E2F31"/>
<g id="Group_5">
<path id="Vector_10" d="M55.6219 16.7561C55.5145 16.7561 55.4023 16.7171 55.3096 16.6439C53.1435 14.8534 49.9382 15.9267 49.904 15.9365C49.6504 16.0243 49.3723 15.8877 49.2845 15.634C49.1966 15.3803 49.3332 15.1022 49.5869 15.0144C49.7382 14.9607 53.3484 13.7557 55.9292 15.8926C56.139 16.0633 56.1683 16.3707 55.9926 16.5805C55.9048 16.6927 55.7633 16.7561 55.6219 16.7561Z" fill="#2E2F31"/>
</g>
<path id="Vector_11" d="M44.1472 19.7614C44.1472 20.7225 43.6544 21.5031 43.0446 21.5031C42.4348 21.5031 41.9371 20.7273 41.9323 19.7662C41.9323 18.8051 42.425 18.0246 43.0348 18.0246C43.6495 18.0197 44.1472 18.8003 44.1472 19.7614Z" fill="#2E2F31"/>
<g id="Group_6">
<path id="Vector_12" d="M40.1662 17.1952C39.9905 17.1952 39.8246 17.1025 39.7368 16.9415C39.61 16.7025 39.6978 16.4097 39.932 16.2829C40.0735 16.2048 43.43 14.4192 46.3328 16.0975C46.567 16.2341 46.645 16.5317 46.5084 16.7659C46.3718 17.0001 46.0742 17.0781 45.8401 16.9415C43.4202 15.5365 40.4247 17.122 40.3955 17.1367C40.3223 17.1757 40.2442 17.1952 40.1662 17.1952Z" fill="#2E2F31"/>
</g>
<g id="Group_7">
<path id="Vector_13" d="M48.3184 25.8938C48.0843 25.8938 47.8794 25.7231 47.8403 25.4889C47.7964 25.2255 47.9769 24.9718 48.2404 24.9279C48.7234 24.8449 49.8016 24.5229 50.026 24.0497C50.0553 23.9912 50.1236 23.8399 49.9528 23.5374C49.2112 22.2202 47.6208 18.1075 47.5525 17.9318C47.4549 17.683 47.5818 17.4001 47.8306 17.3025C48.0843 17.2049 48.3623 17.3318 48.4599 17.5806C48.4746 17.6245 50.0894 21.8055 50.8017 23.0593C51.1481 23.674 51.0505 24.1668 50.9041 24.4693C50.4016 25.5279 48.6063 25.8548 48.4014 25.889C48.3721 25.8938 48.3428 25.8938 48.3184 25.8938Z" fill="#2E2F31"/>
</g>
<g id="Group_8">
<path id="Vector_14" d="M44.3716 31.4166C43.9227 31.4166 43.5422 31.3044 43.2202 31.0848C41.8005 30.0994 42.4055 27.4502 42.4786 27.1526C42.5128 27.0209 42.6006 26.9087 42.7177 26.8404C42.8397 26.777 42.9811 26.7623 43.108 26.8062C48.7331 28.7284 48.7331 28.7284 48.7868 29.1236C48.8112 29.3041 48.7282 29.4895 48.577 29.592C46.806 30.8116 45.4156 31.4166 44.3716 31.4166ZM43.3324 27.9137C43.2251 28.6943 43.2007 29.8847 43.7764 30.2847C44.1276 30.5287 45.0302 30.6799 47.2598 29.2944C46.2938 28.9382 44.6399 28.3625 43.3324 27.9137Z" fill="#2E2F31"/>
</g>
<g id="Group_9">
<path id="Vector_15" d="M30.8626 26.1378C30.6137 26.1378 30.404 25.9475 30.3796 25.6987C30.1308 23.113 28.5257 22.6739 28.4574 22.6544C28.1988 22.5861 28.0378 22.3226 28.1012 22.0641C28.1646 21.8055 28.4232 21.6445 28.6818 21.7031C28.7794 21.7274 31.0284 22.2885 31.3504 25.6011C31.3748 25.8694 31.1797 26.1085 30.9113 26.1329C30.8967 26.1378 30.8772 26.1378 30.8626 26.1378Z" fill="#2E2F31"/>
</g>
</g>
<path id="Vector_16" d="M43.7617 42.9937L30.3795 45.8087C21.2954 48.3456 13.8701 54.8928 10.2062 63.5817L1.30259 84.7015C-4.56159 98.6204 10.5233 112.071 23.6811 104.66L41.8639 94.415L62.1349 90.4291L63.4277 54.5903C60.8615 46.2234 52.3287 41.1935 43.7617 42.9937Z" fill="#2E2F31"/>
<g id="Group_10">
<g id="Group_11">
<path id="Vector_17" d="M76.6081 45.6566L47.577 112.954L53.8484 115.659L82.8795 48.3621L76.6081 45.6566Z" fill="#87CBD1" class="--fill-change-color"/>
</g>
<g id="Group_12">
<path id="Vector_18" d="M91.2313 56.3857C90.5873 56.3857 89.9385 56.2588 89.314 55.9905L66.6428 46.2136C64.179 45.1501 63.0423 42.2863 64.101 39.8225L71.097 23.6009C71.6093 22.4105 72.5606 21.4885 73.7656 21.0055C74.9707 20.5274 76.2928 20.5469 77.4881 21.0591L100.159 30.836C101.35 31.3483 102.272 32.2996 102.755 33.5046C103.233 34.7097 103.213 36.0318 102.701 37.2271L95.7051 53.4487C94.9098 55.288 93.1145 56.3857 91.2313 56.3857ZM71.1507 40.7202L90.2117 48.9408L95.6514 36.3294L76.5953 28.1088L71.1507 40.7202Z" fill="#87CBD1" class="--fill-change-color"/>
</g>
<g id="Group_13">
<path id="Vector_19" d="M49.0136 85.4078L46.3088 91.6792L58.2828 96.8433L60.9876 90.5719L49.0136 85.4078Z" fill="#87CBD1" class="--fill-change-color"/>
</g>
<g id="Group_14">
<path id="Vector_20" d="M52.1648 93.3308L49.4601 99.6023L55.8928 102.377L58.5975 96.1051L52.1648 93.3308Z" fill="#87CBD1" class="--fill-change-color"/>
</g>
<g id="Group_15">
<path id="Vector_21" d="M44.2402 96.4821L41.5355 102.754L53.5094 107.918L56.2142 101.646L44.2402 96.4821Z" fill="#87CBD1" class="--fill-change-color"/>
</g>
</g>
<g id="Group_16">
<g id="Group_17">
<path id="Vector_22" d="M72.8045 66.2113C72.8045 66.2113 80.6641 66.2943 82.6838 64.1525C84.9378 61.762 84.1035 59.108 81.6983 56.8296L79.7274 55.5709L78.054 59.2738L72.8045 66.2113Z" fill="white"/>
<path id="Vector_23" d="M70.5408 71.6852C70.5408 71.6852 75.2195 71.6852 77.7271 70.529C81.1764 68.9385 82.357 65.177 81.8301 65.0892L70.5408 71.6852Z" fill="white"/>
<path id="Vector_24" d="M69.2772 75.6223C69.2772 75.6223 71.7556 75.5832 74.2486 74.7587C76.7416 73.9342 78.0198 72.1584 77.7222 70.5289L69.2772 75.6223Z" fill="white"/>
<path id="Vector_25" d="M74.2486 74.7588C74.2486 74.7588 73.629 77.3152 70.0188 78.2373C64.1888 79.7301 57.1488 77.6128 57.1488 77.6128L38.6294 91.7951C35.8827 93.8978 32.2041 94.332 29.0428 92.9172C24.7983 91.0194 22.5688 86.3066 23.7982 81.8231L24.4275 79.5155C25.0764 77.1347 26.6327 75.1052 28.7647 73.8611L49.7284 61.601L54.1436 57.6346C57.2708 54.8245 61.3689 53.3316 65.5743 53.4731L73.1802 53.8487L70.1017 60.7228L74.2486 74.7588Z" fill="white"/>
</g>
<path id="Vector_26" d="M82.1179 57.1906C82.1521 56.9906 84.4841 59.3567 84.4304 61.0545C84.3231 64.4159 82.1131 64.5672 82.1131 64.5672C82.1131 64.5672 82.2009 68.8702 77.8052 70.5338C77.4149 70.6802 77.9857 73.261 74.1998 75.1393C73.4144 75.5296 73.7412 77.7591 68.9114 78.7202C61.6763 80.1594 55.6218 77.2225 55.6218 77.2225L63.9205 57.3906C63.9205 57.3906 69.0626 61.4838 73.551 61.3228C79.8298 61.0984 81.7276 59.3665 82.1179 57.1906Z" fill="white"/>
<g id="Group_18">
<g id="Group_19">
<path id="Vector_27" d="M72.4045 61.8595C67.921 61.8595 66.111 59.9129 65.7451 59.4494C65.5792 59.2396 65.6134 58.9323 65.8232 58.7615C66.033 58.5956 66.3403 58.6298 66.5062 58.8396C66.7404 59.1323 68.965 61.679 75.3366 60.6203C77.9711 60.1812 78.2784 58.6444 78.2882 58.581C78.337 58.3176 78.5858 58.137 78.8492 58.1858C79.1127 58.2297 79.2932 58.4737 79.2493 58.7371C79.2347 58.8298 78.859 61.0252 75.4927 61.5863C74.3462 61.7814 73.3217 61.8595 72.4045 61.8595Z" fill="#2E2F31"/>
</g>
<g id="Group_20">
<path id="Vector_28" d="M72.9509 66.6991C72.8728 66.6991 72.8192 66.6991 72.7997 66.6991C72.5313 66.6942 72.3118 66.4747 72.3167 66.2063C72.3215 65.938 72.5362 65.7234 72.8045 65.7234C72.8777 65.7282 72.946 65.7234 73.0241 65.7234C75.3073 65.7234 80.8446 65.3916 82.3326 63.8158C83.1864 62.9084 83.5864 61.8497 83.484 60.7471C83.3474 59.2445 82.3082 57.7077 80.5519 56.41C80.3372 56.249 80.2884 55.9465 80.4494 55.7269C80.6104 55.5123 80.9129 55.4635 81.1324 55.6245C83.1181 57.0881 84.2987 58.8737 84.4597 60.6593C84.5866 62.0497 84.0938 63.3718 83.0449 64.489C81.0349 66.6113 74.1071 66.6991 72.9509 66.6991Z" fill="#2E2F31"/>
</g>
<g id="Group_21">
<path id="Vector_29" d="M70.536 72.173C70.2676 72.173 70.0481 71.9535 70.0481 71.6852C70.0481 71.4168 70.2676 71.1973 70.536 71.1973C70.5799 71.1973 75.1366 71.1827 77.5174 70.0849C80.2884 68.8067 81.4203 66.0649 81.4593 65.4112C81.3666 65.3038 81.3179 65.1575 81.3471 65.0062C81.391 64.7428 81.6447 64.5623 81.9082 64.6062C82.1228 64.6452 82.3716 64.816 82.4253 65.1965C82.557 66.2064 81.1471 69.4849 77.9272 70.968C75.3561 72.1584 70.736 72.173 70.536 72.173Z" fill="#2E2F31"/>
</g>
<g id="Group_22">
<path id="Vector_30" d="M69.2773 76.1101C69.0138 76.1101 68.7943 75.8954 68.7894 75.6319C68.7845 75.3636 68.9992 75.1392 69.2675 75.1343C69.2919 75.1343 71.7068 75.0855 74.0925 74.2952C76.2099 73.5927 77.5076 72.0803 77.2393 70.6118C77.1905 70.3483 77.3661 70.0946 77.6344 70.0459C77.9028 69.9971 78.1516 70.1727 78.2004 70.441C78.5516 72.3974 76.9904 74.3635 74.3999 75.2221C71.863 76.0613 69.3895 76.1101 69.2821 76.1101C69.2821 76.1101 69.2821 76.1101 69.2773 76.1101Z" fill="#2E2F31"/>
</g>
<g id="Group_23">
<path id="Vector_31" d="M32.8969 94.2295C31.526 94.2295 30.1454 93.9466 28.8428 93.3611C24.3495 91.3511 22.0272 86.4431 23.325 81.6913L23.9543 79.3837C24.6422 76.8663 26.2619 74.7538 28.5159 73.4366L49.4357 61.2009L54.0363 57.0686C57.1342 54.2878 61.125 52.8388 65.2865 52.9754L72.7997 53.3072C73.068 53.3169 73.2778 53.5462 73.268 53.8145C73.2583 54.0829 73.029 54.3024 72.7606 54.278L65.2524 53.9463C61.3445 53.8145 57.5977 55.1806 54.6949 57.7907L50.0553 61.957C50.0309 61.9766 50.0016 61.9961 49.9772 62.0156L29.0135 74.2757C26.984 75.4612 25.5204 77.3688 24.9008 79.6374L24.2714 81.945C23.1006 86.2285 25.1935 90.6535 29.2477 92.4683C32.2481 93.81 35.7315 93.405 38.3367 91.4048L56.8561 77.2224C56.9781 77.1298 57.144 77.1005 57.2952 77.1444C57.3635 77.1639 64.2766 79.2032 69.9017 77.764C73.1607 76.9297 73.7559 74.7294 73.7803 74.6367C73.8486 74.3782 74.112 74.2172 74.3706 74.2855C74.6292 74.3489 74.7902 74.6123 74.7267 74.8709C74.6975 74.988 73.9949 77.7201 70.1408 78.7104C64.7889 80.0813 58.5686 78.5153 57.2513 78.1494L38.927 92.1805C37.1658 93.5367 35.0387 94.2295 32.8969 94.2295Z" fill="#2E2F31"/>
</g>
</g>
</g>
<path id="Vector_32" d="M45.2204 40.891L30.3795 45.2672C27.7401 46.0478 25.2422 47.1894 22.9346 48.6383C26.5351 54.7123 34.1166 57.3614 41.0833 54.5708C42.0347 54.1903 42.9226 53.717 43.7568 53.1804L45.2204 40.891Z" fill="white"/>
<g id="Group_24">
<path id="Vector_33" d="M102.628 85.8333C102.462 85.8333 102.301 85.7504 102.213 85.604L98.3932 79.4374L92.0021 81.1156C91.807 81.1693 91.5972 81.0912 91.4801 80.9254C91.363 80.7595 91.363 80.5351 91.4752 80.3692L94.9001 75.3978L91.6996 68.9043C91.6118 68.7238 91.6411 68.5091 91.7777 68.3579C91.9143 68.2115 92.1241 68.1579 92.3144 68.231L98.8225 70.7338L103.199 64.9428C103.321 64.7818 103.53 64.7135 103.726 64.7672C103.921 64.8257 104.057 64.9965 104.077 65.1965L104.667 72.7877L112.58 73.8854C112.805 73.9147 112.98 74.1001 113 74.3245C113.019 74.5489 112.883 74.7636 112.663 74.8319L103.901 77.6859L103.116 85.3894C103.096 85.5991 102.945 85.7699 102.74 85.8138C102.701 85.8284 102.667 85.8333 102.628 85.8333ZM98.6176 78.3836C98.7835 78.3836 98.9396 78.4665 99.0323 78.6129L102.286 83.8672L102.96 77.2761C102.979 77.0858 103.111 76.92 103.291 76.8614L110.341 74.5636L104.14 73.7049C103.911 73.6756 103.74 73.4903 103.721 73.261L103.199 66.5577L99.3787 71.6168C99.247 71.7925 99.0177 71.8559 98.8128 71.7778L93.1242 69.5922L95.9002 75.2222C95.9782 75.3832 95.9636 75.5686 95.866 75.7149L93.0266 79.8374L98.4908 78.4031C98.5347 78.3885 98.5786 78.3836 98.6176 78.3836Z" fill="#87CBD1" class="--fill-change-color"/>
</g>
<g id="Group_25">
<path id="Vector_34" d="M103.945 20.82C103.765 20.82 103.604 20.7225 103.516 20.5663L102.418 18.5661L100.413 17.4684C100.257 17.3854 100.159 17.2196 100.159 17.039C100.159 16.8585 100.257 16.6975 100.413 16.6097L102.418 15.512L103.516 13.5069C103.687 13.1946 104.199 13.1946 104.37 13.5069L105.467 15.512L107.468 16.6097C107.624 16.6927 107.721 16.8585 107.721 17.039C107.721 17.2196 107.624 17.3806 107.468 17.4684L105.467 18.5661L104.37 20.5663C104.287 20.7225 104.126 20.82 103.945 20.82ZM101.672 17.0439L103.018 17.7806C103.101 17.8245 103.169 17.8928 103.213 17.9758L103.95 19.3223L104.687 17.9758C104.731 17.8928 104.799 17.8245 104.882 17.7806L106.228 17.0439L104.882 16.3072C104.799 16.2633 104.731 16.195 104.687 16.1121L103.95 14.7656L103.213 16.1121C103.169 16.195 103.101 16.2633 103.018 16.3072L101.672 17.0439Z" fill="#87CBD1" class="--fill-change-color"/>
</g>
<g id="Group_26">
<path id="Vector_35" d="M5.67875 88.3215C5.508 88.3215 5.34212 88.2336 5.2543 88.0726C5.12258 87.8385 5.20552 87.5409 5.43969 87.4091L29.233 73.9977C29.4672 73.8659 29.7648 73.9489 29.8965 74.183C30.0282 74.4172 29.9453 74.7148 29.7111 74.8465L5.9178 88.258C5.83975 88.3019 5.76169 88.3215 5.67875 88.3215Z" fill="white"/>
</g>
<g id="Group_27">
<path id="Vector_36" d="M63.0569 53.0096C62.8715 53.0096 62.691 52.9022 62.613 52.7217C59.6467 46.0428 52.6019 42.1204 45.4888 43.1888L43.8398 43.4376C43.5763 43.4718 43.3227 43.2961 43.2836 43.0278C43.2446 42.7595 43.4251 42.5107 43.6934 42.4716L45.3424 42.2228C52.8897 41.091 60.359 45.2427 63.5058 52.3217C63.6131 52.5656 63.5058 52.8583 63.2569 52.9657C63.1886 52.9949 63.1203 53.0096 63.0569 53.0096Z" fill="white"/>
</g>
</g>
</g>
</g>
</g>
</svg>
