<svg width="113" height="114" viewBox="0 0 113 114" fill="none" xmlns="http://www.w3.org/2000/svg">
  <g id="Group 57">
    <path id="Vector"
      d="M23.8915 32.8454L16.0844 30.8443C16.0844 30.8443 12.9143 29.4436 12.3637 34.1126C11.813 38.7816 11.0488 44.0029 5.17781 43.2306C-0.692598 42.4583 0.0279969 50.5369 0.0279969 50.5369C0.0279969 50.5369 0.559687 61.1135 11.933 61.8936C23.3064 62.6737 34.5075 49.9873 34.5075 49.9873L23.8915 32.8454Z"
      fill="#2E2F31" />
    <path id="Vector_2"
      d="M53.2981 83.3795C50.6551 83.3795 47.6814 81.7424 44.9679 78.7515C41.6738 75.1211 39.024 69.812 37.5075 63.8022L35.6334 51.6647L29.9801 45.8151C29.84 45.6705 29.9071 45.4055 30.0937 45.3664C31.3897 45.0974 32.7143 44.9587 34.0315 44.9548C35.7603 44.9548 37.9009 45.0844 39.5264 45.7512C42.345 46.9064 43.5904 49.7626 45.6178 53.8286C47.6292 57.8555 49.8174 62.0225 52.1244 66.2181C61.9676 51.1418 61.9102 51.1887 62.0107 51.1457C63.929 50.3239 66.0701 51.0005 67.2179 52.7925C68.1441 54.2395 68.2761 56.1846 67.5658 57.8796C67.2966 61.2254 66.6357 64.4924 65.5999 67.5895C63.4564 74.003 59.3775 83.3801 53.2986 83.3801L53.2981 83.3795ZM37.952 63.6719C41.2541 76.7387 49.0256 83.7559 54.3345 82.7648C59.3608 81.8258 63.0011 73.8936 65.1698 67.4045C67.0233 61.8603 67.002 58.004 67.1335 57.6947C67.7904 56.1624 67.6801 54.4016 66.8453 53.0979C65.8318 51.5143 63.9445 50.9067 62.2346 51.6061L52.2921 66.8348C52.1939 66.9852 51.997 66.9702 51.9126 66.8178C49.5366 62.5063 47.2841 58.2221 45.2171 54.0845C43.2086 50.0543 41.9775 47.3095 39.369 46.2403C37.0361 45.2843 33.1088 45.3377 30.6352 45.7884L35.9998 51.3391C36.0376 51.3775 36.0623 51.4296 36.0715 51.4863L37.952 63.6713V63.6719Z"
      fill="#2E2F31" />
    <path id="Vector_3"
      d="M24.1645 37.9883L18.8299 39.1129L20.6834 50.4218L26.018 49.2972L24.1645 37.9883Z"
      fill="white" />
    <path id="Vector_4"
      d="M20.6858 50.6802C20.5773 50.6802 20.4808 50.593 20.4602 50.4673L18.6061 39.1588C18.5832 39.0174 18.6653 38.8814 18.7899 38.8553L24.1246 37.73C24.2544 37.704 24.3698 37.8017 24.3922 37.9384L26.2462 49.247C26.2691 49.3889 26.187 49.5244 26.0624 49.5504L20.6858 50.6796V50.6802ZM19.0999 39.3196L20.8701 50.1156L25.753 49.0861L23.9828 38.2894L19.0999 39.3196Z"
      fill="#2E2F31" />
    <path id="Vector_5"
      d="M27.8045 35.8122C27.3417 35.1982 26.4294 35.2157 25.7283 35.8324C24.8906 31.9331 20.6887 30.8912 18.1761 33.2231C16.8664 34.4389 16.4088 35.921 16.6764 37.6805C15.8656 37.4597 15.075 37.8166 14.8482 38.544C14.6018 39.3351 15.1163 40.2631 15.9971 40.616C16.6011 40.8583 17.2201 40.7671 17.6295 40.4318C18.7945 42.5787 20.7479 44.2249 22.4187 43.872C24.0896 43.519 25.4234 41.1793 25.7874 38.7009C26.2789 38.8578 26.8956 38.6924 27.3888 38.2138C28.0991 37.5248 28.2851 36.4497 27.8045 35.8116V35.8122Z"
      fill="white" />
    <path id="Vector_6"
      d="M21.9496 44.182C20.2684 44.182 18.5636 42.5293 17.5565 40.788C17.0903 41.057 16.4862 41.0889 15.9213 40.8629C14.9222 40.4618 14.344 39.3834 14.6322 38.4581C14.8642 37.7151 15.5951 37.282 16.4053 37.3673C16.2244 35.5564 16.8405 34.1264 18.0314 33.0226C20.5417 30.6926 24.8078 31.5574 25.866 35.417C26.6194 34.9319 27.5013 35.0087 27.9796 35.6436C28.95 36.931 27.5943 39.2199 25.9723 39.0077C25.5531 41.3884 24.0987 44.1827 21.9501 44.1827L21.9496 44.182ZM17.8252 40.2964C19.0528 42.5579 20.9212 43.9235 22.3768 43.6168C23.8449 43.3068 25.1845 41.2217 25.5612 38.6586C25.5835 38.5056 25.7179 38.4086 25.85 38.4502C26.6435 38.7042 27.646 37.9384 27.8183 36.944C28.0301 35.7231 26.8502 35.1754 25.8695 36.0382C25.808 36.0923 25.7265 36.1073 25.653 36.0786C25.4457 35.9959 25.5474 35.798 25.2614 35.0667C24.0557 31.9748 20.4527 31.448 18.3219 33.425C17.0754 34.5809 16.6499 35.9751 16.9031 37.6369C16.9318 37.8231 16.7814 37.9781 16.6229 37.9345C15.9172 37.7424 15.2489 38.0426 15.0646 38.6313C14.8607 39.2857 15.3138 40.0665 16.0734 40.3712C16.5867 40.5764 17.1316 40.5191 17.4945 40.2215C17.6036 40.1323 17.7552 40.1681 17.8247 40.2957L17.8252 40.2964Z"
      fill="#2E2F31" />
    <path id="Vector_7"
      d="M21.5138 43.8798C21.5138 43.8798 23.0756 45.1965 25.1707 44.111L24.8119 41.921C24.8119 41.921 23.4448 44.068 21.5138 43.8791V43.8798Z"
      fill="#2E2F31" />
    <path id="Vector_8"
      d="M22.4262 46.9215C22.4262 46.9215 7.9528 51.5052 7.74725 56.3494C7.54112 61.1936 20.8184 82.0296 20.8184 82.0296H43.1529C43.1529 82.0296 40.5283 48.3658 39.4477 45.9961C38.3671 43.6265 22.4262 46.9221 22.4262 46.9221V46.9215Z"
      fill="#6FC1C9" class="--fill-change-color" />
    <path id="Vector_9"
      d="M20.8184 82.0296C19.6994 83.5189 18.191 85.7609 16.8043 88.7414C14.7804 93.0907 14.0552 96.777 13.3047 100.725C12.6892 103.963 12.0565 108.412 11.9324 113.798C25.564 113.824 39.1956 113.851 52.8272 113.876L43.1523 82.0289H20.8179L20.8184 82.0296Z"
      fill="#2E2F31" />
    <path id="Vector_10"
      d="M13.0406 50.8892C11.8963 51.3893 10.2662 52.3127 8.88587 54.0677C6.52657 57.0677 5.97076 61.1324 6.51853 68.892C7.40851 81.499 7.85407 87.8031 10.8421 90.0849C16.097 94.0975 27.8286 88.5044 38.5279 75.0782C37.8073 72.549 37.0867 70.0198 36.3667 67.4912C30.4314 70.2927 24.4961 73.0941 18.5608 75.8955C16.7206 67.5596 14.8803 59.2244 13.0406 50.8885V50.8892Z"
      fill="white" />
    <path id="Vector_11"
      d="M15.0341 91.64C13.365 91.64 11.9003 91.2076 10.714 90.3011C7.6341 87.949 7.18509 81.5882 6.28995 68.9155C5.71864 60.8271 6.35368 56.8971 8.71471 53.8939C9.82288 52.4847 11.2503 51.392 12.9579 50.6457C13.0871 50.5897 13.2295 50.6737 13.2634 50.8254L18.7192 75.5387L36.2788 67.2504C36.4028 67.1911 36.544 67.266 36.5854 67.4106L38.7466 74.9976C38.7719 75.0861 38.7535 75.1832 38.6984 75.2522C30.5651 85.4576 21.3409 91.6387 15.0341 91.6387V91.64ZM12.8815 51.2409C11.3496 51.9527 10.064 52.9607 9.05749 54.2409C6.79293 57.1205 6.18832 60.9495 6.74757 68.8705C7.63123 81.3792 8.0745 87.6567 10.9707 89.8687C13.5097 91.808 17.6214 91.4583 22.5473 88.8841C27.6764 86.2032 33.2557 81.2809 38.2683 75.0151L36.2242 67.8403L18.6486 76.1358C18.5171 76.1977 18.3713 76.1117 18.338 75.9587L12.8815 51.2409Z"
      fill="#2E2F31" />
    <path id="Vector_12"
      d="M16.7395 49.0964C16.7395 49.0964 7.0611 51.6217 5.75714 58.7816C4.45375 65.9407 5.75714 81.271 5.75714 81.271C10.3546 79.2738 14.9515 77.2766 19.5489 75.2788C18.6124 66.5515 17.676 57.8237 16.7395 49.0964Z"
      fill="#6FC1C9" class="--fill-change-color" />
    <path id="Vector_13"
      d="M26.9163 46.103C28.7404 45.457 31.6044 44.701 35.1328 44.8683C36.9288 44.9536 38.405 45.0096 40.065 45.8249C42.5805 47.0602 43.8884 49.2209 45.7603 52.4006C48.7127 57.4174 50.9641 61.3408 52.4506 63.952C48.6541 67.1572 44.8571 70.3623 41.0606 73.5675C37.2067 65.3449 33.3528 57.1217 29.4989 48.8992C28.6382 47.9673 27.7775 47.0355 26.9168 46.1036L26.9163 46.103Z"
      fill="#6FC1C9" class="--fill-change-color" />
    <path id="Vector_14"
      d="M19.8694 45.4388L20.215 47.5487L18.4896 48.3601L26.6166 56.6412L26.9163 46.1024L25.5876 46.2912C25.4665 45.672 25.3453 45.0527 25.2236 44.4327"
      fill="white" />
    <path id="Vector_15"
      d="M26.4632 56.8352L18.3363 48.554C18.2105 48.4264 18.2461 48.1932 18.4017 48.1197L19.9555 47.389L19.6437 45.4862C19.6207 45.3449 19.7028 45.2088 19.8274 45.1828C19.9515 45.1554 20.072 45.2499 20.095 45.3912L20.4407 47.501C20.4602 47.6221 20.4028 47.742 20.3028 47.7895L18.9139 48.4426L26.4024 56.0733L26.6774 46.3986L25.6152 46.5496C25.4952 46.5646 25.3878 46.4787 25.3625 46.3478L24.9985 44.4893C24.9709 44.3486 25.049 44.2099 25.173 44.1787C25.2959 44.1494 25.4194 44.236 25.4469 44.3766L25.7656 46.0033L26.887 45.8437C27.0294 45.8242 27.1494 45.9525 27.1448 46.1107L26.8451 56.6496C26.8393 56.871 26.6056 56.9817 26.4621 56.8352H26.4632Z"
      fill="#2E2F31" />
    <path id="Vector_16"
      d="M15.9724 37.6337C15.9724 37.6337 16.925 39.0259 18.16 37.9606C19.3951 36.8952 20.7329 32.5961 20.7329 32.5961C20.7329 32.5961 23.3696 38.4333 26.6659 35.3786C26.6659 35.3786 24.8332 30.4367 23.0658 29.0555C21.2991 27.6744 19.3607 30.0675 19.3607 30.0675C19.3607 30.0675 15.3982 29.9119 14.4549 30.9238C13.5115 31.9358 15.973 37.635 15.973 37.635L15.9724 37.6337Z"
      fill="#2E2F31" />
    <path id="Vector_17"
      d="M28.2202 63.2175C28.9404 63.2175 29.5242 62.5554 29.5242 61.7386C29.5242 60.9219 28.9404 60.2598 28.2202 60.2598C27.5001 60.2598 26.9163 60.9219 26.9163 61.7386C26.9163 62.5554 27.5001 63.2175 28.2202 63.2175Z"
      fill="#2E2F31" />
    <path id="Vector_18"
      d="M64.8255 68.0011L67.0476 29.6252L112.771 33.031C112.137 43.9885 111.502 54.9467 110.868 65.9042C108.986 67.6058 107.103 69.308 105.221 71.0096C91.7557 70.0067 78.2906 69.0039 64.8255 68.0011Z"
      fill="white" />
    <path id="Vector_19"
      d="M64.5958 68.0017L66.8185 29.609C66.8265 29.4657 66.9362 29.3563 67.0625 29.3661L112.786 32.7712C112.906 32.7803 113.006 32.8942 113 33.0479L111.096 65.9212C111.092 65.9941 111.061 66.0619 111.01 66.1081L105.363 71.2134C105.252 71.3143 105.356 71.2811 64.81 68.2609C64.6882 68.2518 64.5952 68.1372 64.5952 68.0011L64.5958 68.0017ZM67.2623 29.9027L65.0701 67.7582L105.147 70.7432L110.645 65.7721L112.527 33.2732L67.2617 29.902L67.2623 29.9027Z"
      fill="#2E2F31" />
    <path id="Vector_20" d="M110.868 65.9043L105.436 65.4999L105.117 71.0024L110.868 65.9043Z"
      fill="#2E2F31" />
    <path id="Vector_21"
      d="M96.6652 40.2078L81.0136 39.0428C80.8873 39.0337 80.7908 38.9093 80.7994 38.7661C80.808 38.6222 80.9183 38.516 81.0435 38.5232L96.6795 39.6881C96.8058 39.6973 96.9023 39.8216 96.8937 39.9649C96.8856 40.103 96.7846 40.2084 96.6646 40.2084L96.6652 40.2078Z"
      fill="#2E2F31" />
    <path id="Vector_22"
      d="M102.546 46.8583L75.6232 44.854C75.4969 44.8449 75.4004 44.7205 75.409 44.5772C75.4177 44.4333 75.5262 44.3285 75.6531 44.3343L102.561 46.338C102.687 46.3472 102.784 46.4715 102.775 46.6148C102.767 46.7529 102.666 46.8583 102.546 46.8583H102.546Z"
      fill="#2E2F31" />
    <path id="Vector_23"
      d="M102.358 50.1202L75.4343 48.1152C75.308 48.1061 75.2115 47.9817 75.2201 47.8384C75.2282 47.6945 75.3413 47.5903 75.4642 47.5955L102.372 49.5999C102.498 49.609 102.595 49.7334 102.586 49.8766C102.578 50.0147 102.477 50.1202 102.357 50.1202H102.358Z"
      fill="#2E2F31" />
    <path id="Vector_24"
      d="M102.169 53.3813L75.2453 51.3763C75.119 51.3672 75.0226 51.2428 75.0312 51.0996C75.0398 50.9556 75.1506 50.8482 75.2752 50.8567L102.183 52.861C102.309 52.8701 102.406 52.9945 102.397 53.1378C102.389 53.2758 102.288 53.3813 102.168 53.3813H102.169Z"
      fill="#2E2F31" />
    <path id="Vector_25"
      d="M101.98 56.6425L75.0564 54.6375C74.9301 54.6284 74.8337 54.504 74.8423 54.3607C74.8509 54.2168 74.96 54.1133 75.0863 54.1178L101.994 56.1222C102.12 56.1313 102.217 56.2557 102.208 56.3989C102.2 56.537 102.099 56.6425 101.979 56.6425H101.98Z"
      fill="#2E2F31" />
    <path id="Vector_26"
      d="M101.791 59.9042L74.8675 57.8998C74.7412 57.8907 74.6448 57.7663 74.6534 57.6231C74.6614 57.4791 74.7699 57.3723 74.8974 57.3802L101.805 59.3839C101.931 59.393 102.028 59.5174 102.019 59.6606C102.011 59.7987 101.91 59.9042 101.79 59.9042H101.791Z"
      fill="#2E2F31" />
    <path id="Vector_27"
      d="M101.602 63.1654L74.6786 61.1604C74.5523 61.1513 74.4559 61.0269 74.4645 60.8837C74.4725 60.7397 74.5845 60.6362 74.7085 60.6408L101.616 62.6451C101.743 62.6542 101.839 62.7786 101.83 62.9219C101.822 63.0599 101.721 63.1654 101.601 63.1654H101.602Z"
      fill="#2E2F31" />
    <path id="Vector_28"
      d="M60.7871 53.3858L63.0287 49.4949C63.3256 47.9803 63.9761 45.6712 65.3266 44.9809C65.5666 44.8585 65.7469 44.8285 66.6535 44.4241C67.8633 43.8843 68.3272 43.5874 68.5403 43.8016C68.7452 44.008 68.5908 44.5602 68.5058 44.852C68.5058 44.852 68.1257 46.1615 65.864 48.3013L65.7612 53.3344"
      fill="white" />
    <path id="Vector_29"
      d="M60.7871 53.6463C60.608 53.6463 60.4943 53.4184 60.5953 53.2432L62.814 49.3921C63.1602 47.6482 63.8595 45.4446 65.2324 44.7433C65.3444 44.686 65.4414 44.6488 65.5878 44.5922C67.6107 43.8082 68.2733 43.185 68.6936 43.6063C69.0163 43.9306 68.8268 44.5831 68.7251 44.9334C68.7091 44.9894 68.3077 46.3068 66.0925 48.4251L65.9921 53.3403C65.9892 53.4842 65.8818 53.5936 65.7572 53.5949C65.6303 53.5916 65.5298 53.4724 65.5327 53.3285L65.6355 48.2955C65.6372 48.2206 65.6671 48.1496 65.7182 48.1014C67.8823 46.0535 68.2853 44.7817 68.2893 44.7687C68.4759 44.1259 68.4053 44.0126 68.3893 43.9964C68.3026 43.9469 67.8438 44.1585 67.4011 44.3636C65.5941 45.2011 65.7922 45.0298 65.4219 45.218C64.2098 45.8373 63.5742 47.9159 63.2538 49.551C63.2394 49.6226 63.2658 49.5608 60.98 53.5278C60.9358 53.6046 60.8623 53.6457 60.7877 53.6457L60.7871 53.6463Z"
      fill="#2E2F31" />
    <path id="Vector_30"
      d="M13.4425 81.5315C13.2846 81.5315 13.1721 81.353 13.2267 81.1818C14.1126 78.4194 17.5261 76.2249 18.3041 75.7535C16.3473 63.7775 12.8052 57.5072 12.7696 57.4447C12.7007 57.3242 12.7306 57.1627 12.8368 57.0839C12.9436 57.0058 13.086 57.0396 13.1549 57.1601C13.1911 57.2233 16.8181 63.6368 18.787 75.8486C18.8054 75.9619 18.7554 76.0758 18.6647 76.1279C18.6239 76.1514 14.5766 78.4963 13.6584 81.3596C13.6246 81.4651 13.5367 81.5308 13.4425 81.5308V81.5315Z"
      fill="#2E2F31" />
    <path id="Vector_31"
      d="M41.733 64.4281C41.6153 64.4281 41.5148 64.3258 41.5044 64.1904C40.7523 54.5359 38.3539 49.7373 38.3298 49.6904C38.2661 49.566 38.304 49.4065 38.4136 49.3348C38.5233 49.2625 38.664 49.3055 38.7271 49.4292C38.7518 49.4774 41.2001 54.362 41.9621 64.1448C41.9741 64.2972 41.8679 64.4281 41.733 64.4281Z"
      fill="#2E2F31" />
    <path id="Vector_32"
      d="M34.0275 68.5475L36.3667 67.4912C36.3667 67.4912 38.5296 64.9288 39.6837 64.4235C40.8378 63.9175 41.1634 62.7115 41.5406 63.4115C41.9178 64.1122 41.8323 65.3957 40.5456 66.6799C40.5456 66.6799 43.7707 65.8822 44.9024 64.9288C46.0347 63.9755 47.0981 62.5748 47.5098 63.2168C47.9215 63.8589 46.6009 68.9948 46.0003 69.9872C45.3997 70.9797 39.6831 73.8781 39.6831 73.8781L36.8128 77.1542"
      fill="white" />
    <path id="Vector_33"
      d="M36.8128 77.4147C36.6107 77.4147 36.5056 77.1354 36.6497 76.9706C39.578 73.6287 39.5281 73.6717 39.5895 73.6404C41.8638 72.4872 45.3973 70.5238 45.8113 69.8401C46.4561 68.7747 47.6005 63.8759 47.3237 63.3692C47.1044 63.028 45.9468 64.3747 45.0396 65.1385C43.8809 66.114 40.7281 66.9019 40.5949 66.9345C40.3641 66.9924 40.2171 66.6616 40.3939 66.4845C41.532 65.3488 41.6916 64.191 41.3448 63.5477C41.3034 63.4708 41.2793 63.4552 41.2793 63.4552C41.1335 63.506 40.6047 64.2991 39.7664 64.6664C38.6731 65.1457 36.5538 67.6469 36.5326 67.6716C36.4786 67.7354 36.5389 67.6938 34.1118 68.7897C33.993 68.8438 33.8604 68.778 33.8133 68.6445C33.7662 68.511 33.8236 68.3593 33.9413 68.3059L36.2352 67.2705C36.5303 66.9247 38.4802 64.6716 39.6004 64.1806C40.5404 63.7684 40.8608 62.8659 41.354 62.9427C41.888 63.0293 42.4449 64.5603 41.2604 66.2162C42.2727 65.9212 44.0182 65.3495 44.7657 64.7198C45.801 63.8479 46.6737 62.707 47.3076 62.7988C47.4638 62.8196 47.5982 62.9114 47.6958 63.0638C48.243 63.9169 46.7134 69.2696 46.1897 70.1344C45.5828 71.1379 40.5668 73.7147 39.8163 74.0963L36.9759 77.3379C36.9311 77.3893 36.8719 77.4147 36.8128 77.4147Z"
      fill="#2E2F31" />
    <path id="Vector_34"
      d="M49.4998 73.8272C49.377 73.8272 49.2753 73.7165 49.2707 73.5765C49.1657 70.3629 51.8178 66.67 51.9303 66.5144C52.0113 66.403 52.156 66.3874 52.2536 66.4786C52.3518 66.5697 52.3656 66.7345 52.2852 66.8452C52.2588 66.8817 49.6313 70.542 49.7295 73.557C49.7341 73.7048 49.6302 73.8272 49.4998 73.8272Z"
      fill="#2E2F31" />
    <path id="Vector_35"
      d="M54.4793 2.68527C54.8927 2.91173 55.2959 3.16194 55.6874 3.43496C55.5601 3.31045 55.5598 3.31008 55.6647 3.36075C55.5189 3.24142 55.3155 3.10305 55.1785 3.00807C55.2971 3.05999 55.41 3.12743 55.5151 3.20905C55.5549 3.23788 55.5447 3.24119 55.5978 3.28391C55.7714 3.41725 55.9388 3.55804 56.0414 3.62452C56.1876 3.71859 56.282 3.7778 56.1749 3.6542C56.1893 3.66133 56.2032 3.66993 56.2162 3.6799C56.2376 3.69729 56.2777 3.73208 56.3034 3.75633C56.7335 4.1456 57.1337 4.57664 57.4994 5.04468C57.6156 5.18507 57.7186 5.33629 57.8206 5.48169C57.8975 5.58885 57.9753 5.71062 58.0516 5.8222C58.1577 5.97266 58.2542 6.13043 58.3473 6.2916C58.4446 6.4496 58.5311 6.61625 58.6187 6.78382C58.9338 7.38945 59.1996 8.02703 59.4129 8.68852C59.4662 8.84903 59.5164 9.0057 59.5596 9.16182C59.6045 9.31719 59.6527 9.46812 59.6895 9.62121C59.8152 10.0926 59.9117 10.5736 59.9783 11.0607C60.1046 12.0254 60.1398 13.003 60.0833 13.9764C60.0692 14.2649 60.0384 14.5562 60.0225 14.8142C60.0185 14.8983 59.9965 15.0418 59.9822 15.1594C59.9119 15.7127 59.811 16.2604 59.6801 16.7991C59.6436 16.9638 59.5991 17.1249 59.5525 17.2852C59.505 17.4451 59.4657 17.6081 59.4103 17.7652C59.0893 18.7683 58.6792 19.7308 58.1864 20.6375C58.0942 20.8017 58.001 20.9599 57.9072 21.1189C57.7865 21.322 57.6519 21.521 57.5407 21.7052C57.2447 22.1635 56.9196 22.5959 56.5679 22.9991C56.2272 23.404 55.8448 23.7924 55.4587 24.1674C55.3105 24.3016 55.162 24.436 55.0132 24.5706L54.5535 24.9507C54.4007 25.0669 54.2444 25.1858 54.0923 25.3014C53.991 25.3769 53.8889 25.4413 53.7808 25.515C53.4667 25.7292 53.1424 25.9231 52.8095 26.0958C52.5648 26.2169 52.3295 26.3333 52.0779 26.4578C51.8811 26.5441 51.6821 26.6313 51.4843 26.718C51.285 26.7997 51.0842 26.8715 50.8905 26.9482C50.412 27.1268 49.9266 27.2693 49.4425 27.4012C49.3068 27.4424 49.1544 27.4703 49.0169 27.5025C48.7943 27.5527 48.5703 27.6032 48.3434 27.6426C48.1172 27.6852 47.8901 27.7315 47.6601 27.7644C46.7886 27.9137 45.911 28.0087 45.0328 28.0661C44.0966 28.13 43.1472 28.142 42.2215 28.1479C41.9463 28.1543 41.6724 28.1948 41.4048 28.2689C41.2647 28.3024 41.1284 28.3539 40.9984 28.4225C40.7275 28.5722 40.4754 28.7632 40.2491 28.9902C39.9241 29.3094 39.6213 29.6718 39.2794 29.9965C39.0441 30.2234 38.7965 30.4419 38.5321 30.6548C38.1884 30.9308 37.8279 31.1781 37.4533 31.3948C37.2117 31.5338 36.9692 31.6645 36.7217 31.781C36.4752 31.9015 36.2203 31.9928 35.9681 32.103L35.2477 32.4179L35.8145 31.7857L35.8852 31.7068C35.9226 31.6636 35.9661 31.6129 36.0063 31.5665C36.1612 31.3763 36.3075 31.1773 36.4456 31.0127C36.6274 30.7643 36.7964 30.504 36.9519 30.2332C37.1078 29.9681 37.248 29.6882 37.3821 29.405C37.5573 29.0224 37.714 28.629 37.8515 28.2266C37.9499 27.9352 38.0324 27.637 38.0987 27.3338L38.3731 27.7263L37.9667 27.7309C37.283 27.7405 36.6004 27.6651 35.9308 27.506C35.7855 27.4681 35.648 27.424 35.5002 27.3894C34.4037 27.1178 33.3551 26.6356 32.3985 25.9632C32.2808 25.8795 32.1591 25.8045 32.0451 25.7156C31.931 25.6262 31.8176 25.5372 31.7031 25.4474C30.8394 24.7696 30.0606 23.9594 29.3884 23.0392C29.286 22.8967 29.1842 22.7551 29.0831 22.6145C28.9871 22.4698 28.8978 22.3208 28.8052 22.1765C28.5757 21.8392 28.3905 21.4414 28.1922 21.087C28.1278 20.9606 28.0703 20.8298 28.0201 20.6952C27.602 19.7121 27.2919 18.6732 27.097 17.6023C27.0631 17.4413 27.0372 17.2782 27.0195 17.1138C26.9985 16.9493 26.9791 16.7837 26.9633 16.6161C26.967 16.605 26.9767 16.6393 26.9636 16.4883C26.9463 16.0683 26.9019 15.579 26.9182 15.0905C26.918 14.0711 27.0263 13.0554 27.2407 12.0662C27.4509 11.077 27.7572 10.118 28.1537 9.20726C28.5247 8.37728 28.9708 7.59445 29.4846 6.87171C29.5729 6.73588 29.7004 6.59494 29.7698 6.49327C29.8578 6.3718 29.9525 6.24869 30.0503 6.1248C30.1493 6.00228 30.2606 5.89008 30.3669 5.77147C30.6633 5.45287 30.9747 5.15325 31.2999 4.87396C31.408 4.77806 31.5225 4.69361 31.653 4.58772C31.6059 4.63289 31.5841 4.65374 31.5598 4.67695C31.5764 4.66506 31.596 4.65237 31.618 4.63495C31.7731 4.50757 31.9339 4.38953 32.0952 4.2714C32.2542 4.14928 32.4198 4.03913 32.5842 3.92741C32.6528 3.88034 32.7388 3.82146 32.7917 3.78512C32.9946 3.63968 33.2048 3.5081 33.4212 3.39107C33.6201 3.27628 33.8199 3.16622 34.0222 3.06388C34.2221 2.95556 34.4265 2.86153 34.6297 2.7649C35.2764 2.47017 35.9368 2.21642 36.6077 2.0048C36.6437 1.99408 36.6828 1.98248 36.749 1.96285C36.3153 2.11099 35.8891 2.24885 35.4481 2.43304C35.6512 2.3659 35.8319 2.28683 36.0049 2.2282C37.11 1.83717 38.2368 1.53218 39.3777 1.31531C39.5836 1.27059 39.7944 1.23714 39.9998 1.20595C41.1162 1.02916 42.2401 0.922459 43.3667 0.886315L43.9224 0.875977C44.1078 0.878759 44.2901 0.88017 44.4606 0.87702C44.7337 0.889195 45.071 0.904193 45.3714 0.927131C45.6341 0.942359 45.9057 0.9761 46.1753 1.0017C46.4853 1.02789 46.7906 1.07554 47.1042 1.11066C47.6677 1.18 48.2506 1.28306 48.8393 1.40855C48.9539 1.43507 49.1598 1.48403 49.2552 1.51579L49.1422 1.48803C49.0846 1.47346 49.0667 1.4695 49.0902 1.47706C49.0934 1.47775 49.1241 1.48479 49.1415 1.48865L49.2493 1.51451L49.7531 1.6452C49.6633 1.63533 49.5742 1.61811 49.4866 1.59368C49.3478 1.56164 49.2088 1.5296 49.053 1.49366C49.1914 1.5372 49.4752 1.60269 49.628 1.64609C49.6384 1.65487 49.4054 1.59716 49.4116 1.60514C49.4155 1.61034 49.4085 1.61287 49.406 1.61751C49.5119 1.64275 49.591 1.66157 49.6701 1.68035C49.7354 1.69174 49.7998 1.70956 49.8625 1.73361C49.821 1.73103 50.0368 1.78579 50.0807 1.80173C50.0826 1.80386 50.0908 1.80753 50.0854 1.80773C50.0669 1.80815 49.9008 1.76546 49.8732 1.76183C49.8242 1.75578 49.8531 1.77116 49.849 1.77791C50.0899 1.84326 50.3278 1.90775 50.5669 1.97259C50.806 2.03742 51.0429 2.11727 51.2865 2.19051C50.9766 2.09969 50.9679 2.09685 50.8055 2.0558C50.669 2.01845 50.6231 2.00584 50.5051 1.97357C50.1512 1.87293 50.0144 1.83378 49.7809 1.79061L50.6231 2.02555C50.6235 2.03095 50.4462 1.98843 50.5965 2.0318C50.5432 2.01871 50.487 2.0049 50.4315 1.99121C50.4387 1.99601 50.4466 1.9994 50.4548 2.00126C50.5742 2.03327 50.7385 2.07619 50.8138 2.10676C50.8692 2.12767 50.9986 2.16678 51.119 2.20338C51.2844 2.25372 51.3972 2.29114 51.4848 2.32171C51.5305 2.34214 51.2925 2.2717 51.2522 2.26453C51.1941 2.25556 51.1366 2.24223 51.08 2.22462L51.2976 2.30161C51.2691 2.29405 51.2346 2.28482 51.212 2.27883C50.9982 2.21753 50.7886 2.15333 50.5778 2.0994L49.943 1.94248C49.1891 1.76998 48.431 1.61801 47.6675 1.51926C47.2664 1.45605 46.8634 1.42552 46.4624 1.38206C46.0598 1.3584 45.6584 1.32109 45.2558 1.31635C44.1611 1.27984 43.0656 1.31222 41.9741 1.41336C41.4184 1.46361 40.8615 1.54046 40.309 1.63398C39.3466 1.79614 38.3921 2.01524 37.4494 2.29038C36.7891 2.48057 36.1381 2.71095 35.4992 2.98057C34.7848 3.27791 34.0886 3.63011 33.4154 4.03476C32.8348 4.38392 32.2797 4.78628 31.7555 5.23791C31.3727 5.56636 31.0086 5.92231 30.6651 6.30364C30.4887 6.4886 30.3331 6.6951 30.1731 6.89691C30.0939 6.99858 30.0118 7.09748 29.9347 7.20122L29.7167 7.52563C29.4715 7.86547 29.2714 8.2363 29.0525 8.60047C28.9296 8.83322 28.8141 9.07842 28.6937 9.3221C28.5778 9.56861 28.4843 9.83035 28.3785 10.0823C28.3001 10.2591 28.2493 10.4494 28.1855 10.6334C28.1276 10.8199 28.0566 11.0012 28.0092 11.1919C27.9128 11.5722 27.8001 11.9472 27.7321 12.3359C27.6986 12.5035 27.6631 12.6748 27.6322 12.8476C27.6105 13.022 27.5884 13.1972 27.5669 13.3701C27.509 13.7518 27.5115 14.1144 27.473 14.5287C27.457 14.7166 27.4659 14.9158 27.4635 15.1158C27.4658 15.3158 27.4575 15.5176 27.473 15.711C27.4845 15.9224 27.4957 16.1304 27.507 16.3387C27.5212 16.547 27.555 16.7522 27.5771 16.9594C27.5978 17.1096 27.6067 17.2622 27.6377 17.4097L27.7236 17.8524C27.7788 18.1456 27.8501 18.4345 27.937 18.7174C27.9796 18.8578 28.0082 19.0014 28.0584 19.1375C28.1046 19.2749 28.1511 19.4133 28.1998 19.558L28.2952 19.8471C28.3279 19.943 28.3709 20.0339 28.4085 20.1278L28.6421 20.688L28.9166 21.2266C28.9633 21.316 29.0075 21.4073 29.057 21.4949L29.2149 21.751C29.2805 21.8553 29.3428 21.9544 29.4049 22.0536C29.4632 22.1496 29.5283 22.2399 29.5996 22.3235C29.7974 22.558 30.0007 22.8619 30.2578 23.1457C31.4573 24.5742 32.9268 25.6671 34.5528 26.3401C35.2978 26.6321 36.0665 26.8374 36.8473 26.9527L37.54 27.0279C37.7715 27.0373 38.0036 27.0368 38.2357 27.0422L38.3499 27.0441L38.7887 27.0518L38.6744 27.5084C38.3962 28.6115 37.9451 29.6471 37.3432 30.5645C36.9616 31.1268 36.5242 31.6361 36.0398 32.082L35.8683 31.7277C36.0497 31.6767 36.2279 31.6114 36.4017 31.5325C37.0739 31.2442 37.7149 30.8682 38.3122 30.4117C38.6446 30.1576 38.9621 29.8789 39.2628 29.5773C39.5634 29.2763 39.8523 28.9433 40.1772 28.6413C40.2441 28.5794 40.313 28.5185 40.3827 28.4601C40.6125 28.2634 40.8673 28.1085 41.1381 28.0008C41.4085 27.9004 41.6886 27.8385 41.9721 27.8166C42.5315 27.7702 43.0662 27.7895 43.6048 27.7748L44.0412 27.7642C44.8717 27.7421 45.7011 27.6933 46.5272 27.6032C47.2915 27.5223 48.0513 27.3924 48.803 27.2141C49.6748 27.0129 50.5322 26.7368 51.368 26.3883C52.2535 26.014 53.1053 25.5419 53.9112 24.9785C53.9959 24.9154 54.083 24.8503 54.1687 24.7864C54.3914 24.627 54.5979 24.4398 54.8123 24.2662C55.0156 24.0756 55.228 23.8976 55.4217 23.6939C55.8185 23.3006 56.1926 22.878 56.5417 22.4289C57.4031 21.317 58.1134 20.0623 58.6485 18.7071C58.8323 18.2334 58.995 17.7493 59.1359 17.2566C59.9359 14.4406 59.9368 11.2909 58.9647 8.54256C58.8015 8.08733 58.6138 7.64416 58.4027 7.21562C58.1896 6.78904 57.9523 6.37899 57.6924 5.98814C57.2723 5.35245 56.7883 4.77598 56.2503 4.27074C56.0015 4.03627 55.7336 3.81288 55.4926 3.61547C55.3742 3.52026 55.2242 3.41287 55.0876 3.32602C55.0343 3.28577 54.9913 3.251 55.0437 3.27899C55.1729 3.34786 55.1479 3.31497 55.1154 3.27794C55.0669 3.2367 54.9806 3.17825 54.8931 3.11913C54.8048 3.06228 54.7122 3.0118 54.6575 2.97203C54.671 2.97957 54.684 2.98689 54.6963 2.99377L54.8334 3.06633L54.7465 3.00552C54.7213 2.98977 54.6942 2.97278 54.667 2.95584L54.654 2.95052L54.6554 2.94859L54.6679 2.95611C54.7595 2.99646 54.8488 3.04341 54.9352 3.09669C54.9951 3.13948 55.0531 3.18095 55.1015 3.21545C55.1272 3.23276 55.154 3.24807 55.1815 3.26127C55.53 3.46889 55.5882 3.48418 55.5088 3.37766C55.4964 3.36179 55.5198 3.37147 55.4277 3.29437C55.2161 3.13925 54.9397 2.9636 54.7147 2.82918C54.5373 2.73714 54.7348 2.85981 54.6573 2.82404C54.3946 2.66681 54.4778 2.70363 54.4793 2.68527ZM33.1295 3.57522C33.349 3.44468 33.5069 3.36786 33.6754 3.26128C33.5062 3.349 33.3484 3.43492 33.1295 3.57522ZM38.908 30.3305L38.8606 30.3666C38.832 30.3912 38.798 30.4207 38.7684 30.4461C38.7304 30.4798 38.734 30.4791 38.7756 30.4452C38.822 30.4072 38.8679 30.3681 38.908 30.3305ZM43.6788 28.1168C43.6627 28.117 43.6441 28.1173 43.6305 28.1176C43.5754 28.1201 43.5719 28.1217 43.622 28.1215C43.6349 28.1209 43.6569 28.12 43.6705 28.1194C43.6796 28.1186 43.6767 28.1177 43.6788 28.1168ZM46.6288 27.9017L46.5209 27.9166C46.5364 27.915 46.5523 27.9133 46.5671 27.9118L46.6234 27.9041C46.6285 27.9033 46.6271 27.9025 46.6288 27.9017Z"
      fill="#87CBD1" class="--fill-change-color" />
    <g id="Group">
      <path id="Vector_36"
        d="M42.3252 19.4605C42.5067 19.4828 42.6887 19.4225 42.831 19.2927C42.7578 19.2927 42.7593 19.292 42.7844 19.2411C42.721 19.2756 42.6544 19.3016 42.5858 19.3186C42.6177 19.2801 42.6568 19.2501 42.7002 19.2309C42.7152 19.2224 42.7177 19.236 42.7407 19.2287C42.8063 19.2084 42.8652 19.1668 42.9103 19.1091C42.9505 19.0448 42.9678 18.995 42.9045 18.9999C42.9062 18.9928 42.9094 18.9862 42.9137 18.9808C42.9233 18.9696 42.934 18.9597 42.9455 18.9513C43.1219 18.8276 43.3045 18.6625 43.4855 18.5229C43.542 18.4792 43.5959 18.4326 43.6533 18.3947C43.6969 18.3648 43.7384 18.331 43.7773 18.2938C43.8834 18.1953 43.9965 18.1096 44.11 18.0198L44.72 17.5278C44.8186 17.447 44.9067 17.3627 44.9913 17.2779C45.1173 17.1519 45.2471 17.0282 45.3976 16.9035C45.6759 16.6724 45.9507 16.4349 46.2253 16.1974C46.3065 16.1322 46.383 16.0596 46.4539 15.9803C46.484 15.9484 46.5157 15.9186 46.5489 15.8909C46.7045 15.7513 46.8598 15.612 47.0146 15.4729C47.109 15.3885 47.2042 15.307 47.301 15.2267C47.6065 14.9736 47.9008 14.7019 48.1942 14.4311C48.2481 14.3814 48.3004 14.3327 48.3553 14.2868C48.4241 14.2294 48.4901 14.1677 48.5529 14.1021C48.7023 13.9469 48.8616 13.8043 49.0293 13.6755C49.193 13.5445 49.3554 13.3973 49.5161 13.2501C49.6355 13.1399 49.7526 13.025 49.8692 12.9113C49.927 12.8547 49.9844 12.7957 50.036 12.7386C50.0712 12.6993 50.1063 12.663 50.1447 12.6242C50.2543 12.5091 50.3722 12.4046 50.4971 12.3117C50.5875 12.2431 50.6736 12.1675 50.7548 12.0854L50.9543 11.8962C51.0041 11.8562 51.0487 11.8085 51.0868 11.7544C51.0924 11.7395 51.0844 11.7544 51.0847 11.7572C51.0836 11.7436 51.0812 11.7301 51.0776 11.717C51.048 11.6259 51.0117 11.5378 50.9689 11.4536C50.9429 11.3976 50.9177 11.334 50.894 11.2763C50.818 11.0871 50.7321 10.903 50.6369 10.7252C50.4582 10.3804 50.2624 10.0474 50.0503 9.72778C49.8226 9.38713 49.5786 9.06078 49.3196 8.75015C49.2401 8.65732 49.1546 8.56972 49.0687 8.48382C49.0328 8.42756 48.9913 8.37629 48.9448 8.33105L48.8082 8.18881C48.7827 8.16098 48.7541 8.13717 48.723 8.11805C48.714 8.11384 48.7243 8.11964 48.7406 8.11748C48.7586 8.1144 48.7634 8.10675 48.7479 8.11805C48.7202 8.13737 48.6328 8.22852 48.569 8.28809C48.4734 8.37961 48.3798 8.4771 48.2861 8.58189C48.169 8.71477 48.0386 8.84924 47.9115 8.97689C47.7378 9.15414 47.5801 9.34314 47.4066 9.51935C47.3895 9.53681 47.3725 9.55942 47.3567 9.57922C47.2998 9.6621 47.2309 9.73343 47.153 9.79016C47.0639 9.88103 46.9769 9.97311 46.8931 10.0716C46.8076 10.1709 46.723 10.2691 46.6431 10.3618C46.5283 10.4912 46.4135 10.6182 46.29 10.7346C46.165 10.8531 46.0388 10.998 45.9177 11.1345C45.7227 11.3576 45.5246 11.5704 45.3285 11.7872C45.2849 11.833 45.2433 11.8812 45.204 11.9317C44.919 12.3168 44.6042 12.6863 44.2801 13.0501C44.2007 13.1392 44.1233 13.2286 44.0469 13.3211C43.7607 13.6714 43.4767 14.024 43.1949 14.3788C43.1081 14.4884 43.0246 14.5978 42.9453 14.7085C42.8518 14.841 42.745 14.9724 42.6564 15.1061C42.6378 15.1332 42.618 15.1591 42.597 15.1838L42.1815 14.6432L42.2287 14.6099C42.4036 14.4852 42.5589 14.3282 42.6882 14.1455L42.6826 14.5957C42.5844 14.4654 42.4845 14.3376 42.3827 14.2123C42.3022 14.1175 42.2271 14.017 42.1577 13.9114C42.1596 13.9041 42.1722 13.9103 42.1423 13.8606C42.0487 13.732 41.9407 13.5808 41.8284 13.4349C41.3596 12.826 40.8897 12.2194 40.4 11.6325L39.9599 11.1165L40.3818 11.1308L40.1266 11.3975C40.0824 11.4414 40.0406 11.4882 40.0013 11.5376C39.9242 11.6373 39.841 11.7306 39.7523 11.8169L39.3873 12.1917C39.3469 12.2316 39.304 12.2737 39.2551 12.3221C39.2694 12.2982 39.2762 12.2872 39.2836 12.2749C39.2753 12.2801 39.2674 12.2859 39.26 12.2925C39.1422 12.4063 39.0283 12.5266 38.9142 12.6464C38.8892 12.6706 38.8658 12.6969 38.8442 12.7249C38.7833 12.8116 38.7143 12.8905 38.6383 12.9602C38.5064 13.0998 38.3736 13.2401 38.2428 13.3782C38.0348 13.5959 37.8171 13.8108 37.6086 14.0218C37.5987 14.0322 37.5872 14.0408 37.572 14.0549C37.6143 13.9988 37.6962 13.9169 37.7606 13.8498C37.8291 13.7793 37.8986 13.7087 37.9674 13.6329C37.9027 13.6861 37.8419 13.7453 37.7856 13.8097L37.653 13.9443C37.6069 13.9912 37.5672 14.0317 37.5432 14.062C37.5172 14.0924 37.5108 14.1146 37.5111 14.1076C37.5132 14.1015 37.5081 14.075 37.5085 14.0857C37.55 14.1669 37.6024 14.2403 37.6636 14.3035L37.905 14.6003C37.9635 14.6722 38.0229 14.7451 38.0787 14.8182C38.382 15.2208 38.6981 15.6046 39.0119 15.9889C39.1139 16.1137 39.2162 16.2538 39.3191 16.3624C39.3836 16.4688 39.4831 16.5791 39.5621 16.6877C39.6387 16.7894 39.7089 16.8826 39.7782 16.9746C39.8625 17.0842 39.946 17.1928 40.0361 17.2988C40.1981 17.4895 40.3599 17.6954 40.5244 17.9044C40.5524 17.9497 40.6092 18.0242 40.6307 18.0646C40.6201 18.0507 40.6108 18.0387 40.5995 18.0239C40.5837 18.0027 40.5784 17.9966 40.5837 18.0067C40.5854 18.0086 40.5944 18.0192 40.5986 18.0242L40.6291 18.0626C40.6724 18.1248 40.7185 18.1838 40.7627 18.252C40.7321 18.2275 40.7043 18.1988 40.6802 18.1664C40.6392 18.117 40.6 18.0697 40.555 18.0156C40.5866 18.0739 40.6686 18.1727 40.7068 18.233C40.7053 18.2423 40.6409 18.1576 40.6379 18.1656C40.6361 18.1707 40.631 18.1719 40.6267 18.1756C40.6567 18.2131 40.6788 18.2406 40.7017 18.2691C40.7323 18.3116 40.7586 18.3496 40.7494 18.3456C40.732 18.338 40.7954 18.4127 40.8052 18.4318C40.8048 18.4339 40.8059 18.438 40.8034 18.4374C40.7947 18.4352 40.746 18.3776 40.7354 18.371C40.7169 18.3594 40.7198 18.3762 40.7132 18.3816C40.8525 18.5522 40.9885 18.7188 41.1305 18.8924C41.0838 18.8355 41.0344 18.7817 40.9823 18.7312C40.95 18.6995 40.9198 18.665 40.892 18.6281C40.8277 18.5372 40.7546 18.4547 40.674 18.3823C40.7338 18.4689 40.8359 18.5875 40.9152 18.6846C40.9124 18.6886 40.8567 18.6313 40.8997 18.6855C40.883 18.668 40.8656 18.6496 40.8483 18.6314C40.8498 18.6354 40.8475 18.6358 40.8529 18.6423C40.888 18.6844 40.939 18.7387 40.9589 18.7688C40.9736 18.7907 41.0135 18.8349 41.0502 18.8761C41.1008 18.9327 41.134 18.9733 41.1594 19.0054C41.1707 19.0248 41.0963 18.9453 41.0815 18.935C41.0599 18.9212 41.04 18.9044 41.0222 18.8849L41.0851 18.965C41.0755 18.9562 41.0615 18.943 41.0568 18.9385C40.9207 18.803 40.7814 18.6641 40.6482 18.5314C40.4091 18.2885 40.1881 18.0261 39.958 17.7737C39.7178 17.5086 39.4767 17.2427 39.2349 16.9759C38.9064 16.6166 38.575 16.2621 38.25 15.8936C38.0821 15.7086 37.9147 15.524 37.7477 15.3398L37.3129 14.854L37.205 14.7316C37.1709 14.6924 37.1308 14.6484 37.0861 14.5897C37.0322 14.5206 36.9876 14.4428 36.954 14.3588C36.9081 14.2429 36.8929 14.1144 36.9104 13.989C36.9343 13.841 36.9972 13.7046 37.0907 13.5979C37.1615 13.5123 37.2154 13.4632 37.2672 13.4093C37.3735 13.3 37.4785 13.1916 37.5843 13.0828C37.8206 12.836 38.0595 12.5977 38.2986 12.3572C38.5048 12.1497 38.7095 11.936 38.9126 11.7228C39.2082 11.4102 39.5059 11.0953 39.802 10.7824C39.8575 10.7253 39.912 10.6694 39.968 10.6119L39.9754 10.6043C40.0345 10.5437 40.1123 10.512 40.1918 10.5162C40.2714 10.5204 40.3463 10.56 40.4001 10.6265C40.4583 10.6982 40.5181 10.7719 40.5806 10.8493C40.7158 11.0215 40.8635 11.1938 41.0053 11.3669C41.2064 11.6115 41.4084 11.8552 41.5989 12.1099C41.6815 12.2208 41.7723 12.3321 41.8601 12.4403C41.9577 12.56 42.0544 12.6664 42.1512 12.804C42.2383 12.9292 42.348 13.0548 42.4386 13.1827C42.5427 13.325 42.637 13.4545 42.737 13.5912C42.8757 13.7849 43.0157 13.9752 43.1593 14.1585C43.204 14.2155 43.2296 14.2886 43.2314 14.3649C43.2332 14.4412 43.2112 14.5158 43.1692 14.5754L43.1538 14.5971L43.1398 14.617C43.0629 14.7258 42.9769 14.826 42.8831 14.9162C42.7688 15.027 42.6479 15.1287 42.5213 15.2207L42.5106 15.2285C42.4506 15.2722 42.3785 15.2895 42.308 15.2771C42.2375 15.2648 42.1734 15.2238 42.1278 15.1616C42.0821 15.0995 42.0579 15.0206 42.0599 14.9398C42.0619 14.8589 42.0898 14.7816 42.1384 14.7225C42.2558 14.5795 42.3724 14.4345 42.4882 14.2873C42.5496 14.2126 42.6059 14.1328 42.6568 14.0486C42.7358 13.9186 42.8229 13.7951 42.9174 13.6791C43.407 13.0527 43.9166 12.4477 44.4327 11.8494L45.1435 11.0284L45.569 10.5503C45.8663 10.219 46.1656 9.89003 46.4669 9.56346L47.1862 8.79173C47.4072 8.55555 47.6259 8.31762 47.8523 8.08686L48.2306 7.70409C48.2628 7.67177 48.2896 7.6431 48.336 7.59931C48.3942 7.54332 48.4599 7.4981 48.5306 7.4653C48.6265 7.42268 48.7309 7.41141 48.8322 7.43279C48.9131 7.45077 48.9904 7.48584 49.0599 7.53618C49.1022 7.56685 49.1427 7.6005 49.1813 7.63693C49.239 7.69073 49.2745 7.73003 49.3193 7.77541C49.3618 7.81997 49.4056 7.86319 49.4471 7.90928C49.5309 8.00032 49.6146 8.09166 49.6953 8.18625C49.8586 8.37349 50.0157 8.56716 50.1699 8.76262C50.2109 8.81519 50.2522 8.86981 50.2913 8.92518C50.5155 9.24066 50.7256 9.56875 50.9207 9.9082C51.1017 10.2219 51.2713 10.5444 51.4265 10.8758C51.4719 10.9718 51.5157 11.0688 51.5579 11.1667C51.6111 11.2788 51.6556 11.3959 51.6908 11.5167C51.7156 11.6092 51.7261 11.7059 51.7217 11.8025C51.7154 11.9171 51.6843 12.0282 51.6313 12.126C51.5588 12.2467 51.4694 12.3532 51.3667 12.4412C51.0653 12.7316 50.7579 13.0269 50.4428 13.292C50.4094 13.3202 50.3748 13.3519 50.3414 13.3831C49.9988 13.6996 49.6562 14.0163 49.3134 14.3331C48.8927 14.7275 48.4663 15.1136 48.0372 15.4965C47.8865 15.6283 47.7348 15.7609 47.5838 15.8929C46.7191 16.651 45.8445 17.3945 44.9601 18.1234C44.6652 18.3655 44.3679 18.603 44.0682 18.836C43.8225 19.0328 43.5865 19.2219 43.3463 19.4142C43.2278 19.5181 43.0966 19.602 42.957 19.6633C42.8896 19.6896 42.8106 19.7398 42.7289 19.7643C42.6945 19.769 42.666 19.7698 42.6933 19.7523C42.7602 19.7088 42.735 19.6955 42.7088 19.6841C42.6185 19.704 42.5266 19.7121 42.4348 19.7082L42.4578 19.7066C42.4839 19.7034 42.5098 19.698 42.5352 19.6906C42.5174 19.6882 42.4983 19.6857 42.4823 19.6836C42.4698 19.6818 42.4519 19.6813 42.4354 19.6805L42.4283 19.6835L42.4285 19.6801H42.4358C42.472 19.6682 42.5218 19.6561 42.5795 19.6402C42.6132 19.6361 42.647 19.6327 42.6734 19.6263C42.6874 19.6221 42.7005 19.6146 42.7118 19.6044C42.8717 19.4947 42.8635 19.4339 42.8015 19.4105C42.7918 19.4064 42.7972 19.3935 42.7509 19.4048C42.6498 19.4576 42.5396 19.4843 42.4283 19.4829C42.3499 19.4958 42.4403 19.5085 42.4064 19.5196C42.2826 19.5048 42.3257 19.4768 42.3252 19.4605ZM38.7295 12.8454C38.6637 12.903 38.6021 12.9666 38.5455 13.0355C38.6119 12.9788 38.6735 12.9151 38.7295 12.8454ZM48.4167 8.42189C48.4091 8.42472 48.4018 8.42881 48.3952 8.43403C48.383 8.44535 48.3717 8.45765 48.3611 8.47083C48.3479 8.48726 48.3512 8.48913 48.368 8.47513C48.3866 8.46036 48.403 8.4424 48.4167 8.42189ZM49.7256 9.23279C49.7217 9.2268 49.7179 9.21951 49.7141 9.21494C49.6988 9.19674 49.696 9.19739 49.707 9.21672C49.7108 9.22269 49.7153 9.22814 49.7202 9.23296C49.7232 9.23564 49.7238 9.23305 49.7256 9.23279ZM50.441 10.3073L50.4161 10.2668L50.4244 10.2859C50.4282 10.2933 50.4325 10.3004 50.437 10.3072C50.4384 10.3092 50.4397 10.3074 50.441 10.3073Z"
        fill="#6FC1C9" class="--fill-change-color" />
      <path id="Vector_37"
        d="M42.4342 19.3842C42.5227 19.401 42.6136 19.3796 42.689 19.3242C42.6543 19.3251 42.6196 19.3233 42.5851 19.3191C42.5488 19.3493 42.4561 19.3632 42.4342 19.3842Z"
        fill="#6FC1C9" class="--fill-change-color" />
      <path id="Vector_38"
        d="M42.0904 19.5802C42.1087 19.5969 42.1289 19.6108 42.1503 19.6216C42.1949 19.64 42.2164 19.6363 42.217 19.6278C42.2178 19.6208 42.2025 19.611 42.166 19.5957C42.1239 19.5752 42.0744 19.5625 42.0904 19.5802Z"
        fill="#6FC1C9" class="--fill-change-color" />
      <path id="Vector_39"
        d="M37.5381 14.1109C37.5319 14.1013 37.5272 14.0905 37.5243 14.0791C37.5224 14.0823 37.5224 14.0962 37.5381 14.1109Z"
        fill="#6FC1C9" class="--fill-change-color" />
      <path id="Vector_40"
        d="M42.8948 19.0075L42.9047 19.0012C42.9009 19.0024 42.8975 19.0046 42.8948 19.0075Z"
        fill="#6FC1C9" class="--fill-change-color" />
      <path id="Vector_41"
        d="M42.8418 19.0483C42.8617 19.0392 42.8796 19.0254 42.8944 19.0078C42.875 19.0179 42.8572 19.0316 42.8418 19.0483Z"
        fill="#6FC1C9" class="--fill-change-color" />
      <path id="Vector_42" d="M49.9454 9.60608L49.955 9.61779L49.9449 9.60168L49.9454 9.60608Z"
        fill="#6FC1C9" class="--fill-change-color" />
      <path id="Vector_43" d="M42.4268 19.7048L42.4265 19.709L42.4368 19.7086L42.4268 19.7048Z"
        fill="#6FC1C9" class="--fill-change-color" />
      <path id="Vector_44"
        d="M42.4267 19.704L42.4284 19.6836C42.4091 19.691 42.4133 19.6976 42.4267 19.704Z"
        fill="#6FC1C9" class="--fill-change-color" />
      <path id="Vector_45"
        d="M40.8151 18.5559L40.8305 18.5721C40.8296 18.5699 40.8285 18.5679 40.8272 18.5661L40.8121 18.5502L40.8151 18.5559Z"
        fill="#6FC1C9" class="--fill-change-color" />
      <path id="Vector_46"
        d="M42.8656 19.1389C42.8782 19.1275 42.8749 19.1264 42.8579 19.1361C42.8532 19.1388 42.8481 19.1439 42.843 19.1475C42.8448 19.1479 42.8456 19.1497 42.8486 19.1485C42.8546 19.146 42.8603 19.1428 42.8656 19.1389Z"
        fill="#6FC1C9" class="--fill-change-color" />
      <path id="Vector_47"
        d="M42.9346 18.9113C42.9338 18.91 42.9309 18.9101 42.9286 18.9098L42.9178 18.9183L42.9238 18.9196L42.9346 18.9113Z"
        fill="#6FC1C9" class="--fill-change-color" />
      <path id="Vector_48"
        d="M49.0363 8.44983L49.0662 8.48116C49.0565 8.46892 49.0483 8.45406 49.0363 8.44983Z"
        fill="#6FC1C9" class="--fill-change-color" />
    </g>
  </g>
</svg>