<svg width="85" height="97" viewBox="0 0 85 97" fill="none" xmlns="http://www.w3.org/2000/svg">
<g id="Group 60">
<path id="Vector" d="M16.2781 68.2698C16.4241 72.1778 17.3693 75.5572 20.0672 75.8973C25.2722 76.553 26.4081 54.1931 26.3092 49.8391C26.1656 43.4828 25.1639 37.8705 25.1239 37.1383C25.1192 37.0524 25.1168 36.9688 25.118 36.8888C2.88998 44.4151 1.56223 54.9099 0.894823 63.3885C0.772407 64.9563 0.702959 66.4395 0.685303 67.8414H0.702959" fill="#87CBD1" class="--fill-change-color"/>
<path id="Vector_2" d="M56.3372 63.947C56.7104 67.676 57.0376 71.3662 57.3095 75.0093V75.0105C49.815 78.6041 42.1498 80.5486 35.5005 81.0842C41.4024 69.251 39.4873 51.091 40.7903 49.6726C42.7772 47.5103 43.6165 47.0889 43.9884 46.126C44.3274 45.2514 43.9884 43.9378 43.0079 43.7919C42.2004 43.6706 41.599 44.1332 40.9045 44.5911C42.6748 43.022 42.6348 41.4942 42.1169 40.9268C41.5319 40.2865 40.356 39.6214 38.7822 40.888C41.2988 38.5103 42.1534 36.5905 42.0945 35.3063C61.0832 33.4276 68.5495 47.2795 71.4863 58.6949C66.7697 61.3975 61.168 63.0419 56.3384 63.947H56.3372Z" fill="#87CBD1" class="--fill-change-color"/>
<path id="Vector_3" d="M26.2418 35.0609C26.1237 35.0609 26.0219 34.9723 26.0081 34.8523C26.0005 34.7853 25.9938 34.7183 25.9872 34.6523L25.9854 34.6348C25.9768 34.5494 26.0153 34.4662 26.0859 34.4176C26.6199 34.0488 28.323 32.7332 28.7737 30.7037C28.3318 30.7337 27.8571 30.5582 27.486 30.2115C26.9928 29.7512 26.8051 29.1154 26.9839 28.5107C27.1282 28.0238 27.5403 27.6556 28.086 27.5258C28.5012 27.4268 28.9358 27.4773 29.2983 27.6517C29.2508 27.2628 29.186 26.7675 29.1228 26.2829C29.025 25.5334 28.9238 24.7583 28.8869 24.3844C28.8804 24.3183 28.9021 24.2527 28.9465 24.2034C28.9909 24.1542 29.0541 24.1261 29.1203 24.1259C32.1114 24.1152 35.4234 23.9405 36.8654 21.9918C36.9096 21.932 36.9795 21.8967 37.0538 21.8964H37.0547C37.1286 21.8964 37.1983 21.9311 37.2428 21.9903C37.5614 22.4139 37.8328 22.8968 38.0495 23.4256C38.4884 24.4964 38.6813 25.6536 38.8414 26.7471C39.1918 29.1403 39.4378 31.5899 39.5933 34.2361C39.5936 34.2407 39.5937 34.2453 39.5937 34.2499C39.5937 34.3798 39.4882 34.4859 39.3583 34.4859C39.2309 34.4859 39.1272 34.3853 39.123 34.259C38.9683 31.6283 38.7237 29.1936 38.3755 26.8154C38.2198 25.7506 38.0325 24.6257 37.6138 23.6042C37.4539 23.2136 37.2623 22.8509 37.0427 22.5219C35.4402 24.356 32.2916 24.5745 29.3834 24.5953C29.4306 25.0043 29.5112 25.6214 29.5896 26.2219C29.6878 26.9739 29.7894 27.7516 29.8263 28.1273C29.8362 28.2275 29.7811 28.3229 29.6895 28.3646C29.5979 28.4062 29.4897 28.385 29.4206 28.3117C29.1312 28.0042 28.65 27.8758 28.1949 27.9839C27.8094 28.0756 27.5326 28.3164 27.4352 28.6445C27.3081 29.0741 27.4471 29.5314 27.8071 29.8675C28.1578 30.1948 28.6207 30.3187 28.9859 30.1827C29.0638 30.1535 29.1514 30.168 29.216 30.2201C29.2808 30.2724 29.313 30.355 29.301 30.4374C28.9683 32.7095 27.1747 34.2127 26.4675 34.7242C26.4701 34.7491 26.4728 34.774 26.4758 34.7988C26.4905 34.9281 26.3979 35.0447 26.2686 35.0596C26.2596 35.0606 26.2505 35.0611 26.2415 35.0611L26.2418 35.0609Z" fill="#2E2F31"/>
<path id="Vector_4" d="M30.5738 40.4365H30.5726C30.4427 40.4365 30.3372 40.3311 30.3372 40.2011C30.3372 40.0712 30.4427 39.9657 30.5726 39.9657C30.7026 39.9657 30.8086 40.0712 30.8086 40.2011C30.8086 40.3311 30.7038 40.4365 30.5738 40.4365Z" fill="#2E2F31"/>
<g id="Group">
<path id="Vector_5" d="M29.0678 30.4028C28.1326 30.7522 26.869 29.7274 27.2099 28.5776C27.4937 27.6205 28.908 27.4235 29.5926 28.1501C29.5193 27.4075 29.194 25.1033 29.1209 24.3607C32.1022 24.3506 35.5272 24.1966 37.0544 22.1323C36.6968 21.6571 36.2645 21.2443 35.7525 20.943C34.7503 20.3529 32.9073 20.0634 31.7469 20.1043C28.6501 20.2121 27.5167 21.5143 26.8578 22.3307C26.0547 23.3265 25.3705 24.8785 25.5284 26.581C25.7982 29.4635 25.9175 31.6108 26.22 34.6115C27.3726 33.8162 28.789 32.3083 29.0678 30.4029V30.4028Z" fill="#2E2F31"/>
<path id="Vector_6" d="M26.2199 34.8467C26.1863 34.8467 26.1525 34.8396 26.1211 34.825C26.0455 34.79 25.9941 34.7177 25.9857 34.6349C25.8173 32.9639 25.7034 31.5296 25.5933 30.1425C25.505 29.0307 25.4137 27.8808 25.2941 26.6029C25.153 25.082 25.6691 23.4297 26.6746 22.1827C27.295 21.4141 28.4499 19.9834 31.7387 19.8689C32.9702 19.8256 34.8527 20.1399 35.8721 20.7402C36.3836 21.0413 36.8448 21.462 37.2427 21.9906C37.3053 22.0739 37.3058 22.1884 37.2438 22.2722C35.7162 24.337 32.4189 24.5735 29.3833 24.5947C29.4307 25.0046 29.5116 25.6229 29.5903 26.2248C29.6885 26.9757 29.7901 27.752 29.827 28.127C29.8369 28.2273 29.782 28.3226 29.6903 28.3644C29.5986 28.4062 29.4905 28.3851 29.4214 28.3116C29.1316 28.0041 28.6503 27.8751 28.1955 27.9838C27.81 28.0755 27.5331 28.3164 27.4358 28.6446C27.3083 29.0744 27.4473 29.5317 27.8076 29.8679C28.1584 30.1951 28.6208 30.319 28.9857 30.1823C29.0636 30.1535 29.1512 30.1675 29.216 30.2197C29.2809 30.272 29.3131 30.3546 29.301 30.437C28.9483 32.8469 26.9561 34.3897 26.3539 34.8052C26.3139 34.8327 26.2672 34.8469 26.2202 34.8469L26.2199 34.8467ZM31.9779 20.3358C31.9014 20.3358 31.8271 20.3371 31.755 20.3395C28.681 20.4465 27.614 21.7684 27.0409 22.4784C26.1105 23.6322 25.6327 25.1577 25.7628 26.5592C25.8828 27.8403 25.9742 28.9917 26.0626 30.1053C26.1634 31.3746 26.2673 32.6835 26.4134 34.1762C27.1222 33.6205 28.3934 32.4171 28.7733 30.7036C28.3319 30.7335 27.8574 30.5585 27.4862 30.2121C26.9925 29.7515 26.8049 29.1155 26.9841 28.5107C27.1286 28.0238 27.5406 27.6555 28.0862 27.5256C28.5014 27.4269 28.936 27.4773 29.2986 27.6516C29.2511 27.2634 29.1865 26.7694 29.1233 26.2859C29.0251 25.5351 28.9235 24.7588 28.8865 24.3838C28.8801 24.3177 28.9017 24.252 28.9461 24.2028C28.9905 24.1536 29.0537 24.1255 29.12 24.1253C32.0381 24.1154 35.2613 23.9497 36.7558 22.1321C36.422 21.7196 36.0449 21.3883 35.633 21.146C34.7462 20.6236 33.1348 20.3358 31.9779 20.3358Z" fill="#2E2F31"/>
</g>
<path id="Vector_7" d="M32.1897 28.6331C31.8775 28.6331 31.5675 28.5274 31.322 28.3309C31.2206 28.2496 31.2042 28.1015 31.2856 27.9999C31.3669 27.8985 31.515 27.8819 31.6164 27.9634C31.8247 28.1302 32.1162 28.1992 32.3771 28.1424C32.6379 28.086 32.875 27.9031 32.9957 27.665C33.0546 27.5493 33.1963 27.5028 33.3121 27.5616C33.4281 27.6204 33.4743 27.7621 33.4155 27.878C33.2294 28.2446 32.8785 28.5155 32.4765 28.6025C32.3819 28.623 32.2856 28.633 32.1894 28.633L32.1897 28.6331Z" fill="#2E2F31"/>
<path id="Vector_8" d="M35.9733 27.9006C35.6613 27.9006 35.3511 27.7949 35.1057 27.5984C35.0042 27.5172 34.9878 27.369 35.0691 27.2674C35.1503 27.166 35.2984 27.1497 35.3999 27.2307C35.6083 27.3976 35.8997 27.4665 36.1606 27.4097C36.4214 27.3534 36.6585 27.1704 36.7792 26.9323C36.8381 26.8166 36.9798 26.7701 37.0956 26.829C37.2116 26.8877 37.2578 27.0294 37.199 27.1454C37.0129 27.5119 36.6619 27.7829 36.26 27.8699C36.1654 27.8904 36.0692 27.9004 35.9731 27.9004L35.9733 27.9006Z" fill="#2E2F31"/>
<g id="Group_2">
<path id="Vector_9" d="M11.5874 89.9989C11.5601 89.9989 11.5324 89.9941 11.5053 89.984C3.91792 87.1544 0.301686 79.9106 0.449998 67.8384C0.451529 67.7095 0.556524 67.6058 0.685415 67.6058H0.703072C0.833022 67.6058 0.938488 67.7113 0.938488 67.8413C0.938488 67.8739 0.931778 67.905 0.919772 67.9333C0.792765 79.7292 4.30965 86.7979 11.6697 89.5427C11.7915 89.5881 11.8535 89.7237 11.808 89.8455C11.7727 89.9403 11.6829 89.9988 11.5874 89.9988V89.9989Z" fill="#2E2F31"/>
<g id="Group_3">
<path id="Vector_10" d="M35.5692 81.2507C35.5339 81.2507 35.4981 81.2428 35.4643 81.226C35.3479 81.1679 35.3007 81.0266 35.3587 80.9101C39.3274 72.9531 39.7459 61.9983 39.9959 55.4531C40.1374 51.7481 40.2259 49.9451 40.6859 49.4444C41.4665 48.5946 42.0612 48.0219 42.539 47.5616C43.2424 46.8838 43.6299 46.5106 43.8377 45.9722C44.02 45.5023 43.9744 44.8774 43.7273 44.4525C43.6128 44.2553 43.4009 44.0091 43.0422 43.9557C42.3925 43.8577 41.8765 44.2028 41.2788 44.6017C41.2207 44.6404 41.1622 44.6795 41.1029 44.7186C40.9998 44.7865 40.8616 44.7633 40.7865 44.6653C40.7114 44.5672 40.7247 44.4277 40.8171 44.3458C42.0153 43.284 42.2348 42.3587 42.259 41.9016C42.2786 41.5326 42.1885 41.21 42.0119 41.0164C41.5323 40.4916 40.503 39.7914 38.9986 41.0023C38.9001 41.0813 38.7568 41.0687 38.6737 40.9736C38.5905 40.8784 38.5975 40.7345 38.6894 40.6477C41.5987 37.8988 41.9674 36.0834 41.9283 35.2458C41.8962 34.5252 41.5362 33.9913 40.9408 33.7806C40.5219 33.6319 40.1011 33.8196 39.5337 34.4071C39.1526 34.8027 38.7573 35.3269 38.2998 35.9338C37.6698 36.7693 36.9557 37.7163 36.0805 38.5761C35.7743 38.8773 35.4584 39.1564 35.1417 39.4054C34.3014 40.065 33.2933 40.5006 32.303 40.6319C31.4068 40.7507 30.6304 40.6053 30.2261 40.2431C29.6559 39.7324 29.2919 39.2552 28.9699 38.5964C28.6833 38.0064 28.4204 37.2481 28.1173 36.1371C27.9399 35.4859 27.4257 34.9539 26.9465 34.926C26.8048 34.9179 26.5839 34.9307 26.3363 35.0404C25.9714 35.1987 25.3608 35.6484 25.3535 36.8899C25.3525 36.9617 25.3544 37.038 25.3591 37.1254C25.3675 37.2797 25.4268 37.7028 25.5088 38.2888C25.8088 40.4314 26.433 44.8899 26.5447 49.8335C26.5931 51.9659 26.3557 57.5489 25.6921 62.7595C24.8103 69.6828 23.5013 73.971 21.8013 75.505C21.2543 75.9985 20.661 76.2089 20.0379 76.1305C17.5701 75.8193 16.2261 73.1774 16.0432 68.2782C15.8877 64.1466 16.5355 58.1503 16.5421 58.0903C16.5563 57.9609 16.6723 57.868 16.8017 57.8818C16.9309 57.8959 17.0243 58.0121 17.0101 58.1414C17.0037 58.2012 16.3594 64.1637 16.5136 68.2606C16.6867 72.8948 17.8922 75.3854 20.0969 75.6634C20.5847 75.7249 21.0391 75.5587 21.486 75.1555C23.0773 73.7197 24.3703 69.4126 25.2251 62.7002C25.8857 57.5134 26.1223 51.9625 26.0742 49.8442C25.963 44.9279 25.3414 40.4879 25.0427 38.3541C24.9559 37.7345 24.8986 37.3252 24.8891 37.151C24.8838 37.0527 24.8818 36.9659 24.8829 36.8851C24.8922 35.3222 25.7705 34.7727 26.1476 34.6091C26.4103 34.493 26.6967 34.44 26.9741 34.4558C27.757 34.5018 28.3704 35.274 28.5718 36.0132C28.8669 37.0947 29.1202 37.8278 29.3933 38.3899C29.7359 39.0907 30.0997 39.4975 30.5405 39.8924C31.1389 40.4283 33.1634 40.3599 34.851 39.0351C35.1539 38.7969 35.4566 38.5295 35.7506 38.2403C36.6009 37.4047 37.3039 36.4725 37.924 35.6502C38.3714 35.057 38.7939 34.4965 39.195 34.0802C39.6699 33.5883 40.3153 33.0598 41.098 33.3366C41.8836 33.6146 42.3576 34.3026 42.3988 35.2242C42.4604 36.5445 41.6365 38.1858 40.0547 39.9301C41.2555 39.6484 42.0828 40.3958 42.3598 40.6989C42.621 40.9849 42.7557 41.4322 42.7295 41.9263C42.7107 42.2833 42.5935 42.8828 42.1144 43.5951C42.4194 43.4847 42.7446 43.4349 43.1121 43.4898C43.5422 43.5539 43.8959 43.8048 44.1347 44.2155C44.4538 44.7644 44.5112 45.5386 44.2772 46.1418C44.0317 46.7771 43.6176 47.1761 42.8658 47.9003C42.3926 48.3561 41.8038 48.9235 41.0328 49.7625C40.6695 50.1579 40.5755 52.6199 40.4666 55.4707C40.2152 62.0539 39.7942 73.0721 35.7803 81.1199C35.7391 81.2025 35.6558 81.2502 35.5694 81.2502L35.5692 81.2507Z" fill="#2E2F31"/>
<path id="Vector_11" d="M29.1815 38.7286C29.0942 38.7286 29.0104 38.6798 28.9696 38.596C28.6833 38.0066 28.4204 37.2484 28.1173 36.1373C27.9399 35.4862 27.4257 34.9541 26.9464 34.9262C26.8045 34.9179 26.5838 34.931 26.3362 35.0406C25.9713 35.199 25.3607 35.6486 25.3534 36.8902C25.3526 37.0198 25.2474 37.1242 25.118 37.1242H25.1166C24.9866 37.1234 24.8817 37.0174 24.8826 36.8874C24.8919 35.3223 25.7701 34.7728 26.1472 34.6092C26.4098 34.4931 26.6961 34.4402 26.9738 34.456C27.7565 34.5019 28.37 35.2742 28.5714 36.0134C28.8665 37.0949 29.1198 37.828 29.3929 38.39C29.4498 38.5069 29.4009 38.6478 29.284 38.7047C29.251 38.7208 29.2159 38.7283 29.1813 38.7283L29.1815 38.7286Z" fill="#2E2F31"/>
<path id="Vector_12" d="M35.9154 38.6439C35.8544 38.6439 35.7936 38.6203 35.7474 38.5733C35.6563 38.4807 35.6576 38.3316 35.7504 38.2405C36.6006 37.405 37.3035 36.4728 37.9236 35.6505C38.371 35.0572 38.7936 34.4967 39.1946 34.0805C39.2848 33.987 39.4338 33.984 39.5275 34.0743C39.6211 34.1646 39.6239 34.3135 39.5336 34.4072C39.1523 34.8029 38.7571 35.3271 38.2995 35.934C37.6695 36.7695 36.9553 37.7164 36.0802 38.5763C36.0344 38.6214 35.9747 38.6437 35.9152 38.6437L35.9154 38.6439Z" fill="#2E2F31"/>
</g>
</g>
<path id="Vector_13" d="M67.0243 25.7454C65.3089 25.7454 63.5725 25.3607 62.0876 24.6464C60.3932 23.8313 59.0679 22.6231 58.2421 21.1436C55.9703 22.0534 53.0291 21.3659 51.4521 19.5264C49.8194 17.6223 49.6202 14.6011 50.9884 12.4989C52.2522 10.5571 54.775 9.52089 57.0454 9.94299C56.6698 9.15376 56.633 8.21409 56.9659 7.37589C57.3664 6.36748 58.315 5.59096 59.3828 5.39768C60.2675 5.2376 61.216 5.48114 61.9296 6.02695C62.0156 4.04451 63.051 2.18542 64.6626 1.18549C66.3524 0.136825 68.6181 0.076794 70.7232 1.02493C73.0685 2.08113 73.8416 4.88059 73.4428 7.19415C75.6256 6.01659 77.9496 5.90795 80.0391 6.89858C82.411 8.02317 84.1193 10.469 84.4973 13.2817C84.8407 15.8379 83.6103 18.6049 81.3626 20.3311C79.3792 21.8542 77.0213 22.2515 74.8581 21.437C73.6741 23.9937 70.9383 25.5951 67.4872 25.736C67.3333 25.7423 67.1788 25.7454 67.0243 25.7454ZM58.3472 20.6077C58.4324 20.6077 58.5143 20.6542 58.5561 20.7344C60.2811 24.0454 64.2747 25.3981 67.4679 25.2656C70.8259 25.1285 73.4612 23.5501 74.5174 21.0432C74.5676 20.9236 74.7051 20.8676 74.8248 20.9173C76.8857 21.7756 79.164 21.4258 81.0757 19.9577C83.1921 18.3324 84.3519 15.7367 84.0306 13.3445C83.6735 10.6881 82.0668 8.38124 79.8373 7.32421C77.7476 6.33346 75.3992 6.52509 73.2247 7.86367C73.1429 7.91393 73.0386 7.90946 72.9614 7.85249C72.8842 7.7954 72.8493 7.697 72.8734 7.60401C73.4477 5.39309 72.8215 2.4864 70.5298 1.45433C68.5679 0.570934 66.4673 0.6199 64.9108 1.5857C63.2948 2.58857 62.3094 4.53747 62.4005 6.55122C62.4049 6.65033 62.3467 6.74168 62.2549 6.77946C62.1629 6.81713 62.0574 6.79335 61.9907 6.71978C61.3689 6.03331 60.378 5.69595 59.4666 5.8611C58.5552 6.02601 57.7453 6.68894 57.4034 7.54986C57.0563 8.42408 57.1789 9.42554 57.7236 10.1635C57.7837 10.2449 57.785 10.3559 57.7266 10.4388C57.6682 10.5218 57.5635 10.558 57.4664 10.5287C55.2568 9.86471 52.6415 10.8223 51.383 12.7559C50.1244 14.6896 50.3077 17.4687 51.8094 19.2202C53.305 20.9645 56.1341 21.5833 58.2504 20.6287C58.2817 20.6145 58.3147 20.6078 58.3471 20.6078L58.3472 20.6077Z" fill="#2E2F31"/>
<path id="Vector_14" d="M46.0241 32.1896C45.7815 32.1896 45.5385 32.1488 45.3064 32.0624C44.2475 31.6681 43.6485 30.3949 44.0243 29.3378C44.3015 28.5583 44.9151 28.0391 45.708 27.9131C46.5443 27.7808 47.4329 28.1147 47.9187 28.7451C48.372 29.3334 48.4306 30.091 48.0836 30.8781C47.729 31.6827 46.8789 32.1896 46.024 32.1896H46.0241ZM44.468 29.4954C44.1799 30.3054 44.658 31.3185 45.4706 31.6212C46.281 31.9231 47.3009 31.487 47.6529 30.6883C48.0044 29.8908 47.7888 29.3477 47.5458 29.0326C47.162 28.5347 46.4531 28.2711 45.7818 28.3781C45.4191 28.4357 44.7659 28.6574 44.468 29.4954Z" fill="#2E2F31"/>
<path id="Vector_15" d="M53.8173 28.9578C53.2804 28.9578 52.744 28.8083 52.2965 28.5068C51.3525 27.8707 50.8872 26.6124 51.1901 25.515C51.4771 24.475 52.4601 23.6257 53.5274 23.4956C55.1148 23.3025 56.0701 24.3762 56.4061 25.3552C56.7757 26.432 56.3882 27.7164 55.4849 28.4091C55.0097 28.7737 54.4131 28.9577 53.8173 28.9578ZM53.8955 23.9436C53.7953 23.9436 53.6917 23.9499 53.5844 23.9629C52.7127 24.0691 51.8785 24.7902 51.6439 25.6403C51.3932 26.5485 51.7784 27.5898 52.5597 28.1164C53.3411 28.6429 54.4508 28.6088 55.1984 28.0354C55.9461 27.462 56.2667 26.3991 55.9608 25.5079C55.6925 24.7263 55.0152 23.9435 53.8955 23.9435V23.9436Z" fill="#2E2F31"/>
<path id="Vector_16" d="M17.5894 92.9597C16.6387 92.9597 15.7506 92.8331 14.9392 92.581L14.8411 92.5501C14.7175 92.5099 14.6499 92.3771 14.6901 92.2534C14.7304 92.1297 14.8633 92.0622 14.9869 92.1025L15.082 92.1322C16.1025 92.4491 17.2605 92.556 18.5209 92.4482C18.6504 92.4366 18.7645 92.5332 18.7755 92.6628C18.7866 92.7924 18.6906 92.9062 18.561 92.9174C18.2306 92.9455 17.9064 92.9596 17.5894 92.9596V92.9597Z" fill="#2E2F31"/>
<path id="Vector_17" d="M16.7774 89.0948C15.4098 89.0948 13.9994 88.7541 13.8032 88.705C13.677 88.6733 13.6004 88.5456 13.632 88.4194C13.6637 88.2932 13.7915 88.2174 13.9176 88.2482C14.7938 88.4677 16.6004 88.7753 17.8137 88.5356C17.9412 88.5098 18.065 88.5934 18.0902 88.721C18.1154 88.8485 18.0324 88.9723 17.9048 88.9975C17.5518 89.0672 17.1662 89.0948 16.7774 89.0948Z" fill="#2E2F31"/>
<path id="Vector_18" d="M57.3783 75.1767C57.2905 75.1767 57.2064 75.1275 57.1659 75.0431C57.1096 74.9259 57.159 74.7853 57.2763 74.7289C57.7269 74.5128 58.1816 74.2885 58.6276 74.062C58.7436 74.003 58.8852 74.0493 58.9441 74.1654C59.003 74.2812 58.9567 74.4229 58.8407 74.4817C58.3915 74.7099 57.9336 74.9358 57.4798 75.1535C57.447 75.1693 57.4124 75.1766 57.3782 75.1766L57.3783 75.1767Z" fill="#2E2F31"/>
<path id="Vector_19" d="M25.6346 35.2037C25.5497 35.2037 25.4678 35.1577 25.4258 35.0774C25.3655 34.9622 25.41 34.8199 25.5253 34.7597C26.4745 34.2632 28.3071 32.8028 28.7732 30.7036C28.3323 30.734 27.8573 30.5585 27.4862 30.212C26.9926 29.7515 26.8049 29.1155 26.9841 28.5108C27.1284 28.0238 27.5405 27.6554 28.0862 27.5256C28.5014 27.4269 28.936 27.4772 29.2986 27.6516C29.2511 27.2635 29.1865 26.7693 29.1233 26.2859C29.0251 25.535 28.9235 24.7586 28.8865 24.3837C28.8801 24.3177 28.9017 24.252 28.9461 24.2028C28.9905 24.1536 29.0537 24.1255 29.12 24.1253C31.9229 24.1158 35.0437 23.9669 36.6008 22.31C37.3684 21.4931 37.7 20.3894 37.6144 18.936C37.6067 18.8061 37.7057 18.6948 37.8356 18.6872C37.9661 18.6779 38.0767 18.7785 38.0844 18.9084C38.1767 20.4758 37.7929 21.7288 36.9439 22.6325C35.3093 24.372 32.215 24.5754 29.383 24.5948C29.4305 25.0046 29.5113 25.6231 29.5901 26.2249C29.6883 26.9758 29.7898 27.7522 29.8268 28.1271C29.8367 28.2274 29.7817 28.3227 29.69 28.3645C29.5983 28.4063 29.4903 28.3852 29.4212 28.3117C29.1314 28.0043 28.6502 27.8753 28.1954 27.9838C27.8099 28.0755 27.5329 28.3165 27.4356 28.6448C27.3081 29.0745 27.4471 29.5318 27.8073 29.868C28.158 30.1952 28.6204 30.3191 28.9853 30.1824C29.0632 30.1536 29.1508 30.1676 29.2157 30.2198C29.2805 30.2721 29.3128 30.3547 29.3006 30.4371C28.9396 32.9036 26.8159 34.6162 25.7434 35.1772C25.7085 35.1954 25.6712 35.2041 25.6345 35.2041L25.6346 35.2037Z" fill="#2E2F31"/>
<path id="Vector_20" d="M23.8746 96.3933C19.2977 96.3933 14.7953 95.7565 13.9276 95.4276C12.9811 95.0693 12.6294 94.7498 12.3595 94.0033C12.1565 93.4415 12.3404 92.5999 12.753 92.2022C12.8823 92.0783 13.0554 92.0018 13.2495 91.9588C12.9199 91.8113 12.6331 91.6615 12.386 91.5078C12.3725 91.4993 11.2943 90.7974 11.3524 89.7504C11.3626 89.5425 11.4193 89.3343 11.5208 89.1326C11.7466 88.6799 12.1644 88.4135 12.5912 88.282C11.8554 87.9328 11.08 87.3517 11.1564 86.4684C11.2482 85.4325 11.9746 84.7601 13.0071 84.755C13.243 84.7537 13.5326 84.758 13.8678 84.7627C15.6163 84.7873 19.2547 84.8387 19.9241 83.9664C20.0634 83.785 20.0401 83.6912 20.0324 83.6604C19.9654 83.3915 19.3614 83.1161 18.8284 82.873C18.1906 82.5822 17.5311 82.2816 17.1764 81.8173C16.722 81.2222 16.713 80.7066 16.7855 80.3789C16.8978 79.8714 17.2827 79.4119 17.8415 79.1188C18.2653 78.8967 18.9085 78.8499 19.8079 78.9752C19.8089 78.9752 19.8097 78.9755 19.8105 78.9756C20.0124 79.0037 20.2254 79.04 20.4438 79.0833C20.5874 79.112 20.7331 79.1431 20.8799 79.1765C21.0261 79.2098 21.1735 79.2455 21.3221 79.2822C21.3263 79.2832 21.3304 79.2844 21.3346 79.2854L21.3559 79.2908C21.4191 79.3068 21.4832 79.323 21.5461 79.3401C21.5676 79.3454 21.5938 79.352 21.6214 79.3599L21.6338 79.3631C21.7221 79.3864 21.8113 79.4101 21.8995 79.4345C22.3789 79.5668 22.8519 79.7082 23.2513 79.8292C26.5693 80.8322 30.8225 81.161 35.5506 80.7804C42.6615 80.2077 50.1202 78.1398 57.1317 74.7982C56.919 71.9848 56.6384 69.2339 56.3418 66.3244C56.2621 65.5437 56.1822 64.7593 56.1032 63.9701C56.0964 63.8979 55.432 56.8369 55.0179 53.3246C55.0027 53.1954 55.095 53.0784 55.2241 53.0632C55.3534 53.0493 55.4703 53.1402 55.4855 53.2694C55.9001 56.7873 56.5651 63.8537 56.5718 63.9246C56.6505 64.7121 56.7306 65.4962 56.8101 66.2766C57.1128 69.2442 57.3987 72.0472 57.6133 74.9226C57.6137 74.9283 57.614 74.9342 57.614 74.94C57.614 75.0306 57.5621 75.1142 57.4804 75.1534C50.3754 78.5602 42.8053 80.6684 35.5885 81.2495C30.8021 81.6351 26.4889 81.2995 23.1151 80.2797C22.7184 80.1596 22.2489 80.0192 21.7739 79.8882C21.6872 79.8641 21.5999 79.8411 21.5135 79.8182L21.4961 79.8136C21.4693 79.8059 21.4484 79.8007 21.4276 79.7956C21.3625 79.778 21.3012 79.7625 21.2406 79.7472L21.2171 79.7412C21.215 79.7407 21.2129 79.7401 21.2108 79.7395C21.2102 79.7393 21.2096 79.7392 21.2089 79.7391C21.0632 79.7029 20.9186 79.668 20.7753 79.6354C20.6325 79.6029 20.491 79.5727 20.3518 79.5447C20.1419 79.5031 19.9371 79.4683 19.7436 79.4413C19.741 79.4409 19.7385 79.4405 19.736 79.4401C18.9518 79.3318 18.388 79.3638 18.0601 79.5354C17.6309 79.7606 17.3263 80.1138 17.2452 80.4803C17.171 80.8153 17.2738 81.1687 17.5505 81.5312C17.8335 81.9016 18.4657 82.19 19.0235 82.4443C19.7445 82.7731 20.3673 83.057 20.4891 83.5462C20.5461 83.775 20.4817 84.0128 20.2975 84.2527C19.547 85.2304 16.7062 85.273 13.8611 85.233C13.5282 85.2283 13.2406 85.2244 13.0092 85.2253C12.2136 85.2293 11.6962 85.7091 11.6254 86.509C11.5441 87.4498 13.0862 88.0572 13.9131 88.2469C14.0387 88.2756 14.1178 88.4 14.0906 88.526C14.0635 88.6519 13.9404 88.7323 13.8139 88.7071C13.5845 88.6608 13.3782 88.6426 13.1826 88.6515C12.6251 88.6787 12.1378 88.9501 11.9417 89.343C11.8686 89.4883 11.8298 89.6293 11.8226 89.7744C11.7803 90.5367 12.6297 91.104 12.6383 91.1097C13.1968 91.4569 13.9878 91.7891 15.0526 92.1231C15.1756 92.1618 15.2447 92.2922 15.2077 92.4155C15.1705 92.5389 15.041 92.6099 14.917 92.574C14.3385 92.4073 13.3718 92.2613 13.0793 92.5412C12.7999 92.8104 12.6626 93.4555 12.8024 93.8428C13.0082 94.412 13.2238 94.6572 14.0945 94.9868C15.0129 95.3347 20.5539 96.0739 25.4968 95.8932C26.0704 95.8722 26.7318 95.8556 27.4976 95.8363C33.4274 95.6867 44.465 95.4079 55.1809 92.0409C60.7835 90.2815 66.0587 87.5969 68.6202 85.2017C70.3976 83.5399 73.3586 79.658 73.2209 72.3313C73.1818 70.2888 72.9191 64.8705 71.3274 58.6842C71.295 58.5584 71.3708 58.43 71.4967 58.3976C71.6226 58.3653 71.751 58.4409 71.7833 58.5669C73.3875 64.8012 73.6523 70.2633 73.6918 72.3223C73.7394 74.8586 73.3895 77.337 72.6797 79.4893C71.8695 81.9463 70.6119 83.984 68.9418 85.5455C66.3327 87.9852 60.9868 90.711 55.3221 92.4899C44.5431 95.8768 33.4625 96.1564 27.5095 96.3067C26.7452 96.326 26.085 96.3428 25.5141 96.3637C24.9707 96.3835 24.4221 96.3925 23.8748 96.3925L23.8746 96.3933Z" fill="#2E2F31"/>
<rect id="Rectangle 1" x="32.6951" y="32.3115" width="2.98492" height="0.543091" rx="0.271545" fill="#2E2F31"/>
</g>
</svg>
