<svg xmlns="http://www.w3.org/2000/svg" xmlns:xlink="http://www.w3.org/1999/xlink" width="655.414" height="225.382" viewBox="0 0 655.414 225.382">
  <defs>
    <clipPath id="clip-path">
      <rect id="Ret칙ngulo_3203" data-name="Ret칙ngulo 3203" width="655.414" height="225.382" fill="none"/>
    </clipPath>
  </defs>
  <g id="Grupo_10136" data-name="Grupo 10136" transform="translate(0 0)">
    <g id="Grupo_10135" data-name="Grupo 10135" transform="translate(0 0)" clip-path="url(#clip-path)">
      <path id="Caminho_4346" data-name="Caminho 4346" d="M0,26.153A119.426,119.426,0,0,0,4.285,50.211a72.581,72.581,0,0,1,19.023,13.7A71.845,71.845,0,0,1,44.46,110.678,120.259,120.259,0,0,0,65.3,124.2v-9.132A93.19,93.19,0,0,0,0,26.153" transform="translate(0 88.667)" fill="#fff"/>
      <path id="Caminho_4347" data-name="Caminho 4347" d="M4.328,16.227A119.269,119.269,0,0,0,.113,36.606a114.3,114.3,0,0,1,16.652,5.584A115.233,115.233,0,0,1,53.516,66.974,115.233,115.233,0,0,1,78.3,103.724a114.875,114.875,0,0,1,9.079,45v17.846a119.544,119.544,0,0,0,20.805,3.8V148.72A136.462,136.462,0,0,0,4.328,16.227" transform="translate(0.383 55.015)" fill="#fff"/>
      <path id="Caminho_4348" data-name="Caminho 4348" d="M127.465,109.107A179.08,179.08,0,0,0,88.967,52a179.008,179.008,0,0,0-57.1-38.5A178.815,178.815,0,0,0,14.78,7.28,120.231,120.231,0,0,0,3.019,25.552a158.94,158.94,0,0,1,117.768,153.5V200.7a119.547,119.547,0,0,0,20.805-3.8V179.052a178.61,178.61,0,0,0-14.128-69.945" transform="translate(10.235 24.683)" fill="#fff"/>
      <path id="Caminho_4349" data-name="Caminho 4349" d="M97.2,46.089A222.127,222.127,0,0,0,30.208,0,120.287,120.287,0,0,0,9.613,14.071a202.207,202.207,0,0,1,132.08,189.658v9.132a120.384,120.384,0,0,0,20.761-13.452,221.381,221.381,0,0,0-17.482-82.462A222.162,222.162,0,0,0,97.2,46.089" transform="translate(32.59 0.002)" fill="#fff"/>
      <path id="Caminho_4350" data-name="Caminho 4350" d="M81.692,63.913a72.391,72.391,0,0,1,19.023-13.7A119.832,119.832,0,0,0,105,26.153a93.186,93.186,0,0,0-65.3,88.915V124.2a120.469,120.469,0,0,0,20.946-13.605A71.8,71.8,0,0,1,81.692,63.913" transform="translate(134.589 88.667)" fill="#62b55a"/>
      <path id="Caminho_4351" data-name="Caminho 4351" d="M50.649,148.719A115.592,115.592,0,0,1,137.91,36.605a119.861,119.861,0,0,0-4.21-20.379A136.461,136.461,0,0,0,29.844,148.719v21.648a119.949,119.949,0,0,0,20.805-3.8Z" transform="translate(101.178 55.012)" fill="#62b55a"/>
      <path id="Caminho_4352" data-name="Caminho 4352" d="M40.8,179.051a158.94,158.94,0,0,1,117.768-153.5A120.448,120.448,0,0,0,146.8,7.279,179.567,179.567,0,0,0,19.99,179.051V196.9A119.951,119.951,0,0,0,40.8,200.7Z" transform="translate(67.771 24.679)" fill="#62b55a"/>
      <path id="Caminho_4353" data-name="Caminho 4353" d="M30.961,203.729A202.217,202.217,0,0,1,163.041,14.066,120.515,120.515,0,0,0,142.446,0,223.038,223.038,0,0,0,10.129,199.347a119.91,119.91,0,0,0,20.832,13.513Z" transform="translate(34.34 0.002)" fill="#62b55a"/>
      <path id="Caminho_4354" data-name="Caminho 4354" d="M151.988,32.335h13.465c8.57,0,12.165,2.454,11.511,8.565-.918,8.6-14.725,13.539-24.976,15.945Zm29.019,30.622c8.543-5.716,14.339-13.583,14.339-24.388,0-14.4-11.3-24.151-26.82-24.151H134.111V99.87a141.489,141.489,0,0,0,17.877,0V74.051a116.128,116.128,0,0,0,13.2-3.578,264.438,264.438,0,0,1,15.388,29.4,179.739,179.739,0,0,0,20.173,0,334.464,334.464,0,0,0-19.738-36.913" transform="translate(454.668 19.486)" fill="#fff"/>
      <path id="Caminho_4355" data-name="Caminho 4355" d="M144.563,69.022l10.783-29.467,10.888,29.458a90.137,90.137,0,0,0-21.67.009m19.976-54.408a115.507,115.507,0,0,0-18.724.048l-32.031,85.724a136.339,136.339,0,0,0,19.326-.053l4.812-13.162c10.247-2.968,24.6-2.977,35.017-.026l4.908,13.272a164.7,164.7,0,0,0,19.207-.066Z" transform="translate(385.751 18.939)" fill="#fff"/>
      <path id="Caminho_4356" data-name="Caminho 4356" d="M169.626,100.217l-.246-85.627a137.286,137.286,0,0,0-18.118.048l.136,47.1C140.44,43.543,126.321,26.39,113.717,15.1v-.342a132.77,132.77,0,0,0-17.974.053l.246,85.632a95.3,95.3,0,0,0,17.974-.053l-.171-59.777c15.827,17.188,30.464,39.56,37.7,59.659h.018a154.5,154.5,0,0,0,18.119-.053" transform="translate(324.591 19.13)" fill="#fff"/>
      <path id="Caminho_4357" data-name="Caminho 4357" d="M79.876,99.827V14.415h56.867a88.292,88.292,0,0,1,0,17.934H97.788V46.53h32.922a101.949,101.949,0,0,1,0,16.7H97.788V81.9h41.554a87.925,87.925,0,0,1,0,17.93Z" transform="translate(270.799 19.475)" fill="#fff"/>
      <path id="Caminho_4358" data-name="Caminho 4358" d="M101.507,101.889c15.419,0,29.814-7.6,29.814-24.713,0-16.323-10.883-20.858-22.9-26.864-5.9-2.946-22.557-9.184-22.557-14.281,0-4.2,4.873-5.216,10.993-5.216a63.56,63.56,0,0,1,21.767,4.079,44.429,44.429,0,0,0,6.462-14.624c-7.823-3.74-19.045-6.12-32.084-6.12-15.3,0-25.955,7.481-25.955,22.557,0,16.665,19.835,23.466,28.339,27.32,9.632,4.421,17.456,6.915,17.456,14.058,0,6.12-8.842,6.006-13.035,6.006a80.274,80.274,0,0,1-30.723-6.8,66.217,66.217,0,0,0-7.139,15.076c10.541,6.8,26.3,9.522,39.56,9.522" transform="translate(210.015 18.577)" fill="#fff"/>
      <text id="Goi치s" transform="translate(271.962 190.117)" fill="#fff" font-size="53" font-family="Lato-Regular, Lato"><tspan x="0" y="0">Goi치s</tspan></text>
    </g>
  </g>
</svg>
