<?xml version="1.0" encoding="UTF-8"?>
<svg id="Camada_1" data-name="Camada 1" xmlns="http://www.w3.org/2000/svg" xmlns:xlink="http://www.w3.org/1999/xlink" viewBox="0 0 1898 315.85">
  <defs>
    <style>
      .cls-1 {
        fill: none;
      }

      .cls-2 {
        fill: url(#Gradiente_sem_nome_2);
      }

      .cls-3 {
        fill: #fff;
      }

      .cls-4 {
        clip-path: url(#clippath);
      }
    </style>
    <clipPath id="clippath">
      <path class="cls-1" d="M1368.9,53.04h-.13c-52.32,0-94.82,42.54-94.82,94.82v.03c0,52.28,42.51,94.81,94.82,94.81h.15c21.01-.02,40.85-6.77,57.49-19.5,6.69-5.13,7.95-14.69,2.84-21.38-3.01-3.92-7.55-5.98-12.13-5.98-3.24,0-6.49,1.02-9.27,3.16-1.89,1.44-3.86,2.78-5.88,4.01l-.4.23c-9.85,5.84-21.18,8.94-32.71,8.96h-.09c-35.48,0-64.35-28.86-64.37-64.33.01-35.49,28.89-64.35,64.37-64.35h.09c11.52.02,22.85,3.13,32.71,9l.4.21c2.01,1.22,3.99,2.56,5.88,4.02,2.78,2.13,6.04,3.13,9.26,3.13,4.58,0,9.13-2.05,12.14-5.97,5.11-6.68,3.85-16.26-2.84-21.37-16.65-12.72-36.48-19.47-57.49-19.5h-.02ZM1745.54,72.55c-6.68,5.11-7.96,14.69-2.85,21.37,3.02,3.92,7.55,5.99,12.13,5.99,3.24,0,6.49-1.03,9.25-3.17,11.3-8.63,24.82-13.22,39.1-13.22,35.49,0,64.33,28.87,64.33,64.34s-28.84,64.34-64.33,64.34c-8.91,0-18.09-3.88-26.91-8.72v-5.48c0-8.39-6.81-15.24-15.26-15.24s-15.23,6.85-15.23,15.24v101.76c0,8.44,6.83,15.27,15.23,15.27s15.26-6.84,15.26-15.27v-62.57c8.38,3.27,17.38,5.51,26.91,5.51,52.3,0,94.83-42.55,94.83-94.84s-42.53-94.82-94.83-94.82c-21.02,0-40.99,6.75-57.63,19.5M1601.81,142.26c8.14-2.17,12.98-10.5,10.84-18.66-1.95-7.26-4.69-14.2-8.16-20.65,12.26-12.54,28.88-19.44,46.05-19.44,4.86,0,9.74.56,14.59,1.68,34.58,8.07,56.17,42.75,48.13,77.26-6.95,29.66-33.54,49.77-62.76,49.77-4.8,0-9.66-.53-14.51-1.65-25.03-5.85-44.16-25.93-48.69-51.13-1.35-7.39-7.77-12.56-15-12.56-.91,0-1.83.09-2.74.29-8.28,1.49-13.8,9.41-12.3,17.71,1.83,9.97,5.18,19.39,9.81,28.02-12.16,12.47-28.86,19.42-46.12,19.42-4.82,0-9.72-.55-14.55-1.68-34.55-8.06-56.11-42.73-48.09-77.31,6.95-29.64,33.46-49.74,62.67-49.74,4.82,0,9.73.55,14.6,1.69,23.27,5.44,41.49,23.12,47.61,46.16,1.8,6.8,7.99,11.31,14.74,11.31,1.29,0,2.6-.16,3.9-.5M1585.73,78.64c-11.9-11.14-26.69-19.16-43.23-23.05-7.21-1.67-14.44-2.48-21.54-2.48-43.07,0-82.17,29.6-92.38,73.33-11.82,50.95,19.93,102.05,70.86,113.93,7.16,1.63,14.36,2.45,21.52,2.45,23.99,0,47.21-9.12,64.81-25.6,11.94,11.1,26.7,19.18,43.27,23.05,7.18,1.68,14.39,2.47,21.47,2.47,43.1,0,82.21-29.62,92.42-73.33,11.84-50.91-19.94-102-70.86-113.88-7.19-1.68-14.46-2.52-21.65-2.52-23.88,0-47.03,9.07-64.7,25.63"/>
    </clipPath>
    <linearGradient id="Gradiente_sem_nome_2" data-name="Gradiente sem nome 2" x1="502.61" y1="455.24" x2="514.05" y2="455.24" gradientTransform="translate(-26161.15 25033.12) scale(54.58 -54.58)" gradientUnits="userSpaceOnUse">
      <stop offset="0" stop-color="#ffb314"/>
      <stop offset="0" stop-color="#ffb314"/>
      <stop offset=".52" stop-color="#ffb314"/>
      <stop offset=".71" stop-color="#ffa217"/>
      <stop offset="1" stop-color="#ff821e"/>
      <stop offset="1" stop-color="#ff821e"/>
    </linearGradient>
  </defs>
  <g class="cls-4">
    <rect class="cls-2" x="1273.95" y="53.01" width="624.05" height="262.03"/>
  </g>
  <path class="cls-3" d="M144.19,113.99c-10.18-23.07-33.25-34.26-56.99-34.26-34.61,0-70.91,24.08-70.91,70.23s35.28,70.22,69.54,70.22c25.11,0,49.54-12.88,59.71-39.02h16.28c-11.19,35.97-44.11,53.61-77.01,53.61C42.75,234.77,0,205.93,0,149.96s44.11-85.16,86.85-84.82c31.54.34,62.42,16.28,73.27,48.85h-15.94Z"/>
  <path class="cls-3" d="M313.13,90.93c-15.95-7.81-33.25-11.54-48.18-11.54-42.06,0-71.58,25.78-72.6,69.54,0,38,21.04,70.23,60.72,70.23s60.06-28.5,60.06-69.21v-59.03ZM328.74,192.7c0,17.3-.34,27.83,21.04,25.11l.67,14.59c-26.8,4.07-35.61-6.1-35.61-30.19v-8.14c-12.22,27.14-35.97,40.37-64.46,40.37-49.21,0-74.31-39.69-74.31-85.49,1.02-52.59,37.33-83.11,89.57-83.11,22.04,0,43.09,5.76,63.1,15.26v111.62Z"/>
  <path class="cls-3" d="M452.23,79.39c-39.35,0-60.4,29.85-60.4,67.85s18.67,74.97,59.72,74.97,61.4-33.59,61.4-72.6-21.04-70.23-60.73-70.23M375.9,315.85V107.2c0-25.78-2.04-30.87-21.04-29.16l-.33-11.89c26.8-4.07,35.61,6.1,35.61,30.2v8.14c10.52-26.12,35.28-40.38,64.81-40.38,48.51,0,74.29,40.04,74.29,85.5s-24.43,86.84-74.63,86.84c-28.84,0-52.92-12.55-63.79-39.69v119.08h-14.92Z"/>
  <path class="cls-3" d="M683.6,90.93c-15.95-7.81-33.25-11.54-48.18-11.54-42.06,0-71.58,25.78-72.6,69.54,0,38,21.04,70.23,60.72,70.23s60.06-28.5,60.06-69.21v-59.03ZM699.21,192.7c0,17.3-.34,27.83,21.04,25.11l.67,14.59c-26.8,4.07-35.61-6.1-35.61-30.19v-8.14c-12.22,27.14-35.97,40.37-64.46,40.37-49.21,0-74.31-39.69-74.31-85.49,1.02-52.59,37.33-83.11,89.57-83.11,22.04,0,43.08,5.76,63.1,15.26v111.62Z"/>
  <path class="cls-3" d="M874.94,113.99c-10.18-23.07-33.25-34.26-56.99-34.26-34.61,0-70.91,24.08-70.91,70.23s35.28,70.22,69.54,70.22c25.11,0,49.54-12.88,59.71-39.02h16.28c-11.19,35.97-44.11,53.61-77.01,53.61-42.07,0-84.82-28.83-84.82-84.81s44.11-85.16,86.85-84.82c31.54.34,62.42,16.28,73.27,48.85h-15.94Z"/>
  <path class="cls-3" d="M934.64,232.39h-15.94V69.89h15.94v162.5ZM926.85,0c5.43,0,11.19,4.07,11.19,11.54s-5.43,11.2-10.85,11.54c-5.77.34-11.54-3.38-11.54-11.54s5.43-11.54,11.19-11.54"/>
  <path class="cls-3" d="M1008.6,69.21h63.44v13.57h-63.44v88.2c0,49.88,23.76,59.04,69.2,42.76l2.38,14.24c-55.64,18.99-87.86,2.71-87.86-56.66v-88.55l-37.33-1.02v-12.55h37.33l1.36-50.21h14.92v50.21Z"/>
  <path class="cls-3" d="M1222,90.93c-15.95-7.81-33.25-11.54-48.18-11.54-42.06,0-71.58,25.78-72.6,69.54,0,38,21.02,70.23,60.72,70.23s60.06-28.5,60.06-69.21v-59.03ZM1237.61,192.7c0,17.3-.34,27.83,21.04,25.11l.67,14.59c-26.8,4.07-35.62-6.1-35.62-30.19v-8.14c-12.21,27.14-35.96,40.37-64.46,40.37-49.19,0-74.3-39.69-74.3-85.49,1.02-52.59,37.32-83.11,89.57-83.11,22.04,0,43.08,5.76,63.1,15.26v111.62Z"/>
</svg>