<svg id="Grupo_10293" data-name="Grupo 10293" xmlns="http://www.w3.org/2000/svg" xmlns:xlink="http://www.w3.org/1999/xlink" width="2698.922" height="360.617" viewBox="0 0 2698.922 360.617">
  <defs>
    <linearGradient id="linear-gradient" x1="0.018" y1="0.421" x2="1.029" y2="0.398" gradientUnits="objectBoundingBox">
      <stop offset="0" stop-color="#f9b21f"/>
      <stop offset="0.55" stop-color="#f9b21f"/>
      <stop offset="1" stop-color="#f08129"/>
    </linearGradient>
    <clipPath id="clip-path">
      <rect id="Retângulo_3322" data-name="Retângulo 3322" width="2698.922" height="360.617" fill="none"/>
    </clipPath>
    <clipPath id="clip-path-2">
      <path id="Caminho_4666" data-name="Caminho 4666" d="M171.32,8.582h-.079A59.865,59.865,0,0,0,111.432,68.39v.022a59.859,59.859,0,0,0,59.808,59.8h.094a59.243,59.243,0,0,0,36.264-12.3,9.62,9.62,0,1,0-11.711-15.266,44.229,44.229,0,0,1-3.706,2.531l-.252.144a40.737,40.737,0,0,1-20.631,5.653h-.058a40.584,40.584,0,1,1,0-81.168h.058a40.473,40.473,0,0,1,20.631,5.675l.252.13a39.654,39.654,0,0,1,3.706,2.538A9.62,9.62,0,1,0,207.6,20.884a59.333,59.333,0,0,0-36.264-12.3Zm237.561,12.3a9.619,9.619,0,0,0,5.855,17.256,9.479,9.479,0,0,0,5.834-2,40.588,40.588,0,1,1,24.662,72.832c-5.617,0-11.408-2.445-16.975-5.5v-3.454a9.616,9.616,0,0,0-19.232,0V164.2a9.616,9.616,0,1,0,19.232,0V124.737a46.59,46.59,0,0,0,16.975,3.476A59.816,59.816,0,1,0,408.88,20.884M318.223,64.857a9.635,9.635,0,0,0,6.836-11.768,60.722,60.722,0,0,0-5.149-13.023A40.622,40.622,0,1,1,309.065,75.7a9.647,9.647,0,0,0-9.461-7.925,8.3,8.3,0,0,0-1.731.18,9.613,9.613,0,0,0-7.759,11.17A60.419,60.419,0,0,0,296.3,96.8a40.6,40.6,0,1,1,10.168-38.759,9.632,9.632,0,0,0,11.754,6.814M308.085,24.727a59.837,59.837,0,1,0-54.422,102.007,60.931,60.931,0,0,0,13.571,1.543,59.912,59.912,0,0,0,40.879-16.146,59.856,59.856,0,1,0-.029-87.405" transform="translate(-111.432 -8.56)" stroke="rgba(0,0,0,0)" stroke-width="1" fill="url(#linear-gradient)"/>
    </clipPath>
  </defs>
  <g id="Grupo_10242" data-name="Grupo 10242" transform="translate(0 0)">
    <g id="Grupo_10241" data-name="Grupo 10241" clip-path="url(#clip-path)">
      <line id="Linha_156" data-name="Linha 156" y2="3.757" transform="translate(2697.987 356.86)" fill="none" stroke="#001c57" stroke-miterlimit="10" stroke-width="0.26"/>
      <path id="Caminho_4634" data-name="Caminho 4634" d="M252.473,20.657c-27.633,18.972-48.235,37.534-58.929,53.311a12.335,12.335,0,0,0-1.81,8.5c.764,4.269,5.235,6.115,5.235,6.115a13.881,13.881,0,0,1,1.637-4.608c10.478-15.424,30.5-33.546,57.284-52.121-1.327-3.649-2.444-7.391-3.418-11.2" transform="translate(1189.751 128.301)" fill="#171c67"/>
      <path id="Caminho_4635" data-name="Caminho 4635" d="M312.865,11.974c-1.738-3.562-5.286-4.889-8.66-5.214-19.427-1.86-44.91.923-74.375,7.882q3.18,4.748,5.9,9.8c29.976-7.125,55.525-9.908,73.553-7.658a14.4,14.4,0,0,1,4.413,1.233,11.768,11.768,0,0,0-.829-6.043" transform="translate(1427.485 38.495)" fill="#171c67"/>
      <path id="Caminho_4636" data-name="Caminho 4636" d="M292.967,68.4a621.237,621.237,0,0,1-84.881,31.577,119.1,119.1,0,0,0,57.422,14.7A119.505,119.505,0,0,0,382.37,20c-26.111,17-56.888,33.611-89.4,48.4" transform="translate(1292.432 124.208)" fill="#171c67"/>
      <path id="Caminho_4637" data-name="Caminho 4637" d="M576.693,6.829C585.822,44.68,505.1,103.76,410.017,147,300.971,196.588,203,206.2,190.448,178.538c-.187-.447-.368-.9-.526-1.37,0,0-1.406,20.342,24.972,25.743,40.115,8.04,115.8-4.074,200.763-42.725C492.735,125.1,557.115,80.569,577.969,42.271c9.6-17.617,2.322-32.8-1.276-35.442" transform="translate(1179.529 42.414)" fill="#171c67"/>
      <path id="Caminho_4638" data-name="Caminho 4638" d="M215.646,74.392l19.571-.043,32.2-.014L258.718,9.9Z" transform="translate(1339.389 61.509)" fill="#171c67"/>
      <path id="Caminho_4639" data-name="Caminho 4639" d="M318.916,0a119.42,119.42,0,0,0-72.9,214.017c29.133-7.341,62.08-19.21,98.135-35.435a571.852,571.852,0,0,0,94.075-53.65c.072-1.839.151-3.663.151-5.509A119.435,119.435,0,0,0,318.916,0m62.39,146.781a1.69,1.69,0,0,1-1.2.6l-34.952-.058-7.2,27.056-.029.108-.043.166c0-.036-.05-.036-.05-.036a2.756,2.756,0,0,1-2.4,1.759h-8.632a1.422,1.422,0,0,1-1.471-1.723l-.072.007.072-.252,7.2-27.07-45.768.043-7.2,27.049c0,.058-.036.087-.036.115l-.029.166s-.051,0-.051-.029a2.79,2.79,0,0,1-2.4,1.745l-8.646.022a1.437,1.437,0,0,1-1.478-1.738h-.043l.065-.252,7.161-27.005-34.974.05a.914.914,0,0,1-.887-.57,1.221,1.221,0,0,1,.173-1.2L305.6,48.6a1.86,1.86,0,0,1,1.442-.836A.933.933,0,0,1,308,48.6l9.043,55.381-9.865,14.263L300.708,71.5,257.622,135.95l45.949-.058,60.436-87.369a1.831,1.831,0,0,1,1.406-.815.939.939,0,0,1,.981.815l15.352,97.068a1.4,1.4,0,0,1-.44,1.19" transform="translate(1239.023 -0.001)" fill="#171c67"/>
      <path id="Caminho_4640" data-name="Caminho 4640" d="M278.719,126.825c-9.3,0-18.958-1.175-27.575-4.846l.894-13.254c8.062,5.012,17.047,6.735,26.486,6.735,13.982,0,25.181-6.4,25.181-21.359,0-10.319-9.973-15.994-20.494-21.705l-11.87-6.346C260.1,60.014,250.336,52.263,250.336,38.5c0-20.862,19.6-30.092,38.182-30.092a70.311,70.311,0,0,1,23.263,3.555l-1.024,12.223c-6.36-3.259-15-4.478-22.03-4.478-12.057,0-24.474,4.478-24.474,18.251,0,8.971,8.105,14.141,17.205,18.929l11.906,6.382c12.763,6.93,24.474,14.682,24.474,30.7,0,21.5-18.093,32.861-39.12,32.861" transform="translate(1554.849 52.203)" fill="#171c67"/>
      <path id="Caminho_4641" data-name="Caminho 4641" d="M262.512,7.945h12.634V22.937H262.512Zm0,34.123h12.634v85.682H262.512Z" transform="translate(1630.474 49.346)" fill="#171c67"/>
      <path id="Caminho_4642" data-name="Caminho 4642" d="M291.265,101.782a70.831,70.831,0,0,1-24.417-3.923l1-11.754a47.941,47.941,0,0,0,22.4,5.336c8.776,0,18.23-4.471,18.23-14.271,0-20.847-41.514-15.013-41.514-41.341,0-16.521,15.287-23.393,29.443-23.393A64.49,64.49,0,0,1,317.78,16.18l-1.024,10.535a53.165,53.165,0,0,0-19.275-4.132c-8.286,0-17.609,2.567-17.609,13.088,0,16.03,41.55,12.381,41.55,41.125,0,16.535-15,24.986-30.157,24.986" transform="translate(1657.406 77.246)" fill="#171c67"/>
      <path id="Caminho_4643" data-name="Caminho 4643" d="M311.672,120.663c-17.581,0-19.809-12.764-19.809-28.426V42.806H275.682V33.042h16.181V13.709l12.4-4.312V33.042h19.441v9.764H304.266V95.519c0,7.586,2.07,14.321,11,14.321a23.242,23.242,0,0,0,9.67-2.264l.62,10.55a39.728,39.728,0,0,1-13.888,2.538" transform="translate(1712.274 58.364)" fill="#171c67"/>
      <path id="Caminho_4644" data-name="Caminho 4644" d="M297.208,60.44c0,16.737,9.482,31.224,27.575,31.224,7.406,0,17.905-2.257,24.236-6.021l1.074,11.675c-7.947,3.122-17.905,4.471-26.522,4.471-27.7,0-39.437-19.434-39.437-45.112,0-22.044,13.456-44.24,36.495-44.24,24.316,0,33.928,19.939,33.928,42.87V60.44Zm23.566-38.031c-15.655,0-23.566,17.032-23.566,28.743H341.8c0-13.239-5.271-28.743-21.027-28.743" transform="translate(1764.776 77.24)" fill="#171c67"/>
      <path id="Caminho_4645" data-name="Caminho 4645" d="M399.26,99.842V43.755c0-11.538-4.139-20.645-17.09-20.645-15.626,0-21.294,15.5-21.294,30.445V99.842H348.293V43.755c0-11.538-4.009-20.645-16.91-20.645-15.691,0-21.489,15.5-21.489,30.445V99.842H297.3V34.3c0-6.706-.159-13.463-.829-20.14h11.494l.534,14.754c5.877-11.17,14.487-16.477,25.65-16.477,14.148,0,22.931,8.934,24.972,17.876C363.1,19.6,374.3,12.437,385.127,12.437c17.552,0,26.681,12.389,26.681,29.075v58.33Z" transform="translate(1841.371 77.246)" fill="#171c67"/>
      <path id="Caminho_4646" data-name="Caminho 4646" d="M370.331,99.848l-.6-13.73c-4.788,9.966-15.987,15.662-26.652,15.662-15.345,0-28.08-7.752-28.08-24.272,0-22.044,20.991-29.8,47.355-29.8h6.757V43.595c0-13.117-5.192-21.186-19.3-21.186-8.8,0-17.1,1.9-24.64,6.894l-1.074-11.213a72.848,72.848,0,0,1,26.212-5.653c21.344,0,31.173,10.672,31.173,32.017V81.648a120.957,120.957,0,0,0,1.067,18.2Zm-1.219-43.007h-2.394c-15.381,0-38.8,1.2-38.8,20.126,0,10.016,8.069,14.689,17.408,14.689,18.244,0,23.782-13.672,23.782-29.645Z" transform="translate(1956.486 77.24)" fill="#171c67"/>
      <path id="Caminho_4647" data-name="Caminho 4647" d="M386.529,126.832c-37.771,0-59.8-21.164-59.8-59.26,0-37.166,22.722-59.167,59.8-59.167,37.7,0,59.9,21.128,59.9,59.167,0,37.562-22.563,59.26-59.9,59.26m0-96.275c-19.47,0-24.308,21.539-24.308,37.014,0,15.518,5,37.014,24.308,37.014,20.1,0,24.417-20.8,24.417-37.014,0-16.167-4.312-37.014-24.417-37.014" transform="translate(2029.323 52.203)" fill="#171c67"/>
      <path id="Caminho_4648" data-name="Caminho 4648" d="M410.536,126.825c-37.562,0-65.678-19.809-65.678-59.246C344.858,30.4,375.18,8.4,410.536,8.4a137.02,137.02,0,0,1,30.1,3.894l-1.017,24.107A69.363,69.363,0,0,0,416.7,31.963c-21.575,0-36.315,13.917-36.315,35.615,0,22.4,13.615,35.659,35.666,35.659a62.249,62.249,0,0,0,23.883-4.687l1.053,23.645c-9.454,3.281-20.458,4.63-30.452,4.63" transform="translate(2141.929 52.203)" fill="#171c67"/>
      <path id="Caminho_4649" data-name="Caminho 4649" d="M413.857,123.456H360.294V8.635h58.561c18.77,0,38.745,6.194,38.745,28.433,0,14.97-8.776,24.1-23.1,27.229,14.646,2.553,25.686,11.329,25.686,26.991,0,27.907-23.609,32.168-46.331,32.168m-7.925-95.489H392.873V56.156h11.494c9.49,0,19.816-3.094,19.816-14.451,0-10.665-9.281-13.737-18.251-13.737M404.238,73.9H392.873v30.322h11.689c9.821,0,21.5-3.115,21.5-15.165,0-13.081-11.358-15.158-21.828-15.158" transform="translate(2237.803 53.632)" fill="#171c67"/>
      <path id="Caminho_4650" data-name="Caminho 4650" d="M285.272,33.531c6.735,0,13.716,3.735,15.533,11.5h-5.5c-1.724-4.276-5.56-6.238-10.081-6.288-7.031,0-11.7,5.113-11.7,12.439,0,6.836,4.673,12.288,11.7,12.288,4.716,0,8.7-2.308,10.225-6.879h5.56c-1.723,8.408-8.8,12.1-15.785,12.1-9.345,0-17.458-6.454-17.458-17.508,0-11.112,8.113-17.653,17.508-17.653" transform="translate(1663.095 208.262)" fill="#171c67"/>
      <path id="Caminho_4651" data-name="Caminho 4651" d="M273.231,33.572V68.091h5.653v-12.5l-.4-10.918,21.049,23.458h1.954V33.673H295.8v12.54l.4,10.521L275.293,33.572Z" transform="translate(1697.051 208.515)" fill="#171c67"/>
      <path id="Caminho_4652" data-name="Caminho 4652" d="M295.571,33.531c6.735,0,13.715,3.735,15.532,11.5h-5.5c-1.723-4.276-5.56-6.238-10.081-6.288-7.031,0-11.7,5.113-11.7,12.439,0,6.836,4.673,12.288,11.7,12.288,4.716,0,8.7-2.308,10.225-6.879h5.56c-1.724,8.408-8.8,12.1-15.785,12.1-9.346,0-17.458-6.454-17.458-17.508,0-11.112,8.112-17.653,17.508-17.653" transform="translate(1727.062 208.262)" fill="#171c67"/>
      <path id="Caminho_4653" data-name="Caminho 4653" d="M300.809,63.7c6.44,0,11.8-4.384,11.8-12.389,0-7.867-5.308-12.446-11.754-12.446-6.483,0-11.8,4.478-11.8,12.446,0,8,5.264,12.389,11.754,12.389m-.1,5.408c-9.446,0-17.458-6.584-17.458-17.8s8.214-17.8,17.559-17.8c9.4,0,17.5,6.6,17.5,17.8,0,10.47-7.225,17.8-17.6,17.8" transform="translate(1759.279 208.088)" fill="#171c67"/>
      <path id="Caminho_4654" data-name="Caminho 4654" d="M306.295,63.7c6.447,0,11.8-4.384,11.8-12.389,0-7.867-5.315-12.446-11.754-12.446-6.483,0-11.8,4.478-11.8,12.446,0,8,5.264,12.389,11.747,12.389M306.2,69.1c-9.447,0-17.458-6.584-17.458-17.8s8.213-17.8,17.552-17.8c9.389,0,17.509,6.6,17.509,17.8,0,10.47-7.233,17.8-17.6,17.8" transform="translate(1793.396 208.088)" fill="#171c67"/>
      <path id="Caminho_4655" data-name="Caminho 4655" d="M308.773,52.666c3.894,0,6.641-3.094,6.641-7.081s-2.661-7.031-6.641-7.031h-8.6V52.666ZM294.517,68V33.586h14.256c7.68,0,12.15,5.61,12.15,12.143,0,6.439-4.579,11.949-12.15,11.949h-8.5V68Z" transform="translate(1829.259 208.603)" fill="#171c67"/>
      <rect id="Retângulo_3320" data-name="Retângulo 3320" width="4.867" height="38.752" transform="translate(2166.638 241.938)" fill="#171c67"/>
      <path id="Caminho_4656" data-name="Caminho 4656" d="M321.269,63.7c6.447,0,11.8-4.384,11.8-12.389,0-7.867-5.315-12.446-11.754-12.446-6.483,0-11.8,4.478-11.8,12.446,0,8,5.264,12.389,11.747,12.389m-.094,5.408c-9.447,0-17.458-6.584-17.458-17.8s8.213-17.8,17.552-17.8c9.4,0,17.509,6.6,17.509,17.8,0,10.47-7.226,17.8-17.6,17.8" transform="translate(1886.401 208.088)" fill="#171c67"/>
      <path id="Caminho_4657" data-name="Caminho 4657" d="M326.719,33.531c6.735,0,13.715,3.735,15.533,11.5h-5.509c-1.716-4.276-5.553-6.238-10.074-6.288-7.031,0-11.7,5.113-11.7,12.439,0,6.836,4.673,12.288,11.7,12.288,4.716,0,8.7-2.308,10.225-6.879h5.56c-1.724,8.408-8.8,12.1-15.785,12.1-9.346,0-17.458-6.454-17.458-17.508,0-11.112,8.113-17.653,17.509-17.653" transform="translate(1920.518 208.262)" fill="#171c67"/>
      <path id="Caminho_4658" data-name="Caminho 4658" d="M320.382,52.709V62.984h9.338c3.2,0,5.459-1.81,5.6-5.113a5.036,5.036,0,0,0-1.767-4.074,7.124,7.124,0,0,0-4.471-1.089Zm0-14.148v9.483h7.86c3.3,0,5.56-1.276,5.61-4.622,0-3.4-2.264-4.86-5.61-4.86Zm15.042,11.35a7.872,7.872,0,0,1,5.553,7.961c0,6.151-4.226,10.139-10.91,10.139H314.678V33.585h13.961c6.245,0,10.809,3.2,10.809,9.684a7.018,7.018,0,0,1-4.024,6.641" transform="translate(1954.48 208.597)" fill="#171c67"/>
      <rect id="Retângulo_3321" data-name="Retângulo 3321" width="4.867" height="38.752" transform="translate(2314.133 241.938)" fill="#171c67"/>
      <path id="Caminho_4659" data-name="Caminho 4659" d="M329.766,58.764c.245,3.887,4.471,5.315,8.22,5.315,3.627,0,7.947-1.082,7.947-5.358,0-4.521-4.666-4.968-8.639-5.365-6.3-.534-12.54-2.553-12.54-9.432,0-7.081,6.237-10.427,12.922-10.427,6.548,0,12.742,2.949,12.886,9.98h-5.408c-.245-3.692-4.125-4.867-7.514-4.867-3.159,0-7.233,1.276-7.233,5.163s3.879,4.37,7.867,4.918c6.981.779,13.377,2.163,13.377,10.074,0,7.579-7.132,10.427-13.578,10.427-6.735.144-13.766-3.194-13.91-10.427Z" transform="translate(2013.392 208.051)" fill="#171c67"/>
      <path id="Caminho_4660" data-name="Caminho 4660" d="M328.865,33.586V68h21.244V62.79H334.619V52.76h14.364V47.7H334.619V38.6h15.194V33.586Z" transform="translate(2042.597 208.602)" fill="#171c67"/>
      <path id="Caminho_4661" data-name="Caminho 4661" d="M338.079,58.764c.245,3.887,4.471,5.315,8.221,5.315,3.627,0,7.961-1.082,7.961-5.358,0-4.521-4.68-4.968-8.668-5.365-6.288-.534-12.533-2.553-12.533-9.432C333.06,36.843,339.3,33.5,346,33.5c6.533,0,12.728,2.949,12.872,9.98h-5.408c-.245-3.692-4.125-4.867-7.514-4.867-3.144,0-7.233,1.276-7.233,5.163s3.88,4.37,7.867,4.918c6.98.779,13.369,2.163,13.369,10.074,0,7.579-7.124,10.427-13.571,10.427-6.735.144-13.766-3.194-13.91-10.427Z" transform="translate(2065.024 208.051)" fill="#171c67"/>
      <path id="Caminho_4662" data-name="Caminho 4662" d="M354.406,33.531c6.735,0,13.715,3.735,15.533,11.5H364.43c-1.716-4.276-5.552-6.238-10.074-6.288-7.031,0-11.7,5.113-11.7,12.439,0,6.836,4.672,12.288,11.7,12.288,4.716,0,8.7-2.308,10.225-6.879h5.56c-1.724,8.408-8.8,12.1-15.785,12.1-9.346,0-17.458-6.454-17.458-17.508,0-11.112,8.112-17.653,17.508-17.653" transform="translate(2092.49 208.262)" fill="#171c67"/>
      <path id="Caminho_4663" data-name="Caminho 4663" d="M359.637,63.7c6.439,0,11.8-4.384,11.8-12.389,0-7.867-5.315-12.446-11.754-12.446-6.483,0-11.8,4.478-11.8,12.446,0,8,5.264,12.389,11.747,12.389m-.094,5.408c-9.447,0-17.458-6.584-17.458-17.8s8.206-17.8,17.552-17.8c9.4,0,17.508,6.6,17.508,17.8,0,10.47-7.233,17.8-17.6,17.8" transform="translate(2124.706 208.088)" fill="#171c67"/>
      <path id="Caminho_4664" data-name="Caminho 4664" d="M365.137,63.7c6.439,0,11.8-4.384,11.8-12.389,0-7.867-5.307-12.446-11.747-12.446-6.49,0-11.8,4.478-11.8,12.446,0,8,5.264,12.389,11.754,12.389m-.1,5.408c-9.447,0-17.458-6.584-17.458-17.8s8.213-17.8,17.559-17.8c9.381,0,17.509,6.6,17.509,17.8,0,10.47-7.233,17.8-17.609,17.8" transform="translate(2158.823 208.088)" fill="#171c67"/>
      <path id="Caminho_4665" data-name="Caminho 4665" d="M367.615,52.666c3.872,0,6.634-3.094,6.634-7.081s-2.661-7.031-6.634-7.031h-8.61V52.666ZM353.352,68V33.586h14.264c7.673,0,12.144,5.61,12.144,12.143,0,6.439-4.579,11.949-12.144,11.949h-8.509V68Z" transform="translate(2194.686 208.603)" fill="#171c67"/>
    </g>
  </g>
  <g id="Grupo_10244" data-name="Grupo 10244" transform="translate(803.541 61.726)">
    <g id="Grupo_10243" data-name="Grupo 10243" clip-path="url(#clip-path-2)">
      <rect id="Retângulo_3323" data-name="Retângulo 3323" width="393.615" height="165.277" transform="translate(0 0.001)" stroke="rgba(0,0,0,0)" stroke-width="1" fill="url(#linear-gradient)"/>
    </g>
  </g>
  <g id="Grupo_10246" data-name="Grupo 10246" transform="translate(0 0)">
    <g id="Grupo_10245" data-name="Grupo 10245" clip-path="url(#clip-path)">
      <path id="Caminho_4667" data-name="Caminho 4667" d="M90.946,40.435C84.528,25.884,69.976,18.824,55,18.824c-21.828,0-44.723,15.186-44.723,44.3,0,29.306,22.253,44.29,43.865,44.29,15.835,0,31.245-8.127,37.663-24.611h10.269c-7.06,22.686-27.82,33.813-48.574,33.813C26.962,116.613,0,98.427,0,63.121,0,27.6,27.82,9.406,54.782,9.623c19.9.216,39.372,10.269,46.216,30.813Z" transform="translate(0 59.754)" fill="#0c1249"/>
      <path id="Caminho_4668" data-name="Caminho 4668" d="M101.854,25.516a70.88,70.88,0,0,0-30.387-7.276c-26.529,0-45.148,16.261-45.79,43.865,0,23.97,13.268,44.3,38.3,44.3,23.97,0,37.88-17.977,37.88-43.656ZM111.7,89.709c0,10.91-.216,17.552,13.268,15.835l.425,9.2c-16.9,2.567-22.462-3.851-22.462-19.044V90.567C95.22,107.686,80.243,116.03,62.273,116.03,31.236,116.03,15.4,90.993,15.4,62.105,16.043,28.934,38.945,9.681,71.9,9.681c13.9,0,27.178,3.634,39.8,9.627Z" transform="translate(95.656 60.128)" fill="#0c1249"/>
      <path id="Caminho_4669" data-name="Caminho 4669" d="M92.636,19.165c-24.82,0-38.1,18.828-38.1,42.8,0,24.611,11.776,47.29,37.678,47.29,26.522,0,38.723-21.186,38.723-45.79,0-23.97-13.268-44.3-38.305-44.3M44.495,168.311V36.709c0-16.261-1.291-19.47-13.268-18.4l-.216-7.5c16.9-2.567,22.462,3.851,22.462,19.052V35C60.107,18.523,75.726,9.531,94.352,9.531c30.6,0,46.857,25.253,46.857,53.931,0,29.1-15.41,54.775-47.074,54.775-18.186,0-33.38-7.918-40.238-25.037v75.11Z" transform="translate(192.605 59.197)" fill="#0c1249"/>
      <path id="Caminho_4670" data-name="Caminho 4670" d="M134.258,25.516a70.88,70.88,0,0,0-30.387-7.276c-26.529,0-45.148,16.261-45.79,43.865,0,23.97,13.268,44.3,38.3,44.3,23.97,0,37.88-17.977,37.88-43.656ZM144.1,89.709c0,10.91-.216,17.552,13.268,15.835l.425,9.2c-16.9,2.567-22.462-3.851-22.462-19.044V90.567c-7.709,17.119-22.686,25.462-40.656,25.462C63.64,116.03,47.8,90.993,47.8,62.105c.642-33.171,23.544-52.424,56.5-52.424,13.9,0,27.171,3.634,39.8,9.627Z" transform="translate(296.919 60.128)" fill="#0c1249"/>
      <path id="Caminho_4671" data-name="Caminho 4671" d="M154.871,40.435c-6.425-14.552-20.977-21.611-35.947-21.611-21.828,0-44.73,15.186-44.73,44.3,0,29.306,22.253,44.29,43.865,44.29,15.835,0,31.245-8.127,37.663-24.611H166c-7.067,22.686-27.827,33.813-48.574,33.813-26.537,0-53.506-18.186-53.506-53.492,0-35.522,27.82-53.715,54.782-53.5,19.9.216,39.38,10.269,46.216,30.813Z" transform="translate(396.998 59.754)" fill="#0c1249"/>
      <path id="Caminho_4672" data-name="Caminho 4672" d="M92.069,150.5H82.017V48H92.069ZM87.152,3.923a7.025,7.025,0,0,1,7.06,7.276,7.128,7.128,0,0,1-6.843,7.276c-3.642.216-7.276-2.134-7.276-7.276,0-4.925,3.425-7.276,7.06-7.276" transform="translate(497.455 24.365)" fill="#0c1249"/>
      <path id="Caminho_4673" data-name="Caminho 4673" d="M117.346,37.256H157.36v8.56H117.346v55.633c0,31.462,14.985,37.238,43.648,26.969l1.5,8.985c-35.1,11.978-55.417,1.709-55.417-35.738V45.815l-23.544-.642V37.256h23.544l.858-31.671h9.41Z" transform="translate(518.827 34.688)" fill="#0c1249"/>
      <path id="Caminho_4674" data-name="Caminho 4674" d="M181.352,25.516a70.881,70.881,0,0,0-30.387-7.276c-26.529,0-45.148,16.261-45.79,43.865,0,23.97,13.261,44.3,38.3,44.3,23.969,0,37.88-17.977,37.88-43.656ZM191.2,89.709c0,10.91-.216,17.552,13.268,15.835l.425,9.2c-16.9,2.567-22.47-3.851-22.47-19.044V90.567c-7.7,17.119-22.679,25.462-40.656,25.462-31.029,0-46.865-25.037-46.865-53.924.642-33.171,23.537-52.424,56.5-52.424,13.9,0,27.171,3.634,39.8,9.627Z" transform="translate(589.422 60.128)" fill="#0c1249"/>
    </g>
  </g>
</svg>
