<svg id="Layer_1" xmlns="http://www.w3.org/2000/svg" viewBox="0 0 959 551" preserveAspectRatio="none slice"><style>.st0{fill:#fff;fill-opacity:.02}</style><path class="st0" d="M671.8 435.5c-11.9 0-32.3 2.9-48.4 19.1-17.3 17.3-19.2 31.7-23 43.1l-.3.9c-1.6 4.6-3.6 8.6-7.1 12.2-4.7 4.7-10.8 7.1-17 7.2v.2h-.4c-13.6 0-24.6-11-24.6-24.6v-8.5c-3.4 5.9-8.1 12.3-14.7 18.9-3 3-6.2 5.6-9.3 7.9 7.4 19.7 26.4 33.7 48.7 33.7h.4v-.2c13.2-.1 26.3-5.2 36.3-15.2 19.5-19.5 9-34.6 30.3-55.9 10.2-10.2 23.9-11.4 29.1-11.4 8.6 0 16.2 2.1 22.9 6.4s11.9 10.1 15.6 17.5c1.5 2.9 2.6 5.9 3.5 9.1 2.3-3.7 5.2-7.5 9.1-11.4 3.7-3.7 7.8-6.9 12.1-9.5l-.9-1.8c-6.1-11.6-14.6-20.8-25.5-27.5-10.9-6.8-23.2-10.2-36.8-10.2zM892.9 255c-10.2 10.2-23.9 11.4-29.1 11.4-8.4 0-16-2.2-22.8-6.5-6.8-4.3-12-10.2-15.8-17.5-2-3.8-3.4-7.9-4.4-12.2-2.3 4.1-5.5 8.4-9.9 12.9-3.5 3.5-7.4 6.5-11.5 9.1.6 1.3 1.3 2.6 1.9 3.9 6.2 11.6 14.7 20.8 25.6 27.5 10.9 6.7 23.2 10.1 36.8 10.1 11.9 0 32.3-2.9 48.4-19.1 17.3-17.3 19.2-31.7 23-43.1l.3-.9c1.6-4.6 3.6-8.6 7.1-12.2 4.8-4.8 11.1-7.2 17.4-7.2v-27.4c-13.3 0-26.6 5.1-36.8 15.2-19.5 19.6-8.9 34.7-30.2 56zm-161.7 54c-19.5 19.5-9 34.6-30.3 55.9-10.2 10.2-23.9 11.4-29.1 11.4-8.4 0-16-2.2-22.8-6.5s-12-10.2-15.8-17.5c-2-3.8-3.4-7.9-4.4-12.2-2.3 4.1-5.5 8.4-9.9 12.9-3.5 3.5-7.4 6.5-11.5 9.1.6 1.3 1.3 2.6 1.9 3.9 6.2 11.6 14.7 20.8 25.6 27.5 10.9 6.7 23.2 10.1 36.8 10.1 11.9 0 32.3-2.9 48.4-19.1 17.3-17.3 19.2-31.7 23-43.1l.3-.9c1.6-4.6 3.6-8.6 7.1-12.2 4.8-4.8 11.1-7.2 17.4-7.2 13.6 0 24.6 11 24.6 24.6v8.5c3.4-5.9 8.1-12.3 14.7-18.9 3-3 6.2-5.6 9.3-7.9-7.4-19.7-26.4-33.7-48.7-33.7-13.1 0-26.4 5.1-36.6 15.3zM223.5 31.9c.6 1.3 1.3 2.6 1.9 3.9 6.2 11.6 14.7 20.8 25.6 27.5 10.9 6.7 23.2 10.1 36.8 10.1 11.9 0 32.3-2.9 48.4-19.1 17.3-17.3 19.2-31.7 23-43.1l.3-.9c1.3-3.8 2.9-7.2 5.4-10.3h-30.4c-3.4 10.9-4.5 21.6-17.5 34.7-10.2 10.2-23.9 11.4-29.1 11.4-8.4 0-16-2.2-22.8-6.5s-12-10.2-15.8-17.5c-2-3.8-3.4-7.9-4.4-12.2-2.3 4.1-5.5 8.4-9.9 12.9-3.5 3.6-7.4 6.6-11.5 9.1z"/><path class="st0" d="M576 404.1c-13.3 0-26.6 5.1-36.8 15.2-19.5 19.5-9 34.6-30.3 55.9-10.2 10.2-23.9 11.4-29.1 11.4-8.4 0-16-2.2-22.8-6.5s-12-10.2-15.8-17.5c-2-3.8-3.4-7.9-4.4-12.2-2.3 4.1-5.5 8.4-9.9 12.9-3.5 3.5-7.4 6.5-11.5 9.1.6 1.3 1.3 2.6 1.9 3.9 6.2 11.6 14.7 20.8 25.6 27.5s23.2 10.1 36.8 10.1c11.9 0 32.3-2.9 48.4-19.1 17.3-17.3 19.2-31.7 23-43.1l.3-.9c1.6-4.6 3.6-8.6 7.1-12.2 4.8-4.8 11.1-7.2 17.4-7.2 13.6 0 24.6 11 24.6 24.6v8.5c3.4-5.9 8.1-12.3 14.7-18.9 3-3 6.2-5.6 9.3-7.9-7.3-19.6-26.2-33.6-48.5-33.6zm132.6-142.2c-10.9-6.8-23.2-10.1-36.8-10.1-11.9 0-32.3 2.9-48.4 19.1-17.3 17.3-19.2 31.7-23 43.1l-.3.9c-1.6 4.6-3.6 8.6-7.1 12.2-4.7 4.7-10.8 7.1-17 7.2v.2h-.4c-13.6 0-24.6-11-24.6-24.6v-8.5c-3.4 5.9-8.1 12.3-14.7 18.9-3 3-6.2 5.6-9.3 7.9 7.4 19.7 26.4 33.7 48.7 33.7h.4v-.2c13.2-.1 26.3-5.2 36.3-15.2 19.5-19.5 9-34.6 30.3-55.9 10.2-10.2 23.9-11.4 29.1-11.4 8.6 0 16.2 2.1 22.9 6.4s11.9 10.1 15.6 17.5c1.5 2.9 2.6 5.9 3.5 9.1 2.3-3.7 5.2-7.5 9.1-11.4 3.7-3.7 7.8-6.9 12.1-9.5l-.9-1.8c-6.1-11.7-14.6-20.9-25.5-27.6zM423.3 5.2c1.9-1.9 3.7-3.5 5.7-5.1h-25.9c3.4 4.2 5.5 9.6 5.5 15.5v8.5c3.4-5.9 8.1-12.3 14.7-18.9z"/><path class="st0" d="M576 220.3c-13.3 0-26.6 5.1-36.8 15.2-19.5 19.5-9 34.6-30.3 55.9-10.2 10.2-23.9 11.4-29.1 11.4-8.4 0-16-2.2-22.8-6.5s-12-10.2-15.8-17.5c-2-3.8-3.4-7.9-4.4-12.2-2.3 4.1-5.5 8.4-9.9 12.9-3.5 3.5-7.4 6.5-11.5 9.1.6 1.3 1.3 2.6 1.9 3.9 6.2 11.6 14.7 20.8 25.6 27.5s23.2 10.1 36.8 10.1c11.9 0 32.3-2.9 48.4-19.1 17.3-17.3 19.2-31.7 23-43.1l.3-.9c1.6-4.6 3.6-8.6 7.1-12.2 4.8-4.8 11.1-7.2 17.4-7.2 13.6 0 24.6 11 24.6 24.6v8.5c3.4-5.9 8.1-12.3 14.7-18.9 3-3 6.2-5.6 9.3-7.9-7.3-19.6-26.2-33.6-48.5-33.6zM576 37c-13.3 0-26.6 5.1-36.8 15.2-19.5 19.5-9 34.6-30.3 55.9-10.2 10.2-23.9 11.4-29.1 11.4-8.4 0-16-2.2-22.8-6.5s-12-10.2-15.8-17.5c-2-3.8-3.4-7.9-4.4-12.2-2.3 4.1-5.5 8.4-9.9 12.9-3.5 3.5-7.4 6.5-11.5 9.1.6 1.3 1.3 2.6 1.9 3.9 6.2 11.6 14.7 20.8 25.6 27.5s23.2 10.1 36.8 10.1c11.9 0 32.3-2.9 48.4-19.1 17.3-17.3 19.2-31.7 23-43.1l.3-.9c1.6-4.6 3.6-8.6 7.1-12.2 4.8-4.8 11.1-7.2 17.4-7.2 13.6 0 24.6 11 24.6 24.6v8.5c3.4-5.9 8.1-12.3 14.7-18.9 3-3 6.2-5.6 9.3-7.9C617.2 51 598.3 37 576 37z"/><path class="st0" d="M344.3 246.8c-3 3-6.2 5.6-9.3 7.9 7.4 19.7 26.4 33.7 48.7 33.7h.4v-.2c13.2-.1 26.3-5.2 36.3-15.2 19.5-19.5 9-34.6 30.3-55.9 10.2-10.2 23.9-11.4 29.1-11.4 8.6 0 16.2 2.1 22.9 6.4 6.7 4.3 11.9 10.1 15.6 17.5 1.5 2.9 2.6 5.9 3.5 9.1 2.3-3.7 5.2-7.5 9.1-11.4 3.7-3.7 7.8-6.9 12.1-9.5l-.9-1.8c-6.1-11.6-14.6-20.8-25.5-27.5-10.9-6.8-23.2-10.1-36.8-10.1-11.9 0-32.3 2.9-48.4 19.1-17.3 17.3-19.2 31.7-23 43.1l-.3.9c-1.6 4.6-3.6 8.6-7.1 12.2-4.7 4.7-10.8 7.1-17 7.2v.2h-.4c-13.6 0-24.6-11-24.6-24.6V228c-3.4 5.8-8.1 12.2-14.7 18.8zm298.3-139.6c10.2-10.2 23.9-11.4 29.1-11.4 8.6 0 16.2 2.1 22.9 6.4s11.9 10.1 15.6 17.5c1.5 2.9 2.6 5.9 3.5 9.1 2.3-3.7 5.2-7.5 9.1-11.4 3.7-3.7 7.8-6.9 12.1-9.5l-.9-1.8c-6.1-11.6-14.6-20.8-25.5-27.5-10.9-6.8-23.2-10.1-36.8-10.1-11.9 0-32.3 2.9-48.4 19.1-17.3 17.3-19.2 31.7-23 43.1l-.3.9c-1.6 4.6-3.6 8.6-7.1 12.2-4.7 4.7-10.8 7.1-17 7.2v.2h-.4c-13.6 0-24.6-11-24.6-24.6v-8.5c-3.4 5.9-8.1 12.3-14.7 18.9-3 3-6.2 5.6-9.3 7.9 7.4 19.7 26.4 33.7 48.7 33.7h.4v-.2c13.2-.1 26.3-5.2 36.3-15.2 19.6-19.6 9-34.7 30.3-56zM334.5 550.9h30.4c.5-.6 1.1-1.3 1.7-1.9 4.8-4.8 11.1-7.2 17.4-7.2 7.7 0 14.6 3.5 19.1 9.1H429c1.2-1 2.4-1.9 3.7-2.8-7.4-19.7-26.4-33.7-48.7-33.7-13.3 0-26.6 5.1-36.8 15.2-7.5 7.6-10.5 14.5-12.7 21.3zm585.7-267.2c-3 3-6.2 5.6-9.3 7.9 7.4 19.7 26.4 33.7 48.7 33.7h.4v-27.5h-.4c-13.6 0-24.6-11-24.6-24.6v-8.5c-3.5 6.1-8.2 12.4-14.8 19zM728.3 393.6c-3 3-6.2 5.6-9.3 7.9 7.4 19.7 26.4 33.7 48.7 33.7h.4v-.1c13.2-.1 26.3-5.2 36.3-15.2 19.5-19.5 9-34.6 30.3-55.9 10.2-10.2 23.9-11.4 29.1-11.4 8.6 0 16.2 2.1 22.9 6.4s11.9 10.1 15.6 17.5c1.5 2.9 2.6 5.9 3.5 9.1 2.3-3.7 5.2-7.5 9.1-11.4 3.7-3.7 7.8-6.9 12.1-9.5l-.9-1.8c-6.1-11.6-14.6-20.8-25.5-27.5-10.9-6.8-23.2-10.1-36.8-10.1-11.9 0-32.3 2.9-48.4 19.1-17.3 17.3-19.2 31.7-23 43.1l-.3.9c-1.6 4.6-3.6 8.6-7.1 12.2-4.7 4.7-10.8 7.1-17 7.2v.2h-.4c-13.6 0-24.6-11-24.6-24.6v-8.5c-3.4 5.8-8.1 12.1-14.7 18.7zm-384 37c-3 3-6.2 5.6-9.3 7.9 7.4 19.7 26.4 33.7 48.7 33.7h.4v-.2c13.2-.1 26.3-5.2 36.3-15.2 19.5-19.5 9-34.6 30.3-55.9 10.2-10.2 23.9-11.4 29.1-11.4 8.6 0 16.2 2.1 22.9 6.4 6.7 4.3 11.9 10.1 15.6 17.5 1.5 2.9 2.6 5.9 3.5 9.1 2.3-3.7 5.2-7.5 9.1-11.4 3.7-3.7 7.8-6.9 12.1-9.5l-.9-1.8c-6.1-11.6-14.6-20.8-25.5-27.5-10.9-6.8-23.2-10.1-36.8-10.1-11.9 0-32.3 2.9-48.4 19.1-17.3 17.3-19.2 31.7-23 43.1l-.3.9c-1.6 4.6-3.6 8.6-7.1 12.2-4.7 4.7-10.8 7.1-17 7.2v.2h-.4c-13.6 0-24.6-11-24.6-24.6v-8.5c-3.4 5.8-8.1 12.1-14.7 18.8zM920.2 100c-3 3-6.2 5.6-9.3 7.9 7.4 19.7 26.4 33.7 48.7 33.7h.4V114v.2h-.4c-13.6 0-24.6-11-24.6-24.6v-8.5c-3.5 5.9-8.2 12.3-14.8 18.9zM152.4 357.1c-3 3-6.2 5.6-9.3 7.9 7.4 19.7 26.4 33.7 48.7 33.7h.4v-.2c13.2-.1 26.3-5.2 36.3-15.2 19.5-19.5 9-34.6 30.3-55.9 10.2-10.2 23.9-11.4 29.1-11.4 8.6 0 16.2 2.1 22.9 6.4 6.7 4.3 11.9 10.1 15.6 17.5 1.5 2.9 2.6 5.9 3.5 9.1 2.3-3.7 5.2-7.5 9.1-11.4 3.7-3.7 7.8-6.9 12.1-9.5l-.9-1.8c-6.1-11.6-14.6-20.8-25.5-27.5-10.9-6.8-23.2-10.1-36.8-10.1-11.9 0-32.3 2.9-48.4 19.1-17.3 17.3-19.2 31.7-23 43.1l-.3.9c-1.6 4.6-3.6 8.6-7.1 12.2-4.7 4.7-10.8 7.1-17 7.2v.2h-.4c-13.6 0-24.6-11-24.6-24.6v-8.5c-3.4 5.9-8.1 12.2-14.7 18.8zm578.8 135.6c-19.5 19.5-9 34.6-30.3 55.9-.8.8-1.7 1.5-2.5 2.3h35.2c5.5-9.8 7.2-18.4 9.6-25.7l.3-.9c1.6-4.6 3.6-8.6 7.1-12.2 4.8-4.8 11.1-7.2 17.4-7.2 13.6 0 24.6 11 24.6 24.6v8.5c3.4-5.9 8.1-12.3 14.7-18.9 3-3 6.2-5.6 9.3-7.9-7.4-19.7-26.4-33.7-48.7-33.7-13.2 0-26.6 5.1-36.7 15.2zm132.5 16.2c-11.9 0-32.3 2.9-48.4 19.1-8.3 8.3-13 15.9-16.2 22.9h32.4c.9-1.1 1.9-2.1 3-3.2 10.2-10.2 23.9-11.4 29.1-11.4 8.6 0 16.2 2.1 22.9 6.4 3.6 2.3 6.7 5.1 9.5 8.3h27c1.3-.9 2.6-1.8 3.9-2.6l-.9-1.8c-6.1-11.6-14.6-20.8-25.5-27.5-10.9-6.8-23.1-10.2-36.8-10.2zm-410.9 42h53.8c-8.3-3.4-17.2-5.1-26.9-5.1-6.8 0-16.7 1-26.9 5.1zM920.2 467c-3 3-6.2 5.6-9.3 7.9 7.4 19.7 26.4 33.7 48.7 33.7h.4v-27.5h-.4c-13.6 0-24.6-11-24.6-24.6v-8.4c-3.5 6-8.2 12.3-14.8 18.9zm-287 69c-2-3.8-3.4-7.9-4.4-12.2-2.3 4.1-5.5 8.4-9.9 12.9-3.5 3.5-7.4 6.5-11.5 9.1.6 1.3 1.3 2.6 1.9 3.9.2.4.4.8.7 1.2h35.3c-5-4-9.1-8.9-12.1-14.9z"/><path class="st0" d="M892.9 438.3c-10.2 10.2-23.9 11.4-29.1 11.4-8.4 0-16-2.2-22.8-6.5s-12-10.2-15.8-17.5c-2-3.8-3.4-7.9-4.4-12.2-2.3 4.1-5.5 8.4-9.9 12.9-3.5 3.5-7.4 6.5-11.5 9.1.6 1.3 1.3 2.6 1.9 3.9 6.2 11.6 14.7 20.8 25.6 27.5 10.9 6.7 23.2 10.1 36.8 10.1 11.9 0 32.3-2.9 48.4-19.1 17.3-17.3 19.2-31.7 23-43.1l.3-.9c1.6-4.6 3.6-8.6 7.1-12.2 4.8-4.8 11.1-7.2 17.4-7.2v-27.4c-13.3 0-26.6 5.1-36.8 15.2-19.5 19.6-8.9 34.7-30.2 56zM59.1 540.8c10.9 6.7 23.2 10.1 36.8 10.1 11.9 0 32.3-2.9 48.4-19.1 17.3-17.3 19.2-31.7 23-43.1l.3-.9c1.6-4.6 3.6-8.6 7.1-12.2 4.8-4.8 11.1-7.2 17.4-7.2 13.6 0 24.6 11 24.6 24.6v8.5c3.4-5.9 8.1-12.3 14.7-18.9 3-3 6.2-5.6 9.3-7.9C233.3 455 214.3 441 192 441c-13.3 0-26.6 5.1-36.8 15.2-19.5 19.5-9 34.6-30.3 55.9-10.2 10.2-23.9 11.4-29.1 11.4-8.4 0-16-2.2-22.8-6.5-6.8-4.3-12-10.2-15.8-17.5-2-3.8-3.4-7.9-4.4-12.2-2.3 4.1-5.5 8.4-9.9 12.9-3.5 3.5-7.4 6.5-11.5 9.1.6 1.3 1.3 2.6 1.9 3.9 6.3 11.6 14.9 20.8 25.8 27.6zM125 328.4c-10.2 10.2-23.9 11.4-29.1 11.4-8.4 0-16-2.2-22.8-6.5s-12-10.2-15.8-17.5c-2-3.8-3.4-7.9-4.4-12.2-2.3 4.1-5.5 8.4-9.9 12.9-3.5 3.5-7.4 6.5-11.5 9.1.6 1.3 1.3 2.6 1.9 3.9 6.2 11.6 14.7 20.8 25.6 27.5s23.2 10.1 36.8 10.1c11.9 0 32.3-2.9 48.4-19.1 17.3-17.3 19.2-31.7 23-43.1l.3-.9c1.6-4.6 3.6-8.6 7.1-12.2 4.8-4.8 11.1-7.2 17.4-7.2 13.6 0 24.6 11 24.6 24.6v8.5c3.4-5.9 8.1-12.3 14.7-18.9 3-3 6.2-5.6 9.3-7.9-7.4-19.7-26.4-33.7-48.7-33.7-13.3 0-26.6 5.1-36.8 15.2-19.3 19.6-8.8 34.7-30.1 56zM923.2 15.3c-19.5 19.5-9 34.6-30.3 55.9-10.2 10.2-23.9 11.4-29.1 11.4-8.4 0-16-2.2-22.8-6.5s-12-10.2-15.8-17.5c-2-3.8-3.4-7.9-4.4-12.2-2.3 4.1-5.5 8.4-9.9 12.9-3.5 3.5-7.4 6.5-11.5 9.1.6 1.3 1.3 2.6 1.9 3.9 6.2 11.6 14.7 20.8 25.6 27.5 10.9 6.7 23.2 10.1 36.8 10.1 11.9 0 32.3-2.9 48.4-19.1 17.3-17.3 19.2-31.7 23-43.1l.3-.9c1.6-4.6 3.6-8.6 7.1-12.2 4.8-4.8 11.1-7.2 17.4-7.2V.1c-13.3 0-26.6 5.1-36.7 15.2z"/><path class="st0" d="M.1 508.9c13.2-.1 26.3-5.2 36.3-15.2 19.5-19.5 9-34.6 30.3-55.9 10.2-10.2 23.9-11.4 29.1-11.4 8.6 0 16.2 2.1 22.9 6.4s11.9 10.1 15.6 17.5c1.5 2.9 2.6 5.9 3.5 9.1 2.3-3.7 5.2-7.5 9.1-11.4 3.7-3.7 7.8-6.9 12.1-9.5l-.9-1.8c-6.1-11.6-14.6-20.8-25.5-27.5-10.9-6.8-23.2-10.1-36.8-10.1-11.9 0-32.3 2.9-48.4 19.1-17.3 17.3-19.2 31.7-23 43.1l-.3.9c-1.6 4.6-3.6 8.6-7.1 12.2-4.7 4.7-10.8 7.1-17 7.2l.1 27.3zM.1 395c13.6 0 24.6 11 24.6 24.6v8.5c3.4-5.9 8.1-12.3 14.7-18.9 3-3 6.2-5.6 9.3-7.9-7.4-19.7-26.4-33.7-48.7-33.7V395h.1zm167 135.5V522c-3.4 5.9-8.1 12.3-14.7 18.9-3 3-6.2 5.6-9.3 7.9.3.7.5 1.4.8 2.1H178c-6.6-4.4-10.9-11.9-10.9-20.4zM902.2 9.4c1.5 2.9 2.6 5.9 3.5 9.1 2.3-3.7 5.2-7.5 9.1-11.4 2.6-2.6 5.3-4.9 8.2-6.9h-27c2.5 2.7 4.5 5.7 6.2 9.2zM36.4 309.9c19.5-19.5 9-34.6 30.3-55.9 10.2-10.2 23.9-11.4 29.1-11.4 8.6 0 16.2 2.1 22.9 6.4 6.7 4.3 11.9 10.1 15.6 17.5 1.5 2.9 2.6 5.9 3.5 9.1 2.3-3.7 5.2-7.5 9.1-11.4 3.7-3.7 7.8-6.9 12.1-9.5l-.9-1.8c-6.1-11.6-14.6-20.8-25.5-27.5-10.9-6.8-23.2-10.1-36.8-10.1-11.9 0-32.3 2.9-48.4 19.1-17.3 17.3-19.2 31.7-23 43.1l-.3.9c-1.6 4.6-3.6 8.6-7.1 12.2-4.7 4.7-10.8 7.1-17 7.2v27.3c13.3-.1 26.4-5.1 36.4-15.2zM.1 550.9zM24.7 52.1v8.5c3.4-5.9 8.1-12.3 14.7-18.9 3-3 6.2-5.6 9.3-7.9C41.4 14.1 22.4.1.1.1v27.4c13.6 0 24.6 11 24.6 24.6zm0 183.7v8.5c3.4-5.9 8.1-12.3 14.7-18.9 3-3 6.2-5.6 9.3-7.9-7.4-19.7-26.4-33.7-48.7-33.7v27.4c13.7.1 24.7 11.1 24.7 24.6zM671.8 9.2c-8.4 0-16-2.2-22.8-6.5-1.3-.8-2.5-1.7-3.7-2.7H610c6.1 11 14.4 19.8 25 26.4 10.9 6.7 23.2 10.1 36.8 10.1 11.9 0 32.3-2.9 48.4-19.1 6.2-6.2 10.4-12 13.4-17.4h-35.2c-9.8 8.2-21.8 9.2-26.6 9.2zM768 110.4c-13.3 0-26.6 5.1-36.8 15.2-19.5 19.5-9 34.6-30.3 55.9-10.2 10.2-23.9 11.4-29.1 11.4-8.4 0-16-2.2-22.8-6.5s-12-10.2-15.8-17.5c-2-3.8-3.4-7.9-4.4-12.2-2.3 4.1-5.5 8.4-9.9 12.9-3.5 3.5-7.4 6.5-11.5 9.1.6 1.3 1.3 2.6 1.9 3.9 6.2 11.6 14.7 20.8 25.6 27.5 10.9 6.7 23.2 10.1 36.8 10.1 11.9 0 32.3-2.9 48.4-19.1 17.3-17.3 19.2-31.7 23-43.1l.3-.9c1.6-4.6 3.6-8.6 7.1-12.2 4.8-4.8 11.1-7.2 17.4-7.2 13.6 0 24.6 11 24.6 24.6v8.5c3.4-5.9 8.1-12.3 14.7-18.9 3-3 6.2-5.6 9.3-7.9-7.3-19.6-26.3-33.6-48.5-33.6z"/><path class="st0" d="M863.7 141.9c-11.9 0-32.3 2.9-48.4 19.1-17.3 17.3-19.2 31.7-23 43.1l-.3.9c-1.6 4.6-3.6 8.6-7.1 12.2-4.7 4.7-10.8 7.1-17 7.2v.2h-.4c-13.6 0-24.6-11-24.6-24.6v-8.5c-3.4 5.9-8.1 12.3-14.7 18.9-3 3-6.2 5.6-9.3 7.9 7.4 19.7 26.4 33.7 48.7 33.7h.4v-.2c13.2-.1 26.3-5.2 36.3-15.2 19.5-19.5 9-34.6 30.3-55.9 10.2-10.2 23.9-11.4 29.1-11.4 8.6 0 16.2 2.1 22.9 6.4 6.7 4.3 11.9 10.1 15.6 17.5 1.5 2.9 2.6 5.9 3.5 9.1 2.3-3.7 5.2-7.5 9.1-11.4 3.7-3.7 7.8-6.9 12.1-9.5l-.9-1.8c-6.1-11.6-14.6-20.8-25.5-27.5-10.8-6.9-23.1-10.2-36.8-10.2zM216.4 534.6l-.3.9c-1.6 4.6-3.6 8.6-7.1 12.2-1.2 1.2-2.6 2.3-4 3.2h34.3c5.2-12.7 4.3-24.6 19.4-39.7 10.2-10.2 23.9-11.4 29.1-11.4 8.6 0 16.2 2.1 22.9 6.4 6.7 4.3 11.9 10.1 15.6 17.5 1.5 2.9 2.6 5.9 3.5 9.1 2.3-3.7 5.2-7.5 9.1-11.4 3.7-3.7 7.8-6.9 12.1-9.5l-.9-1.8c-6.1-11.6-14.6-20.8-25.5-27.5-10.9-6.8-23.2-10.1-36.8-10.1-11.9 0-32.3 2.9-48.4 19.1-17.2 17.2-19.2 31.6-23 43zM317 218.1c-10.2 10.2-23.9 11.4-29.1 11.4-8.4 0-16-2.2-22.8-6.5s-12-10.2-15.8-17.5c-2-3.8-3.4-7.9-4.4-12.2-2.3 4.1-5.5 8.4-9.9 12.9-3.5 3.5-7.4 6.5-11.5 9.1.6 1.3 1.3 2.6 1.9 3.9 6.2 11.6 14.7 20.8 25.6 27.5s23.2 10.1 36.8 10.1c11.9 0 32.3-2.9 48.4-19.1 17.3-17.3 19.2-31.7 23-43.1l.3-.9c1.6-4.6 3.6-8.6 7.1-12.2 4.8-4.8 11.1-7.2 17.4-7.2 13.6 0 24.6 11 24.6 24.6v8.5c3.4-5.9 8.1-12.3 14.7-18.9 3-3 6.2-5.6 9.3-7.9-7.4-19.7-26.4-33.7-48.7-33.7-13.3 0-26.6 5.1-36.8 15.2-19.3 19.6-8.8 34.7-30.1 56zm-66 212.3c10.9 6.7 23.2 10.1 36.8 10.1 11.9 0 32.3-2.9 48.4-19.1 17.3-17.3 19.2-31.7 23-43.1l.3-.9c1.6-4.6 3.6-8.6 7.1-12.2 4.8-4.8 11.1-7.2 17.4-7.2 13.6 0 24.6 11 24.6 24.6v8.5c3.4-5.9 8.1-12.3 14.7-18.9 3-3 6.2-5.6 9.3-7.9-7.4-19.7-26.4-33.7-48.7-33.7-13.3 0-26.6 5.1-36.8 15.2-19.5 19.5-9 34.6-30.3 55.9-10.2 10.2-23.9 11.4-29.1 11.4-8.4 0-16-2.2-22.8-6.5s-12-10.2-15.8-17.5c-2-3.8-3.4-7.9-4.4-12.2-2.3 4.1-5.5 8.4-9.9 12.9-3.5 3.5-7.4 6.5-11.5 9.1.6 1.3 1.3 2.6 1.9 3.9 6.4 11.7 14.9 20.9 25.8 27.6zM59.1 173.3c10.9 6.7 23.2 10.1 36.8 10.1 11.9 0 32.3-2.9 48.4-19.1 17.3-17.3 19.2-31.7 23-43.1l.3-.9c1.6-4.6 3.6-8.6 7.1-12.2 4.8-4.8 11.1-7.2 17.4-7.2 13.6 0 24.6 11 24.6 24.6v8.5c3.4-5.9 8.1-12.3 14.7-18.9 3-3 6.2-5.6 9.3-7.9-7.4-19.7-26.4-33.7-48.7-33.7-13.3 0-26.6 5.1-36.8 15.2-19.5 19.5-9 34.6-30.3 55.9-10 10.2-23.8 11.5-29 11.5-8.4 0-16-2.2-22.8-6.5s-12-10.2-15.8-17.5c-2-3.8-3.4-7.9-4.4-12.2-2.3 4.1-5.5 8.4-9.9 12.9-3.5 3.5-7.4 6.5-11.5 9.1.6 1.3 1.3 2.6 1.9 3.9 6.2 11.6 14.8 20.7 25.7 27.5z"/><path class="st0" d="M24.5 93.7l-.3.9c-1.6 4.6-3.6 8.6-7.1 12.2-4.7 4.7-10.8 7.1-17 7.2v27.4c13.2-.1 26.3-5.2 36.3-15.2 19.5-19.5 9-34.6 30.3-55.9 10.2-10.2 24-11.4 29.2-11.4 8.6 0 16.2 2.1 22.9 6.4s11.9 10.1 15.6 17.5c1.5 2.9 2.6 5.9 3.5 9.1 2.3-3.7 5.2-7.5 9.1-11.4 3.7-3.7 7.8-6.9 12.1-9.5l-.9-1.8c-6.1-11.6-14.6-20.8-25.5-27.5-10.9-6.8-23.2-10.1-36.8-10.1-11.9 0-32.3 2.9-48.4 19.1-17.3 17.2-19.2 31.6-23 43zM831.6.1h-32.4c-3.4 7.5-4.9 14.3-6.8 20.2l-.3.9c-1.6 4.6-3.6 8.6-7.1 12.2-4.7 4.7-10.8 7.1-17 7.2v.2h-.4c-13.6 0-24.6-11-24.6-24.6V7.7c-3.4 5.9-8.1 12.3-14.7 18.9-3 3-6.2 5.6-9.3 7.9 7.4 19.7 26.4 33.7 48.7 33.7h.4V68c13.2-.1 26.3-5.2 36.3-15.2 18.4-18.5 9.9-33.1 27.2-52.7zM191.7 215h.4v-.2c13.2-.1 26.3-5.2 36.3-15.2 19.5-19.5 9-34.6 30.3-55.9 10.2-10.2 23.9-11.4 29.1-11.4 8.6 0 16.2 2.1 22.9 6.4 6.7 4.3 11.9 10.1 15.6 17.5 1.5 2.9 2.6 5.9 3.5 9.1 2.3-3.7 5.2-7.5 9.1-11.4 3.7-3.7 7.8-6.9 12.1-9.5l-.9-1.8c-6.1-11.6-14.6-20.8-25.5-27.5-10.9-6.8-23.2-10.1-36.8-10.1-11.9 0-32.3 2.9-48.4 19.1-17.3 17.3-19.2 31.7-23 43.1l-.3.9c-1.6 4.6-3.6 8.6-7.1 12.2-4.7 4.7-10.8 7.1-17 7.2v.2h-.4c-13.6 0-24.6-11-24.6-24.6v-8.5c-3.4 5.9-8.1 12.3-14.7 18.9-3 3-6.2 5.6-9.3 7.9 7.4 19.6 26.4 33.6 48.7 33.6zm191.9-109.9h.4v-.2c13.2-.1 26.3-5.2 36.3-15.2 19.5-19.5 9-34.6 30.3-55.9 10.2-10.2 23.9-11.4 29.1-11.4 8.6 0 16.2 2.1 22.9 6.4 6.7 4.3 11.9 10.1 15.6 17.5 1.5 2.9 2.6 5.9 3.5 9.1 2.3-3.7 5.2-7.5 9.1-11.4 3.7-3.7 7.8-6.9 12.1-9.5l-.9-1.8c-6.1-11.6-14.6-20.8-25.5-27.5-3.2-2-6.5-3.7-9.9-5.1h-53.8c-7.3 2.9-14.7 7.3-21.4 14-17.3 17.3-19.2 31.7-23 43.1l-.3.9c-1.6 4.6-3.6 8.6-7.1 12.2-4.7 4.7-10.8 7.1-17 7.2v.2h-.4c-13.5 0-24.5-11-24.5-24.6v-8.5c-3.4 5.9-8.1 12.3-14.7 18.9-3 3-6.2 5.6-9.3 7.9 7.3 19.7 26.3 33.7 48.5 33.7zM191.7 31.7h.4v-.2c13.2-.1 26.3-5.2 36.3-15.2 5.7-5.7 8.8-11 10.9-16.2h-34.2c-3.9 2.6-8.5 3.9-13 4v.2h-.4c-5.1 0-9.8-1.5-13.7-4.2h-34.1c7.9 18.6 26.3 31.6 47.8 31.6z"/></svg>
