<svg xmlns="http://www.w3.org/2000/svg" width="196.845" height="240.002" viewBox="0 0 196.845 240.002">
  <g id="Group_6376" data-name="Group 6376" transform="translate(-404.621 -83.732)">
    <g id="Group_6374" data-name="Group 6374" transform="translate(405.203 286.437)">
      <rect id="Rectangle_2623" data-name="Rectangle 2623" width="7.355" height="35.599" transform="translate(0 0.847)" fill="#fff"/>
      <path id="Path_2815" data-name="Path 2815" d="M414.051,265.786h7V239.61h.176l19.122,26.175h7.766v-35.6h-7v26.226H441l-19.18-26.226h-7.766Z" transform="translate(-401.527 -229.339)" fill="#fff" fill-rule="evenodd"/>
      <path id="Path_2816" data-name="Path 2816" d="M449.637,235.272h7.237c11.532,0,14,5.584,14,12.714s-2.47,12.716-14,12.716h-7.237Zm-7.354,30.515H459.7c12.945,0,18.534-7.978,18.534-17.8s-5.589-17.8-18.534-17.8H442.283Z" transform="translate(-390.52 -229.34)" fill="#fff" fill-rule="evenodd"/>
      <path id="Path_2817" data-name="Path 2817" d="M486.674,236.319h.179l6.3,15.307H480.322Zm-19.885,29.467h7.59l3.942-9.423h16.767l3.944,9.423h7.883l-16.182-35.6H482.91Z" transform="translate(-380.966 -229.34)" fill="#fff" fill-rule="evenodd"/>
      <path id="Path_2818" data-name="Path 2818" d="M494.18,254.157c.178,8.826,7.945,12.716,17.535,12.716,8.355,0,16.71-3.193,16.71-11.169,0-3.69-2.648-7.679-8.181-9.076-2.177-.549-11.471-2.594-12.117-2.741-3-.7-5-2.095-5-4.589,0-3.589,4.3-4.637,7.708-4.637,5.062,0,8.71,1.7,9.061,6.282h7.357c0-7.427-7.357-11.366-16.121-11.366-7.59,0-15.358,3.34-15.358,10.47,0,3.69,2.117,7.379,9.3,9.024,5.767,1.347,9.592,1.994,12.534,2.942,1.707.548,3.472,1.646,3.472,4.389,0,2.691-2.413,5.384-8.884,5.384-5.883,0-10.652-2.146-10.652-7.63Z" transform="translate(-370.287 -229.577)" fill="#fff" fill-rule="evenodd"/>
      <path id="Path_2819" data-name="Path 2819" d="M537.264,236.319h.178l6.295,15.307H530.911Zm-19.883,29.467h7.587l3.943-9.423H545.68l3.942,9.423h7.883l-16.179-35.6H533.5Z" transform="translate(-361.242 -229.34)" fill="#fff" fill-rule="evenodd"/>
    </g>
    <g id="Group_6375" data-name="Group 6375" transform="translate(404.621 83.733)">
      <path id="Path_2820" data-name="Path 2820" d="M585.329,83.733H418.862a14.174,14.174,0,0,0-14.241,14.106V268.186a14.173,14.173,0,0,0,14.241,14.106H585.329a14.173,14.173,0,0,0,14.243-14.106V97.839A14.174,14.174,0,0,0,585.329,83.733Zm7.362,183.422a7.731,7.731,0,0,1-7.769,7.694H419.269a7.73,7.73,0,0,1-7.767-7.694V98.87a7.73,7.73,0,0,1,7.767-7.694H584.922a7.731,7.731,0,0,1,7.769,7.694Z" transform="translate(-404.621 -83.733)" fill="#fff" fill-rule="evenodd"/>
      <path id="Path_2821" data-name="Path 2821" d="M442.337,244.34a16.926,16.926,0,0,0-.332,3.8,22.135,22.135,0,0,1,.24,2.67c0,.937.737,2.346.7,3.3-.074,1.08.525,2.067.407,3.149-.117.616.363,1.459-.27,1.894-.557.37-1.269.254-1.9.406-.978.218-1.983.014-2.97.179a16.031,16.031,0,0,1-3.921.282c-1.73.221-3.487.017-5.219.252-1.063.167-2.113-.218-3.18-.11a10.141,10.141,0,0,1-1.551,0c-.753-.178-.377-2.242.1-3.248.46-.969.375-2.118.97-3.034.349-.557.466-1.315,1.147-1.59a3.567,3.567,0,0,0,1.521-1.647c.15-.26.555-.236.834-.342.452-.732.054-1.532.01-2.3a5.766,5.766,0,0,1,.948-2.4,4.4,4.4,0,0,0,.321-3.255,18.024,18.024,0,0,1-.685-3.169c-.138-1.544-1.248-2.794-1.393-4.334-.1-1.138-.438-2.235-.581-3.365-.061-.664-.573-1.159-.691-1.8-.311-1.671-1.373-3.109-1.74-4.76a6.7,6.7,0,0,0-.675-2.265,33.961,33.961,0,0,1-.766-6.1,46.1,46.1,0,0,0-.82-4.731c-.474-1.939-1.665-2.781-1.568-4.731.06-1.215-1.7-3.17-2.306-5.516-.254-.973-1.174-2.336-1.415-3.325-.713-1.757-1.393-3.532-1.992-5.332a44.906,44.906,0,0,0-1.507-4.694c-.431-.7-.352-1.815-.874-2.858-.29-.894-.575-1.792-.808-2.7a21.316,21.316,0,0,0-.767-3.668,7.473,7.473,0,0,0-.607-2.234c-.192-.4.231-.89.114-1.336-.675-2.6-.595-5.3-.823-7.957-.2-4.367-.359-8.742-.22-13.113a30.867,30.867,0,0,1,.778-6.562,4.412,4.412,0,0,1,.674-2.37c.139-.311.008-.9.261-1.134a8.443,8.443,0,0,0,1.413-2.578c.334-.7.682,1.427.468,2.208-.228.606-.7,1.083-.953,1.672-.177.406.106.874.125,1.318.074,1.12-1.081,1.869-.859,3.073.057.3.894-.435,1.337-.652.682-.332.378,1.462.613,2.177.183.56,1.34.111,1.772-.164.16-.1-.026-.676.056-.794a27.655,27.655,0,0,1,2.637-2.5c.277-.309.753-.284,1.127-.42.318-.117.289-.624.265-.969-.039-.585-.61-1-.926-1.49-.208-.328.628-.454.952-.671.195-.126-.035-.461-.051-.692-.017-.249.47-.192.706-.288.26-.106-.047-.559-.068-.834a6.8,6.8,0,0,1,1.469-1.279c.332-.238.553-.745,1.02-.477.192.4.281.845.449,1.259.221.543.833-.662,1.1-1.116l-.143-.667c.418-.393.663-1.124,1.312-1.162.263.27.317.923.695.891.9-.082,2.659-2.092,4.367-1.817.637.1-.617-2.09-.643-3.183-.013-.449.9.107,1.351.11.587,0,1.336-1.836,2.125-2.359.265-.178.083.628.122.945.054.442,1.006-.1,1.273-.441.168-.217-.254-.5-.062-.7a3.876,3.876,0,0,1,1.79-1.238c.639-.118,1.092,2,1.849,2.852.329.374.224-.973.427-1.43.145-.322.67-.282.919-.532.5-.5.752-1.4,1.35-1.946a4.558,4.558,0,0,0,1.1-1.931c.147-.424-2.146-.77-3.161-.3a27.281,27.281,0,0,0-2.559,1.733c-.381.277-.883-.311-1.34-.421-1.084.15-2.09.844-3.2.72-.552-.075-.527-.561-.477-1,.026-.233-.171-.442-.245-.666a.921.921,0,0,1,.835-.514c.291-.01-.222,1.031.154.972s.424-1.287.742-1.9a14.2,14.2,0,0,1,1.883-1.224c.3-.228.21-1.113.309-1.668.06-.336-.573-.381-.881-.528-.6-.286-2.4,1.006-3.45,1.757-.448.346-.52,1.1-1.116,1.244-1,.181-1.539,1.122-2.156,1.825a17.848,17.848,0,0,1-1.949,2.236,2.949,2.949,0,0,1-3.01,1.158c-.524-.19.855-1.3.913-1.929.044-.493-.913-.4-1.32-.083-.564.434-1.448,1.016-1.593,1.58-.083.327.479.438.4.766-.224.935-1.477,1.527-2.092,2.4-.242.346-.8-.527-1.209-.411-.363.1-.56.606-.845.908-.117.121.082.47-.1.655-.222.224-.73.306-.816,0a.927.927,0,0,1,.282-1.083c.678-.621,1.215-1.369,1.837-2.04a17.946,17.946,0,0,1,.855-1.647c.3-.363,1.06-.264,1.383-.535.659-.56,1.76-2.35,3.031-3.287.2-.147.243-.432.366-.646.257-.448.931-.456,1.4-.684.443-.218.589.247.876.076.178-.1.486-.409.78-.274.227.1.345.534.345.534q.851-.117,1.708-.178c.479-.036.634-.717.969-1.059.092-.246.183-.492.277-.735.264-.689,1.306-.726,1.662-1.384-.032-.416-.049-.545-.11-.953-.1-.635,1.231-.071,1.874-.179.567-.1.73-1.874,1.671-2.179a4.331,4.331,0,0,1,1.971.036c.428.131-.139,1.38.334,1.223a.667.667,0,0,0,.432-.595c.056-.364-.5-.473-.446-.838.04-.267.254-.336.389-.571.15-.261.028-.71.322-.7a11.96,11.96,0,0,0,3.685-.89c.443-.124.346-1.124.814-1.361a2.62,2.62,0,0,0,1.786,0c.328-.131.253-.684.518-.913.393-.339,1.081.543,1.689.439.406-.07.614-.543.955-.773.165-.11.486-1.035.859-.778.206.142.067.416.243.592.449.448.55-.874.817-1.4.289-.564,1.2.831,1.862.446.535-.514.9-1.174,1.452-1.679.338-.311.769-.143,1.216-.256.286-.072.343-.606.45-.88.247-.631,1.265-.525,1.95-.631a4.457,4.457,0,0,0,1.455-.8c.548-.327.581-1.074.806-1.64.142-.357.468-.776.858-.781,1.277-.017,1.415-1.116,2.211-1.359,1.841-.563,3.261-1.842,5.016-2.7.687-.336,1.07-.99,1.687-1.4,1.311-.534,2.165-1.716,3.279-2.545.746-.675,1.583-.972,2.428-1.611.552-.417,1.294.074,1.653.374.335.282-1.659.267-1.211.513.473.263,1.09.117.9.456a5.315,5.315,0,0,1-2.541,1.623c-.424.1-.513,1.224-1.151,1.5-.891.842-1.5,2.245-2.928,2.208-.307-.007.313.52.446.8a2.509,2.509,0,0,1-.621,1.2c-.2.247-1.427-.15-2.071.208-.114.48-.12,1.07-.628,1.323a2.71,2.71,0,0,0-1.092,1.416,4.39,4.39,0,0,0-1.273.5A7.527,7.527,0,0,1,462.4,110.9c-.83.532-1.345,1.573-2.453,1.559-.751.331-2.056-.182-2.295.871a9.32,9.32,0,0,0,.7.806c-.342.912-1.382.941-2.171,1.245q-.16.594-.317,1.191c-.035.439.133,1.074-.349,1.329-.842.385-1.74-.057-2.567-.267a6.068,6.068,0,0,1-.71,2.439c-.4.656-.552,1.5-1.211,1.968-.687.514-1.509.833-2.178,1.365-.378.3-.284,1.569-.3,2.363-.007.4,1.943-.439,2.114-.678.195-.271-.185-.585.075-.852a3.652,3.652,0,0,1,.8-.391c.466-.227.032-1.113.443-1.5.785-.845,2.388-2.449,2.584-2.313.295.2.224.627.573.72.145.04.935-1.08,1.608-1.348.324-.129.029.689.014,1.038-.019.411-.934.659-.947.8-.022.288.243.385.35.655a8.092,8.092,0,0,1-2.4.972c-.3.075.359.621.478,1.042.161.553-.94,1.462-.935,1.569.011.271.691.132.691.132.289-1.115,1.416-1.518,2.332-2,.311-.168,1.09.382,1.661.374.268,0,.521-.941.853-1.366.211-.27.684-.145,1.03-.129.213.013.031,1.43-.175,2.1-.089.292,1.22-.133,1.8-.322.161-.056.09-.813.188-1.211.106-.424,1.219.485,1.352-.17.442-.776-.318-1.568-.145-2.391.106-.5,1.042.049,1.561-.019.618-.082,1.03-.688,1.6-.931a2.593,2.593,0,0,1,1.758.2,4.306,4.306,0,0,0,2-3.553c.035-.525,1.038-.393,1.558-.5.382-.082-.6-.568-.675-.949-.1-.525,1.329-.682,1.908-1.176a1.744,1.744,0,0,1,2.152-.272c.334.24-.757.327-1.12.52a2.582,2.582,0,0,0-.446,2.053,1.814,1.814,0,0,1-.293,1.368c-.221.439.944.106,1.44.133.282.015.1.831-.017,1.229-.082.277-.831.25-1.244.374a9.189,9.189,0,0,0-.409,3.653c.076.681-.233,1.259-.1,1.9.174.573-.621.931-.438,1.507a16.5,16.5,0,0,1,.324,2.227c.026.32.592-.139.778-.429s-.038-.535.067-.853a3.275,3.275,0,0,1,.284-.541c.25-.475-.8-.941-.549-1.523a9.3,9.3,0,0,1,1.07-.421,5.263,5.263,0,0,0-.062-2.207,1.075,1.075,0,0,1-.37-.443c-.036-.15-.129-.382.025-.4.177-.014.638.317.638.317.449-.024.531-.61.849-.859.36.028,1.04-.321,1.079.1.024.245-.074.6-.076.983-.008.721.359,1.218.2,1.836-.347.974-1.415,1.411-1.871,2.316-.189.374-.068.824-.147,1.231-.058.3-.438.441-.662.649-.3.282-.019.82-.038,1.23-.019.446.9.089,1.343.178,1.216.24-1.319,2.07-2.208,2.9a2.042,2.042,0,0,0,.813,2.286c.759.593.732,1.648,1.369,2.3.4.407-1.023.506-1.527.77-.778.407,1.641.635,2.531.577.678-.046.485-1.283.5-1.965.024-1.017-.766-1.88-1.015-2.87-.167-.677-.623-1.448-.113-2.086.257-.324.667.381,1.137.5.279.072.784-.17.734.113-.082.48-.131.666-.2,1-.1.477.949-.243,1.433-.332.507-.1-.52.891-.712,1.37-.138.345.443.6.726.849.229.2.648-.3,1-.35.992-.138,1.223,1.547,1.473,2.485.151.58-1.679-1.073-1.814-.259-.075.461.809,1.091,1.358,1.5.225.165.4-.385.6-.578.325-.31.9.092,1.354.147.6.072-.577,1.059-.887,1.579-.521.88,1.675-.671,2.268-1.336.146-.164.439.04.66.063.592.06.659-.937,1.268-1.037.806-.132-.106,1.644-.77,2.174a19.753,19.753,0,0,1-2.813,1.621c-.31.178.516.489.77.739.363.359-.851.573-1.283.844-.531.332,1.237-.2,1.857-.053.425.1.423-.767.638-1.148s1.243.145,1.23.694c-.017.83-.962,1.326-1.287,2.12-.131.317,1.572.812,2.411.495s1.231-1.183,1.765-1.835c.593-.978,1.683-1.489,2.393-2.368a6.568,6.568,0,0,1,2.473-1.743c.542-.245-.142.766-.386,1.1a5.143,5.143,0,0,1-.838,1.394c-.776.791-1.926,1.1-2.663,1.932-.271.845-.265,1.765-.6,2.6.04.354.285.887-.175,1.087a23.111,23.111,0,0,1-7.269,1.259c-.356.008.075,1.13.075,1.13-.411-.026-.82-.047-1.227-.1.139-.372.315-.728.479-1.088s-.553-.613-.878-.8c-.263-.149-.065.609-.092.912-.033.353-.506.5-.758.757-.725.728,1.464,1.3,2.334,1.765.578.313-.157-.928.25-1.07.222-.076.357.195.594.079,1.085-.53,1.982-1.689,3.238-1.159.239.1.188,1.131.509,1.839.249.542-1.113.517-1.661.767-.562.286-.592.978-.726,1.512-.12.473,1.165.125,1.655.088.436-.035-.085-.866-.078-1.3.01-.589,1.181-.088,1.775-.1.26,0,.115-.591.278-.792a5.809,5.809,0,0,1,.8.172,4.145,4.145,0,0,1,1.83.866c.562.5-1.664,1.127-2.51,1.666-.728.461,1.757.3,2.6.026.584-.189.89-.849,1.452-1.119.713-.345-.889,1.589-1.9,2.288-.313.215.7.306,1.058.446.609.239.4-1.205,1.141-1.539.478-.214,1.209-.734,1.42-.656s.171.357.067.543c-.135.24-.525-.065-.7.15-.264.335.785.3.983.495.606.573-2.306,3.145-3.79,4.41-.4.339.933.011,1.534-.346.435-.258.293.5.154.7-.2.285-.9.46-1.347.687-.709.356,1.522.485,2.214.885.4.229-.347.613-.441,1.3-.046.341.6-.182,1.023-.208.153-.008.418.026.156.356a7.18,7.18,0,0,1-1.5,1.5c-.386.267-.489-.909-.77-1.159-.306-.271-.789.485-.842.885-.043.342.764.432.742.641a10.709,10.709,0,0,1-1.169,3.063c-.094.214-.391.261-.582.392-.311.213.446.614.574.969.271.766-1.732,2.213-1.811,3.654.14.359.353.682.5,1.042a7.433,7.433,0,0,0-.734,2.089,1.361,1.361,0,0,1-.531,2,10.5,10.5,0,0,1-1.315-.5c-1.33-.563,1.715,2.391,1.69,3.887-.011.694.771.37,1.161.553.441.2.363-.9.538-1.344.056-.145.442-.138.589-.183.4-.122-.566-.607-.817-.934-.3-.382.78-.307,1.212-.306.343,0-.24-.766.12-1a2.675,2.675,0,0,0,1.048-2.591c-.1-.448.919-.04,1.373-.129.817-.163-2.07-.766-1.78-1.615.14-.416,1.668-.584,2.239-1.262.479-.566,1.437-.4,2.185-.363a9.594,9.594,0,0,1,1.9.354c.823.142-1.083-1.33-1.783-1.825-.813-.538-1.911.082-2.66-.77-.723-.823,3.355.411,5.047.165.667-.1-1.436-.538-2.164-.784-.431-.145-.032-.5-.032-.5.727-.324,1.564-.106,2.318-.307.635-.17-1.154-.459-1.641-.7-.4-.2-.442-.56-.681-.92-.488-.727-1.782-.245-2.527-.752-.453-.309.577-.926.855-1.391.421-.709,1.486.542,2.264.393.659-.125-1.6-1.712-2.014-2.84-.178-.345.406-.374.616-.366,1.633.368,3.291.6,4.937.909.534.1.242-.416.063-.5-.517-.256-1.967-.322-2.719-.97-.3-.235-.545-.663-.379-.983.456-.883,2.421-.739,3.512-1.355.478-.27-1.451-.2-2.168-.074a9.6,9.6,0,0,0-1.661,1.016,7.258,7.258,0,0,1-3.237,1.186c-.363.006-.106-.453,0-.539.568-.466,1.75-.771,2.4-1.483a15.988,15.988,0,0,1,3.661-2c1.22-.261,2.481.061,3.726-.222.607-.138-1.3-.457-.977-.694,1.609-1.177,5.725-1.3,7.965-3.288.329-.293-.9-.01-1.316.154a38.773,38.773,0,0,1-4.655,1.815,16.076,16.076,0,0,1-3.466-.043c-.332,0-.067.652-.11.978-.1.731-2.225.017-3.134-.525-.229-.139-.082-.538-.082-.538,1.222-.73,2.756-.328,3.982-1.017.514-.288-.992-.646-1.572-.78a2.165,2.165,0,0,1-1.343-1.657c-.311-1.086,3.062.29,3.277-.031.121-.179.032-.684-.182-.723a3.8,3.8,0,0,1-2.035-1.087c-.336-.327-1.316.108-1.43-.571.531-.652,1.659-.211,2.135-.951.395-.628.606-1.512,1.527-1.491.328.008-.375-.624-.284-.935.179-.618,1.5-.741,2.038-1.451.3-.391-.392-.83-.41-1.4-.014-.407.71.432,1.1.555.529.165.681-1.486,1.222-2.106.346-.449.856-.842.917-1.444a4.271,4.271,0,0,1,1.6-3.08c.892-.279,1.09.763,1.433,1.323.213.35.745-.391,1.01-.713.363-.656.536-1.4.937-2.036a7.286,7.286,0,0,0,.91-2.05c.506-1.347.335-2.591,1.1-3.844.413-.669-1.469-.3-2.236-.486a18.575,18.575,0,0,1-2.7-1.338c-1.184-.5,1.76-.521,3.144.416.656.442,1.405.158,2.129.514.432.211,1.608-2.06,2.146-3.231.143-.311-.332-.6-.517-.883-.411-.632.142-1.505.363-2.221.1-.336-1.01-.4-1.564-.694-.379-.2.193-.978.346-1.375.24-.616,1.515-.189,1.775-.913.224-.616-.264-1.1-.562-1.58l-.049-.37a4.357,4.357,0,0,1,.118-1.828c.081-.254.606-.079.813.1.257.225,2.008,2.143,3.407,2.593.659.14,1.4-.138,2.01.233.965.5,3,.727,3.074,1.044.053.225-.008.56.214.639.2.071.438-.093.51.039.224.4-.043,1.992.481,2.928.158.282.99-.493,1.019-.167a2.543,2.543,0,0,0,1.518,2.131c.4.263-.6,1.393-.545,2.195.028.42,1.161-.4,1.511-.527.26-.1.057.459-.074.7-.345.641-1,.876-1.129,1.487-.082.414.065,1.09-.076,1.626a9.619,9.619,0,0,1-.7,1.629c-.927,1.3-1.12,3.008-2.264,4.164-1.059.912-2.182,1.755-3.279,2.63-.916.459-2.008.459-2.915.958a6.021,6.021,0,0,0-1.829,1.311c-.188.233.232,1.1.149,1.651-.067.436,1.22.021,1.83.063.546.04-.7.756-1.184.976-.147.064-.061.282.067.382.264.2,1.826-.259,2.156-.056a.285.285,0,0,1,0,.441c-.4.352-1.416.3-1.579,1.08-.129.621,1.315-.05,1.917.174.42.156-1.03.57-1.494.921-.363.274.249,1.84.873,2.448.239.229,1.127-.892,1.746-.545-.07.762-.88.71-1.373,1.127-.292.24.578.752,1.048,1.1s.346-1.07.6-1.587a3.378,3.378,0,0,1,2.024-.9c.664.01.635.751.794,1.208.695.117,1.247.246,1.956.307.56.049-.236-1.1-.215-1.676.013-.485,2.418.289,2.674.482s-.167.425-.076.819c0,0,.382.375.61.632.15.165-.388.429-.562.659-.16.213.684.7,1.273.723.282.014.086-.53.352-.627a.949.949,0,0,1,.374-.007c.122,0,.253.26.338.345a5.631,5.631,0,0,1,1.333,1.059c.338.354,1.1.008,1.579-.09.534-.107-.96-.491-1.425-.766a8.708,8.708,0,0,1-1.654-1.793c-.3-.354.146-.92.124-1.382-.026-.649-1-1.163-1.162-1.907-.061-.278.473-.335.721-.484.37-.225-.521-1.634.5-1.155a11.758,11.758,0,0,1,1.523,1.4c.378.349-.025,1.287.46,1.654.969.86,1.575,2.054,2.676,2.777.249.163-.09-.582-.131-.871a1.347,1.347,0,0,0-.5-1.418c-1.266-.926-1.829-2.434-2.763-3.639a4.4,4.4,0,0,1-.853-1.579c-.267-1.133-1.633-1.78-1.483-3.058a.629.629,0,0,1,.892-.374c.2.149.2.609.2.609.036.133.122.4.163.535.033.106.253.218.338.29a1.957,1.957,0,0,0,.981,1.145c.289.133.477-.573,1.316-.55a6.886,6.886,0,0,0,2.956-1.279c.309-.336-1.073-.744-1.519-1.248-.2-.221-.73.146-1.08,0s-.574-.221-.574-.548a1.077,1.077,0,0,1,1.173-.86c.464.1.443.92.753.952.236.024.5-.24.883-.52.474-.347.575-1.13,1.008-1.526.556-.507,1.117-.674,1.608-1.1.25-.22,1,.347,1.519.331.15-.006-.2-1.247-.261-1.864-.017-.179.749-1.418,1.7-1.345.777.06.958-2.4,2.125-3.529.941-.908,1.633-2.607,3-3a4.94,4.94,0,0,0,2.239-1.333,4.8,4.8,0,0,1,2.321-.913c.464-.064.16.68.341.894.1.114,1.223-.933,2-.756.177.04-.015.712-.032,1.069-.007.2.884-.435,1.327-.828A2.416,2.416,0,0,1,558,122.6c.292.161-.393.513-.307.812.074.247,3.507-.24,4.93.5.246.128.3.56.445.8.167.263.814.495.477.912-.542,1.216-2.013,1.715-2.409,3.009a1.693,1.693,0,0,0-.21.955c0,.443.436.657.493.855.228.8-.7,1.455-1.356,1.944-.183.174-.378.236-.488.531a.484.484,0,0,0,0,.467c.27.236,1.425.1,1.514.133.587.236-.37.482-.467.787-.017.061.3.492.142.631a8.3,8.3,0,0,0-2.9,4.243c-.5,2.185-1.983,4.143-2.6,5.329-.4.778-.777.681-1.108,1.216-.613,1-1.437.949-1.876,1.539-.578.774-2.452,1.807-3.666,2.734a7.6,7.6,0,0,1-3.981,1.224,15,15,0,0,1-2.766-.164c-1-.049-1.978.285-2.976.3-.667-.081-1.361.727-.969,1.329a20.7,20.7,0,0,1,1.636,4.863c.35,1.193-.338,1.808-.044,2.648a13.309,13.309,0,0,1,.093,3.25c-.3.9.038,1.861-.427,2.72-.53,1.227-.076,2.6-.664,3.8-.536,1.579-.623,3.3-1.425,4.789-.5.883-.122,1.4-.334,2.352-.284,1.262.456,2.291.179,4-.16.992.418,2.076.285,3.386a3.874,3.874,0,0,1-.366.969c-.156.407-.738-.531-.795-1-.335-1.455-1.325-2.616-1.89-3.974a8.6,8.6,0,0,0-1.279-2.131c-.239-.259-.386.063-.663.265-.791.582.374,1.9.606,2.84.107.42-.713.543-.891.934-.167.37.716,1.509,1.008,2.3.4,1.124,2.177,2.092,2.352,2.853.157.676.846,1.582,1.165,2.566.175.48.439.591.777.966.281.313,1.144.139,1.345.238.788.389.695,1.533,1.334,2.324.4.495-1.657.924-2.61.971-.721.1-1.462.026-2.167.189-.585.133-.866.8-1.229,1.254-.217.27-.6.386-.787.689a7.121,7.121,0,0,0-.941,3.462,5.008,5.008,0,0,0,.432,2.777c.329.591,1.13-1.746,1.615-1.174a4.129,4.129,0,0,1,.381,2.1c-.033.464-.518.755-.808,1.1-.342.424-.222,1.073-.19,1.622.024.395.449.5.724.7.327.232.456-.659.742-.941.5-.492,1.366-.174,2.043-.147.652.022.9-.944,1.445-1.311.926-.564,1.976-.876,2.948-1.348.749-.346,1.209-1.079,1.914-1.494a4.752,4.752,0,0,0,1.967-1.917c.871-1.762,2.724-2.763,3.712-4.449.609-1.1,1.305-2.161,1.876-3.287a.508.508,0,0,1,.974-.129c.193.852-.261,1.694-.154,2.562.127,1.044-.817,3.148-1.013,4.755-.239,1.954-1.015,4.118-1.108,4.86-.206,1.71-.944,2.307-1.583,3.839-.514,1.188-1.59,2.085-1.835,3.389-.111.587-.475,1.494.035,2.056.894.988.8,2.593,1.887,3.751.571.842,1.63,1.472,1.951,2.37.208.578-2.649-.5-3.9-.944a43.915,43.915,0,0,0-5.775-2.136,7.035,7.035,0,0,1-1.853-.891c-.707-.464-1.644-.106-2.37-.516a9.5,9.5,0,0,0-2.131-1.186c-.5-.1-.9.593-1.056.4a1.13,1.13,0,0,1-.229-.7c-.032-.363-.6-.4-.912-.595a7.75,7.75,0,0,0-4.125-1.177c-.321.078.289,1.027.648,1.42.464.51,1.34.388,1.882.844a3.836,3.836,0,0,0,1.49,1,5.367,5.367,0,0,1,1.751.891c.488.363-1.067,2.074-1.419,3.268-.079.271.983.366,1.3.828.745,1.034,2.345,1.552,2.26,3.042-.7.19-1.491.384-2.053-.195a2.588,2.588,0,0,0-1.144-1.559,3.925,3.925,0,0,0-1.629.122c-.371.049-.949-.563-.92-.744.169-1.151.814-.613,1.508-.448.577.136-.388-.673-.792-1.1-.329-.536-.178-1.187-.631-1.65a1.519,1.519,0,0,0-2.235,0c-.139.2.257.8.428,1.243.165.42-1.637-.049-2.167.511-.247.261,1.242,1.411,1.108,2.478-.025.211,1,.634,1.494.928.627.374-2.086.452-1.83-.928.047-.245-1.472-.249-1.316.535a6.974,6.974,0,0,1,.878,1.165c.164.6.228,1.227.338,1.842.04.215.229-.163.4-.3.366-.3-.179-.8-.346-1.237-.209-.536.948-.1,1.469.14.346.164-.195.631-.366.973-.217.439,1.368-.534,2.092-.823.208-.082.3-.809.436-1.218.074-.221.481-.021.712.053s-.188.7-.288,1.051c-.046.15-.432.2-.575.264l-.118.249c-.028.453,1.141.81,1.8.823.367.008,1.565-1.5,2.6-1.833a2.448,2.448,0,0,1,2.122,1.812c.175.441-1.209.614-1.805.937-.227.122.172,1.351.435,1.983.006.777.181,1.544.238,2.321-.114,1.127-.838,2.171-.646,3.333.15.912.549,1.768.781,2.664.074.268.379.1.656.061.479-.069-.118-1.067-.2-1.534-.121-.66.438-1.265.649-1.9.089-.281.407-.008.709-.043.542-.06.281-1.154.224-1.7-.093-.5-.4-.927-.538-1.408a2.677,2.677,0,0,1,.442-1.842c.332-.413,1.322-.239,1.968-.431.689.11,1.719-.366,2.114.4a.813.813,0,0,1-.3,1.126c-.414.054-.83.035-1.241.05-.828.025-.242,1.628-.42,2.432-.135.606,1.135.532,1.694.819.391.2-.224-.848-.183-1.283.948-.655,2.256.224,3.208-.484.669-.742.7-1.894,1.462-2.563.525-.126,1.08-.085,1.6-.245.607-.215,1.551-.72,1.616-1.017a.582.582,0,0,0-.021-.367c-.061-.171-1.006,0-1.376-.183-.652-.334-1.01-1.1-1.572-1.693-.827-1.2-2.732-.867-3.4-2.243-.313-.118-.63-.227-.938-.335-.158-.057-.161-.561.153-.652a2.845,2.845,0,0,1,2.461.714,6.622,6.622,0,0,1,2.039.524,11.232,11.232,0,0,1,4.165.678c.457.214.922-.086,1.369-.189a6.955,6.955,0,0,1,2.866-.057c.53-.068.681.491.955.817.2.409.755.245,1.126.359.188.057.078-.577.107-.764.032-.228.464-.024.7-.029s.054.384.029.681c-.017.193-.321.1-.431.245-.188.256-.225,1.391-.941,1.6a5.88,5.88,0,0,1-2.674.712,3.215,3.215,0,0,0-1.487.06c-.192.088.053.967.549,1.06,1.665.139,3.042-.924,4.712-1.038.356-.025.553,1.219.179,1.792-.371.367-.806.657-1.186,1.013-.285.265.694.352,1.055.514.272.122-.253.536-.353.817-.151.445.858.862,1.279.407.454-.485-.434-1.066-.71-1.551-.158-.281.643-.207.9-.42a3.391,3.391,0,0,0,.634-3,2.683,2.683,0,0,1-.57-.566c-.3-.511,1.176-1.2,1.95-1.516s-.069,1.721.4,2.47c.6.848-.425,1.551-.971,2.083-.26.246.3.457.571.694.391.341,1.647-.354,2.883-.2.407.049.958-1.2,1.426-1.8.243-.366.6.074.874.175a1.289,1.289,0,0,0,1.551-.072c.274-.2.126-1.206.392-1.735.22-.436,1.047.655,1.678.574a3.035,3.035,0,0,1,1.76.507.164.164,0,0,0,.1-.261c-.195-.356-.638-.5-.919-.788.061-.457.343-.492.663-.749s.73.235,1.048.525.866-.224,1.254-.424l.677-.909a8.707,8.707,0,0,1,.3-1.311c.25-.72,1.557.236,2.306,0,.418-.359.516-.966.755-1.443.4-.8,1.764.168,2.635.327a5.742,5.742,0,0,1,1.646-1.747,8.746,8.746,0,0,1,1.629-.2c.527-.057-.228-1.022-.331-1.536-.072-.366-.758.05-1.111.172s-.595.623-1.023.627c-.342-.259-.085-.595-.1-.941-.013-.293.459-.525.741-.623.456-.153,1.144.1,1.65-.188a.249.249,0,0,0,.068-.053c.069-.075-.046-.2.037-.257.067-.047.154.058.21,0,.042-.044-.022-.11.018-.158.147-.188.424-.129.566-.172a2.29,2.29,0,0,0,.53-.37,2.447,2.447,0,0,1,.245-.277c1.026-.77,1.477-.236,2.1-.949a5.367,5.367,0,0,1,2.2-1.459c.445-.214,1.051.181.823.682a3.3,3.3,0,0,0-.806,1.509c-.057.782-1.73,3.669-2.878,5.347a11.719,11.719,0,0,0-1.8,1.814,28.222,28.222,0,0,1-2.662,3.3c-.763.876-1.74,1.533-2.5,2.407a3.546,3.546,0,0,0-.806.874c-.841,1.279-2.349,1.869-3.327,3.024-1.042.73-2.056,1.5-3.029,2.324-.766.682-1.837.88-2.582,1.587a6.178,6.178,0,0,1-2.068,1.172c-1.682.941-3.249,2.085-5.016,2.859-1.169.623-2.477.944-3.591,1.673-.888.407-1.678,1.266-2.659,1.254a9.531,9.531,0,0,0-3.254.973c-.464.229-1.042-.342-1.543-.082-1.019.368-2.607.848-2.866,1.976a4.024,4.024,0,0,0-.058,1.275c.028.566.688-.089,1.123.517.73.883,1.558,1.949,1.226,3.165-.347,1.448-1.779,2.115-2.87,2.947-.941.677-.835,1.947-1.081,2.952a5.865,5.865,0,0,1-1.933,2.669,20.559,20.559,0,0,1-3.55,2.528c-.259.16-.448.414-.717.549a18.442,18.442,0,0,1-6.6,1.885,9.341,9.341,0,0,1-1.849.289,5.45,5.45,0,0,1-2.635-.068,28.794,28.794,0,0,0-3.555-.713c-.374-.09-.614.057-.976.033-.29-.017-.489-.436-.823-.41a12.961,12.961,0,0,1-2.542-.409c-2.068-.339-4.157-.616-6.2-1.1a43.9,43.9,0,0,1-6.227-3.347,4.464,4.464,0,0,1-1.968-1.878c-.208-.421-.592-.477-.807-.892-.293-.563-1.557-.5-2.157-1.661-.485-.941-.3-1.779-.82-2.42-.2-.243-.835-.488-.826-1.2.007-.67-2.186-2.51-3.155-3.59a13.145,13.145,0,0,1-2.559-4.26c-.3-.919-1.024-1.612-1.361-2.511a12.887,12.887,0,0,0-1.065-2.528c-.495-.648-.87-1.894-1.4-1.971-.406-.061-.935,1.915-1.256,2.923a8.239,8.239,0,0,0-.616,3.515,12.888,12.888,0,0,0,2.256,6.753c.589,1.045,2.325.78,3.928,2.877.908,1.188.794,2.862,1.256,4.274.275.839-.881,1.33-1.573,1.636a5.452,5.452,0,0,1-2.624.307c-.851-.085-1.671.2-2.517.171-.916.006-1.819-.188-2.734-.146-1.81.254-3.63-.239-5.451-.088-1.231.149-2.43-.307-3.665-.256-2.044-.339-4.129-.015-6.179-.329-2.891.049-5.768-.417-8.659-.3a40.031,40.031,0,0,1-7.989.7,21.034,21.034,0,0,1-7.726-1.108,2.528,2.528,0,0,1-1.211-.606,9.233,9.233,0,0,1-.425-1.108,14.56,14.56,0,0,0-1.294-2.4c-.245-.937-1.076-1.369-1.3-2.292-.158-.646-2.127-1.423-2.275-2.777a22.3,22.3,0,0,1-.131-3.579,27.65,27.65,0,0,1,.336-2.842,4.325,4.325,0,0,1,.421-1.316c.328-.817.749-1.167,1.086-1.982.149-.359.11-.7.336-.937a1.829,1.829,0,0,0,0-2.24c-.582-1.42-1.01-2.894-1.6-4.307a21.985,21.985,0,0,1-.7-2.5c-.032-2.032-1.14-3.854-1.241-5.876a27.469,27.469,0,0,1-.834-5.443c.025-.513-.388-1.156-.667-1.167a.708.708,0,0,0-.6.446c-.14.386-.189.456-.065.813.329.951-.043,1.956.154,2.928.139.648.26,1.3.357,1.958.038.983.274,2.22.306,2.931.036.863.538,1.247.587,2.527.132,1.058.3,2.107.432,3.166a1.4,1.4,0,0,1,.3.653,29.814,29.814,0,0,0,.909,3.839,32.794,32.794,0,0,1,.243,5.033,12.466,12.466,0,0,1-.146,1.861C442.526,243.318,442.337,244.34,442.337,244.34Zm83.823-72.486c.118-.418.876-.19,1.319-.114a12.784,12.784,0,0,1,1.511,2.035c.25.381-.139.935.036,1.377a5.758,5.758,0,0,0,1.141.924c.674.525-.981.988-1.283,1.826-.327.9-1.384-1.379-1.7-2.29a11.1,11.1,0,0,0-.924-1.466A3.367,3.367,0,0,1,526.16,171.854Zm-35.728-74.7c.033-.45.732.538,1.106.8,0,0,.019.538-.156.453-.332-.163-.685-.267-1.006-.443C490.137,97.829,490.41,97.42,490.432,97.152Zm12.35,8.694c1.4.075,3.808-.32,4.231.1.245.242.4,1.616.97,2.249.238.268-.222.228-.4.325-.563.307-1.088-.156-1.633-.218-.131-.014-.27.3-.389.347-.873.347-2.4-.24-3.393.5-.457.342,1.473-.046,1.725.093s.171.409.366.475a8.2,8.2,0,0,0,3.1-.131c.8-.186,2.467-.147,2.375.4-.014.088-.425.313-.539.595-.135.331,1.669.261,1.815.926.049.233-.72.691-.887,1.215-.16.5.72.007,1.12-.039.235-.025.467-.042.7-.057.114-.006.342.165.3.331-.039.145-.256.133-.341.179a2.228,2.228,0,0,0-.8.685c-.183.218,2.02,1.069,3.094,1.569.281.132-.179.593-.264.892.163.264.342.527.485.806.129.245-.442.336-.677.48-.268.167-.126-.61-.183-.915-.028-.163-.5-.012-.659-.019-.617-.026-.706-.888-1.255-1.174-.521-.275-.851-.93-1.283-1.327a2.631,2.631,0,0,0-2.17.524c-.322.678.086,1.154.421,1.7.217.356.946-.042,1.379.065a.357.357,0,0,1,.032.41c-.11.149-.509.046-.908.126-.334.065.671.769,1.209.556a5.86,5.86,0,0,1,2.081-.1c.648.125-.956.838-2.516.763a19.119,19.119,0,0,0-1.967.167c-.584.057.981.667,1.541.866.487.172,1.02-.138,1.536-.146a11.766,11.766,0,0,1,1.9.541c.607.195-.634,1.145-1.2,1.455-.648.354-1.967-.432-2.978-.488a45.329,45.329,0,0,1-5-.295c-.407-.056.57-.584.884-.844.158-.129-.428-.1-.559-.259s-.089-.509-.3-.738a11.236,11.236,0,0,0-1.79-.378c-.746-.182.6-1.4,1.059-2.019.2-.267-.656-.288-.99-.149a14.333,14.333,0,0,1-3.166,1.027c-.315-.013.256-.573.425-.839a6.7,6.7,0,0,1,1.188-.133c.378-.025.357-.762.621-1.031.532-.536-1.55-.181-2.268.071-.25.088-.331.873-.527,1.3-.268.574-1.867-1.758-2.263-2.966-.235-.72,1.464.428,2.156.783.157.081.8-.9.592-1.45a6.873,6.873,0,0,0-.744-.557c-.432-.31.093-1.055.058-1.582a12.908,12.908,0,0,0-.687-1.466,1.686,1.686,0,0,1-.728-.328c-.2-.2.421-.582.421-.582,1.156-.117,2.4.456,3.5-.06.5-.235-.039-1.051-.007-1.573A3.221,3.221,0,0,1,502.782,105.845Zm-38.142.306c.124-.01.55-.147.491-.043-.338.585-2.253,2.7-2.039,1.969.118-.41.115-.959.586-1.131.157-.058.27.008.427-.054C464.439,106.759,464.5,106.415,464.64,106.151Zm40.406.6c.038-.617.852.29.867.812,0,.122-.361.074-.479.1a.974.974,0,0,1-.42-.316C504.909,107.142,505.035,106.953,505.046,106.753Zm1.523,5.226c-.139-.168.627-.282,1.1-.292,0,0,.257.587.038.56A2.249,2.249,0,0,1,506.57,111.979Zm-29.2,2.278a2.328,2.328,0,0,0,1.939-.17,1.781,1.781,0,0,1-1.1,1.426,12.222,12.222,0,0,0,.049,1.425c.031.321.617.446.58.773-.029.243-.852-.386-1.256-.557s-.748.1-1.173.222c-.517.15-.147,1.055-.418,1.523-.188.32.334.659.466,1,.192.5-1.016-.309-1.512-.491-.347-.129-.208-.727-.161-1.1a4.556,4.556,0,0,1,1.742-2.68A4.818,4.818,0,0,0,477.374,114.257Zm-32.738,3.861c.031-.374.6-.075.969.042.3.1-.395.328-.7.427C444.7,118.65,444.619,118.326,444.636,118.118Zm22.337,2.9c.142-.295.566.368.764.632a12.189,12.189,0,0,1-.628,3.639c-.267.68.2,1.233.409,1.858.09.27-.51.389-.719.585-.852.789,1.173.994,1.792.678.367-.186-.477-.342-.871-.453-.571-.16.561-.493,1.017-.3.4.168.1,1.237.266,1.868.136.506-1.705.912-2.379,1.6-.536.55-1.336.5-1.935.9s.621-1.138.948-1.757c.274-.52-1.026-1.1-1.454-.585.221.279,1.077.631.7.812a.571.571,0,0,1-.413.029c-.379-.076-.346-.592-.63-.76-.45-.267-2.154.635-3.555.549a4.038,4.038,0,0,0-.645-.064,5.544,5.544,0,0,0-3.237,1.464c-.7.8-1.876.678-2.8,1.059-.252.1-.222-.495-.331-.739-.168-.388-.845.056-1.266.082-.185.011-.208.3-.313.453-.2.286-.769-.046-1.033.242a11.273,11.273,0,0,0-.24,1.343,5.522,5.522,0,0,0-1.7.479c-.334.157-.317-.595-.414-.945-.1-.374-.584-.516-.884-.764-.249-.207.424-.545.286-.892a2.4,2.4,0,0,0-2.714.557c-.946.6-.41,1.949-1.161,2.691-.252.271-.653,0-.748-.229a4.168,4.168,0,0,1,.8-2.621,28.787,28.787,0,0,0,2.232-4.535c.178-.557.6.174.785.4.442.525.245,1.48.681,2.093.26.368-.867.593-.677,1.13.645.434,1.2-.17,1.7-.532.567-.414,1.75-.086,2.62.043.354.111.341-.681.623-.531.117.061.106.185.213.263.885.642,2.449-.4,3.665-.627.542-.079.849-.548,1.184-.922.321-.357.987-.076,1.4-.366.481-.267.7-.8,1.131-1.124.751-.441,1.655-.243,2.471-.421a8.971,8.971,0,0,0,2.9-1.489c.475-.2.556-.5.746-.921.171-.382.935-.256,1.255-.575a3.375,3.375,0,0,0-.352-1.148c-.07-.21.31-.435.325-.655A4.231,4.231,0,0,1,466.972,121.014Zm83.609,7.419c0-.42.609.595.9.9.225.231-.586.263-.883.395C550.207,129.9,550.581,128.863,550.581,128.433Zm-104.606,7.205c.115-.52.94-.5,1.439-.685.534-.2.859.7,1.45.553.93-.236,1.462,1.266,1.861,2.164.122.379.543.4.869.5.448.138.256-.89.52-1.276.245-.359.343.681.434,1.111.106.513-1.058.591-.71,1.263.363.076.709-.347,1.034-.214.185.076.407.568.625.845.52.653.026-1.464-.157-2.152-.421-1.583,2.955.691,2.926,2.107,0,.228-.279-.01-.446-.068-.413-.146-.471-.582-.773-.808-.338-.254-.277.792-.395,1.194-.257.871-1.487,1.019-2.361,1.284-.477.143.013.969.106,1.444.178.934-1.408,1.407-1.532,2.4-.054.442.781,1.423,1.019,2.2.095.306-.517.413-.827.5-.456.121.158-1.744-.53-2.313-.717,0-1.038.773-1.58,1.117a7.819,7.819,0,0,1-1.058-.208c-.4-.1-.521.627-.764.955-.182.243.474.384.714.574.466.368.352,1.133.51,1.7.252.9-2.293-1.612-2.646-.951-.372.7-.215,2.1-.375,3.129-.252.769-1.088.952-1.775,1.137-.418.37.089.874.182,1.283.122.536-.36,1.041-.534,1.562-.195.592-1.194.392-1.755.666-.53.253-.282,1.009-.378,1.514-.15.8-1.65.314-2.288.887-.449.4.175,1.186.253,1.779.038.277-.509.233-.76.35-.766.359,1.149.714,1.579,1.3.232.322-.794.108-1.193.146-.31.032-.289-.541-.46-.792s-.606.181-.9.285a1.4,1.4,0,0,1-1.521-.681c-.19-.313.738-.028,1.1-.028s.536-.461.8-.692c.575-.5-.88-1.318-.959-2.09-.036-.35.491-.506.745-.749.19-.178-.374-.361-.556-.543-.274-.272.277-.721.311-1.106.06-.614-1.091-.62-1.473-1.124,0,0,.026-.466.321-.595a3.24,3.24,0,0,1,.582-.093c.488-.078.331-.927.324-1.418a7.713,7.713,0,0,1,.466-1.792,9.934,9.934,0,0,1-.07-2.3c.011-.848.988-1.24,1.134-2.036a24.878,24.878,0,0,1,.534-2.478c.15-.524,2.1-1.237,2.45-.763.154.206-.061.9-.085,1.344-.032.623-.61,1.1-.792,1.705-.076.249.3.435.473.634.485.549,1.1-.965,1.6-1.5.389-.421-.478-1.1-.176-1.653.612-1.365,1.258-2.813.607-4.295-.161-.368-.808.046-1.2-.1a5.569,5.569,0,0,1-.617-.76c-.231-.3.695-.473,1.1-.4.386.067.577.521.865.785.309.285.178-.814.318-1.209.238-.1.47-.314.724-.271.513.085,1.458,1.243,2.324.848a1.516,1.516,0,0,0,1.081-1.429,1.122,1.122,0,0,0-1.215-.763,2.4,2.4,0,0,0-.022,1.158c.032.382-1.042.208-1.147-.332.152-.316.335-.613.513-.91C445.99,136.243,445.914,135.921,445.976,135.639Zm107.49-.232c.428-.364.07.762-.1,1.045-.093.156-.31,0-.452-.115C552.589,136.069,552.973,135.832,553.465,135.406Zm-110.92,1.753a4.391,4.391,0,0,1,1.013-.88c.51-.4-.291,1.472-.916,1.683C442.334,138.067,442.394,137.383,442.545,137.159Zm30.014-.421a.419.419,0,0,1,.642-.122.531.531,0,0,1,.017.445C473.057,137.316,472.49,137.077,472.56,136.738Zm4.329,1.351c-.054-.26,1.623-.884,1.64-.386.013.359-.552.824-.86,1.213C477.432,139.215,476.964,138.457,476.889,138.089Zm.977,1.045a2.09,2.09,0,0,1,1.184-.859c.361-.12.339.464.475.834.242.667-.518.781-.534,1.39-.013.434-1.224-.764-1.4-.182-.252.865,1.583,1.572,2.364,2.339.413.407-.443.328-.878.125-.724-.336-.985,1.127-1.469,1.751-.523.675,1.375.858,2.092.3.61-.474,1.035.325,1.618.35a1.353,1.353,0,0,0,.513-.327c.3-.331-.11-.877.21-1.188.27-.264.343.78.179,1.248-.235.678.983.061,1.65-.238.353-.158.309.68.335,1.065.019.267-.277.3-.436.675-.067.156.384.334.514.443.446.379-1.163.46-1.739.177-1.058-.449-2.165-.759-3.262-1.1-.6-.181-1.2.322-1.789.094-.663-.254-.331-1.828-.632-2.835-.147-.5.669-.491,1.167-.5.4-.011.118-.809-.121-1.127-.268-.357-1.241-.428-1.647-1.067C475.89,139.907,477.495,139.776,477.866,139.134Zm-5.151.21c.821-.35,2.2-.4,2.467.662.118.46-.623.7-1.177.814-.587.121.675-.735.582-1.092-.135-.532-.759-.054-1.247.108C473.059,139.812,472.7,139.687,472.715,139.344Zm1.5,2.752a1.411,1.411,0,0,1,1.605-.375c.627.231-1.4.876-2.068,1.352-.225.161-.106.542-.143.814-.042.324-.6-.1-.877-.435C472.234,142.834,473.87,142.717,474.212,142.1Zm4.53,2.206c-.441.032.335-.725.728-.926.2-.1.135.521.163.852C479.658,144.521,479.036,144.277,478.742,144.3Zm-4.863-.107c-.056-.691,1.013.955,1.369,1.544.329.545-1.466-.467-2.171-.068-.382.215-.234-.477-.309-.694-.131-.379.53.158.923.27C474.055,145.347,473.908,144.564,473.879,144.195Zm33.665,1.937a2.128,2.128,0,0,1,1.522-.935c.106.22.207.441.31.664A3.393,3.393,0,0,1,507.544,146.132Zm-33.278.446c.024-.246.425-.263.561-.088.211.265.509.859.256.884A.719.719,0,0,1,474.266,146.578Zm2.24.047c.1-.22.058-.4.613-.115.338.177.417.648.529,1.01S476.355,146.965,476.507,146.625Zm-23.3,1.288c-.078-.352.682.247,1.027.361a.745.745,0,0,1,.145.418c-.031.277-.393.089-.589.136C453.438,148.91,453.325,148.418,453.21,147.914Zm20.4.774c-.029-.432.5-.257.76-.347.525-.179.664.885.956,1.354C475.678,150.266,474.054,149.19,473.606,148.688Zm30.349,1.208a5.259,5.259,0,0,0,3.266-1.273c.325-.254.769.375,1.054.68.117.126-.071.673-.407.791a5.754,5.754,0,0,1-2.338.27c-1.615-.051-2.8.985-3.486.492-.174-.125.278-.806.046-.927-.154-.082-.346.264-.439.09-.136-.25-.108-.656.065-.713C502.025,149.2,503.078,149.782,503.955,149.9Zm-27.454.174c-.506.076.523-.856.99-1.077.288-.139-.131.618-.227.92C477.185,150.159,476.758,150.032,476.5,150.07Zm-25.183-.143c-.659-.321,1.183-.592,1.705-.252.122.078-.026.435-.213.484A2.255,2.255,0,0,1,451.318,149.926ZM520.752,151c-.142-.521.9-.632,1.425-.809.279-.095.591.19.795.407.306.325-.894-.151-1.161.232C521.541,151.119,520.939,151.682,520.752,151Zm-47.362-.293c-.036-.4.8.147,1.2.229.695.146-.623.587-1.117.587C473.2,151.518,473.414,150.973,473.389,150.7Zm5.029-.1c-.025-.434.62.617.915.944.189.208-.538.158-.807.235C478.143,151.886,478.44,150.99,478.418,150.6Zm-62.229,2.467c-.372-.167.635-.521,1-.7.342-.167.687.315,1.024.488.27.138-.353.492-.552.72C417.318,153.978,416.663,153.279,416.189,153.066Zm-2.361,1.789c-.468-.72.638-1.886,1.705-1.807.915.065-1.258,1.159-1.117,2.118C414.453,155.419,414.061,155.211,413.828,154.855Zm2.694.694c-.186-.081.09-.5.374-.475a4.412,4.412,0,0,1,.8.542C418.007,155.86,417.118,155.8,416.522,155.548Zm87.389.6a3.44,3.44,0,0,1,1.836-.386c.342.259.827.45.962.86s-3.262.987-4.916.5C501.034,156.892,503.185,156.432,503.911,156.147Zm32.49,5.862a.436.436,0,0,1,.774-.295c.182.292-.038.694-.078,1.038S536.614,162.268,536.4,162.01Zm-103.48,1.434c.149-.349.442-.231.759-.284.479-.082.377.688.717,1.038.375.388,1.019-.388,1.507-.618.2-.1.368.249.506.432.24.329.726.372,1.094.556.314.157-.6.36-.908.535-.375.22-.735-.467-1.141-.624-.448.058-.777.507-1.3.4a2.2,2.2,0,0,1-.359-.124c-.078-.031-.188-.163-.311-.12-.165.057-.236.377-.072.441.264.1.61.2.61.2a1.084,1.084,0,0,1,.121.77c-.1.5-.99.726-.578,1.262.349.631,1.022.192,1.464-.051.812-.043.107.71-.186.948-.41.108-.941.044-1.209.432a5.153,5.153,0,0,1-1.824,1.383c-.978.463.313-2.126.416-3.2A8.066,8.066,0,0,1,432.921,163.444Zm63.053-.143c-.063-.243.724-.2.966-.27.366-.1.541.528.785.82.165.2-.075.378-.491.591-.342.175-.393-.224-.723-.659C496.425,163.672,496.061,163.636,495.973,163.3Zm28.684,2.98a12.048,12.048,0,0,0,.88-.966c.2-.214.621.015.851.275a1.422,1.422,0,0,1,.207.51,3.351,3.351,0,0,0-.133,1.37,9.423,9.423,0,0,0,1.155,1.1c.295.264-.752.464-.688.935a1.226,1.226,0,0,1-1.518,1.281,5.565,5.565,0,0,1-2.017-3.761C523.406,166.375,524.225,166.482,524.657,166.281Zm-86.187,5.177c.081-.517,1.729-.068,1.381.778-.186.456-.963.233-1.432.4-.242.083-.2.466-.272.71-.145.461.971-.106,1.452-.189.449-.076.161.89.279,1.329.108.4-.77-.311-1.162-.446-.446-.15.013.934.019,1.405.014.865-1.261-1.1-2.149-1.142-.4-.019-.164.809-.395,1.147-.284.418-.967.349-1.348.7-.482.432-.688,1.137-1.234,1.486-.125.081-.378.067-.372-.081.022-.713.748-1.259,1.09-1.91a4.3,4.3,0,0,1,1.143-1.359c.509-.417.577-1.166,1.1-1.573C437.215,172.2,438.319,172.464,438.47,171.458Zm54.879,2.01a.529.529,0,0,1,.332-.867.979.979,0,0,1,.659.913C494.392,173.839,493.676,173.514,493.349,173.468Zm15.932,1.147a.314.314,0,0,1,.477.006.3.3,0,0,1-.07.382c-.11.1-.228.064-.377.047C508.85,175,509.17,174.742,509.281,174.615Zm-12.395,2.459c.381-.1.763-.195,1.149-.268.425-.078-.581.731-1,.817C496.54,177.725,496.886,177.073,496.886,177.073Zm3.547-.129c.147-.518.965.473,1.249.942a1.85,1.85,0,0,1-1.728.627C499.409,178.452,500.286,177.471,500.433,176.944Zm11.712,3.126c.833-.43,1.3-1.288,2.067-1.793.716-.47,1.12.791,1,1.425a7.594,7.594,0,0,0,.566,3.215c.114.364-.639.416-.966.618s-.108-.738-.211-1.1c-.186-.653-1.052-.88-1.53-1.37-.156-.158-.338.274-.489.438a1.694,1.694,0,0,1-1.771.707c-1.067-.443-2.27.635-3.205-.242-.285-.268.691-.379,1.038-.566.135-.072.078-.45.1-.6.072-.391.756.261,1.152.356C510.784,181.121,511.406,180.452,512.146,180.07Zm-12.937-.278c.548-.559,1.586.2,2.389.083.017.4-.163,1.1-.637,1.123a10.018,10.018,0,0,0-1.874-.732C498.786,180.188,499,180.01,499.209,179.792Zm6.518,1.4c-.4-.518,1.163-.632,1.792-.842.224-.074.224.755-.069,1.09a1.2,1.2,0,0,1-1.2.35C505.991,181.721,505.89,181.4,505.727,181.193Zm-28.3,1.06c-.138.293-.275.589-.406.888-.356.492-.621,1.041-.977,1.532-.324.227-.759.106-1.127.15C475.293,183.6,476.672,183.182,477.43,182.253Zm37.08,4.1c-.044-.664,1.029-1.678,1.6-1.187.587.5.865,4.434,1.739,6.52.322.769.4,1.607.663,2.395.2.621.742,1.084.977,1.705.527,1.37,1.382,2.587,1.964,3.932a.525.525,0,0,1-.093.62c-.848.168-1.91.292-2.5-.484-.2-.254.628-.156.945-.231.475-.111.131-.991-.206-1.393-.195-.231-.492.409-.8.445-.525.06-.844-.657-1.361-.792-.745-.213-1.644-.275-2.1-.991a1.584,1.584,0,0,0-1.511-.67c-.439.025-.734.481-1.124.678-.623.309-2.785-.853-4.227-.873-.981-.083-1.034,1.2-1.893,1.388a4.216,4.216,0,0,1-3.3-.524c-.15-.1.028-.534.036-.713.033-.649,1.311-.031,1.967-.071.485-.029-.346-.9-.578-1.318-.19-.345.2-.759.35-1.123.207-.514.578.784.552,1.287-.028.582.934.032,1.464-.224.274-.131-.295-.666.013-.887,1.218-.871,2.944-.931,3.953-2.107.249-.293.77-.1,1.145-.213.509-.151.591-.881.955-1.265.328-.347-.026-.959.083-1.422.35-.635,1.242-.65,1.65-1.241A8.1,8.1,0,0,1,514.51,186.358Zm-50.188.428c.384-.133.856-.317.981.04.067.193.106.516-.1.516-.467-.006-.684.206-.853-.081C464.254,187.1,464.144,186.847,464.322,186.786Zm-18.239,2.064c-.486-.27,1.033-.286,1.493.007a3.377,3.377,0,0,1,1.038,1.455c.207.37.831-.181,1.248-.282.257-.064.669.311.391.632-.652.752-1.912.1-2.82-.224C446.734,190.191,446.723,189.2,446.083,188.85Zm45.531,7.976c-.675.074.723-1.25,1.479-1.212.363.017.051.841-.339,1.045A4,4,0,0,1,491.613,196.826Zm11.344,1.475c-.215-.374,1.878.164,2.8-.061a4.177,4.177,0,0,1,1.893-.075c.449.089-.366.427-.207.638.126.168.4.278.534.114.095-.115,0-.384,0-.384.032-.1.3-.279.346-.038.207,1.216,1.776,1.111,2.564,1.8.624.545-1.559.573-2.381.695-.567.083-.807-.806-1.165-1.244a.361.361,0,0,0-.625.278c.083,1.272,1.787,1.006,2.145,2.136.413,1.293-2.681-.227-3.946-.689-.363-.135.106-.76.121-1.141.017-.432-.869-.117-1.3-.174s.617-.563.928-.844C504.053,199.069,503.349,198.966,502.957,198.3Zm-18.528,1.447c.192-.31.388.018.514.024.354.012-.232.616-.619.849C484.07,200.776,484.276,200,484.429,199.748Zm4.4.556c-.252-.161.591-.114.892-.1.317.01.436.632.26.709C489.585,201.085,489.2,200.537,488.833,200.3Zm1.152,1c.245-.555,1.344-.468,1.757-.3.34.136.277.784.008.938-.757.432-.438,1.489-.871,2.161-.147.247-.4.673-.721.389a3.328,3.328,0,0,1-.734-1.714C489.285,202.259,489.776,201.78,489.986,201.3Zm31.922.245c.09-.268.3-.268.293-.032a1.528,1.528,0,0,1-.416,1.227C521.488,202.969,521.855,201.709,521.908,201.546Zm-19.443.342c.325-.339,1.066.153,1.265.671.315.831,1.1,1.5,1.042,2.448.067.407.032,1.184-.578,1.07-.739.046-1.887-.646-2.185.393-.4.738.553,1.1.846,1.665.684,1.129,1.821,2.206,1.808,3.525-.008.473-1.026-.742-1.454-1.812-.207-.513-.562-.475-1.218-.5-.41-.017-.065.807,0,1.209.125.778.952,1.2,1.379,1.832a14.973,14.973,0,0,0,2.378,1.811c.581.417,1.447.189,1.879.795.3.416-.56.618-.947.73-1.07.307-2.22-.582-2.923-1.49a19.168,19.168,0,0,0-1.729-2.125c-.332-.356-.809-.172-1.2-.222-.3-.042-.424-.456-.435-.773-.014-.386.67-.389,1.019-.561.321-.163-.013-.721,0-1.08.006-.171-.739-.334-1.191-.125a2.07,2.07,0,0,0-.471.684c-.188.424-.29-.89-.3-1.357-.008-.492.581-.866.517-1.384a4.574,4.574,0,0,1,1.337-3.537C501.781,203.194,501.947,202.426,502.465,201.888Zm-52.5.454c.215.122.6.2.486.42a.332.332,0,0,1-.431.161C449.81,202.836,449.767,202.23,449.966,202.342Zm65.839,2.591c-.331-.025.363-.481.639-.682.252-.185.313.645-.012.723A2.9,2.9,0,0,1,515.805,204.933Zm-19.4.01c.186-.461,1-.025,1.507,0,.609.024-.894.8-1.313,1.231-.175.178-.051.528-.039.7.015.217-.794.306-.755.044A8.455,8.455,0,0,1,496.4,204.943Zm-47.036,1.643c-.329-.557,1.17-.545,1.765-.777.418-.164-.438.778-.694,1.148C450.229,207.258,449.574,206.937,449.365,206.586Zm28.591,5.743a34.093,34.093,0,0,0,3.609-1.943.657.657,0,0,1,1.023.482,6.89,6.89,0,0,1-.356,1.622c-.3,1.266-1.055,2.367-1.287,3.657a21.769,21.769,0,0,1-1.906,2.935c-.293.713-.384,1.494-.7,2.2-.372,1.372-1.475,2.392-1.837,3.767a13.346,13.346,0,0,0-.536,2.584c-.064.988-.384,1.936-.459,2.921-.042.559-.739.945-.741,1.505,0,.621.3,1.126.314,1.705a7.512,7.512,0,0,0,.054,1.826,5.728,5.728,0,0,1,.288,2.253c-.247,1.874-.078,3.771-.288,5.647a9.52,9.52,0,0,1-.156,2.277c-.335,1.034-.253,2.161-.65,3.18a8.511,8.511,0,0,1-.817,1.026,3.905,3.905,0,0,0-.788,2.546,10.459,10.459,0,0,0-.481,2.574c.031.92-1.6-1-1.9-2.111a2.594,2.594,0,0,1,.8-2.206c.371-.424.051-1.124.129-1.68.395-.748,0-1.085-.4-1.6a6.878,6.878,0,0,1-.9-4.04c-.3-1.224-1.369-2.061-1.664-3.283a19.946,19.946,0,0,0-1.362-4.631,3.953,3.953,0,0,1-1.167-2.46,22.1,22.1,0,0,1,.748-5.843,38.407,38.407,0,0,1,1.615-5.664c.428-1.24.364-2.513.674-3.748a3.816,3.816,0,0,1,.8-2.573c.206-.2.685-.165.973-.19a6.037,6.037,0,0,0,1.573-.606c.617-.2,1.248-.379,1.849-.632.459-.146.92-.282,1.375-.439.524-.247,1.045-.493,1.571-.735A8.114,8.114,0,0,0,477.956,212.329Zm53.924-1.048a.743.743,0,0,1,.439-.006c.473.335,1.04.6,1.242,1.219.04.131-.457.168-.66.118A3.279,3.279,0,0,1,531.88,211.281ZM511.29,229.963c.4-.321.887-.011,1.315.072.5.171,1.136.247,1.433.752.72,1.167,2.007,1.778,2.976,2.706a2.231,2.231,0,0,1,.481,1.026c.156.423-.856-.267-1.184-.578a10.272,10.272,0,0,0-2.464-2.075,4.841,4.841,0,0,1-1.928.259c-.578.018-.389,1.1-.82,1.484-.538.477-1.441.231-2.145.12C508.072,233.589,510.129,230.94,511.29,229.963Zm49.668.675c-.175-.411.908-.035,1.359.051.245.392-.158.759-.557.7C561.279,231.474,561.108,230.978,560.958,230.639Zm-7.3,2.039c-.9-.142,1.072-1.458,1.97-1.887.663-.314.093,1.254-.306,1.748-.31.385-.277-.186-.486-.315C554.512,232.017,554.047,232.736,553.662,232.678ZM543.172,234.6c-.831.552-.68-1.6-.053-2.128.464-.384.687.991,1.017,1.5C544.352,234.293,543.49,234.393,543.172,234.6Zm-23.664,3.906c-.506-.438.417-.463.682-.346.777,0,2,1.27,1.665,1.2A15.869,15.869,0,0,1,519.508,238.51Zm-9.429,3.551c-.3-.261.755-.382,1.177-.293.325.088.958.008.89.513a12.442,12.442,0,0,1-1.35.407C510.486,242.772,510.319,242.265,510.079,242.061Zm3.644.871c.926-.506,3.379.535,4.631,1.628.928.812-2.354-.386-3.3-1.269-.357-.342-1.258.53-1.532.284C513.4,243.457,513.491,243.057,513.723,242.932Zm-2.015,1.937c-.266-.7,1.536-.606,2.316-.417a4.934,4.934,0,0,1,1.924.791c.253.168-.342.559-.281.874.293.389.7.675,1,1.056.328.417.315,1.012.516,1.505.167.416.7.552,1.042.842.456.391-1.3.687-1.825.218-.738-.578-1.71-.77-2.382-1.445-.464-.473,1.633-.061,1.971-.277a.347.347,0,0,0-.047-.561,3.583,3.583,0,0,0-2.884-.126c-.477.245-1.033-.263-1.543-.423-.973-.3,1.042-1.28,1.885-1.658C512.987,244.676,512.317,244.793,511.708,244.87Zm10.563,1.312c-.021-.411.623.545.9.859.183.207-.545-.038-.814-.074S522.288,246.441,522.271,246.182Zm6.436.414c.168-.446.555.411.555.819,0,.128-.395-.028-.525-.035C528.473,247.366,528.614,246.839,528.707,246.6Zm-19.633,1.787c-.395-.467-.118-.707.024-1.194.2-.709,1.059.746,1.422,1.4C510.76,249.016,509.505,248.64,509.074,248.383Zm9.943,1.338c-.228-.25.667.128,1,.206.133.028,0,.4,0,.531C520.028,250.879,519.3,250.029,519.017,249.722Zm-12.591,4.172c-.5-.473-.163-1.426.563-1.837.586-.336.7,1.01,1.127,1.534C508.532,254.093,506.843,254.285,506.426,253.894ZM465.691,125.709c.121-.145.485.008.485.008a.6.6,0,0,1,.01.538c-.079.147-.421-.088-.421-.088S465.573,125.848,465.691,125.709Zm-17.8,10.191c.029-.5,1.054.25,1.019.833-.21.385-.7.3-1.027.128C447.589,136.712,447.871,136.217,447.888,135.9Zm-.648,3.7c-.322.022.363-.694.745-.684.322.007.3.377.418.581C448.6,139.828,447.628,139.573,447.24,139.6ZM451,141.773a1.964,1.964,0,0,1,1.029-1.415c.46-.229.05,1.1-.29,1.476C451.468,142.129,450.96,141.951,451,141.773Zm-4.738-.707c.051-.2.386-.095.52.06s-.042.381,0,.506c.06.179-.336.131-.488.015C446.108,141.509,446.167,141.419,446.258,141.066Zm35.407,5.248c-.328-.011-.132-.739.1-.97.189-.189.57.331.855.5,0,0,.115.375-.024.489C482.355,146.535,481.976,146.327,481.665,146.314Zm-37.429-.024c.142-.06.225.171.381.1s.243.457.067.445c-.222-.015-.338.142-.481.021A.353.353,0,0,1,444.235,146.29Zm-4.767,2.115a.676.676,0,0,1,.859-.1.62.62,0,0,1,.113.709c-.158.479-.831.263-1.254.374C438.858,149.472,439.19,148.653,439.468,148.406Zm5.122-.115c.074-.161.231.268.336.414.131.181-.317.4-.51.436C444.128,149.2,444.4,148.716,444.59,148.29ZM487.316,95.1c.359.083.742-.609,1.056-.8.339-.207-.14.83-.267,1.187-.09.256.218.427.5.435.3.008.621-.261.97-.206.271.044,1.183.837,1.987.834.32,0,.46.963.623,1.468.111.346.744-.839,1.145-1.351.247-.311.862.056,1.233.218.392.378.628.887,1.01,1.275.327.329,1.173-.267,1.4-.029.193.208.092.518.222.691a3.524,3.524,0,0,0,1.544,1.259c.506.154,1.06,1.875,2.1,2.263.354.131.164.492.234.8.086.367,1.626.464,2.431.656.378.09.491.595.8.824.167.124.145.424.188.625a6.1,6.1,0,0,1-4.022-.774c-.621-.036-1.241-.11-1.86-.153-.268-.018-.092-.839-.088-1.263,0-.35-1.174.345-1.7.635-.36.2-.66-1.487-.752-2.236-.056-.439.78.516,1.219.359.274-.1.73-.211.639-.592a2.318,2.318,0,0,0-2.092-1.75c-1.476.991-3.4.774-5.088.7-.371-.018.029-.737.053-1.1l-.389-.381c-.595-.149-1.287-.233-1.571-.86-.093-.21-.407.218-.607.328-.627,1.016-1.995,1.035-2.927,1.673-.354.243-.518-.769-1-.812-.249.545-.282,1.222-.776,1.629a5.451,5.451,0,0,1-2.952,1.477c-.553.121.557-.637.845-1.124.1-.464-.286-1.136.256-1.418.744-.434.724-1.38,1.161-2.039.524-.331,1.262-.382,1.591-.969a4.629,4.629,0,0,1,1.641-1.616C486.476,94.7,486.843,94.985,487.316,95.1Zm5.757,107.143c.234-.428.267.652.354.908.147.436.435.6.639,1.019.236.485-.777.753-1.186,1.108C492.111,205.938,492.682,202.958,493.073,202.241Zm23.51,43.312c-.48-.742,1.441.856,2,1.5.46.53,1.07.432,1.6.909.756.689-2-.484-2.8-1.275A5.108,5.108,0,0,1,516.582,245.553ZM460.017,125.7l.346.143a.982.982,0,0,1,.035.548c-.145.335-.881.413-.9.277C459.456,126.271,459.887,125.672,460.017,125.7Zm-31.2,2.73c-.3-.132.268-.589.422-.874.213-.388.938.118,1.206.5a9.346,9.346,0,0,1,.14.985C430.673,129.652,429.388,128.684,428.816,128.429Zm-.884,1.2c.357-.548,1.309-.05,1.965-.085.416-.024-.118.83-.321,1.188-.118.211-.571.221-.8.509-.215.272-.185.592-.315.828-.193.342-.525-.425-.795-.628q-.448-.06-.9-.122C426.084,131.223,427.56,130.2,427.932,129.632Zm-14.179,11.243c-.046-.318.655-.368.952-.229.374.172.534.958.595,1.507.051.456-.493.424-.894.65C413.8,143.142,413.854,141.555,413.753,140.874Zm114.173-4.694c.017-.177.295-.061.456.015.224.108.188.338.318.548.384.623.785.941,1.108,1.518.232.418-.892-.342-1.336-.523s-.329-.921-.489-1.384A.351.351,0,0,1,527.926,136.181Zm-6.482,1.928c-.83-.133,1.507-.452,2.3-.336.485.071.238.933.24,1.414C523.985,140.108,522.377,138.257,521.444,138.108Zm1.532,1.426s.346-.11.441,0c.153.174.007.489.007.489-.189.053-.318.038-.367-.061A2.681,2.681,0,0,1,522.976,139.534Zm-1.641.549c-.025-.341.452-.118.867-.138.277-.013-.188.564-.468.542A.426.426,0,0,1,521.334,140.083Zm3.726,2.153a.412.412,0,0,1,.172-.625c.311-.179.5.423.284.635Zm2.827,1.455c-.208-.3.727-.057,1.094-.072.128-.007-.013.372-.017.5C528.952,144.507,528.138,144.044,527.887,143.691Zm-8.275,1.832c.018-.235.477-.028.716-.039.616-.028-.293.92-.773,1.151C519.213,146.8,519.583,145.893,519.612,145.523Zm5.33.436c-.289-.177.468-.271,1.022-.079.138.049.053.427.07.571C526.086,146.846,525.284,146.17,524.942,145.96ZM482.316,91.831c.211-.186,1.661-1.247,2.106-.962.4.256-.008.792-.291,1.167-.439.593-1.224.324-1.821.543C482.075,92.667,482.127,91.994,482.316,91.831Zm-3.622,1.211a3.979,3.979,0,0,1,2.541-.846c.967,0-.978,1.259-1.337,2.634-.607.164-.325-.585-.656-.834-.267-.2-.7-.044-.777-.367A.558.558,0,0,1,478.694,93.042Zm10.852.632a1.133,1.133,0,0,1,.987-.115c.265.154.386.938.414,1.243.038.425-.909-.317-1.329-.389C489.3,94.357,489.342,93.827,489.547,93.674ZM477.4,95.463c-.289-.641.243-1.259.941-1.461.421-.121.188.9.3,1.326C478.744,95.692,477.787,95.521,477.4,95.463Zm-1.386,4.523c-.186-.263.445-.549.6-.567,0,0,.215.382.088.567A.446.446,0,0,1,476.019,99.986Zm2.823,2.808c-.024-.413,1.022-.309,1.509-.473.851-.285-.663,1.116-1.394,1.108C478.7,103.426,478.857,103.048,478.842,102.793Zm-6.481.623c.057-.392.7-.386,1.052-.571.983-.514-1.165,2.031-2.336,2.214-.279.047.224-.511.342-.764l.732-.158A1.112,1.112,0,0,0,472.361,103.416Zm15.412-.138c.142.011.421.036.562.049.2.193.1.341-.031.47s-.48.026-.48.026C487.615,103.716,487.787,103.413,487.773,103.278Zm-12.434,1.4a.419.419,0,0,1,.556,0,4.017,4.017,0,0,1-.466,1.191c-.131.182-.491.065-.428-.031C475.12,105.652,475.016,104.92,475.339,104.675Zm20.769-.04c.024-.468.728.482.692.974-.018.239-.481-.008-.719-.014C495.758,105.588,496.091,104.954,496.108,104.635Zm-1.6.638a.432.432,0,0,1,.493-.04c.314.167-.338.5-.5.753C494.362,106.208,494.286,105.442,494.51,105.273Zm-12.849,1.472a.645.645,0,0,1,.671-.8s.183.41.06.62C482.241,106.814,481.66,106.745,481.66,106.745Zm5.55.017c.24-.32.685-.018,1.033-.018s.1.666.149,1c.065.45-1.176-.179-1.3-.459A.5.5,0,0,1,487.21,106.761Zm9.12-.067a.5.5,0,0,1,.55.044c.335.242-.429.443-.644.834C496.1,107.831,496.021,106.85,496.33,106.695Zm-21.061.3c.156-.111.694-.085.7.3.047.211-.221.347-.343.513C475.453,108.046,475.263,107.249,475.27,106.992Zm14.827.218c.149-.139.424-.178.524,0,.082.139-.1.4-.1.4s-.32.224-.467.108A.343.343,0,0,1,490.1,107.21Zm-18.058.053a1.106,1.106,0,0,1,.916.638c0,.149-.86.064-.878-.008C471.99,107.852,472,107.41,472.038,107.263Zm6.491,1.073c.218-.236.724-.035.6.309a.4.4,0,0,1-.618.153C478.4,108.729,478.529,108.336,478.529,108.336Zm1.144.206a2.233,2.233,0,0,1,.713-.043c.12-.006.063.389-.05.549a.935.935,0,0,1-.66-.04C479.578,108.807,479.613,108.759,479.673,108.542Zm3.822,1.27a6.391,6.391,0,0,1,1.284-1.5c.466.072.429.656.392,1-.372.388-.773.752-1.113,1.172C483.859,110.725,483.456,110.186,483.495,109.812Zm-17.329-.121.493-.064-.078.527-.463.026Zm3.23,0c.078-.147.434-.238.427,0,.007.122.026.372.033.5-.092.076-.435.12-.441-.051S469.335,109.8,469.4,109.691Zm23.109.043c.032-.367.742-.071,1.117-.093.518-.031-.053,1.033-.339,1.475-.181.284-.567-.361-.849-.545C492.2,110.417,492.479,110.012,492.506,109.734Zm-15.362,1.18c.1-.253,1.236-.585,1.907-.649.568-.053-1.142,1.047-1.869,1.329C476.964,111.677,477.064,111.124,477.143,110.914Zm-4.6-.4c-.185-.477,1.006.252,1.519.309a6.437,6.437,0,0,0,1.186-.352c.534-.146-.388,1.074-.946,1.281-.271.1-.218-.4-.4-.442C473.63,111.245,472.763,111.085,472.543,110.515Zm10.473,1.832c-.495-.4.607-1.037.912-1.541.149-.245.571.068.859.113.3.046-.309.52-.421.8-.092.234.446.246.674.361.922.467.678,1.986,1.526,2.65.439.346,1.116-.114,1.68-.126.7-.012-.734,1.073-1.226,1.487-.354.3-.827-.406-1.244-.6-.386-.185-.249-.819-.334-1.234-.081-.4-.833-.263-1-.709C484.18,112.843,483.509,112.741,483.016,112.347Zm-12.363-1.133c.224-.008.357-.025.5.1a.785.785,0,0,1,.017.357c-.161.1-.4.007-.461,0A.814.814,0,0,1,470.653,111.214Zm24.659,1.167c-.015-.3.612.007.919.017.418.013-.495.671-.858.884C495.11,113.437,495.327,112.681,495.312,112.382Zm-9.042.478c-.133-.457.834.128,1.029.56.11.247-.46.285-.7.407C486.246,114,486.36,113.174,486.269,112.86Zm7.134.56c.221-.071.446-.128.671-.177.334-.07.074.927-.4.966C493.517,113.975,493.206,113.713,493.4,113.42Zm-2.853,1.858c-.573-.05.5-.637.965-.687,0,0,.222.528.039.766C491.314,115.666,490.884,115.309,490.55,115.278Zm-32.4.709c.288.014.7-.058.865.047.1.067.065.357.088.477.033.175-.539.215-.767.022C458.169,116.388,458.051,116.032,458.155,115.987Zm21.453.268c.19-.379.656-.235,1-.279a2.732,2.732,0,0,1-.56,1.469.427.427,0,0,1-.674-.142A.959.959,0,0,1,479.608,116.255Zm8.892.435c-.05-.618,1.029-.974,1.5-.566.179.156.382.3.3.524-.1.268-.464-.083-.741,0-.364.111-.4.776-.749.618C488.574,117.162,488.521,116.943,488.5,116.69Zm7.244-.029c-.227-.008.163-.486.456-.5.261.053.285.334.418.507C496.793,116.9,496.033,116.672,495.744,116.661Zm-4.649.527a4.681,4.681,0,0,1,1.91-.7c.379-.132.887.083.844.534a4.323,4.323,0,0,1-2.049.912c-.343.122.638.372.9.632.218.222-.719,1.775-1.311,2.46-.55.635-.378-1.607-.6-2.4A2.611,2.611,0,0,1,491.095,117.188Zm5.666-.3c.164-.206.45.026.678.038,0,0,.156.352.039.52-.157.225-.709-.033-.709-.033S496.633,117.046,496.761,116.886Zm-37.924.587c.032-.185.277-.142.467-.135.436.018.474.57.719.849.1.12-.022.47-.029.625C459.956,119.686,458.783,117.8,458.837,117.473Zm39.4.288c.064-.359.716.179,1.066.293,0,0,.1.3-.031.391-.263.175-1.126.076-1.084-.021A3.01,3.01,0,0,1,498.237,117.761ZM488,118.29c-.179-.606,1.23.416,1.885.32.067-.008.117.177.132.242.06.254-1.124.66-1.629.271C488.089,118.945,488.086,118.583,488,118.29Zm-26.281.211c-.043-.309.613-.16.927-.218.407-.076.614.548.912.831.413.392-.984.571-1.483.853C461.631,120.217,461.788,119,461.719,118.5Zm40.212.844c.107-.36.641-.11.963-.121.146.595-.374.632-.835.638A.86.86,0,0,1,501.93,119.345Zm-2.222.133s.642-.275.766-.006a.676.676,0,0,1-.036.4s-.592.289-.739.044C499.608,119.773,499.708,119.479,499.708,119.479ZM492.9,121a1.841,1.841,0,0,1,.314-1.3c.224-.343.891.642.643,1.055C493.661,121.087,492.9,121,492.9,121Zm-9.129-.744a.417.417,0,0,1,.568.1.4.4,0,0,1,.114.478c-.124.227-.374-.068-.666-.026C483.574,120.843,483.609,120.406,483.773,120.261Zm-26.3.3a.356.356,0,0,1,.523-.042c.128.131.19.468.007.464-.211-.006-.424.149-.545-.024A.328.328,0,0,1,457.468,120.563Zm39.788.62a5.057,5.057,0,0,0,1.368.033c.1,0,.184.2.17.35s-.24.317-.24.317c-.423-.09-1.1.227-1.277-.249C497.216,121.469,497.082,121.149,497.256,121.183Zm-6.189.713c.126-.071.361.081.361.081s.163.231.093.356c-.086.156-.452.044-.452.044C491.07,122.257,490.9,121.987,491.067,121.9Zm7.486.913c.388-.015,1.263-.548,1.2.149a1.7,1.7,0,0,1-1.215.459C498.305,123.362,498.553,122.809,498.553,122.809Zm-11.76.919c-.264.017.094-.714.473-.634.379-.126.292.352.389.575C487.767,123.933,487.08,123.708,486.793,123.727Zm5.685-.418a.342.342,0,0,1,.432-.1c.181.11.183.639-.006.542s-.379.122-.487-.033A.326.326,0,0,1,492.478,123.309Zm-11.555.208c.008-.267.538-.029.806-.04s-.035.518-.051.778C481.642,124.731,480.906,124.005,480.922,123.518Zm3.6.621c-.085-.281.591.033.887.056s-.264.753-.659.607C484.522,124.718,484.583,124.36,484.518,124.139Zm9.226,1.031c-.082-.389.767-.256,1.167-.331.637-.118-.56.86-1.023.9C493.69,125.764,493.787,125.362,493.744,125.17Zm-11.582.4a.323.323,0,0,1,.47.442c-.131.158-.535.2-.531,0C482.107,125.726,482.034,125.686,482.162,125.57Zm-3.874.115c.036-.568,1.766,1.133,1.2.952-.161-.049-.235-.12-.395-.17-.313-.1-.649.164-.835-.1C478.1,126.147,478.276,125.912,478.289,125.686Zm10.71.272c-.022-.442.8-.2,1.316-.2.247,0,.222.538-.007.631a3.477,3.477,0,0,1-1.287.1C488.885,126.507,489.006,126.094,489,125.958Zm11.163-.167c.182-.158.594-.282.62-.042.04.361-.372,1.062-.651.78A.511.511,0,0,1,500.162,125.791Zm5.572.635c-.524.1.685-.835,1.277-.755.124.018-.043.368-.056.488C506.909,126.572,506.142,126.347,505.734,126.427Zm-24.245,1.02c-.163-.267-.327-.913.019-.883a.434.434,0,0,1,.407.4C481.937,127.216,481.619,127.661,481.489,127.447Zm-3.757-.367a.333.333,0,0,1,.52.06.3.3,0,0,1-.088.336c-.1.111-.334.253-.375.107C477.734,127.388,477.594,127.224,477.733,127.08Zm27.293.21c-.3-.367.77-.139,1.341.47.1.32-.379.295-.53.456C505.556,128.513,505.283,127.6,505.026,127.29Zm-2.186,1.2s.46-.157.592.029c.1.133.008.423.008.423s-.4.14-.546-.019C502.778,128.8,502.839,128.49,502.839,128.49Zm-20.973.421a.4.4,0,0,1,.477.064.416.416,0,0,1,.082.613c-.157.146-.582.186-.553-.026C481.926,129.2,481.647,129.045,481.866,128.912Zm14.12.671c-.623-.028.593-.709,1.117-.73.253-.008-.121.489-.193.73C496.82,129.876,496.292,129.6,495.986,129.583Zm-7.648.259c.3-.349.381-.719.631-.518.168.135.274.431.088.545C488.843,130,488.157,130.055,488.337,129.841Zm6.527,1.818c.149-.649,1.119-.453,1.6-.934.224-.221.912-.046.892.318-.026.457-2.138,1.507-2.933,1.55C494.043,132.616,494.781,132.029,494.864,131.659Zm-11.369-.471c.175-.379.783.079,1.138.232.466.2-.9.477-1.416.47C482.963,131.886,483.389,131.418,483.495,131.188Zm13.774,1.237c.295-.174.4-.413.739-.473.521-.092-.473.717-.931.98-.5.285-.945.595-1.438.3C495.025,132.878,496.656,132.788,497.269,132.425Zm-16.437.8c-.391-.174.67-.53,1.1-.612.142-.029-.051.423-.068.563C481.816,133.513,481.177,133.38,480.832,133.226Zm7.227-.035a.321.321,0,0,1,.379.122.312.312,0,0,1,.1.346c-.078.186-.258.075-.524.035C487.813,133.666,487.877,133.273,488.059,133.191Zm12.054.93c.154-.288.159-.82.621-.744.4-.125.278.521.406.746C500.8,134.131,500.454,134.131,500.114,134.121Zm-18.862.265c.721-.147,1.5-1.022,2.2-.411.471.416-1.134.574-1.557,1.052-.245.275-.621.207-.937.27S480.789,134.481,481.252,134.386Zm9.762-.083c.247-.293.691-.35,1.041-.514.532-.247-.315,1.1-.953,1.077C491.1,134.866,490.79,134.567,491.014,134.3Zm-5.287.788c-.288.018.089-.694.367-.774s.321.158.479.246C486.867,134.724,486,135.069,485.727,135.091Zm1.325.242c-.6.078.413-1.04,1.022-1,.3.019-.115.6-.257.866C487.694,135.422,487.307,135.3,487.052,135.333Zm8.171.265c.624-.236,1.088-1.09,1.744-.906.293.081-.029.336-.039.448-.033.4-.712.386-1.065.581-.953.528-.52,1.989-1.765,2.367-.616.188-.284-1.473-.106-1.91C494.165,135.758,494.8,135.759,495.223,135.6Zm-11.9.039c-.366-.429,1.1-.057,1.625.117.286.1-.271.678-.634.675C483.8,136.427,483.587,135.946,483.324,135.637Zm6.4-.1a.762.762,0,0,1,.835.2c.172.285-.347.356-.518.534a3.016,3.016,0,0,1-1.987,1.074c-.521-.01.356-.774.817-.892C489.27,136.345,489.287,135.664,489.723,135.538Zm.067,2.866c-.849.46.671-1.527,1.354-2.008.277-.192,1.162-.024,1.086.456C492.076,137.8,490.636,137.944,489.79,138.4Zm3.654,2.566a1.631,1.631,0,0,1,1.11-1.548c.479-.233-.382,1-.695,1.419A.372.372,0,0,1,493.444,140.97Zm-7.894.716c.032-.51.371-.585.631-.45.179.093.114.466.346.485.639.053,1.245.057,1.391.709.1.452-.96.324-1.359.32-.313,0-.143-.666-.4-.839C486,141.8,485.534,141.915,485.549,141.686Zm6.454.632c.018-.224.442-.1.666-.143.272-.054.214.628.025.834-.257.277-.764.071-.746-.046C491.987,142.752,491.984,142.534,492,142.318Zm-1.755,2.146c-.211-.413.908-.207,1.354-.347.632-.2-.068,1.179-.359,1.771-.378.773-.991,1.069-1.291,1.729-.147.329.181.564-.018.9a4.487,4.487,0,0,1-2.324,1.75c-.309.117,0-.656.006-.983.008-.614-1.458.049-1.794-.464-.632-.97,1.876-.988,2.484-.228.776.969,1.108-1.423,2.156-2.461.331-.327.125-.694.107-1.06C490.557,144.842,490.353,144.669,490.248,144.464Zm2.8,1.971c-.217-.584.339-.953.873-.776a6.541,6.541,0,0,1,1.181,1.547C494.314,147.671,493.476,147.073,493.045,146.435Zm-.019,2.368c.153-.225.52-.152.7.051a.421.421,0,0,1,.1.482c-.128.271-.371-.058-.773-.044C492.863,149.3,492.918,148.96,493.025,148.8Zm-2.759,2.285c-.695.492.381-1.908,1.337-2.21,0,0,.5-.106.666.09.242.278-.242.591-.467.819A13.572,13.572,0,0,1,490.266,151.088Zm1.729.318c-.366-.061.374-.613.582-.9s.243.65.321.992C492.967,151.8,492.3,151.457,492,151.407Zm1.584,15.045c-.339-.461,1.154-.036,1.729.014.375.032-.578.723-1.012.58A1.256,1.256,0,0,1,493.58,166.452Zm67.958,56.629c.165-.548.934.517.878,1.038-.033.318-.8.107-1.165-.015C560.854,223.973,561.435,223.421,561.537,223.081ZM501.455,207.6c.008-.2.46.028.582.195a.421.421,0,0,1-.057.63C501.549,208.338,501.44,208,501.455,207.6Zm26.708,13.17c-.163-.2.477-.086.783-.079.122,0-.013.411-.082.6C528.745,221.612,528.346,221,528.163,220.771Zm3.465,2.66a1.231,1.231,0,0,1,.53.054c-.013.1.065.288-.049.395s-.418.019-.418.019S531.461,223.509,531.628,223.431Zm6.491,3.1c-.891-.236,1.43-.657,2.418.082a4.619,4.619,0,0,0,1.439.587c.342.107-.652.473-1,.388C539.906,227.32,539.1,226.786,538.118,226.529Zm5.829.083c.577-.3,1.113.025,1.669.082s-1.259.564-1.607.446C543.811,227.072,543.6,226.794,543.947,226.612Zm-45.093-91.6c-.368-.022.545-.568.91-.625.161-.026.22.3-.038.666C499.561,135.287,499.145,135.028,498.854,135.01Zm-5.29-20.132s.393-.213.539-.063a.346.346,0,0,1-.095.538c-.138.057-.277-.065-.37-.085Zm-33.41,47.443c-.085-.272.569-.028.856-.036.314-.01-.161.566-.309.842s.484-.036.791-.063c.542-.047.7.368,1.149.09.575-.36.675,1.223,1.515,1.109.73-.1-.061,1.066.029,1.792.227,1.849-3.252-1.512-4.869-2.375l-.3.051c-.5.637-1.051.953-1.6,1.541a1,1,0,0,0,0,1.081c.288.641,1.347.778,2,1.051,1.17.484,2.222-.182,3.42.151.327.093-.245.539-.453.8-.2.246.568.278.86.4.247.106-.37.386-.553.582,0,0-.645.16-.917-.025a3.984,3.984,0,0,1-.322-.235c-.732-.561-2.121.275-2.887-.354-.592-.489-.5-1.2-1.1-1.6-.35-.233-.837.069-1.256.076-.168,0-.323-.489-.163-.656a1.5,1.5,0,0,0,.66-.364c.254-.327-.3-.3-.566-.41-.535-.221-.068-1.072,0-1.643.035-.293-.552-.352-.819-.471-.206-.094.151-.479.453-.5.464-.028.395.842.675,1.215a4.274,4.274,0,0,0,.567.049c.4.007.177-.624.181-1.02.006-.495,1-.2,1.5-.222a7.245,7.245,0,0,1,1.576.195C460.653,163.433,460.263,162.676,460.155,162.321Z" transform="translate(-402.514 -80.97)" fill="#fff" fill-rule="evenodd"/>
    </g>
  </g>
</svg>
