<svg xmlns="http://www.w3.org/2000/svg" width="50.52" height="65.217" viewBox="0 0 50.52 65.217">
  <g id="Group_6382" data-name="Group 6382" transform="translate(-9.734 -10)">
    <g id="Group_6370" data-name="Group 6370" transform="translate(10.068 65.854)">
      <rect id="Rectangle_2614" data-name="Rectangle 2614" width="1.846" height="8.937" transform="translate(0 0.213)" fill="#262424"/>
      <path id="Path_2806" data-name="Path 2806" d="M109.109,239.124h1.758v-6.571h.044l4.8,6.571h1.95v-8.937H115.9v6.584h-.03l-4.815-6.584h-1.95Z" transform="translate(-105.965 -229.974)" fill="#262424" fill-rule="evenodd"/>
      <path id="Path_2807" data-name="Path 2807" d="M139.188,231.463H141c2.895,0,3.515,1.4,3.515,3.192s-.62,3.192-3.515,3.192h-1.817Zm-1.846,7.661h4.372c3.25,0,4.653-2,4.653-4.469s-1.4-4.469-4.653-4.469h-4.372Z" transform="translate(-124.347 -229.973)" fill="#262424" fill-rule="evenodd"/>
      <path id="Path_2808" data-name="Path 2808" d="M166.84,231.726h.045l1.58,3.843h-3.22Zm-4.992,7.4h1.905l.989-2.366h4.21l.99,2.366h1.979l-4.062-8.937H165.9Z" transform="translate(-140.303 -229.973)" fill="#262424" fill-rule="evenodd"/>
      <path id="Path_2809" data-name="Path 2809" d="M189.239,235.748c.045,2.216,1.994,3.192,4.4,3.192,2.1,0,4.2-.8,4.2-2.8a2.453,2.453,0,0,0-2.054-2.278c-.546-.138-2.88-.651-3.042-.688-.753-.175-1.256-.526-1.256-1.152,0-.9,1.079-1.164,1.935-1.164,1.27,0,2.186.426,2.275,1.577h1.847c0-1.865-1.847-2.853-4.047-2.853-1.905,0-3.856.839-3.856,2.628,0,.926.531,1.852,2.334,2.266,1.448.338,2.408.5,3.147.739a1.092,1.092,0,0,1,.872,1.1c0,.676-.606,1.352-2.23,1.352-1.477,0-2.674-.539-2.674-1.916Z" transform="translate(-158.136 -229.577)" fill="#262424" fill-rule="evenodd"/>
      <path id="Path_2810" data-name="Path 2810" d="M217.431,231.726h.045l1.58,3.843h-3.22Zm-4.992,7.4h1.9l.99-2.366h4.21l.99,2.366h1.979l-4.062-8.937h-1.964Z" transform="translate(-173.242 -229.973)" fill="#262424" fill-rule="evenodd"/>
    </g>
    <g id="Group_6380" data-name="Group 6380" transform="translate(9.734 10.001)">
      <path id="Path_2811" data-name="Path 2811" d="M103.37,83.733h43.139a3.673,3.673,0,0,1,3.691,3.655v44.144a3.673,3.673,0,0,1-3.691,3.655H103.37a3.673,3.673,0,0,1-3.69-3.655V87.388A3.673,3.673,0,0,1,103.37,83.733Z" transform="translate(-99.68 -83.733)" fill="#1a1818" fill-rule="evenodd"/>
      <path id="Path_2812" data-name="Path 2812" d="M106.644,89.088h42.927a2,2,0,0,1,2.013,1.994v43.61a2,2,0,0,1-2.013,1.994H106.644a2,2,0,0,1-2.013-1.994V91.082A2,2,0,0,1,106.644,89.088Z" transform="translate(-102.848 -87.159)" fill="#fff" fill-rule="evenodd"/>
      <path id="Path_2813" data-name="Path 2813" d="M110.022,134.735c-.276.043-.549-.057-.825-.028a2.629,2.629,0,0,1-.4,0c-.2-.046-.1-.581.026-.842s.1-.549.251-.786c.09-.144.121-.341.3-.412a.926.926,0,0,0,.394-.427c.039-.067.143-.061.216-.089.117-.19.014-.4,0-.6a1.5,1.5,0,0,1,.246-.623,1.14,1.14,0,0,0,.083-.844,4.675,4.675,0,0,1-.178-.821c-.035-.4-.323-.724-.361-1.123-.027-.295-.113-.579-.151-.872-.016-.172-.148-.3-.179-.467-.08-.433-.355-.806-.451-1.234a1.734,1.734,0,0,0-.175-.587,8.833,8.833,0,0,1-.2-1.58,11.848,11.848,0,0,0-.212-1.226c-.123-.5-.431-.721-.406-1.226.016-.315-.439-.822-.6-1.43-.066-.252-.3-.605-.366-.862-.185-.455-.361-.915-.516-1.382a11.717,11.717,0,0,0-.39-1.216c-.112-.182-.091-.47-.227-.741-.075-.232-.149-.464-.209-.7a5.526,5.526,0,0,0-.2-.951,1.937,1.937,0,0,0-.157-.579c-.05-.1.06-.231.03-.346a12.238,12.238,0,0,1-.213-2.062c-.052-1.132-.093-2.266-.057-3.4a8,8,0,0,1,.2-1.7,1.14,1.14,0,0,1,.175-.614c.036-.081,0-.233.067-.294a2.2,2.2,0,0,0,.36-.674c.142-.288.245-.592.375-.884.1-.227.254-.421.357-.644a.243.243,0,0,1,.071-.285c.176-.161.315-.355.476-.529a4.734,4.734,0,0,1,.221-.427c.077-.094.275-.068.359-.139a8.732,8.732,0,0,1,.786-.852c.052-.038.063-.112.095-.168.067-.116.241-.118.363-.177s.153.064.227.02c.046-.027.117-.137.193-.1.128-.06.26-.11.382-.183a5.92,5.92,0,0,1,.914-.514c-.008-.107-.015-.145-.031-.251-.024-.165.319-.018.486-.046.147-.026.189-.485.433-.565a5.168,5.168,0,0,1,.694-.193c.039-.068.007-.184.083-.183a3.1,3.1,0,0,0,.955-.23c.115-.032.09-.291.211-.353a.679.679,0,0,0,.463,0c.085-.034.065-.177.134-.237.1-.088.28.141.438.114.105-.018.159-.141.247-.2.042-.028.126-.268.222-.2.054.037.018.108.063.153.116.116.143-.227.212-.362s.311.215.483.116c.139-.133.234-.3.376-.435.087-.081.2-.037.315-.066.074-.019.089-.157.117-.228.064-.164.328-.136.5-.164a1.15,1.15,0,0,0,.377-.207c.142-.085.151-.278.209-.425.037-.093.122-.2.223-.2.331,0,.367-.289.573-.352a9.261,9.261,0,0,0,1.3-.7c.178-.087.277-.256.437-.362a4.223,4.223,0,0,0,.85-.659c.193-.175.41-.252.629-.417.022-.016.039-.04.062-.046a1.4,1.4,0,0,0,.338-.219c.135-.138.293-.233.425-.373a.391.391,0,0,1,.24-.181c.01-.033.021-.064.03-.1a.144.144,0,0,1,.059-.152,1.038,1.038,0,0,1,.657-.223.62.62,0,0,1,.072.007c.082.012.136-.033.21-.1.055-.048.43-.323.546-.249a.1.1,0,0,1,.037.114c.005.053.008.111.061.113.381.013.657.339,1.015.448a.971.971,0,0,0,.329.015.2.2,0,0,1,.142.006c.029.017.049.078.069.131a.469.469,0,0,0,.184.257,3.6,3.6,0,0,0,.74.387c.176.028.212.224.315.341.067.077.2.032.3.049a.089.089,0,0,1,.055.018c.05.054.024.134.058.179a.913.913,0,0,0,.4.326c.131.04.275.486.544.586.092.034.042.127.06.208s.421.12.63.17c.1.023.127.154.208.214.043.032.033.11.044.162.17.171.43.012.606.132l.054.049c.063.063.1.419.251.583.062.07-.057.059-.1.084a1.7,1.7,0,0,0,.5.215c.134.055.071.213.041.313a1.711,1.711,0,0,1,.372.156c.077.056.029.266.045.4.06-.006.113-.015.174-.019.03,0,.088.042.077.086s-.057.039-.079.051a3.283,3.283,0,0,0,.775.681,1.163,1.163,0,0,1,.03-.478c.021-.066.157-.021.211.026a3.026,3.026,0,0,0,.883.672c.171.036.363-.036.521.061.25.129.777.188.8.27.014.058,0,.145.055.166s.113-.024.132.01c.058.1-.011.516.125.759.041.073.256-.128.264-.043a.659.659,0,0,0,.394.552c.1.068-.156.361-.141.569.007.109.3-.1.391-.137.068-.025.015.119-.019.182-.089.166-.26.227-.292.385a4.138,4.138,0,0,1-.02.421,2.461,2.461,0,0,1-.18.422,2.558,2.558,0,0,1-.528,1.208c-.107.164.5.184.768.291a.1.1,0,0,1-.023-.05c0-.046.076-.016.118,0,.058.028.049.088.082.142.187.1.334.223.512.334a.124.124,0,0,1,.065.034c.052.039.052.158.052.158a.514.514,0,0,0,.125.025c.261,0,.458-.2.7-.31-.089-.037-.154-.059-.154-.144a.279.279,0,0,1,.3-.223c.12.027.115.238.2.247.061.006.129-.062.229-.135.123-.09.149-.293.261-.4.144-.131.29-.175.417-.285.065-.057.258.09.393.086.039,0-.053-.323-.067-.483,0-.046.194-.367.441-.349.2.016.249-.623.551-.914.243-.235.423-.676.778-.777a1.282,1.282,0,0,0,.58-.345,1.243,1.243,0,0,1,.6-.237c.12-.017.041.176.088.232.025.03.317-.242.519-.2.046.01,0,.184-.008.277,0,.051.229-.113.344-.215a.626.626,0,0,1,.67-.049c.076.042-.1.133-.08.21s.908-.062,1.277.13c.064.033.077.145.115.206s.211.128.124.236c-.14.315-.522.444-.624.78a.439.439,0,0,0-.054.247c0,.115.113.17.128.221.059.208-.182.377-.352.5-.048.045-.1.061-.127.138a.126.126,0,0,0,0,.121c.07.061.37.026.393.035.152.061-.1.125-.121.2,0,.016.077.127.037.164a2.15,2.15,0,0,0-.751,1.1,5.58,5.58,0,0,1-.674,1.381c-.1.2-.2.176-.287.315-.159.258-.372.246-.487.4a6.942,6.942,0,0,1-.95.708,1.969,1.969,0,0,1-1.032.317,3.889,3.889,0,0,1-.716-.042c-.26-.013-.513.074-.771.079-.173-.021-.353.188-.251.344a5.364,5.364,0,0,1,.424,1.26c.091.309-.087.469-.012.686a3.448,3.448,0,0,1,.024.842c-.077.232.01.482-.111.7-.137.318-.02.673-.172.984a7.723,7.723,0,0,1-.369,1.241c-.131.229-.032.363-.087.609-.073.327.118.594.046,1.037-.041.257.109.538.074.877.05.565-.023,1.14.007,1.708.073.081.3.036.349.061a.267.267,0,0,1,.077.057.794.794,0,0,0,.384.132,5.335,5.335,0,0,0,.978.263,7.472,7.472,0,0,0,1.07.006,3.381,3.381,0,0,1,.706-.165.131.131,0,0,1,.252-.037c.05.221-.068.439-.04.664a10.131,10.131,0,0,1-.262,1.232c-.062.506-.263,1.067-.287,1.26a3.2,3.2,0,0,1-.411.995c-.133.308-.412.54-.475.878-.029.152-.123.387.009.533.232.256.208.672.489.972.148.218.422.381.506.614a1.651,1.651,0,0,1,.514.207c.33.178.708.246,1.029.441a2,2,0,0,0,.807.183,4.227,4.227,0,0,0,.948-.07c.381-.017.745-.142,1.125-.175.916-.208,1.837-.409,2.73-.706.26-.082.521-.17.789-.227.025-.06.132-.1.194-.126.118-.04.3.026.427-.049a.064.064,0,0,0,.018-.014c.018-.019-.012-.051.01-.067s.04.015.054,0-.006-.028,0-.041c.038-.049.109-.033.147-.045a.6.6,0,0,0,.137-.1.633.633,0,0,1,.063-.072c.266-.2.383-.061.545-.246a1.388,1.388,0,0,1,.57-.378c.115-.055.272.047.213.177a.85.85,0,0,0-.209.391,5.812,5.812,0,0,1-.746,1.386,3.008,3.008,0,0,0-.465.47,7.312,7.312,0,0,1-.69.855c-.2.227-.451.4-.648.624a.919.919,0,0,0-.209.227c-.218.331-.609.484-.862.784-.27.189-.533.39-.785.6-.2.177-.476.228-.669.411a1.6,1.6,0,0,1-.536.3c-.436.244-.842.54-1.3.741-.3.161-.641.245-.931.434-.23.106-.435.328-.689.325a2.469,2.469,0,0,0-.843.252c-.12.059-.27-.089-.4-.021-.264.1-.676.22-.743.512a1.041,1.041,0,0,0-.015.33c.007.147.178-.023.291.134a.951.951,0,0,1,.318.82c-.09.375-.461.548-.744.764-.244.175-.216.5-.281.765a1.519,1.519,0,0,1-.5.691,5.327,5.327,0,0,1-.92.655c-.067.041-.116.107-.186.142a4.774,4.774,0,0,1-1.711.488,2.414,2.414,0,0,1-.479.075,1.411,1.411,0,0,1-.682-.018,7.467,7.467,0,0,0-.921-.185c-.1-.023-.159.015-.253.009-.075,0-.127-.113-.214-.106a3.36,3.36,0,0,1-.658-.106c-.536-.088-1.077-.16-1.607-.284a11.379,11.379,0,0,1-1.614-.867,1.156,1.156,0,0,1-.51-.487c-.054-.109-.153-.124-.209-.231-.076-.146-.4-.13-.559-.43-.126-.244-.077-.461-.212-.627-.052-.063-.216-.126-.214-.31s-.566-.65-.817-.93a3.407,3.407,0,0,1-.663-1.1c-.079-.238-.265-.418-.353-.651a3.338,3.338,0,0,0-.276-.655c-.128-.168-.225-.491-.363-.511-.105-.016-.242.5-.326.757a2.13,2.13,0,0,0-.16.911,3.34,3.34,0,0,0,.585,1.75c.152.271.6.2,1.018.746.235.308.206.742.326,1.108.071.218-.228.345-.408.424a1.414,1.414,0,0,1-.68.08c-.22-.022-.433.052-.652.044-.237,0-.472-.049-.708-.038-.469.066-.941-.062-1.413-.023-.319.039-.63-.08-.95-.066-.53-.088-1.07,0-1.6-.085-.749.013-1.495-.108-2.244-.077a10.379,10.379,0,0,1-2.07.183,5.451,5.451,0,0,1-2-.287.654.654,0,0,1-.314-.157,2.462,2.462,0,0,1-.111-.287,3.767,3.767,0,0,0-.335-.622c-.063-.243-.279-.355-.338-.594-.041-.167-.551-.369-.59-.72a5.742,5.742,0,0,1-.034-.927,7.169,7.169,0,0,1,.087-.737,1.11,1.11,0,0,1,.109-.341c.085-.212.194-.3.281-.514.038-.093.028-.18.087-.243a.474.474,0,0,0,0-.581c-.151-.368-.262-.75-.415-1.116a5.694,5.694,0,0,1-.181-.649c-.009-.527-.3-1-.322-1.523a7.14,7.14,0,0,1-.216-1.41c.006-.133-.1-.3-.173-.3a.183.183,0,0,0-.156.116c-.036.1-.049.118-.017.211.085.246-.011.507.04.759.036.168.067.337.093.507.01.255.071.575.079.76.009.224.139.323.152.655.034.274.079.546.112.82a.364.364,0,0,1,.077.169,7.731,7.731,0,0,0,.236.995,8.5,8.5,0,0,1,.063,1.3,3.231,3.231,0,0,1-.038.482c-.033.227-.082.492-.082.492a4.367,4.367,0,0,0-.086.986,5.737,5.737,0,0,1,.062.692c0,.243.191.608.182.855-.019.28.136.536.106.816-.03.16.094.378-.07.491-.144.1-.329.066-.492.105-.254.057-.514,0-.77.046a4.155,4.155,0,0,1-1.016.073C110.925,134.727,110.47,134.674,110.022,134.735Zm12.665-12.426a8.828,8.828,0,0,0,.935-.5.17.17,0,0,1,.265.125,1.787,1.787,0,0,1-.092.42c-.078.328-.273.613-.334.948a5.648,5.648,0,0,1-.494.761c-.076.185-.1.387-.182.57-.1.355-.382.62-.476.976a3.486,3.486,0,0,0-.139.67c-.017.256-.1.5-.119.757-.011.145-.192.245-.192.39,0,.161.077.292.081.442a1.949,1.949,0,0,0,.014.473,1.484,1.484,0,0,1,.075.584c-.064.485-.02.977-.075,1.463a2.448,2.448,0,0,1-.041.59c-.086.268-.065.56-.168.824a2.237,2.237,0,0,1-.212.266,1.015,1.015,0,0,0-.2.66,2.728,2.728,0,0,0-.124.667c.008.238-.414-.258-.492-.547a.673.673,0,0,1,.208-.572c.1-.11.013-.291.033-.435.1-.194,0-.281-.1-.415a1.782,1.782,0,0,1-.232-1.047c-.079-.317-.355-.534-.431-.851a5.166,5.166,0,0,0-.353-1.2,1.024,1.024,0,0,1-.3-.637,5.727,5.727,0,0,1,.194-1.514,9.951,9.951,0,0,1,.418-1.468c.111-.321.095-.651.175-.971a.987.987,0,0,1,.206-.667c.053-.053.178-.043.252-.049a1.569,1.569,0,0,0,.408-.157c.16-.053.323-.1.479-.164.119-.038.238-.073.356-.114.136-.064.271-.128.407-.191A2.145,2.145,0,0,0,122.687,122.309Z" transform="translate(-103.137 -88.268)" fill="#c59c74" fill-rule="evenodd"/>
      <path id="Path_2814" data-name="Path 2814" d="M113.456,130.6a4.367,4.367,0,0,0-.086.986,5.737,5.737,0,0,1,.062.692c0,.243.191.608.182.855-.019.28.136.536.106.816-.03.16.094.378-.07.491-.144.1-.329.066-.492.105-.254.057-.514,0-.77.046a4.155,4.155,0,0,1-1.016.073c-.448.057-.9,0-1.352.065-.276.043-.548-.057-.824-.028a2.629,2.629,0,0,1-.4,0c-.2-.046-.1-.581.026-.842s.1-.549.251-.786c.09-.144.121-.341.3-.412a.926.926,0,0,0,.394-.427c.039-.067.143-.061.216-.089.117-.19.014-.4,0-.6a1.5,1.5,0,0,1,.246-.623,1.14,1.14,0,0,0,.083-.844,4.675,4.675,0,0,1-.178-.821c-.035-.4-.323-.724-.361-1.123-.027-.295-.113-.579-.151-.872-.016-.172-.148-.3-.179-.467-.08-.433-.355-.806-.451-1.234a1.734,1.734,0,0,0-.175-.587,8.833,8.833,0,0,1-.2-1.58,11.848,11.848,0,0,0-.212-1.226c-.123-.5-.431-.721-.406-1.226.016-.315-.439-.822-.6-1.43-.066-.252-.3-.605-.366-.862-.185-.455-.361-.915-.516-1.382a11.717,11.717,0,0,0-.39-1.216c-.112-.182-.091-.47-.227-.741-.075-.232-.149-.464-.209-.7a5.526,5.526,0,0,0-.2-.951,1.937,1.937,0,0,0-.157-.579c-.05-.1.06-.231.03-.346a12.238,12.238,0,0,1-.213-2.062c-.052-1.132-.093-2.266-.057-3.4a8,8,0,0,1,.2-1.7,1.14,1.14,0,0,1,.175-.614c.036-.081,0-.233.067-.294a2.181,2.181,0,0,0,.367-.668c.086-.182.177.37.121.572-.059.157-.182.281-.247.433-.046.105.028.227.033.341.019.29-.28.484-.223.8.015.078.232-.113.346-.169.177-.086.1.379.158.564.048.145.348.029.46-.042.041-.026-.007-.175.014-.206a7.124,7.124,0,0,1,.683-.649c.072-.08.2-.073.292-.109.082-.03.075-.162.069-.251-.01-.152-.158-.259-.24-.386-.054-.085.162-.118.247-.174.05-.033-.009-.12-.013-.179s.122-.05.183-.075-.013-.145-.018-.216a1.761,1.761,0,0,1,.38-.331c.086-.062.144-.193.265-.124.049.1.073.219.116.326.057.141.216-.171.286-.289l-.037-.173c.109-.1.172-.291.34-.3.068.07.082.239.18.231.233-.021.689-.542,1.131-.471.165.027-.16-.542-.167-.825,0-.116.234.028.35.028.152,0,.346-.476.55-.611.069-.046.022.163.032.245.014.115.261-.025.33-.114.044-.056-.066-.13-.016-.182a1.008,1.008,0,0,1,.464-.321c.166-.031.283.518.479.739.085.1.058-.252.111-.371.037-.084.174-.073.238-.138.13-.131.195-.363.35-.5a1.181,1.181,0,0,0,.285-.5c.038-.11-.556-.2-.819-.078a7.022,7.022,0,0,0-.663.449c-.1.072-.229-.081-.347-.109-.281.039-.542.219-.83.187-.143-.019-.137-.146-.124-.258.007-.06-.044-.115-.063-.173a.239.239,0,0,1,.216-.133c.075,0-.058.267.04.252s.11-.334.192-.493a3.656,3.656,0,0,1,.488-.317c.077-.059.054-.288.08-.432.016-.087-.148-.1-.228-.137-.155-.074-.622.261-.894.455-.116.09-.135.285-.289.322-.26.047-.4.291-.559.473a4.624,4.624,0,0,1-.5.58.764.764,0,0,1-.78.3c-.136-.049.222-.336.237-.5.012-.128-.237-.1-.342-.022-.146.112-.375.263-.413.409-.021.085.125.113.1.2-.058.242-.383.4-.542.622-.063.09-.207-.137-.314-.107s-.145.157-.219.235c-.03.031.021.122-.026.17s-.189.079-.211,0a.24.24,0,0,1,.073-.281c.176-.161.315-.355.476-.529a4.734,4.734,0,0,1,.221-.427c.077-.094.275-.068.359-.139a8.732,8.732,0,0,1,.786-.852c.052-.038.063-.112.095-.168.067-.116.241-.118.363-.177s.153.064.227.02c.046-.027.126-.106.2-.071.059.027.089.138.089.138.147-.02.295-.035.443-.046.124-.009.164-.186.251-.274.023-.064.048-.128.072-.191.068-.179.339-.188.431-.359-.008-.108-.013-.141-.029-.247-.024-.165.319-.018.486-.046.147-.026.189-.485.433-.565a1.122,1.122,0,0,1,.511.009c.111.034-.036.358.086.317a.173.173,0,0,0,.112-.154c.014-.094-.13-.122-.116-.217.01-.069.066-.087.1-.148s.007-.184.083-.183a3.1,3.1,0,0,0,.955-.23c.115-.032.09-.291.211-.353a.679.679,0,0,0,.463,0c.085-.034.065-.177.134-.237.1-.088.28.141.438.114.105-.018.159-.141.247-.2.042-.028.126-.268.222-.2.054.037.018.108.063.153.116.116.143-.227.212-.362s.311.215.483.116c.139-.133.234-.3.376-.435.087-.081.2-.037.315-.066.074-.019.089-.157.117-.228.064-.164.328-.136.5-.164a1.15,1.15,0,0,0,.377-.207c.142-.085.151-.278.209-.425.037-.093.122-.2.223-.2.331,0,.367-.289.573-.352a9.261,9.261,0,0,0,1.3-.7c.178-.087.277-.256.437-.362a4.223,4.223,0,0,0,.85-.659c.193-.175.41-.252.629-.417.143-.108.335.019.428.1s-.43.069-.314.133.283.03.232.118a1.378,1.378,0,0,1-.658.421c-.11.027-.133.317-.3.389-.231.218-.388.582-.759.572-.079,0,.081.135.116.207a.651.651,0,0,1-.161.31c-.052.064-.37-.039-.536.054-.03.124-.031.277-.163.343a.7.7,0,0,0-.283.367,1.134,1.134,0,0,0-.33.129,1.974,1.974,0,0,1-.341.422c-.215.138-.349.408-.636.4-.194.086-.533-.047-.6.226a2.554,2.554,0,0,0,.181.209c-.089.236-.358.244-.562.323q-.042.154-.082.309c-.009.114.035.278-.09.344-.218.1-.451-.015-.665-.069a1.573,1.573,0,0,1-.184.632c-.1.17-.143.388-.314.51s-.391.216-.564.354c-.1.077-.074.407-.077.612,0,.1.5-.114.548-.176s-.048-.152.019-.221a.947.947,0,0,1,.209-.1c.121-.059.008-.288.115-.388.2-.219.619-.635.67-.6.076.053.058.162.148.187.037.01.242-.28.417-.349.084-.033.008.179,0,.269-.005.107-.242.171-.245.207-.006.075.063.1.091.17a2.1,2.1,0,0,1-.622.252c-.077.019.093.161.124.27.041.143-.244.379-.243.407,0,.07.179.034.179.034.075-.289.367-.393.6-.519.081-.044.282.1.43.1.07,0,.135-.244.221-.354.055-.07.177-.037.267-.033.055,0,.008.371-.045.545-.023.076.316-.035.465-.084.042-.014.023-.211.049-.314s.316.126.35-.044c.115-.2-.082-.406-.037-.62.027-.13.27.013.4-.005.16-.021.267-.178.416-.241a.672.672,0,0,1,.456.052,1.115,1.115,0,0,0,.517-.921c.009-.136.269-.1.4-.131.1-.021-.156-.147-.175-.246-.026-.136.344-.177.495-.3a.452.452,0,0,1,.558-.071c.086.062-.2.085-.291.135a.671.671,0,0,0-.115.532.47.47,0,0,1-.076.354c-.057.114.245.027.373.035.073,0,.026.215,0,.318-.021.072-.215.065-.322.1a2.374,2.374,0,0,0-.106.947c.02.176-.061.326-.025.492.045.148-.161.241-.114.39a4.219,4.219,0,0,1,.084.577c.007.083.153-.036.2-.111s-.009-.139.018-.221a.847.847,0,0,1,.073-.14c.065-.123-.207-.244-.142-.395a2.382,2.382,0,0,1,.277-.109,1.365,1.365,0,0,0-.017-.572.279.279,0,0,1-.1-.115c-.01-.039-.033-.1.006-.1s.165.082.165.082c.116-.006.138-.158.22-.223.093.007.269-.083.28.025.006.063-.019.155-.02.255,0,.187.093.316.053.476-.09.252-.367.366-.485.6-.049.1-.018.214-.038.319-.015.078-.113.114-.171.168-.077.073-.005.213-.01.319s.232.023.348.046c.315.062-.342.536-.572.751a.529.529,0,0,0,.211.592c.2.154.19.427.355.6.1.106-.265.131-.4.2-.2.106.426.165.656.149.176-.012.126-.332.13-.509.006-.264-.2-.487-.263-.744-.044-.175-.161-.375-.03-.541.067-.084.173.1.295.13.072.019.2-.044.19.029-.021.124-.034.173-.052.259-.026.124.246-.063.371-.086s-.135.231-.184.355c-.036.089.115.157.188.22s.167-.078.26-.091c.258-.036.317.4.382.644.039.15-.435-.278-.47-.067-.02.12.21.283.352.388.058.043.1-.1.156-.15.085-.08.234.024.351.038.156.019-.149.274-.23.409-.135.228.434-.174.588-.346.038-.042.114.01.171.016.153.016.171-.243.328-.269.209-.034-.027.426-.2.563a5.143,5.143,0,0,1-.729.42c-.08.046.134.127.2.192.094.093-.22.148-.332.219-.138.086.321-.052.481-.014.111.027.11-.2.165-.3s.322.037.319.18c0,.215-.249.344-.334.549-.033.082.408.21.625.128s.319-.307.457-.475c.154-.254.436-.386.62-.614a1.7,1.7,0,0,1,.641-.452c.14-.063-.037.2-.1.286a1.324,1.324,0,0,1-.218.361c-.2.2-.5.285-.69.5-.07.219-.068.457-.155.675.01.092.074.23-.045.282a5.99,5.99,0,0,1-1.884.326c-.093,0,.019.293.019.293-.107-.007-.212-.012-.318-.027.036-.1.082-.189.124-.282s-.144-.159-.228-.207c-.068-.039-.017.158-.024.236s-.131.13-.2.2c-.188.189.379.336.6.457.15.081-.04-.241.065-.277.057-.02.093.05.154.021.281-.137.514-.438.839-.3.062.026.049.293.132.477.064.14-.289.134-.43.2s-.153.254-.188.392c-.031.122.3.032.429.023s-.022-.224-.02-.336c0-.153.306-.023.46-.025.067,0,.03-.153.072-.205a1.51,1.51,0,0,1,.206.045,1.074,1.074,0,0,1,.474.224c.146.13-.431.292-.65.432-.189.12.455.077.673.007.151-.049.23-.22.376-.29.184-.089-.231.412-.492.593-.081.056.181.079.274.116.158.062.1-.312.3-.4.124-.055.313-.19.368-.17s.044.093.017.141-.136-.017-.181.039c-.068.087.2.079.255.128.157.148-.6.815-.983,1.143-.1.088.242,0,.4-.09.112-.067.076.131.04.182-.052.074-.232.119-.349.178-.184.092.394.126.573.229.1.059-.09.159-.114.336-.012.088.156-.047.265-.054.04,0,.108.007.04.092a1.855,1.855,0,0,1-.388.389c-.1.069-.126-.236-.2-.3s-.2.126-.218.229c-.011.089.2.112.192.166a2.776,2.776,0,0,1-.3.794c-.025.055-.1.068-.151.1-.081.055.116.159.149.251.07.2-.449.573-.469.947.036.093.092.177.128.27a1.926,1.926,0,0,0-.19.541.353.353,0,0,1-.138.519,2.727,2.727,0,0,1-.341-.13c-.345-.146.444.619.438,1.007,0,.18.2.1.3.143s.094-.232.139-.348c.015-.037.115-.036.153-.048.1-.032-.147-.157-.212-.242s.2-.08.314-.079c.089,0-.062-.2.031-.26a.693.693,0,0,0,.272-.671c-.026-.116.238-.01.356-.033.211-.042-.537-.2-.462-.419.037-.108.433-.151.581-.327.124-.147.372-.1.566-.094a2.484,2.484,0,0,1,.493.092c.213.037-.281-.345-.462-.473-.211-.139-.5.021-.689-.2s.869.107,1.308.043c.173-.026-.372-.139-.561-.2-.112-.037-.008-.129-.008-.129.188-.084.405-.027.6-.08.165-.044-.3-.119-.425-.183-.1-.053-.115-.145-.176-.238-.126-.188-.462-.063-.655-.195-.117-.08.149-.24.222-.361.109-.184.385.14.586.1.171-.032-.415-.444-.522-.736-.046-.089.105-.1.16-.095.423.1.853.155,1.279.236.139.027.063-.108.017-.13-.134-.066-.51-.084-.7-.251-.079-.061-.141-.172-.1-.255.118-.229.627-.192.91-.351.124-.07-.376-.051-.562-.019a2.476,2.476,0,0,0-.43.263,1.881,1.881,0,0,1-.839.307c-.094,0-.027-.117,0-.14.147-.121.453-.2.621-.384a4.144,4.144,0,0,1,.949-.519c.316-.068.643.016.966-.058.157-.036-.336-.118-.253-.18.417-.305,1.484-.336,2.064-.852.085-.076-.233,0-.341.04a10.073,10.073,0,0,1-1.206.47,4.165,4.165,0,0,1-.9-.011c-.086,0-.017.169-.029.254-.026.189-.576,0-.812-.136-.06-.036-.021-.139-.021-.139.317-.189.714-.085,1.032-.264.133-.075-.258-.167-.408-.2a.561.561,0,0,1-.348-.429c-.081-.281.793.075.849-.008.031-.046.008-.177-.047-.187a.982.982,0,0,1-.527-.282c-.087-.085-.341.028-.371-.148.138-.169.43-.055.553-.246.1-.163.157-.392.4-.386.085,0-.1-.162-.073-.242.046-.16.388-.192.528-.376.077-.1-.1-.215-.106-.363,0-.106.184.112.286.144.138.043.177-.385.317-.546.09-.116.222-.218.237-.374a1.109,1.109,0,0,1,.415-.8c.231-.072.282.2.371.343.055.091.193-.1.262-.185.094-.17.139-.362.242-.528a1.879,1.879,0,0,0,.236-.531,4.957,4.957,0,0,1,.286-1c.107-.173-.381-.078-.579-.126a4.814,4.814,0,0,1-.7-.347c-.307-.129.456-.135.815.108.17.115.364.041.552.133.112.055.417-.534.556-.837.037-.081-.086-.155-.134-.229-.107-.164.037-.39.094-.576.027-.087-.261-.1-.405-.18-.1-.052.05-.254.09-.356.062-.16.392-.049.46-.237.058-.16-.069-.285-.145-.41l-.013-.1a1.142,1.142,0,0,1,.031-.474c.021-.066.157-.021.211.026a3.026,3.026,0,0,0,.883.672c.171.036.363-.036.521.061.25.129.777.188.8.27.014.058,0,.145.055.166s.113-.024.132.01c.058.1-.011.516.125.759.041.073.256-.128.264-.043a.659.659,0,0,0,.394.552c.1.068-.156.361-.141.569.007.109.3-.1.391-.137.068-.025.015.119-.019.182-.089.166-.26.227-.292.385a4.138,4.138,0,0,1-.02.421,2.461,2.461,0,0,1-.18.422c-.24.338-.29.779-.587,1.079-.274.236-.566.455-.85.681-.237.119-.52.119-.755.248a1.56,1.56,0,0,0-.474.34c-.049.061.06.286.039.428-.017.113.316.005.474.016.142.01-.18.2-.307.253-.038.017-.016.073.018.1.068.053.473-.067.559-.014a.074.074,0,0,1,0,.114c-.1.091-.367.079-.409.28-.034.161.341-.013.5.045.109.04-.267.148-.387.239-.094.071.064.477.226.634.062.059.292-.231.452-.141-.018.2-.228.184-.356.292-.076.062.15.195.272.286s.09-.277.155-.411a.875.875,0,0,1,.524-.234c.172,0,.165.195.205.313.18.03.323.064.507.08.145.013-.061-.285-.056-.434,0-.126.627.075.693.125s-.043.11-.02.212c0,0,.1.1.159.164.039.043-.1.111-.146.171s.177.18.33.187c.073,0,.022-.137.091-.162a.246.246,0,0,1,.1,0c.032,0,.066.067.088.089a1.459,1.459,0,0,1,.345.274c.087.092.285,0,.409-.023s-.249-.127-.369-.2a2.247,2.247,0,0,1-.429-.465c-.077-.092.038-.238.032-.358-.007-.168-.258-.3-.3-.494-.016-.072.122-.087.187-.125.1-.058-.135-.424.129-.3a3.071,3.071,0,0,1,.395.362c.1.09-.006.334.119.429.251.223.408.532.693.72.064.042-.023-.151-.034-.226a.349.349,0,0,0-.131-.367,4.171,4.171,0,0,1-.716-.943,1.14,1.14,0,0,1-.221-.409c-.069-.294-.423-.461-.384-.792a.163.163,0,0,1,.231-.1c.052.039.052.158.052.158.009.035.032.1.042.139s.066.057.088.075a.506.506,0,0,0,.254.3c.075.035.124-.148.341-.143a1.781,1.781,0,0,0,.766-.331c.08-.087-.278-.193-.393-.323-.052-.057-.189.038-.28,0s-.149-.057-.149-.142a.279.279,0,0,1,.3-.223c.12.027.115.238.2.247.061.006.129-.062.229-.135.123-.09.149-.293.261-.4.144-.131.29-.175.417-.285.065-.057.258.09.393.086.039,0-.053-.323-.067-.483,0-.046.194-.367.441-.349.2.016.249-.623.551-.914.243-.235.423-.676.778-.777a1.282,1.282,0,0,0,.58-.345,1.243,1.243,0,0,1,.6-.237c.12-.017.041.176.088.232.025.03.317-.242.519-.2.046.01,0,.184-.008.277,0,.051.229-.113.344-.215a.626.626,0,0,1,.67-.049c.076.042-.1.133-.08.21s.908-.062,1.277.13c.064.033.077.145.115.206s.211.128.124.236c-.14.315-.522.444-.624.78a.439.439,0,0,0-.054.247c0,.115.113.17.128.221.059.208-.182.377-.352.5-.048.045-.1.061-.127.138a.126.126,0,0,0,0,.121c.07.061.37.026.393.035.152.061-.1.125-.121.2,0,.016.077.127.037.164a2.15,2.15,0,0,0-.751,1.1,5.58,5.58,0,0,1-.674,1.381c-.1.2-.2.176-.287.315-.159.258-.372.246-.487.4a6.942,6.942,0,0,1-.95.708,1.969,1.969,0,0,1-1.032.317,3.889,3.889,0,0,1-.716-.042c-.26-.013-.513.074-.771.079-.173-.021-.353.188-.251.344a5.364,5.364,0,0,1,.424,1.26c.091.309-.087.469-.012.686a3.448,3.448,0,0,1,.024.842c-.077.232.01.482-.111.7-.137.318-.02.673-.172.984a7.723,7.723,0,0,1-.369,1.241c-.131.229-.032.363-.087.609-.073.327.118.594.046,1.037-.041.257.109.538.074.877a.99.99,0,0,1-.094.251c-.041.106-.192-.138-.206-.258a6.7,6.7,0,0,0-.489-1.03,2.254,2.254,0,0,0-.331-.552c-.062-.067-.1.016-.172.069-.2.151.1.493.157.736.027.109-.185.141-.231.242s.185.391.261.6c.1.291.564.542.609.739.041.175.219.41.3.665.045.124.114.153.2.25.073.081.3.036.349.062.2.1.18.4.346.6.1.128-.43.24-.676.252-.187.025-.379.007-.562.049-.152.035-.224.207-.319.325-.056.07-.156.1-.2.179a1.842,1.842,0,0,0-.244.9,1.3,1.3,0,0,0,.112.72c.085.153.292-.452.419-.3a1.067,1.067,0,0,1,.1.544c-.008.12-.134.2-.209.286-.089.11-.058.278-.049.42.006.1.116.131.188.18s.118-.171.192-.244c.129-.128.354-.045.529-.038s.234-.245.375-.34c.24-.146.512-.227.764-.349.194-.09.313-.279.5-.387a1.234,1.234,0,0,0,.51-.5c.226-.457.706-.716.962-1.153.158-.286.338-.56.486-.852a.132.132,0,0,1,.252-.034c.05.221-.068.439-.04.664a10.131,10.131,0,0,1-.262,1.232c-.062.506-.263,1.067-.287,1.26a3.2,3.2,0,0,1-.411.995c-.133.308-.412.54-.475.878-.029.152-.123.387.009.533.232.256.208.672.489.972.148.218.422.381.506.614.054.15-.686-.13-1.01-.245a11.363,11.363,0,0,0-1.5-.554,1.818,1.818,0,0,1-.48-.231c-.184-.12-.426-.027-.614-.134a2.477,2.477,0,0,0-.552-.307c-.129-.026-.234.154-.274.1a.291.291,0,0,1-.059-.182c-.008-.094-.156-.1-.236-.154a2.008,2.008,0,0,0-1.069-.305c-.083.02.075.266.168.368.12.132.347.1.487.219a.993.993,0,0,0,.386.26,1.386,1.386,0,0,1,.453.231c.127.094-.276.537-.367.847-.021.07.255.095.336.215.193.268.608.4.586.788-.182.049-.386.1-.532-.05a.67.67,0,0,0-.3-.4,1.016,1.016,0,0,0-.422.032c-.1.013-.246-.146-.238-.193.044-.3.211-.159.391-.116.149.035-.1-.174-.206-.285-.085-.139-.046-.308-.163-.428a.394.394,0,0,0-.579,0c-.036.053.066.209.111.322s-.424-.013-.561.133c-.064.068.322.366.287.642-.007.055.259.164.387.241.162.1-.541.117-.474-.241.012-.063-.381-.064-.341.139a1.79,1.79,0,0,1,.228.3c.042.157.059.318.088.477.01.056.059-.042.1-.079.1-.077-.046-.207-.09-.321-.054-.139.246-.027.381.036.09.042-.051.164-.1.252-.056.114.355-.138.542-.213.054-.021.077-.21.113-.316.019-.057.124-.005.184.014s-.048.181-.075.272c-.012.039-.112.051-.149.068l-.031.064c-.007.117.3.21.467.213.1,0,.406-.388.673-.475a.634.634,0,0,1,.55.47c.045.114-.313.159-.468.243-.059.032.045.35.112.514,0,.2.047.4.062.6-.03.292-.217.563-.168.864.039.236.143.458.2.69.019.07.1.026.17.016.124-.018-.031-.277-.052-.4-.031-.171.113-.328.168-.493.023-.073.106,0,.184-.011.14-.016.073-.3.058-.439s-.1-.24-.139-.365a.7.7,0,0,1,.114-.477c.086-.107.343-.062.51-.112.179.028.446-.095.548.1a.211.211,0,0,1-.077.292c-.107.014-.215.009-.322.013-.214.006-.062.422-.108.63-.035.157.294.138.439.212.1.053-.058-.22-.047-.332.246-.17.585.058.831-.125.173-.192.18-.491.379-.664.136-.033.28-.022.415-.063.158-.056.4-.187.419-.264a.149.149,0,0,0-.005-.1c-.016-.044-.261,0-.357-.048-.169-.086-.262-.285-.407-.439-.214-.311-.708-.225-.881-.581-.081-.031-.163-.059-.243-.087-.041-.015-.042-.146.04-.169a.736.736,0,0,1,.637.185,1.721,1.721,0,0,1,.529.136,2.911,2.911,0,0,1,1.079.176c.118.055.238-.022.355-.049a1.8,1.8,0,0,1,.743-.015c.137-.018.176.127.247.212.052.106.2.063.292.093.049.015.02-.149.027-.2s.12-.006.182-.008.014.1.008.176c0,.05-.084.025-.112.063-.049.066-.058.361-.244.413a1.522,1.522,0,0,1-.693.184.834.834,0,0,0-.386.015c-.049.023.014.251.143.275.431.036.788-.24,1.221-.269.092-.006.143.316.046.464-.1.1-.209.17-.307.263-.074.069.18.091.273.133.071.032-.066.139-.091.212-.04.115.222.223.331.106s-.112-.276-.184-.4c-.041-.073.167-.054.232-.109a.878.878,0,0,0,.165-.779.7.7,0,0,1-.148-.147c-.078-.133.305-.31.506-.393s-.018.446.1.64c.155.22-.11.4-.252.54-.067.064.076.118.148.18.1.088.426-.092.747-.053.106.013.248-.31.369-.468.063-.095.156.019.227.045a.334.334,0,0,0,.4-.019c.071-.052.033-.313.1-.45.057-.113.271.17.435.149a.785.785,0,0,1,.456.131.043.043,0,0,0,.027-.068c-.05-.092-.165-.13-.238-.2.016-.118.089-.127.172-.194s.189.061.272.136.224-.058.325-.11l.175-.236a2.3,2.3,0,0,1,.078-.34c.065-.187.4.061.6,0a1.081,1.081,0,0,0,.2-.374c.105-.209.457.044.683.085a1.487,1.487,0,0,1,.426-.453,2.265,2.265,0,0,1,.422-.053c.137-.015-.059-.265-.085-.4-.019-.095-.2.013-.288.045s-.154.161-.265.162c-.089-.067-.022-.154-.026-.244s.119-.136.192-.161c.118-.04.3.026.427-.049a.064.064,0,0,0,.018-.014c.018-.019-.012-.051.01-.067s.04.015.054,0-.006-.028,0-.041c.038-.049.109-.033.147-.045a.6.6,0,0,0,.137-.1.633.633,0,0,1,.063-.072c.266-.2.383-.061.545-.246a1.388,1.388,0,0,1,.57-.378c.115-.055.272.047.213.177a.85.85,0,0,0-.209.391,5.812,5.812,0,0,1-.746,1.386,3.008,3.008,0,0,0-.465.47,7.312,7.312,0,0,1-.69.855c-.2.227-.451.4-.648.624a.919.919,0,0,0-.209.227c-.218.331-.609.484-.862.784-.27.189-.533.39-.785.6-.2.177-.476.228-.669.411a1.6,1.6,0,0,1-.536.3c-.436.244-.842.54-1.3.741-.3.161-.641.245-.931.434-.23.106-.435.328-.689.325a2.469,2.469,0,0,0-.843.252c-.12.059-.27-.089-.4-.021-.264.1-.676.22-.743.512a1.041,1.041,0,0,0-.015.33c.007.147.178-.023.291.134a.951.951,0,0,1,.318.82c-.09.375-.461.548-.744.764-.244.175-.216.5-.281.765a1.519,1.519,0,0,1-.5.691,5.327,5.327,0,0,1-.92.655c-.067.041-.116.107-.186.142a4.774,4.774,0,0,1-1.711.488,2.414,2.414,0,0,1-.479.075,1.411,1.411,0,0,1-.682-.018,7.467,7.467,0,0,0-.921-.185c-.1-.023-.159.015-.253.009-.075,0-.127-.113-.214-.106a3.36,3.36,0,0,1-.658-.106c-.536-.088-1.077-.16-1.607-.284a11.379,11.379,0,0,1-1.614-.867,1.156,1.156,0,0,1-.51-.487c-.054-.109-.153-.124-.209-.231-.076-.146-.4-.13-.559-.43-.126-.244-.077-.461-.212-.627-.052-.063-.216-.126-.214-.31s-.566-.65-.817-.93a3.407,3.407,0,0,1-.663-1.1c-.079-.238-.265-.418-.353-.651a3.338,3.338,0,0,0-.276-.655c-.128-.168-.225-.491-.363-.511-.105-.016-.242.5-.326.757a2.13,2.13,0,0,0-.16.911,3.34,3.34,0,0,0,.585,1.75c.152.271.6.2,1.018.746.235.308.206.742.326,1.108.071.218-.228.345-.408.424a1.414,1.414,0,0,1-.68.08c-.22-.022-.433.052-.652.044-.237,0-.472-.049-.708-.038-.469.066-.941-.062-1.413-.023-.319.039-.63-.08-.95-.066-.53-.088-1.07,0-1.6-.085-.749.013-1.495-.108-2.244-.077a10.379,10.379,0,0,1-2.07.183,5.451,5.451,0,0,1-2-.287.654.654,0,0,1-.314-.157,2.462,2.462,0,0,1-.111-.287,3.767,3.767,0,0,0-.335-.622c-.063-.243-.279-.355-.338-.594-.041-.167-.551-.369-.59-.72a5.742,5.742,0,0,1-.034-.927,7.169,7.169,0,0,1,.087-.737,1.11,1.11,0,0,1,.109-.341c.085-.212.194-.3.281-.514.038-.093.028-.18.087-.243a.474.474,0,0,0,0-.581c-.151-.368-.262-.75-.415-1.116a5.694,5.694,0,0,1-.181-.649c-.009-.527-.3-1-.322-1.523a7.14,7.14,0,0,1-.216-1.41c.006-.133-.1-.3-.173-.3a.183.183,0,0,0-.156.116c-.036.1-.049.118-.017.211.085.246-.011.507.04.759.036.168.067.337.093.507.01.255.071.575.079.76.009.224.139.323.152.655.034.274.079.546.112.82a.364.364,0,0,1,.077.169,7.731,7.731,0,0,0,.236.995,8.5,8.5,0,0,1,.063,1.3,3.231,3.231,0,0,1-.038.482C113.505,130.34,113.456,130.6,113.456,130.6Zm21.722-18.784c.031-.108.227-.049.342-.03a3.331,3.331,0,0,1,.392.527c.064.1-.036.242.009.357a1.5,1.5,0,0,0,.3.24c.175.136-.254.256-.332.473-.085.233-.359-.357-.44-.594a2.869,2.869,0,0,0-.24-.38A.872.872,0,0,1,135.178,111.82Zm-9.259-19.359c.009-.117.19.139.287.207,0,0,.005.139-.04.117-.086-.042-.178-.069-.261-.115C125.843,92.637,125.914,92.531,125.919,92.462Zm3.2,2.253c.363.019.987-.083,1.1.026.063.063.1.419.251.583.062.07-.057.059-.1.084-.146.08-.282-.04-.423-.057-.034,0-.07.077-.1.09-.227.09-.623-.062-.879.129-.118.089.381-.012.447.024s.044.106.095.123a2.125,2.125,0,0,0,.8-.034c.208-.048.639-.038.616.1,0,.023-.111.081-.14.154s.433.068.471.24c.013.061-.187.179-.23.315s.187,0,.291-.01c.061-.007.121-.011.182-.015.03,0,.089.043.077.086s-.066.035-.088.046a.582.582,0,0,0-.207.178c-.047.057.524.277.8.407.073.034-.046.154-.068.231.042.068.089.137.126.209s-.115.087-.175.124-.033-.158-.048-.237c-.007-.042-.129,0-.171-.005-.16-.007-.183-.23-.325-.3s-.22-.241-.332-.344a.682.682,0,0,0-.562.136c-.084.176.022.3.109.44.057.092.246-.011.358.017a.093.093,0,0,1,.008.106c-.028.039-.132.012-.235.033-.086.017.174.2.313.144a1.519,1.519,0,0,1,.539-.025c.168.032-.248.217-.652.2a4.961,4.961,0,0,0-.51.043c-.151.015.254.173.4.224.126.045.264-.036.4-.038a3.034,3.034,0,0,1,.492.14c.158.05-.164.3-.31.377-.168.092-.51-.112-.772-.126a11.752,11.752,0,0,1-1.295-.076c-.106-.014.148-.151.229-.219.041-.033-.111-.026-.145-.067s-.023-.132-.077-.191a2.914,2.914,0,0,0-.464-.1c-.193-.047.156-.364.274-.523.051-.069-.17-.075-.256-.039a3.715,3.715,0,0,1-.82.266c-.082,0,.066-.148.11-.218a1.744,1.744,0,0,1,.308-.035c.1-.006.093-.2.161-.267.138-.139-.4-.047-.588.018-.065.023-.086.226-.137.336-.069.149-.483-.456-.586-.769-.061-.187.38.111.559.2.041.021.208-.234.153-.376a1.786,1.786,0,0,0-.193-.144c-.112-.08.024-.273.015-.41a3.344,3.344,0,0,0-.178-.38.437.437,0,0,1-.189-.085c-.052-.051.109-.151.109-.151.3-.03.622.118.906-.015.13-.061-.01-.272,0-.408A.835.835,0,0,1,129.12,94.715Zm-9.884.079c.032,0,.142-.038.127-.011-.087.152-.584.7-.528.51.031-.106.03-.248.152-.293.041-.015.07,0,.111-.014C119.184,94.951,119.2,94.862,119.236,94.794Zm10.471.156c.009-.16.22.075.225.21,0,.032-.094.019-.125.026a.252.252,0,0,1-.108-.082C129.671,95.051,129.7,95,129.707,94.95ZM130.1,96.3c-.036-.044.162-.073.285-.076,0,0,.066.152.01.145A.583.583,0,0,1,130.1,96.3Zm-7.566.59a.6.6,0,0,0,.5-.044.461.461,0,0,1-.285.37,3.09,3.09,0,0,0,.013.369c.008.083.16.116.15.2-.008.063-.221-.1-.326-.144s-.193.025-.3.058c-.134.039-.038.273-.108.395-.049.083.086.171.121.26.049.13-.264-.08-.392-.127-.09-.033-.054-.188-.042-.284a1.179,1.179,0,0,1,.451-.694A1.248,1.248,0,0,0,122.536,96.894Zm-8.484,1c.008-.1.156-.019.251.011.079.025-.1.085-.181.111C114.07,98.033,114.048,97.949,114.052,97.895Zm5.788.751c.037-.076.147.1.2.164a3.154,3.154,0,0,1-.162.943c-.069.176.052.32.106.482.023.07-.132.1-.186.152-.221.2.3.258.464.176.095-.048-.124-.089-.226-.117-.148-.041.145-.128.264-.078s.025.321.069.484c.035.131-.442.236-.617.415-.139.143-.346.13-.5.233s.161-.295.246-.455c.071-.135-.266-.286-.377-.152.057.072.279.164.181.21a.148.148,0,0,1-.107.008c-.1-.02-.09-.153-.163-.2-.117-.069-.558.165-.921.142a1.055,1.055,0,0,0-.167-.017,1.437,1.437,0,0,0-.839.379c-.183.208-.486.176-.726.274-.065.027-.058-.128-.086-.192-.044-.1-.219.014-.328.021-.048,0-.054.079-.081.117-.052.074-.2-.012-.268.063a3.07,3.07,0,0,0-.062.348,1.431,1.431,0,0,0-.441.124c-.086.041-.082-.154-.107-.245s-.151-.134-.229-.2.11-.141.074-.231a.622.622,0,0,0-.7.144c-.245.156-.107.5-.3.7-.065.07-.169,0-.194-.059a1.079,1.079,0,0,1,.206-.679,7.432,7.432,0,0,0,.579-1.175c.046-.144.155.045.2.1.115.136.063.384.176.542.067.1-.225.154-.175.293.167.112.311-.044.44-.138.147-.107.453-.022.679.011.092.029.088-.176.161-.138.03.016.027.048.055.068.229.166.635-.1.95-.162.14-.021.22-.142.307-.239s.255-.02.361-.095c.125-.069.182-.209.294-.291.194-.114.429-.063.64-.109a2.329,2.329,0,0,0,.75-.386c.123-.053.144-.129.193-.239s.243-.066.326-.149a.883.883,0,0,0-.091-.3c-.018-.054.08-.113.084-.17A1.1,1.1,0,0,1,119.841,98.646Zm21.667,1.923c0-.109.157.154.234.233.058.06-.152.068-.229.1C141.41,100.949,141.507,100.68,141.507,100.568ZM114.4,102.435c.03-.135.243-.129.372-.178s.223.182.376.143c.241-.061.379.328.482.561.032.1.141.1.225.13.116.036.066-.231.135-.331s.089.176.112.288c.027.133-.274.153-.184.327.094.02.184-.09.268-.055.048.02.106.147.162.219.134.169.007-.379-.041-.558-.109-.41.766.179.758.546,0,.059-.072,0-.115-.018-.107-.038-.122-.151-.2-.209s-.072.205-.1.309c-.066.226-.385.264-.612.333-.124.037,0,.251.027.374.046.242-.364.365-.4.623-.014.115.2.369.264.569.024.079-.134.107-.215.129-.118.031.041-.452-.137-.6-.186,0-.269.2-.41.29a2.024,2.024,0,0,1-.274-.054c-.1-.025-.135.162-.2.247-.047.063.123.1.185.149.121.1.091.294.132.442.065.233-.594-.418-.686-.246a3.416,3.416,0,0,0-.1.811c-.065.2-.282.247-.46.295-.108.1.023.227.047.332.032.139-.093.27-.138.4-.051.153-.309.1-.455.173s-.073.261-.1.392c-.039.207-.428.081-.593.23-.116.1.045.307.066.461.009.072-.132.061-.2.091-.2.093.3.185.409.338.06.084-.206.028-.309.038-.08.008-.075-.14-.12-.205s-.157.047-.234.074a.363.363,0,0,1-.394-.176c-.049-.081.192-.007.287-.007s.139-.12.207-.179c.149-.13-.228-.341-.248-.542-.009-.091.127-.131.193-.194.049-.046-.1-.094-.144-.141-.071-.071.072-.187.081-.287.015-.159-.283-.161-.382-.291,0,0,.006-.121.083-.154a.84.84,0,0,1,.151-.024c.126-.02.085-.24.084-.367a2,2,0,0,1,.121-.464,2.553,2.553,0,0,1-.018-.6c0-.22.256-.321.294-.528a6.452,6.452,0,0,1,.138-.642c.039-.136.543-.321.635-.2.04.053-.016.232-.022.348-.008.161-.158.285-.205.442-.02.064.077.113.122.164.126.142.285-.25.413-.389.1-.109-.124-.286-.046-.428a1.346,1.346,0,0,0,.157-1.113c-.042-.1-.209.012-.311-.025a1.468,1.468,0,0,1-.16-.2c-.06-.079.18-.122.286-.1s.149.135.224.2.046-.211.082-.313c.062-.027.122-.081.188-.07.133.022.378.322.6.22a.393.393,0,0,0,.28-.37.291.291,0,0,0-.315-.2.621.621,0,0,0-.006.3c.008.1-.27.054-.3-.086.04-.082.087-.159.133-.236S114.384,102.508,114.4,102.435Zm27.855-.06c.111-.094.018.2-.025.271-.025.04-.08,0-.117-.03C142.027,102.547,142.127,102.485,142.254,102.375Zm-28.744.454a1.147,1.147,0,0,1,.263-.228c.132-.1-.075.381-.237.436C113.456,103.065,113.471,102.887,113.51,102.829Zm7.778-.109a.108.108,0,0,1,.166-.032.138.138,0,0,1,0,.115C121.417,102.87,121.27,102.808,121.288,102.72Zm1.122.35c-.014-.067.421-.229.425-.1,0,.093-.143.214-.223.314C122.551,103.362,122.43,103.166,122.41,103.07Zm.253.271a.543.543,0,0,1,.307-.223c.094-.031.088.12.123.216.063.173-.134.2-.138.36,0,.112-.317-.2-.362-.047-.066.224.41.407.612.606.107.106-.115.085-.228.032-.187-.087-.255.292-.38.454s.356.222.542.078c.158-.123.268.084.419.091a.353.353,0,0,0,.133-.085c.077-.086-.028-.227.054-.308s.089.2.047.323c-.061.176.255.016.428-.062.091-.041.08.176.087.276.005.069-.072.078-.113.175-.017.04.1.086.134.115.116.1-.3.119-.451.046-.274-.116-.561-.2-.845-.286-.157-.047-.31.084-.464.025-.172-.066-.086-.474-.164-.735-.039-.129.173-.127.3-.13.1,0,.031-.21-.031-.292s-.322-.111-.427-.277S122.567,103.508,122.663,103.341Zm-1.335.054c.213-.091.57-.1.64.171.031.119-.161.182-.305.211s.175-.191.151-.283c-.035-.138-.2-.014-.323.028C121.417,103.517,121.324,103.485,121.328,103.4Zm.388.713a.366.366,0,0,1,.416-.1c.162.06-.362.227-.536.35-.059.042-.028.14-.037.211s-.157-.025-.227-.113C121.2,104.3,121.628,104.27,121.717,104.109Zm1.173.572c-.114.008.087-.188.189-.24.053-.027.035.135.042.221S122.967,104.674,122.89,104.68Zm-1.26-.028c-.014-.179.263.247.355.4s-.38-.121-.563-.018c-.1.056-.061-.124-.08-.18-.034-.1.137.041.239.07S121.638,104.748,121.63,104.653Zm8.724.5a.55.55,0,0,1,.394-.242c.027.057.054.114.08.172A.878.878,0,0,1,130.354,105.155Zm-8.624.116c.006-.064.11-.068.146-.023.054.069.132.223.066.229A.186.186,0,0,1,121.731,105.27Zm.581.012c.026-.057.015-.1.158-.03.088.046.108.168.138.262S122.272,105.37,122.311,105.283Zm-6.037.334c-.02-.091.176.064.266.094a.193.193,0,0,1,.037.108c-.008.072-.1.023-.153.035C116.333,105.875,116.3,105.747,116.274,105.616Zm5.286.2c-.008-.112.129-.067.2-.09.136-.046.172.229.247.351C122.1,106.226,121.676,105.947,121.56,105.817Zm7.865.313a1.363,1.363,0,0,0,.846-.33c.084-.066.2.1.273.176.03.033-.018.174-.106.2a1.489,1.489,0,0,1-.605.07c-.419-.013-.727.255-.9.127-.045-.032.072-.209.012-.24-.04-.021-.09.068-.114.023-.035-.065-.028-.17.017-.185C128.924,105.951,129.2,106.1,129.424,106.13Zm-7.114.045c-.131.02.135-.222.256-.279.075-.036-.034.16-.059.238S122.376,106.165,122.31,106.175Zm-6.526-.037c-.171-.083.306-.153.442-.065.032.02-.007.113-.055.125A.584.584,0,0,1,115.784,106.138Zm17.993.277c-.037-.135.234-.164.369-.21.073-.025.153.049.206.106.079.084-.232-.039-.3.06C133.982,106.447,133.826,106.593,133.777,106.415Zm-12.274-.076c-.01-.1.208.038.312.059.18.038-.161.152-.29.152C121.454,106.55,121.51,106.409,121.5,106.339Zm1.3-.027c-.007-.112.161.16.237.245.049.054-.14.041-.209.061C122.735,106.646,122.812,106.413,122.807,106.312Zm-16.126.639c-.1-.043.165-.135.26-.181s.178.082.265.126c.07.036-.091.128-.143.187C106.973,107.188,106.8,107.007,106.681,106.952Zm-.612.464c-.122-.187.165-.489.442-.468.237.017-.326.3-.29.549C106.23,107.561,106.129,107.507,106.069,107.415Zm.7.18c-.048-.021.023-.129.1-.123a1.128,1.128,0,0,1,.208.14C107.152,107.676,106.921,107.661,106.767,107.595Zm22.646.155a.891.891,0,0,1,.476-.1c.089.067.214.117.249.223s-.845.256-1.274.129C128.667,107.943,129.225,107.824,129.413,107.75Zm8.419,1.519a.113.113,0,0,1,.2-.076c.048.076-.009.18-.02.269S137.888,109.336,137.832,109.269Zm-26.816.372c.039-.09.115-.06.2-.073.125-.021.1.178.186.269s.264-.1.39-.16c.053-.025.1.064.131.112.063.085.188.1.283.144s-.156.093-.235.139c-.1.057-.191-.121-.3-.162-.116.015-.2.131-.336.1a.579.579,0,0,1-.093-.032c-.02-.008-.048-.042-.08-.031s-.061.1-.019.114c.068.026.158.051.158.051a.281.281,0,0,1,.031.2c-.025.129-.256.188-.15.327.09.164.265.05.38-.013.21-.011.028.184-.049.246-.106.028-.243.012-.313.112a1.335,1.335,0,0,1-.473.358c-.254.12.081-.551.108-.828A2.091,2.091,0,0,1,111.016,109.641Zm16.34-.037c-.016-.063.187-.053.25-.07.095-.025.14.137.2.213.043.051-.019.1-.127.153-.089.045-.1-.058-.187-.171C127.473,109.7,127.379,109.691,127.356,109.6Zm7.433.772a3.058,3.058,0,0,0,.228-.25c.053-.055.161,0,.221.071a.369.369,0,0,1,.054.132.875.875,0,0,0-.035.355,2.5,2.5,0,0,0,.3.286c.077.068-.195.12-.178.242a.318.318,0,0,1-.394.332,1.442,1.442,0,0,1-.522-.975C134.465,110.4,134.677,110.428,134.789,110.376Zm-22.334,1.342c.021-.134.448-.018.358.2-.048.118-.25.061-.371.1-.063.022-.052.121-.071.184-.037.12.252-.027.377-.049s.041.23.072.344-.2-.081-.3-.116,0,.242.005.364c0,.224-.327-.286-.557-.3-.1-.005-.042.21-.1.3-.074.108-.251.09-.35.18-.125.112-.178.295-.319.385-.032.021-.1.017-.1-.021.006-.185.194-.326.282-.495a1.11,1.11,0,0,1,.3-.352c.132-.108.149-.3.285-.408C112.129,111.911,112.415,111.979,112.454,111.718Zm14.221.521a.137.137,0,0,1,.086-.225.254.254,0,0,1,.171.237C126.946,112.335,126.76,112.251,126.676,112.239Zm4.129.3a.081.081,0,0,1,.124,0,.077.077,0,0,1-.018.1c-.028.026-.059.017-.1.012C130.693,112.635,130.776,112.569,130.8,112.536Zm-3.212.637c.1-.026.2-.05.3-.069s-.151.189-.26.212C127.5,113.342,127.593,113.173,127.593,113.173Zm.919-.033c.038-.134.25.122.324.244a.479.479,0,0,1-.448.162C128.246,113.53,128.473,113.276,128.512,113.139Zm3.035.81c.216-.111.336-.334.536-.465s.29.2.26.369a1.963,1.963,0,0,0,.147.833c.03.094-.166.108-.251.16s-.028-.191-.054-.285c-.049-.169-.273-.228-.4-.355-.04-.041-.088.071-.127.113a.439.439,0,0,1-.459.183c-.277-.115-.588.165-.831-.063-.074-.069.179-.1.269-.147.035-.019.02-.117.027-.155.019-.1.2.068.3.092C131.194,114.222,131.355,114.048,131.547,113.949Zm-3.352-.072c.142-.145.411.051.619.022,0,.1-.043.285-.165.291a2.6,2.6,0,0,0-.486-.19C128.085,113.98,128.14,113.934,128.194,113.877Zm1.689.363c-.1-.134.3-.164.464-.218.058-.019.058.2-.018.282a.312.312,0,0,1-.311.091C129.952,114.377,129.926,114.294,129.883,114.24Zm-7.333.275c-.036.076-.071.153-.105.23-.092.128-.161.27-.253.4-.084.059-.2.027-.292.039C122,114.865,122.354,114.756,122.55,114.515Zm9.609,1.064c-.012-.172.267-.435.415-.308s.224,1.149.451,1.69c.084.2.1.416.172.621.053.161.192.281.253.442.137.355.358.67.509,1.019a.136.136,0,0,1-.024.161c-.219.044-.495.076-.646-.125-.051-.066.163-.04.245-.06.123-.029.034-.257-.053-.361-.05-.06-.127.106-.209.115-.136.016-.219-.17-.353-.205-.193-.055-.426-.071-.543-.257a.41.41,0,0,0-.392-.174c-.113.007-.19.125-.291.176-.161.08-.722-.221-1.1-.226-.254-.022-.268.311-.491.36a1.094,1.094,0,0,1-.855-.136c-.039-.027.008-.138.01-.185.008-.168.34-.008.51-.018.126-.008-.09-.232-.15-.341-.049-.089.053-.2.091-.291.054-.133.15.2.143.334-.007.151.242.008.38-.058.071-.034-.076-.173,0-.23.315-.226.763-.241,1.024-.546.064-.076.2-.027.3-.055.132-.039.153-.228.247-.328s-.007-.249.022-.368c.091-.165.322-.169.427-.322A2.136,2.136,0,0,1,132.159,115.579Zm-13.006.111c.1-.035.222-.082.254.01.018.05.028.134-.026.134-.121,0-.177.053-.221-.021C119.136,115.771,119.107,115.706,119.153,115.69Zm-4.726.535c-.126-.07.267-.074.387,0a.878.878,0,0,1,.269.377c.054.1.215-.047.323-.073.067-.017.173.081.1.164-.169.195-.5.025-.73-.058C114.6,116.572,114.593,116.316,114.427,116.225Zm11.8,2.067c-.175.019.187-.324.383-.314.094,0,.013.218-.088.271A1.031,1.031,0,0,1,126.226,118.292Zm2.94.382c-.056-.1.487.042.726-.016a1.083,1.083,0,0,1,.491-.019c.116.023-.1.111-.054.165s.1.072.138.03,0-.1,0-.1c.009-.027.078-.072.09-.01.054.315.46.288.664.466.161.141-.4.148-.617.18-.147.022-.209-.209-.3-.322a.093.093,0,0,0-.162.072c.022.33.463.261.556.554.107.335-.695-.059-1.023-.179-.094-.035.028-.2.032-.3s-.225-.03-.336-.045.16-.146.241-.219C129.45,118.873,129.267,118.846,129.166,118.674Zm-4.8.375c.05-.08.1,0,.133.006.092,0-.06.16-.16.22C124.271,119.315,124.325,119.114,124.364,119.049Zm1.141.144c-.066-.042.153-.03.231-.027s.113.164.067.184C125.7,119.4,125.6,119.253,125.506,119.193Zm.3.259c.063-.144.348-.121.455-.079.088.035.072.2,0,.243-.2.112-.113.386-.226.56-.038.064-.1.174-.187.1a.863.863,0,0,1-.19-.444C125.623,119.7,125.75,119.575,125.8,119.451Zm8.272.063c.023-.07.078-.07.076-.008a.4.4,0,0,1-.108.318C133.968,119.884,134.063,119.557,134.077,119.515Zm-5.038.089c.084-.088.276.04.328.174.081.215.285.388.27.634.017.106.008.307-.15.277-.192.012-.489-.167-.566.1-.1.191.143.284.219.431.177.292.472.572.469.913,0,.122-.266-.192-.377-.47-.054-.133-.146-.123-.316-.13-.106,0-.017.209,0,.313.032.2.246.31.357.475a3.881,3.881,0,0,0,.616.469c.151.108.375.049.487.206.076.108-.145.16-.245.189-.278.08-.575-.151-.758-.386a5,5,0,0,0-.448-.551c-.086-.092-.21-.045-.31-.058-.077-.011-.11-.118-.113-.2,0-.1.174-.1.264-.146s0-.187,0-.28c0-.044-.192-.086-.309-.032a.536.536,0,0,0-.122.177c-.049.11-.075-.231-.077-.352s.151-.224.134-.359a1.184,1.184,0,0,1,.346-.917C128.861,119.942,128.9,119.743,129.038,119.6Zm-13.6.118c.056.032.155.051.126.109a.086.086,0,0,1-.112.042C115.393,119.849,115.382,119.692,115.433,119.721Zm17.061.671c-.085-.007.094-.125.166-.177s.081.167,0,.187A.759.759,0,0,1,132.495,120.393Zm-5.028,0c.049-.12.26-.006.39,0,.158.006-.231.206-.34.319-.045.046-.013.137-.01.182s-.206.079-.2.011A2.209,2.209,0,0,1,127.466,120.4Zm-12.189.426c-.085-.144.3-.141.457-.2.108-.043-.113.2-.18.3C115.5,121,115.332,120.912,115.278,120.821Zm7.409,1.488a8.828,8.828,0,0,0,.935-.5.17.17,0,0,1,.265.125,1.787,1.787,0,0,1-.092.42c-.078.328-.273.613-.334.948a5.648,5.648,0,0,1-.494.761c-.076.185-.1.387-.182.57-.1.355-.382.62-.476.976a3.486,3.486,0,0,0-.139.67c-.017.256-.1.5-.119.757-.011.145-.192.245-.192.39,0,.161.077.292.081.442a1.949,1.949,0,0,0,.014.473,1.484,1.484,0,0,1,.075.584c-.064.485-.02.977-.075,1.463a2.448,2.448,0,0,1-.041.59c-.086.268-.065.56-.168.824a2.237,2.237,0,0,1-.212.266,1.015,1.015,0,0,0-.2.66,2.728,2.728,0,0,0-.124.667c.008.238-.414-.258-.492-.547a.673.673,0,0,1,.208-.572c.1-.11.013-.291.033-.435.1-.194,0-.281-.1-.415a1.782,1.782,0,0,1-.232-1.047c-.079-.317-.355-.534-.431-.851a5.166,5.166,0,0,0-.353-1.2,1.024,1.024,0,0,1-.3-.637,5.727,5.727,0,0,1,.194-1.514,9.951,9.951,0,0,1,.418-1.468c.111-.321.095-.651.175-.971a.987.987,0,0,1,.206-.667c.053-.053.178-.043.252-.049a1.569,1.569,0,0,0,.408-.157c.16-.053.323-.1.479-.164.119-.038.238-.073.356-.114.136-.064.271-.128.407-.191A2.145,2.145,0,0,0,122.687,122.309Zm13.974-.272a.192.192,0,0,1,.114,0c.122.087.269.154.322.316.01.034-.118.044-.171.031A.85.85,0,0,1,136.661,122.038Zm-5.336,4.841c.1-.083.23,0,.341.019.13.044.294.064.371.195.186.3.52.461.771.7a.578.578,0,0,1,.125.266c.04.11-.222-.069-.307-.15a2.66,2.66,0,0,0-.639-.538,1.255,1.255,0,0,1-.5.067c-.15,0-.1.285-.212.385-.139.124-.373.06-.556.031C130.491,127.819,131.024,127.132,131.325,126.879Zm12.871.175c-.045-.107.235-.009.352.013.063.1-.041.2-.144.182C144.279,127.271,144.235,127.142,144.2,127.054Zm-1.891.528c-.233-.037.278-.378.51-.489.172-.081.024.325-.079.453-.08.1-.072-.048-.126-.082C142.526,127.411,142.405,127.6,142.306,127.582Zm-2.719.5c-.215.143-.176-.416-.014-.551.12-.1.178.257.264.388C139.892,128,139.669,128.027,139.587,128.082Zm-6.133,1.012c-.131-.113.108-.12.177-.09.2,0,.519.329.431.311A4.115,4.115,0,0,1,133.454,129.094Zm-2.443.92c-.079-.068.2-.1.305-.076.084.023.248,0,.231.133a3.23,3.23,0,0,1-.35.106C131.117,130.2,131.074,130.067,131.011,130.014Zm.944.226c.24-.131.876.139,1.2.422.241.21-.61-.1-.854-.329-.093-.089-.326.137-.4.073C131.871,130.376,131.9,130.272,131.956,130.24Zm-.522.5c-.069-.183.4-.157.6-.108a1.279,1.279,0,0,1,.5.2c.066.044-.089.145-.073.227.076.1.182.175.259.274s.082.262.134.39c.043.108.182.143.27.218.118.1-.336.178-.473.057-.191-.15-.443-.2-.617-.375-.12-.122.423-.016.511-.072a.09.09,0,0,0-.012-.146.928.928,0,0,0-.747-.033c-.124.063-.268-.068-.4-.11-.252-.077.27-.332.489-.43C131.765,130.692,131.591,130.722,131.433,130.742Zm2.737.34c-.005-.107.161.141.233.223.048.054-.141-.01-.211-.019S134.175,131.149,134.171,131.082Zm1.668.107c.044-.116.144.107.144.212,0,.033-.1-.007-.136-.009C135.778,131.389,135.815,131.252,135.839,131.189Zm-5.088.463c-.1-.121-.031-.183.006-.309.053-.184.274.193.368.362C131.187,131.816,130.862,131.719,130.751,131.652Zm2.577.347c-.059-.065.173.033.259.053.034.007,0,.1,0,.138C133.589,132.3,133.4,132.079,133.328,132Zm-3.263,1.081c-.13-.122-.042-.37.146-.476.152-.087.181.262.292.4S130.173,133.182,130.065,133.081ZM119.508,99.862c.031-.037.125,0,.125,0a.156.156,0,0,1,0,.139c-.021.038-.109-.023-.109-.023S119.478,99.9,119.508,99.862Zm-4.613,2.641c.008-.13.273.065.264.216-.054.1-.182.077-.266.033S114.89,102.585,114.895,102.5Zm-.168.958c-.083.006.094-.18.193-.177s.077.1.109.151C115.08,103.521,114.828,103.455,114.727,103.461Zm.973.564a.509.509,0,0,1,.267-.367c.119-.059.013.285-.075.383C115.823,104.117,115.691,104.071,115.7,104.025Zm-1.227-.183c.013-.051.1-.025.135.016s-.011.1,0,.131-.087.034-.126,0S114.449,103.933,114.473,103.842Zm9.175,1.36c-.085,0-.034-.192.026-.251s.148.086.221.131c0,0,.03.1-.006.127C123.827,105.259,123.729,105.205,123.648,105.2Zm-9.7-.006c.037-.016.058.044.1.025s.063.118.017.115-.087.037-.124.005A.091.091,0,0,1,113.948,105.2Zm-1.235.548a.175.175,0,0,1,.223-.027.161.161,0,0,1,.029.184c-.041.124-.215.068-.325.1C112.555,106.02,112.641,105.808,112.713,105.744Zm1.327-.03c.019-.042.06.069.087.107s-.082.1-.132.113C113.921,105.951,113.991,105.824,114.04,105.714Zm11.072-13.785c.093.022.192-.158.274-.208s-.037.215-.069.308c-.023.066.057.111.129.113s.161-.068.251-.053c.071.012.307.217.515.216.083,0,.119.25.161.38.028.09.192-.218.3-.35.064-.081.223.014.319.057.1.1.162.23.262.33.085.085.3-.069.362-.008s.024.134.058.179a.913.913,0,0,0,.4.326c.131.04.275.486.544.586.092.034.042.127.06.208s.421.12.63.17c.1.023.127.154.208.214.043.032.037.11.049.162a1.581,1.581,0,0,1-1.042-.2c-.161-.009-.322-.028-.482-.04-.069,0-.023-.218-.022-.327,0-.091-.3.089-.442.165-.093.051-.171-.385-.195-.58-.014-.114.2.134.316.093.071-.025.189-.055.166-.153a.6.6,0,0,0-.542-.453,2.148,2.148,0,0,1-1.318.181c-.1,0,.008-.191.013-.286l-.1-.1c-.154-.039-.333-.061-.407-.223-.024-.054-.106.057-.157.085-.163.263-.517.268-.759.434-.092.063-.134-.2-.26-.21-.064.141-.073.317-.2.422a1.412,1.412,0,0,1-.765.383c-.144.031.144-.165.219-.291.026-.12-.074-.294.066-.367.193-.112.188-.358.3-.528.136-.086.327-.1.412-.251a1.2,1.2,0,0,1,.425-.419C124.895,91.827,124.99,91.9,125.112,91.929Zm1.492,27.766c.061-.111.069.169.092.235.038.113.113.156.166.264.061.126-.2.2-.307.287C126.355,120.653,126.5,119.881,126.6,119.695Zm6.092,11.224c-.124-.192.374.222.519.388.119.137.278.112.414.236.2.179-.518-.125-.726-.33A1.311,1.311,0,0,1,132.7,130.919ZM118.038,99.86l.09.037a.254.254,0,0,1,.009.142c-.037.087-.229.107-.233.072C117.892,100.008,118,99.853,118.038,99.86Zm-8.086.707c-.077-.034.07-.153.11-.227.055-.1.243.031.312.129a2.329,2.329,0,0,1,.037.255C110.434,100.884,110.1,100.633,109.952,100.567Zm-.229.312c.093-.142.339-.013.509-.022.108-.006-.031.215-.084.308-.031.055-.148.057-.208.132s-.048.153-.082.215c-.05.089-.136-.11-.206-.163l-.232-.032C109.245,101.291,109.627,101.027,109.724,100.879Zm-3.674,2.913c-.012-.082.17-.1.247-.059.1.045.138.248.154.39.013.118-.128.11-.232.169C106.062,104.38,106.075,103.969,106.049,103.792Zm29.587-1.216c0-.046.076-.016.118,0,.058.028.049.088.082.142.1.161.2.244.287.393.06.108-.231-.089-.346-.135s-.086-.239-.127-.359A.091.091,0,0,1,135.636,102.576Zm-1.68.5c-.215-.035.39-.117.595-.087.126.018.062.242.063.366C134.615,103.594,134.2,103.114,133.956,103.075Zm.4.37s.09-.028.114,0c.04.045,0,.127,0,.127-.049.014-.082.01-.1-.016A.7.7,0,0,1,134.353,103.445Zm-.425.142c-.006-.088.117-.031.225-.036.072,0-.049.146-.121.14A.11.11,0,0,1,133.928,103.587Zm.966.558a.107.107,0,0,1,.045-.162c.081-.046.13.109.073.165Zm.733.377c-.054-.077.188-.015.283-.019.033,0,0,.1,0,.129C135.9,104.734,135.691,104.614,135.626,104.522Zm-2.144.475c0-.061.123-.007.185-.01.16-.007-.076.238-.2.3C133.378,105.328,133.474,105.093,133.482,105Zm1.381.113c-.075-.046.121-.07.265-.02.036.013.014.111.018.148C135.159,105.34,134.952,105.164,134.863,105.11ZM123.817,91.083c.055-.048.43-.323.546-.249s0,.205-.075.3c-.114.154-.318.084-.472.141C123.754,91.3,123.768,91.125,123.817,91.083Zm-.939.314a1.031,1.031,0,0,1,.658-.219c.251,0-.254.326-.347.683-.157.042-.084-.152-.17-.216-.07-.052-.181-.012-.2-.1A.144.144,0,0,1,122.878,91.4Zm2.812.164a.293.293,0,0,1,.256-.03c.069.04.1.243.107.322.01.11-.236-.082-.344-.1C125.626,91.737,125.637,91.6,125.69,91.561Zm-3.147.464c-.075-.166.063-.326.244-.379.109-.031.049.234.078.344S122.643,92.039,122.544,92.024Zm-.359,1.172c-.048-.068.116-.142.157-.147,0,0,.056.1.022.147A.116.116,0,0,1,122.185,93.2Zm.732.728c-.006-.107.265-.08.391-.122.22-.074-.172.289-.361.287C122.879,94.088,122.92,93.99,122.916,93.924Zm-1.679.161c.015-.1.181-.1.272-.148.255-.133-.3.526-.605.574-.072.012.058-.133.089-.2l.19-.041A.288.288,0,0,0,121.237,94.085Zm3.994-.036.146.013c.053.05.026.088-.008.122s-.124.007-.124.007C125.19,94.163,125.234,94.084,125.23,94.049Zm-3.222.362a.109.109,0,0,1,.144,0,1.039,1.039,0,0,1-.121.309c-.034.047-.127.017-.111-.008C121.952,94.665,121.925,94.475,122.009,94.411Zm5.382-.01c.006-.121.189.125.18.252,0,.062-.125,0-.186,0C127.3,94.648,127.386,94.484,127.39,94.4Zm-.414.165a.112.112,0,0,1,.128-.01c.081.043-.088.129-.13.2S126.919,94.61,126.977,94.566Zm-3.33.381a.167.167,0,0,1,.174-.207s.048.106.016.161S123.647,94.948,123.647,94.948Zm1.438,0c.062-.083.177,0,.267,0s.027.173.039.259c.017.117-.3-.046-.336-.119A.129.129,0,0,1,125.085,94.952Zm2.363-.017a.13.13,0,0,1,.143.012c.086.063-.111.115-.167.216C127.388,95.229,127.368,94.975,127.448,94.935Zm-5.458.077c.04-.029.179-.022.181.077.012.055-.057.09-.089.133C122.038,95.285,121.989,95.078,121.991,95.012Zm3.842.057c.039-.036.11-.046.136,0s-.025.1-.025.1-.083.058-.121.028A.089.089,0,0,1,125.833,95.068Zm-4.68.014a.287.287,0,0,1,.237.165c0,.039-.223.017-.228,0C121.141,95.235,121.143,95.12,121.153,95.082Zm1.682.278c.057-.061.188-.009.156.08a.1.1,0,0,1-.161.04C122.8,95.462,122.835,95.36,122.835,95.36Zm.3.053a.579.579,0,0,1,.185-.011c.031,0,.016.1-.013.142a.242.242,0,0,1-.171-.01C123.107,95.482,123.116,95.47,123.132,95.413Zm.99.329a1.656,1.656,0,0,1,.333-.39c.121.019.111.17.1.26-.1.1-.2.195-.288.3C124.217,95.979,124.112,95.839,124.122,95.743Zm-4.491-.031.128-.017-.021.137-.12.007Zm.837,0c.02-.038.112-.062.11,0,0,.032.007.1.009.129-.024.02-.113.031-.115-.013S120.453,95.74,120.469,95.711Zm5.989.011c.008-.1.192-.018.289-.024.134-.008-.013.268-.088.382-.047.073-.147-.094-.22-.141S126.45,95.794,126.457,95.722Zm-3.981.306c.025-.066.32-.152.494-.168.147-.014-.3.271-.485.344C122.43,96.226,122.455,96.083,122.476,96.028Zm-1.193-.1c-.048-.124.261.065.394.08a1.679,1.679,0,0,0,.307-.091c.138-.038-.1.278-.245.332-.07.026-.057-.1-.1-.115C121.566,96.114,121.341,96.073,121.284,95.925ZM124,96.4c-.128-.1.157-.269.236-.4.039-.063.148.018.223.029s-.08.135-.109.207.116.064.175.094c.239.121.176.515.4.687.114.09.289-.03.435-.033.181,0-.19.278-.318.385-.092.077-.214-.105-.322-.156s-.064-.212-.086-.32-.216-.068-.259-.184C124.3,96.528,124.126,96.5,124,96.4Zm-3.2-.294c.058,0,.093-.006.13.026a.205.205,0,0,1,0,.093c-.042.026-.1,0-.12,0A.211.211,0,0,1,120.794,96.106Zm6.39.3c0-.079.158,0,.238,0,.109,0-.128.174-.222.229C127.132,96.682,127.188,96.486,127.184,96.409Zm-2.344.124c-.034-.118.216.033.267.145.028.064-.119.074-.182.106C124.835,96.829,124.865,96.614,124.841,96.532Zm1.849.145a1.787,1.787,0,0,1,.174-.046c.086-.018.019.24-.1.25C126.719,96.821,126.639,96.754,126.69,96.678Zm-.74.482c-.148-.013.129-.165.25-.178,0,0,.058.137.01.2C126.149,97.26,126.037,97.167,125.95,97.159Zm-8.395.184c.075,0,.182-.015.224.012.026.017.017.093.022.124s-.139.056-.2.006S117.529,97.354,117.556,97.343Zm5.559.07c.05-.1.17-.061.259-.072a.708.708,0,0,1-.145.381.111.111,0,0,1-.175-.037A.25.25,0,0,1,123.114,97.412Zm2.3.113c-.013-.16.267-.252.389-.147.046.04.1.079.077.136s-.12-.022-.192,0c-.094.029-.1.2-.194.16C125.438,97.647,125.424,97.591,125.419,97.525Zm1.877-.008c-.059,0,.042-.126.118-.129.067.014.074.086.108.131S127.371,97.52,127.3,97.518Zm-1.2.136a1.213,1.213,0,0,1,.495-.18c.1-.034.23.022.219.138a1.122,1.122,0,0,1-.531.236c-.089.032.165.1.232.164s-.186.46-.339.638-.1-.416-.155-.622A.68.68,0,0,1,126.092,97.654Zm1.468-.078c.042-.053.116.007.175.01,0,0,.041.091.01.135s-.184-.009-.184-.009S127.527,97.617,127.56,97.576Zm-9.828.152c.008-.048.072-.037.121-.035.113,0,.123.148.186.22.027.031-.006.122-.008.162C118.022,98.3,117.718,97.814,117.732,97.728Zm10.21.075c.017-.093.185.046.276.076,0,0,.025.079-.008.1-.068.045-.292.02-.281-.005A.759.759,0,0,1,127.943,97.8Zm-2.653.137c-.046-.157.319.108.489.083.017,0,.03.046.034.063.015.066-.291.171-.422.07C125.313,98.109,125.312,98.016,125.289,97.94Zm-6.81.055c-.011-.08.159-.041.24-.057.106-.02.16.142.237.215.107.1-.255.148-.384.221S118.5,98.123,118.479,97.994Zm10.42.219c.028-.093.166-.028.25-.031.038.154-.1.164-.216.165A.223.223,0,0,1,128.9,98.213Zm-.576.035s.167-.071.2,0a.175.175,0,0,1-.009.1s-.153.075-.192.012C128.3,98.324,128.323,98.248,128.323,98.248Zm-1.763.4a.479.479,0,0,1,.081-.337c.058-.089.231.166.167.273C126.757,98.664,126.56,98.643,126.56,98.643Zm-2.366-.193a.109.109,0,0,1,.148.026.1.1,0,0,1,.03.124c-.032.059-.1-.018-.173-.007C124.143,98.6,124.152,98.488,124.194,98.45Zm-6.816.078a.092.092,0,0,1,.135-.011c.033.034.049.121,0,.12s-.11.039-.141-.006A.084.084,0,0,1,117.378,98.529Zm10.311.161a1.311,1.311,0,0,0,.354.009c.025,0,.048.052.044.091s-.062.082-.062.082c-.109-.023-.287.059-.331-.064C127.677,98.763,127.643,98.681,127.688,98.689Zm-1.6.185c.032-.018.094.021.094.021s.042.06.024.092-.117.012-.117.012C126.085,98.968,126.041,98.9,126.084,98.874Zm1.94.237c.1,0,.327-.142.311.039a.441.441,0,0,1-.315.119C127.96,99.254,128.024,99.111,128.024,99.111Zm-3.048.238c-.068,0,.025-.185.123-.164.1-.033.076.091.1.149S125.051,99.344,124.977,99.349Zm1.473-.108a.089.089,0,0,1,.112-.025c.047.028.048.166,0,.14s-.1.032-.126-.009A.085.085,0,0,1,126.45,99.24Zm-2.994.054c0-.069.139-.008.209-.01s-.009.134-.013.2C123.642,99.609,123.451,99.421,123.456,99.294Zm.932.161c-.022-.073.153.009.23.014s-.068.2-.171.157C124.388,99.605,124.4,99.513,124.387,99.455Zm2.391.267c-.021-.1.2-.066.3-.086.165-.031-.145.223-.265.234C126.764,99.876,126.789,99.772,126.778,99.723Zm-3,.1a.084.084,0,0,1,.122.115c-.034.041-.139.052-.138,0C123.762,99.867,123.744,99.856,123.776,99.826Zm-1,.03c.009-.147.458.294.31.247-.042-.013-.061-.031-.1-.044-.081-.026-.168.043-.216-.027S122.769,99.915,122.773,99.856Zm2.775.071c-.006-.115.208-.052.341-.051.064,0,.058.139,0,.164a.9.9,0,0,1-.334.027C125.519,100.069,125.55,99.962,125.549,99.927Zm2.893-.043c.047-.041.154-.073.161-.011.01.094-.1.275-.169.2A.132.132,0,0,1,128.441,99.884Zm1.444.165c-.136.027.177-.216.331-.2.032,0-.011.1-.014.126C130.19,100.086,129.991,100.028,129.885,100.048Zm-6.283.264c-.042-.069-.085-.237.005-.229a.112.112,0,0,1,.106.1C123.718,100.253,123.636,100.368,123.6,100.313Zm-.974-.1a.086.086,0,0,1,.135.015.078.078,0,0,1-.023.087c-.027.029-.086.066-.1.028S122.593,100.255,122.629,100.217Zm7.072.054c-.079-.1.2-.036.348.122.026.083-.1.076-.137.118C129.839,100.589,129.768,100.353,129.7,100.272Zm-.566.311s.119-.041.153.008,0,.11,0,.11-.1.036-.142-.005S129.135,100.583,129.135,100.583Zm-5.435.109a.1.1,0,0,1,.124.017.108.108,0,0,1,.021.159c-.041.038-.151.048-.143-.007C123.715,100.766,123.643,100.727,123.7,100.692Zm3.659.174c-.162-.007.153-.184.29-.189.066,0-.032.127-.05.189S127.438,100.87,127.359,100.866Zm-1.982.067c.077-.09.1-.186.164-.134.044.035.071.112.023.141S125.33,100.989,125.377,100.933Zm1.691.471c.038-.168.29-.117.416-.242.058-.057.236-.012.231.082-.007.118-.554.39-.76.4C126.856,101.652,127.046,101.5,127.068,101.4Zm-2.946-.122c.045-.1.2.021.295.06.121.053-.233.124-.367.122C123.984,101.463,124.095,101.342,124.122,101.282Zm3.569.321c.076-.045.1-.107.192-.122.135-.024-.122.186-.241.254s-.245.154-.373.079C127.11,101.72,127.533,101.7,127.691,101.6Zm-4.259.207c-.1-.045.174-.137.284-.158.037-.008-.013.109-.018.146C123.687,101.885,123.521,101.85,123.432,101.81Zm1.873-.009a.084.084,0,0,1,.1.032.081.081,0,0,1,.025.09c-.02.048-.067.019-.136.009C125.241,101.924,125.258,101.822,125.3,101.8Zm3.124.241c.04-.075.041-.212.161-.193.1-.032.072.135.105.193C128.606,102.045,128.517,102.045,128.429,102.042Zm-4.888.069c.187-.038.389-.265.569-.107.122.108-.294.149-.4.273-.063.071-.161.054-.243.07S123.421,102.135,123.541,102.111Zm2.529-.022c.064-.076.179-.091.27-.133.138-.064-.081.285-.247.279C126.093,102.235,126.012,102.158,126.07,102.089Zm-1.37.2c-.075,0,.023-.18.095-.2s.084.041.125.064C125,102.2,124.771,102.288,124.7,102.293Zm.343.063c-.156.02.107-.269.265-.26.079.005-.03.155-.067.224S125.11,102.347,125.044,102.356Zm2.117.069c.162-.061.282-.282.452-.235.076.021-.008.087-.01.116-.008.1-.184.1-.276.151-.247.137-.135.515-.457.613-.16.049-.073-.382-.027-.495S127.051,102.467,127.161,102.425Zm-3.083.01c-.095-.111.284-.015.421.03.074.025-.07.176-.164.175C124.2,102.64,124.146,102.515,124.078,102.435Zm1.658-.026a.2.2,0,0,1,.216.051c.044.074-.09.092-.134.138a.782.782,0,0,1-.515.278c-.135,0,.092-.2.211-.231C125.619,102.618,125.623,102.442,125.736,102.409Zm.017.743c-.22.119.174-.4.351-.52.071-.05.3-.006.281.118C126.346,102.995,125.973,103.033,125.753,103.152Zm.947.665a.423.423,0,0,1,.288-.4c.124-.061-.1.258-.18.368A.1.1,0,0,1,126.7,103.817Zm-2.045.185c.008-.132.1-.152.163-.117.046.024.03.121.09.126.166.014.322.015.361.184.026.117-.249.084-.353.083-.081,0-.037-.173-.1-.218C124.771,104.033,124.651,104.062,124.655,104Zm1.672.164c.005-.058.115-.025.173-.037s.055.163.006.216c-.066.072-.2.018-.193-.012C126.323,104.279,126.322,104.222,126.327,104.166Zm-.455.556c-.055-.107.235-.054.351-.09.164-.052-.018.305-.093.459-.1.2-.256.277-.334.448-.039.085.047.146,0,.234a1.163,1.163,0,0,1-.6.453c-.08.03,0-.17,0-.255,0-.159-.378.013-.465-.12-.164-.251.486-.256.644-.059.2.251.287-.369.559-.638.086-.085.032-.18.028-.275C125.952,104.82,125.9,104.775,125.872,104.722Zm.724.511c-.056-.151.088-.247.227-.2a1.7,1.7,0,0,1,.306.4C126.925,105.553,126.709,105.4,126.6,105.233Zm0,.614c.04-.058.135-.039.182.013a.11.11,0,0,1,.026.125c-.033.07-.1-.015-.2-.012C126.55,105.975,126.564,105.888,126.592,105.847Zm-.715.592c-.18.128.1-.495.347-.573,0,0,.129-.027.173.023.063.072-.063.153-.121.212A3.493,3.493,0,0,1,125.877,106.439Zm.448.082c-.094-.016.1-.159.151-.233s.063.169.084.257S126.4,106.534,126.325,106.522Zm.411,3.9c-.088-.12.3-.009.448,0,.1.008-.15.187-.262.15A.324.324,0,0,1,126.736,110.42ZM144.346,125.1c.043-.142.242.134.227.269-.008.082-.207.028-.3,0S144.319,125.184,144.346,125.1Zm-15.57-4.012c0-.052.119.007.151.05a.109.109,0,0,1-.015.163C128.8,121.275,128.772,121.187,128.776,121.084ZM135.7,124.5c-.042-.052.124-.022.2-.021.032,0,0,.107-.021.156C135.848,124.715,135.745,124.556,135.7,124.5Zm.9.689a.319.319,0,0,1,.137.014c0,.025.017.075-.013.1s-.108.005-.108.005S136.552,125.206,136.6,125.186Zm1.682.8c-.231-.061.37-.17.627.021a1.2,1.2,0,0,0,.372.152c.089.028-.169.122-.258.1C138.741,126.194,138.532,126.056,138.277,125.989Zm1.51.022c.149-.078.289.006.433.021s-.327.146-.417.116C139.753,126.13,139.7,126.058,139.788,126.011ZM128.1,102.273c-.1-.006.141-.147.236-.162.042-.007.057.078-.009.173C128.285,102.344,128.178,102.277,128.1,102.273Zm-1.371-5.217s.1-.055.14-.016a.09.09,0,0,1-.025.139c-.036.015-.072-.017-.1-.022Zm-8.658,12.295c-.022-.071.147-.007.222-.009s-.042.147-.08.218.125-.009.2-.016c.14-.012.182.1.3.023.149-.093.175.317.393.287.189-.026-.016.276.008.464.059.479-.843-.392-1.262-.615l-.078.013c-.129.165-.272.247-.415.4a.259.259,0,0,0,0,.28c.075.166.349.2.519.272.3.125.576-.047.886.039.084.024-.063.14-.117.208s.147.072.223.1-.1.1-.144.151c0,0-.167.041-.238-.006-.041-.028-.044-.031-.083-.061-.19-.146-.55.071-.748-.092-.153-.127-.13-.312-.285-.415-.091-.06-.217.018-.326.02-.044,0-.083-.127-.042-.17a.388.388,0,0,0,.171-.094c.066-.085-.079-.078-.147-.106-.139-.057-.018-.278,0-.426.009-.076-.143-.091-.212-.122-.053-.024.039-.124.117-.129.12-.007.1.218.175.315a1.107,1.107,0,0,0,.147.013c.1,0,.046-.162.047-.264,0-.128.259-.051.388-.058a1.88,1.88,0,0,1,.409.05C118.2,109.638,118.1,109.442,118.074,109.35Z" transform="translate(-103.137 -88.268)" fill="#1a1818" fill-rule="evenodd"/>
    </g>
  </g>
</svg>
