<svg xmlns="http://www.w3.org/2000/svg" width="51.059" height="63.953" viewBox="0 0 51.059 63.953">
  <g id="Group_6382" data-name="Group 6382" transform="translate(-10 -9.502)">
    <g id="Group_6372" data-name="Group 6372" transform="translate(10.917 10.002)">
      <path id="Subtraction_4" data-name="Subtraction 4" d="M46.019,50.555H3.634A3.619,3.619,0,0,1,0,46.961V3.586A3.615,3.615,0,0,1,3.634,0H46.019a3.61,3.61,0,0,1,3.624,3.586V46.961A3.614,3.614,0,0,1,46.019,50.555ZM3.729,1.895A1.967,1.967,0,0,0,1.759,3.855V46.7a1.967,1.967,0,0,0,1.971,1.961H45.912a1.973,1.973,0,0,0,1.98-1.961V3.855a1.973,1.973,0,0,0-1.98-1.961Z" fill="#fff" stroke="rgba(0,0,0,0)" stroke-width="1"/>
      <path id="Path_2814" data-name="Path 2814" d="M113.311,129.911a4.29,4.29,0,0,0-.085.969,5.641,5.641,0,0,1,.061.68c0,.238.188.6.179.84-.018.275.134.526.1.8-.03.157.093.372-.068.482-.142.094-.323.065-.483.1-.249.056-.505,0-.756.046a4.081,4.081,0,0,1-1,.072c-.441.056-.888,0-1.329.064-.271.042-.538-.056-.81-.028a2.586,2.586,0,0,1-.395,0c-.192-.045-.1-.571.026-.827s.1-.539.247-.773c.089-.142.119-.335.292-.4a.909.909,0,0,0,.388-.419c.038-.066.141-.06.212-.087.115-.186.014-.39,0-.587a1.473,1.473,0,0,1,.242-.612,1.12,1.12,0,0,0,.082-.829,4.59,4.59,0,0,1-.175-.807c-.035-.393-.317-.711-.355-1.1-.026-.29-.111-.569-.148-.857-.015-.169-.146-.3-.176-.459-.079-.425-.349-.792-.443-1.212a1.7,1.7,0,0,0-.172-.577,8.68,8.68,0,0,1-.2-1.553,11.637,11.637,0,0,0-.208-1.2c-.121-.494-.424-.708-.4-1.2.015-.309-.432-.807-.587-1.4-.064-.248-.3-.595-.36-.847-.182-.447-.355-.9-.507-1.358a11.524,11.524,0,0,0-.384-1.2c-.11-.179-.09-.462-.223-.728-.074-.228-.146-.456-.205-.688a5.43,5.43,0,0,0-.2-.934,1.9,1.9,0,0,0-.155-.569c-.049-.1.059-.227.029-.34a12.025,12.025,0,0,1-.21-2.026c-.051-1.112-.092-2.226-.056-3.339a7.859,7.859,0,0,1,.2-1.671,1.121,1.121,0,0,1,.172-.6c.035-.079,0-.229.066-.289a2.143,2.143,0,0,0,.36-.656c.085-.179.174.363.119.562-.058.154-.178.276-.243.426-.045.1.027.223.032.335.019.285-.275.476-.219.782.015.077.228-.111.34-.166.174-.085.1.372.156.554.047.143.342.028.452-.042.041-.025-.007-.172.014-.2a7,7,0,0,1,.671-.638c.071-.079.192-.072.287-.107s.074-.159.068-.247c-.01-.149-.155-.254-.236-.379-.053-.084.16-.116.242-.171.049-.032-.009-.117-.013-.176s.12-.049.18-.073-.012-.142-.017-.212a1.73,1.73,0,0,1,.374-.326c.085-.061.141-.19.26-.121.048.1.071.215.114.321.056.138.212-.168.281-.284l-.037-.17c.107-.1.169-.286.334-.3.067.069.081.235.177.227.229-.021.677-.533,1.112-.463.162.027-.157-.532-.164-.81,0-.114.23.027.344.028.149,0,.34-.467.541-.6.068-.045.022.16.031.241.014.113.257-.025.324-.112.043-.055-.064-.128-.016-.179a.99.99,0,0,1,.456-.315c.163-.03.279.509.471.726.084.1.057-.248.109-.364.037-.082.171-.072.234-.136.128-.128.191-.357.344-.5a1.161,1.161,0,0,0,.28-.492c.037-.108-.546-.2-.8-.076a6.9,6.9,0,0,0-.652.441c-.1.07-.225-.079-.341-.107-.276.038-.532.215-.815.183-.14-.019-.134-.143-.122-.254.007-.059-.044-.113-.062-.169a.235.235,0,0,1,.213-.131c.074,0-.057.263.039.247s.108-.328.189-.484a3.591,3.591,0,0,1,.48-.312c.076-.058.053-.283.079-.425.015-.086-.146-.1-.224-.135-.153-.073-.612.256-.878.447-.114.088-.132.28-.284.317-.256.046-.392.286-.549.465a4.543,4.543,0,0,1-.5.569.751.751,0,0,1-.767.295c-.133-.049.218-.331.233-.491.011-.126-.233-.1-.336-.021-.144.11-.369.259-.406.4-.021.083.122.111.1.195-.057.238-.376.389-.532.612-.062.088-.2-.134-.308-.1s-.142.154-.215.231c-.03.031.021.12-.025.167s-.186.078-.208,0a.236.236,0,0,1,.072-.276c.173-.158.309-.349.468-.52a4.649,4.649,0,0,1,.217-.419c.076-.092.27-.067.352-.136a8.58,8.58,0,0,1,.772-.837c.051-.038.062-.11.093-.165.065-.114.237-.116.356-.174s.15.063.223.02c.045-.026.124-.1.2-.07.058.026.088.136.088.136.144-.02.289-.035.435-.045.122-.009.161-.183.247-.27.023-.063.047-.125.07-.187.067-.176.333-.185.423-.352-.008-.106-.013-.139-.028-.243-.024-.162.314-.018.477-.046.144-.025.185-.477.425-.555a1.1,1.1,0,0,1,.5.009c.109.033-.035.351.085.311a.17.17,0,0,0,.11-.151c.014-.093-.128-.12-.114-.213.01-.068.065-.086.1-.145s.007-.181.082-.179a3.045,3.045,0,0,0,.939-.226c.113-.031.088-.286.207-.346a.667.667,0,0,0,.455,0c.084-.033.064-.174.132-.232.1-.086.275.138.43.112.1-.018.156-.138.243-.2.042-.028.124-.264.218-.2.053.036.017.106.062.151.114.114.14-.223.208-.356s.306.212.474.114c.136-.131.23-.3.37-.428.086-.079.2-.036.31-.065.073-.018.087-.154.115-.224.063-.161.322-.134.5-.161a1.131,1.131,0,0,0,.371-.2c.14-.083.148-.274.205-.418.036-.091.12-.2.219-.2.325,0,.36-.284.563-.346a9.1,9.1,0,0,0,1.278-.688c.175-.086.272-.252.43-.356a4.15,4.15,0,0,0,.835-.648c.19-.172.4-.247.618-.41.14-.106.329.019.421.1s-.423.068-.309.131.278.03.228.116a1.353,1.353,0,0,1-.647.413c-.108.026-.131.312-.293.382-.227.214-.381.572-.746.562-.078,0,.08.132.114.2a.64.64,0,0,1-.159.3c-.051.063-.363-.038-.527.053-.029.122-.03.272-.16.337a.69.69,0,0,0-.278.361,1.114,1.114,0,0,0-.324.126,1.939,1.939,0,0,1-.335.415c-.211.136-.343.4-.625.4-.191.084-.524-.046-.585.222a2.5,2.5,0,0,0,.178.205c-.087.232-.351.24-.552.317q-.041.151-.081.3c-.008.112.034.274-.089.338-.214.1-.443-.015-.653-.068a1.545,1.545,0,0,1-.181.621c-.1.167-.14.381-.308.5s-.384.212-.555.348c-.1.076-.073.4-.076.6,0,.1.495-.112.538-.173s-.047-.149.019-.217a.929.929,0,0,1,.2-.1c.119-.058.008-.283.113-.382.2-.215.608-.624.658-.589.075.052.057.16.146.183.037.01.238-.275.409-.343.082-.033.007.176,0,.264,0,.1-.238.168-.241.2-.006.073.062.1.089.167a2.059,2.059,0,0,1-.611.247c-.076.019.091.158.122.265.041.141-.24.372-.239.4,0,.069.176.034.176.034.074-.284.361-.386.594-.51.079-.043.277.1.423.1.068,0,.133-.24.217-.348.054-.069.174-.037.262-.033.054,0,.007.364-.045.536-.023.074.311-.034.457-.082.041-.014.023-.207.048-.308s.31.123.344-.043c.113-.2-.081-.4-.036-.609.027-.128.265.012.4,0,.157-.021.262-.175.408-.237a.66.66,0,0,1,.448.051,1.1,1.1,0,0,0,.508-.9c.009-.134.264-.1.4-.128.1-.021-.153-.145-.172-.242-.026-.134.338-.174.486-.3a.444.444,0,0,1,.548-.069c.085.061-.193.083-.286.132a.659.659,0,0,0-.113.523.462.462,0,0,1-.075.348c-.056.112.24.027.366.034.072,0,.025.212,0,.313-.021.07-.212.064-.317.1a2.333,2.333,0,0,0-.1.93c.019.173-.059.321-.024.484.044.146-.158.237-.112.384a4.144,4.144,0,0,1,.083.567c.006.081.151-.035.2-.109s-.009-.136.017-.217a.832.832,0,0,1,.072-.138c.064-.121-.2-.24-.14-.388a2.338,2.338,0,0,1,.272-.107,1.34,1.34,0,0,0-.016-.562.274.274,0,0,1-.094-.113c-.01-.038-.033-.1.006-.1s.162.081.162.081c.114-.006.135-.155.216-.219.091.007.265-.082.275.025.006.062-.019.152-.02.25,0,.184.092.31.052.467-.088.248-.36.359-.476.59-.048.1-.017.21-.038.314-.015.077-.111.112-.168.165-.076.072-.005.209-.01.313s.228.023.342.045c.31.061-.336.527-.562.738a.52.52,0,0,0,.207.582c.193.151.186.42.349.586.1.1-.26.129-.389.2-.2.1.418.162.645.147.173-.012.124-.327.128-.5.006-.259-.195-.479-.258-.731-.043-.172-.159-.369-.029-.531.066-.082.17.1.29.127.071.018.2-.043.187.029-.021.122-.034.17-.051.255-.026.121.242-.062.365-.085s-.132.227-.181.349c-.035.088.113.154.185.216s.165-.076.256-.089c.253-.035.312.394.375.633.039.148-.427-.273-.462-.066-.019.117.206.278.346.381.057.042.1-.1.153-.147.083-.079.23.023.345.038.153.018-.147.27-.226.4-.133.224.426-.171.578-.34.037-.042.112.01.168.016.15.015.168-.239.323-.264.205-.034-.027.419-.2.553a5.05,5.05,0,0,1-.716.413c-.079.045.131.125.2.188.093.091-.216.146-.326.215-.135.085.315-.051.472-.013.109.027.108-.2.162-.292s.317.037.314.177c0,.211-.245.338-.328.54-.033.081.4.207.614.126s.314-.3.449-.467c.151-.249.429-.379.609-.6a1.673,1.673,0,0,1,.63-.444c.138-.062-.036.2-.1.281a1.3,1.3,0,0,1-.214.355c-.2.2-.49.28-.678.492-.069.215-.067.449-.152.663.01.09.073.226-.045.277a5.886,5.886,0,0,1-1.851.321c-.091,0,.019.288.019.288-.1-.007-.209-.012-.312-.026.035-.095.08-.185.122-.277s-.141-.156-.224-.2c-.067-.038-.017.155-.023.232s-.129.128-.193.193c-.185.185.372.33.594.449.147.08-.04-.236.064-.273.056-.019.091.05.151.02.276-.135.5-.43.825-.3.061.026.048.288.13.468.063.138-.284.132-.423.2s-.151.249-.185.385c-.03.12.3.032.422.022s-.022-.22-.02-.331c0-.15.3-.022.452-.024.066,0,.029-.15.071-.2a1.481,1.481,0,0,1,.2.044,1.054,1.054,0,0,1,.466.22c.143.128-.423.287-.639.424-.185.117.447.076.661.007.149-.048.226-.216.37-.285.181-.088-.227.4-.484.583-.08.055.178.078.269.114.155.061.1-.307.291-.392.121-.055.308-.187.362-.167s.044.091.017.138-.134-.017-.178.038c-.067.085.2.077.25.126.154.146-.587.8-.965,1.123-.1.086.237,0,.391-.088.11-.066.075.128.039.179-.051.073-.228.117-.343.175-.18.091.388.124.563.225.1.058-.088.156-.112.331-.012.087.153-.046.26-.053.039,0,.107.007.04.091a1.822,1.822,0,0,1-.381.382c-.1.068-.124-.231-.2-.3s-.2.124-.214.225.195.11.189.163a2.726,2.726,0,0,1-.3.78c-.024.054-.1.067-.148.1-.079.054.114.156.146.247.069.2-.441.563-.461.93.036.091.09.174.126.265a1.892,1.892,0,0,0-.186.532.347.347,0,0,1-.135.51,2.674,2.674,0,0,1-.335-.127c-.339-.143.436.609.43.99,0,.177.2.094.3.141s.092-.228.137-.342c.015-.037.113-.035.15-.047.1-.031-.144-.155-.208-.238s.2-.078.309-.078c.088,0-.061-.2.03-.255a.681.681,0,0,0,.267-.66c-.025-.114.234-.01.35-.033.208-.041-.527-.2-.454-.411.036-.106.425-.149.57-.321.122-.144.366-.1.556-.092a2.441,2.441,0,0,1,.484.09c.21.036-.276-.339-.454-.465-.207-.137-.487.021-.677-.2s.854.1,1.285.042c.17-.025-.366-.137-.551-.2-.11-.037-.008-.127-.008-.127.185-.082.4-.027.59-.078.162-.043-.294-.117-.418-.179-.1-.052-.113-.143-.173-.234-.124-.185-.454-.062-.644-.191-.115-.079.147-.236.218-.354.107-.18.378.138.576.1.168-.032-.408-.436-.512-.723-.046-.088.1-.1.157-.093.415.094.838.152,1.257.231.136.026.062-.106.016-.128-.132-.065-.5-.082-.692-.247-.077-.06-.139-.169-.1-.25.116-.225.616-.188.894-.345.122-.069-.369-.05-.552-.019a2.432,2.432,0,0,0-.423.259,1.848,1.848,0,0,1-.824.3c-.093,0-.027-.115,0-.137.144-.119.446-.2.61-.378a4.072,4.072,0,0,1,.932-.51c.31-.067.632.016.949-.057.155-.035-.331-.116-.249-.177.409-.3,1.458-.33,2.028-.837.084-.075-.229,0-.335.039a9.9,9.9,0,0,1-1.185.462,4.093,4.093,0,0,1-.883-.011c-.085,0-.017.166-.028.249-.025.186-.566,0-.8-.134-.059-.035-.021-.137-.021-.137.311-.186.7-.084,1.014-.259.131-.073-.253-.165-.4-.2a.552.552,0,0,1-.342-.422c-.079-.276.78.074.834-.008.031-.046.008-.174-.046-.184a.965.965,0,0,1-.518-.277c-.086-.083-.335.028-.364-.145.135-.166.423-.054.544-.242.1-.16.154-.385.389-.38.084,0-.1-.159-.072-.238.045-.157.381-.189.518-.369.076-.1-.1-.211-.1-.357,0-.1.181.11.281.141.135.042.174-.378.311-.536.088-.114.218-.214.233-.368a1.089,1.089,0,0,1,.408-.784c.227-.071.277.194.365.337.054.089.19-.1.257-.182.092-.167.136-.356.238-.518a1.846,1.846,0,0,0,.232-.522,4.872,4.872,0,0,1,.281-.979c.105-.17-.374-.077-.569-.124a4.73,4.73,0,0,1-.688-.341c-.3-.127.448-.133.8.106.167.113.357.04.542.131.11.054.409-.524.546-.823.036-.079-.085-.152-.132-.225-.1-.161.036-.383.092-.566.027-.086-.257-.1-.4-.177-.1-.051.05-.249.089-.35.061-.157.385-.048.452-.232.057-.157-.068-.28-.143-.4l-.013-.094a1.121,1.121,0,0,1,.03-.465c.021-.065.155-.02.207.025a2.973,2.973,0,0,0,.867.66c.168.036.356-.035.512.059.246.127.763.185.783.266.013.057,0,.143.054.163s.111-.024.13.01c.057.1-.011.507.122.746.04.072.252-.126.259-.042a.647.647,0,0,0,.387.543c.1.067-.154.355-.139.559.007.107.3-.1.384-.134.067-.024.014.117-.018.178-.088.163-.256.223-.287.379a4.065,4.065,0,0,1-.02.414,2.419,2.419,0,0,1-.177.415c-.236.332-.285.766-.577,1.06-.27.232-.556.447-.835.67-.233.117-.511.117-.742.244a1.533,1.533,0,0,0-.466.334c-.048.059.059.281.038.42-.017.111.311.005.466.016.139.01-.177.193-.3.248-.037.016-.016.072.017.1.067.052.465-.066.549-.014a.073.073,0,0,1,0,.112c-.1.09-.361.077-.4.275-.033.158.335-.013.488.044.107.04-.262.145-.38.235-.092.07.063.469.222.623.061.058.287-.227.444-.139-.018.194-.224.181-.35.287-.074.061.147.191.267.281s.088-.272.153-.4a.859.859,0,0,1,.515-.23c.169,0,.162.191.2.308.177.03.318.063.5.078.143.012-.06-.28-.055-.427,0-.124.616.074.681.123s-.042.108-.02.208c0,0,.1.1.156.161.038.042-.1.109-.143.168s.174.177.324.184c.072,0,.022-.135.09-.16a.241.241,0,0,1,.1,0c.031,0,.064.066.086.088a1.434,1.434,0,0,1,.339.27c.086.09.28,0,.4-.023s-.245-.125-.363-.2a2.207,2.207,0,0,1-.421-.457c-.076-.09.037-.234.031-.352-.007-.165-.254-.3-.3-.486-.016-.071.12-.085.184-.123.094-.057-.133-.416.126-.294a3.016,3.016,0,0,1,.388.355c.1.089-.006.328.117.421.247.219.4.523.681.707.063.041-.023-.148-.033-.222a.343.343,0,0,0-.128-.361,4.1,4.1,0,0,1-.7-.927,1.12,1.12,0,0,1-.217-.4c-.068-.288-.416-.453-.378-.779a.16.16,0,0,1,.227-.1c.051.038.051.155.051.155.009.034.031.1.041.136s.064.056.086.074a.5.5,0,0,0,.25.292c.074.034.121-.146.335-.14a1.75,1.75,0,0,0,.753-.326c.079-.086-.273-.189-.386-.318-.051-.056-.186.037-.275,0s-.146-.056-.146-.139a.274.274,0,0,1,.3-.219c.118.026.113.234.192.242.06.006.126-.061.225-.132.121-.088.147-.288.256-.389.142-.129.285-.172.41-.28.064-.056.254.088.386.084.039,0-.052-.317-.066-.475,0-.046.191-.361.433-.343.2.015.244-.612.541-.9.239-.231.416-.664.764-.764a1.26,1.26,0,0,0,.57-.339,1.221,1.221,0,0,1,.591-.233c.118-.016.04.173.087.228.024.029.311-.237.51-.193.045.01,0,.181-.008.272,0,.051.225-.111.338-.211a.615.615,0,0,1,.658-.048c.074.041-.1.131-.078.207s.893-.061,1.255.127c.063.033.076.143.113.2s.207.126.121.232c-.138.31-.512.437-.613.766a.431.431,0,0,0-.053.243c0,.113.111.167.126.218.058.2-.178.371-.345.5-.047.044-.1.06-.125.135a.124.124,0,0,0,0,.119c.069.06.363.025.386.034.149.06-.094.123-.119.2,0,.016.076.125.036.161a2.112,2.112,0,0,0-.738,1.08,5.481,5.481,0,0,1-.663,1.357c-.1.2-.2.173-.282.31-.156.254-.366.242-.478.392a6.822,6.822,0,0,1-.933.7,1.935,1.935,0,0,1-1.014.312,3.821,3.821,0,0,1-.7-.042c-.256-.012-.5.073-.758.077-.17-.021-.346.185-.247.338a5.272,5.272,0,0,1,.417,1.238c.089.3-.086.46-.011.674a3.388,3.388,0,0,1,.024.827c-.076.228.01.474-.109.693-.135.312-.02.661-.169.967a7.585,7.585,0,0,1-.363,1.22c-.129.225-.031.357-.085.6-.072.321.116.583.046,1.019-.04.253.107.529.073.862a.971.971,0,0,1-.093.247c-.04.1-.188-.135-.2-.254a6.584,6.584,0,0,0-.481-1.012,2.212,2.212,0,0,0-.326-.543c-.061-.066-.1.016-.169.068-.2.148.1.485.154.723.027.107-.182.138-.227.238s.182.384.257.585c.1.286.554.533.6.727.04.172.216.4.3.653.045.122.112.15.2.246.072.08.291.035.343.061.2.1.177.39.34.592.1.126-.422.235-.665.247-.184.024-.372.007-.552.048-.149.034-.22.2-.313.319-.055.069-.153.1-.2.176a1.809,1.809,0,0,0-.24.882,1.275,1.275,0,0,0,.11.707c.084.15.287-.445.411-.3a1.048,1.048,0,0,1,.1.534c-.008.118-.132.192-.205.281-.087.108-.057.273-.048.413.006.1.114.128.184.177s.116-.168.189-.24c.126-.125.348-.044.52-.037s.23-.24.368-.334c.236-.144.5-.223.751-.343.191-.088.308-.275.487-.38a1.212,1.212,0,0,0,.5-.488c.222-.449.694-.7.945-1.133.155-.281.332-.55.478-.837a.129.129,0,0,1,.248-.033c.049.217-.067.431-.04.652a9.967,9.967,0,0,1-.258,1.211c-.061.5-.259,1.049-.282,1.238a3.146,3.146,0,0,1-.4.977c-.131.3-.4.531-.467.863-.028.149-.121.38.009.523.228.252.2.66.481.955.145.214.415.375.5.6.053.147-.674-.128-.992-.24a11.158,11.158,0,0,0-1.47-.544,1.786,1.786,0,0,1-.472-.227c-.18-.118-.419-.027-.6-.131a2.434,2.434,0,0,0-.543-.3c-.127-.025-.23.151-.269.1a.286.286,0,0,1-.058-.178c-.008-.092-.153-.1-.232-.151a1.973,1.973,0,0,0-1.05-.3c-.082.02.074.262.165.362.118.13.341.1.479.215a.975.975,0,0,0,.38.255,1.361,1.361,0,0,1,.446.227c.125.092-.271.528-.361.832-.021.069.25.093.33.211.19.263.6.4.575.775-.178.048-.38.1-.523-.05a.659.659,0,0,0-.291-.4,1,1,0,0,0-.415.031c-.095.012-.242-.143-.234-.189.043-.293.207-.156.384-.114.147.035-.1-.171-.2-.28-.083-.137-.045-.3-.16-.42a.387.387,0,0,0-.569,0c-.035.052.065.2.109.316s-.417-.012-.551.13c-.063.067.316.359.282.631-.006.054.254.161.38.236.16.1-.531.115-.466-.236.012-.062-.375-.063-.335.136a1.759,1.759,0,0,1,.224.3c.041.154.058.312.086.469.01.055.058-.041.1-.077.093-.076-.046-.2-.088-.315-.053-.137.242-.027.374.036.088.042-.05.161-.093.248-.055.112.349-.136.533-.21.053-.021.076-.206.111-.31.018-.056.122-.005.181.013s-.047.178-.073.268c-.011.038-.11.05-.146.067l-.03.063c-.007.115.291.206.459.21.093,0,.4-.382.661-.467a.623.623,0,0,1,.54.462c.045.112-.308.156-.46.239-.058.031.044.344.11.5,0,.2.046.393.061.591-.029.287-.213.553-.165.849.039.232.14.45.2.678.019.068.1.026.167.016.122-.018-.03-.272-.051-.391-.031-.168.111-.322.165-.484.023-.071.1,0,.18-.011.138-.015.072-.294.057-.432s-.1-.236-.137-.359a.683.683,0,0,1,.112-.469c.085-.105.337-.061.5-.11.176.028.438-.093.539.1a.207.207,0,0,1-.076.287c-.105.014-.212.009-.316.013-.211.006-.061.414-.107.619-.034.154.289.136.431.208.1.052-.057-.216-.046-.327.241-.167.574.057.817-.123.17-.189.177-.482.372-.653.134-.032.275-.022.407-.062.155-.055.4-.183.412-.259a.146.146,0,0,0,0-.093c-.016-.044-.256,0-.35-.047-.166-.085-.257-.28-.4-.431-.211-.305-.7-.221-.866-.571-.079-.03-.16-.058-.239-.085-.041-.015-.041-.143.039-.166a.723.723,0,0,1,.626.182,1.691,1.691,0,0,1,.52.133,2.861,2.861,0,0,1,1.061.173c.116.054.234-.022.349-.048a1.77,1.77,0,0,1,.73-.015c.135-.017.173.125.243.208.051.1.192.062.287.091.048.014.02-.147.027-.195s.118-.006.178-.007.013.1.007.173c0,.049-.082.025-.11.062-.048.065-.057.354-.24.406a1.5,1.5,0,0,1-.681.181.82.82,0,0,0-.379.015c-.048.022.013.246.14.27.424.035.774-.235,1.2-.264.09-.006.141.31.045.456-.094.093-.205.167-.3.258-.073.068.177.09.269.131.069.031-.064.137-.09.208-.039.113.218.219.326.1s-.11-.271-.181-.395c-.04-.071.164-.053.228-.107a.862.862,0,0,0,.162-.765.693.693,0,0,1-.145-.144c-.076-.13.3-.3.5-.386s-.018.438.1.629c.153.216-.108.395-.247.531-.066.063.075.116.145.177.1.087.419-.09.734-.052.1.012.243-.3.363-.459.062-.093.154.019.223.045a.328.328,0,0,0,.395-.018c.07-.051.033-.307.1-.442.056-.111.267.167.427.146a.771.771,0,0,1,.448.129.042.042,0,0,0,.027-.067c-.05-.091-.162-.128-.234-.2.016-.116.087-.125.169-.191s.185.06.267.134.22-.057.319-.108l.172-.231a2.259,2.259,0,0,1,.076-.334c.064-.183.4.06.587,0a1.062,1.062,0,0,0,.192-.367c.1-.2.449.043.671.083a1.462,1.462,0,0,1,.419-.445,2.226,2.226,0,0,1,.414-.052c.134-.015-.058-.26-.084-.391-.019-.093-.193.013-.283.044s-.151.159-.26.16c-.087-.066-.022-.151-.026-.24s.117-.134.189-.159c.116-.039.291.026.42-.048a.063.063,0,0,0,.018-.013c.018-.019-.012-.051.01-.065s.039.015.053,0-.006-.028,0-.04c.038-.048.108-.033.144-.044a.59.59,0,0,0,.135-.094.624.624,0,0,1,.062-.07c.261-.2.376-.06.536-.242a1.364,1.364,0,0,1,.56-.372c.113-.055.268.046.21.174a.836.836,0,0,0-.205.384,5.71,5.71,0,0,1-.733,1.361,2.953,2.953,0,0,0-.457.462,7.188,7.188,0,0,1-.678.84c-.194.223-.443.39-.637.613a.9.9,0,0,0-.205.223c-.214.326-.6.476-.847.77-.265.186-.523.383-.771.592-.195.174-.468.224-.658.4a1.576,1.576,0,0,1-.527.3c-.428.24-.827.531-1.278.728-.3.159-.63.24-.914.426-.226.1-.427.322-.677.319a2.428,2.428,0,0,0-.828.248c-.118.058-.265-.087-.393-.021-.259.094-.664.216-.73.5a1.024,1.024,0,0,0-.015.325c.007.144.175-.023.286.132a.934.934,0,0,1,.312.806c-.088.369-.453.539-.731.75-.24.172-.213.5-.276.752a1.492,1.492,0,0,1-.492.679,5.234,5.234,0,0,1-.9.644c-.066.041-.114.105-.183.14a4.691,4.691,0,0,1-1.681.48,2.371,2.371,0,0,1-.471.074,1.387,1.387,0,0,1-.671-.017,7.335,7.335,0,0,0-.905-.182c-.1-.023-.156.015-.248.009-.074,0-.125-.111-.21-.1a3.3,3.3,0,0,1-.647-.1c-.527-.086-1.059-.157-1.579-.279a11.175,11.175,0,0,1-1.585-.852,1.136,1.136,0,0,1-.5-.478c-.053-.107-.151-.121-.206-.227-.075-.143-.4-.128-.549-.423-.124-.24-.076-.453-.209-.616-.051-.062-.213-.124-.211-.305s-.556-.639-.8-.914a3.347,3.347,0,0,1-.652-1.085c-.077-.234-.261-.411-.346-.639a3.281,3.281,0,0,0-.271-.644c-.126-.165-.222-.482-.356-.5-.1-.016-.238.488-.32.744a2.093,2.093,0,0,0-.157.9,3.281,3.281,0,0,0,.575,1.72c.15.266.592.2,1,.733.231.3.2.729.32,1.088.07.214-.224.339-.4.417a1.389,1.389,0,0,1-.669.078c-.216-.022-.425.051-.641.044-.233,0-.464-.048-.7-.037-.461.065-.924-.061-1.388-.022-.314.038-.619-.078-.933-.065-.521-.086-1.051,0-1.573-.084-.736.012-1.469-.106-2.2-.076a10.2,10.2,0,0,1-2.034.179,5.356,5.356,0,0,1-1.967-.282.642.642,0,0,1-.308-.154,2.414,2.414,0,0,1-.109-.282,3.7,3.7,0,0,0-.329-.611c-.062-.239-.274-.349-.332-.584-.04-.165-.541-.362-.579-.707a5.637,5.637,0,0,1-.033-.911,7.042,7.042,0,0,1,.086-.724,1.092,1.092,0,0,1,.107-.335c.084-.208.191-.3.276-.5.038-.091.028-.177.086-.238a.466.466,0,0,0,0-.57c-.148-.362-.257-.737-.407-1.1a5.6,5.6,0,0,1-.178-.638c-.008-.517-.29-.981-.316-1.5a7.016,7.016,0,0,1-.212-1.386c.006-.131-.1-.294-.17-.3a.18.18,0,0,0-.153.114c-.036.1-.048.116-.017.207.084.242-.011.5.039.746.035.165.066.331.091.5.01.25.07.565.078.746.009.22.137.317.149.643.034.269.077.536.11.806a.357.357,0,0,1,.076.166,7.591,7.591,0,0,0,.231.977,8.349,8.349,0,0,1,.062,1.281,3.171,3.171,0,0,1-.037.474C113.359,129.651,113.311,129.911,113.311,129.911Zm21.343-18.457c.03-.107.223-.049.336-.029a3.276,3.276,0,0,1,.385.518c.063.1-.035.238.009.351a1.475,1.475,0,0,0,.29.235c.172.134-.25.252-.326.465-.083.229-.353-.351-.432-.583a2.82,2.82,0,0,0-.235-.373A.857.857,0,0,1,134.654,111.454Zm-9.1-19.021c.009-.115.187.137.282.2,0,0,.005.137-.039.115-.085-.041-.174-.068-.257-.113C125.482,92.606,125.551,92.5,125.556,92.433Zm3.145,2.214c.357.019.969-.081,1.077.025.062.062.1.412.247.573.061.068-.056.058-.1.083-.143.078-.277-.04-.415-.056-.033,0-.069.076-.1.088-.223.088-.612-.061-.864.127-.116.087.375-.012.439.024s.044.1.093.121a2.088,2.088,0,0,0,.791-.033c.2-.047.628-.038.6.1,0,.022-.109.08-.138.151s.425.067.463.236c.012.059-.184.176-.226.309s.184,0,.286-.01c.06-.006.119-.011.179-.014.029,0,.087.042.075.084s-.065.034-.087.046a.571.571,0,0,0-.2.174c-.046.056.515.272.788.4.072.034-.046.151-.067.227.041.067.087.134.124.205s-.113.086-.172.122-.032-.155-.047-.233c-.007-.041-.126,0-.168,0-.157-.007-.179-.226-.319-.3s-.217-.237-.327-.338a.67.67,0,0,0-.552.133c-.082.173.022.294.107.432.056.091.241-.011.351.017a.091.091,0,0,1,.008.1c-.028.038-.13.012-.231.032-.085.017.171.2.308.142a1.492,1.492,0,0,1,.53-.024c.165.032-.244.213-.641.194a4.882,4.882,0,0,0-.5.042c-.149.015.25.17.393.22.124.044.26-.035.391-.037a2.98,2.98,0,0,1,.484.138c.155.05-.161.292-.3.371-.165.09-.5-.11-.759-.124a11.544,11.544,0,0,1-1.272-.075c-.1-.014.145-.149.225-.215.04-.033-.109-.026-.142-.066s-.023-.13-.076-.188a2.862,2.862,0,0,0-.456-.1c-.19-.046.154-.357.27-.514.05-.068-.167-.073-.252-.038a3.651,3.651,0,0,1-.806.262c-.08,0,.065-.146.108-.214a1.715,1.715,0,0,1,.3-.034c.1-.006.091-.194.158-.263.136-.137-.395-.046-.578.018-.064.022-.084.222-.134.33-.068.146-.475-.448-.576-.755-.06-.183.373.109.549.2.04.021.2-.23.151-.369a1.746,1.746,0,0,0-.189-.142c-.11-.079.024-.269.015-.4a3.29,3.29,0,0,0-.175-.373.429.429,0,0,1-.185-.084c-.051-.05.107-.148.107-.148.294-.03.612.116.89-.015.128-.06-.01-.268,0-.4A.82.82,0,0,1,128.7,94.647Zm-9.712.078c.032,0,.14-.037.125-.011-.086.149-.574.688-.519.5.03-.1.029-.244.149-.288.04-.015.069,0,.109-.014C118.938,94.879,118.953,94.792,118.989,94.725Zm10.288.153c.009-.157.217.074.221.207,0,.031-.092.019-.122.025a.248.248,0,0,1-.107-.08C129.243,94.977,129.275,94.929,129.278,94.878Zm.388,1.331c-.035-.043.16-.072.28-.074,0,0,.065.149.01.143A.573.573,0,0,1,129.666,96.209Zm-7.434.58a.592.592,0,0,0,.493-.043.453.453,0,0,1-.28.363,3.03,3.03,0,0,0,.012.363c.008.082.157.114.148.2-.007.062-.217-.1-.32-.142s-.19.025-.3.057c-.132.038-.038.269-.107.388-.048.081.085.168.119.256.048.127-.259-.079-.385-.125-.088-.033-.053-.185-.041-.279a1.159,1.159,0,0,1,.443-.682A1.227,1.227,0,0,0,122.232,96.789Zm-8.336.983c.008-.1.154-.019.247.011.077.025-.1.083-.178.109C113.913,97.907,113.892,97.825,113.9,97.772Zm5.687.738c.036-.075.144.094.194.161a3.1,3.1,0,0,1-.16.926c-.068.173.051.314.1.473.023.069-.13.1-.183.149-.217.2.3.253.456.173.093-.047-.121-.087-.222-.115-.145-.041.143-.126.259-.077s.024.315.068.476c.035.129-.434.232-.606.408-.137.14-.34.127-.493.229s.158-.29.241-.447c.07-.132-.262-.281-.37-.149.056.071.274.161.178.207a.145.145,0,0,1-.105.007c-.1-.019-.088-.151-.16-.194-.115-.068-.549.162-.905.14a1.036,1.036,0,0,0-.164-.016,1.412,1.412,0,0,0-.824.373c-.18.2-.478.173-.713.27-.064.026-.057-.126-.084-.188-.043-.1-.215.014-.322.021-.047,0-.053.077-.08.115-.051.073-.2-.012-.263.062a3.02,3.02,0,0,0-.061.342,1.406,1.406,0,0,0-.433.122c-.085.04-.081-.151-.105-.241s-.149-.131-.225-.195.108-.139.073-.227a.611.611,0,0,0-.691.142c-.241.153-.1.5-.3.685-.064.069-.166,0-.19-.058a1.061,1.061,0,0,1,.2-.667,7.3,7.3,0,0,0,.569-1.155c.045-.142.153.044.2.1.113.134.062.377.173.533.066.094-.221.151-.172.288.164.11.305-.043.432-.136.144-.105.446-.022.667.011.09.028.087-.173.159-.135.03.016.027.047.054.067.225.163.624-.1.933-.16.138-.02.216-.139.3-.235s.251-.019.355-.093c.123-.068.179-.2.288-.286.191-.112.421-.062.629-.107a2.288,2.288,0,0,0,.737-.379c.121-.052.142-.127.19-.235s.239-.065.32-.147a.867.867,0,0,0-.09-.292c-.018-.053.079-.111.083-.167A1.077,1.077,0,0,1,119.583,98.509Zm21.289,1.889c0-.107.155.151.23.229.057.059-.15.067-.225.1C140.777,100.772,140.872,100.508,140.872,100.4Zm-26.635,1.835c.029-.132.239-.127.366-.174s.219.178.369.141c.237-.06.372.322.474.551.031.1.138.1.221.128.114.035.065-.227.132-.325s.087.173.11.283c.027.131-.269.15-.181.322.092.019.18-.089.263-.055.047.019.1.145.159.215.132.166.007-.373-.04-.548-.107-.4.752.176.745.536,0,.058-.071,0-.113-.017-.105-.037-.12-.148-.2-.206s-.07.2-.1.3c-.065.222-.378.259-.6.327-.122.036,0,.247.027.368.046.238-.358.358-.39.612-.014.113.2.362.259.56.024.078-.132.105-.211.126-.116.031.041-.444-.134-.589-.183,0-.264.2-.4.285a1.99,1.99,0,0,1-.269-.053c-.1-.025-.133.16-.195.243-.046.062.121.1.182.146.119.094.09.288.13.434.064.229-.584-.41-.674-.242a3.356,3.356,0,0,0-.1.8c-.064.2-.277.242-.452.289-.107.094.022.223.046.327.031.137-.092.265-.136.4-.05.151-.3.1-.447.169s-.071.257-.1.385c-.038.2-.42.08-.583.226-.114.1.045.3.065.453.009.07-.13.059-.194.089-.2.091.292.182.4.332.059.082-.2.028-.3.037-.079.008-.074-.138-.117-.2s-.154.046-.23.073a.357.357,0,0,1-.388-.173c-.048-.08.188-.007.282-.007s.137-.117.2-.176c.146-.127-.224-.336-.244-.532-.009-.089.125-.129.19-.191.048-.045-.1-.092-.142-.138-.07-.069.07-.184.079-.282.015-.156-.278-.158-.375-.286,0,0,.006-.119.082-.151a.825.825,0,0,1,.148-.024c.124-.02.084-.236.082-.361a1.963,1.963,0,0,1,.119-.456,2.511,2.511,0,0,1-.018-.585c0-.216.252-.316.289-.518a6.338,6.338,0,0,1,.136-.631c.038-.133.534-.315.624-.194.039.052-.016.228-.022.342-.008.159-.155.28-.2.434-.019.063.076.111.12.161.124.14.28-.246.406-.382.1-.107-.122-.281-.045-.421a1.323,1.323,0,0,0,.155-1.094c-.041-.094-.206.012-.306-.025a1.444,1.444,0,0,1-.157-.194c-.059-.078.177-.12.281-.1s.147.133.22.2.045-.207.081-.308c.061-.027.12-.08.185-.069.131.022.371.316.592.216a.386.386,0,0,0,.275-.364.286.286,0,0,0-.309-.194.61.61,0,0,0-.006.295c.008.1-.265.053-.292-.085.039-.08.086-.156.131-.232S114.221,102.3,114.237,102.233Zm27.37-.059c.109-.093.018.194-.025.266-.024.04-.079,0-.115-.029C141.384,102.343,141.481,102.282,141.607,102.174Zm-28.243.446a1.129,1.129,0,0,1,.258-.224c.13-.1-.074.375-.233.429C113.31,102.851,113.325,102.677,113.363,102.62Zm7.643-.107a.107.107,0,0,1,.164-.031.135.135,0,0,1,0,.113C121.133,102.66,120.988,102.6,121.006,102.513Zm1.1.344c-.013-.066.413-.225.418-.1,0,.091-.14.21-.219.309C122.247,103.144,122.127,102.951,122.108,102.857Zm.249.266a.534.534,0,0,1,.3-.219c.092-.03.086.118.121.212.062.17-.132.2-.136.354,0,.11-.312-.195-.355-.046-.064.22.4.4.6.6.105.1-.113.084-.224.032-.184-.086-.251.287-.374.446s.35.218.533.077c.155-.121.264.083.412.089a.347.347,0,0,0,.131-.083c.076-.084-.028-.223.053-.3s.087.2.046.318c-.06.173.25.016.42-.061.09-.04.078.173.085.271,0,.068-.07.077-.111.172-.017.04.1.085.131.113.114.1-.3.117-.443.045-.269-.114-.551-.193-.831-.281-.154-.046-.3.082-.455.024-.169-.065-.084-.465-.161-.722-.038-.126.17-.125.3-.128.1,0,.03-.206-.031-.287s-.316-.109-.419-.272S122.263,103.286,122.357,103.123Zm-1.312.053c.21-.089.56-.1.629.168.03.117-.159.178-.3.207s.172-.187.148-.278c-.035-.136-.193-.014-.317.028C121.133,103.3,121.041,103.264,121.045,103.176Zm.382.7a.359.359,0,0,1,.409-.1c.16.059-.356.223-.527.344-.058.041-.027.138-.036.207s-.154-.024-.223-.111C120.923,104.065,121.339,104.035,121.427,103.877Zm1.153.562c-.112.008.086-.185.186-.236.052-.027.034.133.041.217S122.655,104.432,122.58,104.439Zm-1.238-.027c-.014-.176.258.243.349.393s-.373-.119-.553-.017c-.1.055-.059-.121-.079-.177-.033-.1.134.04.235.069S121.349,104.506,121.341,104.412Zm8.572.493a.54.54,0,0,1,.388-.238c.027.056.053.112.079.169A.863.863,0,0,1,129.914,104.9Zm-8.473.114c.006-.063.108-.067.143-.022.053.068.13.219.065.225A.183.183,0,0,1,121.441,105.018Zm.57.012c.025-.056.015-.1.156-.029.086.045.107.165.135.257S121.972,105.117,122.011,105.03Zm-5.932.328c-.02-.09.173.063.262.092a.19.19,0,0,1,.037.107c-.008.07-.1.023-.15.035C116.137,105.612,116.108,105.487,116.079,105.359Zm5.193.2c-.007-.11.126-.065.194-.088.134-.046.169.225.243.345C121.8,105.957,121.386,105.683,121.272,105.556Zm7.728.308a1.339,1.339,0,0,0,.832-.324c.083-.065.2.1.268.173.03.032-.018.171-.1.2a1.463,1.463,0,0,1-.595.069c-.411-.013-.714.251-.888.125-.044-.032.071-.205.012-.236-.039-.021-.088.067-.112.023-.035-.064-.028-.167.017-.182C128.509,105.687,128.777,105.834,129,105.863Zm-6.99.044c-.129.019.133-.218.252-.274.073-.035-.033.157-.058.234S122.075,105.9,122.01,105.907Zm-6.412-.036c-.168-.082.3-.151.434-.064.031.02-.006.111-.054.123A.574.574,0,0,1,115.6,105.871Zm17.68.272c-.036-.133.23-.161.362-.206.072-.024.151.048.2.1.078.083-.228-.039-.3.059C133.478,106.175,133.325,106.318,133.277,106.143Zm-12.06-.075c-.01-.1.2.038.306.058.177.037-.159.149-.285.149C121.168,106.276,121.223,106.137,121.217,106.068Zm1.28-.026c-.007-.11.158.157.233.24.048.053-.137.04-.206.06C122.428,106.37,122.5,106.142,122.5,106.042Zm-15.845.628c-.095-.042.162-.133.256-.178s.174.08.26.124c.069.035-.09.125-.14.183C106.94,106.9,106.773,106.725,106.653,106.67Zm-.6.455c-.12-.183.162-.48.434-.46.233.017-.32.3-.285.539C106.21,107.27,106.111,107.216,106.051,107.126Zm.686.177c-.047-.021.023-.126.1-.121a1.109,1.109,0,0,1,.2.138C107.116,107.382,106.889,107.367,106.737,107.3Zm22.251.153a.876.876,0,0,1,.467-.1c.087.066.211.115.245.219s-.83.251-1.252.126C128.256,107.645,128.8,107.528,128.989,107.455Zm8.273,1.493a.111.111,0,0,1,.2-.075c.047.074-.009.177-.02.264S137.316,109.014,137.261,108.948Zm-26.349.365c.038-.089.113-.059.193-.072.122-.021.1.175.183.264s.259-.1.384-.157c.052-.024.094.063.128.11.062.084.185.095.279.142s-.153.092-.231.136c-.1.056-.187-.119-.291-.159-.114.015-.2.129-.33.1a.569.569,0,0,1-.092-.031c-.019-.008-.047-.041-.079-.03s-.06.1-.018.112c.067.026.155.05.155.05a.276.276,0,0,1,.03.2c-.025.127-.252.185-.147.321.089.161.26.049.373-.013.207-.011.027.181-.048.241-.1.028-.239.011-.308.11a1.312,1.312,0,0,1-.464.352c-.249.118.079-.541.106-.814A2.054,2.054,0,0,1,110.913,109.313Zm16.055-.036c-.016-.062.184-.052.246-.069.093-.025.138.134.2.209.042.05-.019.1-.125.15-.087.045-.1-.057-.184-.168C127.083,109.371,126.99,109.362,126.968,109.277Zm7.3.759a3,3,0,0,0,.224-.246c.052-.055.159,0,.217.07a.362.362,0,0,1,.053.13.859.859,0,0,0-.034.349,2.454,2.454,0,0,0,.294.281c.075.067-.191.118-.175.238a.312.312,0,0,1-.387.326,1.416,1.416,0,0,1-.513-.958C133.953,110.059,134.161,110.087,134.271,110.035Zm-21.945,1.318c.02-.132.44-.017.352.2-.047.116-.245.059-.365.1-.062.021-.051.119-.07.181-.036.117.248-.027.37-.048s.041.226.071.338-.2-.079-.3-.114,0,.238.005.358c0,.22-.321-.281-.547-.291-.1,0-.042.206-.1.292-.072.107-.246.089-.344.177-.122.11-.175.289-.314.378-.032.021-.1.017-.095-.021.006-.182.19-.321.277-.486a1.091,1.091,0,0,1,.291-.346c.13-.106.147-.3.28-.4C112.006,111.544,112.287,111.61,112.326,111.354Zm13.974.512a.135.135,0,0,1,.084-.221.249.249,0,0,1,.168.233C126.565,111.96,126.382,111.877,126.3,111.865Zm4.057.292a.08.08,0,0,1,.121,0,.076.076,0,0,1-.018.1c-.028.025-.058.016-.1.012C130.246,112.255,130.328,112.19,130.356,112.157Zm-3.156.626c.1-.025.194-.05.293-.068s-.148.186-.256.208C127.112,112.949,127.2,112.783,127.2,112.783Zm.9-.033c.038-.132.246.12.318.24a.471.471,0,0,1-.44.16C127.842,113.134,128.065,112.884,128.1,112.75Zm2.982.8c.212-.109.33-.328.526-.457s.285.2.255.363a1.928,1.928,0,0,0,.144.819c.029.093-.163.106-.246.157s-.028-.188-.053-.28c-.048-.166-.268-.224-.39-.349-.04-.04-.086.07-.125.111a.431.431,0,0,1-.451.18c-.272-.113-.578.162-.816-.062-.073-.068.176-.1.264-.144.034-.018.02-.115.026-.153.018-.1.193.067.293.091C130.739,113.814,130.9,113.644,131.086,113.546Zm-3.294-.071c.139-.142.4.05.608.021,0,.1-.042.28-.162.286a2.552,2.552,0,0,0-.477-.187C127.684,113.576,127.738,113.531,127.792,113.476Zm1.659.357c-.1-.132.3-.161.456-.214.057-.019.057.192-.017.277a.307.307,0,0,1-.306.089C129.519,113.967,129.493,113.885,129.451,113.832Zm-7.2.27c-.035.075-.07.15-.1.226-.091.125-.158.265-.249.39-.083.058-.193.027-.287.038C121.7,114.446,122.053,114.339,122.246,114.1Zm9.442,1.045c-.012-.169.262-.427.407-.3s.22,1.129.443,1.66c.082.2.1.409.169.61.052.158.189.276.249.434.134.349.352.659.5,1a.134.134,0,0,1-.024.158c-.216.043-.486.074-.635-.123-.05-.065.16-.04.241-.059.121-.028.033-.252-.052-.355-.05-.059-.125.1-.2.113-.134.015-.215-.167-.346-.2-.19-.054-.419-.07-.534-.252a.4.4,0,0,0-.385-.171c-.111.006-.186.122-.286.173-.159.079-.709-.217-1.076-.222-.25-.021-.263.306-.482.354a1.075,1.075,0,0,1-.84-.133c-.038-.026.007-.136.01-.182.008-.165.334-.008.5-.018.123-.007-.088-.228-.147-.335-.048-.088.052-.193.089-.286.053-.131.147.2.14.328-.007.148.238.008.373-.057.069-.033-.075-.17,0-.226.31-.222.75-.237,1.006-.537.063-.075.2-.026.292-.054.13-.039.15-.224.243-.322s-.007-.244.021-.362c.089-.162.316-.166.42-.316A2.1,2.1,0,0,1,131.688,115.147Zm-12.779.109c.1-.034.218-.081.25.01.017.049.027.131-.025.131-.119,0-.174.052-.217-.021C118.891,115.336,118.863,115.272,118.908,115.256Zm-4.644.526c-.124-.069.263-.073.38,0a.863.863,0,0,1,.264.371c.053.094.212-.046.318-.072.065-.016.17.079.1.161-.166.191-.487.025-.718-.057C114.43,116.123,114.427,115.871,114.264,115.782Zm11.593,2.031c-.172.019.184-.318.377-.309.092,0,.013.214-.087.266A1.013,1.013,0,0,1,125.858,117.813Zm2.888.375c-.055-.1.478.042.713-.016a1.064,1.064,0,0,1,.482-.019c.114.023-.093.109-.053.162s.1.071.136.029,0-.1,0-.1c.008-.026.077-.071.088-.01.053.31.452.283.653.458.159.139-.4.146-.607.177-.144.021-.205-.205-.3-.317a.092.092,0,0,0-.159.071c.021.324.455.256.546.544.105.329-.683-.058-1.005-.176-.092-.034.027-.194.031-.291s-.221-.03-.331-.044.157-.143.236-.215C129.025,118.384,128.845,118.358,128.746,118.188Zm-4.718.368c.049-.079.1,0,.131.006.09,0-.059.157-.157.216C123.937,118.819,123.989,118.62,124.028,118.557Zm1.121.142c-.064-.041.15-.029.227-.026s.111.161.066.18C125.341,118.9,125.244,118.758,125.15,118.7Zm.293.254c.062-.141.342-.119.447-.077.087.035.07.2,0,.239-.193.11-.111.379-.222.55-.038.063-.1.171-.184.1a.848.848,0,0,1-.187-.436C125.265,119.2,125.39,119.074,125.443,118.952Zm8.128.062c.023-.068.076-.068.075-.008a.389.389,0,0,1-.106.312C133.464,119.377,133.558,119.056,133.571,119.015Zm-4.951.087c.083-.086.271.039.322.171.08.212.28.382.265.623.017.1.008.3-.147.272-.188.012-.481-.165-.556.1-.1.188.141.279.216.424.174.287.464.562.46.9,0,.12-.262-.189-.37-.462-.053-.131-.143-.121-.31-.127-.1,0-.017.206,0,.308.032.2.242.3.351.466a3.814,3.814,0,0,0,.606.461c.148.106.368.048.478.2.075.106-.143.157-.241.186-.273.078-.565-.148-.745-.379a4.915,4.915,0,0,0-.44-.541c-.085-.091-.206-.044-.3-.057-.075-.011-.108-.116-.111-.2,0-.1.171-.1.26-.143s0-.184,0-.275c0-.044-.188-.085-.3-.032a.526.526,0,0,0-.12.174c-.048.108-.074-.227-.076-.345s.148-.22.132-.352a1.164,1.164,0,0,1,.34-.9C128.447,119.434,128.489,119.239,128.621,119.1Zm-13.368.116c.055.031.152.05.124.107a.085.085,0,0,1-.11.041C115.213,119.343,115.2,119.189,115.253,119.218Zm16.764.66c-.084-.006.093-.122.163-.174s.08.164,0,.184A.746.746,0,0,1,132.017,119.877Zm-4.941,0c.048-.117.256-.006.384,0,.155.006-.227.2-.334.314-.045.045-.013.134-.01.179s-.2.078-.192.011A2.168,2.168,0,0,1,127.076,119.88ZM115.1,120.3c-.084-.142.3-.139.449-.2.107-.042-.111.2-.177.292C115.32,120.469,115.153,120.387,115.1,120.3Zm7.28,1.462a8.678,8.678,0,0,0,.919-.495.167.167,0,0,1,.26.123,1.754,1.754,0,0,1-.091.413c-.077.322-.269.6-.328.931a5.544,5.544,0,0,1-.485.747c-.075.182-.1.38-.179.56-.094.349-.375.609-.467.959a3.425,3.425,0,0,0-.137.658c-.016.252-.1.493-.116.744-.011.142-.188.241-.189.383,0,.158.076.287.08.434a1.913,1.913,0,0,0,.014.465,1.458,1.458,0,0,1,.073.574c-.063.477-.02.96-.073,1.438a2.407,2.407,0,0,1-.04.58c-.085.263-.064.55-.165.81a2.2,2.2,0,0,1-.208.261,1,1,0,0,0-.2.648,2.679,2.679,0,0,0-.122.655c.008.234-.407-.254-.483-.538a.661.661,0,0,1,.2-.562c.094-.108.013-.286.033-.428.1-.19,0-.276-.1-.408a1.751,1.751,0,0,1-.228-1.029c-.077-.312-.349-.525-.424-.836a5.078,5.078,0,0,0-.346-1.179,1.007,1.007,0,0,1-.3-.626,5.629,5.629,0,0,1,.19-1.488,9.776,9.776,0,0,1,.411-1.442c.109-.316.093-.64.172-.954a.97.97,0,0,1,.2-.655c.052-.052.174-.042.248-.048a1.542,1.542,0,0,0,.4-.154c.157-.052.317-.1.471-.161.117-.037.234-.072.35-.112.133-.063.266-.126.4-.187A2.111,2.111,0,0,0,122.38,121.76Zm13.73-.267a.189.189,0,0,1,.112,0c.12.085.265.152.316.31.01.033-.116.043-.168.03A.835.835,0,0,1,136.111,121.493Zm-5.243,4.757c.1-.082.226,0,.335.018.127.044.289.063.365.191.183.3.511.453.757.689a.569.569,0,0,1,.123.261c.04.108-.218-.068-.3-.147a2.615,2.615,0,0,0-.627-.528,1.233,1.233,0,0,1-.491.066c-.147,0-.1.28-.208.378-.137.121-.367.059-.546.03C130.048,127.174,130.572,126.5,130.867,126.25Zm12.647.172c-.045-.1.231-.009.346.013.062.1-.04.193-.142.179C143.6,126.635,143.553,126.509,143.514,126.422Zm-1.858.519c-.229-.036.273-.371.5-.481.169-.08.024.319-.078.445-.079.1-.07-.047-.124-.08C141.873,126.774,141.755,126.957,141.657,126.942Zm-2.671.49c-.212.14-.173-.408-.013-.542.118-.1.175.252.259.381C139.286,127.353,139.066,127.378,138.986,127.432Zm-6.026.994c-.128-.111.107-.118.174-.088.2,0,.51.323.424.306A4.04,4.04,0,0,1,132.96,128.427Zm-2.4.9c-.078-.067.192-.1.3-.075.083.022.243,0,.227.131a3.172,3.172,0,0,1-.344.1C130.663,129.512,130.621,129.383,130.559,129.331Zm.928.222c.235-.129.86.136,1.179.414.236.207-.6-.1-.839-.323-.091-.087-.32.135-.39.072C131.4,129.686,131.428,129.585,131.487,129.553Zm-.513.493c-.068-.179.391-.154.59-.106a1.257,1.257,0,0,1,.49.2c.064.043-.087.142-.072.223.075.1.178.172.254.269s.081.258.132.383c.042.106.179.14.265.214.116.1-.33.175-.465.056-.188-.147-.435-.2-.607-.368-.118-.12.416-.016.5-.07a.088.088,0,0,0-.012-.143.912.912,0,0,0-.734-.032c-.121.062-.263-.067-.393-.108-.247-.076.265-.326.48-.422C131.3,130,131.129,130.027,130.974,130.046Zm2.69.334c-.005-.1.159.139.229.219.047.053-.139-.01-.207-.019S133.668,130.446,133.664,130.38Zm1.639.105c.043-.114.141.1.141.208,0,.033-.1-.007-.134-.009C135.243,130.682,135.279,130.548,135.3,130.486Zm-5,.455c-.1-.119-.03-.18.006-.3.052-.18.27.19.362.356C130.732,131.1,130.413,131.006,130.3,130.941Zm2.532.341c-.058-.064.169.033.254.052.034.007,0,.1,0,.135C133.092,131.576,132.907,131.36,132.835,131.281Zm-3.206,1.062c-.127-.12-.041-.363.143-.468.149-.086.178.257.287.391S129.736,132.443,129.629,132.344ZM119.257,99.7c.031-.037.123,0,.123,0a.153.153,0,0,1,0,.137c-.02.038-.108-.022-.108-.022S119.227,99.74,119.257,99.7Zm-4.533,2.595c.007-.127.268.064.259.212-.053.1-.179.075-.262.033S114.719,102.38,114.724,102.3Zm-.165.941c-.082.006.093-.177.19-.174s.076.1.107.148C114.906,103.3,114.658,103.235,114.559,103.241Zm.956.554a.5.5,0,0,1,.262-.36c.117-.058.013.28-.074.376C115.636,103.886,115.506,103.84,115.515,103.8Zm-1.206-.18c.013-.05.1-.024.132.015s-.011.1,0,.129-.086.033-.124,0S114.286,103.7,114.309,103.615Zm9.015,1.336c-.084,0-.034-.188.026-.247s.145.084.217.128c0,0,.029.1-.006.125C123.5,105.007,123.4,104.954,123.324,104.951Zm-9.53-.006c.036-.015.057.044.1.024s.062.116.017.113-.086.036-.122.005A.09.09,0,0,1,113.794,104.945Zm-1.214.539a.172.172,0,0,1,.219-.026.158.158,0,0,1,.029.18c-.041.122-.212.067-.32.1C112.425,105.755,112.509,105.547,112.58,105.484Zm1.3-.029c.019-.041.059.068.086.105s-.081.1-.13.111C113.767,105.687,113.836,105.563,113.884,105.454ZM124.763,91.91c.091.021.189-.155.269-.2s-.036.211-.068.3c-.023.065.056.109.126.111s.158-.067.247-.052c.069.011.3.213.506.212.081,0,.117.245.159.374.028.088.189-.214.292-.344.063-.079.219.014.314.056.1.1.16.226.257.325s.3-.068.355-.007.023.132.057.176a.9.9,0,0,0,.393.321c.128.039.27.477.534.576.09.033.042.125.059.2s.414.118.619.167c.1.023.125.152.2.21.042.031.037.108.048.159a1.553,1.553,0,0,1-1.024-.2c-.158-.009-.316-.028-.474-.039-.068,0-.023-.214-.022-.322,0-.089-.3.088-.434.162-.091.05-.168-.379-.191-.569-.014-.112.2.131.311.091.07-.025.186-.054.163-.151a.591.591,0,0,0-.533-.446,2.111,2.111,0,0,1-1.3.178c-.094,0,.007-.188.013-.281l-.1-.1c-.151-.038-.328-.059-.4-.219-.024-.053-.1.056-.155.084-.16.259-.508.264-.745.426-.091.062-.132-.2-.255-.207-.063.139-.072.311-.2.415a1.388,1.388,0,0,1-.752.376c-.141.031.142-.162.215-.286.025-.118-.073-.289.065-.361.189-.11.184-.351.3-.519.133-.084.321-.1.405-.247a1.179,1.179,0,0,1,.418-.412C124.55,91.81,124.643,91.881,124.763,91.91Zm1.466,27.282c.059-.109.068.166.09.231.038.111.111.154.163.259.06.124-.2.192-.3.282C125.984,120.133,126.13,119.374,126.229,119.192Zm5.986,11.028c-.122-.189.367.218.51.382.117.135.273.11.407.231.193.176-.509-.123-.714-.324A1.289,1.289,0,0,1,132.215,130.22ZM117.812,99.7l.088.036a.25.25,0,0,1,.009.139c-.037.085-.225.105-.229.07C117.669,99.848,117.779,99.7,117.812,99.7Zm-7.945.7c-.076-.034.069-.15.108-.223.054-.1.239.03.307.127a2.287,2.287,0,0,1,.036.251C110.34,100.709,110.013,100.462,109.867,100.4Zm-.225.306c.091-.139.333-.013.5-.022.106-.006-.03.211-.082.3-.03.054-.145.056-.2.13s-.047.151-.08.211c-.049.087-.134-.108-.2-.16l-.228-.031C109.172,101.109,109.548,100.849,109.643,100.7Zm-3.61,2.863c-.012-.081.167-.094.242-.058.1.044.136.244.151.384.013.116-.126.108-.228.166C106.045,104.144,106.058,103.739,106.032,103.566Zm29.071-1.2c0-.045.075-.016.116,0,.057.028.048.086.081.139.1.159.2.24.282.386.059.107-.227-.087-.34-.133s-.084-.235-.125-.352A.09.09,0,0,1,135.1,102.371Zm-1.651.491c-.212-.034.384-.115.584-.086.124.018.061.237.062.36C134.1,103.371,133.691,102.9,133.453,102.862Zm.39.363s.088-.028.112,0c.039.044,0,.125,0,.125-.048.013-.081.01-.093-.016A.684.684,0,0,1,133.843,103.225Zm-.418.14c-.006-.087.115-.03.221-.035.07,0-.048.144-.119.138A.109.109,0,0,1,133.425,103.365Zm.949.548a.1.1,0,0,1,.044-.159c.079-.046.128.108.072.162Zm.72.371c-.053-.075.185-.015.279-.018.033,0,0,.095,0,.126C135.365,104.491,135.157,104.373,135.094,104.283Zm-2.107.466c0-.06.121-.007.182-.01.157-.007-.075.234-.2.293C132.885,105.075,132.979,104.844,132.987,104.75Zm1.357.111c-.074-.045.119-.069.26-.02.035.012.013.109.018.145C134.635,105.087,134.431,104.914,134.344,104.861ZM123.49,91.078c.054-.047.423-.317.536-.245s0,.2-.074.3c-.112.151-.312.082-.464.138C123.429,91.291,123.442,91.12,123.49,91.078Zm-.922.308a1.013,1.013,0,0,1,.647-.216c.246,0-.249.321-.341.671-.154.042-.082-.149-.167-.212-.068-.051-.178-.011-.2-.093A.141.141,0,0,1,122.568,91.387Zm2.763.161a.288.288,0,0,1,.251-.029c.068.039.1.239.105.316.01.108-.231-.081-.338-.1C125.268,91.721,125.279,91.587,125.331,91.548ZM122.239,92c-.074-.163.062-.321.24-.372.107-.031.048.23.076.338S122.337,92.018,122.239,92Zm-.353,1.152c-.047-.067.114-.14.154-.144,0,0,.055.1.022.144A.114.114,0,0,1,121.886,93.155Zm.719.715c-.006-.105.26-.079.384-.12.217-.073-.169.284-.355.282C122.568,94.031,122.609,93.934,122.606,93.87Zm-1.65.159c.015-.1.178-.1.268-.145.25-.131-.3.517-.595.564-.071.012.057-.13.087-.195l.187-.04A.283.283,0,0,0,120.955,94.028Zm3.924-.035.143.012c.052.049.025.087-.008.12s-.122.007-.122.007C124.839,94.1,124.883,94.027,124.879,93.993Zm-3.166.356a.107.107,0,0,1,.142,0,1.022,1.022,0,0,1-.119.3c-.033.046-.125.017-.109-.008C121.658,94.6,121.631,94.411,121.714,94.349Zm5.288-.01c.006-.119.186.123.177.248,0,.061-.122,0-.183,0C126.913,94.581,127,94.42,127,94.339Zm-.407.162a.11.11,0,0,1,.126-.01c.08.042-.086.127-.128.192S126.538,94.544,126.6,94.5Zm-3.272.375a.164.164,0,0,1,.171-.2s.047.1.015.158S123.323,94.876,123.323,94.876Zm1.413,0c.061-.081.174,0,.263,0s.026.17.038.255c.017.115-.3-.046-.33-.117A.127.127,0,0,1,124.736,94.88Zm2.322-.017a.128.128,0,0,1,.14.011c.085.062-.109.113-.164.212C127,95.152,126.98,94.9,127.059,94.863Zm-5.363.076c.04-.028.176-.022.178.076.012.054-.056.088-.087.131C121.743,95.207,121.694,95,121.7,94.939Zm3.775.056c.038-.035.108-.045.133,0s-.025.1-.025.1-.082.057-.119.028A.087.087,0,0,1,125.471,94.994Zm-4.6.013a.282.282,0,0,1,.233.162c0,.038-.219.016-.224,0C120.861,95.158,120.863,95.045,120.873,95.008Zm1.653.273c.056-.06.184-.009.153.079a.1.1,0,0,1-.158.039C122.494,95.381,122.526,95.281,122.526,95.281Zm.291.052a.569.569,0,0,1,.182-.011c.03,0,.016.1-.013.14a.238.238,0,0,1-.168-.01C122.793,95.4,122.8,95.389,122.817,95.333Zm.973.323a1.627,1.627,0,0,1,.327-.383c.119.018.109.167.1.255-.094.1-.2.191-.283.3C123.883,95.889,123.781,95.752,123.79,95.657Zm-4.412-.031.126-.016-.02.134-.118.007Zm.822,0c.019-.037.11-.061.108,0,0,.031.007.095.009.126-.024.019-.111.03-.113-.013S120.185,95.655,120.2,95.626Zm5.884.011c.008-.093.189-.018.284-.024.132-.008-.013.263-.086.375-.046.072-.144-.092-.216-.139S126.078,95.708,126.085,95.637Zm-3.912.3c.025-.064.315-.149.486-.165.145-.013-.291.266-.476.338C122.127,96.132,122.153,95.991,122.173,95.937Zm-1.172-.1c-.047-.121.257.064.387.079a1.651,1.651,0,0,0,.3-.09c.136-.037-.1.274-.241.326-.069.025-.056-.1-.1-.113C121.278,96.022,121.058,95.981,121,95.836Zm2.667.466c-.126-.1.155-.264.232-.392.038-.062.145.017.219.029s-.079.132-.107.2.114.063.172.092c.235.119.173.506.389.675.112.088.284-.029.428-.032.178,0-.187.273-.312.379-.09.075-.21-.1-.316-.154s-.063-.208-.085-.314-.212-.067-.254-.18C123.965,96.429,123.794,96.4,123.668,96.3Zm-3.148-.288c.057,0,.091-.006.127.025a.2.2,0,0,1,0,.091c-.041.026-.1,0-.117,0A.207.207,0,0,1,120.52,96.014Zm6.279.3c0-.077.156,0,.234,0,.107,0-.126.171-.218.225C126.748,96.58,126.8,96.387,126.8,96.311Zm-2.3.122c-.034-.116.213.033.262.143.028.063-.117.073-.179.1C124.491,96.724,124.52,96.513,124.5,96.433Zm1.817.143a1.759,1.759,0,0,1,.171-.045c.085-.018.018.236-.1.246C126.342,96.717,126.263,96.65,126.313,96.576Zm-.727.473c-.146-.013.127-.162.246-.175,0,0,.057.134.01.2C125.781,97.147,125.672,97.056,125.586,97.049Zm-8.248.18c.073,0,.179-.015.22.012.026.017.017.091.022.121s-.137.055-.195.006S117.312,97.24,117.338,97.229Zm5.462.068c.049-.1.167-.06.255-.071a.7.7,0,0,1-.143.374.109.109,0,0,1-.172-.036A.245.245,0,0,1,122.8,97.3Zm2.265.111c-.013-.157.262-.248.382-.144.046.04.1.078.075.133s-.118-.021-.189,0c-.093.028-.1.2-.191.157C125.084,97.528,125.07,97.473,125.065,97.408Zm1.844-.007c-.058,0,.041-.124.116-.126.066.013.073.085.107.129S126.983,97.4,126.909,97.4Zm-1.184.134a1.192,1.192,0,0,1,.486-.177c.1-.034.226.021.215.136a1.1,1.1,0,0,1-.522.232c-.087.031.162.095.228.161s-.183.452-.333.626-.1-.409-.152-.611A.668.668,0,0,1,125.726,97.535Zm1.443-.077c.041-.052.114.007.172.01,0,0,.04.09.01.132s-.18-.008-.18-.008S127.135,97.5,127.168,97.458Zm-9.656.149c.008-.047.07-.036.119-.034.111,0,.121.145.183.216.027.03-.006.12-.007.159C117.8,98.171,117.5,97.692,117.512,97.607Zm10.032.073c.016-.091.182.046.271.075,0,0,.025.078-.008.1-.067.045-.287.019-.276-.005A.746.746,0,0,1,127.544,97.681Zm-2.607.135c-.045-.154.314.106.48.081.017,0,.03.045.034.062.015.065-.286.168-.415.069C124.96,97.982,124.959,97.89,124.937,97.816Zm-6.691.054c-.011-.079.156-.041.236-.056.1-.019.157.139.233.212.1.1-.251.145-.378.217S118.263,98,118.246,97.869Zm10.239.215c.027-.092.163-.028.245-.031.037.151-.1.161-.213.162A.219.219,0,0,1,128.484,98.084Zm-.566.034s.164-.07.2,0a.172.172,0,0,1-.009.1s-.151.074-.189.011C127.893,98.193,127.918,98.118,127.918,98.118Zm-1.733.389a.47.47,0,0,1,.08-.331c.057-.087.227.163.164.269C126.379,98.528,126.186,98.507,126.186,98.507Zm-2.325-.189a.107.107,0,0,1,.145.026.1.1,0,0,1,.029.122c-.031.058-.1-.017-.17-.007C123.811,98.466,123.819,98.354,123.861,98.317Zm-6.7.077a.091.091,0,0,1,.133-.011c.032.033.048.119,0,.118s-.108.038-.139-.006A.082.082,0,0,1,117.163,98.394Zm10.131.158a1.288,1.288,0,0,0,.348.009c.025,0,.047.051.043.089s-.061.081-.061.081c-.108-.023-.282.058-.326-.063C127.284,98.625,127.25,98.544,127.294,98.552Zm-1.576.182c.032-.018.092.021.092.021s.041.059.024.091-.115.011-.115.011C125.719,98.826,125.676,98.757,125.718,98.734Zm1.906.233c.1,0,.321-.139.305.038a.433.433,0,0,1-.309.117C127.562,99.107,127.625,98.966,127.625,98.966Zm-2.995.234c-.067,0,.024-.182.121-.161.1-.032.074.09.1.146S124.7,99.2,124.63,99.2Zm1.448-.107a.087.087,0,0,1,.11-.024c.046.028.047.163,0,.138s-.1.031-.124-.008A.083.083,0,0,1,126.078,99.093Zm-2.942.053c0-.068.137-.007.205-.01s-.009.132-.013.2C123.319,99.456,123.131,99.271,123.135,99.147Zm.916.158c-.022-.072.15.008.226.014s-.067.192-.168.155C124.052,99.452,124.067,99.361,124.051,99.3Zm2.349.263c-.021-.1.2-.065.3-.084.162-.03-.143.219-.26.23C126.386,99.718,126.411,99.616,126.4,99.567Zm-2.949.1a.082.082,0,0,1,.12.113c-.034.04-.137.051-.136,0C123.437,99.709,123.418,99.7,123.451,99.669Zm-.986.029c.009-.145.45.288.3.242-.041-.012-.06-.03-.1-.043-.079-.025-.165.042-.212-.026S122.461,99.756,122.465,99.7Zm2.727.069c-.006-.113.2-.051.335-.05.063,0,.057.137,0,.161a.887.887,0,0,1-.328.027C125.163,99.908,125.194,99.8,125.192,99.768Zm2.842-.042c.046-.04.151-.072.158-.011.01.092-.095.27-.166.2A.13.13,0,0,1,128.034,99.726Zm1.419.162c-.134.026.174-.213.325-.192.031,0-.011.094-.014.124C129.752,99.924,129.557,99.867,129.453,99.887Zm-6.173.26c-.041-.068-.083-.232,0-.225a.111.111,0,0,1,.1.1C123.394,100.088,123.313,100.2,123.28,100.147Zm-.957-.093a.085.085,0,0,1,.132.015.077.077,0,0,1-.023.086c-.026.028-.085.064-.1.027S122.288,100.09,122.323,100.054Zm6.949.053c-.077-.093.2-.035.341.12.025.081-.1.075-.135.116C129.407,100.418,129.338,100.187,129.272,100.107Zm-.556.306s.117-.04.151.007,0,.108,0,.108-.1.036-.139,0S128.716,100.413,128.716,100.413Zm-5.341.107a.1.1,0,0,1,.122.016.106.106,0,0,1,.021.156c-.04.037-.148.047-.141-.007C123.391,100.593,123.32,100.554,123.375,100.52Zm3.6.171c-.159-.007.151-.18.285-.186.064,0-.031.125-.049.186S127.048,100.695,126.971,100.691Zm-1.947.066c.076-.089.1-.183.161-.132.043.034.07.11.022.139S124.977,100.811,125.023,100.757Zm1.662.463c.038-.165.285-.115.408-.238.057-.056.232-.012.227.081-.007.116-.544.384-.747.395C126.476,101.463,126.664,101.314,126.685,101.22Zm-2.895-.12c.045-.1.2.02.29.059.119.052-.229.121-.361.12C123.655,101.277,123.764,101.158,123.79,101.1Zm3.507.315c.075-.044.1-.105.189-.12.133-.023-.12.183-.237.249s-.241.151-.366.078C126.726,101.53,127.141,101.507,127.3,101.415Zm-4.185.2c-.1-.044.171-.135.279-.156.036-.007-.013.108-.017.143C123.363,101.692,123.2,101.658,123.112,101.619Zm1.84-.009a.082.082,0,0,1,.1.031.079.079,0,0,1,.024.088c-.02.047-.066.019-.133.009C124.89,101.731,124.906,101.631,124.952,101.61Zm3.07.237c.039-.073.04-.209.158-.189.1-.032.071.133.1.19C128.2,101.849,128.108,101.849,128.022,101.846Zm-4.8.068c.184-.038.383-.26.559-.1.12.106-.289.146-.4.268-.062.07-.158.053-.239.069S123.1,101.938,123.219,101.914Zm2.485-.021c.063-.075.176-.089.265-.131.136-.063-.08.28-.242.274C125.727,102.036,125.648,101.96,125.7,101.893Zm-1.346.2c-.073,0,.023-.177.093-.2s.082.04.122.063C124.649,102,124.428,102.088,124.359,102.093Zm.337.062c-.153.02.105-.265.26-.256.077,0-.029.152-.065.22S124.761,102.146,124.7,102.155Zm2.081.068c.159-.06.277-.277.444-.231.075.021-.007.086-.01.114-.008.1-.181.1-.271.148-.243.134-.132.506-.449.6-.157.048-.072-.375-.027-.486S126.668,102.264,126.777,102.223Zm-3.03.01c-.093-.109.279-.014.414.03.073.024-.069.173-.161.172C123.867,102.434,123.814,102.311,123.747,102.233Zm1.629-.025a.194.194,0,0,1,.213.05c.044.073-.088.091-.132.136a.769.769,0,0,1-.506.274c-.133,0,.09-.2.208-.227C125.261,102.413,125.265,102.239,125.376,102.207Zm.017.73c-.216.117.171-.389.345-.511.07-.049.3-.006.276.116C125.975,102.783,125.609,102.82,125.393,102.937Zm.93.653a.416.416,0,0,1,.283-.394c.122-.059-.1.254-.177.361A.1.1,0,0,1,126.323,103.59Zm-2.01.182c.008-.13.094-.149.161-.115.046.024.029.119.088.124.163.013.317.014.354.18.025.115-.245.082-.346.081-.079,0-.036-.17-.1-.214C124.428,103.8,124.31,103.831,124.313,103.773Zm1.643.161c0-.057.113-.024.17-.036s.055.16.006.212c-.065.07-.194.018-.19-.012C125.953,104.044,125.952,103.989,125.957,103.934Zm-.447.546c-.054-.105.231-.053.345-.088.161-.051-.018.3-.092.451-.1.2-.252.272-.328.44-.038.084.046.144,0,.23a1.142,1.142,0,0,1-.592.446c-.079.03,0-.167,0-.25,0-.156-.371.012-.457-.118-.161-.247.478-.252.632-.058.2.247.282-.362.549-.627.084-.083.032-.177.027-.27C125.588,104.576,125.537,104.532,125.51,104.48Zm.712.5c-.055-.149.087-.243.223-.2a1.675,1.675,0,0,1,.3.394C126.545,105.3,126.332,105.144,126.222,104.982Zm0,.6c.039-.057.132-.039.178.013a.108.108,0,0,1,.026.123c-.033.069-.094-.015-.2-.011C126.176,105.711,126.19,105.625,126.217,105.585Zm-.7.582c-.177.125.1-.486.341-.563,0,0,.126-.027.17.023.062.071-.062.15-.119.208A3.434,3.434,0,0,1,125.514,106.167Zm.44.081c-.093-.016.1-.156.148-.229s.062.166.082.253S126.031,106.261,125.954,106.248Zm.4,3.831c-.086-.117.294-.009.44,0,.1.008-.147.184-.258.148A.319.319,0,0,1,126.358,110.079Zm17.3,14.419c.042-.139.238.132.223.264-.008.081-.2.027-.3,0S143.635,124.585,143.662,124.5Zm-15.3-3.942c0-.051.117.007.148.05a.107.107,0,0,1-.014.16C128.388,120.744,128.359,120.658,128.363,120.556Zm6.8,3.354c-.041-.051.121-.022.2-.02.031,0,0,.1-.021.153C135.312,124.124,135.211,123.968,135.164,123.91Zm.882.677a.314.314,0,0,1,.135.014c0,.025.017.073-.012.1s-.107,0-.107,0S136,124.607,136.046,124.587Zm1.653.789c-.227-.06.364-.167.616.021a1.177,1.177,0,0,0,.366.149c.087.027-.166.12-.253.1C138.154,125.577,137.949,125.441,137.7,125.376Zm1.484.021c.147-.077.284.006.425.021s-.321.144-.409.114C139.148,125.514,139.093,125.444,139.183,125.4ZM127.7,102.073c-.094-.006.139-.145.231-.159.041-.007.056.076-.009.17C127.881,102.143,127.775,102.078,127.7,102.073Zm-1.347-5.126s.1-.054.138-.016a.088.088,0,0,1-.024.137c-.035.014-.071-.017-.094-.022Zm-8.507,12.08c-.021-.069.145-.007.218-.009s-.041.144-.079.214.123-.009.2-.016c.138-.012.179.094.292.023.146-.092.172.311.386.282.186-.025-.016.271.007.456.058.471-.828-.385-1.24-.6l-.077.013c-.127.162-.268.243-.407.392a.255.255,0,0,0,0,.275c.073.163.343.2.51.268.3.123.566-.046.871.039.083.024-.062.137-.115.2s.145.071.219.1-.094.1-.141.148c0,0-.164.041-.234-.006-.041-.027-.044-.03-.082-.06-.187-.143-.54.07-.735-.09-.151-.125-.128-.306-.28-.408-.089-.059-.213.018-.32.019-.043,0-.082-.125-.041-.167a.382.382,0,0,0,.168-.093c.064-.083-.077-.077-.144-.1-.136-.056-.017-.273,0-.418.009-.075-.14-.09-.208-.12-.052-.024.039-.122.115-.127.118-.007.1.214.172.309a1.087,1.087,0,0,0,.144.012c.1,0,.045-.159.046-.26,0-.126.254-.05.381-.057a1.848,1.848,0,0,1,.4.05C117.974,109.31,117.875,109.117,117.847,109.027Z" transform="translate(-103.167 -88.315)" fill="#fff" fill-rule="evenodd"/>
    </g>
    <g id="Group_6381" data-name="Group 6381" transform="translate(10 63.846)">
      <rect id="Rectangle_2614" data-name="Rectangle 2614" width="1.895" height="9.171" transform="translate(0 0.218)" fill="#fff"/>
      <path id="Path_2806" data-name="Path 2806" d="M109.109,239.357h1.8v-6.743h.045l4.926,6.743h2v-9.171h-1.8v6.756h-.03l-4.941-6.756h-2Z" transform="translate(-105.883 -229.968)" fill="#fff" fill-rule="evenodd"/>
      <path id="Path_2807" data-name="Path 2807" d="M139.236,231.5H141.1c2.971,0,3.607,1.439,3.607,3.275s-.636,3.276-3.607,3.276h-1.864Zm-1.894,7.861h4.486c3.335,0,4.774-2.055,4.774-4.586s-1.44-4.586-4.774-4.586h-4.486Z" transform="translate(-124.007 -229.968)" fill="#fff" fill-rule="evenodd"/>
      <path id="Path_2808" data-name="Path 2808" d="M166.97,231.766h.046l1.622,3.943h-3.3Zm-5.122,7.591H163.8l1.015-2.428h4.32l1.016,2.428h2.031l-4.169-9.171H166Z" transform="translate(-139.739 -229.968)" fill="#fff" fill-rule="evenodd"/>
      <path id="Path_2809" data-name="Path 2809" d="M189.239,235.909c.046,2.274,2.047,3.276,4.517,3.276,2.153,0,4.305-.822,4.305-2.877a2.517,2.517,0,0,0-2.107-2.338c-.561-.141-2.955-.668-3.122-.706-.773-.18-1.289-.54-1.289-1.182,0-.925,1.107-1.194,1.986-1.194,1.3,0,2.243.437,2.334,1.618h1.9c0-1.913-1.9-2.928-4.153-2.928-1.955,0-3.956.86-3.956,2.7,0,.951.545,1.9,2.395,2.325,1.486.347,2.471.514,3.229.758a1.121,1.121,0,0,1,.894,1.131c0,.693-.622,1.387-2.289,1.387-1.516,0-2.744-.553-2.744-1.966Z" transform="translate(-157.323 -229.577)" fill="#fff" fill-rule="evenodd"/>
      <path id="Path_2810" data-name="Path 2810" d="M217.561,231.766h.046l1.622,3.943h-3.3Zm-5.122,7.591h1.955l1.016-2.428h4.32l1.015,2.428h2.031l-4.168-9.171h-2.016Z" transform="translate(-172.217 -229.968)" fill="#fff" fill-rule="evenodd"/>
    </g>
  </g>
</svg>
